G04 #@! TF.FileFunction,Paste,Bot*
%FSLAX46Y46*%
G04 Gerber Fmt 4.6, Leading zero omitted, Abs format (unit mm)*
G04 Created by KiCad (PCBNEW 4.0.7-e2-6376~58~ubuntu14.04.1) date Thu Jan  4 07:08:37 2018*
%MOMM*%
%LPD*%
G01*
G04 APERTURE LIST*
%ADD10C,0.100000*%
%ADD11R,1.780000X3.500000*%
%ADD12R,8.510000X7.870000*%
%ADD13R,3.810000X1.650000*%
G04 APERTURE END LIST*
D10*
D11*
X132280000Y-133985000D03*
X127000000Y-133985000D03*
X132280000Y-123825000D03*
X127000000Y-123825000D03*
X132280000Y-113665000D03*
X127000000Y-113665000D03*
X132280000Y-103505000D03*
X127000000Y-103505000D03*
X132280000Y-93345000D03*
X127000000Y-93345000D03*
D12*
X88900000Y-101600000D03*
D13*
X96525000Y-104140000D03*
X96525000Y-99060000D03*
D12*
X88900000Y-111760000D03*
D13*
X96525000Y-114300000D03*
X96525000Y-109220000D03*
D12*
X88900000Y-121920000D03*
D13*
X96525000Y-124460000D03*
X96525000Y-119380000D03*
D12*
X88900000Y-132080000D03*
D13*
X96525000Y-134620000D03*
X96525000Y-129540000D03*
D12*
X162560000Y-132080000D03*
D13*
X154935000Y-129540000D03*
X154935000Y-134620000D03*
D12*
X162560000Y-121920000D03*
D13*
X154935000Y-119380000D03*
X154935000Y-124460000D03*
D12*
X162560000Y-111760000D03*
D13*
X154935000Y-109220000D03*
X154935000Y-114300000D03*
D12*
X162560000Y-101600000D03*
D13*
X154935000Y-99060000D03*
X154935000Y-104140000D03*
D12*
X162560000Y-91440000D03*
D13*
X154935000Y-88900000D03*
X154935000Y-93980000D03*
D12*
X88900000Y-91440000D03*
D13*
X96525000Y-93980000D03*
X96525000Y-88900000D03*
M02*
