G04 #@! TF.FileFunction,Copper,L3,Inr,Signal*
%FSLAX46Y46*%
G04 Gerber Fmt 4.6, Leading zero omitted, Abs format (unit mm)*
G04 Created by KiCad (PCBNEW 4.0.7-e2-6376~58~ubuntu14.04.1) date Thu Mar  1 20:54:12 2018*
%MOMM*%
%LPD*%
G01*
G04 APERTURE LIST*
%ADD10C,0.100000*%
%ADD11C,1.500000*%
%ADD12R,1.900000X1.900000*%
%ADD13C,1.900000*%
%ADD14C,4.648200*%
%ADD15C,0.600000*%
%ADD16C,0.250000*%
%ADD17C,0.254000*%
G04 APERTURE END LIST*
D10*
D11*
X73835000Y-81060000D03*
X76835000Y-81060000D03*
X76835000Y-84060000D03*
X73835000Y-84060000D03*
X73835000Y-87060000D03*
X76835000Y-87060000D03*
X76835000Y-90060000D03*
X73835000Y-90060000D03*
X73835000Y-93060000D03*
X76835000Y-93060000D03*
X76835000Y-96060000D03*
X73835000Y-96060000D03*
X73835000Y-99060000D03*
X76835000Y-99060000D03*
X76835000Y-102060000D03*
X73835000Y-102060000D03*
X73835000Y-105060000D03*
X76835000Y-105060000D03*
X73835000Y-108060000D03*
X76835000Y-108060000D03*
X73960000Y-117280000D03*
X76960000Y-117280000D03*
X76960000Y-120280000D03*
X73960000Y-120280000D03*
X73960000Y-123280000D03*
X76960000Y-123280000D03*
X76960000Y-126280000D03*
X73960000Y-126280000D03*
X73960000Y-129280000D03*
X76960000Y-129280000D03*
X73960000Y-132280000D03*
X76960000Y-132280000D03*
D12*
X121285000Y-77275000D03*
D13*
X118785000Y-77275000D03*
D12*
X114300000Y-77275000D03*
D13*
X111800000Y-77275000D03*
D14*
X75565000Y-138430000D03*
X166370000Y-138430000D03*
X75565000Y-71755000D03*
X166370000Y-71755000D03*
D15*
X153289000Y-96012000D03*
X130429000Y-102870000D03*
X157480000Y-86360000D03*
X130175000Y-100965000D03*
X127381000Y-88138000D03*
X134493000Y-91186000D03*
X142621000Y-85090000D03*
X133985000Y-93218000D03*
X139065000Y-85090000D03*
X132969000Y-77470000D03*
X127889000Y-78486000D03*
X129413000Y-82042000D03*
X129413000Y-97790000D03*
X137541000Y-114554000D03*
X147193000Y-101346000D03*
X139573000Y-105410000D03*
X94615000Y-80010000D03*
X95123000Y-72136000D03*
X111633000Y-71882000D03*
X154305000Y-84455000D03*
X140716000Y-78740000D03*
X140716000Y-72390000D03*
X104394000Y-79502000D03*
X135509000Y-81534000D03*
X128397000Y-99822000D03*
X135509000Y-87122000D03*
X134493000Y-88646000D03*
X106807000Y-75946000D03*
X110617000Y-68834000D03*
X140589000Y-91694000D03*
X129921000Y-96266000D03*
X138049000Y-100838000D03*
X140589000Y-104902000D03*
X104394000Y-78486000D03*
X91948000Y-79248000D03*
X90932000Y-70866000D03*
X135763000Y-73660000D03*
X130175000Y-81026000D03*
X139319000Y-69596000D03*
X144653000Y-96520000D03*
X138049000Y-103378000D03*
X136525000Y-102870000D03*
X120015000Y-121285000D03*
X121920000Y-119380000D03*
X130302000Y-108077000D03*
X128778000Y-108077000D03*
X132080000Y-107315000D03*
X127762000Y-107061000D03*
X136906000Y-109855000D03*
X127000000Y-106553000D03*
X132334000Y-106299000D03*
X125984000Y-106553000D03*
X149352000Y-102743000D03*
X128524000Y-110617000D03*
X148971000Y-87884000D03*
X158369000Y-97028000D03*
X101727000Y-99060000D03*
X101727000Y-109220000D03*
X101727000Y-120142000D03*
X101727000Y-129540000D03*
X157861000Y-136652000D03*
X157353000Y-125476000D03*
X157607000Y-113030000D03*
X157607000Y-103124000D03*
X157607000Y-94996000D03*
X101727000Y-88900000D03*
X130429000Y-84836000D03*
X124333000Y-86106000D03*
X96647000Y-96520000D03*
X96901000Y-107188000D03*
X96647000Y-117348000D03*
X96520000Y-127000000D03*
X94869000Y-133096000D03*
X161925000Y-130175000D03*
X156210000Y-127000000D03*
X157861000Y-117348000D03*
X158115000Y-106680000D03*
X78740000Y-133985000D03*
X80010000Y-133985000D03*
X86741000Y-73152000D03*
X97917000Y-73660000D03*
X126365000Y-78486000D03*
X135255000Y-80645000D03*
X139065000Y-83820000D03*
X153035000Y-77470000D03*
X135255000Y-78740000D03*
X137160000Y-80010000D03*
X141605000Y-82550000D03*
X153035000Y-71120000D03*
X138430000Y-71755000D03*
X129413000Y-100076000D03*
X133731000Y-101092000D03*
X134747000Y-106934000D03*
X103505000Y-75438000D03*
X92456000Y-78232000D03*
X92456000Y-71628000D03*
X117983000Y-82042000D03*
X133731000Y-98552000D03*
X134747000Y-102108000D03*
X137033000Y-104902000D03*
X104013000Y-68326000D03*
X91694000Y-77216000D03*
X91948000Y-70866000D03*
X133223000Y-84836000D03*
X130683000Y-93726000D03*
X107315000Y-77216000D03*
X135001000Y-89662000D03*
X137033000Y-93726000D03*
X139573000Y-94488000D03*
X146431000Y-81280000D03*
X139827000Y-86614000D03*
X135001000Y-93726000D03*
X130683000Y-92202000D03*
X132207000Y-81026000D03*
X133731000Y-88900000D03*
X136271000Y-82296000D03*
X142621000Y-70866000D03*
X92710000Y-100330000D03*
X85090000Y-102870000D03*
X85090000Y-100330000D03*
X87630000Y-102870000D03*
X86360000Y-104140000D03*
X87630000Y-100330000D03*
X86360000Y-99060000D03*
X91440000Y-101600000D03*
X88900000Y-99060000D03*
X86360000Y-101600000D03*
X88900000Y-101600000D03*
X86360000Y-114300000D03*
X85090000Y-113030000D03*
X92710000Y-110490000D03*
X87630000Y-113030000D03*
X90170000Y-110490000D03*
X87630000Y-110490000D03*
X91440000Y-109220000D03*
X88900000Y-114300000D03*
X88900000Y-109220000D03*
X91440000Y-111760000D03*
X86360000Y-111760000D03*
X88900000Y-111760000D03*
X85090000Y-123190000D03*
X92710000Y-120650000D03*
X87630000Y-123190000D03*
X87630000Y-120650000D03*
X90170000Y-120650000D03*
X88900000Y-124460000D03*
X86360000Y-124460000D03*
X86360000Y-119380000D03*
X91440000Y-121920000D03*
X91440000Y-119380000D03*
X88900000Y-119380000D03*
X86360000Y-129540000D03*
X85090000Y-133350000D03*
X85090000Y-130810000D03*
X87630000Y-130810000D03*
X90170000Y-130810000D03*
X87630000Y-133350000D03*
X91440000Y-129540000D03*
X88900000Y-129540000D03*
X86360000Y-134620000D03*
X88900000Y-134620000D03*
X86360000Y-132080000D03*
X88900000Y-132080000D03*
X138430000Y-129540000D03*
X142240000Y-133350000D03*
X138430000Y-137160000D03*
X138430000Y-133350000D03*
X142240000Y-137160000D03*
X146050000Y-137160000D03*
X146050000Y-129540000D03*
X142240000Y-129540000D03*
X146050000Y-133350000D03*
X140335000Y-131445000D03*
X140335000Y-135255000D03*
X144145000Y-135255000D03*
X144145000Y-131445000D03*
X142240000Y-133350000D03*
X158750000Y-123190000D03*
X161290000Y-120650000D03*
X166370000Y-123190000D03*
X166370000Y-120650000D03*
X163830000Y-123190000D03*
X163830000Y-120650000D03*
X165100000Y-124460000D03*
X165100000Y-121920000D03*
X160020000Y-119380000D03*
X162560000Y-119380000D03*
X165100000Y-119380000D03*
X127762000Y-108077000D03*
X131318000Y-108839000D03*
X158750000Y-113030000D03*
X158750000Y-110490000D03*
X161290000Y-110490000D03*
X160020000Y-109220000D03*
X162560000Y-109220000D03*
X163830000Y-113030000D03*
X163830000Y-110490000D03*
X166370000Y-113030000D03*
X166370000Y-110490000D03*
X165100000Y-114300000D03*
X165100000Y-111760000D03*
X165100000Y-109220000D03*
X158750000Y-102870000D03*
X158750000Y-100330000D03*
X161290000Y-100330000D03*
X160020000Y-99060000D03*
X166370000Y-102870000D03*
X166370000Y-100330000D03*
X163830000Y-102870000D03*
X165100000Y-104140000D03*
X163830000Y-100330000D03*
X165100000Y-101600000D03*
X162560000Y-99060000D03*
X165100000Y-99060000D03*
X151003000Y-97028000D03*
X123063000Y-103124000D03*
X158750000Y-90170000D03*
X158750000Y-92710000D03*
X161290000Y-90170000D03*
X162560000Y-88900000D03*
X163830000Y-92710000D03*
X163830000Y-90170000D03*
X166370000Y-92710000D03*
X166370000Y-90170000D03*
X165100000Y-93980000D03*
X165100000Y-91440000D03*
X165100000Y-88900000D03*
X90170000Y-90170000D03*
X87630000Y-90170000D03*
X87630000Y-92710000D03*
X86360000Y-93980000D03*
X86360000Y-88900000D03*
X91440000Y-88900000D03*
X91440000Y-91440000D03*
X88900000Y-88900000D03*
X86360000Y-91440000D03*
X88900000Y-93980000D03*
X88900000Y-91440000D03*
X95377000Y-73406000D03*
X102616000Y-81534000D03*
X92202000Y-80772000D03*
D16*
X128397000Y-99822000D02*
X128397000Y-88646000D01*
X128397000Y-88646000D02*
X135509000Y-81534000D01*
X130175000Y-81026000D02*
X130175000Y-79248000D01*
X130175000Y-79248000D02*
X135763000Y-73660000D01*
X87249000Y-73660000D02*
X86741000Y-73152000D01*
X87249000Y-73660000D02*
X93853000Y-73660000D01*
X95377000Y-71120000D02*
X97917000Y-73660000D01*
X95123000Y-71120000D02*
X95377000Y-71120000D01*
X94361000Y-71882000D02*
X95123000Y-71120000D01*
X94361000Y-73152000D02*
X94361000Y-71882000D01*
X93853000Y-73660000D02*
X94361000Y-73152000D01*
X135010999Y-80400999D02*
X135255000Y-80645000D01*
X131906999Y-80400999D02*
X135010999Y-80400999D01*
X131581999Y-80725999D02*
X131906999Y-80400999D01*
X131581999Y-80798003D02*
X131581999Y-80725999D01*
X129112999Y-82667001D02*
X129713001Y-82667001D01*
X126365000Y-79919002D02*
X129112999Y-82667001D01*
X129713001Y-82667001D02*
X131581999Y-80798003D01*
X146685000Y-83820000D02*
X153035000Y-77470000D01*
X139065000Y-83820000D02*
X146685000Y-83820000D01*
X126365000Y-79919002D02*
X126365000Y-78486000D01*
X141605000Y-82550000D02*
X139700000Y-82550000D01*
X139700000Y-82550000D02*
X137160000Y-80010000D01*
X153035000Y-71120000D02*
X152155999Y-70240999D01*
X115500000Y-77275000D02*
X114300000Y-77275000D01*
X122534001Y-70240999D02*
X115500000Y-77275000D01*
X152155999Y-70240999D02*
X122534001Y-70240999D01*
X111800000Y-77275000D02*
X113265000Y-78740000D01*
X115432998Y-78740000D02*
X122555000Y-71617998D01*
X113265000Y-78740000D02*
X115432998Y-78740000D01*
X138292998Y-71617998D02*
X138430000Y-71755000D01*
X122555000Y-71617998D02*
X138292998Y-71617998D01*
X129413000Y-100076000D02*
X129413000Y-100330000D01*
X111379000Y-83312000D02*
X116205000Y-83312000D01*
X103505000Y-75438000D02*
X111379000Y-83312000D01*
X124333000Y-83312000D02*
X116205000Y-83312000D01*
X128143000Y-87122000D02*
X124333000Y-83312000D01*
X128143000Y-88263602D02*
X128143000Y-87122000D01*
X127635000Y-88771602D02*
X128143000Y-88263602D01*
X127635000Y-100330000D02*
X127635000Y-88771602D01*
X128143000Y-100838000D02*
X127635000Y-100330000D01*
X128905000Y-100838000D02*
X128143000Y-100838000D01*
X129413000Y-100330000D02*
X128905000Y-100838000D01*
X117983000Y-82042000D02*
X114427000Y-82042000D01*
X114427000Y-82042000D02*
X109347000Y-76962000D01*
X109347000Y-76962000D02*
X109347000Y-70104000D01*
X109347000Y-70104000D02*
X107569000Y-68326000D01*
X107569000Y-68326000D02*
X104013000Y-68326000D01*
X136271000Y-82296000D02*
X136271000Y-75692000D01*
X141097000Y-70866000D02*
X142621000Y-70866000D01*
X136271000Y-75692000D02*
X141097000Y-70866000D01*
X95377000Y-73406000D02*
X95377000Y-77597000D01*
X95377000Y-77597000D02*
X92202000Y-80772000D01*
D17*
G36*
X72870380Y-128383470D02*
X72869621Y-129252717D01*
X73201567Y-130056086D01*
X73815681Y-130671273D01*
X74618470Y-131004620D01*
X75487717Y-131005379D01*
X76291086Y-130673433D01*
X76906273Y-130059319D01*
X77239620Y-129256530D01*
X77240379Y-128387283D01*
X76982017Y-127762000D01*
X77990137Y-127762000D01*
X77989760Y-128194285D01*
X78200169Y-128703515D01*
X78589436Y-129093461D01*
X79098298Y-129304759D01*
X79649285Y-129305240D01*
X80158515Y-129094831D01*
X80548461Y-128705564D01*
X80759759Y-128196702D01*
X80760138Y-127762000D01*
X80990137Y-127762000D01*
X80989760Y-128194285D01*
X81200169Y-128703515D01*
X81589436Y-129093461D01*
X82098298Y-129304759D01*
X82649285Y-129305240D01*
X83158515Y-129094831D01*
X83548461Y-128705564D01*
X83759759Y-128196702D01*
X83760138Y-127762000D01*
X95959534Y-127762000D01*
X95989673Y-127792192D01*
X96333201Y-127934838D01*
X96705167Y-127935162D01*
X97048943Y-127793117D01*
X97080114Y-127762000D01*
X125603000Y-127762000D01*
X125603000Y-138303000D01*
X78524212Y-138303000D01*
X78524612Y-137843981D01*
X78075065Y-136755994D01*
X77243384Y-135922860D01*
X76156184Y-135471415D01*
X74978981Y-135470388D01*
X73890994Y-135919935D01*
X73057860Y-136751616D01*
X72606415Y-137838816D01*
X72606010Y-138303000D01*
X72186000Y-138303000D01*
X72186000Y-133281167D01*
X93933838Y-133281167D01*
X94075883Y-133624943D01*
X94338673Y-133888192D01*
X94682201Y-134030838D01*
X95054167Y-134031162D01*
X95397943Y-133889117D01*
X95661192Y-133626327D01*
X95803838Y-133282799D01*
X95804162Y-132910833D01*
X95662117Y-132567057D01*
X95399327Y-132303808D01*
X95055799Y-132161162D01*
X94683833Y-132160838D01*
X94340057Y-132302883D01*
X94076808Y-132565673D01*
X93934162Y-132909201D01*
X93933838Y-133281167D01*
X72186000Y-133281167D01*
X72186000Y-131194285D01*
X77989760Y-131194285D01*
X78200169Y-131703515D01*
X78589436Y-132093461D01*
X79098298Y-132304759D01*
X79649285Y-132305240D01*
X80158515Y-132094831D01*
X80548461Y-131705564D01*
X80759759Y-131196702D01*
X80759761Y-131194285D01*
X80989760Y-131194285D01*
X81200169Y-131703515D01*
X81589436Y-132093461D01*
X82098298Y-132304759D01*
X82649285Y-132305240D01*
X83158515Y-132094831D01*
X83548461Y-131705564D01*
X83759759Y-131196702D01*
X83760240Y-130645715D01*
X83549831Y-130136485D01*
X83160564Y-129746539D01*
X83109095Y-129725167D01*
X100791838Y-129725167D01*
X100933883Y-130068943D01*
X101196673Y-130332192D01*
X101540201Y-130474838D01*
X101912167Y-130475162D01*
X102255943Y-130333117D01*
X102519192Y-130070327D01*
X102661838Y-129726799D01*
X102662162Y-129354833D01*
X102520117Y-129011057D01*
X102257327Y-128747808D01*
X101913799Y-128605162D01*
X101541833Y-128604838D01*
X101198057Y-128746883D01*
X100934808Y-129009673D01*
X100792162Y-129353201D01*
X100791838Y-129725167D01*
X83109095Y-129725167D01*
X82651702Y-129535241D01*
X82100715Y-129534760D01*
X81591485Y-129745169D01*
X81201539Y-130134436D01*
X80990241Y-130643298D01*
X80989760Y-131194285D01*
X80759761Y-131194285D01*
X80760240Y-130645715D01*
X80549831Y-130136485D01*
X80160564Y-129746539D01*
X79651702Y-129535241D01*
X79100715Y-129534760D01*
X78591485Y-129745169D01*
X78201539Y-130134436D01*
X77990241Y-130643298D01*
X77989760Y-131194285D01*
X72186000Y-131194285D01*
X72186000Y-127762000D01*
X73128437Y-127762000D01*
X72870380Y-128383470D01*
X72870380Y-128383470D01*
G37*
X72870380Y-128383470D02*
X72869621Y-129252717D01*
X73201567Y-130056086D01*
X73815681Y-130671273D01*
X74618470Y-131004620D01*
X75487717Y-131005379D01*
X76291086Y-130673433D01*
X76906273Y-130059319D01*
X77239620Y-129256530D01*
X77240379Y-128387283D01*
X76982017Y-127762000D01*
X77990137Y-127762000D01*
X77989760Y-128194285D01*
X78200169Y-128703515D01*
X78589436Y-129093461D01*
X79098298Y-129304759D01*
X79649285Y-129305240D01*
X80158515Y-129094831D01*
X80548461Y-128705564D01*
X80759759Y-128196702D01*
X80760138Y-127762000D01*
X80990137Y-127762000D01*
X80989760Y-128194285D01*
X81200169Y-128703515D01*
X81589436Y-129093461D01*
X82098298Y-129304759D01*
X82649285Y-129305240D01*
X83158515Y-129094831D01*
X83548461Y-128705564D01*
X83759759Y-128196702D01*
X83760138Y-127762000D01*
X95959534Y-127762000D01*
X95989673Y-127792192D01*
X96333201Y-127934838D01*
X96705167Y-127935162D01*
X97048943Y-127793117D01*
X97080114Y-127762000D01*
X125603000Y-127762000D01*
X125603000Y-138303000D01*
X78524212Y-138303000D01*
X78524612Y-137843981D01*
X78075065Y-136755994D01*
X77243384Y-135922860D01*
X76156184Y-135471415D01*
X74978981Y-135470388D01*
X73890994Y-135919935D01*
X73057860Y-136751616D01*
X72606415Y-137838816D01*
X72606010Y-138303000D01*
X72186000Y-138303000D01*
X72186000Y-133281167D01*
X93933838Y-133281167D01*
X94075883Y-133624943D01*
X94338673Y-133888192D01*
X94682201Y-134030838D01*
X95054167Y-134031162D01*
X95397943Y-133889117D01*
X95661192Y-133626327D01*
X95803838Y-133282799D01*
X95804162Y-132910833D01*
X95662117Y-132567057D01*
X95399327Y-132303808D01*
X95055799Y-132161162D01*
X94683833Y-132160838D01*
X94340057Y-132302883D01*
X94076808Y-132565673D01*
X93934162Y-132909201D01*
X93933838Y-133281167D01*
X72186000Y-133281167D01*
X72186000Y-131194285D01*
X77989760Y-131194285D01*
X78200169Y-131703515D01*
X78589436Y-132093461D01*
X79098298Y-132304759D01*
X79649285Y-132305240D01*
X80158515Y-132094831D01*
X80548461Y-131705564D01*
X80759759Y-131196702D01*
X80759761Y-131194285D01*
X80989760Y-131194285D01*
X81200169Y-131703515D01*
X81589436Y-132093461D01*
X82098298Y-132304759D01*
X82649285Y-132305240D01*
X83158515Y-132094831D01*
X83548461Y-131705564D01*
X83759759Y-131196702D01*
X83760240Y-130645715D01*
X83549831Y-130136485D01*
X83160564Y-129746539D01*
X83109095Y-129725167D01*
X100791838Y-129725167D01*
X100933883Y-130068943D01*
X101196673Y-130332192D01*
X101540201Y-130474838D01*
X101912167Y-130475162D01*
X102255943Y-130333117D01*
X102519192Y-130070327D01*
X102661838Y-129726799D01*
X102662162Y-129354833D01*
X102520117Y-129011057D01*
X102257327Y-128747808D01*
X101913799Y-128605162D01*
X101541833Y-128604838D01*
X101198057Y-128746883D01*
X100934808Y-129009673D01*
X100792162Y-129353201D01*
X100791838Y-129725167D01*
X83109095Y-129725167D01*
X82651702Y-129535241D01*
X82100715Y-129534760D01*
X81591485Y-129745169D01*
X81201539Y-130134436D01*
X80990241Y-130643298D01*
X80989760Y-131194285D01*
X80759761Y-131194285D01*
X80760240Y-130645715D01*
X80549831Y-130136485D01*
X80160564Y-129746539D01*
X79651702Y-129535241D01*
X79100715Y-129534760D01*
X78591485Y-129745169D01*
X78201539Y-130134436D01*
X77990241Y-130643298D01*
X77989760Y-131194285D01*
X72186000Y-131194285D01*
X72186000Y-127762000D01*
X73128437Y-127762000D01*
X72870380Y-128383470D01*
G36*
X72870380Y-117683470D02*
X72869621Y-118552717D01*
X73201567Y-119356086D01*
X73815681Y-119971273D01*
X74618470Y-120304620D01*
X75487717Y-120305379D01*
X76291086Y-119973433D01*
X76906273Y-119359319D01*
X77239620Y-118556530D01*
X77240379Y-117687283D01*
X77205141Y-117602000D01*
X78937981Y-117602000D01*
X78591485Y-117745169D01*
X78201539Y-118134436D01*
X77990241Y-118643298D01*
X77989760Y-119194285D01*
X78200169Y-119703515D01*
X78589436Y-120093461D01*
X79098298Y-120304759D01*
X79649285Y-120305240D01*
X80158515Y-120094831D01*
X80548461Y-119705564D01*
X80759759Y-119196702D01*
X80760240Y-118645715D01*
X80549831Y-118136485D01*
X80160564Y-117746539D01*
X79812475Y-117602000D01*
X81937981Y-117602000D01*
X81591485Y-117745169D01*
X81201539Y-118134436D01*
X80990241Y-118643298D01*
X80989760Y-119194285D01*
X81200169Y-119703515D01*
X81589436Y-120093461D01*
X82098298Y-120304759D01*
X82649285Y-120305240D01*
X83158515Y-120094831D01*
X83548461Y-119705564D01*
X83759759Y-119196702D01*
X83760240Y-118645715D01*
X83549831Y-118136485D01*
X83160564Y-117746539D01*
X82812475Y-117602000D01*
X95740279Y-117602000D01*
X95853883Y-117876943D01*
X96116673Y-118140192D01*
X96460201Y-118282838D01*
X96832167Y-118283162D01*
X97175943Y-118141117D01*
X97439192Y-117878327D01*
X97553934Y-117602000D01*
X125603000Y-117602000D01*
X125603000Y-126238000D01*
X97080466Y-126238000D01*
X97050327Y-126207808D01*
X96706799Y-126065162D01*
X96334833Y-126064838D01*
X95991057Y-126206883D01*
X95959886Y-126238000D01*
X82812019Y-126238000D01*
X83158515Y-126094831D01*
X83548461Y-125705564D01*
X83759759Y-125196702D01*
X83760240Y-124645715D01*
X83549831Y-124136485D01*
X83160564Y-123746539D01*
X82651702Y-123535241D01*
X82100715Y-123534760D01*
X81591485Y-123745169D01*
X81201539Y-124134436D01*
X80990241Y-124643298D01*
X80989760Y-125194285D01*
X81200169Y-125703515D01*
X81589436Y-126093461D01*
X81937525Y-126238000D01*
X79812019Y-126238000D01*
X80158515Y-126094831D01*
X80548461Y-125705564D01*
X80759759Y-125196702D01*
X80760240Y-124645715D01*
X80549831Y-124136485D01*
X80160564Y-123746539D01*
X79651702Y-123535241D01*
X79100715Y-123534760D01*
X78591485Y-123745169D01*
X78201539Y-124134436D01*
X77990241Y-124643298D01*
X77989760Y-125194285D01*
X78200169Y-125703515D01*
X78589436Y-126093461D01*
X78937525Y-126238000D01*
X72186000Y-126238000D01*
X72186000Y-122194285D01*
X77989760Y-122194285D01*
X78200169Y-122703515D01*
X78589436Y-123093461D01*
X79098298Y-123304759D01*
X79649285Y-123305240D01*
X80158515Y-123094831D01*
X80548461Y-122705564D01*
X80759759Y-122196702D01*
X80759761Y-122194285D01*
X80989760Y-122194285D01*
X81200169Y-122703515D01*
X81589436Y-123093461D01*
X82098298Y-123304759D01*
X82649285Y-123305240D01*
X83158515Y-123094831D01*
X83548461Y-122705564D01*
X83759759Y-122196702D01*
X83760240Y-121645715D01*
X83687706Y-121470167D01*
X119079838Y-121470167D01*
X119221883Y-121813943D01*
X119484673Y-122077192D01*
X119828201Y-122219838D01*
X120200167Y-122220162D01*
X120543943Y-122078117D01*
X120807192Y-121815327D01*
X120949838Y-121471799D01*
X120950162Y-121099833D01*
X120808117Y-120756057D01*
X120545327Y-120492808D01*
X120201799Y-120350162D01*
X119829833Y-120349838D01*
X119486057Y-120491883D01*
X119222808Y-120754673D01*
X119080162Y-121098201D01*
X119079838Y-121470167D01*
X83687706Y-121470167D01*
X83549831Y-121136485D01*
X83160564Y-120746539D01*
X82651702Y-120535241D01*
X82100715Y-120534760D01*
X81591485Y-120745169D01*
X81201539Y-121134436D01*
X80990241Y-121643298D01*
X80989760Y-122194285D01*
X80759761Y-122194285D01*
X80760240Y-121645715D01*
X80549831Y-121136485D01*
X80160564Y-120746539D01*
X79651702Y-120535241D01*
X79100715Y-120534760D01*
X78591485Y-120745169D01*
X78201539Y-121134436D01*
X77990241Y-121643298D01*
X77989760Y-122194285D01*
X72186000Y-122194285D01*
X72186000Y-120327167D01*
X100791838Y-120327167D01*
X100933883Y-120670943D01*
X101196673Y-120934192D01*
X101540201Y-121076838D01*
X101912167Y-121077162D01*
X102255943Y-120935117D01*
X102519192Y-120672327D01*
X102661838Y-120328799D01*
X102662162Y-119956833D01*
X102520117Y-119613057D01*
X102472311Y-119565167D01*
X120984838Y-119565167D01*
X121126883Y-119908943D01*
X121389673Y-120172192D01*
X121733201Y-120314838D01*
X122105167Y-120315162D01*
X122448943Y-120173117D01*
X122712192Y-119910327D01*
X122854838Y-119566799D01*
X122855162Y-119194833D01*
X122713117Y-118851057D01*
X122450327Y-118587808D01*
X122106799Y-118445162D01*
X121734833Y-118444838D01*
X121391057Y-118586883D01*
X121127808Y-118849673D01*
X120985162Y-119193201D01*
X120984838Y-119565167D01*
X102472311Y-119565167D01*
X102257327Y-119349808D01*
X101913799Y-119207162D01*
X101541833Y-119206838D01*
X101198057Y-119348883D01*
X100934808Y-119611673D01*
X100792162Y-119955201D01*
X100791838Y-120327167D01*
X72186000Y-120327167D01*
X72186000Y-117602000D01*
X72904209Y-117602000D01*
X72870380Y-117683470D01*
X72870380Y-117683470D01*
G37*
X72870380Y-117683470D02*
X72869621Y-118552717D01*
X73201567Y-119356086D01*
X73815681Y-119971273D01*
X74618470Y-120304620D01*
X75487717Y-120305379D01*
X76291086Y-119973433D01*
X76906273Y-119359319D01*
X77239620Y-118556530D01*
X77240379Y-117687283D01*
X77205141Y-117602000D01*
X78937981Y-117602000D01*
X78591485Y-117745169D01*
X78201539Y-118134436D01*
X77990241Y-118643298D01*
X77989760Y-119194285D01*
X78200169Y-119703515D01*
X78589436Y-120093461D01*
X79098298Y-120304759D01*
X79649285Y-120305240D01*
X80158515Y-120094831D01*
X80548461Y-119705564D01*
X80759759Y-119196702D01*
X80760240Y-118645715D01*
X80549831Y-118136485D01*
X80160564Y-117746539D01*
X79812475Y-117602000D01*
X81937981Y-117602000D01*
X81591485Y-117745169D01*
X81201539Y-118134436D01*
X80990241Y-118643298D01*
X80989760Y-119194285D01*
X81200169Y-119703515D01*
X81589436Y-120093461D01*
X82098298Y-120304759D01*
X82649285Y-120305240D01*
X83158515Y-120094831D01*
X83548461Y-119705564D01*
X83759759Y-119196702D01*
X83760240Y-118645715D01*
X83549831Y-118136485D01*
X83160564Y-117746539D01*
X82812475Y-117602000D01*
X95740279Y-117602000D01*
X95853883Y-117876943D01*
X96116673Y-118140192D01*
X96460201Y-118282838D01*
X96832167Y-118283162D01*
X97175943Y-118141117D01*
X97439192Y-117878327D01*
X97553934Y-117602000D01*
X125603000Y-117602000D01*
X125603000Y-126238000D01*
X97080466Y-126238000D01*
X97050327Y-126207808D01*
X96706799Y-126065162D01*
X96334833Y-126064838D01*
X95991057Y-126206883D01*
X95959886Y-126238000D01*
X82812019Y-126238000D01*
X83158515Y-126094831D01*
X83548461Y-125705564D01*
X83759759Y-125196702D01*
X83760240Y-124645715D01*
X83549831Y-124136485D01*
X83160564Y-123746539D01*
X82651702Y-123535241D01*
X82100715Y-123534760D01*
X81591485Y-123745169D01*
X81201539Y-124134436D01*
X80990241Y-124643298D01*
X80989760Y-125194285D01*
X81200169Y-125703515D01*
X81589436Y-126093461D01*
X81937525Y-126238000D01*
X79812019Y-126238000D01*
X80158515Y-126094831D01*
X80548461Y-125705564D01*
X80759759Y-125196702D01*
X80760240Y-124645715D01*
X80549831Y-124136485D01*
X80160564Y-123746539D01*
X79651702Y-123535241D01*
X79100715Y-123534760D01*
X78591485Y-123745169D01*
X78201539Y-124134436D01*
X77990241Y-124643298D01*
X77989760Y-125194285D01*
X78200169Y-125703515D01*
X78589436Y-126093461D01*
X78937525Y-126238000D01*
X72186000Y-126238000D01*
X72186000Y-122194285D01*
X77989760Y-122194285D01*
X78200169Y-122703515D01*
X78589436Y-123093461D01*
X79098298Y-123304759D01*
X79649285Y-123305240D01*
X80158515Y-123094831D01*
X80548461Y-122705564D01*
X80759759Y-122196702D01*
X80759761Y-122194285D01*
X80989760Y-122194285D01*
X81200169Y-122703515D01*
X81589436Y-123093461D01*
X82098298Y-123304759D01*
X82649285Y-123305240D01*
X83158515Y-123094831D01*
X83548461Y-122705564D01*
X83759759Y-122196702D01*
X83760240Y-121645715D01*
X83687706Y-121470167D01*
X119079838Y-121470167D01*
X119221883Y-121813943D01*
X119484673Y-122077192D01*
X119828201Y-122219838D01*
X120200167Y-122220162D01*
X120543943Y-122078117D01*
X120807192Y-121815327D01*
X120949838Y-121471799D01*
X120950162Y-121099833D01*
X120808117Y-120756057D01*
X120545327Y-120492808D01*
X120201799Y-120350162D01*
X119829833Y-120349838D01*
X119486057Y-120491883D01*
X119222808Y-120754673D01*
X119080162Y-121098201D01*
X119079838Y-121470167D01*
X83687706Y-121470167D01*
X83549831Y-121136485D01*
X83160564Y-120746539D01*
X82651702Y-120535241D01*
X82100715Y-120534760D01*
X81591485Y-120745169D01*
X81201539Y-121134436D01*
X80990241Y-121643298D01*
X80989760Y-122194285D01*
X80759761Y-122194285D01*
X80760240Y-121645715D01*
X80549831Y-121136485D01*
X80160564Y-120746539D01*
X79651702Y-120535241D01*
X79100715Y-120534760D01*
X78591485Y-120745169D01*
X78201539Y-121134436D01*
X77990241Y-121643298D01*
X77989760Y-122194285D01*
X72186000Y-122194285D01*
X72186000Y-120327167D01*
X100791838Y-120327167D01*
X100933883Y-120670943D01*
X101196673Y-120934192D01*
X101540201Y-121076838D01*
X101912167Y-121077162D01*
X102255943Y-120935117D01*
X102519192Y-120672327D01*
X102661838Y-120328799D01*
X102662162Y-119956833D01*
X102520117Y-119613057D01*
X102472311Y-119565167D01*
X120984838Y-119565167D01*
X121126883Y-119908943D01*
X121389673Y-120172192D01*
X121733201Y-120314838D01*
X122105167Y-120315162D01*
X122448943Y-120173117D01*
X122712192Y-119910327D01*
X122854838Y-119566799D01*
X122855162Y-119194833D01*
X122713117Y-118851057D01*
X122450327Y-118587808D01*
X122106799Y-118445162D01*
X121734833Y-118444838D01*
X121391057Y-118586883D01*
X121127808Y-118849673D01*
X120985162Y-119193201D01*
X120984838Y-119565167D01*
X102472311Y-119565167D01*
X102257327Y-119349808D01*
X101913799Y-119207162D01*
X101541833Y-119206838D01*
X101198057Y-119348883D01*
X100934808Y-119611673D01*
X100792162Y-119955201D01*
X100791838Y-120327167D01*
X72186000Y-120327167D01*
X72186000Y-117602000D01*
X72904209Y-117602000D01*
X72870380Y-117683470D01*
G36*
X72450241Y-107783298D02*
X72449760Y-108334285D01*
X72660169Y-108843515D01*
X73049436Y-109233461D01*
X73558298Y-109444759D01*
X74109285Y-109445240D01*
X74618515Y-109234831D01*
X75008461Y-108845564D01*
X75219759Y-108336702D01*
X75220240Y-107785715D01*
X75078220Y-107442000D01*
X75591960Y-107442000D01*
X75450241Y-107783298D01*
X75449760Y-108334285D01*
X75660169Y-108843515D01*
X76049436Y-109233461D01*
X76558298Y-109444759D01*
X77109285Y-109445240D01*
X77206269Y-109405167D01*
X100791838Y-109405167D01*
X100933883Y-109748943D01*
X101196673Y-110012192D01*
X101540201Y-110154838D01*
X101912167Y-110155162D01*
X102255943Y-110013117D01*
X102519192Y-109750327D01*
X102661838Y-109406799D01*
X102662162Y-109034833D01*
X102520117Y-108691057D01*
X102257327Y-108427808D01*
X101913799Y-108285162D01*
X101541833Y-108284838D01*
X101198057Y-108426883D01*
X100934808Y-108689673D01*
X100792162Y-109033201D01*
X100791838Y-109405167D01*
X77206269Y-109405167D01*
X77618515Y-109234831D01*
X78008461Y-108845564D01*
X78219759Y-108336702D01*
X78220240Y-107785715D01*
X78078220Y-107442000D01*
X79646878Y-107442000D01*
X79915681Y-107711273D01*
X80718470Y-108044620D01*
X81587717Y-108045379D01*
X82391086Y-107713433D01*
X82662993Y-107442000D01*
X95994279Y-107442000D01*
X96107883Y-107716943D01*
X96370673Y-107980192D01*
X96714201Y-108122838D01*
X97086167Y-108123162D01*
X97429943Y-107981117D01*
X97693192Y-107718327D01*
X97807934Y-107442000D01*
X125603000Y-107442000D01*
X125603000Y-116078000D01*
X83759863Y-116078000D01*
X83760240Y-115645715D01*
X83549831Y-115136485D01*
X83160564Y-114746539D01*
X82651702Y-114535241D01*
X82100715Y-114534760D01*
X81591485Y-114745169D01*
X81201539Y-115134436D01*
X80990241Y-115643298D01*
X80989862Y-116078000D01*
X80759863Y-116078000D01*
X80760240Y-115645715D01*
X80549831Y-115136485D01*
X80160564Y-114746539D01*
X79651702Y-114535241D01*
X79100715Y-114534760D01*
X78591485Y-114745169D01*
X78201539Y-115134436D01*
X77990241Y-115643298D01*
X77989862Y-116078000D01*
X75834997Y-116078000D01*
X75491530Y-115935380D01*
X74622283Y-115934621D01*
X74275280Y-116078000D01*
X72186000Y-116078000D01*
X72186000Y-107442000D01*
X72591960Y-107442000D01*
X72450241Y-107783298D01*
X72450241Y-107783298D01*
G37*
X72450241Y-107783298D02*
X72449760Y-108334285D01*
X72660169Y-108843515D01*
X73049436Y-109233461D01*
X73558298Y-109444759D01*
X74109285Y-109445240D01*
X74618515Y-109234831D01*
X75008461Y-108845564D01*
X75219759Y-108336702D01*
X75220240Y-107785715D01*
X75078220Y-107442000D01*
X75591960Y-107442000D01*
X75450241Y-107783298D01*
X75449760Y-108334285D01*
X75660169Y-108843515D01*
X76049436Y-109233461D01*
X76558298Y-109444759D01*
X77109285Y-109445240D01*
X77206269Y-109405167D01*
X100791838Y-109405167D01*
X100933883Y-109748943D01*
X101196673Y-110012192D01*
X101540201Y-110154838D01*
X101912167Y-110155162D01*
X102255943Y-110013117D01*
X102519192Y-109750327D01*
X102661838Y-109406799D01*
X102662162Y-109034833D01*
X102520117Y-108691057D01*
X102257327Y-108427808D01*
X101913799Y-108285162D01*
X101541833Y-108284838D01*
X101198057Y-108426883D01*
X100934808Y-108689673D01*
X100792162Y-109033201D01*
X100791838Y-109405167D01*
X77206269Y-109405167D01*
X77618515Y-109234831D01*
X78008461Y-108845564D01*
X78219759Y-108336702D01*
X78220240Y-107785715D01*
X78078220Y-107442000D01*
X79646878Y-107442000D01*
X79915681Y-107711273D01*
X80718470Y-108044620D01*
X81587717Y-108045379D01*
X82391086Y-107713433D01*
X82662993Y-107442000D01*
X95994279Y-107442000D01*
X96107883Y-107716943D01*
X96370673Y-107980192D01*
X96714201Y-108122838D01*
X97086167Y-108123162D01*
X97429943Y-107981117D01*
X97693192Y-107718327D01*
X97807934Y-107442000D01*
X125603000Y-107442000D01*
X125603000Y-116078000D01*
X83759863Y-116078000D01*
X83760240Y-115645715D01*
X83549831Y-115136485D01*
X83160564Y-114746539D01*
X82651702Y-114535241D01*
X82100715Y-114534760D01*
X81591485Y-114745169D01*
X81201539Y-115134436D01*
X80990241Y-115643298D01*
X80989862Y-116078000D01*
X80759863Y-116078000D01*
X80760240Y-115645715D01*
X80549831Y-115136485D01*
X80160564Y-114746539D01*
X79651702Y-114535241D01*
X79100715Y-114534760D01*
X78591485Y-114745169D01*
X78201539Y-115134436D01*
X77990241Y-115643298D01*
X77989862Y-116078000D01*
X75834997Y-116078000D01*
X75491530Y-115935380D01*
X74622283Y-115934621D01*
X74275280Y-116078000D01*
X72186000Y-116078000D01*
X72186000Y-107442000D01*
X72591960Y-107442000D01*
X72450241Y-107783298D01*
G36*
X73558298Y-97444759D02*
X74109285Y-97445240D01*
X74504357Y-97282000D01*
X76166331Y-97282000D01*
X76558298Y-97444759D01*
X77109285Y-97445240D01*
X77504357Y-97282000D01*
X96086534Y-97282000D01*
X96116673Y-97312192D01*
X96460201Y-97454838D01*
X96832167Y-97455162D01*
X97175943Y-97313117D01*
X97207114Y-97282000D01*
X125603000Y-97282000D01*
X125603000Y-105698754D01*
X125455057Y-105759883D01*
X125296664Y-105918000D01*
X83339951Y-105918000D01*
X83340379Y-105427283D01*
X83008433Y-104623914D01*
X82394319Y-104008727D01*
X81591530Y-103675380D01*
X80722283Y-103674621D01*
X79918914Y-104006567D01*
X79303727Y-104620681D01*
X78970380Y-105423470D01*
X78969948Y-105918000D01*
X77935899Y-105918000D01*
X78008461Y-105845564D01*
X78219759Y-105336702D01*
X78220240Y-104785715D01*
X78009831Y-104276485D01*
X77620564Y-103886539D01*
X77111702Y-103675241D01*
X76560715Y-103674760D01*
X76051485Y-103885169D01*
X75661539Y-104274436D01*
X75450241Y-104783298D01*
X75449760Y-105334285D01*
X75660169Y-105843515D01*
X75734524Y-105918000D01*
X74935899Y-105918000D01*
X75008461Y-105845564D01*
X75219759Y-105336702D01*
X75220240Y-104785715D01*
X75009831Y-104276485D01*
X74620564Y-103886539D01*
X74111702Y-103675241D01*
X73560715Y-103674760D01*
X73051485Y-103885169D01*
X72661539Y-104274436D01*
X72450241Y-104783298D01*
X72449760Y-105334285D01*
X72660169Y-105843515D01*
X72734524Y-105918000D01*
X72186000Y-105918000D01*
X72186000Y-102334285D01*
X72449760Y-102334285D01*
X72660169Y-102843515D01*
X73049436Y-103233461D01*
X73558298Y-103444759D01*
X74109285Y-103445240D01*
X74618515Y-103234831D01*
X75008461Y-102845564D01*
X75219759Y-102336702D01*
X75219761Y-102334285D01*
X75449760Y-102334285D01*
X75660169Y-102843515D01*
X76049436Y-103233461D01*
X76558298Y-103444759D01*
X77109285Y-103445240D01*
X77438607Y-103309167D01*
X122127838Y-103309167D01*
X122269883Y-103652943D01*
X122532673Y-103916192D01*
X122876201Y-104058838D01*
X123248167Y-104059162D01*
X123591943Y-103917117D01*
X123855192Y-103654327D01*
X123997838Y-103310799D01*
X123998162Y-102938833D01*
X123856117Y-102595057D01*
X123593327Y-102331808D01*
X123249799Y-102189162D01*
X122877833Y-102188838D01*
X122534057Y-102330883D01*
X122270808Y-102593673D01*
X122128162Y-102937201D01*
X122127838Y-103309167D01*
X77438607Y-103309167D01*
X77618515Y-103234831D01*
X78008461Y-102845564D01*
X78219759Y-102336702D01*
X78220240Y-101785715D01*
X78009831Y-101276485D01*
X77620564Y-100886539D01*
X77111702Y-100675241D01*
X76560715Y-100674760D01*
X76051485Y-100885169D01*
X75661539Y-101274436D01*
X75450241Y-101783298D01*
X75449760Y-102334285D01*
X75219761Y-102334285D01*
X75220240Y-101785715D01*
X75009831Y-101276485D01*
X74620564Y-100886539D01*
X74111702Y-100675241D01*
X73560715Y-100674760D01*
X73051485Y-100885169D01*
X72661539Y-101274436D01*
X72450241Y-101783298D01*
X72449760Y-102334285D01*
X72186000Y-102334285D01*
X72186000Y-99334285D01*
X72449760Y-99334285D01*
X72660169Y-99843515D01*
X73049436Y-100233461D01*
X73558298Y-100444759D01*
X74109285Y-100445240D01*
X74618515Y-100234831D01*
X75008461Y-99845564D01*
X75219759Y-99336702D01*
X75219761Y-99334285D01*
X75449760Y-99334285D01*
X75660169Y-99843515D01*
X76049436Y-100233461D01*
X76558298Y-100444759D01*
X77109285Y-100445240D01*
X77618515Y-100234831D01*
X78008461Y-99845564D01*
X78219759Y-99336702D01*
X78219838Y-99245167D01*
X100791838Y-99245167D01*
X100933883Y-99588943D01*
X101196673Y-99852192D01*
X101540201Y-99994838D01*
X101912167Y-99995162D01*
X102255943Y-99853117D01*
X102519192Y-99590327D01*
X102661838Y-99246799D01*
X102662162Y-98874833D01*
X102520117Y-98531057D01*
X102257327Y-98267808D01*
X101913799Y-98125162D01*
X101541833Y-98124838D01*
X101198057Y-98266883D01*
X100934808Y-98529673D01*
X100792162Y-98873201D01*
X100791838Y-99245167D01*
X78219838Y-99245167D01*
X78220240Y-98785715D01*
X78009831Y-98276485D01*
X77620564Y-97886539D01*
X77111702Y-97675241D01*
X76560715Y-97674760D01*
X76051485Y-97885169D01*
X75661539Y-98274436D01*
X75450241Y-98783298D01*
X75449760Y-99334285D01*
X75219761Y-99334285D01*
X75220240Y-98785715D01*
X75009831Y-98276485D01*
X74620564Y-97886539D01*
X74111702Y-97675241D01*
X73560715Y-97674760D01*
X73051485Y-97885169D01*
X72661539Y-98274436D01*
X72450241Y-98783298D01*
X72449760Y-99334285D01*
X72186000Y-99334285D01*
X72186000Y-97282000D01*
X73166331Y-97282000D01*
X73558298Y-97444759D01*
X73558298Y-97444759D01*
G37*
X73558298Y-97444759D02*
X74109285Y-97445240D01*
X74504357Y-97282000D01*
X76166331Y-97282000D01*
X76558298Y-97444759D01*
X77109285Y-97445240D01*
X77504357Y-97282000D01*
X96086534Y-97282000D01*
X96116673Y-97312192D01*
X96460201Y-97454838D01*
X96832167Y-97455162D01*
X97175943Y-97313117D01*
X97207114Y-97282000D01*
X125603000Y-97282000D01*
X125603000Y-105698754D01*
X125455057Y-105759883D01*
X125296664Y-105918000D01*
X83339951Y-105918000D01*
X83340379Y-105427283D01*
X83008433Y-104623914D01*
X82394319Y-104008727D01*
X81591530Y-103675380D01*
X80722283Y-103674621D01*
X79918914Y-104006567D01*
X79303727Y-104620681D01*
X78970380Y-105423470D01*
X78969948Y-105918000D01*
X77935899Y-105918000D01*
X78008461Y-105845564D01*
X78219759Y-105336702D01*
X78220240Y-104785715D01*
X78009831Y-104276485D01*
X77620564Y-103886539D01*
X77111702Y-103675241D01*
X76560715Y-103674760D01*
X76051485Y-103885169D01*
X75661539Y-104274436D01*
X75450241Y-104783298D01*
X75449760Y-105334285D01*
X75660169Y-105843515D01*
X75734524Y-105918000D01*
X74935899Y-105918000D01*
X75008461Y-105845564D01*
X75219759Y-105336702D01*
X75220240Y-104785715D01*
X75009831Y-104276485D01*
X74620564Y-103886539D01*
X74111702Y-103675241D01*
X73560715Y-103674760D01*
X73051485Y-103885169D01*
X72661539Y-104274436D01*
X72450241Y-104783298D01*
X72449760Y-105334285D01*
X72660169Y-105843515D01*
X72734524Y-105918000D01*
X72186000Y-105918000D01*
X72186000Y-102334285D01*
X72449760Y-102334285D01*
X72660169Y-102843515D01*
X73049436Y-103233461D01*
X73558298Y-103444759D01*
X74109285Y-103445240D01*
X74618515Y-103234831D01*
X75008461Y-102845564D01*
X75219759Y-102336702D01*
X75219761Y-102334285D01*
X75449760Y-102334285D01*
X75660169Y-102843515D01*
X76049436Y-103233461D01*
X76558298Y-103444759D01*
X77109285Y-103445240D01*
X77438607Y-103309167D01*
X122127838Y-103309167D01*
X122269883Y-103652943D01*
X122532673Y-103916192D01*
X122876201Y-104058838D01*
X123248167Y-104059162D01*
X123591943Y-103917117D01*
X123855192Y-103654327D01*
X123997838Y-103310799D01*
X123998162Y-102938833D01*
X123856117Y-102595057D01*
X123593327Y-102331808D01*
X123249799Y-102189162D01*
X122877833Y-102188838D01*
X122534057Y-102330883D01*
X122270808Y-102593673D01*
X122128162Y-102937201D01*
X122127838Y-103309167D01*
X77438607Y-103309167D01*
X77618515Y-103234831D01*
X78008461Y-102845564D01*
X78219759Y-102336702D01*
X78220240Y-101785715D01*
X78009831Y-101276485D01*
X77620564Y-100886539D01*
X77111702Y-100675241D01*
X76560715Y-100674760D01*
X76051485Y-100885169D01*
X75661539Y-101274436D01*
X75450241Y-101783298D01*
X75449760Y-102334285D01*
X75219761Y-102334285D01*
X75220240Y-101785715D01*
X75009831Y-101276485D01*
X74620564Y-100886539D01*
X74111702Y-100675241D01*
X73560715Y-100674760D01*
X73051485Y-100885169D01*
X72661539Y-101274436D01*
X72450241Y-101783298D01*
X72449760Y-102334285D01*
X72186000Y-102334285D01*
X72186000Y-99334285D01*
X72449760Y-99334285D01*
X72660169Y-99843515D01*
X73049436Y-100233461D01*
X73558298Y-100444759D01*
X74109285Y-100445240D01*
X74618515Y-100234831D01*
X75008461Y-99845564D01*
X75219759Y-99336702D01*
X75219761Y-99334285D01*
X75449760Y-99334285D01*
X75660169Y-99843515D01*
X76049436Y-100233461D01*
X76558298Y-100444759D01*
X77109285Y-100445240D01*
X77618515Y-100234831D01*
X78008461Y-99845564D01*
X78219759Y-99336702D01*
X78219838Y-99245167D01*
X100791838Y-99245167D01*
X100933883Y-99588943D01*
X101196673Y-99852192D01*
X101540201Y-99994838D01*
X101912167Y-99995162D01*
X102255943Y-99853117D01*
X102519192Y-99590327D01*
X102661838Y-99246799D01*
X102662162Y-98874833D01*
X102520117Y-98531057D01*
X102257327Y-98267808D01*
X101913799Y-98125162D01*
X101541833Y-98124838D01*
X101198057Y-98266883D01*
X100934808Y-98529673D01*
X100792162Y-98873201D01*
X100791838Y-99245167D01*
X78219838Y-99245167D01*
X78220240Y-98785715D01*
X78009831Y-98276485D01*
X77620564Y-97886539D01*
X77111702Y-97675241D01*
X76560715Y-97674760D01*
X76051485Y-97885169D01*
X75661539Y-98274436D01*
X75450241Y-98783298D01*
X75449760Y-99334285D01*
X75219761Y-99334285D01*
X75220240Y-98785715D01*
X75009831Y-98276485D01*
X74620564Y-97886539D01*
X74111702Y-97675241D01*
X73560715Y-97674760D01*
X73051485Y-97885169D01*
X72661539Y-98274436D01*
X72450241Y-98783298D01*
X72449760Y-99334285D01*
X72186000Y-99334285D01*
X72186000Y-97282000D01*
X73166331Y-97282000D01*
X73558298Y-97444759D01*
G36*
X72450241Y-86783298D02*
X72449760Y-87334285D01*
X72660169Y-87843515D01*
X73049436Y-88233461D01*
X73558298Y-88444759D01*
X74109285Y-88445240D01*
X74618515Y-88234831D01*
X75008461Y-87845564D01*
X75219759Y-87336702D01*
X75220240Y-86785715D01*
X75096814Y-86487000D01*
X75573275Y-86487000D01*
X75450241Y-86783298D01*
X75449760Y-87334285D01*
X75660169Y-87843515D01*
X76049436Y-88233461D01*
X76558298Y-88444759D01*
X77109285Y-88445240D01*
X77618515Y-88234831D01*
X78008461Y-87845564D01*
X78219759Y-87336702D01*
X78220240Y-86785715D01*
X78096814Y-86487000D01*
X123478754Y-86487000D01*
X123539883Y-86634943D01*
X123802673Y-86898192D01*
X124146201Y-87040838D01*
X124518167Y-87041162D01*
X124861943Y-86899117D01*
X125125192Y-86636327D01*
X125187198Y-86487000D01*
X125603000Y-86487000D01*
X125603000Y-95758000D01*
X97207466Y-95758000D01*
X97177327Y-95727808D01*
X96833799Y-95585162D01*
X96461833Y-95584838D01*
X96118057Y-95726883D01*
X96086886Y-95758000D01*
X78208788Y-95758000D01*
X78009831Y-95276485D01*
X77620564Y-94886539D01*
X77111702Y-94675241D01*
X76560715Y-94674760D01*
X76051485Y-94885169D01*
X75661539Y-95274436D01*
X75460746Y-95758000D01*
X75208788Y-95758000D01*
X75009831Y-95276485D01*
X74620564Y-94886539D01*
X74111702Y-94675241D01*
X73560715Y-94674760D01*
X73051485Y-94885169D01*
X72661539Y-95274436D01*
X72460746Y-95758000D01*
X72186000Y-95758000D01*
X72186000Y-93334285D01*
X72449760Y-93334285D01*
X72660169Y-93843515D01*
X73049436Y-94233461D01*
X73558298Y-94444759D01*
X74109285Y-94445240D01*
X74618515Y-94234831D01*
X75008461Y-93845564D01*
X75219759Y-93336702D01*
X75219761Y-93334285D01*
X75449760Y-93334285D01*
X75660169Y-93843515D01*
X76049436Y-94233461D01*
X76558298Y-94444759D01*
X77109285Y-94445240D01*
X77618515Y-94234831D01*
X78008461Y-93845564D01*
X78219759Y-93336702D01*
X78220240Y-92785715D01*
X78009831Y-92276485D01*
X77620564Y-91886539D01*
X77111702Y-91675241D01*
X76560715Y-91674760D01*
X76051485Y-91885169D01*
X75661539Y-92274436D01*
X75450241Y-92783298D01*
X75449760Y-93334285D01*
X75219761Y-93334285D01*
X75220240Y-92785715D01*
X75009831Y-92276485D01*
X74620564Y-91886539D01*
X74111702Y-91675241D01*
X73560715Y-91674760D01*
X73051485Y-91885169D01*
X72661539Y-92274436D01*
X72450241Y-92783298D01*
X72449760Y-93334285D01*
X72186000Y-93334285D01*
X72186000Y-90334285D01*
X72449760Y-90334285D01*
X72660169Y-90843515D01*
X73049436Y-91233461D01*
X73558298Y-91444759D01*
X74109285Y-91445240D01*
X74618515Y-91234831D01*
X75008461Y-90845564D01*
X75219759Y-90336702D01*
X75219761Y-90334285D01*
X75449760Y-90334285D01*
X75660169Y-90843515D01*
X76049436Y-91233461D01*
X76558298Y-91444759D01*
X77109285Y-91445240D01*
X77618515Y-91234831D01*
X78008461Y-90845564D01*
X78219759Y-90336702D01*
X78220240Y-89785715D01*
X78009831Y-89276485D01*
X77818847Y-89085167D01*
X100791838Y-89085167D01*
X100933883Y-89428943D01*
X101196673Y-89692192D01*
X101540201Y-89834838D01*
X101912167Y-89835162D01*
X102255943Y-89693117D01*
X102519192Y-89430327D01*
X102661838Y-89086799D01*
X102662162Y-88714833D01*
X102520117Y-88371057D01*
X102257327Y-88107808D01*
X101913799Y-87965162D01*
X101541833Y-87964838D01*
X101198057Y-88106883D01*
X100934808Y-88369673D01*
X100792162Y-88713201D01*
X100791838Y-89085167D01*
X77818847Y-89085167D01*
X77620564Y-88886539D01*
X77111702Y-88675241D01*
X76560715Y-88674760D01*
X76051485Y-88885169D01*
X75661539Y-89274436D01*
X75450241Y-89783298D01*
X75449760Y-90334285D01*
X75219761Y-90334285D01*
X75220240Y-89785715D01*
X75009831Y-89276485D01*
X74620564Y-88886539D01*
X74111702Y-88675241D01*
X73560715Y-88674760D01*
X73051485Y-88885169D01*
X72661539Y-89274436D01*
X72450241Y-89783298D01*
X72449760Y-90334285D01*
X72186000Y-90334285D01*
X72186000Y-86487000D01*
X72573275Y-86487000D01*
X72450241Y-86783298D01*
X72450241Y-86783298D01*
G37*
X72450241Y-86783298D02*
X72449760Y-87334285D01*
X72660169Y-87843515D01*
X73049436Y-88233461D01*
X73558298Y-88444759D01*
X74109285Y-88445240D01*
X74618515Y-88234831D01*
X75008461Y-87845564D01*
X75219759Y-87336702D01*
X75220240Y-86785715D01*
X75096814Y-86487000D01*
X75573275Y-86487000D01*
X75450241Y-86783298D01*
X75449760Y-87334285D01*
X75660169Y-87843515D01*
X76049436Y-88233461D01*
X76558298Y-88444759D01*
X77109285Y-88445240D01*
X77618515Y-88234831D01*
X78008461Y-87845564D01*
X78219759Y-87336702D01*
X78220240Y-86785715D01*
X78096814Y-86487000D01*
X123478754Y-86487000D01*
X123539883Y-86634943D01*
X123802673Y-86898192D01*
X124146201Y-87040838D01*
X124518167Y-87041162D01*
X124861943Y-86899117D01*
X125125192Y-86636327D01*
X125187198Y-86487000D01*
X125603000Y-86487000D01*
X125603000Y-95758000D01*
X97207466Y-95758000D01*
X97177327Y-95727808D01*
X96833799Y-95585162D01*
X96461833Y-95584838D01*
X96118057Y-95726883D01*
X96086886Y-95758000D01*
X78208788Y-95758000D01*
X78009831Y-95276485D01*
X77620564Y-94886539D01*
X77111702Y-94675241D01*
X76560715Y-94674760D01*
X76051485Y-94885169D01*
X75661539Y-95274436D01*
X75460746Y-95758000D01*
X75208788Y-95758000D01*
X75009831Y-95276485D01*
X74620564Y-94886539D01*
X74111702Y-94675241D01*
X73560715Y-94674760D01*
X73051485Y-94885169D01*
X72661539Y-95274436D01*
X72460746Y-95758000D01*
X72186000Y-95758000D01*
X72186000Y-93334285D01*
X72449760Y-93334285D01*
X72660169Y-93843515D01*
X73049436Y-94233461D01*
X73558298Y-94444759D01*
X74109285Y-94445240D01*
X74618515Y-94234831D01*
X75008461Y-93845564D01*
X75219759Y-93336702D01*
X75219761Y-93334285D01*
X75449760Y-93334285D01*
X75660169Y-93843515D01*
X76049436Y-94233461D01*
X76558298Y-94444759D01*
X77109285Y-94445240D01*
X77618515Y-94234831D01*
X78008461Y-93845564D01*
X78219759Y-93336702D01*
X78220240Y-92785715D01*
X78009831Y-92276485D01*
X77620564Y-91886539D01*
X77111702Y-91675241D01*
X76560715Y-91674760D01*
X76051485Y-91885169D01*
X75661539Y-92274436D01*
X75450241Y-92783298D01*
X75449760Y-93334285D01*
X75219761Y-93334285D01*
X75220240Y-92785715D01*
X75009831Y-92276485D01*
X74620564Y-91886539D01*
X74111702Y-91675241D01*
X73560715Y-91674760D01*
X73051485Y-91885169D01*
X72661539Y-92274436D01*
X72450241Y-92783298D01*
X72449760Y-93334285D01*
X72186000Y-93334285D01*
X72186000Y-90334285D01*
X72449760Y-90334285D01*
X72660169Y-90843515D01*
X73049436Y-91233461D01*
X73558298Y-91444759D01*
X74109285Y-91445240D01*
X74618515Y-91234831D01*
X75008461Y-90845564D01*
X75219759Y-90336702D01*
X75219761Y-90334285D01*
X75449760Y-90334285D01*
X75660169Y-90843515D01*
X76049436Y-91233461D01*
X76558298Y-91444759D01*
X77109285Y-91445240D01*
X77618515Y-91234831D01*
X78008461Y-90845564D01*
X78219759Y-90336702D01*
X78220240Y-89785715D01*
X78009831Y-89276485D01*
X77818847Y-89085167D01*
X100791838Y-89085167D01*
X100933883Y-89428943D01*
X101196673Y-89692192D01*
X101540201Y-89834838D01*
X101912167Y-89835162D01*
X102255943Y-89693117D01*
X102519192Y-89430327D01*
X102661838Y-89086799D01*
X102662162Y-88714833D01*
X102520117Y-88371057D01*
X102257327Y-88107808D01*
X101913799Y-87965162D01*
X101541833Y-87964838D01*
X101198057Y-88106883D01*
X100934808Y-88369673D01*
X100792162Y-88713201D01*
X100791838Y-89085167D01*
X77818847Y-89085167D01*
X77620564Y-88886539D01*
X77111702Y-88675241D01*
X76560715Y-88674760D01*
X76051485Y-88885169D01*
X75661539Y-89274436D01*
X75450241Y-89783298D01*
X75449760Y-90334285D01*
X75219761Y-90334285D01*
X75220240Y-89785715D01*
X75009831Y-89276485D01*
X74620564Y-88886539D01*
X74111702Y-88675241D01*
X73560715Y-88674760D01*
X73051485Y-88885169D01*
X72661539Y-89274436D01*
X72450241Y-89783298D01*
X72449760Y-90334285D01*
X72186000Y-90334285D01*
X72186000Y-86487000D01*
X72573275Y-86487000D01*
X72450241Y-86783298D01*
G36*
X155679673Y-127792192D02*
X156023201Y-127934838D01*
X156395167Y-127935162D01*
X156738943Y-127793117D01*
X156770114Y-127762000D01*
X169418000Y-127762000D01*
X169418000Y-138303000D01*
X169329212Y-138303000D01*
X169329612Y-137843981D01*
X168880065Y-136755994D01*
X168048384Y-135922860D01*
X166961184Y-135471415D01*
X165783981Y-135470388D01*
X164695994Y-135919935D01*
X163862860Y-136751616D01*
X163411415Y-137838816D01*
X163411010Y-138303000D01*
X127127000Y-138303000D01*
X127127000Y-136837167D01*
X156925838Y-136837167D01*
X157067883Y-137180943D01*
X157330673Y-137444192D01*
X157674201Y-137586838D01*
X158046167Y-137587162D01*
X158389943Y-137445117D01*
X158653192Y-137182327D01*
X158795838Y-136838799D01*
X158796162Y-136466833D01*
X158654117Y-136123057D01*
X158391327Y-135859808D01*
X158047799Y-135717162D01*
X157675833Y-135716838D01*
X157332057Y-135858883D01*
X157068808Y-136121673D01*
X156926162Y-136465201D01*
X156925838Y-136837167D01*
X127127000Y-136837167D01*
X127127000Y-130360167D01*
X160989838Y-130360167D01*
X161131883Y-130703943D01*
X161394673Y-130967192D01*
X161738201Y-131109838D01*
X162110167Y-131110162D01*
X162453943Y-130968117D01*
X162717192Y-130705327D01*
X162859838Y-130361799D01*
X162860162Y-129989833D01*
X162718117Y-129646057D01*
X162455327Y-129382808D01*
X162111799Y-129240162D01*
X161739833Y-129239838D01*
X161396057Y-129381883D01*
X161132808Y-129644673D01*
X160990162Y-129988201D01*
X160989838Y-130360167D01*
X127127000Y-130360167D01*
X127127000Y-127762000D01*
X155649534Y-127762000D01*
X155679673Y-127792192D01*
X155679673Y-127792192D01*
G37*
X155679673Y-127792192D02*
X156023201Y-127934838D01*
X156395167Y-127935162D01*
X156738943Y-127793117D01*
X156770114Y-127762000D01*
X169418000Y-127762000D01*
X169418000Y-138303000D01*
X169329212Y-138303000D01*
X169329612Y-137843981D01*
X168880065Y-136755994D01*
X168048384Y-135922860D01*
X166961184Y-135471415D01*
X165783981Y-135470388D01*
X164695994Y-135919935D01*
X163862860Y-136751616D01*
X163411415Y-137838816D01*
X163411010Y-138303000D01*
X127127000Y-138303000D01*
X127127000Y-136837167D01*
X156925838Y-136837167D01*
X157067883Y-137180943D01*
X157330673Y-137444192D01*
X157674201Y-137586838D01*
X158046167Y-137587162D01*
X158389943Y-137445117D01*
X158653192Y-137182327D01*
X158795838Y-136838799D01*
X158796162Y-136466833D01*
X158654117Y-136123057D01*
X158391327Y-135859808D01*
X158047799Y-135717162D01*
X157675833Y-135716838D01*
X157332057Y-135858883D01*
X157068808Y-136121673D01*
X156926162Y-136465201D01*
X156925838Y-136837167D01*
X127127000Y-136837167D01*
X127127000Y-130360167D01*
X160989838Y-130360167D01*
X161131883Y-130703943D01*
X161394673Y-130967192D01*
X161738201Y-131109838D01*
X162110167Y-131110162D01*
X162453943Y-130968117D01*
X162717192Y-130705327D01*
X162859838Y-130361799D01*
X162860162Y-129989833D01*
X162718117Y-129646057D01*
X162455327Y-129382808D01*
X162111799Y-129240162D01*
X161739833Y-129239838D01*
X161396057Y-129381883D01*
X161132808Y-129644673D01*
X160990162Y-129988201D01*
X160989838Y-130360167D01*
X127127000Y-130360167D01*
X127127000Y-127762000D01*
X155649534Y-127762000D01*
X155679673Y-127792192D01*
G36*
X157067883Y-117876943D02*
X157330673Y-118140192D01*
X157674201Y-118282838D01*
X158046167Y-118283162D01*
X158389943Y-118141117D01*
X158653192Y-117878327D01*
X158767934Y-117602000D01*
X169418000Y-117602000D01*
X169418000Y-126238000D01*
X157913114Y-126238000D01*
X158145192Y-126006327D01*
X158287838Y-125662799D01*
X158288162Y-125290833D01*
X158146117Y-124947057D01*
X157883327Y-124683808D01*
X157539799Y-124541162D01*
X157167833Y-124540838D01*
X156824057Y-124682883D01*
X156560808Y-124945673D01*
X156418162Y-125289201D01*
X156417838Y-125661167D01*
X156559883Y-126004943D01*
X156792534Y-126238000D01*
X156770466Y-126238000D01*
X156740327Y-126207808D01*
X156396799Y-126065162D01*
X156024833Y-126064838D01*
X155681057Y-126206883D01*
X155649886Y-126238000D01*
X127127000Y-126238000D01*
X127127000Y-117602000D01*
X156954279Y-117602000D01*
X157067883Y-117876943D01*
X157067883Y-117876943D01*
G37*
X157067883Y-117876943D02*
X157330673Y-118140192D01*
X157674201Y-118282838D01*
X158046167Y-118283162D01*
X158389943Y-118141117D01*
X158653192Y-117878327D01*
X158767934Y-117602000D01*
X169418000Y-117602000D01*
X169418000Y-126238000D01*
X157913114Y-126238000D01*
X158145192Y-126006327D01*
X158287838Y-125662799D01*
X158288162Y-125290833D01*
X158146117Y-124947057D01*
X157883327Y-124683808D01*
X157539799Y-124541162D01*
X157167833Y-124540838D01*
X156824057Y-124682883D01*
X156560808Y-124945673D01*
X156418162Y-125289201D01*
X156417838Y-125661167D01*
X156559883Y-126004943D01*
X156792534Y-126238000D01*
X156770466Y-126238000D01*
X156740327Y-126207808D01*
X156396799Y-126065162D01*
X156024833Y-126064838D01*
X155681057Y-126206883D01*
X155649886Y-126238000D01*
X127127000Y-126238000D01*
X127127000Y-117602000D01*
X156954279Y-117602000D01*
X157067883Y-117876943D01*
G36*
X133953883Y-107462943D02*
X134216673Y-107726192D01*
X134560201Y-107868838D01*
X134932167Y-107869162D01*
X135275943Y-107727117D01*
X135539192Y-107464327D01*
X135548463Y-107442000D01*
X157554534Y-107442000D01*
X157584673Y-107472192D01*
X157928201Y-107614838D01*
X158300167Y-107615162D01*
X158643943Y-107473117D01*
X158675114Y-107442000D01*
X169418000Y-107442000D01*
X169418000Y-116078000D01*
X127127000Y-116078000D01*
X127127000Y-114739167D01*
X136605838Y-114739167D01*
X136747883Y-115082943D01*
X137010673Y-115346192D01*
X137354201Y-115488838D01*
X137726167Y-115489162D01*
X138069943Y-115347117D01*
X138333192Y-115084327D01*
X138475838Y-114740799D01*
X138476162Y-114368833D01*
X138334117Y-114025057D01*
X138071327Y-113761808D01*
X137727799Y-113619162D01*
X137355833Y-113618838D01*
X137012057Y-113760883D01*
X136748808Y-114023673D01*
X136606162Y-114367201D01*
X136605838Y-114739167D01*
X127127000Y-114739167D01*
X127127000Y-113215167D01*
X156671838Y-113215167D01*
X156813883Y-113558943D01*
X157076673Y-113822192D01*
X157420201Y-113964838D01*
X157792167Y-113965162D01*
X158135943Y-113823117D01*
X158399192Y-113560327D01*
X158541838Y-113216799D01*
X158542162Y-112844833D01*
X158400117Y-112501057D01*
X158137327Y-112237808D01*
X157793799Y-112095162D01*
X157421833Y-112094838D01*
X157078057Y-112236883D01*
X156814808Y-112499673D01*
X156672162Y-112843201D01*
X156671838Y-113215167D01*
X127127000Y-113215167D01*
X127127000Y-110802167D01*
X127588838Y-110802167D01*
X127730883Y-111145943D01*
X127993673Y-111409192D01*
X128337201Y-111551838D01*
X128709167Y-111552162D01*
X129052943Y-111410117D01*
X129316192Y-111147327D01*
X129458838Y-110803799D01*
X129459162Y-110431833D01*
X129317117Y-110088057D01*
X129269311Y-110040167D01*
X135970838Y-110040167D01*
X136112883Y-110383943D01*
X136375673Y-110647192D01*
X136719201Y-110789838D01*
X137091167Y-110790162D01*
X137434943Y-110648117D01*
X137698192Y-110385327D01*
X137840838Y-110041799D01*
X137841162Y-109669833D01*
X137699117Y-109326057D01*
X137436327Y-109062808D01*
X137092799Y-108920162D01*
X136720833Y-108919838D01*
X136377057Y-109061883D01*
X136113808Y-109324673D01*
X135971162Y-109668201D01*
X135970838Y-110040167D01*
X129269311Y-110040167D01*
X129054327Y-109824808D01*
X128710799Y-109682162D01*
X128338833Y-109681838D01*
X127995057Y-109823883D01*
X127731808Y-110086673D01*
X127589162Y-110430201D01*
X127588838Y-110802167D01*
X127127000Y-110802167D01*
X127127000Y-108764336D01*
X127231673Y-108869192D01*
X127575201Y-109011838D01*
X127947167Y-109012162D01*
X128270371Y-108878617D01*
X128591201Y-109011838D01*
X128963167Y-109012162D01*
X129306943Y-108870117D01*
X129540176Y-108637291D01*
X129771673Y-108869192D01*
X130115201Y-109011838D01*
X130382849Y-109012071D01*
X130382838Y-109024167D01*
X130524883Y-109367943D01*
X130787673Y-109631192D01*
X131131201Y-109773838D01*
X131503167Y-109774162D01*
X131846943Y-109632117D01*
X132110192Y-109369327D01*
X132252838Y-109025799D01*
X132253162Y-108653833D01*
X132111117Y-108310057D01*
X132051140Y-108249976D01*
X132265167Y-108250162D01*
X132608943Y-108108117D01*
X132872192Y-107845327D01*
X133014838Y-107501799D01*
X133014890Y-107442000D01*
X133945230Y-107442000D01*
X133953883Y-107462943D01*
X133953883Y-107462943D01*
G37*
X133953883Y-107462943D02*
X134216673Y-107726192D01*
X134560201Y-107868838D01*
X134932167Y-107869162D01*
X135275943Y-107727117D01*
X135539192Y-107464327D01*
X135548463Y-107442000D01*
X157554534Y-107442000D01*
X157584673Y-107472192D01*
X157928201Y-107614838D01*
X158300167Y-107615162D01*
X158643943Y-107473117D01*
X158675114Y-107442000D01*
X169418000Y-107442000D01*
X169418000Y-116078000D01*
X127127000Y-116078000D01*
X127127000Y-114739167D01*
X136605838Y-114739167D01*
X136747883Y-115082943D01*
X137010673Y-115346192D01*
X137354201Y-115488838D01*
X137726167Y-115489162D01*
X138069943Y-115347117D01*
X138333192Y-115084327D01*
X138475838Y-114740799D01*
X138476162Y-114368833D01*
X138334117Y-114025057D01*
X138071327Y-113761808D01*
X137727799Y-113619162D01*
X137355833Y-113618838D01*
X137012057Y-113760883D01*
X136748808Y-114023673D01*
X136606162Y-114367201D01*
X136605838Y-114739167D01*
X127127000Y-114739167D01*
X127127000Y-113215167D01*
X156671838Y-113215167D01*
X156813883Y-113558943D01*
X157076673Y-113822192D01*
X157420201Y-113964838D01*
X157792167Y-113965162D01*
X158135943Y-113823117D01*
X158399192Y-113560327D01*
X158541838Y-113216799D01*
X158542162Y-112844833D01*
X158400117Y-112501057D01*
X158137327Y-112237808D01*
X157793799Y-112095162D01*
X157421833Y-112094838D01*
X157078057Y-112236883D01*
X156814808Y-112499673D01*
X156672162Y-112843201D01*
X156671838Y-113215167D01*
X127127000Y-113215167D01*
X127127000Y-110802167D01*
X127588838Y-110802167D01*
X127730883Y-111145943D01*
X127993673Y-111409192D01*
X128337201Y-111551838D01*
X128709167Y-111552162D01*
X129052943Y-111410117D01*
X129316192Y-111147327D01*
X129458838Y-110803799D01*
X129459162Y-110431833D01*
X129317117Y-110088057D01*
X129269311Y-110040167D01*
X135970838Y-110040167D01*
X136112883Y-110383943D01*
X136375673Y-110647192D01*
X136719201Y-110789838D01*
X137091167Y-110790162D01*
X137434943Y-110648117D01*
X137698192Y-110385327D01*
X137840838Y-110041799D01*
X137841162Y-109669833D01*
X137699117Y-109326057D01*
X137436327Y-109062808D01*
X137092799Y-108920162D01*
X136720833Y-108919838D01*
X136377057Y-109061883D01*
X136113808Y-109324673D01*
X135971162Y-109668201D01*
X135970838Y-110040167D01*
X129269311Y-110040167D01*
X129054327Y-109824808D01*
X128710799Y-109682162D01*
X128338833Y-109681838D01*
X127995057Y-109823883D01*
X127731808Y-110086673D01*
X127589162Y-110430201D01*
X127588838Y-110802167D01*
X127127000Y-110802167D01*
X127127000Y-108764336D01*
X127231673Y-108869192D01*
X127575201Y-109011838D01*
X127947167Y-109012162D01*
X128270371Y-108878617D01*
X128591201Y-109011838D01*
X128963167Y-109012162D01*
X129306943Y-108870117D01*
X129540176Y-108637291D01*
X129771673Y-108869192D01*
X130115201Y-109011838D01*
X130382849Y-109012071D01*
X130382838Y-109024167D01*
X130524883Y-109367943D01*
X130787673Y-109631192D01*
X131131201Y-109773838D01*
X131503167Y-109774162D01*
X131846943Y-109632117D01*
X132110192Y-109369327D01*
X132252838Y-109025799D01*
X132253162Y-108653833D01*
X132111117Y-108310057D01*
X132051140Y-108249976D01*
X132265167Y-108250162D01*
X132608943Y-108108117D01*
X132872192Y-107845327D01*
X133014838Y-107501799D01*
X133014890Y-107442000D01*
X133945230Y-107442000D01*
X133953883Y-107462943D01*
G36*
X144122673Y-97312192D02*
X144466201Y-97454838D01*
X144838167Y-97455162D01*
X145181943Y-97313117D01*
X145213114Y-97282000D01*
X150096279Y-97282000D01*
X150209883Y-97556943D01*
X150472673Y-97820192D01*
X150816201Y-97962838D01*
X151188167Y-97963162D01*
X151531943Y-97821117D01*
X151795192Y-97558327D01*
X151909934Y-97282000D01*
X157462279Y-97282000D01*
X157575883Y-97556943D01*
X157838673Y-97820192D01*
X158182201Y-97962838D01*
X158554167Y-97963162D01*
X158897943Y-97821117D01*
X159161192Y-97558327D01*
X159275934Y-97282000D01*
X169418000Y-97282000D01*
X169418000Y-105918000D01*
X158675466Y-105918000D01*
X158645327Y-105887808D01*
X158301799Y-105745162D01*
X157929833Y-105744838D01*
X157586057Y-105886883D01*
X157554886Y-105918000D01*
X140374463Y-105918000D01*
X140408162Y-105836843D01*
X140774167Y-105837162D01*
X141117943Y-105695117D01*
X141381192Y-105432327D01*
X141523838Y-105088799D01*
X141524162Y-104716833D01*
X141382117Y-104373057D01*
X141119327Y-104109808D01*
X140775799Y-103967162D01*
X140403833Y-103966838D01*
X140060057Y-104108883D01*
X139796808Y-104371673D01*
X139753838Y-104475157D01*
X139387833Y-104474838D01*
X139044057Y-104616883D01*
X138780808Y-104879673D01*
X138638162Y-105223201D01*
X138637838Y-105595167D01*
X138771230Y-105918000D01*
X133188246Y-105918000D01*
X133127117Y-105770057D01*
X132864327Y-105506808D01*
X132520799Y-105364162D01*
X132148833Y-105363838D01*
X131805057Y-105505883D01*
X131541808Y-105768673D01*
X131479802Y-105918000D01*
X127687245Y-105918000D01*
X127530327Y-105760808D01*
X127186799Y-105618162D01*
X127127000Y-105618110D01*
X127127000Y-103055167D01*
X129493838Y-103055167D01*
X129635883Y-103398943D01*
X129898673Y-103662192D01*
X130242201Y-103804838D01*
X130614167Y-103805162D01*
X130957943Y-103663117D01*
X131221192Y-103400327D01*
X131363838Y-103056799D01*
X131363839Y-103055167D01*
X135589838Y-103055167D01*
X135731883Y-103398943D01*
X135994673Y-103662192D01*
X136338201Y-103804838D01*
X136710167Y-103805162D01*
X137053943Y-103663117D01*
X137125586Y-103591599D01*
X137255883Y-103906943D01*
X137384104Y-104035388D01*
X137219799Y-103967162D01*
X136847833Y-103966838D01*
X136504057Y-104108883D01*
X136240808Y-104371673D01*
X136098162Y-104715201D01*
X136097838Y-105087167D01*
X136239883Y-105430943D01*
X136502673Y-105694192D01*
X136846201Y-105836838D01*
X137218167Y-105837162D01*
X137561943Y-105695117D01*
X137825192Y-105432327D01*
X137967838Y-105088799D01*
X137968162Y-104716833D01*
X137826117Y-104373057D01*
X137697896Y-104244612D01*
X137862201Y-104312838D01*
X138234167Y-104313162D01*
X138577943Y-104171117D01*
X138841192Y-103908327D01*
X138983838Y-103564799D01*
X138984162Y-103192833D01*
X138874805Y-102928167D01*
X148416838Y-102928167D01*
X148558883Y-103271943D01*
X148821673Y-103535192D01*
X149165201Y-103677838D01*
X149537167Y-103678162D01*
X149880943Y-103536117D01*
X150108289Y-103309167D01*
X156671838Y-103309167D01*
X156813883Y-103652943D01*
X157076673Y-103916192D01*
X157420201Y-104058838D01*
X157792167Y-104059162D01*
X158135943Y-103917117D01*
X158399192Y-103654327D01*
X158541838Y-103310799D01*
X158542162Y-102938833D01*
X158400117Y-102595057D01*
X158137327Y-102331808D01*
X157793799Y-102189162D01*
X157421833Y-102188838D01*
X157078057Y-102330883D01*
X156814808Y-102593673D01*
X156672162Y-102937201D01*
X156671838Y-103309167D01*
X150108289Y-103309167D01*
X150144192Y-103273327D01*
X150286838Y-102929799D01*
X150287162Y-102557833D01*
X150145117Y-102214057D01*
X149882327Y-101950808D01*
X149538799Y-101808162D01*
X149166833Y-101807838D01*
X148823057Y-101949883D01*
X148559808Y-102212673D01*
X148417162Y-102556201D01*
X148416838Y-102928167D01*
X138874805Y-102928167D01*
X138842117Y-102849057D01*
X138579327Y-102585808D01*
X138235799Y-102443162D01*
X137863833Y-102442838D01*
X137520057Y-102584883D01*
X137448414Y-102656401D01*
X137318117Y-102341057D01*
X137055327Y-102077808D01*
X136711799Y-101935162D01*
X136339833Y-101934838D01*
X135996057Y-102076883D01*
X135732808Y-102339673D01*
X135590162Y-102683201D01*
X135589838Y-103055167D01*
X131363839Y-103055167D01*
X131364162Y-102684833D01*
X131222117Y-102341057D01*
X130959327Y-102077808D01*
X130615799Y-101935162D01*
X130243833Y-101934838D01*
X129900057Y-102076883D01*
X129636808Y-102339673D01*
X129494162Y-102683201D01*
X129493838Y-103055167D01*
X127127000Y-103055167D01*
X127127000Y-100896802D01*
X127605599Y-101375401D01*
X127852161Y-101540148D01*
X128143000Y-101598000D01*
X128905000Y-101598000D01*
X129195839Y-101540148D01*
X129356593Y-101432736D01*
X129381883Y-101493943D01*
X129644673Y-101757192D01*
X129988201Y-101899838D01*
X130360167Y-101900162D01*
X130703943Y-101758117D01*
X130967192Y-101495327D01*
X131057780Y-101277167D01*
X132795838Y-101277167D01*
X132937883Y-101620943D01*
X133200673Y-101884192D01*
X133544201Y-102026838D01*
X133812070Y-102027071D01*
X133811838Y-102293167D01*
X133953883Y-102636943D01*
X134216673Y-102900192D01*
X134560201Y-103042838D01*
X134932167Y-103043162D01*
X135275943Y-102901117D01*
X135539192Y-102638327D01*
X135681838Y-102294799D01*
X135682162Y-101922833D01*
X135540117Y-101579057D01*
X135277327Y-101315808D01*
X134933799Y-101173162D01*
X134665930Y-101172929D01*
X134666060Y-101023167D01*
X137113838Y-101023167D01*
X137255883Y-101366943D01*
X137518673Y-101630192D01*
X137862201Y-101772838D01*
X138234167Y-101773162D01*
X138577943Y-101631117D01*
X138678067Y-101531167D01*
X146257838Y-101531167D01*
X146399883Y-101874943D01*
X146662673Y-102138192D01*
X147006201Y-102280838D01*
X147378167Y-102281162D01*
X147721943Y-102139117D01*
X147985192Y-101876327D01*
X148127838Y-101532799D01*
X148128162Y-101160833D01*
X147986117Y-100817057D01*
X147723327Y-100553808D01*
X147379799Y-100411162D01*
X147007833Y-100410838D01*
X146664057Y-100552883D01*
X146400808Y-100815673D01*
X146258162Y-101159201D01*
X146257838Y-101531167D01*
X138678067Y-101531167D01*
X138841192Y-101368327D01*
X138983838Y-101024799D01*
X138984162Y-100652833D01*
X138842117Y-100309057D01*
X138579327Y-100045808D01*
X138235799Y-99903162D01*
X137863833Y-99902838D01*
X137520057Y-100044883D01*
X137256808Y-100307673D01*
X137114162Y-100651201D01*
X137113838Y-101023167D01*
X134666060Y-101023167D01*
X134666162Y-100906833D01*
X134524117Y-100563057D01*
X134261327Y-100299808D01*
X133917799Y-100157162D01*
X133545833Y-100156838D01*
X133202057Y-100298883D01*
X132938808Y-100561673D01*
X132796162Y-100905201D01*
X132795838Y-101277167D01*
X131057780Y-101277167D01*
X131109838Y-101151799D01*
X131110162Y-100779833D01*
X130968117Y-100436057D01*
X130705327Y-100172808D01*
X130361799Y-100030162D01*
X130348041Y-100030150D01*
X130348162Y-99890833D01*
X130206117Y-99547057D01*
X129943327Y-99283808D01*
X129599799Y-99141162D01*
X129227833Y-99140838D01*
X129157000Y-99170106D01*
X129157000Y-98737167D01*
X132795838Y-98737167D01*
X132937883Y-99080943D01*
X133200673Y-99344192D01*
X133544201Y-99486838D01*
X133916167Y-99487162D01*
X134259943Y-99345117D01*
X134523192Y-99082327D01*
X134665838Y-98738799D01*
X134666162Y-98366833D01*
X134524117Y-98023057D01*
X134261327Y-97759808D01*
X133917799Y-97617162D01*
X133545833Y-97616838D01*
X133202057Y-97758883D01*
X132938808Y-98021673D01*
X132796162Y-98365201D01*
X132795838Y-98737167D01*
X129157000Y-98737167D01*
X129157000Y-98696103D01*
X129226201Y-98724838D01*
X129598167Y-98725162D01*
X129941943Y-98583117D01*
X130205192Y-98320327D01*
X130347838Y-97976799D01*
X130348162Y-97604833D01*
X130214770Y-97282000D01*
X144092534Y-97282000D01*
X144122673Y-97312192D01*
X144122673Y-97312192D01*
G37*
X144122673Y-97312192D02*
X144466201Y-97454838D01*
X144838167Y-97455162D01*
X145181943Y-97313117D01*
X145213114Y-97282000D01*
X150096279Y-97282000D01*
X150209883Y-97556943D01*
X150472673Y-97820192D01*
X150816201Y-97962838D01*
X151188167Y-97963162D01*
X151531943Y-97821117D01*
X151795192Y-97558327D01*
X151909934Y-97282000D01*
X157462279Y-97282000D01*
X157575883Y-97556943D01*
X157838673Y-97820192D01*
X158182201Y-97962838D01*
X158554167Y-97963162D01*
X158897943Y-97821117D01*
X159161192Y-97558327D01*
X159275934Y-97282000D01*
X169418000Y-97282000D01*
X169418000Y-105918000D01*
X158675466Y-105918000D01*
X158645327Y-105887808D01*
X158301799Y-105745162D01*
X157929833Y-105744838D01*
X157586057Y-105886883D01*
X157554886Y-105918000D01*
X140374463Y-105918000D01*
X140408162Y-105836843D01*
X140774167Y-105837162D01*
X141117943Y-105695117D01*
X141381192Y-105432327D01*
X141523838Y-105088799D01*
X141524162Y-104716833D01*
X141382117Y-104373057D01*
X141119327Y-104109808D01*
X140775799Y-103967162D01*
X140403833Y-103966838D01*
X140060057Y-104108883D01*
X139796808Y-104371673D01*
X139753838Y-104475157D01*
X139387833Y-104474838D01*
X139044057Y-104616883D01*
X138780808Y-104879673D01*
X138638162Y-105223201D01*
X138637838Y-105595167D01*
X138771230Y-105918000D01*
X133188246Y-105918000D01*
X133127117Y-105770057D01*
X132864327Y-105506808D01*
X132520799Y-105364162D01*
X132148833Y-105363838D01*
X131805057Y-105505883D01*
X131541808Y-105768673D01*
X131479802Y-105918000D01*
X127687245Y-105918000D01*
X127530327Y-105760808D01*
X127186799Y-105618162D01*
X127127000Y-105618110D01*
X127127000Y-103055167D01*
X129493838Y-103055167D01*
X129635883Y-103398943D01*
X129898673Y-103662192D01*
X130242201Y-103804838D01*
X130614167Y-103805162D01*
X130957943Y-103663117D01*
X131221192Y-103400327D01*
X131363838Y-103056799D01*
X131363839Y-103055167D01*
X135589838Y-103055167D01*
X135731883Y-103398943D01*
X135994673Y-103662192D01*
X136338201Y-103804838D01*
X136710167Y-103805162D01*
X137053943Y-103663117D01*
X137125586Y-103591599D01*
X137255883Y-103906943D01*
X137384104Y-104035388D01*
X137219799Y-103967162D01*
X136847833Y-103966838D01*
X136504057Y-104108883D01*
X136240808Y-104371673D01*
X136098162Y-104715201D01*
X136097838Y-105087167D01*
X136239883Y-105430943D01*
X136502673Y-105694192D01*
X136846201Y-105836838D01*
X137218167Y-105837162D01*
X137561943Y-105695117D01*
X137825192Y-105432327D01*
X137967838Y-105088799D01*
X137968162Y-104716833D01*
X137826117Y-104373057D01*
X137697896Y-104244612D01*
X137862201Y-104312838D01*
X138234167Y-104313162D01*
X138577943Y-104171117D01*
X138841192Y-103908327D01*
X138983838Y-103564799D01*
X138984162Y-103192833D01*
X138874805Y-102928167D01*
X148416838Y-102928167D01*
X148558883Y-103271943D01*
X148821673Y-103535192D01*
X149165201Y-103677838D01*
X149537167Y-103678162D01*
X149880943Y-103536117D01*
X150108289Y-103309167D01*
X156671838Y-103309167D01*
X156813883Y-103652943D01*
X157076673Y-103916192D01*
X157420201Y-104058838D01*
X157792167Y-104059162D01*
X158135943Y-103917117D01*
X158399192Y-103654327D01*
X158541838Y-103310799D01*
X158542162Y-102938833D01*
X158400117Y-102595057D01*
X158137327Y-102331808D01*
X157793799Y-102189162D01*
X157421833Y-102188838D01*
X157078057Y-102330883D01*
X156814808Y-102593673D01*
X156672162Y-102937201D01*
X156671838Y-103309167D01*
X150108289Y-103309167D01*
X150144192Y-103273327D01*
X150286838Y-102929799D01*
X150287162Y-102557833D01*
X150145117Y-102214057D01*
X149882327Y-101950808D01*
X149538799Y-101808162D01*
X149166833Y-101807838D01*
X148823057Y-101949883D01*
X148559808Y-102212673D01*
X148417162Y-102556201D01*
X148416838Y-102928167D01*
X138874805Y-102928167D01*
X138842117Y-102849057D01*
X138579327Y-102585808D01*
X138235799Y-102443162D01*
X137863833Y-102442838D01*
X137520057Y-102584883D01*
X137448414Y-102656401D01*
X137318117Y-102341057D01*
X137055327Y-102077808D01*
X136711799Y-101935162D01*
X136339833Y-101934838D01*
X135996057Y-102076883D01*
X135732808Y-102339673D01*
X135590162Y-102683201D01*
X135589838Y-103055167D01*
X131363839Y-103055167D01*
X131364162Y-102684833D01*
X131222117Y-102341057D01*
X130959327Y-102077808D01*
X130615799Y-101935162D01*
X130243833Y-101934838D01*
X129900057Y-102076883D01*
X129636808Y-102339673D01*
X129494162Y-102683201D01*
X129493838Y-103055167D01*
X127127000Y-103055167D01*
X127127000Y-100896802D01*
X127605599Y-101375401D01*
X127852161Y-101540148D01*
X128143000Y-101598000D01*
X128905000Y-101598000D01*
X129195839Y-101540148D01*
X129356593Y-101432736D01*
X129381883Y-101493943D01*
X129644673Y-101757192D01*
X129988201Y-101899838D01*
X130360167Y-101900162D01*
X130703943Y-101758117D01*
X130967192Y-101495327D01*
X131057780Y-101277167D01*
X132795838Y-101277167D01*
X132937883Y-101620943D01*
X133200673Y-101884192D01*
X133544201Y-102026838D01*
X133812070Y-102027071D01*
X133811838Y-102293167D01*
X133953883Y-102636943D01*
X134216673Y-102900192D01*
X134560201Y-103042838D01*
X134932167Y-103043162D01*
X135275943Y-102901117D01*
X135539192Y-102638327D01*
X135681838Y-102294799D01*
X135682162Y-101922833D01*
X135540117Y-101579057D01*
X135277327Y-101315808D01*
X134933799Y-101173162D01*
X134665930Y-101172929D01*
X134666060Y-101023167D01*
X137113838Y-101023167D01*
X137255883Y-101366943D01*
X137518673Y-101630192D01*
X137862201Y-101772838D01*
X138234167Y-101773162D01*
X138577943Y-101631117D01*
X138678067Y-101531167D01*
X146257838Y-101531167D01*
X146399883Y-101874943D01*
X146662673Y-102138192D01*
X147006201Y-102280838D01*
X147378167Y-102281162D01*
X147721943Y-102139117D01*
X147985192Y-101876327D01*
X148127838Y-101532799D01*
X148128162Y-101160833D01*
X147986117Y-100817057D01*
X147723327Y-100553808D01*
X147379799Y-100411162D01*
X147007833Y-100410838D01*
X146664057Y-100552883D01*
X146400808Y-100815673D01*
X146258162Y-101159201D01*
X146257838Y-101531167D01*
X138678067Y-101531167D01*
X138841192Y-101368327D01*
X138983838Y-101024799D01*
X138984162Y-100652833D01*
X138842117Y-100309057D01*
X138579327Y-100045808D01*
X138235799Y-99903162D01*
X137863833Y-99902838D01*
X137520057Y-100044883D01*
X137256808Y-100307673D01*
X137114162Y-100651201D01*
X137113838Y-101023167D01*
X134666060Y-101023167D01*
X134666162Y-100906833D01*
X134524117Y-100563057D01*
X134261327Y-100299808D01*
X133917799Y-100157162D01*
X133545833Y-100156838D01*
X133202057Y-100298883D01*
X132938808Y-100561673D01*
X132796162Y-100905201D01*
X132795838Y-101277167D01*
X131057780Y-101277167D01*
X131109838Y-101151799D01*
X131110162Y-100779833D01*
X130968117Y-100436057D01*
X130705327Y-100172808D01*
X130361799Y-100030162D01*
X130348041Y-100030150D01*
X130348162Y-99890833D01*
X130206117Y-99547057D01*
X129943327Y-99283808D01*
X129599799Y-99141162D01*
X129227833Y-99140838D01*
X129157000Y-99170106D01*
X129157000Y-98737167D01*
X132795838Y-98737167D01*
X132937883Y-99080943D01*
X133200673Y-99344192D01*
X133544201Y-99486838D01*
X133916167Y-99487162D01*
X134259943Y-99345117D01*
X134523192Y-99082327D01*
X134665838Y-98738799D01*
X134666162Y-98366833D01*
X134524117Y-98023057D01*
X134261327Y-97759808D01*
X133917799Y-97617162D01*
X133545833Y-97616838D01*
X133202057Y-97758883D01*
X132938808Y-98021673D01*
X132796162Y-98365201D01*
X132795838Y-98737167D01*
X129157000Y-98737167D01*
X129157000Y-98696103D01*
X129226201Y-98724838D01*
X129598167Y-98725162D01*
X129941943Y-98583117D01*
X130205192Y-98320327D01*
X130347838Y-97976799D01*
X130348162Y-97604833D01*
X130214770Y-97282000D01*
X144092534Y-97282000D01*
X144122673Y-97312192D01*
G36*
X134716808Y-86591673D02*
X134574162Y-86935201D01*
X134573838Y-87307167D01*
X134715883Y-87650943D01*
X134844104Y-87779388D01*
X134679799Y-87711162D01*
X134307833Y-87710838D01*
X133964057Y-87852883D01*
X133851640Y-87965104D01*
X133545833Y-87964838D01*
X133202057Y-88106883D01*
X132938808Y-88369673D01*
X132796162Y-88713201D01*
X132795838Y-89085167D01*
X132937883Y-89428943D01*
X133200673Y-89692192D01*
X133544201Y-89834838D01*
X133916167Y-89835162D01*
X134065902Y-89773293D01*
X134065838Y-89847167D01*
X134207883Y-90190943D01*
X134279401Y-90262586D01*
X133964057Y-90392883D01*
X133700808Y-90655673D01*
X133558162Y-90999201D01*
X133557838Y-91371167D01*
X133699883Y-91714943D01*
X133962673Y-91978192D01*
X134306201Y-92120838D01*
X134678167Y-92121162D01*
X135021943Y-91979117D01*
X135122067Y-91879167D01*
X139653838Y-91879167D01*
X139795883Y-92222943D01*
X140058673Y-92486192D01*
X140402201Y-92628838D01*
X140774167Y-92629162D01*
X141117943Y-92487117D01*
X141381192Y-92224327D01*
X141523838Y-91880799D01*
X141524162Y-91508833D01*
X141382117Y-91165057D01*
X141119327Y-90901808D01*
X140775799Y-90759162D01*
X140403833Y-90758838D01*
X140060057Y-90900883D01*
X139796808Y-91163673D01*
X139654162Y-91507201D01*
X139653838Y-91879167D01*
X135122067Y-91879167D01*
X135285192Y-91716327D01*
X135427838Y-91372799D01*
X135428162Y-91000833D01*
X135286117Y-90657057D01*
X135214599Y-90585414D01*
X135529943Y-90455117D01*
X135793192Y-90192327D01*
X135935838Y-89848799D01*
X135936162Y-89476833D01*
X135794117Y-89133057D01*
X135531327Y-88869808D01*
X135427843Y-88826838D01*
X135428162Y-88460833D01*
X135286117Y-88117057D01*
X135238311Y-88069167D01*
X148035838Y-88069167D01*
X148177883Y-88412943D01*
X148440673Y-88676192D01*
X148784201Y-88818838D01*
X149156167Y-88819162D01*
X149499943Y-88677117D01*
X149763192Y-88414327D01*
X149905838Y-88070799D01*
X149906162Y-87698833D01*
X149764117Y-87355057D01*
X149501327Y-87091808D01*
X149157799Y-86949162D01*
X148785833Y-86948838D01*
X148442057Y-87090883D01*
X148178808Y-87353673D01*
X148036162Y-87697201D01*
X148035838Y-88069167D01*
X135238311Y-88069167D01*
X135157896Y-87988612D01*
X135322201Y-88056838D01*
X135694167Y-88057162D01*
X136037943Y-87915117D01*
X136301192Y-87652327D01*
X136443838Y-87308799D01*
X136444162Y-86936833D01*
X136302117Y-86593057D01*
X136196245Y-86487000D01*
X138892110Y-86487000D01*
X138891838Y-86799167D01*
X139033883Y-87142943D01*
X139296673Y-87406192D01*
X139640201Y-87548838D01*
X140012167Y-87549162D01*
X140355943Y-87407117D01*
X140619192Y-87144327D01*
X140761838Y-86800799D01*
X140762111Y-86487000D01*
X156544889Y-86487000D01*
X156544838Y-86545167D01*
X156686883Y-86888943D01*
X156949673Y-87152192D01*
X157293201Y-87294838D01*
X157665167Y-87295162D01*
X158008943Y-87153117D01*
X158272192Y-86890327D01*
X158414838Y-86546799D01*
X158414890Y-86487000D01*
X169418000Y-86487000D01*
X169418000Y-95758000D01*
X158167114Y-95758000D01*
X158399192Y-95526327D01*
X158541838Y-95182799D01*
X158542162Y-94810833D01*
X158400117Y-94467057D01*
X158137327Y-94203808D01*
X157793799Y-94061162D01*
X157421833Y-94060838D01*
X157078057Y-94202883D01*
X156814808Y-94465673D01*
X156672162Y-94809201D01*
X156671838Y-95181167D01*
X156813883Y-95524943D01*
X157046534Y-95758000D01*
X154195721Y-95758000D01*
X154082117Y-95483057D01*
X153819327Y-95219808D01*
X153475799Y-95077162D01*
X153103833Y-95076838D01*
X152760057Y-95218883D01*
X152496808Y-95481673D01*
X152382066Y-95758000D01*
X145213466Y-95758000D01*
X145183327Y-95727808D01*
X144839799Y-95585162D01*
X144467833Y-95584838D01*
X144124057Y-95726883D01*
X144092886Y-95758000D01*
X130722770Y-95758000D01*
X130714117Y-95737057D01*
X130451327Y-95473808D01*
X130107799Y-95331162D01*
X129735833Y-95330838D01*
X129392057Y-95472883D01*
X129157000Y-95707530D01*
X129157000Y-94673167D01*
X138637838Y-94673167D01*
X138779883Y-95016943D01*
X139042673Y-95280192D01*
X139386201Y-95422838D01*
X139758167Y-95423162D01*
X140101943Y-95281117D01*
X140365192Y-95018327D01*
X140507838Y-94674799D01*
X140508162Y-94302833D01*
X140366117Y-93959057D01*
X140103327Y-93695808D01*
X139759799Y-93553162D01*
X139387833Y-93552838D01*
X139044057Y-93694883D01*
X138780808Y-93957673D01*
X138638162Y-94301201D01*
X138637838Y-94673167D01*
X129157000Y-94673167D01*
X129157000Y-92387167D01*
X129747838Y-92387167D01*
X129889883Y-92730943D01*
X130122709Y-92964176D01*
X129890808Y-93195673D01*
X129748162Y-93539201D01*
X129747838Y-93911167D01*
X129889883Y-94254943D01*
X130152673Y-94518192D01*
X130496201Y-94660838D01*
X130868167Y-94661162D01*
X131211943Y-94519117D01*
X131475192Y-94256327D01*
X131617838Y-93912799D01*
X131618162Y-93540833D01*
X131561280Y-93403167D01*
X133049838Y-93403167D01*
X133191883Y-93746943D01*
X133454673Y-94010192D01*
X133798201Y-94152838D01*
X134165826Y-94153158D01*
X134207883Y-94254943D01*
X134470673Y-94518192D01*
X134814201Y-94660838D01*
X135186167Y-94661162D01*
X135529943Y-94519117D01*
X135793192Y-94256327D01*
X135935838Y-93912799D01*
X135935839Y-93911167D01*
X136097838Y-93911167D01*
X136239883Y-94254943D01*
X136502673Y-94518192D01*
X136846201Y-94660838D01*
X137218167Y-94661162D01*
X137561943Y-94519117D01*
X137825192Y-94256327D01*
X137967838Y-93912799D01*
X137968162Y-93540833D01*
X137826117Y-93197057D01*
X137563327Y-92933808D01*
X137219799Y-92791162D01*
X136847833Y-92790838D01*
X136504057Y-92932883D01*
X136240808Y-93195673D01*
X136098162Y-93539201D01*
X136097838Y-93911167D01*
X135935839Y-93911167D01*
X135936162Y-93540833D01*
X135794117Y-93197057D01*
X135531327Y-92933808D01*
X135187799Y-92791162D01*
X134820174Y-92790842D01*
X134778117Y-92689057D01*
X134515327Y-92425808D01*
X134171799Y-92283162D01*
X133799833Y-92282838D01*
X133456057Y-92424883D01*
X133192808Y-92687673D01*
X133050162Y-93031201D01*
X133049838Y-93403167D01*
X131561280Y-93403167D01*
X131476117Y-93197057D01*
X131243291Y-92963824D01*
X131475192Y-92732327D01*
X131617838Y-92388799D01*
X131618162Y-92016833D01*
X131476117Y-91673057D01*
X131213327Y-91409808D01*
X130869799Y-91267162D01*
X130497833Y-91266838D01*
X130154057Y-91408883D01*
X129890808Y-91671673D01*
X129748162Y-92015201D01*
X129747838Y-92387167D01*
X129157000Y-92387167D01*
X129157000Y-88960802D01*
X131630802Y-86487000D01*
X134821664Y-86487000D01*
X134716808Y-86591673D01*
X134716808Y-86591673D01*
G37*
X134716808Y-86591673D02*
X134574162Y-86935201D01*
X134573838Y-87307167D01*
X134715883Y-87650943D01*
X134844104Y-87779388D01*
X134679799Y-87711162D01*
X134307833Y-87710838D01*
X133964057Y-87852883D01*
X133851640Y-87965104D01*
X133545833Y-87964838D01*
X133202057Y-88106883D01*
X132938808Y-88369673D01*
X132796162Y-88713201D01*
X132795838Y-89085167D01*
X132937883Y-89428943D01*
X133200673Y-89692192D01*
X133544201Y-89834838D01*
X133916167Y-89835162D01*
X134065902Y-89773293D01*
X134065838Y-89847167D01*
X134207883Y-90190943D01*
X134279401Y-90262586D01*
X133964057Y-90392883D01*
X133700808Y-90655673D01*
X133558162Y-90999201D01*
X133557838Y-91371167D01*
X133699883Y-91714943D01*
X133962673Y-91978192D01*
X134306201Y-92120838D01*
X134678167Y-92121162D01*
X135021943Y-91979117D01*
X135122067Y-91879167D01*
X139653838Y-91879167D01*
X139795883Y-92222943D01*
X140058673Y-92486192D01*
X140402201Y-92628838D01*
X140774167Y-92629162D01*
X141117943Y-92487117D01*
X141381192Y-92224327D01*
X141523838Y-91880799D01*
X141524162Y-91508833D01*
X141382117Y-91165057D01*
X141119327Y-90901808D01*
X140775799Y-90759162D01*
X140403833Y-90758838D01*
X140060057Y-90900883D01*
X139796808Y-91163673D01*
X139654162Y-91507201D01*
X139653838Y-91879167D01*
X135122067Y-91879167D01*
X135285192Y-91716327D01*
X135427838Y-91372799D01*
X135428162Y-91000833D01*
X135286117Y-90657057D01*
X135214599Y-90585414D01*
X135529943Y-90455117D01*
X135793192Y-90192327D01*
X135935838Y-89848799D01*
X135936162Y-89476833D01*
X135794117Y-89133057D01*
X135531327Y-88869808D01*
X135427843Y-88826838D01*
X135428162Y-88460833D01*
X135286117Y-88117057D01*
X135238311Y-88069167D01*
X148035838Y-88069167D01*
X148177883Y-88412943D01*
X148440673Y-88676192D01*
X148784201Y-88818838D01*
X149156167Y-88819162D01*
X149499943Y-88677117D01*
X149763192Y-88414327D01*
X149905838Y-88070799D01*
X149906162Y-87698833D01*
X149764117Y-87355057D01*
X149501327Y-87091808D01*
X149157799Y-86949162D01*
X148785833Y-86948838D01*
X148442057Y-87090883D01*
X148178808Y-87353673D01*
X148036162Y-87697201D01*
X148035838Y-88069167D01*
X135238311Y-88069167D01*
X135157896Y-87988612D01*
X135322201Y-88056838D01*
X135694167Y-88057162D01*
X136037943Y-87915117D01*
X136301192Y-87652327D01*
X136443838Y-87308799D01*
X136444162Y-86936833D01*
X136302117Y-86593057D01*
X136196245Y-86487000D01*
X138892110Y-86487000D01*
X138891838Y-86799167D01*
X139033883Y-87142943D01*
X139296673Y-87406192D01*
X139640201Y-87548838D01*
X140012167Y-87549162D01*
X140355943Y-87407117D01*
X140619192Y-87144327D01*
X140761838Y-86800799D01*
X140762111Y-86487000D01*
X156544889Y-86487000D01*
X156544838Y-86545167D01*
X156686883Y-86888943D01*
X156949673Y-87152192D01*
X157293201Y-87294838D01*
X157665167Y-87295162D01*
X158008943Y-87153117D01*
X158272192Y-86890327D01*
X158414838Y-86546799D01*
X158414890Y-86487000D01*
X169418000Y-86487000D01*
X169418000Y-95758000D01*
X158167114Y-95758000D01*
X158399192Y-95526327D01*
X158541838Y-95182799D01*
X158542162Y-94810833D01*
X158400117Y-94467057D01*
X158137327Y-94203808D01*
X157793799Y-94061162D01*
X157421833Y-94060838D01*
X157078057Y-94202883D01*
X156814808Y-94465673D01*
X156672162Y-94809201D01*
X156671838Y-95181167D01*
X156813883Y-95524943D01*
X157046534Y-95758000D01*
X154195721Y-95758000D01*
X154082117Y-95483057D01*
X153819327Y-95219808D01*
X153475799Y-95077162D01*
X153103833Y-95076838D01*
X152760057Y-95218883D01*
X152496808Y-95481673D01*
X152382066Y-95758000D01*
X145213466Y-95758000D01*
X145183327Y-95727808D01*
X144839799Y-95585162D01*
X144467833Y-95584838D01*
X144124057Y-95726883D01*
X144092886Y-95758000D01*
X130722770Y-95758000D01*
X130714117Y-95737057D01*
X130451327Y-95473808D01*
X130107799Y-95331162D01*
X129735833Y-95330838D01*
X129392057Y-95472883D01*
X129157000Y-95707530D01*
X129157000Y-94673167D01*
X138637838Y-94673167D01*
X138779883Y-95016943D01*
X139042673Y-95280192D01*
X139386201Y-95422838D01*
X139758167Y-95423162D01*
X140101943Y-95281117D01*
X140365192Y-95018327D01*
X140507838Y-94674799D01*
X140508162Y-94302833D01*
X140366117Y-93959057D01*
X140103327Y-93695808D01*
X139759799Y-93553162D01*
X139387833Y-93552838D01*
X139044057Y-93694883D01*
X138780808Y-93957673D01*
X138638162Y-94301201D01*
X138637838Y-94673167D01*
X129157000Y-94673167D01*
X129157000Y-92387167D01*
X129747838Y-92387167D01*
X129889883Y-92730943D01*
X130122709Y-92964176D01*
X129890808Y-93195673D01*
X129748162Y-93539201D01*
X129747838Y-93911167D01*
X129889883Y-94254943D01*
X130152673Y-94518192D01*
X130496201Y-94660838D01*
X130868167Y-94661162D01*
X131211943Y-94519117D01*
X131475192Y-94256327D01*
X131617838Y-93912799D01*
X131618162Y-93540833D01*
X131561280Y-93403167D01*
X133049838Y-93403167D01*
X133191883Y-93746943D01*
X133454673Y-94010192D01*
X133798201Y-94152838D01*
X134165826Y-94153158D01*
X134207883Y-94254943D01*
X134470673Y-94518192D01*
X134814201Y-94660838D01*
X135186167Y-94661162D01*
X135529943Y-94519117D01*
X135793192Y-94256327D01*
X135935838Y-93912799D01*
X135935839Y-93911167D01*
X136097838Y-93911167D01*
X136239883Y-94254943D01*
X136502673Y-94518192D01*
X136846201Y-94660838D01*
X137218167Y-94661162D01*
X137561943Y-94519117D01*
X137825192Y-94256327D01*
X137967838Y-93912799D01*
X137968162Y-93540833D01*
X137826117Y-93197057D01*
X137563327Y-92933808D01*
X137219799Y-92791162D01*
X136847833Y-92790838D01*
X136504057Y-92932883D01*
X136240808Y-93195673D01*
X136098162Y-93539201D01*
X136097838Y-93911167D01*
X135935839Y-93911167D01*
X135936162Y-93540833D01*
X135794117Y-93197057D01*
X135531327Y-92933808D01*
X135187799Y-92791162D01*
X134820174Y-92790842D01*
X134778117Y-92689057D01*
X134515327Y-92425808D01*
X134171799Y-92283162D01*
X133799833Y-92282838D01*
X133456057Y-92424883D01*
X133192808Y-92687673D01*
X133050162Y-93031201D01*
X133049838Y-93403167D01*
X131561280Y-93403167D01*
X131476117Y-93197057D01*
X131243291Y-92963824D01*
X131475192Y-92732327D01*
X131617838Y-92388799D01*
X131618162Y-92016833D01*
X131476117Y-91673057D01*
X131213327Y-91409808D01*
X130869799Y-91267162D01*
X130497833Y-91266838D01*
X130154057Y-91408883D01*
X129890808Y-91671673D01*
X129748162Y-92015201D01*
X129747838Y-92387167D01*
X129157000Y-92387167D01*
X129157000Y-88960802D01*
X131630802Y-86487000D01*
X134821664Y-86487000D01*
X134716808Y-86591673D01*
M02*
