G04 #@! TF.FileFunction,Paste,Top*
%FSLAX46Y46*%
G04 Gerber Fmt 4.6, Leading zero omitted, Abs format (unit mm)*
G04 Created by KiCad (PCBNEW 4.0.7-e2-6376~58~ubuntu14.04.1) date Thu Apr 12 21:29:56 2018*
%MOMM*%
%LPD*%
G01*
G04 APERTURE LIST*
%ADD10C,0.100000*%
%ADD11R,0.900000X0.800000*%
%ADD12R,1.000000X1.250000*%
%ADD13R,0.700000X1.300000*%
%ADD14R,1.000000X0.300000*%
%ADD15R,1.060000X0.650000*%
%ADD16R,1.200000X0.300000*%
%ADD17R,1.250000X1.000000*%
%ADD18R,1.200000X1.200000*%
%ADD19R,1.780000X3.500000*%
%ADD20R,2.000000X3.800000*%
%ADD21R,2.000000X1.500000*%
%ADD22R,0.800000X0.900000*%
%ADD23R,1.300000X0.700000*%
%ADD24R,1.500000X0.250000*%
G04 APERTURE END LIST*
D10*
D11*
X155160000Y-133670000D03*
X155160000Y-135570000D03*
X157260000Y-134620000D03*
D12*
X144256000Y-78740000D03*
X142256000Y-78740000D03*
X144256000Y-72390000D03*
X142256000Y-72390000D03*
D13*
X97094000Y-68580000D03*
X98994000Y-68580000D03*
X100650000Y-69596000D03*
X102550000Y-69596000D03*
X97094000Y-71120000D03*
X98994000Y-71120000D03*
X100650000Y-72644000D03*
X102550000Y-72644000D03*
X97094000Y-73660000D03*
X98994000Y-73660000D03*
X96078000Y-76454000D03*
X97978000Y-76454000D03*
X99380000Y-77724000D03*
X101280000Y-77724000D03*
X96078000Y-78994000D03*
X97978000Y-78994000D03*
X99380000Y-80264000D03*
X101280000Y-80264000D03*
X96078000Y-81788000D03*
X97978000Y-81788000D03*
X109154000Y-80518000D03*
X107254000Y-80518000D03*
D14*
X88726000Y-74041000D03*
X93726000Y-69596000D03*
X93726000Y-70231000D03*
X93726000Y-70866000D03*
X93726000Y-71501000D03*
X93726000Y-72136000D03*
X93726000Y-72771000D03*
X93726000Y-73406000D03*
X93726000Y-74041000D03*
X88726000Y-73406000D03*
X88726000Y-72771000D03*
X88726000Y-72136000D03*
X88726000Y-71501000D03*
X88726000Y-70866000D03*
X88726000Y-70231000D03*
X88726000Y-69596000D03*
X88472000Y-81407000D03*
X93472000Y-76962000D03*
X93472000Y-77597000D03*
X93472000Y-78232000D03*
X93472000Y-78867000D03*
X93472000Y-79502000D03*
X93472000Y-80137000D03*
X93472000Y-80772000D03*
X93472000Y-81407000D03*
X88472000Y-80772000D03*
X88472000Y-80137000D03*
X88472000Y-79502000D03*
X88472000Y-78867000D03*
X88472000Y-78232000D03*
X88472000Y-77597000D03*
X88472000Y-76962000D03*
D15*
X103294000Y-78552000D03*
X103294000Y-79502000D03*
X103294000Y-80452000D03*
X105494000Y-80452000D03*
X105494000Y-78552000D03*
D16*
X146394000Y-71120000D03*
X155194000Y-80010000D03*
X155194000Y-78740000D03*
X155194000Y-77470000D03*
X155194000Y-76200000D03*
X155194000Y-74930000D03*
X155194000Y-73660000D03*
X155194000Y-72390000D03*
X155194000Y-71120000D03*
X146394000Y-72390000D03*
X146394000Y-73660000D03*
X146394000Y-74930000D03*
X146394000Y-76200000D03*
X146394000Y-77470000D03*
X146394000Y-78740000D03*
X146394000Y-80010000D03*
D12*
X135525000Y-112522000D03*
X137525000Y-112522000D03*
X125365000Y-83185000D03*
X127365000Y-83185000D03*
X135525000Y-85090000D03*
X137525000Y-85090000D03*
D17*
X128905000Y-89900000D03*
X128905000Y-87900000D03*
D12*
X108093000Y-74422000D03*
X110093000Y-74422000D03*
X140732000Y-93091000D03*
X142732000Y-93091000D03*
X136509000Y-77470000D03*
X134509000Y-77470000D03*
D17*
X128905000Y-85582000D03*
X128905000Y-83582000D03*
D12*
X140732000Y-90297000D03*
X142732000Y-90297000D03*
X108093000Y-71882000D03*
X110093000Y-71882000D03*
X144415000Y-102870000D03*
X146415000Y-102870000D03*
X105680000Y-102870000D03*
X107680000Y-102870000D03*
X105680000Y-113030000D03*
X107680000Y-113030000D03*
X107680000Y-123190000D03*
X105680000Y-123190000D03*
X105680000Y-133350000D03*
X107680000Y-133350000D03*
X153400000Y-133350000D03*
X151400000Y-133350000D03*
X153400000Y-123190000D03*
X151400000Y-123190000D03*
X153400000Y-113030000D03*
X151400000Y-113030000D03*
X153400000Y-102870000D03*
X151400000Y-102870000D03*
X151400000Y-94615000D03*
X153400000Y-94615000D03*
X105680000Y-92710000D03*
X107680000Y-92710000D03*
D18*
X149095000Y-85725000D03*
X151895000Y-85725000D03*
X102700000Y-99060000D03*
X100500000Y-99060000D03*
X102700000Y-109220000D03*
X100500000Y-109220000D03*
X102700000Y-120015000D03*
X100500000Y-120015000D03*
X102700000Y-129540000D03*
X100500000Y-129540000D03*
X160190000Y-134620000D03*
X162390000Y-134620000D03*
X160190000Y-124460000D03*
X162390000Y-124460000D03*
X160190000Y-114300000D03*
X162390000Y-114300000D03*
X160190000Y-104140000D03*
X162390000Y-104140000D03*
X160190000Y-93980000D03*
X162390000Y-93980000D03*
X102700000Y-88900000D03*
X100500000Y-88900000D03*
D19*
X96720000Y-86360000D03*
X91440000Y-86360000D03*
X96720000Y-93980000D03*
X91440000Y-93980000D03*
X96720000Y-104140000D03*
X91440000Y-104140000D03*
X96720000Y-114300000D03*
X91440000Y-114300000D03*
X96720000Y-124460000D03*
X91440000Y-124460000D03*
X96720000Y-133350000D03*
X91440000Y-133350000D03*
D20*
X142215000Y-98425000D03*
D21*
X135915000Y-98425000D03*
X135915000Y-100725000D03*
X135915000Y-96125000D03*
D22*
X105730000Y-99695000D03*
X107630000Y-99695000D03*
X106680000Y-97595000D03*
X105730000Y-109635000D03*
X107630000Y-109635000D03*
X106680000Y-107535000D03*
X105730000Y-120430000D03*
X107630000Y-120430000D03*
X106680000Y-118330000D03*
X104780000Y-130175000D03*
X106680000Y-130175000D03*
X105730000Y-128075000D03*
D11*
X155160000Y-123510000D03*
X155160000Y-125410000D03*
X157260000Y-124460000D03*
X155160000Y-113350000D03*
X155160000Y-115250000D03*
X157260000Y-114300000D03*
X155160000Y-103190000D03*
X155160000Y-105090000D03*
X157260000Y-104140000D03*
X156151000Y-93914000D03*
X156151000Y-92014000D03*
X154051000Y-92964000D03*
D22*
X105730000Y-88680000D03*
X107630000Y-88680000D03*
X106680000Y-86580000D03*
D13*
X133670000Y-110490000D03*
X135570000Y-110490000D03*
D23*
X124333000Y-87188000D03*
X124333000Y-89088000D03*
X105029000Y-73472000D03*
X105029000Y-75372000D03*
X105029000Y-71816000D03*
X105029000Y-69916000D03*
D13*
X131130000Y-82550000D03*
X133030000Y-82550000D03*
X129479000Y-78486000D03*
X131379000Y-78486000D03*
X131130000Y-86360000D03*
X133030000Y-86360000D03*
X140650000Y-80010000D03*
X138750000Y-80010000D03*
X138750000Y-77470000D03*
X140650000Y-77470000D03*
X140650000Y-73660000D03*
X138750000Y-73660000D03*
X131130000Y-88900000D03*
X133030000Y-88900000D03*
X102550000Y-102870000D03*
X100650000Y-102870000D03*
X102550000Y-96520000D03*
X100650000Y-96520000D03*
X107630000Y-105410000D03*
X105730000Y-105410000D03*
X102550000Y-113030000D03*
X100650000Y-113030000D03*
X102550000Y-106680000D03*
X100650000Y-106680000D03*
X107630000Y-115570000D03*
X105730000Y-115570000D03*
X102550000Y-123190000D03*
X100650000Y-123190000D03*
X102550000Y-116840000D03*
X100650000Y-116840000D03*
X107630000Y-125730000D03*
X105730000Y-125730000D03*
X102550000Y-133350000D03*
X100650000Y-133350000D03*
X102550000Y-127000000D03*
X100650000Y-127000000D03*
X107630000Y-135890000D03*
X105730000Y-135890000D03*
X162240000Y-132080000D03*
X160340000Y-132080000D03*
X155260000Y-138430000D03*
X157160000Y-138430000D03*
X155260000Y-130810000D03*
X157160000Y-130810000D03*
X162240000Y-121920000D03*
X160340000Y-121920000D03*
X155260000Y-128270000D03*
X157160000Y-128270000D03*
X155260000Y-120650000D03*
X157160000Y-120650000D03*
X162240000Y-111760000D03*
X160340000Y-111760000D03*
X155260000Y-118110000D03*
X157160000Y-118110000D03*
X155260000Y-110490000D03*
X157160000Y-110490000D03*
X162240000Y-101600000D03*
X160340000Y-101600000D03*
X155260000Y-107950000D03*
X157160000Y-107950000D03*
X155260000Y-100330000D03*
X157160000Y-100330000D03*
X162240000Y-91440000D03*
X160340000Y-91440000D03*
X155260000Y-97155000D03*
X157160000Y-97155000D03*
X155260000Y-89535000D03*
X157160000Y-89535000D03*
X102550000Y-91440000D03*
X100650000Y-91440000D03*
X102550000Y-85090000D03*
X100650000Y-85090000D03*
X107630000Y-95250000D03*
X105730000Y-95250000D03*
D24*
X131985000Y-103540000D03*
X124520000Y-92040000D03*
X124520000Y-92540000D03*
X124520000Y-93040000D03*
X124520000Y-93540000D03*
X124520000Y-94040000D03*
X124520000Y-94540000D03*
X124520000Y-95040000D03*
X124520000Y-95540000D03*
X124520000Y-96040000D03*
X124520000Y-96540000D03*
X124520000Y-97040000D03*
X124520000Y-97540000D03*
X124520000Y-98040000D03*
X124520000Y-98540000D03*
X124520000Y-99040000D03*
X124520000Y-99540000D03*
X124520000Y-100040000D03*
X124520000Y-100540000D03*
X124520000Y-101040000D03*
X124520000Y-101540000D03*
X124520000Y-102040000D03*
X124520000Y-102540000D03*
X124520000Y-103040000D03*
X124520000Y-103540000D03*
X131985000Y-103040000D03*
X131985000Y-102540000D03*
X131985000Y-102040000D03*
X131985000Y-101540000D03*
X131985000Y-101040000D03*
X131985000Y-100540000D03*
X131985000Y-100040000D03*
X131985000Y-99540000D03*
X131985000Y-99040000D03*
X131985000Y-98540000D03*
X131985000Y-98040000D03*
X131985000Y-97540000D03*
X131985000Y-97040000D03*
X131985000Y-96540000D03*
X131985000Y-96040000D03*
X131985000Y-95540000D03*
X131985000Y-95040000D03*
X131985000Y-94540000D03*
X131985000Y-94040000D03*
X131985000Y-93540000D03*
X131985000Y-93040000D03*
X131985000Y-92540000D03*
X131985000Y-92040000D03*
D15*
X136060000Y-105095000D03*
X136060000Y-106045000D03*
X136060000Y-106995000D03*
X138260000Y-106995000D03*
X138260000Y-105095000D03*
X136060000Y-90490000D03*
X136060000Y-91440000D03*
X136060000Y-92390000D03*
X138260000Y-92390000D03*
X138260000Y-90490000D03*
M02*
