G04 #@! TF.FileFunction,Copper,L4,Bot,Signal*
%FSLAX46Y46*%
G04 Gerber Fmt 4.6, Leading zero omitted, Abs format (unit mm)*
G04 Created by KiCad (PCBNEW 4.0.7-e2-6376~58~ubuntu14.04.1) date Mon Apr 23 20:22:28 2018*
%MOMM*%
%LPD*%
G01*
G04 APERTURE LIST*
%ADD10C,0.100000*%
%ADD11R,8.510000X7.870000*%
%ADD12R,3.810000X1.650000*%
%ADD13C,1.500000*%
%ADD14R,1.900000X1.900000*%
%ADD15C,1.900000*%
%ADD16R,1.780000X3.500000*%
%ADD17C,4.648200*%
%ADD18C,5.648200*%
%ADD19C,0.600000*%
%ADD20C,0.250000*%
G04 APERTURE END LIST*
D10*
D11*
X88900000Y-91440000D03*
D12*
X96525000Y-93980000D03*
X96525000Y-88900000D03*
D13*
X81740000Y-106680000D03*
X78740000Y-106680000D03*
X78740000Y-103680000D03*
X81740000Y-103680000D03*
X81740000Y-100680000D03*
X78740000Y-100680000D03*
X78740000Y-97680000D03*
X81740000Y-97680000D03*
X81740000Y-94680000D03*
X78740000Y-94680000D03*
X78740000Y-91680000D03*
X81740000Y-91680000D03*
X81740000Y-88680000D03*
X78740000Y-88680000D03*
X78740000Y-85680000D03*
X81740000Y-85680000D03*
X81740000Y-82680000D03*
X78740000Y-82680000D03*
X81740000Y-79680000D03*
X78740000Y-79680000D03*
X81740000Y-130285000D03*
X78740000Y-130285000D03*
X78740000Y-127285000D03*
X81740000Y-127285000D03*
X81740000Y-124285000D03*
X78740000Y-124285000D03*
X78740000Y-121285000D03*
X81740000Y-121285000D03*
X81740000Y-118285000D03*
X78740000Y-118285000D03*
X81740000Y-115285000D03*
X78740000Y-115285000D03*
D14*
X118745000Y-77275000D03*
D15*
X116245000Y-77275000D03*
D14*
X114935000Y-117280000D03*
D15*
X112435000Y-117280000D03*
D16*
X132280000Y-133985000D03*
X127000000Y-133985000D03*
X132280000Y-123825000D03*
X127000000Y-123825000D03*
X132280000Y-113665000D03*
X127000000Y-113665000D03*
X132280000Y-103505000D03*
X127000000Y-103505000D03*
X132280000Y-93345000D03*
X127000000Y-93345000D03*
D11*
X88900000Y-101600000D03*
D12*
X96525000Y-104140000D03*
X96525000Y-99060000D03*
D11*
X88900000Y-111760000D03*
D12*
X96525000Y-114300000D03*
X96525000Y-109220000D03*
D11*
X88900000Y-121920000D03*
D12*
X96525000Y-124460000D03*
X96525000Y-119380000D03*
D11*
X88900000Y-132080000D03*
D12*
X96525000Y-134620000D03*
X96525000Y-129540000D03*
D11*
X142240000Y-133350000D03*
D12*
X149865000Y-135890000D03*
X149865000Y-130810000D03*
D11*
X162560000Y-121920000D03*
D12*
X154935000Y-119380000D03*
X154935000Y-124460000D03*
D11*
X162560000Y-111760000D03*
D12*
X154935000Y-109220000D03*
X154935000Y-114300000D03*
D11*
X162560000Y-101600000D03*
D12*
X154935000Y-99060000D03*
X154935000Y-104140000D03*
D11*
X162560000Y-91440000D03*
D12*
X154935000Y-88900000D03*
X154935000Y-93980000D03*
D17*
X165735000Y-137795000D03*
D18*
X75565000Y-138430000D03*
D17*
X166370000Y-72390000D03*
D18*
X75565000Y-71755000D03*
D19*
X153289000Y-96012000D03*
X130429000Y-102870000D03*
X157480000Y-86360000D03*
X130175000Y-100965000D03*
X127381000Y-88138000D03*
X134493000Y-91186000D03*
X142621000Y-85090000D03*
X133985000Y-93218000D03*
X139065000Y-85090000D03*
X132969000Y-77470000D03*
X127889000Y-78486000D03*
X129413000Y-82042000D03*
X129413000Y-97790000D03*
X137541000Y-114554000D03*
X147193000Y-101346000D03*
X139573000Y-105410000D03*
X94615000Y-80010000D03*
X95123000Y-72136000D03*
X111633000Y-71882000D03*
X154305000Y-84455000D03*
X140716000Y-78740000D03*
X140716000Y-72390000D03*
X104394000Y-79502000D03*
X135509000Y-81534000D03*
X128397000Y-99822000D03*
X135509000Y-87122000D03*
X134493000Y-88646000D03*
X106807000Y-75946000D03*
X110617000Y-68834000D03*
X140589000Y-91694000D03*
X129921000Y-96266000D03*
X138049000Y-100838000D03*
X140589000Y-104902000D03*
X104394000Y-78486000D03*
X91948000Y-79248000D03*
X90932000Y-70866000D03*
X135763000Y-73660000D03*
X130175000Y-81026000D03*
X139319000Y-69596000D03*
X144653000Y-96520000D03*
X138049000Y-103378000D03*
X136525000Y-102870000D03*
X103505000Y-96520000D03*
X105410000Y-100965000D03*
X105410000Y-107950000D03*
X105410000Y-111125000D03*
X104775000Y-132080000D03*
X106680000Y-127635000D03*
X120015000Y-121285000D03*
X121920000Y-119380000D03*
X130175000Y-107950000D03*
X128905000Y-107950000D03*
X127762000Y-107061000D03*
X132080000Y-107315000D03*
X136906000Y-109855000D03*
X127000000Y-106553000D03*
X153035000Y-111125000D03*
X125984000Y-106553000D03*
X149352000Y-102743000D03*
X128524000Y-110617000D03*
X106045000Y-90170000D03*
X108585000Y-90170000D03*
X148971000Y-87884000D03*
X158369000Y-97028000D03*
X101727000Y-99060000D03*
X101727000Y-109220000D03*
X101727000Y-120142000D03*
X101727000Y-129540000D03*
X156845000Y-136525000D03*
X157480000Y-125730000D03*
X157480000Y-115570000D03*
X157480000Y-102870000D03*
X154305000Y-106045000D03*
X132334000Y-106299000D03*
X154940000Y-91503000D03*
X101727000Y-88900000D03*
X130429000Y-84836000D03*
X124333000Y-86106000D03*
X96647000Y-96520000D03*
X96901000Y-107188000D03*
X96647000Y-117348000D03*
X96520000Y-127000000D03*
X94869000Y-133096000D03*
X161925000Y-130175000D03*
X156210000Y-127000000D03*
X157861000Y-117348000D03*
X158115000Y-106680000D03*
X87630000Y-69215000D03*
X86360000Y-69850000D03*
X97790000Y-73660000D03*
X89760801Y-74420115D03*
X126365000Y-78486000D03*
X135255000Y-80645000D03*
X139065000Y-83820000D03*
X153035000Y-77470000D03*
X135255000Y-78740000D03*
X137160000Y-80010000D03*
X141605000Y-82550000D03*
X113789442Y-80520558D03*
X153035000Y-71120000D03*
X115570000Y-81280000D03*
X138430000Y-71755000D03*
X129413000Y-100076000D03*
X133731000Y-101092000D03*
X134747000Y-106934000D03*
X103505000Y-75438000D03*
X92456000Y-78232000D03*
X92456000Y-71628000D03*
X117983000Y-82042000D03*
X133731000Y-98552000D03*
X134747000Y-102108000D03*
X137033000Y-104902000D03*
X104013000Y-68326000D03*
X91694000Y-77216000D03*
X91948000Y-70866000D03*
X133223000Y-84836000D03*
X130683000Y-93726000D03*
X107315000Y-77216000D03*
X135001000Y-89662000D03*
X137033000Y-93726000D03*
X139573000Y-94488000D03*
X146431000Y-81280000D03*
X139827000Y-86614000D03*
X135001000Y-93726000D03*
X130683000Y-92202000D03*
X132207000Y-81026000D03*
X133731000Y-88900000D03*
X136271000Y-82296000D03*
X142621000Y-70866000D03*
X92710000Y-100330000D03*
X85090000Y-102870000D03*
X85090000Y-100330000D03*
X87630000Y-102870000D03*
X86360000Y-104140000D03*
X87630000Y-100330000D03*
X86360000Y-99060000D03*
X91440000Y-101600000D03*
X88900000Y-99060000D03*
X86360000Y-101600000D03*
X88900000Y-101600000D03*
X86360000Y-114300000D03*
X85090000Y-113030000D03*
X92710000Y-110490000D03*
X87630000Y-113030000D03*
X90170000Y-110490000D03*
X87630000Y-110490000D03*
X91440000Y-109220000D03*
X88900000Y-114300000D03*
X88900000Y-109220000D03*
X91440000Y-111760000D03*
X86360000Y-111760000D03*
X88900000Y-111760000D03*
X85090000Y-123190000D03*
X92710000Y-120650000D03*
X87630000Y-123190000D03*
X87630000Y-120650000D03*
X90170000Y-120650000D03*
X88900000Y-124460000D03*
X86360000Y-124460000D03*
X86360000Y-119380000D03*
X91440000Y-121920000D03*
X91440000Y-119380000D03*
X88900000Y-119380000D03*
X86360000Y-129540000D03*
X85090000Y-133350000D03*
X85090000Y-130810000D03*
X87630000Y-130810000D03*
X90170000Y-130810000D03*
X87630000Y-133350000D03*
X91440000Y-129540000D03*
X88900000Y-129540000D03*
X86360000Y-134620000D03*
X88900000Y-134620000D03*
X86360000Y-132080000D03*
X88900000Y-132080000D03*
X138430000Y-129540000D03*
X142240000Y-133350000D03*
X138430000Y-137160000D03*
X138430000Y-133350000D03*
X142240000Y-137160000D03*
X146050000Y-137160000D03*
X146050000Y-129540000D03*
X142240000Y-129540000D03*
X146050000Y-133350000D03*
X140335000Y-131445000D03*
X140335000Y-135255000D03*
X144145000Y-135255000D03*
X144145000Y-131445000D03*
X142240000Y-133350000D03*
X158750000Y-123190000D03*
X161290000Y-120650000D03*
X166370000Y-123190000D03*
X166370000Y-120650000D03*
X163830000Y-123190000D03*
X163830000Y-120650000D03*
X165100000Y-124460000D03*
X165100000Y-121920000D03*
X160020000Y-119380000D03*
X162560000Y-119380000D03*
X165100000Y-119380000D03*
X127762000Y-108077000D03*
X131318000Y-108839000D03*
X158750000Y-113030000D03*
X158750000Y-110490000D03*
X161290000Y-110490000D03*
X160020000Y-109220000D03*
X162560000Y-109220000D03*
X163830000Y-113030000D03*
X163830000Y-110490000D03*
X166370000Y-113030000D03*
X166370000Y-110490000D03*
X165100000Y-114300000D03*
X165100000Y-111760000D03*
X165100000Y-109220000D03*
X158750000Y-102870000D03*
X158750000Y-100330000D03*
X161290000Y-100330000D03*
X160020000Y-99060000D03*
X166370000Y-102870000D03*
X166370000Y-100330000D03*
X163830000Y-102870000D03*
X165100000Y-104140000D03*
X163830000Y-100330000D03*
X165100000Y-101600000D03*
X162560000Y-99060000D03*
X165100000Y-99060000D03*
X151003000Y-97028000D03*
X123063000Y-103124000D03*
X158750000Y-90170000D03*
X158750000Y-92710000D03*
X161290000Y-90170000D03*
X162560000Y-88900000D03*
X163830000Y-92710000D03*
X163830000Y-90170000D03*
X166370000Y-92710000D03*
X166370000Y-90170000D03*
X165100000Y-93980000D03*
X165100000Y-91440000D03*
X165100000Y-88900000D03*
X90170000Y-90170000D03*
X87630000Y-90170000D03*
X87630000Y-92710000D03*
X86360000Y-93980000D03*
X86360000Y-88900000D03*
X91440000Y-88900000D03*
X91440000Y-91440000D03*
X88900000Y-88900000D03*
X86360000Y-91440000D03*
X88900000Y-93980000D03*
X88900000Y-91440000D03*
X95377000Y-73406000D03*
X102616000Y-81534000D03*
X92202000Y-80772000D03*
D20*
X150749000Y-98552000D02*
X153289000Y-96012000D01*
X147447000Y-98552000D02*
X150749000Y-98552000D01*
X146431000Y-99568000D02*
X147447000Y-98552000D01*
X137033000Y-99568000D02*
X146431000Y-99568000D01*
X136779000Y-99822000D02*
X137033000Y-99568000D01*
X132969000Y-99822000D02*
X136779000Y-99822000D01*
X131836199Y-100954801D02*
X132969000Y-99822000D01*
X131582199Y-100954801D02*
X131836199Y-100954801D01*
X130683000Y-101854000D02*
X131582199Y-100954801D01*
X130683000Y-102616000D02*
X130683000Y-101854000D01*
X130429000Y-102870000D02*
X130683000Y-102616000D01*
X132280000Y-93345000D02*
X134112000Y-93345000D01*
X134112000Y-93345000D02*
X133985000Y-93218000D01*
X154935000Y-88900000D02*
X154935000Y-85085000D01*
X154935000Y-85085000D02*
X154305000Y-84455000D01*
X135509000Y-87630000D02*
X135509000Y-87122000D01*
X134493000Y-88646000D02*
X135509000Y-87630000D01*
X104394000Y-78486000D02*
X104394000Y-78359000D01*
X104394000Y-78359000D02*
X106807000Y-75946000D01*
X140589000Y-91694000D02*
X140589000Y-81026000D01*
X137033000Y-68834000D02*
X110617000Y-68834000D01*
X139573000Y-71374000D02*
X137033000Y-68834000D01*
X139573000Y-80010000D02*
X139573000Y-71374000D01*
X140589000Y-81026000D02*
X139573000Y-80010000D01*
X140589000Y-92202000D02*
X140589000Y-91694000D01*
X137287000Y-95504000D02*
X140589000Y-92202000D01*
X133731000Y-95504000D02*
X137287000Y-95504000D01*
X132969000Y-96266000D02*
X133731000Y-95504000D01*
X129921000Y-96266000D02*
X132969000Y-96266000D01*
X138049000Y-102362000D02*
X138049000Y-100838000D01*
X140589000Y-104902000D02*
X138049000Y-102362000D01*
X103632000Y-79248000D02*
X91948000Y-79248000D01*
X104394000Y-78486000D02*
X103632000Y-79248000D01*
X91694000Y-79248000D02*
X91948000Y-79248000D01*
X90932000Y-78486000D02*
X91694000Y-79248000D01*
X90932000Y-70866000D02*
X90932000Y-78486000D01*
X147447000Y-69596000D02*
X139319000Y-69596000D01*
X148717000Y-70866000D02*
X147447000Y-69596000D01*
X148717000Y-81280000D02*
X148717000Y-70866000D01*
X147447000Y-82550000D02*
X148717000Y-81280000D01*
X147447000Y-93726000D02*
X147447000Y-82550000D01*
X144653000Y-96520000D02*
X147447000Y-93726000D01*
X137033000Y-103378000D02*
X138049000Y-103378000D01*
X136525000Y-102870000D02*
X137033000Y-103378000D01*
X105410000Y-100965000D02*
X103505000Y-99060000D01*
X103505000Y-99060000D02*
X103505000Y-96520000D01*
X105410000Y-111125000D02*
X105410000Y-107950000D01*
X106680000Y-127635000D02*
X104775000Y-129540000D01*
X104775000Y-129540000D02*
X104775000Y-132080000D01*
X121920000Y-119380000D02*
X120015000Y-121285000D01*
X130175000Y-107950000D02*
X128905000Y-107950000D01*
X127762000Y-107061000D02*
X128016000Y-107315000D01*
X128016000Y-107315000D02*
X132080000Y-107315000D01*
X128270000Y-109855000D02*
X136906000Y-109855000D01*
X126746000Y-108331000D02*
X128270000Y-109855000D01*
X126746000Y-106807000D02*
X126746000Y-108331000D01*
X127000000Y-106553000D02*
X126746000Y-106807000D01*
X149860000Y-111125000D02*
X153035000Y-111125000D01*
X144145000Y-116840000D02*
X149860000Y-111125000D01*
X132229998Y-116840000D02*
X144145000Y-116840000D01*
X128741998Y-111760000D02*
X128741998Y-113352000D01*
X128741998Y-113352000D02*
X132229998Y-116840000D01*
X125984000Y-106553000D02*
X126295990Y-106864990D01*
X126295990Y-106864990D02*
X126295990Y-109313992D01*
X126295990Y-109313992D02*
X128741998Y-111760000D01*
X146050000Y-102743000D02*
X149352000Y-102743000D01*
X138176000Y-110617000D02*
X146050000Y-102743000D01*
X128524000Y-110617000D02*
X138176000Y-110617000D01*
X106055000Y-90160000D02*
X106045000Y-90170000D01*
X106728760Y-90160000D02*
X106055000Y-90160000D01*
X106728760Y-90160000D02*
X108575000Y-90160000D01*
X108575000Y-90160000D02*
X108585000Y-90170000D01*
X132280000Y-101273000D02*
X132280000Y-103505000D01*
X133223000Y-100330000D02*
X132280000Y-101273000D01*
X137033000Y-100330000D02*
X133223000Y-100330000D01*
X137287000Y-100076000D02*
X137033000Y-100330000D01*
X146685000Y-100076000D02*
X137287000Y-100076000D01*
X147701000Y-99060000D02*
X146685000Y-100076000D01*
X154935000Y-99060000D02*
X147701000Y-99060000D01*
X154935000Y-99060000D02*
X154935000Y-96134000D01*
X148971000Y-91440000D02*
X148971000Y-87884000D01*
X152781000Y-95250000D02*
X148971000Y-91440000D01*
X154051000Y-95250000D02*
X152781000Y-95250000D01*
X154935000Y-96134000D02*
X154051000Y-95250000D01*
X158369000Y-97028000D02*
X156337000Y-99060000D01*
X156337000Y-99060000D02*
X154935000Y-99060000D01*
X96525000Y-99060000D02*
X101727000Y-99060000D01*
X101727000Y-109220000D02*
X96525000Y-109220000D01*
X96525000Y-119380000D02*
X100965000Y-119380000D01*
X100965000Y-119380000D02*
X101727000Y-120142000D01*
X96525000Y-129540000D02*
X101727000Y-129540000D01*
X156845000Y-136525000D02*
X151130000Y-130810000D01*
X151130000Y-130810000D02*
X149865000Y-130810000D01*
X149865000Y-130810000D02*
X150945000Y-130810000D01*
X153035000Y-124460000D02*
X154935000Y-124460000D01*
X157480000Y-125730000D02*
X156210000Y-124460000D01*
X156210000Y-124460000D02*
X154935000Y-124460000D01*
X156337000Y-124460000D02*
X154935000Y-124460000D01*
X157480000Y-115570000D02*
X156210000Y-114300000D01*
X156210000Y-114300000D02*
X154935000Y-114300000D01*
X156337000Y-114300000D02*
X154935000Y-114300000D01*
X157480000Y-102870000D02*
X156210000Y-104140000D01*
X156210000Y-104140000D02*
X154935000Y-104140000D01*
X154305000Y-106045000D02*
X154305000Y-104770000D01*
X154305000Y-104770000D02*
X154935000Y-104140000D01*
X131826000Y-105791000D02*
X132334000Y-106299000D01*
X126746000Y-105791000D02*
X131826000Y-105791000D01*
X156591000Y-104140000D02*
X154935000Y-104140000D01*
X154940000Y-91503000D02*
X154940000Y-93975000D01*
X154940000Y-93975000D02*
X154935000Y-93980000D01*
X156591000Y-93980000D02*
X154935000Y-93980000D01*
X101727000Y-88900000D02*
X96525000Y-88900000D01*
X125603000Y-84836000D02*
X130429000Y-84836000D01*
X124333000Y-86106000D02*
X125603000Y-84836000D01*
X96525000Y-93980000D02*
X96525000Y-96398000D01*
X96525000Y-96398000D02*
X96647000Y-96520000D01*
X96525000Y-106812000D02*
X96525000Y-104140000D01*
X96901000Y-107188000D02*
X96525000Y-106812000D01*
X96525000Y-114300000D02*
X96525000Y-117226000D01*
X96525000Y-117226000D02*
X96647000Y-117348000D01*
X96525000Y-126995000D02*
X96525000Y-124460000D01*
X96520000Y-127000000D02*
X96525000Y-126995000D01*
X94869000Y-133096000D02*
X96393000Y-134620000D01*
X96393000Y-134620000D02*
X96525000Y-134620000D01*
X148400000Y-138430000D02*
X137865000Y-138430000D01*
X137865000Y-138430000D02*
X133420000Y-133985000D01*
X133420000Y-133985000D02*
X132280000Y-133985000D01*
X149865000Y-135890000D02*
X149865000Y-136965000D01*
X149865000Y-136965000D02*
X148400000Y-138430000D01*
X160537999Y-137277001D02*
X161925000Y-135890000D01*
X161925000Y-135890000D02*
X161925000Y-130175000D01*
X149865000Y-135890000D02*
X152020000Y-135890000D01*
X152020000Y-135890000D02*
X153407001Y-137277001D01*
X153407001Y-137277001D02*
X160537999Y-137277001D01*
X154935000Y-119380000D02*
X155829000Y-119380000D01*
X155829000Y-119380000D02*
X157861000Y-117348000D01*
X132280000Y-123825000D02*
X139700000Y-123825000D01*
X144145000Y-119380000D02*
X154935000Y-119380000D01*
X139700000Y-123825000D02*
X144145000Y-119380000D01*
X154935000Y-109220000D02*
X155575000Y-109220000D01*
X155575000Y-109220000D02*
X158115000Y-106680000D01*
X132280000Y-113665000D02*
X139700000Y-113665000D01*
X144145000Y-109220000D02*
X154935000Y-109220000D01*
X139700000Y-113665000D02*
X144145000Y-109220000D01*
X87630000Y-69215000D02*
X87630000Y-78105000D01*
X87630000Y-78105000D02*
X83820000Y-81915000D01*
X83820000Y-81915000D02*
X83820000Y-104600000D01*
X83820000Y-104600000D02*
X81740000Y-106680000D01*
X86115999Y-70094001D02*
X86360000Y-69850000D01*
X86115999Y-71120001D02*
X86115999Y-70094001D01*
X86115999Y-71120001D02*
X86115999Y-74539001D01*
X86115999Y-74539001D02*
X83185000Y-77470000D01*
X83185000Y-77470000D02*
X83185000Y-102235000D01*
X83185000Y-102235000D02*
X81740000Y-103680000D01*
X118745000Y-77275000D02*
X125154000Y-77275000D01*
X125154000Y-77275000D02*
X126365000Y-78486000D01*
X116245000Y-77275000D02*
X116245000Y-76795000D01*
X116245000Y-76795000D02*
X117638002Y-75401998D01*
X129068002Y-78740000D02*
X135255000Y-78740000D01*
X117638002Y-75401998D02*
X125730000Y-75401998D01*
X125730000Y-75401998D02*
X129068002Y-78740000D01*
X111125000Y-81915000D02*
X112519442Y-80520558D01*
X112519442Y-80520558D02*
X113789442Y-80520558D01*
X110490000Y-118110000D02*
X110490000Y-82550000D01*
X110490000Y-82550000D02*
X111125000Y-81915000D01*
X111587002Y-119207002D02*
X110490000Y-118110000D01*
X112395000Y-119207002D02*
X111587002Y-119207002D01*
X114935000Y-117280000D02*
X114322002Y-117280000D01*
X114322002Y-117280000D02*
X112395000Y-119207002D01*
X113030000Y-81280000D02*
X115570000Y-81280000D01*
X112435000Y-81875000D02*
X113030000Y-81280000D01*
X112435000Y-91400000D02*
X112435000Y-81875000D01*
X112435000Y-117280000D02*
X112435000Y-91400000D01*
X133731000Y-101092000D02*
X133985000Y-101346000D01*
X133985000Y-101346000D02*
X133985000Y-106172000D01*
X133985000Y-106172000D02*
X134747000Y-106934000D01*
X92456000Y-78232000D02*
X100711000Y-78232000D01*
X100711000Y-78232000D02*
X103505000Y-75438000D01*
X92456000Y-71628000D02*
X92456000Y-78232000D01*
X117983000Y-82042000D02*
X117983000Y-83058000D01*
X117983000Y-83058000D02*
X117475000Y-83566000D01*
X127946998Y-90678000D02*
X128651000Y-91382002D01*
X117475000Y-83566000D02*
X117475000Y-85090000D01*
X132207000Y-97028000D02*
X133731000Y-98552000D01*
X117475000Y-85090000D02*
X123063000Y-90678000D01*
X128905000Y-96774000D02*
X129159000Y-97028000D01*
X123063000Y-90678000D02*
X127946998Y-90678000D01*
X128651000Y-91382002D02*
X128651000Y-93980000D01*
X128651000Y-93980000D02*
X128905000Y-94234000D01*
X128905000Y-94234000D02*
X128905000Y-96774000D01*
X129159000Y-97028000D02*
X132207000Y-97028000D01*
X134747000Y-102108000D02*
X137033000Y-104394000D01*
X137033000Y-104394000D02*
X137033000Y-104902000D01*
X91948000Y-70866000D02*
X100965000Y-70866000D01*
X103505000Y-68326000D02*
X104013000Y-68326000D01*
X100965000Y-70866000D02*
X103505000Y-68326000D01*
X91440000Y-76962000D02*
X91694000Y-77216000D01*
X91440000Y-71374000D02*
X91440000Y-76962000D01*
X91948000Y-70866000D02*
X91440000Y-71374000D01*
X129413000Y-88646000D02*
X133223000Y-84836000D01*
X129413000Y-93472000D02*
X129413000Y-88646000D01*
X129667000Y-93726000D02*
X129413000Y-93472000D01*
X130683000Y-93726000D02*
X129667000Y-93726000D01*
X135001000Y-89662000D02*
X135001000Y-89408000D01*
X109855000Y-79756000D02*
X107315000Y-77216000D01*
X135509000Y-79756000D02*
X109855000Y-79756000D01*
X137033000Y-81280000D02*
X135509000Y-79756000D01*
X137033000Y-87376000D02*
X137033000Y-81280000D01*
X135001000Y-89408000D02*
X137033000Y-87376000D01*
X135001000Y-89662000D02*
X137033000Y-91694000D01*
X137033000Y-91694000D02*
X137033000Y-93726000D01*
X139573000Y-94488000D02*
X146431000Y-87630000D01*
X146431000Y-87630000D02*
X146431000Y-81280000D01*
X139827000Y-92202000D02*
X139827000Y-86614000D01*
X137541000Y-94488000D02*
X139827000Y-92202000D01*
X136525000Y-94488000D02*
X137541000Y-94488000D01*
X135763000Y-93726000D02*
X136525000Y-94488000D01*
X135001000Y-93726000D02*
X135763000Y-93726000D01*
X130683000Y-90678000D02*
X130683000Y-92202000D01*
X134239000Y-87122000D02*
X130683000Y-90678000D01*
X134239000Y-83058000D02*
X134239000Y-87122000D01*
X132207000Y-81026000D02*
X134239000Y-83058000D01*
X133731000Y-88900000D02*
X133731000Y-88392000D01*
X133731000Y-88392000D02*
X134747000Y-87376000D01*
X134747000Y-87376000D02*
X134747000Y-83820000D01*
X134747000Y-83820000D02*
X136271000Y-82296000D01*
X128524000Y-108839000D02*
X131318000Y-108839000D01*
X127762000Y-108077000D02*
X128524000Y-108839000D01*
X148209000Y-97028000D02*
X151003000Y-97028000D01*
X146177000Y-99060000D02*
X148209000Y-97028000D01*
X136525000Y-99060000D02*
X146177000Y-99060000D01*
X136213002Y-99371998D02*
X136525000Y-99060000D01*
X130486998Y-99371998D02*
X136213002Y-99371998D01*
X130175000Y-99060000D02*
X130486998Y-99371998D01*
X125603000Y-99060000D02*
X130175000Y-99060000D01*
X123063000Y-101600000D02*
X125603000Y-99060000D01*
X123063000Y-103124000D02*
X123063000Y-101600000D01*
X90805000Y-90170000D02*
X89535000Y-91440000D01*
X92964000Y-81534000D02*
X102616000Y-81534000D01*
X92202000Y-80772000D02*
X92964000Y-81534000D01*
X76835000Y-134620000D02*
X76835000Y-126190000D01*
X76835000Y-126190000D02*
X78740000Y-124285000D01*
X81915000Y-139700000D02*
X76835000Y-134620000D01*
X108585000Y-139700000D02*
X81915000Y-139700000D01*
X114300000Y-133985000D02*
X108585000Y-139700000D01*
X127000000Y-133985000D02*
X114300000Y-133985000D01*
X77470000Y-133985000D02*
X77470000Y-128555000D01*
X77470000Y-128555000D02*
X78740000Y-127285000D01*
X82550000Y-139065000D02*
X77470000Y-133985000D01*
X127000000Y-123825000D02*
X123190000Y-123825000D01*
X107950000Y-139065000D02*
X82550000Y-139065000D01*
X123190000Y-123825000D02*
X107950000Y-139065000D01*
X83185000Y-138430000D02*
X78740000Y-133985000D01*
X78740000Y-133985000D02*
X78740000Y-130285000D01*
X127000000Y-113665000D02*
X121920000Y-113665000D01*
X107315000Y-138430000D02*
X83185000Y-138430000D01*
X119380000Y-126365000D02*
X107315000Y-138430000D01*
X119380000Y-116205000D02*
X119380000Y-126365000D01*
X121920000Y-113665000D02*
X119380000Y-116205000D01*
X80645000Y-134620000D02*
X80645000Y-128380000D01*
X80645000Y-128380000D02*
X81740000Y-127285000D01*
X83820000Y-137795000D02*
X80645000Y-134620000D01*
X127000000Y-103505000D02*
X126365000Y-103505000D01*
X126365000Y-103505000D02*
X118745000Y-111125000D01*
X118745000Y-111125000D02*
X118745000Y-125730000D01*
X118745000Y-125730000D02*
X106680000Y-137795000D01*
X106680000Y-137795000D02*
X83820000Y-137795000D01*
X81740000Y-130285000D02*
X81740000Y-134445000D01*
X81740000Y-134445000D02*
X84455000Y-137160000D01*
X127000000Y-93345000D02*
X118110000Y-102235000D01*
X118110000Y-102235000D02*
X118110000Y-125095000D01*
X118110000Y-125095000D02*
X106045000Y-137160000D01*
X106045000Y-137160000D02*
X84455000Y-137160000D01*
M02*
