G04 #@! TF.FileFunction,Legend,Top*
%FSLAX46Y46*%
G04 Gerber Fmt 4.6, Leading zero omitted, Abs format (unit mm)*
G04 Created by KiCad (PCBNEW 4.0.7-e2-6376~58~ubuntu14.04.1) date Mon Jan 15 16:35:31 2018*
%MOMM*%
%LPD*%
G01*
G04 APERTURE LIST*
%ADD10C,0.100000*%
%ADD11C,0.300000*%
%ADD12C,0.120000*%
%ADD13C,0.150000*%
G04 APERTURE END LIST*
D10*
D11*
X133977857Y-136568571D02*
X133977857Y-135068571D01*
X134835000Y-136568571D01*
X134835000Y-135068571D01*
X135763572Y-136568571D02*
X135620714Y-136497143D01*
X135549286Y-136425714D01*
X135477857Y-136282857D01*
X135477857Y-135854286D01*
X135549286Y-135711429D01*
X135620714Y-135640000D01*
X135763572Y-135568571D01*
X135977857Y-135568571D01*
X136120714Y-135640000D01*
X136192143Y-135711429D01*
X136263572Y-135854286D01*
X136263572Y-136282857D01*
X136192143Y-136425714D01*
X136120714Y-136497143D01*
X135977857Y-136568571D01*
X135763572Y-136568571D01*
X137549286Y-136568571D02*
X137549286Y-135782857D01*
X137477857Y-135640000D01*
X137335000Y-135568571D01*
X137049286Y-135568571D01*
X136906429Y-135640000D01*
X137549286Y-136497143D02*
X137406429Y-136568571D01*
X137049286Y-136568571D01*
X136906429Y-136497143D01*
X136835000Y-136354286D01*
X136835000Y-136211429D01*
X136906429Y-136068571D01*
X137049286Y-135997143D01*
X137406429Y-135997143D01*
X137549286Y-135925714D01*
X138263572Y-136568571D02*
X138263572Y-135068571D01*
X138906429Y-136568571D02*
X138906429Y-135782857D01*
X138835000Y-135640000D01*
X138692143Y-135568571D01*
X138477858Y-135568571D01*
X138335000Y-135640000D01*
X138263572Y-135711429D01*
X141620715Y-136568571D02*
X141120715Y-135854286D01*
X140763572Y-136568571D02*
X140763572Y-135068571D01*
X141335000Y-135068571D01*
X141477858Y-135140000D01*
X141549286Y-135211429D01*
X141620715Y-135354286D01*
X141620715Y-135568571D01*
X141549286Y-135711429D01*
X141477858Y-135782857D01*
X141335000Y-135854286D01*
X140763572Y-135854286D01*
X142263572Y-136568571D02*
X142263572Y-135568571D01*
X142263572Y-135068571D02*
X142192143Y-135140000D01*
X142263572Y-135211429D01*
X142335000Y-135140000D01*
X142263572Y-135068571D01*
X142263572Y-135211429D01*
X142835001Y-135568571D02*
X143192144Y-136568571D01*
X143549286Y-135568571D01*
X144120715Y-136568571D02*
X144120715Y-135068571D01*
X144263572Y-135997143D02*
X144692143Y-136568571D01*
X144692143Y-135568571D02*
X144120715Y-136140000D01*
X145335001Y-136568571D02*
X145335001Y-135568571D01*
X145335001Y-135068571D02*
X145263572Y-135140000D01*
X145335001Y-135211429D01*
X145406429Y-135140000D01*
X145335001Y-135068571D01*
X145335001Y-135211429D01*
X146049287Y-135568571D02*
X146049287Y-136568571D01*
X146049287Y-135711429D02*
X146120715Y-135640000D01*
X146263573Y-135568571D01*
X146477858Y-135568571D01*
X146620715Y-135640000D01*
X146692144Y-135782857D01*
X146692144Y-136568571D01*
X134419286Y-140148571D02*
X134705000Y-140148571D01*
X134847858Y-140220000D01*
X134990715Y-140362857D01*
X135062143Y-140648571D01*
X135062143Y-141148571D01*
X134990715Y-141434286D01*
X134847858Y-141577143D01*
X134705000Y-141648571D01*
X134419286Y-141648571D01*
X134276429Y-141577143D01*
X134133572Y-141434286D01*
X134062143Y-141148571D01*
X134062143Y-140648571D01*
X134133572Y-140362857D01*
X134276429Y-140220000D01*
X134419286Y-140148571D01*
X135919287Y-141648571D02*
X135776429Y-141577143D01*
X135705001Y-141434286D01*
X135705001Y-140148571D01*
X136490715Y-141648571D02*
X136490715Y-140648571D01*
X136490715Y-140148571D02*
X136419286Y-140220000D01*
X136490715Y-140291429D01*
X136562143Y-140220000D01*
X136490715Y-140148571D01*
X136490715Y-140291429D01*
X137205001Y-140648571D02*
X137205001Y-141648571D01*
X137205001Y-140791429D02*
X137276429Y-140720000D01*
X137419287Y-140648571D01*
X137633572Y-140648571D01*
X137776429Y-140720000D01*
X137847858Y-140862857D01*
X137847858Y-141648571D01*
X139705001Y-140862857D02*
X140205001Y-140862857D01*
X140419287Y-141648571D02*
X139705001Y-141648571D01*
X139705001Y-140148571D01*
X140419287Y-140148571D01*
X141276430Y-141648571D02*
X141133572Y-141577143D01*
X141062144Y-141434286D01*
X141062144Y-140148571D01*
X142419286Y-141577143D02*
X142276429Y-141648571D01*
X141990715Y-141648571D01*
X141847858Y-141577143D01*
X141776429Y-141434286D01*
X141776429Y-140862857D01*
X141847858Y-140720000D01*
X141990715Y-140648571D01*
X142276429Y-140648571D01*
X142419286Y-140720000D01*
X142490715Y-140862857D01*
X142490715Y-141005714D01*
X141776429Y-141148571D01*
X143776429Y-141577143D02*
X143633572Y-141648571D01*
X143347858Y-141648571D01*
X143205000Y-141577143D01*
X143133572Y-141505714D01*
X143062143Y-141362857D01*
X143062143Y-140934286D01*
X143133572Y-140791429D01*
X143205000Y-140720000D01*
X143347858Y-140648571D01*
X143633572Y-140648571D01*
X143776429Y-140720000D01*
X144205000Y-140648571D02*
X144776429Y-140648571D01*
X144419286Y-140148571D02*
X144419286Y-141434286D01*
X144490714Y-141577143D01*
X144633572Y-141648571D01*
X144776429Y-141648571D01*
X145276429Y-141648571D02*
X145276429Y-140648571D01*
X145276429Y-140934286D02*
X145347857Y-140791429D01*
X145419286Y-140720000D01*
X145562143Y-140648571D01*
X145705000Y-140648571D01*
X146205000Y-141648571D02*
X146205000Y-140648571D01*
X146205000Y-140148571D02*
X146133571Y-140220000D01*
X146205000Y-140291429D01*
X146276428Y-140220000D01*
X146205000Y-140148571D01*
X146205000Y-140291429D01*
X147562143Y-141577143D02*
X147419286Y-141648571D01*
X147133572Y-141648571D01*
X146990714Y-141577143D01*
X146919286Y-141505714D01*
X146847857Y-141362857D01*
X146847857Y-140934286D01*
X146919286Y-140791429D01*
X146990714Y-140720000D01*
X147133572Y-140648571D01*
X147419286Y-140648571D01*
X147562143Y-140720000D01*
X149347857Y-141648571D02*
X149347857Y-140148571D01*
X149847857Y-141220000D01*
X150347857Y-140148571D01*
X150347857Y-141648571D01*
X151276429Y-141648571D02*
X151133571Y-141577143D01*
X151062143Y-141505714D01*
X150990714Y-141362857D01*
X150990714Y-140934286D01*
X151062143Y-140791429D01*
X151133571Y-140720000D01*
X151276429Y-140648571D01*
X151490714Y-140648571D01*
X151633571Y-140720000D01*
X151705000Y-140791429D01*
X151776429Y-140934286D01*
X151776429Y-141362857D01*
X151705000Y-141505714D01*
X151633571Y-141577143D01*
X151490714Y-141648571D01*
X151276429Y-141648571D01*
X152205000Y-140648571D02*
X152776429Y-140648571D01*
X152419286Y-140148571D02*
X152419286Y-141434286D01*
X152490714Y-141577143D01*
X152633572Y-141648571D01*
X152776429Y-141648571D01*
X153490715Y-141648571D02*
X153347857Y-141577143D01*
X153276429Y-141505714D01*
X153205000Y-141362857D01*
X153205000Y-140934286D01*
X153276429Y-140791429D01*
X153347857Y-140720000D01*
X153490715Y-140648571D01*
X153705000Y-140648571D01*
X153847857Y-140720000D01*
X153919286Y-140791429D01*
X153990715Y-140934286D01*
X153990715Y-141362857D01*
X153919286Y-141505714D01*
X153847857Y-141577143D01*
X153705000Y-141648571D01*
X153490715Y-141648571D01*
X154633572Y-141648571D02*
X154633572Y-140648571D01*
X154633572Y-140934286D02*
X154705000Y-140791429D01*
X154776429Y-140720000D01*
X154919286Y-140648571D01*
X155062143Y-140648571D01*
X155490714Y-141577143D02*
X155633571Y-141648571D01*
X155919286Y-141648571D01*
X156062143Y-141577143D01*
X156133571Y-141434286D01*
X156133571Y-141362857D01*
X156062143Y-141220000D01*
X155919286Y-141148571D01*
X155705000Y-141148571D01*
X155562143Y-141077143D01*
X155490714Y-140934286D01*
X155490714Y-140862857D01*
X155562143Y-140720000D01*
X155705000Y-140648571D01*
X155919286Y-140648571D01*
X156062143Y-140720000D01*
X156776429Y-140648571D02*
X156776429Y-142148571D01*
X156776429Y-140720000D02*
X156919286Y-140648571D01*
X157205000Y-140648571D01*
X157347857Y-140720000D01*
X157419286Y-140791429D01*
X157490715Y-140934286D01*
X157490715Y-141362857D01*
X157419286Y-141505714D01*
X157347857Y-141577143D01*
X157205000Y-141648571D01*
X156919286Y-141648571D01*
X156776429Y-141577143D01*
X158347858Y-141648571D02*
X158205000Y-141577143D01*
X158133572Y-141505714D01*
X158062143Y-141362857D01*
X158062143Y-140934286D01*
X158133572Y-140791429D01*
X158205000Y-140720000D01*
X158347858Y-140648571D01*
X158562143Y-140648571D01*
X158705000Y-140720000D01*
X158776429Y-140791429D01*
X158847858Y-140934286D01*
X158847858Y-141362857D01*
X158776429Y-141505714D01*
X158705000Y-141577143D01*
X158562143Y-141648571D01*
X158347858Y-141648571D01*
X159490715Y-141648571D02*
X159490715Y-140648571D01*
X159490715Y-140934286D02*
X159562143Y-140791429D01*
X159633572Y-140720000D01*
X159776429Y-140648571D01*
X159919286Y-140648571D01*
X160205000Y-140648571D02*
X160776429Y-140648571D01*
X160419286Y-140148571D02*
X160419286Y-141434286D01*
X160490714Y-141577143D01*
X160633572Y-141648571D01*
X160776429Y-141648571D01*
X161205000Y-141577143D02*
X161347857Y-141648571D01*
X161633572Y-141648571D01*
X161776429Y-141577143D01*
X161847857Y-141434286D01*
X161847857Y-141362857D01*
X161776429Y-141220000D01*
X161633572Y-141148571D01*
X161419286Y-141148571D01*
X161276429Y-141077143D01*
X161205000Y-140934286D01*
X161205000Y-140862857D01*
X161276429Y-140720000D01*
X161419286Y-140648571D01*
X161633572Y-140648571D01*
X161776429Y-140720000D01*
X134652859Y-138322857D02*
X134867145Y-138394286D01*
X134938573Y-138465714D01*
X135010002Y-138608571D01*
X135010002Y-138822857D01*
X134938573Y-138965714D01*
X134867145Y-139037143D01*
X134724287Y-139108571D01*
X134152859Y-139108571D01*
X134152859Y-137608571D01*
X134652859Y-137608571D01*
X134795716Y-137680000D01*
X134867145Y-137751429D01*
X134938573Y-137894286D01*
X134938573Y-138037143D01*
X134867145Y-138180000D01*
X134795716Y-138251429D01*
X134652859Y-138322857D01*
X134152859Y-138322857D01*
X135652859Y-139108571D02*
X135652859Y-137608571D01*
X136152859Y-138680000D01*
X136652859Y-137608571D01*
X136652859Y-139108571D01*
X137295716Y-139037143D02*
X137510002Y-139108571D01*
X137867145Y-139108571D01*
X138010002Y-139037143D01*
X138081431Y-138965714D01*
X138152859Y-138822857D01*
X138152859Y-138680000D01*
X138081431Y-138537143D01*
X138010002Y-138465714D01*
X137867145Y-138394286D01*
X137581431Y-138322857D01*
X137438573Y-138251429D01*
X137367145Y-138180000D01*
X137295716Y-138037143D01*
X137295716Y-137894286D01*
X137367145Y-137751429D01*
X137438573Y-137680000D01*
X137581431Y-137608571D01*
X137938573Y-137608571D01*
X138152859Y-137680000D01*
X139867144Y-139037143D02*
X140081430Y-139108571D01*
X140438573Y-139108571D01*
X140581430Y-139037143D01*
X140652859Y-138965714D01*
X140724287Y-138822857D01*
X140724287Y-138680000D01*
X140652859Y-138537143D01*
X140581430Y-138465714D01*
X140438573Y-138394286D01*
X140152859Y-138322857D01*
X140010001Y-138251429D01*
X139938573Y-138180000D01*
X139867144Y-138037143D01*
X139867144Y-137894286D01*
X139938573Y-137751429D01*
X140010001Y-137680000D01*
X140152859Y-137608571D01*
X140510001Y-137608571D01*
X140724287Y-137680000D01*
X141581430Y-139108571D02*
X141438572Y-139037143D01*
X141367144Y-138894286D01*
X141367144Y-137608571D01*
X142795715Y-139108571D02*
X142795715Y-138322857D01*
X142724286Y-138180000D01*
X142581429Y-138108571D01*
X142295715Y-138108571D01*
X142152858Y-138180000D01*
X142795715Y-139037143D02*
X142652858Y-139108571D01*
X142295715Y-139108571D01*
X142152858Y-139037143D01*
X142081429Y-138894286D01*
X142081429Y-138751429D01*
X142152858Y-138608571D01*
X142295715Y-138537143D01*
X142652858Y-138537143D01*
X142795715Y-138465714D01*
X143367144Y-138108571D02*
X143724287Y-139108571D01*
X144081429Y-138108571D01*
X145224286Y-139037143D02*
X145081429Y-139108571D01*
X144795715Y-139108571D01*
X144652858Y-139037143D01*
X144581429Y-138894286D01*
X144581429Y-138322857D01*
X144652858Y-138180000D01*
X144795715Y-138108571D01*
X145081429Y-138108571D01*
X145224286Y-138180000D01*
X145295715Y-138322857D01*
X145295715Y-138465714D01*
X144581429Y-138608571D01*
X147938572Y-139108571D02*
X147438572Y-138394286D01*
X147081429Y-139108571D02*
X147081429Y-137608571D01*
X147652857Y-137608571D01*
X147795715Y-137680000D01*
X147867143Y-137751429D01*
X147938572Y-137894286D01*
X147938572Y-138108571D01*
X147867143Y-138251429D01*
X147795715Y-138322857D01*
X147652857Y-138394286D01*
X147081429Y-138394286D01*
X149152857Y-139037143D02*
X149010000Y-139108571D01*
X148724286Y-139108571D01*
X148581429Y-139037143D01*
X148510000Y-138894286D01*
X148510000Y-138322857D01*
X148581429Y-138180000D01*
X148724286Y-138108571D01*
X149010000Y-138108571D01*
X149152857Y-138180000D01*
X149224286Y-138322857D01*
X149224286Y-138465714D01*
X148510000Y-138608571D01*
X149724286Y-138108571D02*
X150081429Y-139108571D01*
X150438571Y-138108571D01*
X152938571Y-139108571D02*
X152081428Y-139108571D01*
X152510000Y-139108571D02*
X152510000Y-137608571D01*
X152367143Y-137822857D01*
X152224285Y-137965714D01*
X152081428Y-138037143D01*
D12*
X70375000Y-111810000D02*
X83725000Y-111810000D01*
X83725000Y-111810000D02*
X83725000Y-134810000D01*
X83725000Y-134810000D02*
X70375000Y-134810000D01*
X70375000Y-134810000D02*
X70375000Y-111810000D01*
X70375000Y-75680000D02*
X83725000Y-75680000D01*
X83725000Y-75680000D02*
X83725000Y-110680000D01*
X83725000Y-110680000D02*
X70375000Y-110680000D01*
X70375000Y-110680000D02*
X70375000Y-75680000D01*
X142756000Y-79590000D02*
X143756000Y-79590000D01*
X143756000Y-77890000D02*
X142756000Y-77890000D01*
X142756000Y-73240000D02*
X143756000Y-73240000D01*
X143756000Y-71540000D02*
X142756000Y-71540000D01*
X169407000Y-80934000D02*
X160647000Y-80934000D01*
X160647000Y-80934000D02*
X160647000Y-87174000D01*
X160647000Y-87174000D02*
X169407000Y-87174000D01*
X169407000Y-87174000D02*
X169407000Y-80934000D01*
X160647000Y-82654000D02*
X160177000Y-82654000D01*
X160177000Y-82654000D02*
X160177000Y-82954000D01*
X160177000Y-82954000D02*
X160647000Y-82954000D01*
X160647000Y-82954000D02*
X160647000Y-82654000D01*
X160647000Y-85154000D02*
X160177000Y-85154000D01*
X160177000Y-85154000D02*
X160177000Y-85454000D01*
X160177000Y-85454000D02*
X160647000Y-85454000D01*
X160647000Y-85454000D02*
X160647000Y-85154000D01*
X158877000Y-81404000D02*
X158577000Y-80804000D01*
X158577000Y-80804000D02*
X159177000Y-80804000D01*
X159177000Y-80804000D02*
X158877000Y-81404000D01*
X169407000Y-73822000D02*
X160647000Y-73822000D01*
X160647000Y-73822000D02*
X160647000Y-80062000D01*
X160647000Y-80062000D02*
X169407000Y-80062000D01*
X169407000Y-80062000D02*
X169407000Y-73822000D01*
X160647000Y-75542000D02*
X160177000Y-75542000D01*
X160177000Y-75542000D02*
X160177000Y-75842000D01*
X160177000Y-75842000D02*
X160647000Y-75842000D01*
X160647000Y-75842000D02*
X160647000Y-75542000D01*
X160647000Y-78042000D02*
X160177000Y-78042000D01*
X160177000Y-78042000D02*
X160177000Y-78342000D01*
X160177000Y-78342000D02*
X160647000Y-78342000D01*
X160647000Y-78342000D02*
X160647000Y-78042000D01*
X158877000Y-74292000D02*
X158577000Y-73692000D01*
X158577000Y-73692000D02*
X159177000Y-73692000D01*
X159177000Y-73692000D02*
X158877000Y-74292000D01*
X98644000Y-69460000D02*
X97444000Y-69460000D01*
X97444000Y-67700000D02*
X98644000Y-67700000D01*
X102200000Y-70476000D02*
X101000000Y-70476000D01*
X101000000Y-68716000D02*
X102200000Y-68716000D01*
X98644000Y-72000000D02*
X97444000Y-72000000D01*
X97444000Y-70240000D02*
X98644000Y-70240000D01*
X102200000Y-73524000D02*
X101000000Y-73524000D01*
X101000000Y-71764000D02*
X102200000Y-71764000D01*
X98644000Y-74540000D02*
X97444000Y-74540000D01*
X97444000Y-72780000D02*
X98644000Y-72780000D01*
X97628000Y-77334000D02*
X96428000Y-77334000D01*
X96428000Y-75574000D02*
X97628000Y-75574000D01*
X100930000Y-78604000D02*
X99730000Y-78604000D01*
X99730000Y-76844000D02*
X100930000Y-76844000D01*
X97628000Y-79874000D02*
X96428000Y-79874000D01*
X96428000Y-78114000D02*
X97628000Y-78114000D01*
X100930000Y-81144000D02*
X99730000Y-81144000D01*
X99730000Y-79384000D02*
X100930000Y-79384000D01*
X97628000Y-82668000D02*
X96428000Y-82668000D01*
X96428000Y-80908000D02*
X97628000Y-80908000D01*
X107604000Y-79638000D02*
X108804000Y-79638000D01*
X108804000Y-81398000D02*
X107604000Y-81398000D01*
D13*
X89726000Y-69596000D02*
X90226000Y-69096000D01*
X90226000Y-69096000D02*
X92726000Y-69096000D01*
X92726000Y-69096000D02*
X92726000Y-69596000D01*
X92726000Y-74596000D02*
X92726000Y-69596000D01*
X92726000Y-74596000D02*
X89726000Y-74596000D01*
X89726000Y-74596000D02*
X89726000Y-69596000D01*
X89472000Y-76962000D02*
X89972000Y-76462000D01*
X89972000Y-76462000D02*
X92472000Y-76462000D01*
X92472000Y-76462000D02*
X92472000Y-76962000D01*
X92472000Y-81962000D02*
X92472000Y-76962000D01*
X92472000Y-81962000D02*
X89472000Y-81962000D01*
X89472000Y-81962000D02*
X89472000Y-76962000D01*
D12*
X103494000Y-81112000D02*
X105294000Y-81112000D01*
X105294000Y-77892000D02*
X102844000Y-77892000D01*
D13*
X153924000Y-68580000D02*
X153924000Y-82550000D01*
X147574000Y-82550000D02*
X147574000Y-68580000D01*
X153924000Y-82550000D02*
X147574000Y-82550000D01*
X147574000Y-68580000D02*
X153924000Y-68580000D01*
D12*
X137025000Y-111672000D02*
X136025000Y-111672000D01*
X136025000Y-113372000D02*
X137025000Y-113372000D01*
X126865000Y-82335000D02*
X125865000Y-82335000D01*
X125865000Y-84035000D02*
X126865000Y-84035000D01*
X137025000Y-84240000D02*
X136025000Y-84240000D01*
X136025000Y-85940000D02*
X137025000Y-85940000D01*
X128055000Y-88400000D02*
X128055000Y-89400000D01*
X129755000Y-89400000D02*
X129755000Y-88400000D01*
X109593000Y-73572000D02*
X108593000Y-73572000D01*
X108593000Y-75272000D02*
X109593000Y-75272000D01*
X142232000Y-92241000D02*
X141232000Y-92241000D01*
X141232000Y-93941000D02*
X142232000Y-93941000D01*
X135009000Y-78320000D02*
X136009000Y-78320000D01*
X136009000Y-76620000D02*
X135009000Y-76620000D01*
X128055000Y-84082000D02*
X128055000Y-85082000D01*
X129755000Y-85082000D02*
X129755000Y-84082000D01*
X142232000Y-89447000D02*
X141232000Y-89447000D01*
X141232000Y-91147000D02*
X142232000Y-91147000D01*
X109593000Y-71032000D02*
X108593000Y-71032000D01*
X108593000Y-72732000D02*
X109593000Y-72732000D01*
X145915000Y-102020000D02*
X144915000Y-102020000D01*
X144915000Y-103720000D02*
X145915000Y-103720000D01*
X107180000Y-102020000D02*
X106180000Y-102020000D01*
X106180000Y-103720000D02*
X107180000Y-103720000D01*
X107180000Y-112180000D02*
X106180000Y-112180000D01*
X106180000Y-113880000D02*
X107180000Y-113880000D01*
X106180000Y-124040000D02*
X107180000Y-124040000D01*
X107180000Y-122340000D02*
X106180000Y-122340000D01*
X107180000Y-132500000D02*
X106180000Y-132500000D01*
X106180000Y-134200000D02*
X107180000Y-134200000D01*
X151900000Y-134200000D02*
X152900000Y-134200000D01*
X152900000Y-132500000D02*
X151900000Y-132500000D01*
X151900000Y-124040000D02*
X152900000Y-124040000D01*
X152900000Y-122340000D02*
X151900000Y-122340000D01*
X151900000Y-113880000D02*
X152900000Y-113880000D01*
X152900000Y-112180000D02*
X151900000Y-112180000D01*
X151900000Y-103720000D02*
X152900000Y-103720000D01*
X152900000Y-102020000D02*
X151900000Y-102020000D01*
X152900000Y-93765000D02*
X151900000Y-93765000D01*
X151900000Y-95465000D02*
X152900000Y-95465000D01*
X107180000Y-91860000D02*
X106180000Y-91860000D01*
X106180000Y-93560000D02*
X107180000Y-93560000D01*
D10*
X150595000Y-87225000D02*
X150995000Y-87225000D01*
X150295000Y-87225000D02*
X150595000Y-87025000D01*
X150595000Y-87025000D02*
X150595000Y-87425000D01*
X150595000Y-87425000D02*
X150295000Y-87225000D01*
X149895000Y-87225000D02*
X150295000Y-87225000D01*
X150295000Y-87225000D02*
X150295000Y-86975000D01*
X150295000Y-86975000D02*
X150295000Y-87475000D01*
D12*
X148295000Y-84725000D02*
X148295000Y-86725000D01*
X148295000Y-86725000D02*
X152145000Y-86725000D01*
X148295000Y-84725000D02*
X152145000Y-84725000D01*
X99800000Y-98360000D02*
X99800000Y-99760000D01*
D10*
X101454000Y-100130000D02*
X101454000Y-100530000D01*
X101454000Y-100330000D02*
X101754000Y-100130000D01*
X101754000Y-100530000D02*
X101454000Y-100330000D01*
X101754000Y-100130000D02*
X101754000Y-100530000D01*
D12*
X99800000Y-99760000D02*
X102600000Y-99760000D01*
X99800000Y-98360000D02*
X102600000Y-98360000D01*
X99800000Y-108520000D02*
X99800000Y-109920000D01*
D10*
X101454000Y-110290000D02*
X101454000Y-110690000D01*
X101454000Y-110490000D02*
X101754000Y-110290000D01*
X101754000Y-110690000D02*
X101454000Y-110490000D01*
X101754000Y-110290000D02*
X101754000Y-110690000D01*
D12*
X99800000Y-109920000D02*
X102600000Y-109920000D01*
X99800000Y-108520000D02*
X102600000Y-108520000D01*
X99800000Y-119315000D02*
X99800000Y-120715000D01*
D10*
X101454000Y-121085000D02*
X101454000Y-121485000D01*
X101454000Y-121285000D02*
X101754000Y-121085000D01*
X101754000Y-121485000D02*
X101454000Y-121285000D01*
X101754000Y-121085000D02*
X101754000Y-121485000D01*
D12*
X99800000Y-120715000D02*
X102600000Y-120715000D01*
X99800000Y-119315000D02*
X102600000Y-119315000D01*
X99800000Y-128840000D02*
X99800000Y-130240000D01*
D10*
X101454000Y-130610000D02*
X101454000Y-131010000D01*
X101454000Y-130810000D02*
X101754000Y-130610000D01*
X101754000Y-131010000D02*
X101454000Y-130810000D01*
X101754000Y-130610000D02*
X101754000Y-131010000D01*
D12*
X99800000Y-130240000D02*
X102600000Y-130240000D01*
X99800000Y-128840000D02*
X102600000Y-128840000D01*
X163090000Y-135320000D02*
X163090000Y-133920000D01*
D10*
X161436000Y-133550000D02*
X161436000Y-133150000D01*
X161436000Y-133350000D02*
X161136000Y-133550000D01*
X161136000Y-133150000D02*
X161436000Y-133350000D01*
X161136000Y-133550000D02*
X161136000Y-133150000D01*
D12*
X163090000Y-133920000D02*
X160290000Y-133920000D01*
X163090000Y-135320000D02*
X160290000Y-135320000D01*
X163090000Y-125160000D02*
X163090000Y-123760000D01*
D10*
X161436000Y-123390000D02*
X161436000Y-122990000D01*
X161436000Y-123190000D02*
X161136000Y-123390000D01*
X161136000Y-122990000D02*
X161436000Y-123190000D01*
X161136000Y-123390000D02*
X161136000Y-122990000D01*
D12*
X163090000Y-123760000D02*
X160290000Y-123760000D01*
X163090000Y-125160000D02*
X160290000Y-125160000D01*
X163090000Y-115000000D02*
X163090000Y-113600000D01*
D10*
X161436000Y-113230000D02*
X161436000Y-112830000D01*
X161436000Y-113030000D02*
X161136000Y-113230000D01*
X161136000Y-112830000D02*
X161436000Y-113030000D01*
X161136000Y-113230000D02*
X161136000Y-112830000D01*
D12*
X163090000Y-113600000D02*
X160290000Y-113600000D01*
X163090000Y-115000000D02*
X160290000Y-115000000D01*
X163090000Y-104840000D02*
X163090000Y-103440000D01*
D10*
X161436000Y-103070000D02*
X161436000Y-102670000D01*
X161436000Y-102870000D02*
X161136000Y-103070000D01*
X161136000Y-102670000D02*
X161436000Y-102870000D01*
X161136000Y-103070000D02*
X161136000Y-102670000D01*
D12*
X163090000Y-103440000D02*
X160290000Y-103440000D01*
X163090000Y-104840000D02*
X160290000Y-104840000D01*
X163090000Y-94680000D02*
X163090000Y-93280000D01*
D10*
X161436000Y-92910000D02*
X161436000Y-92510000D01*
X161436000Y-92710000D02*
X161136000Y-92910000D01*
X161136000Y-92510000D02*
X161436000Y-92710000D01*
X161136000Y-92910000D02*
X161136000Y-92510000D01*
D12*
X163090000Y-93280000D02*
X160290000Y-93280000D01*
X163090000Y-94680000D02*
X160290000Y-94680000D01*
X99800000Y-88200000D02*
X99800000Y-89600000D01*
D10*
X101454000Y-89970000D02*
X101454000Y-90370000D01*
X101454000Y-90170000D02*
X101754000Y-89970000D01*
X101754000Y-90370000D02*
X101454000Y-90170000D01*
X101754000Y-89970000D02*
X101754000Y-90370000D01*
D12*
X99800000Y-89600000D02*
X102600000Y-89600000D01*
X99800000Y-88200000D02*
X102600000Y-88200000D01*
D13*
X89940000Y-83860000D02*
X98440000Y-83860000D01*
X98440000Y-83860000D02*
X98440000Y-88860000D01*
X98440000Y-88860000D02*
X89940000Y-88860000D01*
X89940000Y-88860000D02*
X89940000Y-83860000D01*
X89940000Y-91480000D02*
X98440000Y-91480000D01*
X98440000Y-91480000D02*
X98440000Y-96480000D01*
X98440000Y-96480000D02*
X89940000Y-96480000D01*
X89940000Y-96480000D02*
X89940000Y-91480000D01*
X89940000Y-101640000D02*
X98440000Y-101640000D01*
X98440000Y-101640000D02*
X98440000Y-106640000D01*
X98440000Y-106640000D02*
X89940000Y-106640000D01*
X89940000Y-106640000D02*
X89940000Y-101640000D01*
X89940000Y-111800000D02*
X98440000Y-111800000D01*
X98440000Y-111800000D02*
X98440000Y-116800000D01*
X98440000Y-116800000D02*
X89940000Y-116800000D01*
X89940000Y-116800000D02*
X89940000Y-111800000D01*
X89940000Y-121960000D02*
X98440000Y-121960000D01*
X98440000Y-121960000D02*
X98440000Y-126960000D01*
X98440000Y-126960000D02*
X89940000Y-126960000D01*
X89940000Y-126960000D02*
X89940000Y-121960000D01*
X89940000Y-130850000D02*
X98440000Y-130850000D01*
X98440000Y-130850000D02*
X98440000Y-135850000D01*
X98440000Y-135850000D02*
X89940000Y-135850000D01*
X89940000Y-135850000D02*
X89940000Y-130850000D01*
D12*
X140975000Y-101835000D02*
X140975000Y-100575000D01*
X140975000Y-95015000D02*
X140975000Y-96275000D01*
X137215000Y-101835000D02*
X140975000Y-101835000D01*
X134965000Y-95015000D02*
X140975000Y-95015000D01*
X105920000Y-97480000D02*
X105920000Y-98410000D01*
X105920000Y-100640000D02*
X105920000Y-99710000D01*
X105920000Y-100640000D02*
X108080000Y-100640000D01*
X105920000Y-97480000D02*
X107380000Y-97480000D01*
X105920000Y-107640000D02*
X105920000Y-108570000D01*
X105920000Y-110800000D02*
X105920000Y-109870000D01*
X105920000Y-110800000D02*
X108080000Y-110800000D01*
X105920000Y-107640000D02*
X107380000Y-107640000D01*
X105920000Y-117800000D02*
X105920000Y-118730000D01*
X105920000Y-120960000D02*
X105920000Y-120030000D01*
X105920000Y-120960000D02*
X108080000Y-120960000D01*
X105920000Y-117800000D02*
X107380000Y-117800000D01*
X105920000Y-127960000D02*
X105920000Y-128890000D01*
X105920000Y-131120000D02*
X105920000Y-130190000D01*
X105920000Y-131120000D02*
X108080000Y-131120000D01*
X105920000Y-127960000D02*
X107380000Y-127960000D01*
X156970000Y-136200000D02*
X156970000Y-135270000D01*
X156970000Y-133040000D02*
X156970000Y-133970000D01*
X156970000Y-133040000D02*
X154810000Y-133040000D01*
X156970000Y-136200000D02*
X155510000Y-136200000D01*
X156970000Y-126040000D02*
X156970000Y-125110000D01*
X156970000Y-122880000D02*
X156970000Y-123810000D01*
X156970000Y-122880000D02*
X154810000Y-122880000D01*
X156970000Y-126040000D02*
X155510000Y-126040000D01*
X156970000Y-115880000D02*
X156970000Y-114950000D01*
X156970000Y-112720000D02*
X156970000Y-113650000D01*
X156970000Y-112720000D02*
X154810000Y-112720000D01*
X156970000Y-115880000D02*
X155510000Y-115880000D01*
X156970000Y-105720000D02*
X156970000Y-104790000D01*
X156970000Y-102560000D02*
X156970000Y-103490000D01*
X156970000Y-102560000D02*
X154810000Y-102560000D01*
X156970000Y-105720000D02*
X155510000Y-105720000D01*
X157605000Y-95560000D02*
X157605000Y-94630000D01*
X157605000Y-92400000D02*
X157605000Y-93330000D01*
X157605000Y-92400000D02*
X155445000Y-92400000D01*
X157605000Y-95560000D02*
X156145000Y-95560000D01*
X105920000Y-87320000D02*
X105920000Y-88250000D01*
X105920000Y-90480000D02*
X105920000Y-89550000D01*
X105920000Y-90480000D02*
X108080000Y-90480000D01*
X105920000Y-87320000D02*
X107380000Y-87320000D01*
X135220000Y-111370000D02*
X134020000Y-111370000D01*
X134020000Y-109610000D02*
X135220000Y-109610000D01*
X123453000Y-88738000D02*
X123453000Y-87538000D01*
X125213000Y-87538000D02*
X125213000Y-88738000D01*
X104149000Y-75022000D02*
X104149000Y-73822000D01*
X105909000Y-73822000D02*
X105909000Y-75022000D01*
X105909000Y-70266000D02*
X105909000Y-71466000D01*
X104149000Y-71466000D02*
X104149000Y-70266000D01*
X132680000Y-83430000D02*
X131480000Y-83430000D01*
X131480000Y-81670000D02*
X132680000Y-81670000D01*
X131029000Y-79366000D02*
X129829000Y-79366000D01*
X129829000Y-77606000D02*
X131029000Y-77606000D01*
X132680000Y-87240000D02*
X131480000Y-87240000D01*
X131480000Y-85480000D02*
X132680000Y-85480000D01*
X139100000Y-79130000D02*
X140300000Y-79130000D01*
X140300000Y-80890000D02*
X139100000Y-80890000D01*
X140300000Y-78350000D02*
X139100000Y-78350000D01*
X139100000Y-76590000D02*
X140300000Y-76590000D01*
X139100000Y-72780000D02*
X140300000Y-72780000D01*
X140300000Y-74540000D02*
X139100000Y-74540000D01*
X132680000Y-89780000D02*
X131480000Y-89780000D01*
X131480000Y-88020000D02*
X132680000Y-88020000D01*
X101000000Y-101990000D02*
X102200000Y-101990000D01*
X102200000Y-103750000D02*
X101000000Y-103750000D01*
X101000000Y-95640000D02*
X102200000Y-95640000D01*
X102200000Y-97400000D02*
X101000000Y-97400000D01*
X106080000Y-104530000D02*
X107280000Y-104530000D01*
X107280000Y-106290000D02*
X106080000Y-106290000D01*
X101000000Y-112150000D02*
X102200000Y-112150000D01*
X102200000Y-113910000D02*
X101000000Y-113910000D01*
X101000000Y-105800000D02*
X102200000Y-105800000D01*
X102200000Y-107560000D02*
X101000000Y-107560000D01*
X106080000Y-114690000D02*
X107280000Y-114690000D01*
X107280000Y-116450000D02*
X106080000Y-116450000D01*
X101000000Y-122310000D02*
X102200000Y-122310000D01*
X102200000Y-124070000D02*
X101000000Y-124070000D01*
X101000000Y-115960000D02*
X102200000Y-115960000D01*
X102200000Y-117720000D02*
X101000000Y-117720000D01*
X106080000Y-124850000D02*
X107280000Y-124850000D01*
X107280000Y-126610000D02*
X106080000Y-126610000D01*
X101000000Y-132470000D02*
X102200000Y-132470000D01*
X102200000Y-134230000D02*
X101000000Y-134230000D01*
X101000000Y-126120000D02*
X102200000Y-126120000D01*
X102200000Y-127880000D02*
X101000000Y-127880000D01*
X106080000Y-135010000D02*
X107280000Y-135010000D01*
X107280000Y-136770000D02*
X106080000Y-136770000D01*
X160690000Y-131200000D02*
X161890000Y-131200000D01*
X161890000Y-132960000D02*
X160690000Y-132960000D01*
X156810000Y-139310000D02*
X155610000Y-139310000D01*
X155610000Y-137550000D02*
X156810000Y-137550000D01*
X156810000Y-131690000D02*
X155610000Y-131690000D01*
X155610000Y-129930000D02*
X156810000Y-129930000D01*
X160690000Y-121040000D02*
X161890000Y-121040000D01*
X161890000Y-122800000D02*
X160690000Y-122800000D01*
X156810000Y-129150000D02*
X155610000Y-129150000D01*
X155610000Y-127390000D02*
X156810000Y-127390000D01*
X156810000Y-121530000D02*
X155610000Y-121530000D01*
X155610000Y-119770000D02*
X156810000Y-119770000D01*
X160690000Y-110880000D02*
X161890000Y-110880000D01*
X161890000Y-112640000D02*
X160690000Y-112640000D01*
X156810000Y-118990000D02*
X155610000Y-118990000D01*
X155610000Y-117230000D02*
X156810000Y-117230000D01*
X156810000Y-111370000D02*
X155610000Y-111370000D01*
X155610000Y-109610000D02*
X156810000Y-109610000D01*
X160690000Y-100720000D02*
X161890000Y-100720000D01*
X161890000Y-102480000D02*
X160690000Y-102480000D01*
X156810000Y-108830000D02*
X155610000Y-108830000D01*
X155610000Y-107070000D02*
X156810000Y-107070000D01*
X156810000Y-101210000D02*
X155610000Y-101210000D01*
X155610000Y-99450000D02*
X156810000Y-99450000D01*
X160690000Y-90560000D02*
X161890000Y-90560000D01*
X161890000Y-92320000D02*
X160690000Y-92320000D01*
X156810000Y-98035000D02*
X155610000Y-98035000D01*
X155610000Y-96275000D02*
X156810000Y-96275000D01*
X156810000Y-90415000D02*
X155610000Y-90415000D01*
X155610000Y-88655000D02*
X156810000Y-88655000D01*
X101000000Y-90560000D02*
X102200000Y-90560000D01*
X102200000Y-92320000D02*
X101000000Y-92320000D01*
X101000000Y-84210000D02*
X102200000Y-84210000D01*
X102200000Y-85970000D02*
X101000000Y-85970000D01*
X106080000Y-94370000D02*
X107280000Y-94370000D01*
X107280000Y-96130000D02*
X106080000Y-96130000D01*
D13*
X125095000Y-91415000D02*
X125095000Y-91590000D01*
X131445000Y-91415000D02*
X131445000Y-91672500D01*
X131445000Y-104165000D02*
X131445000Y-103907500D01*
X125095000Y-104165000D02*
X125095000Y-103907500D01*
X125095000Y-91415000D02*
X131445000Y-91415000D01*
X125095000Y-104165000D02*
X131445000Y-104165000D01*
X125095000Y-91590000D02*
X124020000Y-91590000D01*
D12*
X136260000Y-107655000D02*
X138060000Y-107655000D01*
X138060000Y-104435000D02*
X135610000Y-104435000D01*
X136260000Y-93050000D02*
X138060000Y-93050000D01*
X138060000Y-89830000D02*
X135610000Y-89830000D01*
X67936905Y-124076666D02*
X68508333Y-124076666D01*
X68622619Y-124114762D01*
X68698810Y-124190952D01*
X68736905Y-124305238D01*
X68736905Y-124381428D01*
X67936905Y-123314761D02*
X67936905Y-123695714D01*
X68317857Y-123733809D01*
X68279762Y-123695714D01*
X68241667Y-123619523D01*
X68241667Y-123429047D01*
X68279762Y-123352857D01*
X68317857Y-123314761D01*
X68394048Y-123276666D01*
X68584524Y-123276666D01*
X68660714Y-123314761D01*
X68698810Y-123352857D01*
X68736905Y-123429047D01*
X68736905Y-123619523D01*
X68698810Y-123695714D01*
X68660714Y-123733809D01*
X67936905Y-93946666D02*
X68508333Y-93946666D01*
X68622619Y-93984762D01*
X68698810Y-94060952D01*
X68736905Y-94175238D01*
X68736905Y-94251428D01*
X67936905Y-93222857D02*
X67936905Y-93375238D01*
X67975000Y-93451428D01*
X68013095Y-93489523D01*
X68127381Y-93565714D01*
X68279762Y-93603809D01*
X68584524Y-93603809D01*
X68660714Y-93565714D01*
X68698810Y-93527619D01*
X68736905Y-93451428D01*
X68736905Y-93299047D01*
X68698810Y-93222857D01*
X68660714Y-93184761D01*
X68584524Y-93146666D01*
X68394048Y-93146666D01*
X68317857Y-93184761D01*
X68279762Y-93222857D01*
X68241667Y-93299047D01*
X68241667Y-93451428D01*
X68279762Y-93527619D01*
X68317857Y-93565714D01*
X68394048Y-93603809D01*
X143122667Y-80525714D02*
X143084572Y-80563810D01*
X142970286Y-80601905D01*
X142894096Y-80601905D01*
X142779810Y-80563810D01*
X142703619Y-80487619D01*
X142665524Y-80411429D01*
X142627429Y-80259048D01*
X142627429Y-80144762D01*
X142665524Y-79992381D01*
X142703619Y-79916190D01*
X142779810Y-79840000D01*
X142894096Y-79801905D01*
X142970286Y-79801905D01*
X143084572Y-79840000D01*
X143122667Y-79878095D01*
X143503619Y-80601905D02*
X143656000Y-80601905D01*
X143732191Y-80563810D01*
X143770286Y-80525714D01*
X143846477Y-80411429D01*
X143884572Y-80259048D01*
X143884572Y-79954286D01*
X143846477Y-79878095D01*
X143808381Y-79840000D01*
X143732191Y-79801905D01*
X143579810Y-79801905D01*
X143503619Y-79840000D01*
X143465524Y-79878095D01*
X143427429Y-79954286D01*
X143427429Y-80144762D01*
X143465524Y-80220952D01*
X143503619Y-80259048D01*
X143579810Y-80297143D01*
X143732191Y-80297143D01*
X143808381Y-80259048D01*
X143846477Y-80220952D01*
X143884572Y-80144762D01*
X142741714Y-74175714D02*
X142703619Y-74213810D01*
X142589333Y-74251905D01*
X142513143Y-74251905D01*
X142398857Y-74213810D01*
X142322666Y-74137619D01*
X142284571Y-74061429D01*
X142246476Y-73909048D01*
X142246476Y-73794762D01*
X142284571Y-73642381D01*
X142322666Y-73566190D01*
X142398857Y-73490000D01*
X142513143Y-73451905D01*
X142589333Y-73451905D01*
X142703619Y-73490000D01*
X142741714Y-73528095D01*
X143503619Y-74251905D02*
X143046476Y-74251905D01*
X143275047Y-74251905D02*
X143275047Y-73451905D01*
X143198857Y-73566190D01*
X143122666Y-73642381D01*
X143046476Y-73680476D01*
X143998857Y-73451905D02*
X144075048Y-73451905D01*
X144151238Y-73490000D01*
X144189333Y-73528095D01*
X144227429Y-73604286D01*
X144265524Y-73756667D01*
X144265524Y-73947143D01*
X144227429Y-74099524D01*
X144189333Y-74175714D01*
X144151238Y-74213810D01*
X144075048Y-74251905D01*
X143998857Y-74251905D01*
X143922667Y-74213810D01*
X143884571Y-74175714D01*
X143846476Y-74099524D01*
X143808381Y-73947143D01*
X143808381Y-73756667D01*
X143846476Y-73604286D01*
X143884571Y-73528095D01*
X143922667Y-73490000D01*
X143998857Y-73451905D01*
X156238905Y-84320666D02*
X156810333Y-84320666D01*
X156924619Y-84358762D01*
X157000810Y-84434952D01*
X157038905Y-84549238D01*
X157038905Y-84625428D01*
X156238905Y-84015904D02*
X156238905Y-83482571D01*
X157038905Y-83825428D01*
X156238905Y-77208666D02*
X156810333Y-77208666D01*
X156924619Y-77246762D01*
X157000810Y-77322952D01*
X157038905Y-77437238D01*
X157038905Y-77513428D01*
X156581762Y-76713428D02*
X156543667Y-76789619D01*
X156505571Y-76827714D01*
X156429381Y-76865809D01*
X156391286Y-76865809D01*
X156315095Y-76827714D01*
X156277000Y-76789619D01*
X156238905Y-76713428D01*
X156238905Y-76561047D01*
X156277000Y-76484857D01*
X156315095Y-76446761D01*
X156391286Y-76408666D01*
X156429381Y-76408666D01*
X156505571Y-76446761D01*
X156543667Y-76484857D01*
X156581762Y-76561047D01*
X156581762Y-76713428D01*
X156619857Y-76789619D01*
X156657952Y-76827714D01*
X156734143Y-76865809D01*
X156886524Y-76865809D01*
X156962714Y-76827714D01*
X157000810Y-76789619D01*
X157038905Y-76713428D01*
X157038905Y-76561047D01*
X157000810Y-76484857D01*
X156962714Y-76446761D01*
X156886524Y-76408666D01*
X156734143Y-76408666D01*
X156657952Y-76446761D01*
X156619857Y-76484857D01*
X156581762Y-76561047D01*
X95497667Y-69195905D02*
X95231000Y-68814952D01*
X95040524Y-69195905D02*
X95040524Y-68395905D01*
X95345286Y-68395905D01*
X95421477Y-68434000D01*
X95459572Y-68472095D01*
X95497667Y-68548286D01*
X95497667Y-68662571D01*
X95459572Y-68738762D01*
X95421477Y-68776857D01*
X95345286Y-68814952D01*
X95040524Y-68814952D01*
X95954810Y-68738762D02*
X95878619Y-68700667D01*
X95840524Y-68662571D01*
X95802429Y-68586381D01*
X95802429Y-68548286D01*
X95840524Y-68472095D01*
X95878619Y-68434000D01*
X95954810Y-68395905D01*
X96107191Y-68395905D01*
X96183381Y-68434000D01*
X96221477Y-68472095D01*
X96259572Y-68548286D01*
X96259572Y-68586381D01*
X96221477Y-68662571D01*
X96183381Y-68700667D01*
X96107191Y-68738762D01*
X95954810Y-68738762D01*
X95878619Y-68776857D01*
X95840524Y-68814952D01*
X95802429Y-68891143D01*
X95802429Y-69043524D01*
X95840524Y-69119714D01*
X95878619Y-69157810D01*
X95954810Y-69195905D01*
X96107191Y-69195905D01*
X96183381Y-69157810D01*
X96221477Y-69119714D01*
X96259572Y-69043524D01*
X96259572Y-68891143D01*
X96221477Y-68814952D01*
X96183381Y-68776857D01*
X96107191Y-68738762D01*
X101466667Y-68307905D02*
X101200000Y-67926952D01*
X101009524Y-68307905D02*
X101009524Y-67507905D01*
X101314286Y-67507905D01*
X101390477Y-67546000D01*
X101428572Y-67584095D01*
X101466667Y-67660286D01*
X101466667Y-67774571D01*
X101428572Y-67850762D01*
X101390477Y-67888857D01*
X101314286Y-67926952D01*
X101009524Y-67926952D01*
X101847619Y-68307905D02*
X102000000Y-68307905D01*
X102076191Y-68269810D01*
X102114286Y-68231714D01*
X102190477Y-68117429D01*
X102228572Y-67965048D01*
X102228572Y-67660286D01*
X102190477Y-67584095D01*
X102152381Y-67546000D01*
X102076191Y-67507905D01*
X101923810Y-67507905D01*
X101847619Y-67546000D01*
X101809524Y-67584095D01*
X101771429Y-67660286D01*
X101771429Y-67850762D01*
X101809524Y-67926952D01*
X101847619Y-67965048D01*
X101923810Y-68003143D01*
X102076191Y-68003143D01*
X102152381Y-67965048D01*
X102190477Y-67926952D01*
X102228572Y-67850762D01*
X95116714Y-71735905D02*
X94850047Y-71354952D01*
X94659571Y-71735905D02*
X94659571Y-70935905D01*
X94964333Y-70935905D01*
X95040524Y-70974000D01*
X95078619Y-71012095D01*
X95116714Y-71088286D01*
X95116714Y-71202571D01*
X95078619Y-71278762D01*
X95040524Y-71316857D01*
X94964333Y-71354952D01*
X94659571Y-71354952D01*
X95878619Y-71735905D02*
X95421476Y-71735905D01*
X95650047Y-71735905D02*
X95650047Y-70935905D01*
X95573857Y-71050190D01*
X95497666Y-71126381D01*
X95421476Y-71164476D01*
X96373857Y-70935905D02*
X96450048Y-70935905D01*
X96526238Y-70974000D01*
X96564333Y-71012095D01*
X96602429Y-71088286D01*
X96640524Y-71240667D01*
X96640524Y-71431143D01*
X96602429Y-71583524D01*
X96564333Y-71659714D01*
X96526238Y-71697810D01*
X96450048Y-71735905D01*
X96373857Y-71735905D01*
X96297667Y-71697810D01*
X96259571Y-71659714D01*
X96221476Y-71583524D01*
X96183381Y-71431143D01*
X96183381Y-71240667D01*
X96221476Y-71088286D01*
X96259571Y-71012095D01*
X96297667Y-70974000D01*
X96373857Y-70935905D01*
X101085714Y-71481905D02*
X100819047Y-71100952D01*
X100628571Y-71481905D02*
X100628571Y-70681905D01*
X100933333Y-70681905D01*
X101009524Y-70720000D01*
X101047619Y-70758095D01*
X101085714Y-70834286D01*
X101085714Y-70948571D01*
X101047619Y-71024762D01*
X101009524Y-71062857D01*
X100933333Y-71100952D01*
X100628571Y-71100952D01*
X101847619Y-71481905D02*
X101390476Y-71481905D01*
X101619047Y-71481905D02*
X101619047Y-70681905D01*
X101542857Y-70796190D01*
X101466666Y-70872381D01*
X101390476Y-70910476D01*
X102609524Y-71481905D02*
X102152381Y-71481905D01*
X102380952Y-71481905D02*
X102380952Y-70681905D01*
X102304762Y-70796190D01*
X102228571Y-70872381D01*
X102152381Y-70910476D01*
X95116714Y-74021905D02*
X94850047Y-73640952D01*
X94659571Y-74021905D02*
X94659571Y-73221905D01*
X94964333Y-73221905D01*
X95040524Y-73260000D01*
X95078619Y-73298095D01*
X95116714Y-73374286D01*
X95116714Y-73488571D01*
X95078619Y-73564762D01*
X95040524Y-73602857D01*
X94964333Y-73640952D01*
X94659571Y-73640952D01*
X95878619Y-74021905D02*
X95421476Y-74021905D01*
X95650047Y-74021905D02*
X95650047Y-73221905D01*
X95573857Y-73336190D01*
X95497666Y-73412381D01*
X95421476Y-73450476D01*
X96183381Y-73298095D02*
X96221476Y-73260000D01*
X96297667Y-73221905D01*
X96488143Y-73221905D01*
X96564333Y-73260000D01*
X96602429Y-73298095D01*
X96640524Y-73374286D01*
X96640524Y-73450476D01*
X96602429Y-73564762D01*
X96145286Y-74021905D01*
X96640524Y-74021905D01*
X96513714Y-75165905D02*
X96247047Y-74784952D01*
X96056571Y-75165905D02*
X96056571Y-74365905D01*
X96361333Y-74365905D01*
X96437524Y-74404000D01*
X96475619Y-74442095D01*
X96513714Y-74518286D01*
X96513714Y-74632571D01*
X96475619Y-74708762D01*
X96437524Y-74746857D01*
X96361333Y-74784952D01*
X96056571Y-74784952D01*
X97275619Y-75165905D02*
X96818476Y-75165905D01*
X97047047Y-75165905D02*
X97047047Y-74365905D01*
X96970857Y-74480190D01*
X96894666Y-74556381D01*
X96818476Y-74594476D01*
X97542286Y-74365905D02*
X98037524Y-74365905D01*
X97770857Y-74670667D01*
X97885143Y-74670667D01*
X97961333Y-74708762D01*
X97999429Y-74746857D01*
X98037524Y-74823048D01*
X98037524Y-75013524D01*
X97999429Y-75089714D01*
X97961333Y-75127810D01*
X97885143Y-75165905D01*
X97656571Y-75165905D01*
X97580381Y-75127810D01*
X97542286Y-75089714D01*
X99815714Y-76435905D02*
X99549047Y-76054952D01*
X99358571Y-76435905D02*
X99358571Y-75635905D01*
X99663333Y-75635905D01*
X99739524Y-75674000D01*
X99777619Y-75712095D01*
X99815714Y-75788286D01*
X99815714Y-75902571D01*
X99777619Y-75978762D01*
X99739524Y-76016857D01*
X99663333Y-76054952D01*
X99358571Y-76054952D01*
X100577619Y-76435905D02*
X100120476Y-76435905D01*
X100349047Y-76435905D02*
X100349047Y-75635905D01*
X100272857Y-75750190D01*
X100196666Y-75826381D01*
X100120476Y-75864476D01*
X101263333Y-75902571D02*
X101263333Y-76435905D01*
X101072857Y-75597810D02*
X100882381Y-76169238D01*
X101377619Y-76169238D01*
X96513714Y-77705905D02*
X96247047Y-77324952D01*
X96056571Y-77705905D02*
X96056571Y-76905905D01*
X96361333Y-76905905D01*
X96437524Y-76944000D01*
X96475619Y-76982095D01*
X96513714Y-77058286D01*
X96513714Y-77172571D01*
X96475619Y-77248762D01*
X96437524Y-77286857D01*
X96361333Y-77324952D01*
X96056571Y-77324952D01*
X97275619Y-77705905D02*
X96818476Y-77705905D01*
X97047047Y-77705905D02*
X97047047Y-76905905D01*
X96970857Y-77020190D01*
X96894666Y-77096381D01*
X96818476Y-77134476D01*
X97999429Y-76905905D02*
X97618476Y-76905905D01*
X97580381Y-77286857D01*
X97618476Y-77248762D01*
X97694667Y-77210667D01*
X97885143Y-77210667D01*
X97961333Y-77248762D01*
X97999429Y-77286857D01*
X98037524Y-77363048D01*
X98037524Y-77553524D01*
X97999429Y-77629714D01*
X97961333Y-77667810D01*
X97885143Y-77705905D01*
X97694667Y-77705905D01*
X97618476Y-77667810D01*
X97580381Y-77629714D01*
X99815714Y-82276905D02*
X99549047Y-81895952D01*
X99358571Y-82276905D02*
X99358571Y-81476905D01*
X99663333Y-81476905D01*
X99739524Y-81515000D01*
X99777619Y-81553095D01*
X99815714Y-81629286D01*
X99815714Y-81743571D01*
X99777619Y-81819762D01*
X99739524Y-81857857D01*
X99663333Y-81895952D01*
X99358571Y-81895952D01*
X100577619Y-82276905D02*
X100120476Y-82276905D01*
X100349047Y-82276905D02*
X100349047Y-81476905D01*
X100272857Y-81591190D01*
X100196666Y-81667381D01*
X100120476Y-81705476D01*
X101263333Y-81476905D02*
X101110952Y-81476905D01*
X101034762Y-81515000D01*
X100996667Y-81553095D01*
X100920476Y-81667381D01*
X100882381Y-81819762D01*
X100882381Y-82124524D01*
X100920476Y-82200714D01*
X100958571Y-82238810D01*
X101034762Y-82276905D01*
X101187143Y-82276905D01*
X101263333Y-82238810D01*
X101301429Y-82200714D01*
X101339524Y-82124524D01*
X101339524Y-81934048D01*
X101301429Y-81857857D01*
X101263333Y-81819762D01*
X101187143Y-81781667D01*
X101034762Y-81781667D01*
X100958571Y-81819762D01*
X100920476Y-81857857D01*
X100882381Y-81934048D01*
X96386714Y-80625905D02*
X96120047Y-80244952D01*
X95929571Y-80625905D02*
X95929571Y-79825905D01*
X96234333Y-79825905D01*
X96310524Y-79864000D01*
X96348619Y-79902095D01*
X96386714Y-79978286D01*
X96386714Y-80092571D01*
X96348619Y-80168762D01*
X96310524Y-80206857D01*
X96234333Y-80244952D01*
X95929571Y-80244952D01*
X97148619Y-80625905D02*
X96691476Y-80625905D01*
X96920047Y-80625905D02*
X96920047Y-79825905D01*
X96843857Y-79940190D01*
X96767666Y-80016381D01*
X96691476Y-80054476D01*
X97415286Y-79825905D02*
X97948619Y-79825905D01*
X97605762Y-80625905D01*
X107689714Y-82529905D02*
X107423047Y-82148952D01*
X107232571Y-82529905D02*
X107232571Y-81729905D01*
X107537333Y-81729905D01*
X107613524Y-81768000D01*
X107651619Y-81806095D01*
X107689714Y-81882286D01*
X107689714Y-81996571D01*
X107651619Y-82072762D01*
X107613524Y-82110857D01*
X107537333Y-82148952D01*
X107232571Y-82148952D01*
X107994476Y-81806095D02*
X108032571Y-81768000D01*
X108108762Y-81729905D01*
X108299238Y-81729905D01*
X108375428Y-81768000D01*
X108413524Y-81806095D01*
X108451619Y-81882286D01*
X108451619Y-81958476D01*
X108413524Y-82072762D01*
X107956381Y-82529905D01*
X108451619Y-82529905D01*
X108756381Y-81806095D02*
X108794476Y-81768000D01*
X108870667Y-81729905D01*
X109061143Y-81729905D01*
X109137333Y-81768000D01*
X109175429Y-81806095D01*
X109213524Y-81882286D01*
X109213524Y-81958476D01*
X109175429Y-82072762D01*
X108718286Y-82529905D01*
X109213524Y-82529905D01*
X89687476Y-67887905D02*
X89687476Y-68535524D01*
X89725571Y-68611714D01*
X89763667Y-68649810D01*
X89839857Y-68687905D01*
X89992238Y-68687905D01*
X90068429Y-68649810D01*
X90106524Y-68611714D01*
X90144619Y-68535524D01*
X90144619Y-67887905D01*
X90868428Y-68154571D02*
X90868428Y-68687905D01*
X90677952Y-67849810D02*
X90487476Y-68421238D01*
X90982714Y-68421238D01*
X89687476Y-75253905D02*
X89687476Y-75901524D01*
X89725571Y-75977714D01*
X89763667Y-76015810D01*
X89839857Y-76053905D01*
X89992238Y-76053905D01*
X90068429Y-76015810D01*
X90106524Y-75977714D01*
X90144619Y-75901524D01*
X90144619Y-75253905D01*
X90906524Y-75253905D02*
X90525571Y-75253905D01*
X90487476Y-75634857D01*
X90525571Y-75596762D01*
X90601762Y-75558667D01*
X90792238Y-75558667D01*
X90868428Y-75596762D01*
X90906524Y-75634857D01*
X90944619Y-75711048D01*
X90944619Y-75901524D01*
X90906524Y-75977714D01*
X90868428Y-76015810D01*
X90792238Y-76053905D01*
X90601762Y-76053905D01*
X90525571Y-76015810D01*
X90487476Y-75977714D01*
X103784476Y-76163905D02*
X103784476Y-76811524D01*
X103822571Y-76887714D01*
X103860667Y-76925810D01*
X103936857Y-76963905D01*
X104089238Y-76963905D01*
X104165429Y-76925810D01*
X104203524Y-76887714D01*
X104241619Y-76811524D01*
X104241619Y-76163905D01*
X104965428Y-76163905D02*
X104813047Y-76163905D01*
X104736857Y-76202000D01*
X104698762Y-76240095D01*
X104622571Y-76354381D01*
X104584476Y-76506762D01*
X104584476Y-76811524D01*
X104622571Y-76887714D01*
X104660666Y-76925810D01*
X104736857Y-76963905D01*
X104889238Y-76963905D01*
X104965428Y-76925810D01*
X105003524Y-76887714D01*
X105041619Y-76811524D01*
X105041619Y-76621048D01*
X105003524Y-76544857D01*
X104965428Y-76506762D01*
X104889238Y-76468667D01*
X104736857Y-76468667D01*
X104660666Y-76506762D01*
X104622571Y-76544857D01*
X104584476Y-76621048D01*
X152044476Y-83381905D02*
X152501619Y-83381905D01*
X152273048Y-84181905D02*
X152273048Y-83381905D01*
X153187334Y-84181905D02*
X152730191Y-84181905D01*
X152958762Y-84181905D02*
X152958762Y-83381905D01*
X152882572Y-83496190D01*
X152806381Y-83572381D01*
X152730191Y-83610476D01*
X136391667Y-111307714D02*
X136353572Y-111345810D01*
X136239286Y-111383905D01*
X136163096Y-111383905D01*
X136048810Y-111345810D01*
X135972619Y-111269619D01*
X135934524Y-111193429D01*
X135896429Y-111041048D01*
X135896429Y-110926762D01*
X135934524Y-110774381D01*
X135972619Y-110698190D01*
X136048810Y-110622000D01*
X136163096Y-110583905D01*
X136239286Y-110583905D01*
X136353572Y-110622000D01*
X136391667Y-110660095D01*
X137153572Y-111383905D02*
X136696429Y-111383905D01*
X136925000Y-111383905D02*
X136925000Y-110583905D01*
X136848810Y-110698190D01*
X136772619Y-110774381D01*
X136696429Y-110812476D01*
X126231667Y-81970714D02*
X126193572Y-82008810D01*
X126079286Y-82046905D01*
X126003096Y-82046905D01*
X125888810Y-82008810D01*
X125812619Y-81932619D01*
X125774524Y-81856429D01*
X125736429Y-81704048D01*
X125736429Y-81589762D01*
X125774524Y-81437381D01*
X125812619Y-81361190D01*
X125888810Y-81285000D01*
X126003096Y-81246905D01*
X126079286Y-81246905D01*
X126193572Y-81285000D01*
X126231667Y-81323095D01*
X126536429Y-81323095D02*
X126574524Y-81285000D01*
X126650715Y-81246905D01*
X126841191Y-81246905D01*
X126917381Y-81285000D01*
X126955477Y-81323095D01*
X126993572Y-81399286D01*
X126993572Y-81475476D01*
X126955477Y-81589762D01*
X126498334Y-82046905D01*
X126993572Y-82046905D01*
X136391667Y-83875714D02*
X136353572Y-83913810D01*
X136239286Y-83951905D01*
X136163096Y-83951905D01*
X136048810Y-83913810D01*
X135972619Y-83837619D01*
X135934524Y-83761429D01*
X135896429Y-83609048D01*
X135896429Y-83494762D01*
X135934524Y-83342381D01*
X135972619Y-83266190D01*
X136048810Y-83190000D01*
X136163096Y-83151905D01*
X136239286Y-83151905D01*
X136353572Y-83190000D01*
X136391667Y-83228095D01*
X136658334Y-83151905D02*
X137153572Y-83151905D01*
X136886905Y-83456667D01*
X137001191Y-83456667D01*
X137077381Y-83494762D01*
X137115477Y-83532857D01*
X137153572Y-83609048D01*
X137153572Y-83799524D01*
X137115477Y-83875714D01*
X137077381Y-83913810D01*
X137001191Y-83951905D01*
X136772619Y-83951905D01*
X136696429Y-83913810D01*
X136658334Y-83875714D01*
X127690714Y-89033333D02*
X127728810Y-89071428D01*
X127766905Y-89185714D01*
X127766905Y-89261904D01*
X127728810Y-89376190D01*
X127652619Y-89452381D01*
X127576429Y-89490476D01*
X127424048Y-89528571D01*
X127309762Y-89528571D01*
X127157381Y-89490476D01*
X127081190Y-89452381D01*
X127005000Y-89376190D01*
X126966905Y-89261904D01*
X126966905Y-89185714D01*
X127005000Y-89071428D01*
X127043095Y-89033333D01*
X127233571Y-88347619D02*
X127766905Y-88347619D01*
X126928810Y-88538095D02*
X127500238Y-88728571D01*
X127500238Y-88233333D01*
X111499667Y-74707714D02*
X111461572Y-74745810D01*
X111347286Y-74783905D01*
X111271096Y-74783905D01*
X111156810Y-74745810D01*
X111080619Y-74669619D01*
X111042524Y-74593429D01*
X111004429Y-74441048D01*
X111004429Y-74326762D01*
X111042524Y-74174381D01*
X111080619Y-74098190D01*
X111156810Y-74022000D01*
X111271096Y-73983905D01*
X111347286Y-73983905D01*
X111461572Y-74022000D01*
X111499667Y-74060095D01*
X112223477Y-73983905D02*
X111842524Y-73983905D01*
X111804429Y-74364857D01*
X111842524Y-74326762D01*
X111918715Y-74288667D01*
X112109191Y-74288667D01*
X112185381Y-74326762D01*
X112223477Y-74364857D01*
X112261572Y-74441048D01*
X112261572Y-74631524D01*
X112223477Y-74707714D01*
X112185381Y-74745810D01*
X112109191Y-74783905D01*
X111918715Y-74783905D01*
X111842524Y-74745810D01*
X111804429Y-74707714D01*
X141598667Y-91876714D02*
X141560572Y-91914810D01*
X141446286Y-91952905D01*
X141370096Y-91952905D01*
X141255810Y-91914810D01*
X141179619Y-91838619D01*
X141141524Y-91762429D01*
X141103429Y-91610048D01*
X141103429Y-91495762D01*
X141141524Y-91343381D01*
X141179619Y-91267190D01*
X141255810Y-91191000D01*
X141370096Y-91152905D01*
X141446286Y-91152905D01*
X141560572Y-91191000D01*
X141598667Y-91229095D01*
X142284381Y-91152905D02*
X142132000Y-91152905D01*
X142055810Y-91191000D01*
X142017715Y-91229095D01*
X141941524Y-91343381D01*
X141903429Y-91495762D01*
X141903429Y-91800524D01*
X141941524Y-91876714D01*
X141979619Y-91914810D01*
X142055810Y-91952905D01*
X142208191Y-91952905D01*
X142284381Y-91914810D01*
X142322477Y-91876714D01*
X142360572Y-91800524D01*
X142360572Y-91610048D01*
X142322477Y-91533857D01*
X142284381Y-91495762D01*
X142208191Y-91457667D01*
X142055810Y-91457667D01*
X141979619Y-91495762D01*
X141941524Y-91533857D01*
X141903429Y-91610048D01*
X135375667Y-79255714D02*
X135337572Y-79293810D01*
X135223286Y-79331905D01*
X135147096Y-79331905D01*
X135032810Y-79293810D01*
X134956619Y-79217619D01*
X134918524Y-79141429D01*
X134880429Y-78989048D01*
X134880429Y-78874762D01*
X134918524Y-78722381D01*
X134956619Y-78646190D01*
X135032810Y-78570000D01*
X135147096Y-78531905D01*
X135223286Y-78531905D01*
X135337572Y-78570000D01*
X135375667Y-78608095D01*
X135642334Y-78531905D02*
X136175667Y-78531905D01*
X135832810Y-79331905D01*
X127690714Y-84715333D02*
X127728810Y-84753428D01*
X127766905Y-84867714D01*
X127766905Y-84943904D01*
X127728810Y-85058190D01*
X127652619Y-85134381D01*
X127576429Y-85172476D01*
X127424048Y-85210571D01*
X127309762Y-85210571D01*
X127157381Y-85172476D01*
X127081190Y-85134381D01*
X127005000Y-85058190D01*
X126966905Y-84943904D01*
X126966905Y-84867714D01*
X127005000Y-84753428D01*
X127043095Y-84715333D01*
X127309762Y-84258190D02*
X127271667Y-84334381D01*
X127233571Y-84372476D01*
X127157381Y-84410571D01*
X127119286Y-84410571D01*
X127043095Y-84372476D01*
X127005000Y-84334381D01*
X126966905Y-84258190D01*
X126966905Y-84105809D01*
X127005000Y-84029619D01*
X127043095Y-83991523D01*
X127119286Y-83953428D01*
X127157381Y-83953428D01*
X127233571Y-83991523D01*
X127271667Y-84029619D01*
X127309762Y-84105809D01*
X127309762Y-84258190D01*
X127347857Y-84334381D01*
X127385952Y-84372476D01*
X127462143Y-84410571D01*
X127614524Y-84410571D01*
X127690714Y-84372476D01*
X127728810Y-84334381D01*
X127766905Y-84258190D01*
X127766905Y-84105809D01*
X127728810Y-84029619D01*
X127690714Y-83991523D01*
X127614524Y-83953428D01*
X127462143Y-83953428D01*
X127385952Y-83991523D01*
X127347857Y-84029619D01*
X127309762Y-84105809D01*
X141217714Y-89082714D02*
X141179619Y-89120810D01*
X141065333Y-89158905D01*
X140989143Y-89158905D01*
X140874857Y-89120810D01*
X140798666Y-89044619D01*
X140760571Y-88968429D01*
X140722476Y-88816048D01*
X140722476Y-88701762D01*
X140760571Y-88549381D01*
X140798666Y-88473190D01*
X140874857Y-88397000D01*
X140989143Y-88358905D01*
X141065333Y-88358905D01*
X141179619Y-88397000D01*
X141217714Y-88435095D01*
X141979619Y-89158905D02*
X141522476Y-89158905D01*
X141751047Y-89158905D02*
X141751047Y-88358905D01*
X141674857Y-88473190D01*
X141598666Y-88549381D01*
X141522476Y-88587476D01*
X142741524Y-89158905D02*
X142284381Y-89158905D01*
X142512952Y-89158905D02*
X142512952Y-88358905D01*
X142436762Y-88473190D01*
X142360571Y-88549381D01*
X142284381Y-88587476D01*
X111626714Y-72167714D02*
X111588619Y-72205810D01*
X111474333Y-72243905D01*
X111398143Y-72243905D01*
X111283857Y-72205810D01*
X111207666Y-72129619D01*
X111169571Y-72053429D01*
X111131476Y-71901048D01*
X111131476Y-71786762D01*
X111169571Y-71634381D01*
X111207666Y-71558190D01*
X111283857Y-71482000D01*
X111398143Y-71443905D01*
X111474333Y-71443905D01*
X111588619Y-71482000D01*
X111626714Y-71520095D01*
X112388619Y-72243905D02*
X111931476Y-72243905D01*
X112160047Y-72243905D02*
X112160047Y-71443905D01*
X112083857Y-71558190D01*
X112007666Y-71634381D01*
X111931476Y-71672476D01*
X112693381Y-71520095D02*
X112731476Y-71482000D01*
X112807667Y-71443905D01*
X112998143Y-71443905D01*
X113074333Y-71482000D01*
X113112429Y-71520095D01*
X113150524Y-71596286D01*
X113150524Y-71672476D01*
X113112429Y-71786762D01*
X112655286Y-72243905D01*
X113150524Y-72243905D01*
X144900714Y-101655714D02*
X144862619Y-101693810D01*
X144748333Y-101731905D01*
X144672143Y-101731905D01*
X144557857Y-101693810D01*
X144481666Y-101617619D01*
X144443571Y-101541429D01*
X144405476Y-101389048D01*
X144405476Y-101274762D01*
X144443571Y-101122381D01*
X144481666Y-101046190D01*
X144557857Y-100970000D01*
X144672143Y-100931905D01*
X144748333Y-100931905D01*
X144862619Y-100970000D01*
X144900714Y-101008095D01*
X145662619Y-101731905D02*
X145205476Y-101731905D01*
X145434047Y-101731905D02*
X145434047Y-100931905D01*
X145357857Y-101046190D01*
X145281666Y-101122381D01*
X145205476Y-101160476D01*
X145929286Y-100931905D02*
X146424524Y-100931905D01*
X146157857Y-101236667D01*
X146272143Y-101236667D01*
X146348333Y-101274762D01*
X146386429Y-101312857D01*
X146424524Y-101389048D01*
X146424524Y-101579524D01*
X146386429Y-101655714D01*
X146348333Y-101693810D01*
X146272143Y-101731905D01*
X146043571Y-101731905D01*
X145967381Y-101693810D01*
X145929286Y-101655714D01*
X109086714Y-103155714D02*
X109048619Y-103193810D01*
X108934333Y-103231905D01*
X108858143Y-103231905D01*
X108743857Y-103193810D01*
X108667666Y-103117619D01*
X108629571Y-103041429D01*
X108591476Y-102889048D01*
X108591476Y-102774762D01*
X108629571Y-102622381D01*
X108667666Y-102546190D01*
X108743857Y-102470000D01*
X108858143Y-102431905D01*
X108934333Y-102431905D01*
X109048619Y-102470000D01*
X109086714Y-102508095D01*
X109848619Y-103231905D02*
X109391476Y-103231905D01*
X109620047Y-103231905D02*
X109620047Y-102431905D01*
X109543857Y-102546190D01*
X109467666Y-102622381D01*
X109391476Y-102660476D01*
X110534333Y-102698571D02*
X110534333Y-103231905D01*
X110343857Y-102393810D02*
X110153381Y-102965238D01*
X110648619Y-102965238D01*
X109086714Y-113315714D02*
X109048619Y-113353810D01*
X108934333Y-113391905D01*
X108858143Y-113391905D01*
X108743857Y-113353810D01*
X108667666Y-113277619D01*
X108629571Y-113201429D01*
X108591476Y-113049048D01*
X108591476Y-112934762D01*
X108629571Y-112782381D01*
X108667666Y-112706190D01*
X108743857Y-112630000D01*
X108858143Y-112591905D01*
X108934333Y-112591905D01*
X109048619Y-112630000D01*
X109086714Y-112668095D01*
X109848619Y-113391905D02*
X109391476Y-113391905D01*
X109620047Y-113391905D02*
X109620047Y-112591905D01*
X109543857Y-112706190D01*
X109467666Y-112782381D01*
X109391476Y-112820476D01*
X110572429Y-112591905D02*
X110191476Y-112591905D01*
X110153381Y-112972857D01*
X110191476Y-112934762D01*
X110267667Y-112896667D01*
X110458143Y-112896667D01*
X110534333Y-112934762D01*
X110572429Y-112972857D01*
X110610524Y-113049048D01*
X110610524Y-113239524D01*
X110572429Y-113315714D01*
X110534333Y-113353810D01*
X110458143Y-113391905D01*
X110267667Y-113391905D01*
X110191476Y-113353810D01*
X110153381Y-113315714D01*
X109340714Y-123475714D02*
X109302619Y-123513810D01*
X109188333Y-123551905D01*
X109112143Y-123551905D01*
X108997857Y-123513810D01*
X108921666Y-123437619D01*
X108883571Y-123361429D01*
X108845476Y-123209048D01*
X108845476Y-123094762D01*
X108883571Y-122942381D01*
X108921666Y-122866190D01*
X108997857Y-122790000D01*
X109112143Y-122751905D01*
X109188333Y-122751905D01*
X109302619Y-122790000D01*
X109340714Y-122828095D01*
X110102619Y-123551905D02*
X109645476Y-123551905D01*
X109874047Y-123551905D02*
X109874047Y-122751905D01*
X109797857Y-122866190D01*
X109721666Y-122942381D01*
X109645476Y-122980476D01*
X110788333Y-122751905D02*
X110635952Y-122751905D01*
X110559762Y-122790000D01*
X110521667Y-122828095D01*
X110445476Y-122942381D01*
X110407381Y-123094762D01*
X110407381Y-123399524D01*
X110445476Y-123475714D01*
X110483571Y-123513810D01*
X110559762Y-123551905D01*
X110712143Y-123551905D01*
X110788333Y-123513810D01*
X110826429Y-123475714D01*
X110864524Y-123399524D01*
X110864524Y-123209048D01*
X110826429Y-123132857D01*
X110788333Y-123094762D01*
X110712143Y-123056667D01*
X110559762Y-123056667D01*
X110483571Y-123094762D01*
X110445476Y-123132857D01*
X110407381Y-123209048D01*
X109340714Y-133635714D02*
X109302619Y-133673810D01*
X109188333Y-133711905D01*
X109112143Y-133711905D01*
X108997857Y-133673810D01*
X108921666Y-133597619D01*
X108883571Y-133521429D01*
X108845476Y-133369048D01*
X108845476Y-133254762D01*
X108883571Y-133102381D01*
X108921666Y-133026190D01*
X108997857Y-132950000D01*
X109112143Y-132911905D01*
X109188333Y-132911905D01*
X109302619Y-132950000D01*
X109340714Y-132988095D01*
X110102619Y-133711905D02*
X109645476Y-133711905D01*
X109874047Y-133711905D02*
X109874047Y-132911905D01*
X109797857Y-133026190D01*
X109721666Y-133102381D01*
X109645476Y-133140476D01*
X110369286Y-132911905D02*
X110902619Y-132911905D01*
X110559762Y-133711905D01*
X151885714Y-135135714D02*
X151847619Y-135173810D01*
X151733333Y-135211905D01*
X151657143Y-135211905D01*
X151542857Y-135173810D01*
X151466666Y-135097619D01*
X151428571Y-135021429D01*
X151390476Y-134869048D01*
X151390476Y-134754762D01*
X151428571Y-134602381D01*
X151466666Y-134526190D01*
X151542857Y-134450000D01*
X151657143Y-134411905D01*
X151733333Y-134411905D01*
X151847619Y-134450000D01*
X151885714Y-134488095D01*
X152647619Y-135211905D02*
X152190476Y-135211905D01*
X152419047Y-135211905D02*
X152419047Y-134411905D01*
X152342857Y-134526190D01*
X152266666Y-134602381D01*
X152190476Y-134640476D01*
X153104762Y-134754762D02*
X153028571Y-134716667D01*
X152990476Y-134678571D01*
X152952381Y-134602381D01*
X152952381Y-134564286D01*
X152990476Y-134488095D01*
X153028571Y-134450000D01*
X153104762Y-134411905D01*
X153257143Y-134411905D01*
X153333333Y-134450000D01*
X153371429Y-134488095D01*
X153409524Y-134564286D01*
X153409524Y-134602381D01*
X153371429Y-134678571D01*
X153333333Y-134716667D01*
X153257143Y-134754762D01*
X153104762Y-134754762D01*
X153028571Y-134792857D01*
X152990476Y-134830952D01*
X152952381Y-134907143D01*
X152952381Y-135059524D01*
X152990476Y-135135714D01*
X153028571Y-135173810D01*
X153104762Y-135211905D01*
X153257143Y-135211905D01*
X153333333Y-135173810D01*
X153371429Y-135135714D01*
X153409524Y-135059524D01*
X153409524Y-134907143D01*
X153371429Y-134830952D01*
X153333333Y-134792857D01*
X153257143Y-134754762D01*
X151885714Y-124975714D02*
X151847619Y-125013810D01*
X151733333Y-125051905D01*
X151657143Y-125051905D01*
X151542857Y-125013810D01*
X151466666Y-124937619D01*
X151428571Y-124861429D01*
X151390476Y-124709048D01*
X151390476Y-124594762D01*
X151428571Y-124442381D01*
X151466666Y-124366190D01*
X151542857Y-124290000D01*
X151657143Y-124251905D01*
X151733333Y-124251905D01*
X151847619Y-124290000D01*
X151885714Y-124328095D01*
X152647619Y-125051905D02*
X152190476Y-125051905D01*
X152419047Y-125051905D02*
X152419047Y-124251905D01*
X152342857Y-124366190D01*
X152266666Y-124442381D01*
X152190476Y-124480476D01*
X153028571Y-125051905D02*
X153180952Y-125051905D01*
X153257143Y-125013810D01*
X153295238Y-124975714D01*
X153371429Y-124861429D01*
X153409524Y-124709048D01*
X153409524Y-124404286D01*
X153371429Y-124328095D01*
X153333333Y-124290000D01*
X153257143Y-124251905D01*
X153104762Y-124251905D01*
X153028571Y-124290000D01*
X152990476Y-124328095D01*
X152952381Y-124404286D01*
X152952381Y-124594762D01*
X152990476Y-124670952D01*
X153028571Y-124709048D01*
X153104762Y-124747143D01*
X153257143Y-124747143D01*
X153333333Y-124709048D01*
X153371429Y-124670952D01*
X153409524Y-124594762D01*
X151885714Y-114815714D02*
X151847619Y-114853810D01*
X151733333Y-114891905D01*
X151657143Y-114891905D01*
X151542857Y-114853810D01*
X151466666Y-114777619D01*
X151428571Y-114701429D01*
X151390476Y-114549048D01*
X151390476Y-114434762D01*
X151428571Y-114282381D01*
X151466666Y-114206190D01*
X151542857Y-114130000D01*
X151657143Y-114091905D01*
X151733333Y-114091905D01*
X151847619Y-114130000D01*
X151885714Y-114168095D01*
X152190476Y-114168095D02*
X152228571Y-114130000D01*
X152304762Y-114091905D01*
X152495238Y-114091905D01*
X152571428Y-114130000D01*
X152609524Y-114168095D01*
X152647619Y-114244286D01*
X152647619Y-114320476D01*
X152609524Y-114434762D01*
X152152381Y-114891905D01*
X152647619Y-114891905D01*
X153142857Y-114091905D02*
X153219048Y-114091905D01*
X153295238Y-114130000D01*
X153333333Y-114168095D01*
X153371429Y-114244286D01*
X153409524Y-114396667D01*
X153409524Y-114587143D01*
X153371429Y-114739524D01*
X153333333Y-114815714D01*
X153295238Y-114853810D01*
X153219048Y-114891905D01*
X153142857Y-114891905D01*
X153066667Y-114853810D01*
X153028571Y-114815714D01*
X152990476Y-114739524D01*
X152952381Y-114587143D01*
X152952381Y-114396667D01*
X152990476Y-114244286D01*
X153028571Y-114168095D01*
X153066667Y-114130000D01*
X153142857Y-114091905D01*
X151885714Y-104655714D02*
X151847619Y-104693810D01*
X151733333Y-104731905D01*
X151657143Y-104731905D01*
X151542857Y-104693810D01*
X151466666Y-104617619D01*
X151428571Y-104541429D01*
X151390476Y-104389048D01*
X151390476Y-104274762D01*
X151428571Y-104122381D01*
X151466666Y-104046190D01*
X151542857Y-103970000D01*
X151657143Y-103931905D01*
X151733333Y-103931905D01*
X151847619Y-103970000D01*
X151885714Y-104008095D01*
X152190476Y-104008095D02*
X152228571Y-103970000D01*
X152304762Y-103931905D01*
X152495238Y-103931905D01*
X152571428Y-103970000D01*
X152609524Y-104008095D01*
X152647619Y-104084286D01*
X152647619Y-104160476D01*
X152609524Y-104274762D01*
X152152381Y-104731905D01*
X152647619Y-104731905D01*
X153409524Y-104731905D02*
X152952381Y-104731905D01*
X153180952Y-104731905D02*
X153180952Y-103931905D01*
X153104762Y-104046190D01*
X153028571Y-104122381D01*
X152952381Y-104160476D01*
X151885714Y-93400714D02*
X151847619Y-93438810D01*
X151733333Y-93476905D01*
X151657143Y-93476905D01*
X151542857Y-93438810D01*
X151466666Y-93362619D01*
X151428571Y-93286429D01*
X151390476Y-93134048D01*
X151390476Y-93019762D01*
X151428571Y-92867381D01*
X151466666Y-92791190D01*
X151542857Y-92715000D01*
X151657143Y-92676905D01*
X151733333Y-92676905D01*
X151847619Y-92715000D01*
X151885714Y-92753095D01*
X152190476Y-92753095D02*
X152228571Y-92715000D01*
X152304762Y-92676905D01*
X152495238Y-92676905D01*
X152571428Y-92715000D01*
X152609524Y-92753095D01*
X152647619Y-92829286D01*
X152647619Y-92905476D01*
X152609524Y-93019762D01*
X152152381Y-93476905D01*
X152647619Y-93476905D01*
X152952381Y-92753095D02*
X152990476Y-92715000D01*
X153066667Y-92676905D01*
X153257143Y-92676905D01*
X153333333Y-92715000D01*
X153371429Y-92753095D01*
X153409524Y-92829286D01*
X153409524Y-92905476D01*
X153371429Y-93019762D01*
X152914286Y-93476905D01*
X153409524Y-93476905D01*
X109340714Y-92995714D02*
X109302619Y-93033810D01*
X109188333Y-93071905D01*
X109112143Y-93071905D01*
X108997857Y-93033810D01*
X108921666Y-92957619D01*
X108883571Y-92881429D01*
X108845476Y-92729048D01*
X108845476Y-92614762D01*
X108883571Y-92462381D01*
X108921666Y-92386190D01*
X108997857Y-92310000D01*
X109112143Y-92271905D01*
X109188333Y-92271905D01*
X109302619Y-92310000D01*
X109340714Y-92348095D01*
X109645476Y-92348095D02*
X109683571Y-92310000D01*
X109759762Y-92271905D01*
X109950238Y-92271905D01*
X110026428Y-92310000D01*
X110064524Y-92348095D01*
X110102619Y-92424286D01*
X110102619Y-92500476D01*
X110064524Y-92614762D01*
X109607381Y-93071905D01*
X110102619Y-93071905D01*
X110369286Y-92271905D02*
X110864524Y-92271905D01*
X110597857Y-92576667D01*
X110712143Y-92576667D01*
X110788333Y-92614762D01*
X110826429Y-92652857D01*
X110864524Y-92729048D01*
X110864524Y-92919524D01*
X110826429Y-92995714D01*
X110788333Y-93033810D01*
X110712143Y-93071905D01*
X110483571Y-93071905D01*
X110407381Y-93033810D01*
X110369286Y-92995714D01*
X149777524Y-84181905D02*
X149777524Y-83381905D01*
X149968000Y-83381905D01*
X150082286Y-83420000D01*
X150158477Y-83496190D01*
X150196572Y-83572381D01*
X150234667Y-83724762D01*
X150234667Y-83839048D01*
X150196572Y-83991429D01*
X150158477Y-84067619D01*
X150082286Y-84143810D01*
X149968000Y-84181905D01*
X149777524Y-84181905D01*
X150996572Y-84181905D02*
X150539429Y-84181905D01*
X150768000Y-84181905D02*
X150768000Y-83381905D01*
X150691810Y-83496190D01*
X150615619Y-83572381D01*
X150539429Y-83610476D01*
X98088524Y-99675905D02*
X98088524Y-98875905D01*
X98279000Y-98875905D01*
X98393286Y-98914000D01*
X98469477Y-98990190D01*
X98507572Y-99066381D01*
X98545667Y-99218762D01*
X98545667Y-99333048D01*
X98507572Y-99485429D01*
X98469477Y-99561619D01*
X98393286Y-99637810D01*
X98279000Y-99675905D01*
X98088524Y-99675905D01*
X98850429Y-98952095D02*
X98888524Y-98914000D01*
X98964715Y-98875905D01*
X99155191Y-98875905D01*
X99231381Y-98914000D01*
X99269477Y-98952095D01*
X99307572Y-99028286D01*
X99307572Y-99104476D01*
X99269477Y-99218762D01*
X98812334Y-99675905D01*
X99307572Y-99675905D01*
X97834524Y-109581905D02*
X97834524Y-108781905D01*
X98025000Y-108781905D01*
X98139286Y-108820000D01*
X98215477Y-108896190D01*
X98253572Y-108972381D01*
X98291667Y-109124762D01*
X98291667Y-109239048D01*
X98253572Y-109391429D01*
X98215477Y-109467619D01*
X98139286Y-109543810D01*
X98025000Y-109581905D01*
X97834524Y-109581905D01*
X98558334Y-108781905D02*
X99053572Y-108781905D01*
X98786905Y-109086667D01*
X98901191Y-109086667D01*
X98977381Y-109124762D01*
X99015477Y-109162857D01*
X99053572Y-109239048D01*
X99053572Y-109429524D01*
X99015477Y-109505714D01*
X98977381Y-109543810D01*
X98901191Y-109581905D01*
X98672619Y-109581905D01*
X98596429Y-109543810D01*
X98558334Y-109505714D01*
X97199524Y-120376905D02*
X97199524Y-119576905D01*
X97390000Y-119576905D01*
X97504286Y-119615000D01*
X97580477Y-119691190D01*
X97618572Y-119767381D01*
X97656667Y-119919762D01*
X97656667Y-120034048D01*
X97618572Y-120186429D01*
X97580477Y-120262619D01*
X97504286Y-120338810D01*
X97390000Y-120376905D01*
X97199524Y-120376905D01*
X98342381Y-119843571D02*
X98342381Y-120376905D01*
X98151905Y-119538810D02*
X97961429Y-120110238D01*
X98456667Y-120110238D01*
X97834524Y-129901905D02*
X97834524Y-129101905D01*
X98025000Y-129101905D01*
X98139286Y-129140000D01*
X98215477Y-129216190D01*
X98253572Y-129292381D01*
X98291667Y-129444762D01*
X98291667Y-129559048D01*
X98253572Y-129711429D01*
X98215477Y-129787619D01*
X98139286Y-129863810D01*
X98025000Y-129901905D01*
X97834524Y-129901905D01*
X99015477Y-129101905D02*
X98634524Y-129101905D01*
X98596429Y-129482857D01*
X98634524Y-129444762D01*
X98710715Y-129406667D01*
X98901191Y-129406667D01*
X98977381Y-129444762D01*
X99015477Y-129482857D01*
X99053572Y-129559048D01*
X99053572Y-129749524D01*
X99015477Y-129825714D01*
X98977381Y-129863810D01*
X98901191Y-129901905D01*
X98710715Y-129901905D01*
X98634524Y-129863810D01*
X98596429Y-129825714D01*
X158159524Y-134981905D02*
X158159524Y-134181905D01*
X158350000Y-134181905D01*
X158464286Y-134220000D01*
X158540477Y-134296190D01*
X158578572Y-134372381D01*
X158616667Y-134524762D01*
X158616667Y-134639048D01*
X158578572Y-134791429D01*
X158540477Y-134867619D01*
X158464286Y-134943810D01*
X158350000Y-134981905D01*
X158159524Y-134981905D01*
X159302381Y-134181905D02*
X159150000Y-134181905D01*
X159073810Y-134220000D01*
X159035715Y-134258095D01*
X158959524Y-134372381D01*
X158921429Y-134524762D01*
X158921429Y-134829524D01*
X158959524Y-134905714D01*
X158997619Y-134943810D01*
X159073810Y-134981905D01*
X159226191Y-134981905D01*
X159302381Y-134943810D01*
X159340477Y-134905714D01*
X159378572Y-134829524D01*
X159378572Y-134639048D01*
X159340477Y-134562857D01*
X159302381Y-134524762D01*
X159226191Y-134486667D01*
X159073810Y-134486667D01*
X158997619Y-134524762D01*
X158959524Y-134562857D01*
X158921429Y-134639048D01*
X158159524Y-124821905D02*
X158159524Y-124021905D01*
X158350000Y-124021905D01*
X158464286Y-124060000D01*
X158540477Y-124136190D01*
X158578572Y-124212381D01*
X158616667Y-124364762D01*
X158616667Y-124479048D01*
X158578572Y-124631429D01*
X158540477Y-124707619D01*
X158464286Y-124783810D01*
X158350000Y-124821905D01*
X158159524Y-124821905D01*
X158883334Y-124021905D02*
X159416667Y-124021905D01*
X159073810Y-124821905D01*
X158159524Y-114661905D02*
X158159524Y-113861905D01*
X158350000Y-113861905D01*
X158464286Y-113900000D01*
X158540477Y-113976190D01*
X158578572Y-114052381D01*
X158616667Y-114204762D01*
X158616667Y-114319048D01*
X158578572Y-114471429D01*
X158540477Y-114547619D01*
X158464286Y-114623810D01*
X158350000Y-114661905D01*
X158159524Y-114661905D01*
X159073810Y-114204762D02*
X158997619Y-114166667D01*
X158959524Y-114128571D01*
X158921429Y-114052381D01*
X158921429Y-114014286D01*
X158959524Y-113938095D01*
X158997619Y-113900000D01*
X159073810Y-113861905D01*
X159226191Y-113861905D01*
X159302381Y-113900000D01*
X159340477Y-113938095D01*
X159378572Y-114014286D01*
X159378572Y-114052381D01*
X159340477Y-114128571D01*
X159302381Y-114166667D01*
X159226191Y-114204762D01*
X159073810Y-114204762D01*
X158997619Y-114242857D01*
X158959524Y-114280952D01*
X158921429Y-114357143D01*
X158921429Y-114509524D01*
X158959524Y-114585714D01*
X158997619Y-114623810D01*
X159073810Y-114661905D01*
X159226191Y-114661905D01*
X159302381Y-114623810D01*
X159340477Y-114585714D01*
X159378572Y-114509524D01*
X159378572Y-114357143D01*
X159340477Y-114280952D01*
X159302381Y-114242857D01*
X159226191Y-114204762D01*
X158159524Y-104501905D02*
X158159524Y-103701905D01*
X158350000Y-103701905D01*
X158464286Y-103740000D01*
X158540477Y-103816190D01*
X158578572Y-103892381D01*
X158616667Y-104044762D01*
X158616667Y-104159048D01*
X158578572Y-104311429D01*
X158540477Y-104387619D01*
X158464286Y-104463810D01*
X158350000Y-104501905D01*
X158159524Y-104501905D01*
X158997619Y-104501905D02*
X159150000Y-104501905D01*
X159226191Y-104463810D01*
X159264286Y-104425714D01*
X159340477Y-104311429D01*
X159378572Y-104159048D01*
X159378572Y-103854286D01*
X159340477Y-103778095D01*
X159302381Y-103740000D01*
X159226191Y-103701905D01*
X159073810Y-103701905D01*
X158997619Y-103740000D01*
X158959524Y-103778095D01*
X158921429Y-103854286D01*
X158921429Y-104044762D01*
X158959524Y-104120952D01*
X158997619Y-104159048D01*
X159073810Y-104197143D01*
X159226191Y-104197143D01*
X159302381Y-104159048D01*
X159340477Y-104120952D01*
X159378572Y-104044762D01*
X160318571Y-95791905D02*
X160318571Y-94991905D01*
X160509047Y-94991905D01*
X160623333Y-95030000D01*
X160699524Y-95106190D01*
X160737619Y-95182381D01*
X160775714Y-95334762D01*
X160775714Y-95449048D01*
X160737619Y-95601429D01*
X160699524Y-95677619D01*
X160623333Y-95753810D01*
X160509047Y-95791905D01*
X160318571Y-95791905D01*
X161537619Y-95791905D02*
X161080476Y-95791905D01*
X161309047Y-95791905D02*
X161309047Y-94991905D01*
X161232857Y-95106190D01*
X161156666Y-95182381D01*
X161080476Y-95220476D01*
X162032857Y-94991905D02*
X162109048Y-94991905D01*
X162185238Y-95030000D01*
X162223333Y-95068095D01*
X162261429Y-95144286D01*
X162299524Y-95296667D01*
X162299524Y-95487143D01*
X162261429Y-95639524D01*
X162223333Y-95715714D01*
X162185238Y-95753810D01*
X162109048Y-95791905D01*
X162032857Y-95791905D01*
X161956667Y-95753810D01*
X161918571Y-95715714D01*
X161880476Y-95639524D01*
X161842381Y-95487143D01*
X161842381Y-95296667D01*
X161880476Y-95144286D01*
X161918571Y-95068095D01*
X161956667Y-95030000D01*
X162032857Y-94991905D01*
X100628571Y-87811905D02*
X100628571Y-87011905D01*
X100819047Y-87011905D01*
X100933333Y-87050000D01*
X101009524Y-87126190D01*
X101047619Y-87202381D01*
X101085714Y-87354762D01*
X101085714Y-87469048D01*
X101047619Y-87621429D01*
X101009524Y-87697619D01*
X100933333Y-87773810D01*
X100819047Y-87811905D01*
X100628571Y-87811905D01*
X101847619Y-87811905D02*
X101390476Y-87811905D01*
X101619047Y-87811905D02*
X101619047Y-87011905D01*
X101542857Y-87126190D01*
X101466666Y-87202381D01*
X101390476Y-87240476D01*
X102609524Y-87811905D02*
X102152381Y-87811905D01*
X102380952Y-87811905D02*
X102380952Y-87011905D01*
X102304762Y-87126190D01*
X102228571Y-87202381D01*
X102152381Y-87240476D01*
X90284334Y-83000857D02*
X90017667Y-83000857D01*
X90017667Y-83419905D02*
X90017667Y-82619905D01*
X90398620Y-82619905D01*
X91122429Y-83419905D02*
X90665286Y-83419905D01*
X90893857Y-83419905D02*
X90893857Y-82619905D01*
X90817667Y-82734190D01*
X90741476Y-82810381D01*
X90665286Y-82848476D01*
X92173334Y-90422857D02*
X91906667Y-90422857D01*
X91906667Y-90841905D02*
X91906667Y-90041905D01*
X92287620Y-90041905D01*
X92554286Y-90118095D02*
X92592381Y-90080000D01*
X92668572Y-90041905D01*
X92859048Y-90041905D01*
X92935238Y-90080000D01*
X92973334Y-90118095D01*
X93011429Y-90194286D01*
X93011429Y-90270476D01*
X92973334Y-90384762D01*
X92516191Y-90841905D01*
X93011429Y-90841905D01*
X92173334Y-100582857D02*
X91906667Y-100582857D01*
X91906667Y-101001905D02*
X91906667Y-100201905D01*
X92287620Y-100201905D01*
X92516191Y-100201905D02*
X93011429Y-100201905D01*
X92744762Y-100506667D01*
X92859048Y-100506667D01*
X92935238Y-100544762D01*
X92973334Y-100582857D01*
X93011429Y-100659048D01*
X93011429Y-100849524D01*
X92973334Y-100925714D01*
X92935238Y-100963810D01*
X92859048Y-101001905D01*
X92630476Y-101001905D01*
X92554286Y-100963810D01*
X92516191Y-100925714D01*
X92173334Y-110742857D02*
X91906667Y-110742857D01*
X91906667Y-111161905D02*
X91906667Y-110361905D01*
X92287620Y-110361905D01*
X92935238Y-110628571D02*
X92935238Y-111161905D01*
X92744762Y-110323810D02*
X92554286Y-110895238D01*
X93049524Y-110895238D01*
X92173334Y-120902857D02*
X91906667Y-120902857D01*
X91906667Y-121321905D02*
X91906667Y-120521905D01*
X92287620Y-120521905D01*
X92973334Y-120521905D02*
X92592381Y-120521905D01*
X92554286Y-120902857D01*
X92592381Y-120864762D01*
X92668572Y-120826667D01*
X92859048Y-120826667D01*
X92935238Y-120864762D01*
X92973334Y-120902857D01*
X93011429Y-120979048D01*
X93011429Y-121169524D01*
X92973334Y-121245714D01*
X92935238Y-121283810D01*
X92859048Y-121321905D01*
X92668572Y-121321905D01*
X92592381Y-121283810D01*
X92554286Y-121245714D01*
X92173334Y-129792857D02*
X91906667Y-129792857D01*
X91906667Y-130211905D02*
X91906667Y-129411905D01*
X92287620Y-129411905D01*
X92935238Y-129411905D02*
X92782857Y-129411905D01*
X92706667Y-129450000D01*
X92668572Y-129488095D01*
X92592381Y-129602381D01*
X92554286Y-129754762D01*
X92554286Y-130059524D01*
X92592381Y-130135714D01*
X92630476Y-130173810D01*
X92706667Y-130211905D01*
X92859048Y-130211905D01*
X92935238Y-130173810D01*
X92973334Y-130135714D01*
X93011429Y-130059524D01*
X93011429Y-129869048D01*
X92973334Y-129792857D01*
X92935238Y-129754762D01*
X92859048Y-129716667D01*
X92706667Y-129716667D01*
X92630476Y-129754762D01*
X92592381Y-129792857D01*
X92554286Y-129869048D01*
X138988810Y-94363095D02*
X138912619Y-94325000D01*
X138836429Y-94248810D01*
X138722143Y-94134524D01*
X138645952Y-94096429D01*
X138569762Y-94096429D01*
X138607857Y-94286905D02*
X138531667Y-94248810D01*
X138455476Y-94172619D01*
X138417381Y-94020238D01*
X138417381Y-93753571D01*
X138455476Y-93601190D01*
X138531667Y-93525000D01*
X138607857Y-93486905D01*
X138760238Y-93486905D01*
X138836429Y-93525000D01*
X138912619Y-93601190D01*
X138950714Y-93753571D01*
X138950714Y-94020238D01*
X138912619Y-94172619D01*
X138836429Y-94248810D01*
X138760238Y-94286905D01*
X138607857Y-94286905D01*
X139712619Y-94286905D02*
X139255476Y-94286905D01*
X139484047Y-94286905D02*
X139484047Y-93486905D01*
X139407857Y-93601190D01*
X139331666Y-93677381D01*
X139255476Y-93715476D01*
X109143810Y-99498095D02*
X109067619Y-99460000D01*
X108991429Y-99383810D01*
X108877143Y-99269524D01*
X108800952Y-99231429D01*
X108724762Y-99231429D01*
X108762857Y-99421905D02*
X108686667Y-99383810D01*
X108610476Y-99307619D01*
X108572381Y-99155238D01*
X108572381Y-98888571D01*
X108610476Y-98736190D01*
X108686667Y-98660000D01*
X108762857Y-98621905D01*
X108915238Y-98621905D01*
X108991429Y-98660000D01*
X109067619Y-98736190D01*
X109105714Y-98888571D01*
X109105714Y-99155238D01*
X109067619Y-99307619D01*
X108991429Y-99383810D01*
X108915238Y-99421905D01*
X108762857Y-99421905D01*
X109410476Y-98698095D02*
X109448571Y-98660000D01*
X109524762Y-98621905D01*
X109715238Y-98621905D01*
X109791428Y-98660000D01*
X109829524Y-98698095D01*
X109867619Y-98774286D01*
X109867619Y-98850476D01*
X109829524Y-98964762D01*
X109372381Y-99421905D01*
X109867619Y-99421905D01*
X109270810Y-109658095D02*
X109194619Y-109620000D01*
X109118429Y-109543810D01*
X109004143Y-109429524D01*
X108927952Y-109391429D01*
X108851762Y-109391429D01*
X108889857Y-109581905D02*
X108813667Y-109543810D01*
X108737476Y-109467619D01*
X108699381Y-109315238D01*
X108699381Y-109048571D01*
X108737476Y-108896190D01*
X108813667Y-108820000D01*
X108889857Y-108781905D01*
X109042238Y-108781905D01*
X109118429Y-108820000D01*
X109194619Y-108896190D01*
X109232714Y-109048571D01*
X109232714Y-109315238D01*
X109194619Y-109467619D01*
X109118429Y-109543810D01*
X109042238Y-109581905D01*
X108889857Y-109581905D01*
X109499381Y-108781905D02*
X109994619Y-108781905D01*
X109727952Y-109086667D01*
X109842238Y-109086667D01*
X109918428Y-109124762D01*
X109956524Y-109162857D01*
X109994619Y-109239048D01*
X109994619Y-109429524D01*
X109956524Y-109505714D01*
X109918428Y-109543810D01*
X109842238Y-109581905D01*
X109613666Y-109581905D01*
X109537476Y-109543810D01*
X109499381Y-109505714D01*
X109143810Y-119818095D02*
X109067619Y-119780000D01*
X108991429Y-119703810D01*
X108877143Y-119589524D01*
X108800952Y-119551429D01*
X108724762Y-119551429D01*
X108762857Y-119741905D02*
X108686667Y-119703810D01*
X108610476Y-119627619D01*
X108572381Y-119475238D01*
X108572381Y-119208571D01*
X108610476Y-119056190D01*
X108686667Y-118980000D01*
X108762857Y-118941905D01*
X108915238Y-118941905D01*
X108991429Y-118980000D01*
X109067619Y-119056190D01*
X109105714Y-119208571D01*
X109105714Y-119475238D01*
X109067619Y-119627619D01*
X108991429Y-119703810D01*
X108915238Y-119741905D01*
X108762857Y-119741905D01*
X109791428Y-119208571D02*
X109791428Y-119741905D01*
X109600952Y-118903810D02*
X109410476Y-119475238D01*
X109905714Y-119475238D01*
X109143810Y-129978095D02*
X109067619Y-129940000D01*
X108991429Y-129863810D01*
X108877143Y-129749524D01*
X108800952Y-129711429D01*
X108724762Y-129711429D01*
X108762857Y-129901905D02*
X108686667Y-129863810D01*
X108610476Y-129787619D01*
X108572381Y-129635238D01*
X108572381Y-129368571D01*
X108610476Y-129216190D01*
X108686667Y-129140000D01*
X108762857Y-129101905D01*
X108915238Y-129101905D01*
X108991429Y-129140000D01*
X109067619Y-129216190D01*
X109105714Y-129368571D01*
X109105714Y-129635238D01*
X109067619Y-129787619D01*
X108991429Y-129863810D01*
X108915238Y-129901905D01*
X108762857Y-129901905D01*
X109829524Y-129101905D02*
X109448571Y-129101905D01*
X109410476Y-129482857D01*
X109448571Y-129444762D01*
X109524762Y-129406667D01*
X109715238Y-129406667D01*
X109791428Y-129444762D01*
X109829524Y-129482857D01*
X109867619Y-129559048D01*
X109867619Y-129749524D01*
X109829524Y-129825714D01*
X109791428Y-129863810D01*
X109715238Y-129901905D01*
X109524762Y-129901905D01*
X109448571Y-129863810D01*
X109410476Y-129825714D01*
X156133810Y-132558095D02*
X156057619Y-132520000D01*
X155981429Y-132443810D01*
X155867143Y-132329524D01*
X155790952Y-132291429D01*
X155714762Y-132291429D01*
X155752857Y-132481905D02*
X155676667Y-132443810D01*
X155600476Y-132367619D01*
X155562381Y-132215238D01*
X155562381Y-131948571D01*
X155600476Y-131796190D01*
X155676667Y-131720000D01*
X155752857Y-131681905D01*
X155905238Y-131681905D01*
X155981429Y-131720000D01*
X156057619Y-131796190D01*
X156095714Y-131948571D01*
X156095714Y-132215238D01*
X156057619Y-132367619D01*
X155981429Y-132443810D01*
X155905238Y-132481905D01*
X155752857Y-132481905D01*
X156781428Y-131681905D02*
X156629047Y-131681905D01*
X156552857Y-131720000D01*
X156514762Y-131758095D01*
X156438571Y-131872381D01*
X156400476Y-132024762D01*
X156400476Y-132329524D01*
X156438571Y-132405714D01*
X156476666Y-132443810D01*
X156552857Y-132481905D01*
X156705238Y-132481905D01*
X156781428Y-132443810D01*
X156819524Y-132405714D01*
X156857619Y-132329524D01*
X156857619Y-132139048D01*
X156819524Y-132062857D01*
X156781428Y-132024762D01*
X156705238Y-131986667D01*
X156552857Y-131986667D01*
X156476666Y-132024762D01*
X156438571Y-132062857D01*
X156400476Y-132139048D01*
X156133810Y-122398095D02*
X156057619Y-122360000D01*
X155981429Y-122283810D01*
X155867143Y-122169524D01*
X155790952Y-122131429D01*
X155714762Y-122131429D01*
X155752857Y-122321905D02*
X155676667Y-122283810D01*
X155600476Y-122207619D01*
X155562381Y-122055238D01*
X155562381Y-121788571D01*
X155600476Y-121636190D01*
X155676667Y-121560000D01*
X155752857Y-121521905D01*
X155905238Y-121521905D01*
X155981429Y-121560000D01*
X156057619Y-121636190D01*
X156095714Y-121788571D01*
X156095714Y-122055238D01*
X156057619Y-122207619D01*
X155981429Y-122283810D01*
X155905238Y-122321905D01*
X155752857Y-122321905D01*
X156362381Y-121521905D02*
X156895714Y-121521905D01*
X156552857Y-122321905D01*
X156133810Y-112238095D02*
X156057619Y-112200000D01*
X155981429Y-112123810D01*
X155867143Y-112009524D01*
X155790952Y-111971429D01*
X155714762Y-111971429D01*
X155752857Y-112161905D02*
X155676667Y-112123810D01*
X155600476Y-112047619D01*
X155562381Y-111895238D01*
X155562381Y-111628571D01*
X155600476Y-111476190D01*
X155676667Y-111400000D01*
X155752857Y-111361905D01*
X155905238Y-111361905D01*
X155981429Y-111400000D01*
X156057619Y-111476190D01*
X156095714Y-111628571D01*
X156095714Y-111895238D01*
X156057619Y-112047619D01*
X155981429Y-112123810D01*
X155905238Y-112161905D01*
X155752857Y-112161905D01*
X156552857Y-111704762D02*
X156476666Y-111666667D01*
X156438571Y-111628571D01*
X156400476Y-111552381D01*
X156400476Y-111514286D01*
X156438571Y-111438095D01*
X156476666Y-111400000D01*
X156552857Y-111361905D01*
X156705238Y-111361905D01*
X156781428Y-111400000D01*
X156819524Y-111438095D01*
X156857619Y-111514286D01*
X156857619Y-111552381D01*
X156819524Y-111628571D01*
X156781428Y-111666667D01*
X156705238Y-111704762D01*
X156552857Y-111704762D01*
X156476666Y-111742857D01*
X156438571Y-111780952D01*
X156400476Y-111857143D01*
X156400476Y-112009524D01*
X156438571Y-112085714D01*
X156476666Y-112123810D01*
X156552857Y-112161905D01*
X156705238Y-112161905D01*
X156781428Y-112123810D01*
X156819524Y-112085714D01*
X156857619Y-112009524D01*
X156857619Y-111857143D01*
X156819524Y-111780952D01*
X156781428Y-111742857D01*
X156705238Y-111704762D01*
X156133810Y-102078095D02*
X156057619Y-102040000D01*
X155981429Y-101963810D01*
X155867143Y-101849524D01*
X155790952Y-101811429D01*
X155714762Y-101811429D01*
X155752857Y-102001905D02*
X155676667Y-101963810D01*
X155600476Y-101887619D01*
X155562381Y-101735238D01*
X155562381Y-101468571D01*
X155600476Y-101316190D01*
X155676667Y-101240000D01*
X155752857Y-101201905D01*
X155905238Y-101201905D01*
X155981429Y-101240000D01*
X156057619Y-101316190D01*
X156095714Y-101468571D01*
X156095714Y-101735238D01*
X156057619Y-101887619D01*
X155981429Y-101963810D01*
X155905238Y-102001905D01*
X155752857Y-102001905D01*
X156476666Y-102001905D02*
X156629047Y-102001905D01*
X156705238Y-101963810D01*
X156743333Y-101925714D01*
X156819524Y-101811429D01*
X156857619Y-101659048D01*
X156857619Y-101354286D01*
X156819524Y-101278095D01*
X156781428Y-101240000D01*
X156705238Y-101201905D01*
X156552857Y-101201905D01*
X156476666Y-101240000D01*
X156438571Y-101278095D01*
X156400476Y-101354286D01*
X156400476Y-101544762D01*
X156438571Y-101620952D01*
X156476666Y-101659048D01*
X156552857Y-101697143D01*
X156705238Y-101697143D01*
X156781428Y-101659048D01*
X156819524Y-101620952D01*
X156857619Y-101544762D01*
X155752858Y-91878095D02*
X155676667Y-91840000D01*
X155600477Y-91763810D01*
X155486191Y-91649524D01*
X155410000Y-91611429D01*
X155333810Y-91611429D01*
X155371905Y-91801905D02*
X155295715Y-91763810D01*
X155219524Y-91687619D01*
X155181429Y-91535238D01*
X155181429Y-91268571D01*
X155219524Y-91116190D01*
X155295715Y-91040000D01*
X155371905Y-91001905D01*
X155524286Y-91001905D01*
X155600477Y-91040000D01*
X155676667Y-91116190D01*
X155714762Y-91268571D01*
X155714762Y-91535238D01*
X155676667Y-91687619D01*
X155600477Y-91763810D01*
X155524286Y-91801905D01*
X155371905Y-91801905D01*
X156476667Y-91801905D02*
X156019524Y-91801905D01*
X156248095Y-91801905D02*
X156248095Y-91001905D01*
X156171905Y-91116190D01*
X156095714Y-91192381D01*
X156019524Y-91230476D01*
X156971905Y-91001905D02*
X157048096Y-91001905D01*
X157124286Y-91040000D01*
X157162381Y-91078095D01*
X157200477Y-91154286D01*
X157238572Y-91306667D01*
X157238572Y-91497143D01*
X157200477Y-91649524D01*
X157162381Y-91725714D01*
X157124286Y-91763810D01*
X157048096Y-91801905D01*
X156971905Y-91801905D01*
X156895715Y-91763810D01*
X156857619Y-91725714D01*
X156819524Y-91649524D01*
X156781429Y-91497143D01*
X156781429Y-91306667D01*
X156819524Y-91154286D01*
X156857619Y-91078095D01*
X156895715Y-91040000D01*
X156971905Y-91001905D01*
X109397858Y-89338095D02*
X109321667Y-89300000D01*
X109245477Y-89223810D01*
X109131191Y-89109524D01*
X109055000Y-89071429D01*
X108978810Y-89071429D01*
X109016905Y-89261905D02*
X108940715Y-89223810D01*
X108864524Y-89147619D01*
X108826429Y-88995238D01*
X108826429Y-88728571D01*
X108864524Y-88576190D01*
X108940715Y-88500000D01*
X109016905Y-88461905D01*
X109169286Y-88461905D01*
X109245477Y-88500000D01*
X109321667Y-88576190D01*
X109359762Y-88728571D01*
X109359762Y-88995238D01*
X109321667Y-89147619D01*
X109245477Y-89223810D01*
X109169286Y-89261905D01*
X109016905Y-89261905D01*
X110121667Y-89261905D02*
X109664524Y-89261905D01*
X109893095Y-89261905D02*
X109893095Y-88461905D01*
X109816905Y-88576190D01*
X109740714Y-88652381D01*
X109664524Y-88690476D01*
X110883572Y-89261905D02*
X110426429Y-89261905D01*
X110655000Y-89261905D02*
X110655000Y-88461905D01*
X110578810Y-88576190D01*
X110502619Y-88652381D01*
X110426429Y-88690476D01*
X134486667Y-109201905D02*
X134220000Y-108820952D01*
X134029524Y-109201905D02*
X134029524Y-108401905D01*
X134334286Y-108401905D01*
X134410477Y-108440000D01*
X134448572Y-108478095D01*
X134486667Y-108554286D01*
X134486667Y-108668571D01*
X134448572Y-108744762D01*
X134410477Y-108782857D01*
X134334286Y-108820952D01*
X134029524Y-108820952D01*
X135248572Y-109201905D02*
X134791429Y-109201905D01*
X135020000Y-109201905D02*
X135020000Y-108401905D01*
X134943810Y-108516190D01*
X134867619Y-108592381D01*
X134791429Y-108630476D01*
X126344905Y-88271333D02*
X125963952Y-88538000D01*
X126344905Y-88728476D02*
X125544905Y-88728476D01*
X125544905Y-88423714D01*
X125583000Y-88347523D01*
X125621095Y-88309428D01*
X125697286Y-88271333D01*
X125811571Y-88271333D01*
X125887762Y-88309428D01*
X125925857Y-88347523D01*
X125963952Y-88423714D01*
X125963952Y-88728476D01*
X125621095Y-87966571D02*
X125583000Y-87928476D01*
X125544905Y-87852285D01*
X125544905Y-87661809D01*
X125583000Y-87585619D01*
X125621095Y-87547523D01*
X125697286Y-87509428D01*
X125773476Y-87509428D01*
X125887762Y-87547523D01*
X126344905Y-88004666D01*
X126344905Y-87509428D01*
X107040905Y-74555333D02*
X106659952Y-74822000D01*
X107040905Y-75012476D02*
X106240905Y-75012476D01*
X106240905Y-74707714D01*
X106279000Y-74631523D01*
X106317095Y-74593428D01*
X106393286Y-74555333D01*
X106507571Y-74555333D01*
X106583762Y-74593428D01*
X106621857Y-74631523D01*
X106659952Y-74707714D01*
X106659952Y-75012476D01*
X106240905Y-74288666D02*
X106240905Y-73793428D01*
X106545667Y-74060095D01*
X106545667Y-73945809D01*
X106583762Y-73869619D01*
X106621857Y-73831523D01*
X106698048Y-73793428D01*
X106888524Y-73793428D01*
X106964714Y-73831523D01*
X107002810Y-73869619D01*
X107040905Y-73945809D01*
X107040905Y-74174381D01*
X107002810Y-74250571D01*
X106964714Y-74288666D01*
X104641667Y-68941905D02*
X104375000Y-68560952D01*
X104184524Y-68941905D02*
X104184524Y-68141905D01*
X104489286Y-68141905D01*
X104565477Y-68180000D01*
X104603572Y-68218095D01*
X104641667Y-68294286D01*
X104641667Y-68408571D01*
X104603572Y-68484762D01*
X104565477Y-68522857D01*
X104489286Y-68560952D01*
X104184524Y-68560952D01*
X105327381Y-68408571D02*
X105327381Y-68941905D01*
X105136905Y-68103810D02*
X104946429Y-68675238D01*
X105441667Y-68675238D01*
X131946667Y-81261905D02*
X131680000Y-80880952D01*
X131489524Y-81261905D02*
X131489524Y-80461905D01*
X131794286Y-80461905D01*
X131870477Y-80500000D01*
X131908572Y-80538095D01*
X131946667Y-80614286D01*
X131946667Y-80728571D01*
X131908572Y-80804762D01*
X131870477Y-80842857D01*
X131794286Y-80880952D01*
X131489524Y-80880952D01*
X132670477Y-80461905D02*
X132289524Y-80461905D01*
X132251429Y-80842857D01*
X132289524Y-80804762D01*
X132365715Y-80766667D01*
X132556191Y-80766667D01*
X132632381Y-80804762D01*
X132670477Y-80842857D01*
X132708572Y-80919048D01*
X132708572Y-81109524D01*
X132670477Y-81185714D01*
X132632381Y-81223810D01*
X132556191Y-81261905D01*
X132365715Y-81261905D01*
X132289524Y-81223810D01*
X132251429Y-81185714D01*
X130295667Y-77197905D02*
X130029000Y-76816952D01*
X129838524Y-77197905D02*
X129838524Y-76397905D01*
X130143286Y-76397905D01*
X130219477Y-76436000D01*
X130257572Y-76474095D01*
X130295667Y-76550286D01*
X130295667Y-76664571D01*
X130257572Y-76740762D01*
X130219477Y-76778857D01*
X130143286Y-76816952D01*
X129838524Y-76816952D01*
X130981381Y-76397905D02*
X130829000Y-76397905D01*
X130752810Y-76436000D01*
X130714715Y-76474095D01*
X130638524Y-76588381D01*
X130600429Y-76740762D01*
X130600429Y-77045524D01*
X130638524Y-77121714D01*
X130676619Y-77159810D01*
X130752810Y-77197905D01*
X130905191Y-77197905D01*
X130981381Y-77159810D01*
X131019477Y-77121714D01*
X131057572Y-77045524D01*
X131057572Y-76855048D01*
X131019477Y-76778857D01*
X130981381Y-76740762D01*
X130905191Y-76702667D01*
X130752810Y-76702667D01*
X130676619Y-76740762D01*
X130638524Y-76778857D01*
X130600429Y-76855048D01*
X131946667Y-85071905D02*
X131680000Y-84690952D01*
X131489524Y-85071905D02*
X131489524Y-84271905D01*
X131794286Y-84271905D01*
X131870477Y-84310000D01*
X131908572Y-84348095D01*
X131946667Y-84424286D01*
X131946667Y-84538571D01*
X131908572Y-84614762D01*
X131870477Y-84652857D01*
X131794286Y-84690952D01*
X131489524Y-84690952D01*
X132213334Y-84271905D02*
X132746667Y-84271905D01*
X132403810Y-85071905D01*
X139185714Y-82021905D02*
X138919047Y-81640952D01*
X138728571Y-82021905D02*
X138728571Y-81221905D01*
X139033333Y-81221905D01*
X139109524Y-81260000D01*
X139147619Y-81298095D01*
X139185714Y-81374286D01*
X139185714Y-81488571D01*
X139147619Y-81564762D01*
X139109524Y-81602857D01*
X139033333Y-81640952D01*
X138728571Y-81640952D01*
X139947619Y-82021905D02*
X139490476Y-82021905D01*
X139719047Y-82021905D02*
X139719047Y-81221905D01*
X139642857Y-81336190D01*
X139566666Y-81412381D01*
X139490476Y-81450476D01*
X140404762Y-81564762D02*
X140328571Y-81526667D01*
X140290476Y-81488571D01*
X140252381Y-81412381D01*
X140252381Y-81374286D01*
X140290476Y-81298095D01*
X140328571Y-81260000D01*
X140404762Y-81221905D01*
X140557143Y-81221905D01*
X140633333Y-81260000D01*
X140671429Y-81298095D01*
X140709524Y-81374286D01*
X140709524Y-81412381D01*
X140671429Y-81488571D01*
X140633333Y-81526667D01*
X140557143Y-81564762D01*
X140404762Y-81564762D01*
X140328571Y-81602857D01*
X140290476Y-81640952D01*
X140252381Y-81717143D01*
X140252381Y-81869524D01*
X140290476Y-81945714D01*
X140328571Y-81983810D01*
X140404762Y-82021905D01*
X140557143Y-82021905D01*
X140633333Y-81983810D01*
X140671429Y-81945714D01*
X140709524Y-81869524D01*
X140709524Y-81717143D01*
X140671429Y-81640952D01*
X140633333Y-81602857D01*
X140557143Y-81564762D01*
X139185714Y-76181905D02*
X138919047Y-75800952D01*
X138728571Y-76181905D02*
X138728571Y-75381905D01*
X139033333Y-75381905D01*
X139109524Y-75420000D01*
X139147619Y-75458095D01*
X139185714Y-75534286D01*
X139185714Y-75648571D01*
X139147619Y-75724762D01*
X139109524Y-75762857D01*
X139033333Y-75800952D01*
X138728571Y-75800952D01*
X139947619Y-76181905D02*
X139490476Y-76181905D01*
X139719047Y-76181905D02*
X139719047Y-75381905D01*
X139642857Y-75496190D01*
X139566666Y-75572381D01*
X139490476Y-75610476D01*
X140328571Y-76181905D02*
X140480952Y-76181905D01*
X140557143Y-76143810D01*
X140595238Y-76105714D01*
X140671429Y-75991429D01*
X140709524Y-75839048D01*
X140709524Y-75534286D01*
X140671429Y-75458095D01*
X140633333Y-75420000D01*
X140557143Y-75381905D01*
X140404762Y-75381905D01*
X140328571Y-75420000D01*
X140290476Y-75458095D01*
X140252381Y-75534286D01*
X140252381Y-75724762D01*
X140290476Y-75800952D01*
X140328571Y-75839048D01*
X140404762Y-75877143D01*
X140557143Y-75877143D01*
X140633333Y-75839048D01*
X140671429Y-75800952D01*
X140709524Y-75724762D01*
X139185714Y-75671905D02*
X138919047Y-75290952D01*
X138728571Y-75671905D02*
X138728571Y-74871905D01*
X139033333Y-74871905D01*
X139109524Y-74910000D01*
X139147619Y-74948095D01*
X139185714Y-75024286D01*
X139185714Y-75138571D01*
X139147619Y-75214762D01*
X139109524Y-75252857D01*
X139033333Y-75290952D01*
X138728571Y-75290952D01*
X139490476Y-74948095D02*
X139528571Y-74910000D01*
X139604762Y-74871905D01*
X139795238Y-74871905D01*
X139871428Y-74910000D01*
X139909524Y-74948095D01*
X139947619Y-75024286D01*
X139947619Y-75100476D01*
X139909524Y-75214762D01*
X139452381Y-75671905D01*
X139947619Y-75671905D01*
X140442857Y-74871905D02*
X140519048Y-74871905D01*
X140595238Y-74910000D01*
X140633333Y-74948095D01*
X140671429Y-75024286D01*
X140709524Y-75176667D01*
X140709524Y-75367143D01*
X140671429Y-75519524D01*
X140633333Y-75595714D01*
X140595238Y-75633810D01*
X140519048Y-75671905D01*
X140442857Y-75671905D01*
X140366667Y-75633810D01*
X140328571Y-75595714D01*
X140290476Y-75519524D01*
X140252381Y-75367143D01*
X140252381Y-75176667D01*
X140290476Y-75024286D01*
X140328571Y-74948095D01*
X140366667Y-74910000D01*
X140442857Y-74871905D01*
X131565714Y-87611905D02*
X131299047Y-87230952D01*
X131108571Y-87611905D02*
X131108571Y-86811905D01*
X131413333Y-86811905D01*
X131489524Y-86850000D01*
X131527619Y-86888095D01*
X131565714Y-86964286D01*
X131565714Y-87078571D01*
X131527619Y-87154762D01*
X131489524Y-87192857D01*
X131413333Y-87230952D01*
X131108571Y-87230952D01*
X131870476Y-86888095D02*
X131908571Y-86850000D01*
X131984762Y-86811905D01*
X132175238Y-86811905D01*
X132251428Y-86850000D01*
X132289524Y-86888095D01*
X132327619Y-86964286D01*
X132327619Y-87040476D01*
X132289524Y-87154762D01*
X131832381Y-87611905D01*
X132327619Y-87611905D01*
X133089524Y-87611905D02*
X132632381Y-87611905D01*
X132860952Y-87611905D02*
X132860952Y-86811905D01*
X132784762Y-86926190D01*
X132708571Y-87002381D01*
X132632381Y-87040476D01*
X101085714Y-104881905D02*
X100819047Y-104500952D01*
X100628571Y-104881905D02*
X100628571Y-104081905D01*
X100933333Y-104081905D01*
X101009524Y-104120000D01*
X101047619Y-104158095D01*
X101085714Y-104234286D01*
X101085714Y-104348571D01*
X101047619Y-104424762D01*
X101009524Y-104462857D01*
X100933333Y-104500952D01*
X100628571Y-104500952D01*
X101390476Y-104158095D02*
X101428571Y-104120000D01*
X101504762Y-104081905D01*
X101695238Y-104081905D01*
X101771428Y-104120000D01*
X101809524Y-104158095D01*
X101847619Y-104234286D01*
X101847619Y-104310476D01*
X101809524Y-104424762D01*
X101352381Y-104881905D01*
X101847619Y-104881905D01*
X102114286Y-104081905D02*
X102609524Y-104081905D01*
X102342857Y-104386667D01*
X102457143Y-104386667D01*
X102533333Y-104424762D01*
X102571429Y-104462857D01*
X102609524Y-104539048D01*
X102609524Y-104729524D01*
X102571429Y-104805714D01*
X102533333Y-104843810D01*
X102457143Y-104881905D01*
X102228571Y-104881905D01*
X102152381Y-104843810D01*
X102114286Y-104805714D01*
X98164714Y-97643905D02*
X97898047Y-97262952D01*
X97707571Y-97643905D02*
X97707571Y-96843905D01*
X98012333Y-96843905D01*
X98088524Y-96882000D01*
X98126619Y-96920095D01*
X98164714Y-96996286D01*
X98164714Y-97110571D01*
X98126619Y-97186762D01*
X98088524Y-97224857D01*
X98012333Y-97262952D01*
X97707571Y-97262952D01*
X98469476Y-96920095D02*
X98507571Y-96882000D01*
X98583762Y-96843905D01*
X98774238Y-96843905D01*
X98850428Y-96882000D01*
X98888524Y-96920095D01*
X98926619Y-96996286D01*
X98926619Y-97072476D01*
X98888524Y-97186762D01*
X98431381Y-97643905D01*
X98926619Y-97643905D01*
X99650429Y-96843905D02*
X99269476Y-96843905D01*
X99231381Y-97224857D01*
X99269476Y-97186762D01*
X99345667Y-97148667D01*
X99536143Y-97148667D01*
X99612333Y-97186762D01*
X99650429Y-97224857D01*
X99688524Y-97301048D01*
X99688524Y-97491524D01*
X99650429Y-97567714D01*
X99612333Y-97605810D01*
X99536143Y-97643905D01*
X99345667Y-97643905D01*
X99269476Y-97605810D01*
X99231381Y-97567714D01*
X109086714Y-105771905D02*
X108820047Y-105390952D01*
X108629571Y-105771905D02*
X108629571Y-104971905D01*
X108934333Y-104971905D01*
X109010524Y-105010000D01*
X109048619Y-105048095D01*
X109086714Y-105124286D01*
X109086714Y-105238571D01*
X109048619Y-105314762D01*
X109010524Y-105352857D01*
X108934333Y-105390952D01*
X108629571Y-105390952D01*
X109391476Y-105048095D02*
X109429571Y-105010000D01*
X109505762Y-104971905D01*
X109696238Y-104971905D01*
X109772428Y-105010000D01*
X109810524Y-105048095D01*
X109848619Y-105124286D01*
X109848619Y-105200476D01*
X109810524Y-105314762D01*
X109353381Y-105771905D01*
X109848619Y-105771905D01*
X110534333Y-104971905D02*
X110381952Y-104971905D01*
X110305762Y-105010000D01*
X110267667Y-105048095D01*
X110191476Y-105162381D01*
X110153381Y-105314762D01*
X110153381Y-105619524D01*
X110191476Y-105695714D01*
X110229571Y-105733810D01*
X110305762Y-105771905D01*
X110458143Y-105771905D01*
X110534333Y-105733810D01*
X110572429Y-105695714D01*
X110610524Y-105619524D01*
X110610524Y-105429048D01*
X110572429Y-105352857D01*
X110534333Y-105314762D01*
X110458143Y-105276667D01*
X110305762Y-105276667D01*
X110229571Y-105314762D01*
X110191476Y-105352857D01*
X110153381Y-105429048D01*
X101085714Y-115041905D02*
X100819047Y-114660952D01*
X100628571Y-115041905D02*
X100628571Y-114241905D01*
X100933333Y-114241905D01*
X101009524Y-114280000D01*
X101047619Y-114318095D01*
X101085714Y-114394286D01*
X101085714Y-114508571D01*
X101047619Y-114584762D01*
X101009524Y-114622857D01*
X100933333Y-114660952D01*
X100628571Y-114660952D01*
X101390476Y-114318095D02*
X101428571Y-114280000D01*
X101504762Y-114241905D01*
X101695238Y-114241905D01*
X101771428Y-114280000D01*
X101809524Y-114318095D01*
X101847619Y-114394286D01*
X101847619Y-114470476D01*
X101809524Y-114584762D01*
X101352381Y-115041905D01*
X101847619Y-115041905D01*
X102114286Y-114241905D02*
X102647619Y-114241905D01*
X102304762Y-115041905D01*
X97910714Y-107803905D02*
X97644047Y-107422952D01*
X97453571Y-107803905D02*
X97453571Y-107003905D01*
X97758333Y-107003905D01*
X97834524Y-107042000D01*
X97872619Y-107080095D01*
X97910714Y-107156286D01*
X97910714Y-107270571D01*
X97872619Y-107346762D01*
X97834524Y-107384857D01*
X97758333Y-107422952D01*
X97453571Y-107422952D01*
X98215476Y-107080095D02*
X98253571Y-107042000D01*
X98329762Y-107003905D01*
X98520238Y-107003905D01*
X98596428Y-107042000D01*
X98634524Y-107080095D01*
X98672619Y-107156286D01*
X98672619Y-107232476D01*
X98634524Y-107346762D01*
X98177381Y-107803905D01*
X98672619Y-107803905D01*
X99053571Y-107803905D02*
X99205952Y-107803905D01*
X99282143Y-107765810D01*
X99320238Y-107727714D01*
X99396429Y-107613429D01*
X99434524Y-107461048D01*
X99434524Y-107156286D01*
X99396429Y-107080095D01*
X99358333Y-107042000D01*
X99282143Y-107003905D01*
X99129762Y-107003905D01*
X99053571Y-107042000D01*
X99015476Y-107080095D01*
X98977381Y-107156286D01*
X98977381Y-107346762D01*
X99015476Y-107422952D01*
X99053571Y-107461048D01*
X99129762Y-107499143D01*
X99282143Y-107499143D01*
X99358333Y-107461048D01*
X99396429Y-107422952D01*
X99434524Y-107346762D01*
X109086714Y-115931905D02*
X108820047Y-115550952D01*
X108629571Y-115931905D02*
X108629571Y-115131905D01*
X108934333Y-115131905D01*
X109010524Y-115170000D01*
X109048619Y-115208095D01*
X109086714Y-115284286D01*
X109086714Y-115398571D01*
X109048619Y-115474762D01*
X109010524Y-115512857D01*
X108934333Y-115550952D01*
X108629571Y-115550952D01*
X109353381Y-115131905D02*
X109848619Y-115131905D01*
X109581952Y-115436667D01*
X109696238Y-115436667D01*
X109772428Y-115474762D01*
X109810524Y-115512857D01*
X109848619Y-115589048D01*
X109848619Y-115779524D01*
X109810524Y-115855714D01*
X109772428Y-115893810D01*
X109696238Y-115931905D01*
X109467666Y-115931905D01*
X109391476Y-115893810D01*
X109353381Y-115855714D01*
X110343857Y-115131905D02*
X110420048Y-115131905D01*
X110496238Y-115170000D01*
X110534333Y-115208095D01*
X110572429Y-115284286D01*
X110610524Y-115436667D01*
X110610524Y-115627143D01*
X110572429Y-115779524D01*
X110534333Y-115855714D01*
X110496238Y-115893810D01*
X110420048Y-115931905D01*
X110343857Y-115931905D01*
X110267667Y-115893810D01*
X110229571Y-115855714D01*
X110191476Y-115779524D01*
X110153381Y-115627143D01*
X110153381Y-115436667D01*
X110191476Y-115284286D01*
X110229571Y-115208095D01*
X110267667Y-115170000D01*
X110343857Y-115131905D01*
X101085714Y-125201905D02*
X100819047Y-124820952D01*
X100628571Y-125201905D02*
X100628571Y-124401905D01*
X100933333Y-124401905D01*
X101009524Y-124440000D01*
X101047619Y-124478095D01*
X101085714Y-124554286D01*
X101085714Y-124668571D01*
X101047619Y-124744762D01*
X101009524Y-124782857D01*
X100933333Y-124820952D01*
X100628571Y-124820952D01*
X101352381Y-124401905D02*
X101847619Y-124401905D01*
X101580952Y-124706667D01*
X101695238Y-124706667D01*
X101771428Y-124744762D01*
X101809524Y-124782857D01*
X101847619Y-124859048D01*
X101847619Y-125049524D01*
X101809524Y-125125714D01*
X101771428Y-125163810D01*
X101695238Y-125201905D01*
X101466666Y-125201905D01*
X101390476Y-125163810D01*
X101352381Y-125125714D01*
X102609524Y-125201905D02*
X102152381Y-125201905D01*
X102380952Y-125201905D02*
X102380952Y-124401905D01*
X102304762Y-124516190D01*
X102228571Y-124592381D01*
X102152381Y-124630476D01*
X98164714Y-117963905D02*
X97898047Y-117582952D01*
X97707571Y-117963905D02*
X97707571Y-117163905D01*
X98012333Y-117163905D01*
X98088524Y-117202000D01*
X98126619Y-117240095D01*
X98164714Y-117316286D01*
X98164714Y-117430571D01*
X98126619Y-117506762D01*
X98088524Y-117544857D01*
X98012333Y-117582952D01*
X97707571Y-117582952D01*
X98431381Y-117163905D02*
X98926619Y-117163905D01*
X98659952Y-117468667D01*
X98774238Y-117468667D01*
X98850428Y-117506762D01*
X98888524Y-117544857D01*
X98926619Y-117621048D01*
X98926619Y-117811524D01*
X98888524Y-117887714D01*
X98850428Y-117925810D01*
X98774238Y-117963905D01*
X98545666Y-117963905D01*
X98469476Y-117925810D01*
X98431381Y-117887714D01*
X99193286Y-117163905D02*
X99688524Y-117163905D01*
X99421857Y-117468667D01*
X99536143Y-117468667D01*
X99612333Y-117506762D01*
X99650429Y-117544857D01*
X99688524Y-117621048D01*
X99688524Y-117811524D01*
X99650429Y-117887714D01*
X99612333Y-117925810D01*
X99536143Y-117963905D01*
X99307571Y-117963905D01*
X99231381Y-117925810D01*
X99193286Y-117887714D01*
X109340714Y-126091905D02*
X109074047Y-125710952D01*
X108883571Y-126091905D02*
X108883571Y-125291905D01*
X109188333Y-125291905D01*
X109264524Y-125330000D01*
X109302619Y-125368095D01*
X109340714Y-125444286D01*
X109340714Y-125558571D01*
X109302619Y-125634762D01*
X109264524Y-125672857D01*
X109188333Y-125710952D01*
X108883571Y-125710952D01*
X109607381Y-125291905D02*
X110102619Y-125291905D01*
X109835952Y-125596667D01*
X109950238Y-125596667D01*
X110026428Y-125634762D01*
X110064524Y-125672857D01*
X110102619Y-125749048D01*
X110102619Y-125939524D01*
X110064524Y-126015714D01*
X110026428Y-126053810D01*
X109950238Y-126091905D01*
X109721666Y-126091905D01*
X109645476Y-126053810D01*
X109607381Y-126015714D01*
X110788333Y-125558571D02*
X110788333Y-126091905D01*
X110597857Y-125253810D02*
X110407381Y-125825238D01*
X110902619Y-125825238D01*
X101085714Y-135361905D02*
X100819047Y-134980952D01*
X100628571Y-135361905D02*
X100628571Y-134561905D01*
X100933333Y-134561905D01*
X101009524Y-134600000D01*
X101047619Y-134638095D01*
X101085714Y-134714286D01*
X101085714Y-134828571D01*
X101047619Y-134904762D01*
X101009524Y-134942857D01*
X100933333Y-134980952D01*
X100628571Y-134980952D01*
X101352381Y-134561905D02*
X101847619Y-134561905D01*
X101580952Y-134866667D01*
X101695238Y-134866667D01*
X101771428Y-134904762D01*
X101809524Y-134942857D01*
X101847619Y-135019048D01*
X101847619Y-135209524D01*
X101809524Y-135285714D01*
X101771428Y-135323810D01*
X101695238Y-135361905D01*
X101466666Y-135361905D01*
X101390476Y-135323810D01*
X101352381Y-135285714D01*
X102571429Y-134561905D02*
X102190476Y-134561905D01*
X102152381Y-134942857D01*
X102190476Y-134904762D01*
X102266667Y-134866667D01*
X102457143Y-134866667D01*
X102533333Y-134904762D01*
X102571429Y-134942857D01*
X102609524Y-135019048D01*
X102609524Y-135209524D01*
X102571429Y-135285714D01*
X102533333Y-135323810D01*
X102457143Y-135361905D01*
X102266667Y-135361905D01*
X102190476Y-135323810D01*
X102152381Y-135285714D01*
X98164714Y-128123905D02*
X97898047Y-127742952D01*
X97707571Y-128123905D02*
X97707571Y-127323905D01*
X98012333Y-127323905D01*
X98088524Y-127362000D01*
X98126619Y-127400095D01*
X98164714Y-127476286D01*
X98164714Y-127590571D01*
X98126619Y-127666762D01*
X98088524Y-127704857D01*
X98012333Y-127742952D01*
X97707571Y-127742952D01*
X98431381Y-127323905D02*
X98926619Y-127323905D01*
X98659952Y-127628667D01*
X98774238Y-127628667D01*
X98850428Y-127666762D01*
X98888524Y-127704857D01*
X98926619Y-127781048D01*
X98926619Y-127971524D01*
X98888524Y-128047714D01*
X98850428Y-128085810D01*
X98774238Y-128123905D01*
X98545666Y-128123905D01*
X98469476Y-128085810D01*
X98431381Y-128047714D01*
X99193286Y-127323905D02*
X99726619Y-127323905D01*
X99383762Y-128123905D01*
X109340714Y-136251905D02*
X109074047Y-135870952D01*
X108883571Y-136251905D02*
X108883571Y-135451905D01*
X109188333Y-135451905D01*
X109264524Y-135490000D01*
X109302619Y-135528095D01*
X109340714Y-135604286D01*
X109340714Y-135718571D01*
X109302619Y-135794762D01*
X109264524Y-135832857D01*
X109188333Y-135870952D01*
X108883571Y-135870952D01*
X109607381Y-135451905D02*
X110102619Y-135451905D01*
X109835952Y-135756667D01*
X109950238Y-135756667D01*
X110026428Y-135794762D01*
X110064524Y-135832857D01*
X110102619Y-135909048D01*
X110102619Y-136099524D01*
X110064524Y-136175714D01*
X110026428Y-136213810D01*
X109950238Y-136251905D01*
X109721666Y-136251905D01*
X109645476Y-136213810D01*
X109607381Y-136175714D01*
X110559762Y-135794762D02*
X110483571Y-135756667D01*
X110445476Y-135718571D01*
X110407381Y-135642381D01*
X110407381Y-135604286D01*
X110445476Y-135528095D01*
X110483571Y-135490000D01*
X110559762Y-135451905D01*
X110712143Y-135451905D01*
X110788333Y-135490000D01*
X110826429Y-135528095D01*
X110864524Y-135604286D01*
X110864524Y-135642381D01*
X110826429Y-135718571D01*
X110788333Y-135756667D01*
X110712143Y-135794762D01*
X110559762Y-135794762D01*
X110483571Y-135832857D01*
X110445476Y-135870952D01*
X110407381Y-135947143D01*
X110407381Y-136099524D01*
X110445476Y-136175714D01*
X110483571Y-136213810D01*
X110559762Y-136251905D01*
X110712143Y-136251905D01*
X110788333Y-136213810D01*
X110826429Y-136175714D01*
X110864524Y-136099524D01*
X110864524Y-135947143D01*
X110826429Y-135870952D01*
X110788333Y-135832857D01*
X110712143Y-135794762D01*
X158235714Y-132441905D02*
X157969047Y-132060952D01*
X157778571Y-132441905D02*
X157778571Y-131641905D01*
X158083333Y-131641905D01*
X158159524Y-131680000D01*
X158197619Y-131718095D01*
X158235714Y-131794286D01*
X158235714Y-131908571D01*
X158197619Y-131984762D01*
X158159524Y-132022857D01*
X158083333Y-132060952D01*
X157778571Y-132060952D01*
X158502381Y-131641905D02*
X158997619Y-131641905D01*
X158730952Y-131946667D01*
X158845238Y-131946667D01*
X158921428Y-131984762D01*
X158959524Y-132022857D01*
X158997619Y-132099048D01*
X158997619Y-132289524D01*
X158959524Y-132365714D01*
X158921428Y-132403810D01*
X158845238Y-132441905D01*
X158616666Y-132441905D01*
X158540476Y-132403810D01*
X158502381Y-132365714D01*
X159378571Y-132441905D02*
X159530952Y-132441905D01*
X159607143Y-132403810D01*
X159645238Y-132365714D01*
X159721429Y-132251429D01*
X159759524Y-132099048D01*
X159759524Y-131794286D01*
X159721429Y-131718095D01*
X159683333Y-131680000D01*
X159607143Y-131641905D01*
X159454762Y-131641905D01*
X159378571Y-131680000D01*
X159340476Y-131718095D01*
X159302381Y-131794286D01*
X159302381Y-131984762D01*
X159340476Y-132060952D01*
X159378571Y-132099048D01*
X159454762Y-132137143D01*
X159607143Y-132137143D01*
X159683333Y-132099048D01*
X159721429Y-132060952D01*
X159759524Y-131984762D01*
X155695714Y-137141905D02*
X155429047Y-136760952D01*
X155238571Y-137141905D02*
X155238571Y-136341905D01*
X155543333Y-136341905D01*
X155619524Y-136380000D01*
X155657619Y-136418095D01*
X155695714Y-136494286D01*
X155695714Y-136608571D01*
X155657619Y-136684762D01*
X155619524Y-136722857D01*
X155543333Y-136760952D01*
X155238571Y-136760952D01*
X156381428Y-136608571D02*
X156381428Y-137141905D01*
X156190952Y-136303810D02*
X156000476Y-136875238D01*
X156495714Y-136875238D01*
X157219524Y-137141905D02*
X156762381Y-137141905D01*
X156990952Y-137141905D02*
X156990952Y-136341905D01*
X156914762Y-136456190D01*
X156838571Y-136532381D01*
X156762381Y-136570476D01*
X155695714Y-129521905D02*
X155429047Y-129140952D01*
X155238571Y-129521905D02*
X155238571Y-128721905D01*
X155543333Y-128721905D01*
X155619524Y-128760000D01*
X155657619Y-128798095D01*
X155695714Y-128874286D01*
X155695714Y-128988571D01*
X155657619Y-129064762D01*
X155619524Y-129102857D01*
X155543333Y-129140952D01*
X155238571Y-129140952D01*
X156381428Y-128988571D02*
X156381428Y-129521905D01*
X156190952Y-128683810D02*
X156000476Y-129255238D01*
X156495714Y-129255238D01*
X156762381Y-128798095D02*
X156800476Y-128760000D01*
X156876667Y-128721905D01*
X157067143Y-128721905D01*
X157143333Y-128760000D01*
X157181429Y-128798095D01*
X157219524Y-128874286D01*
X157219524Y-128950476D01*
X157181429Y-129064762D01*
X156724286Y-129521905D01*
X157219524Y-129521905D01*
X158235714Y-122281905D02*
X157969047Y-121900952D01*
X157778571Y-122281905D02*
X157778571Y-121481905D01*
X158083333Y-121481905D01*
X158159524Y-121520000D01*
X158197619Y-121558095D01*
X158235714Y-121634286D01*
X158235714Y-121748571D01*
X158197619Y-121824762D01*
X158159524Y-121862857D01*
X158083333Y-121900952D01*
X157778571Y-121900952D01*
X158921428Y-121748571D02*
X158921428Y-122281905D01*
X158730952Y-121443810D02*
X158540476Y-122015238D01*
X159035714Y-122015238D01*
X159264286Y-121481905D02*
X159759524Y-121481905D01*
X159492857Y-121786667D01*
X159607143Y-121786667D01*
X159683333Y-121824762D01*
X159721429Y-121862857D01*
X159759524Y-121939048D01*
X159759524Y-122129524D01*
X159721429Y-122205714D01*
X159683333Y-122243810D01*
X159607143Y-122281905D01*
X159378571Y-122281905D01*
X159302381Y-122243810D01*
X159264286Y-122205714D01*
X155695714Y-126981905D02*
X155429047Y-126600952D01*
X155238571Y-126981905D02*
X155238571Y-126181905D01*
X155543333Y-126181905D01*
X155619524Y-126220000D01*
X155657619Y-126258095D01*
X155695714Y-126334286D01*
X155695714Y-126448571D01*
X155657619Y-126524762D01*
X155619524Y-126562857D01*
X155543333Y-126600952D01*
X155238571Y-126600952D01*
X156381428Y-126448571D02*
X156381428Y-126981905D01*
X156190952Y-126143810D02*
X156000476Y-126715238D01*
X156495714Y-126715238D01*
X157181429Y-126181905D02*
X156800476Y-126181905D01*
X156762381Y-126562857D01*
X156800476Y-126524762D01*
X156876667Y-126486667D01*
X157067143Y-126486667D01*
X157143333Y-126524762D01*
X157181429Y-126562857D01*
X157219524Y-126639048D01*
X157219524Y-126829524D01*
X157181429Y-126905714D01*
X157143333Y-126943810D01*
X157067143Y-126981905D01*
X156876667Y-126981905D01*
X156800476Y-126943810D01*
X156762381Y-126905714D01*
X155695714Y-119361905D02*
X155429047Y-118980952D01*
X155238571Y-119361905D02*
X155238571Y-118561905D01*
X155543333Y-118561905D01*
X155619524Y-118600000D01*
X155657619Y-118638095D01*
X155695714Y-118714286D01*
X155695714Y-118828571D01*
X155657619Y-118904762D01*
X155619524Y-118942857D01*
X155543333Y-118980952D01*
X155238571Y-118980952D01*
X156381428Y-118828571D02*
X156381428Y-119361905D01*
X156190952Y-118523810D02*
X156000476Y-119095238D01*
X156495714Y-119095238D01*
X157143333Y-118561905D02*
X156990952Y-118561905D01*
X156914762Y-118600000D01*
X156876667Y-118638095D01*
X156800476Y-118752381D01*
X156762381Y-118904762D01*
X156762381Y-119209524D01*
X156800476Y-119285714D01*
X156838571Y-119323810D01*
X156914762Y-119361905D01*
X157067143Y-119361905D01*
X157143333Y-119323810D01*
X157181429Y-119285714D01*
X157219524Y-119209524D01*
X157219524Y-119019048D01*
X157181429Y-118942857D01*
X157143333Y-118904762D01*
X157067143Y-118866667D01*
X156914762Y-118866667D01*
X156838571Y-118904762D01*
X156800476Y-118942857D01*
X156762381Y-119019048D01*
X158235714Y-112121905D02*
X157969047Y-111740952D01*
X157778571Y-112121905D02*
X157778571Y-111321905D01*
X158083333Y-111321905D01*
X158159524Y-111360000D01*
X158197619Y-111398095D01*
X158235714Y-111474286D01*
X158235714Y-111588571D01*
X158197619Y-111664762D01*
X158159524Y-111702857D01*
X158083333Y-111740952D01*
X157778571Y-111740952D01*
X158921428Y-111588571D02*
X158921428Y-112121905D01*
X158730952Y-111283810D02*
X158540476Y-111855238D01*
X159035714Y-111855238D01*
X159264286Y-111321905D02*
X159797619Y-111321905D01*
X159454762Y-112121905D01*
X155695714Y-116821905D02*
X155429047Y-116440952D01*
X155238571Y-116821905D02*
X155238571Y-116021905D01*
X155543333Y-116021905D01*
X155619524Y-116060000D01*
X155657619Y-116098095D01*
X155695714Y-116174286D01*
X155695714Y-116288571D01*
X155657619Y-116364762D01*
X155619524Y-116402857D01*
X155543333Y-116440952D01*
X155238571Y-116440952D01*
X156381428Y-116288571D02*
X156381428Y-116821905D01*
X156190952Y-115983810D02*
X156000476Y-116555238D01*
X156495714Y-116555238D01*
X156838571Y-116821905D02*
X156990952Y-116821905D01*
X157067143Y-116783810D01*
X157105238Y-116745714D01*
X157181429Y-116631429D01*
X157219524Y-116479048D01*
X157219524Y-116174286D01*
X157181429Y-116098095D01*
X157143333Y-116060000D01*
X157067143Y-116021905D01*
X156914762Y-116021905D01*
X156838571Y-116060000D01*
X156800476Y-116098095D01*
X156762381Y-116174286D01*
X156762381Y-116364762D01*
X156800476Y-116440952D01*
X156838571Y-116479048D01*
X156914762Y-116517143D01*
X157067143Y-116517143D01*
X157143333Y-116479048D01*
X157181429Y-116440952D01*
X157219524Y-116364762D01*
X155695714Y-109201905D02*
X155429047Y-108820952D01*
X155238571Y-109201905D02*
X155238571Y-108401905D01*
X155543333Y-108401905D01*
X155619524Y-108440000D01*
X155657619Y-108478095D01*
X155695714Y-108554286D01*
X155695714Y-108668571D01*
X155657619Y-108744762D01*
X155619524Y-108782857D01*
X155543333Y-108820952D01*
X155238571Y-108820952D01*
X156419524Y-108401905D02*
X156038571Y-108401905D01*
X156000476Y-108782857D01*
X156038571Y-108744762D01*
X156114762Y-108706667D01*
X156305238Y-108706667D01*
X156381428Y-108744762D01*
X156419524Y-108782857D01*
X156457619Y-108859048D01*
X156457619Y-109049524D01*
X156419524Y-109125714D01*
X156381428Y-109163810D01*
X156305238Y-109201905D01*
X156114762Y-109201905D01*
X156038571Y-109163810D01*
X156000476Y-109125714D01*
X156952857Y-108401905D02*
X157029048Y-108401905D01*
X157105238Y-108440000D01*
X157143333Y-108478095D01*
X157181429Y-108554286D01*
X157219524Y-108706667D01*
X157219524Y-108897143D01*
X157181429Y-109049524D01*
X157143333Y-109125714D01*
X157105238Y-109163810D01*
X157029048Y-109201905D01*
X156952857Y-109201905D01*
X156876667Y-109163810D01*
X156838571Y-109125714D01*
X156800476Y-109049524D01*
X156762381Y-108897143D01*
X156762381Y-108706667D01*
X156800476Y-108554286D01*
X156838571Y-108478095D01*
X156876667Y-108440000D01*
X156952857Y-108401905D01*
X158235714Y-101961905D02*
X157969047Y-101580952D01*
X157778571Y-101961905D02*
X157778571Y-101161905D01*
X158083333Y-101161905D01*
X158159524Y-101200000D01*
X158197619Y-101238095D01*
X158235714Y-101314286D01*
X158235714Y-101428571D01*
X158197619Y-101504762D01*
X158159524Y-101542857D01*
X158083333Y-101580952D01*
X157778571Y-101580952D01*
X158959524Y-101161905D02*
X158578571Y-101161905D01*
X158540476Y-101542857D01*
X158578571Y-101504762D01*
X158654762Y-101466667D01*
X158845238Y-101466667D01*
X158921428Y-101504762D01*
X158959524Y-101542857D01*
X158997619Y-101619048D01*
X158997619Y-101809524D01*
X158959524Y-101885714D01*
X158921428Y-101923810D01*
X158845238Y-101961905D01*
X158654762Y-101961905D01*
X158578571Y-101923810D01*
X158540476Y-101885714D01*
X159759524Y-101961905D02*
X159302381Y-101961905D01*
X159530952Y-101961905D02*
X159530952Y-101161905D01*
X159454762Y-101276190D01*
X159378571Y-101352381D01*
X159302381Y-101390476D01*
X155695714Y-106661905D02*
X155429047Y-106280952D01*
X155238571Y-106661905D02*
X155238571Y-105861905D01*
X155543333Y-105861905D01*
X155619524Y-105900000D01*
X155657619Y-105938095D01*
X155695714Y-106014286D01*
X155695714Y-106128571D01*
X155657619Y-106204762D01*
X155619524Y-106242857D01*
X155543333Y-106280952D01*
X155238571Y-106280952D01*
X156419524Y-105861905D02*
X156038571Y-105861905D01*
X156000476Y-106242857D01*
X156038571Y-106204762D01*
X156114762Y-106166667D01*
X156305238Y-106166667D01*
X156381428Y-106204762D01*
X156419524Y-106242857D01*
X156457619Y-106319048D01*
X156457619Y-106509524D01*
X156419524Y-106585714D01*
X156381428Y-106623810D01*
X156305238Y-106661905D01*
X156114762Y-106661905D01*
X156038571Y-106623810D01*
X156000476Y-106585714D01*
X156724286Y-105861905D02*
X157219524Y-105861905D01*
X156952857Y-106166667D01*
X157067143Y-106166667D01*
X157143333Y-106204762D01*
X157181429Y-106242857D01*
X157219524Y-106319048D01*
X157219524Y-106509524D01*
X157181429Y-106585714D01*
X157143333Y-106623810D01*
X157067143Y-106661905D01*
X156838571Y-106661905D01*
X156762381Y-106623810D01*
X156724286Y-106585714D01*
X155695714Y-99041905D02*
X155429047Y-98660952D01*
X155238571Y-99041905D02*
X155238571Y-98241905D01*
X155543333Y-98241905D01*
X155619524Y-98280000D01*
X155657619Y-98318095D01*
X155695714Y-98394286D01*
X155695714Y-98508571D01*
X155657619Y-98584762D01*
X155619524Y-98622857D01*
X155543333Y-98660952D01*
X155238571Y-98660952D01*
X156419524Y-98241905D02*
X156038571Y-98241905D01*
X156000476Y-98622857D01*
X156038571Y-98584762D01*
X156114762Y-98546667D01*
X156305238Y-98546667D01*
X156381428Y-98584762D01*
X156419524Y-98622857D01*
X156457619Y-98699048D01*
X156457619Y-98889524D01*
X156419524Y-98965714D01*
X156381428Y-99003810D01*
X156305238Y-99041905D01*
X156114762Y-99041905D01*
X156038571Y-99003810D01*
X156000476Y-98965714D01*
X157143333Y-98508571D02*
X157143333Y-99041905D01*
X156952857Y-98203810D02*
X156762381Y-98775238D01*
X157257619Y-98775238D01*
X158235714Y-91801905D02*
X157969047Y-91420952D01*
X157778571Y-91801905D02*
X157778571Y-91001905D01*
X158083333Y-91001905D01*
X158159524Y-91040000D01*
X158197619Y-91078095D01*
X158235714Y-91154286D01*
X158235714Y-91268571D01*
X158197619Y-91344762D01*
X158159524Y-91382857D01*
X158083333Y-91420952D01*
X157778571Y-91420952D01*
X158959524Y-91001905D02*
X158578571Y-91001905D01*
X158540476Y-91382857D01*
X158578571Y-91344762D01*
X158654762Y-91306667D01*
X158845238Y-91306667D01*
X158921428Y-91344762D01*
X158959524Y-91382857D01*
X158997619Y-91459048D01*
X158997619Y-91649524D01*
X158959524Y-91725714D01*
X158921428Y-91763810D01*
X158845238Y-91801905D01*
X158654762Y-91801905D01*
X158578571Y-91763810D01*
X158540476Y-91725714D01*
X159721429Y-91001905D02*
X159340476Y-91001905D01*
X159302381Y-91382857D01*
X159340476Y-91344762D01*
X159416667Y-91306667D01*
X159607143Y-91306667D01*
X159683333Y-91344762D01*
X159721429Y-91382857D01*
X159759524Y-91459048D01*
X159759524Y-91649524D01*
X159721429Y-91725714D01*
X159683333Y-91763810D01*
X159607143Y-91801905D01*
X159416667Y-91801905D01*
X159340476Y-91763810D01*
X159302381Y-91725714D01*
X155695714Y-95866905D02*
X155429047Y-95485952D01*
X155238571Y-95866905D02*
X155238571Y-95066905D01*
X155543333Y-95066905D01*
X155619524Y-95105000D01*
X155657619Y-95143095D01*
X155695714Y-95219286D01*
X155695714Y-95333571D01*
X155657619Y-95409762D01*
X155619524Y-95447857D01*
X155543333Y-95485952D01*
X155238571Y-95485952D01*
X156419524Y-95066905D02*
X156038571Y-95066905D01*
X156000476Y-95447857D01*
X156038571Y-95409762D01*
X156114762Y-95371667D01*
X156305238Y-95371667D01*
X156381428Y-95409762D01*
X156419524Y-95447857D01*
X156457619Y-95524048D01*
X156457619Y-95714524D01*
X156419524Y-95790714D01*
X156381428Y-95828810D01*
X156305238Y-95866905D01*
X156114762Y-95866905D01*
X156038571Y-95828810D01*
X156000476Y-95790714D01*
X156724286Y-95066905D02*
X157257619Y-95066905D01*
X156914762Y-95866905D01*
X155695714Y-88246905D02*
X155429047Y-87865952D01*
X155238571Y-88246905D02*
X155238571Y-87446905D01*
X155543333Y-87446905D01*
X155619524Y-87485000D01*
X155657619Y-87523095D01*
X155695714Y-87599286D01*
X155695714Y-87713571D01*
X155657619Y-87789762D01*
X155619524Y-87827857D01*
X155543333Y-87865952D01*
X155238571Y-87865952D01*
X156419524Y-87446905D02*
X156038571Y-87446905D01*
X156000476Y-87827857D01*
X156038571Y-87789762D01*
X156114762Y-87751667D01*
X156305238Y-87751667D01*
X156381428Y-87789762D01*
X156419524Y-87827857D01*
X156457619Y-87904048D01*
X156457619Y-88094524D01*
X156419524Y-88170714D01*
X156381428Y-88208810D01*
X156305238Y-88246905D01*
X156114762Y-88246905D01*
X156038571Y-88208810D01*
X156000476Y-88170714D01*
X156914762Y-87789762D02*
X156838571Y-87751667D01*
X156800476Y-87713571D01*
X156762381Y-87637381D01*
X156762381Y-87599286D01*
X156800476Y-87523095D01*
X156838571Y-87485000D01*
X156914762Y-87446905D01*
X157067143Y-87446905D01*
X157143333Y-87485000D01*
X157181429Y-87523095D01*
X157219524Y-87599286D01*
X157219524Y-87637381D01*
X157181429Y-87713571D01*
X157143333Y-87751667D01*
X157067143Y-87789762D01*
X156914762Y-87789762D01*
X156838571Y-87827857D01*
X156800476Y-87865952D01*
X156762381Y-87942143D01*
X156762381Y-88094524D01*
X156800476Y-88170714D01*
X156838571Y-88208810D01*
X156914762Y-88246905D01*
X157067143Y-88246905D01*
X157143333Y-88208810D01*
X157181429Y-88170714D01*
X157219524Y-88094524D01*
X157219524Y-87942143D01*
X157181429Y-87865952D01*
X157143333Y-87827857D01*
X157067143Y-87789762D01*
X101085714Y-93451905D02*
X100819047Y-93070952D01*
X100628571Y-93451905D02*
X100628571Y-92651905D01*
X100933333Y-92651905D01*
X101009524Y-92690000D01*
X101047619Y-92728095D01*
X101085714Y-92804286D01*
X101085714Y-92918571D01*
X101047619Y-92994762D01*
X101009524Y-93032857D01*
X100933333Y-93070952D01*
X100628571Y-93070952D01*
X101809524Y-92651905D02*
X101428571Y-92651905D01*
X101390476Y-93032857D01*
X101428571Y-92994762D01*
X101504762Y-92956667D01*
X101695238Y-92956667D01*
X101771428Y-92994762D01*
X101809524Y-93032857D01*
X101847619Y-93109048D01*
X101847619Y-93299524D01*
X101809524Y-93375714D01*
X101771428Y-93413810D01*
X101695238Y-93451905D01*
X101504762Y-93451905D01*
X101428571Y-93413810D01*
X101390476Y-93375714D01*
X102228571Y-93451905D02*
X102380952Y-93451905D01*
X102457143Y-93413810D01*
X102495238Y-93375714D01*
X102571429Y-93261429D01*
X102609524Y-93109048D01*
X102609524Y-92804286D01*
X102571429Y-92728095D01*
X102533333Y-92690000D01*
X102457143Y-92651905D01*
X102304762Y-92651905D01*
X102228571Y-92690000D01*
X102190476Y-92728095D01*
X102152381Y-92804286D01*
X102152381Y-92994762D01*
X102190476Y-93070952D01*
X102228571Y-93109048D01*
X102304762Y-93147143D01*
X102457143Y-93147143D01*
X102533333Y-93109048D01*
X102571429Y-93070952D01*
X102609524Y-92994762D01*
X101085714Y-83546905D02*
X100819047Y-83165952D01*
X100628571Y-83546905D02*
X100628571Y-82746905D01*
X100933333Y-82746905D01*
X101009524Y-82785000D01*
X101047619Y-82823095D01*
X101085714Y-82899286D01*
X101085714Y-83013571D01*
X101047619Y-83089762D01*
X101009524Y-83127857D01*
X100933333Y-83165952D01*
X100628571Y-83165952D01*
X101771428Y-82746905D02*
X101619047Y-82746905D01*
X101542857Y-82785000D01*
X101504762Y-82823095D01*
X101428571Y-82937381D01*
X101390476Y-83089762D01*
X101390476Y-83394524D01*
X101428571Y-83470714D01*
X101466666Y-83508810D01*
X101542857Y-83546905D01*
X101695238Y-83546905D01*
X101771428Y-83508810D01*
X101809524Y-83470714D01*
X101847619Y-83394524D01*
X101847619Y-83204048D01*
X101809524Y-83127857D01*
X101771428Y-83089762D01*
X101695238Y-83051667D01*
X101542857Y-83051667D01*
X101466666Y-83089762D01*
X101428571Y-83127857D01*
X101390476Y-83204048D01*
X102609524Y-83546905D02*
X102152381Y-83546905D01*
X102380952Y-83546905D02*
X102380952Y-82746905D01*
X102304762Y-82861190D01*
X102228571Y-82937381D01*
X102152381Y-82975476D01*
X109340714Y-95611905D02*
X109074047Y-95230952D01*
X108883571Y-95611905D02*
X108883571Y-94811905D01*
X109188333Y-94811905D01*
X109264524Y-94850000D01*
X109302619Y-94888095D01*
X109340714Y-94964286D01*
X109340714Y-95078571D01*
X109302619Y-95154762D01*
X109264524Y-95192857D01*
X109188333Y-95230952D01*
X108883571Y-95230952D01*
X110026428Y-94811905D02*
X109874047Y-94811905D01*
X109797857Y-94850000D01*
X109759762Y-94888095D01*
X109683571Y-95002381D01*
X109645476Y-95154762D01*
X109645476Y-95459524D01*
X109683571Y-95535714D01*
X109721666Y-95573810D01*
X109797857Y-95611905D01*
X109950238Y-95611905D01*
X110026428Y-95573810D01*
X110064524Y-95535714D01*
X110102619Y-95459524D01*
X110102619Y-95269048D01*
X110064524Y-95192857D01*
X110026428Y-95154762D01*
X109950238Y-95116667D01*
X109797857Y-95116667D01*
X109721666Y-95154762D01*
X109683571Y-95192857D01*
X109645476Y-95269048D01*
X110407381Y-94888095D02*
X110445476Y-94850000D01*
X110521667Y-94811905D01*
X110712143Y-94811905D01*
X110788333Y-94850000D01*
X110826429Y-94888095D01*
X110864524Y-94964286D01*
X110864524Y-95040476D01*
X110826429Y-95154762D01*
X110369286Y-95611905D01*
X110864524Y-95611905D01*
X127660476Y-90051905D02*
X127660476Y-90699524D01*
X127698571Y-90775714D01*
X127736667Y-90813810D01*
X127812857Y-90851905D01*
X127965238Y-90851905D01*
X128041429Y-90813810D01*
X128079524Y-90775714D01*
X128117619Y-90699524D01*
X128117619Y-90051905D01*
X128917619Y-90851905D02*
X128460476Y-90851905D01*
X128689047Y-90851905D02*
X128689047Y-90051905D01*
X128612857Y-90166190D01*
X128536666Y-90242381D01*
X128460476Y-90280476D01*
X136550476Y-102706905D02*
X136550476Y-103354524D01*
X136588571Y-103430714D01*
X136626667Y-103468810D01*
X136702857Y-103506905D01*
X136855238Y-103506905D01*
X136931429Y-103468810D01*
X136969524Y-103430714D01*
X137007619Y-103354524D01*
X137007619Y-102706905D01*
X137350476Y-102783095D02*
X137388571Y-102745000D01*
X137464762Y-102706905D01*
X137655238Y-102706905D01*
X137731428Y-102745000D01*
X137769524Y-102783095D01*
X137807619Y-102859286D01*
X137807619Y-102935476D01*
X137769524Y-103049762D01*
X137312381Y-103506905D01*
X137807619Y-103506905D01*
X136550476Y-88101905D02*
X136550476Y-88749524D01*
X136588571Y-88825714D01*
X136626667Y-88863810D01*
X136702857Y-88901905D01*
X136855238Y-88901905D01*
X136931429Y-88863810D01*
X136969524Y-88825714D01*
X137007619Y-88749524D01*
X137007619Y-88101905D01*
X137312381Y-88101905D02*
X137807619Y-88101905D01*
X137540952Y-88406667D01*
X137655238Y-88406667D01*
X137731428Y-88444762D01*
X137769524Y-88482857D01*
X137807619Y-88559048D01*
X137807619Y-88749524D01*
X137769524Y-88825714D01*
X137731428Y-88863810D01*
X137655238Y-88901905D01*
X137426666Y-88901905D01*
X137350476Y-88863810D01*
X137312381Y-88825714D01*
M02*
