G04 #@! TF.FileFunction,Soldermask,Bot*
%FSLAX46Y46*%
G04 Gerber Fmt 4.6, Leading zero omitted, Abs format (unit mm)*
G04 Created by KiCad (PCBNEW 4.0.7-e2-6376~58~ubuntu14.04.1) date Thu Jan  4 07:08:37 2018*
%MOMM*%
%LPD*%
G01*
G04 APERTURE LIST*
%ADD10C,0.100000*%
%ADD11C,1.900000*%
%ADD12C,3.500000*%
%ADD13R,2.300000X2.300000*%
%ADD14C,2.300000*%
%ADD15C,2.000000*%
%ADD16R,2.180000X3.900000*%
%ADD17R,8.910000X8.270000*%
%ADD18R,4.210000X2.050000*%
%ADD19C,5.048200*%
G04 APERTURE END LIST*
D10*
D11*
X74470000Y-79375000D03*
X77470000Y-79375000D03*
X77470000Y-82375000D03*
X74470000Y-82375000D03*
X74470000Y-85375000D03*
X77470000Y-85375000D03*
X77470000Y-88375000D03*
X74470000Y-88375000D03*
X74470000Y-91375000D03*
X77470000Y-91375000D03*
X77470000Y-94375000D03*
X74470000Y-94375000D03*
D12*
X81790000Y-80975000D03*
D11*
X74470000Y-97375000D03*
X77470000Y-97375000D03*
X77470000Y-100375000D03*
X74470000Y-100375000D03*
X74470000Y-103375000D03*
X77470000Y-103375000D03*
X74470000Y-106375000D03*
X77470000Y-106375000D03*
D12*
X81790000Y-104175000D03*
D13*
X158877000Y-82804000D03*
D14*
X158877000Y-85304000D03*
D15*
X166057000Y-82804000D03*
X166057000Y-85304000D03*
D13*
X158877000Y-75692000D03*
D14*
X158877000Y-78192000D03*
D15*
X166057000Y-75692000D03*
X166057000Y-78192000D03*
D11*
X74470000Y-115570000D03*
X77470000Y-115570000D03*
X77470000Y-118570000D03*
X74470000Y-118570000D03*
D12*
X81790000Y-117670000D03*
D11*
X74470000Y-121570000D03*
X77470000Y-121570000D03*
X77470000Y-124570000D03*
X74470000Y-124570000D03*
X74470000Y-127570000D03*
X77470000Y-127570000D03*
X74470000Y-130570000D03*
X77470000Y-130570000D03*
D12*
X81790000Y-128370000D03*
D16*
X132280000Y-133985000D03*
X127000000Y-133985000D03*
X132280000Y-123825000D03*
X127000000Y-123825000D03*
X132280000Y-113665000D03*
X127000000Y-113665000D03*
X132280000Y-103505000D03*
X127000000Y-103505000D03*
X132280000Y-93345000D03*
X127000000Y-93345000D03*
D17*
X88900000Y-101600000D03*
D18*
X96525000Y-104140000D03*
X96525000Y-99060000D03*
D17*
X88900000Y-111760000D03*
D18*
X96525000Y-114300000D03*
X96525000Y-109220000D03*
D17*
X88900000Y-121920000D03*
D18*
X96525000Y-124460000D03*
X96525000Y-119380000D03*
D17*
X88900000Y-132080000D03*
D18*
X96525000Y-134620000D03*
X96525000Y-129540000D03*
D17*
X162560000Y-132080000D03*
D18*
X154935000Y-129540000D03*
X154935000Y-134620000D03*
D17*
X162560000Y-121920000D03*
D18*
X154935000Y-119380000D03*
X154935000Y-124460000D03*
D17*
X162560000Y-111760000D03*
D18*
X154935000Y-109220000D03*
X154935000Y-114300000D03*
D17*
X162560000Y-101600000D03*
D18*
X154935000Y-99060000D03*
X154935000Y-104140000D03*
D17*
X162560000Y-91440000D03*
D18*
X154935000Y-88900000D03*
X154935000Y-93980000D03*
D17*
X88900000Y-91440000D03*
D18*
X96525000Y-93980000D03*
X96525000Y-88900000D03*
D19*
X75565000Y-138430000D03*
X166370000Y-138430000D03*
X75565000Y-71755000D03*
X165735000Y-71755000D03*
M02*
