G04 #@! TF.FileFunction,Soldermask,Bot*
%FSLAX46Y46*%
G04 Gerber Fmt 4.6, Leading zero omitted, Abs format (unit mm)*
G04 Created by KiCad (PCBNEW 4.0.7-e2-6376~58~ubuntu14.04.1) date Mon Feb 12 20:25:31 2018*
%MOMM*%
%LPD*%
G01*
G04 APERTURE LIST*
%ADD10C,0.100000*%
%ADD11C,1.900000*%
%ADD12C,3.500000*%
%ADD13R,2.300000X2.300000*%
%ADD14C,2.300000*%
%ADD15C,2.000000*%
%ADD16R,2.180000X3.900000*%
%ADD17R,8.910000X8.270000*%
%ADD18R,4.210000X2.050000*%
%ADD19C,5.048200*%
G04 APERTURE END LIST*
D10*
D11*
X82375000Y-130810000D03*
X79375000Y-130810000D03*
X79375000Y-127810000D03*
X82375000Y-127810000D03*
D12*
X75055000Y-128710000D03*
D11*
X82375000Y-124810000D03*
X79375000Y-124810000D03*
X79375000Y-121810000D03*
X82375000Y-121810000D03*
X82375000Y-118810000D03*
X79375000Y-118810000D03*
X82375000Y-115810000D03*
X79375000Y-115810000D03*
D12*
X75055000Y-118010000D03*
D11*
X82375000Y-106680000D03*
X79375000Y-106680000D03*
X79375000Y-103680000D03*
X82375000Y-103680000D03*
X82375000Y-100680000D03*
X79375000Y-100680000D03*
X79375000Y-97680000D03*
X82375000Y-97680000D03*
X82375000Y-94680000D03*
X79375000Y-94680000D03*
X79375000Y-91680000D03*
X82375000Y-91680000D03*
D12*
X75055000Y-105080000D03*
D11*
X82375000Y-88680000D03*
X79375000Y-88680000D03*
X79375000Y-85680000D03*
X82375000Y-85680000D03*
X82375000Y-82680000D03*
X79375000Y-82680000D03*
X82375000Y-79680000D03*
X79375000Y-79680000D03*
D12*
X75055000Y-81880000D03*
D13*
X167005000Y-85090000D03*
D14*
X167005000Y-82590000D03*
D15*
X159825000Y-85090000D03*
X159825000Y-82590000D03*
D13*
X167005000Y-78105000D03*
D14*
X167005000Y-75605000D03*
D15*
X159825000Y-78105000D03*
X159825000Y-75605000D03*
D16*
X132280000Y-133985000D03*
X127000000Y-133985000D03*
X132280000Y-123825000D03*
X127000000Y-123825000D03*
X132280000Y-113665000D03*
X127000000Y-113665000D03*
X132280000Y-103505000D03*
X127000000Y-103505000D03*
X132280000Y-93345000D03*
X127000000Y-93345000D03*
D17*
X88900000Y-101600000D03*
D18*
X96525000Y-104140000D03*
X96525000Y-99060000D03*
D17*
X88900000Y-111760000D03*
D18*
X96525000Y-114300000D03*
X96525000Y-109220000D03*
D17*
X88900000Y-121920000D03*
D18*
X96525000Y-124460000D03*
X96525000Y-119380000D03*
D17*
X88900000Y-132080000D03*
D18*
X96525000Y-134620000D03*
X96525000Y-129540000D03*
D17*
X162560000Y-131445000D03*
D18*
X154935000Y-128905000D03*
X154935000Y-133985000D03*
D17*
X162560000Y-121920000D03*
D18*
X154935000Y-119380000D03*
X154935000Y-124460000D03*
D17*
X162560000Y-111760000D03*
D18*
X154935000Y-109220000D03*
X154935000Y-114300000D03*
D17*
X162560000Y-101600000D03*
D18*
X154935000Y-99060000D03*
X154935000Y-104140000D03*
D17*
X162560000Y-91440000D03*
D18*
X154935000Y-88900000D03*
X154935000Y-93980000D03*
D17*
X88900000Y-91440000D03*
D18*
X96525000Y-93980000D03*
X96525000Y-88900000D03*
D19*
X75565000Y-138430000D03*
X166370000Y-138430000D03*
X75565000Y-71755000D03*
X165735000Y-71755000D03*
M02*
