G04 #@! TF.FileFunction,Soldermask,Bot*
%FSLAX46Y46*%
G04 Gerber Fmt 4.6, Leading zero omitted, Abs format (unit mm)*
G04 Created by KiCad (PCBNEW 4.0.7-e2-6376~58~ubuntu14.04.1) date Mon Apr 23 20:22:28 2018*
%MOMM*%
%LPD*%
G01*
G04 APERTURE LIST*
%ADD10C,0.100000*%
%ADD11R,8.910000X8.270000*%
%ADD12R,4.210000X2.050000*%
%ADD13C,1.900000*%
%ADD14C,3.500000*%
%ADD15R,2.300000X2.300000*%
%ADD16C,2.300000*%
%ADD17C,2.000000*%
%ADD18R,2.180000X3.900000*%
%ADD19C,5.048200*%
%ADD20C,6.048200*%
G04 APERTURE END LIST*
D10*
D11*
X88900000Y-91440000D03*
D12*
X96525000Y-93980000D03*
X96525000Y-88900000D03*
D13*
X81740000Y-106680000D03*
X78740000Y-106680000D03*
X78740000Y-103680000D03*
X81740000Y-103680000D03*
X81740000Y-100680000D03*
X78740000Y-100680000D03*
X78740000Y-97680000D03*
X81740000Y-97680000D03*
X81740000Y-94680000D03*
X78740000Y-94680000D03*
X78740000Y-91680000D03*
X81740000Y-91680000D03*
D14*
X74420000Y-105080000D03*
D13*
X81740000Y-88680000D03*
X78740000Y-88680000D03*
X78740000Y-85680000D03*
X81740000Y-85680000D03*
X81740000Y-82680000D03*
X78740000Y-82680000D03*
X81740000Y-79680000D03*
X78740000Y-79680000D03*
D14*
X74420000Y-81880000D03*
D13*
X81740000Y-130285000D03*
X78740000Y-130285000D03*
X78740000Y-127285000D03*
X81740000Y-127285000D03*
D14*
X74420000Y-128185000D03*
D13*
X81740000Y-124285000D03*
X78740000Y-124285000D03*
X78740000Y-121285000D03*
X81740000Y-121285000D03*
X81740000Y-118285000D03*
X78740000Y-118285000D03*
X81740000Y-115285000D03*
X78740000Y-115285000D03*
D14*
X74420000Y-117485000D03*
D15*
X118745000Y-77275000D03*
D16*
X116245000Y-77275000D03*
D17*
X118745000Y-84455000D03*
X116245000Y-84455000D03*
D15*
X114935000Y-117280000D03*
D16*
X112435000Y-117280000D03*
D17*
X114935000Y-124460000D03*
X112435000Y-124460000D03*
D18*
X132280000Y-133985000D03*
X127000000Y-133985000D03*
X132280000Y-123825000D03*
X127000000Y-123825000D03*
X132280000Y-113665000D03*
X127000000Y-113665000D03*
X132280000Y-103505000D03*
X127000000Y-103505000D03*
X132280000Y-93345000D03*
X127000000Y-93345000D03*
D11*
X88900000Y-101600000D03*
D12*
X96525000Y-104140000D03*
X96525000Y-99060000D03*
D11*
X88900000Y-111760000D03*
D12*
X96525000Y-114300000D03*
X96525000Y-109220000D03*
D11*
X88900000Y-121920000D03*
D12*
X96525000Y-124460000D03*
X96525000Y-119380000D03*
D11*
X88900000Y-132080000D03*
D12*
X96525000Y-134620000D03*
X96525000Y-129540000D03*
D11*
X142240000Y-133350000D03*
D12*
X149865000Y-135890000D03*
X149865000Y-130810000D03*
D11*
X162560000Y-121920000D03*
D12*
X154935000Y-119380000D03*
X154935000Y-124460000D03*
D11*
X162560000Y-111760000D03*
D12*
X154935000Y-109220000D03*
X154935000Y-114300000D03*
D11*
X162560000Y-101600000D03*
D12*
X154935000Y-99060000D03*
X154935000Y-104140000D03*
D11*
X162560000Y-91440000D03*
D12*
X154935000Y-88900000D03*
X154935000Y-93980000D03*
D19*
X165735000Y-137795000D03*
D20*
X75565000Y-138430000D03*
D19*
X166370000Y-72390000D03*
D20*
X75565000Y-71755000D03*
M02*
