G04 #@! TF.FileFunction,Legend,Top*
%FSLAX46Y46*%
G04 Gerber Fmt 4.6, Leading zero omitted, Abs format (unit mm)*
G04 Created by KiCad (PCBNEW 4.0.7-e2-6376~58~ubuntu16.04.1) date Sun Jan 14 05:36:03 2018*
%MOMM*%
%LPD*%
G01*
G04 APERTURE LIST*
%ADD10C,0.100000*%
%ADD11C,0.147600*%
%ADD12C,0.249200*%
%ADD13C,0.067000*%
%ADD14C,0.120000*%
%ADD15C,0.150000*%
%ADD16C,0.200000*%
G04 APERTURE END LIST*
D10*
D11*
X149933619Y-120339952D02*
X149933619Y-121075667D01*
X149884571Y-121222810D01*
X149786476Y-121320905D01*
X149639333Y-121369952D01*
X149541238Y-121369952D01*
X150571238Y-121369952D02*
X150473143Y-121320905D01*
X150424095Y-121271857D01*
X150375047Y-121173762D01*
X150375047Y-120879476D01*
X150424095Y-120781381D01*
X150473143Y-120732333D01*
X150571238Y-120683286D01*
X150718381Y-120683286D01*
X150816476Y-120732333D01*
X150865524Y-120781381D01*
X150914571Y-120879476D01*
X150914571Y-121173762D01*
X150865524Y-121271857D01*
X150816476Y-121320905D01*
X150718381Y-121369952D01*
X150571238Y-121369952D01*
X151306952Y-121320905D02*
X151405048Y-121369952D01*
X151601238Y-121369952D01*
X151699333Y-121320905D01*
X151748381Y-121222810D01*
X151748381Y-121173762D01*
X151699333Y-121075667D01*
X151601238Y-121026619D01*
X151454095Y-121026619D01*
X151356000Y-120977571D01*
X151306952Y-120879476D01*
X151306952Y-120830429D01*
X151356000Y-120732333D01*
X151454095Y-120683286D01*
X151601238Y-120683286D01*
X151699333Y-120732333D01*
X152189810Y-121369952D02*
X152189810Y-120339952D01*
X152631239Y-121369952D02*
X152631239Y-120830429D01*
X152582191Y-120732333D01*
X152484096Y-120683286D01*
X152336953Y-120683286D01*
X152238858Y-120732333D01*
X152189810Y-120781381D01*
X153906477Y-121369952D02*
X153906477Y-120339952D01*
X154151715Y-120339952D01*
X154298858Y-120389000D01*
X154396953Y-120487095D01*
X154446001Y-120585190D01*
X154495049Y-120781381D01*
X154495049Y-120928524D01*
X154446001Y-121124714D01*
X154396953Y-121222810D01*
X154298858Y-121320905D01*
X154151715Y-121369952D01*
X153906477Y-121369952D01*
X155328858Y-121320905D02*
X155230763Y-121369952D01*
X155034572Y-121369952D01*
X154936477Y-121320905D01*
X154887429Y-121222810D01*
X154887429Y-120830429D01*
X154936477Y-120732333D01*
X155034572Y-120683286D01*
X155230763Y-120683286D01*
X155328858Y-120732333D01*
X155377906Y-120830429D01*
X155377906Y-120928524D01*
X154887429Y-121026619D01*
X155819334Y-120683286D02*
X155819334Y-121369952D01*
X155819334Y-120781381D02*
X155868382Y-120732333D01*
X155966477Y-120683286D01*
X156113620Y-120683286D01*
X156211715Y-120732333D01*
X156260763Y-120830429D01*
X156260763Y-121369952D01*
X157192668Y-120683286D02*
X157192668Y-121517095D01*
X157143620Y-121615190D01*
X157094572Y-121664238D01*
X156996477Y-121713286D01*
X156849334Y-121713286D01*
X156751239Y-121664238D01*
X157192668Y-121320905D02*
X157094572Y-121369952D01*
X156898382Y-121369952D01*
X156800287Y-121320905D01*
X156751239Y-121271857D01*
X156702191Y-121173762D01*
X156702191Y-120879476D01*
X156751239Y-120781381D01*
X156800287Y-120732333D01*
X156898382Y-120683286D01*
X157094572Y-120683286D01*
X157192668Y-120732333D01*
X158925238Y-121369952D02*
X158925238Y-120339952D01*
X159415714Y-121369952D02*
X159415714Y-120339952D01*
X159759047Y-121075667D01*
X160102381Y-120339952D01*
X160102381Y-121369952D01*
X160592857Y-121369952D02*
X160592857Y-120339952D01*
X160838095Y-120339952D01*
X160985238Y-120389000D01*
X161083333Y-120487095D01*
X161132381Y-120585190D01*
X161181429Y-120781381D01*
X161181429Y-120928524D01*
X161132381Y-121124714D01*
X161083333Y-121222810D01*
X160985238Y-121320905D01*
X160838095Y-121369952D01*
X160592857Y-121369952D01*
X162898095Y-121369952D02*
X162407619Y-121369952D01*
X162407619Y-120339952D01*
X163682858Y-121369952D02*
X163682858Y-120830429D01*
X163633810Y-120732333D01*
X163535715Y-120683286D01*
X163339524Y-120683286D01*
X163241429Y-120732333D01*
X163682858Y-121320905D02*
X163584762Y-121369952D01*
X163339524Y-121369952D01*
X163241429Y-121320905D01*
X163192381Y-121222810D01*
X163192381Y-121124714D01*
X163241429Y-121026619D01*
X163339524Y-120977571D01*
X163584762Y-120977571D01*
X163682858Y-120928524D01*
X164026191Y-120683286D02*
X164418572Y-120683286D01*
X164173334Y-120339952D02*
X164173334Y-121222810D01*
X164222382Y-121320905D01*
X164320477Y-121369952D01*
X164418572Y-121369952D01*
X165203334Y-121320905D02*
X165105238Y-121369952D01*
X164909048Y-121369952D01*
X164810953Y-121320905D01*
X164761905Y-121271857D01*
X164712857Y-121173762D01*
X164712857Y-120879476D01*
X164761905Y-120781381D01*
X164810953Y-120732333D01*
X164909048Y-120683286D01*
X165105238Y-120683286D01*
X165203334Y-120732333D01*
X165644762Y-121369952D02*
X165644762Y-120339952D01*
X166086191Y-121369952D02*
X166086191Y-120830429D01*
X166037143Y-120732333D01*
X165939048Y-120683286D01*
X165791905Y-120683286D01*
X165693810Y-120732333D01*
X165644762Y-120781381D01*
X167214286Y-120339952D02*
X167557620Y-121369952D01*
X167900953Y-120339952D01*
X168146191Y-120339952D02*
X168783810Y-120339952D01*
X168440477Y-120732333D01*
X168587619Y-120732333D01*
X168685715Y-120781381D01*
X168734762Y-120830429D01*
X168783810Y-120928524D01*
X168783810Y-121173762D01*
X168734762Y-121271857D01*
X168685715Y-121320905D01*
X168587619Y-121369952D01*
X168293334Y-121369952D01*
X168195238Y-121320905D01*
X168146191Y-121271857D01*
D12*
X148309451Y-118238405D02*
X148529832Y-118238405D01*
X148640023Y-118293500D01*
X148750213Y-118403690D01*
X148805308Y-118624071D01*
X148805308Y-119009738D01*
X148750213Y-119230119D01*
X148640023Y-119340310D01*
X148529832Y-119395405D01*
X148309451Y-119395405D01*
X148199261Y-119340310D01*
X148089070Y-119230119D01*
X148033975Y-119009738D01*
X148033975Y-118624071D01*
X148089070Y-118403690D01*
X148199261Y-118293500D01*
X148309451Y-118238405D01*
X149466451Y-119395405D02*
X149356260Y-119340310D01*
X149301165Y-119230119D01*
X149301165Y-118238405D01*
X149907213Y-119395405D02*
X149907213Y-118624071D01*
X149907213Y-118238405D02*
X149852118Y-118293500D01*
X149907213Y-118348595D01*
X149962308Y-118293500D01*
X149907213Y-118238405D01*
X149907213Y-118348595D01*
X150458165Y-118624071D02*
X150458165Y-119395405D01*
X150458165Y-118734262D02*
X150513260Y-118679167D01*
X150623451Y-118624071D01*
X150788737Y-118624071D01*
X150898927Y-118679167D01*
X150954022Y-118789357D01*
X150954022Y-119395405D01*
X152386499Y-118789357D02*
X152772166Y-118789357D01*
X152937452Y-119395405D02*
X152386499Y-119395405D01*
X152386499Y-118238405D01*
X152937452Y-118238405D01*
X153598595Y-119395405D02*
X153488404Y-119340310D01*
X153433309Y-119230119D01*
X153433309Y-118238405D01*
X154480119Y-119340310D02*
X154369929Y-119395405D01*
X154149548Y-119395405D01*
X154039357Y-119340310D01*
X153984262Y-119230119D01*
X153984262Y-118789357D01*
X154039357Y-118679167D01*
X154149548Y-118624071D01*
X154369929Y-118624071D01*
X154480119Y-118679167D01*
X154535214Y-118789357D01*
X154535214Y-118899548D01*
X153984262Y-119009738D01*
X155526928Y-119340310D02*
X155416738Y-119395405D01*
X155196357Y-119395405D01*
X155086166Y-119340310D01*
X155031071Y-119285214D01*
X154975976Y-119175024D01*
X154975976Y-118844452D01*
X155031071Y-118734262D01*
X155086166Y-118679167D01*
X155196357Y-118624071D01*
X155416738Y-118624071D01*
X155526928Y-118679167D01*
X155857499Y-118624071D02*
X156298261Y-118624071D01*
X156022785Y-118238405D02*
X156022785Y-119230119D01*
X156077880Y-119340310D01*
X156188071Y-119395405D01*
X156298261Y-119395405D01*
X156683928Y-119395405D02*
X156683928Y-118624071D01*
X156683928Y-118844452D02*
X156739023Y-118734262D01*
X156794119Y-118679167D01*
X156904309Y-118624071D01*
X157014500Y-118624071D01*
X157400166Y-119395405D02*
X157400166Y-118624071D01*
X157400166Y-118238405D02*
X157345071Y-118293500D01*
X157400166Y-118348595D01*
X157455261Y-118293500D01*
X157400166Y-118238405D01*
X157400166Y-118348595D01*
X158446975Y-119340310D02*
X158336785Y-119395405D01*
X158116404Y-119395405D01*
X158006213Y-119340310D01*
X157951118Y-119285214D01*
X157896023Y-119175024D01*
X157896023Y-118844452D01*
X157951118Y-118734262D01*
X158006213Y-118679167D01*
X158116404Y-118624071D01*
X158336785Y-118624071D01*
X158446975Y-118679167D01*
X159824356Y-119395405D02*
X159824356Y-118238405D01*
X160210023Y-119064833D01*
X160595690Y-118238405D01*
X160595690Y-119395405D01*
X161311928Y-119395405D02*
X161201737Y-119340310D01*
X161146642Y-119285214D01*
X161091547Y-119175024D01*
X161091547Y-118844452D01*
X161146642Y-118734262D01*
X161201737Y-118679167D01*
X161311928Y-118624071D01*
X161477214Y-118624071D01*
X161587404Y-118679167D01*
X161642499Y-118734262D01*
X161697595Y-118844452D01*
X161697595Y-119175024D01*
X161642499Y-119285214D01*
X161587404Y-119340310D01*
X161477214Y-119395405D01*
X161311928Y-119395405D01*
X162028166Y-118624071D02*
X162468928Y-118624071D01*
X162193452Y-118238405D02*
X162193452Y-119230119D01*
X162248547Y-119340310D01*
X162358738Y-119395405D01*
X162468928Y-119395405D01*
X163019881Y-119395405D02*
X162909690Y-119340310D01*
X162854595Y-119285214D01*
X162799500Y-119175024D01*
X162799500Y-118844452D01*
X162854595Y-118734262D01*
X162909690Y-118679167D01*
X163019881Y-118624071D01*
X163185167Y-118624071D01*
X163295357Y-118679167D01*
X163350452Y-118734262D01*
X163405548Y-118844452D01*
X163405548Y-119175024D01*
X163350452Y-119285214D01*
X163295357Y-119340310D01*
X163185167Y-119395405D01*
X163019881Y-119395405D01*
X163901405Y-119395405D02*
X163901405Y-118624071D01*
X163901405Y-118844452D02*
X163956500Y-118734262D01*
X164011596Y-118679167D01*
X164121786Y-118624071D01*
X164231977Y-118624071D01*
X164562548Y-119340310D02*
X164672738Y-119395405D01*
X164893119Y-119395405D01*
X165003310Y-119340310D01*
X165058405Y-119230119D01*
X165058405Y-119175024D01*
X165003310Y-119064833D01*
X164893119Y-119009738D01*
X164727834Y-119009738D01*
X164617643Y-118954643D01*
X164562548Y-118844452D01*
X164562548Y-118789357D01*
X164617643Y-118679167D01*
X164727834Y-118624071D01*
X164893119Y-118624071D01*
X165003310Y-118679167D01*
X165554262Y-118624071D02*
X165554262Y-119781071D01*
X165554262Y-118679167D02*
X165664453Y-118624071D01*
X165884834Y-118624071D01*
X165995024Y-118679167D01*
X166050119Y-118734262D01*
X166105215Y-118844452D01*
X166105215Y-119175024D01*
X166050119Y-119285214D01*
X165995024Y-119340310D01*
X165884834Y-119395405D01*
X165664453Y-119395405D01*
X165554262Y-119340310D01*
X166766358Y-119395405D02*
X166656167Y-119340310D01*
X166601072Y-119285214D01*
X166545977Y-119175024D01*
X166545977Y-118844452D01*
X166601072Y-118734262D01*
X166656167Y-118679167D01*
X166766358Y-118624071D01*
X166931644Y-118624071D01*
X167041834Y-118679167D01*
X167096929Y-118734262D01*
X167152025Y-118844452D01*
X167152025Y-119175024D01*
X167096929Y-119285214D01*
X167041834Y-119340310D01*
X166931644Y-119395405D01*
X166766358Y-119395405D01*
X167647882Y-119395405D02*
X167647882Y-118624071D01*
X167647882Y-118844452D02*
X167702977Y-118734262D01*
X167758073Y-118679167D01*
X167868263Y-118624071D01*
X167978454Y-118624071D01*
X168198834Y-118624071D02*
X168639596Y-118624071D01*
X168364120Y-118238405D02*
X168364120Y-119230119D01*
X168419215Y-119340310D01*
X168529406Y-119395405D01*
X168639596Y-119395405D01*
X168970168Y-119340310D02*
X169080358Y-119395405D01*
X169300739Y-119395405D01*
X169410930Y-119340310D01*
X169466025Y-119230119D01*
X169466025Y-119175024D01*
X169410930Y-119064833D01*
X169300739Y-119009738D01*
X169135454Y-119009738D01*
X169025263Y-118954643D01*
X168970168Y-118844452D01*
X168970168Y-118789357D01*
X169025263Y-118679167D01*
X169135454Y-118624071D01*
X169300739Y-118624071D01*
X169410930Y-118679167D01*
D13*
X157556391Y-95900370D02*
X157318296Y-95900370D01*
X157318296Y-95400370D01*
X157937343Y-95900370D02*
X157937343Y-95638466D01*
X157913534Y-95590847D01*
X157865915Y-95567037D01*
X157770677Y-95567037D01*
X157723058Y-95590847D01*
X157937343Y-95876561D02*
X157889724Y-95900370D01*
X157770677Y-95900370D01*
X157723058Y-95876561D01*
X157699248Y-95828942D01*
X157699248Y-95781323D01*
X157723058Y-95733704D01*
X157770677Y-95709894D01*
X157889724Y-95709894D01*
X157937343Y-95686085D01*
X158104010Y-95567037D02*
X158294486Y-95567037D01*
X158175439Y-95400370D02*
X158175439Y-95828942D01*
X158199248Y-95876561D01*
X158246867Y-95900370D01*
X158294486Y-95900370D01*
X158675438Y-95876561D02*
X158627819Y-95900370D01*
X158532581Y-95900370D01*
X158484962Y-95876561D01*
X158461153Y-95852751D01*
X158437343Y-95805132D01*
X158437343Y-95662275D01*
X158461153Y-95614656D01*
X158484962Y-95590847D01*
X158532581Y-95567037D01*
X158627819Y-95567037D01*
X158675438Y-95590847D01*
X158889724Y-95900370D02*
X158889724Y-95400370D01*
X159104009Y-95900370D02*
X159104009Y-95638466D01*
X159080200Y-95590847D01*
X159032581Y-95567037D01*
X158961152Y-95567037D01*
X158913533Y-95590847D01*
X158889724Y-95614656D01*
X159961152Y-95900370D02*
X159723057Y-95900370D01*
X159723057Y-95400370D01*
X160127819Y-95638466D02*
X160294485Y-95638466D01*
X160365914Y-95900370D02*
X160127819Y-95900370D01*
X160127819Y-95400370D01*
X160365914Y-95400370D01*
X160580200Y-95900370D02*
X160580200Y-95400370D01*
X160699247Y-95400370D01*
X160770676Y-95424180D01*
X160818295Y-95471799D01*
X160842104Y-95519418D01*
X160865914Y-95614656D01*
X160865914Y-95686085D01*
X160842104Y-95781323D01*
X160818295Y-95828942D01*
X160770676Y-95876561D01*
X160699247Y-95900370D01*
X160580200Y-95900370D01*
X148582369Y-111358810D02*
X148296655Y-111358810D01*
X148439512Y-111358810D02*
X148439512Y-110858810D01*
X148391893Y-110930239D01*
X148344274Y-110977858D01*
X148296655Y-111001668D01*
X148772845Y-110906430D02*
X148796655Y-110882620D01*
X148844274Y-110858810D01*
X148963321Y-110858810D01*
X149010940Y-110882620D01*
X149034750Y-110906430D01*
X149058559Y-110954049D01*
X149058559Y-111001668D01*
X149034750Y-111073096D01*
X148749036Y-111358810D01*
X149058559Y-111358810D01*
X149201416Y-110858810D02*
X149368083Y-111358810D01*
X149534749Y-110858810D01*
X150320463Y-111358810D02*
X150082368Y-111358810D01*
X150082368Y-110858810D01*
X150487130Y-111096906D02*
X150653796Y-111096906D01*
X150725225Y-111358810D02*
X150487130Y-111358810D01*
X150487130Y-110858810D01*
X150725225Y-110858810D01*
X150939511Y-111358810D02*
X150939511Y-110858810D01*
X151058558Y-110858810D01*
X151129987Y-110882620D01*
X151177606Y-110930239D01*
X151201415Y-110977858D01*
X151225225Y-111073096D01*
X151225225Y-111144525D01*
X151201415Y-111239763D01*
X151177606Y-111287382D01*
X151129987Y-111335001D01*
X151058558Y-111358810D01*
X150939511Y-111358810D01*
D14*
X149577500Y-91944300D02*
X150777500Y-91944300D01*
X150777500Y-93704300D02*
X149577500Y-93704300D01*
D15*
X140542500Y-114954000D02*
X145842500Y-114954000D01*
X140542500Y-100184000D02*
X145842500Y-100184000D01*
X140542500Y-114954000D02*
X140542500Y-100184000D01*
X145842500Y-114954000D02*
X145842500Y-100184000D01*
X169020260Y-93599620D02*
X169020260Y-90289620D01*
X169020260Y-90289620D02*
X161220260Y-90289620D01*
X161220260Y-90289620D02*
X161220260Y-93599620D01*
X161220260Y-93599620D02*
X161220260Y-99321620D01*
X169020260Y-93599620D02*
X169020260Y-99321620D01*
X161220260Y-93599620D02*
X169020260Y-93599620D01*
X161220260Y-99321620D02*
X169020260Y-99321620D01*
D14*
X150018860Y-108882740D02*
X150018860Y-107682740D01*
X151778860Y-107682740D02*
X151778860Y-108882740D01*
X151651860Y-103034540D02*
X151651860Y-104234540D01*
X149891860Y-104234540D02*
X149891860Y-103034540D01*
X151687420Y-98493020D02*
X151687420Y-99693020D01*
X149927420Y-99693020D02*
X149927420Y-98493020D01*
X153245260Y-105761900D02*
X154445260Y-105761900D01*
X154445260Y-107521900D02*
X153245260Y-107521900D01*
X158060500Y-94186300D02*
X158060500Y-92986300D01*
X159820500Y-92986300D02*
X159820500Y-94186300D01*
X164201380Y-103710860D02*
X164201380Y-102780860D01*
X164201380Y-100550860D02*
X164201380Y-101480860D01*
X164201380Y-100550860D02*
X162041380Y-100550860D01*
X164201380Y-103710860D02*
X162741380Y-103710860D01*
X152037160Y-117331860D02*
X153037160Y-117331860D01*
X153037160Y-115631860D02*
X152037160Y-115631860D01*
X156086500Y-114657020D02*
X176526500Y-114657020D01*
X176526500Y-114657020D02*
X176526500Y-104357020D01*
X156086500Y-114657020D02*
X156086500Y-104357020D01*
X156086500Y-104357020D02*
X176526500Y-104357020D01*
X146355620Y-109018580D02*
X146355620Y-107018580D01*
X149315620Y-107018580D02*
X149315620Y-109018580D01*
D15*
X156995500Y-94172300D02*
X151995500Y-94172300D01*
X151995500Y-97572300D02*
X151995500Y-94172300D01*
X152065500Y-95237300D02*
X152827500Y-95237300D01*
X152827500Y-95237300D02*
X152827500Y-96507300D01*
X152827500Y-96507300D02*
X152065500Y-96507300D01*
X156995500Y-97572300D02*
X156995500Y-94172300D01*
X156995500Y-97572300D02*
X151995500Y-97572300D01*
D16*
X148980400Y-100530100D02*
X148080400Y-101630100D01*
X147280400Y-100530100D02*
X148980400Y-100530100D01*
X148080400Y-101630100D02*
X147280400Y-100530100D01*
X147280400Y-101630100D02*
X148980400Y-101630100D01*
D14*
X146646900Y-104305100D02*
X149313900Y-104305100D01*
X149313900Y-104305100D02*
X149313900Y-101130100D01*
X146646900Y-104305100D02*
X146646900Y-101130100D01*
D10*
X154348180Y-110137460D02*
X153948180Y-110737460D01*
X153948180Y-110737460D02*
X154748180Y-110737460D01*
X154348180Y-110137460D02*
X154748180Y-110737460D01*
X153798180Y-110137460D02*
X154898180Y-110137460D01*
D14*
X155348180Y-108287460D02*
X153348180Y-108287460D01*
X153348180Y-108287460D02*
X153348180Y-112137460D01*
X155348180Y-108287460D02*
X155348180Y-112137460D01*
X159050260Y-103771820D02*
X159050260Y-102841820D01*
X159050260Y-100611820D02*
X159050260Y-101541820D01*
X159050260Y-100611820D02*
X156890260Y-100611820D01*
X159050260Y-103771820D02*
X157590260Y-103771820D01*
X151794920Y-113290460D02*
X152994920Y-113290460D01*
X152994920Y-115050460D02*
X151794920Y-115050460D01*
X149577500Y-94484300D02*
X150777500Y-94484300D01*
X150777500Y-96244300D02*
X149577500Y-96244300D01*
X154956260Y-100840940D02*
X153156260Y-100840940D01*
X153156260Y-104060940D02*
X155606260Y-104060940D01*
D10*
X158833300Y-98327820D02*
X158483300Y-98327820D01*
X158483300Y-98327820D02*
X158133300Y-98327820D01*
X158833300Y-97977820D02*
X158483300Y-98327820D01*
X158783300Y-97977820D02*
X158833300Y-97977820D01*
X158833300Y-97977820D02*
X158783300Y-97977820D01*
X158133300Y-97977820D02*
X158783300Y-97977820D01*
X158183300Y-98027820D02*
X158133300Y-97977820D01*
X158483300Y-98327820D02*
X158183300Y-98027820D01*
D14*
X157783300Y-99927820D02*
X159183300Y-99927820D01*
X159183300Y-99927820D02*
X159183300Y-97127820D01*
X157783300Y-99927820D02*
X157783300Y-97127820D01*
D10*
X148097900Y-112798340D02*
X148097900Y-112448340D01*
X148097900Y-112448340D02*
X148097900Y-112098340D01*
X148447900Y-112798340D02*
X148097900Y-112448340D01*
X148447900Y-112748340D02*
X148447900Y-112798340D01*
X148447900Y-112798340D02*
X148447900Y-112748340D01*
X148447900Y-112098340D02*
X148447900Y-112748340D01*
X148397900Y-112148340D02*
X148447900Y-112098340D01*
X148097900Y-112448340D02*
X148397900Y-112148340D01*
D14*
X146497900Y-111748340D02*
X146497900Y-113148340D01*
X146497900Y-113148340D02*
X149297900Y-113148340D01*
X146497900Y-111748340D02*
X149297900Y-111748340D01*
D15*
X148470881Y-92990966D02*
X147994690Y-93324300D01*
X148470881Y-93562395D02*
X147470881Y-93562395D01*
X147470881Y-93181442D01*
X147518500Y-93086204D01*
X147566119Y-93038585D01*
X147661357Y-92990966D01*
X147804214Y-92990966D01*
X147899452Y-93038585D01*
X147947071Y-93086204D01*
X147994690Y-93181442D01*
X147994690Y-93562395D01*
X147470881Y-92133823D02*
X147470881Y-92324300D01*
X147518500Y-92419538D01*
X147566119Y-92467157D01*
X147708976Y-92562395D01*
X147899452Y-92610014D01*
X148280405Y-92610014D01*
X148375643Y-92562395D01*
X148423262Y-92514776D01*
X148470881Y-92419538D01*
X148470881Y-92229061D01*
X148423262Y-92133823D01*
X148375643Y-92086204D01*
X148280405Y-92038585D01*
X148042310Y-92038585D01*
X147947071Y-92086204D01*
X147899452Y-92133823D01*
X147851833Y-92229061D01*
X147851833Y-92419538D01*
X147899452Y-92514776D01*
X147947071Y-92562395D01*
X148042310Y-92610014D01*
X144383167Y-100417381D02*
X144383167Y-101131667D01*
X144335547Y-101274524D01*
X144240309Y-101369762D01*
X144097452Y-101417381D01*
X144002214Y-101417381D01*
X145383167Y-101417381D02*
X144811738Y-101417381D01*
X145097452Y-101417381D02*
X145097452Y-100417381D01*
X145002214Y-100560238D01*
X144906976Y-100655476D01*
X144811738Y-100703095D01*
X146553252Y-115332857D02*
X146505633Y-115422143D01*
X146458014Y-115463809D01*
X146362776Y-115499523D01*
X146315157Y-115493571D01*
X146219919Y-115434047D01*
X146172300Y-115380476D01*
X146124681Y-115279286D01*
X146124681Y-115088809D01*
X146172300Y-114999523D01*
X146219919Y-114957856D01*
X146315157Y-114922142D01*
X146362776Y-114928094D01*
X146458014Y-114987618D01*
X146505633Y-115041190D01*
X146553252Y-115142380D01*
X146553252Y-115332857D01*
X146600871Y-115434047D01*
X146648490Y-115487619D01*
X146743729Y-115547143D01*
X146934205Y-115570952D01*
X147029443Y-115535238D01*
X147077062Y-115493571D01*
X147124681Y-115404286D01*
X147124681Y-115213809D01*
X147077062Y-115112618D01*
X147029443Y-115059047D01*
X146934205Y-114999523D01*
X146743729Y-114975714D01*
X146648490Y-115011428D01*
X146600871Y-115053094D01*
X146553252Y-115142380D01*
X142184381Y-99453133D02*
X142184381Y-100024562D01*
X142184381Y-99738848D02*
X141184381Y-99613848D01*
X141327238Y-99726943D01*
X141422476Y-99834085D01*
X141470095Y-99935276D01*
X159972761Y-97678833D02*
X160687047Y-97678833D01*
X160829904Y-97726453D01*
X160925142Y-97821691D01*
X160972761Y-97964548D01*
X160972761Y-98059786D01*
X160067999Y-97250262D02*
X160020380Y-97202643D01*
X159972761Y-97107405D01*
X159972761Y-96869309D01*
X160020380Y-96774071D01*
X160067999Y-96726452D01*
X160163237Y-96678833D01*
X160258475Y-96678833D01*
X160401332Y-96726452D01*
X160972761Y-97297881D01*
X160972761Y-96678833D01*
X150574714Y-106616801D02*
X150241380Y-106140610D01*
X150003285Y-106616801D02*
X150003285Y-105616801D01*
X150384238Y-105616801D01*
X150479476Y-105664420D01*
X150527095Y-105712039D01*
X150574714Y-105807277D01*
X150574714Y-105950134D01*
X150527095Y-106045372D01*
X150479476Y-106092991D01*
X150384238Y-106140610D01*
X150003285Y-106140610D01*
X151527095Y-106616801D02*
X150955666Y-106616801D01*
X151241380Y-106616801D02*
X151241380Y-105616801D01*
X151146142Y-105759658D01*
X151050904Y-105854896D01*
X150955666Y-105902515D01*
X150899834Y-101953321D02*
X150566500Y-101477130D01*
X150328405Y-101953321D02*
X150328405Y-100953321D01*
X150709358Y-100953321D01*
X150804596Y-101000940D01*
X150852215Y-101048559D01*
X150899834Y-101143797D01*
X150899834Y-101286654D01*
X150852215Y-101381892D01*
X150804596Y-101429511D01*
X150709358Y-101477130D01*
X150328405Y-101477130D01*
X151280786Y-101048559D02*
X151328405Y-101000940D01*
X151423643Y-100953321D01*
X151661739Y-100953321D01*
X151756977Y-101000940D01*
X151804596Y-101048559D01*
X151852215Y-101143797D01*
X151852215Y-101239035D01*
X151804596Y-101381892D01*
X151233167Y-101953321D01*
X151852215Y-101953321D01*
X150425993Y-97356818D02*
X150140660Y-96949199D01*
X149936851Y-97356818D02*
X149936851Y-96500818D01*
X150262946Y-96500818D01*
X150344470Y-96541580D01*
X150385231Y-96582342D01*
X150425993Y-96663866D01*
X150425993Y-96786151D01*
X150385231Y-96867675D01*
X150344470Y-96908437D01*
X150262946Y-96949199D01*
X149936851Y-96949199D01*
X150711327Y-96500818D02*
X151241231Y-96500818D01*
X150955898Y-96826913D01*
X151078184Y-96826913D01*
X151159708Y-96867675D01*
X151200470Y-96908437D01*
X151241231Y-96989961D01*
X151241231Y-97193770D01*
X151200470Y-97275294D01*
X151159708Y-97316056D01*
X151078184Y-97356818D01*
X150833612Y-97356818D01*
X150752089Y-97316056D01*
X150711327Y-97275294D01*
X152632114Y-105605841D02*
X152298780Y-105129650D01*
X152060685Y-105605841D02*
X152060685Y-104605841D01*
X152441638Y-104605841D01*
X152536876Y-104653460D01*
X152584495Y-104701079D01*
X152632114Y-104796317D01*
X152632114Y-104939174D01*
X152584495Y-105034412D01*
X152536876Y-105082031D01*
X152441638Y-105129650D01*
X152060685Y-105129650D01*
X153489257Y-104939174D02*
X153489257Y-105605841D01*
X153251161Y-104558222D02*
X153013066Y-105272508D01*
X153632114Y-105272508D01*
X160877205Y-93620573D02*
X160496252Y-93887240D01*
X160877205Y-94077716D02*
X160077205Y-94077716D01*
X160077205Y-93772954D01*
X160115300Y-93696763D01*
X160153395Y-93658668D01*
X160229586Y-93620573D01*
X160343871Y-93620573D01*
X160420062Y-93658668D01*
X160458157Y-93696763D01*
X160496252Y-93772954D01*
X160496252Y-94077716D01*
X160077205Y-92896763D02*
X160077205Y-93277716D01*
X160458157Y-93315811D01*
X160420062Y-93277716D01*
X160381967Y-93201525D01*
X160381967Y-93011049D01*
X160420062Y-92934859D01*
X160458157Y-92896763D01*
X160534348Y-92858668D01*
X160724824Y-92858668D01*
X160801014Y-92896763D01*
X160839110Y-92934859D01*
X160877205Y-93011049D01*
X160877205Y-93201525D01*
X160839110Y-93277716D01*
X160801014Y-93315811D01*
X165240982Y-101154479D02*
X165145744Y-101106860D01*
X165050506Y-101011622D01*
X164907649Y-100868765D01*
X164812410Y-100821146D01*
X164717172Y-100821146D01*
X164764791Y-101059241D02*
X164669553Y-101011622D01*
X164574315Y-100916384D01*
X164526696Y-100725908D01*
X164526696Y-100392574D01*
X164574315Y-100202098D01*
X164669553Y-100106860D01*
X164764791Y-100059241D01*
X164955268Y-100059241D01*
X165050506Y-100106860D01*
X165145744Y-100202098D01*
X165193363Y-100392574D01*
X165193363Y-100725908D01*
X165145744Y-100916384D01*
X165050506Y-101011622D01*
X164955268Y-101059241D01*
X164764791Y-101059241D01*
X166145744Y-101059241D02*
X165574315Y-101059241D01*
X165860029Y-101059241D02*
X165860029Y-100059241D01*
X165764791Y-100202098D01*
X165669553Y-100297336D01*
X165574315Y-100344955D01*
X155424143Y-116562166D02*
X155471762Y-116609785D01*
X155519381Y-116752642D01*
X155519381Y-116847880D01*
X155471762Y-116990738D01*
X155376524Y-117085976D01*
X155281286Y-117133595D01*
X155090810Y-117181214D01*
X154947952Y-117181214D01*
X154757476Y-117133595D01*
X154662238Y-117085976D01*
X154567000Y-116990738D01*
X154519381Y-116847880D01*
X154519381Y-116752642D01*
X154567000Y-116609785D01*
X154614619Y-116562166D01*
X155519381Y-115609785D02*
X155519381Y-116181214D01*
X155519381Y-115895500D02*
X154519381Y-115895500D01*
X154662238Y-115990738D01*
X154757476Y-116085976D01*
X154805095Y-116181214D01*
X174902905Y-103957381D02*
X174902905Y-102957381D01*
X175474334Y-103957381D02*
X175045762Y-103385952D01*
X175474334Y-102957381D02*
X174902905Y-103528810D01*
X176426715Y-103957381D02*
X175855286Y-103957381D01*
X176141000Y-103957381D02*
X176141000Y-102957381D01*
X176045762Y-103100238D01*
X175950524Y-103195476D01*
X175855286Y-103243095D01*
X146824107Y-105160771D02*
X146490773Y-105160771D01*
X146490773Y-105684581D02*
X146490773Y-104684581D01*
X146966964Y-104684581D01*
X147871726Y-105684581D02*
X147300297Y-105684581D01*
X147586011Y-105684581D02*
X147586011Y-104684581D01*
X147490773Y-104827438D01*
X147395535Y-104922676D01*
X147300297Y-104970295D01*
X155790976Y-91243205D02*
X155790976Y-91890824D01*
X155829071Y-91967014D01*
X155867167Y-92005110D01*
X155943357Y-92043205D01*
X156095738Y-92043205D01*
X156171929Y-92005110D01*
X156210024Y-91967014D01*
X156248119Y-91890824D01*
X156248119Y-91243205D01*
X157048119Y-92043205D02*
X156590976Y-92043205D01*
X156819547Y-92043205D02*
X156819547Y-91243205D01*
X156743357Y-91357490D01*
X156667166Y-91433681D01*
X156590976Y-91471776D01*
X146531105Y-97696281D02*
X146531105Y-96696281D01*
X146769200Y-96696281D01*
X146912058Y-96743900D01*
X147007296Y-96839138D01*
X147054915Y-96934376D01*
X147102534Y-97124852D01*
X147102534Y-97267710D01*
X147054915Y-97458186D01*
X147007296Y-97553424D01*
X146912058Y-97648662D01*
X146769200Y-97696281D01*
X146531105Y-97696281D01*
X148054915Y-97696281D02*
X147483486Y-97696281D01*
X147769200Y-97696281D02*
X147769200Y-96696281D01*
X147673962Y-96839138D01*
X147578724Y-96934376D01*
X147483486Y-96981995D01*
X152997161Y-111423675D02*
X151997161Y-111423675D01*
X151997161Y-111185580D01*
X152044780Y-111042722D01*
X152140018Y-110947484D01*
X152235256Y-110899865D01*
X152425732Y-110852246D01*
X152568590Y-110852246D01*
X152759066Y-110899865D01*
X152854304Y-110947484D01*
X152949542Y-111042722D01*
X152997161Y-111185580D01*
X152997161Y-111423675D01*
X152330494Y-109995103D02*
X152997161Y-109995103D01*
X151949542Y-110233199D02*
X152663828Y-110471294D01*
X152663828Y-109852246D01*
X160100022Y-101179879D02*
X160004784Y-101132260D01*
X159909546Y-101037022D01*
X159766689Y-100894165D01*
X159671450Y-100846546D01*
X159576212Y-100846546D01*
X159623831Y-101084641D02*
X159528593Y-101037022D01*
X159433355Y-100941784D01*
X159385736Y-100751308D01*
X159385736Y-100417974D01*
X159433355Y-100227498D01*
X159528593Y-100132260D01*
X159623831Y-100084641D01*
X159814308Y-100084641D01*
X159909546Y-100132260D01*
X160004784Y-100227498D01*
X160052403Y-100417974D01*
X160052403Y-100751308D01*
X160004784Y-100941784D01*
X159909546Y-101037022D01*
X159814308Y-101084641D01*
X159623831Y-101084641D01*
X160433355Y-100179879D02*
X160480974Y-100132260D01*
X160576212Y-100084641D01*
X160814308Y-100084641D01*
X160909546Y-100132260D01*
X160957165Y-100179879D01*
X161004784Y-100275117D01*
X161004784Y-100370355D01*
X160957165Y-100513212D01*
X160385736Y-101084641D01*
X161004784Y-101084641D01*
X151887894Y-113037881D02*
X151554560Y-112561690D01*
X151316465Y-113037881D02*
X151316465Y-112037881D01*
X151697418Y-112037881D01*
X151792656Y-112085500D01*
X151840275Y-112133119D01*
X151887894Y-112228357D01*
X151887894Y-112371214D01*
X151840275Y-112466452D01*
X151792656Y-112514071D01*
X151697418Y-112561690D01*
X151316465Y-112561690D01*
X152221227Y-112037881D02*
X152887894Y-112037881D01*
X152459322Y-113037881D01*
X148470881Y-95530966D02*
X147994690Y-95864300D01*
X148470881Y-96102395D02*
X147470881Y-96102395D01*
X147470881Y-95721442D01*
X147518500Y-95626204D01*
X147566119Y-95578585D01*
X147661357Y-95530966D01*
X147804214Y-95530966D01*
X147899452Y-95578585D01*
X147947071Y-95626204D01*
X147994690Y-95721442D01*
X147994690Y-96102395D01*
X147899452Y-94959538D02*
X147851833Y-95054776D01*
X147804214Y-95102395D01*
X147708976Y-95150014D01*
X147661357Y-95150014D01*
X147566119Y-95102395D01*
X147518500Y-95054776D01*
X147470881Y-94959538D01*
X147470881Y-94769061D01*
X147518500Y-94673823D01*
X147566119Y-94626204D01*
X147661357Y-94578585D01*
X147708976Y-94578585D01*
X147804214Y-94626204D01*
X147851833Y-94673823D01*
X147899452Y-94769061D01*
X147899452Y-94959538D01*
X147947071Y-95054776D01*
X147994690Y-95102395D01*
X148089929Y-95150014D01*
X148280405Y-95150014D01*
X148375643Y-95102395D01*
X148423262Y-95054776D01*
X148470881Y-94959538D01*
X148470881Y-94769061D01*
X148423262Y-94673823D01*
X148375643Y-94626204D01*
X148280405Y-94578585D01*
X148089929Y-94578585D01*
X147994690Y-94626204D01*
X147947071Y-94673823D01*
X147899452Y-94769061D01*
X155155976Y-99691245D02*
X155155976Y-100338864D01*
X155194071Y-100415054D01*
X155232167Y-100453150D01*
X155308357Y-100491245D01*
X155460738Y-100491245D01*
X155536929Y-100453150D01*
X155575024Y-100415054D01*
X155613119Y-100338864D01*
X155613119Y-99691245D01*
X155955976Y-99767435D02*
X155994071Y-99729340D01*
X156070262Y-99691245D01*
X156260738Y-99691245D01*
X156336928Y-99729340D01*
X156375024Y-99767435D01*
X156413119Y-99843626D01*
X156413119Y-99919816D01*
X156375024Y-100034102D01*
X155917881Y-100491245D01*
X156413119Y-100491245D01*
X160353965Y-99576816D02*
X159553965Y-99576816D01*
X159553965Y-99386340D01*
X159592060Y-99272054D01*
X159668250Y-99195863D01*
X159744441Y-99157768D01*
X159896822Y-99119673D01*
X160011108Y-99119673D01*
X160163489Y-99157768D01*
X160239679Y-99195863D01*
X160315870Y-99272054D01*
X160353965Y-99386340D01*
X160353965Y-99576816D01*
X159553965Y-98853006D02*
X159553965Y-98357768D01*
X159858727Y-98624435D01*
X159858727Y-98510149D01*
X159896822Y-98433959D01*
X159934917Y-98395863D01*
X160011108Y-98357768D01*
X160201584Y-98357768D01*
X160277774Y-98395863D01*
X160315870Y-98433959D01*
X160353965Y-98510149D01*
X160353965Y-98738721D01*
X160315870Y-98814911D01*
X160277774Y-98853006D01*
X146452365Y-111366561D02*
X146452365Y-110366561D01*
X146690460Y-110366561D01*
X146833318Y-110414180D01*
X146928556Y-110509418D01*
X146976175Y-110604656D01*
X147023794Y-110795132D01*
X147023794Y-110937990D01*
X146976175Y-111128466D01*
X146928556Y-111223704D01*
X146833318Y-111318942D01*
X146690460Y-111366561D01*
X146452365Y-111366561D01*
X147404746Y-110461799D02*
X147452365Y-110414180D01*
X147547603Y-110366561D01*
X147785699Y-110366561D01*
X147880937Y-110414180D01*
X147928556Y-110461799D01*
X147976175Y-110557037D01*
X147976175Y-110652275D01*
X147928556Y-110795132D01*
X147357127Y-111366561D01*
X147976175Y-111366561D01*
M02*
