M48
;DRILL file {KiCad 4.0.7-e2-6376~58~ubuntu16.04.1} date Sat Feb  3 17:42:30 2018
;FORMAT={-:-/ absolute / inch / decimal}
FMAT,2
INCH,TZ
T1C0.012
T2C0.031
T3C0.040
T4C0.063
%
G90
G05
M72
T1
X6.845Y-4.285
X6.92Y-4.31
X6.96Y-4.25
X7.03Y-4.14
X7.31Y-4.446
X7.31Y-4.495
X7.31Y-4.55
X7.315Y-4.005
X7.425Y-4.445
X7.425Y-4.495
X7.52Y-4.445
X7.95Y-4.015
T2
X5.9481Y-4.3583
X5.952Y-4.6417
X6.0481Y-4.3583
X6.052Y-4.6417
X6.1481Y-4.3583
X6.152Y-4.6417
X6.2481Y-4.3583
X6.2519Y-4.6417
X6.348Y-4.3583
X6.3519Y-4.6417
X6.448Y-4.3583
X6.4519Y-4.6417
X6.548Y-4.3583
X6.5519Y-4.6417
X7.1481Y-4.3583
X7.152Y-4.6417
X7.2481Y-4.3583
X7.252Y-4.6417
X7.3481Y-4.3583
X7.352Y-4.6417
X7.4481Y-4.3583
X7.4519Y-4.6417
X7.548Y-4.3583
X7.5519Y-4.6417
X7.648Y-4.3583
X7.6519Y-4.6417
X7.748Y-4.3583
X7.7519Y-4.6417
T3
X7.4183Y-4.105
X7.5561Y-4.105
X7.6939Y-4.105
X7.8317Y-4.105
T4
X7.7628Y-4.1928
T0
M30
