G04 #@! TF.FileFunction,Soldermask,Bot*
%FSLAX46Y46*%
G04 Gerber Fmt 4.6, Leading zero omitted, Abs format (unit mm)*
G04 Created by KiCad (PCBNEW 4.0.7-e2-6376~58~ubuntu16.04.1) date Sat Feb  3 17:42:28 2018*
%MOMM*%
%LPD*%
G01*
G04 APERTURE LIST*
%ADD10C,0.100000*%
%ADD11C,1.797000*%
%ADD12C,2.381000*%
%ADD13R,1.670000X0.908000*%
%ADD14C,2.076400*%
%ADD15R,1.400000X1.650000*%
%ADD16R,1.600000X1.600000*%
%ADD17R,1.700000X1.100000*%
G04 APERTURE END LIST*
D10*
D11*
X195425000Y-104267000D03*
X198925000Y-104267000D03*
D12*
X197175000Y-106497000D03*
D11*
X191925000Y-104267000D03*
X188425000Y-104267000D03*
D13*
X178562000Y-106045000D03*
X178562000Y-107315000D03*
X178562000Y-108585000D03*
X178562000Y-109855000D03*
X178562000Y-111125000D03*
X178562000Y-112395000D03*
X178562000Y-113665000D03*
X178562000Y-114935000D03*
X178562000Y-116205000D03*
X178562000Y-117475000D03*
X178562000Y-118745000D03*
X178562000Y-120015000D03*
X178562000Y-121285000D03*
X178562000Y-122555000D03*
X169519600Y-122555000D03*
X169519600Y-121285000D03*
X169519600Y-120015000D03*
X169519600Y-118745000D03*
X169519600Y-117475000D03*
X169519600Y-116205000D03*
X169519600Y-114935000D03*
X169519600Y-113665000D03*
X169519600Y-112395000D03*
X169519600Y-111125000D03*
X169519600Y-109855000D03*
X169519600Y-108585000D03*
X169519600Y-107315000D03*
X169519600Y-106045000D03*
D14*
X196799200Y-110700820D03*
X194259200Y-110700820D03*
X191719200Y-110700820D03*
X189181740Y-110700820D03*
X186641740Y-110700820D03*
X184101740Y-110700820D03*
X181561740Y-110700820D03*
X181660800Y-117899180D03*
X184200800Y-117899180D03*
X186740800Y-117899180D03*
X189278260Y-117899180D03*
X191818260Y-117899180D03*
X194358260Y-117899180D03*
X196898260Y-117899180D03*
D15*
X182515000Y-101727000D03*
X184515000Y-101727000D03*
D16*
X203200000Y-104224000D03*
X203200000Y-102024000D03*
D14*
X166319200Y-110700820D03*
X163779200Y-110700820D03*
X161239200Y-110700820D03*
X158701740Y-110700820D03*
X156161740Y-110700820D03*
X153621740Y-110700820D03*
X151081740Y-110700820D03*
X151180800Y-117899180D03*
X153720800Y-117899180D03*
X156260800Y-117899180D03*
X158798260Y-117899180D03*
X161338260Y-117899180D03*
X163878260Y-117899180D03*
X166418260Y-117899180D03*
D17*
X184738656Y-103763024D03*
X184738656Y-105663024D03*
X182325656Y-103763024D03*
X182325656Y-105663024D03*
X203200000Y-108138000D03*
X203200000Y-106238000D03*
M02*
