G04 #@! TF.FileFunction,Copper,L1,Top,Signal*
%FSLAX46Y46*%
G04 Gerber Fmt 4.6, Leading zero omitted, Abs format (unit mm)*
G04 Created by KiCad (PCBNEW 4.0.7-e2-6376~58~ubuntu16.04.1) date Tue Feb  6 09:54:39 2018*
%MOMM*%
%LPD*%
G01*
G04 APERTURE LIST*
%ADD10C,0.100000*%
%ADD11C,2.020000*%
%ADD12C,5.280000*%
%ADD13C,1.800000*%
%ADD14R,1.200000X1.200000*%
%ADD15C,1.600000*%
%ADD16C,1.300000*%
%ADD17C,2.900000*%
%ADD18C,1.397000*%
%ADD19C,1.981000*%
%ADD20C,0.508000*%
G04 APERTURE END LIST*
D10*
D11*
X185564000Y-55880000D03*
X186000000Y-50040000D03*
X191850000Y-50040000D03*
X191850000Y-55880000D03*
D12*
X188930000Y-32350000D03*
X188930000Y-73570000D03*
D13*
X172908000Y-56254000D03*
X172908000Y-63754000D03*
X167908000Y-63754000D03*
X152908000Y-63754000D03*
X152908000Y-56254000D03*
X167908000Y-56254000D03*
X177908000Y-63754000D03*
X177908000Y-56254000D03*
D14*
X147704000Y-58420000D03*
X144904000Y-58420000D03*
D15*
X104267000Y-55118000D03*
X111767000Y-55128000D03*
X111760000Y-48895000D03*
X104260000Y-48885000D03*
D16*
X178308000Y-41148000D03*
X145308000Y-41148000D03*
X178308000Y-33274000D03*
X145308000Y-33274000D03*
X129286000Y-56007000D03*
X129286000Y-45107000D03*
D17*
X126616000Y-63320000D03*
X126616000Y-38280000D03*
D18*
X113500000Y-64000000D03*
X113500000Y-60500000D03*
D19*
X105590000Y-62250000D03*
D18*
X113500000Y-43669000D03*
X113500000Y-40000000D03*
D19*
X105590000Y-41750000D03*
D18*
X113500000Y-35000000D03*
X113500000Y-31500000D03*
D19*
X105590000Y-33250000D03*
D18*
X147828000Y-63754000D03*
X144328000Y-63754000D03*
D19*
X146078000Y-71664000D03*
D18*
X113500000Y-72390000D03*
X113500000Y-68890000D03*
D19*
X105590000Y-70640000D03*
D20*
X144328000Y-63754000D02*
X144328000Y-58996000D01*
X144328000Y-58996000D02*
X144904000Y-58420000D01*
X144904000Y-58420000D02*
X144904000Y-57280000D01*
X145930000Y-56254000D02*
X152908000Y-56254000D01*
X144904000Y-57280000D02*
X145930000Y-56254000D01*
X147828000Y-63754000D02*
X147828000Y-58544000D01*
X147828000Y-58544000D02*
X147704000Y-58420000D01*
X147828000Y-63754000D02*
X152908000Y-63754000D01*
X147704000Y-58420000D02*
X147704000Y-58550000D01*
X113500000Y-40000000D02*
X109606000Y-40000000D01*
X107696000Y-51689000D02*
X104267000Y-55118000D01*
X107696000Y-41910000D02*
X107696000Y-51689000D01*
X109606000Y-40000000D02*
X107696000Y-41910000D01*
X113500000Y-60500000D02*
X109649000Y-60500000D01*
X109649000Y-60500000D02*
X104267000Y-55118000D01*
X113500000Y-40000000D02*
X113500000Y-40297000D01*
X113500000Y-31500000D02*
X111502000Y-31500000D01*
X109474000Y-35974000D02*
X113500000Y-40000000D01*
X109474000Y-33528000D02*
X109474000Y-35974000D01*
X111502000Y-31500000D02*
X109474000Y-33528000D01*
X111767000Y-55128000D02*
X111767000Y-54349000D01*
X111767000Y-54349000D02*
X123698000Y-42418000D01*
X128143000Y-33274000D02*
X145308000Y-33274000D01*
X123698000Y-37719000D02*
X128143000Y-33274000D01*
X123698000Y-42418000D02*
X123698000Y-37719000D01*
X111767000Y-55128000D02*
X114056000Y-55128000D01*
X117602000Y-64788000D02*
X113500000Y-68890000D01*
X117602000Y-58674000D02*
X117602000Y-64788000D01*
X114056000Y-55128000D02*
X117602000Y-58674000D01*
X113500000Y-68890000D02*
X113500000Y-64000000D01*
X145308000Y-33274000D02*
X160782000Y-33274000D01*
X160782000Y-33274000D02*
X174752000Y-47244000D01*
X174752000Y-47244000D02*
X174752000Y-61910000D01*
X174752000Y-61910000D02*
X172908000Y-63754000D01*
X111760000Y-48895000D02*
X111760000Y-45409000D01*
X111760000Y-45409000D02*
X113500000Y-43669000D01*
X113500000Y-35000000D02*
X113500000Y-35141000D01*
X113500000Y-35141000D02*
X116459000Y-38100000D01*
X116459000Y-38100000D02*
X116459000Y-40710000D01*
X116459000Y-40710000D02*
X113500000Y-43669000D01*
X113500000Y-72390000D02*
X103886000Y-72390000D01*
X101219000Y-51926000D02*
X104260000Y-48885000D01*
X101219000Y-69723000D02*
X101219000Y-51926000D01*
X103886000Y-72390000D02*
X101219000Y-69723000D01*
X145308000Y-41148000D02*
X142113000Y-41148000D01*
X129286000Y-53975000D02*
X129286000Y-56007000D01*
X142113000Y-41148000D02*
X129286000Y-53975000D01*
X113500000Y-72390000D02*
X116713000Y-72390000D01*
X124079000Y-61214000D02*
X129286000Y-56007000D01*
X124079000Y-65024000D02*
X124079000Y-61214000D01*
X116713000Y-72390000D02*
X124079000Y-65024000D01*
X178308000Y-41148000D02*
X182245000Y-41148000D01*
X186000000Y-44903000D02*
X186000000Y-50040000D01*
X182245000Y-41148000D02*
X186000000Y-44903000D01*
X185564000Y-55880000D02*
X184023000Y-55880000D01*
X174752000Y-36830000D02*
X178308000Y-33274000D01*
X174752000Y-41529000D02*
X174752000Y-36830000D01*
X178689000Y-45466000D02*
X174752000Y-41529000D01*
X178689000Y-50546000D02*
X178689000Y-45466000D01*
X184023000Y-55880000D02*
X178689000Y-50546000D01*
X178308000Y-33274000D02*
X178308000Y-33528000D01*
X128778000Y-45234000D02*
X130280000Y-45234000D01*
X167908000Y-46750000D02*
X167908000Y-56254000D01*
X158242000Y-37084000D02*
X167908000Y-46750000D01*
X138430000Y-37084000D02*
X158242000Y-37084000D01*
X130280000Y-45234000D02*
X138430000Y-37084000D01*
X128778000Y-45234000D02*
X128778000Y-45212000D01*
M02*
