M48
;DRILL file {KiCad 4.0.7-e2-6376~58~ubuntu16.04.1} date Tue Feb  6 09:54:22 2018
;FORMAT={-:-/ absolute / inch / decimal}
FMAT,2
INCH,TZ
T1C0.031
T2C0.040
T3C0.043
T4C0.051
T5C0.060
T6C0.063
T7C0.094
T8C0.188
%
G90
G05
M72
T1
X5.09Y-1.7759
X5.09Y-2.205
X5.7208Y-1.31
X5.7208Y-1.62
X7.02Y-1.31
X7.02Y-1.62
T2
X4.4685Y-1.2402
X4.4685Y-1.378
X4.4685Y-1.5748
X4.4685Y-1.7193
X4.4685Y-2.3819
X4.4685Y-2.5197
X4.4685Y-2.7122
X4.4685Y-2.85
X5.6822Y-2.51
X5.82Y-2.51
T3
X4.1047Y-1.9246
X4.105Y-2.17
X4.4Y-1.925
X4.4003Y-2.1704
T4
X6.02Y-2.2147
X6.02Y-2.51
X6.6106Y-2.2147
X6.6106Y-2.51
X6.8074Y-2.2147
X6.8074Y-2.51
X7.0043Y-2.2147
X7.0043Y-2.51
T5
X7.3057Y-2.2
X7.3228Y-1.9701
X7.5531Y-1.9701
X7.5531Y-2.2
T6
X4.1571Y-1.3091
X4.1571Y-1.6437
X4.1571Y-2.4508
X4.1571Y-2.7811
X5.7511Y-2.8214
T7
X4.9849Y-1.5071
X4.9849Y-2.4929
T8
X7.4382Y-1.2736
X7.4382Y-2.8965
T0
M30
