G04 #@! TF.FileFunction,Legend,Top*
%FSLAX46Y46*%
G04 Gerber Fmt 4.6, Leading zero omitted, Abs format (unit mm)*
G04 Created by KiCad (PCBNEW 4.0.7-e2-6376~58~ubuntu16.04.1) date Sun Feb  4 09:06:46 2018*
%MOMM*%
%LPD*%
G01*
G04 APERTURE LIST*
%ADD10C,0.100000*%
%ADD11C,0.300000*%
%ADD12C,0.200000*%
%ADD13C,0.120000*%
%ADD14C,0.150000*%
%ADD15C,0.010000*%
G04 APERTURE END LIST*
D10*
D11*
X102068286Y-58312857D02*
X101568286Y-58312857D01*
X101568286Y-59098571D02*
X101568286Y-57598571D01*
X102282572Y-57598571D01*
X102792287Y-73854571D02*
X103149430Y-75354571D01*
X103435144Y-74283143D01*
X103720858Y-75354571D01*
X104078001Y-73854571D01*
X104649430Y-75354571D02*
X104649430Y-74354571D01*
X104649430Y-73854571D02*
X104578001Y-73926000D01*
X104649430Y-73997429D01*
X104720858Y-73926000D01*
X104649430Y-73854571D01*
X104649430Y-73997429D01*
X105578002Y-75354571D02*
X105435144Y-75283143D01*
X105363716Y-75140286D01*
X105363716Y-73854571D01*
X106363716Y-75354571D02*
X106220858Y-75283143D01*
X106149430Y-75140286D01*
X106149430Y-73854571D01*
X106935144Y-75354571D02*
X106935144Y-74354571D01*
X106935144Y-73854571D02*
X106863715Y-73926000D01*
X106935144Y-73997429D01*
X107006572Y-73926000D01*
X106935144Y-73854571D01*
X106935144Y-73997429D01*
X108292287Y-75354571D02*
X108292287Y-74568857D01*
X108220858Y-74426000D01*
X108078001Y-74354571D01*
X107792287Y-74354571D01*
X107649430Y-74426000D01*
X108292287Y-75283143D02*
X108149430Y-75354571D01*
X107792287Y-75354571D01*
X107649430Y-75283143D01*
X107578001Y-75140286D01*
X107578001Y-74997429D01*
X107649430Y-74854571D01*
X107792287Y-74783143D01*
X108149430Y-74783143D01*
X108292287Y-74711714D01*
X109006573Y-75354571D02*
X109006573Y-74354571D01*
X109006573Y-74497429D02*
X109078001Y-74426000D01*
X109220859Y-74354571D01*
X109435144Y-74354571D01*
X109578001Y-74426000D01*
X109649430Y-74568857D01*
X109649430Y-75354571D01*
X109649430Y-74568857D02*
X109720859Y-74426000D01*
X109863716Y-74354571D01*
X110078001Y-74354571D01*
X110220859Y-74426000D01*
X110292287Y-74568857D01*
X110292287Y-75354571D01*
X112649430Y-74568857D02*
X112149430Y-74568857D01*
X112149430Y-75354571D02*
X112149430Y-73854571D01*
X112863716Y-73854571D01*
X114078001Y-75354571D02*
X114078001Y-74568857D01*
X114006572Y-74426000D01*
X113863715Y-74354571D01*
X113578001Y-74354571D01*
X113435144Y-74426000D01*
X114078001Y-75283143D02*
X113935144Y-75354571D01*
X113578001Y-75354571D01*
X113435144Y-75283143D01*
X113363715Y-75140286D01*
X113363715Y-74997429D01*
X113435144Y-74854571D01*
X113578001Y-74783143D01*
X113935144Y-74783143D01*
X114078001Y-74711714D01*
X114792287Y-75354571D02*
X114792287Y-74354571D01*
X114792287Y-73854571D02*
X114720858Y-73926000D01*
X114792287Y-73997429D01*
X114863715Y-73926000D01*
X114792287Y-73854571D01*
X114792287Y-73997429D01*
X115506573Y-75354571D02*
X115506573Y-74354571D01*
X115506573Y-74640286D02*
X115578001Y-74497429D01*
X115649430Y-74426000D01*
X115792287Y-74354571D01*
X115935144Y-74354571D01*
X116435144Y-75354571D02*
X116435144Y-74354571D01*
X116435144Y-74497429D02*
X116506572Y-74426000D01*
X116649430Y-74354571D01*
X116863715Y-74354571D01*
X117006572Y-74426000D01*
X117078001Y-74568857D01*
X117078001Y-75354571D01*
X117078001Y-74568857D02*
X117149430Y-74426000D01*
X117292287Y-74354571D01*
X117506572Y-74354571D01*
X117649430Y-74426000D01*
X117720858Y-74568857D01*
X117720858Y-75354571D01*
X119078001Y-75354571D02*
X119078001Y-74568857D01*
X119006572Y-74426000D01*
X118863715Y-74354571D01*
X118578001Y-74354571D01*
X118435144Y-74426000D01*
X119078001Y-75283143D02*
X118935144Y-75354571D01*
X118578001Y-75354571D01*
X118435144Y-75283143D01*
X118363715Y-75140286D01*
X118363715Y-74997429D01*
X118435144Y-74854571D01*
X118578001Y-74783143D01*
X118935144Y-74783143D01*
X119078001Y-74711714D01*
X119792287Y-74354571D02*
X119792287Y-75354571D01*
X119792287Y-74497429D02*
X119863715Y-74426000D01*
X120006573Y-74354571D01*
X120220858Y-74354571D01*
X120363715Y-74426000D01*
X120435144Y-74568857D01*
X120435144Y-75354571D01*
X124292287Y-75354571D02*
X123792287Y-74640286D01*
X123435144Y-75354571D02*
X123435144Y-73854571D01*
X124006572Y-73854571D01*
X124149430Y-73926000D01*
X124220858Y-73997429D01*
X124292287Y-74140286D01*
X124292287Y-74354571D01*
X124220858Y-74497429D01*
X124149430Y-74568857D01*
X124006572Y-74640286D01*
X123435144Y-74640286D01*
X125506572Y-75283143D02*
X125363715Y-75354571D01*
X125078001Y-75354571D01*
X124935144Y-75283143D01*
X124863715Y-75140286D01*
X124863715Y-74568857D01*
X124935144Y-74426000D01*
X125078001Y-74354571D01*
X125363715Y-74354571D01*
X125506572Y-74426000D01*
X125578001Y-74568857D01*
X125578001Y-74711714D01*
X124863715Y-74854571D01*
X126078001Y-74354571D02*
X126435144Y-75354571D01*
X126792286Y-74354571D01*
X127006572Y-75497429D02*
X128149429Y-75497429D01*
X129292286Y-75354571D02*
X128435143Y-75354571D01*
X128863715Y-75354571D02*
X128863715Y-73854571D01*
X128720858Y-74068857D01*
X128578000Y-74211714D01*
X128435143Y-74283143D01*
X143954572Y-73259143D02*
X145097429Y-73259143D01*
X144526000Y-73830571D02*
X144526000Y-72687714D01*
X154114572Y-73259143D02*
X155257429Y-73259143D01*
X102425428Y-31642857D02*
X101282571Y-31642857D01*
X102425428Y-43072857D02*
X101282571Y-43072857D01*
X101282572Y-35159143D02*
X102425429Y-35159143D01*
X101854000Y-35730571D02*
X101854000Y-34587714D01*
X101282572Y-46589143D02*
X102425429Y-46589143D01*
X101854000Y-47160571D02*
X101854000Y-46017714D01*
X101282572Y-69449143D02*
X102425429Y-69449143D01*
X101854000Y-70020571D02*
X101854000Y-68877714D01*
X102425428Y-65932857D02*
X101282571Y-65932857D01*
X109922571Y-68198857D02*
X109922571Y-67341714D01*
X111422571Y-67770285D02*
X109922571Y-67770285D01*
X111351143Y-66913143D02*
X111422571Y-66698857D01*
X111422571Y-66341714D01*
X111351143Y-66198857D01*
X111279714Y-66127428D01*
X111136857Y-66056000D01*
X110994000Y-66056000D01*
X110851143Y-66127428D01*
X110779714Y-66198857D01*
X110708286Y-66341714D01*
X110636857Y-66627428D01*
X110565429Y-66770286D01*
X110494000Y-66841714D01*
X110351143Y-66913143D01*
X110208286Y-66913143D01*
X110065429Y-66841714D01*
X109994000Y-66770286D01*
X109922571Y-66627428D01*
X109922571Y-66270286D01*
X109994000Y-66056000D01*
X110636857Y-60106286D02*
X110636857Y-59606286D01*
X111422571Y-59392000D02*
X111422571Y-60106286D01*
X109922571Y-60106286D01*
X109922571Y-59392000D01*
X111422571Y-58749143D02*
X109922571Y-58749143D01*
X110994000Y-58249143D01*
X109922571Y-57749143D01*
X111422571Y-57749143D01*
X109851143Y-55963429D02*
X111779714Y-57249143D01*
X111422571Y-55463428D02*
X109922571Y-55463428D01*
X109922571Y-54892000D01*
X109994000Y-54749142D01*
X110065429Y-54677714D01*
X110208286Y-54606285D01*
X110422571Y-54606285D01*
X110565429Y-54677714D01*
X110636857Y-54749142D01*
X110708286Y-54892000D01*
X110708286Y-55463428D01*
X111279714Y-53106285D02*
X111351143Y-53177714D01*
X111422571Y-53392000D01*
X111422571Y-53534857D01*
X111351143Y-53749142D01*
X111208286Y-53892000D01*
X111065429Y-53963428D01*
X110779714Y-54034857D01*
X110565429Y-54034857D01*
X110279714Y-53963428D01*
X110136857Y-53892000D01*
X109994000Y-53749142D01*
X109922571Y-53534857D01*
X109922571Y-53392000D01*
X109994000Y-53177714D01*
X110065429Y-53106285D01*
X111422571Y-48597143D02*
X109922571Y-48597143D01*
X111422571Y-47882857D02*
X109922571Y-47882857D01*
X110994000Y-47382857D01*
X109922571Y-46882857D01*
X111422571Y-46882857D01*
X111422571Y-46168571D02*
X109922571Y-46168571D01*
X109922571Y-45811428D01*
X109994000Y-45597143D01*
X110136857Y-45454285D01*
X110279714Y-45382857D01*
X110565429Y-45311428D01*
X110779714Y-45311428D01*
X111065429Y-45382857D01*
X111208286Y-45454285D01*
X111351143Y-45597143D01*
X111422571Y-45811428D01*
X111422571Y-46168571D01*
X109922571Y-37190857D02*
X109922571Y-36333714D01*
X111422571Y-36762285D02*
X109922571Y-36762285D01*
X111351143Y-35905143D02*
X111422571Y-35690857D01*
X111422571Y-35333714D01*
X111351143Y-35190857D01*
X111279714Y-35119428D01*
X111136857Y-35048000D01*
X110994000Y-35048000D01*
X110851143Y-35119428D01*
X110779714Y-35190857D01*
X110708286Y-35333714D01*
X110636857Y-35619428D01*
X110565429Y-35762286D01*
X110494000Y-35833714D01*
X110351143Y-35905143D01*
X110208286Y-35905143D01*
X110065429Y-35833714D01*
X109994000Y-35762286D01*
X109922571Y-35619428D01*
X109922571Y-35262286D01*
X109994000Y-35048000D01*
X110994000Y-34476572D02*
X110994000Y-33762286D01*
X111422571Y-34619429D02*
X109922571Y-34119429D01*
X111422571Y-33619429D01*
X111422571Y-32405143D02*
X111422571Y-33119429D01*
X109922571Y-33119429D01*
X169616572Y-71036571D02*
X169616572Y-69536571D01*
X169616572Y-70250857D02*
X170473715Y-70250857D01*
X170473715Y-71036571D02*
X170473715Y-69536571D01*
X170973715Y-69536571D02*
X171473715Y-71036571D01*
X171973715Y-69536571D01*
X162889429Y-71036571D02*
X162175143Y-71036571D01*
X162175143Y-69536571D01*
X163175143Y-69536571D02*
X163675143Y-71036571D01*
X164175143Y-69536571D01*
D12*
X132588000Y-76200000D02*
X132588000Y-76708000D01*
D11*
X155508144Y-48374571D02*
X155651001Y-48374571D01*
X155793858Y-48446000D01*
X155865287Y-48517429D01*
X155936716Y-48660286D01*
X156008144Y-48946000D01*
X156008144Y-49303143D01*
X155936716Y-49588857D01*
X155865287Y-49731714D01*
X155793858Y-49803143D01*
X155651001Y-49874571D01*
X155508144Y-49874571D01*
X155365287Y-49803143D01*
X155293858Y-49731714D01*
X155222430Y-49588857D01*
X155151001Y-49303143D01*
X155151001Y-48946000D01*
X155222430Y-48660286D01*
X155293858Y-48517429D01*
X155365287Y-48446000D01*
X155508144Y-48374571D01*
X156651001Y-49731714D02*
X156722429Y-49803143D01*
X156651001Y-49874571D01*
X156579572Y-49803143D01*
X156651001Y-49731714D01*
X156651001Y-49874571D01*
X158079573Y-48374571D02*
X157365287Y-48374571D01*
X157293858Y-49088857D01*
X157365287Y-49017429D01*
X157508144Y-48946000D01*
X157865287Y-48946000D01*
X158008144Y-49017429D01*
X158079573Y-49088857D01*
X158151001Y-49231714D01*
X158151001Y-49588857D01*
X158079573Y-49731714D01*
X158008144Y-49803143D01*
X157865287Y-49874571D01*
X157508144Y-49874571D01*
X157365287Y-49803143D01*
X157293858Y-49731714D01*
X159579572Y-49874571D02*
X158722429Y-49874571D01*
X159151001Y-49874571D02*
X159151001Y-48374571D01*
X159008144Y-48588857D01*
X158865286Y-48731714D01*
X158722429Y-48803143D01*
X160508143Y-48374571D02*
X160651000Y-48374571D01*
X160793857Y-48446000D01*
X160865286Y-48517429D01*
X160936715Y-48660286D01*
X161008143Y-48946000D01*
X161008143Y-49303143D01*
X160936715Y-49588857D01*
X160865286Y-49731714D01*
X160793857Y-49803143D01*
X160651000Y-49874571D01*
X160508143Y-49874571D01*
X160365286Y-49803143D01*
X160293857Y-49731714D01*
X160222429Y-49588857D01*
X160151000Y-49303143D01*
X160151000Y-48946000D01*
X160222429Y-48660286D01*
X160293857Y-48517429D01*
X160365286Y-48446000D01*
X160508143Y-48374571D01*
X161936714Y-48374571D02*
X162079571Y-48374571D01*
X162222428Y-48446000D01*
X162293857Y-48517429D01*
X162365286Y-48660286D01*
X162436714Y-48946000D01*
X162436714Y-49303143D01*
X162365286Y-49588857D01*
X162293857Y-49731714D01*
X162222428Y-49803143D01*
X162079571Y-49874571D01*
X161936714Y-49874571D01*
X161793857Y-49803143D01*
X161722428Y-49731714D01*
X161651000Y-49588857D01*
X161579571Y-49303143D01*
X161579571Y-48946000D01*
X161651000Y-48660286D01*
X161722428Y-48517429D01*
X161793857Y-48446000D01*
X161936714Y-48374571D01*
X164222428Y-49874571D02*
X164222428Y-48874571D01*
X164222428Y-48374571D02*
X164150999Y-48446000D01*
X164222428Y-48517429D01*
X164293856Y-48446000D01*
X164222428Y-48374571D01*
X164222428Y-48517429D01*
X164936714Y-48874571D02*
X164936714Y-49874571D01*
X164936714Y-49017429D02*
X165008142Y-48946000D01*
X165151000Y-48874571D01*
X165365285Y-48874571D01*
X165508142Y-48946000D01*
X165579571Y-49088857D01*
X165579571Y-49874571D01*
X153924000Y-50546000D02*
X166878000Y-50546000D01*
X153924000Y-56134000D02*
X153924000Y-47846000D01*
X166878000Y-56134000D02*
X166878000Y-47846000D01*
X166878000Y-50546000D02*
X165751496Y-51132421D01*
X166878000Y-50546000D02*
X165751496Y-49959579D01*
X153924000Y-50546000D02*
X155050504Y-51132421D01*
X153924000Y-50546000D02*
X155050504Y-49959579D01*
X134172144Y-67424572D02*
X134315001Y-67424572D01*
X134457858Y-67496001D01*
X134529287Y-67567430D01*
X134600716Y-67710287D01*
X134672144Y-67996001D01*
X134672144Y-68353144D01*
X134600716Y-68638858D01*
X134529287Y-68781715D01*
X134457858Y-68853144D01*
X134315001Y-68924572D01*
X134172144Y-68924572D01*
X134029287Y-68853144D01*
X133957858Y-68781715D01*
X133886430Y-68638858D01*
X133815001Y-68353144D01*
X133815001Y-67996001D01*
X133886430Y-67710287D01*
X133957858Y-67567430D01*
X134029287Y-67496001D01*
X134172144Y-67424572D01*
X135315001Y-68781715D02*
X135386429Y-68853144D01*
X135315001Y-68924572D01*
X135243572Y-68853144D01*
X135315001Y-68781715D01*
X135315001Y-68924572D01*
X136743573Y-67424572D02*
X136029287Y-67424572D01*
X135957858Y-68138858D01*
X136029287Y-68067430D01*
X136172144Y-67996001D01*
X136529287Y-67996001D01*
X136672144Y-68067430D01*
X136743573Y-68138858D01*
X136815001Y-68281715D01*
X136815001Y-68638858D01*
X136743573Y-68781715D01*
X136672144Y-68853144D01*
X136529287Y-68924572D01*
X136172144Y-68924572D01*
X136029287Y-68853144D01*
X135957858Y-68781715D01*
X138243572Y-68924572D02*
X137386429Y-68924572D01*
X137815001Y-68924572D02*
X137815001Y-67424572D01*
X137672144Y-67638858D01*
X137529286Y-67781715D01*
X137386429Y-67853144D01*
X139172143Y-67424572D02*
X139315000Y-67424572D01*
X139457857Y-67496001D01*
X139529286Y-67567430D01*
X139600715Y-67710287D01*
X139672143Y-67996001D01*
X139672143Y-68353144D01*
X139600715Y-68638858D01*
X139529286Y-68781715D01*
X139457857Y-68853144D01*
X139315000Y-68924572D01*
X139172143Y-68924572D01*
X139029286Y-68853144D01*
X138957857Y-68781715D01*
X138886429Y-68638858D01*
X138815000Y-68353144D01*
X138815000Y-67996001D01*
X138886429Y-67710287D01*
X138957857Y-67567430D01*
X139029286Y-67496001D01*
X139172143Y-67424572D01*
X140600714Y-67424572D02*
X140743571Y-67424572D01*
X140886428Y-67496001D01*
X140957857Y-67567430D01*
X141029286Y-67710287D01*
X141100714Y-67996001D01*
X141100714Y-68353144D01*
X141029286Y-68638858D01*
X140957857Y-68781715D01*
X140886428Y-68853144D01*
X140743571Y-68924572D01*
X140600714Y-68924572D01*
X140457857Y-68853144D01*
X140386428Y-68781715D01*
X140315000Y-68638858D01*
X140243571Y-68353144D01*
X140243571Y-67996001D01*
X140315000Y-67710287D01*
X140386428Y-67567430D01*
X140457857Y-67496001D01*
X140600714Y-67424572D01*
X142886428Y-68924572D02*
X142886428Y-67924572D01*
X142886428Y-67424572D02*
X142814999Y-67496001D01*
X142886428Y-67567430D01*
X142957856Y-67496001D01*
X142886428Y-67424572D01*
X142886428Y-67567430D01*
X143600714Y-67924572D02*
X143600714Y-68924572D01*
X143600714Y-68067430D02*
X143672142Y-67996001D01*
X143815000Y-67924572D01*
X144029285Y-67924572D01*
X144172142Y-67996001D01*
X144243571Y-68138858D01*
X144243571Y-68924572D01*
X145542000Y-69596001D02*
X132588000Y-69596001D01*
X145542000Y-70358000D02*
X145542000Y-66896001D01*
X132588000Y-70358000D02*
X132588000Y-66896001D01*
X132588000Y-69596001D02*
X133714504Y-69009580D01*
X132588000Y-69596001D02*
X133714504Y-70182422D01*
X145542000Y-69596001D02*
X144415496Y-69009580D01*
X145542000Y-69596001D02*
X144415496Y-70182422D01*
D12*
X166878000Y-46482000D02*
X166878000Y-76708000D01*
X162814000Y-42418000D02*
X166878000Y-46482000D01*
X142240000Y-42418000D02*
X162814000Y-42418000D01*
X141986000Y-42672000D02*
X142240000Y-42418000D01*
X132588000Y-52070000D02*
X141986000Y-42672000D01*
X132588000Y-76200000D02*
X132588000Y-52070000D01*
D13*
X150408000Y-53554000D02*
X180408000Y-53554000D01*
X180408000Y-53554000D02*
X180408000Y-66454000D01*
X150408000Y-66454000D02*
X180408000Y-66454000D01*
X150408000Y-53554000D02*
X150408000Y-66454000D01*
D10*
X147090000Y-59790000D02*
X147090000Y-60190000D01*
X147090000Y-59490000D02*
X147290000Y-59790000D01*
X147290000Y-59790000D02*
X146890000Y-59790000D01*
X146890000Y-59790000D02*
X147090000Y-59490000D01*
X147090000Y-59090000D02*
X147090000Y-59490000D01*
X147090000Y-59490000D02*
X147340000Y-59490000D01*
X147340000Y-59490000D02*
X146840000Y-59490000D01*
D13*
X149590000Y-57490000D02*
X147590000Y-57490000D01*
X147590000Y-57490000D02*
X147590000Y-61340000D01*
X149590000Y-57490000D02*
X149590000Y-61340000D01*
X116420000Y-56720000D02*
X116420000Y-67620000D01*
X116420000Y-56720000D02*
X112180000Y-56720000D01*
X112180000Y-67620000D02*
X116420000Y-67620000D01*
X112180000Y-67620000D02*
X112180000Y-56720000D01*
X116420000Y-39956000D02*
X116420000Y-50856000D01*
X116420000Y-39956000D02*
X112180000Y-39956000D01*
X112180000Y-50856000D02*
X116420000Y-50856000D01*
X112180000Y-50856000D02*
X112180000Y-39956000D01*
D14*
X103580000Y-63890000D02*
X100270000Y-63890000D01*
X100270000Y-63890000D02*
X100270000Y-71690000D01*
X100270000Y-71690000D02*
X103580000Y-71690000D01*
X103580000Y-71690000D02*
X109302000Y-71690000D01*
X103580000Y-63890000D02*
X109302000Y-63890000D01*
X103580000Y-71690000D02*
X103580000Y-63890000D01*
X109302000Y-71690000D02*
X109302000Y-63890000D01*
X153534000Y-70986000D02*
X153534000Y-67676000D01*
X153534000Y-67676000D02*
X145734000Y-67676000D01*
X145734000Y-67676000D02*
X145734000Y-70986000D01*
X145734000Y-70986000D02*
X145734000Y-76708000D01*
X153534000Y-70986000D02*
X153534000Y-76708000D01*
X145734000Y-70986000D02*
X153534000Y-70986000D01*
X145734000Y-76708000D02*
X153534000Y-76708000D01*
X142748000Y-37338000D02*
X180848000Y-37338000D01*
X180848000Y-44958000D02*
X142748000Y-44958000D01*
X180848000Y-44958000D02*
X180848000Y-37458000D01*
X142748000Y-44958000D02*
X142748000Y-37458000D01*
X142748000Y-29464000D02*
X180848000Y-29464000D01*
X180848000Y-37084000D02*
X142748000Y-37084000D01*
X180848000Y-37084000D02*
X180848000Y-29584000D01*
X142748000Y-37084000D02*
X142748000Y-29584000D01*
X103580000Y-29600000D02*
X100270000Y-29600000D01*
X100270000Y-29600000D02*
X100270000Y-37400000D01*
X100270000Y-37400000D02*
X103580000Y-37400000D01*
X103580000Y-37400000D02*
X109302000Y-37400000D01*
X103580000Y-29600000D02*
X109302000Y-29600000D01*
X103580000Y-37400000D02*
X103580000Y-29600000D01*
X109302000Y-37400000D02*
X109302000Y-29600000D01*
X103580000Y-41030000D02*
X100270000Y-41030000D01*
X100270000Y-41030000D02*
X100270000Y-48830000D01*
X100270000Y-48830000D02*
X103580000Y-48830000D01*
X103580000Y-48830000D02*
X109302000Y-48830000D01*
X103580000Y-41030000D02*
X109302000Y-41030000D01*
X103580000Y-48830000D02*
X103580000Y-41030000D01*
X109302000Y-48830000D02*
X109302000Y-41030000D01*
X103580000Y-52714000D02*
X100270000Y-52714000D01*
X100270000Y-52714000D02*
X100270000Y-60514000D01*
X100270000Y-60514000D02*
X103580000Y-60514000D01*
X103580000Y-60514000D02*
X109302000Y-60514000D01*
X103580000Y-52714000D02*
X109302000Y-52714000D01*
X103580000Y-60514000D02*
X103580000Y-52714000D01*
X109302000Y-60514000D02*
X109302000Y-52714000D01*
D13*
X126940000Y-58834000D02*
X126940000Y-42534000D01*
X116840000Y-71884000D02*
X116840000Y-29484000D01*
X126940000Y-58834000D02*
X132140000Y-58834000D01*
X126940000Y-42534000D02*
X132140000Y-42534000D01*
X132140000Y-58834000D02*
X132140000Y-42534000D01*
X142240000Y-71884000D02*
X142240000Y-29484000D01*
X142240000Y-29484000D02*
X116840000Y-29484000D01*
X142240000Y-71884000D02*
X116840000Y-71884000D01*
D14*
X181114700Y-76466700D02*
X197624700Y-76466700D01*
X197616000Y-29451300D02*
X181116000Y-29451300D01*
X197624700Y-76460000D02*
X197624700Y-29460000D01*
X181102000Y-76460000D02*
X181102000Y-29460000D01*
D15*
G36*
X143972944Y-37497555D02*
X144111057Y-37529693D01*
X144229133Y-37596457D01*
X144318319Y-37678981D01*
X144379911Y-37758125D01*
X144424398Y-37847727D01*
X144453549Y-37956260D01*
X144469137Y-38092195D01*
X144472931Y-38264004D01*
X144469754Y-38403486D01*
X144457375Y-38599255D01*
X144433214Y-38752772D01*
X144393726Y-38871915D01*
X144335367Y-38964561D01*
X144254590Y-39038587D01*
X144157700Y-39096877D01*
X144060576Y-39130725D01*
X143936576Y-39152438D01*
X143807135Y-39160093D01*
X143693687Y-39151766D01*
X143653094Y-39142143D01*
X143510502Y-39070998D01*
X143390740Y-38960694D01*
X143317601Y-38847694D01*
X143293484Y-38796477D01*
X143276294Y-38750571D01*
X143265067Y-38700500D01*
X143258836Y-38636784D01*
X143256638Y-38549948D01*
X143257507Y-38430514D01*
X143260182Y-38283871D01*
X143260316Y-38277681D01*
X143586978Y-38277681D01*
X143590824Y-38405568D01*
X143599763Y-38528673D01*
X143612987Y-38633797D01*
X143629686Y-38707740D01*
X143638748Y-38728361D01*
X143689703Y-38781247D01*
X143763673Y-38829255D01*
X143837162Y-38858288D01*
X143860511Y-38861421D01*
X143904862Y-38850811D01*
X143966234Y-38824394D01*
X143968031Y-38823470D01*
X144026143Y-38786133D01*
X144067880Y-38738102D01*
X144095437Y-38671354D01*
X144111011Y-38577867D01*
X144116798Y-38449618D01*
X144115172Y-38285896D01*
X144106900Y-37943305D01*
X144023949Y-37869252D01*
X143926465Y-37809293D01*
X143828449Y-37795789D01*
X143737958Y-37825125D01*
X143663049Y-37893690D01*
X143611783Y-37997868D01*
X143597804Y-38060354D01*
X143589035Y-38158210D01*
X143586978Y-38277681D01*
X143260316Y-38277681D01*
X143263595Y-38126384D01*
X143267512Y-38010726D01*
X143273248Y-37927928D01*
X143282123Y-37869027D01*
X143295452Y-37825056D01*
X143314554Y-37787049D01*
X143338766Y-37749026D01*
X143437063Y-37630722D01*
X143553110Y-37552271D01*
X143696904Y-37508222D01*
X143803083Y-37495881D01*
X143972944Y-37497555D01*
X143972944Y-37497555D01*
G37*
X143972944Y-37497555D02*
X144111057Y-37529693D01*
X144229133Y-37596457D01*
X144318319Y-37678981D01*
X144379911Y-37758125D01*
X144424398Y-37847727D01*
X144453549Y-37956260D01*
X144469137Y-38092195D01*
X144472931Y-38264004D01*
X144469754Y-38403486D01*
X144457375Y-38599255D01*
X144433214Y-38752772D01*
X144393726Y-38871915D01*
X144335367Y-38964561D01*
X144254590Y-39038587D01*
X144157700Y-39096877D01*
X144060576Y-39130725D01*
X143936576Y-39152438D01*
X143807135Y-39160093D01*
X143693687Y-39151766D01*
X143653094Y-39142143D01*
X143510502Y-39070998D01*
X143390740Y-38960694D01*
X143317601Y-38847694D01*
X143293484Y-38796477D01*
X143276294Y-38750571D01*
X143265067Y-38700500D01*
X143258836Y-38636784D01*
X143256638Y-38549948D01*
X143257507Y-38430514D01*
X143260182Y-38283871D01*
X143260316Y-38277681D01*
X143586978Y-38277681D01*
X143590824Y-38405568D01*
X143599763Y-38528673D01*
X143612987Y-38633797D01*
X143629686Y-38707740D01*
X143638748Y-38728361D01*
X143689703Y-38781247D01*
X143763673Y-38829255D01*
X143837162Y-38858288D01*
X143860511Y-38861421D01*
X143904862Y-38850811D01*
X143966234Y-38824394D01*
X143968031Y-38823470D01*
X144026143Y-38786133D01*
X144067880Y-38738102D01*
X144095437Y-38671354D01*
X144111011Y-38577867D01*
X144116798Y-38449618D01*
X144115172Y-38285896D01*
X144106900Y-37943305D01*
X144023949Y-37869252D01*
X143926465Y-37809293D01*
X143828449Y-37795789D01*
X143737958Y-37825125D01*
X143663049Y-37893690D01*
X143611783Y-37997868D01*
X143597804Y-38060354D01*
X143589035Y-38158210D01*
X143586978Y-38277681D01*
X143260316Y-38277681D01*
X143263595Y-38126384D01*
X143267512Y-38010726D01*
X143273248Y-37927928D01*
X143282123Y-37869027D01*
X143295452Y-37825056D01*
X143314554Y-37787049D01*
X143338766Y-37749026D01*
X143437063Y-37630722D01*
X143553110Y-37552271D01*
X143696904Y-37508222D01*
X143803083Y-37495881D01*
X143972944Y-37497555D01*
G36*
X151171821Y-37507073D02*
X151316487Y-37563184D01*
X151441643Y-37654603D01*
X151523307Y-37756149D01*
X151553063Y-37806116D01*
X151574143Y-37850752D01*
X151588301Y-37900327D01*
X151597293Y-37965111D01*
X151602872Y-38055375D01*
X151606795Y-38181388D01*
X151608545Y-38254980D01*
X151610248Y-38453864D01*
X151603735Y-38610514D01*
X151586979Y-38733118D01*
X151557954Y-38829864D01*
X151514632Y-38908939D01*
X151454986Y-38978530D01*
X151421779Y-39009376D01*
X151275688Y-39105423D01*
X151109272Y-39156050D01*
X150926456Y-39160472D01*
X150789869Y-39135404D01*
X150687901Y-39088109D01*
X150584747Y-39006996D01*
X150494841Y-38906585D01*
X150432615Y-38801398D01*
X150418972Y-38762237D01*
X150406008Y-38680022D01*
X150398230Y-38553892D01*
X150395925Y-38390496D01*
X150396140Y-38373881D01*
X150738311Y-38373881D01*
X150740429Y-38503899D01*
X150745729Y-38594178D01*
X150755864Y-38655753D01*
X150772485Y-38699663D01*
X150791560Y-38729481D01*
X150878288Y-38813510D01*
X150974398Y-38850709D01*
X151072608Y-38840463D01*
X151165637Y-38782156D01*
X151184770Y-38762724D01*
X151222387Y-38712707D01*
X151246603Y-38653067D01*
X151262469Y-38568066D01*
X151270280Y-38496224D01*
X151277994Y-38330269D01*
X151271410Y-38169084D01*
X151251771Y-38028585D01*
X151226827Y-37940052D01*
X151174765Y-37868293D01*
X151092227Y-37815852D01*
X150999090Y-37795296D01*
X150997911Y-37795294D01*
X150936961Y-37808452D01*
X150865829Y-37840451D01*
X150858328Y-37844883D01*
X150812725Y-37880395D01*
X150779761Y-37928142D01*
X150757647Y-37996010D01*
X150744595Y-38091884D01*
X150738815Y-38223649D01*
X150738311Y-38373881D01*
X150396140Y-38373881D01*
X150397555Y-38264859D01*
X150401192Y-38116704D01*
X150405592Y-38009290D01*
X150412439Y-37932564D01*
X150423413Y-37876475D01*
X150440199Y-37830973D01*
X150464477Y-37786004D01*
X150482692Y-37756145D01*
X150584827Y-37635714D01*
X150714147Y-37550591D01*
X150861312Y-37500777D01*
X151016983Y-37486271D01*
X151171821Y-37507073D01*
X151171821Y-37507073D01*
G37*
X151171821Y-37507073D02*
X151316487Y-37563184D01*
X151441643Y-37654603D01*
X151523307Y-37756149D01*
X151553063Y-37806116D01*
X151574143Y-37850752D01*
X151588301Y-37900327D01*
X151597293Y-37965111D01*
X151602872Y-38055375D01*
X151606795Y-38181388D01*
X151608545Y-38254980D01*
X151610248Y-38453864D01*
X151603735Y-38610514D01*
X151586979Y-38733118D01*
X151557954Y-38829864D01*
X151514632Y-38908939D01*
X151454986Y-38978530D01*
X151421779Y-39009376D01*
X151275688Y-39105423D01*
X151109272Y-39156050D01*
X150926456Y-39160472D01*
X150789869Y-39135404D01*
X150687901Y-39088109D01*
X150584747Y-39006996D01*
X150494841Y-38906585D01*
X150432615Y-38801398D01*
X150418972Y-38762237D01*
X150406008Y-38680022D01*
X150398230Y-38553892D01*
X150395925Y-38390496D01*
X150396140Y-38373881D01*
X150738311Y-38373881D01*
X150740429Y-38503899D01*
X150745729Y-38594178D01*
X150755864Y-38655753D01*
X150772485Y-38699663D01*
X150791560Y-38729481D01*
X150878288Y-38813510D01*
X150974398Y-38850709D01*
X151072608Y-38840463D01*
X151165637Y-38782156D01*
X151184770Y-38762724D01*
X151222387Y-38712707D01*
X151246603Y-38653067D01*
X151262469Y-38568066D01*
X151270280Y-38496224D01*
X151277994Y-38330269D01*
X151271410Y-38169084D01*
X151251771Y-38028585D01*
X151226827Y-37940052D01*
X151174765Y-37868293D01*
X151092227Y-37815852D01*
X150999090Y-37795296D01*
X150997911Y-37795294D01*
X150936961Y-37808452D01*
X150865829Y-37840451D01*
X150858328Y-37844883D01*
X150812725Y-37880395D01*
X150779761Y-37928142D01*
X150757647Y-37996010D01*
X150744595Y-38091884D01*
X150738815Y-38223649D01*
X150738311Y-38373881D01*
X150396140Y-38373881D01*
X150397555Y-38264859D01*
X150401192Y-38116704D01*
X150405592Y-38009290D01*
X150412439Y-37932564D01*
X150423413Y-37876475D01*
X150440199Y-37830973D01*
X150464477Y-37786004D01*
X150482692Y-37756145D01*
X150584827Y-37635714D01*
X150714147Y-37550591D01*
X150861312Y-37500777D01*
X151016983Y-37486271D01*
X151171821Y-37507073D01*
G36*
X158544534Y-37503836D02*
X158690327Y-37539750D01*
X158807703Y-37595216D01*
X158875060Y-37653024D01*
X158891824Y-37681804D01*
X158885450Y-37712198D01*
X158850433Y-37756376D01*
X158809068Y-37798883D01*
X158706917Y-37901035D01*
X158608185Y-37848117D01*
X158495234Y-37806167D01*
X158376838Y-37792743D01*
X158268401Y-37807510D01*
X158185326Y-37850129D01*
X158177345Y-37857545D01*
X158125497Y-37928302D01*
X158119832Y-37997579D01*
X158139694Y-38047881D01*
X158161782Y-38079172D01*
X158195870Y-38103065D01*
X158251853Y-38123265D01*
X158339627Y-38143475D01*
X158449983Y-38164026D01*
X158619602Y-38202885D01*
X158745776Y-38254254D01*
X158835339Y-38323382D01*
X158895126Y-38415518D01*
X158931562Y-38533920D01*
X158942672Y-38698603D01*
X158906939Y-38846467D01*
X158826490Y-38973026D01*
X158703453Y-39073794D01*
X158665480Y-39094844D01*
X158563801Y-39129626D01*
X158430779Y-39151642D01*
X158284512Y-39159799D01*
X158143097Y-39153003D01*
X158034242Y-39133002D01*
X157947408Y-39099884D01*
X157861531Y-39053306D01*
X157789338Y-39001901D01*
X157743561Y-38954303D01*
X157734000Y-38929362D01*
X157750999Y-38895140D01*
X157794696Y-38840979D01*
X157833721Y-38800333D01*
X157933443Y-38702958D01*
X157999116Y-38754616D01*
X158109908Y-38814910D01*
X158241738Y-38846301D01*
X158377191Y-38847476D01*
X158498854Y-38817121D01*
X158540450Y-38795421D01*
X158582990Y-38741867D01*
X158598403Y-38665996D01*
X158585198Y-38589345D01*
X158557685Y-38546314D01*
X158524447Y-38514818D01*
X158513235Y-38506365D01*
X158452174Y-38499665D01*
X158359504Y-38482666D01*
X158251271Y-38459098D01*
X158143521Y-38432694D01*
X158052300Y-38407186D01*
X157993654Y-38386307D01*
X157990552Y-38384797D01*
X157895046Y-38309755D01*
X157828918Y-38203546D01*
X157793420Y-38077309D01*
X157789803Y-37942181D01*
X157819321Y-37809299D01*
X157883224Y-37689801D01*
X157908906Y-37658647D01*
X158008453Y-37574172D01*
X158129634Y-37520676D01*
X158281833Y-37494834D01*
X158381700Y-37491205D01*
X158544534Y-37503836D01*
X158544534Y-37503836D01*
G37*
X158544534Y-37503836D02*
X158690327Y-37539750D01*
X158807703Y-37595216D01*
X158875060Y-37653024D01*
X158891824Y-37681804D01*
X158885450Y-37712198D01*
X158850433Y-37756376D01*
X158809068Y-37798883D01*
X158706917Y-37901035D01*
X158608185Y-37848117D01*
X158495234Y-37806167D01*
X158376838Y-37792743D01*
X158268401Y-37807510D01*
X158185326Y-37850129D01*
X158177345Y-37857545D01*
X158125497Y-37928302D01*
X158119832Y-37997579D01*
X158139694Y-38047881D01*
X158161782Y-38079172D01*
X158195870Y-38103065D01*
X158251853Y-38123265D01*
X158339627Y-38143475D01*
X158449983Y-38164026D01*
X158619602Y-38202885D01*
X158745776Y-38254254D01*
X158835339Y-38323382D01*
X158895126Y-38415518D01*
X158931562Y-38533920D01*
X158942672Y-38698603D01*
X158906939Y-38846467D01*
X158826490Y-38973026D01*
X158703453Y-39073794D01*
X158665480Y-39094844D01*
X158563801Y-39129626D01*
X158430779Y-39151642D01*
X158284512Y-39159799D01*
X158143097Y-39153003D01*
X158034242Y-39133002D01*
X157947408Y-39099884D01*
X157861531Y-39053306D01*
X157789338Y-39001901D01*
X157743561Y-38954303D01*
X157734000Y-38929362D01*
X157750999Y-38895140D01*
X157794696Y-38840979D01*
X157833721Y-38800333D01*
X157933443Y-38702958D01*
X157999116Y-38754616D01*
X158109908Y-38814910D01*
X158241738Y-38846301D01*
X158377191Y-38847476D01*
X158498854Y-38817121D01*
X158540450Y-38795421D01*
X158582990Y-38741867D01*
X158598403Y-38665996D01*
X158585198Y-38589345D01*
X158557685Y-38546314D01*
X158524447Y-38514818D01*
X158513235Y-38506365D01*
X158452174Y-38499665D01*
X158359504Y-38482666D01*
X158251271Y-38459098D01*
X158143521Y-38432694D01*
X158052300Y-38407186D01*
X157993654Y-38386307D01*
X157990552Y-38384797D01*
X157895046Y-38309755D01*
X157828918Y-38203546D01*
X157793420Y-38077309D01*
X157789803Y-37942181D01*
X157819321Y-37809299D01*
X157883224Y-37689801D01*
X157908906Y-37658647D01*
X158008453Y-37574172D01*
X158129634Y-37520676D01*
X158281833Y-37494834D01*
X158381700Y-37491205D01*
X158544534Y-37503836D01*
G36*
X165856668Y-37511018D02*
X166009524Y-37569651D01*
X166130374Y-37667600D01*
X166219526Y-37805051D01*
X166230924Y-37830852D01*
X166254499Y-37916229D01*
X166272625Y-38038361D01*
X166284589Y-38183422D01*
X166289678Y-38337588D01*
X166287180Y-38487034D01*
X166276382Y-38617937D01*
X166272787Y-38643094D01*
X166229786Y-38812304D01*
X166157498Y-38944459D01*
X166051355Y-39046886D01*
X166000368Y-39080023D01*
X165875675Y-39131049D01*
X165728375Y-39158151D01*
X165579602Y-39159332D01*
X165450490Y-39132594D01*
X165449198Y-39132115D01*
X165296006Y-39050286D01*
X165177336Y-38933713D01*
X165122168Y-38843640D01*
X165098957Y-38791922D01*
X165082689Y-38740868D01*
X165072131Y-38680126D01*
X165066053Y-38599346D01*
X165063224Y-38488176D01*
X165063003Y-38447830D01*
X165407293Y-38447830D01*
X165415100Y-38581837D01*
X165434143Y-38679912D01*
X165466419Y-38749231D01*
X165513925Y-38796967D01*
X165562599Y-38823732D01*
X165629138Y-38850825D01*
X165674690Y-38857961D01*
X165724426Y-38845269D01*
X165774829Y-38824814D01*
X165838128Y-38788039D01*
X165883585Y-38733720D01*
X165913688Y-38654298D01*
X165930927Y-38542216D01*
X165937788Y-38389916D01*
X165938200Y-38328600D01*
X165933984Y-38161995D01*
X165921602Y-38037668D01*
X165902783Y-37962803D01*
X165839341Y-37865048D01*
X165753799Y-37808848D01*
X165655677Y-37796417D01*
X165554495Y-37829966D01*
X165500450Y-37869300D01*
X165417500Y-37943400D01*
X165408727Y-38270718D01*
X165407293Y-38447830D01*
X165063003Y-38447830D01*
X165062418Y-38341300D01*
X165064194Y-38160495D01*
X165071458Y-38021057D01*
X165086280Y-37913665D01*
X165110728Y-37829001D01*
X165146872Y-37757745D01*
X165196780Y-37690579D01*
X165210420Y-37674734D01*
X165319364Y-37578317D01*
X165448309Y-37519091D01*
X165606651Y-37493321D01*
X165671500Y-37491515D01*
X165856668Y-37511018D01*
X165856668Y-37511018D01*
G37*
X165856668Y-37511018D02*
X166009524Y-37569651D01*
X166130374Y-37667600D01*
X166219526Y-37805051D01*
X166230924Y-37830852D01*
X166254499Y-37916229D01*
X166272625Y-38038361D01*
X166284589Y-38183422D01*
X166289678Y-38337588D01*
X166287180Y-38487034D01*
X166276382Y-38617937D01*
X166272787Y-38643094D01*
X166229786Y-38812304D01*
X166157498Y-38944459D01*
X166051355Y-39046886D01*
X166000368Y-39080023D01*
X165875675Y-39131049D01*
X165728375Y-39158151D01*
X165579602Y-39159332D01*
X165450490Y-39132594D01*
X165449198Y-39132115D01*
X165296006Y-39050286D01*
X165177336Y-38933713D01*
X165122168Y-38843640D01*
X165098957Y-38791922D01*
X165082689Y-38740868D01*
X165072131Y-38680126D01*
X165066053Y-38599346D01*
X165063224Y-38488176D01*
X165063003Y-38447830D01*
X165407293Y-38447830D01*
X165415100Y-38581837D01*
X165434143Y-38679912D01*
X165466419Y-38749231D01*
X165513925Y-38796967D01*
X165562599Y-38823732D01*
X165629138Y-38850825D01*
X165674690Y-38857961D01*
X165724426Y-38845269D01*
X165774829Y-38824814D01*
X165838128Y-38788039D01*
X165883585Y-38733720D01*
X165913688Y-38654298D01*
X165930927Y-38542216D01*
X165937788Y-38389916D01*
X165938200Y-38328600D01*
X165933984Y-38161995D01*
X165921602Y-38037668D01*
X165902783Y-37962803D01*
X165839341Y-37865048D01*
X165753799Y-37808848D01*
X165655677Y-37796417D01*
X165554495Y-37829966D01*
X165500450Y-37869300D01*
X165417500Y-37943400D01*
X165408727Y-38270718D01*
X165407293Y-38447830D01*
X165063003Y-38447830D01*
X165062418Y-38341300D01*
X165064194Y-38160495D01*
X165071458Y-38021057D01*
X165086280Y-37913665D01*
X165110728Y-37829001D01*
X165146872Y-37757745D01*
X165196780Y-37690579D01*
X165210420Y-37674734D01*
X165319364Y-37578317D01*
X165448309Y-37519091D01*
X165606651Y-37493321D01*
X165671500Y-37491515D01*
X165856668Y-37511018D01*
G36*
X176739553Y-37502792D02*
X176799872Y-37515561D01*
X176884526Y-37549205D01*
X176965145Y-37592408D01*
X177028486Y-37636795D01*
X177061307Y-37673994D01*
X177063226Y-37682095D01*
X177046433Y-37713587D01*
X177003201Y-37765509D01*
X176967110Y-37802714D01*
X176870820Y-37896738D01*
X176771239Y-37845969D01*
X176655142Y-37803830D01*
X176541581Y-37792154D01*
X176440117Y-37808416D01*
X176360312Y-37850090D01*
X176311727Y-37914651D01*
X176301400Y-37970052D01*
X176312857Y-38032913D01*
X176351624Y-38081105D01*
X176424290Y-38118654D01*
X176537448Y-38149584D01*
X176621603Y-38165627D01*
X176785829Y-38201651D01*
X176907419Y-38247998D01*
X176994230Y-38309420D01*
X177054119Y-38390669D01*
X177076672Y-38440864D01*
X177112477Y-38596246D01*
X177104293Y-38747973D01*
X177055364Y-38886946D01*
X176968934Y-39004062D01*
X176848245Y-39090219D01*
X176844636Y-39091986D01*
X176732811Y-39129400D01*
X176591730Y-39152923D01*
X176441435Y-39160932D01*
X176301966Y-39151804D01*
X176243855Y-39140635D01*
X176140739Y-39106691D01*
X176039370Y-39060072D01*
X175957408Y-39009731D01*
X175920942Y-38976953D01*
X175906443Y-38949482D01*
X175914889Y-38917839D01*
X175951770Y-38870920D01*
X175996604Y-38823895D01*
X176106424Y-38711997D01*
X176173959Y-38760086D01*
X176273767Y-38810637D01*
X176396284Y-38844353D01*
X176516625Y-38855557D01*
X176570508Y-38850523D01*
X176656083Y-38818901D01*
X176729005Y-38765051D01*
X176775104Y-38701435D01*
X176784000Y-38662768D01*
X176769748Y-38596067D01*
X176723194Y-38545088D01*
X176638643Y-38506267D01*
X176510396Y-38476039D01*
X176476436Y-38470298D01*
X176302414Y-38434307D01*
X176171823Y-38386782D01*
X176077762Y-38323072D01*
X176013329Y-38238525D01*
X175972121Y-38130372D01*
X175953120Y-37969890D01*
X175981099Y-37820027D01*
X176053418Y-37687991D01*
X176167434Y-37580994D01*
X176175341Y-37575661D01*
X176239442Y-37538765D01*
X176306214Y-37515774D01*
X176392700Y-37502353D01*
X176490656Y-37495426D01*
X176625731Y-37493769D01*
X176739553Y-37502792D01*
X176739553Y-37502792D01*
G37*
X176739553Y-37502792D02*
X176799872Y-37515561D01*
X176884526Y-37549205D01*
X176965145Y-37592408D01*
X177028486Y-37636795D01*
X177061307Y-37673994D01*
X177063226Y-37682095D01*
X177046433Y-37713587D01*
X177003201Y-37765509D01*
X176967110Y-37802714D01*
X176870820Y-37896738D01*
X176771239Y-37845969D01*
X176655142Y-37803830D01*
X176541581Y-37792154D01*
X176440117Y-37808416D01*
X176360312Y-37850090D01*
X176311727Y-37914651D01*
X176301400Y-37970052D01*
X176312857Y-38032913D01*
X176351624Y-38081105D01*
X176424290Y-38118654D01*
X176537448Y-38149584D01*
X176621603Y-38165627D01*
X176785829Y-38201651D01*
X176907419Y-38247998D01*
X176994230Y-38309420D01*
X177054119Y-38390669D01*
X177076672Y-38440864D01*
X177112477Y-38596246D01*
X177104293Y-38747973D01*
X177055364Y-38886946D01*
X176968934Y-39004062D01*
X176848245Y-39090219D01*
X176844636Y-39091986D01*
X176732811Y-39129400D01*
X176591730Y-39152923D01*
X176441435Y-39160932D01*
X176301966Y-39151804D01*
X176243855Y-39140635D01*
X176140739Y-39106691D01*
X176039370Y-39060072D01*
X175957408Y-39009731D01*
X175920942Y-38976953D01*
X175906443Y-38949482D01*
X175914889Y-38917839D01*
X175951770Y-38870920D01*
X175996604Y-38823895D01*
X176106424Y-38711997D01*
X176173959Y-38760086D01*
X176273767Y-38810637D01*
X176396284Y-38844353D01*
X176516625Y-38855557D01*
X176570508Y-38850523D01*
X176656083Y-38818901D01*
X176729005Y-38765051D01*
X176775104Y-38701435D01*
X176784000Y-38662768D01*
X176769748Y-38596067D01*
X176723194Y-38545088D01*
X176638643Y-38506267D01*
X176510396Y-38476039D01*
X176476436Y-38470298D01*
X176302414Y-38434307D01*
X176171823Y-38386782D01*
X176077762Y-38323072D01*
X176013329Y-38238525D01*
X175972121Y-38130372D01*
X175953120Y-37969890D01*
X175981099Y-37820027D01*
X176053418Y-37687991D01*
X176167434Y-37580994D01*
X176175341Y-37575661D01*
X176239442Y-37538765D01*
X176306214Y-37515774D01*
X176392700Y-37502353D01*
X176490656Y-37495426D01*
X176625731Y-37493769D01*
X176739553Y-37502792D01*
G36*
X139760246Y-37921475D02*
X139969468Y-38352550D01*
X140381700Y-37490400D01*
X140716000Y-37490400D01*
X140716000Y-39141400D01*
X140385800Y-39141400D01*
X140382848Y-38239700D01*
X140238794Y-38525450D01*
X140094739Y-38811200D01*
X139838660Y-38811200D01*
X139694605Y-38525450D01*
X139550551Y-38239700D01*
X139549075Y-38690550D01*
X139547600Y-39141400D01*
X139217400Y-39141400D01*
X139217400Y-37490400D01*
X139551023Y-37490400D01*
X139760246Y-37921475D01*
X139760246Y-37921475D01*
G37*
X139760246Y-37921475D02*
X139969468Y-38352550D01*
X140381700Y-37490400D01*
X140716000Y-37490400D01*
X140716000Y-39141400D01*
X140385800Y-39141400D01*
X140382848Y-38239700D01*
X140238794Y-38525450D01*
X140094739Y-38811200D01*
X139838660Y-38811200D01*
X139694605Y-38525450D01*
X139550551Y-38239700D01*
X139549075Y-38690550D01*
X139547600Y-39141400D01*
X139217400Y-39141400D01*
X139217400Y-37490400D01*
X139551023Y-37490400D01*
X139760246Y-37921475D01*
G36*
X148031200Y-37795200D02*
X147599400Y-37795200D01*
X147599400Y-39141400D01*
X147269200Y-39141400D01*
X147269200Y-37795200D01*
X146837400Y-37795200D01*
X146837400Y-37490400D01*
X148031200Y-37490400D01*
X148031200Y-37795200D01*
X148031200Y-37795200D01*
G37*
X148031200Y-37795200D02*
X147599400Y-37795200D01*
X147599400Y-39141400D01*
X147269200Y-39141400D01*
X147269200Y-37795200D01*
X146837400Y-37795200D01*
X146837400Y-37490400D01*
X148031200Y-37490400D01*
X148031200Y-37795200D01*
G36*
X154501850Y-37491005D02*
X154639226Y-37492860D01*
X154766666Y-37497503D01*
X154871297Y-37504268D01*
X154940247Y-37512492D01*
X154947653Y-37514025D01*
X155092018Y-37571459D01*
X155206981Y-37665374D01*
X155287860Y-37787870D01*
X155329978Y-37931050D01*
X155328653Y-38087014D01*
X155318070Y-38139211D01*
X155284409Y-38223980D01*
X155231243Y-38307948D01*
X155169199Y-38378252D01*
X155108903Y-38422023D01*
X155077727Y-38430200D01*
X155069911Y-38445792D01*
X155084185Y-38494563D01*
X155121791Y-38579508D01*
X155183968Y-38703620D01*
X155218273Y-38769215D01*
X155280612Y-38888374D01*
X155333498Y-38991456D01*
X155372793Y-39070236D01*
X155394358Y-39116489D01*
X155397200Y-39124815D01*
X155373826Y-39132580D01*
X155311790Y-39138399D01*
X155223224Y-39141263D01*
X155197680Y-39141400D01*
X154998161Y-39141400D01*
X154848430Y-38824185D01*
X154698700Y-38506971D01*
X154590750Y-38506685D01*
X154482800Y-38506400D01*
X154482800Y-39141400D01*
X154152600Y-39141400D01*
X154152600Y-38201600D01*
X154482800Y-38201600D01*
X154674454Y-38201600D01*
X154776417Y-38199701D01*
X154842399Y-38191591D01*
X154887153Y-38173649D01*
X154925431Y-38142253D01*
X154928454Y-38139254D01*
X154980686Y-38058405D01*
X154982732Y-37972611D01*
X154934548Y-37885074D01*
X154931935Y-37881999D01*
X154895566Y-37846156D01*
X154852885Y-37823902D01*
X154789583Y-37810677D01*
X154691352Y-37801920D01*
X154677935Y-37801042D01*
X154482800Y-37788519D01*
X154482800Y-38201600D01*
X154152600Y-38201600D01*
X154152600Y-37490400D01*
X154501850Y-37491005D01*
X154501850Y-37491005D01*
G37*
X154501850Y-37491005D02*
X154639226Y-37492860D01*
X154766666Y-37497503D01*
X154871297Y-37504268D01*
X154940247Y-37512492D01*
X154947653Y-37514025D01*
X155092018Y-37571459D01*
X155206981Y-37665374D01*
X155287860Y-37787870D01*
X155329978Y-37931050D01*
X155328653Y-38087014D01*
X155318070Y-38139211D01*
X155284409Y-38223980D01*
X155231243Y-38307948D01*
X155169199Y-38378252D01*
X155108903Y-38422023D01*
X155077727Y-38430200D01*
X155069911Y-38445792D01*
X155084185Y-38494563D01*
X155121791Y-38579508D01*
X155183968Y-38703620D01*
X155218273Y-38769215D01*
X155280612Y-38888374D01*
X155333498Y-38991456D01*
X155372793Y-39070236D01*
X155394358Y-39116489D01*
X155397200Y-39124815D01*
X155373826Y-39132580D01*
X155311790Y-39138399D01*
X155223224Y-39141263D01*
X155197680Y-39141400D01*
X154998161Y-39141400D01*
X154848430Y-38824185D01*
X154698700Y-38506971D01*
X154590750Y-38506685D01*
X154482800Y-38506400D01*
X154482800Y-39141400D01*
X154152600Y-39141400D01*
X154152600Y-38201600D01*
X154482800Y-38201600D01*
X154674454Y-38201600D01*
X154776417Y-38199701D01*
X154842399Y-38191591D01*
X154887153Y-38173649D01*
X154925431Y-38142253D01*
X154928454Y-38139254D01*
X154980686Y-38058405D01*
X154982732Y-37972611D01*
X154934548Y-37885074D01*
X154931935Y-37881999D01*
X154895566Y-37846156D01*
X154852885Y-37823902D01*
X154789583Y-37810677D01*
X154691352Y-37801920D01*
X154677935Y-37801042D01*
X154482800Y-37788519D01*
X154482800Y-38201600D01*
X154152600Y-38201600D01*
X154152600Y-37490400D01*
X154501850Y-37491005D01*
G36*
X161804350Y-37490541D02*
X161983079Y-37492570D01*
X162120749Y-37499597D01*
X162226992Y-37513274D01*
X162311437Y-37535252D01*
X162383716Y-37567181D01*
X162435987Y-37598820D01*
X162526288Y-37686927D01*
X162592496Y-37807582D01*
X162630679Y-37946705D01*
X162636904Y-38090216D01*
X162609184Y-38218996D01*
X162535487Y-38346815D01*
X162423615Y-38441168D01*
X162273545Y-38502065D01*
X162085251Y-38529521D01*
X162020250Y-38531242D01*
X161798000Y-38531800D01*
X161798000Y-39141400D01*
X161442400Y-39141400D01*
X161442400Y-37795200D01*
X161798000Y-37795200D01*
X161798000Y-38227000D01*
X161972374Y-38227000D01*
X162079566Y-38223014D01*
X162151827Y-38208887D01*
X162204557Y-38181364D01*
X162210820Y-38176601D01*
X162275945Y-38098316D01*
X162293504Y-38007399D01*
X162269210Y-37924734D01*
X162208367Y-37855675D01*
X162109333Y-37813062D01*
X161969102Y-37795735D01*
X161933909Y-37795200D01*
X161798000Y-37795200D01*
X161442400Y-37795200D01*
X161442400Y-37490400D01*
X161804350Y-37490541D01*
X161804350Y-37490541D01*
G37*
X161804350Y-37490541D02*
X161983079Y-37492570D01*
X162120749Y-37499597D01*
X162226992Y-37513274D01*
X162311437Y-37535252D01*
X162383716Y-37567181D01*
X162435987Y-37598820D01*
X162526288Y-37686927D01*
X162592496Y-37807582D01*
X162630679Y-37946705D01*
X162636904Y-38090216D01*
X162609184Y-38218996D01*
X162535487Y-38346815D01*
X162423615Y-38441168D01*
X162273545Y-38502065D01*
X162085251Y-38529521D01*
X162020250Y-38531242D01*
X161798000Y-38531800D01*
X161798000Y-39141400D01*
X161442400Y-39141400D01*
X161442400Y-37795200D01*
X161798000Y-37795200D01*
X161798000Y-38227000D01*
X161972374Y-38227000D01*
X162079566Y-38223014D01*
X162151827Y-38208887D01*
X162204557Y-38181364D01*
X162210820Y-38176601D01*
X162275945Y-38098316D01*
X162293504Y-38007399D01*
X162269210Y-37924734D01*
X162208367Y-37855675D01*
X162109333Y-37813062D01*
X161969102Y-37795735D01*
X161933909Y-37795200D01*
X161798000Y-37795200D01*
X161442400Y-37795200D01*
X161442400Y-37490400D01*
X161804350Y-37490541D01*
G36*
X169170350Y-37490541D02*
X169356229Y-37493020D01*
X169500509Y-37501403D01*
X169612212Y-37517355D01*
X169700363Y-37542542D01*
X169773983Y-37578629D01*
X169820814Y-37610595D01*
X169910339Y-37707756D01*
X169971389Y-37834705D01*
X170000420Y-37976970D01*
X169993890Y-38120078D01*
X169967553Y-38209951D01*
X169924836Y-38279702D01*
X169860215Y-38352516D01*
X169790702Y-38411102D01*
X169745979Y-38435173D01*
X169745698Y-38460638D01*
X169769283Y-38525607D01*
X169814887Y-38625776D01*
X169880661Y-38756839D01*
X169899659Y-38793202D01*
X170082835Y-39141400D01*
X169668512Y-39141400D01*
X169364758Y-38506400D01*
X169164000Y-38506400D01*
X169164000Y-39141400D01*
X168808400Y-39141400D01*
X168808400Y-37795200D01*
X169164000Y-37795200D01*
X169164000Y-38201600D01*
X169348150Y-38200792D01*
X169458084Y-38195497D01*
X169539874Y-38181919D01*
X169575751Y-38166972D01*
X169635392Y-38093574D01*
X169654848Y-38003896D01*
X169634585Y-37923526D01*
X169573214Y-37854778D01*
X169472566Y-37812445D01*
X169330217Y-37795597D01*
X169299909Y-37795200D01*
X169164000Y-37795200D01*
X168808400Y-37795200D01*
X168808400Y-37490400D01*
X169170350Y-37490541D01*
X169170350Y-37490541D01*
G37*
X169170350Y-37490541D02*
X169356229Y-37493020D01*
X169500509Y-37501403D01*
X169612212Y-37517355D01*
X169700363Y-37542542D01*
X169773983Y-37578629D01*
X169820814Y-37610595D01*
X169910339Y-37707756D01*
X169971389Y-37834705D01*
X170000420Y-37976970D01*
X169993890Y-38120078D01*
X169967553Y-38209951D01*
X169924836Y-38279702D01*
X169860215Y-38352516D01*
X169790702Y-38411102D01*
X169745979Y-38435173D01*
X169745698Y-38460638D01*
X169769283Y-38525607D01*
X169814887Y-38625776D01*
X169880661Y-38756839D01*
X169899659Y-38793202D01*
X170082835Y-39141400D01*
X169668512Y-39141400D01*
X169364758Y-38506400D01*
X169164000Y-38506400D01*
X169164000Y-39141400D01*
X168808400Y-39141400D01*
X168808400Y-37795200D01*
X169164000Y-37795200D01*
X169164000Y-38201600D01*
X169348150Y-38200792D01*
X169458084Y-38195497D01*
X169539874Y-38181919D01*
X169575751Y-38166972D01*
X169635392Y-38093574D01*
X169654848Y-38003896D01*
X169634585Y-37923526D01*
X169573214Y-37854778D01*
X169472566Y-37812445D01*
X169330217Y-37795597D01*
X169299909Y-37795200D01*
X169164000Y-37795200D01*
X168808400Y-37795200D01*
X168808400Y-37490400D01*
X169170350Y-37490541D01*
G36*
X173583600Y-37795200D02*
X173151800Y-37795200D01*
X173151800Y-39141400D01*
X172796200Y-39141400D01*
X172796200Y-37795200D01*
X172389800Y-37795200D01*
X172389800Y-37490400D01*
X173583600Y-37490400D01*
X173583600Y-37795200D01*
X173583600Y-37795200D01*
G37*
X173583600Y-37795200D02*
X173151800Y-37795200D01*
X173151800Y-39141400D01*
X172796200Y-39141400D01*
X172796200Y-37795200D01*
X172389800Y-37795200D01*
X172389800Y-37490400D01*
X173583600Y-37490400D01*
X173583600Y-37795200D01*
G36*
X140648810Y-30937507D02*
X140733960Y-30939499D01*
X140784681Y-30944780D01*
X140809158Y-30954956D01*
X140815576Y-30971632D01*
X140812520Y-30994349D01*
X140804154Y-31026091D01*
X140782703Y-31103408D01*
X140749093Y-31223045D01*
X140704249Y-31381748D01*
X140649097Y-31576263D01*
X140584564Y-31803334D01*
X140511574Y-32059708D01*
X140431055Y-32342130D01*
X140343930Y-32647346D01*
X140251127Y-32972100D01*
X140153571Y-33313138D01*
X140053909Y-33661197D01*
X139306300Y-36270895D01*
X138996364Y-36271047D01*
X138686429Y-36271200D01*
X138718997Y-36162984D01*
X138730371Y-36124046D01*
X138754768Y-36039649D01*
X138791218Y-35913169D01*
X138838751Y-35747982D01*
X138896397Y-35547464D01*
X138963188Y-35314990D01*
X139038153Y-35053937D01*
X139120322Y-34767680D01*
X139208726Y-34459596D01*
X139302395Y-34133061D01*
X139400360Y-33791450D01*
X139485068Y-33495984D01*
X140218571Y-30937200D01*
X140521046Y-30937200D01*
X140648810Y-30937507D01*
X140648810Y-30937507D01*
G37*
X140648810Y-30937507D02*
X140733960Y-30939499D01*
X140784681Y-30944780D01*
X140809158Y-30954956D01*
X140815576Y-30971632D01*
X140812520Y-30994349D01*
X140804154Y-31026091D01*
X140782703Y-31103408D01*
X140749093Y-31223045D01*
X140704249Y-31381748D01*
X140649097Y-31576263D01*
X140584564Y-31803334D01*
X140511574Y-32059708D01*
X140431055Y-32342130D01*
X140343930Y-32647346D01*
X140251127Y-32972100D01*
X140153571Y-33313138D01*
X140053909Y-33661197D01*
X139306300Y-36270895D01*
X138996364Y-36271047D01*
X138686429Y-36271200D01*
X138718997Y-36162984D01*
X138730371Y-36124046D01*
X138754768Y-36039649D01*
X138791218Y-35913169D01*
X138838751Y-35747982D01*
X138896397Y-35547464D01*
X138963188Y-35314990D01*
X139038153Y-35053937D01*
X139120322Y-34767680D01*
X139208726Y-34459596D01*
X139302395Y-34133061D01*
X139400360Y-33791450D01*
X139485068Y-33495984D01*
X140218571Y-30937200D01*
X140521046Y-30937200D01*
X140648810Y-30937507D01*
G36*
X142361214Y-30941084D02*
X142441707Y-30943480D01*
X142493837Y-30947967D01*
X142523212Y-30954878D01*
X142535440Y-30964547D01*
X142536130Y-30977307D01*
X142535098Y-30981217D01*
X142526368Y-31011455D01*
X142504624Y-31087190D01*
X142470823Y-31205080D01*
X142425922Y-31361779D01*
X142370878Y-31553945D01*
X142306650Y-31778234D01*
X142234194Y-32031303D01*
X142154468Y-32309808D01*
X142068429Y-32610406D01*
X141977035Y-32929753D01*
X141881243Y-33264506D01*
X141820385Y-33477200D01*
X141721433Y-33822996D01*
X141625644Y-34157664D01*
X141534042Y-34477627D01*
X141447651Y-34779311D01*
X141367496Y-35059142D01*
X141294602Y-35313544D01*
X141229991Y-35538943D01*
X141174690Y-35731764D01*
X141129722Y-35888432D01*
X141096111Y-36005373D01*
X141074883Y-36079011D01*
X141068860Y-36099750D01*
X141018648Y-36271200D01*
X140372024Y-36271200D01*
X140164763Y-36270651D01*
X140003679Y-36268854D01*
X139884159Y-36265582D01*
X139801590Y-36260608D01*
X139751361Y-36253705D01*
X139728857Y-36244645D01*
X139726549Y-36239450D01*
X139733585Y-36211225D01*
X139753771Y-36137384D01*
X139786196Y-36021126D01*
X139829952Y-35865652D01*
X139884128Y-35674160D01*
X139947816Y-35449850D01*
X140020104Y-35195922D01*
X140100083Y-34915575D01*
X140186844Y-34612009D01*
X140279477Y-34288423D01*
X140377071Y-33948017D01*
X140478718Y-33593991D01*
X140483083Y-33578800D01*
X141238466Y-30949900D01*
X141893482Y-30943117D01*
X142092710Y-30941236D01*
X142246751Y-30940447D01*
X142361214Y-30941084D01*
X142361214Y-30941084D01*
G37*
X142361214Y-30941084D02*
X142441707Y-30943480D01*
X142493837Y-30947967D01*
X142523212Y-30954878D01*
X142535440Y-30964547D01*
X142536130Y-30977307D01*
X142535098Y-30981217D01*
X142526368Y-31011455D01*
X142504624Y-31087190D01*
X142470823Y-31205080D01*
X142425922Y-31361779D01*
X142370878Y-31553945D01*
X142306650Y-31778234D01*
X142234194Y-32031303D01*
X142154468Y-32309808D01*
X142068429Y-32610406D01*
X141977035Y-32929753D01*
X141881243Y-33264506D01*
X141820385Y-33477200D01*
X141721433Y-33822996D01*
X141625644Y-34157664D01*
X141534042Y-34477627D01*
X141447651Y-34779311D01*
X141367496Y-35059142D01*
X141294602Y-35313544D01*
X141229991Y-35538943D01*
X141174690Y-35731764D01*
X141129722Y-35888432D01*
X141096111Y-36005373D01*
X141074883Y-36079011D01*
X141068860Y-36099750D01*
X141018648Y-36271200D01*
X140372024Y-36271200D01*
X140164763Y-36270651D01*
X140003679Y-36268854D01*
X139884159Y-36265582D01*
X139801590Y-36260608D01*
X139751361Y-36253705D01*
X139728857Y-36244645D01*
X139726549Y-36239450D01*
X139733585Y-36211225D01*
X139753771Y-36137384D01*
X139786196Y-36021126D01*
X139829952Y-35865652D01*
X139884128Y-35674160D01*
X139947816Y-35449850D01*
X140020104Y-35195922D01*
X140100083Y-34915575D01*
X140186844Y-34612009D01*
X140279477Y-34288423D01*
X140377071Y-33948017D01*
X140478718Y-33593991D01*
X140483083Y-33578800D01*
X141238466Y-30949900D01*
X141893482Y-30943117D01*
X142092710Y-30941236D01*
X142246751Y-30940447D01*
X142361214Y-30941084D01*
G36*
X144194279Y-30937311D02*
X144398839Y-30937784D01*
X144561781Y-30938828D01*
X144687698Y-30940651D01*
X144781179Y-30943461D01*
X144846817Y-30947467D01*
X144889202Y-30952878D01*
X144912927Y-30959902D01*
X144922581Y-30968748D01*
X144922757Y-30979623D01*
X144922186Y-30981650D01*
X144913462Y-31011681D01*
X144891689Y-31087295D01*
X144857799Y-31205236D01*
X144812727Y-31362249D01*
X144757406Y-31555079D01*
X144692769Y-31780471D01*
X144619749Y-32035169D01*
X144539281Y-32315918D01*
X144452297Y-32619463D01*
X144359730Y-32942548D01*
X144262515Y-33281919D01*
X144170210Y-33604200D01*
X144069558Y-33955627D01*
X143972704Y-34293751D01*
X143880580Y-34615315D01*
X143794121Y-34917064D01*
X143714258Y-35195742D01*
X143641925Y-35448096D01*
X143578055Y-35670869D01*
X143523582Y-35860806D01*
X143479439Y-36014653D01*
X143446558Y-36129153D01*
X143425872Y-36201052D01*
X143418423Y-36226750D01*
X143412173Y-36238013D01*
X143397759Y-36247204D01*
X143370457Y-36254531D01*
X143325545Y-36260204D01*
X143258298Y-36264431D01*
X143163995Y-36267421D01*
X143037911Y-36269384D01*
X142875324Y-36270529D01*
X142671510Y-36271064D01*
X142421746Y-36271199D01*
X142414376Y-36271200D01*
X142163852Y-36271088D01*
X141959534Y-36270614D01*
X141796830Y-36269569D01*
X141671146Y-36267743D01*
X141577889Y-36264928D01*
X141512467Y-36260915D01*
X141470285Y-36255493D01*
X141446752Y-36248455D01*
X141437273Y-36239591D01*
X141437256Y-36228693D01*
X141437824Y-36226750D01*
X141447538Y-36193788D01*
X141469927Y-36116517D01*
X141503890Y-35998779D01*
X141548324Y-35844415D01*
X141602130Y-35657269D01*
X141664207Y-35441181D01*
X141733453Y-35199996D01*
X141808768Y-34937553D01*
X141889050Y-34657697D01*
X141973200Y-34364269D01*
X142060114Y-34061110D01*
X142148694Y-33752064D01*
X142237838Y-33440973D01*
X142326444Y-33131678D01*
X142413412Y-32828023D01*
X142497642Y-32533848D01*
X142578031Y-32252997D01*
X142653480Y-31989311D01*
X142722887Y-31746633D01*
X142785151Y-31528804D01*
X142839171Y-31339668D01*
X142883846Y-31183066D01*
X142918076Y-31062840D01*
X142940759Y-30982833D01*
X142950795Y-30946886D01*
X142951200Y-30945241D01*
X142975693Y-30943467D01*
X143045545Y-30941829D01*
X143155317Y-30940370D01*
X143299566Y-30939135D01*
X143472853Y-30938168D01*
X143669738Y-30937513D01*
X143884778Y-30937214D01*
X143943511Y-30937200D01*
X144194279Y-30937311D01*
X144194279Y-30937311D01*
G37*
X144194279Y-30937311D02*
X144398839Y-30937784D01*
X144561781Y-30938828D01*
X144687698Y-30940651D01*
X144781179Y-30943461D01*
X144846817Y-30947467D01*
X144889202Y-30952878D01*
X144912927Y-30959902D01*
X144922581Y-30968748D01*
X144922757Y-30979623D01*
X144922186Y-30981650D01*
X144913462Y-31011681D01*
X144891689Y-31087295D01*
X144857799Y-31205236D01*
X144812727Y-31362249D01*
X144757406Y-31555079D01*
X144692769Y-31780471D01*
X144619749Y-32035169D01*
X144539281Y-32315918D01*
X144452297Y-32619463D01*
X144359730Y-32942548D01*
X144262515Y-33281919D01*
X144170210Y-33604200D01*
X144069558Y-33955627D01*
X143972704Y-34293751D01*
X143880580Y-34615315D01*
X143794121Y-34917064D01*
X143714258Y-35195742D01*
X143641925Y-35448096D01*
X143578055Y-35670869D01*
X143523582Y-35860806D01*
X143479439Y-36014653D01*
X143446558Y-36129153D01*
X143425872Y-36201052D01*
X143418423Y-36226750D01*
X143412173Y-36238013D01*
X143397759Y-36247204D01*
X143370457Y-36254531D01*
X143325545Y-36260204D01*
X143258298Y-36264431D01*
X143163995Y-36267421D01*
X143037911Y-36269384D01*
X142875324Y-36270529D01*
X142671510Y-36271064D01*
X142421746Y-36271199D01*
X142414376Y-36271200D01*
X142163852Y-36271088D01*
X141959534Y-36270614D01*
X141796830Y-36269569D01*
X141671146Y-36267743D01*
X141577889Y-36264928D01*
X141512467Y-36260915D01*
X141470285Y-36255493D01*
X141446752Y-36248455D01*
X141437273Y-36239591D01*
X141437256Y-36228693D01*
X141437824Y-36226750D01*
X141447538Y-36193788D01*
X141469927Y-36116517D01*
X141503890Y-35998779D01*
X141548324Y-35844415D01*
X141602130Y-35657269D01*
X141664207Y-35441181D01*
X141733453Y-35199996D01*
X141808768Y-34937553D01*
X141889050Y-34657697D01*
X141973200Y-34364269D01*
X142060114Y-34061110D01*
X142148694Y-33752064D01*
X142237838Y-33440973D01*
X142326444Y-33131678D01*
X142413412Y-32828023D01*
X142497642Y-32533848D01*
X142578031Y-32252997D01*
X142653480Y-31989311D01*
X142722887Y-31746633D01*
X142785151Y-31528804D01*
X142839171Y-31339668D01*
X142883846Y-31183066D01*
X142918076Y-31062840D01*
X142940759Y-30982833D01*
X142950795Y-30946886D01*
X142951200Y-30945241D01*
X142975693Y-30943467D01*
X143045545Y-30941829D01*
X143155317Y-30940370D01*
X143299566Y-30939135D01*
X143472853Y-30938168D01*
X143669738Y-30937513D01*
X143884778Y-30937214D01*
X143943511Y-30937200D01*
X144194279Y-30937311D01*
G36*
X147460688Y-31007049D02*
X147451653Y-31040572D01*
X147429528Y-31119631D01*
X147395252Y-31240940D01*
X147349762Y-31401211D01*
X147293996Y-31597156D01*
X147228893Y-31825487D01*
X147155391Y-32082917D01*
X147074427Y-32366159D01*
X146986939Y-32671924D01*
X146893866Y-32996925D01*
X146796146Y-33337874D01*
X146701541Y-33667700D01*
X145958143Y-36258500D01*
X144884671Y-36265127D01*
X144622969Y-36266646D01*
X144407641Y-36267564D01*
X144234264Y-36267721D01*
X144098412Y-36266958D01*
X143995662Y-36265116D01*
X143921591Y-36262035D01*
X143871774Y-36257558D01*
X143841788Y-36251523D01*
X143827207Y-36243774D01*
X143823609Y-36234150D01*
X143824998Y-36227027D01*
X143833745Y-36196957D01*
X143855541Y-36121305D01*
X143889453Y-36003327D01*
X143934547Y-35846279D01*
X143989890Y-35653416D01*
X144054548Y-35427993D01*
X144127586Y-35173267D01*
X144208072Y-34892493D01*
X144295072Y-34588927D01*
X144387652Y-34265824D01*
X144484879Y-33926441D01*
X144577178Y-33604200D01*
X144677834Y-33252773D01*
X144774691Y-32914650D01*
X144866814Y-32593088D01*
X144953272Y-32291339D01*
X145033131Y-32012661D01*
X145105458Y-31760308D01*
X145169319Y-31537535D01*
X145223783Y-31347597D01*
X145267916Y-31193750D01*
X145300785Y-31079249D01*
X145321456Y-31007349D01*
X145328891Y-30981650D01*
X145334915Y-30970761D01*
X145348869Y-30961805D01*
X145375302Y-30954592D01*
X145418761Y-30948935D01*
X145483792Y-30944649D01*
X145574944Y-30941546D01*
X145696764Y-30939438D01*
X145853799Y-30938138D01*
X146050596Y-30937461D01*
X146291703Y-30937217D01*
X146409329Y-30937200D01*
X147476436Y-30937200D01*
X147460688Y-31007049D01*
X147460688Y-31007049D01*
G37*
X147460688Y-31007049D02*
X147451653Y-31040572D01*
X147429528Y-31119631D01*
X147395252Y-31240940D01*
X147349762Y-31401211D01*
X147293996Y-31597156D01*
X147228893Y-31825487D01*
X147155391Y-32082917D01*
X147074427Y-32366159D01*
X146986939Y-32671924D01*
X146893866Y-32996925D01*
X146796146Y-33337874D01*
X146701541Y-33667700D01*
X145958143Y-36258500D01*
X144884671Y-36265127D01*
X144622969Y-36266646D01*
X144407641Y-36267564D01*
X144234264Y-36267721D01*
X144098412Y-36266958D01*
X143995662Y-36265116D01*
X143921591Y-36262035D01*
X143871774Y-36257558D01*
X143841788Y-36251523D01*
X143827207Y-36243774D01*
X143823609Y-36234150D01*
X143824998Y-36227027D01*
X143833745Y-36196957D01*
X143855541Y-36121305D01*
X143889453Y-36003327D01*
X143934547Y-35846279D01*
X143989890Y-35653416D01*
X144054548Y-35427993D01*
X144127586Y-35173267D01*
X144208072Y-34892493D01*
X144295072Y-34588927D01*
X144387652Y-34265824D01*
X144484879Y-33926441D01*
X144577178Y-33604200D01*
X144677834Y-33252773D01*
X144774691Y-32914650D01*
X144866814Y-32593088D01*
X144953272Y-32291339D01*
X145033131Y-32012661D01*
X145105458Y-31760308D01*
X145169319Y-31537535D01*
X145223783Y-31347597D01*
X145267916Y-31193750D01*
X145300785Y-31079249D01*
X145321456Y-31007349D01*
X145328891Y-30981650D01*
X145334915Y-30970761D01*
X145348869Y-30961805D01*
X145375302Y-30954592D01*
X145418761Y-30948935D01*
X145483792Y-30944649D01*
X145574944Y-30941546D01*
X145696764Y-30939438D01*
X145853799Y-30938138D01*
X146050596Y-30937461D01*
X146291703Y-30937217D01*
X146409329Y-30937200D01*
X147476436Y-30937200D01*
X147460688Y-31007049D01*
G36*
X150337643Y-30943811D02*
X150536617Y-30980965D01*
X150709047Y-31050960D01*
X150850232Y-31152190D01*
X150955474Y-31283047D01*
X150991328Y-31354677D01*
X151025021Y-31473677D01*
X151044471Y-31625872D01*
X151048779Y-31795442D01*
X151037047Y-31966566D01*
X151029245Y-32022284D01*
X151015019Y-32091189D01*
X150988075Y-32202828D01*
X150949985Y-32351649D01*
X150902317Y-32532101D01*
X150846640Y-32738633D01*
X150784524Y-32965694D01*
X150717539Y-33207733D01*
X150647252Y-33459198D01*
X150575235Y-33714540D01*
X150503056Y-33968206D01*
X150432284Y-34214646D01*
X150364490Y-34448308D01*
X150301241Y-34663641D01*
X150244108Y-34855095D01*
X150194660Y-35017118D01*
X150154466Y-35144159D01*
X150125095Y-35230667D01*
X150114392Y-35258330D01*
X149979271Y-35523578D01*
X149816139Y-35753016D01*
X149628099Y-35943752D01*
X149418250Y-36092894D01*
X149189694Y-36197551D01*
X149070236Y-36232089D01*
X148925902Y-36255895D01*
X148761565Y-36266956D01*
X148596678Y-36265145D01*
X148450696Y-36250332D01*
X148385544Y-36236605D01*
X148208719Y-36165968D01*
X148067445Y-36059432D01*
X147962694Y-35917872D01*
X147917398Y-35815412D01*
X147896646Y-35723071D01*
X147883834Y-35596166D01*
X147879197Y-35450344D01*
X147881917Y-35342917D01*
X148159423Y-35342917D01*
X148163368Y-35493366D01*
X148181543Y-35622232D01*
X148206207Y-35699700D01*
X148273054Y-35813471D01*
X148357737Y-35895705D01*
X148467314Y-35949616D01*
X148608841Y-35978415D01*
X148789373Y-35985316D01*
X148831300Y-35984335D01*
X148959249Y-35978254D01*
X149053441Y-35967262D01*
X149130896Y-35947970D01*
X149208631Y-35916987D01*
X149237700Y-35903404D01*
X149376379Y-35824262D01*
X149500424Y-35724408D01*
X149612510Y-35599388D01*
X149715314Y-35444749D01*
X149811510Y-35256038D01*
X149903775Y-35028801D01*
X149994783Y-34758585D01*
X150062057Y-34531300D01*
X150182890Y-34103293D01*
X150290213Y-33721839D01*
X150384638Y-33384691D01*
X150466776Y-33089601D01*
X150537238Y-32834325D01*
X150596635Y-32616616D01*
X150645577Y-32434227D01*
X150684677Y-32284913D01*
X150714544Y-32166426D01*
X150735790Y-32076521D01*
X150749027Y-32012952D01*
X150752315Y-31993752D01*
X150767683Y-31784871D01*
X150744984Y-31605480D01*
X150684828Y-31457389D01*
X150587823Y-31342406D01*
X150516540Y-31292527D01*
X150462016Y-31264137D01*
X150408838Y-31245732D01*
X150343985Y-31235198D01*
X150254438Y-31230425D01*
X150127175Y-31229300D01*
X150126700Y-31229300D01*
X149997434Y-31230572D01*
X149904338Y-31235951D01*
X149832811Y-31247784D01*
X149768252Y-31268415D01*
X149701619Y-31297575D01*
X149605200Y-31347357D01*
X149512115Y-31402800D01*
X149463534Y-31436331D01*
X149373758Y-31522071D01*
X149277421Y-31643042D01*
X149183350Y-31786059D01*
X149100368Y-31937938D01*
X149047591Y-32057753D01*
X149028355Y-32114222D01*
X148997134Y-32213981D01*
X148955543Y-32351374D01*
X148905201Y-32520745D01*
X148847725Y-32716441D01*
X148784732Y-32932805D01*
X148717841Y-33164183D01*
X148648667Y-33404919D01*
X148578829Y-33649358D01*
X148509945Y-33891844D01*
X148443631Y-34126724D01*
X148381506Y-34348341D01*
X148325186Y-34551040D01*
X148276290Y-34729166D01*
X148236434Y-34877065D01*
X148207236Y-34989079D01*
X148195223Y-35037911D01*
X148169957Y-35186044D01*
X148159423Y-35342917D01*
X147881917Y-35342917D01*
X147882972Y-35301253D01*
X147895397Y-35164543D01*
X147906533Y-35097700D01*
X147918687Y-35047626D01*
X147943151Y-34954301D01*
X147978358Y-34823338D01*
X148022737Y-34660352D01*
X148074722Y-34470959D01*
X148132744Y-34260773D01*
X148195234Y-34035410D01*
X148260624Y-33800484D01*
X148327345Y-33561611D01*
X148393830Y-33324405D01*
X148458510Y-33094482D01*
X148519816Y-32877456D01*
X148576180Y-32678942D01*
X148626034Y-32504555D01*
X148667809Y-32359911D01*
X148699937Y-32250624D01*
X148720849Y-32182309D01*
X148721013Y-32181800D01*
X148833483Y-31896000D01*
X148975251Y-31641468D01*
X149143130Y-31421526D01*
X149333936Y-31239494D01*
X149544482Y-31098696D01*
X149771581Y-31002454D01*
X149878865Y-30974453D01*
X150116825Y-30941105D01*
X150337643Y-30943811D01*
X150337643Y-30943811D01*
G37*
X150337643Y-30943811D02*
X150536617Y-30980965D01*
X150709047Y-31050960D01*
X150850232Y-31152190D01*
X150955474Y-31283047D01*
X150991328Y-31354677D01*
X151025021Y-31473677D01*
X151044471Y-31625872D01*
X151048779Y-31795442D01*
X151037047Y-31966566D01*
X151029245Y-32022284D01*
X151015019Y-32091189D01*
X150988075Y-32202828D01*
X150949985Y-32351649D01*
X150902317Y-32532101D01*
X150846640Y-32738633D01*
X150784524Y-32965694D01*
X150717539Y-33207733D01*
X150647252Y-33459198D01*
X150575235Y-33714540D01*
X150503056Y-33968206D01*
X150432284Y-34214646D01*
X150364490Y-34448308D01*
X150301241Y-34663641D01*
X150244108Y-34855095D01*
X150194660Y-35017118D01*
X150154466Y-35144159D01*
X150125095Y-35230667D01*
X150114392Y-35258330D01*
X149979271Y-35523578D01*
X149816139Y-35753016D01*
X149628099Y-35943752D01*
X149418250Y-36092894D01*
X149189694Y-36197551D01*
X149070236Y-36232089D01*
X148925902Y-36255895D01*
X148761565Y-36266956D01*
X148596678Y-36265145D01*
X148450696Y-36250332D01*
X148385544Y-36236605D01*
X148208719Y-36165968D01*
X148067445Y-36059432D01*
X147962694Y-35917872D01*
X147917398Y-35815412D01*
X147896646Y-35723071D01*
X147883834Y-35596166D01*
X147879197Y-35450344D01*
X147881917Y-35342917D01*
X148159423Y-35342917D01*
X148163368Y-35493366D01*
X148181543Y-35622232D01*
X148206207Y-35699700D01*
X148273054Y-35813471D01*
X148357737Y-35895705D01*
X148467314Y-35949616D01*
X148608841Y-35978415D01*
X148789373Y-35985316D01*
X148831300Y-35984335D01*
X148959249Y-35978254D01*
X149053441Y-35967262D01*
X149130896Y-35947970D01*
X149208631Y-35916987D01*
X149237700Y-35903404D01*
X149376379Y-35824262D01*
X149500424Y-35724408D01*
X149612510Y-35599388D01*
X149715314Y-35444749D01*
X149811510Y-35256038D01*
X149903775Y-35028801D01*
X149994783Y-34758585D01*
X150062057Y-34531300D01*
X150182890Y-34103293D01*
X150290213Y-33721839D01*
X150384638Y-33384691D01*
X150466776Y-33089601D01*
X150537238Y-32834325D01*
X150596635Y-32616616D01*
X150645577Y-32434227D01*
X150684677Y-32284913D01*
X150714544Y-32166426D01*
X150735790Y-32076521D01*
X150749027Y-32012952D01*
X150752315Y-31993752D01*
X150767683Y-31784871D01*
X150744984Y-31605480D01*
X150684828Y-31457389D01*
X150587823Y-31342406D01*
X150516540Y-31292527D01*
X150462016Y-31264137D01*
X150408838Y-31245732D01*
X150343985Y-31235198D01*
X150254438Y-31230425D01*
X150127175Y-31229300D01*
X150126700Y-31229300D01*
X149997434Y-31230572D01*
X149904338Y-31235951D01*
X149832811Y-31247784D01*
X149768252Y-31268415D01*
X149701619Y-31297575D01*
X149605200Y-31347357D01*
X149512115Y-31402800D01*
X149463534Y-31436331D01*
X149373758Y-31522071D01*
X149277421Y-31643042D01*
X149183350Y-31786059D01*
X149100368Y-31937938D01*
X149047591Y-32057753D01*
X149028355Y-32114222D01*
X148997134Y-32213981D01*
X148955543Y-32351374D01*
X148905201Y-32520745D01*
X148847725Y-32716441D01*
X148784732Y-32932805D01*
X148717841Y-33164183D01*
X148648667Y-33404919D01*
X148578829Y-33649358D01*
X148509945Y-33891844D01*
X148443631Y-34126724D01*
X148381506Y-34348341D01*
X148325186Y-34551040D01*
X148276290Y-34729166D01*
X148236434Y-34877065D01*
X148207236Y-34989079D01*
X148195223Y-35037911D01*
X148169957Y-35186044D01*
X148159423Y-35342917D01*
X147881917Y-35342917D01*
X147882972Y-35301253D01*
X147895397Y-35164543D01*
X147906533Y-35097700D01*
X147918687Y-35047626D01*
X147943151Y-34954301D01*
X147978358Y-34823338D01*
X148022737Y-34660352D01*
X148074722Y-34470959D01*
X148132744Y-34260773D01*
X148195234Y-34035410D01*
X148260624Y-33800484D01*
X148327345Y-33561611D01*
X148393830Y-33324405D01*
X148458510Y-33094482D01*
X148519816Y-32877456D01*
X148576180Y-32678942D01*
X148626034Y-32504555D01*
X148667809Y-32359911D01*
X148699937Y-32250624D01*
X148720849Y-32182309D01*
X148721013Y-32181800D01*
X148833483Y-31896000D01*
X148975251Y-31641468D01*
X149143130Y-31421526D01*
X149333936Y-31239494D01*
X149544482Y-31098696D01*
X149771581Y-31002454D01*
X149878865Y-30974453D01*
X150116825Y-30941105D01*
X150337643Y-30943811D01*
G36*
X152083377Y-31007050D02*
X152074177Y-31040910D01*
X152052167Y-31120260D01*
X152018302Y-31241691D01*
X151973539Y-31401792D01*
X151918833Y-31597154D01*
X151855141Y-31824368D01*
X151783418Y-32080023D01*
X151704620Y-32360712D01*
X151619704Y-32663023D01*
X151529625Y-32983548D01*
X151435340Y-33318877D01*
X151382123Y-33508072D01*
X151286300Y-33848959D01*
X151194467Y-34176154D01*
X151107551Y-34486329D01*
X151026479Y-34776154D01*
X150952177Y-35042300D01*
X150885572Y-35281437D01*
X150827591Y-35490235D01*
X150779160Y-35665366D01*
X150741205Y-35803499D01*
X150714654Y-35901305D01*
X150700433Y-35955456D01*
X150698200Y-35965522D01*
X150722955Y-35973657D01*
X150797373Y-35980280D01*
X150921679Y-35985399D01*
X151096099Y-35989020D01*
X151320860Y-35991150D01*
X151577253Y-35991800D01*
X152456307Y-35991800D01*
X152439625Y-36058263D01*
X152421424Y-36136208D01*
X152408297Y-36197963D01*
X152393650Y-36271200D01*
X150321114Y-36271200D01*
X150369139Y-36099750D01*
X150382672Y-36051552D01*
X150408968Y-35958008D01*
X150447030Y-35822668D01*
X150495856Y-35649087D01*
X150554447Y-35440815D01*
X150621805Y-35201406D01*
X150696928Y-34934412D01*
X150778819Y-34643386D01*
X150866477Y-34331880D01*
X150958903Y-34003447D01*
X151055097Y-33661639D01*
X151116482Y-33443526D01*
X151213354Y-33099220D01*
X151306251Y-32768843D01*
X151394257Y-32455662D01*
X151476456Y-32162941D01*
X151551933Y-31893947D01*
X151619774Y-31651944D01*
X151679064Y-31440200D01*
X151728886Y-31261978D01*
X151768327Y-31120545D01*
X151796471Y-31019166D01*
X151812403Y-30961107D01*
X151815800Y-30947976D01*
X151838803Y-30942122D01*
X151898244Y-30938209D01*
X151958253Y-30937200D01*
X152100707Y-30937200D01*
X152083377Y-31007050D01*
X152083377Y-31007050D01*
G37*
X152083377Y-31007050D02*
X152074177Y-31040910D01*
X152052167Y-31120260D01*
X152018302Y-31241691D01*
X151973539Y-31401792D01*
X151918833Y-31597154D01*
X151855141Y-31824368D01*
X151783418Y-32080023D01*
X151704620Y-32360712D01*
X151619704Y-32663023D01*
X151529625Y-32983548D01*
X151435340Y-33318877D01*
X151382123Y-33508072D01*
X151286300Y-33848959D01*
X151194467Y-34176154D01*
X151107551Y-34486329D01*
X151026479Y-34776154D01*
X150952177Y-35042300D01*
X150885572Y-35281437D01*
X150827591Y-35490235D01*
X150779160Y-35665366D01*
X150741205Y-35803499D01*
X150714654Y-35901305D01*
X150700433Y-35955456D01*
X150698200Y-35965522D01*
X150722955Y-35973657D01*
X150797373Y-35980280D01*
X150921679Y-35985399D01*
X151096099Y-35989020D01*
X151320860Y-35991150D01*
X151577253Y-35991800D01*
X152456307Y-35991800D01*
X152439625Y-36058263D01*
X152421424Y-36136208D01*
X152408297Y-36197963D01*
X152393650Y-36271200D01*
X150321114Y-36271200D01*
X150369139Y-36099750D01*
X150382672Y-36051552D01*
X150408968Y-35958008D01*
X150447030Y-35822668D01*
X150495856Y-35649087D01*
X150554447Y-35440815D01*
X150621805Y-35201406D01*
X150696928Y-34934412D01*
X150778819Y-34643386D01*
X150866477Y-34331880D01*
X150958903Y-34003447D01*
X151055097Y-33661639D01*
X151116482Y-33443526D01*
X151213354Y-33099220D01*
X151306251Y-32768843D01*
X151394257Y-32455662D01*
X151476456Y-32162941D01*
X151551933Y-31893947D01*
X151619774Y-31651944D01*
X151679064Y-31440200D01*
X151728886Y-31261978D01*
X151768327Y-31120545D01*
X151796471Y-31019166D01*
X151812403Y-30961107D01*
X151815800Y-30947976D01*
X151838803Y-30942122D01*
X151898244Y-30938209D01*
X151958253Y-30937200D01*
X152100707Y-30937200D01*
X152083377Y-31007050D01*
G36*
X154505668Y-30938436D02*
X154544093Y-30946268D01*
X154554170Y-30967385D01*
X154547407Y-31007049D01*
X154538507Y-31040612D01*
X154516747Y-31119775D01*
X154483049Y-31241243D01*
X154438337Y-31401721D01*
X154383533Y-31597916D01*
X154319559Y-31826531D01*
X154247338Y-32084273D01*
X154167792Y-32367846D01*
X154081845Y-32673956D01*
X153990418Y-32999309D01*
X153894434Y-33340609D01*
X153802379Y-33667700D01*
X153072981Y-36258500D01*
X152939690Y-36266177D01*
X152865158Y-36266968D01*
X152816471Y-36260776D01*
X152805708Y-36253477D01*
X152812347Y-36226773D01*
X152831860Y-36154346D01*
X152863365Y-36039374D01*
X152905975Y-35885036D01*
X152958805Y-35694508D01*
X153020971Y-35470970D01*
X153091589Y-35217598D01*
X153169772Y-34937572D01*
X153254636Y-34634068D01*
X153345296Y-34310265D01*
X153440868Y-33969342D01*
X153540466Y-33614475D01*
X153548658Y-33585304D01*
X154292300Y-30937509D01*
X154427668Y-30937354D01*
X154505668Y-30938436D01*
X154505668Y-30938436D01*
G37*
X154505668Y-30938436D02*
X154544093Y-30946268D01*
X154554170Y-30967385D01*
X154547407Y-31007049D01*
X154538507Y-31040612D01*
X154516747Y-31119775D01*
X154483049Y-31241243D01*
X154438337Y-31401721D01*
X154383533Y-31597916D01*
X154319559Y-31826531D01*
X154247338Y-32084273D01*
X154167792Y-32367846D01*
X154081845Y-32673956D01*
X153990418Y-32999309D01*
X153894434Y-33340609D01*
X153802379Y-33667700D01*
X153072981Y-36258500D01*
X152939690Y-36266177D01*
X152865158Y-36266968D01*
X152816471Y-36260776D01*
X152805708Y-36253477D01*
X152812347Y-36226773D01*
X152831860Y-36154346D01*
X152863365Y-36039374D01*
X152905975Y-35885036D01*
X152958805Y-35694508D01*
X153020971Y-35470970D01*
X153091589Y-35217598D01*
X153169772Y-34937572D01*
X153254636Y-34634068D01*
X153345296Y-34310265D01*
X153440868Y-33969342D01*
X153540466Y-33614475D01*
X153548658Y-33585304D01*
X154292300Y-30937509D01*
X154427668Y-30937354D01*
X154505668Y-30938436D01*
G36*
X157222172Y-30937733D02*
X157290937Y-30941622D01*
X157340077Y-30948827D01*
X157353501Y-30956250D01*
X157346839Y-30982773D01*
X157327307Y-31055023D01*
X157295788Y-31169822D01*
X157253169Y-31323996D01*
X157200333Y-31514368D01*
X157138166Y-31737761D01*
X157067553Y-31991000D01*
X156989378Y-32270908D01*
X156904526Y-32574311D01*
X156813883Y-32898030D01*
X156718333Y-33238891D01*
X156618760Y-33593718D01*
X156610551Y-33622954D01*
X155867100Y-36270608D01*
X155746450Y-36270904D01*
X155666334Y-36265823D01*
X155629743Y-36248870D01*
X155625800Y-36236204D01*
X155622773Y-36206254D01*
X155613993Y-36129595D01*
X155599907Y-36009938D01*
X155580962Y-35850994D01*
X155557605Y-35656474D01*
X155530286Y-35430090D01*
X155499450Y-35175552D01*
X155465546Y-34896572D01*
X155429022Y-34596860D01*
X155390325Y-34280128D01*
X155359100Y-34025108D01*
X155319017Y-33697852D01*
X155280729Y-33384829D01*
X155244683Y-33089740D01*
X155211330Y-32816286D01*
X155181121Y-32568167D01*
X155154504Y-32349086D01*
X155131929Y-32162742D01*
X155113846Y-32012838D01*
X155100705Y-31903073D01*
X155092956Y-31837149D01*
X155090944Y-31818553D01*
X155084021Y-31837930D01*
X155064325Y-31902852D01*
X155032819Y-32009957D01*
X154990467Y-32155883D01*
X154938231Y-32337266D01*
X154877074Y-32550745D01*
X154807959Y-32792957D01*
X154731850Y-33060540D01*
X154649708Y-33350131D01*
X154562499Y-33658368D01*
X154471183Y-33981888D01*
X154459510Y-34023300D01*
X153829531Y-36258500D01*
X153684131Y-36266181D01*
X153602571Y-36268859D01*
X153561050Y-36263752D01*
X153549030Y-36247807D01*
X153552670Y-36228081D01*
X153561327Y-36197783D01*
X153582791Y-36121866D01*
X153616135Y-36003620D01*
X153660434Y-35846335D01*
X153714763Y-35653303D01*
X153778197Y-35427811D01*
X153849809Y-35173152D01*
X153928676Y-34892614D01*
X154013870Y-34589489D01*
X154104467Y-34267065D01*
X154199541Y-33928634D01*
X154279965Y-33642300D01*
X154378296Y-33292281D01*
X154473120Y-32954940D01*
X154563492Y-32633634D01*
X154648464Y-32331718D01*
X154727091Y-32052547D01*
X154798426Y-31799477D01*
X154861524Y-31575863D01*
X154915437Y-31385062D01*
X154959221Y-31230428D01*
X154991927Y-31115317D01*
X155012611Y-31043086D01*
X155019858Y-31018456D01*
X155039400Y-30967470D01*
X155066312Y-30944225D01*
X155117421Y-30939797D01*
X155163567Y-30942256D01*
X155280740Y-30949900D01*
X155547566Y-33165949D01*
X155587376Y-33494631D01*
X155625774Y-33807884D01*
X155662299Y-34102175D01*
X155696494Y-34373969D01*
X155727897Y-34619731D01*
X155756048Y-34835926D01*
X155780489Y-35019020D01*
X155800758Y-35165478D01*
X155816398Y-35271766D01*
X155826946Y-35334349D01*
X155831728Y-35350349D01*
X155840486Y-35322782D01*
X155861743Y-35250613D01*
X155894300Y-35138087D01*
X155936959Y-34989449D01*
X155988524Y-34808944D01*
X156047794Y-34600817D01*
X156113573Y-34369313D01*
X156184663Y-34118678D01*
X156259865Y-33853156D01*
X156337981Y-33576993D01*
X156417814Y-33294433D01*
X156498165Y-33009721D01*
X156577836Y-32727104D01*
X156655630Y-32450825D01*
X156730347Y-32185130D01*
X156800791Y-31934264D01*
X156865763Y-31702472D01*
X156924065Y-31494000D01*
X156974500Y-31313091D01*
X157015868Y-31163992D01*
X157046972Y-31050947D01*
X157066615Y-30978202D01*
X157073597Y-30950001D01*
X157073600Y-30949927D01*
X157095957Y-30941489D01*
X157151330Y-30937557D01*
X157222172Y-30937733D01*
X157222172Y-30937733D01*
G37*
X157222172Y-30937733D02*
X157290937Y-30941622D01*
X157340077Y-30948827D01*
X157353501Y-30956250D01*
X157346839Y-30982773D01*
X157327307Y-31055023D01*
X157295788Y-31169822D01*
X157253169Y-31323996D01*
X157200333Y-31514368D01*
X157138166Y-31737761D01*
X157067553Y-31991000D01*
X156989378Y-32270908D01*
X156904526Y-32574311D01*
X156813883Y-32898030D01*
X156718333Y-33238891D01*
X156618760Y-33593718D01*
X156610551Y-33622954D01*
X155867100Y-36270608D01*
X155746450Y-36270904D01*
X155666334Y-36265823D01*
X155629743Y-36248870D01*
X155625800Y-36236204D01*
X155622773Y-36206254D01*
X155613993Y-36129595D01*
X155599907Y-36009938D01*
X155580962Y-35850994D01*
X155557605Y-35656474D01*
X155530286Y-35430090D01*
X155499450Y-35175552D01*
X155465546Y-34896572D01*
X155429022Y-34596860D01*
X155390325Y-34280128D01*
X155359100Y-34025108D01*
X155319017Y-33697852D01*
X155280729Y-33384829D01*
X155244683Y-33089740D01*
X155211330Y-32816286D01*
X155181121Y-32568167D01*
X155154504Y-32349086D01*
X155131929Y-32162742D01*
X155113846Y-32012838D01*
X155100705Y-31903073D01*
X155092956Y-31837149D01*
X155090944Y-31818553D01*
X155084021Y-31837930D01*
X155064325Y-31902852D01*
X155032819Y-32009957D01*
X154990467Y-32155883D01*
X154938231Y-32337266D01*
X154877074Y-32550745D01*
X154807959Y-32792957D01*
X154731850Y-33060540D01*
X154649708Y-33350131D01*
X154562499Y-33658368D01*
X154471183Y-33981888D01*
X154459510Y-34023300D01*
X153829531Y-36258500D01*
X153684131Y-36266181D01*
X153602571Y-36268859D01*
X153561050Y-36263752D01*
X153549030Y-36247807D01*
X153552670Y-36228081D01*
X153561327Y-36197783D01*
X153582791Y-36121866D01*
X153616135Y-36003620D01*
X153660434Y-35846335D01*
X153714763Y-35653303D01*
X153778197Y-35427811D01*
X153849809Y-35173152D01*
X153928676Y-34892614D01*
X154013870Y-34589489D01*
X154104467Y-34267065D01*
X154199541Y-33928634D01*
X154279965Y-33642300D01*
X154378296Y-33292281D01*
X154473120Y-32954940D01*
X154563492Y-32633634D01*
X154648464Y-32331718D01*
X154727091Y-32052547D01*
X154798426Y-31799477D01*
X154861524Y-31575863D01*
X154915437Y-31385062D01*
X154959221Y-31230428D01*
X154991927Y-31115317D01*
X155012611Y-31043086D01*
X155019858Y-31018456D01*
X155039400Y-30967470D01*
X155066312Y-30944225D01*
X155117421Y-30939797D01*
X155163567Y-30942256D01*
X155280740Y-30949900D01*
X155547566Y-33165949D01*
X155587376Y-33494631D01*
X155625774Y-33807884D01*
X155662299Y-34102175D01*
X155696494Y-34373969D01*
X155727897Y-34619731D01*
X155756048Y-34835926D01*
X155780489Y-35019020D01*
X155800758Y-35165478D01*
X155816398Y-35271766D01*
X155826946Y-35334349D01*
X155831728Y-35350349D01*
X155840486Y-35322782D01*
X155861743Y-35250613D01*
X155894300Y-35138087D01*
X155936959Y-34989449D01*
X155988524Y-34808944D01*
X156047794Y-34600817D01*
X156113573Y-34369313D01*
X156184663Y-34118678D01*
X156259865Y-33853156D01*
X156337981Y-33576993D01*
X156417814Y-33294433D01*
X156498165Y-33009721D01*
X156577836Y-32727104D01*
X156655630Y-32450825D01*
X156730347Y-32185130D01*
X156800791Y-31934264D01*
X156865763Y-31702472D01*
X156924065Y-31494000D01*
X156974500Y-31313091D01*
X157015868Y-31163992D01*
X157046972Y-31050947D01*
X157066615Y-30978202D01*
X157073597Y-30950001D01*
X157073600Y-30949927D01*
X157095957Y-30941489D01*
X157151330Y-30937557D01*
X157222172Y-30937733D01*
G36*
X160720110Y-30937684D02*
X160918824Y-30939063D01*
X161095191Y-30941229D01*
X161243694Y-30944071D01*
X161358811Y-30947482D01*
X161435026Y-30951351D01*
X161466817Y-30955569D01*
X161467414Y-30956250D01*
X161460444Y-30990136D01*
X161443240Y-31054072D01*
X161432875Y-31089600D01*
X161398721Y-31203900D01*
X160565601Y-31216600D01*
X159732480Y-31229300D01*
X159420007Y-32334200D01*
X159355641Y-32562131D01*
X159295704Y-32775028D01*
X159241583Y-32967915D01*
X159194666Y-33135812D01*
X159156343Y-33273743D01*
X159128000Y-33376729D01*
X159111026Y-33439794D01*
X159106566Y-33458150D01*
X159130733Y-33462740D01*
X159199745Y-33466932D01*
X159307649Y-33470590D01*
X159448490Y-33473574D01*
X159616316Y-33475748D01*
X159805172Y-33476975D01*
X159931583Y-33477200D01*
X160757567Y-33477200D01*
X160740664Y-33547050D01*
X160719749Y-33622416D01*
X160702709Y-33674050D01*
X160681657Y-33731200D01*
X159031551Y-33731200D01*
X158981022Y-33902650D01*
X158962512Y-33966660D01*
X158932238Y-34072814D01*
X158892115Y-34214331D01*
X158844059Y-34384431D01*
X158789985Y-34576334D01*
X158731809Y-34783259D01*
X158674229Y-34988500D01*
X158615828Y-35196789D01*
X158561383Y-35390784D01*
X158512500Y-35564777D01*
X158470785Y-35713060D01*
X158437844Y-35829924D01*
X158415282Y-35909661D01*
X158404707Y-35946562D01*
X158404470Y-35947350D01*
X158403409Y-35959544D01*
X158411768Y-35969286D01*
X158434560Y-35976849D01*
X158476795Y-35982507D01*
X158543483Y-35986532D01*
X158639635Y-35989200D01*
X158770262Y-35990783D01*
X158940375Y-35991556D01*
X159154984Y-35991792D01*
X159218188Y-35991800D01*
X159417374Y-35992362D01*
X159599293Y-35993956D01*
X159757991Y-35996446D01*
X159887513Y-35999694D01*
X159981904Y-36003563D01*
X160035208Y-36007916D01*
X160045014Y-36010850D01*
X160038043Y-36044735D01*
X160020835Y-36108670D01*
X160010466Y-36144200D01*
X159976304Y-36258500D01*
X159005744Y-36265153D01*
X158758076Y-36266742D01*
X158556561Y-36267652D01*
X158396553Y-36267699D01*
X158273407Y-36266698D01*
X158182477Y-36264462D01*
X158119120Y-36260809D01*
X158078688Y-36255552D01*
X158056538Y-36248507D01*
X158048023Y-36239488D01*
X158048500Y-36228311D01*
X158048867Y-36227053D01*
X158057489Y-36196898D01*
X158078915Y-36121122D01*
X158112221Y-36003014D01*
X158156483Y-35845861D01*
X158210775Y-35652953D01*
X158274172Y-35427577D01*
X158345751Y-35173022D01*
X158424585Y-34892577D01*
X158509749Y-34589530D01*
X158600320Y-34267169D01*
X158695373Y-33928782D01*
X158775829Y-33642300D01*
X158874140Y-33292311D01*
X158968937Y-32955024D01*
X159059276Y-32633790D01*
X159144211Y-32331963D01*
X159222795Y-32052897D01*
X159294085Y-31799946D01*
X159357134Y-31576461D01*
X159410997Y-31385798D01*
X159454728Y-31231309D01*
X159487383Y-31116347D01*
X159508015Y-31044267D01*
X159515223Y-31019750D01*
X159541339Y-30937200D01*
X160504569Y-30937200D01*
X160720110Y-30937684D01*
X160720110Y-30937684D01*
G37*
X160720110Y-30937684D02*
X160918824Y-30939063D01*
X161095191Y-30941229D01*
X161243694Y-30944071D01*
X161358811Y-30947482D01*
X161435026Y-30951351D01*
X161466817Y-30955569D01*
X161467414Y-30956250D01*
X161460444Y-30990136D01*
X161443240Y-31054072D01*
X161432875Y-31089600D01*
X161398721Y-31203900D01*
X160565601Y-31216600D01*
X159732480Y-31229300D01*
X159420007Y-32334200D01*
X159355641Y-32562131D01*
X159295704Y-32775028D01*
X159241583Y-32967915D01*
X159194666Y-33135812D01*
X159156343Y-33273743D01*
X159128000Y-33376729D01*
X159111026Y-33439794D01*
X159106566Y-33458150D01*
X159130733Y-33462740D01*
X159199745Y-33466932D01*
X159307649Y-33470590D01*
X159448490Y-33473574D01*
X159616316Y-33475748D01*
X159805172Y-33476975D01*
X159931583Y-33477200D01*
X160757567Y-33477200D01*
X160740664Y-33547050D01*
X160719749Y-33622416D01*
X160702709Y-33674050D01*
X160681657Y-33731200D01*
X159031551Y-33731200D01*
X158981022Y-33902650D01*
X158962512Y-33966660D01*
X158932238Y-34072814D01*
X158892115Y-34214331D01*
X158844059Y-34384431D01*
X158789985Y-34576334D01*
X158731809Y-34783259D01*
X158674229Y-34988500D01*
X158615828Y-35196789D01*
X158561383Y-35390784D01*
X158512500Y-35564777D01*
X158470785Y-35713060D01*
X158437844Y-35829924D01*
X158415282Y-35909661D01*
X158404707Y-35946562D01*
X158404470Y-35947350D01*
X158403409Y-35959544D01*
X158411768Y-35969286D01*
X158434560Y-35976849D01*
X158476795Y-35982507D01*
X158543483Y-35986532D01*
X158639635Y-35989200D01*
X158770262Y-35990783D01*
X158940375Y-35991556D01*
X159154984Y-35991792D01*
X159218188Y-35991800D01*
X159417374Y-35992362D01*
X159599293Y-35993956D01*
X159757991Y-35996446D01*
X159887513Y-35999694D01*
X159981904Y-36003563D01*
X160035208Y-36007916D01*
X160045014Y-36010850D01*
X160038043Y-36044735D01*
X160020835Y-36108670D01*
X160010466Y-36144200D01*
X159976304Y-36258500D01*
X159005744Y-36265153D01*
X158758076Y-36266742D01*
X158556561Y-36267652D01*
X158396553Y-36267699D01*
X158273407Y-36266698D01*
X158182477Y-36264462D01*
X158119120Y-36260809D01*
X158078688Y-36255552D01*
X158056538Y-36248507D01*
X158048023Y-36239488D01*
X158048500Y-36228311D01*
X158048867Y-36227053D01*
X158057489Y-36196898D01*
X158078915Y-36121122D01*
X158112221Y-36003014D01*
X158156483Y-35845861D01*
X158210775Y-35652953D01*
X158274172Y-35427577D01*
X158345751Y-35173022D01*
X158424585Y-34892577D01*
X158509749Y-34589530D01*
X158600320Y-34267169D01*
X158695373Y-33928782D01*
X158775829Y-33642300D01*
X158874140Y-33292311D01*
X158968937Y-32955024D01*
X159059276Y-32633790D01*
X159144211Y-32331963D01*
X159222795Y-32052897D01*
X159294085Y-31799946D01*
X159357134Y-31576461D01*
X159410997Y-31385798D01*
X159454728Y-31231309D01*
X159487383Y-31116347D01*
X159508015Y-31044267D01*
X159515223Y-31019750D01*
X159541339Y-30937200D01*
X160504569Y-30937200D01*
X160720110Y-30937684D01*
G36*
X162091403Y-30940365D02*
X162141152Y-30948522D01*
X162152735Y-30956250D01*
X162145868Y-30982826D01*
X162126118Y-31055026D01*
X162094400Y-31169579D01*
X162051630Y-31323220D01*
X161998723Y-31512679D01*
X161936594Y-31734689D01*
X161866158Y-31985981D01*
X161788330Y-32263289D01*
X161704025Y-32563344D01*
X161614158Y-32882877D01*
X161519646Y-33218622D01*
X161446799Y-33477200D01*
X160741726Y-35979100D01*
X162513092Y-35992454D01*
X162495210Y-36074677D01*
X162475581Y-36151909D01*
X162455792Y-36214050D01*
X162434257Y-36271200D01*
X161403217Y-36271200D01*
X161147149Y-36271094D01*
X160937375Y-36270645D01*
X160769390Y-36269656D01*
X160638689Y-36267931D01*
X160540765Y-36265272D01*
X160471112Y-36261483D01*
X160425227Y-36256366D01*
X160398602Y-36249724D01*
X160386732Y-36241362D01*
X160385113Y-36231081D01*
X160386210Y-36226750D01*
X160394875Y-36196682D01*
X160416367Y-36120971D01*
X160449768Y-36002879D01*
X160494158Y-35845669D01*
X160548618Y-35652602D01*
X160612228Y-35426939D01*
X160684070Y-35171944D01*
X160763224Y-34890877D01*
X160848771Y-34587002D01*
X160939792Y-34263578D01*
X161035367Y-33923870D01*
X161125279Y-33604200D01*
X161224187Y-33252536D01*
X161319369Y-32914197D01*
X161409906Y-32592445D01*
X161494877Y-32290541D01*
X161573366Y-32011748D01*
X161644453Y-31759328D01*
X161707220Y-31536542D01*
X161760746Y-31346651D01*
X161804115Y-31192919D01*
X161836407Y-31078607D01*
X161856703Y-31006976D01*
X161863969Y-30981650D01*
X161883392Y-30954746D01*
X161928434Y-30941119D01*
X162011259Y-30937205D01*
X162015611Y-30937200D01*
X162091403Y-30940365D01*
X162091403Y-30940365D01*
G37*
X162091403Y-30940365D02*
X162141152Y-30948522D01*
X162152735Y-30956250D01*
X162145868Y-30982826D01*
X162126118Y-31055026D01*
X162094400Y-31169579D01*
X162051630Y-31323220D01*
X161998723Y-31512679D01*
X161936594Y-31734689D01*
X161866158Y-31985981D01*
X161788330Y-32263289D01*
X161704025Y-32563344D01*
X161614158Y-32882877D01*
X161519646Y-33218622D01*
X161446799Y-33477200D01*
X160741726Y-35979100D01*
X162513092Y-35992454D01*
X162495210Y-36074677D01*
X162475581Y-36151909D01*
X162455792Y-36214050D01*
X162434257Y-36271200D01*
X161403217Y-36271200D01*
X161147149Y-36271094D01*
X160937375Y-36270645D01*
X160769390Y-36269656D01*
X160638689Y-36267931D01*
X160540765Y-36265272D01*
X160471112Y-36261483D01*
X160425227Y-36256366D01*
X160398602Y-36249724D01*
X160386732Y-36241362D01*
X160385113Y-36231081D01*
X160386210Y-36226750D01*
X160394875Y-36196682D01*
X160416367Y-36120971D01*
X160449768Y-36002879D01*
X160494158Y-35845669D01*
X160548618Y-35652602D01*
X160612228Y-35426939D01*
X160684070Y-35171944D01*
X160763224Y-34890877D01*
X160848771Y-34587002D01*
X160939792Y-34263578D01*
X161035367Y-33923870D01*
X161125279Y-33604200D01*
X161224187Y-33252536D01*
X161319369Y-32914197D01*
X161409906Y-32592445D01*
X161494877Y-32290541D01*
X161573366Y-32011748D01*
X161644453Y-31759328D01*
X161707220Y-31536542D01*
X161760746Y-31346651D01*
X161804115Y-31192919D01*
X161836407Y-31078607D01*
X161856703Y-31006976D01*
X161863969Y-30981650D01*
X161883392Y-30954746D01*
X161928434Y-30941119D01*
X162011259Y-30937205D01*
X162015611Y-30937200D01*
X162091403Y-30940365D01*
G36*
X165485725Y-30937809D02*
X165715485Y-30939659D01*
X165896801Y-30942782D01*
X166030841Y-30947211D01*
X166118776Y-30952979D01*
X166161776Y-30960118D01*
X166166800Y-30964052D01*
X166160971Y-31003443D01*
X166146278Y-31071343D01*
X166138384Y-31103752D01*
X166109969Y-31216599D01*
X165275268Y-31216600D01*
X164440567Y-31216600D01*
X164423095Y-31286450D01*
X164412640Y-31325206D01*
X164389900Y-31407417D01*
X164356397Y-31527650D01*
X164313652Y-31680470D01*
X164263185Y-31860446D01*
X164206518Y-32062143D01*
X164145172Y-32280128D01*
X164108464Y-32410400D01*
X163811305Y-33464500D01*
X164633452Y-33471197D01*
X164881939Y-33473829D01*
X165082201Y-33477343D01*
X165236809Y-33481850D01*
X165348333Y-33487458D01*
X165419342Y-33494279D01*
X165452407Y-33502421D01*
X165455600Y-33506350D01*
X165448740Y-33547457D01*
X165431710Y-33614035D01*
X165426179Y-33633003D01*
X165396758Y-33731200D01*
X163736342Y-33731200D01*
X163588162Y-34258250D01*
X163534588Y-34448776D01*
X163472120Y-34670890D01*
X163405626Y-34907283D01*
X163339976Y-35140643D01*
X163280039Y-35353658D01*
X163272007Y-35382200D01*
X163104032Y-35979100D01*
X163924216Y-35985797D01*
X164186649Y-35988747D01*
X164398450Y-35992901D01*
X164559771Y-35998266D01*
X164670766Y-36004848D01*
X164731588Y-36012654D01*
X164744400Y-36018999D01*
X164738575Y-36058161D01*
X164723890Y-36125906D01*
X164715984Y-36158352D01*
X164687569Y-36271200D01*
X163725384Y-36271200D01*
X163467539Y-36270845D01*
X163256660Y-36269700D01*
X163088918Y-36267637D01*
X162960484Y-36264532D01*
X162867528Y-36260260D01*
X162806221Y-36254696D01*
X162772734Y-36247714D01*
X162763200Y-36239748D01*
X162769946Y-36211529D01*
X162789592Y-36137619D01*
X162821246Y-36021221D01*
X162864020Y-35865538D01*
X162917023Y-35673772D01*
X162979363Y-35449126D01*
X163050153Y-35194803D01*
X163128500Y-34914003D01*
X163213516Y-34609931D01*
X163304309Y-34285789D01*
X163399989Y-33944779D01*
X163499667Y-33590103D01*
X163504549Y-33572748D01*
X164245898Y-30937200D01*
X165206349Y-30937200D01*
X165485725Y-30937809D01*
X165485725Y-30937809D01*
G37*
X165485725Y-30937809D02*
X165715485Y-30939659D01*
X165896801Y-30942782D01*
X166030841Y-30947211D01*
X166118776Y-30952979D01*
X166161776Y-30960118D01*
X166166800Y-30964052D01*
X166160971Y-31003443D01*
X166146278Y-31071343D01*
X166138384Y-31103752D01*
X166109969Y-31216599D01*
X165275268Y-31216600D01*
X164440567Y-31216600D01*
X164423095Y-31286450D01*
X164412640Y-31325206D01*
X164389900Y-31407417D01*
X164356397Y-31527650D01*
X164313652Y-31680470D01*
X164263185Y-31860446D01*
X164206518Y-32062143D01*
X164145172Y-32280128D01*
X164108464Y-32410400D01*
X163811305Y-33464500D01*
X164633452Y-33471197D01*
X164881939Y-33473829D01*
X165082201Y-33477343D01*
X165236809Y-33481850D01*
X165348333Y-33487458D01*
X165419342Y-33494279D01*
X165452407Y-33502421D01*
X165455600Y-33506350D01*
X165448740Y-33547457D01*
X165431710Y-33614035D01*
X165426179Y-33633003D01*
X165396758Y-33731200D01*
X163736342Y-33731200D01*
X163588162Y-34258250D01*
X163534588Y-34448776D01*
X163472120Y-34670890D01*
X163405626Y-34907283D01*
X163339976Y-35140643D01*
X163280039Y-35353658D01*
X163272007Y-35382200D01*
X163104032Y-35979100D01*
X163924216Y-35985797D01*
X164186649Y-35988747D01*
X164398450Y-35992901D01*
X164559771Y-35998266D01*
X164670766Y-36004848D01*
X164731588Y-36012654D01*
X164744400Y-36018999D01*
X164738575Y-36058161D01*
X164723890Y-36125906D01*
X164715984Y-36158352D01*
X164687569Y-36271200D01*
X163725384Y-36271200D01*
X163467539Y-36270845D01*
X163256660Y-36269700D01*
X163088918Y-36267637D01*
X162960484Y-36264532D01*
X162867528Y-36260260D01*
X162806221Y-36254696D01*
X162772734Y-36247714D01*
X162763200Y-36239748D01*
X162769946Y-36211529D01*
X162789592Y-36137619D01*
X162821246Y-36021221D01*
X162864020Y-35865538D01*
X162917023Y-35673772D01*
X162979363Y-35449126D01*
X163050153Y-35194803D01*
X163128500Y-34914003D01*
X163213516Y-34609931D01*
X163304309Y-34285789D01*
X163399989Y-33944779D01*
X163499667Y-33590103D01*
X163504549Y-33572748D01*
X164245898Y-30937200D01*
X165206349Y-30937200D01*
X165485725Y-30937809D01*
G36*
X167886024Y-30951181D02*
X167979924Y-30954466D01*
X168050037Y-30963137D01*
X168109868Y-30979519D01*
X168172920Y-31005935D01*
X168227515Y-31032284D01*
X168377256Y-31130567D01*
X168489560Y-31259979D01*
X168564582Y-31421238D01*
X168602479Y-31615060D01*
X168603405Y-31842164D01*
X168567518Y-32103267D01*
X168511467Y-32340550D01*
X168471505Y-32486600D01*
X168335152Y-32486600D01*
X168259679Y-32484106D01*
X168210163Y-32477687D01*
X168198800Y-32471781D01*
X168204586Y-32441783D01*
X168219934Y-32375497D01*
X168241822Y-32285853D01*
X168247730Y-32262231D01*
X168297047Y-32030946D01*
X168318172Y-31837030D01*
X168310607Y-31675269D01*
X168273857Y-31540446D01*
X168207424Y-31427345D01*
X168163532Y-31377921D01*
X168072804Y-31302086D01*
X167973040Y-31252519D01*
X167853031Y-31226100D01*
X167701566Y-31219710D01*
X167607565Y-31223217D01*
X167479240Y-31233945D01*
X167380332Y-31252690D01*
X167289543Y-31284511D01*
X167226565Y-31313730D01*
X167044748Y-31430874D01*
X166879967Y-31592658D01*
X166735726Y-31794754D01*
X166615528Y-32032837D01*
X166587759Y-32102446D01*
X166568745Y-32159136D01*
X166537856Y-32259109D01*
X166496703Y-32396670D01*
X166446897Y-32566124D01*
X166390050Y-32761777D01*
X166327774Y-32977935D01*
X166261680Y-33208903D01*
X166193378Y-33448986D01*
X166124482Y-33692490D01*
X166056602Y-33933721D01*
X165991350Y-34166984D01*
X165930337Y-34386585D01*
X165875174Y-34586829D01*
X165827474Y-34762021D01*
X165788848Y-34906467D01*
X165760906Y-35014473D01*
X165745885Y-35077400D01*
X165726208Y-35194659D01*
X165713222Y-35320826D01*
X165710182Y-35394900D01*
X165725762Y-35582349D01*
X165774415Y-35732540D01*
X165857791Y-35847024D01*
X165977541Y-35927353D01*
X166135315Y-35975078D01*
X166332765Y-35991752D01*
X166345148Y-35991800D01*
X166575009Y-35969751D01*
X166782841Y-35903299D01*
X166969149Y-35791982D01*
X167134440Y-35635341D01*
X167279221Y-35432915D01*
X167403996Y-35184243D01*
X167490171Y-34950400D01*
X167559492Y-34734500D01*
X167701346Y-34726882D01*
X167778459Y-34724630D01*
X167829978Y-34726743D01*
X167843200Y-34730941D01*
X167835824Y-34758553D01*
X167815969Y-34823429D01*
X167787047Y-34914583D01*
X167765933Y-34979859D01*
X167643143Y-35298775D01*
X167497241Y-35572459D01*
X167328231Y-35800909D01*
X167136114Y-35984121D01*
X166920893Y-36122095D01*
X166682571Y-36214827D01*
X166421150Y-36262316D01*
X166255700Y-36269110D01*
X166140353Y-36264368D01*
X166027950Y-36253152D01*
X165941570Y-36237813D01*
X165936944Y-36236605D01*
X165760029Y-36166037D01*
X165618930Y-36059479D01*
X165513787Y-35917059D01*
X165467233Y-35812255D01*
X165443140Y-35706832D01*
X165430241Y-35566975D01*
X165428586Y-35407809D01*
X165438222Y-35244462D01*
X165459199Y-35092061D01*
X165464830Y-35063892D01*
X165478718Y-35006684D01*
X165504954Y-34906411D01*
X165541921Y-34768850D01*
X165587997Y-34599779D01*
X165641563Y-34404974D01*
X165701001Y-34190213D01*
X165764690Y-33961274D01*
X165831011Y-33723932D01*
X165898344Y-33483966D01*
X165965070Y-33247152D01*
X166029570Y-33019268D01*
X166090224Y-32806091D01*
X166145413Y-32613397D01*
X166193516Y-32446964D01*
X166232915Y-32312569D01*
X166261990Y-32215990D01*
X166272761Y-32181800D01*
X166390023Y-31883460D01*
X166535328Y-31621978D01*
X166706813Y-31399536D01*
X166902618Y-31218315D01*
X167120879Y-31080496D01*
X167266213Y-31017963D01*
X167355632Y-30988321D01*
X167437048Y-30968909D01*
X167525899Y-30957611D01*
X167637623Y-30952309D01*
X167754834Y-30950959D01*
X167886024Y-30951181D01*
X167886024Y-30951181D01*
G37*
X167886024Y-30951181D02*
X167979924Y-30954466D01*
X168050037Y-30963137D01*
X168109868Y-30979519D01*
X168172920Y-31005935D01*
X168227515Y-31032284D01*
X168377256Y-31130567D01*
X168489560Y-31259979D01*
X168564582Y-31421238D01*
X168602479Y-31615060D01*
X168603405Y-31842164D01*
X168567518Y-32103267D01*
X168511467Y-32340550D01*
X168471505Y-32486600D01*
X168335152Y-32486600D01*
X168259679Y-32484106D01*
X168210163Y-32477687D01*
X168198800Y-32471781D01*
X168204586Y-32441783D01*
X168219934Y-32375497D01*
X168241822Y-32285853D01*
X168247730Y-32262231D01*
X168297047Y-32030946D01*
X168318172Y-31837030D01*
X168310607Y-31675269D01*
X168273857Y-31540446D01*
X168207424Y-31427345D01*
X168163532Y-31377921D01*
X168072804Y-31302086D01*
X167973040Y-31252519D01*
X167853031Y-31226100D01*
X167701566Y-31219710D01*
X167607565Y-31223217D01*
X167479240Y-31233945D01*
X167380332Y-31252690D01*
X167289543Y-31284511D01*
X167226565Y-31313730D01*
X167044748Y-31430874D01*
X166879967Y-31592658D01*
X166735726Y-31794754D01*
X166615528Y-32032837D01*
X166587759Y-32102446D01*
X166568745Y-32159136D01*
X166537856Y-32259109D01*
X166496703Y-32396670D01*
X166446897Y-32566124D01*
X166390050Y-32761777D01*
X166327774Y-32977935D01*
X166261680Y-33208903D01*
X166193378Y-33448986D01*
X166124482Y-33692490D01*
X166056602Y-33933721D01*
X165991350Y-34166984D01*
X165930337Y-34386585D01*
X165875174Y-34586829D01*
X165827474Y-34762021D01*
X165788848Y-34906467D01*
X165760906Y-35014473D01*
X165745885Y-35077400D01*
X165726208Y-35194659D01*
X165713222Y-35320826D01*
X165710182Y-35394900D01*
X165725762Y-35582349D01*
X165774415Y-35732540D01*
X165857791Y-35847024D01*
X165977541Y-35927353D01*
X166135315Y-35975078D01*
X166332765Y-35991752D01*
X166345148Y-35991800D01*
X166575009Y-35969751D01*
X166782841Y-35903299D01*
X166969149Y-35791982D01*
X167134440Y-35635341D01*
X167279221Y-35432915D01*
X167403996Y-35184243D01*
X167490171Y-34950400D01*
X167559492Y-34734500D01*
X167701346Y-34726882D01*
X167778459Y-34724630D01*
X167829978Y-34726743D01*
X167843200Y-34730941D01*
X167835824Y-34758553D01*
X167815969Y-34823429D01*
X167787047Y-34914583D01*
X167765933Y-34979859D01*
X167643143Y-35298775D01*
X167497241Y-35572459D01*
X167328231Y-35800909D01*
X167136114Y-35984121D01*
X166920893Y-36122095D01*
X166682571Y-36214827D01*
X166421150Y-36262316D01*
X166255700Y-36269110D01*
X166140353Y-36264368D01*
X166027950Y-36253152D01*
X165941570Y-36237813D01*
X165936944Y-36236605D01*
X165760029Y-36166037D01*
X165618930Y-36059479D01*
X165513787Y-35917059D01*
X165467233Y-35812255D01*
X165443140Y-35706832D01*
X165430241Y-35566975D01*
X165428586Y-35407809D01*
X165438222Y-35244462D01*
X165459199Y-35092061D01*
X165464830Y-35063892D01*
X165478718Y-35006684D01*
X165504954Y-34906411D01*
X165541921Y-34768850D01*
X165587997Y-34599779D01*
X165641563Y-34404974D01*
X165701001Y-34190213D01*
X165764690Y-33961274D01*
X165831011Y-33723932D01*
X165898344Y-33483966D01*
X165965070Y-33247152D01*
X166029570Y-33019268D01*
X166090224Y-32806091D01*
X166145413Y-32613397D01*
X166193516Y-32446964D01*
X166232915Y-32312569D01*
X166261990Y-32215990D01*
X166272761Y-32181800D01*
X166390023Y-31883460D01*
X166535328Y-31621978D01*
X166706813Y-31399536D01*
X166902618Y-31218315D01*
X167120879Y-31080496D01*
X167266213Y-31017963D01*
X167355632Y-30988321D01*
X167437048Y-30968909D01*
X167525899Y-30957611D01*
X167637623Y-30952309D01*
X167754834Y-30950959D01*
X167886024Y-30951181D01*
G36*
X170735298Y-30937341D02*
X170981662Y-30937748D01*
X171207605Y-30938394D01*
X171408561Y-30939254D01*
X171579962Y-30940300D01*
X171717244Y-30941507D01*
X171815840Y-30942848D01*
X171871183Y-30944297D01*
X171881800Y-30945289D01*
X171875185Y-30972059D01*
X171858175Y-31032275D01*
X171842844Y-31084555D01*
X171803889Y-31215731D01*
X171165653Y-31222515D01*
X170527417Y-31229300D01*
X169837343Y-33680400D01*
X169740682Y-34023807D01*
X169647701Y-34354287D01*
X169559352Y-34668446D01*
X169476589Y-34962888D01*
X169400363Y-35234221D01*
X169331628Y-35479050D01*
X169271337Y-35693979D01*
X169220441Y-35875616D01*
X169179895Y-36020565D01*
X169150649Y-36125433D01*
X169133658Y-36186825D01*
X169129750Y-36201350D01*
X169115781Y-36241554D01*
X169090504Y-36262379D01*
X169039741Y-36270144D01*
X168973016Y-36271200D01*
X168896707Y-36270152D01*
X168846279Y-36267451D01*
X168834124Y-36264850D01*
X168840905Y-36240051D01*
X168860550Y-36169595D01*
X168892150Y-36056718D01*
X168934794Y-35904659D01*
X168987572Y-35716656D01*
X169049575Y-35495948D01*
X169119892Y-35245774D01*
X169197615Y-34969371D01*
X169281831Y-34669977D01*
X169371633Y-34350832D01*
X169466109Y-34015173D01*
X169542483Y-33743900D01*
X170250517Y-31229300D01*
X169615810Y-31222508D01*
X169417123Y-31220005D01*
X169263923Y-31217026D01*
X169150894Y-31213207D01*
X169072723Y-31208178D01*
X169024096Y-31201574D01*
X168999700Y-31193029D01*
X168994220Y-31182174D01*
X168994945Y-31179647D01*
X169010098Y-31133108D01*
X169030701Y-31061876D01*
X169036572Y-31040388D01*
X169064358Y-30937200D01*
X170473079Y-30937200D01*
X170735298Y-30937341D01*
X170735298Y-30937341D01*
G37*
X170735298Y-30937341D02*
X170981662Y-30937748D01*
X171207605Y-30938394D01*
X171408561Y-30939254D01*
X171579962Y-30940300D01*
X171717244Y-30941507D01*
X171815840Y-30942848D01*
X171871183Y-30944297D01*
X171881800Y-30945289D01*
X171875185Y-30972059D01*
X171858175Y-31032275D01*
X171842844Y-31084555D01*
X171803889Y-31215731D01*
X171165653Y-31222515D01*
X170527417Y-31229300D01*
X169837343Y-33680400D01*
X169740682Y-34023807D01*
X169647701Y-34354287D01*
X169559352Y-34668446D01*
X169476589Y-34962888D01*
X169400363Y-35234221D01*
X169331628Y-35479050D01*
X169271337Y-35693979D01*
X169220441Y-35875616D01*
X169179895Y-36020565D01*
X169150649Y-36125433D01*
X169133658Y-36186825D01*
X169129750Y-36201350D01*
X169115781Y-36241554D01*
X169090504Y-36262379D01*
X169039741Y-36270144D01*
X168973016Y-36271200D01*
X168896707Y-36270152D01*
X168846279Y-36267451D01*
X168834124Y-36264850D01*
X168840905Y-36240051D01*
X168860550Y-36169595D01*
X168892150Y-36056718D01*
X168934794Y-35904659D01*
X168987572Y-35716656D01*
X169049575Y-35495948D01*
X169119892Y-35245774D01*
X169197615Y-34969371D01*
X169281831Y-34669977D01*
X169371633Y-34350832D01*
X169466109Y-34015173D01*
X169542483Y-33743900D01*
X170250517Y-31229300D01*
X169615810Y-31222508D01*
X169417123Y-31220005D01*
X169263923Y-31217026D01*
X169150894Y-31213207D01*
X169072723Y-31208178D01*
X169024096Y-31201574D01*
X168999700Y-31193029D01*
X168994220Y-31182174D01*
X168994945Y-31179647D01*
X169010098Y-31133108D01*
X169030701Y-31061876D01*
X169036572Y-31040388D01*
X169064358Y-30937200D01*
X170473079Y-30937200D01*
X170735298Y-30937341D01*
G36*
X172760746Y-30941094D02*
X172940404Y-30943131D01*
X172942250Y-30943157D01*
X173154980Y-30946639D01*
X173323461Y-30950653D01*
X173454240Y-30955642D01*
X173553866Y-30962050D01*
X173628891Y-30970322D01*
X173685861Y-30980901D01*
X173731328Y-30994230D01*
X173739388Y-30997179D01*
X173896421Y-31081344D01*
X174026095Y-31201331D01*
X174118141Y-31347620D01*
X174118687Y-31348845D01*
X174159285Y-31486070D01*
X174178065Y-31658369D01*
X174175143Y-31854993D01*
X174150640Y-32065197D01*
X174108549Y-32263606D01*
X174001690Y-32607695D01*
X173872653Y-32906103D01*
X173721417Y-33158861D01*
X173547964Y-33366002D01*
X173352273Y-33527558D01*
X173278800Y-33573180D01*
X173213100Y-33610865D01*
X173168772Y-33636401D01*
X173158101Y-33642635D01*
X173170610Y-33661431D01*
X173209577Y-33706277D01*
X173256905Y-33757220D01*
X173347273Y-33863092D01*
X173408691Y-33966075D01*
X173445839Y-34079773D01*
X173463398Y-34217793D01*
X173466402Y-34366200D01*
X173465146Y-34442712D01*
X173461914Y-34511347D01*
X173455236Y-34578973D01*
X173443642Y-34652456D01*
X173425664Y-34738663D01*
X173399832Y-34844460D01*
X173364679Y-34976714D01*
X173318733Y-35142293D01*
X173260527Y-35348062D01*
X173243600Y-35407600D01*
X173189094Y-35599109D01*
X173138636Y-35776198D01*
X173094013Y-35932603D01*
X173057013Y-36062064D01*
X173029427Y-36158319D01*
X173013042Y-36215106D01*
X173009606Y-36226750D01*
X172990204Y-36253652D01*
X172945186Y-36267278D01*
X172862389Y-36271194D01*
X172857988Y-36271200D01*
X172781997Y-36269237D01*
X172731879Y-36264182D01*
X172720000Y-36259410D01*
X172726630Y-36232967D01*
X172745419Y-36163599D01*
X172774714Y-36057266D01*
X172812863Y-35919929D01*
X172858211Y-35757548D01*
X172909106Y-35576086D01*
X172936062Y-35480260D01*
X172990902Y-35283440D01*
X173042205Y-35095430D01*
X173088021Y-34923680D01*
X173126397Y-34775643D01*
X173155383Y-34658769D01*
X173173028Y-34580509D01*
X173176296Y-34562799D01*
X173187442Y-34367765D01*
X173154783Y-34196853D01*
X173078995Y-34051544D01*
X172960754Y-33933317D01*
X172860527Y-33871218D01*
X172807350Y-33844659D01*
X172760733Y-33824954D01*
X172711859Y-33810920D01*
X172651913Y-33801377D01*
X172572080Y-33795143D01*
X172463545Y-33791038D01*
X172317491Y-33787881D01*
X172226511Y-33786268D01*
X171742100Y-33777837D01*
X171438894Y-34865768D01*
X171373988Y-35098415D01*
X171311681Y-35321286D01*
X171253637Y-35528465D01*
X171201518Y-35714036D01*
X171156987Y-35872083D01*
X171121708Y-35996689D01*
X171097344Y-36081940D01*
X171088444Y-36112450D01*
X171041199Y-36271200D01*
X170915399Y-36271200D01*
X170835350Y-36266860D01*
X170796712Y-36252109D01*
X170789600Y-36233994D01*
X170796351Y-36204973D01*
X170816010Y-36130285D01*
X170847682Y-36013154D01*
X170890473Y-35856801D01*
X170943488Y-35664451D01*
X171005833Y-35439326D01*
X171076615Y-35184648D01*
X171154938Y-34903641D01*
X171239909Y-34599527D01*
X171330634Y-34275529D01*
X171426218Y-33934870D01*
X171525767Y-33580773D01*
X171526200Y-33579236D01*
X171551180Y-33490432D01*
X171831000Y-33490432D01*
X171855027Y-33494419D01*
X171921618Y-33497858D01*
X172022539Y-33500517D01*
X172149555Y-33502165D01*
X172264135Y-33502600D01*
X172478944Y-33500061D01*
X172650360Y-33492130D01*
X172785556Y-33478333D01*
X172874874Y-33462205D01*
X173077629Y-33393791D01*
X173258404Y-33284987D01*
X173418355Y-33134344D01*
X173558637Y-32940411D01*
X173680406Y-32701739D01*
X173784817Y-32416876D01*
X173828594Y-32265232D01*
X173882172Y-32014396D01*
X173899289Y-31798826D01*
X173879926Y-31618393D01*
X173824065Y-31472972D01*
X173731688Y-31362434D01*
X173691048Y-31332175D01*
X173623999Y-31293776D01*
X173549743Y-31264682D01*
X173460338Y-31243712D01*
X173347837Y-31229682D01*
X173204298Y-31221410D01*
X173021775Y-31217715D01*
X172918561Y-31217220D01*
X172756398Y-31217410D01*
X172637949Y-31218941D01*
X172556133Y-31222485D01*
X172503870Y-31228712D01*
X172474079Y-31238292D01*
X172459678Y-31251897D01*
X172455840Y-31261050D01*
X172442926Y-31305262D01*
X172418746Y-31389921D01*
X172384966Y-31509079D01*
X172343254Y-31656786D01*
X172295278Y-31827091D01*
X172242704Y-32014046D01*
X172187202Y-32211700D01*
X172130438Y-32414104D01*
X172074079Y-32615309D01*
X172019794Y-32809365D01*
X171969249Y-32990322D01*
X171924113Y-33152231D01*
X171886053Y-33289142D01*
X171856736Y-33395105D01*
X171837829Y-33464172D01*
X171831001Y-33490391D01*
X171831000Y-33490432D01*
X171551180Y-33490432D01*
X171625674Y-33225617D01*
X171721196Y-32885799D01*
X171811873Y-32562969D01*
X171896813Y-32260313D01*
X171975125Y-31981016D01*
X172045916Y-31728265D01*
X172108295Y-31505245D01*
X172161370Y-31315143D01*
X172204250Y-31161145D01*
X172236042Y-31046436D01*
X172255856Y-30974204D01*
X172262798Y-30947633D01*
X172262800Y-30947598D01*
X172287099Y-30944216D01*
X172355617Y-30941831D01*
X172461780Y-30940487D01*
X172599014Y-30940227D01*
X172760746Y-30941094D01*
X172760746Y-30941094D01*
G37*
X172760746Y-30941094D02*
X172940404Y-30943131D01*
X172942250Y-30943157D01*
X173154980Y-30946639D01*
X173323461Y-30950653D01*
X173454240Y-30955642D01*
X173553866Y-30962050D01*
X173628891Y-30970322D01*
X173685861Y-30980901D01*
X173731328Y-30994230D01*
X173739388Y-30997179D01*
X173896421Y-31081344D01*
X174026095Y-31201331D01*
X174118141Y-31347620D01*
X174118687Y-31348845D01*
X174159285Y-31486070D01*
X174178065Y-31658369D01*
X174175143Y-31854993D01*
X174150640Y-32065197D01*
X174108549Y-32263606D01*
X174001690Y-32607695D01*
X173872653Y-32906103D01*
X173721417Y-33158861D01*
X173547964Y-33366002D01*
X173352273Y-33527558D01*
X173278800Y-33573180D01*
X173213100Y-33610865D01*
X173168772Y-33636401D01*
X173158101Y-33642635D01*
X173170610Y-33661431D01*
X173209577Y-33706277D01*
X173256905Y-33757220D01*
X173347273Y-33863092D01*
X173408691Y-33966075D01*
X173445839Y-34079773D01*
X173463398Y-34217793D01*
X173466402Y-34366200D01*
X173465146Y-34442712D01*
X173461914Y-34511347D01*
X173455236Y-34578973D01*
X173443642Y-34652456D01*
X173425664Y-34738663D01*
X173399832Y-34844460D01*
X173364679Y-34976714D01*
X173318733Y-35142293D01*
X173260527Y-35348062D01*
X173243600Y-35407600D01*
X173189094Y-35599109D01*
X173138636Y-35776198D01*
X173094013Y-35932603D01*
X173057013Y-36062064D01*
X173029427Y-36158319D01*
X173013042Y-36215106D01*
X173009606Y-36226750D01*
X172990204Y-36253652D01*
X172945186Y-36267278D01*
X172862389Y-36271194D01*
X172857988Y-36271200D01*
X172781997Y-36269237D01*
X172731879Y-36264182D01*
X172720000Y-36259410D01*
X172726630Y-36232967D01*
X172745419Y-36163599D01*
X172774714Y-36057266D01*
X172812863Y-35919929D01*
X172858211Y-35757548D01*
X172909106Y-35576086D01*
X172936062Y-35480260D01*
X172990902Y-35283440D01*
X173042205Y-35095430D01*
X173088021Y-34923680D01*
X173126397Y-34775643D01*
X173155383Y-34658769D01*
X173173028Y-34580509D01*
X173176296Y-34562799D01*
X173187442Y-34367765D01*
X173154783Y-34196853D01*
X173078995Y-34051544D01*
X172960754Y-33933317D01*
X172860527Y-33871218D01*
X172807350Y-33844659D01*
X172760733Y-33824954D01*
X172711859Y-33810920D01*
X172651913Y-33801377D01*
X172572080Y-33795143D01*
X172463545Y-33791038D01*
X172317491Y-33787881D01*
X172226511Y-33786268D01*
X171742100Y-33777837D01*
X171438894Y-34865768D01*
X171373988Y-35098415D01*
X171311681Y-35321286D01*
X171253637Y-35528465D01*
X171201518Y-35714036D01*
X171156987Y-35872083D01*
X171121708Y-35996689D01*
X171097344Y-36081940D01*
X171088444Y-36112450D01*
X171041199Y-36271200D01*
X170915399Y-36271200D01*
X170835350Y-36266860D01*
X170796712Y-36252109D01*
X170789600Y-36233994D01*
X170796351Y-36204973D01*
X170816010Y-36130285D01*
X170847682Y-36013154D01*
X170890473Y-35856801D01*
X170943488Y-35664451D01*
X171005833Y-35439326D01*
X171076615Y-35184648D01*
X171154938Y-34903641D01*
X171239909Y-34599527D01*
X171330634Y-34275529D01*
X171426218Y-33934870D01*
X171525767Y-33580773D01*
X171526200Y-33579236D01*
X171551180Y-33490432D01*
X171831000Y-33490432D01*
X171855027Y-33494419D01*
X171921618Y-33497858D01*
X172022539Y-33500517D01*
X172149555Y-33502165D01*
X172264135Y-33502600D01*
X172478944Y-33500061D01*
X172650360Y-33492130D01*
X172785556Y-33478333D01*
X172874874Y-33462205D01*
X173077629Y-33393791D01*
X173258404Y-33284987D01*
X173418355Y-33134344D01*
X173558637Y-32940411D01*
X173680406Y-32701739D01*
X173784817Y-32416876D01*
X173828594Y-32265232D01*
X173882172Y-32014396D01*
X173899289Y-31798826D01*
X173879926Y-31618393D01*
X173824065Y-31472972D01*
X173731688Y-31362434D01*
X173691048Y-31332175D01*
X173623999Y-31293776D01*
X173549743Y-31264682D01*
X173460338Y-31243712D01*
X173347837Y-31229682D01*
X173204298Y-31221410D01*
X173021775Y-31217715D01*
X172918561Y-31217220D01*
X172756398Y-31217410D01*
X172637949Y-31218941D01*
X172556133Y-31222485D01*
X172503870Y-31228712D01*
X172474079Y-31238292D01*
X172459678Y-31251897D01*
X172455840Y-31261050D01*
X172442926Y-31305262D01*
X172418746Y-31389921D01*
X172384966Y-31509079D01*
X172343254Y-31656786D01*
X172295278Y-31827091D01*
X172242704Y-32014046D01*
X172187202Y-32211700D01*
X172130438Y-32414104D01*
X172074079Y-32615309D01*
X172019794Y-32809365D01*
X171969249Y-32990322D01*
X171924113Y-33152231D01*
X171886053Y-33289142D01*
X171856736Y-33395105D01*
X171837829Y-33464172D01*
X171831001Y-33490391D01*
X171831000Y-33490432D01*
X171551180Y-33490432D01*
X171625674Y-33225617D01*
X171721196Y-32885799D01*
X171811873Y-32562969D01*
X171896813Y-32260313D01*
X171975125Y-31981016D01*
X172045916Y-31728265D01*
X172108295Y-31505245D01*
X172161370Y-31315143D01*
X172204250Y-31161145D01*
X172236042Y-31046436D01*
X172255856Y-30974204D01*
X172262798Y-30947633D01*
X172262800Y-30947598D01*
X172287099Y-30944216D01*
X172355617Y-30941831D01*
X172461780Y-30940487D01*
X172599014Y-30940227D01*
X172760746Y-30941094D01*
G36*
X175352144Y-30951223D02*
X175361600Y-30970443D01*
X175354847Y-30999320D01*
X175335191Y-31073837D01*
X175303533Y-31190747D01*
X175260775Y-31346801D01*
X175207818Y-31538752D01*
X175145564Y-31763351D01*
X175074916Y-32017352D01*
X174996774Y-32297505D01*
X174912041Y-32600563D01*
X174821619Y-32923279D01*
X174726408Y-33262404D01*
X174636622Y-33581620D01*
X174537615Y-33933374D01*
X174442329Y-34272014D01*
X174351688Y-34594255D01*
X174266615Y-34896815D01*
X174188031Y-35176408D01*
X174116859Y-35429750D01*
X174054021Y-35653557D01*
X174000441Y-35844544D01*
X173957039Y-35999427D01*
X173924740Y-36114922D01*
X173904464Y-36187745D01*
X173897269Y-36214050D01*
X173883032Y-36247216D01*
X173852785Y-36264381D01*
X173792880Y-36270605D01*
X173743192Y-36271200D01*
X173663761Y-36269760D01*
X173624130Y-36262079D01*
X173613310Y-36243117D01*
X173618645Y-36214050D01*
X173627469Y-36182261D01*
X173649148Y-36104841D01*
X173682765Y-35985055D01*
X173727400Y-35826168D01*
X173782135Y-35631446D01*
X173846052Y-35404153D01*
X173918233Y-35147556D01*
X173997758Y-34864919D01*
X174083711Y-34559508D01*
X174175171Y-34234589D01*
X174271221Y-33893426D01*
X174366968Y-33553400D01*
X175100138Y-30949900D01*
X175230869Y-30942222D01*
X175311779Y-30941071D01*
X175352144Y-30951223D01*
X175352144Y-30951223D01*
G37*
X175352144Y-30951223D02*
X175361600Y-30970443D01*
X175354847Y-30999320D01*
X175335191Y-31073837D01*
X175303533Y-31190747D01*
X175260775Y-31346801D01*
X175207818Y-31538752D01*
X175145564Y-31763351D01*
X175074916Y-32017352D01*
X174996774Y-32297505D01*
X174912041Y-32600563D01*
X174821619Y-32923279D01*
X174726408Y-33262404D01*
X174636622Y-33581620D01*
X174537615Y-33933374D01*
X174442329Y-34272014D01*
X174351688Y-34594255D01*
X174266615Y-34896815D01*
X174188031Y-35176408D01*
X174116859Y-35429750D01*
X174054021Y-35653557D01*
X174000441Y-35844544D01*
X173957039Y-35999427D01*
X173924740Y-36114922D01*
X173904464Y-36187745D01*
X173897269Y-36214050D01*
X173883032Y-36247216D01*
X173852785Y-36264381D01*
X173792880Y-36270605D01*
X173743192Y-36271200D01*
X173663761Y-36269760D01*
X173624130Y-36262079D01*
X173613310Y-36243117D01*
X173618645Y-36214050D01*
X173627469Y-36182261D01*
X173649148Y-36104841D01*
X173682765Y-35985055D01*
X173727400Y-35826168D01*
X173782135Y-35631446D01*
X173846052Y-35404153D01*
X173918233Y-35147556D01*
X173997758Y-34864919D01*
X174083711Y-34559508D01*
X174175171Y-34234589D01*
X174271221Y-33893426D01*
X174366968Y-33553400D01*
X175100138Y-30949900D01*
X175230869Y-30942222D01*
X175311779Y-30941071D01*
X175352144Y-30951223D01*
G36*
X177088075Y-30944868D02*
X177307319Y-30978299D01*
X177487128Y-31043430D01*
X177628053Y-31140626D01*
X177730644Y-31270251D01*
X177789339Y-31410355D01*
X177811425Y-31531405D01*
X177820482Y-31686671D01*
X177817075Y-31861421D01*
X177801770Y-32040924D01*
X177775133Y-32210448D01*
X177755326Y-32296100D01*
X177708072Y-32473900D01*
X177561402Y-32481581D01*
X177479351Y-32484258D01*
X177437339Y-32479220D01*
X177424819Y-32463449D01*
X177428227Y-32443481D01*
X177477407Y-32263585D01*
X177509007Y-32111954D01*
X177526069Y-31970426D01*
X177531602Y-31826200D01*
X177530823Y-31706853D01*
X177524719Y-31623066D01*
X177510636Y-31559668D01*
X177485922Y-31501489D01*
X177469480Y-31470919D01*
X177389841Y-31364178D01*
X177284984Y-31289348D01*
X177147946Y-31242928D01*
X176973219Y-31221494D01*
X176735234Y-31231411D01*
X176518880Y-31287285D01*
X176324151Y-31389119D01*
X176151041Y-31536918D01*
X175999545Y-31730687D01*
X175869654Y-31970429D01*
X175834210Y-32053013D01*
X175813635Y-32111544D01*
X175781354Y-32213530D01*
X175738933Y-32353393D01*
X175687940Y-32525553D01*
X175629942Y-32724433D01*
X175566506Y-32944452D01*
X175499200Y-33180031D01*
X175429592Y-33425592D01*
X175359248Y-33675555D01*
X175289736Y-33924342D01*
X175222623Y-34166372D01*
X175159477Y-34396068D01*
X175101866Y-34607849D01*
X175051355Y-34796138D01*
X175009514Y-34955354D01*
X174977909Y-35079919D01*
X174958107Y-35164254D01*
X174953263Y-35188761D01*
X174932752Y-35403416D01*
X174950412Y-35584897D01*
X175006440Y-35733776D01*
X175101038Y-35850628D01*
X175209200Y-35923811D01*
X175277191Y-35956765D01*
X175335219Y-35977159D01*
X175398340Y-35987394D01*
X175481612Y-35989872D01*
X175600091Y-35986995D01*
X175604370Y-35986850D01*
X175729470Y-35980890D01*
X175821013Y-35970554D01*
X175896235Y-35952127D01*
X175972374Y-35921893D01*
X176027500Y-35895639D01*
X176208824Y-35778716D01*
X176372835Y-35616279D01*
X176517423Y-35411288D01*
X176640476Y-35166701D01*
X176733841Y-34905950D01*
X176788947Y-34721800D01*
X176926173Y-34721800D01*
X177001908Y-34725664D01*
X177051747Y-34735616D01*
X177063400Y-34744909D01*
X177053856Y-34796067D01*
X177028051Y-34882327D01*
X176990229Y-34992309D01*
X176944630Y-35114636D01*
X176895497Y-35237929D01*
X176847071Y-35350810D01*
X176803594Y-35441900D01*
X176803476Y-35442127D01*
X176709911Y-35594712D01*
X176590018Y-35748743D01*
X176454610Y-35892996D01*
X176314502Y-36016250D01*
X176180507Y-36107282D01*
X176144553Y-36125948D01*
X175926910Y-36207256D01*
X175691917Y-36255581D01*
X175454714Y-36269322D01*
X175230440Y-36246875D01*
X175158400Y-36230335D01*
X174984656Y-36162338D01*
X174848440Y-36060624D01*
X174747319Y-35922841D01*
X174686757Y-35774333D01*
X174662344Y-35648727D01*
X174651970Y-35492211D01*
X174655891Y-35322767D01*
X174674364Y-35158382D01*
X174677686Y-35139214D01*
X174691784Y-35075892D01*
X174718574Y-34969444D01*
X174756461Y-34825494D01*
X174803853Y-34649667D01*
X174859155Y-34447587D01*
X174920773Y-34224877D01*
X174987115Y-33987163D01*
X175056585Y-33740068D01*
X175127591Y-33489217D01*
X175198539Y-33240234D01*
X175267834Y-32998742D01*
X175333883Y-32770367D01*
X175395093Y-32560732D01*
X175449869Y-32375462D01*
X175496618Y-32220181D01*
X175533746Y-32100512D01*
X175559660Y-32022081D01*
X175565560Y-32005995D01*
X175693920Y-31731559D01*
X175851516Y-31494899D01*
X176035792Y-31297797D01*
X176244187Y-31142036D01*
X176474145Y-31029400D01*
X176723106Y-30961671D01*
X176988513Y-30940633D01*
X177088075Y-30944868D01*
X177088075Y-30944868D01*
G37*
X177088075Y-30944868D02*
X177307319Y-30978299D01*
X177487128Y-31043430D01*
X177628053Y-31140626D01*
X177730644Y-31270251D01*
X177789339Y-31410355D01*
X177811425Y-31531405D01*
X177820482Y-31686671D01*
X177817075Y-31861421D01*
X177801770Y-32040924D01*
X177775133Y-32210448D01*
X177755326Y-32296100D01*
X177708072Y-32473900D01*
X177561402Y-32481581D01*
X177479351Y-32484258D01*
X177437339Y-32479220D01*
X177424819Y-32463449D01*
X177428227Y-32443481D01*
X177477407Y-32263585D01*
X177509007Y-32111954D01*
X177526069Y-31970426D01*
X177531602Y-31826200D01*
X177530823Y-31706853D01*
X177524719Y-31623066D01*
X177510636Y-31559668D01*
X177485922Y-31501489D01*
X177469480Y-31470919D01*
X177389841Y-31364178D01*
X177284984Y-31289348D01*
X177147946Y-31242928D01*
X176973219Y-31221494D01*
X176735234Y-31231411D01*
X176518880Y-31287285D01*
X176324151Y-31389119D01*
X176151041Y-31536918D01*
X175999545Y-31730687D01*
X175869654Y-31970429D01*
X175834210Y-32053013D01*
X175813635Y-32111544D01*
X175781354Y-32213530D01*
X175738933Y-32353393D01*
X175687940Y-32525553D01*
X175629942Y-32724433D01*
X175566506Y-32944452D01*
X175499200Y-33180031D01*
X175429592Y-33425592D01*
X175359248Y-33675555D01*
X175289736Y-33924342D01*
X175222623Y-34166372D01*
X175159477Y-34396068D01*
X175101866Y-34607849D01*
X175051355Y-34796138D01*
X175009514Y-34955354D01*
X174977909Y-35079919D01*
X174958107Y-35164254D01*
X174953263Y-35188761D01*
X174932752Y-35403416D01*
X174950412Y-35584897D01*
X175006440Y-35733776D01*
X175101038Y-35850628D01*
X175209200Y-35923811D01*
X175277191Y-35956765D01*
X175335219Y-35977159D01*
X175398340Y-35987394D01*
X175481612Y-35989872D01*
X175600091Y-35986995D01*
X175604370Y-35986850D01*
X175729470Y-35980890D01*
X175821013Y-35970554D01*
X175896235Y-35952127D01*
X175972374Y-35921893D01*
X176027500Y-35895639D01*
X176208824Y-35778716D01*
X176372835Y-35616279D01*
X176517423Y-35411288D01*
X176640476Y-35166701D01*
X176733841Y-34905950D01*
X176788947Y-34721800D01*
X176926173Y-34721800D01*
X177001908Y-34725664D01*
X177051747Y-34735616D01*
X177063400Y-34744909D01*
X177053856Y-34796067D01*
X177028051Y-34882327D01*
X176990229Y-34992309D01*
X176944630Y-35114636D01*
X176895497Y-35237929D01*
X176847071Y-35350810D01*
X176803594Y-35441900D01*
X176803476Y-35442127D01*
X176709911Y-35594712D01*
X176590018Y-35748743D01*
X176454610Y-35892996D01*
X176314502Y-36016250D01*
X176180507Y-36107282D01*
X176144553Y-36125948D01*
X175926910Y-36207256D01*
X175691917Y-36255581D01*
X175454714Y-36269322D01*
X175230440Y-36246875D01*
X175158400Y-36230335D01*
X174984656Y-36162338D01*
X174848440Y-36060624D01*
X174747319Y-35922841D01*
X174686757Y-35774333D01*
X174662344Y-35648727D01*
X174651970Y-35492211D01*
X174655891Y-35322767D01*
X174674364Y-35158382D01*
X174677686Y-35139214D01*
X174691784Y-35075892D01*
X174718574Y-34969444D01*
X174756461Y-34825494D01*
X174803853Y-34649667D01*
X174859155Y-34447587D01*
X174920773Y-34224877D01*
X174987115Y-33987163D01*
X175056585Y-33740068D01*
X175127591Y-33489217D01*
X175198539Y-33240234D01*
X175267834Y-32998742D01*
X175333883Y-32770367D01*
X175395093Y-32560732D01*
X175449869Y-32375462D01*
X175496618Y-32220181D01*
X175533746Y-32100512D01*
X175559660Y-32022081D01*
X175565560Y-32005995D01*
X175693920Y-31731559D01*
X175851516Y-31494899D01*
X176035792Y-31297797D01*
X176244187Y-31142036D01*
X176474145Y-31029400D01*
X176723106Y-30961671D01*
X176988513Y-30940633D01*
X177088075Y-30944868D01*
D14*
X178585905Y-53030381D02*
X178585905Y-52030381D01*
X179157334Y-53030381D02*
X178728762Y-52458952D01*
X179157334Y-52030381D02*
X178585905Y-52601810D01*
X180109715Y-53030381D02*
X179538286Y-53030381D01*
X179824000Y-53030381D02*
X179824000Y-52030381D01*
X179728762Y-52173238D01*
X179633524Y-52268476D01*
X179538286Y-52316095D01*
X147597905Y-56840381D02*
X147597905Y-55840381D01*
X147836000Y-55840381D01*
X147978858Y-55888000D01*
X148074096Y-55983238D01*
X148121715Y-56078476D01*
X148169334Y-56268952D01*
X148169334Y-56411810D01*
X148121715Y-56602286D01*
X148074096Y-56697524D01*
X147978858Y-56792762D01*
X147836000Y-56840381D01*
X147597905Y-56840381D01*
X149121715Y-56840381D02*
X148550286Y-56840381D01*
X148836000Y-56840381D02*
X148836000Y-55840381D01*
X148740762Y-55983238D01*
X148645524Y-56078476D01*
X148550286Y-56126095D01*
X115363667Y-55681571D02*
X115030333Y-55681571D01*
X115030333Y-56205381D02*
X115030333Y-55205381D01*
X115506524Y-55205381D01*
X116411286Y-56205381D02*
X115839857Y-56205381D01*
X116125571Y-56205381D02*
X116125571Y-55205381D01*
X116030333Y-55348238D01*
X115935095Y-55443476D01*
X115839857Y-55491095D01*
X115236667Y-38790571D02*
X114903333Y-38790571D01*
X114903333Y-39314381D02*
X114903333Y-38314381D01*
X115379524Y-38314381D01*
X115712857Y-38409619D02*
X115760476Y-38362000D01*
X115855714Y-38314381D01*
X116093810Y-38314381D01*
X116189048Y-38362000D01*
X116236667Y-38409619D01*
X116284286Y-38504857D01*
X116284286Y-38600095D01*
X116236667Y-38742952D01*
X115665238Y-39314381D01*
X116284286Y-39314381D01*
X108124667Y-70064381D02*
X108124667Y-70778667D01*
X108077047Y-70921524D01*
X107981809Y-71016762D01*
X107838952Y-71064381D01*
X107743714Y-71064381D01*
X109124667Y-71064381D02*
X108553238Y-71064381D01*
X108838952Y-71064381D02*
X108838952Y-70064381D01*
X108743714Y-70207238D01*
X108648476Y-70302476D01*
X108553238Y-70350095D01*
X144192667Y-75398381D02*
X144192667Y-76112667D01*
X144145047Y-76255524D01*
X144049809Y-76350762D01*
X143906952Y-76398381D01*
X143811714Y-76398381D01*
X144621238Y-75493619D02*
X144668857Y-75446000D01*
X144764095Y-75398381D01*
X145002191Y-75398381D01*
X145097429Y-75446000D01*
X145145048Y-75493619D01*
X145192667Y-75588857D01*
X145192667Y-75684095D01*
X145145048Y-75826952D01*
X144573619Y-76398381D01*
X145192667Y-76398381D01*
X179284334Y-38806381D02*
X178951000Y-38330190D01*
X178712905Y-38806381D02*
X178712905Y-37806381D01*
X179093858Y-37806381D01*
X179189096Y-37854000D01*
X179236715Y-37901619D01*
X179284334Y-37996857D01*
X179284334Y-38139714D01*
X179236715Y-38234952D01*
X179189096Y-38282571D01*
X179093858Y-38330190D01*
X178712905Y-38330190D01*
X179665286Y-37901619D02*
X179712905Y-37854000D01*
X179808143Y-37806381D01*
X180046239Y-37806381D01*
X180141477Y-37854000D01*
X180189096Y-37901619D01*
X180236715Y-37996857D01*
X180236715Y-38092095D01*
X180189096Y-38234952D01*
X179617667Y-38806381D01*
X180236715Y-38806381D01*
X179665334Y-30932381D02*
X179332000Y-30456190D01*
X179093905Y-30932381D02*
X179093905Y-29932381D01*
X179474858Y-29932381D01*
X179570096Y-29980000D01*
X179617715Y-30027619D01*
X179665334Y-30122857D01*
X179665334Y-30265714D01*
X179617715Y-30360952D01*
X179570096Y-30408571D01*
X179474858Y-30456190D01*
X179093905Y-30456190D01*
X179998667Y-29932381D02*
X180617715Y-29932381D01*
X180284381Y-30313333D01*
X180427239Y-30313333D01*
X180522477Y-30360952D01*
X180570096Y-30408571D01*
X180617715Y-30503810D01*
X180617715Y-30741905D01*
X180570096Y-30837143D01*
X180522477Y-30884762D01*
X180427239Y-30932381D01*
X180141524Y-30932381D01*
X180046286Y-30884762D01*
X179998667Y-30837143D01*
X107616667Y-35774381D02*
X107616667Y-36488667D01*
X107569047Y-36631524D01*
X107473809Y-36726762D01*
X107330952Y-36774381D01*
X107235714Y-36774381D01*
X108521429Y-36107714D02*
X108521429Y-36774381D01*
X108283333Y-35726762D02*
X108045238Y-36441048D01*
X108664286Y-36441048D01*
X107616667Y-47204381D02*
X107616667Y-47918667D01*
X107569047Y-48061524D01*
X107473809Y-48156762D01*
X107330952Y-48204381D01*
X107235714Y-48204381D01*
X108569048Y-47204381D02*
X108092857Y-47204381D01*
X108045238Y-47680571D01*
X108092857Y-47632952D01*
X108188095Y-47585333D01*
X108426191Y-47585333D01*
X108521429Y-47632952D01*
X108569048Y-47680571D01*
X108616667Y-47775810D01*
X108616667Y-48013905D01*
X108569048Y-48109143D01*
X108521429Y-48156762D01*
X108426191Y-48204381D01*
X108188095Y-48204381D01*
X108092857Y-48156762D01*
X108045238Y-48109143D01*
X107616667Y-59142381D02*
X107616667Y-59856667D01*
X107569047Y-59999524D01*
X107473809Y-60094762D01*
X107330952Y-60142381D01*
X107235714Y-60142381D01*
X108521429Y-59142381D02*
X108330952Y-59142381D01*
X108235714Y-59190000D01*
X108188095Y-59237619D01*
X108092857Y-59380476D01*
X108045238Y-59570952D01*
X108045238Y-59951905D01*
X108092857Y-60047143D01*
X108140476Y-60094762D01*
X108235714Y-60142381D01*
X108426191Y-60142381D01*
X108521429Y-60094762D01*
X108569048Y-60047143D01*
X108616667Y-59951905D01*
X108616667Y-59713810D01*
X108569048Y-59618571D01*
X108521429Y-59570952D01*
X108426191Y-59523333D01*
X108235714Y-59523333D01*
X108140476Y-59570952D01*
X108092857Y-59618571D01*
X108045238Y-59713810D01*
X118070334Y-71191381D02*
X117737000Y-70715190D01*
X117498905Y-71191381D02*
X117498905Y-70191381D01*
X117879858Y-70191381D01*
X117975096Y-70239000D01*
X118022715Y-70286619D01*
X118070334Y-70381857D01*
X118070334Y-70524714D01*
X118022715Y-70619952D01*
X117975096Y-70667571D01*
X117879858Y-70715190D01*
X117498905Y-70715190D01*
X119022715Y-71191381D02*
X118451286Y-71191381D01*
X118737000Y-71191381D02*
X118737000Y-70191381D01*
X118641762Y-70334238D01*
X118546524Y-70429476D01*
X118451286Y-70477095D01*
X182038667Y-29932381D02*
X182038667Y-30646667D01*
X181991047Y-30789524D01*
X181895809Y-30884762D01*
X181752952Y-30932381D01*
X181657714Y-30932381D01*
X182419619Y-29932381D02*
X183038667Y-29932381D01*
X182705333Y-30313333D01*
X182848191Y-30313333D01*
X182943429Y-30360952D01*
X182991048Y-30408571D01*
X183038667Y-30503810D01*
X183038667Y-30741905D01*
X182991048Y-30837143D01*
X182943429Y-30884762D01*
X182848191Y-30932381D01*
X182562476Y-30932381D01*
X182467238Y-30884762D01*
X182419619Y-30837143D01*
M02*
