M48
;DRILL file {KiCad 4.0.7-e2-6376~58~ubuntu16.04.1} date Sun Feb  4 09:06:41 2018
;FORMAT={-:-/ absolute / inch / decimal}
FMAT,2
INCH,TZ
T1C0.031
T2C0.040
T3C0.043
T4C0.051
T5C0.060
T6C0.063
T7C0.094
T8C0.188
%
G90
G05
M72
T1
X5.1Y-1.7809
X5.1Y-2.21
X5.7208Y-1.31
X5.7208Y-1.62
X7.02Y-1.31
X7.02Y-1.62
T2
X4.1732Y-1.25
X4.1732Y-1.3878
X4.1732Y-1.7
X4.1732Y-1.8378
X4.1732Y-2.16
X4.1732Y-2.2978
X4.1732Y-2.6
X4.1732Y-2.7378
X5.8222Y-2.89
X5.96Y-2.89
T3
X4.4996Y-1.9353
X4.4996Y-2.5953
X4.5Y-1.64
X4.5Y-2.3
T4
X6.02Y-2.2147
X6.02Y-2.51
X6.6106Y-2.2147
X6.6106Y-2.51
X6.8074Y-2.2147
X6.8074Y-2.51
X7.0043Y-2.2147
X7.0043Y-2.51
T5
X7.34Y-1.9701
X7.34Y-2.2
X7.5703Y-1.9701
X7.5703Y-2.2
T6
X4.261Y-1.3189
X4.261Y-1.7689
X4.261Y-2.2289
X4.261Y-2.6689
X5.8911Y-2.9778
T7
X4.9949Y-1.5121
X4.9949Y-2.4979
T8
X7.4554Y-1.2736
X7.4554Y-2.8965
T0
M30
