G04 #@! TF.FileFunction,Soldermask,Bot*
%FSLAX46Y46*%
G04 Gerber Fmt 4.6, Leading zero omitted, Abs format (unit mm)*
G04 Created by KiCad (PCBNEW 4.0.7-e2-6376~58~ubuntu16.04.1) date Sun Feb  4 09:06:46 2018*
%MOMM*%
%LPD*%
G01*
G04 APERTURE LIST*
%ADD10C,0.100000*%
%ADD11C,2.200000*%
%ADD12C,2.000000*%
%ADD13C,1.797000*%
%ADD14C,2.381000*%
%ADD15C,1.700000*%
%ADD16C,3.300000*%
%ADD17C,2.420000*%
%ADD18C,5.680000*%
G04 APERTURE END LIST*
D10*
D11*
X172908000Y-56254000D03*
X172908000Y-63754000D03*
X167908000Y-63754000D03*
X152908000Y-63754000D03*
X152908000Y-56254000D03*
X167908000Y-56254000D03*
X177908000Y-63754000D03*
X177908000Y-56254000D03*
D12*
X114300000Y-58420000D03*
X114290000Y-65920000D03*
X114300000Y-41656000D03*
X114290000Y-49156000D03*
D13*
X106000000Y-66040000D03*
X106000000Y-69540000D03*
D14*
X108230000Y-67790000D03*
D13*
X151384000Y-73406000D03*
X147884000Y-73406000D03*
D14*
X149634000Y-75636000D03*
D15*
X178308000Y-41148000D03*
X145308000Y-41148000D03*
X178308000Y-33274000D03*
X145308000Y-33274000D03*
D13*
X106000000Y-31750000D03*
X106000000Y-35250000D03*
D14*
X108230000Y-33500000D03*
D13*
X106000000Y-43180000D03*
X106000000Y-46680000D03*
D14*
X108230000Y-44930000D03*
D13*
X106000000Y-54864000D03*
X106000000Y-58364000D03*
D14*
X108230000Y-56614000D03*
D15*
X129540000Y-56134000D03*
X129540000Y-45234000D03*
D16*
X126870000Y-63447000D03*
X126870000Y-38407000D03*
D17*
X186436000Y-55880000D03*
X186436000Y-50040000D03*
X192286000Y-50040000D03*
X192286000Y-55880000D03*
D18*
X189366000Y-32350000D03*
X189366000Y-73570000D03*
M02*
