M48
;DRILL file {KiCad 4.0.7-e2-6376~58~ubuntu16.04.1} date Thu Nov  9 22:45:19 2017
;FORMAT={-:-/ absolute / metric / decimal}
FMAT,2
METRIC,TZ
T1C0.400
T2C0.800
T3C1.020
T4C1.100
T5C1.300
T6C1.600
%
G90
G05
M71
T1
X130.175Y-98.989
X133.322Y-96.52
X134.62Y-109.22
X136.652Y-99.06
X137.16Y-100.965
X138.176Y-108.712
T2
X139.446Y-80.518
X150.346Y-80.518
T3
X116.84Y-97.465
X116.84Y-100.965
X126.428Y-107.061
X126.428Y-110.561
X139.827Y-99.314
X140.97Y-110.49
X140.97Y-113.99
X143.327Y-99.314
X173.482Y-87.63
X176.982Y-87.63
T4
X125.212Y-102.75
X125.222Y-95.25
X129.911Y-102.75
X129.921Y-95.25
T5
X148.416Y-96.393
X148.416Y-103.893
X153.416Y-96.393
X153.416Y-103.893
X158.416Y-96.393
X158.416Y-103.893
X173.416Y-96.393
X173.416Y-103.893
T6
X114.61Y-99.215
X124.198Y-108.811
X138.74Y-112.24
X141.577Y-101.544
X175.232Y-85.4
T0
M30
