G04 #@! TF.FileFunction,Legend,Top*
%FSLAX46Y46*%
G04 Gerber Fmt 4.6, Leading zero omitted, Abs format (unit mm)*
G04 Created by KiCad (PCBNEW 4.0.7-e2-6376~58~ubuntu16.04.1) date Thu Nov  9 22:46:50 2017*
%MOMM*%
%LPD*%
G01*
G04 APERTURE LIST*
%ADD10C,0.100000*%
%ADD11C,0.150000*%
%ADD12C,0.300000*%
%ADD13C,0.400000*%
%ADD14C,0.292100*%
%ADD15C,0.200000*%
%ADD16C,0.120000*%
%ADD17C,0.060000*%
G04 APERTURE END LIST*
D10*
D11*
X177002200Y-166007200D02*
X177002200Y-198007200D01*
X285002200Y-198007200D01*
X285002200Y-166007200D01*
X177002200Y-166007200D01*
D10*
D11*
X10000000Y-10000000D02*
X10000000Y-200007200D01*
X287002200Y-200007200D01*
X287002200Y-10000000D01*
X10000000Y-10000000D01*
D10*
D11*
X12000000Y-12000000D02*
X12000000Y-198007200D01*
X285002200Y-198007200D01*
X285002200Y-12000000D01*
X12000000Y-12000000D01*
D10*
D11*
X60000000Y-12000000D02*
X60000000Y-10000000D01*
D10*
D11*
X110000000Y-12000000D02*
X110000000Y-10000000D01*
D10*
D11*
X160000000Y-12000000D02*
X160000000Y-10000000D01*
D10*
D11*
X210000000Y-12000000D02*
X210000000Y-10000000D01*
D10*
D11*
X260000000Y-12000000D02*
X260000000Y-10000000D01*
D10*
D11*
X35990476Y-11588095D02*
X35247619Y-11588095D01*
X35619048Y-11588095D02*
X35619048Y-10288095D01*
X35495238Y-10473810D01*
X35371429Y-10597619D01*
X35247619Y-10659524D01*
D10*
D11*
X85247619Y-10411905D02*
X85309524Y-10350000D01*
X85433333Y-10288095D01*
X85742857Y-10288095D01*
X85866667Y-10350000D01*
X85928571Y-10411905D01*
X85990476Y-10535714D01*
X85990476Y-10659524D01*
X85928571Y-10845238D01*
X85185714Y-11588095D01*
X85990476Y-11588095D01*
D10*
D11*
X135185714Y-10288095D02*
X135990476Y-10288095D01*
X135557143Y-10783333D01*
X135742857Y-10783333D01*
X135866667Y-10845238D01*
X135928571Y-10907143D01*
X135990476Y-11030952D01*
X135990476Y-11340476D01*
X135928571Y-11464286D01*
X135866667Y-11526190D01*
X135742857Y-11588095D01*
X135371429Y-11588095D01*
X135247619Y-11526190D01*
X135185714Y-11464286D01*
D10*
D11*
X185866667Y-10721429D02*
X185866667Y-11588095D01*
X185557143Y-10226190D02*
X185247619Y-11154762D01*
X186052381Y-11154762D01*
D10*
D11*
X235928571Y-10288095D02*
X235309524Y-10288095D01*
X235247619Y-10907143D01*
X235309524Y-10845238D01*
X235433333Y-10783333D01*
X235742857Y-10783333D01*
X235866667Y-10845238D01*
X235928571Y-10907143D01*
X235990476Y-11030952D01*
X235990476Y-11340476D01*
X235928571Y-11464286D01*
X235866667Y-11526190D01*
X235742857Y-11588095D01*
X235433333Y-11588095D01*
X235309524Y-11526190D01*
X235247619Y-11464286D01*
D10*
D11*
X285866667Y-10288095D02*
X285619048Y-10288095D01*
X285495238Y-10350000D01*
X285433333Y-10411905D01*
X285309524Y-10597619D01*
X285247619Y-10845238D01*
X285247619Y-11340476D01*
X285309524Y-11464286D01*
X285371429Y-11526190D01*
X285495238Y-11588095D01*
X285742857Y-11588095D01*
X285866667Y-11526190D01*
X285928571Y-11464286D01*
X285990476Y-11340476D01*
X285990476Y-11030952D01*
X285928571Y-10907143D01*
X285866667Y-10845238D01*
X285742857Y-10783333D01*
X285495238Y-10783333D01*
X285371429Y-10845238D01*
X285309524Y-10907143D01*
X285247619Y-11030952D01*
D10*
D11*
X60000000Y-198007200D02*
X60000000Y-200007200D01*
D10*
D11*
X110000000Y-198007200D02*
X110000000Y-200007200D01*
D10*
D11*
X160000000Y-198007200D02*
X160000000Y-200007200D01*
D10*
D11*
X210000000Y-198007200D02*
X210000000Y-200007200D01*
D10*
D11*
X260000000Y-198007200D02*
X260000000Y-200007200D01*
D10*
D11*
X35990476Y-199595295D02*
X35247619Y-199595295D01*
X35619048Y-199595295D02*
X35619048Y-198295295D01*
X35495238Y-198481010D01*
X35371429Y-198604819D01*
X35247619Y-198666724D01*
D10*
D11*
X85247619Y-198419105D02*
X85309524Y-198357200D01*
X85433333Y-198295295D01*
X85742857Y-198295295D01*
X85866667Y-198357200D01*
X85928571Y-198419105D01*
X85990476Y-198542914D01*
X85990476Y-198666724D01*
X85928571Y-198852438D01*
X85185714Y-199595295D01*
X85990476Y-199595295D01*
D10*
D11*
X135185714Y-198295295D02*
X135990476Y-198295295D01*
X135557143Y-198790533D01*
X135742857Y-198790533D01*
X135866667Y-198852438D01*
X135928571Y-198914343D01*
X135990476Y-199038152D01*
X135990476Y-199347676D01*
X135928571Y-199471486D01*
X135866667Y-199533390D01*
X135742857Y-199595295D01*
X135371429Y-199595295D01*
X135247619Y-199533390D01*
X135185714Y-199471486D01*
D10*
D11*
X185866667Y-198728629D02*
X185866667Y-199595295D01*
X185557143Y-198233390D02*
X185247619Y-199161962D01*
X186052381Y-199161962D01*
D10*
D11*
X235928571Y-198295295D02*
X235309524Y-198295295D01*
X235247619Y-198914343D01*
X235309524Y-198852438D01*
X235433333Y-198790533D01*
X235742857Y-198790533D01*
X235866667Y-198852438D01*
X235928571Y-198914343D01*
X235990476Y-199038152D01*
X235990476Y-199347676D01*
X235928571Y-199471486D01*
X235866667Y-199533390D01*
X235742857Y-199595295D01*
X235433333Y-199595295D01*
X235309524Y-199533390D01*
X235247619Y-199471486D01*
D10*
D11*
X285866667Y-198295295D02*
X285619048Y-198295295D01*
X285495238Y-198357200D01*
X285433333Y-198419105D01*
X285309524Y-198604819D01*
X285247619Y-198852438D01*
X285247619Y-199347676D01*
X285309524Y-199471486D01*
X285371429Y-199533390D01*
X285495238Y-199595295D01*
X285742857Y-199595295D01*
X285866667Y-199533390D01*
X285928571Y-199471486D01*
X285990476Y-199347676D01*
X285990476Y-199038152D01*
X285928571Y-198914343D01*
X285866667Y-198852438D01*
X285742857Y-198790533D01*
X285495238Y-198790533D01*
X285371429Y-198852438D01*
X285309524Y-198914343D01*
X285247619Y-199038152D01*
D10*
D11*
X10000000Y-60000000D02*
X12000000Y-60000000D01*
D10*
D11*
X10000000Y-110000000D02*
X12000000Y-110000000D01*
D10*
D11*
X10000000Y-160000000D02*
X12000000Y-160000000D01*
D10*
D11*
X10690476Y-35216667D02*
X11309524Y-35216667D01*
X10566667Y-35588095D02*
X11000000Y-34288095D01*
X11433333Y-35588095D01*
D10*
D11*
X11092857Y-84907143D02*
X11278571Y-84969048D01*
X11340476Y-85030952D01*
X11402381Y-85154762D01*
X11402381Y-85340476D01*
X11340476Y-85464286D01*
X11278571Y-85526190D01*
X11154762Y-85588095D01*
X10659524Y-85588095D01*
X10659524Y-84288095D01*
X11092857Y-84288095D01*
X11216667Y-84350000D01*
X11278571Y-84411905D01*
X11340476Y-84535714D01*
X11340476Y-84659524D01*
X11278571Y-84783333D01*
X11216667Y-84845238D01*
X11092857Y-84907143D01*
X10659524Y-84907143D01*
D10*
D11*
X11402381Y-135464286D02*
X11340476Y-135526190D01*
X11154762Y-135588095D01*
X11030952Y-135588095D01*
X10845238Y-135526190D01*
X10721429Y-135402381D01*
X10659524Y-135278571D01*
X10597619Y-135030952D01*
X10597619Y-134845238D01*
X10659524Y-134597619D01*
X10721429Y-134473810D01*
X10845238Y-134350000D01*
X11030952Y-134288095D01*
X11154762Y-134288095D01*
X11340476Y-134350000D01*
X11402381Y-134411905D01*
D10*
D11*
X10659524Y-185588095D02*
X10659524Y-184288095D01*
X10969048Y-184288095D01*
X11154762Y-184350000D01*
X11278571Y-184473810D01*
X11340476Y-184597619D01*
X11402381Y-184845238D01*
X11402381Y-185030952D01*
X11340476Y-185278571D01*
X11278571Y-185402381D01*
X11154762Y-185526190D01*
X10969048Y-185588095D01*
X10659524Y-185588095D01*
D10*
D11*
X287002200Y-60000000D02*
X285002200Y-60000000D01*
D10*
D11*
X287002200Y-110000000D02*
X285002200Y-110000000D01*
D10*
D11*
X287002200Y-160000000D02*
X285002200Y-160000000D01*
D10*
D11*
X285692676Y-35216667D02*
X286311724Y-35216667D01*
X285568867Y-35588095D02*
X286002200Y-34288095D01*
X286435533Y-35588095D01*
D10*
D11*
X286095057Y-84907143D02*
X286280771Y-84969048D01*
X286342676Y-85030952D01*
X286404581Y-85154762D01*
X286404581Y-85340476D01*
X286342676Y-85464286D01*
X286280771Y-85526190D01*
X286156962Y-85588095D01*
X285661724Y-85588095D01*
X285661724Y-84288095D01*
X286095057Y-84288095D01*
X286218867Y-84350000D01*
X286280771Y-84411905D01*
X286342676Y-84535714D01*
X286342676Y-84659524D01*
X286280771Y-84783333D01*
X286218867Y-84845238D01*
X286095057Y-84907143D01*
X285661724Y-84907143D01*
D10*
D11*
X286404581Y-135464286D02*
X286342676Y-135526190D01*
X286156962Y-135588095D01*
X286033152Y-135588095D01*
X285847438Y-135526190D01*
X285723629Y-135402381D01*
X285661724Y-135278571D01*
X285599819Y-135030952D01*
X285599819Y-134845238D01*
X285661724Y-134597619D01*
X285723629Y-134473810D01*
X285847438Y-134350000D01*
X286033152Y-134288095D01*
X286156962Y-134288095D01*
X286342676Y-134350000D01*
X286404581Y-134411905D01*
D10*
D11*
X285661724Y-185588095D02*
X285661724Y-184288095D01*
X285971248Y-184288095D01*
X286156962Y-184350000D01*
X286280771Y-184473810D01*
X286342676Y-184597619D01*
X286404581Y-184845238D01*
X286404581Y-185030952D01*
X286342676Y-185278571D01*
X286280771Y-185402381D01*
X286156962Y-185526190D01*
X285971248Y-185588095D01*
X285661724Y-185588095D01*
D10*
D11*
X200359343Y-193785771D02*
X200359343Y-192285771D01*
X200716486Y-192285771D01*
X200930771Y-192357200D01*
X201073629Y-192500057D01*
X201145057Y-192642914D01*
X201216486Y-192928629D01*
X201216486Y-193142914D01*
X201145057Y-193428629D01*
X201073629Y-193571486D01*
X200930771Y-193714343D01*
X200716486Y-193785771D01*
X200359343Y-193785771D01*
X202502200Y-193785771D02*
X202502200Y-193000057D01*
X202430771Y-192857200D01*
X202287914Y-192785771D01*
X202002200Y-192785771D01*
X201859343Y-192857200D01*
X202502200Y-193714343D02*
X202359343Y-193785771D01*
X202002200Y-193785771D01*
X201859343Y-193714343D01*
X201787914Y-193571486D01*
X201787914Y-193428629D01*
X201859343Y-193285771D01*
X202002200Y-193214343D01*
X202359343Y-193214343D01*
X202502200Y-193142914D01*
X203002200Y-192785771D02*
X203573629Y-192785771D01*
X203216486Y-192285771D02*
X203216486Y-193571486D01*
X203287914Y-193714343D01*
X203430772Y-193785771D01*
X203573629Y-193785771D01*
X204645057Y-193714343D02*
X204502200Y-193785771D01*
X204216486Y-193785771D01*
X204073629Y-193714343D01*
X204002200Y-193571486D01*
X204002200Y-193000057D01*
X204073629Y-192857200D01*
X204216486Y-192785771D01*
X204502200Y-192785771D01*
X204645057Y-192857200D01*
X204716486Y-193000057D01*
X204716486Y-193142914D01*
X204002200Y-193285771D01*
X205359343Y-193642914D02*
X205430771Y-193714343D01*
X205359343Y-193785771D01*
X205287914Y-193714343D01*
X205359343Y-193642914D01*
X205359343Y-193785771D01*
X205359343Y-192857200D02*
X205430771Y-192928629D01*
X205359343Y-193000057D01*
X205287914Y-192928629D01*
X205359343Y-192857200D01*
X205359343Y-193000057D01*
D10*
D11*
X177002200Y-194507200D02*
X285002200Y-194507200D01*
D10*
D11*
X178359343Y-196585771D02*
X178359343Y-195085771D01*
X179216486Y-196585771D02*
X178573629Y-195728629D01*
X179216486Y-195085771D02*
X178359343Y-195942914D01*
X179859343Y-196585771D02*
X179859343Y-195585771D01*
X179859343Y-195085771D02*
X179787914Y-195157200D01*
X179859343Y-195228629D01*
X179930771Y-195157200D01*
X179859343Y-195085771D01*
X179859343Y-195228629D01*
X181430772Y-196442914D02*
X181359343Y-196514343D01*
X181145057Y-196585771D01*
X181002200Y-196585771D01*
X180787915Y-196514343D01*
X180645057Y-196371486D01*
X180573629Y-196228629D01*
X180502200Y-195942914D01*
X180502200Y-195728629D01*
X180573629Y-195442914D01*
X180645057Y-195300057D01*
X180787915Y-195157200D01*
X181002200Y-195085771D01*
X181145057Y-195085771D01*
X181359343Y-195157200D01*
X181430772Y-195228629D01*
X182716486Y-196585771D02*
X182716486Y-195800057D01*
X182645057Y-195657200D01*
X182502200Y-195585771D01*
X182216486Y-195585771D01*
X182073629Y-195657200D01*
X182716486Y-196514343D02*
X182573629Y-196585771D01*
X182216486Y-196585771D01*
X182073629Y-196514343D01*
X182002200Y-196371486D01*
X182002200Y-196228629D01*
X182073629Y-196085771D01*
X182216486Y-196014343D01*
X182573629Y-196014343D01*
X182716486Y-195942914D01*
X184073629Y-196585771D02*
X184073629Y-195085771D01*
X184073629Y-196514343D02*
X183930772Y-196585771D01*
X183645058Y-196585771D01*
X183502200Y-196514343D01*
X183430772Y-196442914D01*
X183359343Y-196300057D01*
X183359343Y-195871486D01*
X183430772Y-195728629D01*
X183502200Y-195657200D01*
X183645058Y-195585771D01*
X183930772Y-195585771D01*
X184073629Y-195657200D01*
X185930772Y-195800057D02*
X186430772Y-195800057D01*
X186645058Y-196585771D02*
X185930772Y-196585771D01*
X185930772Y-195085771D01*
X186645058Y-195085771D01*
X187287915Y-196442914D02*
X187359343Y-196514343D01*
X187287915Y-196585771D01*
X187216486Y-196514343D01*
X187287915Y-196442914D01*
X187287915Y-196585771D01*
X188002201Y-196585771D02*
X188002201Y-195085771D01*
X188359344Y-195085771D01*
X188573629Y-195157200D01*
X188716487Y-195300057D01*
X188787915Y-195442914D01*
X188859344Y-195728629D01*
X188859344Y-195942914D01*
X188787915Y-196228629D01*
X188716487Y-196371486D01*
X188573629Y-196514343D01*
X188359344Y-196585771D01*
X188002201Y-196585771D01*
X189502201Y-196442914D02*
X189573629Y-196514343D01*
X189502201Y-196585771D01*
X189430772Y-196514343D01*
X189502201Y-196442914D01*
X189502201Y-196585771D01*
X190145058Y-196157200D02*
X190859344Y-196157200D01*
X190002201Y-196585771D02*
X190502201Y-195085771D01*
X191002201Y-196585771D01*
X191502201Y-196442914D02*
X191573629Y-196514343D01*
X191502201Y-196585771D01*
X191430772Y-196514343D01*
X191502201Y-196442914D01*
X191502201Y-196585771D01*
X194502201Y-196585771D02*
X194502201Y-195085771D01*
X194645058Y-196014343D02*
X195073629Y-196585771D01*
X195073629Y-195585771D02*
X194502201Y-196157200D01*
X195716487Y-196585771D02*
X195716487Y-195585771D01*
X195716487Y-195085771D02*
X195645058Y-195157200D01*
X195716487Y-195228629D01*
X195787915Y-195157200D01*
X195716487Y-195085771D01*
X195716487Y-195228629D01*
X197073630Y-196514343D02*
X196930773Y-196585771D01*
X196645059Y-196585771D01*
X196502201Y-196514343D01*
X196430773Y-196442914D01*
X196359344Y-196300057D01*
X196359344Y-195871486D01*
X196430773Y-195728629D01*
X196502201Y-195657200D01*
X196645059Y-195585771D01*
X196930773Y-195585771D01*
X197073630Y-195657200D01*
X198359344Y-196585771D02*
X198359344Y-195800057D01*
X198287915Y-195657200D01*
X198145058Y-195585771D01*
X197859344Y-195585771D01*
X197716487Y-195657200D01*
X198359344Y-196514343D02*
X198216487Y-196585771D01*
X197859344Y-196585771D01*
X197716487Y-196514343D01*
X197645058Y-196371486D01*
X197645058Y-196228629D01*
X197716487Y-196085771D01*
X197859344Y-196014343D01*
X198216487Y-196014343D01*
X198359344Y-195942914D01*
X199716487Y-196585771D02*
X199716487Y-195085771D01*
X199716487Y-196514343D02*
X199573630Y-196585771D01*
X199287916Y-196585771D01*
X199145058Y-196514343D01*
X199073630Y-196442914D01*
X199002201Y-196300057D01*
X199002201Y-195871486D01*
X199073630Y-195728629D01*
X199145058Y-195657200D01*
X199287916Y-195585771D01*
X199573630Y-195585771D01*
X199716487Y-195657200D01*
X202216487Y-195585771D02*
X202216487Y-196585771D01*
X201859344Y-195014343D02*
X201502201Y-196085771D01*
X202430773Y-196085771D01*
X203002201Y-196442914D02*
X203073629Y-196514343D01*
X203002201Y-196585771D01*
X202930772Y-196514343D01*
X203002201Y-196442914D01*
X203002201Y-196585771D01*
X204002201Y-195085771D02*
X204145058Y-195085771D01*
X204287915Y-195157200D01*
X204359344Y-195228629D01*
X204430773Y-195371486D01*
X204502201Y-195657200D01*
X204502201Y-196014343D01*
X204430773Y-196300057D01*
X204359344Y-196442914D01*
X204287915Y-196514343D01*
X204145058Y-196585771D01*
X204002201Y-196585771D01*
X203859344Y-196514343D01*
X203787915Y-196442914D01*
X203716487Y-196300057D01*
X203645058Y-196014343D01*
X203645058Y-195657200D01*
X203716487Y-195371486D01*
X203787915Y-195228629D01*
X203859344Y-195157200D01*
X204002201Y-195085771D01*
X205145058Y-196442914D02*
X205216486Y-196514343D01*
X205145058Y-196585771D01*
X205073629Y-196514343D01*
X205145058Y-196442914D01*
X205145058Y-196585771D01*
X205716487Y-195085771D02*
X206716487Y-195085771D01*
X206073630Y-196585771D01*
X207287915Y-196014343D02*
X208430772Y-196014343D01*
X209716486Y-196514343D02*
X209573629Y-196585771D01*
X209287915Y-196585771D01*
X209145058Y-196514343D01*
X209073629Y-196371486D01*
X209073629Y-195800057D01*
X209145058Y-195657200D01*
X209287915Y-195585771D01*
X209573629Y-195585771D01*
X209716486Y-195657200D01*
X209787915Y-195800057D01*
X209787915Y-195942914D01*
X209073629Y-196085771D01*
X210359343Y-195228629D02*
X210430772Y-195157200D01*
X210573629Y-195085771D01*
X210930772Y-195085771D01*
X211073629Y-195157200D01*
X211145058Y-195228629D01*
X211216486Y-195371486D01*
X211216486Y-195514343D01*
X211145058Y-195728629D01*
X210287915Y-196585771D01*
X211216486Y-196585771D01*
X211859343Y-196014343D02*
X213002200Y-196014343D01*
X214359343Y-195085771D02*
X214073629Y-195085771D01*
X213930772Y-195157200D01*
X213859343Y-195228629D01*
X213716486Y-195442914D01*
X213645057Y-195728629D01*
X213645057Y-196300057D01*
X213716486Y-196442914D01*
X213787914Y-196514343D01*
X213930772Y-196585771D01*
X214216486Y-196585771D01*
X214359343Y-196514343D01*
X214430772Y-196442914D01*
X214502200Y-196300057D01*
X214502200Y-195942914D01*
X214430772Y-195800057D01*
X214359343Y-195728629D01*
X214216486Y-195657200D01*
X213930772Y-195657200D01*
X213787914Y-195728629D01*
X213716486Y-195800057D01*
X213645057Y-195942914D01*
X215002200Y-195085771D02*
X215930771Y-195085771D01*
X215430771Y-195657200D01*
X215645057Y-195657200D01*
X215787914Y-195728629D01*
X215859343Y-195800057D01*
X215930771Y-195942914D01*
X215930771Y-196300057D01*
X215859343Y-196442914D01*
X215787914Y-196514343D01*
X215645057Y-196585771D01*
X215216485Y-196585771D01*
X215073628Y-196514343D01*
X215002200Y-196442914D01*
X216430771Y-195085771D02*
X217430771Y-195085771D01*
X216787914Y-196585771D01*
X218645056Y-195085771D02*
X218359342Y-195085771D01*
X218216485Y-195157200D01*
X218145056Y-195228629D01*
X218002199Y-195442914D01*
X217930770Y-195728629D01*
X217930770Y-196300057D01*
X218002199Y-196442914D01*
X218073627Y-196514343D01*
X218216485Y-196585771D01*
X218502199Y-196585771D01*
X218645056Y-196514343D01*
X218716485Y-196442914D01*
X218787913Y-196300057D01*
X218787913Y-195942914D01*
X218716485Y-195800057D01*
X218645056Y-195728629D01*
X218502199Y-195657200D01*
X218216485Y-195657200D01*
X218073627Y-195728629D01*
X218002199Y-195800057D01*
X217930770Y-195942914D01*
X220145056Y-195085771D02*
X219430770Y-195085771D01*
X219359341Y-195800057D01*
X219430770Y-195728629D01*
X219573627Y-195657200D01*
X219930770Y-195657200D01*
X220073627Y-195728629D01*
X220145056Y-195800057D01*
X220216484Y-195942914D01*
X220216484Y-196300057D01*
X220145056Y-196442914D01*
X220073627Y-196514343D01*
X219930770Y-196585771D01*
X219573627Y-196585771D01*
X219430770Y-196514343D01*
X219359341Y-196442914D01*
X221073627Y-195728629D02*
X220930769Y-195657200D01*
X220859341Y-195585771D01*
X220787912Y-195442914D01*
X220787912Y-195371486D01*
X220859341Y-195228629D01*
X220930769Y-195157200D01*
X221073627Y-195085771D01*
X221359341Y-195085771D01*
X221502198Y-195157200D01*
X221573627Y-195228629D01*
X221645055Y-195371486D01*
X221645055Y-195442914D01*
X221573627Y-195585771D01*
X221502198Y-195657200D01*
X221359341Y-195728629D01*
X221073627Y-195728629D01*
X220930769Y-195800057D01*
X220859341Y-195871486D01*
X220787912Y-196014343D01*
X220787912Y-196300057D01*
X220859341Y-196442914D01*
X220930769Y-196514343D01*
X221073627Y-196585771D01*
X221359341Y-196585771D01*
X221502198Y-196514343D01*
X221573627Y-196442914D01*
X221645055Y-196300057D01*
X221645055Y-196014343D01*
X221573627Y-195871486D01*
X221502198Y-195800057D01*
X221359341Y-195728629D01*
X219073627Y-194827200D02*
X221930769Y-194827200D01*
X222930769Y-195585771D02*
X222930769Y-196585771D01*
X222287912Y-195585771D02*
X222287912Y-196371486D01*
X222359340Y-196514343D01*
X222502198Y-196585771D01*
X222716483Y-196585771D01*
X222859340Y-196514343D01*
X222930769Y-196442914D01*
X223645055Y-196585771D02*
X223645055Y-195085771D01*
X223645055Y-195657200D02*
X223787912Y-195585771D01*
X224073626Y-195585771D01*
X224216483Y-195657200D01*
X224287912Y-195728629D01*
X224359341Y-195871486D01*
X224359341Y-196300057D01*
X224287912Y-196442914D01*
X224216483Y-196514343D01*
X224073626Y-196585771D01*
X223787912Y-196585771D01*
X223645055Y-196514343D01*
X225645055Y-195585771D02*
X225645055Y-196585771D01*
X225002198Y-195585771D02*
X225002198Y-196371486D01*
X225073626Y-196514343D01*
X225216484Y-196585771D01*
X225430769Y-196585771D01*
X225573626Y-196514343D01*
X225645055Y-196442914D01*
X226359341Y-195585771D02*
X226359341Y-196585771D01*
X226359341Y-195728629D02*
X226430769Y-195657200D01*
X226573627Y-195585771D01*
X226787912Y-195585771D01*
X226930769Y-195657200D01*
X227002198Y-195800057D01*
X227002198Y-196585771D01*
X227502198Y-195585771D02*
X228073627Y-195585771D01*
X227716484Y-195085771D02*
X227716484Y-196371486D01*
X227787912Y-196514343D01*
X227930770Y-196585771D01*
X228073627Y-196585771D01*
X229216484Y-195585771D02*
X229216484Y-196585771D01*
X228573627Y-195585771D02*
X228573627Y-196371486D01*
X228645055Y-196514343D01*
X228787913Y-196585771D01*
X229002198Y-196585771D01*
X229145055Y-196514343D01*
X229216484Y-196442914D01*
X230716484Y-196585771D02*
X229859341Y-196585771D01*
X230287913Y-196585771D02*
X230287913Y-195085771D01*
X230145056Y-195300057D01*
X230002198Y-195442914D01*
X229859341Y-195514343D01*
X232002198Y-195085771D02*
X231716484Y-195085771D01*
X231573627Y-195157200D01*
X231502198Y-195228629D01*
X231359341Y-195442914D01*
X231287912Y-195728629D01*
X231287912Y-196300057D01*
X231359341Y-196442914D01*
X231430769Y-196514343D01*
X231573627Y-196585771D01*
X231859341Y-196585771D01*
X232002198Y-196514343D01*
X232073627Y-196442914D01*
X232145055Y-196300057D01*
X232145055Y-195942914D01*
X232073627Y-195800057D01*
X232002198Y-195728629D01*
X231859341Y-195657200D01*
X231573627Y-195657200D01*
X231430769Y-195728629D01*
X231359341Y-195800057D01*
X231287912Y-195942914D01*
X232787912Y-196442914D02*
X232859340Y-196514343D01*
X232787912Y-196585771D01*
X232716483Y-196514343D01*
X232787912Y-196442914D01*
X232787912Y-196585771D01*
X233787912Y-195085771D02*
X233930769Y-195085771D01*
X234073626Y-195157200D01*
X234145055Y-195228629D01*
X234216484Y-195371486D01*
X234287912Y-195657200D01*
X234287912Y-196014343D01*
X234216484Y-196300057D01*
X234145055Y-196442914D01*
X234073626Y-196514343D01*
X233930769Y-196585771D01*
X233787912Y-196585771D01*
X233645055Y-196514343D01*
X233573626Y-196442914D01*
X233502198Y-196300057D01*
X233430769Y-196014343D01*
X233430769Y-195657200D01*
X233502198Y-195371486D01*
X233573626Y-195228629D01*
X233645055Y-195157200D01*
X233787912Y-195085771D01*
X235573626Y-195585771D02*
X235573626Y-196585771D01*
X235216483Y-195014343D02*
X234859340Y-196085771D01*
X235787912Y-196085771D01*
X236359340Y-196442914D02*
X236430768Y-196514343D01*
X236359340Y-196585771D01*
X236287911Y-196514343D01*
X236359340Y-196442914D01*
X236359340Y-196585771D01*
X237859340Y-196585771D02*
X237002197Y-196585771D01*
X237430769Y-196585771D02*
X237430769Y-195085771D01*
X237287912Y-195300057D01*
X237145054Y-195442914D01*
X237002197Y-195514343D01*
D10*
D11*
X177002200Y-191507200D02*
X285002200Y-191507200D01*
D10*
D12*
X264216486Y-193785771D02*
X263716486Y-193071486D01*
X263359343Y-193785771D02*
X263359343Y-192285771D01*
X263930771Y-192285771D01*
X264073629Y-192357200D01*
X264145057Y-192428629D01*
X264216486Y-192571486D01*
X264216486Y-192785771D01*
X264145057Y-192928629D01*
X264073629Y-193000057D01*
X263930771Y-193071486D01*
X263359343Y-193071486D01*
X265430771Y-193714343D02*
X265287914Y-193785771D01*
X265002200Y-193785771D01*
X264859343Y-193714343D01*
X264787914Y-193571486D01*
X264787914Y-193000057D01*
X264859343Y-192857200D01*
X265002200Y-192785771D01*
X265287914Y-192785771D01*
X265430771Y-192857200D01*
X265502200Y-193000057D01*
X265502200Y-193142914D01*
X264787914Y-193285771D01*
X266002200Y-192785771D02*
X266359343Y-193785771D01*
X266716485Y-192785771D01*
X267287914Y-193642914D02*
X267359342Y-193714343D01*
X267287914Y-193785771D01*
X267216485Y-193714343D01*
X267287914Y-193642914D01*
X267287914Y-193785771D01*
X267287914Y-192857200D02*
X267359342Y-192928629D01*
X267287914Y-193000057D01*
X267216485Y-192928629D01*
X267287914Y-192857200D01*
X267287914Y-193000057D01*
D10*
D11*
X178287914Y-193714343D02*
X178502200Y-193785771D01*
X178859343Y-193785771D01*
X179002200Y-193714343D01*
X179073629Y-193642914D01*
X179145057Y-193500057D01*
X179145057Y-193357200D01*
X179073629Y-193214343D01*
X179002200Y-193142914D01*
X178859343Y-193071486D01*
X178573629Y-193000057D01*
X178430771Y-192928629D01*
X178359343Y-192857200D01*
X178287914Y-192714343D01*
X178287914Y-192571486D01*
X178359343Y-192428629D01*
X178430771Y-192357200D01*
X178573629Y-192285771D01*
X178930771Y-192285771D01*
X179145057Y-192357200D01*
X179787914Y-193785771D02*
X179787914Y-192785771D01*
X179787914Y-192285771D02*
X179716485Y-192357200D01*
X179787914Y-192428629D01*
X179859342Y-192357200D01*
X179787914Y-192285771D01*
X179787914Y-192428629D01*
X180359343Y-192785771D02*
X181145057Y-192785771D01*
X180359343Y-193785771D01*
X181145057Y-193785771D01*
X182287914Y-193714343D02*
X182145057Y-193785771D01*
X181859343Y-193785771D01*
X181716486Y-193714343D01*
X181645057Y-193571486D01*
X181645057Y-193000057D01*
X181716486Y-192857200D01*
X181859343Y-192785771D01*
X182145057Y-192785771D01*
X182287914Y-192857200D01*
X182359343Y-193000057D01*
X182359343Y-193142914D01*
X181645057Y-193285771D01*
X183002200Y-193642914D02*
X183073628Y-193714343D01*
X183002200Y-193785771D01*
X182930771Y-193714343D01*
X183002200Y-193642914D01*
X183002200Y-193785771D01*
X183002200Y-192857200D02*
X183073628Y-192928629D01*
X183002200Y-193000057D01*
X182930771Y-192928629D01*
X183002200Y-192857200D01*
X183002200Y-193000057D01*
X184787914Y-193357200D02*
X185502200Y-193357200D01*
X184645057Y-193785771D02*
X185145057Y-192285771D01*
X185645057Y-193785771D01*
X186787914Y-192785771D02*
X186787914Y-193785771D01*
X186430771Y-192214343D02*
X186073628Y-193285771D01*
X187002200Y-193285771D01*
D10*
D11*
X263359343Y-196585771D02*
X263359343Y-195085771D01*
X264716486Y-196585771D02*
X264716486Y-195085771D01*
X264716486Y-196514343D02*
X264573629Y-196585771D01*
X264287915Y-196585771D01*
X264145057Y-196514343D01*
X264073629Y-196442914D01*
X264002200Y-196300057D01*
X264002200Y-195871486D01*
X264073629Y-195728629D01*
X264145057Y-195657200D01*
X264287915Y-195585771D01*
X264573629Y-195585771D01*
X264716486Y-195657200D01*
X265430772Y-196442914D02*
X265502200Y-196514343D01*
X265430772Y-196585771D01*
X265359343Y-196514343D01*
X265430772Y-196442914D01*
X265430772Y-196585771D01*
X265430772Y-195657200D02*
X265502200Y-195728629D01*
X265430772Y-195800057D01*
X265359343Y-195728629D01*
X265430772Y-195657200D01*
X265430772Y-195800057D01*
X268073629Y-196585771D02*
X267216486Y-196585771D01*
X267645058Y-196585771D02*
X267645058Y-195085771D01*
X267502201Y-195300057D01*
X267359343Y-195442914D01*
X267216486Y-195514343D01*
X269787914Y-195014343D02*
X268502200Y-196942914D01*
X271073629Y-196585771D02*
X270216486Y-196585771D01*
X270645058Y-196585771D02*
X270645058Y-195085771D01*
X270502201Y-195300057D01*
X270359343Y-195442914D01*
X270216486Y-195514343D01*
D10*
D11*
X177002200Y-187507200D02*
X285002200Y-187507200D01*
D10*
D13*
X178454581Y-188211962D02*
X179597438Y-188211962D01*
X178776010Y-190211962D02*
X179026010Y-188211962D01*
X180014105Y-190211962D02*
X180180771Y-188878629D01*
X180264105Y-188211962D02*
X180156962Y-188307200D01*
X180240295Y-188402438D01*
X180347439Y-188307200D01*
X180264105Y-188211962D01*
X180240295Y-188402438D01*
X180847438Y-188878629D02*
X181609343Y-188878629D01*
X181216486Y-188211962D02*
X181002200Y-189926248D01*
X181073630Y-190116724D01*
X181252201Y-190211962D01*
X181442677Y-190211962D01*
X182395058Y-190211962D02*
X182216487Y-190116724D01*
X182145057Y-189926248D01*
X182359343Y-188211962D01*
X183930772Y-190116724D02*
X183728391Y-190211962D01*
X183347439Y-190211962D01*
X183168867Y-190116724D01*
X183097438Y-189926248D01*
X183192676Y-189164343D01*
X183311724Y-188973867D01*
X183514105Y-188878629D01*
X183895057Y-188878629D01*
X184073629Y-188973867D01*
X184145057Y-189164343D01*
X184121248Y-189354819D01*
X183145057Y-189545295D01*
X184895057Y-190021486D02*
X184978392Y-190116724D01*
X184871248Y-190211962D01*
X184787915Y-190116724D01*
X184895057Y-190021486D01*
X184871248Y-190211962D01*
X185026010Y-188973867D02*
X185109344Y-189069105D01*
X185002200Y-189164343D01*
X184918867Y-189069105D01*
X185026010Y-188973867D01*
X185002200Y-189164343D01*
D10*
D11*
X178859343Y-185600057D02*
X178359343Y-185600057D01*
X178359343Y-186385771D02*
X178359343Y-184885771D01*
X179073629Y-184885771D01*
X179645057Y-186385771D02*
X179645057Y-185385771D01*
X179645057Y-184885771D02*
X179573628Y-184957200D01*
X179645057Y-185028629D01*
X179716485Y-184957200D01*
X179645057Y-184885771D01*
X179645057Y-185028629D01*
X180573629Y-186385771D02*
X180430771Y-186314343D01*
X180359343Y-186171486D01*
X180359343Y-184885771D01*
X181716485Y-186314343D02*
X181573628Y-186385771D01*
X181287914Y-186385771D01*
X181145057Y-186314343D01*
X181073628Y-186171486D01*
X181073628Y-185600057D01*
X181145057Y-185457200D01*
X181287914Y-185385771D01*
X181573628Y-185385771D01*
X181716485Y-185457200D01*
X181787914Y-185600057D01*
X181787914Y-185742914D01*
X181073628Y-185885771D01*
X182430771Y-186242914D02*
X182502199Y-186314343D01*
X182430771Y-186385771D01*
X182359342Y-186314343D01*
X182430771Y-186242914D01*
X182430771Y-186385771D01*
X182430771Y-185457200D02*
X182502199Y-185528629D01*
X182430771Y-185600057D01*
X182359342Y-185528629D01*
X182430771Y-185457200D01*
X182430771Y-185600057D01*
X184216485Y-185957200D02*
X184930771Y-185957200D01*
X184073628Y-186385771D02*
X184573628Y-184885771D01*
X185073628Y-186385771D01*
X185573628Y-186385771D02*
X185573628Y-184885771D01*
X187002200Y-186385771D02*
X186287914Y-186385771D01*
X186287914Y-184885771D01*
X187145057Y-186528629D02*
X188287914Y-186528629D01*
X188645057Y-186385771D02*
X188645057Y-184885771D01*
X189216485Y-184885771D01*
X189359343Y-184957200D01*
X189430771Y-185028629D01*
X189502200Y-185171486D01*
X189502200Y-185385771D01*
X189430771Y-185528629D01*
X189359343Y-185600057D01*
X189216485Y-185671486D01*
X188645057Y-185671486D01*
X190145057Y-186385771D02*
X190145057Y-185385771D01*
X190145057Y-185671486D02*
X190216485Y-185528629D01*
X190287914Y-185457200D01*
X190430771Y-185385771D01*
X190573628Y-185385771D01*
X191645056Y-186314343D02*
X191502199Y-186385771D01*
X191216485Y-186385771D01*
X191073628Y-186314343D01*
X191002199Y-186171486D01*
X191002199Y-185600057D01*
X191073628Y-185457200D01*
X191216485Y-185385771D01*
X191502199Y-185385771D01*
X191645056Y-185457200D01*
X191716485Y-185600057D01*
X191716485Y-185742914D01*
X191002199Y-185885771D01*
X193002199Y-186314343D02*
X192859342Y-186385771D01*
X192573628Y-186385771D01*
X192430770Y-186314343D01*
X192359342Y-186242914D01*
X192287913Y-186100057D01*
X192287913Y-185671486D01*
X192359342Y-185528629D01*
X192430770Y-185457200D01*
X192573628Y-185385771D01*
X192859342Y-185385771D01*
X193002199Y-185457200D01*
X193645056Y-186385771D02*
X193645056Y-184885771D01*
X194287913Y-186385771D02*
X194287913Y-185600057D01*
X194216484Y-185457200D01*
X194073627Y-185385771D01*
X193859342Y-185385771D01*
X193716484Y-185457200D01*
X193645056Y-185528629D01*
X195645056Y-186385771D02*
X195645056Y-185600057D01*
X195573627Y-185457200D01*
X195430770Y-185385771D01*
X195145056Y-185385771D01*
X195002199Y-185457200D01*
X195645056Y-186314343D02*
X195502199Y-186385771D01*
X195145056Y-186385771D01*
X195002199Y-186314343D01*
X194930770Y-186171486D01*
X194930770Y-186028629D01*
X195002199Y-185885771D01*
X195145056Y-185814343D01*
X195502199Y-185814343D01*
X195645056Y-185742914D01*
X196359342Y-186385771D02*
X196359342Y-185385771D01*
X196359342Y-185671486D02*
X196430770Y-185528629D01*
X196502199Y-185457200D01*
X196645056Y-185385771D01*
X196787913Y-185385771D01*
X197930770Y-185385771D02*
X197930770Y-186600057D01*
X197859341Y-186742914D01*
X197787913Y-186814343D01*
X197645056Y-186885771D01*
X197430770Y-186885771D01*
X197287913Y-186814343D01*
X197930770Y-186314343D02*
X197787913Y-186385771D01*
X197502199Y-186385771D01*
X197359341Y-186314343D01*
X197287913Y-186242914D01*
X197216484Y-186100057D01*
X197216484Y-185671486D01*
X197287913Y-185528629D01*
X197359341Y-185457200D01*
X197502199Y-185385771D01*
X197787913Y-185385771D01*
X197930770Y-185457200D01*
X199216484Y-186314343D02*
X199073627Y-186385771D01*
X198787913Y-186385771D01*
X198645056Y-186314343D01*
X198573627Y-186171486D01*
X198573627Y-185600057D01*
X198645056Y-185457200D01*
X198787913Y-185385771D01*
X199073627Y-185385771D01*
X199216484Y-185457200D01*
X199287913Y-185600057D01*
X199287913Y-185742914D01*
X198573627Y-185885771D01*
X199573627Y-186528629D02*
X200716484Y-186528629D01*
X201002198Y-186314343D02*
X201216484Y-186385771D01*
X201573627Y-186385771D01*
X201716484Y-186314343D01*
X201787913Y-186242914D01*
X201859341Y-186100057D01*
X201859341Y-185957200D01*
X201787913Y-185814343D01*
X201716484Y-185742914D01*
X201573627Y-185671486D01*
X201287913Y-185600057D01*
X201145055Y-185528629D01*
X201073627Y-185457200D01*
X201002198Y-185314343D01*
X201002198Y-185171486D01*
X201073627Y-185028629D01*
X201145055Y-184957200D01*
X201287913Y-184885771D01*
X201645055Y-184885771D01*
X201859341Y-184957200D01*
X203145055Y-186314343D02*
X203002198Y-186385771D01*
X202716484Y-186385771D01*
X202573626Y-186314343D01*
X202502198Y-186242914D01*
X202430769Y-186100057D01*
X202430769Y-185671486D01*
X202502198Y-185528629D01*
X202573626Y-185457200D01*
X202716484Y-185385771D01*
X203002198Y-185385771D01*
X203145055Y-185457200D01*
X203787912Y-186385771D02*
X203787912Y-184885771D01*
X204430769Y-186385771D02*
X204430769Y-185600057D01*
X204359340Y-185457200D01*
X204216483Y-185385771D01*
X204002198Y-185385771D01*
X203859340Y-185457200D01*
X203787912Y-185528629D01*
X205716483Y-186314343D02*
X205573626Y-186385771D01*
X205287912Y-186385771D01*
X205145055Y-186314343D01*
X205073626Y-186171486D01*
X205073626Y-185600057D01*
X205145055Y-185457200D01*
X205287912Y-185385771D01*
X205573626Y-185385771D01*
X205716483Y-185457200D01*
X205787912Y-185600057D01*
X205787912Y-185742914D01*
X205073626Y-185885771D01*
X206430769Y-186385771D02*
X206430769Y-185385771D01*
X206430769Y-185528629D02*
X206502197Y-185457200D01*
X206645055Y-185385771D01*
X206859340Y-185385771D01*
X207002197Y-185457200D01*
X207073626Y-185600057D01*
X207073626Y-186385771D01*
X207073626Y-185600057D02*
X207145055Y-185457200D01*
X207287912Y-185385771D01*
X207502197Y-185385771D01*
X207645055Y-185457200D01*
X207716483Y-185600057D01*
X207716483Y-186385771D01*
X209073626Y-186385771D02*
X209073626Y-185600057D01*
X209002197Y-185457200D01*
X208859340Y-185385771D01*
X208573626Y-185385771D01*
X208430769Y-185457200D01*
X209073626Y-186314343D02*
X208930769Y-186385771D01*
X208573626Y-186385771D01*
X208430769Y-186314343D01*
X208359340Y-186171486D01*
X208359340Y-186028629D01*
X208430769Y-185885771D01*
X208573626Y-185814343D01*
X208930769Y-185814343D01*
X209073626Y-185742914D01*
X209573626Y-185385771D02*
X210145055Y-185385771D01*
X209787912Y-184885771D02*
X209787912Y-186171486D01*
X209859340Y-186314343D01*
X210002198Y-186385771D01*
X210145055Y-186385771D01*
X210645055Y-186385771D02*
X210645055Y-185385771D01*
X210645055Y-184885771D02*
X210573626Y-184957200D01*
X210645055Y-185028629D01*
X210716483Y-184957200D01*
X210645055Y-184885771D01*
X210645055Y-185028629D01*
X212002198Y-186314343D02*
X211859341Y-186385771D01*
X211573627Y-186385771D01*
X211430769Y-186314343D01*
X211359341Y-186242914D01*
X211287912Y-186100057D01*
X211287912Y-185671486D01*
X211359341Y-185528629D01*
X211430769Y-185457200D01*
X211573627Y-185385771D01*
X211859341Y-185385771D01*
X212002198Y-185457200D01*
X212573626Y-186314343D02*
X212716483Y-186385771D01*
X213002198Y-186385771D01*
X213145055Y-186314343D01*
X213216483Y-186171486D01*
X213216483Y-186100057D01*
X213145055Y-185957200D01*
X213002198Y-185885771D01*
X212787912Y-185885771D01*
X212645055Y-185814343D01*
X212573626Y-185671486D01*
X212573626Y-185600057D01*
X212645055Y-185457200D01*
X212787912Y-185385771D01*
X213002198Y-185385771D01*
X213145055Y-185457200D01*
X213859341Y-186242914D02*
X213930769Y-186314343D01*
X213859341Y-186385771D01*
X213787912Y-186314343D01*
X213859341Y-186242914D01*
X213859341Y-186385771D01*
X214573627Y-186385771D02*
X214573627Y-184885771D01*
X214716484Y-185814343D02*
X215145055Y-186385771D01*
X215145055Y-185385771D02*
X214573627Y-185957200D01*
X215787913Y-186385771D02*
X215787913Y-185385771D01*
X215787913Y-184885771D02*
X215716484Y-184957200D01*
X215787913Y-185028629D01*
X215859341Y-184957200D01*
X215787913Y-184885771D01*
X215787913Y-185028629D01*
X217145056Y-186314343D02*
X217002199Y-186385771D01*
X216716485Y-186385771D01*
X216573627Y-186314343D01*
X216502199Y-186242914D01*
X216430770Y-186100057D01*
X216430770Y-185671486D01*
X216502199Y-185528629D01*
X216573627Y-185457200D01*
X216716485Y-185385771D01*
X217002199Y-185385771D01*
X217145056Y-185457200D01*
X218430770Y-186385771D02*
X218430770Y-185600057D01*
X218359341Y-185457200D01*
X218216484Y-185385771D01*
X217930770Y-185385771D01*
X217787913Y-185457200D01*
X218430770Y-186314343D02*
X218287913Y-186385771D01*
X217930770Y-186385771D01*
X217787913Y-186314343D01*
X217716484Y-186171486D01*
X217716484Y-186028629D01*
X217787913Y-185885771D01*
X217930770Y-185814343D01*
X218287913Y-185814343D01*
X218430770Y-185742914D01*
X219787913Y-186385771D02*
X219787913Y-184885771D01*
X219787913Y-186314343D02*
X219645056Y-186385771D01*
X219359342Y-186385771D01*
X219216484Y-186314343D01*
X219145056Y-186242914D01*
X219073627Y-186100057D01*
X219073627Y-185671486D01*
X219145056Y-185528629D01*
X219216484Y-185457200D01*
X219359342Y-185385771D01*
X219645056Y-185385771D01*
X219787913Y-185457200D01*
X220145056Y-186528629D02*
X221287913Y-186528629D01*
X221645056Y-185385771D02*
X221645056Y-186885771D01*
X221645056Y-185457200D02*
X221787913Y-185385771D01*
X222073627Y-185385771D01*
X222216484Y-185457200D01*
X222287913Y-185528629D01*
X222359342Y-185671486D01*
X222359342Y-186100057D01*
X222287913Y-186242914D01*
X222216484Y-186314343D01*
X222073627Y-186385771D01*
X221787913Y-186385771D01*
X221645056Y-186314343D01*
X223645056Y-186314343D02*
X223502199Y-186385771D01*
X223216485Y-186385771D01*
X223073627Y-186314343D01*
X223002199Y-186242914D01*
X222930770Y-186100057D01*
X222930770Y-185671486D01*
X223002199Y-185528629D01*
X223073627Y-185457200D01*
X223216485Y-185385771D01*
X223502199Y-185385771D01*
X223645056Y-185457200D01*
X224287913Y-186385771D02*
X224287913Y-184885771D01*
X224287913Y-185457200D02*
X224430770Y-185385771D01*
X224716484Y-185385771D01*
X224859341Y-185457200D01*
X224930770Y-185528629D01*
X225002199Y-185671486D01*
X225002199Y-186100057D01*
X224930770Y-186242914D01*
X224859341Y-186314343D01*
X224716484Y-186385771D01*
X224430770Y-186385771D01*
X224287913Y-186314343D01*
D10*
D11*
X177002200Y-181507200D02*
X285002200Y-181507200D01*
D10*
D11*
X178287914Y-183614343D02*
X178502200Y-183685771D01*
X178859343Y-183685771D01*
X179002200Y-183614343D01*
X179073629Y-183542914D01*
X179145057Y-183400057D01*
X179145057Y-183257200D01*
X179073629Y-183114343D01*
X179002200Y-183042914D01*
X178859343Y-182971486D01*
X178573629Y-182900057D01*
X178430771Y-182828629D01*
X178359343Y-182757200D01*
X178287914Y-182614343D01*
X178287914Y-182471486D01*
X178359343Y-182328629D01*
X178430771Y-182257200D01*
X178573629Y-182185771D01*
X178930771Y-182185771D01*
X179145057Y-182257200D01*
X179787914Y-183685771D02*
X179787914Y-182185771D01*
X180430771Y-183685771D02*
X180430771Y-182900057D01*
X180359342Y-182757200D01*
X180216485Y-182685771D01*
X180002200Y-182685771D01*
X179859342Y-182757200D01*
X179787914Y-182828629D01*
X181716485Y-183614343D02*
X181573628Y-183685771D01*
X181287914Y-183685771D01*
X181145057Y-183614343D01*
X181073628Y-183471486D01*
X181073628Y-182900057D01*
X181145057Y-182757200D01*
X181287914Y-182685771D01*
X181573628Y-182685771D01*
X181716485Y-182757200D01*
X181787914Y-182900057D01*
X181787914Y-183042914D01*
X181073628Y-183185771D01*
X183002199Y-183614343D02*
X182859342Y-183685771D01*
X182573628Y-183685771D01*
X182430771Y-183614343D01*
X182359342Y-183471486D01*
X182359342Y-182900057D01*
X182430771Y-182757200D01*
X182573628Y-182685771D01*
X182859342Y-182685771D01*
X183002199Y-182757200D01*
X183073628Y-182900057D01*
X183073628Y-183042914D01*
X182359342Y-183185771D01*
X183502199Y-182685771D02*
X184073628Y-182685771D01*
X183716485Y-182185771D02*
X183716485Y-183471486D01*
X183787913Y-183614343D01*
X183930771Y-183685771D01*
X184073628Y-183685771D01*
X184573628Y-183542914D02*
X184645056Y-183614343D01*
X184573628Y-183685771D01*
X184502199Y-183614343D01*
X184573628Y-183542914D01*
X184573628Y-183685771D01*
X184573628Y-182757200D02*
X184645056Y-182828629D01*
X184573628Y-182900057D01*
X184502199Y-182828629D01*
X184573628Y-182757200D01*
X184573628Y-182900057D01*
D10*
D11*
X197002200Y-191507200D02*
X197002200Y-194507200D01*
D10*
D11*
X261002200Y-191507200D02*
X261002200Y-198007200D01*
D14*
X172400000Y-74300000D02*
X172350000Y-84050000D01*
D12*
X175021429Y-81958571D02*
X174307143Y-81958571D01*
X174307143Y-80458571D01*
X175307143Y-80458571D02*
X175807143Y-81958571D01*
X176307143Y-80458571D01*
X167838572Y-81958571D02*
X167838572Y-80458571D01*
X167838572Y-81172857D02*
X168695715Y-81172857D01*
X168695715Y-81958571D02*
X168695715Y-80458571D01*
X169195715Y-80458571D02*
X169695715Y-81958571D01*
X170195715Y-80458571D01*
X160977605Y-108520976D02*
X161120461Y-108521541D01*
X161263034Y-108593534D01*
X161334181Y-108665245D01*
X161405044Y-108808383D01*
X161475342Y-109094377D01*
X161473931Y-109451517D01*
X161401374Y-109736947D01*
X161329381Y-109879520D01*
X161257670Y-109950666D01*
X161114532Y-110021529D01*
X160971676Y-110020964D01*
X160829103Y-109948972D01*
X160757956Y-109877262D01*
X160687094Y-109734123D01*
X160616795Y-109448129D01*
X160618206Y-109090989D01*
X160690764Y-108805560D01*
X160762756Y-108662986D01*
X160834467Y-108591840D01*
X160977605Y-108520976D01*
X162115089Y-109882626D02*
X162186234Y-109954337D01*
X162114524Y-110025482D01*
X162043378Y-109953772D01*
X162115089Y-109882626D01*
X162114524Y-110025482D01*
X163549014Y-108531140D02*
X162834733Y-108528317D01*
X162760482Y-109242315D01*
X162832193Y-109171170D01*
X162975331Y-109100306D01*
X163332471Y-109101717D01*
X163475045Y-109173711D01*
X163546191Y-109245420D01*
X163617053Y-109388559D01*
X163615642Y-109745699D01*
X163543650Y-109888272D01*
X163471939Y-109959418D01*
X163328801Y-110030281D01*
X162971661Y-110028870D01*
X162829087Y-109956877D01*
X162757941Y-109885167D01*
X164549005Y-108535092D02*
X164691861Y-108535657D01*
X164834434Y-108607650D01*
X164905581Y-108679361D01*
X164976444Y-108822499D01*
X165046743Y-109108493D01*
X165045331Y-109465633D01*
X164972774Y-109751063D01*
X164900781Y-109893636D01*
X164829070Y-109964783D01*
X164685932Y-110035645D01*
X164543076Y-110035081D01*
X164400503Y-109963089D01*
X164329357Y-109891378D01*
X164258494Y-109748240D01*
X164188195Y-109462246D01*
X164189606Y-109105105D01*
X164262164Y-108819676D01*
X164334156Y-108677102D01*
X164405867Y-108605956D01*
X164549005Y-108535092D01*
X166334705Y-108542151D02*
X166048993Y-108541021D01*
X165905855Y-108611885D01*
X165834144Y-108683031D01*
X165690442Y-108896750D01*
X165617884Y-109182180D01*
X165615625Y-109753604D01*
X165686489Y-109896742D01*
X165757634Y-109968453D01*
X165900209Y-110040445D01*
X166185920Y-110041574D01*
X166329059Y-109970711D01*
X166400769Y-109899565D01*
X166472761Y-109756992D01*
X166474173Y-109399851D01*
X166403310Y-109256713D01*
X166332164Y-109185004D01*
X166189591Y-109113010D01*
X165903879Y-109111881D01*
X165760740Y-109182745D01*
X165689030Y-109253890D01*
X165617037Y-109396464D01*
X167406125Y-108546385D02*
X167548981Y-108546950D01*
X167691554Y-108618943D01*
X167762700Y-108690654D01*
X167833564Y-108833792D01*
X167903862Y-109119786D01*
X167902451Y-109476926D01*
X167829894Y-109762356D01*
X167757901Y-109904929D01*
X167686190Y-109976076D01*
X167543052Y-110046938D01*
X167400196Y-110046374D01*
X167257622Y-109974382D01*
X167186476Y-109902671D01*
X167115613Y-109759533D01*
X167045314Y-109473539D01*
X167046726Y-109116398D01*
X167119284Y-108830969D01*
X167191276Y-108688395D01*
X167262987Y-108617249D01*
X167406125Y-108546385D01*
X169685892Y-110055408D02*
X169689845Y-109055416D01*
X169691821Y-108555420D02*
X169620110Y-108626566D01*
X169691256Y-108698277D01*
X169762966Y-108627131D01*
X169691821Y-108555420D01*
X169691256Y-108698277D01*
X170404125Y-109058239D02*
X170400172Y-110058231D01*
X170403560Y-109201096D02*
X170475270Y-109129950D01*
X170618409Y-109059086D01*
X170832693Y-109059933D01*
X170975266Y-109131926D01*
X171046130Y-109275064D01*
X171043024Y-110060772D01*
X159446312Y-107986349D02*
X172298712Y-108037149D01*
X159494467Y-95803120D02*
X159435640Y-110686328D01*
X172346867Y-95853920D02*
X172288040Y-110737128D01*
X172298712Y-108037149D02*
X171169899Y-108619113D01*
X172298712Y-108037149D02*
X171174535Y-107446280D01*
X159446312Y-107986349D02*
X160570489Y-108577218D01*
X159446312Y-107986349D02*
X160575125Y-107404385D01*
D15*
X117387858Y-93908571D02*
X117530715Y-93956190D01*
X117578334Y-94003810D01*
X117625953Y-94099048D01*
X117625953Y-94241905D01*
X117578334Y-94337143D01*
X117530715Y-94384762D01*
X117435477Y-94432381D01*
X117054524Y-94432381D01*
X117054524Y-93432381D01*
X117387858Y-93432381D01*
X117483096Y-93480000D01*
X117530715Y-93527619D01*
X117578334Y-93622857D01*
X117578334Y-93718095D01*
X117530715Y-93813333D01*
X117483096Y-93860952D01*
X117387858Y-93908571D01*
X117054524Y-93908571D01*
X118006905Y-94146667D02*
X118483096Y-94146667D01*
X117911667Y-94432381D02*
X118245000Y-93432381D01*
X118578334Y-94432381D01*
X118768810Y-93432381D02*
X119340239Y-93432381D01*
X119054524Y-94432381D02*
X119054524Y-93432381D01*
X119673572Y-94051429D02*
X120435477Y-94051429D01*
X120054525Y-94432381D02*
X120054525Y-93670476D01*
X120523095Y-108672381D02*
X121094524Y-108672381D01*
X120808809Y-109672381D02*
X120808809Y-108672381D01*
X121380238Y-109624762D02*
X121523095Y-109672381D01*
X121761191Y-109672381D01*
X121856429Y-109624762D01*
X121904048Y-109577143D01*
X121951667Y-109481905D01*
X121951667Y-109386667D01*
X121904048Y-109291429D01*
X121856429Y-109243810D01*
X121761191Y-109196190D01*
X121570714Y-109148571D01*
X121475476Y-109100952D01*
X121427857Y-109053333D01*
X121380238Y-108958095D01*
X121380238Y-108862857D01*
X121427857Y-108767619D01*
X121475476Y-108720000D01*
X121570714Y-108672381D01*
X121808810Y-108672381D01*
X121951667Y-108720000D01*
X147582048Y-112434667D02*
X148058239Y-112434667D01*
X147486810Y-112720381D02*
X147820143Y-111720381D01*
X148153477Y-112720381D01*
X148486810Y-112720381D02*
X148486810Y-111720381D01*
X149439191Y-112720381D02*
X148963000Y-112720381D01*
X148963000Y-111720381D01*
X137739572Y-104135181D02*
X137739572Y-103135181D01*
X138215762Y-104135181D02*
X138215762Y-103135181D01*
X138549096Y-103849467D01*
X138882429Y-103135181D01*
X138882429Y-104135181D01*
X139358619Y-104135181D02*
X139358619Y-103135181D01*
X139596714Y-103135181D01*
X139739572Y-103182800D01*
X139834810Y-103278038D01*
X139882429Y-103373276D01*
X139930048Y-103563752D01*
X139930048Y-103706610D01*
X139882429Y-103897086D01*
X139834810Y-103992324D01*
X139739572Y-104087562D01*
X139596714Y-104135181D01*
X139358619Y-104135181D01*
X174978572Y-91300000D02*
X174883334Y-91252381D01*
X174740477Y-91252381D01*
X174597619Y-91300000D01*
X174502381Y-91395238D01*
X174454762Y-91490476D01*
X174407143Y-91680952D01*
X174407143Y-91823810D01*
X174454762Y-92014286D01*
X174502381Y-92109524D01*
X174597619Y-92204762D01*
X174740477Y-92252381D01*
X174835715Y-92252381D01*
X174978572Y-92204762D01*
X175026191Y-92157143D01*
X175026191Y-91823810D01*
X174835715Y-91823810D01*
X175930953Y-92252381D02*
X175454762Y-92252381D01*
X175454762Y-91252381D01*
X176121429Y-91252381D02*
X176454762Y-92252381D01*
X176788096Y-91252381D01*
X115100381Y-84939048D02*
X115100381Y-84748571D01*
X115148000Y-84653333D01*
X115243238Y-84558095D01*
X115433714Y-84510476D01*
X115767048Y-84510476D01*
X115957524Y-84558095D01*
X116052762Y-84653333D01*
X116100381Y-84748571D01*
X116100381Y-84939048D01*
X116052762Y-85034286D01*
X115957524Y-85129524D01*
X115767048Y-85177143D01*
X115433714Y-85177143D01*
X115243238Y-85129524D01*
X115148000Y-85034286D01*
X115100381Y-84939048D01*
X115576571Y-84081905D02*
X115576571Y-83748571D01*
X116100381Y-83605714D02*
X116100381Y-84081905D01*
X115100381Y-84081905D01*
X115100381Y-83605714D01*
X116100381Y-83177143D02*
X115100381Y-83177143D01*
X115814667Y-82843809D01*
X115100381Y-82510476D01*
X116100381Y-82510476D01*
X117514667Y-89439048D02*
X117514667Y-88962857D01*
X117800381Y-89534286D02*
X116800381Y-89200953D01*
X117800381Y-88867619D01*
X117800381Y-88534286D02*
X116800381Y-88534286D01*
X117800381Y-87581905D02*
X117800381Y-88058096D01*
X116800381Y-88058096D01*
X117800381Y-86486667D02*
X116800381Y-86486667D01*
X116800381Y-86105714D01*
X116848000Y-86010476D01*
X116895619Y-85962857D01*
X116990857Y-85915238D01*
X117133714Y-85915238D01*
X117228952Y-85962857D01*
X117276571Y-86010476D01*
X117324190Y-86105714D01*
X117324190Y-86486667D01*
X117800381Y-84915238D02*
X117324190Y-85248572D01*
X117800381Y-85486667D02*
X116800381Y-85486667D01*
X116800381Y-85105714D01*
X116848000Y-85010476D01*
X116895619Y-84962857D01*
X116990857Y-84915238D01*
X117133714Y-84915238D01*
X117228952Y-84962857D01*
X117276571Y-85010476D01*
X117324190Y-85105714D01*
X117324190Y-85486667D01*
X117276571Y-84486667D02*
X117276571Y-84153333D01*
X117800381Y-84010476D02*
X117800381Y-84486667D01*
X116800381Y-84486667D01*
X116800381Y-84010476D01*
X117705143Y-83010476D02*
X117752762Y-83058095D01*
X117800381Y-83200952D01*
X117800381Y-83296190D01*
X117752762Y-83439048D01*
X117657524Y-83534286D01*
X117562286Y-83581905D01*
X117371810Y-83629524D01*
X117228952Y-83629524D01*
X117038476Y-83581905D01*
X116943238Y-83534286D01*
X116848000Y-83439048D01*
X116800381Y-83296190D01*
X116800381Y-83200952D01*
X116848000Y-83058095D01*
X116895619Y-83010476D01*
X117800381Y-82581905D02*
X116800381Y-82581905D01*
X117276571Y-82581905D02*
X117276571Y-82010476D01*
X117800381Y-82010476D02*
X116800381Y-82010476D01*
X117514667Y-81581905D02*
X117514667Y-81105714D01*
X117800381Y-81677143D02*
X116800381Y-81343810D01*
X117800381Y-81010476D01*
X117800381Y-80105714D02*
X117324190Y-80439048D01*
X117800381Y-80677143D02*
X116800381Y-80677143D01*
X116800381Y-80296190D01*
X116848000Y-80200952D01*
X116895619Y-80153333D01*
X116990857Y-80105714D01*
X117133714Y-80105714D01*
X117228952Y-80153333D01*
X117276571Y-80200952D01*
X117324190Y-80296190D01*
X117324190Y-80677143D01*
X116848000Y-79153333D02*
X116800381Y-79248571D01*
X116800381Y-79391428D01*
X116848000Y-79534286D01*
X116943238Y-79629524D01*
X117038476Y-79677143D01*
X117228952Y-79724762D01*
X117371810Y-79724762D01*
X117562286Y-79677143D01*
X117657524Y-79629524D01*
X117752762Y-79534286D01*
X117800381Y-79391428D01*
X117800381Y-79296190D01*
X117752762Y-79153333D01*
X117705143Y-79105714D01*
X117371810Y-79105714D01*
X117371810Y-79296190D01*
X117276571Y-78677143D02*
X117276571Y-78343809D01*
X117800381Y-78200952D02*
X117800381Y-78677143D01*
X116800381Y-78677143D01*
X116800381Y-78200952D01*
X119452762Y-89129524D02*
X119500381Y-88986667D01*
X119500381Y-88748571D01*
X119452762Y-88653333D01*
X119405143Y-88605714D01*
X119309905Y-88558095D01*
X119214667Y-88558095D01*
X119119429Y-88605714D01*
X119071810Y-88653333D01*
X119024190Y-88748571D01*
X118976571Y-88939048D01*
X118928952Y-89034286D01*
X118881333Y-89081905D01*
X118786095Y-89129524D01*
X118690857Y-89129524D01*
X118595619Y-89081905D01*
X118548000Y-89034286D01*
X118500381Y-88939048D01*
X118500381Y-88700952D01*
X118548000Y-88558095D01*
X119500381Y-88129524D02*
X118500381Y-88129524D01*
X118976571Y-88129524D02*
X118976571Y-87558095D01*
X119500381Y-87558095D02*
X118500381Y-87558095D01*
X118976571Y-87081905D02*
X118976571Y-86748571D01*
X119500381Y-86605714D02*
X119500381Y-87081905D01*
X118500381Y-87081905D01*
X118500381Y-86605714D01*
X119500381Y-85605714D02*
X119024190Y-85939048D01*
X119500381Y-86177143D02*
X118500381Y-86177143D01*
X118500381Y-85796190D01*
X118548000Y-85700952D01*
X118595619Y-85653333D01*
X118690857Y-85605714D01*
X118833714Y-85605714D01*
X118928952Y-85653333D01*
X118976571Y-85700952D01*
X119024190Y-85796190D01*
X119024190Y-86177143D01*
X119500381Y-84605714D02*
X119024190Y-84939048D01*
X119500381Y-85177143D02*
X118500381Y-85177143D01*
X118500381Y-84796190D01*
X118548000Y-84700952D01*
X118595619Y-84653333D01*
X118690857Y-84605714D01*
X118833714Y-84605714D01*
X118928952Y-84653333D01*
X118976571Y-84700952D01*
X119024190Y-84796190D01*
X119024190Y-85177143D01*
X119500381Y-84177143D02*
X118500381Y-84177143D01*
X118976571Y-83700953D02*
X118976571Y-83367619D01*
X119500381Y-83224762D02*
X119500381Y-83700953D01*
X118500381Y-83700953D01*
X118500381Y-83224762D01*
X119452762Y-82081905D02*
X119500381Y-81939048D01*
X119500381Y-81700952D01*
X119452762Y-81605714D01*
X119405143Y-81558095D01*
X119309905Y-81510476D01*
X119214667Y-81510476D01*
X119119429Y-81558095D01*
X119071810Y-81605714D01*
X119024190Y-81700952D01*
X118976571Y-81891429D01*
X118928952Y-81986667D01*
X118881333Y-82034286D01*
X118786095Y-82081905D01*
X118690857Y-82081905D01*
X118595619Y-82034286D01*
X118548000Y-81986667D01*
X118500381Y-81891429D01*
X118500381Y-81653333D01*
X118548000Y-81510476D01*
X119500381Y-81081905D02*
X118500381Y-81081905D01*
X118976571Y-81081905D02*
X118976571Y-80510476D01*
X119500381Y-80510476D02*
X118500381Y-80510476D01*
X118976571Y-80034286D02*
X118976571Y-79700952D01*
X119500381Y-79558095D02*
X119500381Y-80034286D01*
X118500381Y-80034286D01*
X118500381Y-79558095D01*
X119500381Y-79129524D02*
X118500381Y-79129524D01*
X119500381Y-78558095D01*
X118500381Y-78558095D01*
D11*
X143390000Y-116140000D02*
X146700000Y-116140000D01*
X146700000Y-116140000D02*
X146700000Y-108340000D01*
X146700000Y-108340000D02*
X143390000Y-108340000D01*
X143390000Y-108340000D02*
X137668000Y-108340000D01*
X143390000Y-116140000D02*
X137668000Y-116140000D01*
X143390000Y-108340000D02*
X143390000Y-116140000D01*
X137668000Y-108340000D02*
X137668000Y-116140000D01*
D16*
X127342000Y-93550000D02*
X127342000Y-104450000D01*
X127342000Y-93550000D02*
X123102000Y-93550000D01*
X123102000Y-104450000D02*
X127342000Y-104450000D01*
X123102000Y-104450000D02*
X123102000Y-93550000D01*
X141930000Y-105850000D02*
X142860000Y-105850000D01*
X145090000Y-105850000D02*
X144160000Y-105850000D01*
X145090000Y-105850000D02*
X145090000Y-103690000D01*
X141930000Y-105850000D02*
X141930000Y-104390000D01*
X133674000Y-97728500D02*
X132474000Y-97728500D01*
X132474000Y-97728500D02*
X132474000Y-95028500D01*
X137274000Y-93728500D02*
X137274000Y-97728500D01*
X137274000Y-97728500D02*
X136074000Y-97728500D01*
D11*
X128848500Y-112711000D02*
X132158500Y-112711000D01*
X132158500Y-112711000D02*
X132158500Y-104911000D01*
X132158500Y-104911000D02*
X128848500Y-104911000D01*
X128848500Y-104911000D02*
X123126500Y-104911000D01*
X128848500Y-112711000D02*
X123126500Y-112711000D01*
X128848500Y-104911000D02*
X128848500Y-112711000D01*
X123126500Y-104911000D02*
X123126500Y-112711000D01*
D16*
X175916000Y-106593000D02*
X145916000Y-106593000D01*
X145916000Y-106593000D02*
X145916000Y-93693000D01*
X175916000Y-93693000D02*
X145916000Y-93693000D01*
X175916000Y-106593000D02*
X175916000Y-93693000D01*
D17*
X121259000Y-97645000D02*
X120549000Y-97645000D01*
X120142000Y-98525000D02*
X120142000Y-98675000D01*
X120342000Y-98525000D02*
X120142000Y-98225000D01*
X119942000Y-98525000D02*
X120342000Y-98525000D01*
X120142000Y-98225000D02*
X119942000Y-98525000D01*
X120142000Y-98225000D02*
X120142000Y-98075000D01*
X119942000Y-98225000D02*
X120342000Y-98225000D01*
X120549000Y-97645000D02*
X120549000Y-98425000D01*
X121259000Y-97645000D02*
X121259000Y-98425000D01*
D16*
X135929500Y-105707500D02*
X132929500Y-105707500D01*
D10*
X132479500Y-109337500D02*
X132479500Y-109487500D01*
X132679500Y-109337500D02*
X132479500Y-109037500D01*
X132279500Y-109337500D02*
X132679500Y-109337500D01*
X132479500Y-109037500D02*
X132279500Y-109337500D01*
X132479500Y-109037500D02*
X132479500Y-108887500D01*
X132279500Y-109037500D02*
X132679500Y-109037500D01*
D16*
X132929500Y-105707500D02*
X132929500Y-109207500D01*
X135929500Y-105707500D02*
X135929500Y-109207500D01*
X132041000Y-93550000D02*
X132041000Y-104450000D01*
X132041000Y-93550000D02*
X127801000Y-93550000D01*
X127801000Y-104450000D02*
X132041000Y-104450000D01*
X127801000Y-104450000D02*
X127801000Y-93550000D01*
D11*
X119260000Y-103115000D02*
X122570000Y-103115000D01*
X122570000Y-103115000D02*
X122570000Y-95315000D01*
X122570000Y-95315000D02*
X119260000Y-95315000D01*
X119260000Y-95315000D02*
X113538000Y-95315000D01*
X119260000Y-103115000D02*
X113538000Y-103115000D01*
X119260000Y-95315000D02*
X119260000Y-103115000D01*
X113538000Y-95315000D02*
X113538000Y-103115000D01*
X171332000Y-90050000D02*
X171332000Y-93360000D01*
X171332000Y-93360000D02*
X179132000Y-93360000D01*
X179132000Y-93360000D02*
X179132000Y-90050000D01*
X179132000Y-90050000D02*
X179132000Y-84328000D01*
X171332000Y-90050000D02*
X171332000Y-84328000D01*
X179132000Y-90050000D02*
X171332000Y-90050000D01*
X179132000Y-84328000D02*
X171332000Y-84328000D01*
X145477000Y-96894000D02*
X145477000Y-93584000D01*
X145477000Y-93584000D02*
X137677000Y-93584000D01*
X137677000Y-93584000D02*
X137677000Y-96894000D01*
X137677000Y-96894000D02*
X137677000Y-102616000D01*
X145477000Y-96894000D02*
X145477000Y-102616000D01*
X137677000Y-96894000D02*
X145477000Y-96894000D01*
X137677000Y-102616000D02*
X145477000Y-102616000D01*
D16*
X141504000Y-96003000D02*
X140304000Y-96003000D01*
X140304000Y-94243000D02*
X141504000Y-94243000D01*
X140035800Y-107941000D02*
X138835800Y-107941000D01*
X138835800Y-106181000D02*
X140035800Y-106181000D01*
X134911500Y-101482000D02*
X136111500Y-101482000D01*
X136111500Y-103242000D02*
X134911500Y-103242000D01*
X136746000Y-77918000D02*
X153046000Y-77918000D01*
X123696000Y-67818000D02*
X166096000Y-67818000D01*
X136746000Y-77918000D02*
X136746000Y-83118000D01*
X153046000Y-77918000D02*
X153046000Y-83118000D01*
X136746000Y-83118000D02*
X153046000Y-83118000D01*
X123696000Y-93218000D02*
X166096000Y-93218000D01*
X166096000Y-93218000D02*
X166096000Y-67818000D01*
X123696000Y-93218000D02*
X123696000Y-67818000D01*
D11*
X121653334Y-104082857D02*
X121386667Y-104082857D01*
X121386667Y-104501905D02*
X121386667Y-103701905D01*
X121767620Y-103701905D01*
X122491429Y-104501905D02*
X122034286Y-104501905D01*
X122262857Y-104501905D02*
X122262857Y-103701905D01*
X122186667Y-103816190D01*
X122110476Y-103892381D01*
X122034286Y-103930476D01*
D10*
X144891133Y-108003133D02*
X144824467Y-107969800D01*
X144757800Y-107903133D01*
X144657800Y-107803133D01*
X144591133Y-107769800D01*
X144524467Y-107769800D01*
X144557800Y-107936467D02*
X144491133Y-107903133D01*
X144424467Y-107836467D01*
X144391133Y-107703133D01*
X144391133Y-107469800D01*
X144424467Y-107336467D01*
X144491133Y-107269800D01*
X144557800Y-107236467D01*
X144691133Y-107236467D01*
X144757800Y-107269800D01*
X144824467Y-107336467D01*
X144857800Y-107469800D01*
X144857800Y-107703133D01*
X144824467Y-107836467D01*
X144757800Y-107903133D01*
X144691133Y-107936467D01*
X144557800Y-107936467D01*
X145524466Y-107936467D02*
X145124466Y-107936467D01*
X145324466Y-107936467D02*
X145324466Y-107236467D01*
X145257800Y-107336467D01*
X145191133Y-107403133D01*
X145124466Y-107436467D01*
D11*
X133223095Y-99845881D02*
X133223095Y-100655405D01*
X133270714Y-100750643D01*
X133318333Y-100798262D01*
X133413571Y-100845881D01*
X133604048Y-100845881D01*
X133699286Y-100798262D01*
X133746905Y-100750643D01*
X133794524Y-100655405D01*
X133794524Y-99845881D01*
X134794524Y-100845881D02*
X134223095Y-100845881D01*
X134508809Y-100845881D02*
X134508809Y-99845881D01*
X134413571Y-99988738D01*
X134318333Y-100083976D01*
X134223095Y-100131595D01*
X177011905Y-100952381D02*
X177011905Y-99952381D01*
X177583334Y-100952381D02*
X177154762Y-100380952D01*
X177583334Y-99952381D02*
X177011905Y-100523810D01*
X178535715Y-100952381D02*
X177964286Y-100952381D01*
X178250000Y-100952381D02*
X178250000Y-99952381D01*
X178154762Y-100095238D01*
X178059524Y-100190476D01*
X177964286Y-100238095D01*
X120165905Y-101544381D02*
X120165905Y-100544381D01*
X120404000Y-100544381D01*
X120546858Y-100592000D01*
X120642096Y-100687238D01*
X120689715Y-100782476D01*
X120737334Y-100972952D01*
X120737334Y-101115810D01*
X120689715Y-101306286D01*
X120642096Y-101401524D01*
X120546858Y-101496762D01*
X120404000Y-101544381D01*
X120165905Y-101544381D01*
X121689715Y-101544381D02*
X121118286Y-101544381D01*
X121404000Y-101544381D02*
X121404000Y-100544381D01*
X121308762Y-100687238D01*
X121213524Y-100782476D01*
X121118286Y-100830095D01*
X133881905Y-114244381D02*
X133881905Y-113244381D01*
X134120000Y-113244381D01*
X134262858Y-113292000D01*
X134358096Y-113387238D01*
X134405715Y-113482476D01*
X134453334Y-113672952D01*
X134453334Y-113815810D01*
X134405715Y-114006286D01*
X134358096Y-114101524D01*
X134262858Y-114196762D01*
X134120000Y-114244381D01*
X133881905Y-114244381D01*
X134834286Y-113339619D02*
X134881905Y-113292000D01*
X134977143Y-113244381D01*
X135215239Y-113244381D01*
X135310477Y-113292000D01*
X135358096Y-113339619D01*
X135405715Y-113434857D01*
X135405715Y-113530095D01*
X135358096Y-113672952D01*
X134786667Y-114244381D01*
X135405715Y-114244381D01*
X132862667Y-102566000D02*
X132629334Y-102566000D01*
X132629334Y-102932667D02*
X132629334Y-102232667D01*
X132962667Y-102232667D01*
X133196000Y-102299333D02*
X133229334Y-102266000D01*
X133296000Y-102232667D01*
X133462667Y-102232667D01*
X133529334Y-102266000D01*
X133562667Y-102299333D01*
X133596000Y-102366000D01*
X133596000Y-102432667D01*
X133562667Y-102532667D01*
X133162667Y-102932667D01*
X133596000Y-102932667D01*
X138882381Y-95416666D02*
X138406190Y-95750000D01*
X138882381Y-95988095D02*
X137882381Y-95988095D01*
X137882381Y-95607142D01*
X137930000Y-95511904D01*
X137977619Y-95464285D01*
X138072857Y-95416666D01*
X138215714Y-95416666D01*
X138310952Y-95464285D01*
X138358571Y-95511904D01*
X138406190Y-95607142D01*
X138406190Y-95988095D01*
X137977619Y-95035714D02*
X137930000Y-94988095D01*
X137882381Y-94892857D01*
X137882381Y-94654761D01*
X137930000Y-94559523D01*
X137977619Y-94511904D01*
X138072857Y-94464285D01*
X138168095Y-94464285D01*
X138310952Y-94511904D01*
X138882381Y-95083333D01*
X138882381Y-94464285D01*
D10*
X142646534Y-110806667D02*
X142413200Y-110473333D01*
X142246534Y-110806667D02*
X142246534Y-110106667D01*
X142513200Y-110106667D01*
X142579867Y-110140000D01*
X142613200Y-110173333D01*
X142646534Y-110240000D01*
X142646534Y-110340000D01*
X142613200Y-110406667D01*
X142579867Y-110440000D01*
X142513200Y-110473333D01*
X142246534Y-110473333D01*
X142879867Y-110106667D02*
X143313200Y-110106667D01*
X143079867Y-110373333D01*
X143179867Y-110373333D01*
X143246534Y-110406667D01*
X143279867Y-110440000D01*
X143313200Y-110506667D01*
X143313200Y-110673333D01*
X143279867Y-110740000D01*
X143246534Y-110773333D01*
X143179867Y-110806667D01*
X142979867Y-110806667D01*
X142913200Y-110773333D01*
X142879867Y-110740000D01*
D11*
X134961334Y-104592381D02*
X134628000Y-104116190D01*
X134389905Y-104592381D02*
X134389905Y-103592381D01*
X134770858Y-103592381D01*
X134866096Y-103640000D01*
X134913715Y-103687619D01*
X134961334Y-103782857D01*
X134961334Y-103925714D01*
X134913715Y-104020952D01*
X134866096Y-104068571D01*
X134770858Y-104116190D01*
X134389905Y-104116190D01*
X135818477Y-103925714D02*
X135818477Y-104592381D01*
X135580381Y-103544762D02*
X135342286Y-104259048D01*
X135961334Y-104259048D01*
X145035834Y-81021181D02*
X144702500Y-80544990D01*
X144464405Y-81021181D02*
X144464405Y-80021181D01*
X144845358Y-80021181D01*
X144940596Y-80068800D01*
X144988215Y-80116419D01*
X145035834Y-80211657D01*
X145035834Y-80354514D01*
X144988215Y-80449752D01*
X144940596Y-80497371D01*
X144845358Y-80544990D01*
X144464405Y-80544990D01*
X145988215Y-81021181D02*
X145416786Y-81021181D01*
X145702500Y-81021181D02*
X145702500Y-80021181D01*
X145607262Y-80164038D01*
X145512024Y-80259276D01*
X145416786Y-80306895D01*
M02*
