G04 #@! TF.FileFunction,Legend,Top*
%FSLAX46Y46*%
G04 Gerber Fmt 4.6, Leading zero omitted, Abs format (unit mm)*
G04 Created by KiCad (PCBNEW 4.0.7-e2-6376~58~ubuntu16.04.1) date Sun Feb 11 11:03:39 2018*
%MOMM*%
%LPD*%
G01*
G04 APERTURE LIST*
%ADD10C,0.100000*%
%ADD11C,0.175000*%
%ADD12C,0.300000*%
%ADD13C,0.120000*%
%ADD14C,0.500000*%
%ADD15C,0.150000*%
G04 APERTURE END LIST*
D10*
X139531286Y-55030572D02*
X138781286Y-55030572D01*
X138781286Y-54744857D01*
X138817000Y-54673429D01*
X138852714Y-54637714D01*
X138924143Y-54602000D01*
X139031286Y-54602000D01*
X139102714Y-54637714D01*
X139138429Y-54673429D01*
X139174143Y-54744857D01*
X139174143Y-55030572D01*
X139459857Y-53852000D02*
X139495571Y-53887714D01*
X139531286Y-53994857D01*
X139531286Y-54066286D01*
X139495571Y-54173429D01*
X139424143Y-54244857D01*
X139352714Y-54280572D01*
X139209857Y-54316286D01*
X139102714Y-54316286D01*
X138959857Y-54280572D01*
X138888429Y-54244857D01*
X138817000Y-54173429D01*
X138781286Y-54066286D01*
X138781286Y-53994857D01*
X138817000Y-53887714D01*
X138852714Y-53852000D01*
X138781286Y-53209143D02*
X138781286Y-53352000D01*
X138817000Y-53423429D01*
X138852714Y-53459143D01*
X138959857Y-53530572D01*
X139102714Y-53566286D01*
X139388429Y-53566286D01*
X139459857Y-53530572D01*
X139495571Y-53494857D01*
X139531286Y-53423429D01*
X139531286Y-53280572D01*
X139495571Y-53209143D01*
X139459857Y-53173429D01*
X139388429Y-53137714D01*
X139209857Y-53137714D01*
X139138429Y-53173429D01*
X139102714Y-53209143D01*
X139067000Y-53280572D01*
X139067000Y-53423429D01*
X139102714Y-53494857D01*
X139138429Y-53530572D01*
X139209857Y-53566286D01*
X136991286Y-54268572D02*
X136241286Y-54268572D01*
X136241286Y-53982857D01*
X136277000Y-53911429D01*
X136312714Y-53875714D01*
X136384143Y-53840000D01*
X136491286Y-53840000D01*
X136562714Y-53875714D01*
X136598429Y-53911429D01*
X136634143Y-53982857D01*
X136634143Y-54268572D01*
X136598429Y-53268572D02*
X136634143Y-53161429D01*
X136669857Y-53125714D01*
X136741286Y-53090000D01*
X136848429Y-53090000D01*
X136919857Y-53125714D01*
X136955571Y-53161429D01*
X136991286Y-53232857D01*
X136991286Y-53518572D01*
X136241286Y-53518572D01*
X136241286Y-53268572D01*
X136277000Y-53197143D01*
X136312714Y-53161429D01*
X136384143Y-53125714D01*
X136455571Y-53125714D01*
X136527000Y-53161429D01*
X136562714Y-53197143D01*
X136598429Y-53268572D01*
X136598429Y-53518572D01*
X136241286Y-52840000D02*
X136241286Y-52375714D01*
X136527000Y-52625714D01*
X136527000Y-52518572D01*
X136562714Y-52447143D01*
X136598429Y-52411429D01*
X136669857Y-52375714D01*
X136848429Y-52375714D01*
X136919857Y-52411429D01*
X136955571Y-52447143D01*
X136991286Y-52518572D01*
X136991286Y-52732857D01*
X136955571Y-52804286D01*
X136919857Y-52840000D01*
X133943286Y-52998572D02*
X133193286Y-52998572D01*
X133193286Y-52712857D01*
X133229000Y-52641429D01*
X133264714Y-52605714D01*
X133336143Y-52570000D01*
X133443286Y-52570000D01*
X133514714Y-52605714D01*
X133550429Y-52641429D01*
X133586143Y-52712857D01*
X133586143Y-52998572D01*
X133550429Y-51998572D02*
X133586143Y-51891429D01*
X133621857Y-51855714D01*
X133693286Y-51820000D01*
X133800429Y-51820000D01*
X133871857Y-51855714D01*
X133907571Y-51891429D01*
X133943286Y-51962857D01*
X133943286Y-52248572D01*
X133193286Y-52248572D01*
X133193286Y-51998572D01*
X133229000Y-51927143D01*
X133264714Y-51891429D01*
X133336143Y-51855714D01*
X133407571Y-51855714D01*
X133479000Y-51891429D01*
X133514714Y-51927143D01*
X133550429Y-51998572D01*
X133550429Y-52248572D01*
X133443286Y-51177143D02*
X133943286Y-51177143D01*
X133157571Y-51355714D02*
X133693286Y-51534286D01*
X133693286Y-51070000D01*
D11*
X116090738Y-93868857D02*
X116090738Y-94297429D01*
X116090738Y-94083143D02*
X115360738Y-94083143D01*
X115465024Y-94154572D01*
X115534548Y-94226000D01*
X115569310Y-94297429D01*
X117900738Y-94333143D02*
X117900738Y-93868857D01*
X118178833Y-94118857D01*
X118178833Y-94011715D01*
X118213595Y-93940286D01*
X118248357Y-93904572D01*
X118317881Y-93868857D01*
X118491690Y-93868857D01*
X118561214Y-93904572D01*
X118595976Y-93940286D01*
X118630738Y-94011715D01*
X118630738Y-94226000D01*
X118595976Y-94297429D01*
X118561214Y-94333143D01*
X120440738Y-93904572D02*
X120440738Y-94261715D01*
X120788357Y-94297429D01*
X120753595Y-94261715D01*
X120718833Y-94190286D01*
X120718833Y-94011715D01*
X120753595Y-93940286D01*
X120788357Y-93904572D01*
X120857881Y-93868857D01*
X121031690Y-93868857D01*
X121101214Y-93904572D01*
X121135976Y-93940286D01*
X121170738Y-94011715D01*
X121170738Y-94190286D01*
X121135976Y-94261715D01*
X121101214Y-94297429D01*
X122980738Y-94333143D02*
X122980738Y-93833143D01*
X123710738Y-94154572D01*
X126250738Y-94226000D02*
X126250738Y-94083143D01*
X126215976Y-94011715D01*
X126181214Y-93976000D01*
X126076929Y-93904572D01*
X125937881Y-93868857D01*
X125659786Y-93868857D01*
X125590262Y-93904572D01*
X125555500Y-93940286D01*
X125520738Y-94011715D01*
X125520738Y-94154572D01*
X125555500Y-94226000D01*
X125590262Y-94261715D01*
X125659786Y-94297429D01*
X125833595Y-94297429D01*
X125903119Y-94261715D01*
X125937881Y-94226000D01*
X125972643Y-94154572D01*
X125972643Y-94011715D01*
X125937881Y-93940286D01*
X125903119Y-93904572D01*
X125833595Y-93868857D01*
X128790738Y-94583143D02*
X128790738Y-95011715D01*
X128790738Y-94797429D02*
X128060738Y-94797429D01*
X128165024Y-94868858D01*
X128234548Y-94940286D01*
X128269310Y-95011715D01*
X128790738Y-93868857D02*
X128790738Y-94297429D01*
X128790738Y-94083143D02*
X128060738Y-94083143D01*
X128165024Y-94154572D01*
X128234548Y-94226000D01*
X128269310Y-94297429D01*
X131330738Y-94583143D02*
X131330738Y-95011715D01*
X131330738Y-94797429D02*
X130600738Y-94797429D01*
X130705024Y-94868858D01*
X130774548Y-94940286D01*
X130809310Y-95011715D01*
X130600738Y-94333143D02*
X130600738Y-93868857D01*
X130878833Y-94118857D01*
X130878833Y-94011715D01*
X130913595Y-93940286D01*
X130948357Y-93904572D01*
X131017881Y-93868857D01*
X131191690Y-93868857D01*
X131261214Y-93904572D01*
X131295976Y-93940286D01*
X131330738Y-94011715D01*
X131330738Y-94226000D01*
X131295976Y-94297429D01*
X131261214Y-94333143D01*
X133870738Y-94583143D02*
X133870738Y-95011715D01*
X133870738Y-94797429D02*
X133140738Y-94797429D01*
X133245024Y-94868858D01*
X133314548Y-94940286D01*
X133349310Y-95011715D01*
X133140738Y-93904572D02*
X133140738Y-94261715D01*
X133488357Y-94297429D01*
X133453595Y-94261715D01*
X133418833Y-94190286D01*
X133418833Y-94011715D01*
X133453595Y-93940286D01*
X133488357Y-93904572D01*
X133557881Y-93868857D01*
X133731690Y-93868857D01*
X133801214Y-93904572D01*
X133835976Y-93940286D01*
X133870738Y-94011715D01*
X133870738Y-94190286D01*
X133835976Y-94261715D01*
X133801214Y-94297429D01*
X136410738Y-94583143D02*
X136410738Y-95011715D01*
X136410738Y-94797429D02*
X135680738Y-94797429D01*
X135785024Y-94868858D01*
X135854548Y-94940286D01*
X135889310Y-95011715D01*
X135680738Y-94333143D02*
X135680738Y-93833143D01*
X136410738Y-94154572D01*
X138950738Y-94583143D02*
X138950738Y-95011715D01*
X138950738Y-94797429D02*
X138220738Y-94797429D01*
X138325024Y-94868858D01*
X138394548Y-94940286D01*
X138429310Y-95011715D01*
X138950738Y-94226000D02*
X138950738Y-94083143D01*
X138915976Y-94011715D01*
X138881214Y-93976000D01*
X138776929Y-93904572D01*
X138637881Y-93868857D01*
X138359786Y-93868857D01*
X138290262Y-93904572D01*
X138255500Y-93940286D01*
X138220738Y-94011715D01*
X138220738Y-94154572D01*
X138255500Y-94226000D01*
X138290262Y-94261715D01*
X138359786Y-94297429D01*
X138533595Y-94297429D01*
X138603119Y-94261715D01*
X138637881Y-94226000D01*
X138672643Y-94154572D01*
X138672643Y-94011715D01*
X138637881Y-93940286D01*
X138603119Y-93904572D01*
X138533595Y-93868857D01*
D10*
X144413000Y-71725286D02*
X144841571Y-71725286D01*
X144627285Y-72475286D02*
X144627285Y-71725286D01*
X145484429Y-72475286D02*
X145055857Y-72475286D01*
X145270143Y-72475286D02*
X145270143Y-71725286D01*
X145198714Y-71832429D01*
X145127286Y-71903857D01*
X145055857Y-71939571D01*
X146163000Y-72475286D02*
X145805857Y-72475286D01*
X145805857Y-71725286D01*
X144341572Y-62581286D02*
X144770143Y-62581286D01*
X144555857Y-63331286D02*
X144555857Y-62581286D01*
X144984429Y-62652714D02*
X145020143Y-62617000D01*
X145091572Y-62581286D01*
X145270143Y-62581286D01*
X145341572Y-62617000D01*
X145377286Y-62652714D01*
X145413001Y-62724143D01*
X145413001Y-62795571D01*
X145377286Y-62902714D01*
X144948715Y-63331286D01*
X145413001Y-63331286D01*
X146163001Y-63331286D02*
X145913001Y-62974143D01*
X145734429Y-63331286D02*
X145734429Y-62581286D01*
X146020144Y-62581286D01*
X146091572Y-62617000D01*
X146127287Y-62652714D01*
X146163001Y-62724143D01*
X146163001Y-62831286D01*
X146127287Y-62902714D01*
X146091572Y-62938429D01*
X146020144Y-62974143D01*
X145734429Y-62974143D01*
X126005786Y-53697143D02*
X125255786Y-53697143D01*
X125970071Y-53375714D02*
X126005786Y-53268571D01*
X126005786Y-53090000D01*
X125970071Y-53018571D01*
X125934357Y-52982857D01*
X125862929Y-52947142D01*
X125791500Y-52947142D01*
X125720071Y-52982857D01*
X125684357Y-53018571D01*
X125648643Y-53090000D01*
X125612929Y-53232857D01*
X125577214Y-53304285D01*
X125541500Y-53340000D01*
X125470071Y-53375714D01*
X125398643Y-53375714D01*
X125327214Y-53340000D01*
X125291500Y-53304285D01*
X125255786Y-53232857D01*
X125255786Y-53054285D01*
X125291500Y-52947142D01*
X119072429Y-54657429D02*
X119072429Y-54407429D01*
X119465286Y-54300286D02*
X119465286Y-54657429D01*
X118715286Y-54657429D01*
X118715286Y-54300286D01*
X119429571Y-54014572D02*
X119465286Y-53907429D01*
X119465286Y-53728858D01*
X119429571Y-53657429D01*
X119393857Y-53621715D01*
X119322429Y-53586000D01*
X119251000Y-53586000D01*
X119179571Y-53621715D01*
X119143857Y-53657429D01*
X119108143Y-53728858D01*
X119072429Y-53871715D01*
X119036714Y-53943143D01*
X119001000Y-53978858D01*
X118929571Y-54014572D01*
X118858143Y-54014572D01*
X118786714Y-53978858D01*
X118751000Y-53943143D01*
X118715286Y-53871715D01*
X118715286Y-53693143D01*
X118751000Y-53586000D01*
X118715286Y-53371714D02*
X118715286Y-52943143D01*
X119465286Y-53157429D02*
X118715286Y-53157429D01*
X118715286Y-52550285D02*
X118715286Y-52407428D01*
X118751000Y-52336000D01*
X118822429Y-52264571D01*
X118965286Y-52228857D01*
X119215286Y-52228857D01*
X119358143Y-52264571D01*
X119429571Y-52336000D01*
X119465286Y-52407428D01*
X119465286Y-52550285D01*
X119429571Y-52621714D01*
X119358143Y-52693143D01*
X119215286Y-52728857D01*
X118965286Y-52728857D01*
X118822429Y-52693143D01*
X118751000Y-52621714D01*
X118715286Y-52550285D01*
X119465286Y-51907429D02*
X118715286Y-51907429D01*
X118715286Y-51621714D01*
X118751000Y-51550286D01*
X118786714Y-51514571D01*
X118858143Y-51478857D01*
X118965286Y-51478857D01*
X119036714Y-51514571D01*
X119072429Y-51550286D01*
X119108143Y-51621714D01*
X119108143Y-51907429D01*
X119072429Y-65244143D02*
X119108143Y-65137000D01*
X119143857Y-65101285D01*
X119215286Y-65065571D01*
X119322429Y-65065571D01*
X119393857Y-65101285D01*
X119429571Y-65137000D01*
X119465286Y-65208428D01*
X119465286Y-65494143D01*
X118715286Y-65494143D01*
X118715286Y-65244143D01*
X118751000Y-65172714D01*
X118786714Y-65137000D01*
X118858143Y-65101285D01*
X118929571Y-65101285D01*
X119001000Y-65137000D01*
X119036714Y-65172714D01*
X119072429Y-65244143D01*
X119072429Y-65494143D01*
X118715286Y-64601285D02*
X118715286Y-64458428D01*
X118751000Y-64387000D01*
X118822429Y-64315571D01*
X118965286Y-64279857D01*
X119215286Y-64279857D01*
X119358143Y-64315571D01*
X119429571Y-64387000D01*
X119465286Y-64458428D01*
X119465286Y-64601285D01*
X119429571Y-64672714D01*
X119358143Y-64744143D01*
X119215286Y-64779857D01*
X118965286Y-64779857D01*
X118822429Y-64744143D01*
X118751000Y-64672714D01*
X118715286Y-64601285D01*
X118715286Y-64065571D02*
X118715286Y-63637000D01*
X119465286Y-63851286D02*
X118715286Y-63851286D01*
X119429571Y-63422714D02*
X119465286Y-63315571D01*
X119465286Y-63137000D01*
X119429571Y-63065571D01*
X119393857Y-63029857D01*
X119322429Y-62994142D01*
X119251000Y-62994142D01*
X119179571Y-63029857D01*
X119143857Y-63065571D01*
X119108143Y-63137000D01*
X119072429Y-63279857D01*
X119036714Y-63351285D01*
X119001000Y-63387000D01*
X118929571Y-63422714D01*
X118858143Y-63422714D01*
X118786714Y-63387000D01*
X118751000Y-63351285D01*
X118715286Y-63279857D01*
X118715286Y-63101285D01*
X118751000Y-62994142D01*
X111083286Y-77936142D02*
X111083286Y-78364714D01*
X111083286Y-78150428D02*
X110333286Y-78150428D01*
X110440429Y-78221857D01*
X110511857Y-78293285D01*
X110547571Y-78364714D01*
X110404714Y-77650428D02*
X110369000Y-77614714D01*
X110333286Y-77543285D01*
X110333286Y-77364714D01*
X110369000Y-77293285D01*
X110404714Y-77257571D01*
X110476143Y-77221856D01*
X110547571Y-77221856D01*
X110654714Y-77257571D01*
X111083286Y-77686142D01*
X111083286Y-77221856D01*
X110333286Y-77007570D02*
X111083286Y-76757570D01*
X110333286Y-76507570D01*
X111083286Y-75900428D02*
X111083286Y-76257571D01*
X110333286Y-76257571D01*
X110690429Y-75650428D02*
X110690429Y-75400428D01*
X111083286Y-75293285D02*
X111083286Y-75650428D01*
X110333286Y-75650428D01*
X110333286Y-75293285D01*
X111083286Y-74971857D02*
X110333286Y-74971857D01*
X110333286Y-74793285D01*
X110369000Y-74686142D01*
X110440429Y-74614714D01*
X110511857Y-74578999D01*
X110654714Y-74543285D01*
X110761857Y-74543285D01*
X110904714Y-74578999D01*
X110976143Y-74614714D01*
X111047571Y-74686142D01*
X111083286Y-74793285D01*
X111083286Y-74971857D01*
X107793286Y-64914714D02*
X107793286Y-65271857D01*
X108150429Y-65307571D01*
X108114714Y-65271857D01*
X108079000Y-65200428D01*
X108079000Y-65021857D01*
X108114714Y-64950428D01*
X108150429Y-64914714D01*
X108221857Y-64878999D01*
X108400429Y-64878999D01*
X108471857Y-64914714D01*
X108507571Y-64950428D01*
X108543286Y-65021857D01*
X108543286Y-65200428D01*
X108507571Y-65271857D01*
X108471857Y-65307571D01*
X107793286Y-64664713D02*
X108543286Y-64414713D01*
X107793286Y-64164713D01*
X108543286Y-63557571D02*
X108543286Y-63914714D01*
X107793286Y-63914714D01*
X108150429Y-63307571D02*
X108150429Y-63057571D01*
X108543286Y-62950428D02*
X108543286Y-63307571D01*
X107793286Y-63307571D01*
X107793286Y-62950428D01*
X108543286Y-62629000D02*
X107793286Y-62629000D01*
X107793286Y-62450428D01*
X107829000Y-62343285D01*
X107900429Y-62271857D01*
X107971857Y-62236142D01*
X108114714Y-62200428D01*
X108221857Y-62200428D01*
X108364714Y-62236142D01*
X108436143Y-62271857D01*
X108507571Y-62343285D01*
X108543286Y-62450428D01*
X108543286Y-62629000D01*
D12*
X150390714Y-91876714D02*
X150462143Y-91948143D01*
X150533571Y-92162429D01*
X150533571Y-92305286D01*
X150462143Y-92519571D01*
X150319286Y-92662429D01*
X150176429Y-92733857D01*
X149890714Y-92805286D01*
X149676429Y-92805286D01*
X149390714Y-92733857D01*
X149247857Y-92662429D01*
X149105000Y-92519571D01*
X149033571Y-92305286D01*
X149033571Y-92162429D01*
X149105000Y-91948143D01*
X149176429Y-91876714D01*
X150533571Y-91019571D02*
X150462143Y-91162429D01*
X150390714Y-91233857D01*
X150247857Y-91305286D01*
X149819286Y-91305286D01*
X149676429Y-91233857D01*
X149605000Y-91162429D01*
X149533571Y-91019571D01*
X149533571Y-90805286D01*
X149605000Y-90662429D01*
X149676429Y-90591000D01*
X149819286Y-90519571D01*
X150247857Y-90519571D01*
X150390714Y-90591000D01*
X150462143Y-90662429D01*
X150533571Y-90805286D01*
X150533571Y-91019571D01*
X150533571Y-89876714D02*
X149533571Y-89876714D01*
X149819286Y-89876714D02*
X149676429Y-89805286D01*
X149605000Y-89733857D01*
X149533571Y-89591000D01*
X149533571Y-89448143D01*
X150462143Y-88376715D02*
X150533571Y-88519572D01*
X150533571Y-88805286D01*
X150462143Y-88948143D01*
X150319286Y-89019572D01*
X149747857Y-89019572D01*
X149605000Y-88948143D01*
X149533571Y-88805286D01*
X149533571Y-88519572D01*
X149605000Y-88376715D01*
X149747857Y-88305286D01*
X149890714Y-88305286D01*
X150033571Y-89019572D01*
X149533571Y-87805286D02*
X150533571Y-87448143D01*
X149533571Y-87091001D02*
X150533571Y-87448143D01*
X150890714Y-87591001D01*
X150962143Y-87662429D01*
X151033571Y-87805286D01*
X150390714Y-84519572D02*
X150462143Y-84591001D01*
X150533571Y-84805287D01*
X150533571Y-84948144D01*
X150462143Y-85162429D01*
X150319286Y-85305287D01*
X150176429Y-85376715D01*
X149890714Y-85448144D01*
X149676429Y-85448144D01*
X149390714Y-85376715D01*
X149247857Y-85305287D01*
X149105000Y-85162429D01*
X149033571Y-84948144D01*
X149033571Y-84805287D01*
X149105000Y-84591001D01*
X149176429Y-84519572D01*
X150533571Y-83662429D02*
X150462143Y-83805287D01*
X150390714Y-83876715D01*
X150247857Y-83948144D01*
X149819286Y-83948144D01*
X149676429Y-83876715D01*
X149605000Y-83805287D01*
X149533571Y-83662429D01*
X149533571Y-83448144D01*
X149605000Y-83305287D01*
X149676429Y-83233858D01*
X149819286Y-83162429D01*
X150247857Y-83162429D01*
X150390714Y-83233858D01*
X150462143Y-83305287D01*
X150533571Y-83448144D01*
X150533571Y-83662429D01*
X150462143Y-81876715D02*
X150533571Y-82019572D01*
X150533571Y-82305286D01*
X150462143Y-82448144D01*
X150390714Y-82519572D01*
X150247857Y-82591001D01*
X149819286Y-82591001D01*
X149676429Y-82519572D01*
X149605000Y-82448144D01*
X149533571Y-82305286D01*
X149533571Y-82019572D01*
X149605000Y-81876715D01*
X150533571Y-81233858D02*
X149033571Y-81233858D01*
X150533571Y-80591001D02*
X149747857Y-80591001D01*
X149605000Y-80662430D01*
X149533571Y-80805287D01*
X149533571Y-81019572D01*
X149605000Y-81162430D01*
X149676429Y-81233858D01*
X150533571Y-79876715D02*
X149533571Y-79876715D01*
X149819286Y-79876715D02*
X149676429Y-79805287D01*
X149605000Y-79733858D01*
X149533571Y-79591001D01*
X149533571Y-79448144D01*
X150533571Y-78305287D02*
X149747857Y-78305287D01*
X149605000Y-78376716D01*
X149533571Y-78519573D01*
X149533571Y-78805287D01*
X149605000Y-78948144D01*
X150462143Y-78305287D02*
X150533571Y-78448144D01*
X150533571Y-78805287D01*
X150462143Y-78948144D01*
X150319286Y-79019573D01*
X150176429Y-79019573D01*
X150033571Y-78948144D01*
X149962143Y-78805287D01*
X149962143Y-78448144D01*
X149890714Y-78305287D01*
X149533571Y-77591001D02*
X150533571Y-77591001D01*
X149676429Y-77591001D02*
X149605000Y-77519573D01*
X149533571Y-77376715D01*
X149533571Y-77162430D01*
X149605000Y-77019573D01*
X149747857Y-76948144D01*
X150533571Y-76948144D01*
X149962143Y-76233858D02*
X149962143Y-75091001D01*
X150533571Y-73662429D02*
X150533571Y-74376715D01*
X149033571Y-74376715D01*
X150462143Y-72591001D02*
X150533571Y-72733858D01*
X150533571Y-73019572D01*
X150462143Y-73162429D01*
X150319286Y-73233858D01*
X149747857Y-73233858D01*
X149605000Y-73162429D01*
X149533571Y-73019572D01*
X149533571Y-72733858D01*
X149605000Y-72591001D01*
X149747857Y-72519572D01*
X149890714Y-72519572D01*
X150033571Y-73233858D01*
X149533571Y-71876715D02*
X151033571Y-71876715D01*
X149605000Y-71876715D02*
X149533571Y-71733858D01*
X149533571Y-71448144D01*
X149605000Y-71305287D01*
X149676429Y-71233858D01*
X149819286Y-71162429D01*
X150247857Y-71162429D01*
X150390714Y-71233858D01*
X150462143Y-71305287D01*
X150533571Y-71448144D01*
X150533571Y-71733858D01*
X150462143Y-71876715D01*
X150533571Y-70519572D02*
X149533571Y-70519572D01*
X149033571Y-70519572D02*
X149105000Y-70591001D01*
X149176429Y-70519572D01*
X149105000Y-70448144D01*
X149033571Y-70519572D01*
X149176429Y-70519572D01*
X149533571Y-69948143D02*
X149533571Y-69162429D01*
X150533571Y-69948143D01*
X150533571Y-69162429D01*
X149962143Y-67448143D02*
X149962143Y-66305286D01*
X149033571Y-64662429D02*
X149033571Y-63805286D01*
X150533571Y-64233857D02*
X149033571Y-64233857D01*
X150533571Y-63305286D02*
X149033571Y-63305286D01*
X150533571Y-62662429D02*
X149747857Y-62662429D01*
X149605000Y-62733858D01*
X149533571Y-62876715D01*
X149533571Y-63091000D01*
X149605000Y-63233858D01*
X149676429Y-63305286D01*
X150533571Y-61948143D02*
X149533571Y-61948143D01*
X149819286Y-61948143D02*
X149676429Y-61876715D01*
X149605000Y-61805286D01*
X149533571Y-61662429D01*
X149533571Y-61519572D01*
X150533571Y-60805286D02*
X150462143Y-60948144D01*
X150390714Y-61019572D01*
X150247857Y-61091001D01*
X149819286Y-61091001D01*
X149676429Y-61019572D01*
X149605000Y-60948144D01*
X149533571Y-60805286D01*
X149533571Y-60591001D01*
X149605000Y-60448144D01*
X149676429Y-60376715D01*
X149819286Y-60305286D01*
X150247857Y-60305286D01*
X150390714Y-60376715D01*
X150462143Y-60448144D01*
X150533571Y-60591001D01*
X150533571Y-60805286D01*
X149533571Y-59876715D02*
X149533571Y-59305286D01*
X149033571Y-59662429D02*
X150319286Y-59662429D01*
X150462143Y-59591001D01*
X150533571Y-59448143D01*
X150533571Y-59305286D01*
X149533571Y-59019572D02*
X149533571Y-58448143D01*
X149033571Y-58805286D02*
X150319286Y-58805286D01*
X150462143Y-58733858D01*
X150533571Y-58591000D01*
X150533571Y-58448143D01*
X150533571Y-57733857D02*
X150462143Y-57876715D01*
X150319286Y-57948143D01*
X149033571Y-57948143D01*
X150462143Y-56591001D02*
X150533571Y-56733858D01*
X150533571Y-57019572D01*
X150462143Y-57162429D01*
X150319286Y-57233858D01*
X149747857Y-57233858D01*
X149605000Y-57162429D01*
X149533571Y-57019572D01*
X149533571Y-56733858D01*
X149605000Y-56591001D01*
X149747857Y-56519572D01*
X149890714Y-56519572D01*
X150033571Y-57233858D01*
X151583571Y-92448143D02*
X151583571Y-92162429D01*
X151655000Y-92019571D01*
X151797857Y-91876714D01*
X152083571Y-91805286D01*
X152583571Y-91805286D01*
X152869286Y-91876714D01*
X153012143Y-92019571D01*
X153083571Y-92162429D01*
X153083571Y-92448143D01*
X153012143Y-92591000D01*
X152869286Y-92733857D01*
X152583571Y-92805286D01*
X152083571Y-92805286D01*
X151797857Y-92733857D01*
X151655000Y-92591000D01*
X151583571Y-92448143D01*
X153083571Y-90948142D02*
X153012143Y-91091000D01*
X152869286Y-91162428D01*
X151583571Y-91162428D01*
X153083571Y-90376714D02*
X152083571Y-90376714D01*
X151583571Y-90376714D02*
X151655000Y-90448143D01*
X151726429Y-90376714D01*
X151655000Y-90305286D01*
X151583571Y-90376714D01*
X151726429Y-90376714D01*
X152083571Y-89662428D02*
X153083571Y-89662428D01*
X152226429Y-89662428D02*
X152155000Y-89591000D01*
X152083571Y-89448142D01*
X152083571Y-89233857D01*
X152155000Y-89091000D01*
X152297857Y-89019571D01*
X153083571Y-89019571D01*
X152297857Y-87162428D02*
X152297857Y-86662428D01*
X153083571Y-86448142D02*
X153083571Y-87162428D01*
X151583571Y-87162428D01*
X151583571Y-86448142D01*
X153083571Y-85590999D02*
X153012143Y-85733857D01*
X152869286Y-85805285D01*
X151583571Y-85805285D01*
X153012143Y-84448143D02*
X153083571Y-84591000D01*
X153083571Y-84876714D01*
X153012143Y-85019571D01*
X152869286Y-85091000D01*
X152297857Y-85091000D01*
X152155000Y-85019571D01*
X152083571Y-84876714D01*
X152083571Y-84591000D01*
X152155000Y-84448143D01*
X152297857Y-84376714D01*
X152440714Y-84376714D01*
X152583571Y-85091000D01*
X153012143Y-83091000D02*
X153083571Y-83233857D01*
X153083571Y-83519571D01*
X153012143Y-83662429D01*
X152940714Y-83733857D01*
X152797857Y-83805286D01*
X152369286Y-83805286D01*
X152226429Y-83733857D01*
X152155000Y-83662429D01*
X152083571Y-83519571D01*
X152083571Y-83233857D01*
X152155000Y-83091000D01*
X152083571Y-82662429D02*
X152083571Y-82091000D01*
X151583571Y-82448143D02*
X152869286Y-82448143D01*
X153012143Y-82376715D01*
X153083571Y-82233857D01*
X153083571Y-82091000D01*
X153083571Y-81591000D02*
X152083571Y-81591000D01*
X152369286Y-81591000D02*
X152226429Y-81519572D01*
X152155000Y-81448143D01*
X152083571Y-81305286D01*
X152083571Y-81162429D01*
X153083571Y-80662429D02*
X152083571Y-80662429D01*
X151583571Y-80662429D02*
X151655000Y-80733858D01*
X151726429Y-80662429D01*
X151655000Y-80591001D01*
X151583571Y-80662429D01*
X151726429Y-80662429D01*
X153012143Y-79305286D02*
X153083571Y-79448143D01*
X153083571Y-79733857D01*
X153012143Y-79876715D01*
X152940714Y-79948143D01*
X152797857Y-80019572D01*
X152369286Y-80019572D01*
X152226429Y-79948143D01*
X152155000Y-79876715D01*
X152083571Y-79733857D01*
X152083571Y-79448143D01*
X152155000Y-79305286D01*
X153083571Y-77519572D02*
X151583571Y-77519572D01*
X152655000Y-77019572D01*
X151583571Y-76519572D01*
X153083571Y-76519572D01*
X153083571Y-75591000D02*
X153012143Y-75733858D01*
X152940714Y-75805286D01*
X152797857Y-75876715D01*
X152369286Y-75876715D01*
X152226429Y-75805286D01*
X152155000Y-75733858D01*
X152083571Y-75591000D01*
X152083571Y-75376715D01*
X152155000Y-75233858D01*
X152226429Y-75162429D01*
X152369286Y-75091000D01*
X152797857Y-75091000D01*
X152940714Y-75162429D01*
X153012143Y-75233858D01*
X153083571Y-75376715D01*
X153083571Y-75591000D01*
X152083571Y-74662429D02*
X152083571Y-74091000D01*
X151583571Y-74448143D02*
X152869286Y-74448143D01*
X153012143Y-74376715D01*
X153083571Y-74233857D01*
X153083571Y-74091000D01*
X153083571Y-73376714D02*
X153012143Y-73519572D01*
X152940714Y-73591000D01*
X152797857Y-73662429D01*
X152369286Y-73662429D01*
X152226429Y-73591000D01*
X152155000Y-73519572D01*
X152083571Y-73376714D01*
X152083571Y-73162429D01*
X152155000Y-73019572D01*
X152226429Y-72948143D01*
X152369286Y-72876714D01*
X152797857Y-72876714D01*
X152940714Y-72948143D01*
X153012143Y-73019572D01*
X153083571Y-73162429D01*
X153083571Y-73376714D01*
X153083571Y-72233857D02*
X152083571Y-72233857D01*
X152369286Y-72233857D02*
X152226429Y-72162429D01*
X152155000Y-72091000D01*
X152083571Y-71948143D01*
X152083571Y-71805286D01*
X153012143Y-71376715D02*
X153083571Y-71233858D01*
X153083571Y-70948143D01*
X153012143Y-70805286D01*
X152869286Y-70733858D01*
X152797857Y-70733858D01*
X152655000Y-70805286D01*
X152583571Y-70948143D01*
X152583571Y-71162429D01*
X152512143Y-71305286D01*
X152369286Y-71376715D01*
X152297857Y-71376715D01*
X152155000Y-71305286D01*
X152083571Y-71162429D01*
X152083571Y-70948143D01*
X152155000Y-70805286D01*
X152083571Y-70091000D02*
X153583571Y-70091000D01*
X152155000Y-70091000D02*
X152083571Y-69948143D01*
X152083571Y-69662429D01*
X152155000Y-69519572D01*
X152226429Y-69448143D01*
X152369286Y-69376714D01*
X152797857Y-69376714D01*
X152940714Y-69448143D01*
X153012143Y-69519572D01*
X153083571Y-69662429D01*
X153083571Y-69948143D01*
X153012143Y-70091000D01*
X153083571Y-68519571D02*
X153012143Y-68662429D01*
X152940714Y-68733857D01*
X152797857Y-68805286D01*
X152369286Y-68805286D01*
X152226429Y-68733857D01*
X152155000Y-68662429D01*
X152083571Y-68519571D01*
X152083571Y-68305286D01*
X152155000Y-68162429D01*
X152226429Y-68091000D01*
X152369286Y-68019571D01*
X152797857Y-68019571D01*
X152940714Y-68091000D01*
X153012143Y-68162429D01*
X153083571Y-68305286D01*
X153083571Y-68519571D01*
X153083571Y-67376714D02*
X152083571Y-67376714D01*
X152369286Y-67376714D02*
X152226429Y-67305286D01*
X152155000Y-67233857D01*
X152083571Y-67091000D01*
X152083571Y-66948143D01*
X152083571Y-66662429D02*
X152083571Y-66091000D01*
X151583571Y-66448143D02*
X152869286Y-66448143D01*
X153012143Y-66376715D01*
X153083571Y-66233857D01*
X153083571Y-66091000D01*
X153012143Y-65662429D02*
X153083571Y-65519572D01*
X153083571Y-65233857D01*
X153012143Y-65091000D01*
X152869286Y-65019572D01*
X152797857Y-65019572D01*
X152655000Y-65091000D01*
X152583571Y-65233857D01*
X152583571Y-65448143D01*
X152512143Y-65591000D01*
X152369286Y-65662429D01*
X152297857Y-65662429D01*
X152155000Y-65591000D01*
X152083571Y-65448143D01*
X152083571Y-65233857D01*
X152155000Y-65091000D01*
X152512143Y-64376714D02*
X152512143Y-63233857D01*
X151583571Y-62733857D02*
X153083571Y-62233857D01*
X151583571Y-61733857D01*
X151726429Y-61305286D02*
X151655000Y-61233857D01*
X151583571Y-61091000D01*
X151583571Y-60733857D01*
X151655000Y-60591000D01*
X151726429Y-60519571D01*
X151869286Y-60448143D01*
X152012143Y-60448143D01*
X152226429Y-60519571D01*
X153083571Y-61376714D01*
X153083571Y-60448143D01*
X152940714Y-59805286D02*
X153012143Y-59733858D01*
X153083571Y-59805286D01*
X153012143Y-59876715D01*
X152940714Y-59805286D01*
X153083571Y-59805286D01*
X151583571Y-58805286D02*
X151583571Y-58662429D01*
X151655000Y-58519572D01*
X151726429Y-58448143D01*
X151869286Y-58376714D01*
X152155000Y-58305286D01*
X152512143Y-58305286D01*
X152797857Y-58376714D01*
X152940714Y-58448143D01*
X153012143Y-58519572D01*
X153083571Y-58662429D01*
X153083571Y-58805286D01*
X153012143Y-58948143D01*
X152940714Y-59019572D01*
X152797857Y-59091000D01*
X152512143Y-59162429D01*
X152155000Y-59162429D01*
X151869286Y-59091000D01*
X151726429Y-59019572D01*
X151655000Y-58948143D01*
X151583571Y-58805286D01*
D13*
X145359500Y-79272500D02*
X146359500Y-79272500D01*
X146359500Y-77572500D02*
X145359500Y-77572500D01*
X139765000Y-59160000D02*
X138365000Y-59160000D01*
D10*
X137995000Y-60814000D02*
X137595000Y-60814000D01*
X137795000Y-60814000D02*
X137995000Y-61114000D01*
X137595000Y-61114000D02*
X137795000Y-60814000D01*
X137995000Y-61114000D02*
X137595000Y-61114000D01*
D13*
X138365000Y-59160000D02*
X138365000Y-61960000D01*
X139765000Y-59160000D02*
X139765000Y-61960000D01*
X137225000Y-59160000D02*
X135825000Y-59160000D01*
D10*
X135455000Y-60814000D02*
X135055000Y-60814000D01*
X135255000Y-60814000D02*
X135455000Y-61114000D01*
X135055000Y-61114000D02*
X135255000Y-60814000D01*
X135455000Y-61114000D02*
X135055000Y-61114000D01*
D13*
X135825000Y-59160000D02*
X135825000Y-61960000D01*
X137225000Y-59160000D02*
X137225000Y-61960000D01*
X134685000Y-57255000D02*
X133285000Y-57255000D01*
D10*
X132915000Y-58909000D02*
X132515000Y-58909000D01*
X132715000Y-58909000D02*
X132915000Y-59209000D01*
X132515000Y-59209000D02*
X132715000Y-58909000D01*
X132915000Y-59209000D02*
X132515000Y-59209000D01*
D13*
X133285000Y-57255000D02*
X133285000Y-60055000D01*
X134685000Y-57255000D02*
X134685000Y-60055000D01*
X139945000Y-56550000D02*
X139945000Y-57750000D01*
X138185000Y-57750000D02*
X138185000Y-56550000D01*
X137405000Y-55915000D02*
X137405000Y-57115000D01*
X135645000Y-57115000D02*
X135645000Y-55915000D01*
X134230000Y-54581500D02*
X134230000Y-55781500D01*
X132470000Y-55781500D02*
X132470000Y-54581500D01*
X120150000Y-71970000D02*
X121150000Y-71970000D01*
X121150000Y-70270000D02*
X120150000Y-70270000D01*
X125977487Y-73344594D02*
X126684594Y-72637487D01*
X125482513Y-71435406D02*
X124775406Y-72142513D01*
X140755000Y-57920000D02*
X140755000Y-58920000D01*
X142455000Y-58920000D02*
X142455000Y-57920000D01*
X111510000Y-83550000D02*
X111510000Y-81550000D01*
X109470000Y-81550000D02*
X109470000Y-83550000D01*
X101180000Y-80510000D02*
X101180000Y-79510000D01*
X99480000Y-79510000D02*
X99480000Y-80510000D01*
X135707500Y-83082500D02*
X136707500Y-83082500D01*
X136707500Y-81382500D02*
X135707500Y-81382500D01*
X101020500Y-66777500D02*
X100020500Y-66777500D01*
X100020500Y-68477500D02*
X101020500Y-68477500D01*
X136390000Y-74080000D02*
X135390000Y-74080000D01*
X135390000Y-75780000D02*
X136390000Y-75780000D01*
X123085000Y-57850000D02*
X123085000Y-56450000D01*
D10*
X121431000Y-56080000D02*
X121431000Y-55680000D01*
X121431000Y-55880000D02*
X121131000Y-56080000D01*
X121131000Y-55680000D02*
X121431000Y-55880000D01*
X121131000Y-56080000D02*
X121131000Y-55680000D01*
D13*
X123085000Y-56450000D02*
X120285000Y-56450000D01*
X123085000Y-57850000D02*
X120285000Y-57850000D01*
X113877500Y-56262500D02*
X113877500Y-54862500D01*
D10*
X112223500Y-54492500D02*
X112223500Y-54092500D01*
X112223500Y-54292500D02*
X111923500Y-54492500D01*
X111923500Y-54092500D02*
X112223500Y-54292500D01*
X111923500Y-54492500D02*
X111923500Y-54092500D01*
D13*
X113877500Y-54862500D02*
X111077500Y-54862500D01*
X113877500Y-56262500D02*
X111077500Y-56262500D01*
X113877500Y-65787500D02*
X113877500Y-64387500D01*
D10*
X112223500Y-64017500D02*
X112223500Y-63617500D01*
X112223500Y-63817500D02*
X111923500Y-64017500D01*
X111923500Y-63617500D02*
X112223500Y-63817500D01*
X111923500Y-64017500D02*
X111923500Y-63617500D01*
D13*
X113877500Y-64387500D02*
X111077500Y-64387500D01*
X113877500Y-65787500D02*
X111077500Y-65787500D01*
X111125000Y-88963500D02*
X111125000Y-86296500D01*
D10*
X107566000Y-85934000D02*
X107416000Y-85934000D01*
X107566000Y-86134000D02*
X107866000Y-85934000D01*
X107566000Y-85734000D02*
X107566000Y-86134000D01*
X107866000Y-85934000D02*
X107566000Y-85734000D01*
X107866000Y-85934000D02*
X108016000Y-85934000D01*
X107866000Y-85734000D02*
X107866000Y-86134000D01*
D13*
X111125000Y-86296500D02*
X107950000Y-86296500D01*
X111125000Y-88963500D02*
X107950000Y-88963500D01*
X110020000Y-73330000D02*
X108420000Y-73330000D01*
X108420000Y-73330000D02*
X108420000Y-75930000D01*
X110020000Y-73330000D02*
X110020000Y-75930000D01*
X107480000Y-61900000D02*
X105880000Y-61900000D01*
X105880000Y-61900000D02*
X105880000Y-64500000D01*
X107480000Y-61900000D02*
X107480000Y-64500000D01*
X103140000Y-82340000D02*
X105140000Y-82340000D01*
X105140000Y-85300000D02*
X103140000Y-85300000D01*
X142840000Y-70730000D02*
X141640000Y-70730000D01*
X141640000Y-68970000D02*
X142840000Y-68970000D01*
X122165000Y-60360000D02*
X122165000Y-61560000D01*
X120405000Y-61560000D02*
X120405000Y-60360000D01*
X122945000Y-61560000D02*
X122945000Y-60360000D01*
X124705000Y-60360000D02*
X124705000Y-61560000D01*
X146295000Y-66075000D02*
X146295000Y-67275000D01*
X144535000Y-67275000D02*
X144535000Y-66075000D01*
X141640000Y-62620000D02*
X142840000Y-62620000D01*
X142840000Y-64380000D02*
X141640000Y-64380000D01*
X127245000Y-60360000D02*
X127245000Y-61560000D01*
X125485000Y-61560000D02*
X125485000Y-60360000D01*
X112957500Y-58772500D02*
X112957500Y-59972500D01*
X111197500Y-59972500D02*
X111197500Y-58772500D01*
X113737500Y-59972500D02*
X113737500Y-58772500D01*
X115497500Y-58772500D02*
X115497500Y-59972500D01*
X118037500Y-58772500D02*
X118037500Y-59972500D01*
X116277500Y-59972500D02*
X116277500Y-58772500D01*
X142840000Y-79620000D02*
X141640000Y-79620000D01*
X141640000Y-77860000D02*
X142840000Y-77860000D01*
X146295000Y-74965000D02*
X146295000Y-76165000D01*
X144535000Y-76165000D02*
X144535000Y-74965000D01*
X141640000Y-71510000D02*
X142840000Y-71510000D01*
X142840000Y-73270000D02*
X141640000Y-73270000D01*
X112957500Y-68297500D02*
X112957500Y-69497500D01*
X111197500Y-69497500D02*
X111197500Y-68297500D01*
X113737500Y-69497500D02*
X113737500Y-68297500D01*
X115497500Y-68297500D02*
X115497500Y-69497500D01*
X118037500Y-68297500D02*
X118037500Y-69497500D01*
X116277500Y-69497500D02*
X116277500Y-68297500D01*
X143265000Y-59020000D02*
X143265000Y-57820000D01*
X145025000Y-57820000D02*
X145025000Y-59020000D01*
X110100000Y-78140000D02*
X110100000Y-79340000D01*
X108340000Y-79340000D02*
X108340000Y-78140000D01*
X108830000Y-81950000D02*
X108830000Y-83150000D01*
X107070000Y-83150000D02*
X107070000Y-81950000D01*
X108620000Y-68335000D02*
X109820000Y-68335000D01*
X109820000Y-70095000D02*
X108620000Y-70095000D01*
X108620000Y-70875000D02*
X109820000Y-70875000D01*
X109820000Y-72635000D02*
X108620000Y-72635000D01*
X131055000Y-76870000D02*
X131055000Y-78070000D01*
X129295000Y-78070000D02*
X129295000Y-76870000D01*
X133595000Y-76870000D02*
X133595000Y-78070000D01*
X131835000Y-78070000D02*
X131835000Y-76870000D01*
X98174500Y-57679500D02*
X103374500Y-57679500D01*
X103374500Y-61319500D02*
X98174500Y-61319500D01*
X124425000Y-66285000D02*
X123225000Y-66285000D01*
X123225000Y-64525000D02*
X124425000Y-64525000D01*
X103260000Y-64100000D02*
X103260000Y-62900000D01*
X105020000Y-62900000D02*
X105020000Y-64100000D01*
X143850000Y-67575000D02*
X143850000Y-65775000D01*
X140630000Y-65775000D02*
X140630000Y-68225000D01*
X143850000Y-76465000D02*
X143850000Y-74665000D01*
X140630000Y-74665000D02*
X140630000Y-77115000D01*
X102605000Y-81620000D02*
X104405000Y-81620000D01*
X104405000Y-78400000D02*
X101955000Y-78400000D01*
D10*
X134607500Y-80422500D02*
X134607500Y-78422500D01*
X134607500Y-80422500D02*
X136207500Y-80422500D01*
D14*
X128377054Y-67962961D02*
G75*
G03X128377054Y-67962961I-50801J0D01*
G01*
X126042186Y-67819276D02*
G75*
G03X126042186Y-67819276I-50800J0D01*
G01*
D15*
X126953476Y-67945000D02*
X127112575Y-68104099D01*
X132080000Y-62818476D02*
X132309810Y-63048286D01*
X137206524Y-67945000D02*
X136976714Y-67715190D01*
X132080000Y-73071524D02*
X131850190Y-72841714D01*
X126953476Y-67945000D02*
X127183286Y-67715190D01*
X132080000Y-73071524D02*
X132309810Y-72841714D01*
X137206524Y-67945000D02*
X136976714Y-68174810D01*
X132080000Y-62818476D02*
X131850190Y-63048286D01*
X127112575Y-68104099D02*
X126104948Y-69111726D01*
X127035000Y-76030000D02*
X126985000Y-76030000D01*
X127035000Y-80180000D02*
X126890000Y-80180000D01*
X121885000Y-80180000D02*
X122030000Y-80180000D01*
X121885000Y-76030000D02*
X122030000Y-76030000D01*
X127035000Y-76030000D02*
X127035000Y-80180000D01*
X121885000Y-76030000D02*
X121885000Y-80180000D01*
X126985000Y-76030000D02*
X126985000Y-74630000D01*
D13*
X127310000Y-55120000D02*
X126380000Y-55120000D01*
X124150000Y-55120000D02*
X125080000Y-55120000D01*
X124150000Y-55120000D02*
X124150000Y-57280000D01*
X127310000Y-55120000D02*
X127310000Y-56580000D01*
X118102500Y-53532500D02*
X117172500Y-53532500D01*
X114942500Y-53532500D02*
X115872500Y-53532500D01*
X114942500Y-53532500D02*
X114942500Y-55692500D01*
X118102500Y-53532500D02*
X118102500Y-54992500D01*
X118102500Y-63057500D02*
X117172500Y-63057500D01*
X114942500Y-63057500D02*
X115872500Y-63057500D01*
X114942500Y-63057500D02*
X114942500Y-65217500D01*
X118102500Y-63057500D02*
X118102500Y-64517500D01*
D15*
X142640000Y-92756500D02*
X142640000Y-87456500D01*
X112630000Y-92756500D02*
X112630000Y-87456500D01*
X142640000Y-92756500D02*
X112630000Y-92756500D01*
X142640000Y-87456500D02*
X112630000Y-87456500D01*
X108032500Y-52053000D02*
X108032500Y-46753000D01*
X98342500Y-52053000D02*
X98342500Y-46753000D01*
X108032500Y-52053000D02*
X98342500Y-52053000D01*
X108032500Y-46753000D02*
X98342500Y-46753000D01*
D13*
X145613500Y-70382500D02*
X146613500Y-70382500D01*
X146613500Y-68682500D02*
X145613500Y-68682500D01*
X100195000Y-64491500D02*
X99195000Y-64491500D01*
X99195000Y-66191500D02*
X100195000Y-66191500D01*
X99433000Y-62332500D02*
X98433000Y-62332500D01*
X98433000Y-64032500D02*
X99433000Y-64032500D01*
X130483571Y-57083939D02*
X130483571Y-56153939D01*
X130483571Y-53923939D02*
X130483571Y-54853939D01*
X130483571Y-53923939D02*
X128323571Y-53923939D01*
X130483571Y-57083939D02*
X129023571Y-57083939D01*
X129003500Y-57857500D02*
X130203500Y-57857500D01*
X130203500Y-59617500D02*
X129003500Y-59617500D01*
D15*
X145218214Y-80422714D02*
X145180119Y-80460810D01*
X145065833Y-80498905D01*
X144989643Y-80498905D01*
X144875357Y-80460810D01*
X144799166Y-80384619D01*
X144761071Y-80308429D01*
X144722976Y-80156048D01*
X144722976Y-80041762D01*
X144761071Y-79889381D01*
X144799166Y-79813190D01*
X144875357Y-79737000D01*
X144989643Y-79698905D01*
X145065833Y-79698905D01*
X145180119Y-79737000D01*
X145218214Y-79775095D01*
X145980119Y-80498905D02*
X145522976Y-80498905D01*
X145751547Y-80498905D02*
X145751547Y-79698905D01*
X145675357Y-79813190D01*
X145599166Y-79889381D01*
X145522976Y-79927476D01*
X146475357Y-79698905D02*
X146551548Y-79698905D01*
X146627738Y-79737000D01*
X146665833Y-79775095D01*
X146703929Y-79851286D01*
X146742024Y-80003667D01*
X146742024Y-80194143D01*
X146703929Y-80346524D01*
X146665833Y-80422714D01*
X146627738Y-80460810D01*
X146551548Y-80498905D01*
X146475357Y-80498905D01*
X146399167Y-80460810D01*
X146361071Y-80422714D01*
X146322976Y-80346524D01*
X146284881Y-80194143D01*
X146284881Y-80003667D01*
X146322976Y-79851286D01*
X146361071Y-79775095D01*
X146399167Y-79737000D01*
X146475357Y-79698905D01*
X138374381Y-60428095D02*
X137374381Y-60428095D01*
X137374381Y-60190000D01*
X137422000Y-60047142D01*
X137517238Y-59951904D01*
X137612476Y-59904285D01*
X137802952Y-59856666D01*
X137945810Y-59856666D01*
X138136286Y-59904285D01*
X138231524Y-59951904D01*
X138326762Y-60047142D01*
X138374381Y-60190000D01*
X138374381Y-60428095D01*
X138374381Y-58904285D02*
X138374381Y-59475714D01*
X138374381Y-59190000D02*
X137374381Y-59190000D01*
X137517238Y-59285238D01*
X137612476Y-59380476D01*
X137660095Y-59475714D01*
X135834381Y-60428095D02*
X134834381Y-60428095D01*
X134834381Y-60190000D01*
X134882000Y-60047142D01*
X134977238Y-59951904D01*
X135072476Y-59904285D01*
X135262952Y-59856666D01*
X135405810Y-59856666D01*
X135596286Y-59904285D01*
X135691524Y-59951904D01*
X135786762Y-60047142D01*
X135834381Y-60190000D01*
X135834381Y-60428095D01*
X134929619Y-59475714D02*
X134882000Y-59428095D01*
X134834381Y-59332857D01*
X134834381Y-59094761D01*
X134882000Y-58999523D01*
X134929619Y-58951904D01*
X135024857Y-58904285D01*
X135120095Y-58904285D01*
X135262952Y-58951904D01*
X135834381Y-59523333D01*
X135834381Y-58904285D01*
X133040381Y-58650095D02*
X132040381Y-58650095D01*
X132040381Y-58412000D01*
X132088000Y-58269142D01*
X132183238Y-58173904D01*
X132278476Y-58126285D01*
X132468952Y-58078666D01*
X132611810Y-58078666D01*
X132802286Y-58126285D01*
X132897524Y-58173904D01*
X132992762Y-58269142D01*
X133040381Y-58412000D01*
X133040381Y-58650095D01*
X132040381Y-57745333D02*
X132040381Y-57126285D01*
X132421333Y-57459619D01*
X132421333Y-57316761D01*
X132468952Y-57221523D01*
X132516571Y-57173904D01*
X132611810Y-57126285D01*
X132849905Y-57126285D01*
X132945143Y-57173904D01*
X132992762Y-57221523D01*
X133040381Y-57316761D01*
X133040381Y-57602476D01*
X132992762Y-57697714D01*
X132945143Y-57745333D01*
X138120381Y-56554666D02*
X137644190Y-56888000D01*
X138120381Y-57126095D02*
X137120381Y-57126095D01*
X137120381Y-56745142D01*
X137168000Y-56649904D01*
X137215619Y-56602285D01*
X137310857Y-56554666D01*
X137453714Y-56554666D01*
X137548952Y-56602285D01*
X137596571Y-56649904D01*
X137644190Y-56745142D01*
X137644190Y-57126095D01*
X138120381Y-55602285D02*
X138120381Y-56173714D01*
X138120381Y-55888000D02*
X137120381Y-55888000D01*
X137263238Y-55983238D01*
X137358476Y-56078476D01*
X137406095Y-56173714D01*
X135580381Y-55792666D02*
X135104190Y-56126000D01*
X135580381Y-56364095D02*
X134580381Y-56364095D01*
X134580381Y-55983142D01*
X134628000Y-55887904D01*
X134675619Y-55840285D01*
X134770857Y-55792666D01*
X134913714Y-55792666D01*
X135008952Y-55840285D01*
X135056571Y-55887904D01*
X135104190Y-55983142D01*
X135104190Y-56364095D01*
X134675619Y-55411714D02*
X134628000Y-55364095D01*
X134580381Y-55268857D01*
X134580381Y-55030761D01*
X134628000Y-54935523D01*
X134675619Y-54887904D01*
X134770857Y-54840285D01*
X134866095Y-54840285D01*
X135008952Y-54887904D01*
X135580381Y-55459333D01*
X135580381Y-54840285D01*
X132405381Y-54967166D02*
X131929190Y-55300500D01*
X132405381Y-55538595D02*
X131405381Y-55538595D01*
X131405381Y-55157642D01*
X131453000Y-55062404D01*
X131500619Y-55014785D01*
X131595857Y-54967166D01*
X131738714Y-54967166D01*
X131833952Y-55014785D01*
X131881571Y-55062404D01*
X131929190Y-55157642D01*
X131929190Y-55538595D01*
X131405381Y-54633833D02*
X131405381Y-54014785D01*
X131786333Y-54348119D01*
X131786333Y-54205261D01*
X131833952Y-54110023D01*
X131881571Y-54062404D01*
X131976810Y-54014785D01*
X132214905Y-54014785D01*
X132310143Y-54062404D01*
X132357762Y-54110023D01*
X132405381Y-54205261D01*
X132405381Y-54490976D01*
X132357762Y-54586214D01*
X132310143Y-54633833D01*
X120483334Y-69953143D02*
X120435715Y-70000762D01*
X120292858Y-70048381D01*
X120197620Y-70048381D01*
X120054762Y-70000762D01*
X119959524Y-69905524D01*
X119911905Y-69810286D01*
X119864286Y-69619810D01*
X119864286Y-69476952D01*
X119911905Y-69286476D01*
X119959524Y-69191238D01*
X120054762Y-69096000D01*
X120197620Y-69048381D01*
X120292858Y-69048381D01*
X120435715Y-69096000D01*
X120483334Y-69143619D01*
X121435715Y-70048381D02*
X120864286Y-70048381D01*
X121150000Y-70048381D02*
X121150000Y-69048381D01*
X121054762Y-69191238D01*
X120959524Y-69286476D01*
X120864286Y-69334095D01*
X123832688Y-72506389D02*
X123832688Y-72573732D01*
X123765344Y-72708419D01*
X123698001Y-72775763D01*
X123563313Y-72843107D01*
X123428626Y-72843107D01*
X123327611Y-72809435D01*
X123159253Y-72708420D01*
X123058237Y-72607404D01*
X122957222Y-72439045D01*
X122923550Y-72338030D01*
X122923550Y-72203343D01*
X122990894Y-72068656D01*
X123058237Y-72001312D01*
X123192924Y-71933969D01*
X123260268Y-71933969D01*
X123529641Y-71664595D02*
X123529641Y-71597252D01*
X123563313Y-71496237D01*
X123731672Y-71327877D01*
X123832688Y-71294206D01*
X123900031Y-71294206D01*
X124001046Y-71327877D01*
X124068390Y-71395221D01*
X124135733Y-71529908D01*
X124135733Y-72338030D01*
X124573466Y-71900297D01*
X141438334Y-56237143D02*
X141390715Y-56284762D01*
X141247858Y-56332381D01*
X141152620Y-56332381D01*
X141009762Y-56284762D01*
X140914524Y-56189524D01*
X140866905Y-56094286D01*
X140819286Y-55903810D01*
X140819286Y-55760952D01*
X140866905Y-55570476D01*
X140914524Y-55475238D01*
X141009762Y-55380000D01*
X141152620Y-55332381D01*
X141247858Y-55332381D01*
X141390715Y-55380000D01*
X141438334Y-55427619D01*
X141771667Y-55332381D02*
X142390715Y-55332381D01*
X142057381Y-55713333D01*
X142200239Y-55713333D01*
X142295477Y-55760952D01*
X142343096Y-55808571D01*
X142390715Y-55903810D01*
X142390715Y-56141905D01*
X142343096Y-56237143D01*
X142295477Y-56284762D01*
X142200239Y-56332381D01*
X141914524Y-56332381D01*
X141819286Y-56284762D01*
X141771667Y-56237143D01*
X112597143Y-82716666D02*
X112644762Y-82764285D01*
X112692381Y-82907142D01*
X112692381Y-83002380D01*
X112644762Y-83145238D01*
X112549524Y-83240476D01*
X112454286Y-83288095D01*
X112263810Y-83335714D01*
X112120952Y-83335714D01*
X111930476Y-83288095D01*
X111835238Y-83240476D01*
X111740000Y-83145238D01*
X111692381Y-83002380D01*
X111692381Y-82907142D01*
X111740000Y-82764285D01*
X111787619Y-82716666D01*
X112025714Y-81859523D02*
X112692381Y-81859523D01*
X111644762Y-82097619D02*
X112359048Y-82335714D01*
X112359048Y-81716666D01*
X99163143Y-80176666D02*
X99210762Y-80224285D01*
X99258381Y-80367142D01*
X99258381Y-80462380D01*
X99210762Y-80605238D01*
X99115524Y-80700476D01*
X99020286Y-80748095D01*
X98829810Y-80795714D01*
X98686952Y-80795714D01*
X98496476Y-80748095D01*
X98401238Y-80700476D01*
X98306000Y-80605238D01*
X98258381Y-80462380D01*
X98258381Y-80367142D01*
X98306000Y-80224285D01*
X98353619Y-80176666D01*
X98258381Y-79271904D02*
X98258381Y-79748095D01*
X98734571Y-79795714D01*
X98686952Y-79748095D01*
X98639333Y-79652857D01*
X98639333Y-79414761D01*
X98686952Y-79319523D01*
X98734571Y-79271904D01*
X98829810Y-79224285D01*
X99067905Y-79224285D01*
X99163143Y-79271904D01*
X99210762Y-79319523D01*
X99258381Y-79414761D01*
X99258381Y-79652857D01*
X99210762Y-79748095D01*
X99163143Y-79795714D01*
X134143714Y-82175333D02*
X134181810Y-82213428D01*
X134219905Y-82327714D01*
X134219905Y-82403904D01*
X134181810Y-82518190D01*
X134105619Y-82594381D01*
X134029429Y-82632476D01*
X133877048Y-82670571D01*
X133762762Y-82670571D01*
X133610381Y-82632476D01*
X133534190Y-82594381D01*
X133458000Y-82518190D01*
X133419905Y-82403904D01*
X133419905Y-82327714D01*
X133458000Y-82213428D01*
X133496095Y-82175333D01*
X133419905Y-81489619D02*
X133419905Y-81642000D01*
X133458000Y-81718190D01*
X133496095Y-81756285D01*
X133610381Y-81832476D01*
X133762762Y-81870571D01*
X134067524Y-81870571D01*
X134143714Y-81832476D01*
X134181810Y-81794381D01*
X134219905Y-81718190D01*
X134219905Y-81565809D01*
X134181810Y-81489619D01*
X134143714Y-81451523D01*
X134067524Y-81413428D01*
X133877048Y-81413428D01*
X133800857Y-81451523D01*
X133762762Y-81489619D01*
X133724667Y-81565809D01*
X133724667Y-81718190D01*
X133762762Y-81794381D01*
X133800857Y-81832476D01*
X133877048Y-81870571D01*
X102978500Y-68066286D02*
X102936929Y-68107857D01*
X102812215Y-68149429D01*
X102729072Y-68149429D01*
X102604357Y-68107857D01*
X102521215Y-68024714D01*
X102479643Y-67941571D01*
X102438072Y-67775286D01*
X102438072Y-67650571D01*
X102479643Y-67484286D01*
X102521215Y-67401143D01*
X102604357Y-67318000D01*
X102729072Y-67276429D01*
X102812215Y-67276429D01*
X102936929Y-67318000D01*
X102978500Y-67359571D01*
X103269500Y-67276429D02*
X103851500Y-67276429D01*
X103477357Y-68149429D01*
X135756667Y-73715714D02*
X135718572Y-73753810D01*
X135604286Y-73791905D01*
X135528096Y-73791905D01*
X135413810Y-73753810D01*
X135337619Y-73677619D01*
X135299524Y-73601429D01*
X135261429Y-73449048D01*
X135261429Y-73334762D01*
X135299524Y-73182381D01*
X135337619Y-73106190D01*
X135413810Y-73030000D01*
X135528096Y-72991905D01*
X135604286Y-72991905D01*
X135718572Y-73030000D01*
X135756667Y-73068095D01*
X136213810Y-73334762D02*
X136137619Y-73296667D01*
X136099524Y-73258571D01*
X136061429Y-73182381D01*
X136061429Y-73144286D01*
X136099524Y-73068095D01*
X136137619Y-73030000D01*
X136213810Y-72991905D01*
X136366191Y-72991905D01*
X136442381Y-73030000D01*
X136480477Y-73068095D01*
X136518572Y-73144286D01*
X136518572Y-73182381D01*
X136480477Y-73258571D01*
X136442381Y-73296667D01*
X136366191Y-73334762D01*
X136213810Y-73334762D01*
X136137619Y-73372857D01*
X136099524Y-73410952D01*
X136061429Y-73487143D01*
X136061429Y-73639524D01*
X136099524Y-73715714D01*
X136137619Y-73753810D01*
X136213810Y-73791905D01*
X136366191Y-73791905D01*
X136442381Y-73753810D01*
X136480477Y-73715714D01*
X136518572Y-73639524D01*
X136518572Y-73487143D01*
X136480477Y-73410952D01*
X136442381Y-73372857D01*
X136366191Y-73334762D01*
X119403905Y-56078381D02*
X119403905Y-55078381D01*
X119642000Y-55078381D01*
X119784858Y-55126000D01*
X119880096Y-55221238D01*
X119927715Y-55316476D01*
X119975334Y-55506952D01*
X119975334Y-55649810D01*
X119927715Y-55840286D01*
X119880096Y-55935524D01*
X119784858Y-56030762D01*
X119642000Y-56078381D01*
X119403905Y-56078381D01*
X120832477Y-55411714D02*
X120832477Y-56078381D01*
X120594381Y-55030762D02*
X120356286Y-55745048D01*
X120975334Y-55745048D01*
X110259905Y-54554381D02*
X110259905Y-53554381D01*
X110498000Y-53554381D01*
X110640858Y-53602000D01*
X110736096Y-53697238D01*
X110783715Y-53792476D01*
X110831334Y-53982952D01*
X110831334Y-54125810D01*
X110783715Y-54316286D01*
X110736096Y-54411524D01*
X110640858Y-54506762D01*
X110498000Y-54554381D01*
X110259905Y-54554381D01*
X111736096Y-53554381D02*
X111259905Y-53554381D01*
X111212286Y-54030571D01*
X111259905Y-53982952D01*
X111355143Y-53935333D01*
X111593239Y-53935333D01*
X111688477Y-53982952D01*
X111736096Y-54030571D01*
X111783715Y-54125810D01*
X111783715Y-54363905D01*
X111736096Y-54459143D01*
X111688477Y-54506762D01*
X111593239Y-54554381D01*
X111355143Y-54554381D01*
X111259905Y-54506762D01*
X111212286Y-54459143D01*
X110005905Y-63952381D02*
X110005905Y-62952381D01*
X110244000Y-62952381D01*
X110386858Y-63000000D01*
X110482096Y-63095238D01*
X110529715Y-63190476D01*
X110577334Y-63380952D01*
X110577334Y-63523810D01*
X110529715Y-63714286D01*
X110482096Y-63809524D01*
X110386858Y-63904762D01*
X110244000Y-63952381D01*
X110005905Y-63952381D01*
X111434477Y-62952381D02*
X111244000Y-62952381D01*
X111148762Y-63000000D01*
X111101143Y-63047619D01*
X111005905Y-63190476D01*
X110958286Y-63380952D01*
X110958286Y-63761905D01*
X111005905Y-63857143D01*
X111053524Y-63904762D01*
X111148762Y-63952381D01*
X111339239Y-63952381D01*
X111434477Y-63904762D01*
X111482096Y-63857143D01*
X111529715Y-63761905D01*
X111529715Y-63523810D01*
X111482096Y-63428571D01*
X111434477Y-63380952D01*
X111339239Y-63333333D01*
X111148762Y-63333333D01*
X111053524Y-63380952D01*
X111005905Y-63428571D01*
X110958286Y-63523810D01*
X104084381Y-88622095D02*
X103084381Y-88622095D01*
X103084381Y-88384000D01*
X103132000Y-88241142D01*
X103227238Y-88145904D01*
X103322476Y-88098285D01*
X103512952Y-88050666D01*
X103655810Y-88050666D01*
X103846286Y-88098285D01*
X103941524Y-88145904D01*
X104036762Y-88241142D01*
X104084381Y-88384000D01*
X104084381Y-88622095D01*
X103084381Y-87717333D02*
X103084381Y-87050666D01*
X104084381Y-87479238D01*
X108148381Y-75668095D02*
X107148381Y-75668095D01*
X107148381Y-75430000D01*
X107196000Y-75287142D01*
X107291238Y-75191904D01*
X107386476Y-75144285D01*
X107576952Y-75096666D01*
X107719810Y-75096666D01*
X107910286Y-75144285D01*
X108005524Y-75191904D01*
X108100762Y-75287142D01*
X108148381Y-75430000D01*
X108148381Y-75668095D01*
X107576952Y-74525238D02*
X107529333Y-74620476D01*
X107481714Y-74668095D01*
X107386476Y-74715714D01*
X107338857Y-74715714D01*
X107243619Y-74668095D01*
X107196000Y-74620476D01*
X107148381Y-74525238D01*
X107148381Y-74334761D01*
X107196000Y-74239523D01*
X107243619Y-74191904D01*
X107338857Y-74144285D01*
X107386476Y-74144285D01*
X107481714Y-74191904D01*
X107529333Y-74239523D01*
X107576952Y-74334761D01*
X107576952Y-74525238D01*
X107624571Y-74620476D01*
X107672190Y-74668095D01*
X107767429Y-74715714D01*
X107957905Y-74715714D01*
X108053143Y-74668095D01*
X108100762Y-74620476D01*
X108148381Y-74525238D01*
X108148381Y-74334761D01*
X108100762Y-74239523D01*
X108053143Y-74191904D01*
X107957905Y-74144285D01*
X107767429Y-74144285D01*
X107672190Y-74191904D01*
X107624571Y-74239523D01*
X107576952Y-74334761D01*
X106343524Y-61575905D02*
X106343524Y-60775905D01*
X106534000Y-60775905D01*
X106648286Y-60814000D01*
X106724477Y-60890190D01*
X106762572Y-60966381D01*
X106800667Y-61118762D01*
X106800667Y-61233048D01*
X106762572Y-61385429D01*
X106724477Y-61461619D01*
X106648286Y-61537810D01*
X106534000Y-61575905D01*
X106343524Y-61575905D01*
X107181619Y-61575905D02*
X107334000Y-61575905D01*
X107410191Y-61537810D01*
X107448286Y-61499714D01*
X107524477Y-61385429D01*
X107562572Y-61233048D01*
X107562572Y-60928286D01*
X107524477Y-60852095D01*
X107486381Y-60814000D01*
X107410191Y-60775905D01*
X107257810Y-60775905D01*
X107181619Y-60814000D01*
X107143524Y-60852095D01*
X107105429Y-60928286D01*
X107105429Y-61118762D01*
X107143524Y-61194952D01*
X107181619Y-61233048D01*
X107257810Y-61271143D01*
X107410191Y-61271143D01*
X107486381Y-61233048D01*
X107524477Y-61194952D01*
X107562572Y-61118762D01*
X101274571Y-84153333D02*
X101274571Y-84486667D01*
X101798381Y-84486667D02*
X100798381Y-84486667D01*
X100798381Y-84010476D01*
X101798381Y-83105714D02*
X101798381Y-83677143D01*
X101798381Y-83391429D02*
X100798381Y-83391429D01*
X100941238Y-83486667D01*
X101036476Y-83581905D01*
X101084095Y-83677143D01*
X98242381Y-76366666D02*
X98242381Y-76842857D01*
X97242381Y-76842857D01*
X98242381Y-75509523D02*
X98242381Y-76080952D01*
X98242381Y-75795238D02*
X97242381Y-75795238D01*
X97385238Y-75890476D01*
X97480476Y-75985714D01*
X97528095Y-76080952D01*
X140569905Y-69983333D02*
X140188952Y-70250000D01*
X140569905Y-70440476D02*
X139769905Y-70440476D01*
X139769905Y-70135714D01*
X139808000Y-70059523D01*
X139846095Y-70021428D01*
X139922286Y-69983333D01*
X140036571Y-69983333D01*
X140112762Y-70021428D01*
X140150857Y-70059523D01*
X140188952Y-70135714D01*
X140188952Y-70440476D01*
X140036571Y-69297619D02*
X140569905Y-69297619D01*
X139731810Y-69488095D02*
X140303238Y-69678571D01*
X140303238Y-69183333D01*
X121024667Y-59289905D02*
X120758000Y-58908952D01*
X120567524Y-59289905D02*
X120567524Y-58489905D01*
X120872286Y-58489905D01*
X120948477Y-58528000D01*
X120986572Y-58566095D01*
X121024667Y-58642286D01*
X121024667Y-58756571D01*
X120986572Y-58832762D01*
X120948477Y-58870857D01*
X120872286Y-58908952D01*
X120567524Y-58908952D01*
X121748477Y-58489905D02*
X121367524Y-58489905D01*
X121329429Y-58870857D01*
X121367524Y-58832762D01*
X121443715Y-58794667D01*
X121634191Y-58794667D01*
X121710381Y-58832762D01*
X121748477Y-58870857D01*
X121786572Y-58947048D01*
X121786572Y-59137524D01*
X121748477Y-59213714D01*
X121710381Y-59251810D01*
X121634191Y-59289905D01*
X121443715Y-59289905D01*
X121367524Y-59251810D01*
X121329429Y-59213714D01*
X123658334Y-59253381D02*
X123325000Y-58777190D01*
X123086905Y-59253381D02*
X123086905Y-58253381D01*
X123467858Y-58253381D01*
X123563096Y-58301000D01*
X123610715Y-58348619D01*
X123658334Y-58443857D01*
X123658334Y-58586714D01*
X123610715Y-58681952D01*
X123563096Y-58729571D01*
X123467858Y-58777190D01*
X123086905Y-58777190D01*
X124515477Y-58253381D02*
X124325000Y-58253381D01*
X124229762Y-58301000D01*
X124182143Y-58348619D01*
X124086905Y-58491476D01*
X124039286Y-58681952D01*
X124039286Y-59062905D01*
X124086905Y-59158143D01*
X124134524Y-59205762D01*
X124229762Y-59253381D01*
X124420239Y-59253381D01*
X124515477Y-59205762D01*
X124563096Y-59158143D01*
X124610715Y-59062905D01*
X124610715Y-58824810D01*
X124563096Y-58729571D01*
X124515477Y-58681952D01*
X124420239Y-58634333D01*
X124229762Y-58634333D01*
X124134524Y-58681952D01*
X124086905Y-58729571D01*
X124039286Y-58824810D01*
X144867334Y-64968381D02*
X144534000Y-64492190D01*
X144295905Y-64968381D02*
X144295905Y-63968381D01*
X144676858Y-63968381D01*
X144772096Y-64016000D01*
X144819715Y-64063619D01*
X144867334Y-64158857D01*
X144867334Y-64301714D01*
X144819715Y-64396952D01*
X144772096Y-64444571D01*
X144676858Y-64492190D01*
X144295905Y-64492190D01*
X145200667Y-63968381D02*
X145867334Y-63968381D01*
X145438762Y-64968381D01*
X141311334Y-62428381D02*
X140978000Y-61952190D01*
X140739905Y-62428381D02*
X140739905Y-61428381D01*
X141120858Y-61428381D01*
X141216096Y-61476000D01*
X141263715Y-61523619D01*
X141311334Y-61618857D01*
X141311334Y-61761714D01*
X141263715Y-61856952D01*
X141216096Y-61904571D01*
X141120858Y-61952190D01*
X140739905Y-61952190D01*
X141882762Y-61856952D02*
X141787524Y-61809333D01*
X141739905Y-61761714D01*
X141692286Y-61666476D01*
X141692286Y-61618857D01*
X141739905Y-61523619D01*
X141787524Y-61476000D01*
X141882762Y-61428381D01*
X142073239Y-61428381D01*
X142168477Y-61476000D01*
X142216096Y-61523619D01*
X142263715Y-61618857D01*
X142263715Y-61666476D01*
X142216096Y-61761714D01*
X142168477Y-61809333D01*
X142073239Y-61856952D01*
X141882762Y-61856952D01*
X141787524Y-61904571D01*
X141739905Y-61952190D01*
X141692286Y-62047429D01*
X141692286Y-62237905D01*
X141739905Y-62333143D01*
X141787524Y-62380762D01*
X141882762Y-62428381D01*
X142073239Y-62428381D01*
X142168477Y-62380762D01*
X142216096Y-62333143D01*
X142263715Y-62237905D01*
X142263715Y-62047429D01*
X142216096Y-61952190D01*
X142168477Y-61904571D01*
X142073239Y-61856952D01*
X126198334Y-59253381D02*
X125865000Y-58777190D01*
X125626905Y-59253381D02*
X125626905Y-58253381D01*
X126007858Y-58253381D01*
X126103096Y-58301000D01*
X126150715Y-58348619D01*
X126198334Y-58443857D01*
X126198334Y-58586714D01*
X126150715Y-58681952D01*
X126103096Y-58729571D01*
X126007858Y-58777190D01*
X125626905Y-58777190D01*
X126674524Y-59253381D02*
X126865000Y-59253381D01*
X126960239Y-59205762D01*
X127007858Y-59158143D01*
X127103096Y-59015286D01*
X127150715Y-58824810D01*
X127150715Y-58443857D01*
X127103096Y-58348619D01*
X127055477Y-58301000D01*
X126960239Y-58253381D01*
X126769762Y-58253381D01*
X126674524Y-58301000D01*
X126626905Y-58348619D01*
X126579286Y-58443857D01*
X126579286Y-58681952D01*
X126626905Y-58777190D01*
X126674524Y-58824810D01*
X126769762Y-58872429D01*
X126960239Y-58872429D01*
X127055477Y-58824810D01*
X127103096Y-58777190D01*
X127150715Y-58681952D01*
X111499714Y-57511905D02*
X111233047Y-57130952D01*
X111042571Y-57511905D02*
X111042571Y-56711905D01*
X111347333Y-56711905D01*
X111423524Y-56750000D01*
X111461619Y-56788095D01*
X111499714Y-56864286D01*
X111499714Y-56978571D01*
X111461619Y-57054762D01*
X111423524Y-57092857D01*
X111347333Y-57130952D01*
X111042571Y-57130952D01*
X112261619Y-57511905D02*
X111804476Y-57511905D01*
X112033047Y-57511905D02*
X112033047Y-56711905D01*
X111956857Y-56826190D01*
X111880666Y-56902381D01*
X111804476Y-56940476D01*
X112756857Y-56711905D02*
X112833048Y-56711905D01*
X112909238Y-56750000D01*
X112947333Y-56788095D01*
X112985429Y-56864286D01*
X113023524Y-57016667D01*
X113023524Y-57207143D01*
X112985429Y-57359524D01*
X112947333Y-57435714D01*
X112909238Y-57473810D01*
X112833048Y-57511905D01*
X112756857Y-57511905D01*
X112680667Y-57473810D01*
X112642571Y-57435714D01*
X112604476Y-57359524D01*
X112566381Y-57207143D01*
X112566381Y-57016667D01*
X112604476Y-56864286D01*
X112642571Y-56788095D01*
X112680667Y-56750000D01*
X112756857Y-56711905D01*
X114039714Y-57511905D02*
X113773047Y-57130952D01*
X113582571Y-57511905D02*
X113582571Y-56711905D01*
X113887333Y-56711905D01*
X113963524Y-56750000D01*
X114001619Y-56788095D01*
X114039714Y-56864286D01*
X114039714Y-56978571D01*
X114001619Y-57054762D01*
X113963524Y-57092857D01*
X113887333Y-57130952D01*
X113582571Y-57130952D01*
X114801619Y-57511905D02*
X114344476Y-57511905D01*
X114573047Y-57511905D02*
X114573047Y-56711905D01*
X114496857Y-56826190D01*
X114420666Y-56902381D01*
X114344476Y-56940476D01*
X115563524Y-57511905D02*
X115106381Y-57511905D01*
X115334952Y-57511905D02*
X115334952Y-56711905D01*
X115258762Y-56826190D01*
X115182571Y-56902381D01*
X115106381Y-56940476D01*
X116579714Y-57511905D02*
X116313047Y-57130952D01*
X116122571Y-57511905D02*
X116122571Y-56711905D01*
X116427333Y-56711905D01*
X116503524Y-56750000D01*
X116541619Y-56788095D01*
X116579714Y-56864286D01*
X116579714Y-56978571D01*
X116541619Y-57054762D01*
X116503524Y-57092857D01*
X116427333Y-57130952D01*
X116122571Y-57130952D01*
X117341619Y-57511905D02*
X116884476Y-57511905D01*
X117113047Y-57511905D02*
X117113047Y-56711905D01*
X117036857Y-56826190D01*
X116960666Y-56902381D01*
X116884476Y-56940476D01*
X117646381Y-56788095D02*
X117684476Y-56750000D01*
X117760667Y-56711905D01*
X117951143Y-56711905D01*
X118027333Y-56750000D01*
X118065429Y-56788095D01*
X118103524Y-56864286D01*
X118103524Y-56940476D01*
X118065429Y-57054762D01*
X117608286Y-57511905D01*
X118103524Y-57511905D01*
X140315905Y-79254286D02*
X139934952Y-79520953D01*
X140315905Y-79711429D02*
X139515905Y-79711429D01*
X139515905Y-79406667D01*
X139554000Y-79330476D01*
X139592095Y-79292381D01*
X139668286Y-79254286D01*
X139782571Y-79254286D01*
X139858762Y-79292381D01*
X139896857Y-79330476D01*
X139934952Y-79406667D01*
X139934952Y-79711429D01*
X140315905Y-78492381D02*
X140315905Y-78949524D01*
X140315905Y-78720953D02*
X139515905Y-78720953D01*
X139630190Y-78797143D01*
X139706381Y-78873334D01*
X139744476Y-78949524D01*
X139515905Y-78225714D02*
X139515905Y-77730476D01*
X139820667Y-77997143D01*
X139820667Y-77882857D01*
X139858762Y-77806667D01*
X139896857Y-77768571D01*
X139973048Y-77730476D01*
X140163524Y-77730476D01*
X140239714Y-77768571D01*
X140277810Y-77806667D01*
X140315905Y-77882857D01*
X140315905Y-78111429D01*
X140277810Y-78187619D01*
X140239714Y-78225714D01*
X144773714Y-73767905D02*
X144507047Y-73386952D01*
X144316571Y-73767905D02*
X144316571Y-72967905D01*
X144621333Y-72967905D01*
X144697524Y-73006000D01*
X144735619Y-73044095D01*
X144773714Y-73120286D01*
X144773714Y-73234571D01*
X144735619Y-73310762D01*
X144697524Y-73348857D01*
X144621333Y-73386952D01*
X144316571Y-73386952D01*
X145535619Y-73767905D02*
X145078476Y-73767905D01*
X145307047Y-73767905D02*
X145307047Y-72967905D01*
X145230857Y-73082190D01*
X145154666Y-73158381D01*
X145078476Y-73196476D01*
X146221333Y-73234571D02*
X146221333Y-73767905D01*
X146030857Y-72929810D02*
X145840381Y-73501238D01*
X146335619Y-73501238D01*
X140569905Y-72650286D02*
X140188952Y-72916953D01*
X140569905Y-73107429D02*
X139769905Y-73107429D01*
X139769905Y-72802667D01*
X139808000Y-72726476D01*
X139846095Y-72688381D01*
X139922286Y-72650286D01*
X140036571Y-72650286D01*
X140112762Y-72688381D01*
X140150857Y-72726476D01*
X140188952Y-72802667D01*
X140188952Y-73107429D01*
X140569905Y-71888381D02*
X140569905Y-72345524D01*
X140569905Y-72116953D02*
X139769905Y-72116953D01*
X139884190Y-72193143D01*
X139960381Y-72269334D01*
X139998476Y-72345524D01*
X139769905Y-71164571D02*
X139769905Y-71545524D01*
X140150857Y-71583619D01*
X140112762Y-71545524D01*
X140074667Y-71469333D01*
X140074667Y-71278857D01*
X140112762Y-71202667D01*
X140150857Y-71164571D01*
X140227048Y-71126476D01*
X140417524Y-71126476D01*
X140493714Y-71164571D01*
X140531810Y-71202667D01*
X140569905Y-71278857D01*
X140569905Y-71469333D01*
X140531810Y-71545524D01*
X140493714Y-71583619D01*
X111499714Y-67163905D02*
X111233047Y-66782952D01*
X111042571Y-67163905D02*
X111042571Y-66363905D01*
X111347333Y-66363905D01*
X111423524Y-66402000D01*
X111461619Y-66440095D01*
X111499714Y-66516286D01*
X111499714Y-66630571D01*
X111461619Y-66706762D01*
X111423524Y-66744857D01*
X111347333Y-66782952D01*
X111042571Y-66782952D01*
X112261619Y-67163905D02*
X111804476Y-67163905D01*
X112033047Y-67163905D02*
X112033047Y-66363905D01*
X111956857Y-66478190D01*
X111880666Y-66554381D01*
X111804476Y-66592476D01*
X112947333Y-66363905D02*
X112794952Y-66363905D01*
X112718762Y-66402000D01*
X112680667Y-66440095D01*
X112604476Y-66554381D01*
X112566381Y-66706762D01*
X112566381Y-67011524D01*
X112604476Y-67087714D01*
X112642571Y-67125810D01*
X112718762Y-67163905D01*
X112871143Y-67163905D01*
X112947333Y-67125810D01*
X112985429Y-67087714D01*
X113023524Y-67011524D01*
X113023524Y-66821048D01*
X112985429Y-66744857D01*
X112947333Y-66706762D01*
X112871143Y-66668667D01*
X112718762Y-66668667D01*
X112642571Y-66706762D01*
X112604476Y-66744857D01*
X112566381Y-66821048D01*
X114039714Y-67163905D02*
X113773047Y-66782952D01*
X113582571Y-67163905D02*
X113582571Y-66363905D01*
X113887333Y-66363905D01*
X113963524Y-66402000D01*
X114001619Y-66440095D01*
X114039714Y-66516286D01*
X114039714Y-66630571D01*
X114001619Y-66706762D01*
X113963524Y-66744857D01*
X113887333Y-66782952D01*
X113582571Y-66782952D01*
X114801619Y-67163905D02*
X114344476Y-67163905D01*
X114573047Y-67163905D02*
X114573047Y-66363905D01*
X114496857Y-66478190D01*
X114420666Y-66554381D01*
X114344476Y-66592476D01*
X115068286Y-66363905D02*
X115601619Y-66363905D01*
X115258762Y-67163905D01*
X116579714Y-67163905D02*
X116313047Y-66782952D01*
X116122571Y-67163905D02*
X116122571Y-66363905D01*
X116427333Y-66363905D01*
X116503524Y-66402000D01*
X116541619Y-66440095D01*
X116579714Y-66516286D01*
X116579714Y-66630571D01*
X116541619Y-66706762D01*
X116503524Y-66744857D01*
X116427333Y-66782952D01*
X116122571Y-66782952D01*
X117341619Y-67163905D02*
X116884476Y-67163905D01*
X117113047Y-67163905D02*
X117113047Y-66363905D01*
X117036857Y-66478190D01*
X116960666Y-66554381D01*
X116884476Y-66592476D01*
X117798762Y-66706762D02*
X117722571Y-66668667D01*
X117684476Y-66630571D01*
X117646381Y-66554381D01*
X117646381Y-66516286D01*
X117684476Y-66440095D01*
X117722571Y-66402000D01*
X117798762Y-66363905D01*
X117951143Y-66363905D01*
X118027333Y-66402000D01*
X118065429Y-66440095D01*
X118103524Y-66516286D01*
X118103524Y-66554381D01*
X118065429Y-66630571D01*
X118027333Y-66668667D01*
X117951143Y-66706762D01*
X117798762Y-66706762D01*
X117722571Y-66744857D01*
X117684476Y-66782952D01*
X117646381Y-66859143D01*
X117646381Y-67011524D01*
X117684476Y-67087714D01*
X117722571Y-67125810D01*
X117798762Y-67163905D01*
X117951143Y-67163905D01*
X118027333Y-67125810D01*
X118065429Y-67087714D01*
X118103524Y-67011524D01*
X118103524Y-66859143D01*
X118065429Y-66782952D01*
X118027333Y-66744857D01*
X117951143Y-66706762D01*
X143629143Y-56840381D02*
X143295809Y-56364190D01*
X143057714Y-56840381D02*
X143057714Y-55840381D01*
X143438667Y-55840381D01*
X143533905Y-55888000D01*
X143581524Y-55935619D01*
X143629143Y-56030857D01*
X143629143Y-56173714D01*
X143581524Y-56268952D01*
X143533905Y-56316571D01*
X143438667Y-56364190D01*
X143057714Y-56364190D01*
X144581524Y-56840381D02*
X144010095Y-56840381D01*
X144295809Y-56840381D02*
X144295809Y-55840381D01*
X144200571Y-55983238D01*
X144105333Y-56078476D01*
X144010095Y-56126095D01*
X145057714Y-56840381D02*
X145248190Y-56840381D01*
X145343429Y-56792762D01*
X145391048Y-56745143D01*
X145486286Y-56602286D01*
X145533905Y-56411810D01*
X145533905Y-56030857D01*
X145486286Y-55935619D01*
X145438667Y-55888000D01*
X145343429Y-55840381D01*
X145152952Y-55840381D01*
X145057714Y-55888000D01*
X145010095Y-55935619D01*
X144962476Y-56030857D01*
X144962476Y-56268952D01*
X145010095Y-56364190D01*
X145057714Y-56411810D01*
X145152952Y-56459429D01*
X145343429Y-56459429D01*
X145438667Y-56411810D01*
X145486286Y-56364190D01*
X145533905Y-56268952D01*
X107931905Y-79254286D02*
X107550952Y-79520953D01*
X107931905Y-79711429D02*
X107131905Y-79711429D01*
X107131905Y-79406667D01*
X107170000Y-79330476D01*
X107208095Y-79292381D01*
X107284286Y-79254286D01*
X107398571Y-79254286D01*
X107474762Y-79292381D01*
X107512857Y-79330476D01*
X107550952Y-79406667D01*
X107550952Y-79711429D01*
X107208095Y-78949524D02*
X107170000Y-78911429D01*
X107131905Y-78835238D01*
X107131905Y-78644762D01*
X107170000Y-78568572D01*
X107208095Y-78530476D01*
X107284286Y-78492381D01*
X107360476Y-78492381D01*
X107474762Y-78530476D01*
X107931905Y-78987619D01*
X107931905Y-78492381D01*
X107131905Y-77997143D02*
X107131905Y-77920952D01*
X107170000Y-77844762D01*
X107208095Y-77806667D01*
X107284286Y-77768571D01*
X107436667Y-77730476D01*
X107627143Y-77730476D01*
X107779524Y-77768571D01*
X107855714Y-77806667D01*
X107893810Y-77844762D01*
X107931905Y-77920952D01*
X107931905Y-77997143D01*
X107893810Y-78073333D01*
X107855714Y-78111429D01*
X107779524Y-78149524D01*
X107627143Y-78187619D01*
X107436667Y-78187619D01*
X107284286Y-78149524D01*
X107208095Y-78111429D01*
X107170000Y-78073333D01*
X107131905Y-77997143D01*
X107041905Y-83064286D02*
X106660952Y-83330953D01*
X107041905Y-83521429D02*
X106241905Y-83521429D01*
X106241905Y-83216667D01*
X106280000Y-83140476D01*
X106318095Y-83102381D01*
X106394286Y-83064286D01*
X106508571Y-83064286D01*
X106584762Y-83102381D01*
X106622857Y-83140476D01*
X106660952Y-83216667D01*
X106660952Y-83521429D01*
X106318095Y-82759524D02*
X106280000Y-82721429D01*
X106241905Y-82645238D01*
X106241905Y-82454762D01*
X106280000Y-82378572D01*
X106318095Y-82340476D01*
X106394286Y-82302381D01*
X106470476Y-82302381D01*
X106584762Y-82340476D01*
X107041905Y-82797619D01*
X107041905Y-82302381D01*
X107041905Y-81540476D02*
X107041905Y-81997619D01*
X107041905Y-81769048D02*
X106241905Y-81769048D01*
X106356190Y-81845238D01*
X106432381Y-81921429D01*
X106470476Y-81997619D01*
X108197714Y-68179905D02*
X107931047Y-67798952D01*
X107740571Y-68179905D02*
X107740571Y-67379905D01*
X108045333Y-67379905D01*
X108121524Y-67418000D01*
X108159619Y-67456095D01*
X108197714Y-67532286D01*
X108197714Y-67646571D01*
X108159619Y-67722762D01*
X108121524Y-67760857D01*
X108045333Y-67798952D01*
X107740571Y-67798952D01*
X108502476Y-67456095D02*
X108540571Y-67418000D01*
X108616762Y-67379905D01*
X108807238Y-67379905D01*
X108883428Y-67418000D01*
X108921524Y-67456095D01*
X108959619Y-67532286D01*
X108959619Y-67608476D01*
X108921524Y-67722762D01*
X108464381Y-68179905D01*
X108959619Y-68179905D01*
X109264381Y-67456095D02*
X109302476Y-67418000D01*
X109378667Y-67379905D01*
X109569143Y-67379905D01*
X109645333Y-67418000D01*
X109683429Y-67456095D01*
X109721524Y-67532286D01*
X109721524Y-67608476D01*
X109683429Y-67722762D01*
X109226286Y-68179905D01*
X109721524Y-68179905D01*
X111499714Y-71989905D02*
X111233047Y-71608952D01*
X111042571Y-71989905D02*
X111042571Y-71189905D01*
X111347333Y-71189905D01*
X111423524Y-71228000D01*
X111461619Y-71266095D01*
X111499714Y-71342286D01*
X111499714Y-71456571D01*
X111461619Y-71532762D01*
X111423524Y-71570857D01*
X111347333Y-71608952D01*
X111042571Y-71608952D01*
X111804476Y-71266095D02*
X111842571Y-71228000D01*
X111918762Y-71189905D01*
X112109238Y-71189905D01*
X112185428Y-71228000D01*
X112223524Y-71266095D01*
X112261619Y-71342286D01*
X112261619Y-71418476D01*
X112223524Y-71532762D01*
X111766381Y-71989905D01*
X112261619Y-71989905D01*
X112528286Y-71189905D02*
X113023524Y-71189905D01*
X112756857Y-71494667D01*
X112871143Y-71494667D01*
X112947333Y-71532762D01*
X112985429Y-71570857D01*
X113023524Y-71647048D01*
X113023524Y-71837524D01*
X112985429Y-71913714D01*
X112947333Y-71951810D01*
X112871143Y-71989905D01*
X112642571Y-71989905D01*
X112566381Y-71951810D01*
X112528286Y-71913714D01*
X129279714Y-75799905D02*
X129013047Y-75418952D01*
X128822571Y-75799905D02*
X128822571Y-74999905D01*
X129127333Y-74999905D01*
X129203524Y-75038000D01*
X129241619Y-75076095D01*
X129279714Y-75152286D01*
X129279714Y-75266571D01*
X129241619Y-75342762D01*
X129203524Y-75380857D01*
X129127333Y-75418952D01*
X128822571Y-75418952D01*
X129584476Y-75076095D02*
X129622571Y-75038000D01*
X129698762Y-74999905D01*
X129889238Y-74999905D01*
X129965428Y-75038000D01*
X130003524Y-75076095D01*
X130041619Y-75152286D01*
X130041619Y-75228476D01*
X130003524Y-75342762D01*
X129546381Y-75799905D01*
X130041619Y-75799905D01*
X130727333Y-75266571D02*
X130727333Y-75799905D01*
X130536857Y-74961810D02*
X130346381Y-75533238D01*
X130841619Y-75533238D01*
X132073714Y-75799905D02*
X131807047Y-75418952D01*
X131616571Y-75799905D02*
X131616571Y-74999905D01*
X131921333Y-74999905D01*
X131997524Y-75038000D01*
X132035619Y-75076095D01*
X132073714Y-75152286D01*
X132073714Y-75266571D01*
X132035619Y-75342762D01*
X131997524Y-75380857D01*
X131921333Y-75418952D01*
X131616571Y-75418952D01*
X132378476Y-75076095D02*
X132416571Y-75038000D01*
X132492762Y-74999905D01*
X132683238Y-74999905D01*
X132759428Y-75038000D01*
X132797524Y-75076095D01*
X132835619Y-75152286D01*
X132835619Y-75228476D01*
X132797524Y-75342762D01*
X132340381Y-75799905D01*
X132835619Y-75799905D01*
X133559429Y-74999905D02*
X133178476Y-74999905D01*
X133140381Y-75380857D01*
X133178476Y-75342762D01*
X133254667Y-75304667D01*
X133445143Y-75304667D01*
X133521333Y-75342762D01*
X133559429Y-75380857D01*
X133597524Y-75457048D01*
X133597524Y-75647524D01*
X133559429Y-75723714D01*
X133521333Y-75761810D01*
X133445143Y-75799905D01*
X133254667Y-75799905D01*
X133178476Y-75761810D01*
X133140381Y-75723714D01*
X97845643Y-57348381D02*
X97512309Y-56872190D01*
X97274214Y-57348381D02*
X97274214Y-56348381D01*
X97655167Y-56348381D01*
X97750405Y-56396000D01*
X97798024Y-56443619D01*
X97845643Y-56538857D01*
X97845643Y-56681714D01*
X97798024Y-56776952D01*
X97750405Y-56824571D01*
X97655167Y-56872190D01*
X97274214Y-56872190D01*
X98226595Y-56443619D02*
X98274214Y-56396000D01*
X98369452Y-56348381D01*
X98607548Y-56348381D01*
X98702786Y-56396000D01*
X98750405Y-56443619D01*
X98798024Y-56538857D01*
X98798024Y-56634095D01*
X98750405Y-56776952D01*
X98178976Y-57348381D01*
X98798024Y-57348381D01*
X99655167Y-56348381D02*
X99464690Y-56348381D01*
X99369452Y-56396000D01*
X99321833Y-56443619D01*
X99226595Y-56586476D01*
X99178976Y-56776952D01*
X99178976Y-57157905D01*
X99226595Y-57253143D01*
X99274214Y-57300762D01*
X99369452Y-57348381D01*
X99559929Y-57348381D01*
X99655167Y-57300762D01*
X99702786Y-57253143D01*
X99750405Y-57157905D01*
X99750405Y-56919810D01*
X99702786Y-56824571D01*
X99655167Y-56776952D01*
X99559929Y-56729333D01*
X99369452Y-56729333D01*
X99274214Y-56776952D01*
X99226595Y-56824571D01*
X99178976Y-56919810D01*
X122929714Y-64115905D02*
X122663047Y-63734952D01*
X122472571Y-64115905D02*
X122472571Y-63315905D01*
X122777333Y-63315905D01*
X122853524Y-63354000D01*
X122891619Y-63392095D01*
X122929714Y-63468286D01*
X122929714Y-63582571D01*
X122891619Y-63658762D01*
X122853524Y-63696857D01*
X122777333Y-63734952D01*
X122472571Y-63734952D01*
X123234476Y-63392095D02*
X123272571Y-63354000D01*
X123348762Y-63315905D01*
X123539238Y-63315905D01*
X123615428Y-63354000D01*
X123653524Y-63392095D01*
X123691619Y-63468286D01*
X123691619Y-63544476D01*
X123653524Y-63658762D01*
X123196381Y-64115905D01*
X123691619Y-64115905D01*
X123958286Y-63315905D02*
X124491619Y-63315905D01*
X124148762Y-64115905D01*
X104070214Y-61893405D02*
X103803547Y-61512452D01*
X103613071Y-61893405D02*
X103613071Y-61093405D01*
X103917833Y-61093405D01*
X103994024Y-61131500D01*
X104032119Y-61169595D01*
X104070214Y-61245786D01*
X104070214Y-61360071D01*
X104032119Y-61436262D01*
X103994024Y-61474357D01*
X103917833Y-61512452D01*
X103613071Y-61512452D01*
X104374976Y-61169595D02*
X104413071Y-61131500D01*
X104489262Y-61093405D01*
X104679738Y-61093405D01*
X104755928Y-61131500D01*
X104794024Y-61169595D01*
X104832119Y-61245786D01*
X104832119Y-61321976D01*
X104794024Y-61436262D01*
X104336881Y-61893405D01*
X104832119Y-61893405D01*
X105289262Y-61436262D02*
X105213071Y-61398167D01*
X105174976Y-61360071D01*
X105136881Y-61283881D01*
X105136881Y-61245786D01*
X105174976Y-61169595D01*
X105213071Y-61131500D01*
X105289262Y-61093405D01*
X105441643Y-61093405D01*
X105517833Y-61131500D01*
X105555929Y-61169595D01*
X105594024Y-61245786D01*
X105594024Y-61283881D01*
X105555929Y-61360071D01*
X105517833Y-61398167D01*
X105441643Y-61436262D01*
X105289262Y-61436262D01*
X105213071Y-61474357D01*
X105174976Y-61512452D01*
X105136881Y-61588643D01*
X105136881Y-61741024D01*
X105174976Y-61817214D01*
X105213071Y-61855310D01*
X105289262Y-61893405D01*
X105441643Y-61893405D01*
X105517833Y-61855310D01*
X105555929Y-61817214D01*
X105594024Y-61741024D01*
X105594024Y-61588643D01*
X105555929Y-61512452D01*
X105517833Y-61474357D01*
X105441643Y-61436262D01*
X138792381Y-67309905D02*
X139601905Y-67309905D01*
X139697143Y-67262286D01*
X139744762Y-67214667D01*
X139792381Y-67119429D01*
X139792381Y-66928952D01*
X139744762Y-66833714D01*
X139697143Y-66786095D01*
X139601905Y-66738476D01*
X138792381Y-66738476D01*
X139792381Y-65738476D02*
X139792381Y-66309905D01*
X139792381Y-66024191D02*
X138792381Y-66024191D01*
X138935238Y-66119429D01*
X139030476Y-66214667D01*
X139078095Y-66309905D01*
X138898381Y-76199905D02*
X139707905Y-76199905D01*
X139803143Y-76152286D01*
X139850762Y-76104667D01*
X139898381Y-76009429D01*
X139898381Y-75818952D01*
X139850762Y-75723714D01*
X139803143Y-75676095D01*
X139707905Y-75628476D01*
X138898381Y-75628476D01*
X138898381Y-75247524D02*
X138898381Y-74628476D01*
X139279333Y-74961810D01*
X139279333Y-74818952D01*
X139326952Y-74723714D01*
X139374571Y-74676095D01*
X139469810Y-74628476D01*
X139707905Y-74628476D01*
X139803143Y-74676095D01*
X139850762Y-74723714D01*
X139898381Y-74818952D01*
X139898381Y-75104667D01*
X139850762Y-75199905D01*
X139803143Y-75247524D01*
X102616095Y-77176381D02*
X102616095Y-77985905D01*
X102663714Y-78081143D01*
X102711333Y-78128762D01*
X102806571Y-78176381D01*
X102997048Y-78176381D01*
X103092286Y-78128762D01*
X103139905Y-78081143D01*
X103187524Y-77985905D01*
X103187524Y-77176381D01*
X104092286Y-77509714D02*
X104092286Y-78176381D01*
X103854190Y-77128762D02*
X103616095Y-77843048D01*
X104235143Y-77843048D01*
X133834190Y-80232191D02*
X134310381Y-80232191D01*
X133310381Y-80565524D02*
X133834190Y-80232191D01*
X133310381Y-79898857D01*
X134310381Y-79041714D02*
X134310381Y-79613143D01*
X134310381Y-79327429D02*
X133310381Y-79327429D01*
X133453238Y-79422667D01*
X133548476Y-79517905D01*
X133596095Y-79613143D01*
X130185611Y-61970152D02*
X129478504Y-61263045D01*
X130859046Y-61162030D02*
X130859046Y-61229374D01*
X130791703Y-61364061D01*
X130724359Y-61431404D01*
X130589672Y-61498748D01*
X130454985Y-61498748D01*
X130353970Y-61465076D01*
X130185611Y-61364061D01*
X130084595Y-61263045D01*
X129983580Y-61094687D01*
X129949908Y-60993672D01*
X129949908Y-60858985D01*
X130017253Y-60724297D01*
X130084596Y-60656954D01*
X130219283Y-60589610D01*
X130286626Y-60589610D01*
X131599825Y-60555939D02*
X131195763Y-60960000D01*
X131397794Y-60757970D02*
X130690687Y-60050863D01*
X130724359Y-60219222D01*
X130724359Y-60353908D01*
X130690687Y-60454924D01*
X127412381Y-78866905D02*
X128221905Y-78866905D01*
X128317143Y-78819286D01*
X128364762Y-78771667D01*
X128412381Y-78676429D01*
X128412381Y-78485952D01*
X128364762Y-78390714D01*
X128317143Y-78343095D01*
X128221905Y-78295476D01*
X127412381Y-78295476D01*
X127507619Y-77866905D02*
X127460000Y-77819286D01*
X127412381Y-77724048D01*
X127412381Y-77485952D01*
X127460000Y-77390714D01*
X127507619Y-77343095D01*
X127602857Y-77295476D01*
X127698095Y-77295476D01*
X127840952Y-77343095D01*
X128412381Y-77914524D01*
X128412381Y-77295476D01*
X123864619Y-54578238D02*
X123817000Y-54673476D01*
X123721762Y-54768714D01*
X123578905Y-54911571D01*
X123531286Y-55006810D01*
X123531286Y-55102048D01*
X123769381Y-55054429D02*
X123721762Y-55149667D01*
X123626524Y-55244905D01*
X123436048Y-55292524D01*
X123102714Y-55292524D01*
X122912238Y-55244905D01*
X122817000Y-55149667D01*
X122769381Y-55054429D01*
X122769381Y-54863952D01*
X122817000Y-54768714D01*
X122912238Y-54673476D01*
X123102714Y-54625857D01*
X123436048Y-54625857D01*
X123626524Y-54673476D01*
X123721762Y-54768714D01*
X123769381Y-54863952D01*
X123769381Y-55054429D01*
X123769381Y-53673476D02*
X123769381Y-54244905D01*
X123769381Y-53959191D02*
X122769381Y-53959191D01*
X122912238Y-54054429D01*
X123007476Y-54149667D01*
X123055095Y-54244905D01*
X114466619Y-53054238D02*
X114419000Y-53149476D01*
X114323762Y-53244714D01*
X114180905Y-53387571D01*
X114133286Y-53482810D01*
X114133286Y-53578048D01*
X114371381Y-53530429D02*
X114323762Y-53625667D01*
X114228524Y-53720905D01*
X114038048Y-53768524D01*
X113704714Y-53768524D01*
X113514238Y-53720905D01*
X113419000Y-53625667D01*
X113371381Y-53530429D01*
X113371381Y-53339952D01*
X113419000Y-53244714D01*
X113514238Y-53149476D01*
X113704714Y-53101857D01*
X114038048Y-53101857D01*
X114228524Y-53149476D01*
X114323762Y-53244714D01*
X114371381Y-53339952D01*
X114371381Y-53530429D01*
X113466619Y-52720905D02*
X113419000Y-52673286D01*
X113371381Y-52578048D01*
X113371381Y-52339952D01*
X113419000Y-52244714D01*
X113466619Y-52197095D01*
X113561857Y-52149476D01*
X113657095Y-52149476D01*
X113799952Y-52197095D01*
X114371381Y-52768524D01*
X114371381Y-52149476D01*
X114593619Y-62706238D02*
X114546000Y-62801476D01*
X114450762Y-62896714D01*
X114307905Y-63039571D01*
X114260286Y-63134810D01*
X114260286Y-63230048D01*
X114498381Y-63182429D02*
X114450762Y-63277667D01*
X114355524Y-63372905D01*
X114165048Y-63420524D01*
X113831714Y-63420524D01*
X113641238Y-63372905D01*
X113546000Y-63277667D01*
X113498381Y-63182429D01*
X113498381Y-62991952D01*
X113546000Y-62896714D01*
X113641238Y-62801476D01*
X113831714Y-62753857D01*
X114165048Y-62753857D01*
X114355524Y-62801476D01*
X114450762Y-62896714D01*
X114498381Y-62991952D01*
X114498381Y-63182429D01*
X113498381Y-62420524D02*
X113498381Y-61801476D01*
X113879333Y-62134810D01*
X113879333Y-61991952D01*
X113926952Y-61896714D01*
X113974571Y-61849095D01*
X114069810Y-61801476D01*
X114307905Y-61801476D01*
X114403143Y-61849095D01*
X114450762Y-61896714D01*
X114498381Y-61991952D01*
X114498381Y-62277667D01*
X114450762Y-62372905D01*
X114403143Y-62420524D01*
X112990381Y-86693333D02*
X113704667Y-86693333D01*
X113847524Y-86740953D01*
X113942762Y-86836191D01*
X113990381Y-86979048D01*
X113990381Y-87074286D01*
X113085619Y-86264762D02*
X113038000Y-86217143D01*
X112990381Y-86121905D01*
X112990381Y-85883809D01*
X113038000Y-85788571D01*
X113085619Y-85740952D01*
X113180857Y-85693333D01*
X113276095Y-85693333D01*
X113418952Y-85740952D01*
X113990381Y-86312381D01*
X113990381Y-85693333D01*
X143057619Y-89598405D02*
X143010000Y-89550786D01*
X142962381Y-89455548D01*
X142962381Y-89217452D01*
X143010000Y-89122214D01*
X143057619Y-89074595D01*
X143152857Y-89026976D01*
X143248095Y-89026976D01*
X143390952Y-89074595D01*
X143962381Y-89646024D01*
X143962381Y-89026976D01*
X142962381Y-88407929D02*
X142962381Y-88312690D01*
X143010000Y-88217452D01*
X143057619Y-88169833D01*
X143152857Y-88122214D01*
X143343333Y-88074595D01*
X143581429Y-88074595D01*
X143771905Y-88122214D01*
X143867143Y-88169833D01*
X143914762Y-88217452D01*
X143962381Y-88312690D01*
X143962381Y-88407929D01*
X143914762Y-88503167D01*
X143867143Y-88550786D01*
X143771905Y-88598405D01*
X143581429Y-88646024D01*
X143343333Y-88646024D01*
X143152857Y-88598405D01*
X143057619Y-88550786D01*
X143010000Y-88503167D01*
X142962381Y-88407929D01*
X112212381Y-91090785D02*
X112212381Y-91662214D01*
X112212381Y-91376500D02*
X111212381Y-91376500D01*
X111355238Y-91471738D01*
X111450476Y-91566976D01*
X111498095Y-91662214D01*
X105814881Y-45926333D02*
X106529167Y-45926333D01*
X106672024Y-45973953D01*
X106767262Y-46069191D01*
X106814881Y-46212048D01*
X106814881Y-46307286D01*
X106814881Y-44926333D02*
X106814881Y-45497762D01*
X106814881Y-45212048D02*
X105814881Y-45212048D01*
X105957738Y-45307286D01*
X106052976Y-45402524D01*
X106100595Y-45497762D01*
X108688214Y-47942523D02*
X109354881Y-47942523D01*
X108307262Y-48180619D02*
X109021548Y-48418714D01*
X109021548Y-47799666D01*
X97924881Y-50387285D02*
X97924881Y-50958714D01*
X97924881Y-50673000D02*
X96924881Y-50673000D01*
X97067738Y-50768238D01*
X97162976Y-50863476D01*
X97210595Y-50958714D01*
X145946834Y-71350143D02*
X145899215Y-71397762D01*
X145756358Y-71445381D01*
X145661120Y-71445381D01*
X145518262Y-71397762D01*
X145423024Y-71302524D01*
X145375405Y-71207286D01*
X145327786Y-71016810D01*
X145327786Y-70873952D01*
X145375405Y-70683476D01*
X145423024Y-70588238D01*
X145518262Y-70493000D01*
X145661120Y-70445381D01*
X145756358Y-70445381D01*
X145899215Y-70493000D01*
X145946834Y-70540619D01*
X146423024Y-71445381D02*
X146613500Y-71445381D01*
X146708739Y-71397762D01*
X146756358Y-71350143D01*
X146851596Y-71207286D01*
X146899215Y-71016810D01*
X146899215Y-70635857D01*
X146851596Y-70540619D01*
X146803977Y-70493000D01*
X146708739Y-70445381D01*
X146518262Y-70445381D01*
X146423024Y-70493000D01*
X146375405Y-70540619D01*
X146327786Y-70635857D01*
X146327786Y-70873952D01*
X146375405Y-70969190D01*
X146423024Y-71016810D01*
X146518262Y-71064429D01*
X146708739Y-71064429D01*
X146803977Y-71016810D01*
X146851596Y-70969190D01*
X146899215Y-70873952D01*
X102054785Y-65843786D02*
X102013214Y-65885357D01*
X101888500Y-65926929D01*
X101805357Y-65926929D01*
X101680642Y-65885357D01*
X101597500Y-65802214D01*
X101555928Y-65719071D01*
X101514357Y-65552786D01*
X101514357Y-65428071D01*
X101555928Y-65261786D01*
X101597500Y-65178643D01*
X101680642Y-65095500D01*
X101805357Y-65053929D01*
X101888500Y-65053929D01*
X102013214Y-65095500D01*
X102054785Y-65137071D01*
X102886214Y-65926929D02*
X102387357Y-65926929D01*
X102636785Y-65926929D02*
X102636785Y-65053929D01*
X102553642Y-65178643D01*
X102470500Y-65261786D01*
X102387357Y-65303357D01*
X103717643Y-65926929D02*
X103218786Y-65926929D01*
X103468214Y-65926929D02*
X103468214Y-65053929D01*
X103385071Y-65178643D01*
X103301929Y-65261786D01*
X103218786Y-65303357D01*
X101356285Y-63557786D02*
X101314714Y-63599357D01*
X101190000Y-63640929D01*
X101106857Y-63640929D01*
X100982142Y-63599357D01*
X100899000Y-63516214D01*
X100857428Y-63433071D01*
X100815857Y-63266786D01*
X100815857Y-63142071D01*
X100857428Y-62975786D01*
X100899000Y-62892643D01*
X100982142Y-62809500D01*
X101106857Y-62767929D01*
X101190000Y-62767929D01*
X101314714Y-62809500D01*
X101356285Y-62851071D01*
X102187714Y-63640929D02*
X101688857Y-63640929D01*
X101938285Y-63640929D02*
X101938285Y-62767929D01*
X101855142Y-62892643D01*
X101772000Y-62975786D01*
X101688857Y-63017357D01*
X102520286Y-62851071D02*
X102561857Y-62809500D01*
X102645000Y-62767929D01*
X102852857Y-62767929D01*
X102936000Y-62809500D01*
X102977571Y-62851071D01*
X103019143Y-62934214D01*
X103019143Y-63017357D01*
X102977571Y-63142071D01*
X102478714Y-63640929D01*
X103019143Y-63640929D01*
X128238262Y-53697119D02*
X128143024Y-53649500D01*
X128047786Y-53554262D01*
X127904929Y-53411405D01*
X127809690Y-53363786D01*
X127714452Y-53363786D01*
X127762071Y-53601881D02*
X127666833Y-53554262D01*
X127571595Y-53459024D01*
X127523976Y-53268548D01*
X127523976Y-52935214D01*
X127571595Y-52744738D01*
X127666833Y-52649500D01*
X127762071Y-52601881D01*
X127952548Y-52601881D01*
X128047786Y-52649500D01*
X128143024Y-52744738D01*
X128190643Y-52935214D01*
X128190643Y-53268548D01*
X128143024Y-53459024D01*
X128047786Y-53554262D01*
X127952548Y-53601881D01*
X127762071Y-53601881D01*
X129047786Y-52935214D02*
X129047786Y-53601881D01*
X128809690Y-52554262D02*
X128571595Y-53268548D01*
X129190643Y-53268548D01*
X128201000Y-60578167D02*
X127967666Y-60244833D01*
X127801000Y-60578167D02*
X127801000Y-59878167D01*
X128067666Y-59878167D01*
X128134333Y-59911500D01*
X128167666Y-59944833D01*
X128201000Y-60011500D01*
X128201000Y-60111500D01*
X128167666Y-60178167D01*
X128134333Y-60211500D01*
X128067666Y-60244833D01*
X127801000Y-60244833D01*
X128467666Y-59944833D02*
X128501000Y-59911500D01*
X128567666Y-59878167D01*
X128734333Y-59878167D01*
X128801000Y-59911500D01*
X128834333Y-59944833D01*
X128867666Y-60011500D01*
X128867666Y-60078167D01*
X128834333Y-60178167D01*
X128434333Y-60578167D01*
X128867666Y-60578167D01*
X129201000Y-60578167D02*
X129334333Y-60578167D01*
X129401000Y-60544833D01*
X129434333Y-60511500D01*
X129501000Y-60411500D01*
X129534333Y-60278167D01*
X129534333Y-60011500D01*
X129501000Y-59944833D01*
X129467667Y-59911500D01*
X129401000Y-59878167D01*
X129267667Y-59878167D01*
X129201000Y-59911500D01*
X129167667Y-59944833D01*
X129134333Y-60011500D01*
X129134333Y-60178167D01*
X129167667Y-60244833D01*
X129201000Y-60278167D01*
X129267667Y-60311500D01*
X129401000Y-60311500D01*
X129467667Y-60278167D01*
X129501000Y-60244833D01*
X129534333Y-60178167D01*
M02*
