G04 #@! TF.FileFunction,Soldermask,Top*
%FSLAX46Y46*%
G04 Gerber Fmt 4.6, Leading zero omitted, Abs format (unit mm)*
G04 Created by KiCad (PCBNEW 4.0.7-e2-6376~58~ubuntu16.04.1) date Sun Feb 11 11:03:39 2018*
%MOMM*%
%LPD*%
G01*
G04 APERTURE LIST*
%ADD10C,0.100000*%
%ADD11R,1.400000X1.650000*%
%ADD12R,1.600000X1.600000*%
%ADD13R,1.700000X1.100000*%
%ADD14R,1.650000X1.400000*%
%ADD15R,2.000000X1.400000*%
%ADD16R,2.178000X2.559000*%
%ADD17R,1.300000X1.200000*%
%ADD18R,1.300000X2.900000*%
%ADD19R,8.600000X3.700000*%
%ADD20R,2.127200X2.127200*%
%ADD21O,2.127200X2.127200*%
%ADD22R,1.100000X1.700000*%
%ADD23R,1.400000X3.600000*%
%ADD24R,1.050000X1.460000*%
%ADD25R,1.460000X1.050000*%
%ADD26R,1.600000X1.800000*%
%ADD27R,1.000000X1.950000*%
%ADD28R,1.200000X1.300000*%
%ADD29C,1.700000*%
%ADD30C,2.400000*%
G04 APERTURE END LIST*
D10*
D11*
X146859500Y-78422500D03*
X144859500Y-78422500D03*
D12*
X139065000Y-62060000D03*
X139065000Y-59860000D03*
X136525000Y-62060000D03*
X136525000Y-59860000D03*
X133985000Y-60155000D03*
X133985000Y-57955000D03*
D13*
X139065000Y-58100000D03*
X139065000Y-56200000D03*
X136525000Y-57465000D03*
X136525000Y-55565000D03*
X133350000Y-56131500D03*
X133350000Y-54231500D03*
D11*
X121650000Y-71120000D03*
X119650000Y-71120000D03*
D10*
G36*
X126348719Y-70604555D02*
X127515445Y-71771281D01*
X126525495Y-72761231D01*
X125358769Y-71594505D01*
X126348719Y-70604555D01*
X126348719Y-70604555D01*
G37*
G36*
X124934505Y-72018769D02*
X126101231Y-73185495D01*
X125111281Y-74175445D01*
X123944555Y-73008719D01*
X124934505Y-72018769D01*
X124934505Y-72018769D01*
G37*
D14*
X141605000Y-59420000D03*
X141605000Y-57420000D03*
D15*
X110490000Y-81050000D03*
X110490000Y-84050000D03*
D14*
X100330000Y-79010000D03*
X100330000Y-81010000D03*
D11*
X137207500Y-82232500D03*
X135207500Y-82232500D03*
X99520500Y-67627500D03*
X101520500Y-67627500D03*
X134890000Y-74930000D03*
X136890000Y-74930000D03*
D12*
X120185000Y-57150000D03*
X122385000Y-57150000D03*
X110977500Y-55562500D03*
X113177500Y-55562500D03*
X110977500Y-65087500D03*
X113177500Y-65087500D03*
D16*
X105918000Y-87630000D03*
X109982000Y-87630000D03*
D17*
X109220000Y-73880000D03*
X109220000Y-75980000D03*
X106680000Y-62450000D03*
X106680000Y-64550000D03*
D18*
X105590000Y-83820000D03*
X102690000Y-83820000D03*
D19*
X102870000Y-75375000D03*
X102870000Y-70675000D03*
D20*
X119380000Y-79438500D03*
D21*
X119380000Y-76898500D03*
X116840000Y-79438500D03*
X116840000Y-76898500D03*
X114300000Y-79438500D03*
X114300000Y-76898500D03*
D22*
X141290000Y-69850000D03*
X143190000Y-69850000D03*
D13*
X121285000Y-61910000D03*
X121285000Y-60010000D03*
X123825000Y-60010000D03*
X123825000Y-61910000D03*
X145415000Y-67625000D03*
X145415000Y-65725000D03*
D22*
X143190000Y-63500000D03*
X141290000Y-63500000D03*
D13*
X126365000Y-61910000D03*
X126365000Y-60010000D03*
X112077500Y-60322500D03*
X112077500Y-58422500D03*
X114617500Y-58422500D03*
X114617500Y-60322500D03*
X117157500Y-60322500D03*
X117157500Y-58422500D03*
D22*
X141290000Y-78740000D03*
X143190000Y-78740000D03*
D13*
X145415000Y-76515000D03*
X145415000Y-74615000D03*
D22*
X143190000Y-72390000D03*
X141290000Y-72390000D03*
D13*
X112077500Y-69847500D03*
X112077500Y-67947500D03*
X114617500Y-67947500D03*
X114617500Y-69847500D03*
X117157500Y-69847500D03*
X117157500Y-67947500D03*
X144145000Y-57470000D03*
X144145000Y-59370000D03*
X109220000Y-79690000D03*
X109220000Y-77790000D03*
X107950000Y-83500000D03*
X107950000Y-81600000D03*
D22*
X110170000Y-69215000D03*
X108270000Y-69215000D03*
X110170000Y-71755000D03*
X108270000Y-71755000D03*
D13*
X130175000Y-78420000D03*
X130175000Y-76520000D03*
X132715000Y-78420000D03*
X132715000Y-76520000D03*
D23*
X103874500Y-59499500D03*
X97674500Y-59499500D03*
D22*
X122875000Y-65405000D03*
X124775000Y-65405000D03*
D13*
X104140000Y-62550000D03*
X104140000Y-64450000D03*
D24*
X141290000Y-67775000D03*
X142240000Y-67775000D03*
X143190000Y-67775000D03*
X143190000Y-65575000D03*
X141290000Y-65575000D03*
X141290000Y-76665000D03*
X142240000Y-76665000D03*
X143190000Y-76665000D03*
X143190000Y-74465000D03*
X141290000Y-74465000D03*
D25*
X102405000Y-79060000D03*
X102405000Y-80010000D03*
X102405000Y-80960000D03*
X104605000Y-80960000D03*
X104605000Y-79060000D03*
X104605000Y-80010000D03*
D26*
X137007500Y-79522500D03*
X137007500Y-77322500D03*
X135407500Y-77322500D03*
X135407500Y-79522500D03*
D10*
G36*
X126723666Y-70013288D02*
X126051914Y-69341536D01*
X127466128Y-67927322D01*
X128137880Y-68599074D01*
X126723666Y-70013288D01*
X126723666Y-70013288D01*
G37*
G36*
X127289352Y-70578973D02*
X126617600Y-69907221D01*
X128031814Y-68493007D01*
X128703566Y-69164759D01*
X127289352Y-70578973D01*
X127289352Y-70578973D01*
G37*
G36*
X127855037Y-71144659D02*
X127183285Y-70472907D01*
X128597499Y-69058693D01*
X129269251Y-69730445D01*
X127855037Y-71144659D01*
X127855037Y-71144659D01*
G37*
G36*
X128420722Y-71710344D02*
X127748970Y-71038592D01*
X129163184Y-69624378D01*
X129834936Y-70296130D01*
X128420722Y-71710344D01*
X128420722Y-71710344D01*
G37*
G36*
X128986408Y-72276030D02*
X128314656Y-71604278D01*
X129728870Y-70190064D01*
X130400622Y-70861816D01*
X128986408Y-72276030D01*
X128986408Y-72276030D01*
G37*
G36*
X129552093Y-72841715D02*
X128880341Y-72169963D01*
X130294555Y-70755749D01*
X130966307Y-71427501D01*
X129552093Y-72841715D01*
X129552093Y-72841715D01*
G37*
G36*
X130117779Y-73407400D02*
X129446027Y-72735648D01*
X130860241Y-71321434D01*
X131531993Y-71993186D01*
X130117779Y-73407400D01*
X130117779Y-73407400D01*
G37*
G36*
X130683464Y-73973086D02*
X130011712Y-73301334D01*
X131425926Y-71887120D01*
X132097678Y-72558872D01*
X130683464Y-73973086D01*
X130683464Y-73973086D01*
G37*
G36*
X134148288Y-73301334D02*
X133476536Y-73973086D01*
X132062322Y-72558872D01*
X132734074Y-71887120D01*
X134148288Y-73301334D01*
X134148288Y-73301334D01*
G37*
G36*
X134713973Y-72735648D02*
X134042221Y-73407400D01*
X132628007Y-71993186D01*
X133299759Y-71321434D01*
X134713973Y-72735648D01*
X134713973Y-72735648D01*
G37*
G36*
X135279659Y-72169963D02*
X134607907Y-72841715D01*
X133193693Y-71427501D01*
X133865445Y-70755749D01*
X135279659Y-72169963D01*
X135279659Y-72169963D01*
G37*
G36*
X135845344Y-71604278D02*
X135173592Y-72276030D01*
X133759378Y-70861816D01*
X134431130Y-70190064D01*
X135845344Y-71604278D01*
X135845344Y-71604278D01*
G37*
G36*
X136411030Y-71038592D02*
X135739278Y-71710344D01*
X134325064Y-70296130D01*
X134996816Y-69624378D01*
X136411030Y-71038592D01*
X136411030Y-71038592D01*
G37*
G36*
X136976715Y-70472907D02*
X136304963Y-71144659D01*
X134890749Y-69730445D01*
X135562501Y-69058693D01*
X136976715Y-70472907D01*
X136976715Y-70472907D01*
G37*
G36*
X137542400Y-69907221D02*
X136870648Y-70578973D01*
X135456434Y-69164759D01*
X136128186Y-68493007D01*
X137542400Y-69907221D01*
X137542400Y-69907221D01*
G37*
G36*
X138108086Y-69341536D02*
X137436334Y-70013288D01*
X136022120Y-68599074D01*
X136693872Y-67927322D01*
X138108086Y-69341536D01*
X138108086Y-69341536D01*
G37*
G36*
X136693872Y-67962678D02*
X136022120Y-67290926D01*
X137436334Y-65876712D01*
X138108086Y-66548464D01*
X136693872Y-67962678D01*
X136693872Y-67962678D01*
G37*
G36*
X136128186Y-67396993D02*
X135456434Y-66725241D01*
X136870648Y-65311027D01*
X137542400Y-65982779D01*
X136128186Y-67396993D01*
X136128186Y-67396993D01*
G37*
G36*
X135562501Y-66831307D02*
X134890749Y-66159555D01*
X136304963Y-64745341D01*
X136976715Y-65417093D01*
X135562501Y-66831307D01*
X135562501Y-66831307D01*
G37*
G36*
X134996816Y-66265622D02*
X134325064Y-65593870D01*
X135739278Y-64179656D01*
X136411030Y-64851408D01*
X134996816Y-66265622D01*
X134996816Y-66265622D01*
G37*
G36*
X134431130Y-65699936D02*
X133759378Y-65028184D01*
X135173592Y-63613970D01*
X135845344Y-64285722D01*
X134431130Y-65699936D01*
X134431130Y-65699936D01*
G37*
G36*
X133865445Y-65134251D02*
X133193693Y-64462499D01*
X134607907Y-63048285D01*
X135279659Y-63720037D01*
X133865445Y-65134251D01*
X133865445Y-65134251D01*
G37*
G36*
X133299759Y-64568566D02*
X132628007Y-63896814D01*
X134042221Y-62482600D01*
X134713973Y-63154352D01*
X133299759Y-64568566D01*
X133299759Y-64568566D01*
G37*
G36*
X132734074Y-64002880D02*
X132062322Y-63331128D01*
X133476536Y-61916914D01*
X134148288Y-62588666D01*
X132734074Y-64002880D01*
X132734074Y-64002880D01*
G37*
G36*
X132097678Y-63331128D02*
X131425926Y-64002880D01*
X130011712Y-62588666D01*
X130683464Y-61916914D01*
X132097678Y-63331128D01*
X132097678Y-63331128D01*
G37*
G36*
X131531993Y-63896814D02*
X130860241Y-64568566D01*
X129446027Y-63154352D01*
X130117779Y-62482600D01*
X131531993Y-63896814D01*
X131531993Y-63896814D01*
G37*
G36*
X130966307Y-64462499D02*
X130294555Y-65134251D01*
X128880341Y-63720037D01*
X129552093Y-63048285D01*
X130966307Y-64462499D01*
X130966307Y-64462499D01*
G37*
G36*
X130400622Y-65028184D02*
X129728870Y-65699936D01*
X128314656Y-64285722D01*
X128986408Y-63613970D01*
X130400622Y-65028184D01*
X130400622Y-65028184D01*
G37*
G36*
X129834936Y-65593870D02*
X129163184Y-66265622D01*
X127748970Y-64851408D01*
X128420722Y-64179656D01*
X129834936Y-65593870D01*
X129834936Y-65593870D01*
G37*
G36*
X129269251Y-66159555D02*
X128597499Y-66831307D01*
X127183285Y-65417093D01*
X127855037Y-64745341D01*
X129269251Y-66159555D01*
X129269251Y-66159555D01*
G37*
G36*
X128703566Y-66725241D02*
X128031814Y-67396993D01*
X126617600Y-65982779D01*
X127289352Y-65311027D01*
X128703566Y-66725241D01*
X128703566Y-66725241D01*
G37*
G36*
X128137880Y-67290926D02*
X127466128Y-67962678D01*
X126051914Y-66548464D01*
X126723666Y-65876712D01*
X128137880Y-67290926D01*
X128137880Y-67290926D01*
G37*
D27*
X126365000Y-75405000D03*
X125095000Y-75405000D03*
X123825000Y-75405000D03*
X122555000Y-75405000D03*
X122555000Y-80805000D03*
X123825000Y-80805000D03*
X125095000Y-80805000D03*
X126365000Y-80805000D03*
D28*
X124780000Y-56930000D03*
X126680000Y-56930000D03*
X125730000Y-54830000D03*
X115572500Y-55342500D03*
X117472500Y-55342500D03*
X116522500Y-53242500D03*
X115572500Y-64867500D03*
X117472500Y-64867500D03*
X116522500Y-62767500D03*
D29*
X120650000Y-91376500D03*
X118110000Y-91376500D03*
X115570000Y-91376500D03*
X123190000Y-91376500D03*
X116840000Y-88836500D03*
X119380000Y-88836500D03*
X121920000Y-88836500D03*
X124460000Y-88836500D03*
X125730000Y-91376500D03*
X127000000Y-88836500D03*
X128270000Y-91376500D03*
X129540000Y-88836500D03*
X130810000Y-91376500D03*
X132080000Y-88836500D03*
X133350000Y-91376500D03*
X134620000Y-88836500D03*
X135890000Y-91376500D03*
X137160000Y-88836500D03*
X138430000Y-91376500D03*
X139700000Y-88836500D03*
D30*
X114170000Y-89576500D03*
D29*
X103822500Y-50673000D03*
X101282500Y-50673000D03*
X102552500Y-48133000D03*
X105092500Y-48133000D03*
D30*
X99882500Y-49173000D03*
D11*
X147113500Y-69532500D03*
X145113500Y-69532500D03*
X98695000Y-65341500D03*
X100695000Y-65341500D03*
X97933000Y-63182500D03*
X99933000Y-63182500D03*
D17*
X128673571Y-54553939D03*
X128673571Y-56453939D03*
X130773571Y-55503939D03*
D22*
X130553500Y-58737500D03*
X128653500Y-58737500D03*
M02*
