G04 #@! TF.FileFunction,Copper,L1,Top,Signal*
%FSLAX46Y46*%
G04 Gerber Fmt 4.6, Leading zero omitted, Abs format (unit mm)*
G04 Created by KiCad (PCBNEW 4.0.7-e2-6376~58~ubuntu16.04.1) date Sun Feb 11 11:03:39 2018*
%MOMM*%
%LPD*%
G01*
G04 APERTURE LIST*
%ADD10C,0.100000*%
%ADD11R,1.000000X1.250000*%
%ADD12R,1.200000X1.200000*%
%ADD13R,1.300000X0.700000*%
%ADD14R,1.250000X1.000000*%
%ADD15R,1.600000X1.000000*%
%ADD16R,1.778000X2.159000*%
%ADD17R,0.900000X0.800000*%
%ADD18R,0.900000X2.500000*%
%ADD19R,8.200000X3.300000*%
%ADD20R,1.727200X1.727200*%
%ADD21O,1.727200X1.727200*%
%ADD22R,0.700000X1.300000*%
%ADD23R,1.000000X3.200000*%
%ADD24R,0.650000X1.060000*%
%ADD25R,1.060000X0.650000*%
%ADD26R,1.200000X1.400000*%
%ADD27R,0.600000X1.550000*%
%ADD28R,0.800000X0.900000*%
%ADD29C,1.300000*%
%ADD30C,2.000000*%
%ADD31C,0.609600*%
%ADD32C,0.254000*%
%ADD33C,0.762000*%
%ADD34C,1.397000*%
G04 APERTURE END LIST*
D10*
D11*
X146859500Y-78422500D03*
X144859500Y-78422500D03*
D12*
X139065000Y-62060000D03*
X139065000Y-59860000D03*
X136525000Y-62060000D03*
X136525000Y-59860000D03*
X133985000Y-60155000D03*
X133985000Y-57955000D03*
D13*
X139065000Y-58100000D03*
X139065000Y-56200000D03*
X136525000Y-57465000D03*
X136525000Y-55565000D03*
X133350000Y-56131500D03*
X133350000Y-54231500D03*
D11*
X121650000Y-71120000D03*
X119650000Y-71120000D03*
D10*
G36*
X126348719Y-70887398D02*
X127232602Y-71771281D01*
X126525495Y-72478388D01*
X125641612Y-71594505D01*
X126348719Y-70887398D01*
X126348719Y-70887398D01*
G37*
G36*
X124934505Y-72301612D02*
X125818388Y-73185495D01*
X125111281Y-73892602D01*
X124227398Y-73008719D01*
X124934505Y-72301612D01*
X124934505Y-72301612D01*
G37*
D14*
X141605000Y-59420000D03*
X141605000Y-57420000D03*
D15*
X110490000Y-81050000D03*
X110490000Y-84050000D03*
D14*
X100330000Y-79010000D03*
X100330000Y-81010000D03*
D11*
X137207500Y-82232500D03*
X135207500Y-82232500D03*
X99520500Y-67627500D03*
X101520500Y-67627500D03*
X134890000Y-74930000D03*
X136890000Y-74930000D03*
D12*
X120185000Y-57150000D03*
X122385000Y-57150000D03*
X110977500Y-55562500D03*
X113177500Y-55562500D03*
X110977500Y-65087500D03*
X113177500Y-65087500D03*
D16*
X105918000Y-87630000D03*
X109982000Y-87630000D03*
D17*
X109220000Y-73880000D03*
X109220000Y-75980000D03*
X106680000Y-62450000D03*
X106680000Y-64550000D03*
D18*
X105590000Y-83820000D03*
X102690000Y-83820000D03*
D19*
X102870000Y-75375000D03*
X102870000Y-70675000D03*
D20*
X119380000Y-79438500D03*
D21*
X119380000Y-76898500D03*
X116840000Y-79438500D03*
X116840000Y-76898500D03*
X114300000Y-79438500D03*
X114300000Y-76898500D03*
D22*
X141290000Y-69850000D03*
X143190000Y-69850000D03*
D13*
X121285000Y-61910000D03*
X121285000Y-60010000D03*
X123825000Y-60010000D03*
X123825000Y-61910000D03*
X145415000Y-67625000D03*
X145415000Y-65725000D03*
D22*
X143190000Y-63500000D03*
X141290000Y-63500000D03*
D13*
X126365000Y-61910000D03*
X126365000Y-60010000D03*
X112077500Y-60322500D03*
X112077500Y-58422500D03*
X114617500Y-58422500D03*
X114617500Y-60322500D03*
X117157500Y-60322500D03*
X117157500Y-58422500D03*
D22*
X141290000Y-78740000D03*
X143190000Y-78740000D03*
D13*
X145415000Y-76515000D03*
X145415000Y-74615000D03*
D22*
X143190000Y-72390000D03*
X141290000Y-72390000D03*
D13*
X112077500Y-69847500D03*
X112077500Y-67947500D03*
X114617500Y-67947500D03*
X114617500Y-69847500D03*
X117157500Y-69847500D03*
X117157500Y-67947500D03*
X144145000Y-57470000D03*
X144145000Y-59370000D03*
X109220000Y-79690000D03*
X109220000Y-77790000D03*
X107950000Y-83500000D03*
X107950000Y-81600000D03*
D22*
X110170000Y-69215000D03*
X108270000Y-69215000D03*
X110170000Y-71755000D03*
X108270000Y-71755000D03*
D13*
X130175000Y-78420000D03*
X130175000Y-76520000D03*
X132715000Y-78420000D03*
X132715000Y-76520000D03*
D23*
X103874500Y-59499500D03*
X97674500Y-59499500D03*
D22*
X122875000Y-65405000D03*
X124775000Y-65405000D03*
D13*
X104140000Y-62550000D03*
X104140000Y-64450000D03*
D24*
X141290000Y-67775000D03*
X142240000Y-67775000D03*
X143190000Y-67775000D03*
X143190000Y-65575000D03*
X141290000Y-65575000D03*
X141290000Y-76665000D03*
X142240000Y-76665000D03*
X143190000Y-76665000D03*
X143190000Y-74465000D03*
X141290000Y-74465000D03*
D25*
X102405000Y-79060000D03*
X102405000Y-80010000D03*
X102405000Y-80960000D03*
X104605000Y-80960000D03*
X104605000Y-79060000D03*
X104605000Y-80010000D03*
D26*
X137007500Y-79522500D03*
X137007500Y-77322500D03*
X135407500Y-77322500D03*
X135407500Y-79522500D03*
D10*
G36*
X126723666Y-69730445D02*
X126334757Y-69341536D01*
X127466128Y-68210165D01*
X127855037Y-68599074D01*
X126723666Y-69730445D01*
X126723666Y-69730445D01*
G37*
G36*
X127289352Y-70296130D02*
X126900443Y-69907221D01*
X128031814Y-68775850D01*
X128420723Y-69164759D01*
X127289352Y-70296130D01*
X127289352Y-70296130D01*
G37*
G36*
X127855037Y-70861816D02*
X127466128Y-70472907D01*
X128597499Y-69341536D01*
X128986408Y-69730445D01*
X127855037Y-70861816D01*
X127855037Y-70861816D01*
G37*
G36*
X128420722Y-71427501D02*
X128031813Y-71038592D01*
X129163184Y-69907221D01*
X129552093Y-70296130D01*
X128420722Y-71427501D01*
X128420722Y-71427501D01*
G37*
G36*
X128986408Y-71993187D02*
X128597499Y-71604278D01*
X129728870Y-70472907D01*
X130117779Y-70861816D01*
X128986408Y-71993187D01*
X128986408Y-71993187D01*
G37*
G36*
X129552093Y-72558872D02*
X129163184Y-72169963D01*
X130294555Y-71038592D01*
X130683464Y-71427501D01*
X129552093Y-72558872D01*
X129552093Y-72558872D01*
G37*
G36*
X130117779Y-73124557D02*
X129728870Y-72735648D01*
X130860241Y-71604277D01*
X131249150Y-71993186D01*
X130117779Y-73124557D01*
X130117779Y-73124557D01*
G37*
G36*
X130683464Y-73690243D02*
X130294555Y-73301334D01*
X131425926Y-72169963D01*
X131814835Y-72558872D01*
X130683464Y-73690243D01*
X130683464Y-73690243D01*
G37*
G36*
X133865445Y-73301334D02*
X133476536Y-73690243D01*
X132345165Y-72558872D01*
X132734074Y-72169963D01*
X133865445Y-73301334D01*
X133865445Y-73301334D01*
G37*
G36*
X134431130Y-72735648D02*
X134042221Y-73124557D01*
X132910850Y-71993186D01*
X133299759Y-71604277D01*
X134431130Y-72735648D01*
X134431130Y-72735648D01*
G37*
G36*
X134996816Y-72169963D02*
X134607907Y-72558872D01*
X133476536Y-71427501D01*
X133865445Y-71038592D01*
X134996816Y-72169963D01*
X134996816Y-72169963D01*
G37*
G36*
X135562501Y-71604278D02*
X135173592Y-71993187D01*
X134042221Y-70861816D01*
X134431130Y-70472907D01*
X135562501Y-71604278D01*
X135562501Y-71604278D01*
G37*
G36*
X136128187Y-71038592D02*
X135739278Y-71427501D01*
X134607907Y-70296130D01*
X134996816Y-69907221D01*
X136128187Y-71038592D01*
X136128187Y-71038592D01*
G37*
G36*
X136693872Y-70472907D02*
X136304963Y-70861816D01*
X135173592Y-69730445D01*
X135562501Y-69341536D01*
X136693872Y-70472907D01*
X136693872Y-70472907D01*
G37*
G36*
X137259557Y-69907221D02*
X136870648Y-70296130D01*
X135739277Y-69164759D01*
X136128186Y-68775850D01*
X137259557Y-69907221D01*
X137259557Y-69907221D01*
G37*
G36*
X137825243Y-69341536D02*
X137436334Y-69730445D01*
X136304963Y-68599074D01*
X136693872Y-68210165D01*
X137825243Y-69341536D01*
X137825243Y-69341536D01*
G37*
G36*
X136693872Y-67679835D02*
X136304963Y-67290926D01*
X137436334Y-66159555D01*
X137825243Y-66548464D01*
X136693872Y-67679835D01*
X136693872Y-67679835D01*
G37*
G36*
X136128186Y-67114150D02*
X135739277Y-66725241D01*
X136870648Y-65593870D01*
X137259557Y-65982779D01*
X136128186Y-67114150D01*
X136128186Y-67114150D01*
G37*
G36*
X135562501Y-66548464D02*
X135173592Y-66159555D01*
X136304963Y-65028184D01*
X136693872Y-65417093D01*
X135562501Y-66548464D01*
X135562501Y-66548464D01*
G37*
G36*
X134996816Y-65982779D02*
X134607907Y-65593870D01*
X135739278Y-64462499D01*
X136128187Y-64851408D01*
X134996816Y-65982779D01*
X134996816Y-65982779D01*
G37*
G36*
X134431130Y-65417093D02*
X134042221Y-65028184D01*
X135173592Y-63896813D01*
X135562501Y-64285722D01*
X134431130Y-65417093D01*
X134431130Y-65417093D01*
G37*
G36*
X133865445Y-64851408D02*
X133476536Y-64462499D01*
X134607907Y-63331128D01*
X134996816Y-63720037D01*
X133865445Y-64851408D01*
X133865445Y-64851408D01*
G37*
G36*
X133299759Y-64285723D02*
X132910850Y-63896814D01*
X134042221Y-62765443D01*
X134431130Y-63154352D01*
X133299759Y-64285723D01*
X133299759Y-64285723D01*
G37*
G36*
X132734074Y-63720037D02*
X132345165Y-63331128D01*
X133476536Y-62199757D01*
X133865445Y-62588666D01*
X132734074Y-63720037D01*
X132734074Y-63720037D01*
G37*
G36*
X131814835Y-63331128D02*
X131425926Y-63720037D01*
X130294555Y-62588666D01*
X130683464Y-62199757D01*
X131814835Y-63331128D01*
X131814835Y-63331128D01*
G37*
G36*
X131249150Y-63896814D02*
X130860241Y-64285723D01*
X129728870Y-63154352D01*
X130117779Y-62765443D01*
X131249150Y-63896814D01*
X131249150Y-63896814D01*
G37*
G36*
X130683464Y-64462499D02*
X130294555Y-64851408D01*
X129163184Y-63720037D01*
X129552093Y-63331128D01*
X130683464Y-64462499D01*
X130683464Y-64462499D01*
G37*
G36*
X130117779Y-65028184D02*
X129728870Y-65417093D01*
X128597499Y-64285722D01*
X128986408Y-63896813D01*
X130117779Y-65028184D01*
X130117779Y-65028184D01*
G37*
G36*
X129552093Y-65593870D02*
X129163184Y-65982779D01*
X128031813Y-64851408D01*
X128420722Y-64462499D01*
X129552093Y-65593870D01*
X129552093Y-65593870D01*
G37*
G36*
X128986408Y-66159555D02*
X128597499Y-66548464D01*
X127466128Y-65417093D01*
X127855037Y-65028184D01*
X128986408Y-66159555D01*
X128986408Y-66159555D01*
G37*
G36*
X128420723Y-66725241D02*
X128031814Y-67114150D01*
X126900443Y-65982779D01*
X127289352Y-65593870D01*
X128420723Y-66725241D01*
X128420723Y-66725241D01*
G37*
G36*
X127855037Y-67290926D02*
X127466128Y-67679835D01*
X126334757Y-66548464D01*
X126723666Y-66159555D01*
X127855037Y-67290926D01*
X127855037Y-67290926D01*
G37*
D27*
X126365000Y-75405000D03*
X125095000Y-75405000D03*
X123825000Y-75405000D03*
X122555000Y-75405000D03*
X122555000Y-80805000D03*
X123825000Y-80805000D03*
X125095000Y-80805000D03*
X126365000Y-80805000D03*
D28*
X124780000Y-56930000D03*
X126680000Y-56930000D03*
X125730000Y-54830000D03*
X115572500Y-55342500D03*
X117472500Y-55342500D03*
X116522500Y-53242500D03*
X115572500Y-64867500D03*
X117472500Y-64867500D03*
X116522500Y-62767500D03*
D29*
X120650000Y-91376500D03*
X118110000Y-91376500D03*
X115570000Y-91376500D03*
X123190000Y-91376500D03*
X116840000Y-88836500D03*
X119380000Y-88836500D03*
X121920000Y-88836500D03*
X124460000Y-88836500D03*
X125730000Y-91376500D03*
X127000000Y-88836500D03*
X128270000Y-91376500D03*
X129540000Y-88836500D03*
X130810000Y-91376500D03*
X132080000Y-88836500D03*
X133350000Y-91376500D03*
X134620000Y-88836500D03*
X135890000Y-91376500D03*
X137160000Y-88836500D03*
X138430000Y-91376500D03*
X139700000Y-88836500D03*
D30*
X114170000Y-89576500D03*
D29*
X103822500Y-50673000D03*
X101282500Y-50673000D03*
X102552500Y-48133000D03*
X105092500Y-48133000D03*
D30*
X99882500Y-49173000D03*
D11*
X147113500Y-69532500D03*
X145113500Y-69532500D03*
X98695000Y-65341500D03*
X100695000Y-65341500D03*
X97933000Y-63182500D03*
X99933000Y-63182500D03*
D17*
X128673571Y-54553939D03*
X128673571Y-56453939D03*
X130773571Y-55503939D03*
D22*
X130553500Y-58737500D03*
X128653500Y-58737500D03*
D31*
X119380000Y-76771500D03*
X103378000Y-86868000D03*
X134683500Y-54229000D03*
X146685000Y-77343000D03*
X127190500Y-58166000D03*
X147066000Y-68008500D03*
X101346000Y-63182500D03*
X102997000Y-67627500D03*
X102171500Y-65341500D03*
X117983000Y-66167000D03*
X117856000Y-56642000D03*
X124968000Y-61976000D03*
X127508000Y-72898000D03*
X113665000Y-60325000D03*
X111950500Y-83820000D03*
X103505000Y-79375000D03*
X110490000Y-73660000D03*
X114300000Y-71120000D03*
X119380000Y-72390000D03*
X127635000Y-80645000D03*
X133985000Y-82550000D03*
X140970000Y-71120000D03*
X136525000Y-64135000D03*
X140335000Y-65405000D03*
X122555000Y-55880000D03*
X142875000Y-57150000D03*
X140335000Y-55880000D03*
X137795000Y-55245000D03*
X108585000Y-67945000D03*
X106680000Y-60960000D03*
X113030000Y-53975000D03*
X113665000Y-66675000D03*
X125730000Y-70231000D03*
X124587000Y-70993000D03*
X121158000Y-76136500D03*
X121158000Y-77724000D03*
X128778000Y-68453000D03*
X123698000Y-70675500D03*
X118745000Y-75184000D03*
X124460000Y-76708000D03*
X122936000Y-76708000D03*
X135953500Y-72390000D03*
X134175500Y-73787000D03*
X128016000Y-84963000D03*
X124968000Y-85026500D03*
X118554500Y-82296000D03*
X120205500Y-82550000D03*
X140843000Y-83185000D03*
X138684000Y-81724500D03*
X142875000Y-75565000D03*
X141605000Y-75565000D03*
X142875000Y-66675000D03*
X141605000Y-66675000D03*
X127000000Y-62865000D03*
X125730000Y-62865000D03*
X118745000Y-62230000D03*
X118745000Y-60325000D03*
X126873000Y-63881000D03*
X125095000Y-63500000D03*
X118681500Y-86360000D03*
X118046500Y-71247000D03*
X117094000Y-72326500D03*
X112268000Y-79438500D03*
X142430500Y-80264000D03*
X140652500Y-80200500D03*
X142303500Y-78740000D03*
X144018000Y-77025500D03*
X110490000Y-61595000D03*
X110490000Y-59563000D03*
X122555000Y-60325000D03*
X122555000Y-61595000D03*
X108331000Y-60198000D03*
X108331000Y-61722000D03*
X142430500Y-81153000D03*
X141097000Y-81026000D03*
X142367000Y-69659500D03*
X143954500Y-68008500D03*
X106045000Y-78740000D03*
X106045000Y-81280000D03*
D32*
X137160000Y-88836500D02*
X137160000Y-85788500D01*
X141290000Y-79949000D02*
X141290000Y-78740000D01*
X141732000Y-80391000D02*
X141290000Y-79949000D01*
X141732000Y-81343500D02*
X141732000Y-80391000D01*
X141478000Y-81597500D02*
X141732000Y-81343500D01*
X141351000Y-81597500D02*
X141478000Y-81597500D01*
X137160000Y-85788500D02*
X141351000Y-81597500D01*
X133350000Y-91376500D02*
X133794500Y-91376500D01*
X133794500Y-91376500D02*
X135064500Y-90106500D01*
X135890000Y-90106500D02*
X137160000Y-88836500D01*
X135064500Y-90106500D02*
X135890000Y-90106500D01*
X133350000Y-91376500D02*
X133159500Y-91376500D01*
X133159500Y-91376500D02*
X131953000Y-92583000D01*
X131953000Y-92583000D02*
X130238500Y-92583000D01*
X130238500Y-92583000D02*
X129540000Y-91884500D01*
X118110000Y-91376500D02*
X118110000Y-91948000D01*
X118110000Y-91948000D02*
X118808500Y-92646500D01*
X129540000Y-91948000D02*
X129540000Y-91884500D01*
X129540000Y-91884500D02*
X129540000Y-88836500D01*
X128841500Y-92646500D02*
X129540000Y-91948000D01*
X118808500Y-92646500D02*
X128841500Y-92646500D01*
X118110000Y-91376500D02*
X118110000Y-87503000D01*
X118110000Y-87503000D02*
X117983000Y-87376000D01*
X117983000Y-87376000D02*
X117983000Y-85280500D01*
X117983000Y-85280500D02*
X114046000Y-81343500D01*
X114046000Y-81343500D02*
X113919000Y-81343500D01*
X113919000Y-81343500D02*
X112966500Y-80391000D01*
X112966500Y-80391000D02*
X112966500Y-76263500D01*
X112966500Y-76263500D02*
X113728500Y-75501500D01*
X113728500Y-75501500D02*
X117983000Y-75501500D01*
X117983000Y-75501500D02*
X119380000Y-76898500D01*
X144859500Y-78422500D02*
X144335500Y-78422500D01*
X143510000Y-77597000D02*
X142113000Y-77597000D01*
X144335500Y-78422500D02*
X143510000Y-77597000D01*
X119380000Y-76898500D02*
X122047000Y-76898500D01*
X123825000Y-76962000D02*
X123825000Y-75405000D01*
X123190000Y-77597000D02*
X123825000Y-76962000D01*
X122745500Y-77597000D02*
X123190000Y-77597000D01*
X122047000Y-76898500D02*
X122745500Y-77597000D01*
X145113500Y-69532500D02*
X144907000Y-69532500D01*
X144907000Y-69532500D02*
X144145000Y-68770500D01*
X144145000Y-68770500D02*
X142049500Y-68770500D01*
D33*
X103874500Y-59499500D02*
X103874500Y-62284500D01*
X103874500Y-62284500D02*
X104140000Y-62550000D01*
D32*
X137160000Y-88836500D02*
X137287000Y-88836500D01*
X123698000Y-75532000D02*
X123825000Y-75405000D01*
X125730000Y-71120000D02*
X124460000Y-69850000D01*
X121650000Y-70120000D02*
X121650000Y-71120000D01*
X121920000Y-69850000D02*
X121650000Y-70120000D01*
X124460000Y-69850000D02*
X121920000Y-69850000D01*
X123825000Y-75405000D02*
X123825000Y-72771000D01*
X123825000Y-72771000D02*
X125476000Y-71120000D01*
X125476000Y-71120000D02*
X125730000Y-71120000D01*
X125874214Y-71120000D02*
X126437107Y-71682893D01*
X125730000Y-71120000D02*
X125874214Y-71120000D01*
X122875000Y-65405000D02*
X122875000Y-64450000D01*
X126365000Y-63500000D02*
X126365000Y-61910000D01*
X125730000Y-64135000D02*
X126365000Y-63500000D01*
X123190000Y-64135000D02*
X125730000Y-64135000D01*
X122875000Y-64450000D02*
X123190000Y-64135000D01*
X104140000Y-62550000D02*
X104140000Y-62230000D01*
X104140000Y-62230000D02*
X106045000Y-60325000D01*
X116520000Y-60960000D02*
X117157500Y-60322500D01*
X107950000Y-60960000D02*
X116520000Y-60960000D01*
X107315000Y-60325000D02*
X107950000Y-60960000D01*
X106045000Y-60325000D02*
X107315000Y-60325000D01*
X121285000Y-60960000D02*
X125730000Y-60960000D01*
X118110000Y-60960000D02*
X121285000Y-60960000D01*
X117472500Y-60322500D02*
X118110000Y-60960000D01*
X125730000Y-60960000D02*
X126365000Y-61595000D01*
X126365000Y-61595000D02*
X126365000Y-61910000D01*
X117157500Y-60322500D02*
X117472500Y-60322500D01*
X121650000Y-71120000D02*
X121285000Y-71120000D01*
X121285000Y-71120000D02*
X120650000Y-71755000D01*
X117157500Y-71437500D02*
X117157500Y-69847500D01*
X118745000Y-73025000D02*
X117157500Y-71437500D01*
X120015000Y-73025000D02*
X118745000Y-73025000D01*
X120650000Y-72390000D02*
X120015000Y-73025000D01*
X120650000Y-71755000D02*
X120650000Y-72390000D01*
X122875000Y-65405000D02*
X122555000Y-65405000D01*
X122555000Y-65405000D02*
X118112500Y-69847500D01*
X118112500Y-69847500D02*
X117157500Y-69847500D01*
X142240000Y-76665000D02*
X142240000Y-70485000D01*
X142240000Y-70485000D02*
X141605000Y-69850000D01*
X141605000Y-69850000D02*
X141290000Y-69850000D01*
X142240000Y-67775000D02*
X142240000Y-62865000D01*
X145100000Y-57470000D02*
X144145000Y-57470000D01*
X145415000Y-57785000D02*
X145100000Y-57470000D01*
X145415000Y-59690000D02*
X145415000Y-57785000D01*
X144780000Y-60325000D02*
X145415000Y-59690000D01*
X142240000Y-62865000D02*
X144780000Y-60325000D01*
X141290000Y-78740000D02*
X141290000Y-78420000D01*
X141290000Y-78420000D02*
X142113000Y-77597000D01*
X142113000Y-77597000D02*
X142240000Y-77470000D01*
X142240000Y-77470000D02*
X142240000Y-76665000D01*
X126437107Y-71682893D02*
X126927893Y-71682893D01*
X126927893Y-71682893D02*
X127000000Y-71755000D01*
X127000000Y-71755000D02*
X127704314Y-71755000D01*
X127704314Y-71755000D02*
X128791953Y-70667361D01*
X141290000Y-69850000D02*
X141290000Y-69530000D01*
X141290000Y-69530000D02*
X142049500Y-68770500D01*
X142049500Y-68770500D02*
X142240000Y-68580000D01*
X142240000Y-68580000D02*
X142240000Y-67775000D01*
X129540000Y-88900000D02*
X129540000Y-88836500D01*
X119380000Y-76771500D02*
X119888000Y-76263500D01*
D33*
X104140000Y-87630000D02*
X103378000Y-86868000D01*
X105918000Y-87630000D02*
X104140000Y-87630000D01*
D32*
X133350000Y-54231500D02*
X134681000Y-54231500D01*
X134681000Y-54231500D02*
X134683500Y-54229000D01*
X146859500Y-78422500D02*
X146859500Y-77517500D01*
X146859500Y-77517500D02*
X146685000Y-77343000D01*
X128653500Y-58737500D02*
X127762000Y-58737500D01*
X127762000Y-58737500D02*
X127190500Y-58166000D01*
X128673571Y-56453939D02*
X128673571Y-56682929D01*
X128673571Y-56682929D02*
X127190500Y-58166000D01*
X147113500Y-69532500D02*
X147113500Y-68056000D01*
X147113500Y-68056000D02*
X147066000Y-68008500D01*
X126680000Y-56930000D02*
X126680000Y-57655500D01*
X126680000Y-57655500D02*
X127190500Y-58166000D01*
X99933000Y-63182500D02*
X101346000Y-63182500D01*
X101520500Y-67627500D02*
X102997000Y-67627500D01*
X100695000Y-65341500D02*
X102171500Y-65341500D01*
X117472500Y-64867500D02*
X117472500Y-65656500D01*
X117472500Y-65656500D02*
X117983000Y-66167000D01*
X117472500Y-55342500D02*
X117472500Y-56258500D01*
X117472500Y-56258500D02*
X117856000Y-56642000D01*
X123825000Y-61910000D02*
X124902000Y-61910000D01*
X124902000Y-61910000D02*
X124968000Y-61976000D01*
X127600343Y-72990343D02*
X127508000Y-72898000D01*
X114617500Y-60322500D02*
X113667500Y-60322500D01*
X113667500Y-60322500D02*
X113665000Y-60325000D01*
X110490000Y-84050000D02*
X110720000Y-84050000D01*
X110720000Y-84050000D02*
X111950500Y-83820000D01*
X102405000Y-79060000D02*
X103190000Y-79060000D01*
X103190000Y-79060000D02*
X103505000Y-79375000D01*
X109220000Y-73880000D02*
X110270000Y-73880000D01*
X110270000Y-73880000D02*
X110490000Y-73660000D01*
X114617500Y-69847500D02*
X114617500Y-70802500D01*
X114617500Y-70802500D02*
X114300000Y-71120000D01*
X119650000Y-71120000D02*
X119650000Y-72120000D01*
X119650000Y-72120000D02*
X119380000Y-72390000D01*
X125022893Y-73097107D02*
X125802107Y-73097107D01*
X126930686Y-73660000D02*
X127600343Y-72990343D01*
X127600343Y-72990343D02*
X129357639Y-71233047D01*
X126365000Y-73660000D02*
X126930686Y-73660000D01*
X125802107Y-73097107D02*
X126365000Y-73660000D01*
X125095000Y-75405000D02*
X125095000Y-73169214D01*
X125095000Y-73169214D02*
X125022893Y-73097107D01*
X126365000Y-80805000D02*
X127475000Y-80805000D01*
X127475000Y-80805000D02*
X127635000Y-80645000D01*
X135407500Y-79522500D02*
X135407500Y-79222500D01*
X135407500Y-79222500D02*
X137007500Y-77622500D01*
X137007500Y-77622500D02*
X137007500Y-77322500D01*
X135207500Y-82232500D02*
X134302500Y-82232500D01*
X134302500Y-82232500D02*
X133985000Y-82550000D01*
X135207500Y-82232500D02*
X135207500Y-79722500D01*
X135207500Y-79722500D02*
X135407500Y-79522500D01*
X136890000Y-74930000D02*
X136890000Y-77205000D01*
X136890000Y-77205000D02*
X137007500Y-77322500D01*
X141290000Y-72390000D02*
X141290000Y-71440000D01*
X141290000Y-71440000D02*
X140970000Y-71120000D01*
X135368047Y-65222639D02*
X135437361Y-65222639D01*
X135437361Y-65222639D02*
X136525000Y-64135000D01*
X141290000Y-65575000D02*
X140505000Y-65575000D01*
X140505000Y-65575000D02*
X140335000Y-65405000D01*
X122385000Y-57150000D02*
X122385000Y-56050000D01*
X122385000Y-56050000D02*
X122555000Y-55880000D01*
X141605000Y-57420000D02*
X142605000Y-57420000D01*
X142605000Y-57420000D02*
X142875000Y-57150000D01*
X139065000Y-56200000D02*
X140015000Y-56200000D01*
X140015000Y-56200000D02*
X140335000Y-55880000D01*
X136525000Y-55565000D02*
X137475000Y-55565000D01*
X137475000Y-55565000D02*
X137795000Y-55245000D01*
X108270000Y-69215000D02*
X108270000Y-68260000D01*
X108270000Y-68260000D02*
X108585000Y-67945000D01*
X106680000Y-62450000D02*
X106680000Y-60960000D01*
X113177500Y-65087500D02*
X113177500Y-66187500D01*
X114617500Y-60322500D02*
X114302500Y-60322500D01*
X113177500Y-55562500D02*
X113177500Y-54122500D01*
X113177500Y-54122500D02*
X113030000Y-53975000D01*
X141290000Y-65575000D02*
X141290000Y-63500000D01*
X141290000Y-74465000D02*
X141290000Y-72390000D01*
X102600000Y-79010000D02*
X102555000Y-78965000D01*
X102555000Y-78965000D02*
X102555000Y-78910000D01*
X117472500Y-64917500D02*
X117472500Y-64772500D01*
X113177500Y-66187500D02*
X113665000Y-66675000D01*
X141605000Y-59420000D02*
X141605000Y-61595000D01*
X137587056Y-64135000D02*
X135933732Y-65788324D01*
X138430000Y-64135000D02*
X137587056Y-64135000D01*
X139065000Y-63500000D02*
X138430000Y-64135000D01*
X139700000Y-63500000D02*
X139065000Y-63500000D01*
X140335000Y-62865000D02*
X139700000Y-63500000D01*
X141605000Y-61595000D02*
X140335000Y-62865000D01*
X141605000Y-59420000D02*
X144095000Y-59420000D01*
X144095000Y-59420000D02*
X144145000Y-59370000D01*
X102870000Y-83820000D02*
X104775000Y-81915000D01*
X104775000Y-81915000D02*
X106045000Y-81915000D01*
X106045000Y-81915000D02*
X106680000Y-82550000D01*
X106680000Y-82550000D02*
X106680000Y-83185000D01*
X106680000Y-83185000D02*
X106995000Y-83500000D01*
X106995000Y-83500000D02*
X107950000Y-83500000D01*
X102690000Y-83820000D02*
X102870000Y-83820000D01*
X107950000Y-83500000D02*
X108270000Y-83500000D01*
X108270000Y-83500000D02*
X109220000Y-82550000D01*
X109220000Y-82550000D02*
X109220000Y-81280000D01*
X109220000Y-81280000D02*
X109450000Y-81050000D01*
X109450000Y-81050000D02*
X110490000Y-81050000D01*
X109220000Y-79690000D02*
X109220000Y-79780000D01*
X109220000Y-79780000D02*
X110490000Y-81050000D01*
D33*
X102690000Y-83820000D02*
X102690000Y-82370000D01*
X102405000Y-82085000D02*
X102405000Y-80960000D01*
X102690000Y-82370000D02*
X102405000Y-82085000D01*
X100330000Y-79010000D02*
X100695000Y-79010000D01*
X100695000Y-79010000D02*
X101600000Y-78105000D01*
X101600000Y-78105000D02*
X104140000Y-78105000D01*
X104140000Y-78105000D02*
X104605000Y-78570000D01*
X104605000Y-78570000D02*
X104605000Y-79060000D01*
X100330000Y-81010000D02*
X100600000Y-81010000D01*
X100600000Y-81010000D02*
X101600000Y-80010000D01*
X101600000Y-80010000D02*
X102405000Y-80010000D01*
X100330000Y-81010000D02*
X99425000Y-81010000D01*
X98425000Y-78740000D02*
X101790000Y-75375000D01*
X98425000Y-80010000D02*
X98425000Y-78740000D01*
X99425000Y-81010000D02*
X98425000Y-80010000D01*
X101790000Y-75375000D02*
X102870000Y-75375000D01*
D32*
X100330000Y-81010000D02*
X100060000Y-81010000D01*
X101790000Y-75375000D02*
X102870000Y-75375000D01*
X137007500Y-79522500D02*
X137647500Y-79522500D01*
X136097944Y-73660000D02*
X134236676Y-71798732D01*
X137160000Y-73660000D02*
X136097944Y-73660000D01*
X138430000Y-74930000D02*
X137160000Y-73660000D01*
X138430000Y-78740000D02*
X138430000Y-74930000D01*
X137647500Y-79522500D02*
X138430000Y-78740000D01*
X137207500Y-82232500D02*
X137207500Y-79722500D01*
X137207500Y-79722500D02*
X137007500Y-79522500D01*
X134890000Y-74930000D02*
X134890000Y-73583427D01*
X134890000Y-73583427D02*
X133670990Y-72364417D01*
X135407500Y-77322500D02*
X135407500Y-75447500D01*
X135407500Y-75447500D02*
X134890000Y-74930000D01*
X139065000Y-62060000D02*
X139065000Y-62865000D01*
X134827944Y-63500000D02*
X134236676Y-64091268D01*
X138430000Y-63500000D02*
X134827944Y-63500000D01*
X139065000Y-62865000D02*
X138430000Y-63500000D01*
X139065000Y-59860000D02*
X139065000Y-58100000D01*
X136525000Y-62060000D02*
X135136573Y-62060000D01*
X135136573Y-62060000D02*
X133670990Y-63525583D01*
X136525000Y-59860000D02*
X136525000Y-57465000D01*
X133105305Y-62959897D02*
X133255103Y-62959897D01*
X133255103Y-62959897D02*
X133985000Y-62230000D01*
X133985000Y-62230000D02*
X133985000Y-60155000D01*
X133350000Y-56131500D02*
X133665000Y-57635000D01*
X133665000Y-57635000D02*
X133985000Y-57955000D01*
X121285000Y-60010000D02*
X121285000Y-59690000D01*
X121285000Y-59690000D02*
X120185000Y-58590000D01*
X120185000Y-58590000D02*
X120185000Y-57150000D01*
X112077500Y-58422500D02*
X112077500Y-58102500D01*
X112077500Y-58102500D02*
X110977500Y-57002500D01*
X110977500Y-57002500D02*
X110977500Y-55562500D01*
X112077500Y-67947500D02*
X112077500Y-67627500D01*
X112077500Y-67627500D02*
X110977500Y-66527500D01*
X110977500Y-66527500D02*
X110977500Y-65087500D01*
D33*
X116840000Y-88836500D02*
X116141500Y-88836500D01*
X114935000Y-87630000D02*
X109982000Y-87630000D01*
X116141500Y-88836500D02*
X114935000Y-87630000D01*
X109982000Y-87630000D02*
X110172500Y-87630000D01*
D34*
X109982000Y-87630000D02*
X109982000Y-86487000D01*
X106860000Y-85090000D02*
X105590000Y-83820000D01*
X108585000Y-85090000D02*
X106860000Y-85090000D01*
X109982000Y-86487000D02*
X108585000Y-85090000D01*
D32*
X109220000Y-77790000D02*
X109220000Y-75980000D01*
X104140000Y-64450000D02*
X106580000Y-64450000D01*
X106580000Y-64450000D02*
X106680000Y-64550000D01*
X119380000Y-79438500D02*
X119443500Y-79438500D01*
X119443500Y-79438500D02*
X121158000Y-77724000D01*
X125730000Y-70231000D02*
X126990695Y-68970305D01*
X121221500Y-74358500D02*
X124587000Y-70993000D01*
X121221500Y-76073000D02*
X121221500Y-74358500D01*
X121158000Y-76136500D02*
X121221500Y-76073000D01*
X126990695Y-68970305D02*
X127094897Y-68970305D01*
X120650000Y-91376500D02*
X120650000Y-84518500D01*
X119380000Y-83248500D02*
X119380000Y-79438500D01*
X120650000Y-84518500D02*
X119380000Y-83248500D01*
X119380000Y-79438500D02*
X119380000Y-79819500D01*
X126863695Y-68970305D02*
X127094897Y-68970305D01*
X120396000Y-91122500D02*
X120650000Y-91376500D01*
X128778000Y-68453000D02*
X127695010Y-69535990D01*
X119316500Y-75057000D02*
X123698000Y-70675500D01*
X118872000Y-75057000D02*
X119316500Y-75057000D01*
X118745000Y-75184000D02*
X118872000Y-75057000D01*
X127695010Y-69535990D02*
X127660583Y-69535990D01*
X119380000Y-88836500D02*
X119380000Y-84264500D01*
X115570000Y-78168500D02*
X116840000Y-76898500D01*
X115570000Y-80454500D02*
X115570000Y-78168500D01*
X119380000Y-84264500D02*
X115570000Y-80454500D01*
X127568010Y-69535990D02*
X127660583Y-69535990D01*
X126365000Y-75405000D02*
X126365000Y-75357056D01*
X126365000Y-75357056D02*
X129923324Y-71798732D01*
X122555000Y-75405000D02*
X122555000Y-76327000D01*
X127254000Y-75599427D02*
X130489010Y-72364417D01*
X127254000Y-76200000D02*
X127254000Y-75599427D01*
X126746000Y-76708000D02*
X127254000Y-76200000D01*
X124460000Y-76708000D02*
X126746000Y-76708000D01*
X122555000Y-76327000D02*
X122936000Y-76708000D01*
X130327583Y-72364417D02*
X130489010Y-72364417D01*
X130175000Y-76520000D02*
X130490000Y-76520000D01*
X130490000Y-76520000D02*
X131445000Y-75565000D01*
X131445000Y-75565000D02*
X131445000Y-73320408D01*
X131445000Y-73320408D02*
X131054695Y-72930103D01*
X130904897Y-72930103D02*
X131054695Y-72930103D01*
X132715000Y-76520000D02*
X132715000Y-76200000D01*
X132715000Y-76200000D02*
X132080000Y-75565000D01*
X132080000Y-75565000D02*
X132080000Y-73955408D01*
X132080000Y-73955408D02*
X133105305Y-72930103D01*
X121920000Y-88836500D02*
X122237500Y-88836500D01*
X122237500Y-88836500D02*
X124968000Y-86106000D01*
X135953500Y-72390000D02*
X134802361Y-71238861D01*
X133921500Y-74041000D02*
X134175500Y-73787000D01*
X133921500Y-79057500D02*
X133921500Y-74041000D01*
X133159500Y-79819500D02*
X133921500Y-79057500D01*
X131254500Y-79819500D02*
X133159500Y-79819500D01*
X127889000Y-83185000D02*
X131254500Y-79819500D01*
X127889000Y-84836000D02*
X127889000Y-83185000D01*
X128016000Y-84963000D02*
X127889000Y-84836000D01*
X124968000Y-86106000D02*
X124968000Y-85026500D01*
X134802361Y-71238861D02*
X134802361Y-71233047D01*
X121920000Y-88836500D02*
X121920000Y-84264500D01*
X116840000Y-80581500D02*
X116840000Y-79438500D01*
X118554500Y-82296000D02*
X116840000Y-80581500D01*
X121920000Y-84264500D02*
X120205500Y-82550000D01*
X116840000Y-79438500D02*
X116840000Y-79311500D01*
X121920000Y-88709500D02*
X121920000Y-88836500D01*
X121920000Y-88836500D02*
X121920000Y-88201500D01*
X134802361Y-71302361D02*
X134802361Y-71233047D01*
X121920000Y-88836500D02*
X121920000Y-88430098D01*
X138430000Y-91376500D02*
X138430000Y-90805000D01*
X138430000Y-90805000D02*
X138366500Y-90741500D01*
X138366500Y-90741500D02*
X138366500Y-85344000D01*
X138366500Y-85344000D02*
X140525500Y-83185000D01*
X140525500Y-83185000D02*
X140843000Y-83185000D01*
X138684000Y-81724500D02*
X138874500Y-81534000D01*
X138874500Y-81534000D02*
X138874500Y-74173814D01*
X138874500Y-74173814D02*
X135368047Y-70667361D01*
X141290000Y-76665000D02*
X141290000Y-75880000D01*
X144780000Y-75565000D02*
X145415000Y-76200000D01*
X144145000Y-75565000D02*
X144780000Y-75565000D01*
X142875000Y-75565000D02*
X144145000Y-75565000D01*
X141290000Y-75880000D02*
X141605000Y-75565000D01*
X145415000Y-76200000D02*
X145415000Y-76515000D01*
X141290000Y-76665000D02*
X141290000Y-76520000D01*
X141290000Y-76520000D02*
X140335000Y-75565000D01*
X140335000Y-70189592D02*
X139561954Y-69416546D01*
X139561954Y-69416546D02*
X137065103Y-66919695D01*
X140335000Y-75565000D02*
X140335000Y-70189592D01*
X141290000Y-67775000D02*
X141290000Y-66990000D01*
X144780000Y-66675000D02*
X145415000Y-67310000D01*
X142875000Y-66675000D02*
X144780000Y-66675000D01*
X141290000Y-66990000D02*
X141605000Y-66675000D01*
X145415000Y-67310000D02*
X145415000Y-67625000D01*
X141290000Y-67775000D02*
X140800000Y-67775000D01*
X137448427Y-65405000D02*
X136499417Y-66354010D01*
X138430000Y-65405000D02*
X137448427Y-65405000D01*
X140800000Y-67775000D02*
X138430000Y-65405000D01*
X125730000Y-54830000D02*
X125730000Y-58420000D01*
X126365000Y-59055000D02*
X126365000Y-60010000D01*
X125730000Y-58420000D02*
X126365000Y-59055000D01*
X126365000Y-60010000D02*
X126973427Y-60010000D01*
X126973427Y-60010000D02*
X130489010Y-63525583D01*
X116522500Y-53242500D02*
X116522500Y-56959500D01*
X117157500Y-57594500D02*
X117157500Y-58422500D01*
X116522500Y-56959500D02*
X117157500Y-57594500D01*
X117157500Y-58422500D02*
X117157500Y-58737500D01*
X117157500Y-58737500D02*
X118745000Y-60325000D01*
X127000000Y-62865000D02*
X128270000Y-62865000D01*
X119380000Y-62865000D02*
X125730000Y-62865000D01*
X118745000Y-62230000D02*
X119380000Y-62865000D01*
X128270000Y-62865000D02*
X128905000Y-63500000D01*
X128905000Y-63500000D02*
X129332056Y-63500000D01*
X129332056Y-63500000D02*
X129923324Y-64091268D01*
X117157500Y-67947500D02*
X118615500Y-67947500D01*
X128524000Y-63881000D02*
X129299953Y-64656953D01*
X128270000Y-63881000D02*
X128524000Y-63881000D01*
X126873000Y-63881000D02*
X128270000Y-63881000D01*
X123063000Y-63500000D02*
X125095000Y-63500000D01*
X118615500Y-67947500D02*
X123063000Y-63500000D01*
X129299953Y-64656953D02*
X129357639Y-64656953D01*
X116522500Y-62767500D02*
X116522500Y-66357500D01*
X117157500Y-66992500D02*
X117157500Y-67947500D01*
X116522500Y-66357500D02*
X117157500Y-66992500D01*
X118681500Y-86360000D02*
X118618000Y-86296500D01*
X118618000Y-86296500D02*
X118618000Y-84899500D01*
X118618000Y-84899500D02*
X114300000Y-80581500D01*
X114300000Y-80581500D02*
X114300000Y-79438500D01*
X124775000Y-66233000D02*
X124775000Y-65405000D01*
X124460000Y-66548000D02*
X124775000Y-66233000D01*
X122237500Y-66548000D02*
X124460000Y-66548000D01*
X118427500Y-70358000D02*
X122237500Y-66548000D01*
X118427500Y-70866000D02*
X118427500Y-70358000D01*
X118046500Y-71247000D02*
X118427500Y-70866000D01*
X116014500Y-72326500D02*
X117094000Y-72326500D01*
X112331500Y-76009500D02*
X116014500Y-72326500D01*
X112331500Y-79375000D02*
X112331500Y-76009500D01*
X112268000Y-79438500D02*
X112331500Y-79375000D01*
X124775000Y-65405000D02*
X126711573Y-65405000D01*
X126711573Y-65405000D02*
X127660583Y-66354010D01*
X124460000Y-88836500D02*
X124460000Y-88582500D01*
X124460000Y-88582500D02*
X126238000Y-86804500D01*
X125095000Y-81788000D02*
X125095000Y-80805000D01*
X126238000Y-82931000D02*
X125095000Y-81788000D01*
X126238000Y-86804500D02*
X126238000Y-82931000D01*
X124460000Y-88836500D02*
X124460000Y-88773000D01*
X125730000Y-91376500D02*
X125349000Y-91376500D01*
X125349000Y-91376500D02*
X123380500Y-89408000D01*
X123380500Y-89408000D02*
X123380500Y-88392000D01*
X123380500Y-88392000D02*
X124142500Y-87630000D01*
X124142500Y-87630000D02*
X124650500Y-87630000D01*
X124650500Y-87630000D02*
X125730000Y-86550500D01*
X125730000Y-86550500D02*
X125730000Y-83121500D01*
X125730000Y-83121500D02*
X124650500Y-82042000D01*
X124650500Y-82042000D02*
X124015500Y-82042000D01*
X124015500Y-82042000D02*
X123825000Y-81851500D01*
X123825000Y-81851500D02*
X123825000Y-80805000D01*
X127000000Y-88836500D02*
X127000000Y-88455500D01*
X127000000Y-88455500D02*
X126746000Y-88201500D01*
X126746000Y-88201500D02*
X126746000Y-82550000D01*
X126746000Y-82550000D02*
X130048000Y-79248000D01*
X130048000Y-79248000D02*
X130048000Y-78547000D01*
X130048000Y-78547000D02*
X130175000Y-78420000D01*
X128270000Y-91376500D02*
X128270000Y-89789000D01*
X132715000Y-78803500D02*
X132715000Y-78420000D01*
X132270500Y-79248000D02*
X132715000Y-78803500D01*
X130873500Y-79248000D02*
X132270500Y-79248000D01*
X127317500Y-82804000D02*
X130873500Y-79248000D01*
X127317500Y-87630000D02*
X127317500Y-82804000D01*
X128079500Y-88392000D02*
X127317500Y-87630000D01*
X128079500Y-89598500D02*
X128079500Y-88392000D01*
X128270000Y-89789000D02*
X128079500Y-89598500D01*
X130810000Y-91376500D02*
X131572000Y-91376500D01*
X143190000Y-79631500D02*
X143190000Y-78740000D01*
X143002000Y-79819500D02*
X143190000Y-79631500D01*
X142875000Y-79819500D02*
X143002000Y-79819500D01*
X142430500Y-80264000D02*
X142875000Y-79819500D01*
X140398500Y-80454500D02*
X140652500Y-80200500D01*
X140398500Y-81089500D02*
X140398500Y-80454500D01*
X138239500Y-83248500D02*
X140398500Y-81089500D01*
X135699500Y-83248500D02*
X138239500Y-83248500D01*
X134175500Y-84772500D02*
X135699500Y-83248500D01*
X134175500Y-87185500D02*
X134175500Y-84772500D01*
X133477000Y-87884000D02*
X134175500Y-87185500D01*
X133477000Y-89471500D02*
X133477000Y-87884000D01*
X131572000Y-91376500D02*
X133477000Y-89471500D01*
X143190000Y-78740000D02*
X142303500Y-78740000D01*
X144018000Y-77025500D02*
X143657500Y-76665000D01*
X143657500Y-76665000D02*
X143190000Y-76665000D01*
X130810000Y-91376500D02*
X131191000Y-91376500D01*
X143190000Y-79060000D02*
X143190000Y-78740000D01*
X103822500Y-50673000D02*
X103822500Y-53721000D01*
X119888000Y-61912500D02*
X121282500Y-61912500D01*
X119570500Y-61595000D02*
X119888000Y-61912500D01*
X110490000Y-61595000D02*
X119570500Y-61595000D01*
X109664500Y-59563000D02*
X110490000Y-59563000D01*
X103822500Y-53721000D02*
X109664500Y-59563000D01*
X121282500Y-61912500D02*
X121285000Y-61910000D01*
X121285000Y-61910000D02*
X122240000Y-61910000D01*
X122870000Y-60010000D02*
X123825000Y-60010000D01*
X122555000Y-60325000D02*
X122870000Y-60010000D01*
X122240000Y-61910000D02*
X122555000Y-61595000D01*
X121285000Y-61910000D02*
X121925000Y-61910000D01*
X123825000Y-60010000D02*
X123825000Y-59055000D01*
X123825000Y-59055000D02*
X124780000Y-58100000D01*
X124780000Y-58100000D02*
X124780000Y-56980000D01*
X101282500Y-50673000D02*
X101282500Y-51181000D01*
X101282500Y-51181000D02*
X101917500Y-51816000D01*
X101917500Y-51816000D02*
X101917500Y-53784500D01*
X101917500Y-53784500D02*
X108331000Y-60198000D01*
X108331000Y-61722000D02*
X110109000Y-63500000D01*
X110109000Y-63500000D02*
X113982500Y-63500000D01*
X113982500Y-63500000D02*
X114617500Y-64135000D01*
X114617500Y-64135000D02*
X114617500Y-64706500D01*
X114617500Y-64706500D02*
X114778500Y-64867500D01*
X114778500Y-64867500D02*
X115572500Y-64867500D01*
X115570000Y-64915000D02*
X115572500Y-64917500D01*
X112077500Y-69847500D02*
X112397500Y-69847500D01*
X112397500Y-69847500D02*
X114297500Y-67947500D01*
X114297500Y-67947500D02*
X114617500Y-67947500D01*
X114617500Y-67947500D02*
X114617500Y-66992500D01*
X115572500Y-66037500D02*
X115572500Y-64917500D01*
X114617500Y-66992500D02*
X115572500Y-66037500D01*
X112077500Y-60322500D02*
X109471500Y-60322500D01*
X102552500Y-53403500D02*
X102552500Y-48133000D01*
X109471500Y-60322500D02*
X102552500Y-53403500D01*
X112077500Y-60322500D02*
X112717500Y-60322500D01*
X112717500Y-60322500D02*
X114617500Y-58422500D01*
X114617500Y-58422500D02*
X114617500Y-57467500D01*
X115572500Y-56512500D02*
X115572500Y-55392500D01*
X114617500Y-57467500D02*
X115572500Y-56512500D01*
X134620000Y-88836500D02*
X134620000Y-84963000D01*
X143700500Y-69850000D02*
X143190000Y-69850000D01*
X144018000Y-70167500D02*
X143700500Y-69850000D01*
X144018000Y-72517000D02*
X144018000Y-70167500D01*
X145034000Y-73533000D02*
X144018000Y-72517000D01*
X146050000Y-73533000D02*
X145034000Y-73533000D01*
X146685000Y-74168000D02*
X146050000Y-73533000D01*
X146685000Y-76263500D02*
X146685000Y-74168000D01*
X148018500Y-77597000D02*
X146685000Y-76263500D01*
X148018500Y-79184500D02*
X148018500Y-77597000D01*
X147383500Y-79819500D02*
X148018500Y-79184500D01*
X144399000Y-79819500D02*
X147383500Y-79819500D01*
X143065500Y-81153000D02*
X144399000Y-79819500D01*
X142430500Y-81153000D02*
X143065500Y-81153000D01*
X138366500Y-83756500D02*
X141097000Y-81026000D01*
X135826500Y-83756500D02*
X138366500Y-83756500D01*
X134620000Y-84963000D02*
X135826500Y-83756500D01*
X143190000Y-69850000D02*
X142557500Y-69850000D01*
X142557500Y-69850000D02*
X142367000Y-69659500D01*
X143721000Y-67775000D02*
X143190000Y-67775000D01*
X143954500Y-68008500D02*
X143721000Y-67775000D01*
X134620000Y-88836500D02*
X134620000Y-88582500D01*
X143510000Y-69850000D02*
X143190000Y-69850000D01*
X145415000Y-65725000D02*
X143340000Y-65725000D01*
X143340000Y-65725000D02*
X143190000Y-65575000D01*
X143190000Y-63500000D02*
X143190000Y-65575000D01*
X145415000Y-74615000D02*
X143340000Y-74615000D01*
X143340000Y-74615000D02*
X143190000Y-74465000D01*
X143190000Y-74465000D02*
X143190000Y-72390000D01*
D33*
X104605000Y-80010000D02*
X106680000Y-80010000D01*
X106680000Y-80010000D02*
X107950000Y-81280000D01*
X107950000Y-81280000D02*
X107950000Y-81600000D01*
D32*
X110170000Y-69215000D02*
X110170000Y-71755000D01*
X104605000Y-80960000D02*
X105725000Y-80960000D01*
X110170000Y-72710000D02*
X110170000Y-71755000D01*
X109855000Y-73025000D02*
X110170000Y-72710000D01*
X107950000Y-73025000D02*
X109855000Y-73025000D01*
X107315000Y-73660000D02*
X107950000Y-73025000D01*
X107315000Y-77470000D02*
X107315000Y-73660000D01*
X106045000Y-78740000D02*
X107315000Y-77470000D01*
X105725000Y-80960000D02*
X106045000Y-81280000D01*
X130773571Y-55503939D02*
X130773571Y-55081571D01*
X105092500Y-50101500D02*
X105092500Y-48133000D01*
X107124500Y-52133500D02*
X105092500Y-50101500D01*
X117538500Y-52133500D02*
X107124500Y-52133500D01*
X118999000Y-53594000D02*
X117538500Y-52133500D01*
X129286000Y-53594000D02*
X118999000Y-53594000D01*
X130773571Y-55081571D02*
X129286000Y-53594000D01*
X130773571Y-55503939D02*
X130773571Y-55145071D01*
D33*
X97933000Y-63182500D02*
X97933000Y-62182500D01*
X97674500Y-61924000D02*
X97674500Y-59499500D01*
X97933000Y-62182500D02*
X97674500Y-61924000D01*
X98695000Y-65341500D02*
X98695000Y-64913000D01*
X98695000Y-64913000D02*
X97933000Y-64151000D01*
X97933000Y-64151000D02*
X97933000Y-63182500D01*
X99520500Y-67627500D02*
X99520500Y-67135500D01*
X99520500Y-67135500D02*
X98695000Y-66310000D01*
X98695000Y-66310000D02*
X98695000Y-65341500D01*
X99520500Y-67627500D02*
X99520500Y-67389500D01*
X99520500Y-67627500D02*
X99520500Y-68754500D01*
X99520500Y-68754500D02*
X101441000Y-70675000D01*
X101441000Y-70675000D02*
X102870000Y-70675000D01*
X99445500Y-67552500D02*
X99520500Y-67627500D01*
X102870000Y-70675000D02*
X102870000Y-69977000D01*
D32*
X108270000Y-71755000D02*
X103950000Y-71755000D01*
X103950000Y-71755000D02*
X102870000Y-70675000D01*
X97599500Y-59574500D02*
X97674500Y-59499500D01*
X102870000Y-70675000D02*
X102870000Y-69850000D01*
X128673571Y-54553939D02*
X128785439Y-54553939D01*
X128785439Y-54553939D02*
X129794000Y-55562500D01*
X129794000Y-55562500D02*
X129794000Y-57023000D01*
X129794000Y-57023000D02*
X130553500Y-57782500D01*
X130553500Y-57782500D02*
X130553500Y-58737500D01*
X130553500Y-58737500D02*
X131064000Y-58737500D01*
X131445000Y-62569592D02*
X131054695Y-62959897D01*
X131445000Y-59118500D02*
X131445000Y-62569592D01*
X131064000Y-58737500D02*
X131445000Y-59118500D01*
M02*
