M48
;DRILL file {KiCad 4.0.7-e2-6376~58~ubuntu16.04.1} date Sat Mar 31 11:21:57 2018
;FORMAT={-:-/ absolute / inch / decimal}
FMAT,2
INCH,TZ
T1C0.012
T2C0.031
T3C0.040
%
G90
G05
M72
T1
X5.668Y-3.782
X5.668Y-3.892
X5.703Y-3.742
X5.788Y-4.222
X5.798Y-3.937
X5.838Y-4.222
X5.838Y-4.562
X5.838Y-4.622
X5.868Y-4.242
X5.878Y-4.272
X5.898Y-4.162
X5.908Y-4.642
X5.923Y-4.742
X5.928Y-4.192
X5.953Y-4.537
X5.958Y-4.222
X5.958Y-4.262
X5.988Y-4.285
X5.988Y-4.322
X5.988Y-4.372
X5.998Y-4.642
X6.008Y-4.172
X6.008Y-4.252
X6.0089Y-4.1323
X6.013Y-5.412
X6.033Y-3.697
X6.038Y-4.742
X6.038Y-5.042
X6.048Y-4.462
X6.068Y-5.142
X6.078Y-4.102
X6.078Y-4.442
X6.093Y-4.747
X6.0991Y-4.0006
X6.0992Y-4.4208
X6.103Y-5.452
X6.118Y-4.142
X6.118Y-4.382
X6.128Y-4.032
X6.128Y-4.312
X6.138Y-4.072
X6.1767Y-4.0533
X6.178Y-4.212
X6.193Y-4.652
X6.193Y-4.822
X6.208Y-4.242
X6.228Y-4.302
X6.238Y-4.152
X6.248Y-4.192
X6.248Y-4.417
X6.258Y-3.312
X6.288Y-5.122
X6.303Y-4.232
X6.308Y-3.902
X6.338Y-4.982
X6.338Y-5.112
X6.343Y-4.282
X6.343Y-5.042
X6.348Y-3.932
X6.378Y-5.042
X6.383Y-3.962
X6.408Y-3.842
X6.428Y-3.872
X6.433Y-3.792
X6.438Y-4.412
X6.448Y-5.132
X6.468Y-3.392
X6.478Y-3.722
X6.498Y-3.922
X6.518Y-4.157
X6.518Y-4.197
X6.538Y-4.987
X6.578Y-4.197
X6.583Y-4.157
X6.628Y-5.032
X6.628Y-5.122
X6.688Y-4.257
X6.713Y-3.912
X6.713Y-4.087
X6.728Y-4.472
X6.748Y-3.722
X6.753Y-4.092
X6.758Y-3.912
X6.768Y-5.437
X6.808Y-4.582
X6.818Y-5.127
X6.823Y-5.472
X6.958Y-5.012
X7.008Y-4.032
X7.008Y-5.082
X7.043Y-4.462
X7.068Y-3.902
X7.068Y-4.892
X7.088Y-3.612
X7.088Y-4.022
X7.123Y-3.812
X7.128Y-3.922
X7.128Y-4.952
X7.148Y-4.812
X7.158Y-5.472
X7.188Y-5.122
X7.208Y-4.872
X7.213Y-3.862
X7.238Y-5.502
X7.398Y-4.287
X7.408Y-4.347
X7.433Y-4.502
X7.438Y-4.044
X7.493Y-4.557
X7.533Y-3.362
X7.538Y-4.602
X7.553Y-4.492
X7.553Y-4.667
X7.563Y-4.452
X7.568Y-5.122
X7.608Y-4.627
X7.653Y-4.532
X7.668Y-3.802
X7.698Y-4.887
X7.738Y-3.492
X7.738Y-4.447
X7.878Y-4.887
X7.888Y-3.502
X8.048Y-5.092
T2
X5.608Y-3.792
X5.608Y-3.892
X5.608Y-3.992
X5.608Y-4.092
X5.608Y-4.192
X5.608Y-4.292
X5.608Y-4.392
X5.608Y-4.492
X5.608Y-4.592
X5.608Y-4.692
X5.608Y-5.052
X5.608Y-5.152
X5.608Y-5.252
X5.708Y-3.842
X5.708Y-3.942
X5.708Y-4.042
X5.708Y-4.142
X5.708Y-4.242
X5.708Y-4.342
X5.708Y-4.442
X5.708Y-4.542
X5.708Y-4.642
X5.708Y-4.742
X5.708Y-5.102
X5.708Y-5.202
X5.708Y-5.302
T3
X5.858Y-3.892
X5.858Y-3.992
X5.858Y-4.092
X5.958Y-3.892
X5.958Y-3.992
X5.958Y-4.092
X7.468Y-3.992
X7.468Y-4.092
X7.468Y-4.192
X7.568Y-3.992
X7.568Y-4.092
X7.568Y-4.192
T0
M30
