G04 #@! TF.FileFunction,Soldermask,Top*
%FSLAX46Y46*%
G04 Gerber Fmt 4.6, Leading zero omitted, Abs format (unit mm)*
G04 Created by KiCad (PCBNEW 4.0.7-e2-6376~58~ubuntu16.04.1) date Sat Mar 31 11:21:19 2018*
%MOMM*%
%LPD*%
G01*
G04 APERTURE LIST*
%ADD10C,0.100000*%
%ADD11R,1.000000X1.250000*%
%ADD12R,1.600000X1.000000*%
%ADD13R,1.250000X1.000000*%
%ADD14R,2.159000X1.778000*%
%ADD15R,1.200000X1.200000*%
%ADD16R,2.500000X0.900000*%
%ADD17C,1.300000*%
%ADD18R,3.300000X8.200000*%
%ADD19R,1.727200X1.727200*%
%ADD20O,1.727200X1.727200*%
%ADD21R,0.900000X0.800000*%
%ADD22R,1.300000X0.700000*%
%ADD23R,0.700000X1.300000*%
%ADD24R,1.000000X3.200000*%
%ADD25R,3.200000X1.000000*%
%ADD26R,1.060000X0.650000*%
%ADD27R,1.550000X0.600000*%
%ADD28R,1.400000X1.200000*%
G04 APERTURE END LIST*
D10*
G36*
X153596866Y-117660245D02*
X153207957Y-117271336D01*
X154339328Y-116139965D01*
X154728237Y-116528874D01*
X153596866Y-117660245D01*
X153596866Y-117660245D01*
G37*
G36*
X154162552Y-118225930D02*
X153773643Y-117837021D01*
X154905014Y-116705650D01*
X155293923Y-117094559D01*
X154162552Y-118225930D01*
X154162552Y-118225930D01*
G37*
G36*
X154728237Y-118791616D02*
X154339328Y-118402707D01*
X155470699Y-117271336D01*
X155859608Y-117660245D01*
X154728237Y-118791616D01*
X154728237Y-118791616D01*
G37*
G36*
X155293922Y-119357301D02*
X154905013Y-118968392D01*
X156036384Y-117837021D01*
X156425293Y-118225930D01*
X155293922Y-119357301D01*
X155293922Y-119357301D01*
G37*
G36*
X155859608Y-119922987D02*
X155470699Y-119534078D01*
X156602070Y-118402707D01*
X156990979Y-118791616D01*
X155859608Y-119922987D01*
X155859608Y-119922987D01*
G37*
G36*
X156425293Y-120488672D02*
X156036384Y-120099763D01*
X157167755Y-118968392D01*
X157556664Y-119357301D01*
X156425293Y-120488672D01*
X156425293Y-120488672D01*
G37*
G36*
X156990979Y-121054357D02*
X156602070Y-120665448D01*
X157733441Y-119534077D01*
X158122350Y-119922986D01*
X156990979Y-121054357D01*
X156990979Y-121054357D01*
G37*
G36*
X157556664Y-121620043D02*
X157167755Y-121231134D01*
X158299126Y-120099763D01*
X158688035Y-120488672D01*
X157556664Y-121620043D01*
X157556664Y-121620043D01*
G37*
G36*
X160738645Y-121231134D02*
X160349736Y-121620043D01*
X159218365Y-120488672D01*
X159607274Y-120099763D01*
X160738645Y-121231134D01*
X160738645Y-121231134D01*
G37*
G36*
X161304330Y-120665448D02*
X160915421Y-121054357D01*
X159784050Y-119922986D01*
X160172959Y-119534077D01*
X161304330Y-120665448D01*
X161304330Y-120665448D01*
G37*
G36*
X161870016Y-120099763D02*
X161481107Y-120488672D01*
X160349736Y-119357301D01*
X160738645Y-118968392D01*
X161870016Y-120099763D01*
X161870016Y-120099763D01*
G37*
G36*
X162435701Y-119534078D02*
X162046792Y-119922987D01*
X160915421Y-118791616D01*
X161304330Y-118402707D01*
X162435701Y-119534078D01*
X162435701Y-119534078D01*
G37*
G36*
X163001387Y-118968392D02*
X162612478Y-119357301D01*
X161481107Y-118225930D01*
X161870016Y-117837021D01*
X163001387Y-118968392D01*
X163001387Y-118968392D01*
G37*
G36*
X163567072Y-118402707D02*
X163178163Y-118791616D01*
X162046792Y-117660245D01*
X162435701Y-117271336D01*
X163567072Y-118402707D01*
X163567072Y-118402707D01*
G37*
G36*
X164132757Y-117837021D02*
X163743848Y-118225930D01*
X162612477Y-117094559D01*
X163001386Y-116705650D01*
X164132757Y-117837021D01*
X164132757Y-117837021D01*
G37*
G36*
X164698443Y-117271336D02*
X164309534Y-117660245D01*
X163178163Y-116528874D01*
X163567072Y-116139965D01*
X164698443Y-117271336D01*
X164698443Y-117271336D01*
G37*
G36*
X163567072Y-115609635D02*
X163178163Y-115220726D01*
X164309534Y-114089355D01*
X164698443Y-114478264D01*
X163567072Y-115609635D01*
X163567072Y-115609635D01*
G37*
G36*
X163001386Y-115043950D02*
X162612477Y-114655041D01*
X163743848Y-113523670D01*
X164132757Y-113912579D01*
X163001386Y-115043950D01*
X163001386Y-115043950D01*
G37*
G36*
X162435701Y-114478264D02*
X162046792Y-114089355D01*
X163178163Y-112957984D01*
X163567072Y-113346893D01*
X162435701Y-114478264D01*
X162435701Y-114478264D01*
G37*
G36*
X161870016Y-113912579D02*
X161481107Y-113523670D01*
X162612478Y-112392299D01*
X163001387Y-112781208D01*
X161870016Y-113912579D01*
X161870016Y-113912579D01*
G37*
G36*
X161304330Y-113346893D02*
X160915421Y-112957984D01*
X162046792Y-111826613D01*
X162435701Y-112215522D01*
X161304330Y-113346893D01*
X161304330Y-113346893D01*
G37*
G36*
X160738645Y-112781208D02*
X160349736Y-112392299D01*
X161481107Y-111260928D01*
X161870016Y-111649837D01*
X160738645Y-112781208D01*
X160738645Y-112781208D01*
G37*
G36*
X160172959Y-112215523D02*
X159784050Y-111826614D01*
X160915421Y-110695243D01*
X161304330Y-111084152D01*
X160172959Y-112215523D01*
X160172959Y-112215523D01*
G37*
G36*
X159607274Y-111649837D02*
X159218365Y-111260928D01*
X160349736Y-110129557D01*
X160738645Y-110518466D01*
X159607274Y-111649837D01*
X159607274Y-111649837D01*
G37*
G36*
X158688035Y-111260928D02*
X158299126Y-111649837D01*
X157167755Y-110518466D01*
X157556664Y-110129557D01*
X158688035Y-111260928D01*
X158688035Y-111260928D01*
G37*
G36*
X158122350Y-111826614D02*
X157733441Y-112215523D01*
X156602070Y-111084152D01*
X156990979Y-110695243D01*
X158122350Y-111826614D01*
X158122350Y-111826614D01*
G37*
G36*
X157556664Y-112392299D02*
X157167755Y-112781208D01*
X156036384Y-111649837D01*
X156425293Y-111260928D01*
X157556664Y-112392299D01*
X157556664Y-112392299D01*
G37*
G36*
X156990979Y-112957984D02*
X156602070Y-113346893D01*
X155470699Y-112215522D01*
X155859608Y-111826613D01*
X156990979Y-112957984D01*
X156990979Y-112957984D01*
G37*
G36*
X156425293Y-113523670D02*
X156036384Y-113912579D01*
X154905013Y-112781208D01*
X155293922Y-112392299D01*
X156425293Y-113523670D01*
X156425293Y-113523670D01*
G37*
G36*
X155859608Y-114089355D02*
X155470699Y-114478264D01*
X154339328Y-113346893D01*
X154728237Y-112957984D01*
X155859608Y-114089355D01*
X155859608Y-114089355D01*
G37*
G36*
X155293923Y-114655041D02*
X154905014Y-115043950D01*
X153773643Y-113912579D01*
X154162552Y-113523670D01*
X155293923Y-114655041D01*
X155293923Y-114655041D01*
G37*
G36*
X154728237Y-115220726D02*
X154339328Y-115609635D01*
X153207957Y-114478264D01*
X153596866Y-114089355D01*
X154728237Y-115220726D01*
X154728237Y-115220726D01*
G37*
D11*
X166335200Y-108127800D03*
X168335200Y-108127800D03*
X166208200Y-110286800D03*
X168208200Y-110286800D03*
D12*
X158953200Y-90244800D03*
X158953200Y-93244800D03*
D13*
X168605200Y-120970800D03*
X168605200Y-122970800D03*
D11*
X164049200Y-125018800D03*
X166049200Y-125018800D03*
X166049200Y-84632800D03*
X164049200Y-84632800D03*
D13*
X195529200Y-120716800D03*
X195529200Y-122716800D03*
X170129200Y-92522800D03*
X170129200Y-94522800D03*
X202641200Y-118938800D03*
X202641200Y-120938800D03*
X159461200Y-125542800D03*
X159461200Y-127542800D03*
D11*
X198085200Y-122478800D03*
X200085200Y-122478800D03*
D14*
X150317200Y-93776800D03*
X150317200Y-89712800D03*
D15*
X158953200Y-88272800D03*
X158953200Y-86072800D03*
X167081200Y-97332800D03*
X164881200Y-97332800D03*
X156667200Y-133738800D03*
X156667200Y-131538800D03*
X204419200Y-133738800D03*
X204419200Y-131538800D03*
X175717200Y-133738800D03*
X175717200Y-131538800D03*
X185115200Y-133738800D03*
X185115200Y-131538800D03*
X166319200Y-133738800D03*
X166319200Y-131538800D03*
X194767200Y-133738800D03*
X194767200Y-131538800D03*
X183083200Y-109440800D03*
X183083200Y-111640800D03*
X179019200Y-109440800D03*
X179019200Y-111640800D03*
X168986200Y-112488800D03*
X168986200Y-114688800D03*
X173050200Y-112488800D03*
X173050200Y-114688800D03*
D16*
X154889200Y-87754800D03*
X154889200Y-90654800D03*
D17*
X142443200Y-133400800D03*
X142443200Y-130860800D03*
X142443200Y-128320800D03*
X144983200Y-129590800D03*
X144983200Y-132130800D03*
X144983200Y-134670800D03*
X142443200Y-101396800D03*
X142443200Y-98856800D03*
X142443200Y-96316800D03*
X142443200Y-103936800D03*
X144983200Y-97586800D03*
X144983200Y-100126800D03*
X144983200Y-102666800D03*
X144983200Y-105206800D03*
X142443200Y-106476800D03*
X144983200Y-107746800D03*
X142443200Y-109016800D03*
X144983200Y-110286800D03*
X142443200Y-111556800D03*
X144983200Y-112826800D03*
X142443200Y-114096800D03*
X144983200Y-115366800D03*
X142443200Y-116636800D03*
X144983200Y-117906800D03*
X142443200Y-119176800D03*
X144983200Y-120446800D03*
D18*
X170319200Y-85902800D03*
X175019200Y-85902800D03*
D19*
X151333200Y-103936800D03*
D20*
X148793200Y-103936800D03*
X151333200Y-101396800D03*
X148793200Y-101396800D03*
X151333200Y-98856800D03*
X148793200Y-98856800D03*
D19*
X189687200Y-101396800D03*
D20*
X192227200Y-101396800D03*
X189687200Y-103936800D03*
X192227200Y-103936800D03*
X189687200Y-106476800D03*
X192227200Y-106476800D03*
D21*
X196511200Y-85714800D03*
X196511200Y-87614800D03*
X198611200Y-86664800D03*
X151367200Y-133588800D03*
X151367200Y-131688800D03*
X149267200Y-132638800D03*
X199119200Y-133588800D03*
X199119200Y-131688800D03*
X197019200Y-132638800D03*
X170417200Y-133588800D03*
X170417200Y-131688800D03*
X168317200Y-132638800D03*
X179815200Y-133588800D03*
X179815200Y-131688800D03*
X177715200Y-132638800D03*
X161019200Y-133588800D03*
X161019200Y-131688800D03*
X158919200Y-132638800D03*
X189467200Y-133588800D03*
X189467200Y-131688800D03*
X187367200Y-132638800D03*
D22*
X164033200Y-108193800D03*
X164033200Y-110093800D03*
X161493200Y-88122800D03*
X161493200Y-86222800D03*
X194701200Y-94914800D03*
X194701200Y-93014800D03*
X161493200Y-89778800D03*
X161493200Y-91678800D03*
D23*
X148859200Y-113842800D03*
X150759200Y-113842800D03*
D22*
X166065200Y-92572800D03*
X166065200Y-94472800D03*
X168097200Y-94472800D03*
X168097200Y-92572800D03*
D24*
X194311200Y-89204800D03*
X188111200Y-89204800D03*
D23*
X194701200Y-85394800D03*
X192801200Y-85394800D03*
D22*
X200863200Y-93964800D03*
X200863200Y-92064800D03*
D25*
X173177200Y-97892800D03*
X173177200Y-91692800D03*
D23*
X197119200Y-95046800D03*
X199019200Y-95046800D03*
X170571200Y-97332800D03*
X168671200Y-97332800D03*
X154447200Y-136448800D03*
X156347200Y-136448800D03*
X202199200Y-136448800D03*
X204099200Y-136448800D03*
D22*
X154127200Y-133588800D03*
X154127200Y-131688800D03*
X201879200Y-133588800D03*
X201879200Y-131688800D03*
D23*
X151267200Y-136448800D03*
X149367200Y-136448800D03*
X199019200Y-136448800D03*
X197119200Y-136448800D03*
X173497200Y-136448800D03*
X175397200Y-136448800D03*
X182895200Y-136448800D03*
X184795200Y-136448800D03*
D22*
X173177200Y-133588800D03*
X173177200Y-131688800D03*
X182575200Y-133588800D03*
X182575200Y-131688800D03*
D23*
X170317200Y-136448800D03*
X168417200Y-136448800D03*
X179715200Y-136448800D03*
X177815200Y-136448800D03*
X164099200Y-136448800D03*
X165999200Y-136448800D03*
X192547200Y-136448800D03*
X194447200Y-136448800D03*
D22*
X163779200Y-133588800D03*
X163779200Y-131688800D03*
X192227200Y-133588800D03*
X192227200Y-131688800D03*
D23*
X160919200Y-136448800D03*
X159019200Y-136448800D03*
X189367200Y-136448800D03*
X187467200Y-136448800D03*
D22*
X166954200Y-114538800D03*
X166954200Y-112638800D03*
X171018200Y-114538800D03*
X171018200Y-112638800D03*
X185115200Y-111490800D03*
X185115200Y-109590800D03*
X181051200Y-111490800D03*
X181051200Y-109590800D03*
D23*
X185689200Y-122224800D03*
X187589200Y-122224800D03*
D22*
X194767200Y-108574800D03*
X194767200Y-110474800D03*
D23*
X149301200Y-111810800D03*
X151201200Y-111810800D03*
X149301200Y-109778800D03*
X151201200Y-109778800D03*
D26*
X196461200Y-90794800D03*
X196461200Y-91744800D03*
X196461200Y-92694800D03*
X198661200Y-92694800D03*
X198661200Y-90794800D03*
X163949200Y-87492800D03*
X163949200Y-88442800D03*
X163949200Y-89392800D03*
X166149200Y-89392800D03*
X166149200Y-87492800D03*
X166149200Y-88442800D03*
D10*
G36*
X192742645Y-121231134D02*
X192353736Y-121620043D01*
X191222365Y-120488672D01*
X191611274Y-120099763D01*
X192742645Y-121231134D01*
X192742645Y-121231134D01*
G37*
G36*
X193308330Y-120665448D02*
X192919421Y-121054357D01*
X191788050Y-119922986D01*
X192176959Y-119534077D01*
X193308330Y-120665448D01*
X193308330Y-120665448D01*
G37*
G36*
X193874016Y-120099763D02*
X193485107Y-120488672D01*
X192353736Y-119357301D01*
X192742645Y-118968392D01*
X193874016Y-120099763D01*
X193874016Y-120099763D01*
G37*
G36*
X194439701Y-119534078D02*
X194050792Y-119922987D01*
X192919421Y-118791616D01*
X193308330Y-118402707D01*
X194439701Y-119534078D01*
X194439701Y-119534078D01*
G37*
G36*
X195005387Y-118968392D02*
X194616478Y-119357301D01*
X193485107Y-118225930D01*
X193874016Y-117837021D01*
X195005387Y-118968392D01*
X195005387Y-118968392D01*
G37*
G36*
X195571072Y-118402707D02*
X195182163Y-118791616D01*
X194050792Y-117660245D01*
X194439701Y-117271336D01*
X195571072Y-118402707D01*
X195571072Y-118402707D01*
G37*
G36*
X196136757Y-117837021D02*
X195747848Y-118225930D01*
X194616477Y-117094559D01*
X195005386Y-116705650D01*
X196136757Y-117837021D01*
X196136757Y-117837021D01*
G37*
G36*
X196702443Y-117271336D02*
X196313534Y-117660245D01*
X195182163Y-116528874D01*
X195571072Y-116139965D01*
X196702443Y-117271336D01*
X196702443Y-117271336D01*
G37*
G36*
X196313534Y-114089355D02*
X196702443Y-114478264D01*
X195571072Y-115609635D01*
X195182163Y-115220726D01*
X196313534Y-114089355D01*
X196313534Y-114089355D01*
G37*
G36*
X195747848Y-113523670D02*
X196136757Y-113912579D01*
X195005386Y-115043950D01*
X194616477Y-114655041D01*
X195747848Y-113523670D01*
X195747848Y-113523670D01*
G37*
G36*
X195182163Y-112957984D02*
X195571072Y-113346893D01*
X194439701Y-114478264D01*
X194050792Y-114089355D01*
X195182163Y-112957984D01*
X195182163Y-112957984D01*
G37*
G36*
X194616478Y-112392299D02*
X195005387Y-112781208D01*
X193874016Y-113912579D01*
X193485107Y-113523670D01*
X194616478Y-112392299D01*
X194616478Y-112392299D01*
G37*
G36*
X194050792Y-111826613D02*
X194439701Y-112215522D01*
X193308330Y-113346893D01*
X192919421Y-112957984D01*
X194050792Y-111826613D01*
X194050792Y-111826613D01*
G37*
G36*
X193485107Y-111260928D02*
X193874016Y-111649837D01*
X192742645Y-112781208D01*
X192353736Y-112392299D01*
X193485107Y-111260928D01*
X193485107Y-111260928D01*
G37*
G36*
X192919421Y-110695243D02*
X193308330Y-111084152D01*
X192176959Y-112215523D01*
X191788050Y-111826614D01*
X192919421Y-110695243D01*
X192919421Y-110695243D01*
G37*
G36*
X192353736Y-110129557D02*
X192742645Y-110518466D01*
X191611274Y-111649837D01*
X191222365Y-111260928D01*
X192353736Y-110129557D01*
X192353736Y-110129557D01*
G37*
G36*
X190692035Y-111260928D02*
X190303126Y-111649837D01*
X189171755Y-110518466D01*
X189560664Y-110129557D01*
X190692035Y-111260928D01*
X190692035Y-111260928D01*
G37*
G36*
X190126350Y-111826614D02*
X189737441Y-112215523D01*
X188606070Y-111084152D01*
X188994979Y-110695243D01*
X190126350Y-111826614D01*
X190126350Y-111826614D01*
G37*
G36*
X189560664Y-112392299D02*
X189171755Y-112781208D01*
X188040384Y-111649837D01*
X188429293Y-111260928D01*
X189560664Y-112392299D01*
X189560664Y-112392299D01*
G37*
G36*
X188994979Y-112957984D02*
X188606070Y-113346893D01*
X187474699Y-112215522D01*
X187863608Y-111826613D01*
X188994979Y-112957984D01*
X188994979Y-112957984D01*
G37*
G36*
X188429293Y-113523670D02*
X188040384Y-113912579D01*
X186909013Y-112781208D01*
X187297922Y-112392299D01*
X188429293Y-113523670D01*
X188429293Y-113523670D01*
G37*
G36*
X187863608Y-114089355D02*
X187474699Y-114478264D01*
X186343328Y-113346893D01*
X186732237Y-112957984D01*
X187863608Y-114089355D01*
X187863608Y-114089355D01*
G37*
G36*
X187297923Y-114655041D02*
X186909014Y-115043950D01*
X185777643Y-113912579D01*
X186166552Y-113523670D01*
X187297923Y-114655041D01*
X187297923Y-114655041D01*
G37*
G36*
X186732237Y-115220726D02*
X186343328Y-115609635D01*
X185211957Y-114478264D01*
X185600866Y-114089355D01*
X186732237Y-115220726D01*
X186732237Y-115220726D01*
G37*
G36*
X186343328Y-116139965D02*
X186732237Y-116528874D01*
X185600866Y-117660245D01*
X185211957Y-117271336D01*
X186343328Y-116139965D01*
X186343328Y-116139965D01*
G37*
G36*
X186909014Y-116705650D02*
X187297923Y-117094559D01*
X186166552Y-118225930D01*
X185777643Y-117837021D01*
X186909014Y-116705650D01*
X186909014Y-116705650D01*
G37*
G36*
X187474699Y-117271336D02*
X187863608Y-117660245D01*
X186732237Y-118791616D01*
X186343328Y-118402707D01*
X187474699Y-117271336D01*
X187474699Y-117271336D01*
G37*
G36*
X188040384Y-117837021D02*
X188429293Y-118225930D01*
X187297922Y-119357301D01*
X186909013Y-118968392D01*
X188040384Y-117837021D01*
X188040384Y-117837021D01*
G37*
G36*
X188606070Y-118402707D02*
X188994979Y-118791616D01*
X187863608Y-119922987D01*
X187474699Y-119534078D01*
X188606070Y-118402707D01*
X188606070Y-118402707D01*
G37*
G36*
X189171755Y-118968392D02*
X189560664Y-119357301D01*
X188429293Y-120488672D01*
X188040384Y-120099763D01*
X189171755Y-118968392D01*
X189171755Y-118968392D01*
G37*
G36*
X189737441Y-119534077D02*
X190126350Y-119922986D01*
X188994979Y-121054357D01*
X188606070Y-120665448D01*
X189737441Y-119534077D01*
X189737441Y-119534077D01*
G37*
G36*
X190303126Y-120099763D02*
X190692035Y-120488672D01*
X189560664Y-121620043D01*
X189171755Y-121231134D01*
X190303126Y-120099763D01*
X190303126Y-120099763D01*
G37*
D27*
X157081200Y-128193800D03*
X157081200Y-126923800D03*
X157081200Y-125653800D03*
X157081200Y-124383800D03*
X151681200Y-124383800D03*
X151681200Y-125653800D03*
X151681200Y-126923800D03*
X151681200Y-128193800D03*
D28*
X166149200Y-121170800D03*
X163949200Y-121170800D03*
X163949200Y-122770800D03*
X166149200Y-122770800D03*
X200185200Y-118630800D03*
X197985200Y-118630800D03*
X197985200Y-120230800D03*
X200185200Y-120230800D03*
D13*
X200355200Y-87950800D03*
X200355200Y-89950800D03*
D11*
X176749200Y-91744800D03*
X178749200Y-91744800D03*
X176749200Y-93776800D03*
X178749200Y-93776800D03*
M02*
