G04 #@! TF.FileFunction,Soldermask,Top*
%FSLAX46Y46*%
G04 Gerber Fmt 4.6, Leading zero omitted, Abs format (unit mm)*
G04 Created by KiCad (PCBNEW 4.0.7-e2-6376~58~ubuntu14.04.1) date Thu Feb  8 20:55:41 2018*
%MOMM*%
%LPD*%
G01*
G04 APERTURE LIST*
%ADD10C,0.100000*%
%ADD11R,1.600000X0.700000*%
%ADD12R,1.289000X0.705000*%
%ADD13R,2.000000X1.400000*%
%ADD14R,1.400000X1.650000*%
%ADD15R,1.650000X1.400000*%
%ADD16R,1.600000X1.600000*%
%ADD17R,2.559000X2.178000*%
%ADD18R,2.900000X1.300000*%
%ADD19C,5.048200*%
%ADD20C,1.797000*%
%ADD21C,2.381000*%
%ADD22R,2.300000X2.300000*%
%ADD23C,2.300000*%
%ADD24C,2.000000*%
%ADD25C,2.200000*%
%ADD26R,8.600000X3.700000*%
%ADD27R,2.127200X2.127200*%
%ADD28O,2.127200X2.127200*%
%ADD29R,1.300000X1.200000*%
%ADD30R,1.100000X1.700000*%
%ADD31R,1.700000X1.100000*%
%ADD32R,1.200000X1.300000*%
%ADD33C,1.700000*%
%ADD34R,1.000000X1.950000*%
%ADD35R,1.050000X1.460000*%
%ADD36R,1.460000X1.050000*%
%ADD37R,0.890000X1.670000*%
%ADD38R,1.800000X1.600000*%
%ADD39C,2.124000*%
G04 APERTURE END LIST*
D10*
D11*
X154850000Y-116840000D03*
X146050000Y-107950000D03*
X146050000Y-109220000D03*
X146050000Y-110490000D03*
X146050000Y-111760000D03*
X146050000Y-113030000D03*
X146050000Y-114300000D03*
X146050000Y-115570000D03*
X146050000Y-116840000D03*
X154850000Y-115570000D03*
X154850000Y-114300000D03*
X154850000Y-113030000D03*
X154850000Y-111760000D03*
X154850000Y-110490000D03*
X154850000Y-109220000D03*
X154850000Y-107950000D03*
D12*
X169820000Y-110395000D03*
X169820000Y-109895000D03*
X169820000Y-109395000D03*
X169820000Y-108895000D03*
X169820000Y-108395000D03*
X169820000Y-107895000D03*
X169820000Y-107395000D03*
X169820000Y-106895000D03*
X165720001Y-106895000D03*
X165720001Y-107395000D03*
X165720001Y-107895000D03*
X165720001Y-108395000D03*
X165720001Y-108895000D03*
X165720001Y-109395000D03*
X165720001Y-109895000D03*
X165720001Y-110395000D03*
D13*
X139065000Y-74525000D03*
X139065000Y-71525000D03*
D14*
X192770000Y-78740000D03*
X190770000Y-78740000D03*
X189500000Y-76200000D03*
X191500000Y-76200000D03*
D15*
X168275000Y-79645000D03*
X168275000Y-81645000D03*
X140335000Y-82915000D03*
X140335000Y-80915000D03*
X135890000Y-89170000D03*
X135890000Y-91170000D03*
X191135000Y-85360000D03*
X191135000Y-87360000D03*
D14*
X186960000Y-89535000D03*
X188960000Y-89535000D03*
X197850000Y-71755000D03*
X195850000Y-71755000D03*
X173625000Y-111125000D03*
X175625000Y-111125000D03*
X173625000Y-115570000D03*
X175625000Y-115570000D03*
X160925000Y-110490000D03*
X162925000Y-110490000D03*
X160925000Y-113665000D03*
X162925000Y-113665000D03*
D16*
X129540000Y-79205000D03*
X129540000Y-77005000D03*
X130980000Y-91440000D03*
X133180000Y-91440000D03*
X141605000Y-91310000D03*
X141605000Y-94110000D03*
D17*
X128270000Y-70358000D03*
X128270000Y-74422000D03*
D16*
X170815000Y-89705000D03*
X170815000Y-91905000D03*
X174625000Y-89705000D03*
X174625000Y-91905000D03*
X178435000Y-89705000D03*
X178435000Y-91905000D03*
X163830000Y-82720000D03*
X163830000Y-84920000D03*
D18*
X134620000Y-71575000D03*
X134620000Y-74475000D03*
D10*
G36*
X177523666Y-82078288D02*
X176851914Y-81406536D01*
X178266128Y-79992322D01*
X178937880Y-80664074D01*
X177523666Y-82078288D01*
X177523666Y-82078288D01*
G37*
G36*
X178089352Y-82643973D02*
X177417600Y-81972221D01*
X178831814Y-80558007D01*
X179503566Y-81229759D01*
X178089352Y-82643973D01*
X178089352Y-82643973D01*
G37*
G36*
X178655037Y-83209659D02*
X177983285Y-82537907D01*
X179397499Y-81123693D01*
X180069251Y-81795445D01*
X178655037Y-83209659D01*
X178655037Y-83209659D01*
G37*
G36*
X179220722Y-83775344D02*
X178548970Y-83103592D01*
X179963184Y-81689378D01*
X180634936Y-82361130D01*
X179220722Y-83775344D01*
X179220722Y-83775344D01*
G37*
G36*
X179786408Y-84341030D02*
X179114656Y-83669278D01*
X180528870Y-82255064D01*
X181200622Y-82926816D01*
X179786408Y-84341030D01*
X179786408Y-84341030D01*
G37*
G36*
X180352093Y-84906715D02*
X179680341Y-84234963D01*
X181094555Y-82820749D01*
X181766307Y-83492501D01*
X180352093Y-84906715D01*
X180352093Y-84906715D01*
G37*
G36*
X180917779Y-85472400D02*
X180246027Y-84800648D01*
X181660241Y-83386434D01*
X182331993Y-84058186D01*
X180917779Y-85472400D01*
X180917779Y-85472400D01*
G37*
G36*
X181483464Y-86038086D02*
X180811712Y-85366334D01*
X182225926Y-83952120D01*
X182897678Y-84623872D01*
X181483464Y-86038086D01*
X181483464Y-86038086D01*
G37*
G36*
X184948288Y-85366334D02*
X184276536Y-86038086D01*
X182862322Y-84623872D01*
X183534074Y-83952120D01*
X184948288Y-85366334D01*
X184948288Y-85366334D01*
G37*
G36*
X185513973Y-84800648D02*
X184842221Y-85472400D01*
X183428007Y-84058186D01*
X184099759Y-83386434D01*
X185513973Y-84800648D01*
X185513973Y-84800648D01*
G37*
G36*
X186079659Y-84234963D02*
X185407907Y-84906715D01*
X183993693Y-83492501D01*
X184665445Y-82820749D01*
X186079659Y-84234963D01*
X186079659Y-84234963D01*
G37*
G36*
X186645344Y-83669278D02*
X185973592Y-84341030D01*
X184559378Y-82926816D01*
X185231130Y-82255064D01*
X186645344Y-83669278D01*
X186645344Y-83669278D01*
G37*
G36*
X187211030Y-83103592D02*
X186539278Y-83775344D01*
X185125064Y-82361130D01*
X185796816Y-81689378D01*
X187211030Y-83103592D01*
X187211030Y-83103592D01*
G37*
G36*
X187776715Y-82537907D02*
X187104963Y-83209659D01*
X185690749Y-81795445D01*
X186362501Y-81123693D01*
X187776715Y-82537907D01*
X187776715Y-82537907D01*
G37*
G36*
X188342400Y-81972221D02*
X187670648Y-82643973D01*
X186256434Y-81229759D01*
X186928186Y-80558007D01*
X188342400Y-81972221D01*
X188342400Y-81972221D01*
G37*
G36*
X188908086Y-81406536D02*
X188236334Y-82078288D01*
X186822120Y-80664074D01*
X187493872Y-79992322D01*
X188908086Y-81406536D01*
X188908086Y-81406536D01*
G37*
G36*
X187493872Y-80027678D02*
X186822120Y-79355926D01*
X188236334Y-77941712D01*
X188908086Y-78613464D01*
X187493872Y-80027678D01*
X187493872Y-80027678D01*
G37*
G36*
X186928186Y-79461993D02*
X186256434Y-78790241D01*
X187670648Y-77376027D01*
X188342400Y-78047779D01*
X186928186Y-79461993D01*
X186928186Y-79461993D01*
G37*
G36*
X186362501Y-78896307D02*
X185690749Y-78224555D01*
X187104963Y-76810341D01*
X187776715Y-77482093D01*
X186362501Y-78896307D01*
X186362501Y-78896307D01*
G37*
G36*
X185796816Y-78330622D02*
X185125064Y-77658870D01*
X186539278Y-76244656D01*
X187211030Y-76916408D01*
X185796816Y-78330622D01*
X185796816Y-78330622D01*
G37*
G36*
X185231130Y-77764936D02*
X184559378Y-77093184D01*
X185973592Y-75678970D01*
X186645344Y-76350722D01*
X185231130Y-77764936D01*
X185231130Y-77764936D01*
G37*
G36*
X184665445Y-77199251D02*
X183993693Y-76527499D01*
X185407907Y-75113285D01*
X186079659Y-75785037D01*
X184665445Y-77199251D01*
X184665445Y-77199251D01*
G37*
G36*
X184099759Y-76633566D02*
X183428007Y-75961814D01*
X184842221Y-74547600D01*
X185513973Y-75219352D01*
X184099759Y-76633566D01*
X184099759Y-76633566D01*
G37*
G36*
X183534074Y-76067880D02*
X182862322Y-75396128D01*
X184276536Y-73981914D01*
X184948288Y-74653666D01*
X183534074Y-76067880D01*
X183534074Y-76067880D01*
G37*
G36*
X182897678Y-75396128D02*
X182225926Y-76067880D01*
X180811712Y-74653666D01*
X181483464Y-73981914D01*
X182897678Y-75396128D01*
X182897678Y-75396128D01*
G37*
G36*
X182331993Y-75961814D02*
X181660241Y-76633566D01*
X180246027Y-75219352D01*
X180917779Y-74547600D01*
X182331993Y-75961814D01*
X182331993Y-75961814D01*
G37*
G36*
X181766307Y-76527499D02*
X181094555Y-77199251D01*
X179680341Y-75785037D01*
X180352093Y-75113285D01*
X181766307Y-76527499D01*
X181766307Y-76527499D01*
G37*
G36*
X181200622Y-77093184D02*
X180528870Y-77764936D01*
X179114656Y-76350722D01*
X179786408Y-75678970D01*
X181200622Y-77093184D01*
X181200622Y-77093184D01*
G37*
G36*
X180634936Y-77658870D02*
X179963184Y-78330622D01*
X178548970Y-76916408D01*
X179220722Y-76244656D01*
X180634936Y-77658870D01*
X180634936Y-77658870D01*
G37*
G36*
X180069251Y-78224555D02*
X179397499Y-78896307D01*
X177983285Y-77482093D01*
X178655037Y-76810341D01*
X180069251Y-78224555D01*
X180069251Y-78224555D01*
G37*
G36*
X179503566Y-78790241D02*
X178831814Y-79461993D01*
X177417600Y-78047779D01*
X178089352Y-77376027D01*
X179503566Y-78790241D01*
X179503566Y-78790241D01*
G37*
G36*
X178937880Y-79355926D02*
X178266128Y-80027678D01*
X176851914Y-78613464D01*
X177523666Y-77941712D01*
X178937880Y-79355926D01*
X178937880Y-79355926D01*
G37*
D19*
X196850000Y-116840000D03*
X128270000Y-66040000D03*
X128270000Y-115570000D03*
X196850000Y-66040000D03*
D20*
X155730000Y-66040000D03*
X152230000Y-66040000D03*
D21*
X153980000Y-68270000D03*
D20*
X159230000Y-66040000D03*
X162730000Y-66040000D03*
D22*
X136485000Y-110295000D03*
D23*
X133985000Y-110295000D03*
D24*
X136485000Y-117475000D03*
X133985000Y-117475000D03*
D25*
X153035000Y-90805000D03*
X153035000Y-80645000D03*
X153035000Y-73025000D03*
X145415000Y-90805000D03*
D26*
X130175000Y-82740000D03*
X130175000Y-87440000D03*
D27*
X189865000Y-65405000D03*
D28*
X192405000Y-65405000D03*
X189865000Y-67945000D03*
X192405000Y-67945000D03*
X189865000Y-70485000D03*
X192405000Y-70485000D03*
D29*
X150275000Y-95565000D03*
X150275000Y-93665000D03*
X148175000Y-94615000D03*
D30*
X134935000Y-76835000D03*
X133035000Y-76835000D03*
X186370000Y-70485000D03*
X184470000Y-70485000D03*
X182560000Y-70485000D03*
X180660000Y-70485000D03*
X140020000Y-78740000D03*
X141920000Y-78740000D03*
X191450000Y-73660000D03*
X189550000Y-73660000D03*
D31*
X139065000Y-86045000D03*
X139065000Y-87945000D03*
X135890000Y-84775000D03*
X135890000Y-86675000D03*
D30*
X126685000Y-91440000D03*
X128585000Y-91440000D03*
D32*
X176750000Y-72390000D03*
X178850000Y-72390000D03*
D31*
X170815000Y-94935000D03*
X170815000Y-96835000D03*
X174625000Y-94935000D03*
X174625000Y-96835000D03*
X178435000Y-94935000D03*
X178435000Y-96835000D03*
X165100000Y-73345000D03*
X165100000Y-75245000D03*
D30*
X159700000Y-85090000D03*
X157800000Y-85090000D03*
X157800000Y-88900000D03*
X159700000Y-88900000D03*
X163515000Y-80010000D03*
X165415000Y-80010000D03*
D31*
X175260000Y-103185000D03*
X175260000Y-101285000D03*
D30*
X165420000Y-114935000D03*
X167320000Y-114935000D03*
X166055000Y-118745000D03*
X167955000Y-118745000D03*
X162875000Y-107315000D03*
X160975000Y-107315000D03*
X160975000Y-104775000D03*
X162875000Y-104775000D03*
D33*
X175260000Y-67310000D03*
X172720000Y-67310000D03*
X170180000Y-67310000D03*
X177800000Y-67310000D03*
X171450000Y-64770000D03*
X173990000Y-64770000D03*
X176530000Y-64770000D03*
X179070000Y-64770000D03*
X180340000Y-67310000D03*
X181610000Y-64770000D03*
X182880000Y-67310000D03*
X184150000Y-64770000D03*
D34*
X169545000Y-76995000D03*
X170815000Y-76995000D03*
X172085000Y-76995000D03*
X173355000Y-76995000D03*
X173355000Y-71595000D03*
X172085000Y-71595000D03*
X170815000Y-71595000D03*
X169545000Y-71595000D03*
D35*
X138110000Y-80180000D03*
X137160000Y-80180000D03*
X136210000Y-80180000D03*
X136210000Y-82380000D03*
X138110000Y-82380000D03*
X137160000Y-82380000D03*
D36*
X171620000Y-81600000D03*
X171620000Y-82550000D03*
X171620000Y-83500000D03*
X173820000Y-83500000D03*
X173820000Y-81600000D03*
D37*
X161325000Y-71295000D03*
X160055000Y-71295000D03*
X158785000Y-71295000D03*
X157515000Y-71295000D03*
X157515000Y-77095000D03*
X158785000Y-77095000D03*
X160055000Y-77095000D03*
X161325000Y-77095000D03*
D35*
X159700000Y-80180000D03*
X158750000Y-80180000D03*
X157800000Y-80180000D03*
X157800000Y-82380000D03*
X159700000Y-82380000D03*
D38*
X189060000Y-85560000D03*
X186860000Y-85560000D03*
X186860000Y-87160000D03*
X189060000Y-87160000D03*
D20*
X138585000Y-66040000D03*
X135085000Y-66040000D03*
D21*
X136835000Y-68270000D03*
D20*
X142085000Y-66040000D03*
X145585000Y-66040000D03*
D39*
X197240000Y-76185000D03*
X197240000Y-79685000D03*
X197240000Y-83185000D03*
X197240000Y-86685000D03*
X197240000Y-90185000D03*
D24*
X195010000Y-77935000D03*
D15*
X138430000Y-91075000D03*
X138430000Y-93075000D03*
X142875000Y-88630000D03*
X142875000Y-86630000D03*
D30*
X195585000Y-95250000D03*
X197485000Y-95250000D03*
M02*
