G04 #@! TF.FileFunction,Legend,Top*
%FSLAX46Y46*%
G04 Gerber Fmt 4.6, Leading zero omitted, Abs format (unit mm)*
G04 Created by KiCad (PCBNEW 4.0.7-e2-6376~58~ubuntu14.04.1) date Thu Feb  8 20:55:41 2018*
%MOMM*%
%LPD*%
G01*
G04 APERTURE LIST*
%ADD10C,0.100000*%
%ADD11C,0.300000*%
%ADD12C,0.200000*%
%ADD13C,0.150000*%
%ADD14C,0.120000*%
%ADD15C,0.500000*%
G04 APERTURE END LIST*
D10*
D11*
X144769498Y-101789429D02*
X143912355Y-101789429D01*
X144340927Y-101789429D02*
X144340927Y-100289429D01*
X144198070Y-100503715D01*
X144055212Y-100646572D01*
X143912355Y-100718001D01*
X145340926Y-100432287D02*
X145412355Y-100360858D01*
X145555212Y-100289429D01*
X145912355Y-100289429D01*
X146055212Y-100360858D01*
X146126641Y-100432287D01*
X146198069Y-100575144D01*
X146198069Y-100718001D01*
X146126641Y-100932287D01*
X145269498Y-101789429D01*
X146198069Y-101789429D01*
X146840926Y-101646572D02*
X146912354Y-101718001D01*
X146840926Y-101789429D01*
X146769497Y-101718001D01*
X146840926Y-101646572D01*
X146840926Y-101789429D01*
X147412355Y-100289429D02*
X148412355Y-100289429D01*
X147769498Y-101789429D01*
X149269497Y-100289429D02*
X149412354Y-100289429D01*
X149555211Y-100360858D01*
X149626640Y-100432287D01*
X149698069Y-100575144D01*
X149769497Y-100860858D01*
X149769497Y-101218001D01*
X149698069Y-101503715D01*
X149626640Y-101646572D01*
X149555211Y-101718001D01*
X149412354Y-101789429D01*
X149269497Y-101789429D01*
X149126640Y-101718001D01*
X149055211Y-101646572D01*
X148983783Y-101503715D01*
X148912354Y-101218001D01*
X148912354Y-100860858D01*
X148983783Y-100575144D01*
X149055211Y-100432287D01*
X149126640Y-100360858D01*
X149269497Y-100289429D01*
X150698068Y-100289429D02*
X150840925Y-100289429D01*
X150983782Y-100360858D01*
X151055211Y-100432287D01*
X151126640Y-100575144D01*
X151198068Y-100860858D01*
X151198068Y-101218001D01*
X151126640Y-101503715D01*
X151055211Y-101646572D01*
X150983782Y-101718001D01*
X150840925Y-101789429D01*
X150698068Y-101789429D01*
X150555211Y-101718001D01*
X150483782Y-101646572D01*
X150412354Y-101503715D01*
X150340925Y-101218001D01*
X150340925Y-100860858D01*
X150412354Y-100575144D01*
X150483782Y-100432287D01*
X150555211Y-100360858D01*
X150698068Y-100289429D01*
X152983782Y-101789429D02*
X152983782Y-100789429D01*
X152983782Y-100932287D02*
X153055210Y-100860858D01*
X153198068Y-100789429D01*
X153412353Y-100789429D01*
X153555210Y-100860858D01*
X153626639Y-101003715D01*
X153626639Y-101789429D01*
X153626639Y-101003715D02*
X153698068Y-100860858D01*
X153840925Y-100789429D01*
X154055210Y-100789429D01*
X154198068Y-100860858D01*
X154269496Y-101003715D01*
X154269496Y-101789429D01*
X154983782Y-101789429D02*
X154983782Y-100789429D01*
X154983782Y-100932287D02*
X155055210Y-100860858D01*
X155198068Y-100789429D01*
X155412353Y-100789429D01*
X155555210Y-100860858D01*
X155626639Y-101003715D01*
X155626639Y-101789429D01*
X155626639Y-101003715D02*
X155698068Y-100860858D01*
X155840925Y-100789429D01*
X156055210Y-100789429D01*
X156198068Y-100860858D01*
X156269496Y-101003715D01*
X156269496Y-101789429D01*
X156476640Y-102460858D02*
X143776640Y-102460858D01*
X156476640Y-103730858D02*
X156476640Y-99760858D01*
X143776640Y-103730858D02*
X143776640Y-99760858D01*
X143776640Y-102460858D02*
X144903144Y-101874437D01*
X143776640Y-102460858D02*
X144903144Y-103047279D01*
X156476640Y-102460858D02*
X155350136Y-101874437D01*
X156476640Y-102460858D02*
X155350136Y-103047279D01*
X137021641Y-106933742D02*
X137021641Y-107790885D01*
X137021641Y-107362313D02*
X135521641Y-107362313D01*
X135735927Y-107505170D01*
X135878784Y-107648028D01*
X135950213Y-107790885D01*
X135664499Y-106362314D02*
X135593070Y-106290885D01*
X135521641Y-106148028D01*
X135521641Y-105790885D01*
X135593070Y-105648028D01*
X135664499Y-105576599D01*
X135807356Y-105505171D01*
X135950213Y-105505171D01*
X136164499Y-105576599D01*
X137021641Y-106433742D01*
X137021641Y-105505171D01*
X136878784Y-104862314D02*
X136950213Y-104790886D01*
X137021641Y-104862314D01*
X136950213Y-104933743D01*
X136878784Y-104862314D01*
X137021641Y-104862314D01*
X135521641Y-104290885D02*
X135521641Y-103290885D01*
X137021641Y-103933742D01*
X135521641Y-102433743D02*
X135521641Y-102290886D01*
X135593070Y-102148029D01*
X135664499Y-102076600D01*
X135807356Y-102005171D01*
X136093070Y-101933743D01*
X136450213Y-101933743D01*
X136735927Y-102005171D01*
X136878784Y-102076600D01*
X136950213Y-102148029D01*
X137021641Y-102290886D01*
X137021641Y-102433743D01*
X136950213Y-102576600D01*
X136878784Y-102648029D01*
X136735927Y-102719457D01*
X136450213Y-102790886D01*
X136093070Y-102790886D01*
X135807356Y-102719457D01*
X135664499Y-102648029D01*
X135593070Y-102576600D01*
X135521641Y-102433743D01*
X135521641Y-101005172D02*
X135521641Y-100862315D01*
X135593070Y-100719458D01*
X135664499Y-100648029D01*
X135807356Y-100576600D01*
X136093070Y-100505172D01*
X136450213Y-100505172D01*
X136735927Y-100576600D01*
X136878784Y-100648029D01*
X136950213Y-100719458D01*
X137021641Y-100862315D01*
X137021641Y-101005172D01*
X136950213Y-101148029D01*
X136878784Y-101219458D01*
X136735927Y-101290886D01*
X136450213Y-101362315D01*
X136093070Y-101362315D01*
X135807356Y-101290886D01*
X135664499Y-101219458D01*
X135593070Y-101148029D01*
X135521641Y-101005172D01*
X137021641Y-98719458D02*
X136021641Y-98719458D01*
X136164499Y-98719458D02*
X136093070Y-98648030D01*
X136021641Y-98505172D01*
X136021641Y-98290887D01*
X136093070Y-98148030D01*
X136235927Y-98076601D01*
X137021641Y-98076601D01*
X136235927Y-98076601D02*
X136093070Y-98005172D01*
X136021641Y-97862315D01*
X136021641Y-97648030D01*
X136093070Y-97505172D01*
X136235927Y-97433744D01*
X137021641Y-97433744D01*
X137021641Y-96719458D02*
X136021641Y-96719458D01*
X136164499Y-96719458D02*
X136093070Y-96648030D01*
X136021641Y-96505172D01*
X136021641Y-96290887D01*
X136093070Y-96148030D01*
X136235927Y-96076601D01*
X137021641Y-96076601D01*
X136235927Y-96076601D02*
X136093070Y-96005172D01*
X136021641Y-95862315D01*
X136021641Y-95648030D01*
X136093070Y-95505172D01*
X136235927Y-95433744D01*
X137021641Y-95433744D01*
X134993070Y-107926600D02*
X134993070Y-95226600D01*
X133723070Y-107926600D02*
X137693070Y-107926600D01*
X133723070Y-95226600D02*
X137693070Y-95226600D01*
X134993070Y-95226600D02*
X135579491Y-96353104D01*
X134993070Y-95226600D02*
X134406649Y-96353104D01*
X134993070Y-107926600D02*
X135579491Y-106800096D01*
X134993070Y-107926600D02*
X134406649Y-106800096D01*
X177792857Y-112438571D02*
X177792857Y-110938571D01*
X178650000Y-112438571D01*
X178650000Y-110938571D01*
X179578572Y-112438571D02*
X179435714Y-112367143D01*
X179364286Y-112295714D01*
X179292857Y-112152857D01*
X179292857Y-111724286D01*
X179364286Y-111581429D01*
X179435714Y-111510000D01*
X179578572Y-111438571D01*
X179792857Y-111438571D01*
X179935714Y-111510000D01*
X180007143Y-111581429D01*
X180078572Y-111724286D01*
X180078572Y-112152857D01*
X180007143Y-112295714D01*
X179935714Y-112367143D01*
X179792857Y-112438571D01*
X179578572Y-112438571D01*
X181364286Y-112438571D02*
X181364286Y-111652857D01*
X181292857Y-111510000D01*
X181150000Y-111438571D01*
X180864286Y-111438571D01*
X180721429Y-111510000D01*
X181364286Y-112367143D02*
X181221429Y-112438571D01*
X180864286Y-112438571D01*
X180721429Y-112367143D01*
X180650000Y-112224286D01*
X180650000Y-112081429D01*
X180721429Y-111938571D01*
X180864286Y-111867143D01*
X181221429Y-111867143D01*
X181364286Y-111795714D01*
X182078572Y-112438571D02*
X182078572Y-110938571D01*
X182721429Y-112438571D02*
X182721429Y-111652857D01*
X182650000Y-111510000D01*
X182507143Y-111438571D01*
X182292858Y-111438571D01*
X182150000Y-111510000D01*
X182078572Y-111581429D01*
X185435715Y-112438571D02*
X184935715Y-111724286D01*
X184578572Y-112438571D02*
X184578572Y-110938571D01*
X185150000Y-110938571D01*
X185292858Y-111010000D01*
X185364286Y-111081429D01*
X185435715Y-111224286D01*
X185435715Y-111438571D01*
X185364286Y-111581429D01*
X185292858Y-111652857D01*
X185150000Y-111724286D01*
X184578572Y-111724286D01*
X186078572Y-112438571D02*
X186078572Y-111438571D01*
X186078572Y-110938571D02*
X186007143Y-111010000D01*
X186078572Y-111081429D01*
X186150000Y-111010000D01*
X186078572Y-110938571D01*
X186078572Y-111081429D01*
X186650001Y-111438571D02*
X187007144Y-112438571D01*
X187364286Y-111438571D01*
X187935715Y-112438571D02*
X187935715Y-110938571D01*
X188078572Y-111867143D02*
X188507143Y-112438571D01*
X188507143Y-111438571D02*
X187935715Y-112010000D01*
X189150001Y-112438571D02*
X189150001Y-111438571D01*
X189150001Y-110938571D02*
X189078572Y-111010000D01*
X189150001Y-111081429D01*
X189221429Y-111010000D01*
X189150001Y-110938571D01*
X189150001Y-111081429D01*
X189864287Y-111438571D02*
X189864287Y-112438571D01*
X189864287Y-111581429D02*
X189935715Y-111510000D01*
X190078573Y-111438571D01*
X190292858Y-111438571D01*
X190435715Y-111510000D01*
X190507144Y-111652857D01*
X190507144Y-112438571D01*
X173154286Y-107128571D02*
X173440000Y-107128571D01*
X173582858Y-107200000D01*
X173725715Y-107342857D01*
X173797143Y-107628571D01*
X173797143Y-108128571D01*
X173725715Y-108414286D01*
X173582858Y-108557143D01*
X173440000Y-108628571D01*
X173154286Y-108628571D01*
X173011429Y-108557143D01*
X172868572Y-108414286D01*
X172797143Y-108128571D01*
X172797143Y-107628571D01*
X172868572Y-107342857D01*
X173011429Y-107200000D01*
X173154286Y-107128571D01*
X174654287Y-108628571D02*
X174511429Y-108557143D01*
X174440001Y-108414286D01*
X174440001Y-107128571D01*
X175225715Y-108628571D02*
X175225715Y-107628571D01*
X175225715Y-107128571D02*
X175154286Y-107200000D01*
X175225715Y-107271429D01*
X175297143Y-107200000D01*
X175225715Y-107128571D01*
X175225715Y-107271429D01*
X175940001Y-107628571D02*
X175940001Y-108628571D01*
X175940001Y-107771429D02*
X176011429Y-107700000D01*
X176154287Y-107628571D01*
X176368572Y-107628571D01*
X176511429Y-107700000D01*
X176582858Y-107842857D01*
X176582858Y-108628571D01*
X178440001Y-107842857D02*
X178940001Y-107842857D01*
X179154287Y-108628571D02*
X178440001Y-108628571D01*
X178440001Y-107128571D01*
X179154287Y-107128571D01*
X180011430Y-108628571D02*
X179868572Y-108557143D01*
X179797144Y-108414286D01*
X179797144Y-107128571D01*
X181154286Y-108557143D02*
X181011429Y-108628571D01*
X180725715Y-108628571D01*
X180582858Y-108557143D01*
X180511429Y-108414286D01*
X180511429Y-107842857D01*
X180582858Y-107700000D01*
X180725715Y-107628571D01*
X181011429Y-107628571D01*
X181154286Y-107700000D01*
X181225715Y-107842857D01*
X181225715Y-107985714D01*
X180511429Y-108128571D01*
X182511429Y-108557143D02*
X182368572Y-108628571D01*
X182082858Y-108628571D01*
X181940000Y-108557143D01*
X181868572Y-108485714D01*
X181797143Y-108342857D01*
X181797143Y-107914286D01*
X181868572Y-107771429D01*
X181940000Y-107700000D01*
X182082858Y-107628571D01*
X182368572Y-107628571D01*
X182511429Y-107700000D01*
X182940000Y-107628571D02*
X183511429Y-107628571D01*
X183154286Y-107128571D02*
X183154286Y-108414286D01*
X183225714Y-108557143D01*
X183368572Y-108628571D01*
X183511429Y-108628571D01*
X184011429Y-108628571D02*
X184011429Y-107628571D01*
X184011429Y-107914286D02*
X184082857Y-107771429D01*
X184154286Y-107700000D01*
X184297143Y-107628571D01*
X184440000Y-107628571D01*
X184940000Y-108628571D02*
X184940000Y-107628571D01*
X184940000Y-107128571D02*
X184868571Y-107200000D01*
X184940000Y-107271429D01*
X185011428Y-107200000D01*
X184940000Y-107128571D01*
X184940000Y-107271429D01*
X186297143Y-108557143D02*
X186154286Y-108628571D01*
X185868572Y-108628571D01*
X185725714Y-108557143D01*
X185654286Y-108485714D01*
X185582857Y-108342857D01*
X185582857Y-107914286D01*
X185654286Y-107771429D01*
X185725714Y-107700000D01*
X185868572Y-107628571D01*
X186154286Y-107628571D01*
X186297143Y-107700000D01*
X188082857Y-108628571D02*
X188082857Y-107128571D01*
X188582857Y-108200000D01*
X189082857Y-107128571D01*
X189082857Y-108628571D01*
X190011429Y-108628571D02*
X189868571Y-108557143D01*
X189797143Y-108485714D01*
X189725714Y-108342857D01*
X189725714Y-107914286D01*
X189797143Y-107771429D01*
X189868571Y-107700000D01*
X190011429Y-107628571D01*
X190225714Y-107628571D01*
X190368571Y-107700000D01*
X190440000Y-107771429D01*
X190511429Y-107914286D01*
X190511429Y-108342857D01*
X190440000Y-108485714D01*
X190368571Y-108557143D01*
X190225714Y-108628571D01*
X190011429Y-108628571D01*
X190940000Y-107628571D02*
X191511429Y-107628571D01*
X191154286Y-107128571D02*
X191154286Y-108414286D01*
X191225714Y-108557143D01*
X191368572Y-108628571D01*
X191511429Y-108628571D01*
X192225715Y-108628571D02*
X192082857Y-108557143D01*
X192011429Y-108485714D01*
X191940000Y-108342857D01*
X191940000Y-107914286D01*
X192011429Y-107771429D01*
X192082857Y-107700000D01*
X192225715Y-107628571D01*
X192440000Y-107628571D01*
X192582857Y-107700000D01*
X192654286Y-107771429D01*
X192725715Y-107914286D01*
X192725715Y-108342857D01*
X192654286Y-108485714D01*
X192582857Y-108557143D01*
X192440000Y-108628571D01*
X192225715Y-108628571D01*
X193368572Y-108628571D02*
X193368572Y-107628571D01*
X193368572Y-107914286D02*
X193440000Y-107771429D01*
X193511429Y-107700000D01*
X193654286Y-107628571D01*
X193797143Y-107628571D01*
X194225714Y-108557143D02*
X194368571Y-108628571D01*
X194654286Y-108628571D01*
X194797143Y-108557143D01*
X194868571Y-108414286D01*
X194868571Y-108342857D01*
X194797143Y-108200000D01*
X194654286Y-108128571D01*
X194440000Y-108128571D01*
X194297143Y-108057143D01*
X194225714Y-107914286D01*
X194225714Y-107842857D01*
X194297143Y-107700000D01*
X194440000Y-107628571D01*
X194654286Y-107628571D01*
X194797143Y-107700000D01*
X195511429Y-107628571D02*
X195511429Y-109128571D01*
X195511429Y-107700000D02*
X195654286Y-107628571D01*
X195940000Y-107628571D01*
X196082857Y-107700000D01*
X196154286Y-107771429D01*
X196225715Y-107914286D01*
X196225715Y-108342857D01*
X196154286Y-108485714D01*
X196082857Y-108557143D01*
X195940000Y-108628571D01*
X195654286Y-108628571D01*
X195511429Y-108557143D01*
X197082858Y-108628571D02*
X196940000Y-108557143D01*
X196868572Y-108485714D01*
X196797143Y-108342857D01*
X196797143Y-107914286D01*
X196868572Y-107771429D01*
X196940000Y-107700000D01*
X197082858Y-107628571D01*
X197297143Y-107628571D01*
X197440000Y-107700000D01*
X197511429Y-107771429D01*
X197582858Y-107914286D01*
X197582858Y-108342857D01*
X197511429Y-108485714D01*
X197440000Y-108557143D01*
X197297143Y-108628571D01*
X197082858Y-108628571D01*
X198225715Y-108628571D02*
X198225715Y-107628571D01*
X198225715Y-107914286D02*
X198297143Y-107771429D01*
X198368572Y-107700000D01*
X198511429Y-107628571D01*
X198654286Y-107628571D01*
X198940000Y-107628571D02*
X199511429Y-107628571D01*
X199154286Y-107128571D02*
X199154286Y-108414286D01*
X199225714Y-108557143D01*
X199368572Y-108628571D01*
X199511429Y-108628571D01*
X199940000Y-108557143D02*
X200082857Y-108628571D01*
X200368572Y-108628571D01*
X200511429Y-108557143D01*
X200582857Y-108414286D01*
X200582857Y-108342857D01*
X200511429Y-108200000D01*
X200368572Y-108128571D01*
X200154286Y-108128571D01*
X200011429Y-108057143D01*
X199940000Y-107914286D01*
X199940000Y-107842857D01*
X200011429Y-107700000D01*
X200154286Y-107628571D01*
X200368572Y-107628571D01*
X200511429Y-107700000D01*
X173344287Y-105302857D02*
X173558573Y-105374286D01*
X173630001Y-105445714D01*
X173701430Y-105588571D01*
X173701430Y-105802857D01*
X173630001Y-105945714D01*
X173558573Y-106017143D01*
X173415715Y-106088571D01*
X172844287Y-106088571D01*
X172844287Y-104588571D01*
X173344287Y-104588571D01*
X173487144Y-104660000D01*
X173558573Y-104731429D01*
X173630001Y-104874286D01*
X173630001Y-105017143D01*
X173558573Y-105160000D01*
X173487144Y-105231429D01*
X173344287Y-105302857D01*
X172844287Y-105302857D01*
X174344287Y-106088571D02*
X174344287Y-104588571D01*
X174844287Y-105660000D01*
X175344287Y-104588571D01*
X175344287Y-106088571D01*
X175987144Y-106017143D02*
X176201430Y-106088571D01*
X176558573Y-106088571D01*
X176701430Y-106017143D01*
X176772859Y-105945714D01*
X176844287Y-105802857D01*
X176844287Y-105660000D01*
X176772859Y-105517143D01*
X176701430Y-105445714D01*
X176558573Y-105374286D01*
X176272859Y-105302857D01*
X176130001Y-105231429D01*
X176058573Y-105160000D01*
X175987144Y-105017143D01*
X175987144Y-104874286D01*
X176058573Y-104731429D01*
X176130001Y-104660000D01*
X176272859Y-104588571D01*
X176630001Y-104588571D01*
X176844287Y-104660000D01*
X178630001Y-106088571D02*
X178630001Y-104588571D01*
X179130001Y-105660000D01*
X179630001Y-104588571D01*
X179630001Y-106088571D01*
X180987144Y-106088571D02*
X180987144Y-105302857D01*
X180915715Y-105160000D01*
X180772858Y-105088571D01*
X180487144Y-105088571D01*
X180344287Y-105160000D01*
X180987144Y-106017143D02*
X180844287Y-106088571D01*
X180487144Y-106088571D01*
X180344287Y-106017143D01*
X180272858Y-105874286D01*
X180272858Y-105731429D01*
X180344287Y-105588571D01*
X180487144Y-105517143D01*
X180844287Y-105517143D01*
X180987144Y-105445714D01*
X181630001Y-106017143D02*
X181772858Y-106088571D01*
X182058573Y-106088571D01*
X182201430Y-106017143D01*
X182272858Y-105874286D01*
X182272858Y-105802857D01*
X182201430Y-105660000D01*
X182058573Y-105588571D01*
X181844287Y-105588571D01*
X181701430Y-105517143D01*
X181630001Y-105374286D01*
X181630001Y-105302857D01*
X181701430Y-105160000D01*
X181844287Y-105088571D01*
X182058573Y-105088571D01*
X182201430Y-105160000D01*
X182701430Y-105088571D02*
X183272859Y-105088571D01*
X182915716Y-104588571D02*
X182915716Y-105874286D01*
X182987144Y-106017143D01*
X183130002Y-106088571D01*
X183272859Y-106088571D01*
X184344287Y-106017143D02*
X184201430Y-106088571D01*
X183915716Y-106088571D01*
X183772859Y-106017143D01*
X183701430Y-105874286D01*
X183701430Y-105302857D01*
X183772859Y-105160000D01*
X183915716Y-105088571D01*
X184201430Y-105088571D01*
X184344287Y-105160000D01*
X184415716Y-105302857D01*
X184415716Y-105445714D01*
X183701430Y-105588571D01*
X185058573Y-106088571D02*
X185058573Y-105088571D01*
X185058573Y-105374286D02*
X185130001Y-105231429D01*
X185201430Y-105160000D01*
X185344287Y-105088571D01*
X185487144Y-105088571D01*
X187987144Y-106088571D02*
X187487144Y-105374286D01*
X187130001Y-106088571D02*
X187130001Y-104588571D01*
X187701429Y-104588571D01*
X187844287Y-104660000D01*
X187915715Y-104731429D01*
X187987144Y-104874286D01*
X187987144Y-105088571D01*
X187915715Y-105231429D01*
X187844287Y-105302857D01*
X187701429Y-105374286D01*
X187130001Y-105374286D01*
X189201429Y-106017143D02*
X189058572Y-106088571D01*
X188772858Y-106088571D01*
X188630001Y-106017143D01*
X188558572Y-105874286D01*
X188558572Y-105302857D01*
X188630001Y-105160000D01*
X188772858Y-105088571D01*
X189058572Y-105088571D01*
X189201429Y-105160000D01*
X189272858Y-105302857D01*
X189272858Y-105445714D01*
X188558572Y-105588571D01*
X189772858Y-105088571D02*
X190130001Y-106088571D01*
X190487143Y-105088571D01*
X192987143Y-106088571D02*
X192130000Y-106088571D01*
X192558572Y-106088571D02*
X192558572Y-104588571D01*
X192415715Y-104802857D01*
X192272857Y-104945714D01*
X192130000Y-105017143D01*
D12*
X151130000Y-102870000D02*
G75*
G03X147320000Y-99060000I-3810000J0D01*
G01*
X147320000Y-99060000D02*
X124460000Y-99060000D01*
X151130000Y-121920000D02*
X151130000Y-102870000D01*
D11*
X157301429Y-120058571D02*
X156587143Y-120058571D01*
X156587143Y-118558571D01*
X157587143Y-118558571D02*
X158087143Y-120058571D01*
X158587143Y-118558571D01*
X142438572Y-120058571D02*
X142438572Y-118558571D01*
X142438572Y-119272857D02*
X143295715Y-119272857D01*
X143295715Y-120058571D02*
X143295715Y-118558571D01*
X143795715Y-118558571D02*
X144295715Y-120058571D01*
X144795715Y-118558571D01*
D13*
X147320000Y-119380000D02*
X147320000Y-105410000D01*
X153670000Y-105410000D02*
X153670000Y-119380000D01*
X147320000Y-105410000D02*
X153670000Y-105410000D01*
X153670000Y-119380000D02*
X147320000Y-119380000D01*
X169070000Y-106395000D02*
X169070000Y-110395000D01*
X166570000Y-106395000D02*
X166570000Y-110895000D01*
X169070000Y-110395000D02*
X168570000Y-110895000D01*
X168570000Y-110895000D02*
X166570000Y-110895000D01*
X166570000Y-106395000D02*
X169070000Y-106395000D01*
D14*
X138045000Y-72025000D02*
X138045000Y-74025000D01*
X140085000Y-74025000D02*
X140085000Y-72025000D01*
X191270000Y-79590000D02*
X192270000Y-79590000D01*
X192270000Y-77890000D02*
X191270000Y-77890000D01*
X191000000Y-75350000D02*
X190000000Y-75350000D01*
X190000000Y-77050000D02*
X191000000Y-77050000D01*
X169125000Y-81145000D02*
X169125000Y-80145000D01*
X167425000Y-80145000D02*
X167425000Y-81145000D01*
X139485000Y-81415000D02*
X139485000Y-82415000D01*
X141185000Y-82415000D02*
X141185000Y-81415000D01*
X136740000Y-90670000D02*
X136740000Y-89670000D01*
X135040000Y-89670000D02*
X135040000Y-90670000D01*
X191985000Y-86860000D02*
X191985000Y-85860000D01*
X190285000Y-85860000D02*
X190285000Y-86860000D01*
X188460000Y-88685000D02*
X187460000Y-88685000D01*
X187460000Y-90385000D02*
X188460000Y-90385000D01*
X196350000Y-72605000D02*
X197350000Y-72605000D01*
X197350000Y-70905000D02*
X196350000Y-70905000D01*
X175125000Y-110275000D02*
X174125000Y-110275000D01*
X174125000Y-111975000D02*
X175125000Y-111975000D01*
X175125000Y-114720000D02*
X174125000Y-114720000D01*
X174125000Y-116420000D02*
X175125000Y-116420000D01*
X162425000Y-109640000D02*
X161425000Y-109640000D01*
X161425000Y-111340000D02*
X162425000Y-111340000D01*
X162425000Y-112815000D02*
X161425000Y-112815000D01*
X161425000Y-114515000D02*
X162425000Y-114515000D01*
X130240000Y-76305000D02*
X128840000Y-76305000D01*
D10*
X128470000Y-77959000D02*
X128070000Y-77959000D01*
X128270000Y-77959000D02*
X128470000Y-78259000D01*
X128070000Y-78259000D02*
X128270000Y-77959000D01*
X128470000Y-78259000D02*
X128070000Y-78259000D01*
D14*
X128840000Y-76305000D02*
X128840000Y-79105000D01*
X130240000Y-76305000D02*
X130240000Y-79105000D01*
X133880000Y-92140000D02*
X133880000Y-90740000D01*
D10*
X132226000Y-90370000D02*
X132226000Y-89970000D01*
X132226000Y-90170000D02*
X131926000Y-90370000D01*
X131926000Y-89970000D02*
X132226000Y-90170000D01*
X131926000Y-90370000D02*
X131926000Y-89970000D01*
D14*
X133880000Y-90740000D02*
X131080000Y-90740000D01*
X133880000Y-92140000D02*
X131080000Y-92140000D01*
D10*
X140105000Y-92810000D02*
X140105000Y-93210000D01*
X140105000Y-92510000D02*
X140305000Y-92810000D01*
X140305000Y-92810000D02*
X139905000Y-92810000D01*
X139905000Y-92810000D02*
X140105000Y-92510000D01*
X140105000Y-92110000D02*
X140105000Y-92510000D01*
X140105000Y-92510000D02*
X140355000Y-92510000D01*
X140355000Y-92510000D02*
X139855000Y-92510000D01*
D14*
X142605000Y-90510000D02*
X140605000Y-90510000D01*
X140605000Y-90510000D02*
X140605000Y-94360000D01*
X142605000Y-90510000D02*
X142605000Y-94360000D01*
X126936500Y-75565000D02*
X129603500Y-75565000D01*
D10*
X129966000Y-72006000D02*
X129966000Y-71856000D01*
X129766000Y-72006000D02*
X129966000Y-72306000D01*
X130166000Y-72006000D02*
X129766000Y-72006000D01*
X129966000Y-72306000D02*
X130166000Y-72006000D01*
X129966000Y-72306000D02*
X129966000Y-72456000D01*
X130166000Y-72306000D02*
X129766000Y-72306000D01*
D14*
X129603500Y-75565000D02*
X129603500Y-72390000D01*
X126936500Y-75565000D02*
X126936500Y-72390000D01*
X170115000Y-92605000D02*
X171515000Y-92605000D01*
D10*
X171885000Y-90951000D02*
X172285000Y-90951000D01*
X172085000Y-90951000D02*
X171885000Y-90651000D01*
X172285000Y-90651000D02*
X172085000Y-90951000D01*
X171885000Y-90651000D02*
X172285000Y-90651000D01*
D14*
X171515000Y-92605000D02*
X171515000Y-89805000D01*
X170115000Y-92605000D02*
X170115000Y-89805000D01*
X173925000Y-92605000D02*
X175325000Y-92605000D01*
D10*
X175695000Y-90951000D02*
X176095000Y-90951000D01*
X175895000Y-90951000D02*
X175695000Y-90651000D01*
X176095000Y-90651000D02*
X175895000Y-90951000D01*
X175695000Y-90651000D02*
X176095000Y-90651000D01*
D14*
X175325000Y-92605000D02*
X175325000Y-89805000D01*
X173925000Y-92605000D02*
X173925000Y-89805000D01*
X177735000Y-92605000D02*
X179135000Y-92605000D01*
D10*
X179505000Y-90951000D02*
X179905000Y-90951000D01*
X179705000Y-90951000D02*
X179505000Y-90651000D01*
X179905000Y-90651000D02*
X179705000Y-90951000D01*
X179505000Y-90651000D02*
X179905000Y-90651000D01*
D14*
X179135000Y-92605000D02*
X179135000Y-89805000D01*
X177735000Y-92605000D02*
X177735000Y-89805000D01*
X163130000Y-85620000D02*
X164530000Y-85620000D01*
D10*
X164900000Y-83966000D02*
X165300000Y-83966000D01*
X165100000Y-83966000D02*
X164900000Y-83666000D01*
X165300000Y-83666000D02*
X165100000Y-83966000D01*
X164900000Y-83666000D02*
X165300000Y-83666000D01*
D14*
X164530000Y-85620000D02*
X164530000Y-82820000D01*
X163130000Y-85620000D02*
X163130000Y-82820000D01*
X133140000Y-74025000D02*
X133140000Y-72025000D01*
X136100000Y-72025000D02*
X136100000Y-74025000D01*
D15*
X179177054Y-80027961D02*
G75*
G03X179177054Y-80027961I-50801J0D01*
G01*
X176842186Y-79884276D02*
G75*
G03X176842186Y-79884276I-50800J0D01*
G01*
D13*
X177753476Y-80010000D02*
X177912575Y-80169099D01*
X182880000Y-74883476D02*
X183109810Y-75113286D01*
X188006524Y-80010000D02*
X187776714Y-79780190D01*
X182880000Y-85136524D02*
X182650190Y-84906714D01*
X177753476Y-80010000D02*
X177983286Y-79780190D01*
X182880000Y-85136524D02*
X183109810Y-84906714D01*
X188006524Y-80010000D02*
X187776714Y-80239810D01*
X182880000Y-74883476D02*
X182650190Y-75113286D01*
X177912575Y-80169099D02*
X176904948Y-81176726D01*
X161380000Y-63620000D02*
X161380000Y-60310000D01*
X161380000Y-60310000D02*
X153580000Y-60310000D01*
X153580000Y-60310000D02*
X153580000Y-63620000D01*
X149980000Y-63620000D02*
X149980000Y-69342000D01*
X164980000Y-63620000D02*
X164980000Y-69342000D01*
X149980000Y-63620000D02*
X164980000Y-63620000D01*
X149980000Y-69342000D02*
X164980000Y-69342000D01*
D14*
X138355000Y-120825000D02*
X138355000Y-112065000D01*
X138355000Y-112065000D02*
X132115000Y-112065000D01*
X132115000Y-112065000D02*
X132115000Y-120825000D01*
X132115000Y-120825000D02*
X138355000Y-120825000D01*
X136635000Y-112065000D02*
X136635000Y-111595000D01*
X136635000Y-111595000D02*
X136335000Y-111595000D01*
X136335000Y-111595000D02*
X136335000Y-112065000D01*
X136335000Y-112065000D02*
X136635000Y-112065000D01*
X134135000Y-112065000D02*
X134135000Y-111595000D01*
X134135000Y-111595000D02*
X133835000Y-111595000D01*
X133835000Y-111595000D02*
X133835000Y-112065000D01*
X133835000Y-112065000D02*
X134135000Y-112065000D01*
X137885000Y-110295000D02*
X138485000Y-109995000D01*
X138485000Y-109995000D02*
X138485000Y-110595000D01*
X138485000Y-110595000D02*
X137885000Y-110295000D01*
X154375000Y-92135000D02*
X154375000Y-71695000D01*
X154375000Y-71695000D02*
X144075000Y-71695000D01*
X154375000Y-92135000D02*
X144075000Y-92135000D01*
X144075000Y-92135000D02*
X144075000Y-71695000D01*
D13*
X188595000Y-66675000D02*
X188595000Y-71755000D01*
X188315000Y-63855000D02*
X189865000Y-63855000D01*
X191135000Y-64135000D02*
X191135000Y-66675000D01*
X191135000Y-66675000D02*
X188595000Y-66675000D01*
X188595000Y-71755000D02*
X193675000Y-71755000D01*
X193675000Y-71755000D02*
X193675000Y-66675000D01*
X188315000Y-63855000D02*
X188315000Y-65405000D01*
X193675000Y-64135000D02*
X191135000Y-64135000D01*
X193675000Y-66675000D02*
X193675000Y-64135000D01*
D14*
X148465000Y-93035000D02*
X148465000Y-93965000D01*
X148465000Y-96195000D02*
X148465000Y-95265000D01*
X148465000Y-96195000D02*
X150625000Y-96195000D01*
X148465000Y-93035000D02*
X149925000Y-93035000D01*
X133385000Y-75955000D02*
X134585000Y-75955000D01*
X134585000Y-77715000D02*
X133385000Y-77715000D01*
X184820000Y-69605000D02*
X186020000Y-69605000D01*
X186020000Y-71365000D02*
X184820000Y-71365000D01*
X181010000Y-69605000D02*
X182210000Y-69605000D01*
X182210000Y-71365000D02*
X181010000Y-71365000D01*
X141570000Y-79620000D02*
X140370000Y-79620000D01*
X140370000Y-77860000D02*
X141570000Y-77860000D01*
X189900000Y-72780000D02*
X191100000Y-72780000D01*
X191100000Y-74540000D02*
X189900000Y-74540000D01*
X138185000Y-87595000D02*
X138185000Y-86395000D01*
X139945000Y-86395000D02*
X139945000Y-87595000D01*
X135010000Y-86325000D02*
X135010000Y-85125000D01*
X136770000Y-85125000D02*
X136770000Y-86325000D01*
X128235000Y-92320000D02*
X127035000Y-92320000D01*
X127035000Y-90560000D02*
X128235000Y-90560000D01*
X176200000Y-71590000D02*
X176200000Y-73190000D01*
X176200000Y-73190000D02*
X178800000Y-73190000D01*
X176200000Y-71590000D02*
X178800000Y-71590000D01*
X169935000Y-96485000D02*
X169935000Y-95285000D01*
X171695000Y-95285000D02*
X171695000Y-96485000D01*
X173745000Y-96485000D02*
X173745000Y-95285000D01*
X175505000Y-95285000D02*
X175505000Y-96485000D01*
X177555000Y-96485000D02*
X177555000Y-95285000D01*
X179315000Y-95285000D02*
X179315000Y-96485000D01*
X164220000Y-74895000D02*
X164220000Y-73695000D01*
X165980000Y-73695000D02*
X165980000Y-74895000D01*
X158150000Y-84210000D02*
X159350000Y-84210000D01*
X159350000Y-85970000D02*
X158150000Y-85970000D01*
X159350000Y-89780000D02*
X158150000Y-89780000D01*
X158150000Y-88020000D02*
X159350000Y-88020000D01*
X165065000Y-80890000D02*
X163865000Y-80890000D01*
X163865000Y-79130000D02*
X165065000Y-79130000D01*
X176140000Y-101635000D02*
X176140000Y-102835000D01*
X174380000Y-102835000D02*
X174380000Y-101635000D01*
X166970000Y-115815000D02*
X165770000Y-115815000D01*
X165770000Y-114055000D02*
X166970000Y-114055000D01*
X167605000Y-119625000D02*
X166405000Y-119625000D01*
X166405000Y-117865000D02*
X167605000Y-117865000D01*
X161325000Y-106435000D02*
X162525000Y-106435000D01*
X162525000Y-108195000D02*
X161325000Y-108195000D01*
X162525000Y-105655000D02*
X161325000Y-105655000D01*
X161325000Y-103895000D02*
X162525000Y-103895000D01*
D13*
X187090000Y-68690000D02*
X187090000Y-63390000D01*
X167240000Y-68690000D02*
X167240000Y-63390000D01*
X187090000Y-68690000D02*
X167240000Y-68690000D01*
X187090000Y-63390000D02*
X167240000Y-63390000D01*
X168875000Y-76370000D02*
X168925000Y-76370000D01*
X168875000Y-72220000D02*
X169020000Y-72220000D01*
X174025000Y-72220000D02*
X173880000Y-72220000D01*
X174025000Y-76370000D02*
X173880000Y-76370000D01*
X168875000Y-76370000D02*
X168875000Y-72220000D01*
X174025000Y-76370000D02*
X174025000Y-72220000D01*
X168925000Y-76370000D02*
X168925000Y-77770000D01*
D14*
X135550000Y-80380000D02*
X135550000Y-82180000D01*
X138770000Y-82180000D02*
X138770000Y-79730000D01*
X171820000Y-84160000D02*
X173620000Y-84160000D01*
X173620000Y-80940000D02*
X171170000Y-80940000D01*
D13*
X156825000Y-72295000D02*
X161325000Y-72295000D01*
X162075000Y-76045000D02*
X156825000Y-76045000D01*
X161325000Y-72295000D02*
X162075000Y-73045000D01*
X162075000Y-73045000D02*
X162075000Y-76045000D01*
X156825000Y-76045000D02*
X156825000Y-72295000D01*
D14*
X157140000Y-80380000D02*
X157140000Y-82180000D01*
X160360000Y-82180000D02*
X160360000Y-79730000D01*
D10*
X189960000Y-87960000D02*
X187960000Y-87960000D01*
X189960000Y-87960000D02*
X189960000Y-86360000D01*
D13*
X144235000Y-63620000D02*
X144235000Y-60310000D01*
X144235000Y-60310000D02*
X136435000Y-60310000D01*
X136435000Y-60310000D02*
X136435000Y-63620000D01*
X132835000Y-63620000D02*
X132835000Y-69342000D01*
X147835000Y-63620000D02*
X147835000Y-69342000D01*
X132835000Y-63620000D02*
X147835000Y-63620000D01*
X132835000Y-69342000D02*
X147835000Y-69342000D01*
X202720000Y-86830000D02*
X202720000Y-79540000D01*
X199660000Y-79540000D02*
X202720000Y-79540000D01*
X199660000Y-86830000D02*
X202720000Y-86830000D01*
X199660000Y-73935000D02*
X199660000Y-79540000D01*
X199660000Y-92435000D02*
X199660000Y-86830000D01*
X194310000Y-92435000D02*
X199660000Y-92435000D01*
X194310000Y-73935000D02*
X199660000Y-73935000D01*
X194310000Y-83185000D02*
X194310000Y-73935000D01*
X194310000Y-83185000D02*
X194310000Y-92435000D01*
D14*
X139280000Y-92575000D02*
X139280000Y-91575000D01*
X137580000Y-91575000D02*
X137580000Y-92575000D01*
X142025000Y-87130000D02*
X142025000Y-88130000D01*
X143725000Y-88130000D02*
X143725000Y-87130000D01*
X197135000Y-96130000D02*
X195935000Y-96130000D01*
X195935000Y-94370000D02*
X197135000Y-94370000D01*
D13*
X147828095Y-103592381D02*
X148399524Y-103592381D01*
X148113809Y-104592381D02*
X148113809Y-103592381D01*
X149256667Y-104592381D02*
X148685238Y-104592381D01*
X148970952Y-104592381D02*
X148970952Y-103592381D01*
X148875714Y-103735238D01*
X148780476Y-103830476D01*
X148685238Y-103878095D01*
X167558095Y-111347381D02*
X167558095Y-112156905D01*
X167605714Y-112252143D01*
X167653333Y-112299762D01*
X167748571Y-112347381D01*
X167939048Y-112347381D01*
X168034286Y-112299762D01*
X168081905Y-112252143D01*
X168129524Y-112156905D01*
X168129524Y-111347381D01*
X168510476Y-111347381D02*
X169177143Y-111347381D01*
X168748571Y-112347381D01*
X141327143Y-73191666D02*
X141374762Y-73239285D01*
X141422381Y-73382142D01*
X141422381Y-73477380D01*
X141374762Y-73620238D01*
X141279524Y-73715476D01*
X141184286Y-73763095D01*
X140993810Y-73810714D01*
X140850952Y-73810714D01*
X140660476Y-73763095D01*
X140565238Y-73715476D01*
X140470000Y-73620238D01*
X140422381Y-73477380D01*
X140422381Y-73382142D01*
X140470000Y-73239285D01*
X140517619Y-73191666D01*
X141422381Y-72239285D02*
X141422381Y-72810714D01*
X141422381Y-72525000D02*
X140422381Y-72525000D01*
X140565238Y-72620238D01*
X140660476Y-72715476D01*
X140708095Y-72810714D01*
X191603334Y-80597143D02*
X191555715Y-80644762D01*
X191412858Y-80692381D01*
X191317620Y-80692381D01*
X191174762Y-80644762D01*
X191079524Y-80549524D01*
X191031905Y-80454286D01*
X190984286Y-80263810D01*
X190984286Y-80120952D01*
X191031905Y-79930476D01*
X191079524Y-79835238D01*
X191174762Y-79740000D01*
X191317620Y-79692381D01*
X191412858Y-79692381D01*
X191555715Y-79740000D01*
X191603334Y-79787619D01*
X191984286Y-79787619D02*
X192031905Y-79740000D01*
X192127143Y-79692381D01*
X192365239Y-79692381D01*
X192460477Y-79740000D01*
X192508096Y-79787619D01*
X192555715Y-79882857D01*
X192555715Y-79978095D01*
X192508096Y-80120952D01*
X191936667Y-80692381D01*
X192555715Y-80692381D01*
X190333334Y-75057143D02*
X190285715Y-75104762D01*
X190142858Y-75152381D01*
X190047620Y-75152381D01*
X189904762Y-75104762D01*
X189809524Y-75009524D01*
X189761905Y-74914286D01*
X189714286Y-74723810D01*
X189714286Y-74580952D01*
X189761905Y-74390476D01*
X189809524Y-74295238D01*
X189904762Y-74200000D01*
X190047620Y-74152381D01*
X190142858Y-74152381D01*
X190285715Y-74200000D01*
X190333334Y-74247619D01*
X190666667Y-74152381D02*
X191285715Y-74152381D01*
X190952381Y-74533333D01*
X191095239Y-74533333D01*
X191190477Y-74580952D01*
X191238096Y-74628571D01*
X191285715Y-74723810D01*
X191285715Y-74961905D01*
X191238096Y-75057143D01*
X191190477Y-75104762D01*
X191095239Y-75152381D01*
X190809524Y-75152381D01*
X190714286Y-75104762D01*
X190666667Y-75057143D01*
X170132143Y-80811666D02*
X170179762Y-80859285D01*
X170227381Y-81002142D01*
X170227381Y-81097380D01*
X170179762Y-81240238D01*
X170084524Y-81335476D01*
X169989286Y-81383095D01*
X169798810Y-81430714D01*
X169655952Y-81430714D01*
X169465476Y-81383095D01*
X169370238Y-81335476D01*
X169275000Y-81240238D01*
X169227381Y-81097380D01*
X169227381Y-81002142D01*
X169275000Y-80859285D01*
X169322619Y-80811666D01*
X169560714Y-79954523D02*
X170227381Y-79954523D01*
X169179762Y-80192619D02*
X169894048Y-80430714D01*
X169894048Y-79811666D01*
X142597143Y-82081666D02*
X142644762Y-82129285D01*
X142692381Y-82272142D01*
X142692381Y-82367380D01*
X142644762Y-82510238D01*
X142549524Y-82605476D01*
X142454286Y-82653095D01*
X142263810Y-82700714D01*
X142120952Y-82700714D01*
X141930476Y-82653095D01*
X141835238Y-82605476D01*
X141740000Y-82510238D01*
X141692381Y-82367380D01*
X141692381Y-82272142D01*
X141740000Y-82129285D01*
X141787619Y-82081666D01*
X141692381Y-81176904D02*
X141692381Y-81653095D01*
X142168571Y-81700714D01*
X142120952Y-81653095D01*
X142073333Y-81557857D01*
X142073333Y-81319761D01*
X142120952Y-81224523D01*
X142168571Y-81176904D01*
X142263810Y-81129285D01*
X142501905Y-81129285D01*
X142597143Y-81176904D01*
X142644762Y-81224523D01*
X142692381Y-81319761D01*
X142692381Y-81557857D01*
X142644762Y-81653095D01*
X142597143Y-81700714D01*
X138152143Y-90336666D02*
X138199762Y-90384285D01*
X138247381Y-90527142D01*
X138247381Y-90622380D01*
X138199762Y-90765238D01*
X138104524Y-90860476D01*
X138009286Y-90908095D01*
X137818810Y-90955714D01*
X137675952Y-90955714D01*
X137485476Y-90908095D01*
X137390238Y-90860476D01*
X137295000Y-90765238D01*
X137247381Y-90622380D01*
X137247381Y-90527142D01*
X137295000Y-90384285D01*
X137342619Y-90336666D01*
X137247381Y-89479523D02*
X137247381Y-89670000D01*
X137295000Y-89765238D01*
X137342619Y-89812857D01*
X137485476Y-89908095D01*
X137675952Y-89955714D01*
X138056905Y-89955714D01*
X138152143Y-89908095D01*
X138199762Y-89860476D01*
X138247381Y-89765238D01*
X138247381Y-89574761D01*
X138199762Y-89479523D01*
X138152143Y-89431904D01*
X138056905Y-89384285D01*
X137818810Y-89384285D01*
X137723571Y-89431904D01*
X137675952Y-89479523D01*
X137628333Y-89574761D01*
X137628333Y-89765238D01*
X137675952Y-89860476D01*
X137723571Y-89908095D01*
X137818810Y-89955714D01*
X192992143Y-86526666D02*
X193039762Y-86574285D01*
X193087381Y-86717142D01*
X193087381Y-86812380D01*
X193039762Y-86955238D01*
X192944524Y-87050476D01*
X192849286Y-87098095D01*
X192658810Y-87145714D01*
X192515952Y-87145714D01*
X192325476Y-87098095D01*
X192230238Y-87050476D01*
X192135000Y-86955238D01*
X192087381Y-86812380D01*
X192087381Y-86717142D01*
X192135000Y-86574285D01*
X192182619Y-86526666D01*
X192087381Y-86193333D02*
X192087381Y-85526666D01*
X193087381Y-85955238D01*
X187793334Y-88392143D02*
X187745715Y-88439762D01*
X187602858Y-88487381D01*
X187507620Y-88487381D01*
X187364762Y-88439762D01*
X187269524Y-88344524D01*
X187221905Y-88249286D01*
X187174286Y-88058810D01*
X187174286Y-87915952D01*
X187221905Y-87725476D01*
X187269524Y-87630238D01*
X187364762Y-87535000D01*
X187507620Y-87487381D01*
X187602858Y-87487381D01*
X187745715Y-87535000D01*
X187793334Y-87582619D01*
X188364762Y-87915952D02*
X188269524Y-87868333D01*
X188221905Y-87820714D01*
X188174286Y-87725476D01*
X188174286Y-87677857D01*
X188221905Y-87582619D01*
X188269524Y-87535000D01*
X188364762Y-87487381D01*
X188555239Y-87487381D01*
X188650477Y-87535000D01*
X188698096Y-87582619D01*
X188745715Y-87677857D01*
X188745715Y-87725476D01*
X188698096Y-87820714D01*
X188650477Y-87868333D01*
X188555239Y-87915952D01*
X188364762Y-87915952D01*
X188269524Y-87963571D01*
X188221905Y-88011190D01*
X188174286Y-88106429D01*
X188174286Y-88296905D01*
X188221905Y-88392143D01*
X188269524Y-88439762D01*
X188364762Y-88487381D01*
X188555239Y-88487381D01*
X188650477Y-88439762D01*
X188698096Y-88392143D01*
X188745715Y-88296905D01*
X188745715Y-88106429D01*
X188698096Y-88011190D01*
X188650477Y-87963571D01*
X188555239Y-87915952D01*
X196683334Y-73612143D02*
X196635715Y-73659762D01*
X196492858Y-73707381D01*
X196397620Y-73707381D01*
X196254762Y-73659762D01*
X196159524Y-73564524D01*
X196111905Y-73469286D01*
X196064286Y-73278810D01*
X196064286Y-73135952D01*
X196111905Y-72945476D01*
X196159524Y-72850238D01*
X196254762Y-72755000D01*
X196397620Y-72707381D01*
X196492858Y-72707381D01*
X196635715Y-72755000D01*
X196683334Y-72802619D01*
X197159524Y-73707381D02*
X197350000Y-73707381D01*
X197445239Y-73659762D01*
X197492858Y-73612143D01*
X197588096Y-73469286D01*
X197635715Y-73278810D01*
X197635715Y-72897857D01*
X197588096Y-72802619D01*
X197540477Y-72755000D01*
X197445239Y-72707381D01*
X197254762Y-72707381D01*
X197159524Y-72755000D01*
X197111905Y-72802619D01*
X197064286Y-72897857D01*
X197064286Y-73135952D01*
X197111905Y-73231190D01*
X197159524Y-73278810D01*
X197254762Y-73326429D01*
X197445239Y-73326429D01*
X197540477Y-73278810D01*
X197588096Y-73231190D01*
X197635715Y-73135952D01*
X173982143Y-109982143D02*
X173934524Y-110029762D01*
X173791667Y-110077381D01*
X173696429Y-110077381D01*
X173553571Y-110029762D01*
X173458333Y-109934524D01*
X173410714Y-109839286D01*
X173363095Y-109648810D01*
X173363095Y-109505952D01*
X173410714Y-109315476D01*
X173458333Y-109220238D01*
X173553571Y-109125000D01*
X173696429Y-109077381D01*
X173791667Y-109077381D01*
X173934524Y-109125000D01*
X173982143Y-109172619D01*
X174934524Y-110077381D02*
X174363095Y-110077381D01*
X174648809Y-110077381D02*
X174648809Y-109077381D01*
X174553571Y-109220238D01*
X174458333Y-109315476D01*
X174363095Y-109363095D01*
X175553571Y-109077381D02*
X175648810Y-109077381D01*
X175744048Y-109125000D01*
X175791667Y-109172619D01*
X175839286Y-109267857D01*
X175886905Y-109458333D01*
X175886905Y-109696429D01*
X175839286Y-109886905D01*
X175791667Y-109982143D01*
X175744048Y-110029762D01*
X175648810Y-110077381D01*
X175553571Y-110077381D01*
X175458333Y-110029762D01*
X175410714Y-109982143D01*
X175363095Y-109886905D01*
X175315476Y-109696429D01*
X175315476Y-109458333D01*
X175363095Y-109267857D01*
X175410714Y-109172619D01*
X175458333Y-109125000D01*
X175553571Y-109077381D01*
X173982143Y-114427143D02*
X173934524Y-114474762D01*
X173791667Y-114522381D01*
X173696429Y-114522381D01*
X173553571Y-114474762D01*
X173458333Y-114379524D01*
X173410714Y-114284286D01*
X173363095Y-114093810D01*
X173363095Y-113950952D01*
X173410714Y-113760476D01*
X173458333Y-113665238D01*
X173553571Y-113570000D01*
X173696429Y-113522381D01*
X173791667Y-113522381D01*
X173934524Y-113570000D01*
X173982143Y-113617619D01*
X174934524Y-114522381D02*
X174363095Y-114522381D01*
X174648809Y-114522381D02*
X174648809Y-113522381D01*
X174553571Y-113665238D01*
X174458333Y-113760476D01*
X174363095Y-113808095D01*
X175886905Y-114522381D02*
X175315476Y-114522381D01*
X175601190Y-114522381D02*
X175601190Y-113522381D01*
X175505952Y-113665238D01*
X175410714Y-113760476D01*
X175315476Y-113808095D01*
X161282143Y-109347143D02*
X161234524Y-109394762D01*
X161091667Y-109442381D01*
X160996429Y-109442381D01*
X160853571Y-109394762D01*
X160758333Y-109299524D01*
X160710714Y-109204286D01*
X160663095Y-109013810D01*
X160663095Y-108870952D01*
X160710714Y-108680476D01*
X160758333Y-108585238D01*
X160853571Y-108490000D01*
X160996429Y-108442381D01*
X161091667Y-108442381D01*
X161234524Y-108490000D01*
X161282143Y-108537619D01*
X162234524Y-109442381D02*
X161663095Y-109442381D01*
X161948809Y-109442381D02*
X161948809Y-108442381D01*
X161853571Y-108585238D01*
X161758333Y-108680476D01*
X161663095Y-108728095D01*
X162615476Y-108537619D02*
X162663095Y-108490000D01*
X162758333Y-108442381D01*
X162996429Y-108442381D01*
X163091667Y-108490000D01*
X163139286Y-108537619D01*
X163186905Y-108632857D01*
X163186905Y-108728095D01*
X163139286Y-108870952D01*
X162567857Y-109442381D01*
X163186905Y-109442381D01*
X161282143Y-112522143D02*
X161234524Y-112569762D01*
X161091667Y-112617381D01*
X160996429Y-112617381D01*
X160853571Y-112569762D01*
X160758333Y-112474524D01*
X160710714Y-112379286D01*
X160663095Y-112188810D01*
X160663095Y-112045952D01*
X160710714Y-111855476D01*
X160758333Y-111760238D01*
X160853571Y-111665000D01*
X160996429Y-111617381D01*
X161091667Y-111617381D01*
X161234524Y-111665000D01*
X161282143Y-111712619D01*
X162234524Y-112617381D02*
X161663095Y-112617381D01*
X161948809Y-112617381D02*
X161948809Y-111617381D01*
X161853571Y-111760238D01*
X161758333Y-111855476D01*
X161663095Y-111903095D01*
X162567857Y-111617381D02*
X163186905Y-111617381D01*
X162853571Y-111998333D01*
X162996429Y-111998333D01*
X163091667Y-112045952D01*
X163139286Y-112093571D01*
X163186905Y-112188810D01*
X163186905Y-112426905D01*
X163139286Y-112522143D01*
X163091667Y-112569762D01*
X162996429Y-112617381D01*
X162710714Y-112617381D01*
X162615476Y-112569762D01*
X162567857Y-112522143D01*
X131442381Y-78843095D02*
X130442381Y-78843095D01*
X130442381Y-78605000D01*
X130490000Y-78462142D01*
X130585238Y-78366904D01*
X130680476Y-78319285D01*
X130870952Y-78271666D01*
X131013810Y-78271666D01*
X131204286Y-78319285D01*
X131299524Y-78366904D01*
X131394762Y-78462142D01*
X131442381Y-78605000D01*
X131442381Y-78843095D01*
X131442381Y-77319285D02*
X131442381Y-77890714D01*
X131442381Y-77605000D02*
X130442381Y-77605000D01*
X130585238Y-77700238D01*
X130680476Y-77795476D01*
X130728095Y-77890714D01*
X131341905Y-93797381D02*
X131341905Y-92797381D01*
X131580000Y-92797381D01*
X131722858Y-92845000D01*
X131818096Y-92940238D01*
X131865715Y-93035476D01*
X131913334Y-93225952D01*
X131913334Y-93368810D01*
X131865715Y-93559286D01*
X131818096Y-93654524D01*
X131722858Y-93749762D01*
X131580000Y-93797381D01*
X131341905Y-93797381D01*
X132294286Y-92892619D02*
X132341905Y-92845000D01*
X132437143Y-92797381D01*
X132675239Y-92797381D01*
X132770477Y-92845000D01*
X132818096Y-92892619D01*
X132865715Y-92987857D01*
X132865715Y-93083095D01*
X132818096Y-93225952D01*
X132246667Y-93797381D01*
X132865715Y-93797381D01*
X143962381Y-93321095D02*
X142962381Y-93321095D01*
X142962381Y-93083000D01*
X143010000Y-92940142D01*
X143105238Y-92844904D01*
X143200476Y-92797285D01*
X143390952Y-92749666D01*
X143533810Y-92749666D01*
X143724286Y-92797285D01*
X143819524Y-92844904D01*
X143914762Y-92940142D01*
X143962381Y-93083000D01*
X143962381Y-93321095D01*
X142962381Y-92416333D02*
X142962381Y-91797285D01*
X143343333Y-92130619D01*
X143343333Y-91987761D01*
X143390952Y-91892523D01*
X143438571Y-91844904D01*
X143533810Y-91797285D01*
X143771905Y-91797285D01*
X143867143Y-91844904D01*
X143914762Y-91892523D01*
X143962381Y-91987761D01*
X143962381Y-92273476D01*
X143914762Y-92368714D01*
X143867143Y-92416333D01*
X131897381Y-73128095D02*
X130897381Y-73128095D01*
X130897381Y-72890000D01*
X130945000Y-72747142D01*
X131040238Y-72651904D01*
X131135476Y-72604285D01*
X131325952Y-72556666D01*
X131468810Y-72556666D01*
X131659286Y-72604285D01*
X131754524Y-72651904D01*
X131849762Y-72747142D01*
X131897381Y-72890000D01*
X131897381Y-73128095D01*
X131230714Y-71699523D02*
X131897381Y-71699523D01*
X130849762Y-71937619D02*
X131564048Y-72175714D01*
X131564048Y-71556666D01*
X169817381Y-91543095D02*
X168817381Y-91543095D01*
X168817381Y-91305000D01*
X168865000Y-91162142D01*
X168960238Y-91066904D01*
X169055476Y-91019285D01*
X169245952Y-90971666D01*
X169388810Y-90971666D01*
X169579286Y-91019285D01*
X169674524Y-91066904D01*
X169769762Y-91162142D01*
X169817381Y-91305000D01*
X169817381Y-91543095D01*
X168817381Y-90114523D02*
X168817381Y-90305000D01*
X168865000Y-90400238D01*
X168912619Y-90447857D01*
X169055476Y-90543095D01*
X169245952Y-90590714D01*
X169626905Y-90590714D01*
X169722143Y-90543095D01*
X169769762Y-90495476D01*
X169817381Y-90400238D01*
X169817381Y-90209761D01*
X169769762Y-90114523D01*
X169722143Y-90066904D01*
X169626905Y-90019285D01*
X169388810Y-90019285D01*
X169293571Y-90066904D01*
X169245952Y-90114523D01*
X169198333Y-90209761D01*
X169198333Y-90400238D01*
X169245952Y-90495476D01*
X169293571Y-90543095D01*
X169388810Y-90590714D01*
X173627381Y-91543095D02*
X172627381Y-91543095D01*
X172627381Y-91305000D01*
X172675000Y-91162142D01*
X172770238Y-91066904D01*
X172865476Y-91019285D01*
X173055952Y-90971666D01*
X173198810Y-90971666D01*
X173389286Y-91019285D01*
X173484524Y-91066904D01*
X173579762Y-91162142D01*
X173627381Y-91305000D01*
X173627381Y-91543095D01*
X172627381Y-90638333D02*
X172627381Y-89971666D01*
X173627381Y-90400238D01*
X177437381Y-91543095D02*
X176437381Y-91543095D01*
X176437381Y-91305000D01*
X176485000Y-91162142D01*
X176580238Y-91066904D01*
X176675476Y-91019285D01*
X176865952Y-90971666D01*
X177008810Y-90971666D01*
X177199286Y-91019285D01*
X177294524Y-91066904D01*
X177389762Y-91162142D01*
X177437381Y-91305000D01*
X177437381Y-91543095D01*
X176865952Y-90400238D02*
X176818333Y-90495476D01*
X176770714Y-90543095D01*
X176675476Y-90590714D01*
X176627857Y-90590714D01*
X176532619Y-90543095D01*
X176485000Y-90495476D01*
X176437381Y-90400238D01*
X176437381Y-90209761D01*
X176485000Y-90114523D01*
X176532619Y-90066904D01*
X176627857Y-90019285D01*
X176675476Y-90019285D01*
X176770714Y-90066904D01*
X176818333Y-90114523D01*
X176865952Y-90209761D01*
X176865952Y-90400238D01*
X176913571Y-90495476D01*
X176961190Y-90543095D01*
X177056429Y-90590714D01*
X177246905Y-90590714D01*
X177342143Y-90543095D01*
X177389762Y-90495476D01*
X177437381Y-90400238D01*
X177437381Y-90209761D01*
X177389762Y-90114523D01*
X177342143Y-90066904D01*
X177246905Y-90019285D01*
X177056429Y-90019285D01*
X176961190Y-90066904D01*
X176913571Y-90114523D01*
X176865952Y-90209761D01*
X162832381Y-84558095D02*
X161832381Y-84558095D01*
X161832381Y-84320000D01*
X161880000Y-84177142D01*
X161975238Y-84081904D01*
X162070476Y-84034285D01*
X162260952Y-83986666D01*
X162403810Y-83986666D01*
X162594286Y-84034285D01*
X162689524Y-84081904D01*
X162784762Y-84177142D01*
X162832381Y-84320000D01*
X162832381Y-84558095D01*
X162832381Y-83510476D02*
X162832381Y-83320000D01*
X162784762Y-83224761D01*
X162737143Y-83177142D01*
X162594286Y-83081904D01*
X162403810Y-83034285D01*
X162022857Y-83034285D01*
X161927619Y-83081904D01*
X161880000Y-83129523D01*
X161832381Y-83224761D01*
X161832381Y-83415238D01*
X161880000Y-83510476D01*
X161927619Y-83558095D01*
X162022857Y-83605714D01*
X162260952Y-83605714D01*
X162356190Y-83558095D01*
X162403810Y-83510476D01*
X162451429Y-83415238D01*
X162451429Y-83224761D01*
X162403810Y-83129523D01*
X162356190Y-83081904D01*
X162260952Y-83034285D01*
X136798571Y-73358333D02*
X136798571Y-73691667D01*
X137322381Y-73691667D02*
X136322381Y-73691667D01*
X136322381Y-73215476D01*
X137322381Y-72310714D02*
X137322381Y-72882143D01*
X137322381Y-72596429D02*
X136322381Y-72596429D01*
X136465238Y-72691667D01*
X136560476Y-72786905D01*
X136608095Y-72882143D01*
X178231615Y-76742156D02*
X177524508Y-76035049D01*
X178905050Y-75934034D02*
X178905050Y-76001378D01*
X178837707Y-76136065D01*
X178770363Y-76203408D01*
X178635676Y-76270752D01*
X178500989Y-76270752D01*
X178399974Y-76237080D01*
X178231615Y-76136065D01*
X178130599Y-76035049D01*
X178029584Y-75866691D01*
X177995912Y-75765676D01*
X177995912Y-75630989D01*
X178063257Y-75496301D01*
X178130600Y-75428958D01*
X178265287Y-75361614D01*
X178332630Y-75361614D01*
X179645829Y-75327943D02*
X179241767Y-75732004D01*
X179443798Y-75529974D02*
X178736691Y-74822867D01*
X178770363Y-74991226D01*
X178770363Y-75125912D01*
X178736691Y-75226928D01*
X151852381Y-71453333D02*
X152566667Y-71453333D01*
X152709524Y-71500953D01*
X152804762Y-71596191D01*
X152852381Y-71739048D01*
X152852381Y-71834286D01*
X151852381Y-70548571D02*
X151852381Y-70739048D01*
X151900000Y-70834286D01*
X151947619Y-70881905D01*
X152090476Y-70977143D01*
X152280952Y-71024762D01*
X152661905Y-71024762D01*
X152757143Y-70977143D01*
X152804762Y-70929524D01*
X152852381Y-70834286D01*
X152852381Y-70643809D01*
X152804762Y-70548571D01*
X152757143Y-70500952D01*
X152661905Y-70453333D01*
X152423810Y-70453333D01*
X152328571Y-70500952D01*
X152280952Y-70548571D01*
X152233333Y-70643809D01*
X152233333Y-70834286D01*
X152280952Y-70929524D01*
X152328571Y-70977143D01*
X152423810Y-71024762D01*
X134901667Y-107547381D02*
X134901667Y-108261667D01*
X134854047Y-108404524D01*
X134758809Y-108499762D01*
X134615952Y-108547381D01*
X134520714Y-108547381D01*
X135282619Y-107547381D02*
X135949286Y-107547381D01*
X135520714Y-108547381D01*
X152931905Y-93797381D02*
X152931905Y-92797381D01*
X153503334Y-93797381D02*
X153074762Y-93225952D01*
X153503334Y-92797381D02*
X152931905Y-93368810D01*
X154455715Y-93797381D02*
X153884286Y-93797381D01*
X154170000Y-93797381D02*
X154170000Y-92797381D01*
X154074762Y-92940238D01*
X153979524Y-93035476D01*
X153884286Y-93083095D01*
X125547381Y-85256666D02*
X125547381Y-85732857D01*
X124547381Y-85732857D01*
X125547381Y-84399523D02*
X125547381Y-84970952D01*
X125547381Y-84685238D02*
X124547381Y-84685238D01*
X124690238Y-84780476D01*
X124785476Y-84875714D01*
X124833095Y-84970952D01*
X190904905Y-63317381D02*
X190904905Y-62317381D01*
X191285858Y-62317381D01*
X191381096Y-62365000D01*
X191428715Y-62412619D01*
X191476334Y-62507857D01*
X191476334Y-62650714D01*
X191428715Y-62745952D01*
X191381096Y-62793571D01*
X191285858Y-62841190D01*
X190904905Y-62841190D01*
X192428715Y-63317381D02*
X191857286Y-63317381D01*
X192143000Y-63317381D02*
X192143000Y-62317381D01*
X192047762Y-62460238D01*
X191952524Y-62555476D01*
X191857286Y-62603095D01*
X149129762Y-97662619D02*
X149034524Y-97615000D01*
X148939286Y-97519762D01*
X148796429Y-97376905D01*
X148701190Y-97329286D01*
X148605952Y-97329286D01*
X148653571Y-97567381D02*
X148558333Y-97519762D01*
X148463095Y-97424524D01*
X148415476Y-97234048D01*
X148415476Y-96900714D01*
X148463095Y-96710238D01*
X148558333Y-96615000D01*
X148653571Y-96567381D01*
X148844048Y-96567381D01*
X148939286Y-96615000D01*
X149034524Y-96710238D01*
X149082143Y-96900714D01*
X149082143Y-97234048D01*
X149034524Y-97424524D01*
X148939286Y-97519762D01*
X148844048Y-97567381D01*
X148653571Y-97567381D01*
X150034524Y-97567381D02*
X149463095Y-97567381D01*
X149748809Y-97567381D02*
X149748809Y-96567381D01*
X149653571Y-96710238D01*
X149558333Y-96805476D01*
X149463095Y-96853095D01*
X133818334Y-78937381D02*
X133485000Y-78461190D01*
X133246905Y-78937381D02*
X133246905Y-77937381D01*
X133627858Y-77937381D01*
X133723096Y-77985000D01*
X133770715Y-78032619D01*
X133818334Y-78127857D01*
X133818334Y-78270714D01*
X133770715Y-78365952D01*
X133723096Y-78413571D01*
X133627858Y-78461190D01*
X133246905Y-78461190D01*
X134770715Y-78937381D02*
X134199286Y-78937381D01*
X134485000Y-78937381D02*
X134485000Y-77937381D01*
X134389762Y-78080238D01*
X134294524Y-78175476D01*
X134199286Y-78223095D01*
X185253334Y-72587381D02*
X184920000Y-72111190D01*
X184681905Y-72587381D02*
X184681905Y-71587381D01*
X185062858Y-71587381D01*
X185158096Y-71635000D01*
X185205715Y-71682619D01*
X185253334Y-71777857D01*
X185253334Y-71920714D01*
X185205715Y-72015952D01*
X185158096Y-72063571D01*
X185062858Y-72111190D01*
X184681905Y-72111190D01*
X185634286Y-71682619D02*
X185681905Y-71635000D01*
X185777143Y-71587381D01*
X186015239Y-71587381D01*
X186110477Y-71635000D01*
X186158096Y-71682619D01*
X186205715Y-71777857D01*
X186205715Y-71873095D01*
X186158096Y-72015952D01*
X185586667Y-72587381D01*
X186205715Y-72587381D01*
X181443334Y-72587381D02*
X181110000Y-72111190D01*
X180871905Y-72587381D02*
X180871905Y-71587381D01*
X181252858Y-71587381D01*
X181348096Y-71635000D01*
X181395715Y-71682619D01*
X181443334Y-71777857D01*
X181443334Y-71920714D01*
X181395715Y-72015952D01*
X181348096Y-72063571D01*
X181252858Y-72111190D01*
X180871905Y-72111190D01*
X181776667Y-71587381D02*
X182395715Y-71587381D01*
X182062381Y-71968333D01*
X182205239Y-71968333D01*
X182300477Y-72015952D01*
X182348096Y-72063571D01*
X182395715Y-72158810D01*
X182395715Y-72396905D01*
X182348096Y-72492143D01*
X182300477Y-72539762D01*
X182205239Y-72587381D01*
X181919524Y-72587381D01*
X181824286Y-72539762D01*
X181776667Y-72492143D01*
X140803334Y-77542381D02*
X140470000Y-77066190D01*
X140231905Y-77542381D02*
X140231905Y-76542381D01*
X140612858Y-76542381D01*
X140708096Y-76590000D01*
X140755715Y-76637619D01*
X140803334Y-76732857D01*
X140803334Y-76875714D01*
X140755715Y-76970952D01*
X140708096Y-77018571D01*
X140612858Y-77066190D01*
X140231905Y-77066190D01*
X141660477Y-76875714D02*
X141660477Y-77542381D01*
X141422381Y-76494762D02*
X141184286Y-77209048D01*
X141803334Y-77209048D01*
X190333334Y-75762381D02*
X190000000Y-75286190D01*
X189761905Y-75762381D02*
X189761905Y-74762381D01*
X190142858Y-74762381D01*
X190238096Y-74810000D01*
X190285715Y-74857619D01*
X190333334Y-74952857D01*
X190333334Y-75095714D01*
X190285715Y-75190952D01*
X190238096Y-75238571D01*
X190142858Y-75286190D01*
X189761905Y-75286190D01*
X191238096Y-74762381D02*
X190761905Y-74762381D01*
X190714286Y-75238571D01*
X190761905Y-75190952D01*
X190857143Y-75143333D01*
X191095239Y-75143333D01*
X191190477Y-75190952D01*
X191238096Y-75238571D01*
X191285715Y-75333810D01*
X191285715Y-75571905D01*
X191238096Y-75667143D01*
X191190477Y-75714762D01*
X191095239Y-75762381D01*
X190857143Y-75762381D01*
X190761905Y-75714762D01*
X190714286Y-75667143D01*
X141167381Y-87161666D02*
X140691190Y-87495000D01*
X141167381Y-87733095D02*
X140167381Y-87733095D01*
X140167381Y-87352142D01*
X140215000Y-87256904D01*
X140262619Y-87209285D01*
X140357857Y-87161666D01*
X140500714Y-87161666D01*
X140595952Y-87209285D01*
X140643571Y-87256904D01*
X140691190Y-87352142D01*
X140691190Y-87733095D01*
X140167381Y-86304523D02*
X140167381Y-86495000D01*
X140215000Y-86590238D01*
X140262619Y-86637857D01*
X140405476Y-86733095D01*
X140595952Y-86780714D01*
X140976905Y-86780714D01*
X141072143Y-86733095D01*
X141119762Y-86685476D01*
X141167381Y-86590238D01*
X141167381Y-86399761D01*
X141119762Y-86304523D01*
X141072143Y-86256904D01*
X140976905Y-86209285D01*
X140738810Y-86209285D01*
X140643571Y-86256904D01*
X140595952Y-86304523D01*
X140548333Y-86399761D01*
X140548333Y-86590238D01*
X140595952Y-86685476D01*
X140643571Y-86733095D01*
X140738810Y-86780714D01*
X137992381Y-85891666D02*
X137516190Y-86225000D01*
X137992381Y-86463095D02*
X136992381Y-86463095D01*
X136992381Y-86082142D01*
X137040000Y-85986904D01*
X137087619Y-85939285D01*
X137182857Y-85891666D01*
X137325714Y-85891666D01*
X137420952Y-85939285D01*
X137468571Y-85986904D01*
X137516190Y-86082142D01*
X137516190Y-86463095D01*
X136992381Y-85558333D02*
X136992381Y-84891666D01*
X137992381Y-85320238D01*
X127468334Y-93797381D02*
X127135000Y-93321190D01*
X126896905Y-93797381D02*
X126896905Y-92797381D01*
X127277858Y-92797381D01*
X127373096Y-92845000D01*
X127420715Y-92892619D01*
X127468334Y-92987857D01*
X127468334Y-93130714D01*
X127420715Y-93225952D01*
X127373096Y-93273571D01*
X127277858Y-93321190D01*
X126896905Y-93321190D01*
X127944524Y-93797381D02*
X128135000Y-93797381D01*
X128230239Y-93749762D01*
X128277858Y-93702143D01*
X128373096Y-93559286D01*
X128420715Y-93368810D01*
X128420715Y-92987857D01*
X128373096Y-92892619D01*
X128325477Y-92845000D01*
X128230239Y-92797381D01*
X128039762Y-92797381D01*
X127944524Y-92845000D01*
X127896905Y-92892619D01*
X127849286Y-92987857D01*
X127849286Y-93225952D01*
X127896905Y-93321190D01*
X127944524Y-93368810D01*
X128039762Y-93416429D01*
X128230239Y-93416429D01*
X128325477Y-93368810D01*
X128373096Y-93321190D01*
X128420715Y-93225952D01*
X177157143Y-71242381D02*
X176823809Y-70766190D01*
X176585714Y-71242381D02*
X176585714Y-70242381D01*
X176966667Y-70242381D01*
X177061905Y-70290000D01*
X177109524Y-70337619D01*
X177157143Y-70432857D01*
X177157143Y-70575714D01*
X177109524Y-70670952D01*
X177061905Y-70718571D01*
X176966667Y-70766190D01*
X176585714Y-70766190D01*
X178109524Y-71242381D02*
X177538095Y-71242381D01*
X177823809Y-71242381D02*
X177823809Y-70242381D01*
X177728571Y-70385238D01*
X177633333Y-70480476D01*
X177538095Y-70528095D01*
X178728571Y-70242381D02*
X178823810Y-70242381D01*
X178919048Y-70290000D01*
X178966667Y-70337619D01*
X179014286Y-70432857D01*
X179061905Y-70623333D01*
X179061905Y-70861429D01*
X179014286Y-71051905D01*
X178966667Y-71147143D01*
X178919048Y-71194762D01*
X178823810Y-71242381D01*
X178728571Y-71242381D01*
X178633333Y-71194762D01*
X178585714Y-71147143D01*
X178538095Y-71051905D01*
X178490476Y-70861429D01*
X178490476Y-70623333D01*
X178538095Y-70432857D01*
X178585714Y-70337619D01*
X178633333Y-70290000D01*
X178728571Y-70242381D01*
X172917381Y-96527857D02*
X172441190Y-96861191D01*
X172917381Y-97099286D02*
X171917381Y-97099286D01*
X171917381Y-96718333D01*
X171965000Y-96623095D01*
X172012619Y-96575476D01*
X172107857Y-96527857D01*
X172250714Y-96527857D01*
X172345952Y-96575476D01*
X172393571Y-96623095D01*
X172441190Y-96718333D01*
X172441190Y-97099286D01*
X172917381Y-95575476D02*
X172917381Y-96146905D01*
X172917381Y-95861191D02*
X171917381Y-95861191D01*
X172060238Y-95956429D01*
X172155476Y-96051667D01*
X172203095Y-96146905D01*
X171917381Y-94670714D02*
X171917381Y-95146905D01*
X172393571Y-95194524D01*
X172345952Y-95146905D01*
X172298333Y-95051667D01*
X172298333Y-94813571D01*
X172345952Y-94718333D01*
X172393571Y-94670714D01*
X172488810Y-94623095D01*
X172726905Y-94623095D01*
X172822143Y-94670714D01*
X172869762Y-94718333D01*
X172917381Y-94813571D01*
X172917381Y-95051667D01*
X172869762Y-95146905D01*
X172822143Y-95194524D01*
X176727381Y-96527857D02*
X176251190Y-96861191D01*
X176727381Y-97099286D02*
X175727381Y-97099286D01*
X175727381Y-96718333D01*
X175775000Y-96623095D01*
X175822619Y-96575476D01*
X175917857Y-96527857D01*
X176060714Y-96527857D01*
X176155952Y-96575476D01*
X176203571Y-96623095D01*
X176251190Y-96718333D01*
X176251190Y-97099286D01*
X176727381Y-95575476D02*
X176727381Y-96146905D01*
X176727381Y-95861191D02*
X175727381Y-95861191D01*
X175870238Y-95956429D01*
X175965476Y-96051667D01*
X176013095Y-96146905D01*
X176155952Y-95004048D02*
X176108333Y-95099286D01*
X176060714Y-95146905D01*
X175965476Y-95194524D01*
X175917857Y-95194524D01*
X175822619Y-95146905D01*
X175775000Y-95099286D01*
X175727381Y-95004048D01*
X175727381Y-94813571D01*
X175775000Y-94718333D01*
X175822619Y-94670714D01*
X175917857Y-94623095D01*
X175965476Y-94623095D01*
X176060714Y-94670714D01*
X176108333Y-94718333D01*
X176155952Y-94813571D01*
X176155952Y-95004048D01*
X176203571Y-95099286D01*
X176251190Y-95146905D01*
X176346429Y-95194524D01*
X176536905Y-95194524D01*
X176632143Y-95146905D01*
X176679762Y-95099286D01*
X176727381Y-95004048D01*
X176727381Y-94813571D01*
X176679762Y-94718333D01*
X176632143Y-94670714D01*
X176536905Y-94623095D01*
X176346429Y-94623095D01*
X176251190Y-94670714D01*
X176203571Y-94718333D01*
X176155952Y-94813571D01*
X180537381Y-96527857D02*
X180061190Y-96861191D01*
X180537381Y-97099286D02*
X179537381Y-97099286D01*
X179537381Y-96718333D01*
X179585000Y-96623095D01*
X179632619Y-96575476D01*
X179727857Y-96527857D01*
X179870714Y-96527857D01*
X179965952Y-96575476D01*
X180013571Y-96623095D01*
X180061190Y-96718333D01*
X180061190Y-97099286D01*
X180537381Y-95575476D02*
X180537381Y-96146905D01*
X180537381Y-95861191D02*
X179537381Y-95861191D01*
X179680238Y-95956429D01*
X179775476Y-96051667D01*
X179823095Y-96146905D01*
X180537381Y-95099286D02*
X180537381Y-94908810D01*
X180489762Y-94813571D01*
X180442143Y-94765952D01*
X180299286Y-94670714D01*
X180108810Y-94623095D01*
X179727857Y-94623095D01*
X179632619Y-94670714D01*
X179585000Y-94718333D01*
X179537381Y-94813571D01*
X179537381Y-95004048D01*
X179585000Y-95099286D01*
X179632619Y-95146905D01*
X179727857Y-95194524D01*
X179965952Y-95194524D01*
X180061190Y-95146905D01*
X180108810Y-95099286D01*
X180156429Y-95004048D01*
X180156429Y-94813571D01*
X180108810Y-94718333D01*
X180061190Y-94670714D01*
X179965952Y-94623095D01*
X167202381Y-74937857D02*
X166726190Y-75271191D01*
X167202381Y-75509286D02*
X166202381Y-75509286D01*
X166202381Y-75128333D01*
X166250000Y-75033095D01*
X166297619Y-74985476D01*
X166392857Y-74937857D01*
X166535714Y-74937857D01*
X166630952Y-74985476D01*
X166678571Y-75033095D01*
X166726190Y-75128333D01*
X166726190Y-75509286D01*
X166297619Y-74556905D02*
X166250000Y-74509286D01*
X166202381Y-74414048D01*
X166202381Y-74175952D01*
X166250000Y-74080714D01*
X166297619Y-74033095D01*
X166392857Y-73985476D01*
X166488095Y-73985476D01*
X166630952Y-74033095D01*
X167202381Y-74604524D01*
X167202381Y-73985476D01*
X166202381Y-73366429D02*
X166202381Y-73271190D01*
X166250000Y-73175952D01*
X166297619Y-73128333D01*
X166392857Y-73080714D01*
X166583333Y-73033095D01*
X166821429Y-73033095D01*
X167011905Y-73080714D01*
X167107143Y-73128333D01*
X167154762Y-73175952D01*
X167202381Y-73271190D01*
X167202381Y-73366429D01*
X167154762Y-73461667D01*
X167107143Y-73509286D01*
X167011905Y-73556905D01*
X166821429Y-73604524D01*
X166583333Y-73604524D01*
X166392857Y-73556905D01*
X166297619Y-73509286D01*
X166250000Y-73461667D01*
X166202381Y-73366429D01*
X158107143Y-87192381D02*
X157773809Y-86716190D01*
X157535714Y-87192381D02*
X157535714Y-86192381D01*
X157916667Y-86192381D01*
X158011905Y-86240000D01*
X158059524Y-86287619D01*
X158107143Y-86382857D01*
X158107143Y-86525714D01*
X158059524Y-86620952D01*
X158011905Y-86668571D01*
X157916667Y-86716190D01*
X157535714Y-86716190D01*
X158488095Y-86287619D02*
X158535714Y-86240000D01*
X158630952Y-86192381D01*
X158869048Y-86192381D01*
X158964286Y-86240000D01*
X159011905Y-86287619D01*
X159059524Y-86382857D01*
X159059524Y-86478095D01*
X159011905Y-86620952D01*
X158440476Y-87192381D01*
X159059524Y-87192381D01*
X160011905Y-87192381D02*
X159440476Y-87192381D01*
X159726190Y-87192381D02*
X159726190Y-86192381D01*
X159630952Y-86335238D01*
X159535714Y-86430476D01*
X159440476Y-86478095D01*
X158107143Y-91257381D02*
X157773809Y-90781190D01*
X157535714Y-91257381D02*
X157535714Y-90257381D01*
X157916667Y-90257381D01*
X158011905Y-90305000D01*
X158059524Y-90352619D01*
X158107143Y-90447857D01*
X158107143Y-90590714D01*
X158059524Y-90685952D01*
X158011905Y-90733571D01*
X157916667Y-90781190D01*
X157535714Y-90781190D01*
X158488095Y-90352619D02*
X158535714Y-90305000D01*
X158630952Y-90257381D01*
X158869048Y-90257381D01*
X158964286Y-90305000D01*
X159011905Y-90352619D01*
X159059524Y-90447857D01*
X159059524Y-90543095D01*
X159011905Y-90685952D01*
X158440476Y-91257381D01*
X159059524Y-91257381D01*
X159440476Y-90352619D02*
X159488095Y-90305000D01*
X159583333Y-90257381D01*
X159821429Y-90257381D01*
X159916667Y-90305000D01*
X159964286Y-90352619D01*
X160011905Y-90447857D01*
X160011905Y-90543095D01*
X159964286Y-90685952D01*
X159392857Y-91257381D01*
X160011905Y-91257381D01*
X163822143Y-78812381D02*
X163488809Y-78336190D01*
X163250714Y-78812381D02*
X163250714Y-77812381D01*
X163631667Y-77812381D01*
X163726905Y-77860000D01*
X163774524Y-77907619D01*
X163822143Y-78002857D01*
X163822143Y-78145714D01*
X163774524Y-78240952D01*
X163726905Y-78288571D01*
X163631667Y-78336190D01*
X163250714Y-78336190D01*
X164203095Y-77907619D02*
X164250714Y-77860000D01*
X164345952Y-77812381D01*
X164584048Y-77812381D01*
X164679286Y-77860000D01*
X164726905Y-77907619D01*
X164774524Y-78002857D01*
X164774524Y-78098095D01*
X164726905Y-78240952D01*
X164155476Y-78812381D01*
X164774524Y-78812381D01*
X165107857Y-77812381D02*
X165726905Y-77812381D01*
X165393571Y-78193333D01*
X165536429Y-78193333D01*
X165631667Y-78240952D01*
X165679286Y-78288571D01*
X165726905Y-78383810D01*
X165726905Y-78621905D01*
X165679286Y-78717143D01*
X165631667Y-78764762D01*
X165536429Y-78812381D01*
X165250714Y-78812381D01*
X165155476Y-78764762D01*
X165107857Y-78717143D01*
X174062381Y-102877857D02*
X173586190Y-103211191D01*
X174062381Y-103449286D02*
X173062381Y-103449286D01*
X173062381Y-103068333D01*
X173110000Y-102973095D01*
X173157619Y-102925476D01*
X173252857Y-102877857D01*
X173395714Y-102877857D01*
X173490952Y-102925476D01*
X173538571Y-102973095D01*
X173586190Y-103068333D01*
X173586190Y-103449286D01*
X173157619Y-102496905D02*
X173110000Y-102449286D01*
X173062381Y-102354048D01*
X173062381Y-102115952D01*
X173110000Y-102020714D01*
X173157619Y-101973095D01*
X173252857Y-101925476D01*
X173348095Y-101925476D01*
X173490952Y-101973095D01*
X174062381Y-102544524D01*
X174062381Y-101925476D01*
X173395714Y-101068333D02*
X174062381Y-101068333D01*
X173014762Y-101306429D02*
X173729048Y-101544524D01*
X173729048Y-100925476D01*
X165727143Y-113737381D02*
X165393809Y-113261190D01*
X165155714Y-113737381D02*
X165155714Y-112737381D01*
X165536667Y-112737381D01*
X165631905Y-112785000D01*
X165679524Y-112832619D01*
X165727143Y-112927857D01*
X165727143Y-113070714D01*
X165679524Y-113165952D01*
X165631905Y-113213571D01*
X165536667Y-113261190D01*
X165155714Y-113261190D01*
X166108095Y-112832619D02*
X166155714Y-112785000D01*
X166250952Y-112737381D01*
X166489048Y-112737381D01*
X166584286Y-112785000D01*
X166631905Y-112832619D01*
X166679524Y-112927857D01*
X166679524Y-113023095D01*
X166631905Y-113165952D01*
X166060476Y-113737381D01*
X166679524Y-113737381D01*
X167584286Y-112737381D02*
X167108095Y-112737381D01*
X167060476Y-113213571D01*
X167108095Y-113165952D01*
X167203333Y-113118333D01*
X167441429Y-113118333D01*
X167536667Y-113165952D01*
X167584286Y-113213571D01*
X167631905Y-113308810D01*
X167631905Y-113546905D01*
X167584286Y-113642143D01*
X167536667Y-113689762D01*
X167441429Y-113737381D01*
X167203333Y-113737381D01*
X167108095Y-113689762D01*
X167060476Y-113642143D01*
X166362143Y-117547381D02*
X166028809Y-117071190D01*
X165790714Y-117547381D02*
X165790714Y-116547381D01*
X166171667Y-116547381D01*
X166266905Y-116595000D01*
X166314524Y-116642619D01*
X166362143Y-116737857D01*
X166362143Y-116880714D01*
X166314524Y-116975952D01*
X166266905Y-117023571D01*
X166171667Y-117071190D01*
X165790714Y-117071190D01*
X166743095Y-116642619D02*
X166790714Y-116595000D01*
X166885952Y-116547381D01*
X167124048Y-116547381D01*
X167219286Y-116595000D01*
X167266905Y-116642619D01*
X167314524Y-116737857D01*
X167314524Y-116833095D01*
X167266905Y-116975952D01*
X166695476Y-117547381D01*
X167314524Y-117547381D01*
X168171667Y-116547381D02*
X167981190Y-116547381D01*
X167885952Y-116595000D01*
X167838333Y-116642619D01*
X167743095Y-116785476D01*
X167695476Y-116975952D01*
X167695476Y-117356905D01*
X167743095Y-117452143D01*
X167790714Y-117499762D01*
X167885952Y-117547381D01*
X168076429Y-117547381D01*
X168171667Y-117499762D01*
X168219286Y-117452143D01*
X168266905Y-117356905D01*
X168266905Y-117118810D01*
X168219286Y-117023571D01*
X168171667Y-116975952D01*
X168076429Y-116928333D01*
X167885952Y-116928333D01*
X167790714Y-116975952D01*
X167743095Y-117023571D01*
X167695476Y-117118810D01*
X161282143Y-109417381D02*
X160948809Y-108941190D01*
X160710714Y-109417381D02*
X160710714Y-108417381D01*
X161091667Y-108417381D01*
X161186905Y-108465000D01*
X161234524Y-108512619D01*
X161282143Y-108607857D01*
X161282143Y-108750714D01*
X161234524Y-108845952D01*
X161186905Y-108893571D01*
X161091667Y-108941190D01*
X160710714Y-108941190D01*
X161663095Y-108512619D02*
X161710714Y-108465000D01*
X161805952Y-108417381D01*
X162044048Y-108417381D01*
X162139286Y-108465000D01*
X162186905Y-108512619D01*
X162234524Y-108607857D01*
X162234524Y-108703095D01*
X162186905Y-108845952D01*
X161615476Y-109417381D01*
X162234524Y-109417381D01*
X162567857Y-108417381D02*
X163234524Y-108417381D01*
X162805952Y-109417381D01*
X161282143Y-103577381D02*
X160948809Y-103101190D01*
X160710714Y-103577381D02*
X160710714Y-102577381D01*
X161091667Y-102577381D01*
X161186905Y-102625000D01*
X161234524Y-102672619D01*
X161282143Y-102767857D01*
X161282143Y-102910714D01*
X161234524Y-103005952D01*
X161186905Y-103053571D01*
X161091667Y-103101190D01*
X160710714Y-103101190D01*
X161663095Y-102672619D02*
X161710714Y-102625000D01*
X161805952Y-102577381D01*
X162044048Y-102577381D01*
X162139286Y-102625000D01*
X162186905Y-102672619D01*
X162234524Y-102767857D01*
X162234524Y-102863095D01*
X162186905Y-103005952D01*
X161615476Y-103577381D01*
X162234524Y-103577381D01*
X162805952Y-103005952D02*
X162710714Y-102958333D01*
X162663095Y-102910714D01*
X162615476Y-102815476D01*
X162615476Y-102767857D01*
X162663095Y-102672619D01*
X162710714Y-102625000D01*
X162805952Y-102577381D01*
X162996429Y-102577381D01*
X163091667Y-102625000D01*
X163139286Y-102672619D01*
X163186905Y-102767857D01*
X163186905Y-102815476D01*
X163139286Y-102910714D01*
X163091667Y-102958333D01*
X162996429Y-103005952D01*
X162805952Y-103005952D01*
X162710714Y-103053571D01*
X162663095Y-103101190D01*
X162615476Y-103196429D01*
X162615476Y-103386905D01*
X162663095Y-103482143D01*
X162710714Y-103529762D01*
X162805952Y-103577381D01*
X162996429Y-103577381D01*
X163091667Y-103529762D01*
X163139286Y-103482143D01*
X163186905Y-103386905D01*
X163186905Y-103196429D01*
X163139286Y-103101190D01*
X163091667Y-103053571D01*
X162996429Y-103005952D01*
X179792381Y-62991905D02*
X180601905Y-62991905D01*
X180697143Y-62944286D01*
X180744762Y-62896667D01*
X180792381Y-62801429D01*
X180792381Y-62610952D01*
X180744762Y-62515714D01*
X180697143Y-62468095D01*
X180601905Y-62420476D01*
X179792381Y-62420476D01*
X180792381Y-61420476D02*
X180792381Y-61991905D01*
X180792381Y-61706191D02*
X179792381Y-61706191D01*
X179935238Y-61801429D01*
X180030476Y-61896667D01*
X180078095Y-61991905D01*
X188412381Y-64960476D02*
X188412381Y-65531905D01*
X188412381Y-65246191D02*
X187412381Y-65246191D01*
X187555238Y-65341429D01*
X187650476Y-65436667D01*
X187698095Y-65531905D01*
X187507619Y-64579524D02*
X187460000Y-64531905D01*
X187412381Y-64436667D01*
X187412381Y-64198571D01*
X187460000Y-64103333D01*
X187507619Y-64055714D01*
X187602857Y-64008095D01*
X187698095Y-64008095D01*
X187840952Y-64055714D01*
X188412381Y-64627143D01*
X188412381Y-64008095D01*
X166822381Y-67024285D02*
X166822381Y-67595714D01*
X166822381Y-67310000D02*
X165822381Y-67310000D01*
X165965238Y-67405238D01*
X166060476Y-67500476D01*
X166108095Y-67595714D01*
X167402381Y-75056905D02*
X168211905Y-75056905D01*
X168307143Y-75009286D01*
X168354762Y-74961667D01*
X168402381Y-74866429D01*
X168402381Y-74675952D01*
X168354762Y-74580714D01*
X168307143Y-74533095D01*
X168211905Y-74485476D01*
X167402381Y-74485476D01*
X167497619Y-74056905D02*
X167450000Y-74009286D01*
X167402381Y-73914048D01*
X167402381Y-73675952D01*
X167450000Y-73580714D01*
X167497619Y-73533095D01*
X167592857Y-73485476D01*
X167688095Y-73485476D01*
X167830952Y-73533095D01*
X168402381Y-74104524D01*
X168402381Y-73485476D01*
X137668095Y-83272381D02*
X137668095Y-84081905D01*
X137715714Y-84177143D01*
X137763333Y-84224762D01*
X137858571Y-84272381D01*
X138049048Y-84272381D01*
X138144286Y-84224762D01*
X138191905Y-84177143D01*
X138239524Y-84081905D01*
X138239524Y-83272381D01*
X138620476Y-83272381D02*
X139239524Y-83272381D01*
X138906190Y-83653333D01*
X139049048Y-83653333D01*
X139144286Y-83700952D01*
X139191905Y-83748571D01*
X139239524Y-83843810D01*
X139239524Y-84081905D01*
X139191905Y-84177143D01*
X139144286Y-84224762D01*
X139049048Y-84272381D01*
X138763333Y-84272381D01*
X138668095Y-84224762D01*
X138620476Y-84177143D01*
X171958095Y-79102381D02*
X171958095Y-79911905D01*
X172005714Y-80007143D01*
X172053333Y-80054762D01*
X172148571Y-80102381D01*
X172339048Y-80102381D01*
X172434286Y-80054762D01*
X172481905Y-80007143D01*
X172529524Y-79911905D01*
X172529524Y-79102381D01*
X173434286Y-79435714D02*
X173434286Y-80102381D01*
X173196190Y-79054762D02*
X172958095Y-79769048D01*
X173577143Y-79769048D01*
X162527381Y-73306905D02*
X163336905Y-73306905D01*
X163432143Y-73259286D01*
X163479762Y-73211667D01*
X163527381Y-73116429D01*
X163527381Y-72925952D01*
X163479762Y-72830714D01*
X163432143Y-72783095D01*
X163336905Y-72735476D01*
X162527381Y-72735476D01*
X162527381Y-71783095D02*
X162527381Y-72259286D01*
X163003571Y-72306905D01*
X162955952Y-72259286D01*
X162908333Y-72164048D01*
X162908333Y-71925952D01*
X162955952Y-71830714D01*
X163003571Y-71783095D01*
X163098810Y-71735476D01*
X163336905Y-71735476D01*
X163432143Y-71783095D01*
X163479762Y-71830714D01*
X163527381Y-71925952D01*
X163527381Y-72164048D01*
X163479762Y-72259286D01*
X163432143Y-72306905D01*
X161102381Y-82041905D02*
X161911905Y-82041905D01*
X162007143Y-81994286D01*
X162054762Y-81946667D01*
X162102381Y-81851429D01*
X162102381Y-81660952D01*
X162054762Y-81565714D01*
X162007143Y-81518095D01*
X161911905Y-81470476D01*
X161102381Y-81470476D01*
X161102381Y-80565714D02*
X161102381Y-80756191D01*
X161150000Y-80851429D01*
X161197619Y-80899048D01*
X161340476Y-80994286D01*
X161530952Y-81041905D01*
X161911905Y-81041905D01*
X162007143Y-80994286D01*
X162054762Y-80946667D01*
X162102381Y-80851429D01*
X162102381Y-80660952D01*
X162054762Y-80565714D01*
X162007143Y-80518095D01*
X161911905Y-80470476D01*
X161673810Y-80470476D01*
X161578571Y-80518095D01*
X161530952Y-80565714D01*
X161483333Y-80660952D01*
X161483333Y-80851429D01*
X161530952Y-80946667D01*
X161578571Y-80994286D01*
X161673810Y-81041905D01*
X188118809Y-83796190D02*
X188118809Y-84272381D01*
X187785476Y-83272381D02*
X188118809Y-83796190D01*
X188452143Y-83272381D01*
X189309286Y-84272381D02*
X188737857Y-84272381D01*
X189023571Y-84272381D02*
X189023571Y-83272381D01*
X188928333Y-83415238D01*
X188833095Y-83510476D01*
X188737857Y-83558095D01*
X130897381Y-68913333D02*
X131611667Y-68913333D01*
X131754524Y-68960953D01*
X131849762Y-69056191D01*
X131897381Y-69199048D01*
X131897381Y-69294286D01*
X131230714Y-68008571D02*
X131897381Y-68008571D01*
X130849762Y-68246667D02*
X131564048Y-68484762D01*
X131564048Y-67865714D01*
X203262381Y-82268333D02*
X203976667Y-82268333D01*
X204119524Y-82315953D01*
X204214762Y-82411191D01*
X204262381Y-82554048D01*
X204262381Y-82649286D01*
X203690952Y-81649286D02*
X203643333Y-81744524D01*
X203595714Y-81792143D01*
X203500476Y-81839762D01*
X203452857Y-81839762D01*
X203357619Y-81792143D01*
X203310000Y-81744524D01*
X203262381Y-81649286D01*
X203262381Y-81458809D01*
X203310000Y-81363571D01*
X203357619Y-81315952D01*
X203452857Y-81268333D01*
X203500476Y-81268333D01*
X203595714Y-81315952D01*
X203643333Y-81363571D01*
X203690952Y-81458809D01*
X203690952Y-81649286D01*
X203738571Y-81744524D01*
X203786190Y-81792143D01*
X203881429Y-81839762D01*
X204071905Y-81839762D01*
X204167143Y-81792143D01*
X204214762Y-81744524D01*
X204262381Y-81649286D01*
X204262381Y-81458809D01*
X204214762Y-81363571D01*
X204167143Y-81315952D01*
X204071905Y-81268333D01*
X203881429Y-81268333D01*
X203786190Y-81315952D01*
X203738571Y-81363571D01*
X203690952Y-81458809D01*
X140287143Y-92717857D02*
X140334762Y-92765476D01*
X140382381Y-92908333D01*
X140382381Y-93003571D01*
X140334762Y-93146429D01*
X140239524Y-93241667D01*
X140144286Y-93289286D01*
X139953810Y-93336905D01*
X139810952Y-93336905D01*
X139620476Y-93289286D01*
X139525238Y-93241667D01*
X139430000Y-93146429D01*
X139382381Y-93003571D01*
X139382381Y-92908333D01*
X139430000Y-92765476D01*
X139477619Y-92717857D01*
X140382381Y-91765476D02*
X140382381Y-92336905D01*
X140382381Y-92051191D02*
X139382381Y-92051191D01*
X139525238Y-92146429D01*
X139620476Y-92241667D01*
X139668095Y-92336905D01*
X139715714Y-90908333D02*
X140382381Y-90908333D01*
X139334762Y-91146429D02*
X140049048Y-91384524D01*
X140049048Y-90765476D01*
X141732143Y-88272857D02*
X141779762Y-88320476D01*
X141827381Y-88463333D01*
X141827381Y-88558571D01*
X141779762Y-88701429D01*
X141684524Y-88796667D01*
X141589286Y-88844286D01*
X141398810Y-88891905D01*
X141255952Y-88891905D01*
X141065476Y-88844286D01*
X140970238Y-88796667D01*
X140875000Y-88701429D01*
X140827381Y-88558571D01*
X140827381Y-88463333D01*
X140875000Y-88320476D01*
X140922619Y-88272857D01*
X141827381Y-87320476D02*
X141827381Y-87891905D01*
X141827381Y-87606191D02*
X140827381Y-87606191D01*
X140970238Y-87701429D01*
X141065476Y-87796667D01*
X141113095Y-87891905D01*
X140827381Y-86415714D02*
X140827381Y-86891905D01*
X141303571Y-86939524D01*
X141255952Y-86891905D01*
X141208333Y-86796667D01*
X141208333Y-86558571D01*
X141255952Y-86463333D01*
X141303571Y-86415714D01*
X141398810Y-86368095D01*
X141636905Y-86368095D01*
X141732143Y-86415714D01*
X141779762Y-86463333D01*
X141827381Y-86558571D01*
X141827381Y-86796667D01*
X141779762Y-86891905D01*
X141732143Y-86939524D01*
X196368334Y-94052381D02*
X196035000Y-93576190D01*
X195796905Y-94052381D02*
X195796905Y-93052381D01*
X196177858Y-93052381D01*
X196273096Y-93100000D01*
X196320715Y-93147619D01*
X196368334Y-93242857D01*
X196368334Y-93385714D01*
X196320715Y-93480952D01*
X196273096Y-93528571D01*
X196177858Y-93576190D01*
X195796905Y-93576190D01*
X196939762Y-93480952D02*
X196844524Y-93433333D01*
X196796905Y-93385714D01*
X196749286Y-93290476D01*
X196749286Y-93242857D01*
X196796905Y-93147619D01*
X196844524Y-93100000D01*
X196939762Y-93052381D01*
X197130239Y-93052381D01*
X197225477Y-93100000D01*
X197273096Y-93147619D01*
X197320715Y-93242857D01*
X197320715Y-93290476D01*
X197273096Y-93385714D01*
X197225477Y-93433333D01*
X197130239Y-93480952D01*
X196939762Y-93480952D01*
X196844524Y-93528571D01*
X196796905Y-93576190D01*
X196749286Y-93671429D01*
X196749286Y-93861905D01*
X196796905Y-93957143D01*
X196844524Y-94004762D01*
X196939762Y-94052381D01*
X197130239Y-94052381D01*
X197225477Y-94004762D01*
X197273096Y-93957143D01*
X197320715Y-93861905D01*
X197320715Y-93671429D01*
X197273096Y-93576190D01*
X197225477Y-93528571D01*
X197130239Y-93480952D01*
M02*
