G04 #@! TF.FileFunction,Copper,L1,Top,Signal*
%FSLAX46Y46*%
G04 Gerber Fmt 4.6, Leading zero omitted, Abs format (unit mm)*
G04 Created by KiCad (PCBNEW 4.0.7-e2-6376~58~ubuntu14.04.1) date Thu Feb  8 20:55:41 2018*
%MOMM*%
%LPD*%
G01*
G04 APERTURE LIST*
%ADD10C,0.100000*%
%ADD11R,1.200000X0.300000*%
%ADD12R,0.889000X0.305000*%
%ADD13R,1.600000X1.000000*%
%ADD14R,1.000000X1.250000*%
%ADD15R,1.250000X1.000000*%
%ADD16R,1.200000X1.200000*%
%ADD17R,2.159000X1.778000*%
%ADD18R,2.500000X0.900000*%
%ADD19C,4.648200*%
%ADD20C,1.397000*%
%ADD21C,1.981000*%
%ADD22R,1.900000X1.900000*%
%ADD23C,1.900000*%
%ADD24C,1.800000*%
%ADD25R,8.200000X3.300000*%
%ADD26R,1.727200X1.727200*%
%ADD27O,1.727200X1.727200*%
%ADD28R,0.900000X0.800000*%
%ADD29R,0.700000X1.300000*%
%ADD30R,1.300000X0.700000*%
%ADD31R,0.800000X0.900000*%
%ADD32C,1.300000*%
%ADD33R,0.600000X1.550000*%
%ADD34R,0.650000X1.060000*%
%ADD35R,1.060000X0.650000*%
%ADD36R,0.490000X1.270000*%
%ADD37R,1.400000X1.200000*%
%ADD38C,1.724000*%
%ADD39C,0.600000*%
%ADD40C,0.508000*%
%ADD41C,0.762000*%
%ADD42C,0.254000*%
%ADD43C,0.152400*%
%ADD44C,1.200000*%
G04 APERTURE END LIST*
D10*
D11*
X154850000Y-116840000D03*
X146050000Y-107950000D03*
X146050000Y-109220000D03*
X146050000Y-110490000D03*
X146050000Y-111760000D03*
X146050000Y-113030000D03*
X146050000Y-114300000D03*
X146050000Y-115570000D03*
X146050000Y-116840000D03*
X154850000Y-115570000D03*
X154850000Y-114300000D03*
X154850000Y-113030000D03*
X154850000Y-111760000D03*
X154850000Y-110490000D03*
X154850000Y-109220000D03*
X154850000Y-107950000D03*
D12*
X169820000Y-110395000D03*
X169820000Y-109895000D03*
X169820000Y-109395000D03*
X169820000Y-108895000D03*
X169820000Y-108395000D03*
X169820000Y-107895000D03*
X169820000Y-107395000D03*
X169820000Y-106895000D03*
X165720001Y-106895000D03*
X165720001Y-107395000D03*
X165720001Y-107895000D03*
X165720001Y-108395000D03*
X165720001Y-108895000D03*
X165720001Y-109395000D03*
X165720001Y-109895000D03*
X165720001Y-110395000D03*
D13*
X139065000Y-74525000D03*
X139065000Y-71525000D03*
D14*
X192770000Y-78740000D03*
X190770000Y-78740000D03*
X189500000Y-76200000D03*
X191500000Y-76200000D03*
D15*
X168275000Y-79645000D03*
X168275000Y-81645000D03*
X140335000Y-82915000D03*
X140335000Y-80915000D03*
X135890000Y-89170000D03*
X135890000Y-91170000D03*
X191135000Y-85360000D03*
X191135000Y-87360000D03*
D14*
X186960000Y-89535000D03*
X188960000Y-89535000D03*
X197850000Y-71755000D03*
X195850000Y-71755000D03*
X173625000Y-111125000D03*
X175625000Y-111125000D03*
X173625000Y-115570000D03*
X175625000Y-115570000D03*
X160925000Y-110490000D03*
X162925000Y-110490000D03*
X160925000Y-113665000D03*
X162925000Y-113665000D03*
D16*
X129540000Y-79205000D03*
X129540000Y-77005000D03*
X130980000Y-91440000D03*
X133180000Y-91440000D03*
X141605000Y-91310000D03*
X141605000Y-94110000D03*
D17*
X128270000Y-70358000D03*
X128270000Y-74422000D03*
D16*
X170815000Y-89705000D03*
X170815000Y-91905000D03*
X174625000Y-89705000D03*
X174625000Y-91905000D03*
X178435000Y-89705000D03*
X178435000Y-91905000D03*
X163830000Y-82720000D03*
X163830000Y-84920000D03*
D18*
X134620000Y-71575000D03*
X134620000Y-74475000D03*
D10*
G36*
X177523666Y-81795445D02*
X177134757Y-81406536D01*
X178266128Y-80275165D01*
X178655037Y-80664074D01*
X177523666Y-81795445D01*
X177523666Y-81795445D01*
G37*
G36*
X178089352Y-82361130D02*
X177700443Y-81972221D01*
X178831814Y-80840850D01*
X179220723Y-81229759D01*
X178089352Y-82361130D01*
X178089352Y-82361130D01*
G37*
G36*
X178655037Y-82926816D02*
X178266128Y-82537907D01*
X179397499Y-81406536D01*
X179786408Y-81795445D01*
X178655037Y-82926816D01*
X178655037Y-82926816D01*
G37*
G36*
X179220722Y-83492501D02*
X178831813Y-83103592D01*
X179963184Y-81972221D01*
X180352093Y-82361130D01*
X179220722Y-83492501D01*
X179220722Y-83492501D01*
G37*
G36*
X179786408Y-84058187D02*
X179397499Y-83669278D01*
X180528870Y-82537907D01*
X180917779Y-82926816D01*
X179786408Y-84058187D01*
X179786408Y-84058187D01*
G37*
G36*
X180352093Y-84623872D02*
X179963184Y-84234963D01*
X181094555Y-83103592D01*
X181483464Y-83492501D01*
X180352093Y-84623872D01*
X180352093Y-84623872D01*
G37*
G36*
X180917779Y-85189557D02*
X180528870Y-84800648D01*
X181660241Y-83669277D01*
X182049150Y-84058186D01*
X180917779Y-85189557D01*
X180917779Y-85189557D01*
G37*
G36*
X181483464Y-85755243D02*
X181094555Y-85366334D01*
X182225926Y-84234963D01*
X182614835Y-84623872D01*
X181483464Y-85755243D01*
X181483464Y-85755243D01*
G37*
G36*
X184665445Y-85366334D02*
X184276536Y-85755243D01*
X183145165Y-84623872D01*
X183534074Y-84234963D01*
X184665445Y-85366334D01*
X184665445Y-85366334D01*
G37*
G36*
X185231130Y-84800648D02*
X184842221Y-85189557D01*
X183710850Y-84058186D01*
X184099759Y-83669277D01*
X185231130Y-84800648D01*
X185231130Y-84800648D01*
G37*
G36*
X185796816Y-84234963D02*
X185407907Y-84623872D01*
X184276536Y-83492501D01*
X184665445Y-83103592D01*
X185796816Y-84234963D01*
X185796816Y-84234963D01*
G37*
G36*
X186362501Y-83669278D02*
X185973592Y-84058187D01*
X184842221Y-82926816D01*
X185231130Y-82537907D01*
X186362501Y-83669278D01*
X186362501Y-83669278D01*
G37*
G36*
X186928187Y-83103592D02*
X186539278Y-83492501D01*
X185407907Y-82361130D01*
X185796816Y-81972221D01*
X186928187Y-83103592D01*
X186928187Y-83103592D01*
G37*
G36*
X187493872Y-82537907D02*
X187104963Y-82926816D01*
X185973592Y-81795445D01*
X186362501Y-81406536D01*
X187493872Y-82537907D01*
X187493872Y-82537907D01*
G37*
G36*
X188059557Y-81972221D02*
X187670648Y-82361130D01*
X186539277Y-81229759D01*
X186928186Y-80840850D01*
X188059557Y-81972221D01*
X188059557Y-81972221D01*
G37*
G36*
X188625243Y-81406536D02*
X188236334Y-81795445D01*
X187104963Y-80664074D01*
X187493872Y-80275165D01*
X188625243Y-81406536D01*
X188625243Y-81406536D01*
G37*
G36*
X187493872Y-79744835D02*
X187104963Y-79355926D01*
X188236334Y-78224555D01*
X188625243Y-78613464D01*
X187493872Y-79744835D01*
X187493872Y-79744835D01*
G37*
G36*
X186928186Y-79179150D02*
X186539277Y-78790241D01*
X187670648Y-77658870D01*
X188059557Y-78047779D01*
X186928186Y-79179150D01*
X186928186Y-79179150D01*
G37*
G36*
X186362501Y-78613464D02*
X185973592Y-78224555D01*
X187104963Y-77093184D01*
X187493872Y-77482093D01*
X186362501Y-78613464D01*
X186362501Y-78613464D01*
G37*
G36*
X185796816Y-78047779D02*
X185407907Y-77658870D01*
X186539278Y-76527499D01*
X186928187Y-76916408D01*
X185796816Y-78047779D01*
X185796816Y-78047779D01*
G37*
G36*
X185231130Y-77482093D02*
X184842221Y-77093184D01*
X185973592Y-75961813D01*
X186362501Y-76350722D01*
X185231130Y-77482093D01*
X185231130Y-77482093D01*
G37*
G36*
X184665445Y-76916408D02*
X184276536Y-76527499D01*
X185407907Y-75396128D01*
X185796816Y-75785037D01*
X184665445Y-76916408D01*
X184665445Y-76916408D01*
G37*
G36*
X184099759Y-76350723D02*
X183710850Y-75961814D01*
X184842221Y-74830443D01*
X185231130Y-75219352D01*
X184099759Y-76350723D01*
X184099759Y-76350723D01*
G37*
G36*
X183534074Y-75785037D02*
X183145165Y-75396128D01*
X184276536Y-74264757D01*
X184665445Y-74653666D01*
X183534074Y-75785037D01*
X183534074Y-75785037D01*
G37*
G36*
X182614835Y-75396128D02*
X182225926Y-75785037D01*
X181094555Y-74653666D01*
X181483464Y-74264757D01*
X182614835Y-75396128D01*
X182614835Y-75396128D01*
G37*
G36*
X182049150Y-75961814D02*
X181660241Y-76350723D01*
X180528870Y-75219352D01*
X180917779Y-74830443D01*
X182049150Y-75961814D01*
X182049150Y-75961814D01*
G37*
G36*
X181483464Y-76527499D02*
X181094555Y-76916408D01*
X179963184Y-75785037D01*
X180352093Y-75396128D01*
X181483464Y-76527499D01*
X181483464Y-76527499D01*
G37*
G36*
X180917779Y-77093184D02*
X180528870Y-77482093D01*
X179397499Y-76350722D01*
X179786408Y-75961813D01*
X180917779Y-77093184D01*
X180917779Y-77093184D01*
G37*
G36*
X180352093Y-77658870D02*
X179963184Y-78047779D01*
X178831813Y-76916408D01*
X179220722Y-76527499D01*
X180352093Y-77658870D01*
X180352093Y-77658870D01*
G37*
G36*
X179786408Y-78224555D02*
X179397499Y-78613464D01*
X178266128Y-77482093D01*
X178655037Y-77093184D01*
X179786408Y-78224555D01*
X179786408Y-78224555D01*
G37*
G36*
X179220723Y-78790241D02*
X178831814Y-79179150D01*
X177700443Y-78047779D01*
X178089352Y-77658870D01*
X179220723Y-78790241D01*
X179220723Y-78790241D01*
G37*
G36*
X178655037Y-79355926D02*
X178266128Y-79744835D01*
X177134757Y-78613464D01*
X177523666Y-78224555D01*
X178655037Y-79355926D01*
X178655037Y-79355926D01*
G37*
D19*
X196850000Y-116840000D03*
X128270000Y-66040000D03*
X128270000Y-115570000D03*
X196850000Y-66040000D03*
D20*
X155730000Y-66040000D03*
X152230000Y-66040000D03*
D21*
X153980000Y-68270000D03*
D20*
X159230000Y-66040000D03*
X162730000Y-66040000D03*
D22*
X136485000Y-110295000D03*
D23*
X133985000Y-110295000D03*
D24*
X153035000Y-90805000D03*
X153035000Y-80645000D03*
X153035000Y-73025000D03*
X145415000Y-90805000D03*
D25*
X130175000Y-82740000D03*
X130175000Y-87440000D03*
D26*
X189865000Y-65405000D03*
D27*
X192405000Y-65405000D03*
X189865000Y-67945000D03*
X192405000Y-67945000D03*
X189865000Y-70485000D03*
X192405000Y-70485000D03*
D28*
X150275000Y-95565000D03*
X150275000Y-93665000D03*
X148175000Y-94615000D03*
D29*
X134935000Y-76835000D03*
X133035000Y-76835000D03*
X186370000Y-70485000D03*
X184470000Y-70485000D03*
X182560000Y-70485000D03*
X180660000Y-70485000D03*
X140020000Y-78740000D03*
X141920000Y-78740000D03*
X191450000Y-73660000D03*
X189550000Y-73660000D03*
D30*
X139065000Y-86045000D03*
X139065000Y-87945000D03*
X135890000Y-84775000D03*
X135890000Y-86675000D03*
D29*
X126685000Y-91440000D03*
X128585000Y-91440000D03*
D31*
X176750000Y-72390000D03*
X178850000Y-72390000D03*
D30*
X170815000Y-94935000D03*
X170815000Y-96835000D03*
X174625000Y-94935000D03*
X174625000Y-96835000D03*
X178435000Y-94935000D03*
X178435000Y-96835000D03*
X165100000Y-73345000D03*
X165100000Y-75245000D03*
D29*
X159700000Y-85090000D03*
X157800000Y-85090000D03*
X157800000Y-88900000D03*
X159700000Y-88900000D03*
X163515000Y-80010000D03*
X165415000Y-80010000D03*
D30*
X175260000Y-103185000D03*
X175260000Y-101285000D03*
D29*
X165420000Y-114935000D03*
X167320000Y-114935000D03*
X166055000Y-118745000D03*
X167955000Y-118745000D03*
X162875000Y-107315000D03*
X160975000Y-107315000D03*
X160975000Y-104775000D03*
X162875000Y-104775000D03*
D32*
X175260000Y-67310000D03*
X172720000Y-67310000D03*
X170180000Y-67310000D03*
X177800000Y-67310000D03*
X171450000Y-64770000D03*
X173990000Y-64770000D03*
X176530000Y-64770000D03*
X179070000Y-64770000D03*
X180340000Y-67310000D03*
X181610000Y-64770000D03*
X182880000Y-67310000D03*
X184150000Y-64770000D03*
D33*
X169545000Y-76995000D03*
X170815000Y-76995000D03*
X172085000Y-76995000D03*
X173355000Y-76995000D03*
X173355000Y-71595000D03*
X172085000Y-71595000D03*
X170815000Y-71595000D03*
X169545000Y-71595000D03*
D34*
X138110000Y-80180000D03*
X137160000Y-80180000D03*
X136210000Y-80180000D03*
X136210000Y-82380000D03*
X138110000Y-82380000D03*
X137160000Y-82380000D03*
D35*
X171620000Y-81600000D03*
X171620000Y-82550000D03*
X171620000Y-83500000D03*
X173820000Y-83500000D03*
X173820000Y-81600000D03*
D36*
X161325000Y-71295000D03*
X160055000Y-71295000D03*
X158785000Y-71295000D03*
X157515000Y-71295000D03*
X157515000Y-77095000D03*
X158785000Y-77095000D03*
X160055000Y-77095000D03*
X161325000Y-77095000D03*
D34*
X159700000Y-80180000D03*
X158750000Y-80180000D03*
X157800000Y-80180000D03*
X157800000Y-82380000D03*
X159700000Y-82380000D03*
D37*
X189060000Y-85560000D03*
X186860000Y-85560000D03*
X186860000Y-87160000D03*
X189060000Y-87160000D03*
D20*
X138585000Y-66040000D03*
X135085000Y-66040000D03*
D21*
X136835000Y-68270000D03*
D20*
X142085000Y-66040000D03*
X145585000Y-66040000D03*
D38*
X197240000Y-76185000D03*
X197240000Y-79685000D03*
X197240000Y-83185000D03*
X197240000Y-86685000D03*
X197240000Y-90185000D03*
D15*
X138430000Y-91075000D03*
X138430000Y-93075000D03*
X142875000Y-88630000D03*
X142875000Y-86630000D03*
D29*
X195585000Y-95250000D03*
X197485000Y-95250000D03*
D39*
X194945000Y-73025000D03*
X192405000Y-76200000D03*
X158496000Y-73406000D03*
X167005000Y-74295000D03*
X170815000Y-110490000D03*
X190500000Y-80010000D03*
X149860000Y-91440000D03*
X159385000Y-87630000D03*
X170815000Y-78740000D03*
X190500000Y-89535000D03*
X159385000Y-78740000D03*
X156845000Y-77470000D03*
X168910000Y-96520000D03*
X166948723Y-108641277D03*
X165100000Y-85090000D03*
X168275000Y-83185000D03*
X171450000Y-84455000D03*
X185420000Y-79756000D03*
X135890000Y-92710000D03*
X138938000Y-89154000D03*
X139192000Y-80010000D03*
X127508000Y-76962000D03*
X139446000Y-69596000D03*
X131572000Y-70358000D03*
X163068000Y-115824000D03*
X175768000Y-117602000D03*
X161036000Y-81280000D03*
X161036000Y-79502000D03*
X175260000Y-81534000D03*
X175006000Y-83312000D03*
X173990000Y-70104000D03*
X193675000Y-74930000D03*
X192405000Y-74295000D03*
X200025000Y-76200000D03*
X170180000Y-105410000D03*
X172085000Y-106680000D03*
X175895000Y-71120000D03*
X165735000Y-105410000D03*
X165735000Y-104140000D03*
X161290000Y-96520000D03*
X160020000Y-94615000D03*
X188722000Y-79502000D03*
X186182000Y-79502000D03*
X160020000Y-106680000D03*
X160020000Y-105410000D03*
X179705000Y-78740000D03*
X177800000Y-87630000D03*
X175895000Y-88900000D03*
X179070000Y-75565000D03*
X179705000Y-88265000D03*
X182245000Y-77470000D03*
X182880000Y-83058000D03*
X179578000Y-90678000D03*
X184404000Y-79502000D03*
X184658000Y-87122000D03*
X174752000Y-62738000D03*
X184150000Y-78105000D03*
X182880000Y-76200000D03*
X180975000Y-86995000D03*
X179705000Y-86995000D03*
X181610000Y-78105000D03*
X176530000Y-84328000D03*
X179832000Y-74168000D03*
D40*
X140020000Y-78740000D02*
X138430000Y-78740000D01*
X136525000Y-76835000D02*
X134935000Y-76835000D01*
X138430000Y-78740000D02*
X136525000Y-76835000D01*
D41*
X134935000Y-76835000D02*
X134935000Y-78905000D01*
X134935000Y-78905000D02*
X136210000Y-80180000D01*
X134935000Y-76835000D02*
X134935000Y-74790000D01*
X134935000Y-74790000D02*
X134620000Y-74475000D01*
X134620000Y-74475000D02*
X139015000Y-74475000D01*
X139015000Y-74475000D02*
X139065000Y-74525000D01*
X134620000Y-74475000D02*
X128598000Y-74475000D01*
X128598000Y-74475000D02*
X128270000Y-74803000D01*
D42*
X169820000Y-110395000D02*
X167703000Y-110395000D01*
X167703000Y-110395000D02*
X166703000Y-109395000D01*
X166703000Y-109395000D02*
X165720001Y-109395000D01*
X165720001Y-109395000D02*
X165720001Y-108895000D01*
X165720001Y-108395000D02*
X165720001Y-108895000D01*
X195850000Y-71755000D02*
X195850000Y-72120000D01*
X195850000Y-72120000D02*
X194945000Y-73025000D01*
X191500000Y-76200000D02*
X192405000Y-76200000D01*
X157515000Y-71295000D02*
X157515000Y-72425000D01*
X157515000Y-72425000D02*
X158496000Y-73406000D01*
X169545000Y-71595000D02*
X169545000Y-72070000D01*
X169545000Y-72070000D02*
X167320000Y-74295000D01*
X167320000Y-74295000D02*
X167005000Y-74295000D01*
X169820000Y-110395000D02*
X170720000Y-110395000D01*
X170720000Y-110395000D02*
X170815000Y-110490000D01*
X190770000Y-78740000D02*
X190770000Y-79740000D01*
X190770000Y-79740000D02*
X190500000Y-80010000D01*
X150275000Y-93665000D02*
X150275000Y-91855000D01*
X150275000Y-91855000D02*
X149860000Y-91440000D01*
X159700000Y-88900000D02*
X159700000Y-87945000D01*
X159700000Y-87945000D02*
X159385000Y-87630000D01*
X170815000Y-76995000D02*
X170815000Y-78740000D01*
X188960000Y-89535000D02*
X190500000Y-89535000D01*
X158750000Y-80180000D02*
X158750000Y-79375000D01*
X158750000Y-79375000D02*
X159385000Y-78740000D01*
X157515000Y-77095000D02*
X157220000Y-77095000D01*
X157220000Y-77095000D02*
X156845000Y-77470000D01*
X170815000Y-96835000D02*
X169225000Y-96835000D01*
X169225000Y-96835000D02*
X168910000Y-96520000D01*
X165720001Y-108395000D02*
X166702446Y-108395000D01*
X166702446Y-108395000D02*
X166948723Y-108641277D01*
X162925000Y-110490000D02*
X162925000Y-110365000D01*
X162925000Y-110365000D02*
X163895000Y-109395000D01*
X163895000Y-109395000D02*
X165021501Y-109395000D01*
X165021501Y-109395000D02*
X165720001Y-109395000D01*
X163830000Y-84920000D02*
X164930000Y-84920000D01*
X164930000Y-84920000D02*
X165100000Y-85090000D01*
X168275000Y-81645000D02*
X168275000Y-83185000D01*
X171620000Y-83500000D02*
X171620000Y-84285000D01*
X171620000Y-84285000D02*
X171450000Y-84455000D01*
X174625000Y-96835000D02*
X178435000Y-96835000D01*
X170815000Y-96835000D02*
X174625000Y-96835000D01*
X183515000Y-80645000D02*
X184531000Y-80645000D01*
X184531000Y-80645000D02*
X185420000Y-79756000D01*
X181610000Y-82550000D02*
X183515000Y-80645000D01*
X180157639Y-83298047D02*
X180905686Y-82550000D01*
X180905686Y-82550000D02*
X181610000Y-82550000D01*
X142875000Y-86630000D02*
X140380000Y-86630000D01*
X140380000Y-86630000D02*
X139065000Y-87945000D01*
X138430000Y-93075000D02*
X137795000Y-93075000D01*
X137795000Y-93075000D02*
X135890000Y-91170000D01*
X186168047Y-77287639D02*
X186168047Y-77483953D01*
X186168047Y-77483953D02*
X185420000Y-78232000D01*
X185420000Y-78232000D02*
X185420000Y-79756000D01*
X190770000Y-78740000D02*
X190770000Y-76930000D01*
X190770000Y-76930000D02*
X191500000Y-76200000D01*
D41*
X192405000Y-70485000D02*
X194580000Y-70485000D01*
X194580000Y-70485000D02*
X195850000Y-71755000D01*
D42*
X135890000Y-91170000D02*
X135890000Y-92710000D01*
X133180000Y-91440000D02*
X135620000Y-91440000D01*
X135620000Y-91440000D02*
X135890000Y-91170000D01*
X139065000Y-87945000D02*
X139065000Y-89027000D01*
X139065000Y-89027000D02*
X138938000Y-89154000D01*
X138110000Y-80180000D02*
X139022000Y-80180000D01*
X139022000Y-80180000D02*
X139192000Y-80010000D01*
X129540000Y-77005000D02*
X127551000Y-77005000D01*
X127551000Y-77005000D02*
X127508000Y-76962000D01*
X139065000Y-71525000D02*
X139065000Y-69977000D01*
X139065000Y-69977000D02*
X139446000Y-69596000D01*
X128270000Y-70358000D02*
X131572000Y-70358000D01*
X166055000Y-118745000D02*
X165989000Y-118745000D01*
X165989000Y-118745000D02*
X163068000Y-115824000D01*
X162925000Y-110490000D02*
X162925000Y-113665000D01*
X162925000Y-113665000D02*
X163068000Y-113808000D01*
X163068000Y-113808000D02*
X163068000Y-115824000D01*
X175625000Y-115570000D02*
X175625000Y-117459000D01*
X175625000Y-117459000D02*
X175768000Y-117602000D01*
X175625000Y-111125000D02*
X175625000Y-115570000D01*
X157734000Y-77314000D02*
X157515000Y-77095000D01*
D41*
X152230000Y-66040000D02*
X151892000Y-66040000D01*
D42*
X191135000Y-87360000D02*
X189260000Y-87360000D01*
X189260000Y-87360000D02*
X189060000Y-87160000D01*
X189060000Y-87160000D02*
X189060000Y-89435000D01*
X189060000Y-89435000D02*
X188960000Y-89535000D01*
X189060000Y-87160000D02*
X188760000Y-87160000D01*
X188760000Y-87160000D02*
X187325000Y-85725000D01*
X187325000Y-85725000D02*
X186860000Y-85560000D01*
D41*
X153035000Y-90805000D02*
X155730000Y-88110000D01*
X155730000Y-88110000D02*
X155730000Y-66040000D01*
D42*
X169820000Y-107395000D02*
X169820000Y-106895000D01*
X169820000Y-107895000D02*
X169820000Y-107395000D01*
X159700000Y-82380000D02*
X159936000Y-82380000D01*
X159936000Y-82380000D02*
X161036000Y-81280000D01*
X161036000Y-79502000D02*
X160055000Y-78521000D01*
X160055000Y-78521000D02*
X160055000Y-77095000D01*
X159700000Y-82380000D02*
X159700000Y-82044600D01*
X175260000Y-81534000D02*
X173886000Y-81534000D01*
X173886000Y-81534000D02*
X173820000Y-81600000D01*
X179591953Y-82732361D02*
X178732905Y-83591409D01*
X178732905Y-83591409D02*
X175285409Y-83591409D01*
X175285409Y-83591409D02*
X175006000Y-83312000D01*
X174218590Y-78908340D02*
X174218590Y-70332590D01*
X174218590Y-70332590D02*
X173990000Y-70104000D01*
X173820000Y-81600000D02*
X173820000Y-81021000D01*
X173820000Y-81021000D02*
X174218590Y-80622410D01*
X174218590Y-80622410D02*
X174218590Y-78908340D01*
X193675000Y-74930000D02*
X195985000Y-74930000D01*
X195985000Y-74930000D02*
X197240000Y-76185000D01*
X191450000Y-73660000D02*
X191770000Y-73660000D01*
X191770000Y-73660000D02*
X192405000Y-74295000D01*
X200025000Y-94212922D02*
X200025000Y-76200000D01*
X196555000Y-96520000D02*
X197717922Y-96520000D01*
X197717922Y-96520000D02*
X200025000Y-94212922D01*
X195585000Y-95250000D02*
X195585000Y-95550000D01*
X195585000Y-95550000D02*
X196555000Y-96520000D01*
X181295000Y-103185000D02*
X189230000Y-95250000D01*
X189230000Y-95250000D02*
X195585000Y-95250000D01*
X175260000Y-103185000D02*
X181295000Y-103185000D01*
X170180000Y-105410000D02*
X170180000Y-106535000D01*
X170180000Y-106535000D02*
X169820000Y-106895000D01*
X172085000Y-110339000D02*
X172085000Y-106680000D01*
X173625000Y-111125000D02*
X172871000Y-111125000D01*
X172871000Y-111125000D02*
X172085000Y-110339000D01*
X173625000Y-111125000D02*
X173625000Y-104520000D01*
X173625000Y-104520000D02*
X174960000Y-103185000D01*
X174960000Y-103185000D02*
X175260000Y-103185000D01*
X176750000Y-72390000D02*
X176750000Y-71975000D01*
X176750000Y-71975000D02*
X175895000Y-71120000D01*
X165735000Y-105410000D02*
X165735000Y-106880001D01*
X165735000Y-106880001D02*
X165720001Y-106895000D01*
X165735000Y-100965000D02*
X165735000Y-104140000D01*
X161290000Y-96520000D02*
X165735000Y-100965000D01*
X154305000Y-94615000D02*
X160020000Y-94615000D01*
X153035000Y-93345000D02*
X154305000Y-94615000D01*
X153035000Y-90805000D02*
X153035000Y-93345000D01*
X161925000Y-90805000D02*
X161925000Y-88219000D01*
X161925000Y-88219000D02*
X159700000Y-85994000D01*
X159700000Y-85994000D02*
X159700000Y-85090000D01*
X161025001Y-91704999D02*
X161925000Y-90805000D01*
X153035000Y-90805000D02*
X153934999Y-91704999D01*
X153934999Y-91704999D02*
X161025001Y-91704999D01*
X155730000Y-71881000D02*
X155730000Y-66040000D01*
X192770000Y-78740000D02*
X192770000Y-77994000D01*
X194579000Y-76185000D02*
X197240000Y-76185000D01*
X192770000Y-77994000D02*
X194579000Y-76185000D01*
D41*
X197850000Y-71755000D02*
X197850000Y-75575000D01*
X197850000Y-75575000D02*
X197240000Y-76185000D01*
D42*
X159700000Y-82380000D02*
X159700000Y-85090000D01*
X159700000Y-85090000D02*
X160208000Y-84582000D01*
D41*
X135890000Y-89170000D02*
X136668000Y-89170000D01*
X138808000Y-91310000D02*
X141605000Y-91310000D01*
X136668000Y-89170000D02*
X138808000Y-91310000D01*
D42*
X173625000Y-115570000D02*
X173625000Y-111125000D01*
X173625000Y-111125000D02*
X173736000Y-111014000D01*
D41*
X141605000Y-91310000D02*
X141605000Y-90297000D01*
X141605000Y-90297000D02*
X143256000Y-88646000D01*
X143256000Y-88646000D02*
X150876000Y-88646000D01*
X150876000Y-88646000D02*
X153035000Y-90805000D01*
X135890000Y-86675000D02*
X130940000Y-86675000D01*
X130940000Y-86675000D02*
X130175000Y-87440000D01*
X135890000Y-89170000D02*
X131905000Y-89170000D01*
X131905000Y-89170000D02*
X130175000Y-87440000D01*
X126685000Y-91440000D02*
X126685000Y-90930000D01*
X126685000Y-90930000D02*
X130175000Y-87440000D01*
D40*
X130940000Y-86675000D02*
X130175000Y-87440000D01*
D42*
X186733732Y-77853324D02*
X186733732Y-77934268D01*
X186733732Y-77934268D02*
X186182000Y-78486000D01*
X189500000Y-78724000D02*
X189500000Y-76200000D01*
X188722000Y-79502000D02*
X189500000Y-78724000D01*
X186182000Y-78486000D02*
X186182000Y-79502000D01*
X189500000Y-76200000D02*
X189500000Y-73710000D01*
X189500000Y-73710000D02*
X189550000Y-73660000D01*
X186733732Y-78061268D02*
X186733732Y-77853324D01*
X172085000Y-76995000D02*
X172085000Y-76200000D01*
X168275000Y-76200000D02*
X168275000Y-79645000D01*
X168910000Y-75565000D02*
X168275000Y-76200000D01*
X171450000Y-75565000D02*
X168910000Y-75565000D01*
X172085000Y-76200000D02*
X171450000Y-75565000D01*
D40*
X140335000Y-82915000D02*
X138795000Y-82915000D01*
X138795000Y-82915000D02*
X138430000Y-82550000D01*
X138430000Y-82550000D02*
X138110000Y-82380000D01*
X137160000Y-81280000D02*
X139970000Y-81280000D01*
X139970000Y-81280000D02*
X140335000Y-80915000D01*
X137160000Y-80180000D02*
X137160000Y-81280000D01*
X134620000Y-81280000D02*
X133160000Y-82740000D01*
X137160000Y-81280000D02*
X134620000Y-81280000D01*
X133160000Y-82740000D02*
X130175000Y-82740000D01*
D42*
X191135000Y-85360000D02*
X189260000Y-85360000D01*
X189260000Y-85360000D02*
X189060000Y-85560000D01*
X189060000Y-85560000D02*
X189060000Y-85555000D01*
X189060000Y-85555000D02*
X187960000Y-84455000D01*
X187960000Y-84455000D02*
X185627944Y-84455000D01*
X185627944Y-84455000D02*
X185036676Y-83863732D01*
X186960000Y-89535000D02*
X186960000Y-87260000D01*
X186960000Y-87260000D02*
X186860000Y-87160000D01*
X186860000Y-87160000D02*
X186220000Y-87160000D01*
X186220000Y-87160000D02*
X185420000Y-86360000D01*
X185420000Y-86360000D02*
X185420000Y-85378427D01*
X185420000Y-85378427D02*
X184470990Y-84429417D01*
X160020000Y-106680000D02*
X160340000Y-106680000D01*
X160340000Y-106680000D02*
X160975000Y-107315000D01*
X160975000Y-104775000D02*
X160655000Y-104775000D01*
X160655000Y-104775000D02*
X160020000Y-105410000D01*
X160975000Y-107315000D02*
X160975000Y-110440000D01*
X160975000Y-110440000D02*
X160925000Y-110490000D01*
X156120000Y-109220000D02*
X154850000Y-109220000D01*
X158115000Y-110730000D02*
X158080000Y-110730000D01*
X158080000Y-110730000D02*
X156570000Y-109220000D01*
X156570000Y-109220000D02*
X156120000Y-109220000D01*
X160925000Y-113665000D02*
X160925000Y-113540000D01*
X160925000Y-113540000D02*
X158115000Y-110730000D01*
D40*
X133035000Y-76835000D02*
X131910000Y-76835000D01*
X131910000Y-76835000D02*
X129540000Y-79205000D01*
D41*
X130980000Y-91440000D02*
X128585000Y-91440000D01*
X148175000Y-94615000D02*
X148175000Y-93565000D01*
X148175000Y-93565000D02*
X145415000Y-90805000D01*
X148175000Y-94615000D02*
X142110000Y-94615000D01*
X142110000Y-94615000D02*
X141605000Y-94110000D01*
D43*
X142110000Y-94615000D02*
X141605000Y-94110000D01*
X179026268Y-77853324D02*
X179026268Y-78061268D01*
X179026268Y-78061268D02*
X179705000Y-78740000D01*
X177800000Y-87630000D02*
X171450000Y-87630000D01*
X171450000Y-87630000D02*
X170815000Y-88265000D01*
X170815000Y-88265000D02*
X170815000Y-89705000D01*
D42*
X170815000Y-91905000D02*
X170815000Y-94935000D01*
D43*
X174625000Y-89705000D02*
X174625000Y-89535000D01*
X174625000Y-89535000D02*
X175260000Y-88900000D01*
X175260000Y-88900000D02*
X175895000Y-88900000D01*
X179070000Y-75565000D02*
X180340000Y-75565000D01*
X180340000Y-75565000D02*
X180723324Y-75948324D01*
X180723324Y-75948324D02*
X180723324Y-76156268D01*
D42*
X174625000Y-91905000D02*
X174625000Y-94935000D01*
D43*
X178435000Y-89705000D02*
X178435000Y-89535000D01*
X178435000Y-89535000D02*
X179705000Y-88265000D01*
X182245000Y-77470000D02*
X182245000Y-76200000D01*
X182245000Y-76200000D02*
X181635583Y-75590583D01*
X181635583Y-75590583D02*
X181289010Y-75590583D01*
D42*
X178435000Y-91905000D02*
X178435000Y-94935000D01*
D43*
X165415000Y-80010000D02*
X165415000Y-81135000D01*
X165415000Y-81135000D02*
X163830000Y-82720000D01*
D41*
X135085000Y-66040000D02*
X134620000Y-66040000D01*
X134620000Y-66040000D02*
X134620000Y-71575000D01*
D42*
X175260000Y-67310000D02*
X175260000Y-64135000D01*
X186690000Y-62230000D02*
X189865000Y-65405000D01*
X177165000Y-62230000D02*
X186690000Y-62230000D01*
X175260000Y-64135000D02*
X177165000Y-62230000D01*
X177894897Y-81035305D02*
X177894897Y-80739897D01*
X177894897Y-80739897D02*
X175260000Y-78105000D01*
X175260000Y-78105000D02*
X175260000Y-67310000D01*
X192405000Y-67945000D02*
X193675000Y-66675000D01*
X177165000Y-61595000D02*
X173990000Y-64770000D01*
X187325000Y-61595000D02*
X177165000Y-61595000D01*
X189230000Y-63500000D02*
X187325000Y-61595000D01*
X193040000Y-63500000D02*
X189230000Y-63500000D01*
X193675000Y-64135000D02*
X193040000Y-63500000D01*
X193675000Y-66675000D02*
X193675000Y-64135000D01*
X173990000Y-64770000D02*
X173990000Y-67945000D01*
X177511573Y-82550000D02*
X178460583Y-81600990D01*
X177165000Y-82550000D02*
X177511573Y-82550000D01*
X174625000Y-80010000D02*
X177165000Y-82550000D01*
X174625000Y-78740000D02*
X174625000Y-80010000D01*
X174625000Y-68580000D02*
X174625000Y-78740000D01*
X173990000Y-67945000D02*
X174625000Y-68580000D01*
X171620000Y-82550000D02*
X175260000Y-82550000D01*
X178007944Y-83185000D02*
X179026268Y-82166676D01*
X175895000Y-83185000D02*
X178007944Y-83185000D01*
X175260000Y-82550000D02*
X175895000Y-83185000D01*
X169545000Y-76995000D02*
X169545000Y-84455000D01*
X178862056Y-85725000D02*
X180723324Y-83863732D01*
X170815000Y-85725000D02*
X178862056Y-85725000D01*
X169545000Y-84455000D02*
X170815000Y-85725000D01*
X173355000Y-76995000D02*
X173355000Y-76200000D01*
X179358427Y-86360000D02*
X181289010Y-84429417D01*
X170180000Y-86360000D02*
X179358427Y-86360000D01*
X167005000Y-83185000D02*
X170180000Y-86360000D01*
X167005000Y-76200000D02*
X167005000Y-83185000D01*
X168275000Y-74930000D02*
X167005000Y-76200000D01*
X172085000Y-74930000D02*
X168275000Y-74930000D01*
X173355000Y-76200000D02*
X172085000Y-74930000D01*
D43*
X180340000Y-100965000D02*
X175260000Y-100965000D01*
X175260000Y-100965000D02*
X172085000Y-100965000D01*
D42*
X175260000Y-101285000D02*
X175260000Y-100965000D01*
D43*
X181854695Y-84995103D02*
X181854695Y-99450305D01*
X170640000Y-109395000D02*
X169820000Y-109395000D01*
X170815000Y-109220000D02*
X170640000Y-109395000D01*
X170815000Y-108585000D02*
X170815000Y-109220000D01*
X170815000Y-102235000D02*
X170815000Y-108585000D01*
X172085000Y-100965000D02*
X170815000Y-102235000D01*
X181854695Y-99450305D02*
X180340000Y-100965000D01*
X183905305Y-84995103D02*
X183905305Y-99304695D01*
X170775000Y-109895000D02*
X169820000Y-109895000D01*
X171450000Y-109220000D02*
X170775000Y-109895000D01*
X171450000Y-104140000D02*
X171450000Y-109220000D01*
X173355000Y-102235000D02*
X171450000Y-104140000D01*
X180975000Y-102235000D02*
X173355000Y-102235000D01*
X183905305Y-99304695D02*
X180975000Y-102235000D01*
D42*
X193675000Y-84809274D02*
X192124274Y-84809274D01*
X192124274Y-84809274D02*
X191249442Y-83934442D01*
X191249442Y-83934442D02*
X186238756Y-83934442D01*
X186238756Y-83934442D02*
X185602361Y-83298047D01*
X198755000Y-70485000D02*
X198755000Y-86859274D01*
X198755000Y-86859274D02*
X197787873Y-87826401D01*
X197787873Y-87826401D02*
X196692127Y-87826401D01*
X196692127Y-87826401D02*
X193675000Y-84809274D01*
X197485000Y-69215000D02*
X198755000Y-70485000D01*
X191135000Y-69215000D02*
X197485000Y-69215000D01*
X189865000Y-67945000D02*
X191135000Y-69215000D01*
X176530000Y-64770000D02*
X178435000Y-62865000D01*
X187960000Y-66040000D02*
X189865000Y-67945000D01*
X184785000Y-62865000D02*
X187960000Y-66040000D01*
X178435000Y-62865000D02*
X184785000Y-62865000D01*
D43*
X197240000Y-86685000D02*
X197240000Y-85226000D01*
X187001686Y-83566000D02*
X186168047Y-82732361D01*
X195580000Y-83566000D02*
X187001686Y-83566000D01*
X197240000Y-85226000D02*
X195580000Y-83566000D01*
X197240000Y-83185000D02*
X187752056Y-83185000D01*
X187752056Y-83185000D02*
X186733732Y-82166676D01*
X150275000Y-95565000D02*
X165039000Y-95565000D01*
X187093798Y-80264000D02*
X187865103Y-81035305D01*
X185674000Y-80264000D02*
X187093798Y-80264000D01*
X182880000Y-83058000D02*
X185674000Y-80264000D01*
X179324000Y-90932000D02*
X179578000Y-90678000D01*
X169672000Y-90932000D02*
X179324000Y-90932000D01*
X165039000Y-95565000D02*
X169672000Y-90932000D01*
X184150000Y-64770000D02*
X184150000Y-66040000D01*
X190744695Y-81035305D02*
X187865103Y-81035305D01*
X191770000Y-80010000D02*
X190744695Y-81035305D01*
X191770000Y-78105000D02*
X191770000Y-80010000D01*
X193040000Y-76835000D02*
X191770000Y-78105000D01*
X193040000Y-73025000D02*
X193040000Y-76835000D01*
X192405000Y-72390000D02*
X193040000Y-73025000D01*
X188595000Y-72390000D02*
X192405000Y-72390000D01*
X187325000Y-71120000D02*
X188595000Y-72390000D01*
X187325000Y-69215000D02*
X187325000Y-71120000D01*
X184150000Y-66040000D02*
X187325000Y-69215000D01*
D42*
X186370000Y-70485000D02*
X186370000Y-73975000D01*
X188595000Y-78105000D02*
X187865103Y-78834897D01*
X188595000Y-76200000D02*
X188595000Y-78105000D01*
X186370000Y-73975000D02*
X188595000Y-76200000D01*
X187865103Y-78834897D02*
X187865103Y-78984695D01*
X182560000Y-70485000D02*
X182560000Y-71435000D01*
X187960000Y-77758427D02*
X187299417Y-78419010D01*
X187960000Y-76835000D02*
X187960000Y-77758427D01*
X182560000Y-71435000D02*
X187960000Y-76835000D01*
X197240000Y-90185000D02*
X197240000Y-95005000D01*
X197240000Y-95005000D02*
X197485000Y-95250000D01*
D43*
X197240000Y-90185000D02*
X191755000Y-90185000D01*
X184404000Y-76788944D02*
X185036676Y-76156268D01*
X184404000Y-77216000D02*
X184404000Y-76788944D01*
X184912000Y-77724000D02*
X184404000Y-77216000D01*
X184912000Y-78994000D02*
X184912000Y-77724000D01*
X184404000Y-79502000D02*
X184912000Y-78994000D01*
X184658000Y-89916000D02*
X184658000Y-87122000D01*
X185928000Y-91186000D02*
X184658000Y-89916000D01*
X190754000Y-91186000D02*
X185928000Y-91186000D01*
X191755000Y-90185000D02*
X190754000Y-91186000D01*
X163515000Y-80010000D02*
X163515000Y-79817000D01*
X163515000Y-79817000D02*
X166370000Y-76962000D01*
X167386000Y-62738000D02*
X174752000Y-62738000D01*
X166370000Y-63754000D02*
X167386000Y-62738000D01*
X166370000Y-76962000D02*
X166370000Y-63754000D01*
X159700000Y-80180000D02*
X163345000Y-80180000D01*
X163345000Y-80180000D02*
X163515000Y-80010000D01*
X183515000Y-76546573D02*
X184470990Y-75590583D01*
X183515000Y-77470000D02*
X183515000Y-76546573D01*
X184150000Y-78105000D02*
X183515000Y-77470000D01*
X183905305Y-75024897D02*
X183905305Y-75174695D01*
X183905305Y-75174695D02*
X182880000Y-76200000D01*
X180975000Y-86995000D02*
X180975000Y-99060000D01*
X180975000Y-99060000D02*
X180340000Y-99695000D01*
X180340000Y-99695000D02*
X171450000Y-99695000D01*
X171450000Y-99695000D02*
X168275000Y-102870000D01*
X168275000Y-102870000D02*
X168275000Y-107950000D01*
X168275000Y-107950000D02*
X168720000Y-108395000D01*
X168720000Y-108395000D02*
X169820000Y-108395000D01*
X180157639Y-76721953D02*
X180226953Y-76721953D01*
X180226953Y-76721953D02*
X181610000Y-78105000D01*
X167950000Y-108895000D02*
X169820000Y-108895000D01*
X167005000Y-107950000D02*
X167950000Y-108895000D01*
X167005000Y-102870000D02*
X167005000Y-107950000D01*
X171450000Y-98425000D02*
X167005000Y-102870000D01*
X179705000Y-98425000D02*
X171450000Y-98425000D01*
X180340000Y-97790000D02*
X179705000Y-98425000D01*
X180340000Y-87630000D02*
X180340000Y-97790000D01*
X179705000Y-86995000D02*
X180340000Y-87630000D01*
D42*
X189865000Y-70485000D02*
X189865000Y-69850000D01*
X189865000Y-69850000D02*
X185420000Y-65405000D01*
X185420000Y-65405000D02*
X185420000Y-64135000D01*
X185420000Y-64135000D02*
X184785000Y-63500000D01*
X184785000Y-63500000D02*
X178435000Y-63500000D01*
X178435000Y-63500000D02*
X177800000Y-64135000D01*
X177800000Y-64135000D02*
X177800000Y-67310000D01*
X178850000Y-72390000D02*
X178850000Y-74515000D01*
X177800000Y-77758427D02*
X178460583Y-78419010D01*
X177800000Y-75565000D02*
X177800000Y-77758427D01*
X178850000Y-74515000D02*
X177800000Y-75565000D01*
X177800000Y-67310000D02*
X177800000Y-71340000D01*
X177800000Y-71340000D02*
X178850000Y-72390000D01*
D41*
X153035000Y-80645000D02*
X152400000Y-80645000D01*
D44*
X152400000Y-80645000D02*
X142085000Y-70330000D01*
X142085000Y-70330000D02*
X142085000Y-66040000D01*
X153035000Y-73025000D02*
X149225000Y-73025000D01*
X149225000Y-73025000D02*
X145585000Y-69385000D01*
X145585000Y-69385000D02*
X145585000Y-66040000D01*
D43*
X159230000Y-66040000D02*
X159230000Y-69060000D01*
X160055000Y-69885000D02*
X160055000Y-71295000D01*
X159230000Y-69060000D02*
X160055000Y-69885000D01*
X162730000Y-66040000D02*
X161798000Y-66040000D01*
X158785000Y-68107000D02*
X158785000Y-71295000D01*
X157988000Y-67310000D02*
X158785000Y-68107000D01*
X157988000Y-65024000D02*
X157988000Y-67310000D01*
X158496000Y-64516000D02*
X157988000Y-65024000D01*
X160274000Y-64516000D02*
X158496000Y-64516000D01*
X161798000Y-66040000D02*
X160274000Y-64516000D01*
D41*
X146050000Y-107950000D02*
X140542000Y-107950000D01*
X136485000Y-110295000D02*
X138197000Y-110295000D01*
X138197000Y-110295000D02*
X140542000Y-107950000D01*
X142875000Y-111760000D02*
X144145000Y-110490000D01*
X144145000Y-110490000D02*
X146050000Y-110490000D01*
X142875000Y-112395000D02*
X142875000Y-111760000D01*
X134741498Y-112395000D02*
X142875000Y-112395000D01*
X133985000Y-110295000D02*
X133985000Y-111638502D01*
X133985000Y-111638502D02*
X134741498Y-112395000D01*
D43*
X179070000Y-64770000D02*
X179832000Y-64770000D01*
X184470000Y-69530000D02*
X184470000Y-70485000D01*
X184658000Y-69342000D02*
X184470000Y-69530000D01*
X184658000Y-67310000D02*
X184658000Y-69342000D01*
X183388000Y-66040000D02*
X184658000Y-67310000D01*
X181102000Y-66040000D02*
X183388000Y-66040000D01*
X179832000Y-64770000D02*
X181102000Y-66040000D01*
D42*
X184470000Y-70485000D02*
X184470000Y-70170000D01*
X180660000Y-70485000D02*
X180660000Y-67630000D01*
X180660000Y-67630000D02*
X180340000Y-67310000D01*
D40*
X141920000Y-78740000D02*
X141920000Y-84140000D01*
X137160000Y-83820000D02*
X137160000Y-82380000D01*
X137795000Y-84455000D02*
X137160000Y-83820000D01*
X141605000Y-84455000D02*
X137795000Y-84455000D01*
X141920000Y-84140000D02*
X141605000Y-84455000D01*
X139065000Y-86045000D02*
X138115000Y-86045000D01*
X136845000Y-84775000D02*
X135890000Y-84775000D01*
X138115000Y-86045000D02*
X136845000Y-84775000D01*
X135890000Y-84775000D02*
X135890000Y-82700000D01*
X135890000Y-82700000D02*
X136210000Y-82380000D01*
D42*
X165100000Y-73345000D02*
X163375000Y-73345000D01*
X163375000Y-73345000D02*
X161325000Y-71295000D01*
X161325000Y-77095000D02*
X163250000Y-77095000D01*
X163250000Y-77095000D02*
X165100000Y-75245000D01*
D41*
X157800000Y-85090000D02*
X157800000Y-82380000D01*
X157800000Y-88900000D02*
X157800000Y-85090000D01*
D42*
X165420000Y-114935000D02*
X165420000Y-111826000D01*
X164933000Y-109895000D02*
X165720001Y-109895000D01*
X164592000Y-110236000D02*
X164933000Y-109895000D01*
X164592000Y-110998000D02*
X164592000Y-110236000D01*
X165420000Y-111826000D02*
X164592000Y-110998000D01*
X167955000Y-118745000D02*
X167955000Y-117470000D01*
X167955000Y-117470000D02*
X165420000Y-114935000D01*
X167320000Y-114935000D02*
X167320000Y-111994999D01*
X167320000Y-111994999D02*
X165720001Y-110395000D01*
X154850000Y-107950000D02*
X156120000Y-107950000D01*
X157621000Y-106045000D02*
X161905000Y-106045000D01*
X161905000Y-106045000D02*
X162875000Y-107015000D01*
X162875000Y-107015000D02*
X162875000Y-107315000D01*
X156120000Y-107950000D02*
X156120000Y-107546000D01*
X156120000Y-107546000D02*
X157621000Y-106045000D01*
X162875000Y-107315000D02*
X163479000Y-107315000D01*
X163479000Y-107315000D02*
X163559000Y-107395000D01*
X163559000Y-107395000D02*
X165021501Y-107395000D01*
X165021501Y-107395000D02*
X165720001Y-107395000D01*
X156122078Y-110490000D02*
X154850000Y-110490000D01*
X161925000Y-114292922D02*
X161925000Y-109862078D01*
X161925000Y-109862078D02*
X163892078Y-107895000D01*
X163892078Y-107895000D02*
X165021501Y-107895000D01*
X165021501Y-107895000D02*
X165720001Y-107895000D01*
X156120000Y-110490000D02*
X156122078Y-110490000D01*
X156122078Y-110490000D02*
X160567078Y-114935000D01*
X160567078Y-114935000D02*
X161282922Y-114935000D01*
X161282922Y-114935000D02*
X161925000Y-114292922D01*
X165720001Y-107895000D02*
X166418501Y-107895000D01*
X166443902Y-104848902D02*
X166370000Y-104775000D01*
X166418501Y-107895000D02*
X166443902Y-107869599D01*
X166443902Y-107869599D02*
X166443902Y-104848902D01*
X166370000Y-104775000D02*
X162875000Y-104775000D01*
X162875000Y-105095000D02*
X162875000Y-104775000D01*
D43*
X172720000Y-67310000D02*
X172720000Y-69850000D01*
X172085000Y-70485000D02*
X172085000Y-71595000D01*
X172720000Y-69850000D02*
X172085000Y-70485000D01*
X171450000Y-64770000D02*
X171450000Y-69850000D01*
X170815000Y-70485000D02*
X170815000Y-71595000D01*
X171450000Y-69850000D02*
X170815000Y-70485000D01*
X182880000Y-67310000D02*
X182880000Y-68072000D01*
X175156000Y-84836000D02*
X173820000Y-83500000D01*
X176022000Y-84836000D02*
X175156000Y-84836000D01*
X176530000Y-84328000D02*
X176022000Y-84836000D01*
X181610000Y-72390000D02*
X179832000Y-74168000D01*
X181610000Y-69342000D02*
X181610000Y-72390000D01*
X182880000Y-68072000D02*
X181610000Y-69342000D01*
D42*
X158785000Y-77095000D02*
X158785000Y-77984000D01*
X158785000Y-77984000D02*
X157800000Y-78969000D01*
X157800000Y-78969000D02*
X157800000Y-79396000D01*
X157800000Y-79396000D02*
X157800000Y-80180000D01*
M02*
