G04 #@! TF.FileFunction,Paste,Top*
%FSLAX46Y46*%
G04 Gerber Fmt 4.6, Leading zero omitted, Abs format (unit mm)*
G04 Created by KiCad (PCBNEW 4.0.7-e2-6376~58~ubuntu14.04.1) date Thu Feb  8 20:55:41 2018*
%MOMM*%
%LPD*%
G01*
G04 APERTURE LIST*
%ADD10C,0.100000*%
%ADD11R,1.200000X0.300000*%
%ADD12R,0.889000X0.305000*%
%ADD13R,1.600000X1.000000*%
%ADD14R,1.000000X1.250000*%
%ADD15R,1.250000X1.000000*%
%ADD16R,1.200000X1.200000*%
%ADD17R,2.159000X1.778000*%
%ADD18R,2.500000X0.900000*%
%ADD19R,8.200000X3.300000*%
%ADD20R,0.900000X0.800000*%
%ADD21R,0.700000X1.300000*%
%ADD22R,1.300000X0.700000*%
%ADD23R,0.800000X0.900000*%
%ADD24R,0.600000X1.550000*%
%ADD25R,0.650000X1.060000*%
%ADD26R,1.060000X0.650000*%
%ADD27R,0.490000X1.270000*%
G04 APERTURE END LIST*
D10*
D11*
X154850000Y-116840000D03*
X146050000Y-107950000D03*
X146050000Y-109220000D03*
X146050000Y-110490000D03*
X146050000Y-111760000D03*
X146050000Y-113030000D03*
X146050000Y-114300000D03*
X146050000Y-115570000D03*
X146050000Y-116840000D03*
X154850000Y-115570000D03*
X154850000Y-114300000D03*
X154850000Y-113030000D03*
X154850000Y-111760000D03*
X154850000Y-110490000D03*
X154850000Y-109220000D03*
X154850000Y-107950000D03*
D12*
X169820000Y-110395000D03*
X169820000Y-109895000D03*
X169820000Y-109395000D03*
X169820000Y-108895000D03*
X169820000Y-108395000D03*
X169820000Y-107895000D03*
X169820000Y-107395000D03*
X169820000Y-106895000D03*
X165720001Y-106895000D03*
X165720001Y-107395000D03*
X165720001Y-107895000D03*
X165720001Y-108395000D03*
X165720001Y-108895000D03*
X165720001Y-109395000D03*
X165720001Y-109895000D03*
X165720001Y-110395000D03*
D13*
X139065000Y-74525000D03*
X139065000Y-71525000D03*
D14*
X192770000Y-78740000D03*
X190770000Y-78740000D03*
X189500000Y-76200000D03*
X191500000Y-76200000D03*
D15*
X168275000Y-79645000D03*
X168275000Y-81645000D03*
X140335000Y-82915000D03*
X140335000Y-80915000D03*
X135890000Y-89170000D03*
X135890000Y-91170000D03*
X191135000Y-85360000D03*
X191135000Y-87360000D03*
D14*
X186960000Y-89535000D03*
X188960000Y-89535000D03*
X197850000Y-71755000D03*
X195850000Y-71755000D03*
X173625000Y-111125000D03*
X175625000Y-111125000D03*
X173625000Y-115570000D03*
X175625000Y-115570000D03*
X160925000Y-110490000D03*
X162925000Y-110490000D03*
X160925000Y-113665000D03*
X162925000Y-113665000D03*
D16*
X129540000Y-79205000D03*
X129540000Y-77005000D03*
X130980000Y-91440000D03*
X133180000Y-91440000D03*
X141605000Y-91310000D03*
X141605000Y-94110000D03*
D17*
X128270000Y-70358000D03*
X128270000Y-74422000D03*
D16*
X170815000Y-89705000D03*
X170815000Y-91905000D03*
X174625000Y-89705000D03*
X174625000Y-91905000D03*
X178435000Y-89705000D03*
X178435000Y-91905000D03*
X163830000Y-82720000D03*
X163830000Y-84920000D03*
D18*
X134620000Y-71575000D03*
X134620000Y-74475000D03*
D10*
G36*
X177523666Y-81795445D02*
X177134757Y-81406536D01*
X178266128Y-80275165D01*
X178655037Y-80664074D01*
X177523666Y-81795445D01*
X177523666Y-81795445D01*
G37*
G36*
X178089352Y-82361130D02*
X177700443Y-81972221D01*
X178831814Y-80840850D01*
X179220723Y-81229759D01*
X178089352Y-82361130D01*
X178089352Y-82361130D01*
G37*
G36*
X178655037Y-82926816D02*
X178266128Y-82537907D01*
X179397499Y-81406536D01*
X179786408Y-81795445D01*
X178655037Y-82926816D01*
X178655037Y-82926816D01*
G37*
G36*
X179220722Y-83492501D02*
X178831813Y-83103592D01*
X179963184Y-81972221D01*
X180352093Y-82361130D01*
X179220722Y-83492501D01*
X179220722Y-83492501D01*
G37*
G36*
X179786408Y-84058187D02*
X179397499Y-83669278D01*
X180528870Y-82537907D01*
X180917779Y-82926816D01*
X179786408Y-84058187D01*
X179786408Y-84058187D01*
G37*
G36*
X180352093Y-84623872D02*
X179963184Y-84234963D01*
X181094555Y-83103592D01*
X181483464Y-83492501D01*
X180352093Y-84623872D01*
X180352093Y-84623872D01*
G37*
G36*
X180917779Y-85189557D02*
X180528870Y-84800648D01*
X181660241Y-83669277D01*
X182049150Y-84058186D01*
X180917779Y-85189557D01*
X180917779Y-85189557D01*
G37*
G36*
X181483464Y-85755243D02*
X181094555Y-85366334D01*
X182225926Y-84234963D01*
X182614835Y-84623872D01*
X181483464Y-85755243D01*
X181483464Y-85755243D01*
G37*
G36*
X184665445Y-85366334D02*
X184276536Y-85755243D01*
X183145165Y-84623872D01*
X183534074Y-84234963D01*
X184665445Y-85366334D01*
X184665445Y-85366334D01*
G37*
G36*
X185231130Y-84800648D02*
X184842221Y-85189557D01*
X183710850Y-84058186D01*
X184099759Y-83669277D01*
X185231130Y-84800648D01*
X185231130Y-84800648D01*
G37*
G36*
X185796816Y-84234963D02*
X185407907Y-84623872D01*
X184276536Y-83492501D01*
X184665445Y-83103592D01*
X185796816Y-84234963D01*
X185796816Y-84234963D01*
G37*
G36*
X186362501Y-83669278D02*
X185973592Y-84058187D01*
X184842221Y-82926816D01*
X185231130Y-82537907D01*
X186362501Y-83669278D01*
X186362501Y-83669278D01*
G37*
G36*
X186928187Y-83103592D02*
X186539278Y-83492501D01*
X185407907Y-82361130D01*
X185796816Y-81972221D01*
X186928187Y-83103592D01*
X186928187Y-83103592D01*
G37*
G36*
X187493872Y-82537907D02*
X187104963Y-82926816D01*
X185973592Y-81795445D01*
X186362501Y-81406536D01*
X187493872Y-82537907D01*
X187493872Y-82537907D01*
G37*
G36*
X188059557Y-81972221D02*
X187670648Y-82361130D01*
X186539277Y-81229759D01*
X186928186Y-80840850D01*
X188059557Y-81972221D01*
X188059557Y-81972221D01*
G37*
G36*
X188625243Y-81406536D02*
X188236334Y-81795445D01*
X187104963Y-80664074D01*
X187493872Y-80275165D01*
X188625243Y-81406536D01*
X188625243Y-81406536D01*
G37*
G36*
X187493872Y-79744835D02*
X187104963Y-79355926D01*
X188236334Y-78224555D01*
X188625243Y-78613464D01*
X187493872Y-79744835D01*
X187493872Y-79744835D01*
G37*
G36*
X186928186Y-79179150D02*
X186539277Y-78790241D01*
X187670648Y-77658870D01*
X188059557Y-78047779D01*
X186928186Y-79179150D01*
X186928186Y-79179150D01*
G37*
G36*
X186362501Y-78613464D02*
X185973592Y-78224555D01*
X187104963Y-77093184D01*
X187493872Y-77482093D01*
X186362501Y-78613464D01*
X186362501Y-78613464D01*
G37*
G36*
X185796816Y-78047779D02*
X185407907Y-77658870D01*
X186539278Y-76527499D01*
X186928187Y-76916408D01*
X185796816Y-78047779D01*
X185796816Y-78047779D01*
G37*
G36*
X185231130Y-77482093D02*
X184842221Y-77093184D01*
X185973592Y-75961813D01*
X186362501Y-76350722D01*
X185231130Y-77482093D01*
X185231130Y-77482093D01*
G37*
G36*
X184665445Y-76916408D02*
X184276536Y-76527499D01*
X185407907Y-75396128D01*
X185796816Y-75785037D01*
X184665445Y-76916408D01*
X184665445Y-76916408D01*
G37*
G36*
X184099759Y-76350723D02*
X183710850Y-75961814D01*
X184842221Y-74830443D01*
X185231130Y-75219352D01*
X184099759Y-76350723D01*
X184099759Y-76350723D01*
G37*
G36*
X183534074Y-75785037D02*
X183145165Y-75396128D01*
X184276536Y-74264757D01*
X184665445Y-74653666D01*
X183534074Y-75785037D01*
X183534074Y-75785037D01*
G37*
G36*
X182614835Y-75396128D02*
X182225926Y-75785037D01*
X181094555Y-74653666D01*
X181483464Y-74264757D01*
X182614835Y-75396128D01*
X182614835Y-75396128D01*
G37*
G36*
X182049150Y-75961814D02*
X181660241Y-76350723D01*
X180528870Y-75219352D01*
X180917779Y-74830443D01*
X182049150Y-75961814D01*
X182049150Y-75961814D01*
G37*
G36*
X181483464Y-76527499D02*
X181094555Y-76916408D01*
X179963184Y-75785037D01*
X180352093Y-75396128D01*
X181483464Y-76527499D01*
X181483464Y-76527499D01*
G37*
G36*
X180917779Y-77093184D02*
X180528870Y-77482093D01*
X179397499Y-76350722D01*
X179786408Y-75961813D01*
X180917779Y-77093184D01*
X180917779Y-77093184D01*
G37*
G36*
X180352093Y-77658870D02*
X179963184Y-78047779D01*
X178831813Y-76916408D01*
X179220722Y-76527499D01*
X180352093Y-77658870D01*
X180352093Y-77658870D01*
G37*
G36*
X179786408Y-78224555D02*
X179397499Y-78613464D01*
X178266128Y-77482093D01*
X178655037Y-77093184D01*
X179786408Y-78224555D01*
X179786408Y-78224555D01*
G37*
G36*
X179220723Y-78790241D02*
X178831814Y-79179150D01*
X177700443Y-78047779D01*
X178089352Y-77658870D01*
X179220723Y-78790241D01*
X179220723Y-78790241D01*
G37*
G36*
X178655037Y-79355926D02*
X178266128Y-79744835D01*
X177134757Y-78613464D01*
X177523666Y-78224555D01*
X178655037Y-79355926D01*
X178655037Y-79355926D01*
G37*
D19*
X130175000Y-82740000D03*
X130175000Y-87440000D03*
D20*
X150275000Y-95565000D03*
X150275000Y-93665000D03*
X148175000Y-94615000D03*
D21*
X134935000Y-76835000D03*
X133035000Y-76835000D03*
X186370000Y-70485000D03*
X184470000Y-70485000D03*
X182560000Y-70485000D03*
X180660000Y-70485000D03*
X140020000Y-78740000D03*
X141920000Y-78740000D03*
X191450000Y-73660000D03*
X189550000Y-73660000D03*
D22*
X139065000Y-86045000D03*
X139065000Y-87945000D03*
X135890000Y-84775000D03*
X135890000Y-86675000D03*
D21*
X126685000Y-91440000D03*
X128585000Y-91440000D03*
D23*
X176750000Y-72390000D03*
X178850000Y-72390000D03*
D22*
X170815000Y-94935000D03*
X170815000Y-96835000D03*
X174625000Y-94935000D03*
X174625000Y-96835000D03*
X178435000Y-94935000D03*
X178435000Y-96835000D03*
X165100000Y-73345000D03*
X165100000Y-75245000D03*
D21*
X159700000Y-85090000D03*
X157800000Y-85090000D03*
X157800000Y-88900000D03*
X159700000Y-88900000D03*
X163515000Y-80010000D03*
X165415000Y-80010000D03*
D22*
X175260000Y-103185000D03*
X175260000Y-101285000D03*
D21*
X165420000Y-114935000D03*
X167320000Y-114935000D03*
X166055000Y-118745000D03*
X167955000Y-118745000D03*
X162875000Y-107315000D03*
X160975000Y-107315000D03*
X160975000Y-104775000D03*
X162875000Y-104775000D03*
D24*
X169545000Y-76995000D03*
X170815000Y-76995000D03*
X172085000Y-76995000D03*
X173355000Y-76995000D03*
X173355000Y-71595000D03*
X172085000Y-71595000D03*
X170815000Y-71595000D03*
X169545000Y-71595000D03*
D25*
X138110000Y-80180000D03*
X137160000Y-80180000D03*
X136210000Y-80180000D03*
X136210000Y-82380000D03*
X138110000Y-82380000D03*
X137160000Y-82380000D03*
D26*
X171620000Y-81600000D03*
X171620000Y-82550000D03*
X171620000Y-83500000D03*
X173820000Y-83500000D03*
X173820000Y-81600000D03*
D27*
X161325000Y-71295000D03*
X160055000Y-71295000D03*
X158785000Y-71295000D03*
X157515000Y-71295000D03*
X157515000Y-77095000D03*
X158785000Y-77095000D03*
X160055000Y-77095000D03*
X161325000Y-77095000D03*
D25*
X159700000Y-80180000D03*
X158750000Y-80180000D03*
X157800000Y-80180000D03*
X157800000Y-82380000D03*
X159700000Y-82380000D03*
D15*
X138430000Y-91075000D03*
X138430000Y-93075000D03*
X142875000Y-88630000D03*
X142875000Y-86630000D03*
D21*
X195585000Y-95250000D03*
X197485000Y-95250000D03*
M02*
