G04 #@! TF.FileFunction,Soldermask,Bot*
%FSLAX46Y46*%
G04 Gerber Fmt 4.6, Leading zero omitted, Abs format (unit mm)*
G04 Created by KiCad (PCBNEW 4.0.7-e2-6376~58~ubuntu14.04.1) date Thu Feb  8 20:55:41 2018*
%MOMM*%
%LPD*%
G01*
G04 APERTURE LIST*
%ADD10C,0.100000*%
%ADD11C,5.048200*%
%ADD12C,1.797000*%
%ADD13C,2.381000*%
%ADD14R,2.300000X2.300000*%
%ADD15C,2.300000*%
%ADD16C,2.000000*%
%ADD17C,2.200000*%
%ADD18R,2.127200X2.127200*%
%ADD19O,2.127200X2.127200*%
%ADD20C,1.700000*%
%ADD21C,2.124000*%
G04 APERTURE END LIST*
D10*
D11*
X196850000Y-116840000D03*
X128270000Y-66040000D03*
X128270000Y-115570000D03*
X196850000Y-66040000D03*
D12*
X155730000Y-66040000D03*
X152230000Y-66040000D03*
D13*
X153980000Y-68270000D03*
D12*
X159230000Y-66040000D03*
X162730000Y-66040000D03*
D14*
X136485000Y-110295000D03*
D15*
X133985000Y-110295000D03*
D16*
X136485000Y-117475000D03*
X133985000Y-117475000D03*
D17*
X153035000Y-90805000D03*
X153035000Y-80645000D03*
X153035000Y-73025000D03*
X145415000Y-90805000D03*
D18*
X189865000Y-65405000D03*
D19*
X192405000Y-65405000D03*
X189865000Y-67945000D03*
X192405000Y-67945000D03*
X189865000Y-70485000D03*
X192405000Y-70485000D03*
D20*
X175260000Y-67310000D03*
X172720000Y-67310000D03*
X170180000Y-67310000D03*
X177800000Y-67310000D03*
X171450000Y-64770000D03*
X173990000Y-64770000D03*
X176530000Y-64770000D03*
X179070000Y-64770000D03*
X180340000Y-67310000D03*
X181610000Y-64770000D03*
X182880000Y-67310000D03*
X184150000Y-64770000D03*
D12*
X138585000Y-66040000D03*
X135085000Y-66040000D03*
D13*
X136835000Y-68270000D03*
D12*
X142085000Y-66040000D03*
X145585000Y-66040000D03*
D21*
X197240000Y-76185000D03*
X197240000Y-79685000D03*
X197240000Y-83185000D03*
X197240000Y-86685000D03*
X197240000Y-90185000D03*
D16*
X195010000Y-77935000D03*
M02*
