M48
;DRILL file {KiCad 4.0.7-e2-6376~58~ubuntu14.04.1} date Thu Feb  8 20:59:49 2018
;FORMAT={-:-/ absolute / inch / decimal}
FMAT,2
INCH,TZ
T1C0.016
T2C0.031
T3C0.040
T4C0.040
T5C0.042
T6C0.047
T7C0.051
T8C0.063
T9C0.129
%
G90
G05
M72
T1
X5.02Y-3.03
X5.18Y-2.77
X5.35Y-3.65
X5.47Y-3.51
X5.48Y-3.15
X5.49Y-2.74
X5.9Y-3.6
X6.175Y-3.05
X6.24Y-2.89
X6.275Y-3.1
X6.275Y-3.45
X6.3Y-3.725
X6.3Y-4.15
X6.3Y-4.2
X6.34Y-3.13
X6.34Y-3.2
X6.35Y-3.8
X6.42Y-4.56
X6.5Y-3.35
X6.525Y-4.1
X6.525Y-4.15
X6.5728Y-4.2772
X6.575Y-2.925
X6.625Y-3.275
X6.65Y-3.8
X6.7Y-4.15
X6.725Y-3.1
X6.725Y-4.35
X6.75Y-3.325
X6.775Y-4.2
X6.85Y-2.76
X6.88Y-2.47
X6.89Y-3.28
X6.9Y-3.21
X6.92Y-4.63
X6.925Y-2.8
X6.925Y-3.5
X6.95Y-3.32
X7.Y-3.45
X7.05Y-2.975
X7.07Y-3.57
X7.075Y-3.1
X7.075Y-3.425
X7.075Y-3.475
X7.08Y-2.92
X7.125Y-3.425
X7.15Y-3.075
X7.175Y-3.05
X7.2Y-3.
X7.2Y-3.27
X7.25Y-3.075
X7.26Y-3.13
X7.27Y-3.43
X7.3Y-3.14
X7.33Y-3.13
X7.43Y-3.13
X7.5Y-3.15
X7.5Y-3.525
X7.575Y-2.925
X7.575Y-3.
X7.625Y-2.95
X7.675Y-2.875
X7.875Y-3.
T2
X6.7Y-2.65
X6.75Y-2.55
X6.8Y-2.65
X6.85Y-2.55
X6.9Y-2.65
X6.95Y-2.55
X7.Y-2.65
X7.05Y-2.55
X7.1Y-2.65
X7.15Y-2.55
X7.2Y-2.65
X7.25Y-2.55
T3
X7.475Y-2.575
X7.475Y-2.675
X7.475Y-2.775
X7.575Y-2.575
X7.575Y-2.675
X7.575Y-2.775
T4
X5.3183Y-2.6
X5.4561Y-2.6
X5.5939Y-2.6
X5.7317Y-2.6
X5.9933Y-2.6
X6.1311Y-2.6
X6.2689Y-2.6
X6.4067Y-2.6
T5
X7.7654Y-2.9994
X7.7654Y-3.1372
X7.7654Y-3.275
X7.7654Y-3.4128
X7.7654Y-3.5506
T6
X5.275Y-4.3423
X5.3734Y-4.3423
T7
X5.725Y-3.575
X6.025Y-2.875
X6.025Y-3.175
X6.025Y-3.575
T8
X5.3872Y-2.6878
X6.0622Y-2.6878
T9
X5.05Y-2.6
X5.05Y-4.55
X7.75Y-2.6
X7.75Y-4.6
T0
M30
