G04 #@! TF.FileFunction,Copper,L1,Top,Signal*
%FSLAX46Y46*%
G04 Gerber Fmt 4.6, Leading zero omitted, Abs format (unit mm)*
G04 Created by KiCad (PCBNEW 4.0.7-e2-6376~58~ubuntu16.04.1) date Wed Dec 20 20:17:26 2017*
%MOMM*%
%LPD*%
G01*
G04 APERTURE LIST*
%ADD10C,0.100000*%
%ADD11R,1.200000X1.200000*%
%ADD12C,1.300000*%
%ADD13R,1.250000X1.000000*%
%ADD14R,0.600000X1.550000*%
%ADD15R,1.300000X0.700000*%
%ADD16R,1.600000X1.000000*%
%ADD17R,1.000000X1.250000*%
%ADD18R,2.159000X1.778000*%
%ADD19R,2.500000X0.900000*%
%ADD20R,3.300000X8.200000*%
%ADD21R,1.727200X1.727200*%
%ADD22O,1.727200X1.727200*%
%ADD23R,0.800000X0.900000*%
%ADD24R,0.900000X0.800000*%
%ADD25R,0.700000X1.300000*%
%ADD26R,3.200000X1.000000*%
%ADD27R,0.650000X1.060000*%
%ADD28R,1.060000X0.650000*%
%ADD29R,0.230000X0.550000*%
%ADD30R,0.550000X0.230000*%
%ADD31R,2.150000X2.150000*%
%ADD32R,0.435000X0.435000*%
%ADD33R,1.400000X1.200000*%
%ADD34R,0.550000X1.600000*%
%ADD35R,1.600000X0.550000*%
%ADD36R,2.000000X3.800000*%
%ADD37R,2.000000X1.500000*%
%ADD38C,0.609600*%
%ADD39C,0.254000*%
%ADD40C,0.508000*%
%ADD41C,0.500000*%
%ADD42C,0.762000*%
%ADD43C,0.200000*%
G04 APERTURE END LIST*
D10*
D11*
X141546400Y-85191600D03*
X143746400Y-85191600D03*
D12*
X161112200Y-135813800D03*
X163652200Y-135813800D03*
X166192200Y-135813800D03*
X158572200Y-135813800D03*
X164922200Y-138353800D03*
X162382200Y-138353800D03*
X159842200Y-138353800D03*
X157302200Y-138353800D03*
X156032200Y-135813800D03*
X154762200Y-138353800D03*
X153492200Y-135813800D03*
X152222200Y-138353800D03*
X150952200Y-135813800D03*
X149682200Y-138353800D03*
X148412200Y-135813800D03*
X147142200Y-138353800D03*
X145872200Y-135813800D03*
X144602200Y-138353800D03*
X143332200Y-135813800D03*
X142062200Y-138353800D03*
D11*
X121742200Y-122943800D03*
X121742200Y-120743800D03*
D13*
X166827200Y-103063800D03*
X166827200Y-105063800D03*
D14*
X157302200Y-121048800D03*
X156032200Y-121048800D03*
X154762200Y-121048800D03*
X153492200Y-121048800D03*
X153492200Y-126448800D03*
X154762200Y-126448800D03*
X156032200Y-126448800D03*
X157302200Y-126448800D03*
D15*
X175717200Y-91043800D03*
X175717200Y-89143800D03*
D13*
X164668200Y-103063800D03*
X164668200Y-105063800D03*
X170637200Y-103063800D03*
X170637200Y-105063800D03*
D16*
X163017200Y-120978800D03*
X163017200Y-123978800D03*
D13*
X168732200Y-103063800D03*
X168732200Y-105063800D03*
D17*
X171002200Y-116763800D03*
X169002200Y-116763800D03*
X161985200Y-77012800D03*
X159985200Y-77012800D03*
D13*
X176352200Y-123383800D03*
X176352200Y-125383800D03*
D17*
X161985200Y-74853800D03*
X159985200Y-74853800D03*
X154397200Y-118668800D03*
X156397200Y-118668800D03*
X148142200Y-122605800D03*
X146142200Y-122605800D03*
D18*
X166763700Y-132194300D03*
X166763700Y-128130300D03*
D11*
X163017200Y-118498800D03*
X163017200Y-116298800D03*
X172956400Y-129997200D03*
X170756400Y-129997200D03*
X129362200Y-84548800D03*
X129362200Y-86748800D03*
X117932200Y-80738800D03*
X117932200Y-82938800D03*
X117932200Y-92168800D03*
X117932200Y-94368800D03*
X117932200Y-102328800D03*
X117932200Y-104528800D03*
X142062200Y-74388800D03*
X142062200Y-76588800D03*
X129362200Y-73753800D03*
X129362200Y-75953800D03*
X119837200Y-120743800D03*
X119837200Y-122943800D03*
X117932200Y-120743800D03*
X117932200Y-122943800D03*
D19*
X163423600Y-128500800D03*
X163423600Y-125600800D03*
D12*
X129362200Y-138353800D03*
X126822200Y-138353800D03*
X124282200Y-138353800D03*
X131902200Y-138353800D03*
X125552200Y-135813800D03*
X128092200Y-135813800D03*
X130632200Y-135813800D03*
X133172200Y-135813800D03*
X134442200Y-138353800D03*
X135712200Y-135813800D03*
D20*
X174637200Y-117398800D03*
X179337200Y-117398800D03*
D21*
X171272200Y-133273800D03*
D22*
X173812200Y-133273800D03*
X171272200Y-135813800D03*
X173812200Y-135813800D03*
X171272200Y-138353800D03*
X173812200Y-138353800D03*
D23*
X175651200Y-92980800D03*
X173751200Y-92980800D03*
X174701200Y-95080800D03*
D24*
X132757200Y-84698800D03*
X132757200Y-86598800D03*
X134857200Y-85648800D03*
X121327200Y-81523800D03*
X121327200Y-83423800D03*
X123427200Y-82473800D03*
X121962200Y-93588800D03*
X121962200Y-95488800D03*
X124062200Y-94538800D03*
X121327200Y-103113800D03*
X121327200Y-105013800D03*
X123427200Y-104063800D03*
X145457200Y-75173800D03*
X145457200Y-77073800D03*
X147557200Y-76123800D03*
X132757200Y-74538800D03*
X132757200Y-76438800D03*
X134857200Y-75488800D03*
D25*
X163078200Y-103174800D03*
X161178200Y-103174800D03*
D15*
X165557200Y-118983800D03*
X165557200Y-117083800D03*
X169621200Y-91043800D03*
X169621200Y-89143800D03*
X165557200Y-120893800D03*
X165557200Y-122793800D03*
D25*
X163078200Y-105079800D03*
X161178200Y-105079800D03*
D15*
X172542200Y-123433800D03*
X172542200Y-125333800D03*
X174447200Y-125333800D03*
X174447200Y-123433800D03*
D26*
X179146200Y-93193800D03*
X179146200Y-86993800D03*
D15*
X171780200Y-91043800D03*
X171780200Y-89143800D03*
D26*
X179527200Y-129388800D03*
X179527200Y-123188800D03*
D15*
X173812200Y-89143800D03*
X173812200Y-91043800D03*
D25*
X176718000Y-130048000D03*
X174818000Y-130048000D03*
D15*
X131267200Y-84693800D03*
X131267200Y-82793800D03*
X119837200Y-81518800D03*
X119837200Y-79618800D03*
X131267200Y-85968800D03*
X131267200Y-87868800D03*
X119837200Y-82793800D03*
X119837200Y-84693800D03*
X136347200Y-87233800D03*
X136347200Y-85333800D03*
X125552200Y-84058800D03*
X125552200Y-82158800D03*
X119837200Y-92948800D03*
X119837200Y-91048800D03*
X119837200Y-103743800D03*
X119837200Y-101843800D03*
X119837200Y-94223800D03*
X119837200Y-96123800D03*
X119837200Y-105018800D03*
X119837200Y-106918800D03*
X126187200Y-96123800D03*
X126187200Y-94223800D03*
X125552200Y-103113800D03*
X125552200Y-105013800D03*
X143967200Y-75168800D03*
X143967200Y-73268800D03*
X131267200Y-75168800D03*
X131267200Y-73268800D03*
X143967200Y-76443800D03*
X143967200Y-78343800D03*
X131267200Y-76443800D03*
X131267200Y-78343800D03*
X149682200Y-75173800D03*
X149682200Y-77073800D03*
X136982200Y-74538800D03*
X136982200Y-76438800D03*
X119837200Y-117083800D03*
X119837200Y-118983800D03*
X117932200Y-117083800D03*
X117932200Y-118983800D03*
X121742200Y-117083800D03*
X121742200Y-118983800D03*
D25*
X147965200Y-120700800D03*
X146065200Y-120700800D03*
X147965200Y-118795800D03*
X146065200Y-118795800D03*
D27*
X167396200Y-88993800D03*
X166446200Y-88993800D03*
X165496200Y-88993800D03*
X165496200Y-91193800D03*
X167396200Y-91193800D03*
D28*
X168902200Y-118988800D03*
X168902200Y-119938800D03*
X168902200Y-120888800D03*
X171102200Y-120888800D03*
X171102200Y-118988800D03*
X171102200Y-119938800D03*
D29*
X135442200Y-118213800D03*
X134942200Y-118213800D03*
X134442200Y-118213800D03*
X133942200Y-118213800D03*
X133442200Y-118213800D03*
D30*
X132717200Y-118938800D03*
X132717200Y-119438800D03*
X132717200Y-119938800D03*
X132717200Y-120438800D03*
X132717200Y-120938800D03*
D29*
X133442200Y-121663800D03*
X133942200Y-121663800D03*
X134442200Y-121663800D03*
X134942200Y-121663800D03*
X135442200Y-121663800D03*
D30*
X136167200Y-120938800D03*
X136167200Y-120438800D03*
X136167200Y-119938800D03*
X136167200Y-119438800D03*
X136167200Y-118938800D03*
D31*
X134442200Y-119938800D03*
D32*
X136044700Y-118336300D03*
D33*
X153322200Y-103263800D03*
X151122200Y-103263800D03*
X151122200Y-104863800D03*
X153322200Y-104863800D03*
D34*
X142030800Y-101278000D03*
X142830800Y-101278000D03*
X143630800Y-101278000D03*
X144430800Y-101278000D03*
X145230800Y-101278000D03*
X146030800Y-101278000D03*
X146830800Y-101278000D03*
X147630800Y-101278000D03*
D35*
X149080800Y-99828000D03*
X149080800Y-99028000D03*
X149080800Y-98228000D03*
X149080800Y-97428000D03*
X149080800Y-96628000D03*
X149080800Y-95828000D03*
X149080800Y-95028000D03*
X149080800Y-94228000D03*
D34*
X147630800Y-92778000D03*
X146830800Y-92778000D03*
X146030800Y-92778000D03*
X145230800Y-92778000D03*
X144430800Y-92778000D03*
X143630800Y-92778000D03*
X142830800Y-92778000D03*
X142030800Y-92778000D03*
D35*
X140580800Y-94228000D03*
X140580800Y-95028000D03*
X140580800Y-95828000D03*
X140580800Y-96628000D03*
X140580800Y-97428000D03*
X140580800Y-98228000D03*
X140580800Y-99028000D03*
X140580800Y-99828000D03*
D36*
X170612200Y-75996800D03*
D37*
X164312200Y-75996800D03*
X164312200Y-78296800D03*
X164312200Y-73696800D03*
D25*
X134503200Y-114503200D03*
X132603200Y-114503200D03*
D11*
X149334400Y-84836000D03*
X147134400Y-84836000D03*
D15*
X131368800Y-102753200D03*
X131368800Y-100853200D03*
X133400800Y-102753200D03*
X133400800Y-100853200D03*
D25*
X147132000Y-86715600D03*
X149032000Y-86715600D03*
X143596400Y-87122000D03*
X141696400Y-87122000D03*
D38*
X138760200Y-98602800D03*
X142062200Y-99047300D03*
X175780700Y-101142800D03*
X173558200Y-101142800D03*
X147523200Y-99809300D03*
X151015700Y-100253800D03*
X142646400Y-85191600D03*
X148234400Y-84836000D03*
X145034000Y-123952000D03*
X170789600Y-128524000D03*
X129794000Y-88138000D03*
X118211600Y-106883200D03*
X121310400Y-84836000D03*
X142494000Y-78282800D03*
X135077200Y-115824000D03*
X167335200Y-130543300D03*
X172478700Y-137083800D03*
X119837200Y-124510800D03*
X157175200Y-124891800D03*
X155397200Y-118605300D03*
X151333200Y-101968300D03*
X127838200Y-75933300D03*
X174574200Y-93967300D03*
X173812200Y-87998300D03*
X166573200Y-90284300D03*
X166827200Y-106349800D03*
X117932200Y-105905300D03*
X117741700Y-95681800D03*
X172542200Y-124383800D03*
X163017200Y-122478800D03*
X161429700Y-116128800D03*
X170002200Y-119303800D03*
X162382200Y-73075800D03*
X145237200Y-99618800D03*
X145237200Y-91236800D03*
X130378200Y-79552800D03*
X121996200Y-96824800D03*
X118059200Y-84378800D03*
X160096200Y-95681800D03*
X161112200Y-99999800D03*
X152882419Y-100426916D03*
X151269700Y-98920300D03*
X138785600Y-110693200D03*
X143205200Y-113690400D03*
X127139700Y-90665300D03*
X126377700Y-88379300D03*
X167843200Y-87807800D03*
X169113200Y-87172800D03*
X125171200Y-92633800D03*
X125171200Y-89839800D03*
X142138400Y-115062000D03*
X138125200Y-113398300D03*
X160528000Y-129844800D03*
X157886400Y-132486400D03*
X137998200Y-115747800D03*
X136982200Y-118033800D03*
X138506200Y-119557800D03*
X139395200Y-117398800D03*
X151587200Y-117017800D03*
X151282400Y-115265200D03*
X155295600Y-133197600D03*
X154228800Y-133604000D03*
X161391600Y-133299200D03*
X146848960Y-107628468D03*
X140919200Y-106984800D03*
X154686000Y-96570800D03*
X154736800Y-99872800D03*
X150672800Y-114706400D03*
X150723600Y-116992400D03*
X153670000Y-81381600D03*
X150825200Y-85750400D03*
X126060200Y-89585800D03*
X126060200Y-90855800D03*
X140919200Y-105410000D03*
X146405600Y-106222800D03*
X137871200Y-116763800D03*
X137236200Y-120065800D03*
X118313200Y-109728000D03*
X116078000Y-110642400D03*
X146964400Y-103327200D03*
X140919200Y-103733600D03*
X130708400Y-112776000D03*
X131216400Y-114503200D03*
X141833600Y-124104400D03*
X137922000Y-125425200D03*
X137871200Y-124637800D03*
X141099037Y-122760799D03*
X138938000Y-109524800D03*
X143814800Y-113080800D03*
X138480800Y-108915200D03*
X144322800Y-112471200D03*
X160477200Y-128828800D03*
X157226000Y-131978400D03*
X138023600Y-108305600D03*
X131572000Y-93827600D03*
X144221200Y-111709200D03*
X131572000Y-96062800D03*
X157886400Y-101955600D03*
X157835600Y-94792800D03*
X129946400Y-118160800D03*
X132473700Y-118160800D03*
X140970000Y-121615200D03*
X136855200Y-124510800D03*
X146253200Y-104343200D03*
X143205200Y-105206800D03*
X138836400Y-120294400D03*
X140055600Y-118211600D03*
D39*
X139209430Y-101684170D02*
X139209430Y-107916630D01*
X121754900Y-111861600D02*
X121310400Y-112306100D01*
X139141200Y-111861600D02*
X121754900Y-111861600D01*
X140055600Y-110947200D02*
X139141200Y-111861600D01*
X140055600Y-108762800D02*
X140055600Y-110947200D01*
X139209430Y-107916630D02*
X140055600Y-108762800D01*
X137922000Y-100396740D02*
X137922000Y-100177600D01*
X139209430Y-101684170D02*
X137922000Y-100396740D01*
X144145000Y-105918000D02*
X144145000Y-105740200D01*
X144678400Y-102558800D02*
X144430800Y-102311200D01*
X144678400Y-105206800D02*
X144678400Y-102558800D01*
X144145000Y-105740200D02*
X144678400Y-105206800D01*
X144145000Y-110159800D02*
X144145000Y-105918000D01*
X144430800Y-102311200D02*
X144430800Y-101278000D01*
X158318200Y-129082800D02*
X158318200Y-130683000D01*
X158318200Y-130683000D02*
X159512000Y-131876800D01*
X148513800Y-114884200D02*
X144627600Y-110998000D01*
X144627600Y-110642400D02*
X144145000Y-110159800D01*
X144627600Y-110998000D02*
X144627600Y-110642400D01*
X150063200Y-116382800D02*
X150012400Y-116382800D01*
X154127200Y-118668800D02*
X151841200Y-116382800D01*
X150063200Y-116382800D02*
X151841200Y-116382800D01*
X148513800Y-114884200D02*
X150012400Y-116382800D01*
X162382200Y-138353800D02*
X162382200Y-138404600D01*
X162382200Y-138404600D02*
X161493200Y-139293600D01*
X161493200Y-139293600D02*
X159207200Y-139293600D01*
X159207200Y-139293600D02*
X158597600Y-138684000D01*
X158597600Y-138684000D02*
X158597600Y-137312400D01*
X158597600Y-137312400D02*
X159512000Y-136398000D01*
X159512000Y-136398000D02*
X159512000Y-131876800D01*
X162382200Y-138353800D02*
X161874200Y-138353800D01*
X117932200Y-115684300D02*
X121310400Y-112306100D01*
X117932200Y-117083800D02*
X117932200Y-115684300D01*
X138760200Y-98602800D02*
X138277600Y-98602800D01*
X142951200Y-99047300D02*
X143903700Y-99047300D01*
X144475200Y-99618800D02*
X144475200Y-101233600D01*
X143903700Y-99047300D02*
X144475200Y-99618800D01*
X142062200Y-99047300D02*
X142951200Y-99047300D01*
X138277600Y-98602800D02*
X137922000Y-98958400D01*
X137922000Y-98958400D02*
X137922000Y-100177600D01*
X173812200Y-133273800D02*
X174523400Y-133273800D01*
X174523400Y-133273800D02*
X176718000Y-131079200D01*
X176718000Y-131079200D02*
X176718000Y-130048000D01*
X179527200Y-129388800D02*
X177377200Y-129388800D01*
X177377200Y-129388800D02*
X176718000Y-130048000D01*
X164668200Y-103063800D02*
X164668200Y-102349300D01*
X182321200Y-126594800D02*
X179527200Y-129388800D01*
X182321200Y-107683300D02*
X182321200Y-126594800D01*
X175780700Y-101142800D02*
X182321200Y-107683300D01*
X170637200Y-101142800D02*
X173558200Y-101142800D01*
X169684700Y-102095300D02*
X170637200Y-101142800D01*
X169684700Y-103682800D02*
X169684700Y-102095300D01*
X169240200Y-104127300D02*
X169684700Y-103682800D01*
X166192200Y-104127300D02*
X169240200Y-104127300D01*
X165747700Y-103682800D02*
X166192200Y-104127300D01*
X165747700Y-102158800D02*
X165747700Y-103682800D01*
X165493700Y-101904800D02*
X165747700Y-102158800D01*
X165112700Y-101904800D02*
X165493700Y-101904800D01*
X164668200Y-102349300D02*
X165112700Y-101904800D01*
X162128200Y-138099800D02*
X162382200Y-138353800D01*
X158064200Y-124002800D02*
X156667200Y-122605800D01*
X156667200Y-122605800D02*
X155143200Y-122605800D01*
X155143200Y-122605800D02*
X154762200Y-122224800D01*
X154762200Y-122224800D02*
X154762200Y-121048800D01*
X158318200Y-128003300D02*
X158318200Y-124256800D01*
X158318200Y-124256800D02*
X158064200Y-124002800D01*
X158318200Y-129082800D02*
X158318200Y-128003300D01*
X162128200Y-138099800D02*
X162382200Y-138353800D01*
X173812200Y-133273800D02*
X173812200Y-132638800D01*
X163078200Y-103174800D02*
X163078200Y-100695800D01*
X144430800Y-99345700D02*
X144430800Y-101278000D01*
X144983200Y-98793300D02*
X144430800Y-99345700D01*
X146507200Y-98793300D02*
X144983200Y-98793300D01*
X147523200Y-99809300D02*
X146507200Y-98793300D01*
X151841200Y-100253800D02*
X151015700Y-100253800D01*
X152920700Y-99174300D02*
X151841200Y-100253800D01*
X161556700Y-99174300D02*
X152920700Y-99174300D01*
X163078200Y-100695800D02*
X161556700Y-99174300D01*
X144475200Y-101233600D02*
X144430800Y-101278000D01*
X164668200Y-103063800D02*
X163189200Y-103063800D01*
X163189200Y-103063800D02*
X163078200Y-103174800D01*
X163078200Y-103174800D02*
X163078200Y-105079800D01*
X163078200Y-105079800D02*
X163078200Y-105648800D01*
X164811200Y-103174800D02*
X164922200Y-103063800D01*
X154762200Y-121048800D02*
X154762200Y-119033800D01*
X154762200Y-119033800D02*
X154397200Y-118668800D01*
X154397200Y-118668800D02*
X154127200Y-118668800D01*
X173812200Y-133273800D02*
X174447200Y-133273800D01*
X144430800Y-101278000D02*
X144430800Y-101949200D01*
X143746400Y-85191600D02*
X142646400Y-85191600D01*
X147134400Y-84836000D02*
X148234400Y-84836000D01*
X146142200Y-122605800D02*
X146142200Y-122843800D01*
X146142200Y-122843800D02*
X145034000Y-123952000D01*
X170756400Y-129997200D02*
X170756400Y-128557200D01*
X170756400Y-128557200D02*
X170789600Y-128524000D01*
X159985200Y-77012800D02*
X159985200Y-74853800D01*
X131267200Y-87868800D02*
X130063200Y-87868800D01*
X130063200Y-87868800D02*
X129794000Y-88138000D01*
X119837200Y-106918800D02*
X118247200Y-106918800D01*
X118247200Y-106918800D02*
X118211600Y-106883200D01*
X119837200Y-84693800D02*
X121168200Y-84693800D01*
X121168200Y-84693800D02*
X121310400Y-84836000D01*
X143967200Y-78343800D02*
X142555000Y-78343800D01*
X142555000Y-78343800D02*
X142494000Y-78282800D01*
X134942200Y-118213800D02*
X134942200Y-115959000D01*
X134942200Y-115959000D02*
X135077200Y-115824000D01*
X166763700Y-132194300D02*
X166763700Y-131114800D01*
X166763700Y-131114800D02*
X167335200Y-130543300D01*
X173812200Y-138353800D02*
X173748700Y-138353800D01*
X173748700Y-138353800D02*
X172478700Y-137083800D01*
X173812200Y-138353800D02*
X173812200Y-137782300D01*
X173812200Y-138353800D02*
X173812200Y-137947398D01*
X134942200Y-118213800D02*
X134942200Y-119438800D01*
X134942200Y-119438800D02*
X134442200Y-119938800D01*
X121742200Y-120743800D02*
X121742200Y-121589800D01*
X119837200Y-122288300D02*
X119837200Y-122943800D01*
X120281700Y-121843800D02*
X119837200Y-122288300D01*
X121488200Y-121843800D02*
X120281700Y-121843800D01*
X121742200Y-121589800D02*
X121488200Y-121843800D01*
X119837200Y-122943800D02*
X119837200Y-124510800D01*
X157302200Y-126448800D02*
X157302200Y-125018800D01*
X157302200Y-125018800D02*
X157175200Y-124891800D01*
X156397200Y-118668800D02*
X155460700Y-118668800D01*
X155460700Y-118668800D02*
X155397200Y-118605300D01*
X156032200Y-121048800D02*
X156032200Y-119033800D01*
X156032200Y-119033800D02*
X156397200Y-118668800D01*
X151122200Y-103263800D02*
X151122200Y-102179300D01*
X151122200Y-102179300D02*
X151333200Y-101968300D01*
X129362200Y-75953800D02*
X127858700Y-75953800D01*
X127858700Y-75953800D02*
X127838200Y-75933300D01*
X173751200Y-92980800D02*
X173751200Y-93144300D01*
X173751200Y-93144300D02*
X174574200Y-93967300D01*
X173812200Y-89143800D02*
X173812200Y-87998300D01*
X169621200Y-91043800D02*
X167546200Y-91043800D01*
X167546200Y-91043800D02*
X167396200Y-91193800D01*
X167396200Y-91193800D02*
X167396200Y-91107300D01*
X167396200Y-91107300D02*
X166573200Y-90284300D01*
X166827200Y-105063800D02*
X166827200Y-106349800D01*
X117932200Y-104528800D02*
X117932200Y-105905300D01*
X117932200Y-94368800D02*
X117932200Y-95491300D01*
X117932200Y-95491300D02*
X117741700Y-95681800D01*
X131267200Y-87868800D02*
X131487200Y-87868800D01*
X131487200Y-87868800D02*
X132757200Y-86598800D01*
X129362200Y-86748800D02*
X130147200Y-86748800D01*
X130147200Y-86748800D02*
X131267200Y-87868800D01*
X164668200Y-105063800D02*
X166827200Y-105063800D01*
X168732200Y-105063800D02*
X166827200Y-105063800D01*
X170637200Y-105063800D02*
X168732200Y-105063800D01*
X175717200Y-89143800D02*
X173812200Y-89143800D01*
X172542200Y-125333800D02*
X172542200Y-124383800D01*
X163017200Y-123978800D02*
X163017200Y-122478800D01*
X163017200Y-116298800D02*
X161599700Y-116298800D01*
X161599700Y-116298800D02*
X161429700Y-116128800D01*
X168902200Y-118988800D02*
X169687200Y-118988800D01*
X169687200Y-118988800D02*
X170002200Y-119303800D01*
X172542200Y-125333800D02*
X172542200Y-126288800D01*
X176352200Y-126288800D02*
X176352200Y-125383800D01*
X175717200Y-126923800D02*
X176352200Y-126288800D01*
X173177200Y-126923800D02*
X175717200Y-126923800D01*
X172542200Y-126288800D02*
X173177200Y-126923800D01*
X164312200Y-73696800D02*
X161142200Y-73696800D01*
X161142200Y-73696800D02*
X159985200Y-74853800D01*
X164312200Y-73696800D02*
X163384200Y-73696800D01*
X163384200Y-73696800D02*
X162763200Y-73075800D01*
X162763200Y-73075800D02*
X162382200Y-73075800D01*
X163790200Y-74218800D02*
X164312200Y-73696800D01*
X145230800Y-101278000D02*
X145230800Y-99625200D01*
X145230800Y-99625200D02*
X145237200Y-99618800D01*
X145230800Y-92778000D02*
X145230800Y-91243200D01*
X145230800Y-91243200D02*
X145237200Y-91236800D01*
X131267200Y-78343800D02*
X131267200Y-78663800D01*
X131267200Y-78663800D02*
X130378200Y-79552800D01*
X143967200Y-78343800D02*
X143817200Y-78343800D01*
X143817200Y-78343800D02*
X142062200Y-76588800D01*
X145457200Y-77073800D02*
X145237200Y-77073800D01*
X145237200Y-77073800D02*
X143967200Y-78343800D01*
X121962200Y-95488800D02*
X120472200Y-95488800D01*
X120472200Y-95488800D02*
X119837200Y-96123800D01*
X121962200Y-95488800D02*
X121962200Y-96790800D01*
X121962200Y-96790800D02*
X121996200Y-96824800D01*
X121327200Y-83423800D02*
X121107200Y-83423800D01*
X121107200Y-83423800D02*
X119837200Y-84693800D01*
X117932200Y-82938800D02*
X117932200Y-84251800D01*
X117932200Y-84251800D02*
X118059200Y-84378800D01*
D40*
X117932200Y-122943800D02*
X119837200Y-122943800D01*
X117832200Y-122843800D02*
X117932200Y-122943800D01*
X151422200Y-103263800D02*
X151122200Y-103263800D01*
X119837200Y-106918800D02*
X121327200Y-105428800D01*
X121327200Y-105013800D02*
X121327200Y-105428800D01*
X119687200Y-96123800D02*
X119837200Y-96123800D01*
X132757200Y-76438800D02*
X132757200Y-76853800D01*
X132757200Y-76853800D02*
X131267200Y-78343800D01*
X151422200Y-103263800D02*
X153022200Y-104863800D01*
X153022200Y-104863800D02*
X153322200Y-104863800D01*
D41*
X118186200Y-122766000D02*
X118160800Y-122791400D01*
X141986000Y-76411000D02*
X142136000Y-76411000D01*
X117856000Y-104732000D02*
X118006000Y-104732000D01*
X117856000Y-93886200D02*
X118260000Y-93886200D01*
D39*
X151688800Y-86055200D02*
X151688800Y-82499200D01*
X150469600Y-81280000D02*
X147218400Y-81280000D01*
X151688800Y-82499200D02*
X150469600Y-81280000D01*
X151688800Y-91033600D02*
X151688800Y-86055200D01*
X145999200Y-81991200D02*
X145999200Y-87426800D01*
X146710400Y-81280000D02*
X145999200Y-81991200D01*
X147218400Y-81280000D02*
X146710400Y-81280000D01*
X145999200Y-87426800D02*
X145999200Y-92746400D01*
X145999200Y-92746400D02*
X146030800Y-92778000D01*
X145999200Y-92746400D02*
X146030800Y-92778000D01*
X159613600Y-95199200D02*
X159004000Y-95199200D01*
X156514800Y-95859600D02*
X151688800Y-91033600D01*
X158343600Y-95859600D02*
X156514800Y-95859600D01*
X159004000Y-95199200D02*
X158343600Y-95859600D01*
X161178200Y-103174800D02*
X161114700Y-100002300D01*
X160096200Y-95681800D02*
X159613600Y-95199200D01*
X161114700Y-100002300D02*
X161112200Y-99999800D01*
X170637200Y-103063800D02*
X171288200Y-103063800D01*
X162128200Y-104124800D02*
X161178200Y-103174800D01*
X162128200Y-105841800D02*
X162128200Y-104124800D01*
X163398200Y-107111800D02*
X162128200Y-105841800D01*
X170764200Y-107111800D02*
X163398200Y-107111800D01*
X172161200Y-105714800D02*
X170764200Y-107111800D01*
X172161200Y-103936800D02*
X172161200Y-105714800D01*
X171288200Y-103063800D02*
X172161200Y-103936800D01*
D42*
X163017200Y-120978800D02*
X161850200Y-120978800D01*
X161850200Y-120978800D02*
X161239200Y-121589800D01*
X161239200Y-121589800D02*
X161239200Y-124866400D01*
X161239200Y-124866400D02*
X161973600Y-125600800D01*
X161973600Y-125600800D02*
X163423600Y-125600800D01*
X161239200Y-121589800D02*
X161850200Y-120978800D01*
D39*
X165557200Y-118983800D02*
X165557200Y-120893800D01*
D42*
X165557200Y-120893800D02*
X163102200Y-120893800D01*
X163102200Y-120893800D02*
X163017200Y-120978800D01*
X168902200Y-120888800D02*
X165562200Y-120888800D01*
X165562200Y-120888800D02*
X165557200Y-120893800D01*
D39*
X153322200Y-101460300D02*
X153322200Y-100909300D01*
X153322200Y-100909300D02*
X152882419Y-100426916D01*
X149080800Y-98228000D02*
X150577400Y-98228000D01*
X153322200Y-101460300D02*
X153322200Y-103263800D01*
X150577400Y-98228000D02*
X151269700Y-98920300D01*
X168732200Y-103063800D02*
X168732200Y-101396800D01*
X165563400Y-98228000D02*
X149080800Y-98228000D01*
X168732200Y-101396800D02*
X165563400Y-98228000D01*
X150126700Y-100634800D02*
X150348950Y-100412550D01*
X150348950Y-100412550D02*
X150348950Y-99587050D01*
X150126700Y-100634800D02*
X149110700Y-101650800D01*
X149110700Y-103746300D02*
X149809200Y-104444800D01*
X149110700Y-101650800D02*
X149110700Y-103746300D01*
X151269700Y-99618800D02*
X151079200Y-99618800D01*
X150488400Y-99028000D02*
X149080800Y-99028000D01*
X151079200Y-99618800D02*
X150488400Y-99028000D01*
X150348950Y-99587050D02*
X149789900Y-99028000D01*
X149789900Y-99028000D02*
X149080800Y-99028000D01*
X150234400Y-99028000D02*
X149080800Y-99028000D01*
X153238200Y-98699670D02*
X152760330Y-98699670D01*
X166827200Y-100066540D02*
X165968330Y-99207670D01*
X166827200Y-103063800D02*
X166827200Y-100066540D01*
X165460330Y-98699670D02*
X153238200Y-98699670D01*
X165968330Y-99207670D02*
X165460330Y-98699670D01*
X152760330Y-98699670D02*
X151841200Y-99618800D01*
X151841200Y-99618800D02*
X151269700Y-99618800D01*
X150234400Y-99028000D02*
X149080800Y-99028000D01*
X149080800Y-99028000D02*
X150234400Y-99028000D01*
X150228200Y-104863800D02*
X151122200Y-104863800D01*
X149809200Y-104444800D02*
X150228200Y-104863800D01*
X171102200Y-118988800D02*
X171102200Y-116863800D01*
X171102200Y-116863800D02*
X171002200Y-116763800D01*
D42*
X169002200Y-116763800D02*
X168097200Y-116763800D01*
X168097200Y-119938800D02*
X168902200Y-119938800D01*
X167462200Y-119303800D02*
X168097200Y-119938800D01*
X167462200Y-117398800D02*
X167462200Y-119303800D01*
X168097200Y-116763800D02*
X167462200Y-117398800D01*
X174637200Y-117398800D02*
X174447200Y-117398800D01*
X174447200Y-117398800D02*
X171272200Y-114223800D01*
X171272200Y-114223800D02*
X170002200Y-114223800D01*
X170002200Y-114223800D02*
X169002200Y-115223800D01*
X169002200Y-115223800D02*
X169002200Y-116763800D01*
D39*
X138785600Y-110693200D02*
X138023600Y-110693200D01*
X134124700Y-86601300D02*
X134124700Y-84391500D01*
X134124700Y-84391500D02*
X133997700Y-84264500D01*
X148945600Y-118211600D02*
X148945600Y-123799600D01*
X148945600Y-123799600D02*
X148539200Y-124206000D01*
X138785600Y-110693200D02*
X138023600Y-110693200D01*
X138023600Y-110693200D02*
X137312400Y-110693200D01*
X148945600Y-118211600D02*
X147624800Y-116890800D01*
X148082000Y-124358400D02*
X148386800Y-124358400D01*
X143332200Y-127330200D02*
X146304000Y-124358400D01*
X146304000Y-124358400D02*
X148082000Y-124358400D01*
X143332200Y-135813800D02*
X143332200Y-127330200D01*
X148386800Y-124358400D02*
X148539200Y-124206000D01*
X137312400Y-110693200D02*
X127304800Y-110693200D01*
X126746000Y-104307600D02*
X125552200Y-103113800D01*
X126746000Y-110134400D02*
X126746000Y-104307600D01*
X127304800Y-110693200D02*
X126746000Y-110134400D01*
X146304000Y-116890800D02*
X143205200Y-113690400D01*
X147624800Y-116890800D02*
X146304000Y-116890800D01*
X125552200Y-103113800D02*
X125552200Y-98094800D01*
X125552200Y-98094800D02*
X126187200Y-97459800D01*
X126187200Y-97459800D02*
X126187200Y-96123800D01*
X136347200Y-87233800D02*
X134757200Y-87233800D01*
X134185700Y-74538800D02*
X136982200Y-74538800D01*
X133997700Y-74726800D02*
X134185700Y-74538800D01*
X133997700Y-84264500D02*
X133997700Y-74726800D01*
X134757200Y-87233800D02*
X134124700Y-86601300D01*
X136347200Y-88252300D02*
X136347200Y-93903800D01*
X130949700Y-94475300D02*
X127965200Y-91490800D01*
X135775700Y-94475300D02*
X130949700Y-94475300D01*
X136347200Y-93903800D02*
X135775700Y-94475300D01*
X171780200Y-89143800D02*
X171780200Y-85521800D01*
X164312200Y-80085800D02*
X164312200Y-78296800D01*
X164668200Y-80441800D02*
X164312200Y-80085800D01*
X166700200Y-80441800D02*
X164668200Y-80441800D01*
X171780200Y-85521800D02*
X166700200Y-80441800D01*
X161985200Y-77012800D02*
X161985200Y-77790800D01*
X150827700Y-75173800D02*
X149682200Y-75173800D01*
X154317700Y-78663800D02*
X150827700Y-75173800D01*
X161112200Y-78663800D02*
X154317700Y-78663800D01*
X161985200Y-77790800D02*
X161112200Y-78663800D01*
X136982200Y-74538800D02*
X137297200Y-74538800D01*
X137297200Y-74538800D02*
X139776200Y-72059800D01*
X149682200Y-73774300D02*
X149682200Y-75173800D01*
X147967700Y-72059800D02*
X149682200Y-73774300D01*
X139776200Y-72059800D02*
X147967700Y-72059800D01*
X125552200Y-84058800D02*
X125676700Y-84058800D01*
X125676700Y-84058800D02*
X126377700Y-84759800D01*
X136347200Y-88252300D02*
X136347200Y-87233800D01*
X127139700Y-90665300D02*
X127965200Y-91490800D01*
X126377700Y-84759800D02*
X126377700Y-88379300D01*
X169748200Y-86664800D02*
X169621200Y-86664800D01*
X166700200Y-88061800D02*
X166700200Y-88739800D01*
X166954200Y-87807800D02*
X166700200Y-88061800D01*
X167843200Y-87807800D02*
X166954200Y-87807800D01*
X169621200Y-86664800D02*
X169113200Y-87172800D01*
X166700200Y-88739800D02*
X166446200Y-88993800D01*
X171780200Y-88061800D02*
X171780200Y-89143800D01*
X170383200Y-86664800D02*
X171780200Y-88061800D01*
X169748200Y-86664800D02*
X170383200Y-86664800D01*
X125552200Y-84058800D02*
X125552200Y-87807800D01*
X125044200Y-95554800D02*
X125613200Y-96123800D01*
X125044200Y-92760800D02*
X125044200Y-95554800D01*
X125171200Y-92633800D02*
X125044200Y-92760800D01*
X125171200Y-88188800D02*
X125171200Y-89839800D01*
X125552200Y-87807800D02*
X125171200Y-88188800D01*
X125613200Y-96123800D02*
X126187200Y-96123800D01*
X161985200Y-77012800D02*
X163028200Y-77012800D01*
X163028200Y-77012800D02*
X164312200Y-78296800D01*
X164312200Y-78296800D02*
X163793200Y-78296800D01*
D40*
X149682200Y-75173800D02*
X149367200Y-75173800D01*
X176352200Y-123383800D02*
X174497200Y-123383800D01*
X174497200Y-123383800D02*
X174447200Y-123433800D01*
X179527200Y-123188800D02*
X176547200Y-123188800D01*
X176547200Y-123188800D02*
X176352200Y-123383800D01*
D42*
X179337200Y-117398800D02*
X179337200Y-122998800D01*
X179337200Y-122998800D02*
X179527200Y-123188800D01*
D39*
X164312200Y-75996800D02*
X163128200Y-75996800D01*
X163128200Y-75996800D02*
X161985200Y-74853800D01*
X165049200Y-75996800D02*
X164312200Y-75996800D01*
X131597400Y-113817400D02*
X124028200Y-113817400D01*
X124028200Y-113817400D02*
X123698000Y-114147600D01*
X132588000Y-112896650D02*
X131908550Y-112896650D01*
X131419600Y-113385600D02*
X123532900Y-113385600D01*
X131908550Y-112896650D02*
X131419600Y-113385600D01*
X132384800Y-113411000D02*
X132003800Y-113411000D01*
X132003800Y-113411000D02*
X131597400Y-113817400D01*
X132588000Y-112896650D02*
X137623550Y-112896650D01*
X137623550Y-112896650D02*
X138125200Y-113398300D01*
X133273800Y-113411000D02*
X132384800Y-113411000D01*
X143002000Y-115062000D02*
X143002000Y-115049300D01*
X142989300Y-115049300D02*
X143002000Y-115062000D01*
X142151100Y-115049300D02*
X142989300Y-115049300D01*
X142138400Y-115062000D02*
X142151100Y-115049300D01*
X142697200Y-115049300D02*
X143002000Y-115049300D01*
X143002000Y-115049300D02*
X143497300Y-115049300D01*
X143497300Y-115049300D02*
X145954750Y-117506750D01*
X142697200Y-115049300D02*
X143522700Y-115049300D01*
X147313650Y-117506750D02*
X145954750Y-117506750D01*
X147965200Y-118158300D02*
X147313650Y-117506750D01*
X145084800Y-116611400D02*
X143522700Y-115049300D01*
X145084800Y-116636800D02*
X145084800Y-116611400D01*
X145954750Y-117506750D02*
X145084800Y-116636800D01*
X133845300Y-116801900D02*
X133819900Y-116801900D01*
X122478800Y-116433600D02*
X121828600Y-117083800D01*
X122478800Y-115366800D02*
X122478800Y-116433600D01*
X123698000Y-114147600D02*
X122478800Y-115366800D01*
X133604000Y-113741200D02*
X133273800Y-113411000D01*
X133604000Y-116586000D02*
X133604000Y-113741200D01*
X133819900Y-116801900D02*
X133604000Y-116586000D01*
X121828600Y-117083800D02*
X121742200Y-117083800D01*
X134442200Y-118213800D02*
X134442200Y-114564200D01*
X134442200Y-114564200D02*
X134503200Y-114503200D01*
X134442200Y-118213800D02*
X134442200Y-117398800D01*
X134442200Y-117398800D02*
X133845300Y-116801900D01*
X121742200Y-115176300D02*
X121742200Y-117083800D01*
X123532900Y-113385600D02*
X121742200Y-115176300D01*
X147965200Y-118795800D02*
X147965200Y-118158300D01*
X147965200Y-120700800D02*
X147965200Y-122428800D01*
X147965200Y-122428800D02*
X148142200Y-122605800D01*
X147965200Y-118795800D02*
X147965200Y-120700800D01*
D42*
X163423600Y-128500800D02*
X166393200Y-128500800D01*
X166393200Y-128500800D02*
X166763700Y-128130300D01*
X166075700Y-128818300D02*
X166763700Y-128130300D01*
X166192200Y-129654300D02*
X166763700Y-129082800D01*
X166763700Y-129082800D02*
X166763700Y-128130300D01*
X164922200Y-138353800D02*
X164922200Y-130924300D01*
X166763700Y-129082800D02*
X166763700Y-128130300D01*
X164922200Y-130924300D02*
X166192200Y-129654300D01*
X166763700Y-128130300D02*
X166319200Y-128130300D01*
X166192200Y-128066800D02*
X166700200Y-128066800D01*
D39*
X165557200Y-117083800D02*
X165237200Y-117083800D01*
X165237200Y-117083800D02*
X163822200Y-118498800D01*
X163822200Y-118498800D02*
X163017200Y-118498800D01*
X174818000Y-130048000D02*
X173007200Y-130048000D01*
X173007200Y-130048000D02*
X172956400Y-129997200D01*
X129362200Y-84548800D02*
X129512200Y-84548800D01*
X129512200Y-84548800D02*
X131267200Y-82793800D01*
D40*
X117932200Y-80738800D02*
X118717200Y-80738800D01*
X118717200Y-80738800D02*
X119837200Y-79618800D01*
X119837200Y-91048800D02*
X119052200Y-91048800D01*
X119052200Y-91048800D02*
X117932200Y-92168800D01*
X119837200Y-101843800D02*
X118417200Y-101843800D01*
X118417200Y-101843800D02*
X117932200Y-102328800D01*
X143967200Y-73268800D02*
X143182200Y-73268800D01*
X143182200Y-73268800D02*
X142062200Y-74388800D01*
X131267200Y-73268800D02*
X129847200Y-73268800D01*
X129847200Y-73268800D02*
X129362200Y-73753800D01*
X119837200Y-118983800D02*
X119837200Y-120743800D01*
D41*
X119964200Y-119060000D02*
X119938800Y-119034600D01*
D40*
X117932200Y-118983800D02*
X117932200Y-120743800D01*
D39*
X121742200Y-122943800D02*
X121912200Y-122943800D01*
X121912200Y-122943800D02*
X123075700Y-121780300D01*
X123075700Y-121780300D02*
X123075700Y-119621300D01*
X123075700Y-119621300D02*
X122438200Y-118983800D01*
X122438200Y-118983800D02*
X121742200Y-118983800D01*
D40*
X121642200Y-122943800D02*
X121742200Y-122843800D01*
D39*
X121996200Y-118983800D02*
X122057200Y-118983800D01*
X121996200Y-118983800D02*
X121930200Y-118983800D01*
X121742200Y-119237800D02*
X121996200Y-118983800D01*
X142030800Y-101278000D02*
X142030800Y-102102000D01*
X143154400Y-103819260D02*
X142030800Y-104942860D01*
X143154400Y-103225600D02*
X143154400Y-103819260D01*
X142030800Y-102102000D02*
X143154400Y-103225600D01*
X150317200Y-137617200D02*
X151079200Y-138379200D01*
X151079200Y-138379200D02*
X151079200Y-138582400D01*
X151079200Y-138582400D02*
X151790400Y-139293600D01*
X151079200Y-138379200D02*
X150469600Y-137769600D01*
X150469600Y-137769600D02*
X150317200Y-137617200D01*
X150317200Y-137617200D02*
X149402800Y-136702800D01*
X165557200Y-125730000D02*
X164287200Y-127000000D01*
X168249600Y-125730000D02*
X169265600Y-126746000D01*
X165557200Y-125730000D02*
X168249600Y-125730000D01*
X169265600Y-128422400D02*
X169265600Y-126746000D01*
X171272200Y-133273800D02*
X169265600Y-131267200D01*
X169265600Y-131267200D02*
X169265600Y-128422400D01*
X162458400Y-127000000D02*
X162052000Y-127000000D01*
X161137600Y-127914400D02*
X161137600Y-129235200D01*
X162052000Y-127000000D02*
X161137600Y-127914400D01*
X163525200Y-127000000D02*
X164287200Y-127000000D01*
X163525200Y-127000000D02*
X162458400Y-127000000D01*
X161137600Y-129235200D02*
X160528000Y-129844800D01*
X157124400Y-135059769D02*
X157124400Y-136906000D01*
X157124400Y-136906000D02*
X156006800Y-138023600D01*
X156006800Y-138023600D02*
X156006800Y-138633198D01*
X156006800Y-138633198D02*
X155346398Y-139293600D01*
X155346398Y-139293600D02*
X151892000Y-139293600D01*
X157886400Y-132892800D02*
X158140398Y-133146798D01*
X158140398Y-133146798D02*
X158140398Y-134026340D01*
X158140398Y-134026340D02*
X157106969Y-135059769D01*
X157106969Y-135059769D02*
X157124400Y-135059769D01*
X157886400Y-132486400D02*
X157886400Y-132892800D01*
X148412200Y-135813800D02*
X148513800Y-135813800D01*
X148513800Y-135813800D02*
X149402800Y-136702800D01*
X149402800Y-136702800D02*
X150672800Y-137972800D01*
X136167200Y-118938800D02*
X138852400Y-118938800D01*
X139446000Y-119532400D02*
X139446000Y-132181600D01*
X138852400Y-118938800D02*
X139446000Y-119532400D01*
X139446000Y-132181600D02*
X139446000Y-133502400D01*
X149860000Y-139344398D02*
X149047198Y-139344398D01*
X149047198Y-139344398D02*
X148386800Y-138684000D01*
X148386800Y-138684000D02*
X148386800Y-137972800D01*
X148386800Y-137972800D02*
X147675600Y-137261600D01*
X147675600Y-137261600D02*
X141884400Y-137261600D01*
X141884400Y-137261600D02*
X139446000Y-134823200D01*
X139446000Y-134823200D02*
X139446000Y-133502400D01*
X150114002Y-139344398D02*
X150672800Y-138785600D01*
X150672800Y-138785600D02*
X150672800Y-137972800D01*
X149860000Y-139344398D02*
X150114002Y-139344398D01*
X151790400Y-139293600D02*
X151892000Y-139293600D01*
X151892000Y-139293600D02*
X151790400Y-139293600D01*
X137998200Y-115747800D02*
X142030800Y-111715200D01*
X142030800Y-111715200D02*
X142030800Y-104942860D01*
X136331200Y-118938800D02*
X136982200Y-118287800D01*
X136982200Y-118287800D02*
X136982200Y-118033800D01*
X136167200Y-118938800D02*
X136331200Y-118938800D01*
X141935200Y-101373600D02*
X142030800Y-101278000D01*
X142570200Y-105105200D02*
X142570200Y-104978200D01*
X142849600Y-102260400D02*
X142830800Y-102260400D01*
X142830800Y-102241600D02*
X142849600Y-102260400D01*
X143052800Y-102463600D02*
X142830800Y-102241600D01*
X143205200Y-102463600D02*
X143052800Y-102463600D01*
X143814798Y-103073198D02*
X143205200Y-102463600D01*
X143814798Y-103733602D02*
X143814798Y-103073198D01*
X142570200Y-104978200D02*
X143814798Y-103733602D01*
X138150600Y-120116600D02*
X138150600Y-123977400D01*
X138531600Y-136702800D02*
X139395200Y-137566400D01*
X138531600Y-124358400D02*
X138531600Y-136702800D01*
X138150600Y-123977400D02*
X138531600Y-124358400D01*
X147142200Y-138353800D02*
X146100800Y-139395200D01*
X146100800Y-139395200D02*
X145796000Y-139700000D01*
X145796000Y-139700000D02*
X141528800Y-139700000D01*
X141528800Y-139700000D02*
X139395200Y-137566400D01*
X136167200Y-119438800D02*
X137472800Y-119438800D01*
X137472800Y-119438800D02*
X138150600Y-120116600D01*
X175260000Y-139395200D02*
X174904400Y-139750800D01*
X175514000Y-139141200D02*
X175260000Y-139395200D01*
X175514000Y-137363200D02*
X175514000Y-139141200D01*
X173964600Y-135813800D02*
X175514000Y-137363200D01*
X174904400Y-139750800D02*
X148539200Y-139750800D01*
X148539200Y-139750800D02*
X147142200Y-138353800D01*
X173812200Y-135813800D02*
X173964600Y-135813800D01*
X136167200Y-119438800D02*
X137109200Y-119438800D01*
X142830800Y-102260400D02*
X142830800Y-101278000D01*
X139395200Y-115112800D02*
X142570200Y-111937800D01*
X142570200Y-111937800D02*
X142570200Y-105105200D01*
X137109200Y-119438800D02*
X137490200Y-119438800D01*
X137490200Y-119438800D02*
X138387200Y-119438800D01*
X138387200Y-119438800D02*
X138506200Y-119557800D01*
X139395200Y-117398800D02*
X139395200Y-115112800D01*
X145770600Y-102387400D02*
X145948400Y-102209600D01*
X145948400Y-102209600D02*
X145948400Y-101360400D01*
X145948400Y-101360400D02*
X146030800Y-101278000D01*
X144602200Y-109651800D02*
X144602200Y-106476800D01*
X149047200Y-114706400D02*
X145135600Y-110794800D01*
X145135600Y-110185200D02*
X144602200Y-109651800D01*
X145135600Y-110794800D02*
X145135600Y-110185200D01*
X151282400Y-115938300D02*
X150279100Y-115938300D01*
X150279100Y-115938300D02*
X149047200Y-114706400D01*
X157238700Y-117462300D02*
X157937200Y-118160800D01*
X153555700Y-117462300D02*
X157238700Y-117462300D01*
X152031700Y-115938300D02*
X153555700Y-117462300D01*
X151282400Y-115938300D02*
X152031700Y-115938300D01*
X157302200Y-120065800D02*
X157302200Y-121048800D01*
X157937200Y-119430800D02*
X157302200Y-120065800D01*
X157937200Y-118160800D02*
X157937200Y-119430800D01*
X144602200Y-105892600D02*
X145135600Y-105359200D01*
X145135600Y-105359200D02*
X145135600Y-104038400D01*
X144602200Y-106476800D02*
X144602200Y-105892600D01*
X145135600Y-104038400D02*
X145135600Y-103022400D01*
X145770600Y-102387400D02*
X145135600Y-103022400D01*
X146830800Y-101278000D02*
X146830800Y-102038400D01*
X146830800Y-102038400D02*
X145643600Y-103225600D01*
X145643600Y-103225600D02*
X145643600Y-104038400D01*
X145059400Y-106578400D02*
X145059400Y-106095800D01*
X145643600Y-105511600D02*
X145643600Y-104038400D01*
X145059400Y-106095800D02*
X145643600Y-105511600D01*
X145059400Y-109448600D02*
X145059400Y-106578400D01*
X150056851Y-115017549D02*
X150056851Y-114446051D01*
X153492200Y-121048800D02*
X153492200Y-118922800D01*
X153492200Y-118922800D02*
X151587200Y-117017800D01*
X150056851Y-115017549D02*
X150571200Y-115531898D01*
X150571200Y-115531898D02*
X151015702Y-115531898D01*
X151015702Y-115531898D02*
X151282400Y-115265200D01*
X150056851Y-114446051D02*
X145059400Y-109448600D01*
X146888200Y-101335400D02*
X146830800Y-101278000D01*
X153492200Y-121048800D02*
X153492200Y-120446800D01*
X147167600Y-136144000D02*
X149377400Y-138353800D01*
X147167600Y-135331200D02*
X147167600Y-136144000D01*
X147929600Y-134569200D02*
X147167600Y-135331200D01*
X149098000Y-134569200D02*
X147929600Y-134569200D01*
X149606000Y-135077200D02*
X149098000Y-134569200D01*
X149606000Y-136093200D02*
X149606000Y-135077200D01*
X150418800Y-136906000D02*
X149606000Y-136093200D01*
X151536400Y-136906000D02*
X150418800Y-136906000D01*
X151993600Y-136448800D02*
X151536400Y-136906000D01*
X151993600Y-134213600D02*
X151993600Y-136448800D01*
X153009600Y-133197600D02*
X151993600Y-134213600D01*
X155295600Y-133197600D02*
X153009600Y-133197600D01*
X149377400Y-138353800D02*
X149682200Y-138353800D01*
X168605200Y-128371600D02*
X168605200Y-126898400D01*
X168605200Y-132791200D02*
X168605200Y-128371600D01*
X171272200Y-135458200D02*
X168605200Y-132791200D01*
X161747200Y-132943600D02*
X161391600Y-133299200D01*
X161747200Y-127914402D02*
X161747200Y-132943600D01*
X162255200Y-127406402D02*
X161747200Y-127914402D01*
X164642798Y-127406402D02*
X162255200Y-127406402D01*
X165760400Y-126288800D02*
X164642798Y-127406402D01*
X167995600Y-126288800D02*
X165760400Y-126288800D01*
X168605200Y-126898400D02*
X167995600Y-126288800D01*
X171272200Y-135813800D02*
X171272200Y-135458200D01*
X157632400Y-100533200D02*
X157581600Y-100533200D01*
X156718000Y-101396800D02*
X156718000Y-106019600D01*
X157581600Y-100533200D02*
X156718000Y-101396800D01*
X147015200Y-107594400D02*
X155143200Y-107594400D01*
X146848960Y-107628468D02*
X146899760Y-107679268D01*
X146899760Y-107679268D02*
X147015200Y-107594400D01*
X155143200Y-107594400D02*
X156718000Y-106019600D01*
X159207200Y-101549200D02*
X159207200Y-101193600D01*
X158546800Y-100533200D02*
X157632400Y-100533200D01*
X159207200Y-101193600D02*
X158546800Y-100533200D01*
X171557950Y-107080050D02*
X170922950Y-107715050D01*
X151206200Y-97713800D02*
X166827200Y-97713800D01*
X150920400Y-97428000D02*
X151206200Y-97713800D01*
X149080800Y-97428000D02*
X150920400Y-97428000D01*
X163302950Y-107715050D02*
X162953700Y-107365800D01*
X170922950Y-107715050D02*
X163302950Y-107715050D01*
X162921950Y-107334050D02*
X162953700Y-107365800D01*
X160931929Y-107337929D02*
X162921950Y-107334050D01*
X174193200Y-104444800D02*
X174193200Y-99872800D01*
X174193200Y-99872800D02*
X172034200Y-97713800D01*
X172034200Y-97713800D02*
X166827200Y-97713800D01*
X171557950Y-107080050D02*
X174193200Y-104444800D01*
X159207200Y-101549200D02*
X159207200Y-105613200D01*
X159207200Y-105613200D02*
X160931929Y-107337929D01*
X140997130Y-109372400D02*
X140997130Y-107875530D01*
X140997130Y-107875530D02*
X140817600Y-107696000D01*
X140919200Y-106984800D02*
X140817600Y-107086400D01*
X140817600Y-107086400D02*
X140817600Y-107696000D01*
X140997130Y-111482328D02*
X140982700Y-111482328D01*
X140997130Y-109372400D02*
X140997130Y-111482328D01*
X135442200Y-117017800D02*
X135442200Y-116398800D01*
X135442200Y-117017800D02*
X135442200Y-118213800D01*
X135442200Y-116398800D02*
X137742471Y-114098529D01*
X137742471Y-114098529D02*
X138352069Y-114098529D01*
X138352069Y-114098529D02*
X140982700Y-111467898D01*
X140982700Y-111467898D02*
X140982700Y-111482328D01*
X149682200Y-138353800D02*
X149631400Y-138353800D01*
X149631400Y-138353800D02*
X148082000Y-136804400D01*
X148082000Y-136804400D02*
X142087600Y-136804400D01*
X142087600Y-136804400D02*
X140106400Y-134823200D01*
X140106400Y-134823200D02*
X140106400Y-133045200D01*
X140106400Y-121259600D02*
X140106400Y-133045200D01*
X135442200Y-118213800D02*
X135442200Y-117999000D01*
X135442200Y-117999000D02*
X136042400Y-117398800D01*
X140106400Y-121259600D02*
X140106400Y-121361200D01*
X140106400Y-119176800D02*
X140106400Y-121259600D01*
X138328400Y-117398800D02*
X140106400Y-119176800D01*
X136042400Y-117398800D02*
X138328400Y-117398800D01*
X145491200Y-109270800D02*
X145491200Y-106273600D01*
X145491200Y-106273600D02*
X146304000Y-105460800D01*
X146304000Y-105460800D02*
X146964400Y-105460800D01*
X146964400Y-105460800D02*
X147380156Y-105876556D01*
X156324299Y-131914901D02*
X156819598Y-132410200D01*
X156819598Y-132410200D02*
X156819598Y-133095998D01*
X156819598Y-133095998D02*
X157167230Y-133443630D01*
X152095200Y-126847600D02*
X152095200Y-127685802D01*
X155321000Y-100457000D02*
X154736800Y-99872800D01*
X155321000Y-105283000D02*
X155321000Y-100457000D01*
X153943200Y-95828000D02*
X154686000Y-96570800D01*
X155321000Y-105283000D02*
X154727444Y-105876556D01*
X154727444Y-105876556D02*
X147380156Y-105876556D01*
X149080800Y-95828000D02*
X153943200Y-95828000D01*
X145491200Y-109270800D02*
X150672800Y-114452400D01*
X150672800Y-114452400D02*
X150672800Y-114706400D01*
X150723600Y-116992400D02*
X150723600Y-117348000D01*
X150723600Y-117348000D02*
X150952200Y-117576600D01*
X152095200Y-120294400D02*
X152095200Y-118719600D01*
X152095200Y-120294400D02*
X152095200Y-126847600D01*
X152095200Y-118719600D02*
X150952200Y-117576600D01*
X152095200Y-127685802D02*
X156324299Y-131914901D01*
X156819598Y-132410200D02*
X156794200Y-132410200D01*
X154762200Y-135991600D02*
X154762200Y-138353800D01*
X154762200Y-135458200D02*
X155532171Y-134688229D01*
X155532171Y-134688229D02*
X156243371Y-134688229D01*
X156243371Y-134688229D02*
X157167230Y-133764370D01*
X157167230Y-133764370D02*
X157167230Y-133705600D01*
X154762200Y-135991600D02*
X154762200Y-135458200D01*
X157167230Y-133705600D02*
X157167230Y-133443630D01*
X156794200Y-132410200D02*
X156794200Y-132410200D01*
X154558999Y-95529401D02*
X154203398Y-95173800D01*
X154203398Y-95173800D02*
X150571200Y-95173800D01*
X159664400Y-96761300D02*
X155790898Y-96761300D01*
X155790898Y-96761300D02*
X154558999Y-95529401D01*
X159905700Y-96761300D02*
X159664400Y-96761300D01*
X149917000Y-95828000D02*
X149080800Y-95828000D01*
X150571200Y-95173800D02*
X149917000Y-95828000D01*
X159905700Y-96761300D02*
X162445700Y-96761300D01*
X162445700Y-96761300D02*
X164033200Y-95173800D01*
X165496200Y-88993800D02*
X165496200Y-89011800D01*
X165496200Y-89011800D02*
X164033200Y-90474800D01*
X164033200Y-90474800D02*
X164033200Y-95173800D01*
X169621200Y-89143800D02*
X169621200Y-88569800D01*
X165496200Y-87868800D02*
X165496200Y-88993800D01*
X166192200Y-87172800D02*
X165496200Y-87868800D01*
X168224200Y-87172800D02*
X166192200Y-87172800D01*
X169621200Y-88569800D02*
X168224200Y-87172800D01*
X169621200Y-89143800D02*
X169621200Y-89331800D01*
X165496200Y-88993800D02*
X165496200Y-89138800D01*
X149080800Y-96628000D02*
X150755400Y-96628000D01*
X174635200Y-92125800D02*
X175717200Y-91043800D01*
X172542200Y-92125800D02*
X174635200Y-92125800D01*
X171272200Y-93395800D02*
X172542200Y-92125800D01*
X166573200Y-93395800D02*
X171272200Y-93395800D01*
X162763200Y-97205800D02*
X166573200Y-93395800D01*
X151333200Y-97205800D02*
X162763200Y-97205800D01*
X150755400Y-96628000D02*
X151333200Y-97205800D01*
X179146200Y-93193800D02*
X179146200Y-93141800D01*
X179146200Y-93141800D02*
X177048200Y-91043800D01*
X177048200Y-91043800D02*
X175717200Y-91043800D01*
X175651200Y-92980800D02*
X175651200Y-91109800D01*
X175651200Y-91109800D02*
X175717200Y-91043800D01*
X134857200Y-85648800D02*
X136032200Y-85648800D01*
X136032200Y-85648800D02*
X136347200Y-85333800D01*
X140580800Y-94228000D02*
X140580800Y-89567400D01*
X140580800Y-89567400D02*
X136347200Y-85333800D01*
X152196800Y-79908400D02*
X153670000Y-81381600D01*
X147630800Y-92778000D02*
X147630800Y-90932000D01*
X148336000Y-90068400D02*
X150825200Y-87579200D01*
X150825200Y-87579200D02*
X150825200Y-85750400D01*
X147630800Y-90932000D02*
X147630800Y-90773600D01*
X147630800Y-90773600D02*
X148336000Y-90068400D01*
X152196800Y-79908400D02*
X149682200Y-77393800D01*
X149682200Y-77393800D02*
X149682200Y-77073800D01*
D40*
X149682200Y-77073800D02*
X148507200Y-77073800D01*
X148507200Y-77073800D02*
X147557200Y-76123800D01*
D39*
X126187200Y-94223800D02*
X126187200Y-92316300D01*
X124062200Y-92726800D02*
X124062200Y-94538800D01*
X124980700Y-91808300D02*
X124062200Y-92726800D01*
X125679200Y-91808300D02*
X124980700Y-91808300D01*
X126187200Y-92316300D02*
X125679200Y-91808300D01*
X126187200Y-94223800D02*
X126187200Y-94284800D01*
X140580800Y-95828000D02*
X137636400Y-95828000D01*
X127142200Y-94223800D02*
X126187200Y-94223800D01*
X128346200Y-95427800D02*
X127142200Y-94223800D01*
X137236200Y-95427800D02*
X128346200Y-95427800D01*
X137636400Y-95828000D02*
X137236200Y-95427800D01*
X139598400Y-110794800D02*
X139598400Y-108966000D01*
X138734800Y-108102400D02*
X138734800Y-101784280D01*
X139598400Y-108966000D02*
X138734800Y-108102400D01*
X139039600Y-111353600D02*
X126288800Y-111353600D01*
X139598400Y-110794800D02*
X139039600Y-111353600D01*
X138734800Y-101784280D02*
X138160060Y-101209540D01*
X137464800Y-100514280D02*
X137464800Y-100533200D01*
X138160060Y-101209540D02*
X137464800Y-100514280D01*
X138963400Y-97917000D02*
X138303000Y-97917000D01*
X139274400Y-98228000D02*
X138963400Y-97917000D01*
X140580800Y-98228000D02*
X139274400Y-98228000D01*
X138303000Y-97917000D02*
X137464800Y-98755200D01*
X137464800Y-98755200D02*
X137464800Y-100533200D01*
X125552200Y-110617000D02*
X125552200Y-105013800D01*
X126288800Y-111353600D02*
X125552200Y-110617000D01*
D40*
X125552200Y-105013800D02*
X124377200Y-105013800D01*
X124377200Y-105013800D02*
X123427200Y-104063800D01*
D43*
X125511600Y-104968000D02*
X125476000Y-104968000D01*
D41*
X125410000Y-104902000D02*
X125476000Y-104968000D01*
D39*
X147269200Y-80822800D02*
X150723600Y-80822800D01*
X152196800Y-82296000D02*
X152196800Y-86055200D01*
X150723600Y-80822800D02*
X152196800Y-82296000D01*
X152196800Y-90779600D02*
X152196800Y-86055200D01*
X160096200Y-96354898D02*
X160934400Y-96354898D01*
X149815900Y-94228000D02*
X150317200Y-94729300D01*
X154673300Y-94729300D02*
X150317200Y-94729300D01*
X160096200Y-96354898D02*
X159562800Y-96354898D01*
X156298898Y-96354898D02*
X154673300Y-94729300D01*
X159562800Y-96354898D02*
X156298898Y-96354898D01*
X160947102Y-96354898D02*
X161544000Y-95758000D01*
X161544000Y-95758000D02*
X161544000Y-95250000D01*
X161544000Y-95250000D02*
X160985200Y-94691200D01*
X160985200Y-94691200D02*
X158851600Y-94691200D01*
X158851600Y-94691200D02*
X158140400Y-95402400D01*
X158140400Y-95402400D02*
X156819600Y-95402400D01*
X156819600Y-95402400D02*
X152196800Y-90779600D01*
X160934400Y-96354898D02*
X160947102Y-96354898D01*
X142798800Y-80822800D02*
X141681200Y-80822800D01*
X147269200Y-80822800D02*
X142798800Y-80822800D01*
X141681200Y-80822800D02*
X141173200Y-80822800D01*
X149080800Y-94228000D02*
X149815900Y-94228000D01*
X136982200Y-77520800D02*
X136982200Y-76438800D01*
X141173200Y-80822800D02*
X140284200Y-80822800D01*
X140284200Y-80822800D02*
X136982200Y-77520800D01*
D40*
X136982200Y-76438800D02*
X135807200Y-76438800D01*
X135807200Y-76438800D02*
X134857200Y-75488800D01*
D39*
X125552200Y-82158800D02*
X123742200Y-82158800D01*
X123742200Y-82158800D02*
X123427200Y-82473800D01*
X140580800Y-95028000D02*
X137725400Y-95028000D01*
X126253200Y-82158800D02*
X125552200Y-82158800D01*
X127330200Y-83235800D02*
X126253200Y-82158800D01*
X127330200Y-88315800D02*
X127330200Y-83235800D01*
X126060200Y-89585800D02*
X127330200Y-88315800D01*
X130124200Y-94919800D02*
X126060200Y-90855800D01*
X137617200Y-94919800D02*
X130124200Y-94919800D01*
X137725400Y-95028000D02*
X137617200Y-94919800D01*
X138506200Y-100330000D02*
X138506200Y-100406200D01*
X138506200Y-100406200D02*
X141376400Y-103276400D01*
X140919200Y-104800400D02*
X140919200Y-104648000D01*
X140919200Y-104800400D02*
X140919200Y-104952800D01*
X140919200Y-105410000D02*
X140919200Y-104952800D01*
X160280350Y-104438450D02*
X160921700Y-105079800D01*
X160578800Y-102006400D02*
X160324800Y-102260400D01*
X160578800Y-100482400D02*
X160578800Y-102006400D01*
X159715200Y-99618800D02*
X160578800Y-100482400D01*
X157022800Y-99618800D02*
X159715200Y-99618800D01*
X147726400Y-106282958D02*
X154956042Y-106282958D01*
X154956042Y-106282958D02*
X155460700Y-105778300D01*
X155460700Y-105778300D02*
X155816300Y-105422700D01*
X160280350Y-102304850D02*
X160324800Y-102260400D01*
X160280350Y-104438450D02*
X160280350Y-102304850D01*
X155816300Y-100825300D02*
X157022800Y-99618800D01*
X155816300Y-105422700D02*
X155816300Y-100825300D01*
X146465758Y-106282958D02*
X146405600Y-106222800D01*
X147726400Y-106282958D02*
X146465758Y-106282958D01*
X140919200Y-104648000D02*
X141935200Y-103632000D01*
X141935200Y-103632000D02*
X141935200Y-103376252D01*
X141935200Y-103376252D02*
X141835348Y-103276400D01*
X141835348Y-103276400D02*
X141376400Y-103276400D01*
X140580800Y-99028000D02*
X139287500Y-99028000D01*
X139287500Y-99028000D02*
X138506200Y-99809300D01*
X138506200Y-99809300D02*
X138506200Y-100330000D01*
X146735800Y-108534200D02*
X154813000Y-108534200D01*
X154813000Y-108534200D02*
X154787600Y-108559600D01*
X148082000Y-106832400D02*
X146761200Y-106832400D01*
X146253200Y-108051600D02*
X146735800Y-108534200D01*
X146253200Y-107340400D02*
X146253200Y-108051600D01*
X146761200Y-106832400D02*
X146253200Y-107340400D01*
X161112200Y-135813800D02*
X161112200Y-135407400D01*
X161112200Y-135407400D02*
X160324804Y-134620004D01*
X160324804Y-134620004D02*
X160324804Y-131318004D01*
X159308800Y-128981200D02*
X159308800Y-130302000D01*
X159308800Y-130302000D02*
X160324804Y-131318004D01*
X157784800Y-100990400D02*
X157784800Y-101092000D01*
X159308800Y-107188000D02*
X158648400Y-106527600D01*
X158648400Y-106527600D02*
X158648400Y-101396800D01*
X158648400Y-101396800D02*
X158242000Y-100990400D01*
X158242000Y-100990400D02*
X157784800Y-100990400D01*
X159308800Y-113334800D02*
X159308800Y-107188000D01*
X157226000Y-106121200D02*
X154787600Y-108559600D01*
X157226000Y-101650800D02*
X157226000Y-106121200D01*
X157784800Y-101092000D02*
X157226000Y-101650800D01*
X159308800Y-128981200D02*
X159308800Y-113334800D01*
X156184600Y-105740200D02*
X156184600Y-101269800D01*
X156184600Y-101269800D02*
X157378400Y-100076000D01*
X161178200Y-105079800D02*
X160147000Y-105079800D01*
X155092400Y-106832400D02*
X148082000Y-106832400D01*
X148082000Y-106832400D02*
X148031200Y-106832400D01*
X156184600Y-105740200D02*
X155092400Y-106832400D01*
X158851600Y-100076000D02*
X157378400Y-100076000D01*
X159664400Y-100888800D02*
X158851600Y-100076000D01*
X159664400Y-104597200D02*
X159664400Y-100888800D01*
X160147000Y-105079800D02*
X159664400Y-104597200D01*
X161112200Y-135813800D02*
X161163000Y-135813800D01*
X161163000Y-135813800D02*
X162458400Y-137109200D01*
X170332400Y-139293600D02*
X171272200Y-138353800D01*
X164388800Y-139293600D02*
X170332400Y-139293600D01*
X163677600Y-138582400D02*
X164388800Y-139293600D01*
X163677600Y-137668000D02*
X163677600Y-138582400D01*
X163118800Y-137109200D02*
X163677600Y-137668000D01*
X162458400Y-137109200D02*
X163118800Y-137109200D01*
X161112200Y-135813800D02*
X161112200Y-135623300D01*
X161112200Y-135813800D02*
X161112200Y-136194800D01*
X171272200Y-138353800D02*
X171272200Y-138455400D01*
X160921700Y-105079800D02*
X161178200Y-105079800D01*
X160921700Y-105079800D02*
X161178200Y-105079800D01*
X171272200Y-138353800D02*
X170510200Y-138353800D01*
X139141200Y-100126800D02*
X139141200Y-100431600D01*
X139141200Y-100431600D02*
X141476250Y-102766650D01*
X141554200Y-105257600D02*
X141554200Y-104724200D01*
X142085850Y-102766650D02*
X141476250Y-102766650D01*
X142443200Y-103124000D02*
X142085850Y-102766650D01*
X142443200Y-103835200D02*
X142443200Y-103124000D01*
X141554200Y-104724200D02*
X142443200Y-103835200D01*
X136167200Y-119938800D02*
X137109200Y-119938800D01*
X141554200Y-111499998D02*
X141554200Y-105257600D01*
X138449398Y-114604800D02*
X141554200Y-111499998D01*
X137871200Y-114604800D02*
X138449398Y-114604800D01*
X137236200Y-115239800D02*
X137871200Y-114604800D01*
X137236200Y-116128800D02*
X137236200Y-115239800D01*
X137871200Y-116763800D02*
X137236200Y-116128800D01*
X137109200Y-119938800D02*
X137236200Y-120065800D01*
X139440000Y-99828000D02*
X140580800Y-99828000D01*
X139141200Y-100126800D02*
X139440000Y-99828000D01*
X139948000Y-99828000D02*
X140580800Y-99828000D01*
X121327200Y-81523800D02*
X121327200Y-81550800D01*
X121327200Y-81550800D02*
X122250200Y-82473800D01*
X119837200Y-88823800D02*
X118186200Y-88823800D01*
X122250200Y-86410800D02*
X119837200Y-88823800D01*
X122250200Y-82473800D02*
X122250200Y-86410800D01*
X119837200Y-82793800D02*
X119837200Y-82854800D01*
D40*
X119837200Y-81518800D02*
X121322200Y-81518800D01*
X121322200Y-81518800D02*
X121327200Y-81523800D01*
X119837200Y-82793800D02*
X119837200Y-81518800D01*
D39*
X115646200Y-107543600D02*
X115646200Y-107772200D01*
X115646200Y-107772200D02*
X116687600Y-108813600D01*
X115646200Y-91363800D02*
X115646200Y-107543600D01*
X118186200Y-88823800D02*
X115646200Y-91363800D01*
X116687600Y-108813600D02*
X116687600Y-112217200D01*
X116687600Y-112217200D02*
X115646200Y-113258600D01*
X125933200Y-138353800D02*
X126822200Y-138353800D01*
X124155200Y-136575800D02*
X125933200Y-138353800D01*
X124155200Y-135559800D02*
X124155200Y-136575800D01*
X115646200Y-127050800D02*
X124155200Y-135559800D01*
X115646200Y-113258600D02*
X115646200Y-127050800D01*
X121056400Y-108000800D02*
X122326400Y-106730800D01*
X122326400Y-106730800D02*
X122326400Y-104113000D01*
X122326400Y-104113000D02*
X121327200Y-103113800D01*
X119837200Y-105018800D02*
X119834700Y-105018800D01*
D40*
X119837200Y-103743800D02*
X120697200Y-103743800D01*
X120697200Y-103743800D02*
X121327200Y-103113800D01*
X119837200Y-103743800D02*
X119837200Y-105018800D01*
X119837200Y-105018800D02*
X119644200Y-105018800D01*
D41*
X119954000Y-103886000D02*
X120015000Y-103886000D01*
D39*
X118313200Y-109728000D02*
X118313200Y-109677200D01*
X118313200Y-109677200D02*
X119989600Y-108000800D01*
X119989600Y-108000800D02*
X121056400Y-108000800D01*
X115341400Y-111379000D02*
X114858800Y-111861600D01*
X124231400Y-138353800D02*
X123393200Y-137515600D01*
X123393200Y-137515600D02*
X123393200Y-135636000D01*
X123393200Y-135636000D02*
X114858800Y-127101600D01*
X114858800Y-127101600D02*
X114858800Y-112826800D01*
X114858800Y-112826800D02*
X114858800Y-111912400D01*
X115341400Y-111379000D02*
X116078000Y-110642400D01*
X114858800Y-111861600D02*
X114858800Y-111912400D01*
X124282200Y-138353800D02*
X124231400Y-138353800D01*
X132603200Y-114503200D02*
X131216400Y-114503200D01*
X149080800Y-100652000D02*
X149080800Y-99828000D01*
X148437600Y-101295200D02*
X149080800Y-100652000D01*
X148437600Y-102412800D02*
X148437600Y-101295200D01*
X147523200Y-103327200D02*
X148437600Y-102412800D01*
X146964400Y-103327200D02*
X147523200Y-103327200D01*
X140004800Y-104648000D02*
X140919200Y-103733600D01*
X140004800Y-107645200D02*
X140004800Y-104648000D01*
X140563600Y-108204000D02*
X140004800Y-107645200D01*
X140563600Y-111201200D02*
X140563600Y-108204000D01*
X139446000Y-112318800D02*
X140563600Y-111201200D01*
X131165600Y-112318800D02*
X139446000Y-112318800D01*
X130708400Y-112776000D02*
X131165600Y-112318800D01*
X133942200Y-118213800D02*
X133942200Y-117533800D01*
X133942200Y-117533800D02*
X132638800Y-116230400D01*
X132638800Y-116230400D02*
X132638800Y-114538800D01*
X132638800Y-114538800D02*
X132603200Y-114503200D01*
X133553200Y-117144800D02*
X133942200Y-117533800D01*
X132537200Y-117144800D02*
X133553200Y-117144800D01*
X130759200Y-118922800D02*
X132537200Y-117144800D01*
X130759200Y-121589800D02*
X130759200Y-118922800D01*
X132410200Y-123240800D02*
X130759200Y-121589800D01*
X132410200Y-132257800D02*
X132410200Y-123240800D01*
X129362200Y-135305800D02*
X132410200Y-132257800D01*
X129362200Y-138353800D02*
X129362200Y-135305800D01*
X142367000Y-123571000D02*
X141833600Y-124104400D01*
X137160000Y-125374400D02*
X137871200Y-125374400D01*
X137871200Y-125374400D02*
X137922000Y-125425200D01*
X136994900Y-137706100D02*
X136994900Y-135115300D01*
X142367000Y-123571000D02*
X144221200Y-121716800D01*
X136956800Y-125374400D02*
X137160000Y-125374400D01*
X135356602Y-126974598D02*
X136956800Y-125374400D01*
X135356602Y-133477002D02*
X135356602Y-126974598D01*
X136994900Y-135115300D02*
X135356602Y-133477002D01*
X145237200Y-120700800D02*
X146065200Y-120700800D01*
X144221200Y-121716800D02*
X145237200Y-120700800D01*
X135267700Y-139433300D02*
X136994900Y-137706100D01*
X133807200Y-139433300D02*
X135267700Y-139433300D01*
X136167200Y-122150800D02*
X136167200Y-120938800D01*
X133934200Y-124383800D02*
X136167200Y-122150800D01*
X133934200Y-133654800D02*
X133934200Y-124383800D01*
X133172200Y-138798300D02*
X133807200Y-139433300D01*
X133172200Y-134416800D02*
X133934200Y-133654800D01*
X133172200Y-135813800D02*
X133172200Y-138798300D01*
X133172200Y-135813800D02*
X133172200Y-134416800D01*
X116281200Y-113334800D02*
X116281200Y-113385600D01*
X117144800Y-112471200D02*
X116281200Y-113334800D01*
X125552200Y-135813800D02*
X125552200Y-134797800D01*
X125552200Y-134797800D02*
X116281200Y-125526800D01*
X116281200Y-125526800D02*
X116281200Y-113385600D01*
X116281200Y-107594400D02*
X117144800Y-108458000D01*
X117144800Y-108458000D02*
X117144800Y-112471200D01*
D40*
X121962200Y-93588800D02*
X121554200Y-93588800D01*
X121554200Y-93588800D02*
X120914200Y-92948800D01*
X120914200Y-92948800D02*
X119837200Y-92948800D01*
D39*
X121962200Y-91075800D02*
X121962200Y-93588800D01*
X120599200Y-89712800D02*
X121962200Y-91075800D01*
X118313200Y-89712800D02*
X120599200Y-89712800D01*
X116281200Y-91744800D02*
X118313200Y-89712800D01*
X116281200Y-107594400D02*
X116281200Y-91744800D01*
D40*
X119837200Y-92948800D02*
X119837200Y-94223800D01*
D39*
X116789200Y-106273600D02*
X116789200Y-107188000D01*
X117602000Y-112826804D02*
X116789200Y-113639604D01*
X117602000Y-108000800D02*
X117602000Y-112826804D01*
X116789200Y-107188000D02*
X117602000Y-108000800D01*
X126949200Y-134670800D02*
X128092200Y-135813800D01*
X126441200Y-134670800D02*
X126949200Y-134670800D01*
X116789200Y-125018800D02*
X126441200Y-134670800D01*
X116789200Y-100888800D02*
X116789200Y-106273600D01*
X116789200Y-113639604D02*
X116789200Y-125018800D01*
X118503700Y-99174300D02*
X116789200Y-100888800D01*
X118503700Y-99174300D02*
X118503700Y-95999300D01*
X118503700Y-95999300D02*
X119456200Y-95046800D01*
X119456200Y-95046800D02*
X120853200Y-95046800D01*
X120853200Y-95046800D02*
X121361200Y-94538800D01*
X121361200Y-94538800D02*
X122631200Y-94538800D01*
X122631200Y-94538800D02*
X123139200Y-94030800D01*
X123139200Y-94030800D02*
X123139200Y-93776800D01*
X123139200Y-93776800D02*
X123139200Y-92887800D01*
X123139200Y-92887800D02*
X125806200Y-90220800D01*
X126695200Y-90220800D02*
X127965200Y-88950800D01*
X125806200Y-90220800D02*
X126695200Y-90220800D01*
X131267200Y-76443800D02*
X131267200Y-76504800D01*
X131267200Y-76504800D02*
X127965200Y-79806800D01*
X127965200Y-79806800D02*
X127965200Y-88950800D01*
X131267200Y-76443800D02*
X130947200Y-76443800D01*
D40*
X131267200Y-76443800D02*
X131267200Y-75168800D01*
X132757200Y-74538800D02*
X131897200Y-74538800D01*
X131897200Y-74538800D02*
X131267200Y-75168800D01*
D39*
X134442200Y-124510800D02*
X134442200Y-138353800D01*
X136982200Y-121970800D02*
X136982200Y-120700800D01*
X136982200Y-121970800D02*
X134442200Y-124510800D01*
X136982200Y-120700800D02*
X136720200Y-120438800D01*
X137490200Y-124256800D02*
X137490200Y-121208800D01*
X137490200Y-121208800D02*
X136728200Y-120446800D01*
X137617200Y-124383800D02*
X137490200Y-124256800D01*
X136720200Y-120438800D02*
X136728200Y-120446800D01*
X136728200Y-120446800D02*
X136728200Y-120438800D01*
X137871200Y-124637800D02*
X137617200Y-124383800D01*
X143395700Y-120510300D02*
X145110200Y-118795800D01*
X143395700Y-120510300D02*
X141099037Y-122760799D01*
X145110200Y-118795800D02*
X146065200Y-118795800D01*
X136728200Y-120438800D02*
X136167200Y-120438800D01*
X130632200Y-135813800D02*
X130632200Y-135686800D01*
X130632200Y-135686800D02*
X132918200Y-133400800D01*
X132918200Y-133400800D02*
X132918200Y-124096398D01*
X132918200Y-124096398D02*
X134442200Y-122572398D01*
X134442200Y-122572398D02*
X134442200Y-121663800D01*
X131902200Y-135051800D02*
X131902200Y-138353800D01*
X133426200Y-133527800D02*
X131902200Y-135051800D01*
X133426200Y-124256800D02*
X133426200Y-133527800D01*
X134942200Y-122740800D02*
X133426200Y-124256800D01*
X134942200Y-121663800D02*
X134942200Y-122740800D01*
X163652200Y-135813800D02*
X162788600Y-135813800D01*
X160782000Y-134416794D02*
X160782000Y-131064000D01*
X160985206Y-134620000D02*
X160782000Y-134416794D01*
X161594800Y-134620000D02*
X160985206Y-134620000D01*
X162788600Y-135813800D02*
X161594800Y-134620000D01*
X159854900Y-128371600D02*
X159854900Y-130136900D01*
X159854900Y-130136900D02*
X160782000Y-131064000D01*
X159854900Y-116116100D02*
X159854900Y-128371600D01*
X169875200Y-111810800D02*
X174701200Y-106984800D01*
X164160200Y-111810800D02*
X169875200Y-111810800D01*
X159854900Y-116116100D02*
X164160200Y-111810800D01*
X174701200Y-106984800D02*
X174701200Y-95080800D01*
X156032200Y-128143000D02*
X156032200Y-129159000D01*
X156032200Y-129159000D02*
X159004000Y-132130800D01*
X158572200Y-135813800D02*
X158572200Y-134950198D01*
X158572200Y-134950198D02*
X159004000Y-134518398D01*
X159004000Y-134518398D02*
X159004000Y-132130800D01*
X156032200Y-128143000D02*
X156032200Y-128143000D01*
X156032200Y-128143000D02*
X156032200Y-126448800D01*
X158572200Y-135813800D02*
X158572200Y-135369300D01*
X158546800Y-133858000D02*
X158546800Y-134264400D01*
X157632400Y-135178800D02*
X157632400Y-138023600D01*
X158546800Y-134264400D02*
X157632400Y-135178800D01*
X157632400Y-138023600D02*
X157302200Y-138353800D01*
X158546800Y-133248400D02*
X158546800Y-132283200D01*
X154762200Y-128498600D02*
X154762200Y-126448800D01*
X158546800Y-132283200D02*
X154762200Y-128498600D01*
X158546800Y-133248400D02*
X158546800Y-133858000D01*
X154762200Y-127050800D02*
X154762200Y-126448800D01*
X157302200Y-138353800D02*
X157302200Y-138353800D01*
X138938000Y-109524800D02*
X132638800Y-109524800D01*
X143814800Y-113080800D02*
X147066000Y-116332000D01*
X147066000Y-116332000D02*
X147726400Y-116332000D01*
X149402800Y-118008400D02*
X149402800Y-129184400D01*
X150952200Y-135813800D02*
X150952200Y-130733800D01*
X149402800Y-118008400D02*
X147726400Y-116332000D01*
X149402800Y-129184400D02*
X150952200Y-130733800D01*
X131470400Y-108356400D02*
X131470400Y-102854800D01*
X132638800Y-109524800D02*
X131470400Y-108356400D01*
X131470400Y-102854800D02*
X131368800Y-102753200D01*
X133400800Y-108254800D02*
X133400800Y-108153200D01*
X134061200Y-108915200D02*
X133400800Y-108254800D01*
X138480800Y-108915200D02*
X134061200Y-108915200D01*
X152222200Y-138353800D02*
X152222200Y-137134600D01*
X152450800Y-136906000D02*
X152450800Y-135534400D01*
X152222200Y-137134600D02*
X152450800Y-136906000D01*
X155905200Y-132943600D02*
X149885400Y-126923800D01*
X155905200Y-133603998D02*
X155905200Y-132943600D01*
X155651200Y-133857998D02*
X155905200Y-133603998D01*
X155143202Y-133857998D02*
X155651200Y-133857998D01*
X154635200Y-134366000D02*
X155143202Y-133857998D01*
X153619200Y-134366000D02*
X154635200Y-134366000D01*
X152450800Y-135534400D02*
X153619200Y-134366000D01*
X149885400Y-118211600D02*
X149885400Y-117830600D01*
X149885400Y-117830600D02*
X144526000Y-112471200D01*
X149885400Y-118211600D02*
X149885400Y-126923800D01*
X133400800Y-102753200D02*
X133400800Y-108153200D01*
X156032200Y-135813800D02*
X156032200Y-135559798D01*
X156032200Y-135559798D02*
X157683200Y-133908798D01*
X157683200Y-133299200D02*
X157226000Y-132842000D01*
X157683200Y-133908798D02*
X157683200Y-133299200D01*
X157226000Y-132842000D02*
X157226000Y-131978400D01*
X181813200Y-89660800D02*
X179146200Y-86993800D01*
X181813200Y-93472000D02*
X181813200Y-89660800D01*
X180543200Y-94742000D02*
X181813200Y-93472000D01*
X178714400Y-94742000D02*
X180543200Y-94742000D01*
X175158400Y-98298000D02*
X178714400Y-94742000D01*
X175158400Y-107238800D02*
X175158400Y-98298000D01*
X169976800Y-112420400D02*
X175158400Y-107238800D01*
X164236400Y-112420400D02*
X169976800Y-112420400D01*
X160477200Y-116179600D02*
X164236400Y-112420400D01*
X160477200Y-128828800D02*
X160477200Y-116179600D01*
X160477200Y-128828800D02*
X160477200Y-128828800D01*
X179146200Y-86993800D02*
X179475200Y-86993800D01*
X179146200Y-86993800D02*
X179146200Y-87426800D01*
X179146200Y-87426800D02*
X176479200Y-90093800D01*
X169113209Y-90085505D02*
X167396200Y-88993800D01*
X176479200Y-90093800D02*
X169113209Y-90085505D01*
X179071200Y-86918800D02*
X179146200Y-86993800D01*
X137058400Y-108305600D02*
X135890000Y-107137200D01*
X138023600Y-108305600D02*
X137058400Y-108305600D01*
X144221200Y-111709200D02*
X144576800Y-111709200D01*
X144576800Y-111709200D02*
X145186400Y-112318800D01*
X153492200Y-135813800D02*
X153797000Y-135813800D01*
X153797000Y-135813800D02*
X155346400Y-134264400D01*
X156362400Y-132588000D02*
X151282400Y-127508000D01*
X156362400Y-133959600D02*
X156362400Y-132588000D01*
X156057600Y-134264400D02*
X156362400Y-133959600D01*
X155346400Y-134264400D02*
X156057600Y-134264400D01*
X131572000Y-93827600D02*
X131572000Y-93776800D01*
X131572000Y-93776800D02*
X133604000Y-91744800D01*
X133604000Y-86817200D02*
X133604000Y-91744800D01*
X133604000Y-86817200D02*
X133604000Y-86055200D01*
X133604000Y-86055200D02*
X132757200Y-85208400D01*
X132757200Y-85208400D02*
X132757200Y-84698800D01*
X151282400Y-120700800D02*
X151282400Y-118922800D01*
X151282400Y-127508000D02*
X151282400Y-120700800D01*
X151282400Y-120700800D02*
X151282400Y-120345200D01*
X131267200Y-84693800D02*
X131267200Y-85968800D01*
X132757200Y-84698800D02*
X131272200Y-84698800D01*
X131272200Y-84698800D02*
X131267200Y-84693800D01*
X148234400Y-115366800D02*
X145186400Y-112318800D01*
X148869400Y-116001800D02*
X148234400Y-115366800D01*
X129997200Y-97637600D02*
X131572000Y-96062800D01*
X129997200Y-101193600D02*
X129997200Y-97637600D01*
X130556000Y-101752400D02*
X129997200Y-101193600D01*
X134213600Y-101752400D02*
X130556000Y-101752400D01*
X135890000Y-103428800D02*
X134213600Y-101752400D01*
X135890000Y-107137200D02*
X135890000Y-103428800D01*
X150317200Y-117449600D02*
X148869400Y-116001800D01*
X148869400Y-116001800D02*
X148844000Y-115976400D01*
X150317200Y-117957600D02*
X150317200Y-117449600D01*
X151282400Y-118922800D02*
X150317200Y-117957600D01*
X158800800Y-128727200D02*
X158800800Y-130505200D01*
X158800800Y-130505200D02*
X159918402Y-131622802D01*
X157886400Y-101955600D02*
X157886400Y-106730800D01*
X157886400Y-106730800D02*
X158800800Y-107645200D01*
X152857200Y-85902800D02*
X152857200Y-82245200D01*
X146456400Y-76173000D02*
X145457200Y-75173800D01*
X146456400Y-79552800D02*
X146456400Y-76173000D01*
X147218400Y-80314800D02*
X146456400Y-79552800D01*
X150926800Y-80314800D02*
X147218400Y-80314800D01*
X152857200Y-82245200D02*
X150926800Y-80314800D01*
X159842200Y-138353800D02*
X159842200Y-137083800D01*
X159918402Y-137007598D02*
X159918402Y-131622802D01*
X159842200Y-137083800D02*
X159918402Y-137007598D01*
X158800800Y-128727200D02*
X158800800Y-107645200D01*
X152857200Y-84988400D02*
X152806400Y-84937600D01*
X152857200Y-89814400D02*
X152857200Y-85902800D01*
X157835600Y-94792800D02*
X152857200Y-89814400D01*
X152857200Y-85902800D02*
X152857200Y-84988400D01*
X159842200Y-138353800D02*
X159842200Y-138506200D01*
X159842200Y-138353800D02*
X159842200Y-138607800D01*
D40*
X145457200Y-75173800D02*
X143972200Y-75173800D01*
X143972200Y-75173800D02*
X143967200Y-75168800D01*
X143967200Y-76443800D02*
X143967200Y-75168800D01*
D39*
X171102200Y-119938800D02*
X170637200Y-119938800D01*
X170637200Y-119938800D02*
X170002200Y-120573800D01*
X170002200Y-120573800D02*
X170002200Y-121843800D01*
X170002200Y-121843800D02*
X169052200Y-122793800D01*
X169052200Y-122793800D02*
X165557200Y-122793800D01*
X172542200Y-123433800D02*
X172862200Y-123433800D01*
X172862200Y-123433800D02*
X174447200Y-125018800D01*
X174447200Y-125018800D02*
X174447200Y-125333800D01*
X172542200Y-123433800D02*
X172227200Y-123433800D01*
X172227200Y-123433800D02*
X171102200Y-122308800D01*
X171102200Y-122308800D02*
X171102200Y-120888800D01*
X165496200Y-91193800D02*
X165496200Y-92064800D01*
X165496200Y-92064800D02*
X165938200Y-92506800D01*
X165938200Y-92506800D02*
X171145200Y-92506800D01*
X171780200Y-91871800D02*
X171780200Y-91043800D01*
X171145200Y-92506800D02*
X171780200Y-91871800D01*
X171780200Y-91043800D02*
X171780200Y-91236800D01*
D40*
X173812200Y-91043800D02*
X171780200Y-91043800D01*
D39*
X121361200Y-118160800D02*
X120914200Y-118160800D01*
X120914200Y-118160800D02*
X119837200Y-117083800D01*
X120980200Y-118160800D02*
X119903200Y-117083800D01*
X124282200Y-118160800D02*
X121361200Y-118160800D01*
X121361200Y-118160800D02*
X120980200Y-118160800D01*
X127774700Y-118160800D02*
X124282200Y-118160800D01*
X130060700Y-118160800D02*
X127774700Y-118160800D01*
X129946400Y-118160800D02*
X130060700Y-118160800D01*
X119903200Y-117083800D02*
X119837200Y-117083800D01*
X133442200Y-118213800D02*
X132526700Y-118213800D01*
X132526700Y-118213800D02*
X132473700Y-118160800D01*
X133442200Y-118213800D02*
X133352200Y-118213800D01*
X143713200Y-106019600D02*
X143713200Y-105562400D01*
X144221200Y-102819200D02*
X143560800Y-102158800D01*
X144221200Y-105054400D02*
X144221200Y-102819200D01*
X143713200Y-105562400D02*
X144221200Y-105054400D01*
X143713200Y-110896400D02*
X143560800Y-111048800D01*
X143713200Y-106019600D02*
X143713200Y-110896400D01*
X143560800Y-102158800D02*
X143560800Y-101348000D01*
X143560800Y-101348000D02*
X143630800Y-101278000D01*
X140714015Y-115620885D02*
X140714015Y-115216385D01*
X140714015Y-115620885D02*
X140970000Y-121615200D01*
X140714015Y-115216385D02*
X143560800Y-112369600D01*
X143560800Y-112369600D02*
X143560800Y-111048800D01*
X140970000Y-121615200D02*
X140970000Y-121551700D01*
X140970000Y-121551700D02*
X140970000Y-121615200D01*
X140970000Y-121615200D02*
X140970000Y-121615200D01*
X135712200Y-134670800D02*
X135712200Y-135813800D01*
X134950200Y-133908800D02*
X135712200Y-134670800D01*
X134950200Y-126415800D02*
X134950200Y-133908800D01*
X136855200Y-124510800D02*
X134950200Y-126415800D01*
X149032000Y-86715600D02*
X149032000Y-85138400D01*
X149032000Y-85138400D02*
X149334400Y-84836000D01*
X141696400Y-87122000D02*
X141696400Y-85341600D01*
X141696400Y-85341600D02*
X141546400Y-85191600D01*
X146253200Y-104343200D02*
X146558000Y-104038400D01*
X146558000Y-104038400D02*
X146558000Y-103835200D01*
X147421600Y-102412800D02*
X147630800Y-102203600D01*
X147031140Y-102412800D02*
X147421600Y-102412800D01*
X146210370Y-103233570D02*
X147031140Y-102412800D01*
X146210370Y-103487570D02*
X146210370Y-103233570D01*
X146558000Y-103835200D02*
X146210370Y-103487570D01*
X143002000Y-107594400D02*
X143002000Y-105410000D01*
X147630800Y-102203600D02*
X147630800Y-101278000D01*
X143002000Y-105410000D02*
X143205200Y-105206800D01*
X140055600Y-115722400D02*
X140055600Y-115163600D01*
X138988800Y-135026400D02*
X138988800Y-120446800D01*
X138988800Y-120446800D02*
X138836400Y-120294400D01*
X140055600Y-118211600D02*
X140055600Y-115722400D01*
X142062200Y-138099800D02*
X138988800Y-135026400D01*
X143002000Y-112217200D02*
X143002000Y-107594400D01*
X143002000Y-107594400D02*
X143002000Y-107442000D01*
X140055600Y-115163600D02*
X143002000Y-112217200D01*
X142062200Y-138353800D02*
X142062200Y-138099800D01*
X142062200Y-138353800D02*
X142379700Y-138353800D01*
X146830800Y-92778000D02*
X146830800Y-87016800D01*
X146830800Y-87016800D02*
X147132000Y-86715600D01*
X143630800Y-92778000D02*
X143630800Y-87156400D01*
X143630800Y-87156400D02*
X143596400Y-87122000D01*
X131368800Y-97840800D02*
X131368800Y-100853200D01*
X140580800Y-96628000D02*
X132581600Y-96628000D01*
X132581600Y-96628000D02*
X131368800Y-97840800D01*
X133400800Y-98247200D02*
X133400800Y-100853200D01*
X134220000Y-97428000D02*
X133400800Y-98247200D01*
X140580800Y-97428000D02*
X134220000Y-97428000D01*
M02*
