G04 #@! TF.FileFunction,Legend,Top*
%FSLAX46Y46*%
G04 Gerber Fmt 4.6, Leading zero omitted, Abs format (unit mm)*
G04 Created by KiCad (PCBNEW 4.0.7) date 02/05/18 22:40:42*
%MOMM*%
%LPD*%
G01*
G04 APERTURE LIST*
%ADD10C,0.100000*%
%ADD11C,0.254000*%
%ADD12C,0.300000*%
%ADD13C,0.200000*%
%ADD14C,0.120000*%
%ADD15C,0.150000*%
G04 APERTURE END LIST*
D10*
D11*
X55111953Y-110568619D02*
X55692524Y-110568619D01*
X55402239Y-111584619D02*
X55402239Y-110568619D01*
X55982810Y-111536238D02*
X56127953Y-111584619D01*
X56369857Y-111584619D01*
X56466619Y-111536238D01*
X56515000Y-111487857D01*
X56563381Y-111391095D01*
X56563381Y-111294333D01*
X56515000Y-111197571D01*
X56466619Y-111149190D01*
X56369857Y-111100810D01*
X56176334Y-111052429D01*
X56079572Y-111004048D01*
X56031191Y-110955667D01*
X55982810Y-110858905D01*
X55982810Y-110762143D01*
X56031191Y-110665381D01*
X56079572Y-110617000D01*
X56176334Y-110568619D01*
X56418238Y-110568619D01*
X56563381Y-110617000D01*
X56998810Y-111197571D02*
X57772905Y-111197571D01*
D12*
X47324287Y-112198571D02*
X48181430Y-112198571D01*
X47752859Y-113698571D02*
X47752859Y-112198571D01*
X48610001Y-113627143D02*
X48824287Y-113698571D01*
X49181430Y-113698571D01*
X49324287Y-113627143D01*
X49395716Y-113555714D01*
X49467144Y-113412857D01*
X49467144Y-113270000D01*
X49395716Y-113127143D01*
X49324287Y-113055714D01*
X49181430Y-112984286D01*
X48895716Y-112912857D01*
X48752858Y-112841429D01*
X48681430Y-112770000D01*
X48610001Y-112627143D01*
X48610001Y-112484286D01*
X48681430Y-112341429D01*
X48752858Y-112270000D01*
X48895716Y-112198571D01*
X49252858Y-112198571D01*
X49467144Y-112270000D01*
X50038572Y-113270000D02*
X50752858Y-113270000D01*
X49895715Y-113698571D02*
X50395715Y-112198571D01*
X50895715Y-113698571D01*
X52110001Y-113698571D02*
X51395715Y-113698571D01*
X51395715Y-112198571D01*
X54610001Y-113698571D02*
X54110001Y-112984286D01*
X53752858Y-113698571D02*
X53752858Y-112198571D01*
X54324286Y-112198571D01*
X54467144Y-112270000D01*
X54538572Y-112341429D01*
X54610001Y-112484286D01*
X54610001Y-112698571D01*
X54538572Y-112841429D01*
X54467144Y-112912857D01*
X54324286Y-112984286D01*
X53752858Y-112984286D01*
X55824286Y-113627143D02*
X55681429Y-113698571D01*
X55395715Y-113698571D01*
X55252858Y-113627143D01*
X55181429Y-113484286D01*
X55181429Y-112912857D01*
X55252858Y-112770000D01*
X55395715Y-112698571D01*
X55681429Y-112698571D01*
X55824286Y-112770000D01*
X55895715Y-112912857D01*
X55895715Y-113055714D01*
X55181429Y-113198571D01*
X56395715Y-112698571D02*
X56752858Y-113698571D01*
X57110000Y-112698571D01*
X58752857Y-112341429D02*
X58824286Y-112270000D01*
X58967143Y-112198571D01*
X59324286Y-112198571D01*
X59467143Y-112270000D01*
X59538572Y-112341429D01*
X59610000Y-112484286D01*
X59610000Y-112627143D01*
X59538572Y-112841429D01*
X58681429Y-113698571D01*
X59610000Y-113698571D01*
X60252857Y-113555714D02*
X60324285Y-113627143D01*
X60252857Y-113698571D01*
X60181428Y-113627143D01*
X60252857Y-113555714D01*
X60252857Y-113698571D01*
X61252857Y-112198571D02*
X61395714Y-112198571D01*
X61538571Y-112270000D01*
X61610000Y-112341429D01*
X61681429Y-112484286D01*
X61752857Y-112770000D01*
X61752857Y-113127143D01*
X61681429Y-113412857D01*
X61610000Y-113555714D01*
X61538571Y-113627143D01*
X61395714Y-113698571D01*
X61252857Y-113698571D01*
X61110000Y-113627143D01*
X61038571Y-113555714D01*
X60967143Y-113412857D01*
X60895714Y-113127143D01*
X60895714Y-112770000D01*
X60967143Y-112484286D01*
X61038571Y-112341429D01*
X61110000Y-112270000D01*
X61252857Y-112198571D01*
X48110000Y-114748571D02*
X48110000Y-115962857D01*
X48181428Y-116105714D01*
X48252857Y-116177143D01*
X48395714Y-116248571D01*
X48681428Y-116248571D01*
X48824286Y-116177143D01*
X48895714Y-116105714D01*
X48967143Y-115962857D01*
X48967143Y-114748571D01*
X49467143Y-115248571D02*
X50038572Y-115248571D01*
X49681429Y-114748571D02*
X49681429Y-116034286D01*
X49752857Y-116177143D01*
X49895715Y-116248571D01*
X50038572Y-116248571D01*
X50467143Y-116177143D02*
X50610000Y-116248571D01*
X50895715Y-116248571D01*
X51038572Y-116177143D01*
X51110000Y-116034286D01*
X51110000Y-115962857D01*
X51038572Y-115820000D01*
X50895715Y-115748571D01*
X50681429Y-115748571D01*
X50538572Y-115677143D01*
X50467143Y-115534286D01*
X50467143Y-115462857D01*
X50538572Y-115320000D01*
X50681429Y-115248571D01*
X50895715Y-115248571D01*
X51038572Y-115320000D01*
X52395715Y-116248571D02*
X52395715Y-115462857D01*
X52324286Y-115320000D01*
X52181429Y-115248571D01*
X51895715Y-115248571D01*
X51752858Y-115320000D01*
X52395715Y-116177143D02*
X52252858Y-116248571D01*
X51895715Y-116248571D01*
X51752858Y-116177143D01*
X51681429Y-116034286D01*
X51681429Y-115891429D01*
X51752858Y-115748571D01*
X51895715Y-115677143D01*
X52252858Y-115677143D01*
X52395715Y-115605714D01*
X52967144Y-115248571D02*
X53324287Y-116248571D01*
X53681429Y-115248571D01*
X56181429Y-114820000D02*
X56038572Y-114748571D01*
X55824286Y-114748571D01*
X55610001Y-114820000D01*
X55467143Y-114962857D01*
X55395715Y-115105714D01*
X55324286Y-115391429D01*
X55324286Y-115605714D01*
X55395715Y-115891429D01*
X55467143Y-116034286D01*
X55610001Y-116177143D01*
X55824286Y-116248571D01*
X55967143Y-116248571D01*
X56181429Y-116177143D01*
X56252858Y-116105714D01*
X56252858Y-115605714D01*
X55967143Y-115605714D01*
X57538572Y-115248571D02*
X57538572Y-116248571D01*
X56895715Y-115248571D02*
X56895715Y-116034286D01*
X56967143Y-116177143D01*
X57110001Y-116248571D01*
X57324286Y-116248571D01*
X57467143Y-116177143D01*
X57538572Y-116105714D01*
X58252858Y-115248571D02*
X58252858Y-116748571D01*
X58252858Y-115320000D02*
X58395715Y-115248571D01*
X58681429Y-115248571D01*
X58824286Y-115320000D01*
X58895715Y-115391429D01*
X58967144Y-115534286D01*
X58967144Y-115962857D01*
X58895715Y-116105714D01*
X58824286Y-116177143D01*
X58681429Y-116248571D01*
X58395715Y-116248571D01*
X58252858Y-116177143D01*
X59395715Y-115248571D02*
X59967144Y-115248571D01*
X59610001Y-114748571D02*
X59610001Y-116034286D01*
X59681429Y-116177143D01*
X59824287Y-116248571D01*
X59967144Y-116248571D01*
X61110001Y-116248571D02*
X61110001Y-115462857D01*
X61038572Y-115320000D01*
X60895715Y-115248571D01*
X60610001Y-115248571D01*
X60467144Y-115320000D01*
X61110001Y-116177143D02*
X60967144Y-116248571D01*
X60610001Y-116248571D01*
X60467144Y-116177143D01*
X60395715Y-116034286D01*
X60395715Y-115891429D01*
X60467144Y-115748571D01*
X60610001Y-115677143D01*
X60967144Y-115677143D01*
X61110001Y-115605714D01*
X49038572Y-117441429D02*
X49110001Y-117370000D01*
X49252858Y-117298571D01*
X49610001Y-117298571D01*
X49752858Y-117370000D01*
X49824287Y-117441429D01*
X49895715Y-117584286D01*
X49895715Y-117727143D01*
X49824287Y-117941429D01*
X48967144Y-118798571D01*
X49895715Y-118798571D01*
X51610000Y-117227143D02*
X50324286Y-119155714D01*
X52824287Y-117298571D02*
X52110001Y-117298571D01*
X52038572Y-118012857D01*
X52110001Y-117941429D01*
X52252858Y-117870000D01*
X52610001Y-117870000D01*
X52752858Y-117941429D01*
X52824287Y-118012857D01*
X52895715Y-118155714D01*
X52895715Y-118512857D01*
X52824287Y-118655714D01*
X52752858Y-118727143D01*
X52610001Y-118798571D01*
X52252858Y-118798571D01*
X52110001Y-118727143D01*
X52038572Y-118655714D01*
X54610000Y-117227143D02*
X53324286Y-119155714D01*
X55038572Y-117441429D02*
X55110001Y-117370000D01*
X55252858Y-117298571D01*
X55610001Y-117298571D01*
X55752858Y-117370000D01*
X55824287Y-117441429D01*
X55895715Y-117584286D01*
X55895715Y-117727143D01*
X55824287Y-117941429D01*
X54967144Y-118798571D01*
X55895715Y-118798571D01*
X56824286Y-117298571D02*
X56967143Y-117298571D01*
X57110000Y-117370000D01*
X57181429Y-117441429D01*
X57252858Y-117584286D01*
X57324286Y-117870000D01*
X57324286Y-118227143D01*
X57252858Y-118512857D01*
X57181429Y-118655714D01*
X57110000Y-118727143D01*
X56967143Y-118798571D01*
X56824286Y-118798571D01*
X56681429Y-118727143D01*
X56610000Y-118655714D01*
X56538572Y-118512857D01*
X56467143Y-118227143D01*
X56467143Y-117870000D01*
X56538572Y-117584286D01*
X56610000Y-117441429D01*
X56681429Y-117370000D01*
X56824286Y-117298571D01*
X58752857Y-118798571D02*
X57895714Y-118798571D01*
X58324286Y-118798571D02*
X58324286Y-117298571D01*
X58181429Y-117512857D01*
X58038571Y-117655714D01*
X57895714Y-117727143D01*
X59610000Y-117941429D02*
X59467142Y-117870000D01*
X59395714Y-117798571D01*
X59324285Y-117655714D01*
X59324285Y-117584286D01*
X59395714Y-117441429D01*
X59467142Y-117370000D01*
X59610000Y-117298571D01*
X59895714Y-117298571D01*
X60038571Y-117370000D01*
X60110000Y-117441429D01*
X60181428Y-117584286D01*
X60181428Y-117655714D01*
X60110000Y-117798571D01*
X60038571Y-117870000D01*
X59895714Y-117941429D01*
X59610000Y-117941429D01*
X59467142Y-118012857D01*
X59395714Y-118084286D01*
X59324285Y-118227143D01*
X59324285Y-118512857D01*
X59395714Y-118655714D01*
X59467142Y-118727143D01*
X59610000Y-118798571D01*
X59895714Y-118798571D01*
X60038571Y-118727143D01*
X60110000Y-118655714D01*
X60181428Y-118512857D01*
X60181428Y-118227143D01*
X60110000Y-118084286D01*
X60038571Y-118012857D01*
X59895714Y-117941429D01*
X49001429Y-73670693D02*
X49001429Y-73813550D01*
X48930000Y-73956407D01*
X48858571Y-74027836D01*
X48715714Y-74099265D01*
X48430000Y-74170693D01*
X48072857Y-74170693D01*
X47787143Y-74099265D01*
X47644286Y-74027836D01*
X47572857Y-73956407D01*
X47501429Y-73813550D01*
X47501429Y-73670693D01*
X47572857Y-73527836D01*
X47644286Y-73456407D01*
X47787143Y-73384979D01*
X48072857Y-73313550D01*
X48430000Y-73313550D01*
X48715714Y-73384979D01*
X48858571Y-73456407D01*
X48930000Y-73527836D01*
X49001429Y-73670693D01*
X47644286Y-74813550D02*
X47572857Y-74884978D01*
X47501429Y-74813550D01*
X47572857Y-74742121D01*
X47644286Y-74813550D01*
X47501429Y-74813550D01*
X49001429Y-76242122D02*
X49001429Y-75527836D01*
X48287143Y-75456407D01*
X48358571Y-75527836D01*
X48430000Y-75670693D01*
X48430000Y-76027836D01*
X48358571Y-76170693D01*
X48287143Y-76242122D01*
X48144286Y-76313550D01*
X47787143Y-76313550D01*
X47644286Y-76242122D01*
X47572857Y-76170693D01*
X47501429Y-76027836D01*
X47501429Y-75670693D01*
X47572857Y-75527836D01*
X47644286Y-75456407D01*
X49001429Y-77242121D02*
X49001429Y-77384978D01*
X48930000Y-77527835D01*
X48858571Y-77599264D01*
X48715714Y-77670693D01*
X48430000Y-77742121D01*
X48072857Y-77742121D01*
X47787143Y-77670693D01*
X47644286Y-77599264D01*
X47572857Y-77527835D01*
X47501429Y-77384978D01*
X47501429Y-77242121D01*
X47572857Y-77099264D01*
X47644286Y-77027835D01*
X47787143Y-76956407D01*
X48072857Y-76884978D01*
X48430000Y-76884978D01*
X48715714Y-76956407D01*
X48858571Y-77027835D01*
X48930000Y-77099264D01*
X49001429Y-77242121D01*
X49001429Y-78670692D02*
X49001429Y-78813549D01*
X48930000Y-78956406D01*
X48858571Y-79027835D01*
X48715714Y-79099264D01*
X48430000Y-79170692D01*
X48072857Y-79170692D01*
X47787143Y-79099264D01*
X47644286Y-79027835D01*
X47572857Y-78956406D01*
X47501429Y-78813549D01*
X47501429Y-78670692D01*
X47572857Y-78527835D01*
X47644286Y-78456406D01*
X47787143Y-78384978D01*
X48072857Y-78313549D01*
X48430000Y-78313549D01*
X48715714Y-78384978D01*
X48858571Y-78456406D01*
X48930000Y-78527835D01*
X49001429Y-78670692D01*
X49001429Y-80099263D02*
X49001429Y-80242120D01*
X48930000Y-80384977D01*
X48858571Y-80456406D01*
X48715714Y-80527835D01*
X48430000Y-80599263D01*
X48072857Y-80599263D01*
X47787143Y-80527835D01*
X47644286Y-80456406D01*
X47572857Y-80384977D01*
X47501429Y-80242120D01*
X47501429Y-80099263D01*
X47572857Y-79956406D01*
X47644286Y-79884977D01*
X47787143Y-79813549D01*
X48072857Y-79742120D01*
X48430000Y-79742120D01*
X48715714Y-79813549D01*
X48858571Y-79884977D01*
X48930000Y-79956406D01*
X49001429Y-80099263D01*
X47501429Y-82384977D02*
X48501429Y-82384977D01*
X49001429Y-82384977D02*
X48930000Y-82313548D01*
X48858571Y-82384977D01*
X48930000Y-82456405D01*
X49001429Y-82384977D01*
X48858571Y-82384977D01*
X48501429Y-83099263D02*
X47501429Y-83099263D01*
X48358571Y-83099263D02*
X48430000Y-83170691D01*
X48501429Y-83313549D01*
X48501429Y-83527834D01*
X48430000Y-83670691D01*
X48287143Y-83742120D01*
X47501429Y-83742120D01*
X49530000Y-72213549D02*
X49530000Y-84913549D01*
X81280000Y-72213549D02*
X46830000Y-72213549D01*
X81280000Y-84913549D02*
X46830000Y-84913549D01*
X49530000Y-84913549D02*
X48943579Y-83787045D01*
X49530000Y-84913549D02*
X50116421Y-83787045D01*
X49530000Y-72213549D02*
X48943579Y-73340053D01*
X49530000Y-72213549D02*
X50116421Y-73340053D01*
X84498571Y-76378571D02*
X84498571Y-77092857D01*
X82998571Y-77092857D01*
X82998571Y-76092857D02*
X84498571Y-75592857D01*
X82998571Y-75092857D01*
X84498571Y-82351428D02*
X82998571Y-82351428D01*
X83712857Y-82351428D02*
X83712857Y-81494285D01*
X84498571Y-81494285D02*
X82998571Y-81494285D01*
X82998571Y-80994285D02*
X84498571Y-80494285D01*
X82998571Y-79994285D01*
D13*
X48260000Y-78740000D02*
X86360000Y-78740000D01*
D14*
X74510000Y-109450000D02*
X74510000Y-108450000D01*
X72810000Y-108450000D02*
X72810000Y-109450000D01*
X80430000Y-101878000D02*
X80430000Y-102878000D01*
X82130000Y-102878000D02*
X82130000Y-101878000D01*
X74510000Y-104910000D02*
X74510000Y-103910000D01*
X72810000Y-103910000D02*
X72810000Y-104910000D01*
X65698000Y-93353000D02*
X65698000Y-94353000D01*
X67398000Y-94353000D02*
X67398000Y-93353000D01*
D10*
X61880000Y-89251000D02*
X62230000Y-89251000D01*
X62230000Y-89251000D02*
X62580000Y-89251000D01*
X61880000Y-89601000D02*
X62230000Y-89251000D01*
X61930000Y-89601000D02*
X61880000Y-89601000D01*
X61880000Y-89601000D02*
X61930000Y-89601000D01*
X62580000Y-89601000D02*
X61930000Y-89601000D01*
X62530000Y-89551000D02*
X62580000Y-89601000D01*
X62230000Y-89251000D02*
X62530000Y-89551000D01*
D14*
X62930000Y-87651000D02*
X61530000Y-87651000D01*
X61530000Y-87651000D02*
X61530000Y-90451000D01*
X62930000Y-87651000D02*
X62930000Y-90451000D01*
D15*
X53220000Y-109790000D02*
X56530000Y-109790000D01*
X56530000Y-109790000D02*
X56530000Y-101990000D01*
X56530000Y-101990000D02*
X53220000Y-101990000D01*
X53220000Y-101990000D02*
X47498000Y-101990000D01*
X53220000Y-109790000D02*
X47498000Y-109790000D01*
X53220000Y-101990000D02*
X53220000Y-109790000D01*
X47498000Y-101990000D02*
X47498000Y-109790000D01*
X75445000Y-98162000D02*
X78755000Y-98162000D01*
X78755000Y-98162000D02*
X78755000Y-90362000D01*
X78755000Y-90362000D02*
X75445000Y-90362000D01*
X75445000Y-90362000D02*
X69723000Y-90362000D01*
X75445000Y-98162000D02*
X69723000Y-98162000D01*
X75445000Y-90362000D02*
X75445000Y-98162000D01*
X69723000Y-90362000D02*
X69723000Y-98162000D01*
D14*
X73528000Y-65423000D02*
X72598000Y-65423000D01*
X70368000Y-65423000D02*
X71298000Y-65423000D01*
X70368000Y-65423000D02*
X70368000Y-67583000D01*
X73528000Y-65423000D02*
X73528000Y-66883000D01*
X69765287Y-117346335D02*
X70965287Y-117346335D01*
X70965287Y-119106335D02*
X69765287Y-119106335D01*
X70838287Y-116566335D02*
X69638287Y-116566335D01*
X69638287Y-114806335D02*
X70838287Y-114806335D01*
X51190000Y-99340000D02*
X51190000Y-98140000D01*
X52950000Y-98140000D02*
X52950000Y-99340000D01*
X51190000Y-94580000D02*
X51190000Y-93380000D01*
X52950000Y-93380000D02*
X52950000Y-94580000D01*
X61840000Y-98140000D02*
X61840000Y-99340000D01*
X60080000Y-99340000D02*
X60080000Y-98140000D01*
X58030000Y-93380000D02*
X58030000Y-94580000D01*
X56270000Y-94580000D02*
X56270000Y-93380000D01*
X58030000Y-98140000D02*
X58030000Y-99340000D01*
X56270000Y-99340000D02*
X56270000Y-98140000D01*
X72990000Y-102480000D02*
X71790000Y-102480000D01*
X71790000Y-100720000D02*
X72990000Y-100720000D01*
X67595000Y-88891000D02*
X66395000Y-88891000D01*
X66395000Y-87131000D02*
X67595000Y-87131000D01*
X58302000Y-89754000D02*
X58302000Y-88554000D01*
X60062000Y-88554000D02*
X60062000Y-89754000D01*
X72548000Y-71619000D02*
X71348000Y-71619000D01*
X71348000Y-69859000D02*
X72548000Y-69859000D01*
X65647787Y-109139335D02*
X65647787Y-110639335D01*
X65647787Y-110639335D02*
X65917787Y-110639335D01*
X65917787Y-110639335D02*
X65917787Y-113469335D01*
X72547787Y-109139335D02*
X72547787Y-110639335D01*
X72547787Y-110639335D02*
X72277787Y-110639335D01*
X72277787Y-110639335D02*
X72277787Y-111739335D01*
X79120000Y-101217000D02*
X77220000Y-101217000D01*
X77720000Y-103537000D02*
X79120000Y-103537000D01*
X59350000Y-92910000D02*
X59350000Y-94710000D01*
X62570000Y-94710000D02*
X62570000Y-92260000D01*
X65610000Y-81140000D02*
X65610000Y-82840000D01*
X69010000Y-76340000D02*
X69310000Y-76340000D01*
X69310000Y-76340000D02*
X69310000Y-81140000D01*
X69310000Y-81140000D02*
X69010000Y-81140000D01*
X65610000Y-81140000D02*
X65310000Y-81140000D01*
X65310000Y-81140000D02*
X65310000Y-76340000D01*
X65310000Y-76340000D02*
X65610000Y-76340000D01*
D15*
X68472000Y-69579000D02*
X68472000Y-64279000D01*
X58782000Y-69579000D02*
X58782000Y-64279000D01*
X68472000Y-69579000D02*
X58782000Y-69579000D01*
X68472000Y-64279000D02*
X58782000Y-64279000D01*
X75517143Y-109116666D02*
X75564762Y-109164285D01*
X75612381Y-109307142D01*
X75612381Y-109402380D01*
X75564762Y-109545238D01*
X75469524Y-109640476D01*
X75374286Y-109688095D01*
X75183810Y-109735714D01*
X75040952Y-109735714D01*
X74850476Y-109688095D01*
X74755238Y-109640476D01*
X74660000Y-109545238D01*
X74612381Y-109402380D01*
X74612381Y-109307142D01*
X74660000Y-109164285D01*
X74707619Y-109116666D01*
X75612381Y-108164285D02*
X75612381Y-108735714D01*
X75612381Y-108450000D02*
X74612381Y-108450000D01*
X74755238Y-108545238D01*
X74850476Y-108640476D01*
X74898095Y-108735714D01*
X83415143Y-102528666D02*
X83462762Y-102576285D01*
X83510381Y-102719142D01*
X83510381Y-102814380D01*
X83462762Y-102957238D01*
X83367524Y-103052476D01*
X83272286Y-103100095D01*
X83081810Y-103147714D01*
X82938952Y-103147714D01*
X82748476Y-103100095D01*
X82653238Y-103052476D01*
X82558000Y-102957238D01*
X82510381Y-102814380D01*
X82510381Y-102719142D01*
X82558000Y-102576285D01*
X82605619Y-102528666D01*
X82605619Y-102147714D02*
X82558000Y-102100095D01*
X82510381Y-102004857D01*
X82510381Y-101766761D01*
X82558000Y-101671523D01*
X82605619Y-101623904D01*
X82700857Y-101576285D01*
X82796095Y-101576285D01*
X82938952Y-101623904D01*
X83510381Y-102195333D01*
X83510381Y-101576285D01*
X75517143Y-104576666D02*
X75564762Y-104624285D01*
X75612381Y-104767142D01*
X75612381Y-104862380D01*
X75564762Y-105005238D01*
X75469524Y-105100476D01*
X75374286Y-105148095D01*
X75183810Y-105195714D01*
X75040952Y-105195714D01*
X74850476Y-105148095D01*
X74755238Y-105100476D01*
X74660000Y-105005238D01*
X74612381Y-104862380D01*
X74612381Y-104767142D01*
X74660000Y-104624285D01*
X74707619Y-104576666D01*
X74612381Y-104243333D02*
X74612381Y-103624285D01*
X74993333Y-103957619D01*
X74993333Y-103814761D01*
X75040952Y-103719523D01*
X75088571Y-103671904D01*
X75183810Y-103624285D01*
X75421905Y-103624285D01*
X75517143Y-103671904D01*
X75564762Y-103719523D01*
X75612381Y-103814761D01*
X75612381Y-104100476D01*
X75564762Y-104195714D01*
X75517143Y-104243333D01*
X65405143Y-94019666D02*
X65452762Y-94067285D01*
X65500381Y-94210142D01*
X65500381Y-94305380D01*
X65452762Y-94448238D01*
X65357524Y-94543476D01*
X65262286Y-94591095D01*
X65071810Y-94638714D01*
X64928952Y-94638714D01*
X64738476Y-94591095D01*
X64643238Y-94543476D01*
X64548000Y-94448238D01*
X64500381Y-94305380D01*
X64500381Y-94210142D01*
X64548000Y-94067285D01*
X64595619Y-94019666D01*
X64833714Y-93162523D02*
X65500381Y-93162523D01*
X64452762Y-93400619D02*
X65167048Y-93638714D01*
X65167048Y-93019666D01*
X64132381Y-90189095D02*
X63132381Y-90189095D01*
X63132381Y-89951000D01*
X63180000Y-89808142D01*
X63275238Y-89712904D01*
X63370476Y-89665285D01*
X63560952Y-89617666D01*
X63703810Y-89617666D01*
X63894286Y-89665285D01*
X63989524Y-89712904D01*
X64084762Y-89808142D01*
X64132381Y-89951000D01*
X64132381Y-90189095D01*
X64132381Y-88665285D02*
X64132381Y-89236714D01*
X64132381Y-88951000D02*
X63132381Y-88951000D01*
X63275238Y-89046238D01*
X63370476Y-89141476D01*
X63418095Y-89236714D01*
X57118571Y-106283333D02*
X57118571Y-106616667D01*
X57642381Y-106616667D02*
X56642381Y-106616667D01*
X56642381Y-106140476D01*
X57642381Y-105235714D02*
X57642381Y-105807143D01*
X57642381Y-105521429D02*
X56642381Y-105521429D01*
X56785238Y-105616667D01*
X56880476Y-105711905D01*
X56928095Y-105807143D01*
X47291667Y-100417381D02*
X47291667Y-101131667D01*
X47244047Y-101274524D01*
X47148809Y-101369762D01*
X47005952Y-101417381D01*
X46910714Y-101417381D01*
X48291667Y-101417381D02*
X47720238Y-101417381D01*
X48005952Y-101417381D02*
X48005952Y-100417381D01*
X47910714Y-100560238D01*
X47815476Y-100655476D01*
X47720238Y-100703095D01*
X72671667Y-88914381D02*
X72671667Y-89628667D01*
X72624047Y-89771524D01*
X72528809Y-89866762D01*
X72385952Y-89914381D01*
X72290714Y-89914381D01*
X73100238Y-89009619D02*
X73147857Y-88962000D01*
X73243095Y-88914381D01*
X73481191Y-88914381D01*
X73576429Y-88962000D01*
X73624048Y-89009619D01*
X73671667Y-89104857D01*
X73671667Y-89200095D01*
X73624048Y-89342952D01*
X73052619Y-89914381D01*
X73671667Y-89914381D01*
X75135619Y-66258238D02*
X75088000Y-66353476D01*
X74992762Y-66448714D01*
X74849905Y-66591571D01*
X74802286Y-66686810D01*
X74802286Y-66782048D01*
X75040381Y-66734429D02*
X74992762Y-66829667D01*
X74897524Y-66924905D01*
X74707048Y-66972524D01*
X74373714Y-66972524D01*
X74183238Y-66924905D01*
X74088000Y-66829667D01*
X74040381Y-66734429D01*
X74040381Y-66543952D01*
X74088000Y-66448714D01*
X74183238Y-66353476D01*
X74373714Y-66305857D01*
X74707048Y-66305857D01*
X74897524Y-66353476D01*
X74992762Y-66448714D01*
X75040381Y-66543952D01*
X75040381Y-66734429D01*
X75040381Y-65353476D02*
X75040381Y-65924905D01*
X75040381Y-65639191D02*
X74040381Y-65639191D01*
X74183238Y-65734429D01*
X74278476Y-65829667D01*
X74326095Y-65924905D01*
X73672668Y-118329501D02*
X73196477Y-118662835D01*
X73672668Y-118900930D02*
X72672668Y-118900930D01*
X72672668Y-118519977D01*
X72720287Y-118424739D01*
X72767906Y-118377120D01*
X72863144Y-118329501D01*
X73006001Y-118329501D01*
X73101239Y-118377120D01*
X73148858Y-118424739D01*
X73196477Y-118519977D01*
X73196477Y-118900930D01*
X73672668Y-117377120D02*
X73672668Y-117948549D01*
X73672668Y-117662835D02*
X72672668Y-117662835D01*
X72815525Y-117758073D01*
X72910763Y-117853311D01*
X72958382Y-117948549D01*
X73736168Y-115853001D02*
X73259977Y-116186335D01*
X73736168Y-116424430D02*
X72736168Y-116424430D01*
X72736168Y-116043477D01*
X72783787Y-115948239D01*
X72831406Y-115900620D01*
X72926644Y-115853001D01*
X73069501Y-115853001D01*
X73164739Y-115900620D01*
X73212358Y-115948239D01*
X73259977Y-116043477D01*
X73259977Y-116424430D01*
X72831406Y-115472049D02*
X72783787Y-115424430D01*
X72736168Y-115329192D01*
X72736168Y-115091096D01*
X72783787Y-114995858D01*
X72831406Y-114948239D01*
X72926644Y-114900620D01*
X73021882Y-114900620D01*
X73164739Y-114948239D01*
X73736168Y-115519668D01*
X73736168Y-114900620D01*
X54172381Y-98906666D02*
X53696190Y-99240000D01*
X54172381Y-99478095D02*
X53172381Y-99478095D01*
X53172381Y-99097142D01*
X53220000Y-99001904D01*
X53267619Y-98954285D01*
X53362857Y-98906666D01*
X53505714Y-98906666D01*
X53600952Y-98954285D01*
X53648571Y-99001904D01*
X53696190Y-99097142D01*
X53696190Y-99478095D01*
X53172381Y-98573333D02*
X53172381Y-97954285D01*
X53553333Y-98287619D01*
X53553333Y-98144761D01*
X53600952Y-98049523D01*
X53648571Y-98001904D01*
X53743810Y-97954285D01*
X53981905Y-97954285D01*
X54077143Y-98001904D01*
X54124762Y-98049523D01*
X54172381Y-98144761D01*
X54172381Y-98430476D01*
X54124762Y-98525714D01*
X54077143Y-98573333D01*
X54172381Y-94146666D02*
X53696190Y-94480000D01*
X54172381Y-94718095D02*
X53172381Y-94718095D01*
X53172381Y-94337142D01*
X53220000Y-94241904D01*
X53267619Y-94194285D01*
X53362857Y-94146666D01*
X53505714Y-94146666D01*
X53600952Y-94194285D01*
X53648571Y-94241904D01*
X53696190Y-94337142D01*
X53696190Y-94718095D01*
X53505714Y-93289523D02*
X54172381Y-93289523D01*
X53124762Y-93527619D02*
X53839048Y-93765714D01*
X53839048Y-93146666D01*
X59762381Y-98906666D02*
X59286190Y-99240000D01*
X59762381Y-99478095D02*
X58762381Y-99478095D01*
X58762381Y-99097142D01*
X58810000Y-99001904D01*
X58857619Y-98954285D01*
X58952857Y-98906666D01*
X59095714Y-98906666D01*
X59190952Y-98954285D01*
X59238571Y-99001904D01*
X59286190Y-99097142D01*
X59286190Y-99478095D01*
X58762381Y-98001904D02*
X58762381Y-98478095D01*
X59238571Y-98525714D01*
X59190952Y-98478095D01*
X59143333Y-98382857D01*
X59143333Y-98144761D01*
X59190952Y-98049523D01*
X59238571Y-98001904D01*
X59333810Y-97954285D01*
X59571905Y-97954285D01*
X59667143Y-98001904D01*
X59714762Y-98049523D01*
X59762381Y-98144761D01*
X59762381Y-98382857D01*
X59714762Y-98478095D01*
X59667143Y-98525714D01*
X55952381Y-94146666D02*
X55476190Y-94480000D01*
X55952381Y-94718095D02*
X54952381Y-94718095D01*
X54952381Y-94337142D01*
X55000000Y-94241904D01*
X55047619Y-94194285D01*
X55142857Y-94146666D01*
X55285714Y-94146666D01*
X55380952Y-94194285D01*
X55428571Y-94241904D01*
X55476190Y-94337142D01*
X55476190Y-94718095D01*
X54952381Y-93289523D02*
X54952381Y-93480000D01*
X55000000Y-93575238D01*
X55047619Y-93622857D01*
X55190476Y-93718095D01*
X55380952Y-93765714D01*
X55761905Y-93765714D01*
X55857143Y-93718095D01*
X55904762Y-93670476D01*
X55952381Y-93575238D01*
X55952381Y-93384761D01*
X55904762Y-93289523D01*
X55857143Y-93241904D01*
X55761905Y-93194285D01*
X55523810Y-93194285D01*
X55428571Y-93241904D01*
X55380952Y-93289523D01*
X55333333Y-93384761D01*
X55333333Y-93575238D01*
X55380952Y-93670476D01*
X55428571Y-93718095D01*
X55523810Y-93765714D01*
X55952381Y-98906666D02*
X55476190Y-99240000D01*
X55952381Y-99478095D02*
X54952381Y-99478095D01*
X54952381Y-99097142D01*
X55000000Y-99001904D01*
X55047619Y-98954285D01*
X55142857Y-98906666D01*
X55285714Y-98906666D01*
X55380952Y-98954285D01*
X55428571Y-99001904D01*
X55476190Y-99097142D01*
X55476190Y-99478095D01*
X54952381Y-98573333D02*
X54952381Y-97906666D01*
X55952381Y-98335238D01*
X72223334Y-100402381D02*
X71890000Y-99926190D01*
X71651905Y-100402381D02*
X71651905Y-99402381D01*
X72032858Y-99402381D01*
X72128096Y-99450000D01*
X72175715Y-99497619D01*
X72223334Y-99592857D01*
X72223334Y-99735714D01*
X72175715Y-99830952D01*
X72128096Y-99878571D01*
X72032858Y-99926190D01*
X71651905Y-99926190D01*
X72794762Y-99830952D02*
X72699524Y-99783333D01*
X72651905Y-99735714D01*
X72604286Y-99640476D01*
X72604286Y-99592857D01*
X72651905Y-99497619D01*
X72699524Y-99450000D01*
X72794762Y-99402381D01*
X72985239Y-99402381D01*
X73080477Y-99450000D01*
X73128096Y-99497619D01*
X73175715Y-99592857D01*
X73175715Y-99640476D01*
X73128096Y-99735714D01*
X73080477Y-99783333D01*
X72985239Y-99830952D01*
X72794762Y-99830952D01*
X72699524Y-99878571D01*
X72651905Y-99926190D01*
X72604286Y-100021429D01*
X72604286Y-100211905D01*
X72651905Y-100307143D01*
X72699524Y-100354762D01*
X72794762Y-100402381D01*
X72985239Y-100402381D01*
X73080477Y-100354762D01*
X73128096Y-100307143D01*
X73175715Y-100211905D01*
X73175715Y-100021429D01*
X73128096Y-99926190D01*
X73080477Y-99878571D01*
X72985239Y-99830952D01*
X66828334Y-86813381D02*
X66495000Y-86337190D01*
X66256905Y-86813381D02*
X66256905Y-85813381D01*
X66637858Y-85813381D01*
X66733096Y-85861000D01*
X66780715Y-85908619D01*
X66828334Y-86003857D01*
X66828334Y-86146714D01*
X66780715Y-86241952D01*
X66733096Y-86289571D01*
X66637858Y-86337190D01*
X66256905Y-86337190D01*
X67304524Y-86813381D02*
X67495000Y-86813381D01*
X67590239Y-86765762D01*
X67637858Y-86718143D01*
X67733096Y-86575286D01*
X67780715Y-86384810D01*
X67780715Y-86003857D01*
X67733096Y-85908619D01*
X67685477Y-85861000D01*
X67590239Y-85813381D01*
X67399762Y-85813381D01*
X67304524Y-85861000D01*
X67256905Y-85908619D01*
X67209286Y-86003857D01*
X67209286Y-86241952D01*
X67256905Y-86337190D01*
X67304524Y-86384810D01*
X67399762Y-86432429D01*
X67590239Y-86432429D01*
X67685477Y-86384810D01*
X67733096Y-86337190D01*
X67780715Y-86241952D01*
X61284381Y-89796857D02*
X60808190Y-90130191D01*
X61284381Y-90368286D02*
X60284381Y-90368286D01*
X60284381Y-89987333D01*
X60332000Y-89892095D01*
X60379619Y-89844476D01*
X60474857Y-89796857D01*
X60617714Y-89796857D01*
X60712952Y-89844476D01*
X60760571Y-89892095D01*
X60808190Y-89987333D01*
X60808190Y-90368286D01*
X61284381Y-88844476D02*
X61284381Y-89415905D01*
X61284381Y-89130191D02*
X60284381Y-89130191D01*
X60427238Y-89225429D01*
X60522476Y-89320667D01*
X60570095Y-89415905D01*
X60284381Y-88225429D02*
X60284381Y-88130190D01*
X60332000Y-88034952D01*
X60379619Y-87987333D01*
X60474857Y-87939714D01*
X60665333Y-87892095D01*
X60903429Y-87892095D01*
X61093905Y-87939714D01*
X61189143Y-87987333D01*
X61236762Y-88034952D01*
X61284381Y-88130190D01*
X61284381Y-88225429D01*
X61236762Y-88320667D01*
X61189143Y-88368286D01*
X61093905Y-88415905D01*
X60903429Y-88463524D01*
X60665333Y-88463524D01*
X60474857Y-88415905D01*
X60379619Y-88368286D01*
X60332000Y-88320667D01*
X60284381Y-88225429D01*
X71305143Y-69541381D02*
X70971809Y-69065190D01*
X70733714Y-69541381D02*
X70733714Y-68541381D01*
X71114667Y-68541381D01*
X71209905Y-68589000D01*
X71257524Y-68636619D01*
X71305143Y-68731857D01*
X71305143Y-68874714D01*
X71257524Y-68969952D01*
X71209905Y-69017571D01*
X71114667Y-69065190D01*
X70733714Y-69065190D01*
X72257524Y-69541381D02*
X71686095Y-69541381D01*
X71971809Y-69541381D02*
X71971809Y-68541381D01*
X71876571Y-68684238D01*
X71781333Y-68779476D01*
X71686095Y-68827095D01*
X73209905Y-69541381D02*
X72638476Y-69541381D01*
X72924190Y-69541381D02*
X72924190Y-68541381D01*
X72828952Y-68684238D01*
X72733714Y-68779476D01*
X72638476Y-68827095D01*
X67818095Y-101052381D02*
X67818095Y-101861905D01*
X67865714Y-101957143D01*
X67913333Y-102004762D01*
X68008571Y-102052381D01*
X68199048Y-102052381D01*
X68294286Y-102004762D01*
X68341905Y-101957143D01*
X68389524Y-101861905D01*
X68389524Y-101052381D01*
X69389524Y-102052381D02*
X68818095Y-102052381D01*
X69103809Y-102052381D02*
X69103809Y-101052381D01*
X69008571Y-101195238D01*
X68913333Y-101290476D01*
X68818095Y-101338095D01*
X77658095Y-98979381D02*
X77658095Y-99788905D01*
X77705714Y-99884143D01*
X77753333Y-99931762D01*
X77848571Y-99979381D01*
X78039048Y-99979381D01*
X78134286Y-99931762D01*
X78181905Y-99884143D01*
X78229524Y-99788905D01*
X78229524Y-98979381D01*
X78658095Y-99074619D02*
X78705714Y-99027000D01*
X78800952Y-98979381D01*
X79039048Y-98979381D01*
X79134286Y-99027000D01*
X79181905Y-99074619D01*
X79229524Y-99169857D01*
X79229524Y-99265095D01*
X79181905Y-99407952D01*
X78610476Y-99979381D01*
X79229524Y-99979381D01*
X63312381Y-94571905D02*
X64121905Y-94571905D01*
X64217143Y-94524286D01*
X64264762Y-94476667D01*
X64312381Y-94381429D01*
X64312381Y-94190952D01*
X64264762Y-94095714D01*
X64217143Y-94048095D01*
X64121905Y-94000476D01*
X63312381Y-94000476D01*
X63312381Y-93619524D02*
X63312381Y-93000476D01*
X63693333Y-93333810D01*
X63693333Y-93190952D01*
X63740952Y-93095714D01*
X63788571Y-93048095D01*
X63883810Y-93000476D01*
X64121905Y-93000476D01*
X64217143Y-93048095D01*
X64264762Y-93095714D01*
X64312381Y-93190952D01*
X64312381Y-93476667D01*
X64264762Y-93571905D01*
X64217143Y-93619524D01*
X64062381Y-79501905D02*
X64871905Y-79501905D01*
X64967143Y-79454286D01*
X65014762Y-79406667D01*
X65062381Y-79311429D01*
X65062381Y-79120952D01*
X65014762Y-79025714D01*
X64967143Y-78978095D01*
X64871905Y-78930476D01*
X64062381Y-78930476D01*
X64395714Y-78025714D02*
X65062381Y-78025714D01*
X64014762Y-78263810D02*
X64729048Y-78501905D01*
X64729048Y-77882857D01*
X68844381Y-68542333D02*
X69558667Y-68542333D01*
X69701524Y-68589953D01*
X69796762Y-68685191D01*
X69844381Y-68828048D01*
X69844381Y-68923286D01*
X68844381Y-68161381D02*
X68844381Y-67542333D01*
X69225333Y-67875667D01*
X69225333Y-67732809D01*
X69272952Y-67637571D01*
X69320571Y-67589952D01*
X69415810Y-67542333D01*
X69653905Y-67542333D01*
X69749143Y-67589952D01*
X69796762Y-67637571D01*
X69844381Y-67732809D01*
X69844381Y-68018524D01*
X69796762Y-68113762D01*
X69749143Y-68161381D01*
X69127714Y-65468523D02*
X69794381Y-65468523D01*
X68746762Y-65706619D02*
X69461048Y-65944714D01*
X69461048Y-65325666D01*
X58364381Y-67913285D02*
X58364381Y-68484714D01*
X58364381Y-68199000D02*
X57364381Y-68199000D01*
X57507238Y-68294238D01*
X57602476Y-68389476D01*
X57650095Y-68484714D01*
M02*
