G04 #@! TF.FileFunction,Copper,L2,Bot,Signal*
%FSLAX46Y46*%
G04 Gerber Fmt 4.6, Leading zero omitted, Abs format (unit mm)*
G04 Created by KiCad (PCBNEW 4.0.7) date 04/23/18 21:55:39*
%MOMM*%
%LPD*%
G01*
G04 APERTURE LIST*
%ADD10C,0.100000*%
%ADD11C,1.117600*%
%ADD12C,1.397000*%
%ADD13C,1.981000*%
%ADD14C,1.300000*%
%ADD15C,2.000000*%
%ADD16C,0.609600*%
%ADD17C,0.508000*%
%ADD18C,0.254000*%
G04 APERTURE END LIST*
D10*
D11*
X141320591Y-104111707D03*
X136320591Y-104111707D03*
D12*
X136630591Y-95221707D03*
X140130591Y-95221707D03*
D13*
X138380591Y-92991707D03*
D12*
X148258591Y-117446707D03*
X151758591Y-117446707D03*
D13*
X150008591Y-115216707D03*
D14*
X176071591Y-108683707D03*
X176071591Y-106143707D03*
X178611591Y-107413707D03*
X178611591Y-109953707D03*
D15*
X177571591Y-104743707D03*
D16*
X143510000Y-122428000D03*
X136193256Y-115550494D03*
X136193256Y-114534494D03*
X136193256Y-113518494D03*
X136193256Y-112502494D03*
X136193256Y-111486494D03*
X137209256Y-115550494D03*
X137209256Y-114534494D03*
X137209256Y-113518494D03*
X137209256Y-112502494D03*
X137209256Y-111486494D03*
X138225256Y-115550494D03*
X138225256Y-114534494D03*
X138225256Y-113518494D03*
X138225256Y-112502494D03*
X138225256Y-111486494D03*
X139241256Y-115550494D03*
X139241256Y-114534494D03*
X139241256Y-113518494D03*
X139241256Y-112502494D03*
X139241256Y-111486494D03*
X140257256Y-115550494D03*
X140257256Y-114534494D03*
X140257256Y-113518494D03*
X140257256Y-112502494D03*
X140257591Y-111477707D03*
X148031200Y-108712000D03*
X148082000Y-110210600D03*
D17*
X148082000Y-110210600D02*
X148082000Y-108762800D01*
X148082000Y-108762800D02*
X148031200Y-108712000D01*
D18*
G36*
X158877000Y-128851434D02*
X127257459Y-128851434D01*
X125926536Y-128586697D01*
X124855428Y-127871006D01*
X124139737Y-126799900D01*
X123888420Y-125536442D01*
X124866692Y-125536442D01*
X125043543Y-126425530D01*
X125547171Y-127179263D01*
X126300904Y-127682891D01*
X127189992Y-127859742D01*
X128079080Y-127682891D01*
X128832813Y-127179263D01*
X129336441Y-126425530D01*
X129513292Y-125536442D01*
X129336441Y-124647354D01*
X128832813Y-123893621D01*
X128079080Y-123389993D01*
X127189992Y-123213142D01*
X126300904Y-123389993D01*
X125547171Y-123893621D01*
X125043543Y-124647354D01*
X124866692Y-125536442D01*
X123888420Y-125536442D01*
X123875000Y-125468975D01*
X123875000Y-117710793D01*
X146924860Y-117710793D01*
X147127445Y-118201087D01*
X147502238Y-118576534D01*
X147992178Y-118779975D01*
X148522677Y-118780438D01*
X149012971Y-118577853D01*
X149388418Y-118203060D01*
X149591859Y-117713120D01*
X149592322Y-117182621D01*
X149403440Y-116725491D01*
X149683841Y-116841924D01*
X150330504Y-116842488D01*
X150614280Y-116725234D01*
X150425323Y-117180294D01*
X150424860Y-117710793D01*
X150627445Y-118201087D01*
X151002238Y-118576534D01*
X151492178Y-118779975D01*
X152022677Y-118780438D01*
X152512971Y-118577853D01*
X152888418Y-118203060D01*
X153091859Y-117713120D01*
X153092322Y-117182621D01*
X152889737Y-116692327D01*
X152514944Y-116316880D01*
X152025004Y-116113439D01*
X151494505Y-116112976D01*
X151352997Y-116171446D01*
X151385819Y-116138681D01*
X151633808Y-115541457D01*
X151634372Y-114894794D01*
X151387426Y-114297138D01*
X150930565Y-113839479D01*
X150333341Y-113591490D01*
X149686678Y-113590926D01*
X149089022Y-113837872D01*
X148631363Y-114294733D01*
X148383374Y-114891957D01*
X148382810Y-115538620D01*
X148629756Y-116136276D01*
X148664981Y-116171563D01*
X148525004Y-116113439D01*
X147994505Y-116112976D01*
X147504211Y-116315561D01*
X147128764Y-116690354D01*
X146925323Y-117180294D01*
X146924860Y-117710793D01*
X123875000Y-117710793D01*
X123875000Y-108898118D01*
X147091237Y-108898118D01*
X147193000Y-109144403D01*
X147193000Y-109900895D01*
X147142363Y-110022842D01*
X147142037Y-110396718D01*
X147284812Y-110742259D01*
X147548951Y-111006859D01*
X147894242Y-111150237D01*
X148268118Y-111150563D01*
X148613659Y-111007788D01*
X148878259Y-110743649D01*
X149021637Y-110398358D01*
X149021963Y-110024482D01*
X148971000Y-109901142D01*
X148971000Y-108762800D01*
X148970957Y-108762582D01*
X148971163Y-108525882D01*
X148828388Y-108180341D01*
X148564249Y-107915741D01*
X148218958Y-107772363D01*
X147845082Y-107772037D01*
X147499541Y-107914812D01*
X147234941Y-108178951D01*
X147091563Y-108524242D01*
X147091237Y-108898118D01*
X123875000Y-108898118D01*
X123875000Y-104348127D01*
X135126584Y-104348127D01*
X135307946Y-104787057D01*
X135643475Y-105123171D01*
X136082088Y-105305299D01*
X136557011Y-105305714D01*
X136995941Y-105124352D01*
X137332055Y-104788823D01*
X137514183Y-104350210D01*
X137514184Y-104348127D01*
X140126584Y-104348127D01*
X140307946Y-104787057D01*
X140643475Y-105123171D01*
X141082088Y-105305299D01*
X141557011Y-105305714D01*
X141995941Y-105124352D01*
X142332055Y-104788823D01*
X142514183Y-104350210D01*
X142514598Y-103875287D01*
X142333236Y-103436357D01*
X141997707Y-103100243D01*
X141559094Y-102918115D01*
X141084171Y-102917700D01*
X140645241Y-103099062D01*
X140309127Y-103434591D01*
X140126999Y-103873204D01*
X140126584Y-104348127D01*
X137514184Y-104348127D01*
X137514598Y-103875287D01*
X137333236Y-103436357D01*
X136997707Y-103100243D01*
X136559094Y-102918115D01*
X136084171Y-102917700D01*
X135645241Y-103099062D01*
X135309127Y-103434591D01*
X135126999Y-103873204D01*
X135126584Y-104348127D01*
X123875000Y-104348127D01*
X123875000Y-95485793D01*
X135296860Y-95485793D01*
X135499445Y-95976087D01*
X135874238Y-96351534D01*
X136364178Y-96554975D01*
X136894677Y-96555438D01*
X137384971Y-96352853D01*
X137760418Y-95978060D01*
X137963859Y-95488120D01*
X137964322Y-94957621D01*
X137775440Y-94500491D01*
X138055841Y-94616924D01*
X138702504Y-94617488D01*
X138986280Y-94500234D01*
X138797323Y-94955294D01*
X138796860Y-95485793D01*
X138999445Y-95976087D01*
X139374238Y-96351534D01*
X139864178Y-96554975D01*
X140394677Y-96555438D01*
X140884971Y-96352853D01*
X141260418Y-95978060D01*
X141463859Y-95488120D01*
X141464322Y-94957621D01*
X141261737Y-94467327D01*
X140886944Y-94091880D01*
X140397004Y-93888439D01*
X139866505Y-93887976D01*
X139724997Y-93946446D01*
X139757819Y-93913681D01*
X140005808Y-93316457D01*
X140006372Y-92669794D01*
X139759426Y-92072138D01*
X139302565Y-91614479D01*
X138705341Y-91366490D01*
X138058678Y-91365926D01*
X137461022Y-91612872D01*
X137003363Y-92069733D01*
X136755374Y-92666957D01*
X136754810Y-93313620D01*
X137001756Y-93911276D01*
X137036981Y-93946563D01*
X136897004Y-93888439D01*
X136366505Y-93887976D01*
X135876211Y-94090561D01*
X135500764Y-94465354D01*
X135297323Y-94955294D01*
X135296860Y-95485793D01*
X123875000Y-95485793D01*
X123875000Y-92963893D01*
X123888419Y-92896426D01*
X124866692Y-92896426D01*
X125043543Y-93785514D01*
X125547171Y-94539247D01*
X126300904Y-95042875D01*
X127189992Y-95219726D01*
X128079080Y-95042875D01*
X128832813Y-94539247D01*
X129336441Y-93785514D01*
X129513292Y-92896426D01*
X129336441Y-92007338D01*
X128832813Y-91253605D01*
X128079080Y-90749977D01*
X127189992Y-90573126D01*
X126300904Y-90749977D01*
X125547171Y-91253605D01*
X125043543Y-92007338D01*
X124866692Y-92896426D01*
X123888419Y-92896426D01*
X124139737Y-91632968D01*
X124855428Y-90561862D01*
X125926536Y-89846171D01*
X127257459Y-89581434D01*
X158877000Y-89581434D01*
X158877000Y-128851434D01*
X158877000Y-128851434D01*
G37*
X158877000Y-128851434D02*
X127257459Y-128851434D01*
X125926536Y-128586697D01*
X124855428Y-127871006D01*
X124139737Y-126799900D01*
X123888420Y-125536442D01*
X124866692Y-125536442D01*
X125043543Y-126425530D01*
X125547171Y-127179263D01*
X126300904Y-127682891D01*
X127189992Y-127859742D01*
X128079080Y-127682891D01*
X128832813Y-127179263D01*
X129336441Y-126425530D01*
X129513292Y-125536442D01*
X129336441Y-124647354D01*
X128832813Y-123893621D01*
X128079080Y-123389993D01*
X127189992Y-123213142D01*
X126300904Y-123389993D01*
X125547171Y-123893621D01*
X125043543Y-124647354D01*
X124866692Y-125536442D01*
X123888420Y-125536442D01*
X123875000Y-125468975D01*
X123875000Y-117710793D01*
X146924860Y-117710793D01*
X147127445Y-118201087D01*
X147502238Y-118576534D01*
X147992178Y-118779975D01*
X148522677Y-118780438D01*
X149012971Y-118577853D01*
X149388418Y-118203060D01*
X149591859Y-117713120D01*
X149592322Y-117182621D01*
X149403440Y-116725491D01*
X149683841Y-116841924D01*
X150330504Y-116842488D01*
X150614280Y-116725234D01*
X150425323Y-117180294D01*
X150424860Y-117710793D01*
X150627445Y-118201087D01*
X151002238Y-118576534D01*
X151492178Y-118779975D01*
X152022677Y-118780438D01*
X152512971Y-118577853D01*
X152888418Y-118203060D01*
X153091859Y-117713120D01*
X153092322Y-117182621D01*
X152889737Y-116692327D01*
X152514944Y-116316880D01*
X152025004Y-116113439D01*
X151494505Y-116112976D01*
X151352997Y-116171446D01*
X151385819Y-116138681D01*
X151633808Y-115541457D01*
X151634372Y-114894794D01*
X151387426Y-114297138D01*
X150930565Y-113839479D01*
X150333341Y-113591490D01*
X149686678Y-113590926D01*
X149089022Y-113837872D01*
X148631363Y-114294733D01*
X148383374Y-114891957D01*
X148382810Y-115538620D01*
X148629756Y-116136276D01*
X148664981Y-116171563D01*
X148525004Y-116113439D01*
X147994505Y-116112976D01*
X147504211Y-116315561D01*
X147128764Y-116690354D01*
X146925323Y-117180294D01*
X146924860Y-117710793D01*
X123875000Y-117710793D01*
X123875000Y-108898118D01*
X147091237Y-108898118D01*
X147193000Y-109144403D01*
X147193000Y-109900895D01*
X147142363Y-110022842D01*
X147142037Y-110396718D01*
X147284812Y-110742259D01*
X147548951Y-111006859D01*
X147894242Y-111150237D01*
X148268118Y-111150563D01*
X148613659Y-111007788D01*
X148878259Y-110743649D01*
X149021637Y-110398358D01*
X149021963Y-110024482D01*
X148971000Y-109901142D01*
X148971000Y-108762800D01*
X148970957Y-108762582D01*
X148971163Y-108525882D01*
X148828388Y-108180341D01*
X148564249Y-107915741D01*
X148218958Y-107772363D01*
X147845082Y-107772037D01*
X147499541Y-107914812D01*
X147234941Y-108178951D01*
X147091563Y-108524242D01*
X147091237Y-108898118D01*
X123875000Y-108898118D01*
X123875000Y-104348127D01*
X135126584Y-104348127D01*
X135307946Y-104787057D01*
X135643475Y-105123171D01*
X136082088Y-105305299D01*
X136557011Y-105305714D01*
X136995941Y-105124352D01*
X137332055Y-104788823D01*
X137514183Y-104350210D01*
X137514184Y-104348127D01*
X140126584Y-104348127D01*
X140307946Y-104787057D01*
X140643475Y-105123171D01*
X141082088Y-105305299D01*
X141557011Y-105305714D01*
X141995941Y-105124352D01*
X142332055Y-104788823D01*
X142514183Y-104350210D01*
X142514598Y-103875287D01*
X142333236Y-103436357D01*
X141997707Y-103100243D01*
X141559094Y-102918115D01*
X141084171Y-102917700D01*
X140645241Y-103099062D01*
X140309127Y-103434591D01*
X140126999Y-103873204D01*
X140126584Y-104348127D01*
X137514184Y-104348127D01*
X137514598Y-103875287D01*
X137333236Y-103436357D01*
X136997707Y-103100243D01*
X136559094Y-102918115D01*
X136084171Y-102917700D01*
X135645241Y-103099062D01*
X135309127Y-103434591D01*
X135126999Y-103873204D01*
X135126584Y-104348127D01*
X123875000Y-104348127D01*
X123875000Y-95485793D01*
X135296860Y-95485793D01*
X135499445Y-95976087D01*
X135874238Y-96351534D01*
X136364178Y-96554975D01*
X136894677Y-96555438D01*
X137384971Y-96352853D01*
X137760418Y-95978060D01*
X137963859Y-95488120D01*
X137964322Y-94957621D01*
X137775440Y-94500491D01*
X138055841Y-94616924D01*
X138702504Y-94617488D01*
X138986280Y-94500234D01*
X138797323Y-94955294D01*
X138796860Y-95485793D01*
X138999445Y-95976087D01*
X139374238Y-96351534D01*
X139864178Y-96554975D01*
X140394677Y-96555438D01*
X140884971Y-96352853D01*
X141260418Y-95978060D01*
X141463859Y-95488120D01*
X141464322Y-94957621D01*
X141261737Y-94467327D01*
X140886944Y-94091880D01*
X140397004Y-93888439D01*
X139866505Y-93887976D01*
X139724997Y-93946446D01*
X139757819Y-93913681D01*
X140005808Y-93316457D01*
X140006372Y-92669794D01*
X139759426Y-92072138D01*
X139302565Y-91614479D01*
X138705341Y-91366490D01*
X138058678Y-91365926D01*
X137461022Y-91612872D01*
X137003363Y-92069733D01*
X136755374Y-92666957D01*
X136754810Y-93313620D01*
X137001756Y-93911276D01*
X137036981Y-93946563D01*
X136897004Y-93888439D01*
X136366505Y-93887976D01*
X135876211Y-94090561D01*
X135500764Y-94465354D01*
X135297323Y-94955294D01*
X135296860Y-95485793D01*
X123875000Y-95485793D01*
X123875000Y-92963893D01*
X123888419Y-92896426D01*
X124866692Y-92896426D01*
X125043543Y-93785514D01*
X125547171Y-94539247D01*
X126300904Y-95042875D01*
X127189992Y-95219726D01*
X128079080Y-95042875D01*
X128832813Y-94539247D01*
X129336441Y-93785514D01*
X129513292Y-92896426D01*
X129336441Y-92007338D01*
X128832813Y-91253605D01*
X128079080Y-90749977D01*
X127189992Y-90573126D01*
X126300904Y-90749977D01*
X125547171Y-91253605D01*
X125043543Y-92007338D01*
X124866692Y-92896426D01*
X123888419Y-92896426D01*
X124139737Y-91632968D01*
X124855428Y-90561862D01*
X125926536Y-89846171D01*
X127257459Y-89581434D01*
X158877000Y-89581434D01*
X158877000Y-128851434D01*
G36*
X178873466Y-89846171D02*
X179944572Y-90561862D01*
X180660263Y-91632970D01*
X180925000Y-92963893D01*
X180925000Y-125468975D01*
X180660263Y-126799898D01*
X179944572Y-127871006D01*
X178873466Y-128586697D01*
X177542541Y-128851434D01*
X172339000Y-128851434D01*
X172339000Y-125536442D01*
X175286708Y-125536442D01*
X175463559Y-126425530D01*
X175967187Y-127179263D01*
X176720920Y-127682891D01*
X177610008Y-127859742D01*
X178499096Y-127682891D01*
X179252829Y-127179263D01*
X179756457Y-126425530D01*
X179933308Y-125536442D01*
X179756457Y-124647354D01*
X179252829Y-123893621D01*
X178499096Y-123389993D01*
X177610008Y-123213142D01*
X176720920Y-123389993D01*
X175967187Y-123893621D01*
X175463559Y-124647354D01*
X175286708Y-125536442D01*
X172339000Y-125536442D01*
X172339000Y-108938188D01*
X174786368Y-108938188D01*
X174981586Y-109410650D01*
X175342746Y-109772442D01*
X175814867Y-109968484D01*
X176326072Y-109968930D01*
X176798534Y-109773712D01*
X177160326Y-109412552D01*
X177356368Y-108940431D01*
X177356814Y-108429226D01*
X177161596Y-107956764D01*
X176800436Y-107594972D01*
X176364391Y-107413910D01*
X176401019Y-107411790D01*
X176735320Y-107273318D01*
X176791001Y-107042723D01*
X176071591Y-106323312D01*
X175352181Y-107042723D01*
X175407862Y-107273318D01*
X175794451Y-107407846D01*
X175344648Y-107593702D01*
X174982856Y-107954862D01*
X174786814Y-108426983D01*
X174786368Y-108938188D01*
X172339000Y-108938188D01*
X172339000Y-105962785D01*
X174773969Y-105962785D01*
X174803508Y-106473135D01*
X174941980Y-106807436D01*
X175172575Y-106863117D01*
X175891986Y-106143707D01*
X175172575Y-105424297D01*
X174941980Y-105479978D01*
X174773969Y-105962785D01*
X172339000Y-105962785D01*
X172339000Y-105244691D01*
X175352181Y-105244691D01*
X176071591Y-105964102D01*
X176085734Y-105949960D01*
X176265339Y-106129565D01*
X176251196Y-106143707D01*
X176970607Y-106863117D01*
X177201202Y-106807436D01*
X177350461Y-106378515D01*
X177829320Y-106378933D01*
X177522856Y-106684862D01*
X177326814Y-107156983D01*
X177326368Y-107668188D01*
X177521586Y-108140650D01*
X177882746Y-108502442D01*
X178319773Y-108683912D01*
X177884648Y-108863702D01*
X177522856Y-109224862D01*
X177326814Y-109696983D01*
X177326368Y-110208188D01*
X177521586Y-110680650D01*
X177882746Y-111042442D01*
X178354867Y-111238484D01*
X178866072Y-111238930D01*
X179338534Y-111043712D01*
X179700326Y-110682552D01*
X179896368Y-110210431D01*
X179896814Y-109699226D01*
X179701596Y-109226764D01*
X179340436Y-108864972D01*
X178903409Y-108683502D01*
X179338534Y-108503712D01*
X179700326Y-108142552D01*
X179896368Y-107670431D01*
X179896814Y-107159226D01*
X179701596Y-106686764D01*
X179340436Y-106324972D01*
X178868315Y-106128930D01*
X178498531Y-106128607D01*
X178956869Y-105671070D01*
X179206307Y-105070355D01*
X179206875Y-104419912D01*
X178958485Y-103818764D01*
X178498954Y-103358429D01*
X177898239Y-103108991D01*
X177247796Y-103108423D01*
X176646648Y-103356813D01*
X176186313Y-103816344D01*
X175936875Y-104417059D01*
X175936484Y-104864377D01*
X175742163Y-104875624D01*
X175407862Y-105014096D01*
X175352181Y-105244691D01*
X172339000Y-105244691D01*
X172339000Y-92896426D01*
X175286708Y-92896426D01*
X175463559Y-93785514D01*
X175967187Y-94539247D01*
X176720920Y-95042875D01*
X177610008Y-95219726D01*
X178499096Y-95042875D01*
X179252829Y-94539247D01*
X179756457Y-93785514D01*
X179933308Y-92896426D01*
X179756457Y-92007338D01*
X179252829Y-91253605D01*
X178499096Y-90749977D01*
X177610008Y-90573126D01*
X176720920Y-90749977D01*
X175967187Y-91253605D01*
X175463559Y-92007338D01*
X175286708Y-92896426D01*
X172339000Y-92896426D01*
X172339000Y-89581434D01*
X177542541Y-89581434D01*
X178873466Y-89846171D01*
X178873466Y-89846171D01*
G37*
X178873466Y-89846171D02*
X179944572Y-90561862D01*
X180660263Y-91632970D01*
X180925000Y-92963893D01*
X180925000Y-125468975D01*
X180660263Y-126799898D01*
X179944572Y-127871006D01*
X178873466Y-128586697D01*
X177542541Y-128851434D01*
X172339000Y-128851434D01*
X172339000Y-125536442D01*
X175286708Y-125536442D01*
X175463559Y-126425530D01*
X175967187Y-127179263D01*
X176720920Y-127682891D01*
X177610008Y-127859742D01*
X178499096Y-127682891D01*
X179252829Y-127179263D01*
X179756457Y-126425530D01*
X179933308Y-125536442D01*
X179756457Y-124647354D01*
X179252829Y-123893621D01*
X178499096Y-123389993D01*
X177610008Y-123213142D01*
X176720920Y-123389993D01*
X175967187Y-123893621D01*
X175463559Y-124647354D01*
X175286708Y-125536442D01*
X172339000Y-125536442D01*
X172339000Y-108938188D01*
X174786368Y-108938188D01*
X174981586Y-109410650D01*
X175342746Y-109772442D01*
X175814867Y-109968484D01*
X176326072Y-109968930D01*
X176798534Y-109773712D01*
X177160326Y-109412552D01*
X177356368Y-108940431D01*
X177356814Y-108429226D01*
X177161596Y-107956764D01*
X176800436Y-107594972D01*
X176364391Y-107413910D01*
X176401019Y-107411790D01*
X176735320Y-107273318D01*
X176791001Y-107042723D01*
X176071591Y-106323312D01*
X175352181Y-107042723D01*
X175407862Y-107273318D01*
X175794451Y-107407846D01*
X175344648Y-107593702D01*
X174982856Y-107954862D01*
X174786814Y-108426983D01*
X174786368Y-108938188D01*
X172339000Y-108938188D01*
X172339000Y-105962785D01*
X174773969Y-105962785D01*
X174803508Y-106473135D01*
X174941980Y-106807436D01*
X175172575Y-106863117D01*
X175891986Y-106143707D01*
X175172575Y-105424297D01*
X174941980Y-105479978D01*
X174773969Y-105962785D01*
X172339000Y-105962785D01*
X172339000Y-105244691D01*
X175352181Y-105244691D01*
X176071591Y-105964102D01*
X176085734Y-105949960D01*
X176265339Y-106129565D01*
X176251196Y-106143707D01*
X176970607Y-106863117D01*
X177201202Y-106807436D01*
X177350461Y-106378515D01*
X177829320Y-106378933D01*
X177522856Y-106684862D01*
X177326814Y-107156983D01*
X177326368Y-107668188D01*
X177521586Y-108140650D01*
X177882746Y-108502442D01*
X178319773Y-108683912D01*
X177884648Y-108863702D01*
X177522856Y-109224862D01*
X177326814Y-109696983D01*
X177326368Y-110208188D01*
X177521586Y-110680650D01*
X177882746Y-111042442D01*
X178354867Y-111238484D01*
X178866072Y-111238930D01*
X179338534Y-111043712D01*
X179700326Y-110682552D01*
X179896368Y-110210431D01*
X179896814Y-109699226D01*
X179701596Y-109226764D01*
X179340436Y-108864972D01*
X178903409Y-108683502D01*
X179338534Y-108503712D01*
X179700326Y-108142552D01*
X179896368Y-107670431D01*
X179896814Y-107159226D01*
X179701596Y-106686764D01*
X179340436Y-106324972D01*
X178868315Y-106128930D01*
X178498531Y-106128607D01*
X178956869Y-105671070D01*
X179206307Y-105070355D01*
X179206875Y-104419912D01*
X178958485Y-103818764D01*
X178498954Y-103358429D01*
X177898239Y-103108991D01*
X177247796Y-103108423D01*
X176646648Y-103356813D01*
X176186313Y-103816344D01*
X175936875Y-104417059D01*
X175936484Y-104864377D01*
X175742163Y-104875624D01*
X175407862Y-105014096D01*
X175352181Y-105244691D01*
X172339000Y-105244691D01*
X172339000Y-92896426D01*
X175286708Y-92896426D01*
X175463559Y-93785514D01*
X175967187Y-94539247D01*
X176720920Y-95042875D01*
X177610008Y-95219726D01*
X178499096Y-95042875D01*
X179252829Y-94539247D01*
X179756457Y-93785514D01*
X179933308Y-92896426D01*
X179756457Y-92007338D01*
X179252829Y-91253605D01*
X178499096Y-90749977D01*
X177610008Y-90573126D01*
X176720920Y-90749977D01*
X175967187Y-91253605D01*
X175463559Y-92007338D01*
X175286708Y-92896426D01*
X172339000Y-92896426D01*
X172339000Y-89581434D01*
X177542541Y-89581434D01*
X178873466Y-89846171D01*
M02*
