G04 #@! TF.FileFunction,Copper,L1,Top,Signal*
%FSLAX46Y46*%
G04 Gerber Fmt 4.6, Leading zero omitted, Abs format (unit mm)*
G04 Created by KiCad (PCBNEW 4.0.7) date 02/07/18 17:07:14*
%MOMM*%
%LPD*%
G01*
G04 APERTURE LIST*
%ADD10C,0.100000*%
%ADD11R,1.250000X1.000000*%
%ADD12R,1.200000X1.200000*%
%ADD13C,1.117600*%
%ADD14C,1.397000*%
%ADD15C,1.981000*%
%ADD16R,0.800000X0.900000*%
%ADD17R,0.700000X1.300000*%
%ADD18R,1.300000X0.700000*%
%ADD19R,1.200000X2.200000*%
%ADD20R,5.800000X6.400000*%
%ADD21R,2.750000X3.050000*%
%ADD22R,0.650000X0.400000*%
%ADD23R,0.650000X1.060000*%
%ADD24R,0.640000X2.000000*%
%ADD25C,1.300000*%
%ADD26C,2.000000*%
%ADD27C,0.609600*%
%ADD28C,0.508000*%
%ADD29C,0.762000*%
%ADD30C,0.254000*%
G04 APERTURE END LIST*
D10*
D11*
X133811466Y-120734216D03*
X133811466Y-122734216D03*
X141431466Y-116162216D03*
X141431466Y-114162216D03*
X133811466Y-116194216D03*
X133811466Y-118194216D03*
X126699466Y-107637216D03*
X126699466Y-105637216D03*
D12*
X122381466Y-103335216D03*
X122381466Y-101135216D03*
D13*
X119841466Y-115734216D03*
X119841466Y-120734216D03*
D14*
X110951466Y-120424216D03*
X110951466Y-116924216D03*
D15*
X108721466Y-118674216D03*
D14*
X133176466Y-108796216D03*
X133176466Y-105296216D03*
D15*
X130946466Y-107046216D03*
D16*
X131149466Y-79967216D03*
X133049466Y-79967216D03*
X132099466Y-77967216D03*
D17*
X131466753Y-131010551D03*
X129566753Y-131010551D03*
X129439753Y-128470551D03*
X131339753Y-128470551D03*
D18*
X112221466Y-110574216D03*
X112221466Y-112474216D03*
X112221466Y-105814216D03*
X112221466Y-107714216D03*
X121111466Y-112474216D03*
X121111466Y-110574216D03*
X117301466Y-107714216D03*
X117301466Y-105814216D03*
X117301466Y-112474216D03*
X117301466Y-110574216D03*
D17*
X131591466Y-114384216D03*
X133491466Y-114384216D03*
X126196466Y-100795216D03*
X128096466Y-100795216D03*
D18*
X119333466Y-100988216D03*
X119333466Y-102888216D03*
D17*
X131149466Y-83523216D03*
X133049466Y-83523216D03*
D19*
X126969253Y-125153551D03*
X129249253Y-125153551D03*
X131529253Y-125153551D03*
D20*
X129249253Y-118853551D03*
D21*
X130774253Y-117178551D03*
X127724253Y-120528551D03*
X127724253Y-117178551D03*
X130774253Y-120528551D03*
D22*
X137621466Y-114511216D03*
X137621466Y-115811216D03*
X137621466Y-115161216D03*
X139521466Y-115811216D03*
X139521466Y-114511216D03*
D23*
X122061466Y-105494216D03*
X121111466Y-105494216D03*
X120161466Y-105494216D03*
X120161466Y-107694216D03*
X122061466Y-107694216D03*
D24*
X126191466Y-94674216D03*
X128731466Y-94674216D03*
X128731466Y-88374216D03*
X126191466Y-88374216D03*
D25*
X124413466Y-80983216D03*
X121873466Y-80983216D03*
X123143466Y-78443216D03*
X125683466Y-78443216D03*
D26*
X120473466Y-79483216D03*
D17*
X128844000Y-103949500D03*
X130744000Y-103949500D03*
D27*
X131280253Y-120861551D03*
X130264253Y-120861551D03*
X129248253Y-120861551D03*
X128232253Y-120861551D03*
X127216253Y-120861551D03*
X131280253Y-119845551D03*
X130264253Y-119845551D03*
X129248253Y-119845551D03*
X128232253Y-119845551D03*
X127216253Y-119845551D03*
X131280253Y-118829551D03*
X130264253Y-118829551D03*
X129248253Y-118829551D03*
X128232253Y-118829551D03*
X127216253Y-118829551D03*
X131280253Y-117813551D03*
X130264253Y-117813551D03*
X129248253Y-117813551D03*
X128232253Y-117813551D03*
X127216253Y-117813551D03*
X131280253Y-116797551D03*
X130264253Y-116797551D03*
X129248253Y-116797551D03*
X128232253Y-116797551D03*
X127207466Y-116797216D03*
X135081466Y-82634216D03*
X123651466Y-109304216D03*
X124286466Y-104859216D03*
X134446466Y-113749216D03*
X119841466Y-108669216D03*
D28*
X129249253Y-125153551D02*
X129249253Y-120862551D01*
X129249253Y-120862551D02*
X129248253Y-120861551D01*
D29*
X122813187Y-106630815D02*
X125683466Y-109501094D01*
X125683466Y-109501094D02*
X127724253Y-111541881D01*
X126699466Y-108899216D02*
X126097588Y-109501094D01*
X126097588Y-109501094D02*
X125683466Y-109501094D01*
X126699466Y-107637216D02*
X126699466Y-108899216D01*
X127724253Y-114891551D02*
X127724253Y-117178551D01*
D28*
X134827466Y-115146216D02*
X137606466Y-115146216D01*
X137606466Y-115146216D02*
X137621466Y-115161216D01*
X133811466Y-116194216D02*
X133811466Y-116162216D01*
X133811466Y-116162216D02*
X134827466Y-115146216D01*
X134827466Y-115146216D02*
X134573466Y-115400216D01*
X133811466Y-116194216D02*
X131908588Y-116194216D01*
X131908588Y-116194216D02*
X129249253Y-118853551D01*
D29*
X131591466Y-114384216D02*
X131591466Y-116361338D01*
X131591466Y-116361338D02*
X130774253Y-117178551D01*
X131758588Y-116194216D02*
X130774253Y-117178551D01*
X133811466Y-120734216D02*
X130979918Y-120734216D01*
X130217918Y-119845216D02*
X130012253Y-119639551D01*
X131541466Y-116411338D02*
X130774253Y-117178551D01*
X131298588Y-120004216D02*
X130774253Y-120528551D01*
X121111466Y-105494216D02*
X121111466Y-106359338D01*
X121111466Y-106359338D02*
X121382943Y-106630815D01*
X121382943Y-106630815D02*
X122813187Y-106630815D01*
X127724253Y-111541881D02*
X127724253Y-114891551D01*
X129249253Y-125153551D02*
X129249253Y-128280051D01*
X129249253Y-128280051D02*
X129439753Y-128470551D01*
X133049466Y-83523216D02*
X134192466Y-83523216D01*
X134192466Y-83523216D02*
X135081466Y-82634216D01*
X133049466Y-83523216D02*
X133049466Y-79967216D01*
D28*
X135081466Y-103589216D02*
X135081466Y-106891216D01*
X135081466Y-106891216D02*
X133176466Y-108796216D01*
X133811466Y-102319216D02*
X135081466Y-103589216D01*
X131834720Y-102319216D02*
X133811466Y-102319216D01*
X128096466Y-100795216D02*
X130310720Y-100795216D01*
X130310720Y-100795216D02*
X131834720Y-102319216D01*
D29*
X123651466Y-109304216D02*
X123651466Y-109284216D01*
X123651466Y-109284216D02*
X122061466Y-107694216D01*
X126699466Y-105637216D02*
X125064466Y-105637216D01*
X125064466Y-105637216D02*
X124286466Y-104859216D01*
X128096466Y-100795216D02*
X128096466Y-95309216D01*
X128096466Y-95309216D02*
X128731466Y-94674216D01*
X133176466Y-110828216D02*
X134446466Y-112098216D01*
X134446466Y-112098216D02*
X134954466Y-112606216D01*
X129112466Y-111463216D02*
X129747466Y-112098216D01*
X129747466Y-112098216D02*
X134446466Y-112098216D01*
X129112466Y-106663216D02*
X129112466Y-111463216D01*
X126699466Y-105637216D02*
X128086466Y-105637216D01*
X128086466Y-105637216D02*
X129112466Y-106663216D01*
X133176466Y-108796216D02*
X133176466Y-110828216D01*
X144098466Y-114384216D02*
X144098466Y-114892216D01*
X134954466Y-112606216D02*
X142320466Y-112606216D01*
X142320466Y-112606216D02*
X144098466Y-114384216D01*
X144098466Y-114892216D02*
X142828466Y-116162216D01*
X142828466Y-116162216D02*
X141431466Y-116162216D01*
D28*
X141431466Y-116162216D02*
X139872466Y-116162216D01*
X139872466Y-116162216D02*
X139521466Y-115811216D01*
X139521466Y-115811216D02*
X137905426Y-115811216D01*
X137905426Y-115811216D02*
X137895017Y-115821625D01*
X137895017Y-115821625D02*
X137317057Y-115821625D01*
X137317057Y-115821625D02*
X134944466Y-118194216D01*
X134944466Y-118194216D02*
X133811466Y-118194216D01*
D29*
X136351466Y-123274216D02*
X133811466Y-125814216D01*
X136351466Y-120609216D02*
X136351466Y-123274216D01*
X133811466Y-118194216D02*
X133936466Y-118194216D01*
X133936466Y-118194216D02*
X136351466Y-120609216D01*
X133811466Y-125814216D02*
X133811466Y-122734216D01*
X133811466Y-125814216D02*
X133811466Y-130625960D01*
X133811466Y-130625960D02*
X132014875Y-132422551D01*
X132014875Y-132422551D02*
X130678753Y-132422551D01*
X130678753Y-132422551D02*
X129566753Y-131310551D01*
X129566753Y-131310551D02*
X129566753Y-131010551D01*
X121111466Y-110574216D02*
X121111466Y-108644216D01*
X121111466Y-108644216D02*
X122061466Y-107694216D01*
X110951466Y-120424216D02*
X121537801Y-131010551D01*
X121537801Y-131010551D02*
X129566753Y-131010551D01*
D28*
X141431466Y-114162216D02*
X139870466Y-114162216D01*
X139870466Y-114162216D02*
X139521466Y-114511216D01*
X128844000Y-103949500D02*
X122995750Y-103949500D01*
X122995750Y-103949500D02*
X122381466Y-103335216D01*
D29*
X119333466Y-102888216D02*
X121934466Y-102888216D01*
X121934466Y-102888216D02*
X122381466Y-103335216D01*
X122061466Y-105494216D02*
X122061466Y-103655216D01*
X122061466Y-103655216D02*
X122381466Y-103335216D01*
X122381466Y-101135216D02*
X125856466Y-101135216D01*
X125856466Y-101135216D02*
X126196466Y-100795216D01*
X110951466Y-116924216D02*
X110951466Y-113744216D01*
X110951466Y-113744216D02*
X112221466Y-112474216D01*
X119841466Y-115734216D02*
X112141466Y-115734216D01*
X112141466Y-115734216D02*
X110951466Y-116924216D01*
X119841466Y-120734216D02*
X123049918Y-120734216D01*
X126969253Y-124653551D02*
X126969253Y-125153551D01*
X123049918Y-120734216D02*
X126969253Y-124653551D01*
X124413466Y-80983216D02*
X126191466Y-82761216D01*
X126191466Y-82761216D02*
X126191466Y-88374216D01*
X123143466Y-78443216D02*
X123143466Y-79713216D01*
X123143466Y-79713216D02*
X124413466Y-80983216D01*
X125683466Y-78443216D02*
X131623466Y-78443216D01*
X131623466Y-78443216D02*
X132099466Y-77967216D01*
X128731466Y-88374216D02*
X128731466Y-85941216D01*
X128731466Y-85941216D02*
X131149466Y-83523216D01*
X131149466Y-79967216D02*
X131149466Y-83523216D01*
X131339753Y-128470551D02*
X131339753Y-130883551D01*
X131339753Y-130883551D02*
X131466753Y-131010551D01*
X131529253Y-125153551D02*
X131529253Y-128281051D01*
X131529253Y-128281051D02*
X131339753Y-128470551D01*
X112221466Y-110574216D02*
X112221466Y-107714216D01*
X112221466Y-105814216D02*
X117301466Y-105814216D01*
X120161466Y-105494216D02*
X119074466Y-105494216D01*
X120811466Y-112474216D02*
X121111466Y-112474216D01*
X119074466Y-105494216D02*
X118927057Y-105641625D01*
X118927057Y-105641625D02*
X118927057Y-110589807D01*
X118927057Y-110589807D02*
X120811466Y-112474216D01*
X120161466Y-105494216D02*
X120161466Y-105699216D01*
X117301466Y-112474216D02*
X121111466Y-112474216D01*
X117301466Y-107714216D02*
X117301466Y-110574216D01*
X134446466Y-113749216D02*
X134126466Y-113749216D01*
X134126466Y-113749216D02*
X133491466Y-114384216D01*
X120161466Y-107694216D02*
X120161466Y-108349216D01*
X120161466Y-108349216D02*
X119841466Y-108669216D01*
D28*
X133491466Y-114384216D02*
X134349466Y-114384216D01*
X134349466Y-114384216D02*
X134451056Y-114485806D01*
X134451056Y-114485806D02*
X134553916Y-114485806D01*
X134553916Y-114485806D02*
X137621466Y-114485806D01*
D30*
X137494466Y-114384216D02*
X137621466Y-114511216D01*
D29*
X124032466Y-94699216D02*
X119333466Y-99398216D01*
X119333466Y-99398216D02*
X119333466Y-100988216D01*
X125084466Y-94699216D02*
X124032466Y-94699216D01*
X126191466Y-94674216D02*
X125109466Y-94674216D01*
X125109466Y-94674216D02*
X125084466Y-94699216D01*
D28*
X133176466Y-105296216D02*
X132090716Y-105296216D01*
X132090716Y-105296216D02*
X130744000Y-103949500D01*
M02*
