G04 #@! TF.FileFunction,Legend,Bot*
%FSLAX46Y46*%
G04 Gerber Fmt 4.6, Leading zero omitted, Abs format (unit mm)*
G04 Created by KiCad (PCBNEW 4.0.7) date 02/05/18 22:40:42*
%MOMM*%
%LPD*%
G01*
G04 APERTURE LIST*
%ADD10C,0.100000*%
%ADD11C,0.010000*%
G04 APERTURE END LIST*
D10*
D11*
G36*
X53989143Y-68947017D02*
X53949129Y-68796543D01*
X53880824Y-68530372D01*
X53796675Y-68197171D01*
X53765353Y-68072000D01*
X53571412Y-67439477D01*
X53311366Y-66800834D01*
X53008074Y-66202291D01*
X52684399Y-65690072D01*
X52435631Y-65383536D01*
X51952550Y-64962272D01*
X51455705Y-64702790D01*
X50951883Y-64598792D01*
X50447872Y-64643979D01*
X49950459Y-64832051D01*
X49466431Y-65156710D01*
X49002574Y-65611657D01*
X48565676Y-66190592D01*
X48162524Y-66887217D01*
X47799904Y-67695233D01*
X47484605Y-68608340D01*
X47223412Y-69620241D01*
X47081702Y-70352475D01*
X47008127Y-70810011D01*
X46967748Y-71126773D01*
X46958974Y-71327712D01*
X46980217Y-71437775D01*
X47010312Y-71473012D01*
X47064072Y-71531926D01*
X47020267Y-71542037D01*
X46960596Y-71623681D01*
X46921027Y-71852475D01*
X46908162Y-72072500D01*
X46896946Y-72439381D01*
X46884734Y-72810533D01*
X46877894Y-73003858D01*
X46880686Y-73238176D01*
X46904502Y-73383137D01*
X46923843Y-73406025D01*
X46953621Y-73471706D01*
X46938003Y-73554166D01*
X46951138Y-73561663D01*
X47028847Y-73444877D01*
X47155015Y-73228402D01*
X47175773Y-73191282D01*
X47685860Y-72398948D01*
X48332424Y-71616036D01*
X48905234Y-71033528D01*
X49670737Y-70356455D01*
X50416337Y-69811925D01*
X51179744Y-69373249D01*
X51405915Y-69263851D01*
X52111966Y-68975796D01*
X52717350Y-68817043D01*
X53229665Y-68786695D01*
X53656508Y-68883850D01*
X53834819Y-68976495D01*
X53973405Y-69055506D01*
X54008225Y-69031423D01*
X53989143Y-68947017D01*
X53989143Y-68947017D01*
G37*
X53989143Y-68947017D02*
X53949129Y-68796543D01*
X53880824Y-68530372D01*
X53796675Y-68197171D01*
X53765353Y-68072000D01*
X53571412Y-67439477D01*
X53311366Y-66800834D01*
X53008074Y-66202291D01*
X52684399Y-65690072D01*
X52435631Y-65383536D01*
X51952550Y-64962272D01*
X51455705Y-64702790D01*
X50951883Y-64598792D01*
X50447872Y-64643979D01*
X49950459Y-64832051D01*
X49466431Y-65156710D01*
X49002574Y-65611657D01*
X48565676Y-66190592D01*
X48162524Y-66887217D01*
X47799904Y-67695233D01*
X47484605Y-68608340D01*
X47223412Y-69620241D01*
X47081702Y-70352475D01*
X47008127Y-70810011D01*
X46967748Y-71126773D01*
X46958974Y-71327712D01*
X46980217Y-71437775D01*
X47010312Y-71473012D01*
X47064072Y-71531926D01*
X47020267Y-71542037D01*
X46960596Y-71623681D01*
X46921027Y-71852475D01*
X46908162Y-72072500D01*
X46896946Y-72439381D01*
X46884734Y-72810533D01*
X46877894Y-73003858D01*
X46880686Y-73238176D01*
X46904502Y-73383137D01*
X46923843Y-73406025D01*
X46953621Y-73471706D01*
X46938003Y-73554166D01*
X46951138Y-73561663D01*
X47028847Y-73444877D01*
X47155015Y-73228402D01*
X47175773Y-73191282D01*
X47685860Y-72398948D01*
X48332424Y-71616036D01*
X48905234Y-71033528D01*
X49670737Y-70356455D01*
X50416337Y-69811925D01*
X51179744Y-69373249D01*
X51405915Y-69263851D01*
X52111966Y-68975796D01*
X52717350Y-68817043D01*
X53229665Y-68786695D01*
X53656508Y-68883850D01*
X53834819Y-68976495D01*
X53973405Y-69055506D01*
X54008225Y-69031423D01*
X53989143Y-68947017D01*
G36*
X53733726Y-71600930D02*
X53403291Y-72092831D01*
X52969905Y-72639654D01*
X52470573Y-73201000D01*
X51942300Y-73736471D01*
X51422091Y-74205667D01*
X51145931Y-74426037D01*
X50479336Y-74883304D01*
X49813455Y-75256143D01*
X49167948Y-75538527D01*
X48562477Y-75724430D01*
X48016703Y-75807825D01*
X47550289Y-75782687D01*
X47182896Y-75642989D01*
X47180500Y-75641451D01*
X47042806Y-75559272D01*
X46994163Y-75541881D01*
X47015915Y-75628357D01*
X47070831Y-75841232D01*
X47149234Y-76143084D01*
X47197173Y-76327000D01*
X47498716Y-77319803D01*
X47844146Y-78152117D01*
X48235661Y-78827575D01*
X48675457Y-79349808D01*
X49165734Y-79722449D01*
X49292824Y-79790860D01*
X49823567Y-79972592D01*
X50348968Y-79994253D01*
X50863274Y-79865103D01*
X51360731Y-79594403D01*
X51835585Y-79191416D01*
X52282082Y-78665401D01*
X52694469Y-78025620D01*
X53066991Y-77281334D01*
X53393894Y-76441805D01*
X53669426Y-75516293D01*
X53887831Y-74514060D01*
X54043355Y-73444367D01*
X54130246Y-72316474D01*
X54141618Y-71986518D01*
X54169785Y-70863369D01*
X53733726Y-71600930D01*
X53733726Y-71600930D01*
G37*
X53733726Y-71600930D02*
X53403291Y-72092831D01*
X52969905Y-72639654D01*
X52470573Y-73201000D01*
X51942300Y-73736471D01*
X51422091Y-74205667D01*
X51145931Y-74426037D01*
X50479336Y-74883304D01*
X49813455Y-75256143D01*
X49167948Y-75538527D01*
X48562477Y-75724430D01*
X48016703Y-75807825D01*
X47550289Y-75782687D01*
X47182896Y-75642989D01*
X47180500Y-75641451D01*
X47042806Y-75559272D01*
X46994163Y-75541881D01*
X47015915Y-75628357D01*
X47070831Y-75841232D01*
X47149234Y-76143084D01*
X47197173Y-76327000D01*
X47498716Y-77319803D01*
X47844146Y-78152117D01*
X48235661Y-78827575D01*
X48675457Y-79349808D01*
X49165734Y-79722449D01*
X49292824Y-79790860D01*
X49823567Y-79972592D01*
X50348968Y-79994253D01*
X50863274Y-79865103D01*
X51360731Y-79594403D01*
X51835585Y-79191416D01*
X52282082Y-78665401D01*
X52694469Y-78025620D01*
X53066991Y-77281334D01*
X53393894Y-76441805D01*
X53669426Y-75516293D01*
X53887831Y-74514060D01*
X54043355Y-73444367D01*
X54130246Y-72316474D01*
X54141618Y-71986518D01*
X54169785Y-70863369D01*
X53733726Y-71600930D01*
G36*
X82455555Y-84790944D02*
X82487693Y-84929057D01*
X82554457Y-85047133D01*
X82636981Y-85136319D01*
X82716125Y-85197911D01*
X82805727Y-85242398D01*
X82914260Y-85271549D01*
X83050195Y-85287137D01*
X83222004Y-85290931D01*
X83361486Y-85287754D01*
X83557255Y-85275375D01*
X83710772Y-85251214D01*
X83829915Y-85211726D01*
X83922561Y-85153367D01*
X83996587Y-85072590D01*
X84054877Y-84975700D01*
X84088725Y-84878576D01*
X84110438Y-84754576D01*
X84118093Y-84625135D01*
X84109766Y-84511687D01*
X84100143Y-84471094D01*
X84028998Y-84328502D01*
X83918694Y-84208740D01*
X83805694Y-84135601D01*
X83754477Y-84111484D01*
X83708571Y-84094294D01*
X83658500Y-84083067D01*
X83594784Y-84076836D01*
X83507948Y-84074638D01*
X83388514Y-84075507D01*
X83241871Y-84078182D01*
X83235681Y-84078316D01*
X83235681Y-84404978D01*
X83363568Y-84408824D01*
X83486673Y-84417763D01*
X83591797Y-84430987D01*
X83665740Y-84447686D01*
X83686361Y-84456748D01*
X83739247Y-84507703D01*
X83787255Y-84581673D01*
X83816288Y-84655162D01*
X83819421Y-84678511D01*
X83808811Y-84722862D01*
X83782394Y-84784234D01*
X83781470Y-84786031D01*
X83744133Y-84844143D01*
X83696102Y-84885880D01*
X83629354Y-84913437D01*
X83535867Y-84929011D01*
X83407618Y-84934798D01*
X83243896Y-84933172D01*
X82901305Y-84924900D01*
X82827252Y-84841949D01*
X82767293Y-84744465D01*
X82753789Y-84646449D01*
X82783125Y-84555958D01*
X82851690Y-84481049D01*
X82955868Y-84429783D01*
X83018354Y-84415804D01*
X83116210Y-84407035D01*
X83235681Y-84404978D01*
X83235681Y-84078316D01*
X83084384Y-84081595D01*
X82968726Y-84085512D01*
X82885928Y-84091248D01*
X82827027Y-84100123D01*
X82783056Y-84113452D01*
X82745049Y-84132554D01*
X82707026Y-84156766D01*
X82588722Y-84255063D01*
X82510271Y-84371110D01*
X82466222Y-84514904D01*
X82453881Y-84621083D01*
X82455555Y-84790944D01*
X82455555Y-84790944D01*
G37*
X82455555Y-84790944D02*
X82487693Y-84929057D01*
X82554457Y-85047133D01*
X82636981Y-85136319D01*
X82716125Y-85197911D01*
X82805727Y-85242398D01*
X82914260Y-85271549D01*
X83050195Y-85287137D01*
X83222004Y-85290931D01*
X83361486Y-85287754D01*
X83557255Y-85275375D01*
X83710772Y-85251214D01*
X83829915Y-85211726D01*
X83922561Y-85153367D01*
X83996587Y-85072590D01*
X84054877Y-84975700D01*
X84088725Y-84878576D01*
X84110438Y-84754576D01*
X84118093Y-84625135D01*
X84109766Y-84511687D01*
X84100143Y-84471094D01*
X84028998Y-84328502D01*
X83918694Y-84208740D01*
X83805694Y-84135601D01*
X83754477Y-84111484D01*
X83708571Y-84094294D01*
X83658500Y-84083067D01*
X83594784Y-84076836D01*
X83507948Y-84074638D01*
X83388514Y-84075507D01*
X83241871Y-84078182D01*
X83235681Y-84078316D01*
X83235681Y-84404978D01*
X83363568Y-84408824D01*
X83486673Y-84417763D01*
X83591797Y-84430987D01*
X83665740Y-84447686D01*
X83686361Y-84456748D01*
X83739247Y-84507703D01*
X83787255Y-84581673D01*
X83816288Y-84655162D01*
X83819421Y-84678511D01*
X83808811Y-84722862D01*
X83782394Y-84784234D01*
X83781470Y-84786031D01*
X83744133Y-84844143D01*
X83696102Y-84885880D01*
X83629354Y-84913437D01*
X83535867Y-84929011D01*
X83407618Y-84934798D01*
X83243896Y-84933172D01*
X82901305Y-84924900D01*
X82827252Y-84841949D01*
X82767293Y-84744465D01*
X82753789Y-84646449D01*
X82783125Y-84555958D01*
X82851690Y-84481049D01*
X82955868Y-84429783D01*
X83018354Y-84415804D01*
X83116210Y-84407035D01*
X83235681Y-84404978D01*
X83235681Y-84078316D01*
X83084384Y-84081595D01*
X82968726Y-84085512D01*
X82885928Y-84091248D01*
X82827027Y-84100123D01*
X82783056Y-84113452D01*
X82745049Y-84132554D01*
X82707026Y-84156766D01*
X82588722Y-84255063D01*
X82510271Y-84371110D01*
X82466222Y-84514904D01*
X82453881Y-84621083D01*
X82455555Y-84790944D01*
G36*
X82465073Y-91989821D02*
X82521184Y-92134487D01*
X82612603Y-92259643D01*
X82714149Y-92341307D01*
X82764116Y-92371063D01*
X82808752Y-92392143D01*
X82858327Y-92406301D01*
X82923111Y-92415293D01*
X83013375Y-92420872D01*
X83139388Y-92424795D01*
X83212980Y-92426545D01*
X83411864Y-92428248D01*
X83568514Y-92421735D01*
X83691118Y-92404979D01*
X83787864Y-92375954D01*
X83866939Y-92332632D01*
X83936530Y-92272986D01*
X83967376Y-92239779D01*
X84063423Y-92093688D01*
X84114050Y-91927272D01*
X84118472Y-91744456D01*
X84093404Y-91607869D01*
X84046109Y-91505901D01*
X83964996Y-91402747D01*
X83864585Y-91312841D01*
X83759398Y-91250615D01*
X83720237Y-91236972D01*
X83638022Y-91224008D01*
X83511892Y-91216230D01*
X83348496Y-91213925D01*
X83331881Y-91214140D01*
X83331881Y-91556311D01*
X83461899Y-91558429D01*
X83552178Y-91563729D01*
X83613753Y-91573864D01*
X83657663Y-91590485D01*
X83687481Y-91609560D01*
X83771510Y-91696288D01*
X83808709Y-91792398D01*
X83798463Y-91890608D01*
X83740156Y-91983637D01*
X83720724Y-92002770D01*
X83670707Y-92040387D01*
X83611067Y-92064603D01*
X83526066Y-92080469D01*
X83454224Y-92088280D01*
X83288269Y-92095994D01*
X83127084Y-92089410D01*
X82986585Y-92069771D01*
X82898052Y-92044827D01*
X82826293Y-91992765D01*
X82773852Y-91910227D01*
X82753296Y-91817090D01*
X82753294Y-91815911D01*
X82766452Y-91754961D01*
X82798451Y-91683829D01*
X82802883Y-91676328D01*
X82838395Y-91630725D01*
X82886142Y-91597761D01*
X82954010Y-91575647D01*
X83049884Y-91562595D01*
X83181649Y-91556815D01*
X83331881Y-91556311D01*
X83331881Y-91214140D01*
X83222859Y-91215555D01*
X83074704Y-91219192D01*
X82967290Y-91223592D01*
X82890564Y-91230439D01*
X82834475Y-91241413D01*
X82788973Y-91258199D01*
X82744004Y-91282477D01*
X82714145Y-91300692D01*
X82593714Y-91402827D01*
X82508591Y-91532147D01*
X82458777Y-91679312D01*
X82444271Y-91834983D01*
X82465073Y-91989821D01*
X82465073Y-91989821D01*
G37*
X82465073Y-91989821D02*
X82521184Y-92134487D01*
X82612603Y-92259643D01*
X82714149Y-92341307D01*
X82764116Y-92371063D01*
X82808752Y-92392143D01*
X82858327Y-92406301D01*
X82923111Y-92415293D01*
X83013375Y-92420872D01*
X83139388Y-92424795D01*
X83212980Y-92426545D01*
X83411864Y-92428248D01*
X83568514Y-92421735D01*
X83691118Y-92404979D01*
X83787864Y-92375954D01*
X83866939Y-92332632D01*
X83936530Y-92272986D01*
X83967376Y-92239779D01*
X84063423Y-92093688D01*
X84114050Y-91927272D01*
X84118472Y-91744456D01*
X84093404Y-91607869D01*
X84046109Y-91505901D01*
X83964996Y-91402747D01*
X83864585Y-91312841D01*
X83759398Y-91250615D01*
X83720237Y-91236972D01*
X83638022Y-91224008D01*
X83511892Y-91216230D01*
X83348496Y-91213925D01*
X83331881Y-91214140D01*
X83331881Y-91556311D01*
X83461899Y-91558429D01*
X83552178Y-91563729D01*
X83613753Y-91573864D01*
X83657663Y-91590485D01*
X83687481Y-91609560D01*
X83771510Y-91696288D01*
X83808709Y-91792398D01*
X83798463Y-91890608D01*
X83740156Y-91983637D01*
X83720724Y-92002770D01*
X83670707Y-92040387D01*
X83611067Y-92064603D01*
X83526066Y-92080469D01*
X83454224Y-92088280D01*
X83288269Y-92095994D01*
X83127084Y-92089410D01*
X82986585Y-92069771D01*
X82898052Y-92044827D01*
X82826293Y-91992765D01*
X82773852Y-91910227D01*
X82753296Y-91817090D01*
X82753294Y-91815911D01*
X82766452Y-91754961D01*
X82798451Y-91683829D01*
X82802883Y-91676328D01*
X82838395Y-91630725D01*
X82886142Y-91597761D01*
X82954010Y-91575647D01*
X83049884Y-91562595D01*
X83181649Y-91556815D01*
X83331881Y-91556311D01*
X83331881Y-91214140D01*
X83222859Y-91215555D01*
X83074704Y-91219192D01*
X82967290Y-91223592D01*
X82890564Y-91230439D01*
X82834475Y-91241413D01*
X82788973Y-91258199D01*
X82744004Y-91282477D01*
X82714145Y-91300692D01*
X82593714Y-91402827D01*
X82508591Y-91532147D01*
X82458777Y-91679312D01*
X82444271Y-91834983D01*
X82465073Y-91989821D01*
G36*
X82461836Y-99362534D02*
X82497750Y-99508327D01*
X82553216Y-99625703D01*
X82611024Y-99693060D01*
X82639804Y-99709824D01*
X82670198Y-99703450D01*
X82714376Y-99668433D01*
X82756883Y-99627068D01*
X82859035Y-99524917D01*
X82806117Y-99426185D01*
X82764167Y-99313234D01*
X82750743Y-99194838D01*
X82765510Y-99086401D01*
X82808129Y-99003326D01*
X82815545Y-98995345D01*
X82886302Y-98943497D01*
X82955579Y-98937832D01*
X83005881Y-98957694D01*
X83037172Y-98979782D01*
X83061065Y-99013870D01*
X83081265Y-99069853D01*
X83101475Y-99157627D01*
X83122026Y-99267983D01*
X83160885Y-99437602D01*
X83212254Y-99563776D01*
X83281382Y-99653339D01*
X83373518Y-99713126D01*
X83491920Y-99749562D01*
X83656603Y-99760672D01*
X83804467Y-99724939D01*
X83931026Y-99644490D01*
X84031794Y-99521453D01*
X84052844Y-99483480D01*
X84087626Y-99381801D01*
X84109642Y-99248779D01*
X84117799Y-99102512D01*
X84111003Y-98961097D01*
X84091002Y-98852242D01*
X84057884Y-98765408D01*
X84011306Y-98679531D01*
X83959901Y-98607338D01*
X83912303Y-98561561D01*
X83887362Y-98552000D01*
X83853140Y-98568999D01*
X83798979Y-98612696D01*
X83758333Y-98651721D01*
X83660958Y-98751443D01*
X83712616Y-98817116D01*
X83772910Y-98927908D01*
X83804301Y-99059738D01*
X83805476Y-99195191D01*
X83775121Y-99316854D01*
X83753421Y-99358450D01*
X83699867Y-99400990D01*
X83623996Y-99416403D01*
X83547345Y-99403198D01*
X83504314Y-99375685D01*
X83472818Y-99342447D01*
X83464365Y-99331235D01*
X83457665Y-99270174D01*
X83440666Y-99177504D01*
X83417098Y-99069271D01*
X83390694Y-98961521D01*
X83365186Y-98870300D01*
X83344307Y-98811654D01*
X83342797Y-98808552D01*
X83267755Y-98713046D01*
X83161546Y-98646918D01*
X83035309Y-98611420D01*
X82900181Y-98607803D01*
X82767299Y-98637321D01*
X82647801Y-98701224D01*
X82616647Y-98726906D01*
X82532172Y-98826453D01*
X82478676Y-98947634D01*
X82452834Y-99099833D01*
X82449205Y-99199700D01*
X82461836Y-99362534D01*
X82461836Y-99362534D01*
G37*
X82461836Y-99362534D02*
X82497750Y-99508327D01*
X82553216Y-99625703D01*
X82611024Y-99693060D01*
X82639804Y-99709824D01*
X82670198Y-99703450D01*
X82714376Y-99668433D01*
X82756883Y-99627068D01*
X82859035Y-99524917D01*
X82806117Y-99426185D01*
X82764167Y-99313234D01*
X82750743Y-99194838D01*
X82765510Y-99086401D01*
X82808129Y-99003326D01*
X82815545Y-98995345D01*
X82886302Y-98943497D01*
X82955579Y-98937832D01*
X83005881Y-98957694D01*
X83037172Y-98979782D01*
X83061065Y-99013870D01*
X83081265Y-99069853D01*
X83101475Y-99157627D01*
X83122026Y-99267983D01*
X83160885Y-99437602D01*
X83212254Y-99563776D01*
X83281382Y-99653339D01*
X83373518Y-99713126D01*
X83491920Y-99749562D01*
X83656603Y-99760672D01*
X83804467Y-99724939D01*
X83931026Y-99644490D01*
X84031794Y-99521453D01*
X84052844Y-99483480D01*
X84087626Y-99381801D01*
X84109642Y-99248779D01*
X84117799Y-99102512D01*
X84111003Y-98961097D01*
X84091002Y-98852242D01*
X84057884Y-98765408D01*
X84011306Y-98679531D01*
X83959901Y-98607338D01*
X83912303Y-98561561D01*
X83887362Y-98552000D01*
X83853140Y-98568999D01*
X83798979Y-98612696D01*
X83758333Y-98651721D01*
X83660958Y-98751443D01*
X83712616Y-98817116D01*
X83772910Y-98927908D01*
X83804301Y-99059738D01*
X83805476Y-99195191D01*
X83775121Y-99316854D01*
X83753421Y-99358450D01*
X83699867Y-99400990D01*
X83623996Y-99416403D01*
X83547345Y-99403198D01*
X83504314Y-99375685D01*
X83472818Y-99342447D01*
X83464365Y-99331235D01*
X83457665Y-99270174D01*
X83440666Y-99177504D01*
X83417098Y-99069271D01*
X83390694Y-98961521D01*
X83365186Y-98870300D01*
X83344307Y-98811654D01*
X83342797Y-98808552D01*
X83267755Y-98713046D01*
X83161546Y-98646918D01*
X83035309Y-98611420D01*
X82900181Y-98607803D01*
X82767299Y-98637321D01*
X82647801Y-98701224D01*
X82616647Y-98726906D01*
X82532172Y-98826453D01*
X82478676Y-98947634D01*
X82452834Y-99099833D01*
X82449205Y-99199700D01*
X82461836Y-99362534D01*
G36*
X82469018Y-106674668D02*
X82527651Y-106827524D01*
X82625600Y-106948374D01*
X82763051Y-107037526D01*
X82788852Y-107048924D01*
X82874229Y-107072499D01*
X82996361Y-107090625D01*
X83141422Y-107102589D01*
X83295588Y-107107678D01*
X83445034Y-107105180D01*
X83575937Y-107094382D01*
X83601094Y-107090787D01*
X83770304Y-107047786D01*
X83902459Y-106975498D01*
X84004886Y-106869355D01*
X84038023Y-106818368D01*
X84089049Y-106693675D01*
X84116151Y-106546375D01*
X84117332Y-106397602D01*
X84090594Y-106268490D01*
X84090115Y-106267198D01*
X84008286Y-106114006D01*
X83891713Y-105995336D01*
X83801640Y-105940168D01*
X83749922Y-105916957D01*
X83698868Y-105900689D01*
X83638126Y-105890131D01*
X83557346Y-105884053D01*
X83446176Y-105881224D01*
X83405830Y-105881003D01*
X83405830Y-106225293D01*
X83539837Y-106233100D01*
X83637912Y-106252143D01*
X83707231Y-106284419D01*
X83754967Y-106331925D01*
X83781732Y-106380599D01*
X83808825Y-106447138D01*
X83815961Y-106492690D01*
X83803269Y-106542426D01*
X83782814Y-106592829D01*
X83746039Y-106656128D01*
X83691720Y-106701585D01*
X83612298Y-106731688D01*
X83500216Y-106748927D01*
X83347916Y-106755788D01*
X83286600Y-106756200D01*
X83119995Y-106751984D01*
X82995668Y-106739602D01*
X82920803Y-106720783D01*
X82823048Y-106657341D01*
X82766848Y-106571799D01*
X82754417Y-106473677D01*
X82787966Y-106372495D01*
X82827300Y-106318450D01*
X82901400Y-106235500D01*
X83228718Y-106226727D01*
X83405830Y-106225293D01*
X83405830Y-105881003D01*
X83299300Y-105880418D01*
X83118495Y-105882194D01*
X82979057Y-105889458D01*
X82871665Y-105904280D01*
X82787001Y-105928728D01*
X82715745Y-105964872D01*
X82648579Y-106014780D01*
X82632734Y-106028420D01*
X82536317Y-106137364D01*
X82477091Y-106266309D01*
X82451321Y-106424651D01*
X82449515Y-106489500D01*
X82469018Y-106674668D01*
X82469018Y-106674668D01*
G37*
X82469018Y-106674668D02*
X82527651Y-106827524D01*
X82625600Y-106948374D01*
X82763051Y-107037526D01*
X82788852Y-107048924D01*
X82874229Y-107072499D01*
X82996361Y-107090625D01*
X83141422Y-107102589D01*
X83295588Y-107107678D01*
X83445034Y-107105180D01*
X83575937Y-107094382D01*
X83601094Y-107090787D01*
X83770304Y-107047786D01*
X83902459Y-106975498D01*
X84004886Y-106869355D01*
X84038023Y-106818368D01*
X84089049Y-106693675D01*
X84116151Y-106546375D01*
X84117332Y-106397602D01*
X84090594Y-106268490D01*
X84090115Y-106267198D01*
X84008286Y-106114006D01*
X83891713Y-105995336D01*
X83801640Y-105940168D01*
X83749922Y-105916957D01*
X83698868Y-105900689D01*
X83638126Y-105890131D01*
X83557346Y-105884053D01*
X83446176Y-105881224D01*
X83405830Y-105881003D01*
X83405830Y-106225293D01*
X83539837Y-106233100D01*
X83637912Y-106252143D01*
X83707231Y-106284419D01*
X83754967Y-106331925D01*
X83781732Y-106380599D01*
X83808825Y-106447138D01*
X83815961Y-106492690D01*
X83803269Y-106542426D01*
X83782814Y-106592829D01*
X83746039Y-106656128D01*
X83691720Y-106701585D01*
X83612298Y-106731688D01*
X83500216Y-106748927D01*
X83347916Y-106755788D01*
X83286600Y-106756200D01*
X83119995Y-106751984D01*
X82995668Y-106739602D01*
X82920803Y-106720783D01*
X82823048Y-106657341D01*
X82766848Y-106571799D01*
X82754417Y-106473677D01*
X82787966Y-106372495D01*
X82827300Y-106318450D01*
X82901400Y-106235500D01*
X83228718Y-106226727D01*
X83405830Y-106225293D01*
X83405830Y-105881003D01*
X83299300Y-105880418D01*
X83118495Y-105882194D01*
X82979057Y-105889458D01*
X82871665Y-105904280D01*
X82787001Y-105928728D01*
X82715745Y-105964872D01*
X82648579Y-106014780D01*
X82632734Y-106028420D01*
X82536317Y-106137364D01*
X82477091Y-106266309D01*
X82451321Y-106424651D01*
X82449515Y-106489500D01*
X82469018Y-106674668D01*
G36*
X82460792Y-117557553D02*
X82473561Y-117617872D01*
X82507205Y-117702526D01*
X82550408Y-117783145D01*
X82594795Y-117846486D01*
X82631994Y-117879307D01*
X82640095Y-117881226D01*
X82671587Y-117864433D01*
X82723509Y-117821201D01*
X82760714Y-117785110D01*
X82854738Y-117688820D01*
X82803969Y-117589239D01*
X82761830Y-117473142D01*
X82750154Y-117359581D01*
X82766416Y-117258117D01*
X82808090Y-117178312D01*
X82872651Y-117129727D01*
X82928052Y-117119400D01*
X82990913Y-117130857D01*
X83039105Y-117169624D01*
X83076654Y-117242290D01*
X83107584Y-117355448D01*
X83123627Y-117439603D01*
X83159651Y-117603829D01*
X83205998Y-117725419D01*
X83267420Y-117812230D01*
X83348669Y-117872119D01*
X83398864Y-117894672D01*
X83554246Y-117930477D01*
X83705973Y-117922293D01*
X83844946Y-117873364D01*
X83962062Y-117786934D01*
X84048219Y-117666245D01*
X84049986Y-117662636D01*
X84087400Y-117550811D01*
X84110923Y-117409730D01*
X84118932Y-117259435D01*
X84109804Y-117119966D01*
X84098635Y-117061855D01*
X84064691Y-116958739D01*
X84018072Y-116857370D01*
X83967731Y-116775408D01*
X83934953Y-116738942D01*
X83907482Y-116724443D01*
X83875839Y-116732889D01*
X83828920Y-116769770D01*
X83781895Y-116814604D01*
X83669997Y-116924424D01*
X83718086Y-116991959D01*
X83768637Y-117091767D01*
X83802353Y-117214284D01*
X83813557Y-117334625D01*
X83808523Y-117388508D01*
X83776901Y-117474083D01*
X83723051Y-117547005D01*
X83659435Y-117593104D01*
X83620768Y-117602000D01*
X83554067Y-117587748D01*
X83503088Y-117541194D01*
X83464267Y-117456643D01*
X83434039Y-117328396D01*
X83428298Y-117294436D01*
X83392307Y-117120414D01*
X83344782Y-116989823D01*
X83281072Y-116895762D01*
X83196525Y-116831329D01*
X83088372Y-116790121D01*
X82927890Y-116771120D01*
X82778027Y-116799099D01*
X82645991Y-116871418D01*
X82538994Y-116985434D01*
X82533661Y-116993341D01*
X82496765Y-117057442D01*
X82473774Y-117124214D01*
X82460353Y-117210700D01*
X82453426Y-117308656D01*
X82451769Y-117443731D01*
X82460792Y-117557553D01*
X82460792Y-117557553D01*
G37*
X82460792Y-117557553D02*
X82473561Y-117617872D01*
X82507205Y-117702526D01*
X82550408Y-117783145D01*
X82594795Y-117846486D01*
X82631994Y-117879307D01*
X82640095Y-117881226D01*
X82671587Y-117864433D01*
X82723509Y-117821201D01*
X82760714Y-117785110D01*
X82854738Y-117688820D01*
X82803969Y-117589239D01*
X82761830Y-117473142D01*
X82750154Y-117359581D01*
X82766416Y-117258117D01*
X82808090Y-117178312D01*
X82872651Y-117129727D01*
X82928052Y-117119400D01*
X82990913Y-117130857D01*
X83039105Y-117169624D01*
X83076654Y-117242290D01*
X83107584Y-117355448D01*
X83123627Y-117439603D01*
X83159651Y-117603829D01*
X83205998Y-117725419D01*
X83267420Y-117812230D01*
X83348669Y-117872119D01*
X83398864Y-117894672D01*
X83554246Y-117930477D01*
X83705973Y-117922293D01*
X83844946Y-117873364D01*
X83962062Y-117786934D01*
X84048219Y-117666245D01*
X84049986Y-117662636D01*
X84087400Y-117550811D01*
X84110923Y-117409730D01*
X84118932Y-117259435D01*
X84109804Y-117119966D01*
X84098635Y-117061855D01*
X84064691Y-116958739D01*
X84018072Y-116857370D01*
X83967731Y-116775408D01*
X83934953Y-116738942D01*
X83907482Y-116724443D01*
X83875839Y-116732889D01*
X83828920Y-116769770D01*
X83781895Y-116814604D01*
X83669997Y-116924424D01*
X83718086Y-116991959D01*
X83768637Y-117091767D01*
X83802353Y-117214284D01*
X83813557Y-117334625D01*
X83808523Y-117388508D01*
X83776901Y-117474083D01*
X83723051Y-117547005D01*
X83659435Y-117593104D01*
X83620768Y-117602000D01*
X83554067Y-117587748D01*
X83503088Y-117541194D01*
X83464267Y-117456643D01*
X83434039Y-117328396D01*
X83428298Y-117294436D01*
X83392307Y-117120414D01*
X83344782Y-116989823D01*
X83281072Y-116895762D01*
X83196525Y-116831329D01*
X83088372Y-116790121D01*
X82927890Y-116771120D01*
X82778027Y-116799099D01*
X82645991Y-116871418D01*
X82538994Y-116985434D01*
X82533661Y-116993341D01*
X82496765Y-117057442D01*
X82473774Y-117124214D01*
X82460353Y-117210700D01*
X82453426Y-117308656D01*
X82451769Y-117443731D01*
X82460792Y-117557553D01*
G36*
X82879475Y-80578246D02*
X83310550Y-80787468D01*
X82448400Y-81199700D01*
X82448400Y-81534000D01*
X84099400Y-81534000D01*
X84099400Y-81203800D01*
X83197700Y-81200848D01*
X83483450Y-81056794D01*
X83769200Y-80912739D01*
X83769200Y-80656660D01*
X83483450Y-80512605D01*
X83197700Y-80368551D01*
X83648550Y-80367075D01*
X84099400Y-80365600D01*
X84099400Y-80035400D01*
X82448400Y-80035400D01*
X82448400Y-80369023D01*
X82879475Y-80578246D01*
X82879475Y-80578246D01*
G37*
X82879475Y-80578246D02*
X83310550Y-80787468D01*
X82448400Y-81199700D01*
X82448400Y-81534000D01*
X84099400Y-81534000D01*
X84099400Y-81203800D01*
X83197700Y-81200848D01*
X83483450Y-81056794D01*
X83769200Y-80912739D01*
X83769200Y-80656660D01*
X83483450Y-80512605D01*
X83197700Y-80368551D01*
X83648550Y-80367075D01*
X84099400Y-80365600D01*
X84099400Y-80035400D01*
X82448400Y-80035400D01*
X82448400Y-80369023D01*
X82879475Y-80578246D01*
G36*
X82753200Y-88849200D02*
X82753200Y-88417400D01*
X84099400Y-88417400D01*
X84099400Y-88087200D01*
X82753200Y-88087200D01*
X82753200Y-87655400D01*
X82448400Y-87655400D01*
X82448400Y-88849200D01*
X82753200Y-88849200D01*
X82753200Y-88849200D01*
G37*
X82753200Y-88849200D02*
X82753200Y-88417400D01*
X84099400Y-88417400D01*
X84099400Y-88087200D01*
X82753200Y-88087200D01*
X82753200Y-87655400D01*
X82448400Y-87655400D01*
X82448400Y-88849200D01*
X82753200Y-88849200D01*
G36*
X82449005Y-95319850D02*
X82450860Y-95457226D01*
X82455503Y-95584666D01*
X82462268Y-95689297D01*
X82470492Y-95758247D01*
X82472025Y-95765653D01*
X82529459Y-95910018D01*
X82623374Y-96024981D01*
X82745870Y-96105860D01*
X82889050Y-96147978D01*
X83045014Y-96146653D01*
X83097211Y-96136070D01*
X83181980Y-96102409D01*
X83265948Y-96049243D01*
X83336252Y-95987199D01*
X83380023Y-95926903D01*
X83388200Y-95895727D01*
X83403792Y-95887911D01*
X83452563Y-95902185D01*
X83537508Y-95939791D01*
X83661620Y-96001968D01*
X83727215Y-96036273D01*
X83846374Y-96098612D01*
X83949456Y-96151498D01*
X84028236Y-96190793D01*
X84074489Y-96212358D01*
X84082815Y-96215200D01*
X84090580Y-96191826D01*
X84096399Y-96129790D01*
X84099263Y-96041224D01*
X84099400Y-96015680D01*
X84099400Y-95816161D01*
X83782185Y-95666430D01*
X83464971Y-95516700D01*
X83464685Y-95408750D01*
X83464400Y-95300800D01*
X84099400Y-95300800D01*
X84099400Y-94970600D01*
X83159600Y-94970600D01*
X83159600Y-95300800D01*
X83159600Y-95492454D01*
X83157701Y-95594417D01*
X83149591Y-95660399D01*
X83131649Y-95705153D01*
X83100253Y-95743431D01*
X83097254Y-95746454D01*
X83016405Y-95798686D01*
X82930611Y-95800732D01*
X82843074Y-95752548D01*
X82839999Y-95749935D01*
X82804156Y-95713566D01*
X82781902Y-95670885D01*
X82768677Y-95607583D01*
X82759920Y-95509352D01*
X82759042Y-95495935D01*
X82746519Y-95300800D01*
X83159600Y-95300800D01*
X83159600Y-94970600D01*
X82448400Y-94970600D01*
X82449005Y-95319850D01*
X82449005Y-95319850D01*
G37*
X82449005Y-95319850D02*
X82450860Y-95457226D01*
X82455503Y-95584666D01*
X82462268Y-95689297D01*
X82470492Y-95758247D01*
X82472025Y-95765653D01*
X82529459Y-95910018D01*
X82623374Y-96024981D01*
X82745870Y-96105860D01*
X82889050Y-96147978D01*
X83045014Y-96146653D01*
X83097211Y-96136070D01*
X83181980Y-96102409D01*
X83265948Y-96049243D01*
X83336252Y-95987199D01*
X83380023Y-95926903D01*
X83388200Y-95895727D01*
X83403792Y-95887911D01*
X83452563Y-95902185D01*
X83537508Y-95939791D01*
X83661620Y-96001968D01*
X83727215Y-96036273D01*
X83846374Y-96098612D01*
X83949456Y-96151498D01*
X84028236Y-96190793D01*
X84074489Y-96212358D01*
X84082815Y-96215200D01*
X84090580Y-96191826D01*
X84096399Y-96129790D01*
X84099263Y-96041224D01*
X84099400Y-96015680D01*
X84099400Y-95816161D01*
X83782185Y-95666430D01*
X83464971Y-95516700D01*
X83464685Y-95408750D01*
X83464400Y-95300800D01*
X84099400Y-95300800D01*
X84099400Y-94970600D01*
X83159600Y-94970600D01*
X83159600Y-95300800D01*
X83159600Y-95492454D01*
X83157701Y-95594417D01*
X83149591Y-95660399D01*
X83131649Y-95705153D01*
X83100253Y-95743431D01*
X83097254Y-95746454D01*
X83016405Y-95798686D01*
X82930611Y-95800732D01*
X82843074Y-95752548D01*
X82839999Y-95749935D01*
X82804156Y-95713566D01*
X82781902Y-95670885D01*
X82768677Y-95607583D01*
X82759920Y-95509352D01*
X82759042Y-95495935D01*
X82746519Y-95300800D01*
X83159600Y-95300800D01*
X83159600Y-94970600D01*
X82448400Y-94970600D01*
X82449005Y-95319850D01*
G36*
X82448541Y-102622350D02*
X82450570Y-102801079D01*
X82457597Y-102938749D01*
X82471274Y-103044992D01*
X82493252Y-103129437D01*
X82525181Y-103201716D01*
X82556820Y-103253987D01*
X82644927Y-103344288D01*
X82765582Y-103410496D01*
X82904705Y-103448679D01*
X83048216Y-103454904D01*
X83176996Y-103427184D01*
X83304815Y-103353487D01*
X83399168Y-103241615D01*
X83460065Y-103091545D01*
X83487521Y-102903251D01*
X83489242Y-102838250D01*
X83489800Y-102616000D01*
X84099400Y-102616000D01*
X84099400Y-102260400D01*
X82753200Y-102260400D01*
X82753200Y-102616000D01*
X83185000Y-102616000D01*
X83185000Y-102790374D01*
X83181014Y-102897566D01*
X83166887Y-102969827D01*
X83139364Y-103022557D01*
X83134601Y-103028820D01*
X83056316Y-103093945D01*
X82965399Y-103111504D01*
X82882734Y-103087210D01*
X82813675Y-103026367D01*
X82771062Y-102927333D01*
X82753735Y-102787102D01*
X82753200Y-102751909D01*
X82753200Y-102616000D01*
X82753200Y-102260400D01*
X82448400Y-102260400D01*
X82448541Y-102622350D01*
X82448541Y-102622350D01*
G37*
X82448541Y-102622350D02*
X82450570Y-102801079D01*
X82457597Y-102938749D01*
X82471274Y-103044992D01*
X82493252Y-103129437D01*
X82525181Y-103201716D01*
X82556820Y-103253987D01*
X82644927Y-103344288D01*
X82765582Y-103410496D01*
X82904705Y-103448679D01*
X83048216Y-103454904D01*
X83176996Y-103427184D01*
X83304815Y-103353487D01*
X83399168Y-103241615D01*
X83460065Y-103091545D01*
X83487521Y-102903251D01*
X83489242Y-102838250D01*
X83489800Y-102616000D01*
X84099400Y-102616000D01*
X84099400Y-102260400D01*
X82753200Y-102260400D01*
X82753200Y-102616000D01*
X83185000Y-102616000D01*
X83185000Y-102790374D01*
X83181014Y-102897566D01*
X83166887Y-102969827D01*
X83139364Y-103022557D01*
X83134601Y-103028820D01*
X83056316Y-103093945D01*
X82965399Y-103111504D01*
X82882734Y-103087210D01*
X82813675Y-103026367D01*
X82771062Y-102927333D01*
X82753735Y-102787102D01*
X82753200Y-102751909D01*
X82753200Y-102616000D01*
X82753200Y-102260400D01*
X82448400Y-102260400D01*
X82448541Y-102622350D01*
G36*
X82448541Y-109988350D02*
X82451020Y-110174229D01*
X82459403Y-110318509D01*
X82475355Y-110430212D01*
X82500542Y-110518363D01*
X82536629Y-110591983D01*
X82568595Y-110638814D01*
X82665756Y-110728339D01*
X82792705Y-110789389D01*
X82934970Y-110818420D01*
X83078078Y-110811890D01*
X83167951Y-110785553D01*
X83237702Y-110742836D01*
X83310516Y-110678215D01*
X83369102Y-110608702D01*
X83393173Y-110563979D01*
X83418638Y-110563698D01*
X83483607Y-110587283D01*
X83583776Y-110632887D01*
X83714839Y-110698661D01*
X83751202Y-110717659D01*
X84099400Y-110900835D01*
X84099400Y-110486512D01*
X83464400Y-110182758D01*
X83464400Y-109982000D01*
X84099400Y-109982000D01*
X84099400Y-109626400D01*
X82753200Y-109626400D01*
X82753200Y-109982000D01*
X83159600Y-109982000D01*
X83158792Y-110166150D01*
X83153497Y-110276084D01*
X83139919Y-110357874D01*
X83124972Y-110393751D01*
X83051574Y-110453392D01*
X82961896Y-110472848D01*
X82881526Y-110452585D01*
X82812778Y-110391214D01*
X82770445Y-110290566D01*
X82753597Y-110148217D01*
X82753200Y-110117909D01*
X82753200Y-109982000D01*
X82753200Y-109626400D01*
X82448400Y-109626400D01*
X82448541Y-109988350D01*
X82448541Y-109988350D01*
G37*
X82448541Y-109988350D02*
X82451020Y-110174229D01*
X82459403Y-110318509D01*
X82475355Y-110430212D01*
X82500542Y-110518363D01*
X82536629Y-110591983D01*
X82568595Y-110638814D01*
X82665756Y-110728339D01*
X82792705Y-110789389D01*
X82934970Y-110818420D01*
X83078078Y-110811890D01*
X83167951Y-110785553D01*
X83237702Y-110742836D01*
X83310516Y-110678215D01*
X83369102Y-110608702D01*
X83393173Y-110563979D01*
X83418638Y-110563698D01*
X83483607Y-110587283D01*
X83583776Y-110632887D01*
X83714839Y-110698661D01*
X83751202Y-110717659D01*
X84099400Y-110900835D01*
X84099400Y-110486512D01*
X83464400Y-110182758D01*
X83464400Y-109982000D01*
X84099400Y-109982000D01*
X84099400Y-109626400D01*
X82753200Y-109626400D01*
X82753200Y-109982000D01*
X83159600Y-109982000D01*
X83158792Y-110166150D01*
X83153497Y-110276084D01*
X83139919Y-110357874D01*
X83124972Y-110393751D01*
X83051574Y-110453392D01*
X82961896Y-110472848D01*
X82881526Y-110452585D01*
X82812778Y-110391214D01*
X82770445Y-110290566D01*
X82753597Y-110148217D01*
X82753200Y-110117909D01*
X82753200Y-109982000D01*
X82753200Y-109626400D01*
X82448400Y-109626400D01*
X82448541Y-109988350D01*
G36*
X82753200Y-114401600D02*
X82753200Y-113969800D01*
X84099400Y-113969800D01*
X84099400Y-113614200D01*
X82753200Y-113614200D01*
X82753200Y-113207800D01*
X82448400Y-113207800D01*
X82448400Y-114401600D01*
X82753200Y-114401600D01*
X82753200Y-114401600D01*
G37*
X82753200Y-114401600D02*
X82753200Y-113969800D01*
X84099400Y-113969800D01*
X84099400Y-113614200D01*
X82753200Y-113614200D01*
X82753200Y-113207800D01*
X82448400Y-113207800D01*
X82448400Y-114401600D01*
X82753200Y-114401600D01*
G36*
X75895507Y-81466810D02*
X75897499Y-81551960D01*
X75902780Y-81602681D01*
X75912956Y-81627158D01*
X75929632Y-81633576D01*
X75952349Y-81630520D01*
X75984091Y-81622154D01*
X76061408Y-81600703D01*
X76181045Y-81567093D01*
X76339748Y-81522249D01*
X76534263Y-81467097D01*
X76761334Y-81402564D01*
X77017708Y-81329574D01*
X77300130Y-81249055D01*
X77605346Y-81161930D01*
X77930100Y-81069127D01*
X78271138Y-80971571D01*
X78619197Y-80871909D01*
X81228895Y-80124300D01*
X81229047Y-79814364D01*
X81229200Y-79504429D01*
X81120984Y-79536997D01*
X81082046Y-79548371D01*
X80997649Y-79572768D01*
X80871169Y-79609218D01*
X80705982Y-79656751D01*
X80505464Y-79714397D01*
X80272990Y-79781188D01*
X80011937Y-79856153D01*
X79725680Y-79938322D01*
X79417596Y-80026726D01*
X79091061Y-80120395D01*
X78749450Y-80218360D01*
X78453984Y-80303068D01*
X75895200Y-81036571D01*
X75895200Y-81339046D01*
X75895507Y-81466810D01*
X75895507Y-81466810D01*
G37*
X75895507Y-81466810D02*
X75897499Y-81551960D01*
X75902780Y-81602681D01*
X75912956Y-81627158D01*
X75929632Y-81633576D01*
X75952349Y-81630520D01*
X75984091Y-81622154D01*
X76061408Y-81600703D01*
X76181045Y-81567093D01*
X76339748Y-81522249D01*
X76534263Y-81467097D01*
X76761334Y-81402564D01*
X77017708Y-81329574D01*
X77300130Y-81249055D01*
X77605346Y-81161930D01*
X77930100Y-81069127D01*
X78271138Y-80971571D01*
X78619197Y-80871909D01*
X81228895Y-80124300D01*
X81229047Y-79814364D01*
X81229200Y-79504429D01*
X81120984Y-79536997D01*
X81082046Y-79548371D01*
X80997649Y-79572768D01*
X80871169Y-79609218D01*
X80705982Y-79656751D01*
X80505464Y-79714397D01*
X80272990Y-79781188D01*
X80011937Y-79856153D01*
X79725680Y-79938322D01*
X79417596Y-80026726D01*
X79091061Y-80120395D01*
X78749450Y-80218360D01*
X78453984Y-80303068D01*
X75895200Y-81036571D01*
X75895200Y-81339046D01*
X75895507Y-81466810D01*
G36*
X75899084Y-83179214D02*
X75901480Y-83259707D01*
X75905967Y-83311837D01*
X75912878Y-83341212D01*
X75922547Y-83353440D01*
X75935307Y-83354130D01*
X75939217Y-83353098D01*
X75969455Y-83344368D01*
X76045190Y-83322624D01*
X76163080Y-83288823D01*
X76319779Y-83243922D01*
X76511945Y-83188878D01*
X76736234Y-83124650D01*
X76989303Y-83052194D01*
X77267808Y-82972468D01*
X77568406Y-82886429D01*
X77887753Y-82795035D01*
X78222506Y-82699243D01*
X78435200Y-82638385D01*
X78780996Y-82539433D01*
X79115664Y-82443644D01*
X79435627Y-82352042D01*
X79737311Y-82265651D01*
X80017142Y-82185496D01*
X80271544Y-82112602D01*
X80496943Y-82047991D01*
X80689764Y-81992690D01*
X80846432Y-81947722D01*
X80963373Y-81914111D01*
X81037011Y-81892883D01*
X81057750Y-81886860D01*
X81229200Y-81836648D01*
X81229200Y-81190024D01*
X81228651Y-80982763D01*
X81226854Y-80821679D01*
X81223582Y-80702159D01*
X81218608Y-80619590D01*
X81211705Y-80569361D01*
X81202645Y-80546857D01*
X81197450Y-80544549D01*
X81169225Y-80551585D01*
X81095384Y-80571771D01*
X80979126Y-80604196D01*
X80823652Y-80647952D01*
X80632160Y-80702128D01*
X80407850Y-80765816D01*
X80153922Y-80838104D01*
X79873575Y-80918083D01*
X79570009Y-81004844D01*
X79246423Y-81097477D01*
X78906017Y-81195071D01*
X78551991Y-81296718D01*
X78536800Y-81301083D01*
X75907900Y-82056466D01*
X75901117Y-82711482D01*
X75899236Y-82910710D01*
X75898447Y-83064751D01*
X75899084Y-83179214D01*
X75899084Y-83179214D01*
G37*
X75899084Y-83179214D02*
X75901480Y-83259707D01*
X75905967Y-83311837D01*
X75912878Y-83341212D01*
X75922547Y-83353440D01*
X75935307Y-83354130D01*
X75939217Y-83353098D01*
X75969455Y-83344368D01*
X76045190Y-83322624D01*
X76163080Y-83288823D01*
X76319779Y-83243922D01*
X76511945Y-83188878D01*
X76736234Y-83124650D01*
X76989303Y-83052194D01*
X77267808Y-82972468D01*
X77568406Y-82886429D01*
X77887753Y-82795035D01*
X78222506Y-82699243D01*
X78435200Y-82638385D01*
X78780996Y-82539433D01*
X79115664Y-82443644D01*
X79435627Y-82352042D01*
X79737311Y-82265651D01*
X80017142Y-82185496D01*
X80271544Y-82112602D01*
X80496943Y-82047991D01*
X80689764Y-81992690D01*
X80846432Y-81947722D01*
X80963373Y-81914111D01*
X81037011Y-81892883D01*
X81057750Y-81886860D01*
X81229200Y-81836648D01*
X81229200Y-81190024D01*
X81228651Y-80982763D01*
X81226854Y-80821679D01*
X81223582Y-80702159D01*
X81218608Y-80619590D01*
X81211705Y-80569361D01*
X81202645Y-80546857D01*
X81197450Y-80544549D01*
X81169225Y-80551585D01*
X81095384Y-80571771D01*
X80979126Y-80604196D01*
X80823652Y-80647952D01*
X80632160Y-80702128D01*
X80407850Y-80765816D01*
X80153922Y-80838104D01*
X79873575Y-80918083D01*
X79570009Y-81004844D01*
X79246423Y-81097477D01*
X78906017Y-81195071D01*
X78551991Y-81296718D01*
X78536800Y-81301083D01*
X75907900Y-82056466D01*
X75901117Y-82711482D01*
X75899236Y-82910710D01*
X75898447Y-83064751D01*
X75899084Y-83179214D01*
G36*
X75895311Y-85012279D02*
X75895784Y-85216839D01*
X75896828Y-85379781D01*
X75898651Y-85505698D01*
X75901461Y-85599179D01*
X75905467Y-85664817D01*
X75910878Y-85707202D01*
X75917902Y-85730927D01*
X75926748Y-85740581D01*
X75937623Y-85740757D01*
X75939650Y-85740186D01*
X75969681Y-85731462D01*
X76045295Y-85709689D01*
X76163236Y-85675799D01*
X76320249Y-85630727D01*
X76513079Y-85575406D01*
X76738471Y-85510769D01*
X76993169Y-85437749D01*
X77273918Y-85357281D01*
X77577463Y-85270297D01*
X77900548Y-85177730D01*
X78239919Y-85080515D01*
X78562200Y-84988210D01*
X78913627Y-84887558D01*
X79251751Y-84790704D01*
X79573315Y-84698580D01*
X79875064Y-84612121D01*
X80153742Y-84532258D01*
X80406096Y-84459925D01*
X80628869Y-84396055D01*
X80818806Y-84341582D01*
X80972653Y-84297439D01*
X81087153Y-84264558D01*
X81159052Y-84243872D01*
X81184750Y-84236423D01*
X81196013Y-84230173D01*
X81205204Y-84215759D01*
X81212531Y-84188457D01*
X81218204Y-84143545D01*
X81222431Y-84076298D01*
X81225421Y-83981995D01*
X81227384Y-83855911D01*
X81228529Y-83693324D01*
X81229064Y-83489510D01*
X81229199Y-83239746D01*
X81229200Y-83232376D01*
X81229088Y-82981852D01*
X81228614Y-82777534D01*
X81227569Y-82614830D01*
X81225743Y-82489146D01*
X81222928Y-82395889D01*
X81218915Y-82330467D01*
X81213493Y-82288285D01*
X81206455Y-82264752D01*
X81197591Y-82255273D01*
X81186693Y-82255256D01*
X81184750Y-82255824D01*
X81151788Y-82265538D01*
X81074517Y-82287927D01*
X80956779Y-82321890D01*
X80802415Y-82366324D01*
X80615269Y-82420130D01*
X80399181Y-82482207D01*
X80157996Y-82551453D01*
X79895553Y-82626768D01*
X79615697Y-82707050D01*
X79322269Y-82791200D01*
X79019110Y-82878114D01*
X78710064Y-82966694D01*
X78398973Y-83055838D01*
X78089678Y-83144444D01*
X77786023Y-83231412D01*
X77491848Y-83315642D01*
X77210997Y-83396031D01*
X76947311Y-83471480D01*
X76704633Y-83540887D01*
X76486804Y-83603151D01*
X76297668Y-83657171D01*
X76141066Y-83701846D01*
X76020840Y-83736076D01*
X75940833Y-83758759D01*
X75904886Y-83768795D01*
X75903241Y-83769200D01*
X75901467Y-83793693D01*
X75899829Y-83863545D01*
X75898370Y-83973317D01*
X75897135Y-84117566D01*
X75896168Y-84290853D01*
X75895513Y-84487738D01*
X75895214Y-84702778D01*
X75895200Y-84761511D01*
X75895311Y-85012279D01*
X75895311Y-85012279D01*
G37*
X75895311Y-85012279D02*
X75895784Y-85216839D01*
X75896828Y-85379781D01*
X75898651Y-85505698D01*
X75901461Y-85599179D01*
X75905467Y-85664817D01*
X75910878Y-85707202D01*
X75917902Y-85730927D01*
X75926748Y-85740581D01*
X75937623Y-85740757D01*
X75939650Y-85740186D01*
X75969681Y-85731462D01*
X76045295Y-85709689D01*
X76163236Y-85675799D01*
X76320249Y-85630727D01*
X76513079Y-85575406D01*
X76738471Y-85510769D01*
X76993169Y-85437749D01*
X77273918Y-85357281D01*
X77577463Y-85270297D01*
X77900548Y-85177730D01*
X78239919Y-85080515D01*
X78562200Y-84988210D01*
X78913627Y-84887558D01*
X79251751Y-84790704D01*
X79573315Y-84698580D01*
X79875064Y-84612121D01*
X80153742Y-84532258D01*
X80406096Y-84459925D01*
X80628869Y-84396055D01*
X80818806Y-84341582D01*
X80972653Y-84297439D01*
X81087153Y-84264558D01*
X81159052Y-84243872D01*
X81184750Y-84236423D01*
X81196013Y-84230173D01*
X81205204Y-84215759D01*
X81212531Y-84188457D01*
X81218204Y-84143545D01*
X81222431Y-84076298D01*
X81225421Y-83981995D01*
X81227384Y-83855911D01*
X81228529Y-83693324D01*
X81229064Y-83489510D01*
X81229199Y-83239746D01*
X81229200Y-83232376D01*
X81229088Y-82981852D01*
X81228614Y-82777534D01*
X81227569Y-82614830D01*
X81225743Y-82489146D01*
X81222928Y-82395889D01*
X81218915Y-82330467D01*
X81213493Y-82288285D01*
X81206455Y-82264752D01*
X81197591Y-82255273D01*
X81186693Y-82255256D01*
X81184750Y-82255824D01*
X81151788Y-82265538D01*
X81074517Y-82287927D01*
X80956779Y-82321890D01*
X80802415Y-82366324D01*
X80615269Y-82420130D01*
X80399181Y-82482207D01*
X80157996Y-82551453D01*
X79895553Y-82626768D01*
X79615697Y-82707050D01*
X79322269Y-82791200D01*
X79019110Y-82878114D01*
X78710064Y-82966694D01*
X78398973Y-83055838D01*
X78089678Y-83144444D01*
X77786023Y-83231412D01*
X77491848Y-83315642D01*
X77210997Y-83396031D01*
X76947311Y-83471480D01*
X76704633Y-83540887D01*
X76486804Y-83603151D01*
X76297668Y-83657171D01*
X76141066Y-83701846D01*
X76020840Y-83736076D01*
X75940833Y-83758759D01*
X75904886Y-83768795D01*
X75903241Y-83769200D01*
X75901467Y-83793693D01*
X75899829Y-83863545D01*
X75898370Y-83973317D01*
X75897135Y-84117566D01*
X75896168Y-84290853D01*
X75895513Y-84487738D01*
X75895214Y-84702778D01*
X75895200Y-84761511D01*
X75895311Y-85012279D01*
G36*
X75965049Y-88278688D02*
X75998572Y-88269653D01*
X76077631Y-88247528D01*
X76198940Y-88213252D01*
X76359211Y-88167762D01*
X76555156Y-88111996D01*
X76783487Y-88046893D01*
X77040917Y-87973391D01*
X77324159Y-87892427D01*
X77629924Y-87804939D01*
X77954925Y-87711866D01*
X78295874Y-87614146D01*
X78625700Y-87519541D01*
X81216500Y-86776143D01*
X81223127Y-85702671D01*
X81224646Y-85440969D01*
X81225564Y-85225641D01*
X81225721Y-85052264D01*
X81224958Y-84916412D01*
X81223116Y-84813662D01*
X81220035Y-84739591D01*
X81215558Y-84689774D01*
X81209523Y-84659788D01*
X81201774Y-84645207D01*
X81192150Y-84641609D01*
X81185027Y-84642998D01*
X81154957Y-84651745D01*
X81079305Y-84673541D01*
X80961327Y-84707453D01*
X80804279Y-84752547D01*
X80611416Y-84807890D01*
X80385993Y-84872548D01*
X80131267Y-84945586D01*
X79850493Y-85026072D01*
X79546927Y-85113072D01*
X79223824Y-85205652D01*
X78884441Y-85302879D01*
X78562200Y-85395178D01*
X78210773Y-85495834D01*
X77872650Y-85592691D01*
X77551088Y-85684814D01*
X77249339Y-85771272D01*
X76970661Y-85851131D01*
X76718308Y-85923458D01*
X76495535Y-85987319D01*
X76305597Y-86041783D01*
X76151750Y-86085916D01*
X76037249Y-86118785D01*
X75965349Y-86139456D01*
X75939650Y-86146891D01*
X75928761Y-86152915D01*
X75919805Y-86166869D01*
X75912592Y-86193302D01*
X75906935Y-86236761D01*
X75902649Y-86301792D01*
X75899546Y-86392944D01*
X75897438Y-86514764D01*
X75896138Y-86671799D01*
X75895461Y-86868596D01*
X75895217Y-87109703D01*
X75895200Y-87227329D01*
X75895200Y-88294436D01*
X75965049Y-88278688D01*
X75965049Y-88278688D01*
G37*
X75965049Y-88278688D02*
X75998572Y-88269653D01*
X76077631Y-88247528D01*
X76198940Y-88213252D01*
X76359211Y-88167762D01*
X76555156Y-88111996D01*
X76783487Y-88046893D01*
X77040917Y-87973391D01*
X77324159Y-87892427D01*
X77629924Y-87804939D01*
X77954925Y-87711866D01*
X78295874Y-87614146D01*
X78625700Y-87519541D01*
X81216500Y-86776143D01*
X81223127Y-85702671D01*
X81224646Y-85440969D01*
X81225564Y-85225641D01*
X81225721Y-85052264D01*
X81224958Y-84916412D01*
X81223116Y-84813662D01*
X81220035Y-84739591D01*
X81215558Y-84689774D01*
X81209523Y-84659788D01*
X81201774Y-84645207D01*
X81192150Y-84641609D01*
X81185027Y-84642998D01*
X81154957Y-84651745D01*
X81079305Y-84673541D01*
X80961327Y-84707453D01*
X80804279Y-84752547D01*
X80611416Y-84807890D01*
X80385993Y-84872548D01*
X80131267Y-84945586D01*
X79850493Y-85026072D01*
X79546927Y-85113072D01*
X79223824Y-85205652D01*
X78884441Y-85302879D01*
X78562200Y-85395178D01*
X78210773Y-85495834D01*
X77872650Y-85592691D01*
X77551088Y-85684814D01*
X77249339Y-85771272D01*
X76970661Y-85851131D01*
X76718308Y-85923458D01*
X76495535Y-85987319D01*
X76305597Y-86041783D01*
X76151750Y-86085916D01*
X76037249Y-86118785D01*
X75965349Y-86139456D01*
X75939650Y-86146891D01*
X75928761Y-86152915D01*
X75919805Y-86166869D01*
X75912592Y-86193302D01*
X75906935Y-86236761D01*
X75902649Y-86301792D01*
X75899546Y-86392944D01*
X75897438Y-86514764D01*
X75896138Y-86671799D01*
X75895461Y-86868596D01*
X75895217Y-87109703D01*
X75895200Y-87227329D01*
X75895200Y-88294436D01*
X75965049Y-88278688D01*
G36*
X75901811Y-91155643D02*
X75938965Y-91354617D01*
X76008960Y-91527047D01*
X76110190Y-91668232D01*
X76241047Y-91773474D01*
X76312677Y-91809328D01*
X76431677Y-91843021D01*
X76583872Y-91862471D01*
X76753442Y-91866779D01*
X76924566Y-91855047D01*
X76980284Y-91847245D01*
X77049189Y-91833019D01*
X77160828Y-91806075D01*
X77309649Y-91767985D01*
X77490101Y-91720317D01*
X77696633Y-91664640D01*
X77923694Y-91602524D01*
X78165733Y-91535539D01*
X78417198Y-91465252D01*
X78672540Y-91393235D01*
X78926206Y-91321056D01*
X79172646Y-91250284D01*
X79406308Y-91182490D01*
X79621641Y-91119241D01*
X79813095Y-91062108D01*
X79975118Y-91012660D01*
X80102159Y-90972466D01*
X80188667Y-90943095D01*
X80216330Y-90932392D01*
X80481578Y-90797271D01*
X80711016Y-90634139D01*
X80901752Y-90446099D01*
X81050894Y-90236250D01*
X81155551Y-90007694D01*
X81190089Y-89888236D01*
X81213895Y-89743902D01*
X81224956Y-89579565D01*
X81223145Y-89414678D01*
X81208332Y-89268696D01*
X81194605Y-89203544D01*
X81123968Y-89026719D01*
X81017432Y-88885445D01*
X80875872Y-88780694D01*
X80773412Y-88735398D01*
X80681071Y-88714646D01*
X80554166Y-88701834D01*
X80408344Y-88697197D01*
X80300917Y-88699917D01*
X80300917Y-88977423D01*
X80451366Y-88981368D01*
X80580232Y-88999543D01*
X80657700Y-89024207D01*
X80771471Y-89091054D01*
X80853705Y-89175737D01*
X80907616Y-89285314D01*
X80936415Y-89426841D01*
X80943316Y-89607373D01*
X80942335Y-89649300D01*
X80936254Y-89777249D01*
X80925262Y-89871441D01*
X80905970Y-89948896D01*
X80874987Y-90026631D01*
X80861404Y-90055700D01*
X80782262Y-90194379D01*
X80682408Y-90318424D01*
X80557388Y-90430510D01*
X80402749Y-90533314D01*
X80214038Y-90629510D01*
X79986801Y-90721775D01*
X79716585Y-90812783D01*
X79489300Y-90880057D01*
X79061293Y-91000890D01*
X78679839Y-91108213D01*
X78342691Y-91202638D01*
X78047601Y-91284776D01*
X77792325Y-91355238D01*
X77574616Y-91414635D01*
X77392227Y-91463577D01*
X77242913Y-91502677D01*
X77124426Y-91532544D01*
X77034521Y-91553790D01*
X76970952Y-91567027D01*
X76951752Y-91570315D01*
X76742871Y-91585683D01*
X76563480Y-91562984D01*
X76415389Y-91502828D01*
X76300406Y-91405823D01*
X76250527Y-91334540D01*
X76222137Y-91280016D01*
X76203732Y-91226838D01*
X76193198Y-91161985D01*
X76188425Y-91072438D01*
X76187300Y-90945175D01*
X76187300Y-90944700D01*
X76188572Y-90815434D01*
X76193951Y-90722338D01*
X76205784Y-90650811D01*
X76226415Y-90586252D01*
X76255575Y-90519619D01*
X76305357Y-90423200D01*
X76360800Y-90330115D01*
X76394331Y-90281534D01*
X76480071Y-90191758D01*
X76601042Y-90095421D01*
X76744059Y-90001350D01*
X76895938Y-89918368D01*
X77015753Y-89865591D01*
X77072222Y-89846355D01*
X77171981Y-89815134D01*
X77309374Y-89773543D01*
X77478745Y-89723201D01*
X77674441Y-89665725D01*
X77890805Y-89602732D01*
X78122183Y-89535841D01*
X78362919Y-89466667D01*
X78607358Y-89396829D01*
X78849844Y-89327945D01*
X79084724Y-89261631D01*
X79306341Y-89199506D01*
X79509040Y-89143186D01*
X79687166Y-89094290D01*
X79835065Y-89054434D01*
X79947079Y-89025236D01*
X79995911Y-89013223D01*
X80144044Y-88987957D01*
X80300917Y-88977423D01*
X80300917Y-88699917D01*
X80259253Y-88700972D01*
X80122543Y-88713397D01*
X80055700Y-88724533D01*
X80005626Y-88736687D01*
X79912301Y-88761151D01*
X79781338Y-88796358D01*
X79618352Y-88840737D01*
X79428959Y-88892722D01*
X79218773Y-88950744D01*
X78993410Y-89013234D01*
X78758484Y-89078624D01*
X78519611Y-89145345D01*
X78282405Y-89211830D01*
X78052482Y-89276510D01*
X77835456Y-89337816D01*
X77636942Y-89394180D01*
X77462555Y-89444034D01*
X77317911Y-89485809D01*
X77208624Y-89517937D01*
X77140309Y-89538849D01*
X77139800Y-89539013D01*
X76854000Y-89651483D01*
X76599468Y-89793251D01*
X76379526Y-89961130D01*
X76197494Y-90151936D01*
X76056696Y-90362482D01*
X75960454Y-90589581D01*
X75932453Y-90696865D01*
X75899105Y-90934825D01*
X75901811Y-91155643D01*
X75901811Y-91155643D01*
G37*
X75901811Y-91155643D02*
X75938965Y-91354617D01*
X76008960Y-91527047D01*
X76110190Y-91668232D01*
X76241047Y-91773474D01*
X76312677Y-91809328D01*
X76431677Y-91843021D01*
X76583872Y-91862471D01*
X76753442Y-91866779D01*
X76924566Y-91855047D01*
X76980284Y-91847245D01*
X77049189Y-91833019D01*
X77160828Y-91806075D01*
X77309649Y-91767985D01*
X77490101Y-91720317D01*
X77696633Y-91664640D01*
X77923694Y-91602524D01*
X78165733Y-91535539D01*
X78417198Y-91465252D01*
X78672540Y-91393235D01*
X78926206Y-91321056D01*
X79172646Y-91250284D01*
X79406308Y-91182490D01*
X79621641Y-91119241D01*
X79813095Y-91062108D01*
X79975118Y-91012660D01*
X80102159Y-90972466D01*
X80188667Y-90943095D01*
X80216330Y-90932392D01*
X80481578Y-90797271D01*
X80711016Y-90634139D01*
X80901752Y-90446099D01*
X81050894Y-90236250D01*
X81155551Y-90007694D01*
X81190089Y-89888236D01*
X81213895Y-89743902D01*
X81224956Y-89579565D01*
X81223145Y-89414678D01*
X81208332Y-89268696D01*
X81194605Y-89203544D01*
X81123968Y-89026719D01*
X81017432Y-88885445D01*
X80875872Y-88780694D01*
X80773412Y-88735398D01*
X80681071Y-88714646D01*
X80554166Y-88701834D01*
X80408344Y-88697197D01*
X80300917Y-88699917D01*
X80300917Y-88977423D01*
X80451366Y-88981368D01*
X80580232Y-88999543D01*
X80657700Y-89024207D01*
X80771471Y-89091054D01*
X80853705Y-89175737D01*
X80907616Y-89285314D01*
X80936415Y-89426841D01*
X80943316Y-89607373D01*
X80942335Y-89649300D01*
X80936254Y-89777249D01*
X80925262Y-89871441D01*
X80905970Y-89948896D01*
X80874987Y-90026631D01*
X80861404Y-90055700D01*
X80782262Y-90194379D01*
X80682408Y-90318424D01*
X80557388Y-90430510D01*
X80402749Y-90533314D01*
X80214038Y-90629510D01*
X79986801Y-90721775D01*
X79716585Y-90812783D01*
X79489300Y-90880057D01*
X79061293Y-91000890D01*
X78679839Y-91108213D01*
X78342691Y-91202638D01*
X78047601Y-91284776D01*
X77792325Y-91355238D01*
X77574616Y-91414635D01*
X77392227Y-91463577D01*
X77242913Y-91502677D01*
X77124426Y-91532544D01*
X77034521Y-91553790D01*
X76970952Y-91567027D01*
X76951752Y-91570315D01*
X76742871Y-91585683D01*
X76563480Y-91562984D01*
X76415389Y-91502828D01*
X76300406Y-91405823D01*
X76250527Y-91334540D01*
X76222137Y-91280016D01*
X76203732Y-91226838D01*
X76193198Y-91161985D01*
X76188425Y-91072438D01*
X76187300Y-90945175D01*
X76187300Y-90944700D01*
X76188572Y-90815434D01*
X76193951Y-90722338D01*
X76205784Y-90650811D01*
X76226415Y-90586252D01*
X76255575Y-90519619D01*
X76305357Y-90423200D01*
X76360800Y-90330115D01*
X76394331Y-90281534D01*
X76480071Y-90191758D01*
X76601042Y-90095421D01*
X76744059Y-90001350D01*
X76895938Y-89918368D01*
X77015753Y-89865591D01*
X77072222Y-89846355D01*
X77171981Y-89815134D01*
X77309374Y-89773543D01*
X77478745Y-89723201D01*
X77674441Y-89665725D01*
X77890805Y-89602732D01*
X78122183Y-89535841D01*
X78362919Y-89466667D01*
X78607358Y-89396829D01*
X78849844Y-89327945D01*
X79084724Y-89261631D01*
X79306341Y-89199506D01*
X79509040Y-89143186D01*
X79687166Y-89094290D01*
X79835065Y-89054434D01*
X79947079Y-89025236D01*
X79995911Y-89013223D01*
X80144044Y-88987957D01*
X80300917Y-88977423D01*
X80300917Y-88699917D01*
X80259253Y-88700972D01*
X80122543Y-88713397D01*
X80055700Y-88724533D01*
X80005626Y-88736687D01*
X79912301Y-88761151D01*
X79781338Y-88796358D01*
X79618352Y-88840737D01*
X79428959Y-88892722D01*
X79218773Y-88950744D01*
X78993410Y-89013234D01*
X78758484Y-89078624D01*
X78519611Y-89145345D01*
X78282405Y-89211830D01*
X78052482Y-89276510D01*
X77835456Y-89337816D01*
X77636942Y-89394180D01*
X77462555Y-89444034D01*
X77317911Y-89485809D01*
X77208624Y-89517937D01*
X77140309Y-89538849D01*
X77139800Y-89539013D01*
X76854000Y-89651483D01*
X76599468Y-89793251D01*
X76379526Y-89961130D01*
X76197494Y-90151936D01*
X76056696Y-90362482D01*
X75960454Y-90589581D01*
X75932453Y-90696865D01*
X75899105Y-90934825D01*
X75901811Y-91155643D01*
G36*
X75965050Y-92901377D02*
X75998910Y-92892177D01*
X76078260Y-92870167D01*
X76199691Y-92836302D01*
X76359792Y-92791539D01*
X76555154Y-92736833D01*
X76782368Y-92673141D01*
X77038023Y-92601418D01*
X77318712Y-92522620D01*
X77621023Y-92437704D01*
X77941548Y-92347625D01*
X78276877Y-92253340D01*
X78466072Y-92200123D01*
X78806959Y-92104300D01*
X79134154Y-92012467D01*
X79444329Y-91925551D01*
X79734154Y-91844479D01*
X80000300Y-91770177D01*
X80239437Y-91703572D01*
X80448235Y-91645591D01*
X80623366Y-91597160D01*
X80761499Y-91559205D01*
X80859305Y-91532654D01*
X80913456Y-91518433D01*
X80923522Y-91516200D01*
X80931657Y-91540955D01*
X80938280Y-91615373D01*
X80943399Y-91739679D01*
X80947020Y-91914099D01*
X80949150Y-92138860D01*
X80949800Y-92395253D01*
X80949800Y-93274307D01*
X81016263Y-93257625D01*
X81094208Y-93239424D01*
X81155963Y-93226297D01*
X81229200Y-93211650D01*
X81229200Y-91139114D01*
X81057750Y-91187139D01*
X81009552Y-91200672D01*
X80916008Y-91226968D01*
X80780668Y-91265030D01*
X80607087Y-91313856D01*
X80398815Y-91372447D01*
X80159406Y-91439805D01*
X79892412Y-91514928D01*
X79601386Y-91596819D01*
X79289880Y-91684477D01*
X78961447Y-91776903D01*
X78619639Y-91873097D01*
X78401526Y-91934482D01*
X78057220Y-92031354D01*
X77726843Y-92124251D01*
X77413662Y-92212257D01*
X77120941Y-92294456D01*
X76851947Y-92369933D01*
X76609944Y-92437774D01*
X76398200Y-92497064D01*
X76219978Y-92546886D01*
X76078545Y-92586327D01*
X75977166Y-92614471D01*
X75919107Y-92630403D01*
X75905976Y-92633800D01*
X75900122Y-92656803D01*
X75896209Y-92716244D01*
X75895200Y-92776253D01*
X75895200Y-92918707D01*
X75965050Y-92901377D01*
X75965050Y-92901377D01*
G37*
X75965050Y-92901377D02*
X75998910Y-92892177D01*
X76078260Y-92870167D01*
X76199691Y-92836302D01*
X76359792Y-92791539D01*
X76555154Y-92736833D01*
X76782368Y-92673141D01*
X77038023Y-92601418D01*
X77318712Y-92522620D01*
X77621023Y-92437704D01*
X77941548Y-92347625D01*
X78276877Y-92253340D01*
X78466072Y-92200123D01*
X78806959Y-92104300D01*
X79134154Y-92012467D01*
X79444329Y-91925551D01*
X79734154Y-91844479D01*
X80000300Y-91770177D01*
X80239437Y-91703572D01*
X80448235Y-91645591D01*
X80623366Y-91597160D01*
X80761499Y-91559205D01*
X80859305Y-91532654D01*
X80913456Y-91518433D01*
X80923522Y-91516200D01*
X80931657Y-91540955D01*
X80938280Y-91615373D01*
X80943399Y-91739679D01*
X80947020Y-91914099D01*
X80949150Y-92138860D01*
X80949800Y-92395253D01*
X80949800Y-93274307D01*
X81016263Y-93257625D01*
X81094208Y-93239424D01*
X81155963Y-93226297D01*
X81229200Y-93211650D01*
X81229200Y-91139114D01*
X81057750Y-91187139D01*
X81009552Y-91200672D01*
X80916008Y-91226968D01*
X80780668Y-91265030D01*
X80607087Y-91313856D01*
X80398815Y-91372447D01*
X80159406Y-91439805D01*
X79892412Y-91514928D01*
X79601386Y-91596819D01*
X79289880Y-91684477D01*
X78961447Y-91776903D01*
X78619639Y-91873097D01*
X78401526Y-91934482D01*
X78057220Y-92031354D01*
X77726843Y-92124251D01*
X77413662Y-92212257D01*
X77120941Y-92294456D01*
X76851947Y-92369933D01*
X76609944Y-92437774D01*
X76398200Y-92497064D01*
X76219978Y-92546886D01*
X76078545Y-92586327D01*
X75977166Y-92614471D01*
X75919107Y-92630403D01*
X75905976Y-92633800D01*
X75900122Y-92656803D01*
X75896209Y-92716244D01*
X75895200Y-92776253D01*
X75895200Y-92918707D01*
X75965050Y-92901377D01*
G36*
X75896436Y-95323668D02*
X75904268Y-95362093D01*
X75925385Y-95372170D01*
X75965049Y-95365407D01*
X75998612Y-95356507D01*
X76077775Y-95334747D01*
X76199243Y-95301049D01*
X76359721Y-95256337D01*
X76555916Y-95201533D01*
X76784531Y-95137559D01*
X77042273Y-95065338D01*
X77325846Y-94985792D01*
X77631956Y-94899845D01*
X77957309Y-94808418D01*
X78298609Y-94712434D01*
X78625700Y-94620379D01*
X81216500Y-93890981D01*
X81224177Y-93757690D01*
X81224968Y-93683158D01*
X81218776Y-93634471D01*
X81211477Y-93623708D01*
X81184773Y-93630347D01*
X81112346Y-93649860D01*
X80997374Y-93681365D01*
X80843036Y-93723975D01*
X80652508Y-93776805D01*
X80428970Y-93838971D01*
X80175598Y-93909589D01*
X79895572Y-93987772D01*
X79592068Y-94072636D01*
X79268265Y-94163296D01*
X78927342Y-94258868D01*
X78572475Y-94358466D01*
X78543304Y-94366658D01*
X75895509Y-95110300D01*
X75895354Y-95245668D01*
X75896436Y-95323668D01*
X75896436Y-95323668D01*
G37*
X75896436Y-95323668D02*
X75904268Y-95362093D01*
X75925385Y-95372170D01*
X75965049Y-95365407D01*
X75998612Y-95356507D01*
X76077775Y-95334747D01*
X76199243Y-95301049D01*
X76359721Y-95256337D01*
X76555916Y-95201533D01*
X76784531Y-95137559D01*
X77042273Y-95065338D01*
X77325846Y-94985792D01*
X77631956Y-94899845D01*
X77957309Y-94808418D01*
X78298609Y-94712434D01*
X78625700Y-94620379D01*
X81216500Y-93890981D01*
X81224177Y-93757690D01*
X81224968Y-93683158D01*
X81218776Y-93634471D01*
X81211477Y-93623708D01*
X81184773Y-93630347D01*
X81112346Y-93649860D01*
X80997374Y-93681365D01*
X80843036Y-93723975D01*
X80652508Y-93776805D01*
X80428970Y-93838971D01*
X80175598Y-93909589D01*
X79895572Y-93987772D01*
X79592068Y-94072636D01*
X79268265Y-94163296D01*
X78927342Y-94258868D01*
X78572475Y-94358466D01*
X78543304Y-94366658D01*
X75895509Y-95110300D01*
X75895354Y-95245668D01*
X75896436Y-95323668D01*
G36*
X75895733Y-98040172D02*
X75899622Y-98108937D01*
X75906827Y-98158077D01*
X75914250Y-98171501D01*
X75940773Y-98164839D01*
X76013023Y-98145307D01*
X76127822Y-98113788D01*
X76281996Y-98071169D01*
X76472368Y-98018333D01*
X76695761Y-97956166D01*
X76949000Y-97885553D01*
X77228908Y-97807378D01*
X77532311Y-97722526D01*
X77856030Y-97631883D01*
X78196891Y-97536333D01*
X78551718Y-97436760D01*
X78580954Y-97428551D01*
X81228608Y-96685100D01*
X81228904Y-96564450D01*
X81223823Y-96484334D01*
X81206870Y-96447743D01*
X81194204Y-96443800D01*
X81164254Y-96440773D01*
X81087595Y-96431993D01*
X80967938Y-96417907D01*
X80808994Y-96398962D01*
X80614474Y-96375605D01*
X80388090Y-96348286D01*
X80133552Y-96317450D01*
X79854572Y-96283546D01*
X79554860Y-96247022D01*
X79238128Y-96208325D01*
X78983108Y-96177100D01*
X78655852Y-96137017D01*
X78342829Y-96098729D01*
X78047740Y-96062683D01*
X77774286Y-96029330D01*
X77526167Y-95999121D01*
X77307086Y-95972504D01*
X77120742Y-95949929D01*
X76970838Y-95931846D01*
X76861073Y-95918705D01*
X76795149Y-95910956D01*
X76776553Y-95908944D01*
X76795930Y-95902021D01*
X76860852Y-95882325D01*
X76967957Y-95850819D01*
X77113883Y-95808467D01*
X77295266Y-95756231D01*
X77508745Y-95695074D01*
X77750957Y-95625959D01*
X78018540Y-95549850D01*
X78308131Y-95467708D01*
X78616368Y-95380499D01*
X78939888Y-95289183D01*
X78981300Y-95277510D01*
X81216500Y-94647531D01*
X81224181Y-94502131D01*
X81226859Y-94420571D01*
X81221752Y-94379050D01*
X81205807Y-94367030D01*
X81186081Y-94370670D01*
X81155783Y-94379327D01*
X81079866Y-94400791D01*
X80961620Y-94434135D01*
X80804335Y-94478434D01*
X80611303Y-94532763D01*
X80385811Y-94596197D01*
X80131152Y-94667809D01*
X79850614Y-94746676D01*
X79547489Y-94831870D01*
X79225065Y-94922467D01*
X78886634Y-95017541D01*
X78600300Y-95097965D01*
X78250281Y-95196296D01*
X77912940Y-95291120D01*
X77591634Y-95381492D01*
X77289718Y-95466464D01*
X77010547Y-95545091D01*
X76757477Y-95616426D01*
X76533863Y-95679524D01*
X76343062Y-95733437D01*
X76188428Y-95777221D01*
X76073317Y-95809927D01*
X76001086Y-95830611D01*
X75976456Y-95837858D01*
X75925470Y-95857400D01*
X75902225Y-95884312D01*
X75897797Y-95935421D01*
X75900256Y-95981567D01*
X75907900Y-96098740D01*
X78123949Y-96365566D01*
X78452631Y-96405376D01*
X78765884Y-96443774D01*
X79060175Y-96480299D01*
X79331969Y-96514494D01*
X79577731Y-96545897D01*
X79793926Y-96574048D01*
X79977020Y-96598489D01*
X80123478Y-96618758D01*
X80229766Y-96634398D01*
X80292349Y-96644946D01*
X80308349Y-96649728D01*
X80280782Y-96658486D01*
X80208613Y-96679743D01*
X80096087Y-96712300D01*
X79947449Y-96754959D01*
X79766944Y-96806524D01*
X79558817Y-96865794D01*
X79327313Y-96931573D01*
X79076678Y-97002663D01*
X78811156Y-97077865D01*
X78534993Y-97155981D01*
X78252433Y-97235814D01*
X77967721Y-97316165D01*
X77685104Y-97395836D01*
X77408825Y-97473630D01*
X77143130Y-97548347D01*
X76892264Y-97618791D01*
X76660472Y-97683763D01*
X76452000Y-97742065D01*
X76271091Y-97792500D01*
X76121992Y-97833868D01*
X76008947Y-97864972D01*
X75936202Y-97884615D01*
X75908001Y-97891597D01*
X75907927Y-97891600D01*
X75899489Y-97913957D01*
X75895557Y-97969330D01*
X75895733Y-98040172D01*
X75895733Y-98040172D01*
G37*
X75895733Y-98040172D02*
X75899622Y-98108937D01*
X75906827Y-98158077D01*
X75914250Y-98171501D01*
X75940773Y-98164839D01*
X76013023Y-98145307D01*
X76127822Y-98113788D01*
X76281996Y-98071169D01*
X76472368Y-98018333D01*
X76695761Y-97956166D01*
X76949000Y-97885553D01*
X77228908Y-97807378D01*
X77532311Y-97722526D01*
X77856030Y-97631883D01*
X78196891Y-97536333D01*
X78551718Y-97436760D01*
X78580954Y-97428551D01*
X81228608Y-96685100D01*
X81228904Y-96564450D01*
X81223823Y-96484334D01*
X81206870Y-96447743D01*
X81194204Y-96443800D01*
X81164254Y-96440773D01*
X81087595Y-96431993D01*
X80967938Y-96417907D01*
X80808994Y-96398962D01*
X80614474Y-96375605D01*
X80388090Y-96348286D01*
X80133552Y-96317450D01*
X79854572Y-96283546D01*
X79554860Y-96247022D01*
X79238128Y-96208325D01*
X78983108Y-96177100D01*
X78655852Y-96137017D01*
X78342829Y-96098729D01*
X78047740Y-96062683D01*
X77774286Y-96029330D01*
X77526167Y-95999121D01*
X77307086Y-95972504D01*
X77120742Y-95949929D01*
X76970838Y-95931846D01*
X76861073Y-95918705D01*
X76795149Y-95910956D01*
X76776553Y-95908944D01*
X76795930Y-95902021D01*
X76860852Y-95882325D01*
X76967957Y-95850819D01*
X77113883Y-95808467D01*
X77295266Y-95756231D01*
X77508745Y-95695074D01*
X77750957Y-95625959D01*
X78018540Y-95549850D01*
X78308131Y-95467708D01*
X78616368Y-95380499D01*
X78939888Y-95289183D01*
X78981300Y-95277510D01*
X81216500Y-94647531D01*
X81224181Y-94502131D01*
X81226859Y-94420571D01*
X81221752Y-94379050D01*
X81205807Y-94367030D01*
X81186081Y-94370670D01*
X81155783Y-94379327D01*
X81079866Y-94400791D01*
X80961620Y-94434135D01*
X80804335Y-94478434D01*
X80611303Y-94532763D01*
X80385811Y-94596197D01*
X80131152Y-94667809D01*
X79850614Y-94746676D01*
X79547489Y-94831870D01*
X79225065Y-94922467D01*
X78886634Y-95017541D01*
X78600300Y-95097965D01*
X78250281Y-95196296D01*
X77912940Y-95291120D01*
X77591634Y-95381492D01*
X77289718Y-95466464D01*
X77010547Y-95545091D01*
X76757477Y-95616426D01*
X76533863Y-95679524D01*
X76343062Y-95733437D01*
X76188428Y-95777221D01*
X76073317Y-95809927D01*
X76001086Y-95830611D01*
X75976456Y-95837858D01*
X75925470Y-95857400D01*
X75902225Y-95884312D01*
X75897797Y-95935421D01*
X75900256Y-95981567D01*
X75907900Y-96098740D01*
X78123949Y-96365566D01*
X78452631Y-96405376D01*
X78765884Y-96443774D01*
X79060175Y-96480299D01*
X79331969Y-96514494D01*
X79577731Y-96545897D01*
X79793926Y-96574048D01*
X79977020Y-96598489D01*
X80123478Y-96618758D01*
X80229766Y-96634398D01*
X80292349Y-96644946D01*
X80308349Y-96649728D01*
X80280782Y-96658486D01*
X80208613Y-96679743D01*
X80096087Y-96712300D01*
X79947449Y-96754959D01*
X79766944Y-96806524D01*
X79558817Y-96865794D01*
X79327313Y-96931573D01*
X79076678Y-97002663D01*
X78811156Y-97077865D01*
X78534993Y-97155981D01*
X78252433Y-97235814D01*
X77967721Y-97316165D01*
X77685104Y-97395836D01*
X77408825Y-97473630D01*
X77143130Y-97548347D01*
X76892264Y-97618791D01*
X76660472Y-97683763D01*
X76452000Y-97742065D01*
X76271091Y-97792500D01*
X76121992Y-97833868D01*
X76008947Y-97864972D01*
X75936202Y-97884615D01*
X75908001Y-97891597D01*
X75907927Y-97891600D01*
X75899489Y-97913957D01*
X75895557Y-97969330D01*
X75895733Y-98040172D01*
G36*
X75895684Y-101538110D02*
X75897063Y-101736824D01*
X75899229Y-101913191D01*
X75902071Y-102061694D01*
X75905482Y-102176811D01*
X75909351Y-102253026D01*
X75913569Y-102284817D01*
X75914250Y-102285414D01*
X75948136Y-102278444D01*
X76012072Y-102261240D01*
X76047600Y-102250875D01*
X76161900Y-102216721D01*
X76174600Y-101383601D01*
X76187300Y-100550480D01*
X77292200Y-100238007D01*
X77520131Y-100173641D01*
X77733028Y-100113704D01*
X77925915Y-100059583D01*
X78093812Y-100012666D01*
X78231743Y-99974343D01*
X78334729Y-99946000D01*
X78397794Y-99929026D01*
X78416150Y-99924566D01*
X78420740Y-99948733D01*
X78424932Y-100017745D01*
X78428590Y-100125649D01*
X78431574Y-100266490D01*
X78433748Y-100434316D01*
X78434975Y-100623172D01*
X78435200Y-100749583D01*
X78435200Y-101575567D01*
X78505050Y-101558664D01*
X78580416Y-101537749D01*
X78632050Y-101520709D01*
X78689200Y-101499657D01*
X78689200Y-99849551D01*
X78860650Y-99799022D01*
X78924660Y-99780512D01*
X79030814Y-99750238D01*
X79172331Y-99710115D01*
X79342431Y-99662059D01*
X79534334Y-99607985D01*
X79741259Y-99549809D01*
X79946500Y-99492229D01*
X80154789Y-99433828D01*
X80348784Y-99379383D01*
X80522777Y-99330500D01*
X80671060Y-99288785D01*
X80787924Y-99255844D01*
X80867661Y-99233282D01*
X80904562Y-99222707D01*
X80905350Y-99222470D01*
X80917544Y-99221409D01*
X80927286Y-99229768D01*
X80934849Y-99252560D01*
X80940507Y-99294795D01*
X80944532Y-99361483D01*
X80947200Y-99457635D01*
X80948783Y-99588262D01*
X80949556Y-99758375D01*
X80949792Y-99972984D01*
X80949800Y-100036188D01*
X80950362Y-100235374D01*
X80951956Y-100417293D01*
X80954446Y-100575991D01*
X80957694Y-100705513D01*
X80961563Y-100799904D01*
X80965916Y-100853208D01*
X80968850Y-100863014D01*
X81002735Y-100856043D01*
X81066670Y-100838835D01*
X81102200Y-100828466D01*
X81216500Y-100794304D01*
X81223153Y-99823744D01*
X81224742Y-99576076D01*
X81225652Y-99374561D01*
X81225699Y-99214553D01*
X81224698Y-99091407D01*
X81222462Y-99000477D01*
X81218809Y-98937120D01*
X81213552Y-98896688D01*
X81206507Y-98874538D01*
X81197488Y-98866023D01*
X81186311Y-98866500D01*
X81185053Y-98866867D01*
X81154898Y-98875489D01*
X81079122Y-98896915D01*
X80961014Y-98930221D01*
X80803861Y-98974483D01*
X80610953Y-99028775D01*
X80385577Y-99092172D01*
X80131022Y-99163751D01*
X79850577Y-99242585D01*
X79547530Y-99327749D01*
X79225169Y-99418320D01*
X78886782Y-99513373D01*
X78600300Y-99593829D01*
X78250311Y-99692140D01*
X77913024Y-99786937D01*
X77591790Y-99877276D01*
X77289963Y-99962211D01*
X77010897Y-100040795D01*
X76757946Y-100112085D01*
X76534461Y-100175134D01*
X76343798Y-100228997D01*
X76189309Y-100272728D01*
X76074347Y-100305383D01*
X76002267Y-100326015D01*
X75977750Y-100333223D01*
X75895200Y-100359339D01*
X75895200Y-101322569D01*
X75895684Y-101538110D01*
X75895684Y-101538110D01*
G37*
X75895684Y-101538110D02*
X75897063Y-101736824D01*
X75899229Y-101913191D01*
X75902071Y-102061694D01*
X75905482Y-102176811D01*
X75909351Y-102253026D01*
X75913569Y-102284817D01*
X75914250Y-102285414D01*
X75948136Y-102278444D01*
X76012072Y-102261240D01*
X76047600Y-102250875D01*
X76161900Y-102216721D01*
X76174600Y-101383601D01*
X76187300Y-100550480D01*
X77292200Y-100238007D01*
X77520131Y-100173641D01*
X77733028Y-100113704D01*
X77925915Y-100059583D01*
X78093812Y-100012666D01*
X78231743Y-99974343D01*
X78334729Y-99946000D01*
X78397794Y-99929026D01*
X78416150Y-99924566D01*
X78420740Y-99948733D01*
X78424932Y-100017745D01*
X78428590Y-100125649D01*
X78431574Y-100266490D01*
X78433748Y-100434316D01*
X78434975Y-100623172D01*
X78435200Y-100749583D01*
X78435200Y-101575567D01*
X78505050Y-101558664D01*
X78580416Y-101537749D01*
X78632050Y-101520709D01*
X78689200Y-101499657D01*
X78689200Y-99849551D01*
X78860650Y-99799022D01*
X78924660Y-99780512D01*
X79030814Y-99750238D01*
X79172331Y-99710115D01*
X79342431Y-99662059D01*
X79534334Y-99607985D01*
X79741259Y-99549809D01*
X79946500Y-99492229D01*
X80154789Y-99433828D01*
X80348784Y-99379383D01*
X80522777Y-99330500D01*
X80671060Y-99288785D01*
X80787924Y-99255844D01*
X80867661Y-99233282D01*
X80904562Y-99222707D01*
X80905350Y-99222470D01*
X80917544Y-99221409D01*
X80927286Y-99229768D01*
X80934849Y-99252560D01*
X80940507Y-99294795D01*
X80944532Y-99361483D01*
X80947200Y-99457635D01*
X80948783Y-99588262D01*
X80949556Y-99758375D01*
X80949792Y-99972984D01*
X80949800Y-100036188D01*
X80950362Y-100235374D01*
X80951956Y-100417293D01*
X80954446Y-100575991D01*
X80957694Y-100705513D01*
X80961563Y-100799904D01*
X80965916Y-100853208D01*
X80968850Y-100863014D01*
X81002735Y-100856043D01*
X81066670Y-100838835D01*
X81102200Y-100828466D01*
X81216500Y-100794304D01*
X81223153Y-99823744D01*
X81224742Y-99576076D01*
X81225652Y-99374561D01*
X81225699Y-99214553D01*
X81224698Y-99091407D01*
X81222462Y-99000477D01*
X81218809Y-98937120D01*
X81213552Y-98896688D01*
X81206507Y-98874538D01*
X81197488Y-98866023D01*
X81186311Y-98866500D01*
X81185053Y-98866867D01*
X81154898Y-98875489D01*
X81079122Y-98896915D01*
X80961014Y-98930221D01*
X80803861Y-98974483D01*
X80610953Y-99028775D01*
X80385577Y-99092172D01*
X80131022Y-99163751D01*
X79850577Y-99242585D01*
X79547530Y-99327749D01*
X79225169Y-99418320D01*
X78886782Y-99513373D01*
X78600300Y-99593829D01*
X78250311Y-99692140D01*
X77913024Y-99786937D01*
X77591790Y-99877276D01*
X77289963Y-99962211D01*
X77010897Y-100040795D01*
X76757946Y-100112085D01*
X76534461Y-100175134D01*
X76343798Y-100228997D01*
X76189309Y-100272728D01*
X76074347Y-100305383D01*
X76002267Y-100326015D01*
X75977750Y-100333223D01*
X75895200Y-100359339D01*
X75895200Y-101322569D01*
X75895684Y-101538110D01*
G36*
X75898365Y-102909403D02*
X75906522Y-102959152D01*
X75914250Y-102970735D01*
X75940826Y-102963868D01*
X76013026Y-102944118D01*
X76127579Y-102912400D01*
X76281220Y-102869630D01*
X76470679Y-102816723D01*
X76692689Y-102754594D01*
X76943981Y-102684158D01*
X77221289Y-102606330D01*
X77521344Y-102522025D01*
X77840877Y-102432158D01*
X78176622Y-102337646D01*
X78435200Y-102264799D01*
X80937100Y-101559726D01*
X80950454Y-103331092D01*
X81032677Y-103313210D01*
X81109909Y-103293581D01*
X81172050Y-103273792D01*
X81229200Y-103252257D01*
X81229200Y-102221217D01*
X81229094Y-101965149D01*
X81228645Y-101755375D01*
X81227656Y-101587390D01*
X81225931Y-101456689D01*
X81223272Y-101358765D01*
X81219483Y-101289112D01*
X81214366Y-101243227D01*
X81207724Y-101216602D01*
X81199362Y-101204732D01*
X81189081Y-101203113D01*
X81184750Y-101204210D01*
X81154682Y-101212875D01*
X81078971Y-101234367D01*
X80960879Y-101267768D01*
X80803669Y-101312158D01*
X80610602Y-101366618D01*
X80384939Y-101430228D01*
X80129944Y-101502070D01*
X79848877Y-101581224D01*
X79545002Y-101666771D01*
X79221578Y-101757792D01*
X78881870Y-101853367D01*
X78562200Y-101943279D01*
X78210536Y-102042187D01*
X77872197Y-102137369D01*
X77550445Y-102227906D01*
X77248541Y-102312877D01*
X76969748Y-102391366D01*
X76717328Y-102462453D01*
X76494542Y-102525220D01*
X76304651Y-102578746D01*
X76150919Y-102622115D01*
X76036607Y-102654407D01*
X75964976Y-102674703D01*
X75939650Y-102681969D01*
X75912746Y-102701392D01*
X75899119Y-102746434D01*
X75895205Y-102829259D01*
X75895200Y-102833611D01*
X75898365Y-102909403D01*
X75898365Y-102909403D01*
G37*
X75898365Y-102909403D02*
X75906522Y-102959152D01*
X75914250Y-102970735D01*
X75940826Y-102963868D01*
X76013026Y-102944118D01*
X76127579Y-102912400D01*
X76281220Y-102869630D01*
X76470679Y-102816723D01*
X76692689Y-102754594D01*
X76943981Y-102684158D01*
X77221289Y-102606330D01*
X77521344Y-102522025D01*
X77840877Y-102432158D01*
X78176622Y-102337646D01*
X78435200Y-102264799D01*
X80937100Y-101559726D01*
X80950454Y-103331092D01*
X81032677Y-103313210D01*
X81109909Y-103293581D01*
X81172050Y-103273792D01*
X81229200Y-103252257D01*
X81229200Y-102221217D01*
X81229094Y-101965149D01*
X81228645Y-101755375D01*
X81227656Y-101587390D01*
X81225931Y-101456689D01*
X81223272Y-101358765D01*
X81219483Y-101289112D01*
X81214366Y-101243227D01*
X81207724Y-101216602D01*
X81199362Y-101204732D01*
X81189081Y-101203113D01*
X81184750Y-101204210D01*
X81154682Y-101212875D01*
X81078971Y-101234367D01*
X80960879Y-101267768D01*
X80803669Y-101312158D01*
X80610602Y-101366618D01*
X80384939Y-101430228D01*
X80129944Y-101502070D01*
X79848877Y-101581224D01*
X79545002Y-101666771D01*
X79221578Y-101757792D01*
X78881870Y-101853367D01*
X78562200Y-101943279D01*
X78210536Y-102042187D01*
X77872197Y-102137369D01*
X77550445Y-102227906D01*
X77248541Y-102312877D01*
X76969748Y-102391366D01*
X76717328Y-102462453D01*
X76494542Y-102525220D01*
X76304651Y-102578746D01*
X76150919Y-102622115D01*
X76036607Y-102654407D01*
X75964976Y-102674703D01*
X75939650Y-102681969D01*
X75912746Y-102701392D01*
X75899119Y-102746434D01*
X75895205Y-102829259D01*
X75895200Y-102833611D01*
X75898365Y-102909403D01*
G36*
X75895809Y-106303725D02*
X75897659Y-106533485D01*
X75900782Y-106714801D01*
X75905211Y-106848841D01*
X75910979Y-106936776D01*
X75918118Y-106979776D01*
X75922052Y-106984800D01*
X75961443Y-106978971D01*
X76029343Y-106964278D01*
X76061752Y-106956384D01*
X76174599Y-106927969D01*
X76174600Y-106093268D01*
X76174600Y-105258567D01*
X76244450Y-105241095D01*
X76283206Y-105230640D01*
X76365417Y-105207900D01*
X76485650Y-105174397D01*
X76638470Y-105131652D01*
X76818446Y-105081185D01*
X77020143Y-105024518D01*
X77238128Y-104963172D01*
X77368400Y-104926464D01*
X78422500Y-104629305D01*
X78429197Y-105451452D01*
X78431829Y-105699939D01*
X78435343Y-105900201D01*
X78439850Y-106054809D01*
X78445458Y-106166333D01*
X78452279Y-106237342D01*
X78460421Y-106270407D01*
X78464350Y-106273600D01*
X78505457Y-106266740D01*
X78572035Y-106249710D01*
X78591003Y-106244179D01*
X78689200Y-106214758D01*
X78689200Y-104554342D01*
X79216250Y-104406162D01*
X79406776Y-104352588D01*
X79628890Y-104290120D01*
X79865283Y-104223626D01*
X80098643Y-104157976D01*
X80311658Y-104098039D01*
X80340200Y-104090007D01*
X80937100Y-103922032D01*
X80943797Y-104742216D01*
X80946747Y-105004649D01*
X80950901Y-105216450D01*
X80956266Y-105377771D01*
X80962848Y-105488766D01*
X80970654Y-105549588D01*
X80976999Y-105562400D01*
X81016161Y-105556575D01*
X81083906Y-105541890D01*
X81116352Y-105533984D01*
X81229200Y-105505569D01*
X81229200Y-104543384D01*
X81228845Y-104285539D01*
X81227700Y-104074660D01*
X81225637Y-103906918D01*
X81222532Y-103778484D01*
X81218260Y-103685528D01*
X81212696Y-103624221D01*
X81205714Y-103590734D01*
X81197748Y-103581200D01*
X81169529Y-103587946D01*
X81095619Y-103607592D01*
X80979221Y-103639246D01*
X80823538Y-103682020D01*
X80631772Y-103735023D01*
X80407126Y-103797363D01*
X80152803Y-103868153D01*
X79872003Y-103946500D01*
X79567931Y-104031516D01*
X79243789Y-104122309D01*
X78902779Y-104217989D01*
X78548103Y-104317667D01*
X78530748Y-104322549D01*
X75895200Y-105063898D01*
X75895200Y-106024349D01*
X75895809Y-106303725D01*
X75895809Y-106303725D01*
G37*
X75895809Y-106303725D02*
X75897659Y-106533485D01*
X75900782Y-106714801D01*
X75905211Y-106848841D01*
X75910979Y-106936776D01*
X75918118Y-106979776D01*
X75922052Y-106984800D01*
X75961443Y-106978971D01*
X76029343Y-106964278D01*
X76061752Y-106956384D01*
X76174599Y-106927969D01*
X76174600Y-106093268D01*
X76174600Y-105258567D01*
X76244450Y-105241095D01*
X76283206Y-105230640D01*
X76365417Y-105207900D01*
X76485650Y-105174397D01*
X76638470Y-105131652D01*
X76818446Y-105081185D01*
X77020143Y-105024518D01*
X77238128Y-104963172D01*
X77368400Y-104926464D01*
X78422500Y-104629305D01*
X78429197Y-105451452D01*
X78431829Y-105699939D01*
X78435343Y-105900201D01*
X78439850Y-106054809D01*
X78445458Y-106166333D01*
X78452279Y-106237342D01*
X78460421Y-106270407D01*
X78464350Y-106273600D01*
X78505457Y-106266740D01*
X78572035Y-106249710D01*
X78591003Y-106244179D01*
X78689200Y-106214758D01*
X78689200Y-104554342D01*
X79216250Y-104406162D01*
X79406776Y-104352588D01*
X79628890Y-104290120D01*
X79865283Y-104223626D01*
X80098643Y-104157976D01*
X80311658Y-104098039D01*
X80340200Y-104090007D01*
X80937100Y-103922032D01*
X80943797Y-104742216D01*
X80946747Y-105004649D01*
X80950901Y-105216450D01*
X80956266Y-105377771D01*
X80962848Y-105488766D01*
X80970654Y-105549588D01*
X80976999Y-105562400D01*
X81016161Y-105556575D01*
X81083906Y-105541890D01*
X81116352Y-105533984D01*
X81229200Y-105505569D01*
X81229200Y-104543384D01*
X81228845Y-104285539D01*
X81227700Y-104074660D01*
X81225637Y-103906918D01*
X81222532Y-103778484D01*
X81218260Y-103685528D01*
X81212696Y-103624221D01*
X81205714Y-103590734D01*
X81197748Y-103581200D01*
X81169529Y-103587946D01*
X81095619Y-103607592D01*
X80979221Y-103639246D01*
X80823538Y-103682020D01*
X80631772Y-103735023D01*
X80407126Y-103797363D01*
X80152803Y-103868153D01*
X79872003Y-103946500D01*
X79567931Y-104031516D01*
X79243789Y-104122309D01*
X78902779Y-104217989D01*
X78548103Y-104317667D01*
X78530748Y-104322549D01*
X75895200Y-105063898D01*
X75895200Y-106024349D01*
X75895809Y-106303725D01*
G36*
X75909181Y-108704024D02*
X75912466Y-108797924D01*
X75921137Y-108868037D01*
X75937519Y-108927868D01*
X75963935Y-108990920D01*
X75990284Y-109045515D01*
X76088567Y-109195256D01*
X76217979Y-109307560D01*
X76379238Y-109382582D01*
X76573060Y-109420479D01*
X76800164Y-109421405D01*
X77061267Y-109385518D01*
X77298550Y-109329467D01*
X77444600Y-109289505D01*
X77444600Y-109153152D01*
X77442106Y-109077679D01*
X77435687Y-109028163D01*
X77429781Y-109016800D01*
X77399783Y-109022586D01*
X77333497Y-109037934D01*
X77243853Y-109059822D01*
X77220231Y-109065730D01*
X76988946Y-109115047D01*
X76795030Y-109136172D01*
X76633269Y-109128607D01*
X76498446Y-109091857D01*
X76385345Y-109025424D01*
X76335921Y-108981532D01*
X76260086Y-108890804D01*
X76210519Y-108791040D01*
X76184100Y-108671031D01*
X76177710Y-108519566D01*
X76181217Y-108425565D01*
X76191945Y-108297240D01*
X76210690Y-108198332D01*
X76242511Y-108107543D01*
X76271730Y-108044565D01*
X76388874Y-107862748D01*
X76550658Y-107697967D01*
X76752754Y-107553726D01*
X76990837Y-107433528D01*
X77060446Y-107405759D01*
X77117136Y-107386745D01*
X77217109Y-107355856D01*
X77354670Y-107314703D01*
X77524124Y-107264897D01*
X77719777Y-107208050D01*
X77935935Y-107145774D01*
X78166903Y-107079680D01*
X78406986Y-107011378D01*
X78650490Y-106942482D01*
X78891721Y-106874602D01*
X79124984Y-106809350D01*
X79344585Y-106748337D01*
X79544829Y-106693174D01*
X79720021Y-106645474D01*
X79864467Y-106606848D01*
X79972473Y-106578906D01*
X80035400Y-106563885D01*
X80152659Y-106544208D01*
X80278826Y-106531222D01*
X80352900Y-106528182D01*
X80540349Y-106543762D01*
X80690540Y-106592415D01*
X80805024Y-106675791D01*
X80885353Y-106795541D01*
X80933078Y-106953315D01*
X80949752Y-107150765D01*
X80949800Y-107163148D01*
X80927751Y-107393009D01*
X80861299Y-107600841D01*
X80749982Y-107787149D01*
X80593341Y-107952440D01*
X80390915Y-108097221D01*
X80142243Y-108221996D01*
X79908400Y-108308171D01*
X79692500Y-108377492D01*
X79684882Y-108519346D01*
X79682630Y-108596459D01*
X79684743Y-108647978D01*
X79688941Y-108661200D01*
X79716553Y-108653824D01*
X79781429Y-108633969D01*
X79872583Y-108605047D01*
X79937859Y-108583933D01*
X80256775Y-108461143D01*
X80530459Y-108315241D01*
X80758909Y-108146231D01*
X80942121Y-107954114D01*
X81080095Y-107738893D01*
X81172827Y-107500571D01*
X81220316Y-107239150D01*
X81227110Y-107073700D01*
X81222368Y-106958353D01*
X81211152Y-106845950D01*
X81195813Y-106759570D01*
X81194605Y-106754944D01*
X81124037Y-106578029D01*
X81017479Y-106436930D01*
X80875059Y-106331787D01*
X80770255Y-106285233D01*
X80664832Y-106261140D01*
X80524975Y-106248241D01*
X80365809Y-106246586D01*
X80202462Y-106256222D01*
X80050061Y-106277199D01*
X80021892Y-106282830D01*
X79964684Y-106296718D01*
X79864411Y-106322954D01*
X79726850Y-106359921D01*
X79557779Y-106405997D01*
X79362974Y-106459563D01*
X79148213Y-106519001D01*
X78919274Y-106582690D01*
X78681932Y-106649011D01*
X78441966Y-106716344D01*
X78205152Y-106783070D01*
X77977268Y-106847570D01*
X77764091Y-106908224D01*
X77571397Y-106963413D01*
X77404964Y-107011516D01*
X77270569Y-107050915D01*
X77173990Y-107079990D01*
X77139800Y-107090761D01*
X76841460Y-107208023D01*
X76579978Y-107353328D01*
X76357536Y-107524813D01*
X76176315Y-107720618D01*
X76038496Y-107938879D01*
X75975963Y-108084213D01*
X75946321Y-108173632D01*
X75926909Y-108255048D01*
X75915611Y-108343899D01*
X75910309Y-108455623D01*
X75908959Y-108572834D01*
X75909181Y-108704024D01*
X75909181Y-108704024D01*
G37*
X75909181Y-108704024D02*
X75912466Y-108797924D01*
X75921137Y-108868037D01*
X75937519Y-108927868D01*
X75963935Y-108990920D01*
X75990284Y-109045515D01*
X76088567Y-109195256D01*
X76217979Y-109307560D01*
X76379238Y-109382582D01*
X76573060Y-109420479D01*
X76800164Y-109421405D01*
X77061267Y-109385518D01*
X77298550Y-109329467D01*
X77444600Y-109289505D01*
X77444600Y-109153152D01*
X77442106Y-109077679D01*
X77435687Y-109028163D01*
X77429781Y-109016800D01*
X77399783Y-109022586D01*
X77333497Y-109037934D01*
X77243853Y-109059822D01*
X77220231Y-109065730D01*
X76988946Y-109115047D01*
X76795030Y-109136172D01*
X76633269Y-109128607D01*
X76498446Y-109091857D01*
X76385345Y-109025424D01*
X76335921Y-108981532D01*
X76260086Y-108890804D01*
X76210519Y-108791040D01*
X76184100Y-108671031D01*
X76177710Y-108519566D01*
X76181217Y-108425565D01*
X76191945Y-108297240D01*
X76210690Y-108198332D01*
X76242511Y-108107543D01*
X76271730Y-108044565D01*
X76388874Y-107862748D01*
X76550658Y-107697967D01*
X76752754Y-107553726D01*
X76990837Y-107433528D01*
X77060446Y-107405759D01*
X77117136Y-107386745D01*
X77217109Y-107355856D01*
X77354670Y-107314703D01*
X77524124Y-107264897D01*
X77719777Y-107208050D01*
X77935935Y-107145774D01*
X78166903Y-107079680D01*
X78406986Y-107011378D01*
X78650490Y-106942482D01*
X78891721Y-106874602D01*
X79124984Y-106809350D01*
X79344585Y-106748337D01*
X79544829Y-106693174D01*
X79720021Y-106645474D01*
X79864467Y-106606848D01*
X79972473Y-106578906D01*
X80035400Y-106563885D01*
X80152659Y-106544208D01*
X80278826Y-106531222D01*
X80352900Y-106528182D01*
X80540349Y-106543762D01*
X80690540Y-106592415D01*
X80805024Y-106675791D01*
X80885353Y-106795541D01*
X80933078Y-106953315D01*
X80949752Y-107150765D01*
X80949800Y-107163148D01*
X80927751Y-107393009D01*
X80861299Y-107600841D01*
X80749982Y-107787149D01*
X80593341Y-107952440D01*
X80390915Y-108097221D01*
X80142243Y-108221996D01*
X79908400Y-108308171D01*
X79692500Y-108377492D01*
X79684882Y-108519346D01*
X79682630Y-108596459D01*
X79684743Y-108647978D01*
X79688941Y-108661200D01*
X79716553Y-108653824D01*
X79781429Y-108633969D01*
X79872583Y-108605047D01*
X79937859Y-108583933D01*
X80256775Y-108461143D01*
X80530459Y-108315241D01*
X80758909Y-108146231D01*
X80942121Y-107954114D01*
X81080095Y-107738893D01*
X81172827Y-107500571D01*
X81220316Y-107239150D01*
X81227110Y-107073700D01*
X81222368Y-106958353D01*
X81211152Y-106845950D01*
X81195813Y-106759570D01*
X81194605Y-106754944D01*
X81124037Y-106578029D01*
X81017479Y-106436930D01*
X80875059Y-106331787D01*
X80770255Y-106285233D01*
X80664832Y-106261140D01*
X80524975Y-106248241D01*
X80365809Y-106246586D01*
X80202462Y-106256222D01*
X80050061Y-106277199D01*
X80021892Y-106282830D01*
X79964684Y-106296718D01*
X79864411Y-106322954D01*
X79726850Y-106359921D01*
X79557779Y-106405997D01*
X79362974Y-106459563D01*
X79148213Y-106519001D01*
X78919274Y-106582690D01*
X78681932Y-106649011D01*
X78441966Y-106716344D01*
X78205152Y-106783070D01*
X77977268Y-106847570D01*
X77764091Y-106908224D01*
X77571397Y-106963413D01*
X77404964Y-107011516D01*
X77270569Y-107050915D01*
X77173990Y-107079990D01*
X77139800Y-107090761D01*
X76841460Y-107208023D01*
X76579978Y-107353328D01*
X76357536Y-107524813D01*
X76176315Y-107720618D01*
X76038496Y-107938879D01*
X75975963Y-108084213D01*
X75946321Y-108173632D01*
X75926909Y-108255048D01*
X75915611Y-108343899D01*
X75910309Y-108455623D01*
X75908959Y-108572834D01*
X75909181Y-108704024D01*
G36*
X75895341Y-111553298D02*
X75895748Y-111799662D01*
X75896394Y-112025605D01*
X75897254Y-112226561D01*
X75898300Y-112397962D01*
X75899507Y-112535244D01*
X75900848Y-112633840D01*
X75902297Y-112689183D01*
X75903289Y-112699800D01*
X75930059Y-112693185D01*
X75990275Y-112676175D01*
X76042555Y-112660844D01*
X76173731Y-112621889D01*
X76180515Y-111983653D01*
X76187300Y-111345417D01*
X78638400Y-110655343D01*
X78981807Y-110558682D01*
X79312287Y-110465701D01*
X79626446Y-110377352D01*
X79920888Y-110294589D01*
X80192221Y-110218363D01*
X80437050Y-110149628D01*
X80651979Y-110089337D01*
X80833616Y-110038441D01*
X80978565Y-109997895D01*
X81083433Y-109968649D01*
X81144825Y-109951658D01*
X81159350Y-109947750D01*
X81199554Y-109933781D01*
X81220379Y-109908504D01*
X81228144Y-109857741D01*
X81229200Y-109791016D01*
X81228152Y-109714707D01*
X81225451Y-109664279D01*
X81222850Y-109652124D01*
X81198051Y-109658905D01*
X81127595Y-109678550D01*
X81014718Y-109710150D01*
X80862659Y-109752794D01*
X80674656Y-109805572D01*
X80453948Y-109867575D01*
X80203774Y-109937892D01*
X79927371Y-110015615D01*
X79627977Y-110099831D01*
X79308832Y-110189633D01*
X78973173Y-110284109D01*
X78701900Y-110360483D01*
X76187300Y-111068517D01*
X76180508Y-110433810D01*
X76178005Y-110235123D01*
X76175026Y-110081923D01*
X76171207Y-109968894D01*
X76166178Y-109890723D01*
X76159574Y-109842096D01*
X76151029Y-109817700D01*
X76140174Y-109812220D01*
X76137647Y-109812945D01*
X76091108Y-109828098D01*
X76019876Y-109848701D01*
X75998388Y-109854572D01*
X75895200Y-109882358D01*
X75895200Y-111291079D01*
X75895341Y-111553298D01*
X75895341Y-111553298D01*
G37*
X75895341Y-111553298D02*
X75895748Y-111799662D01*
X75896394Y-112025605D01*
X75897254Y-112226561D01*
X75898300Y-112397962D01*
X75899507Y-112535244D01*
X75900848Y-112633840D01*
X75902297Y-112689183D01*
X75903289Y-112699800D01*
X75930059Y-112693185D01*
X75990275Y-112676175D01*
X76042555Y-112660844D01*
X76173731Y-112621889D01*
X76180515Y-111983653D01*
X76187300Y-111345417D01*
X78638400Y-110655343D01*
X78981807Y-110558682D01*
X79312287Y-110465701D01*
X79626446Y-110377352D01*
X79920888Y-110294589D01*
X80192221Y-110218363D01*
X80437050Y-110149628D01*
X80651979Y-110089337D01*
X80833616Y-110038441D01*
X80978565Y-109997895D01*
X81083433Y-109968649D01*
X81144825Y-109951658D01*
X81159350Y-109947750D01*
X81199554Y-109933781D01*
X81220379Y-109908504D01*
X81228144Y-109857741D01*
X81229200Y-109791016D01*
X81228152Y-109714707D01*
X81225451Y-109664279D01*
X81222850Y-109652124D01*
X81198051Y-109658905D01*
X81127595Y-109678550D01*
X81014718Y-109710150D01*
X80862659Y-109752794D01*
X80674656Y-109805572D01*
X80453948Y-109867575D01*
X80203774Y-109937892D01*
X79927371Y-110015615D01*
X79627977Y-110099831D01*
X79308832Y-110189633D01*
X78973173Y-110284109D01*
X78701900Y-110360483D01*
X76187300Y-111068517D01*
X76180508Y-110433810D01*
X76178005Y-110235123D01*
X76175026Y-110081923D01*
X76171207Y-109968894D01*
X76166178Y-109890723D01*
X76159574Y-109842096D01*
X76151029Y-109817700D01*
X76140174Y-109812220D01*
X76137647Y-109812945D01*
X76091108Y-109828098D01*
X76019876Y-109848701D01*
X75998388Y-109854572D01*
X75895200Y-109882358D01*
X75895200Y-111291079D01*
X75895341Y-111553298D01*
G36*
X75899094Y-113578746D02*
X75901131Y-113758404D01*
X75901157Y-113760250D01*
X75904639Y-113972980D01*
X75908653Y-114141461D01*
X75913642Y-114272240D01*
X75920050Y-114371866D01*
X75928322Y-114446891D01*
X75938901Y-114503861D01*
X75952230Y-114549328D01*
X75955179Y-114557388D01*
X76039344Y-114714421D01*
X76159331Y-114844095D01*
X76305620Y-114936141D01*
X76306845Y-114936687D01*
X76444070Y-114977285D01*
X76616369Y-114996065D01*
X76812993Y-114993143D01*
X77023197Y-114968640D01*
X77221606Y-114926549D01*
X77565695Y-114819690D01*
X77864103Y-114690653D01*
X78116861Y-114539417D01*
X78324002Y-114365964D01*
X78485558Y-114170273D01*
X78531180Y-114096800D01*
X78568865Y-114031100D01*
X78594401Y-113986772D01*
X78600635Y-113976101D01*
X78619431Y-113988610D01*
X78664277Y-114027577D01*
X78715220Y-114074905D01*
X78821092Y-114165273D01*
X78924075Y-114226691D01*
X79037773Y-114263839D01*
X79175793Y-114281398D01*
X79324200Y-114284402D01*
X79400712Y-114283146D01*
X79469347Y-114279914D01*
X79536973Y-114273236D01*
X79610456Y-114261642D01*
X79696663Y-114243664D01*
X79802460Y-114217832D01*
X79934714Y-114182679D01*
X80100293Y-114136733D01*
X80306062Y-114078527D01*
X80365600Y-114061600D01*
X80557109Y-114007094D01*
X80734198Y-113956636D01*
X80890603Y-113912013D01*
X81020064Y-113875013D01*
X81116319Y-113847427D01*
X81173106Y-113831042D01*
X81184750Y-113827606D01*
X81211652Y-113808204D01*
X81225278Y-113763186D01*
X81229194Y-113680389D01*
X81229200Y-113675988D01*
X81227237Y-113599997D01*
X81222182Y-113549879D01*
X81217410Y-113538000D01*
X81190967Y-113544630D01*
X81121599Y-113563419D01*
X81015266Y-113592714D01*
X80877929Y-113630863D01*
X80715548Y-113676211D01*
X80534086Y-113727106D01*
X80438260Y-113754062D01*
X80241440Y-113808902D01*
X80053430Y-113860205D01*
X79881680Y-113906021D01*
X79733643Y-113944397D01*
X79616769Y-113973383D01*
X79538509Y-113991028D01*
X79520799Y-113994296D01*
X79325765Y-114005442D01*
X79154853Y-113972783D01*
X79009544Y-113896995D01*
X78891317Y-113778754D01*
X78829218Y-113678527D01*
X78802659Y-113625350D01*
X78782954Y-113578733D01*
X78768920Y-113529859D01*
X78759377Y-113469913D01*
X78753143Y-113390080D01*
X78749038Y-113281545D01*
X78745881Y-113135491D01*
X78744268Y-113044511D01*
X78735837Y-112560100D01*
X79823768Y-112256894D01*
X80056415Y-112191988D01*
X80279286Y-112129681D01*
X80486465Y-112071637D01*
X80672036Y-112019518D01*
X80830083Y-111974987D01*
X80954689Y-111939708D01*
X81039940Y-111915344D01*
X81070450Y-111906444D01*
X81229200Y-111859199D01*
X81229200Y-111733399D01*
X81224860Y-111653350D01*
X81210109Y-111614712D01*
X81191994Y-111607600D01*
X81162973Y-111614351D01*
X81088285Y-111634010D01*
X80971154Y-111665682D01*
X80814801Y-111708473D01*
X80622451Y-111761488D01*
X80397326Y-111823833D01*
X80142648Y-111894615D01*
X79861641Y-111972938D01*
X79557527Y-112057909D01*
X79233529Y-112148634D01*
X78892870Y-112244218D01*
X78538773Y-112343767D01*
X78537236Y-112344200D01*
X78448432Y-112369180D01*
X78448432Y-112649000D01*
X78452419Y-112673027D01*
X78455858Y-112739618D01*
X78458517Y-112840539D01*
X78460165Y-112967555D01*
X78460600Y-113082135D01*
X78458061Y-113296944D01*
X78450130Y-113468360D01*
X78436333Y-113603556D01*
X78420205Y-113692874D01*
X78351791Y-113895629D01*
X78242987Y-114076404D01*
X78092344Y-114236355D01*
X77898411Y-114376637D01*
X77659739Y-114498406D01*
X77374876Y-114602817D01*
X77223232Y-114646594D01*
X76972396Y-114700172D01*
X76756826Y-114717289D01*
X76576393Y-114697926D01*
X76430972Y-114642065D01*
X76320434Y-114549688D01*
X76290175Y-114509048D01*
X76251776Y-114441999D01*
X76222682Y-114367743D01*
X76201712Y-114278338D01*
X76187682Y-114165837D01*
X76179410Y-114022298D01*
X76175715Y-113839775D01*
X76175220Y-113736561D01*
X76175410Y-113574398D01*
X76176941Y-113455949D01*
X76180485Y-113374133D01*
X76186712Y-113321870D01*
X76196292Y-113292079D01*
X76209897Y-113277678D01*
X76219050Y-113273840D01*
X76263262Y-113260926D01*
X76347921Y-113236746D01*
X76467079Y-113202966D01*
X76614786Y-113161254D01*
X76785091Y-113113278D01*
X76972046Y-113060704D01*
X77169700Y-113005202D01*
X77372104Y-112948438D01*
X77573309Y-112892079D01*
X77767365Y-112837794D01*
X77948322Y-112787249D01*
X78110231Y-112742113D01*
X78247142Y-112704053D01*
X78353105Y-112674736D01*
X78422172Y-112655829D01*
X78448391Y-112649001D01*
X78448432Y-112649000D01*
X78448432Y-112369180D01*
X78183617Y-112443674D01*
X77843799Y-112539196D01*
X77520969Y-112629873D01*
X77218313Y-112714813D01*
X76939016Y-112793125D01*
X76686265Y-112863916D01*
X76463245Y-112926295D01*
X76273143Y-112979370D01*
X76119145Y-113022250D01*
X76004436Y-113054042D01*
X75932204Y-113073856D01*
X75905633Y-113080798D01*
X75905598Y-113080800D01*
X75902216Y-113105099D01*
X75899831Y-113173617D01*
X75898487Y-113279780D01*
X75898227Y-113417014D01*
X75899094Y-113578746D01*
X75899094Y-113578746D01*
G37*
X75899094Y-113578746D02*
X75901131Y-113758404D01*
X75901157Y-113760250D01*
X75904639Y-113972980D01*
X75908653Y-114141461D01*
X75913642Y-114272240D01*
X75920050Y-114371866D01*
X75928322Y-114446891D01*
X75938901Y-114503861D01*
X75952230Y-114549328D01*
X75955179Y-114557388D01*
X76039344Y-114714421D01*
X76159331Y-114844095D01*
X76305620Y-114936141D01*
X76306845Y-114936687D01*
X76444070Y-114977285D01*
X76616369Y-114996065D01*
X76812993Y-114993143D01*
X77023197Y-114968640D01*
X77221606Y-114926549D01*
X77565695Y-114819690D01*
X77864103Y-114690653D01*
X78116861Y-114539417D01*
X78324002Y-114365964D01*
X78485558Y-114170273D01*
X78531180Y-114096800D01*
X78568865Y-114031100D01*
X78594401Y-113986772D01*
X78600635Y-113976101D01*
X78619431Y-113988610D01*
X78664277Y-114027577D01*
X78715220Y-114074905D01*
X78821092Y-114165273D01*
X78924075Y-114226691D01*
X79037773Y-114263839D01*
X79175793Y-114281398D01*
X79324200Y-114284402D01*
X79400712Y-114283146D01*
X79469347Y-114279914D01*
X79536973Y-114273236D01*
X79610456Y-114261642D01*
X79696663Y-114243664D01*
X79802460Y-114217832D01*
X79934714Y-114182679D01*
X80100293Y-114136733D01*
X80306062Y-114078527D01*
X80365600Y-114061600D01*
X80557109Y-114007094D01*
X80734198Y-113956636D01*
X80890603Y-113912013D01*
X81020064Y-113875013D01*
X81116319Y-113847427D01*
X81173106Y-113831042D01*
X81184750Y-113827606D01*
X81211652Y-113808204D01*
X81225278Y-113763186D01*
X81229194Y-113680389D01*
X81229200Y-113675988D01*
X81227237Y-113599997D01*
X81222182Y-113549879D01*
X81217410Y-113538000D01*
X81190967Y-113544630D01*
X81121599Y-113563419D01*
X81015266Y-113592714D01*
X80877929Y-113630863D01*
X80715548Y-113676211D01*
X80534086Y-113727106D01*
X80438260Y-113754062D01*
X80241440Y-113808902D01*
X80053430Y-113860205D01*
X79881680Y-113906021D01*
X79733643Y-113944397D01*
X79616769Y-113973383D01*
X79538509Y-113991028D01*
X79520799Y-113994296D01*
X79325765Y-114005442D01*
X79154853Y-113972783D01*
X79009544Y-113896995D01*
X78891317Y-113778754D01*
X78829218Y-113678527D01*
X78802659Y-113625350D01*
X78782954Y-113578733D01*
X78768920Y-113529859D01*
X78759377Y-113469913D01*
X78753143Y-113390080D01*
X78749038Y-113281545D01*
X78745881Y-113135491D01*
X78744268Y-113044511D01*
X78735837Y-112560100D01*
X79823768Y-112256894D01*
X80056415Y-112191988D01*
X80279286Y-112129681D01*
X80486465Y-112071637D01*
X80672036Y-112019518D01*
X80830083Y-111974987D01*
X80954689Y-111939708D01*
X81039940Y-111915344D01*
X81070450Y-111906444D01*
X81229200Y-111859199D01*
X81229200Y-111733399D01*
X81224860Y-111653350D01*
X81210109Y-111614712D01*
X81191994Y-111607600D01*
X81162973Y-111614351D01*
X81088285Y-111634010D01*
X80971154Y-111665682D01*
X80814801Y-111708473D01*
X80622451Y-111761488D01*
X80397326Y-111823833D01*
X80142648Y-111894615D01*
X79861641Y-111972938D01*
X79557527Y-112057909D01*
X79233529Y-112148634D01*
X78892870Y-112244218D01*
X78538773Y-112343767D01*
X78537236Y-112344200D01*
X78448432Y-112369180D01*
X78448432Y-112649000D01*
X78452419Y-112673027D01*
X78455858Y-112739618D01*
X78458517Y-112840539D01*
X78460165Y-112967555D01*
X78460600Y-113082135D01*
X78458061Y-113296944D01*
X78450130Y-113468360D01*
X78436333Y-113603556D01*
X78420205Y-113692874D01*
X78351791Y-113895629D01*
X78242987Y-114076404D01*
X78092344Y-114236355D01*
X77898411Y-114376637D01*
X77659739Y-114498406D01*
X77374876Y-114602817D01*
X77223232Y-114646594D01*
X76972396Y-114700172D01*
X76756826Y-114717289D01*
X76576393Y-114697926D01*
X76430972Y-114642065D01*
X76320434Y-114549688D01*
X76290175Y-114509048D01*
X76251776Y-114441999D01*
X76222682Y-114367743D01*
X76201712Y-114278338D01*
X76187682Y-114165837D01*
X76179410Y-114022298D01*
X76175715Y-113839775D01*
X76175220Y-113736561D01*
X76175410Y-113574398D01*
X76176941Y-113455949D01*
X76180485Y-113374133D01*
X76186712Y-113321870D01*
X76196292Y-113292079D01*
X76209897Y-113277678D01*
X76219050Y-113273840D01*
X76263262Y-113260926D01*
X76347921Y-113236746D01*
X76467079Y-113202966D01*
X76614786Y-113161254D01*
X76785091Y-113113278D01*
X76972046Y-113060704D01*
X77169700Y-113005202D01*
X77372104Y-112948438D01*
X77573309Y-112892079D01*
X77767365Y-112837794D01*
X77948322Y-112787249D01*
X78110231Y-112742113D01*
X78247142Y-112704053D01*
X78353105Y-112674736D01*
X78422172Y-112655829D01*
X78448391Y-112649001D01*
X78448432Y-112649000D01*
X78448432Y-112369180D01*
X78183617Y-112443674D01*
X77843799Y-112539196D01*
X77520969Y-112629873D01*
X77218313Y-112714813D01*
X76939016Y-112793125D01*
X76686265Y-112863916D01*
X76463245Y-112926295D01*
X76273143Y-112979370D01*
X76119145Y-113022250D01*
X76004436Y-113054042D01*
X75932204Y-113073856D01*
X75905633Y-113080798D01*
X75905598Y-113080800D01*
X75902216Y-113105099D01*
X75899831Y-113173617D01*
X75898487Y-113279780D01*
X75898227Y-113417014D01*
X75899094Y-113578746D01*
G36*
X75909223Y-116170144D02*
X75928443Y-116179600D01*
X75957320Y-116172847D01*
X76031837Y-116153191D01*
X76148747Y-116121533D01*
X76304801Y-116078775D01*
X76496752Y-116025818D01*
X76721351Y-115963564D01*
X76975352Y-115892916D01*
X77255505Y-115814774D01*
X77558563Y-115730041D01*
X77881279Y-115639619D01*
X78220404Y-115544408D01*
X78539620Y-115454622D01*
X78891374Y-115355615D01*
X79230014Y-115260329D01*
X79552255Y-115169688D01*
X79854815Y-115084615D01*
X80134408Y-115006031D01*
X80387750Y-114934859D01*
X80611557Y-114872021D01*
X80802544Y-114818441D01*
X80957427Y-114775039D01*
X81072922Y-114742740D01*
X81145745Y-114722464D01*
X81172050Y-114715269D01*
X81205216Y-114701032D01*
X81222381Y-114670785D01*
X81228605Y-114610880D01*
X81229200Y-114561192D01*
X81227760Y-114481761D01*
X81220079Y-114442130D01*
X81201117Y-114431310D01*
X81172050Y-114436645D01*
X81140261Y-114445469D01*
X81062841Y-114467148D01*
X80943055Y-114500765D01*
X80784168Y-114545400D01*
X80589446Y-114600135D01*
X80362153Y-114664052D01*
X80105556Y-114736233D01*
X79822919Y-114815758D01*
X79517508Y-114901711D01*
X79192589Y-114993171D01*
X78851426Y-115089221D01*
X78511400Y-115184968D01*
X75907900Y-115918138D01*
X75900222Y-116048869D01*
X75899071Y-116129779D01*
X75909223Y-116170144D01*
X75909223Y-116170144D01*
G37*
X75909223Y-116170144D02*
X75928443Y-116179600D01*
X75957320Y-116172847D01*
X76031837Y-116153191D01*
X76148747Y-116121533D01*
X76304801Y-116078775D01*
X76496752Y-116025818D01*
X76721351Y-115963564D01*
X76975352Y-115892916D01*
X77255505Y-115814774D01*
X77558563Y-115730041D01*
X77881279Y-115639619D01*
X78220404Y-115544408D01*
X78539620Y-115454622D01*
X78891374Y-115355615D01*
X79230014Y-115260329D01*
X79552255Y-115169688D01*
X79854815Y-115084615D01*
X80134408Y-115006031D01*
X80387750Y-114934859D01*
X80611557Y-114872021D01*
X80802544Y-114818441D01*
X80957427Y-114775039D01*
X81072922Y-114742740D01*
X81145745Y-114722464D01*
X81172050Y-114715269D01*
X81205216Y-114701032D01*
X81222381Y-114670785D01*
X81228605Y-114610880D01*
X81229200Y-114561192D01*
X81227760Y-114481761D01*
X81220079Y-114442130D01*
X81201117Y-114431310D01*
X81172050Y-114436645D01*
X81140261Y-114445469D01*
X81062841Y-114467148D01*
X80943055Y-114500765D01*
X80784168Y-114545400D01*
X80589446Y-114600135D01*
X80362153Y-114664052D01*
X80105556Y-114736233D01*
X79822919Y-114815758D01*
X79517508Y-114901711D01*
X79192589Y-114993171D01*
X78851426Y-115089221D01*
X78511400Y-115184968D01*
X75907900Y-115918138D01*
X75900222Y-116048869D01*
X75899071Y-116129779D01*
X75909223Y-116170144D01*
G36*
X75902868Y-117906075D02*
X75936299Y-118125319D01*
X76001430Y-118305128D01*
X76098626Y-118446053D01*
X76228251Y-118548644D01*
X76368355Y-118607339D01*
X76489405Y-118629425D01*
X76644671Y-118638482D01*
X76819421Y-118635075D01*
X76998924Y-118619770D01*
X77168448Y-118593133D01*
X77254100Y-118573326D01*
X77431900Y-118526072D01*
X77439581Y-118379402D01*
X77442258Y-118297351D01*
X77437220Y-118255339D01*
X77421449Y-118242819D01*
X77401481Y-118246227D01*
X77221585Y-118295407D01*
X77069954Y-118327007D01*
X76928426Y-118344069D01*
X76784200Y-118349602D01*
X76664853Y-118348823D01*
X76581066Y-118342719D01*
X76517668Y-118328636D01*
X76459489Y-118303922D01*
X76428919Y-118287480D01*
X76322178Y-118207841D01*
X76247348Y-118102984D01*
X76200928Y-117965946D01*
X76179494Y-117791219D01*
X76189411Y-117553234D01*
X76245285Y-117336880D01*
X76347119Y-117142151D01*
X76494918Y-116969041D01*
X76688687Y-116817545D01*
X76928429Y-116687654D01*
X77011013Y-116652210D01*
X77069544Y-116631635D01*
X77171530Y-116599354D01*
X77311393Y-116556933D01*
X77483553Y-116505940D01*
X77682433Y-116447942D01*
X77902452Y-116384506D01*
X78138031Y-116317200D01*
X78383592Y-116247592D01*
X78633555Y-116177248D01*
X78882342Y-116107736D01*
X79124372Y-116040623D01*
X79354068Y-115977477D01*
X79565849Y-115919866D01*
X79754138Y-115869355D01*
X79913354Y-115827514D01*
X80037919Y-115795909D01*
X80122254Y-115776107D01*
X80146761Y-115771263D01*
X80361416Y-115750752D01*
X80542897Y-115768412D01*
X80691776Y-115824440D01*
X80808628Y-115919038D01*
X80881811Y-116027200D01*
X80914765Y-116095191D01*
X80935159Y-116153219D01*
X80945394Y-116216340D01*
X80947872Y-116299612D01*
X80944995Y-116418091D01*
X80944850Y-116422370D01*
X80938890Y-116547470D01*
X80928554Y-116639013D01*
X80910127Y-116714235D01*
X80879893Y-116790374D01*
X80853639Y-116845500D01*
X80736716Y-117026824D01*
X80574279Y-117190835D01*
X80369288Y-117335423D01*
X80124701Y-117458476D01*
X79863950Y-117551841D01*
X79679800Y-117606947D01*
X79679800Y-117744173D01*
X79683664Y-117819908D01*
X79693616Y-117869747D01*
X79702909Y-117881400D01*
X79754067Y-117871856D01*
X79840327Y-117846051D01*
X79950309Y-117808229D01*
X80072636Y-117762630D01*
X80195929Y-117713497D01*
X80308810Y-117665071D01*
X80399900Y-117621594D01*
X80400127Y-117621476D01*
X80552712Y-117527911D01*
X80706743Y-117408018D01*
X80850996Y-117272610D01*
X80974250Y-117132502D01*
X81065282Y-116998507D01*
X81083948Y-116962553D01*
X81165256Y-116744910D01*
X81213581Y-116509917D01*
X81227322Y-116272714D01*
X81204875Y-116048440D01*
X81188335Y-115976400D01*
X81120338Y-115802656D01*
X81018624Y-115666440D01*
X80880841Y-115565319D01*
X80732333Y-115504757D01*
X80606727Y-115480344D01*
X80450211Y-115469970D01*
X80280767Y-115473891D01*
X80116382Y-115492364D01*
X80097214Y-115495686D01*
X80033892Y-115509784D01*
X79927444Y-115536574D01*
X79783494Y-115574461D01*
X79607667Y-115621853D01*
X79405587Y-115677155D01*
X79182877Y-115738773D01*
X78945163Y-115805115D01*
X78698068Y-115874585D01*
X78447217Y-115945591D01*
X78198234Y-116016539D01*
X77956742Y-116085834D01*
X77728367Y-116151883D01*
X77518732Y-116213093D01*
X77333462Y-116267869D01*
X77178181Y-116314618D01*
X77058512Y-116351746D01*
X76980081Y-116377660D01*
X76963995Y-116383560D01*
X76689559Y-116511920D01*
X76452899Y-116669516D01*
X76255797Y-116853792D01*
X76100036Y-117062187D01*
X75987400Y-117292145D01*
X75919671Y-117541106D01*
X75898633Y-117806513D01*
X75902868Y-117906075D01*
X75902868Y-117906075D01*
G37*
X75902868Y-117906075D02*
X75936299Y-118125319D01*
X76001430Y-118305128D01*
X76098626Y-118446053D01*
X76228251Y-118548644D01*
X76368355Y-118607339D01*
X76489405Y-118629425D01*
X76644671Y-118638482D01*
X76819421Y-118635075D01*
X76998924Y-118619770D01*
X77168448Y-118593133D01*
X77254100Y-118573326D01*
X77431900Y-118526072D01*
X77439581Y-118379402D01*
X77442258Y-118297351D01*
X77437220Y-118255339D01*
X77421449Y-118242819D01*
X77401481Y-118246227D01*
X77221585Y-118295407D01*
X77069954Y-118327007D01*
X76928426Y-118344069D01*
X76784200Y-118349602D01*
X76664853Y-118348823D01*
X76581066Y-118342719D01*
X76517668Y-118328636D01*
X76459489Y-118303922D01*
X76428919Y-118287480D01*
X76322178Y-118207841D01*
X76247348Y-118102984D01*
X76200928Y-117965946D01*
X76179494Y-117791219D01*
X76189411Y-117553234D01*
X76245285Y-117336880D01*
X76347119Y-117142151D01*
X76494918Y-116969041D01*
X76688687Y-116817545D01*
X76928429Y-116687654D01*
X77011013Y-116652210D01*
X77069544Y-116631635D01*
X77171530Y-116599354D01*
X77311393Y-116556933D01*
X77483553Y-116505940D01*
X77682433Y-116447942D01*
X77902452Y-116384506D01*
X78138031Y-116317200D01*
X78383592Y-116247592D01*
X78633555Y-116177248D01*
X78882342Y-116107736D01*
X79124372Y-116040623D01*
X79354068Y-115977477D01*
X79565849Y-115919866D01*
X79754138Y-115869355D01*
X79913354Y-115827514D01*
X80037919Y-115795909D01*
X80122254Y-115776107D01*
X80146761Y-115771263D01*
X80361416Y-115750752D01*
X80542897Y-115768412D01*
X80691776Y-115824440D01*
X80808628Y-115919038D01*
X80881811Y-116027200D01*
X80914765Y-116095191D01*
X80935159Y-116153219D01*
X80945394Y-116216340D01*
X80947872Y-116299612D01*
X80944995Y-116418091D01*
X80944850Y-116422370D01*
X80938890Y-116547470D01*
X80928554Y-116639013D01*
X80910127Y-116714235D01*
X80879893Y-116790374D01*
X80853639Y-116845500D01*
X80736716Y-117026824D01*
X80574279Y-117190835D01*
X80369288Y-117335423D01*
X80124701Y-117458476D01*
X79863950Y-117551841D01*
X79679800Y-117606947D01*
X79679800Y-117744173D01*
X79683664Y-117819908D01*
X79693616Y-117869747D01*
X79702909Y-117881400D01*
X79754067Y-117871856D01*
X79840327Y-117846051D01*
X79950309Y-117808229D01*
X80072636Y-117762630D01*
X80195929Y-117713497D01*
X80308810Y-117665071D01*
X80399900Y-117621594D01*
X80400127Y-117621476D01*
X80552712Y-117527911D01*
X80706743Y-117408018D01*
X80850996Y-117272610D01*
X80974250Y-117132502D01*
X81065282Y-116998507D01*
X81083948Y-116962553D01*
X81165256Y-116744910D01*
X81213581Y-116509917D01*
X81227322Y-116272714D01*
X81204875Y-116048440D01*
X81188335Y-115976400D01*
X81120338Y-115802656D01*
X81018624Y-115666440D01*
X80880841Y-115565319D01*
X80732333Y-115504757D01*
X80606727Y-115480344D01*
X80450211Y-115469970D01*
X80280767Y-115473891D01*
X80116382Y-115492364D01*
X80097214Y-115495686D01*
X80033892Y-115509784D01*
X79927444Y-115536574D01*
X79783494Y-115574461D01*
X79607667Y-115621853D01*
X79405587Y-115677155D01*
X79182877Y-115738773D01*
X78945163Y-115805115D01*
X78698068Y-115874585D01*
X78447217Y-115945591D01*
X78198234Y-116016539D01*
X77956742Y-116085834D01*
X77728367Y-116151883D01*
X77518732Y-116213093D01*
X77333462Y-116267869D01*
X77178181Y-116314618D01*
X77058512Y-116351746D01*
X76980081Y-116377660D01*
X76963995Y-116383560D01*
X76689559Y-116511920D01*
X76452899Y-116669516D01*
X76255797Y-116853792D01*
X76100036Y-117062187D01*
X75987400Y-117292145D01*
X75919671Y-117541106D01*
X75898633Y-117806513D01*
X75902868Y-117906075D01*
M02*
