G04 #@! TF.FileFunction,Copper,L1,Top,Signal*
%FSLAX46Y46*%
G04 Gerber Fmt 4.6, Leading zero omitted, Abs format (unit mm)*
G04 Created by KiCad (PCBNEW 4.0.7) date 02/05/18 22:40:42*
%MOMM*%
%LPD*%
G01*
G04 APERTURE LIST*
%ADD10C,0.100000*%
%ADD11R,1.250000X1.000000*%
%ADD12R,1.200000X1.200000*%
%ADD13C,1.117600*%
%ADD14C,1.397000*%
%ADD15C,1.981000*%
%ADD16R,0.800000X0.900000*%
%ADD17R,0.700000X1.300000*%
%ADD18R,1.300000X0.700000*%
%ADD19R,1.200000X2.200000*%
%ADD20R,5.800000X6.400000*%
%ADD21R,2.750000X3.050000*%
%ADD22R,0.650000X0.400000*%
%ADD23R,0.650000X1.060000*%
%ADD24R,0.640000X2.000000*%
%ADD25C,1.300000*%
%ADD26C,2.000000*%
%ADD27C,0.609600*%
%ADD28C,0.762000*%
%ADD29C,0.508000*%
%ADD30C,0.254000*%
G04 APERTURE END LIST*
D10*
D11*
X73660000Y-107950000D03*
X73660000Y-109950000D03*
X81280000Y-103378000D03*
X81280000Y-101378000D03*
X73660000Y-103410000D03*
X73660000Y-105410000D03*
X66548000Y-94853000D03*
X66548000Y-92853000D03*
D12*
X62230000Y-90551000D03*
X62230000Y-88351000D03*
D13*
X59690000Y-102950000D03*
X59690000Y-107950000D03*
D14*
X50800000Y-107640000D03*
X50800000Y-104140000D03*
D15*
X48570000Y-105890000D03*
D14*
X73025000Y-96012000D03*
X73025000Y-92512000D03*
D15*
X70795000Y-94262000D03*
D16*
X70998000Y-67183000D03*
X72898000Y-67183000D03*
X71948000Y-65183000D03*
D17*
X71315287Y-118226335D03*
X69415287Y-118226335D03*
X69288287Y-115686335D03*
X71188287Y-115686335D03*
D18*
X52070000Y-97790000D03*
X52070000Y-99690000D03*
X52070000Y-93030000D03*
X52070000Y-94930000D03*
X60960000Y-99690000D03*
X60960000Y-97790000D03*
X57150000Y-94930000D03*
X57150000Y-93030000D03*
X57150000Y-99690000D03*
X57150000Y-97790000D03*
D17*
X71440000Y-101600000D03*
X73340000Y-101600000D03*
X66045000Y-88011000D03*
X67945000Y-88011000D03*
D18*
X59182000Y-88204000D03*
X59182000Y-90104000D03*
D17*
X70998000Y-70739000D03*
X72898000Y-70739000D03*
D19*
X66817787Y-112369335D03*
X69097787Y-112369335D03*
X71377787Y-112369335D03*
D20*
X69097787Y-106069335D03*
D21*
X70622787Y-104394335D03*
X67572787Y-107744335D03*
X67572787Y-104394335D03*
X70622787Y-107744335D03*
D22*
X77470000Y-101727000D03*
X77470000Y-103027000D03*
X77470000Y-102377000D03*
X79370000Y-103027000D03*
X79370000Y-101727000D03*
D23*
X61910000Y-92710000D03*
X60960000Y-92710000D03*
X60010000Y-92710000D03*
X60010000Y-94910000D03*
X61910000Y-94910000D03*
D24*
X66040000Y-81890000D03*
X68580000Y-81890000D03*
X68580000Y-75590000D03*
X66040000Y-75590000D03*
D25*
X64262000Y-68199000D03*
X61722000Y-68199000D03*
X62992000Y-65659000D03*
X65532000Y-65659000D03*
D26*
X60322000Y-66699000D03*
D27*
X71128787Y-108077335D03*
X70112787Y-108077335D03*
X69096787Y-108077335D03*
X68080787Y-108077335D03*
X67064787Y-108077335D03*
X71128787Y-107061335D03*
X70112787Y-107061335D03*
X69096787Y-107061335D03*
X68080787Y-107061335D03*
X67064787Y-107061335D03*
X71128787Y-106045335D03*
X70112787Y-106045335D03*
X69096787Y-106045335D03*
X68080787Y-106045335D03*
X67064787Y-106045335D03*
X71128787Y-105029335D03*
X70112787Y-105029335D03*
X69096787Y-105029335D03*
X68080787Y-105029335D03*
X67064787Y-105029335D03*
X71128787Y-104013335D03*
X70112787Y-104013335D03*
X69096787Y-104013335D03*
X68080787Y-104013335D03*
X67056000Y-104013000D03*
X74930000Y-69850000D03*
X63500000Y-96520000D03*
X64135000Y-92075000D03*
X74295000Y-100965000D03*
X59690000Y-95885000D03*
D28*
X62661721Y-93846599D02*
X65532000Y-96716878D01*
X65532000Y-96716878D02*
X67572787Y-98757665D01*
X66548000Y-96115000D02*
X65946122Y-96716878D01*
X65946122Y-96716878D02*
X65532000Y-96716878D01*
X66548000Y-94853000D02*
X66548000Y-96115000D01*
X67572787Y-102107335D02*
X67572787Y-104394335D01*
D29*
X74676000Y-102362000D02*
X77455000Y-102362000D01*
X77455000Y-102362000D02*
X77470000Y-102377000D01*
X73660000Y-103410000D02*
X73660000Y-103378000D01*
X73660000Y-103378000D02*
X74676000Y-102362000D01*
X74676000Y-102362000D02*
X74422000Y-102616000D01*
X73660000Y-103410000D02*
X71757122Y-103410000D01*
X71757122Y-103410000D02*
X69097787Y-106069335D01*
D28*
X71440000Y-101600000D02*
X71440000Y-103577122D01*
X71440000Y-103577122D02*
X70622787Y-104394335D01*
X71607122Y-103410000D02*
X70622787Y-104394335D01*
X73660000Y-107950000D02*
X70828452Y-107950000D01*
X70066452Y-107061000D02*
X69860787Y-106855335D01*
X71390000Y-103627122D02*
X70622787Y-104394335D01*
X71147122Y-107220000D02*
X70622787Y-107744335D01*
X60960000Y-92710000D02*
X60960000Y-93575122D01*
X60960000Y-93575122D02*
X61231477Y-93846599D01*
X61231477Y-93846599D02*
X62661721Y-93846599D01*
X67572787Y-98757665D02*
X67572787Y-102107335D01*
X69097787Y-112369335D02*
X69097787Y-115495835D01*
X69097787Y-115495835D02*
X69288287Y-115686335D01*
X72898000Y-70739000D02*
X74041000Y-70739000D01*
X74041000Y-70739000D02*
X74930000Y-69850000D01*
X72898000Y-70739000D02*
X72898000Y-67183000D01*
X63500000Y-96520000D02*
X63500000Y-96500000D01*
X63500000Y-96500000D02*
X61910000Y-94910000D01*
X66548000Y-92853000D02*
X64913000Y-92853000D01*
X64913000Y-92853000D02*
X64135000Y-92075000D01*
X67945000Y-88011000D02*
X67945000Y-82525000D01*
X67945000Y-82525000D02*
X68580000Y-81890000D01*
X73025000Y-98044000D02*
X74295000Y-99314000D01*
X74295000Y-99314000D02*
X74803000Y-99822000D01*
X68961000Y-98679000D02*
X69596000Y-99314000D01*
X69596000Y-99314000D02*
X74295000Y-99314000D01*
X68961000Y-93879000D02*
X68961000Y-98679000D01*
X66548000Y-92853000D02*
X67935000Y-92853000D01*
X67935000Y-92853000D02*
X68961000Y-93879000D01*
X73025000Y-96012000D02*
X73025000Y-98044000D01*
X83947000Y-101600000D02*
X83947000Y-102108000D01*
X74803000Y-99822000D02*
X82169000Y-99822000D01*
X82169000Y-99822000D02*
X83947000Y-101600000D01*
X83947000Y-102108000D02*
X82677000Y-103378000D01*
X82677000Y-103378000D02*
X81280000Y-103378000D01*
D29*
X81280000Y-103378000D02*
X79721000Y-103378000D01*
X79721000Y-103378000D02*
X79370000Y-103027000D01*
X79370000Y-103027000D02*
X77753960Y-103027000D01*
X77753960Y-103027000D02*
X77743551Y-103037409D01*
X77743551Y-103037409D02*
X77165591Y-103037409D01*
X77165591Y-103037409D02*
X74793000Y-105410000D01*
X74793000Y-105410000D02*
X73660000Y-105410000D01*
D28*
X76200000Y-110490000D02*
X73660000Y-113030000D01*
X76200000Y-107825000D02*
X76200000Y-110490000D01*
X73660000Y-105410000D02*
X73785000Y-105410000D01*
X73785000Y-105410000D02*
X76200000Y-107825000D01*
X73660000Y-113030000D02*
X73660000Y-109950000D01*
X73660000Y-113030000D02*
X73660000Y-117841744D01*
X73660000Y-117841744D02*
X71863409Y-119638335D01*
X71863409Y-119638335D02*
X70527287Y-119638335D01*
X70527287Y-119638335D02*
X69415287Y-118526335D01*
X69415287Y-118526335D02*
X69415287Y-118226335D01*
X60960000Y-97790000D02*
X60960000Y-95860000D01*
X60960000Y-95860000D02*
X61910000Y-94910000D01*
X50800000Y-107640000D02*
X61386335Y-118226335D01*
X61386335Y-118226335D02*
X69415287Y-118226335D01*
D29*
X81280000Y-101378000D02*
X79719000Y-101378000D01*
X79719000Y-101378000D02*
X79370000Y-101727000D01*
D28*
X62230000Y-90551000D02*
X71064000Y-90551000D01*
X71064000Y-90551000D02*
X73025000Y-92512000D01*
X59182000Y-90104000D02*
X61783000Y-90104000D01*
X61783000Y-90104000D02*
X62230000Y-90551000D01*
X61910000Y-92710000D02*
X61910000Y-90871000D01*
X61910000Y-90871000D02*
X62230000Y-90551000D01*
X62230000Y-88351000D02*
X65705000Y-88351000D01*
X65705000Y-88351000D02*
X66045000Y-88011000D01*
X50800000Y-104140000D02*
X50800000Y-100960000D01*
X50800000Y-100960000D02*
X52070000Y-99690000D01*
X59690000Y-102950000D02*
X51990000Y-102950000D01*
X51990000Y-102950000D02*
X50800000Y-104140000D01*
X59690000Y-107950000D02*
X62898452Y-107950000D01*
X66817787Y-111869335D02*
X66817787Y-112369335D01*
X62898452Y-107950000D02*
X66817787Y-111869335D01*
X64262000Y-68199000D02*
X66040000Y-69977000D01*
X66040000Y-69977000D02*
X66040000Y-75590000D01*
X62992000Y-65659000D02*
X62992000Y-66929000D01*
X62992000Y-66929000D02*
X64262000Y-68199000D01*
X65532000Y-65659000D02*
X71472000Y-65659000D01*
X71472000Y-65659000D02*
X71948000Y-65183000D01*
X68580000Y-75590000D02*
X68580000Y-73157000D01*
X68580000Y-73157000D02*
X70998000Y-70739000D01*
X70998000Y-67183000D02*
X70998000Y-70739000D01*
X71188287Y-115686335D02*
X71188287Y-118099335D01*
X71188287Y-118099335D02*
X71315287Y-118226335D01*
X71377787Y-112369335D02*
X71377787Y-115496835D01*
X71377787Y-115496835D02*
X71188287Y-115686335D01*
X52070000Y-97790000D02*
X52070000Y-94930000D01*
X52070000Y-93030000D02*
X57150000Y-93030000D01*
X60010000Y-92710000D02*
X58923000Y-92710000D01*
X60660000Y-99690000D02*
X60960000Y-99690000D01*
X58923000Y-92710000D02*
X58775591Y-92857409D01*
X58775591Y-92857409D02*
X58775591Y-97805591D01*
X58775591Y-97805591D02*
X60660000Y-99690000D01*
X60010000Y-92710000D02*
X60010000Y-92915000D01*
X57150000Y-99690000D02*
X60960000Y-99690000D01*
X57150000Y-94930000D02*
X57150000Y-97790000D01*
X74295000Y-100965000D02*
X73975000Y-100965000D01*
X73975000Y-100965000D02*
X73340000Y-101600000D01*
X60010000Y-94910000D02*
X60010000Y-95565000D01*
X60010000Y-95565000D02*
X59690000Y-95885000D01*
D29*
X73340000Y-101600000D02*
X74198000Y-101600000D01*
X74198000Y-101600000D02*
X74299590Y-101701590D01*
X74299590Y-101701590D02*
X74402450Y-101701590D01*
X74402450Y-101701590D02*
X77470000Y-101701590D01*
D30*
X77343000Y-101600000D02*
X77470000Y-101727000D01*
D28*
X63881000Y-81915000D02*
X59182000Y-86614000D01*
X59182000Y-86614000D02*
X59182000Y-88204000D01*
X64933000Y-81915000D02*
X63881000Y-81915000D01*
X66040000Y-81890000D02*
X64958000Y-81890000D01*
X64958000Y-81890000D02*
X64933000Y-81915000D01*
M02*
