M48
;DRILL file {KiCad 4.0.7} date 04/23/18 21:55:48
;FORMAT={-:-/ absolute / inch / decimal}
FMAT,2
INCH,TZ
T1C0.012
T2C0.031
T3C0.040
T4C0.059
T5C0.063
%
G90
G05
M72
T1
X5.3619Y-4.3892
X5.3619Y-4.4292
X5.3619Y-4.4692
X5.3619Y-4.5092
X5.3619Y-4.5492
X5.4019Y-4.3892
X5.4019Y-4.4292
X5.4019Y-4.4692
X5.4019Y-4.5092
X5.4019Y-4.5492
X5.4419Y-4.3892
X5.4419Y-4.4292
X5.4419Y-4.4692
X5.4419Y-4.5092
X5.4419Y-4.5492
X5.4819Y-4.3892
X5.4819Y-4.4292
X5.4819Y-4.4692
X5.4819Y-4.5092
X5.4819Y-4.5492
X5.5219Y-4.4292
X5.5219Y-4.4692
X5.5219Y-4.5092
X5.5219Y-4.5492
X5.522Y-4.3889
X5.65Y-4.82
X5.828Y-4.28
X5.83Y-4.339
T2
X5.367Y-4.0989
X5.5638Y-4.0989
X6.932Y-4.1789
X6.932Y-4.2789
X7.032Y-4.2289
X7.032Y-4.3289
T3
X5.3792Y-3.7489
X5.517Y-3.7489
X5.837Y-4.6239
X5.9747Y-4.6239
T4
X6.991Y-4.1238
T5
X5.4481Y-3.6611
X5.9059Y-4.5361
T0
M30
