G04 #@! TF.FileFunction,Copper,L1,Top,Signal*
%FSLAX46Y46*%
G04 Gerber Fmt 4.6, Leading zero omitted, Abs format (unit mm)*
G04 Created by KiCad (PCBNEW 4.0.7-e2-6376~58~ubuntu16.04.1) date Fri Jan 19 22:13:33 2018*
%MOMM*%
%LPD*%
G01*
G04 APERTURE LIST*
%ADD10C,0.100000*%
%ADD11C,1.300000*%
%ADD12R,1.727200X1.727200*%
%ADD13O,1.727200X1.727200*%
%ADD14R,1.600000X1.000000*%
%ADD15R,1.000000X1.250000*%
%ADD16R,1.250000X1.000000*%
%ADD17R,1.778000X2.159000*%
%ADD18R,1.200000X1.200000*%
%ADD19R,0.900000X2.500000*%
%ADD20R,3.300000X8.200000*%
%ADD21R,0.700000X1.300000*%
%ADD22R,1.300000X0.700000*%
%ADD23R,3.200000X1.000000*%
%ADD24R,1.550000X0.600000*%
%ADD25R,0.650000X1.060000*%
%ADD26R,0.800000X0.900000*%
%ADD27C,0.609600*%
%ADD28C,0.254000*%
%ADD29C,0.508000*%
%ADD30C,0.762000*%
G04 APERTURE END LIST*
D10*
G36*
X174603602Y-66023719D02*
X173719719Y-66907602D01*
X173012612Y-66200495D01*
X173896495Y-65316612D01*
X174603602Y-66023719D01*
X174603602Y-66023719D01*
G37*
G36*
X173189388Y-64609505D02*
X172305505Y-65493388D01*
X171598398Y-64786281D01*
X172482281Y-63902398D01*
X173189388Y-64609505D01*
X173189388Y-64609505D01*
G37*
D11*
X122047000Y-54864000D03*
X122047000Y-52324000D03*
X122047000Y-49784000D03*
X122047000Y-57404000D03*
X124587000Y-51054000D03*
X124587000Y-53594000D03*
X124587000Y-56134000D03*
X124587000Y-58674000D03*
X122047000Y-59944000D03*
X124587000Y-61214000D03*
X122047000Y-62484000D03*
X124587000Y-63754000D03*
X122047000Y-65024000D03*
X124587000Y-66294000D03*
X191389000Y-59309000D03*
X191389000Y-56769000D03*
X191389000Y-54229000D03*
X191389000Y-61849000D03*
X193929000Y-55499000D03*
X193929000Y-58039000D03*
X193929000Y-60579000D03*
X193929000Y-63119000D03*
X191389000Y-64389000D03*
X193929000Y-65659000D03*
D12*
X133731000Y-66421000D03*
D13*
X131191000Y-66421000D03*
X133731000Y-63881000D03*
X131191000Y-63881000D03*
X133731000Y-61341000D03*
X131191000Y-61341000D03*
D10*
G36*
X163393174Y-68757709D02*
X162509291Y-67873826D01*
X163216398Y-67166719D01*
X164100281Y-68050602D01*
X163393174Y-68757709D01*
X163393174Y-68757709D01*
G37*
G36*
X164807388Y-67343495D02*
X163923505Y-66459612D01*
X164630612Y-65752505D01*
X165514495Y-66636388D01*
X164807388Y-67343495D01*
X164807388Y-67343495D01*
G37*
G36*
X154978612Y-54703505D02*
X155862495Y-55587388D01*
X155155388Y-56294495D01*
X154271505Y-55410612D01*
X154978612Y-54703505D01*
X154978612Y-54703505D01*
G37*
G36*
X153564398Y-56117719D02*
X154448281Y-57001602D01*
X153741174Y-57708709D01*
X152857291Y-56824826D01*
X153564398Y-56117719D01*
X153564398Y-56117719D01*
G37*
D14*
X139827000Y-49101000D03*
X139827000Y-46101000D03*
D15*
X136255000Y-51689000D03*
X134255000Y-51689000D03*
D16*
X154432000Y-45180000D03*
X154432000Y-43180000D03*
X149606000Y-47260000D03*
X149606000Y-49260000D03*
D10*
G36*
X167534398Y-54118281D02*
X168418281Y-53234398D01*
X169125388Y-53941505D01*
X168241505Y-54825388D01*
X167534398Y-54118281D01*
X167534398Y-54118281D01*
G37*
G36*
X168948612Y-55532495D02*
X169832495Y-54648612D01*
X170539602Y-55355719D01*
X169655719Y-56239602D01*
X168948612Y-55532495D01*
X168948612Y-55532495D01*
G37*
G36*
X168164281Y-61065602D02*
X167280398Y-60181719D01*
X167987505Y-59474612D01*
X168871388Y-60358495D01*
X168164281Y-61065602D01*
X168164281Y-61065602D01*
G37*
G36*
X169578495Y-59651388D02*
X168694612Y-58767505D01*
X169401719Y-58060398D01*
X170285602Y-58944281D01*
X169578495Y-59651388D01*
X169578495Y-59651388D01*
G37*
D16*
X172738166Y-46816238D03*
X172738166Y-44816238D03*
X175786166Y-46816238D03*
X175786166Y-44816238D03*
D17*
X136271000Y-44069000D03*
X132207000Y-44069000D03*
D18*
X139446000Y-43899000D03*
X139446000Y-41699000D03*
X141859000Y-43899000D03*
X141859000Y-41699000D03*
X151003000Y-56345000D03*
X151003000Y-54145000D03*
X148590000Y-56345000D03*
X148590000Y-54145000D03*
D19*
X131699000Y-48387000D03*
X134599000Y-48387000D03*
D10*
G36*
X160787121Y-67249066D02*
X160398212Y-67637975D01*
X159266841Y-66506604D01*
X159655750Y-66117695D01*
X160787121Y-67249066D01*
X160787121Y-67249066D01*
G37*
G36*
X161352806Y-66683380D02*
X160963897Y-67072289D01*
X159832526Y-65940918D01*
X160221435Y-65552009D01*
X161352806Y-66683380D01*
X161352806Y-66683380D01*
G37*
G36*
X161918492Y-66117695D02*
X161529583Y-66506604D01*
X160398212Y-65375233D01*
X160787121Y-64986324D01*
X161918492Y-66117695D01*
X161918492Y-66117695D01*
G37*
G36*
X162484177Y-65552010D02*
X162095268Y-65940919D01*
X160963897Y-64809548D01*
X161352806Y-64420639D01*
X162484177Y-65552010D01*
X162484177Y-65552010D01*
G37*
G36*
X163049863Y-64986324D02*
X162660954Y-65375233D01*
X161529583Y-64243862D01*
X161918492Y-63854953D01*
X163049863Y-64986324D01*
X163049863Y-64986324D01*
G37*
G36*
X163615548Y-64420639D02*
X163226639Y-64809548D01*
X162095268Y-63678177D01*
X162484177Y-63289268D01*
X163615548Y-64420639D01*
X163615548Y-64420639D01*
G37*
G36*
X164181233Y-63854953D02*
X163792324Y-64243862D01*
X162660953Y-63112491D01*
X163049862Y-62723582D01*
X164181233Y-63854953D01*
X164181233Y-63854953D01*
G37*
G36*
X164746919Y-63289268D02*
X164358010Y-63678177D01*
X163226639Y-62546806D01*
X163615548Y-62157897D01*
X164746919Y-63289268D01*
X164746919Y-63289268D01*
G37*
G36*
X164358010Y-60107287D02*
X164746919Y-60496196D01*
X163615548Y-61627567D01*
X163226639Y-61238658D01*
X164358010Y-60107287D01*
X164358010Y-60107287D01*
G37*
G36*
X163792324Y-59541602D02*
X164181233Y-59930511D01*
X163049862Y-61061882D01*
X162660953Y-60672973D01*
X163792324Y-59541602D01*
X163792324Y-59541602D01*
G37*
G36*
X163226639Y-58975916D02*
X163615548Y-59364825D01*
X162484177Y-60496196D01*
X162095268Y-60107287D01*
X163226639Y-58975916D01*
X163226639Y-58975916D01*
G37*
G36*
X162660954Y-58410231D02*
X163049863Y-58799140D01*
X161918492Y-59930511D01*
X161529583Y-59541602D01*
X162660954Y-58410231D01*
X162660954Y-58410231D01*
G37*
G36*
X162095268Y-57844545D02*
X162484177Y-58233454D01*
X161352806Y-59364825D01*
X160963897Y-58975916D01*
X162095268Y-57844545D01*
X162095268Y-57844545D01*
G37*
G36*
X161529583Y-57278860D02*
X161918492Y-57667769D01*
X160787121Y-58799140D01*
X160398212Y-58410231D01*
X161529583Y-57278860D01*
X161529583Y-57278860D01*
G37*
G36*
X160963897Y-56713175D02*
X161352806Y-57102084D01*
X160221435Y-58233455D01*
X159832526Y-57844546D01*
X160963897Y-56713175D01*
X160963897Y-56713175D01*
G37*
G36*
X160398212Y-56147489D02*
X160787121Y-56536398D01*
X159655750Y-57667769D01*
X159266841Y-57278860D01*
X160398212Y-56147489D01*
X160398212Y-56147489D01*
G37*
G36*
X158736511Y-57278860D02*
X158347602Y-57667769D01*
X157216231Y-56536398D01*
X157605140Y-56147489D01*
X158736511Y-57278860D01*
X158736511Y-57278860D01*
G37*
G36*
X158170826Y-57844546D02*
X157781917Y-58233455D01*
X156650546Y-57102084D01*
X157039455Y-56713175D01*
X158170826Y-57844546D01*
X158170826Y-57844546D01*
G37*
G36*
X157605140Y-58410231D02*
X157216231Y-58799140D01*
X156084860Y-57667769D01*
X156473769Y-57278860D01*
X157605140Y-58410231D01*
X157605140Y-58410231D01*
G37*
G36*
X157039455Y-58975916D02*
X156650546Y-59364825D01*
X155519175Y-58233454D01*
X155908084Y-57844545D01*
X157039455Y-58975916D01*
X157039455Y-58975916D01*
G37*
G36*
X156473769Y-59541602D02*
X156084860Y-59930511D01*
X154953489Y-58799140D01*
X155342398Y-58410231D01*
X156473769Y-59541602D01*
X156473769Y-59541602D01*
G37*
G36*
X155908084Y-60107287D02*
X155519175Y-60496196D01*
X154387804Y-59364825D01*
X154776713Y-58975916D01*
X155908084Y-60107287D01*
X155908084Y-60107287D01*
G37*
G36*
X155342399Y-60672973D02*
X154953490Y-61061882D01*
X153822119Y-59930511D01*
X154211028Y-59541602D01*
X155342399Y-60672973D01*
X155342399Y-60672973D01*
G37*
G36*
X154776713Y-61238658D02*
X154387804Y-61627567D01*
X153256433Y-60496196D01*
X153645342Y-60107287D01*
X154776713Y-61238658D01*
X154776713Y-61238658D01*
G37*
G36*
X154387804Y-62157897D02*
X154776713Y-62546806D01*
X153645342Y-63678177D01*
X153256433Y-63289268D01*
X154387804Y-62157897D01*
X154387804Y-62157897D01*
G37*
G36*
X154953490Y-62723582D02*
X155342399Y-63112491D01*
X154211028Y-64243862D01*
X153822119Y-63854953D01*
X154953490Y-62723582D01*
X154953490Y-62723582D01*
G37*
G36*
X155519175Y-63289268D02*
X155908084Y-63678177D01*
X154776713Y-64809548D01*
X154387804Y-64420639D01*
X155519175Y-63289268D01*
X155519175Y-63289268D01*
G37*
G36*
X156084860Y-63854953D02*
X156473769Y-64243862D01*
X155342398Y-65375233D01*
X154953489Y-64986324D01*
X156084860Y-63854953D01*
X156084860Y-63854953D01*
G37*
G36*
X156650546Y-64420639D02*
X157039455Y-64809548D01*
X155908084Y-65940919D01*
X155519175Y-65552010D01*
X156650546Y-64420639D01*
X156650546Y-64420639D01*
G37*
G36*
X157216231Y-64986324D02*
X157605140Y-65375233D01*
X156473769Y-66506604D01*
X156084860Y-66117695D01*
X157216231Y-64986324D01*
X157216231Y-64986324D01*
G37*
G36*
X157781917Y-65552009D02*
X158170826Y-65940918D01*
X157039455Y-67072289D01*
X156650546Y-66683380D01*
X157781917Y-65552009D01*
X157781917Y-65552009D01*
G37*
G36*
X158347602Y-66117695D02*
X158736511Y-66506604D01*
X157605140Y-67637975D01*
X157216231Y-67249066D01*
X158347602Y-66117695D01*
X158347602Y-66117695D01*
G37*
D20*
X159321000Y-45593000D03*
X164021000Y-45593000D03*
D21*
X163764000Y-54737000D03*
X161864000Y-54737000D03*
D22*
X144526000Y-41976000D03*
X144526000Y-43876000D03*
D21*
X145415000Y-49657000D03*
X147315000Y-49657000D03*
X145354000Y-47371000D03*
X147254000Y-47371000D03*
D23*
X169291000Y-48693000D03*
X169291000Y-42493000D03*
D22*
X142621000Y-48636000D03*
X142621000Y-46736000D03*
D21*
X147960000Y-64770000D03*
X149860000Y-64770000D03*
X147960000Y-67056000D03*
X149860000Y-67056000D03*
D22*
X154305000Y-69464000D03*
X154305000Y-67564000D03*
X151003000Y-58171000D03*
X151003000Y-60071000D03*
X148590000Y-58105000D03*
X148590000Y-60005000D03*
D10*
G36*
X179275619Y-64153142D02*
X180194858Y-65072381D01*
X179699883Y-65567356D01*
X178780644Y-64648117D01*
X179275619Y-64153142D01*
X179275619Y-64153142D01*
G37*
G36*
X177932117Y-65496644D02*
X178851356Y-66415883D01*
X178356381Y-66910858D01*
X177437142Y-65991619D01*
X177932117Y-65496644D01*
X177932117Y-65496644D01*
G37*
D21*
X182446962Y-68199000D03*
X184346962Y-68199000D03*
X182438000Y-65659000D03*
X184338000Y-65659000D03*
D24*
X135796000Y-57658000D03*
X135796000Y-56388000D03*
X135796000Y-55118000D03*
X135796000Y-53848000D03*
X130396000Y-53848000D03*
X130396000Y-55118000D03*
X130396000Y-56388000D03*
X130396000Y-57658000D03*
D25*
X151511000Y-43053000D03*
X150561000Y-43053000D03*
X149611000Y-43053000D03*
X149611000Y-45253000D03*
X151511000Y-45253000D03*
X150561000Y-45253000D03*
D10*
G36*
X174030096Y-63573729D02*
X173867461Y-63411094D01*
X174256370Y-63022185D01*
X174419005Y-63184820D01*
X174030096Y-63573729D01*
X174030096Y-63573729D01*
G37*
G36*
X174383649Y-63927283D02*
X174221014Y-63764648D01*
X174609923Y-63375739D01*
X174772558Y-63538374D01*
X174383649Y-63927283D01*
X174383649Y-63927283D01*
G37*
G36*
X174737203Y-64280836D02*
X174574568Y-64118201D01*
X174963477Y-63729292D01*
X175126112Y-63891927D01*
X174737203Y-64280836D01*
X174737203Y-64280836D01*
G37*
G36*
X175090756Y-64634390D02*
X174928121Y-64471755D01*
X175317030Y-64082846D01*
X175479665Y-64245481D01*
X175090756Y-64634390D01*
X175090756Y-64634390D01*
G37*
G36*
X175444310Y-64987943D02*
X175281675Y-64825308D01*
X175670584Y-64436399D01*
X175833219Y-64599034D01*
X175444310Y-64987943D01*
X175444310Y-64987943D01*
G37*
G36*
X176695888Y-64987943D02*
X176306979Y-64599034D01*
X176469614Y-64436399D01*
X176858523Y-64825308D01*
X176695888Y-64987943D01*
X176695888Y-64987943D01*
G37*
G36*
X177049442Y-64634390D02*
X176660533Y-64245481D01*
X176823168Y-64082846D01*
X177212077Y-64471755D01*
X177049442Y-64634390D01*
X177049442Y-64634390D01*
G37*
G36*
X177402995Y-64280836D02*
X177014086Y-63891927D01*
X177176721Y-63729292D01*
X177565630Y-64118201D01*
X177402995Y-64280836D01*
X177402995Y-64280836D01*
G37*
G36*
X177756549Y-63927283D02*
X177367640Y-63538374D01*
X177530275Y-63375739D01*
X177919184Y-63764648D01*
X177756549Y-63927283D01*
X177756549Y-63927283D01*
G37*
G36*
X178110102Y-63573729D02*
X177721193Y-63184820D01*
X177883828Y-63022185D01*
X178272737Y-63411094D01*
X178110102Y-63573729D01*
X178110102Y-63573729D01*
G37*
G36*
X177883828Y-62548425D02*
X177721193Y-62385790D01*
X178110102Y-61996881D01*
X178272737Y-62159516D01*
X177883828Y-62548425D01*
X177883828Y-62548425D01*
G37*
G36*
X177530275Y-62194871D02*
X177367640Y-62032236D01*
X177756549Y-61643327D01*
X177919184Y-61805962D01*
X177530275Y-62194871D01*
X177530275Y-62194871D01*
G37*
G36*
X177176721Y-61841318D02*
X177014086Y-61678683D01*
X177402995Y-61289774D01*
X177565630Y-61452409D01*
X177176721Y-61841318D01*
X177176721Y-61841318D01*
G37*
G36*
X176823168Y-61487764D02*
X176660533Y-61325129D01*
X177049442Y-60936220D01*
X177212077Y-61098855D01*
X176823168Y-61487764D01*
X176823168Y-61487764D01*
G37*
G36*
X176469614Y-61134211D02*
X176306979Y-60971576D01*
X176695888Y-60582667D01*
X176858523Y-60745302D01*
X176469614Y-61134211D01*
X176469614Y-61134211D01*
G37*
G36*
X175670584Y-61134211D02*
X175281675Y-60745302D01*
X175444310Y-60582667D01*
X175833219Y-60971576D01*
X175670584Y-61134211D01*
X175670584Y-61134211D01*
G37*
G36*
X175317030Y-61487764D02*
X174928121Y-61098855D01*
X175090756Y-60936220D01*
X175479665Y-61325129D01*
X175317030Y-61487764D01*
X175317030Y-61487764D01*
G37*
G36*
X174963477Y-61841318D02*
X174574568Y-61452409D01*
X174737203Y-61289774D01*
X175126112Y-61678683D01*
X174963477Y-61841318D01*
X174963477Y-61841318D01*
G37*
G36*
X174609923Y-62194871D02*
X174221014Y-61805962D01*
X174383649Y-61643327D01*
X174772558Y-62032236D01*
X174609923Y-62194871D01*
X174609923Y-62194871D01*
G37*
G36*
X174256370Y-62548425D02*
X173867461Y-62159516D01*
X174030096Y-61996881D01*
X174419005Y-62385790D01*
X174256370Y-62548425D01*
X174256370Y-62548425D01*
G37*
G36*
X176070099Y-64305585D02*
X174549819Y-62785305D01*
X176070099Y-61265025D01*
X177590379Y-62785305D01*
X176070099Y-64305585D01*
X176070099Y-64305585D01*
G37*
G36*
X173803822Y-63092896D02*
X173496231Y-62785305D01*
X173803822Y-62477714D01*
X174111413Y-62785305D01*
X173803822Y-63092896D01*
X173803822Y-63092896D01*
G37*
G36*
X166807757Y-55039380D02*
X167656285Y-55887908D01*
X166666335Y-56877858D01*
X165817807Y-56029330D01*
X166807757Y-55039380D01*
X166807757Y-55039380D01*
G37*
G36*
X165252122Y-56595015D02*
X166100650Y-57443543D01*
X165110700Y-58433493D01*
X164262172Y-57584965D01*
X165252122Y-56595015D01*
X165252122Y-56595015D01*
G37*
G36*
X166383493Y-57726386D02*
X167232021Y-58574914D01*
X166242071Y-59564864D01*
X165393543Y-58716336D01*
X166383493Y-57726386D01*
X166383493Y-57726386D01*
G37*
G36*
X167939128Y-56170751D02*
X168787656Y-57019279D01*
X167797706Y-58009229D01*
X166949178Y-57160701D01*
X167939128Y-56170751D01*
X167939128Y-56170751D01*
G37*
D22*
X137033000Y-49271000D03*
X137033000Y-47371000D03*
D26*
X175194000Y-48657000D03*
X173294000Y-48657000D03*
X174244000Y-50657000D03*
D11*
X183388000Y-59309000D03*
X183388000Y-56769000D03*
X183388000Y-54229000D03*
X185928000Y-55499000D03*
X185928000Y-58039000D03*
X185928000Y-60579000D03*
D27*
X132461000Y-64643000D03*
X162814000Y-55118000D03*
X161925000Y-61087000D03*
X158242000Y-64770000D03*
X156845000Y-67945000D03*
X131826000Y-57658000D03*
X133096000Y-51689000D03*
X137160000Y-56388000D03*
X147320000Y-54102000D03*
X175260000Y-50673000D03*
X177165000Y-44831000D03*
X151511000Y-41910000D03*
X150876000Y-49276000D03*
X152781000Y-57658000D03*
X165608000Y-65786000D03*
X170688000Y-54483000D03*
X171450000Y-65532000D03*
X141224000Y-46101000D03*
X138176000Y-41656000D03*
X136271000Y-45720000D03*
X178943000Y-51054000D03*
X178943000Y-53213000D03*
X178943000Y-59309000D03*
X178943000Y-63246000D03*
X128778000Y-58928000D03*
X126873000Y-57023000D03*
X129603500Y-58737500D03*
X126873000Y-55880000D03*
X157607000Y-72517000D03*
X160909000Y-68961000D03*
X161290000Y-63754000D03*
X158877000Y-67691000D03*
X160782000Y-63119000D03*
X158115000Y-68199000D03*
X160909000Y-61087000D03*
X172720000Y-62992000D03*
X136271000Y-71247000D03*
X137922000Y-73025000D03*
X153924000Y-65151000D03*
X151638000Y-62865000D03*
X153289000Y-65786000D03*
X151003000Y-63500000D03*
X149987000Y-68834000D03*
X134620000Y-69596000D03*
X140716000Y-69596000D03*
X133985000Y-70231000D03*
X139827000Y-70231000D03*
D28*
X160381000Y-51054000D02*
X143764000Y-51054000D01*
X143764000Y-51054000D02*
X142621000Y-49911000D01*
X163764000Y-54737000D02*
X163764000Y-54437000D01*
X163764000Y-54437000D02*
X160381000Y-51054000D01*
X133477000Y-59944000D02*
X132461000Y-60960000D01*
X132461000Y-60960000D02*
X132461000Y-64643000D01*
X133985000Y-59944000D02*
X133477000Y-59944000D01*
X134741599Y-59187401D02*
X133985000Y-59944000D01*
X134741599Y-54538599D02*
X134741599Y-59187401D01*
X136255000Y-51689000D02*
X140843000Y-51689000D01*
X140843000Y-51689000D02*
X142621000Y-49911000D01*
X142621000Y-49911000D02*
X142621000Y-49240000D01*
X142621000Y-49240000D02*
X142621000Y-48636000D01*
X135618000Y-52451000D02*
X135475599Y-52593401D01*
X135475599Y-52593401D02*
X122920599Y-52593401D01*
X122920599Y-52593401D02*
X122651198Y-52324000D01*
X122651198Y-52324000D02*
X122047000Y-52324000D01*
X135618000Y-52451000D02*
X134741599Y-53327401D01*
X136255000Y-51814000D02*
X135618000Y-52451000D01*
X136255000Y-51689000D02*
X136255000Y-51814000D01*
X134741599Y-53327401D02*
X134741599Y-54538599D01*
X163195000Y-54737000D02*
X163764000Y-54737000D01*
X162814000Y-55118000D02*
X163195000Y-54737000D01*
X158750000Y-64262000D02*
X158877000Y-64135000D01*
X158242000Y-64770000D02*
X158750000Y-64262000D01*
X158750000Y-64262000D02*
X161925000Y-61087000D01*
X158877000Y-64135000D02*
X160622897Y-64135000D01*
X160622897Y-64135000D02*
X161726361Y-65238464D01*
X154305000Y-69464000D02*
X155326000Y-69464000D01*
X155326000Y-69464000D02*
X156845000Y-67945000D01*
D29*
X164622000Y-54737000D02*
X167386000Y-51973000D01*
X167386000Y-51973000D02*
X169291000Y-50068000D01*
X188468000Y-54229000D02*
X186212000Y-51973000D01*
X186212000Y-51973000D02*
X167386000Y-51973000D01*
X191389000Y-54229000D02*
X188468000Y-54229000D01*
X163764000Y-54737000D02*
X164622000Y-54737000D01*
X169291000Y-50068000D02*
X169291000Y-49701000D01*
X169291000Y-49701000D02*
X169291000Y-48693000D01*
D28*
X135796000Y-55118000D02*
X135321000Y-55118000D01*
X135321000Y-55118000D02*
X134741599Y-54538599D01*
X163304786Y-67962214D02*
X163304786Y-66816889D01*
X163304786Y-66816889D02*
X161726361Y-65238464D01*
D29*
X173294000Y-48657000D02*
X173294000Y-47372072D01*
X173294000Y-47372072D02*
X172738166Y-46816238D01*
X172738166Y-46816238D02*
X171167762Y-46816238D01*
X171167762Y-46816238D02*
X169291000Y-48693000D01*
D28*
X130396000Y-57658000D02*
X131826000Y-57658000D01*
X134255000Y-51689000D02*
X133096000Y-51689000D01*
X135796000Y-56388000D02*
X137160000Y-56388000D01*
X148590000Y-54145000D02*
X147363000Y-54145000D01*
X147363000Y-54145000D02*
X147320000Y-54102000D01*
X174244000Y-50657000D02*
X175244000Y-50657000D01*
X175244000Y-50657000D02*
X175260000Y-50673000D01*
X175786166Y-44816238D02*
X177150238Y-44816238D01*
X177150238Y-44816238D02*
X177165000Y-44831000D01*
X151511000Y-43053000D02*
X151511000Y-41910000D01*
X149606000Y-49260000D02*
X150860000Y-49260000D01*
X150860000Y-49260000D02*
X150876000Y-49276000D01*
X153652786Y-56913214D02*
X153525786Y-56913214D01*
X153525786Y-56913214D02*
X152781000Y-57658000D01*
X164719000Y-66548000D02*
X164846000Y-66548000D01*
X164846000Y-66548000D02*
X165608000Y-65786000D01*
X169744107Y-55444107D02*
X169744107Y-55426893D01*
X169744107Y-55426893D02*
X170688000Y-54483000D01*
X172393893Y-64697893D02*
X172284107Y-64697893D01*
X172284107Y-64697893D02*
X171450000Y-65532000D01*
X139827000Y-46101000D02*
X141224000Y-46101000D01*
X139446000Y-41699000D02*
X138219000Y-41699000D01*
X138219000Y-41699000D02*
X138176000Y-41656000D01*
X136271000Y-44069000D02*
X136271000Y-45720000D01*
X174496786Y-63651511D02*
X175362992Y-62785305D01*
X175362992Y-62785305D02*
X176070099Y-62785305D01*
X172393893Y-64697893D02*
X173450404Y-64697893D01*
X173450404Y-64697893D02*
X174496786Y-63651511D01*
X164719000Y-66548000D02*
X164206349Y-66035349D01*
X164206349Y-66035349D02*
X163654618Y-66035349D01*
X163654618Y-66035349D02*
X162928442Y-65309173D01*
X162928442Y-65309173D02*
X162292047Y-64672778D01*
X167868417Y-57089990D02*
X166919889Y-57089990D01*
X166919889Y-57089990D02*
X166605879Y-57404000D01*
X166605879Y-57404000D02*
X166243000Y-57404000D01*
X166243000Y-57404000D02*
X166132746Y-57514254D01*
X166132746Y-57514254D02*
X165181411Y-57514254D01*
X169744107Y-55444107D02*
X168098224Y-57089990D01*
X168098224Y-57089990D02*
X167868417Y-57089990D01*
X169490107Y-58855893D02*
X169490107Y-58711680D01*
X169490107Y-58711680D02*
X167868417Y-57089990D01*
X156281639Y-58662370D02*
X154532483Y-56913214D01*
X154532483Y-56913214D02*
X153652786Y-56913214D01*
X151003000Y-54145000D02*
X148590000Y-54145000D01*
D29*
X172738166Y-44816238D02*
X175786166Y-44816238D01*
X147315000Y-49657000D02*
X149209000Y-49657000D01*
X149209000Y-49657000D02*
X149606000Y-49260000D01*
D30*
X139446000Y-41699000D02*
X141859000Y-41699000D01*
D28*
X156845000Y-58039000D02*
X156789639Y-58039000D01*
X156789639Y-58039000D02*
X156210929Y-57460290D01*
X161864000Y-54737000D02*
X157734000Y-54737000D01*
X157734000Y-54737000D02*
X156210929Y-56260071D01*
X155067000Y-56316361D02*
X155067000Y-55499000D01*
X156210929Y-56260071D02*
X156210929Y-57460290D01*
X156210929Y-57460290D02*
X155067000Y-56316361D01*
D29*
X134620000Y-42545000D02*
X136472401Y-40692599D01*
X136472401Y-40692599D02*
X142942599Y-40692599D01*
X142942599Y-40692599D02*
X144226000Y-41976000D01*
X144226000Y-41976000D02*
X144526000Y-41976000D01*
X134620000Y-46608000D02*
X134620000Y-42545000D01*
X134599000Y-48387000D02*
X134599000Y-46629000D01*
X134599000Y-46629000D02*
X134620000Y-46608000D01*
X144526000Y-41976000D02*
X148739000Y-41976000D01*
X148739000Y-41976000D02*
X149611000Y-42848000D01*
X149611000Y-42848000D02*
X149611000Y-43053000D01*
D30*
X137033000Y-49271000D02*
X139657000Y-49271000D01*
X139657000Y-49271000D02*
X139827000Y-49101000D01*
X137033000Y-49271000D02*
X135483000Y-49271000D01*
X135483000Y-49271000D02*
X134599000Y-48387000D01*
D29*
X151511000Y-45253000D02*
X154359000Y-45253000D01*
X154359000Y-45253000D02*
X154432000Y-45180000D01*
X154432000Y-43180000D02*
X156908000Y-43180000D01*
X156908000Y-43180000D02*
X159321000Y-45593000D01*
X150561000Y-43689522D02*
X150561000Y-43053000D01*
X153299000Y-43180000D02*
X152489599Y-43989401D01*
X154432000Y-43180000D02*
X153299000Y-43180000D01*
X152489599Y-43989401D02*
X150860879Y-43989401D01*
X150860879Y-43989401D02*
X150561000Y-43689522D01*
X169291000Y-42493000D02*
X167121000Y-42493000D01*
X167121000Y-42493000D02*
X164021000Y-45593000D01*
X154305000Y-47244000D02*
X157262000Y-50201000D01*
X157262000Y-50201000D02*
X161863000Y-50201000D01*
X161863000Y-50201000D02*
X164021000Y-48043000D01*
X164021000Y-48043000D02*
X164021000Y-45593000D01*
X149747000Y-47244000D02*
X154305000Y-47244000D01*
X149606000Y-47260000D02*
X149731000Y-47260000D01*
X149731000Y-47260000D02*
X149747000Y-47244000D01*
X147254000Y-47371000D02*
X149495000Y-47371000D01*
X149495000Y-47371000D02*
X149606000Y-47260000D01*
D28*
X166737046Y-55958619D02*
X165493370Y-55958619D01*
X165493370Y-55958619D02*
X163494127Y-57957862D01*
X163494127Y-59157346D02*
X162857732Y-59793741D01*
X163494127Y-57957862D02*
X163494127Y-59157346D01*
X168329893Y-54029893D02*
X166737046Y-55622740D01*
X166737046Y-55622740D02*
X166737046Y-55958619D01*
X163423417Y-60359427D02*
X164059812Y-59723032D01*
X164059812Y-59723032D02*
X165235375Y-59723032D01*
X165235375Y-59723032D02*
X165747097Y-59211310D01*
X165747097Y-59211310D02*
X166312782Y-58645625D01*
X168075893Y-60270107D02*
X167937264Y-60270107D01*
X167937264Y-60270107D02*
X166312782Y-58645625D01*
X175641000Y-66675000D02*
X175078107Y-66112107D01*
X175078107Y-66112107D02*
X173808107Y-66112107D01*
X177419000Y-66675000D02*
X175641000Y-66675000D01*
X178943000Y-68199000D02*
X177419000Y-66675000D01*
X182446962Y-68199000D02*
X178943000Y-68199000D01*
D29*
X178943000Y-49911000D02*
X177689000Y-48657000D01*
X177689000Y-48657000D02*
X175194000Y-48657000D01*
X178943000Y-51054000D02*
X178943000Y-49911000D01*
X178943000Y-58877948D02*
X178943000Y-53213000D01*
X178943000Y-59309000D02*
X178943000Y-58877948D01*
X179487751Y-64860249D02*
X179487751Y-63790751D01*
X179487751Y-63790751D02*
X178943000Y-63246000D01*
D28*
X179487751Y-64860249D02*
X180811249Y-64860249D01*
X180811249Y-64860249D02*
X181610000Y-65659000D01*
X181610000Y-65659000D02*
X182438000Y-65659000D01*
X182438000Y-65659000D02*
X182438000Y-68190038D01*
X182438000Y-68190038D02*
X182446962Y-68199000D01*
X173808107Y-66112107D02*
X173808107Y-65047297D01*
X173808107Y-65047297D02*
X174850340Y-64005064D01*
X182438000Y-68063038D02*
X182446962Y-68072000D01*
D29*
X175194000Y-48657000D02*
X175194000Y-47408404D01*
X175194000Y-47408404D02*
X175786166Y-46816238D01*
D30*
X131699000Y-48387000D02*
X131699000Y-44577000D01*
X131699000Y-44577000D02*
X132207000Y-44069000D01*
X122047000Y-49784000D02*
X127762000Y-44069000D01*
X127762000Y-44069000D02*
X132207000Y-44069000D01*
X137033000Y-47371000D02*
X137033000Y-46312000D01*
X137033000Y-46312000D02*
X139446000Y-43899000D01*
D29*
X142621000Y-46736000D02*
X142621000Y-44661000D01*
X142621000Y-44661000D02*
X141859000Y-43899000D01*
D28*
X151003000Y-56345000D02*
X151003000Y-58171000D01*
X148590000Y-56345000D02*
X148590000Y-58105000D01*
X132778500Y-65786000D02*
X133096000Y-65786000D01*
X133096000Y-65786000D02*
X133731000Y-66421000D01*
X132270499Y-65277999D02*
X132778500Y-65786000D01*
X128778000Y-63944500D02*
X130111499Y-65277999D01*
X130111499Y-65277999D02*
X132270499Y-65277999D01*
X128778000Y-58928000D02*
X128778000Y-63944500D01*
X133223000Y-66421000D02*
X133731000Y-66421000D01*
X122047000Y-54864000D02*
X124692514Y-54864000D01*
X126851514Y-57023000D02*
X126873000Y-57023000D01*
X124692514Y-54864000D02*
X126851514Y-57023000D01*
X157353000Y-71882000D02*
X122047000Y-71882000D01*
X120269000Y-56642000D02*
X122047000Y-54864000D01*
X120269000Y-70104000D02*
X120269000Y-56642000D01*
X122047000Y-71882000D02*
X120269000Y-70104000D01*
X160029305Y-69205695D02*
X157353000Y-71882000D01*
X164465000Y-70231000D02*
X172497696Y-62198304D01*
X172497696Y-62198304D02*
X174068884Y-62198304D01*
X174068884Y-62198304D02*
X174143233Y-62272653D01*
X161036000Y-70231000D02*
X164465000Y-70231000D01*
X160029305Y-69224305D02*
X161036000Y-70231000D01*
X160029305Y-69205695D02*
X160029305Y-69224305D01*
X160029305Y-66935520D02*
X160029305Y-69205695D01*
X129603500Y-58737500D02*
X129603500Y-62293500D01*
X129603500Y-62293500D02*
X131191000Y-63881000D01*
X124587000Y-53594000D02*
X126873000Y-55880000D01*
X121539000Y-53594000D02*
X124587000Y-53594000D01*
X119761000Y-70231000D02*
X119761000Y-55372000D01*
X157353000Y-72390000D02*
X121920000Y-72390000D01*
X121920000Y-72390000D02*
X119761000Y-70231000D01*
X157480000Y-72517000D02*
X157353000Y-72390000D01*
X119761000Y-55372000D02*
X121539000Y-53594000D01*
X157607000Y-72517000D02*
X157480000Y-72517000D01*
X161231385Y-68638615D02*
X160909000Y-68961000D01*
X164338000Y-69723000D02*
X172407065Y-61653935D01*
X172407065Y-61653935D02*
X174231622Y-61653935D01*
X174231622Y-61653935D02*
X174496786Y-61919099D01*
X162306000Y-69723000D02*
X164338000Y-69723000D01*
X161231385Y-68648385D02*
X162306000Y-69723000D01*
X161231385Y-68638615D02*
X161231385Y-68648385D01*
X160594990Y-66369834D02*
X161231385Y-67006229D01*
X161231385Y-67006229D02*
X161231385Y-68638615D01*
X161290000Y-63627000D02*
X161290000Y-63754000D01*
X161573302Y-63470698D02*
X161446302Y-63470698D01*
X161446302Y-63470698D02*
X161290000Y-63627000D01*
X158877000Y-67691000D02*
X158877000Y-69723000D01*
X158877000Y-69723000D02*
X157226000Y-71374000D01*
X136779000Y-58674000D02*
X135796000Y-57691000D01*
X157226000Y-71374000D02*
X139446000Y-71374000D01*
X139446000Y-71374000D02*
X136779000Y-68707000D01*
X136779000Y-68707000D02*
X136779000Y-58674000D01*
X135796000Y-57691000D02*
X135796000Y-57658000D01*
X162857732Y-64107093D02*
X162221337Y-63470698D01*
X162221337Y-63470698D02*
X161573302Y-63470698D01*
X137795000Y-55372000D02*
X137795000Y-58166000D01*
X137795000Y-58166000D02*
X137287000Y-58674000D01*
X136271000Y-53848000D02*
X137795000Y-55372000D01*
X137287000Y-58674000D02*
X137287000Y-68580000D01*
X161122988Y-62905012D02*
X160995988Y-62905012D01*
X160995988Y-62905012D02*
X160782000Y-63119000D01*
X158115000Y-68199000D02*
X158115000Y-69850000D01*
X158115000Y-69850000D02*
X157099000Y-70866000D01*
X157099000Y-70866000D02*
X139573000Y-70866000D01*
X139573000Y-70866000D02*
X137287000Y-68580000D01*
X136271000Y-53848000D02*
X135796000Y-53848000D01*
X163423417Y-63541407D02*
X162787022Y-62905012D01*
X162787022Y-62905012D02*
X161122988Y-62905012D01*
X163989103Y-62975722D02*
X169688278Y-62975722D01*
X169688278Y-62975722D02*
X172085000Y-60579000D01*
X172085000Y-60579000D02*
X174371000Y-60579000D01*
X174371000Y-60579000D02*
X175641000Y-59309000D01*
X175641000Y-59309000D02*
X177292000Y-59309000D01*
X177292000Y-59309000D02*
X181483000Y-63500000D01*
X181483000Y-63500000D02*
X187960000Y-63500000D01*
X190881000Y-60579000D02*
X193929000Y-60579000D01*
X187960000Y-63500000D02*
X190881000Y-60579000D01*
X193294000Y-60579000D02*
X193929000Y-60579000D01*
X163989103Y-60925112D02*
X165547991Y-62484000D01*
X174117000Y-60071000D02*
X175387000Y-58801000D01*
X165547991Y-62484000D02*
X169545000Y-62484000D01*
X169545000Y-62484000D02*
X171958000Y-60071000D01*
X175387000Y-58801000D02*
X177419000Y-58801000D01*
X171958000Y-60071000D02*
X174117000Y-60071000D01*
X177419000Y-58801000D02*
X181610000Y-62992000D01*
X189865000Y-58928000D02*
X190754000Y-58039000D01*
X181610000Y-62992000D02*
X187706000Y-62992000D01*
X187706000Y-62992000D02*
X189865000Y-60833000D01*
X189865000Y-60833000D02*
X189865000Y-58928000D01*
X190754000Y-58039000D02*
X193929000Y-58039000D01*
X160909000Y-61087000D02*
X160909000Y-60611103D01*
X160909000Y-60611103D02*
X162292047Y-59228056D01*
X173609000Y-63563121D02*
X171767879Y-63563121D01*
X173878069Y-63563121D02*
X173609000Y-63563121D01*
X173609000Y-63563121D02*
X173291121Y-63563121D01*
X173291121Y-63563121D02*
X172720000Y-62992000D01*
X164592000Y-70739000D02*
X160401000Y-70739000D01*
X157861000Y-73152000D02*
X138049000Y-73152000D01*
X160401000Y-70739000D02*
X160274000Y-70739000D01*
X160274000Y-70739000D02*
X157861000Y-73152000D01*
X168402000Y-66929000D02*
X164592000Y-70739000D01*
X136271000Y-71247000D02*
X133858000Y-71247000D01*
X133858000Y-71247000D02*
X133731000Y-71374000D01*
X138049000Y-73152000D02*
X137922000Y-73025000D01*
X171767879Y-63563121D02*
X168402000Y-66929000D01*
X174143233Y-63297957D02*
X173878069Y-63563121D01*
X133731000Y-71374000D02*
X122174000Y-71374000D01*
X136271000Y-68834000D02*
X133731000Y-71374000D01*
X122174000Y-71374000D02*
X120777000Y-69977000D01*
X120777000Y-56896000D02*
X121539000Y-56134000D01*
X121539000Y-56134000D02*
X124587000Y-56134000D01*
X120777000Y-69977000D02*
X120777000Y-56896000D01*
X136271000Y-66421000D02*
X136271000Y-68834000D01*
X133731000Y-63881000D02*
X136271000Y-66421000D01*
X185968401Y-52537599D02*
X190199802Y-56769000D01*
X190199802Y-56769000D02*
X191389000Y-56769000D01*
X163889081Y-56328919D02*
X167680401Y-52537599D01*
X167680401Y-52537599D02*
X185968401Y-52537599D01*
X160029305Y-56965314D02*
X160665700Y-56328919D01*
X160665700Y-56328919D02*
X163889081Y-56328919D01*
X149860000Y-64770000D02*
X150685500Y-64770000D01*
X154018897Y-61436603D02*
X154018897Y-60925112D01*
X150685500Y-64770000D02*
X154018897Y-61436603D01*
X149860000Y-67056000D02*
X151069990Y-67056000D01*
X151069990Y-67056000D02*
X154584583Y-63541407D01*
X153924000Y-65151000D02*
X154106361Y-65151000D01*
X154106361Y-65151000D02*
X155150268Y-64107093D01*
X151003000Y-60675000D02*
X151003000Y-62230000D01*
X151003000Y-62230000D02*
X151638000Y-62865000D01*
X151003000Y-60071000D02*
X151003000Y-60675000D01*
X153289000Y-65786000D02*
X154602731Y-65786000D01*
X154602731Y-65786000D02*
X155715953Y-64672778D01*
X148590000Y-60609000D02*
X148590000Y-61087000D01*
X148590000Y-61087000D02*
X151003000Y-63500000D01*
X148590000Y-60005000D02*
X148590000Y-60609000D01*
X154305000Y-67564000D02*
X154005000Y-67564000D01*
X154005000Y-67564000D02*
X152735000Y-68834000D01*
X152735000Y-68834000D02*
X149987000Y-68834000D01*
X154305000Y-67564000D02*
X156218844Y-67564000D01*
X156218844Y-67564000D02*
X157413010Y-66369834D01*
X184338000Y-65659000D02*
X190119000Y-65659000D01*
X190119000Y-65659000D02*
X191389000Y-64389000D01*
X175203893Y-61211992D02*
X174991587Y-60999686D01*
X174991587Y-60999686D02*
X174991587Y-60640243D01*
X174991587Y-60640243D02*
X175814830Y-59817000D01*
X175814830Y-59817000D02*
X177038000Y-59817000D01*
X177038000Y-59817000D02*
X181229000Y-64008000D01*
X181229000Y-64008000D02*
X183134000Y-64008000D01*
X184338000Y-65212000D02*
X184338000Y-65659000D01*
X183134000Y-64008000D02*
X184338000Y-65212000D01*
X191262000Y-64516000D02*
X191389000Y-64389000D01*
X184346962Y-67899000D02*
X186078962Y-66167000D01*
X186078962Y-66167000D02*
X193421000Y-66167000D01*
X193548000Y-66040000D02*
X193929000Y-65659000D01*
X193421000Y-66167000D02*
X193548000Y-66040000D01*
X175557447Y-60858439D02*
X176112629Y-60303257D01*
X176112629Y-60303257D02*
X176889257Y-60303257D01*
X183388000Y-65024000D02*
X183388000Y-66940038D01*
X183388000Y-66940038D02*
X184346962Y-67899000D01*
X176889257Y-60303257D02*
X181102000Y-64516000D01*
X181102000Y-64516000D02*
X182880000Y-64516000D01*
X182880000Y-64516000D02*
X183388000Y-65024000D01*
X184346962Y-67899000D02*
X184346962Y-68199000D01*
X126365000Y-59944000D02*
X122047000Y-59944000D01*
X130396000Y-56388000D02*
X129921000Y-56388000D01*
X129921000Y-56388000D02*
X126365000Y-59944000D01*
X129921000Y-55118000D02*
X126365000Y-58674000D01*
X126365000Y-58674000D02*
X124587000Y-58674000D01*
X130396000Y-55118000D02*
X129921000Y-55118000D01*
X123444000Y-67310000D02*
X123444000Y-62357000D01*
X123444000Y-62357000D02*
X124587000Y-61214000D01*
X125730000Y-69596000D02*
X123444000Y-67310000D01*
X134620000Y-69596000D02*
X125730000Y-69596000D01*
X147960000Y-69210000D02*
X147574000Y-69596000D01*
X147574000Y-69596000D02*
X140716000Y-69596000D01*
X147960000Y-67056000D02*
X147960000Y-69210000D01*
X147960000Y-64770000D02*
X147960000Y-64775000D01*
X147960000Y-64775000D02*
X148844000Y-65659000D01*
X148844000Y-65659000D02*
X148844000Y-69215000D01*
X148844000Y-69215000D02*
X147828000Y-70231000D01*
X147828000Y-70231000D02*
X139827000Y-70231000D01*
X122047000Y-62484000D02*
X122976401Y-63413401D01*
X122976401Y-63413401D02*
X122976401Y-67477401D01*
X122976401Y-67477401D02*
X125730000Y-70231000D01*
X125730000Y-70231000D02*
X133985000Y-70231000D01*
D29*
X150133516Y-44196000D02*
X146004000Y-44196000D01*
X150561000Y-45253000D02*
X150561000Y-44623484D01*
X145684000Y-43876000D02*
X144526000Y-43876000D01*
X146004000Y-44196000D02*
X145684000Y-43876000D01*
X150561000Y-44623484D02*
X150133516Y-44196000D01*
X145354000Y-47371000D02*
X145354000Y-46213000D01*
X145354000Y-46213000D02*
X146314000Y-45253000D01*
X146314000Y-45253000D02*
X148778000Y-45253000D01*
X148778000Y-45253000D02*
X149611000Y-45253000D01*
D30*
X145354000Y-47371000D02*
X145354000Y-49596000D01*
X145354000Y-49596000D02*
X145415000Y-49657000D01*
D28*
X175804751Y-66203751D02*
X174938729Y-65337729D01*
X174938729Y-65337729D02*
X174938729Y-64623782D01*
X174938729Y-64623782D02*
X175203893Y-64358618D01*
X178144249Y-66203751D02*
X175804751Y-66203751D01*
X172212000Y-61150500D02*
X164084000Y-69278500D01*
X162941000Y-69278500D02*
X164084000Y-69278500D01*
X161797071Y-68134571D02*
X162941000Y-69278500D01*
X161797071Y-66440544D02*
X161797071Y-68134571D01*
X174850340Y-61565546D02*
X174435294Y-61150500D01*
X174435294Y-61150500D02*
X172212000Y-61150500D01*
X161797071Y-66440544D02*
X161160676Y-65804149D01*
M02*
