G04 #@! TF.FileFunction,Legend,Top*
%FSLAX46Y46*%
G04 Gerber Fmt 4.6, Leading zero omitted, Abs format (unit mm)*
G04 Created by KiCad (PCBNEW 4.0.7-e2-6376~58~ubuntu16.04.1) date Thu Mar  1 20:25:12 2018*
%MOMM*%
%LPD*%
G01*
G04 APERTURE LIST*
%ADD10C,0.100000*%
%ADD11C,0.200000*%
%ADD12C,0.300000*%
%ADD13C,0.150000*%
%ADD14C,0.010000*%
G04 APERTURE END LIST*
D10*
D11*
X75961240Y-51409600D02*
X74945240Y-50393600D01*
X78501240Y-51409600D02*
X75961240Y-51409600D01*
X85359240Y-51409600D02*
X86375240Y-50393600D01*
X82819240Y-51409600D02*
X85359240Y-51409600D01*
D12*
X79858669Y-52088171D02*
X79001526Y-52088171D01*
X79430098Y-52088171D02*
X79430098Y-50588171D01*
X79287241Y-50802457D01*
X79144383Y-50945314D01*
X79001526Y-51016743D01*
X80430097Y-50731029D02*
X80501526Y-50659600D01*
X80644383Y-50588171D01*
X81001526Y-50588171D01*
X81144383Y-50659600D01*
X81215812Y-50731029D01*
X81287240Y-50873886D01*
X81287240Y-51016743D01*
X81215812Y-51231029D01*
X80358669Y-52088171D01*
X81287240Y-52088171D01*
X81715811Y-50588171D02*
X82215811Y-52088171D01*
X82715811Y-50588171D01*
D11*
X109489240Y-51409600D02*
X110505240Y-50393600D01*
X101361240Y-51409600D02*
X109489240Y-51409600D01*
X88153240Y-51409600D02*
X87137240Y-50393600D01*
X91709240Y-51409600D02*
X88153240Y-51409600D01*
X96281240Y-51409600D02*
X91709240Y-51409600D01*
D12*
X97678383Y-50659600D02*
X97535526Y-50588171D01*
X97321240Y-50588171D01*
X97106955Y-50659600D01*
X96964097Y-50802457D01*
X96892669Y-50945314D01*
X96821240Y-51231029D01*
X96821240Y-51445314D01*
X96892669Y-51731029D01*
X96964097Y-51873886D01*
X97106955Y-52016743D01*
X97321240Y-52088171D01*
X97464097Y-52088171D01*
X97678383Y-52016743D01*
X97749812Y-51945314D01*
X97749812Y-51445314D01*
X97464097Y-51445314D01*
X98392669Y-52088171D02*
X98392669Y-50588171D01*
X99249812Y-52088171D01*
X99249812Y-50588171D01*
X99964098Y-52088171D02*
X99964098Y-50588171D01*
X100321241Y-50588171D01*
X100535526Y-50659600D01*
X100678384Y-50802457D01*
X100749812Y-50945314D01*
X100821241Y-51231029D01*
X100821241Y-51445314D01*
X100749812Y-51731029D01*
X100678384Y-51873886D01*
X100535526Y-52016743D01*
X100321241Y-52088171D01*
X99964098Y-52088171D01*
X36904955Y-86608457D02*
X37119241Y-86679886D01*
X37190669Y-86751314D01*
X37262098Y-86894171D01*
X37262098Y-87108457D01*
X37190669Y-87251314D01*
X37119241Y-87322743D01*
X36976383Y-87394171D01*
X36404955Y-87394171D01*
X36404955Y-85894171D01*
X36904955Y-85894171D01*
X37047812Y-85965600D01*
X37119241Y-86037029D01*
X37190669Y-86179886D01*
X37190669Y-86322743D01*
X37119241Y-86465600D01*
X37047812Y-86537029D01*
X36904955Y-86608457D01*
X36404955Y-86608457D01*
X37904955Y-87394171D02*
X37904955Y-85894171D01*
X38404955Y-86965600D01*
X38904955Y-85894171D01*
X38904955Y-87394171D01*
X39547812Y-87322743D02*
X39762098Y-87394171D01*
X40119241Y-87394171D01*
X40262098Y-87322743D01*
X40333527Y-87251314D01*
X40404955Y-87108457D01*
X40404955Y-86965600D01*
X40333527Y-86822743D01*
X40262098Y-86751314D01*
X40119241Y-86679886D01*
X39833527Y-86608457D01*
X39690669Y-86537029D01*
X39619241Y-86465600D01*
X39547812Y-86322743D01*
X39547812Y-86179886D01*
X39619241Y-86037029D01*
X39690669Y-85965600D01*
X39833527Y-85894171D01*
X40190669Y-85894171D01*
X40404955Y-85965600D01*
X36650954Y-83409600D02*
X37365240Y-83409600D01*
X36508097Y-83838171D02*
X37008097Y-82338171D01*
X37508097Y-83838171D01*
X38008097Y-83838171D02*
X38008097Y-82338171D01*
X39579526Y-83838171D02*
X39079526Y-83123886D01*
X38722383Y-83838171D02*
X38722383Y-82338171D01*
X39293811Y-82338171D01*
X39436669Y-82409600D01*
X39508097Y-82481029D01*
X39579526Y-82623886D01*
X39579526Y-82838171D01*
X39508097Y-82981029D01*
X39436669Y-83052457D01*
X39293811Y-83123886D01*
X38722383Y-83123886D01*
D13*
X121316000Y-57196000D02*
X52316000Y-57196000D01*
X52316000Y-57196000D02*
X52316000Y-35196000D01*
X52316000Y-35196000D02*
X121316000Y-35196000D01*
X121316000Y-35196000D02*
X121316000Y-57196000D01*
X36578000Y-69120000D02*
X36578000Y-71120000D01*
X55578000Y-69120000D02*
X36578000Y-69120000D01*
X55578000Y-82120000D02*
X55578000Y-69120000D01*
X36578000Y-82120000D02*
X55578000Y-82120000D01*
X36578000Y-71120000D02*
X36578000Y-82120000D01*
X36324000Y-87916000D02*
X36324000Y-89916000D01*
X55324000Y-87916000D02*
X36324000Y-87916000D01*
X55324000Y-100916000D02*
X55324000Y-87916000D01*
X36324000Y-100916000D02*
X55324000Y-100916000D01*
X36324000Y-89916000D02*
X36324000Y-100916000D01*
D14*
G36*
X86584184Y-65285155D02*
X86722297Y-65317293D01*
X86840373Y-65384057D01*
X86929559Y-65466581D01*
X86991151Y-65545725D01*
X87035638Y-65635327D01*
X87064789Y-65743860D01*
X87080377Y-65879795D01*
X87084171Y-66051604D01*
X87080994Y-66191086D01*
X87068615Y-66386855D01*
X87044454Y-66540372D01*
X87004966Y-66659515D01*
X86946607Y-66752161D01*
X86865830Y-66826187D01*
X86768940Y-66884477D01*
X86671816Y-66918325D01*
X86547816Y-66940038D01*
X86418375Y-66947693D01*
X86304927Y-66939366D01*
X86264334Y-66929743D01*
X86121742Y-66858598D01*
X86001980Y-66748294D01*
X85928841Y-66635294D01*
X85904724Y-66584077D01*
X85887534Y-66538171D01*
X85876307Y-66488100D01*
X85870076Y-66424384D01*
X85867878Y-66337548D01*
X85868747Y-66218114D01*
X85871422Y-66071471D01*
X85871556Y-66065281D01*
X86198218Y-66065281D01*
X86202064Y-66193168D01*
X86211003Y-66316273D01*
X86224227Y-66421397D01*
X86240926Y-66495340D01*
X86249988Y-66515961D01*
X86300943Y-66568847D01*
X86374913Y-66616855D01*
X86448402Y-66645888D01*
X86471751Y-66649021D01*
X86516102Y-66638411D01*
X86577474Y-66611994D01*
X86579271Y-66611070D01*
X86637383Y-66573733D01*
X86679120Y-66525702D01*
X86706677Y-66458954D01*
X86722251Y-66365467D01*
X86728038Y-66237218D01*
X86726412Y-66073496D01*
X86718140Y-65730905D01*
X86635189Y-65656852D01*
X86537705Y-65596893D01*
X86439689Y-65583389D01*
X86349198Y-65612725D01*
X86274289Y-65681290D01*
X86223023Y-65785468D01*
X86209044Y-65847954D01*
X86200275Y-65945810D01*
X86198218Y-66065281D01*
X85871556Y-66065281D01*
X85874835Y-65913984D01*
X85878752Y-65798326D01*
X85884488Y-65715528D01*
X85893363Y-65656627D01*
X85906692Y-65612656D01*
X85925794Y-65574649D01*
X85950006Y-65536626D01*
X86048303Y-65418322D01*
X86164350Y-65339871D01*
X86308144Y-65295822D01*
X86414323Y-65283481D01*
X86584184Y-65285155D01*
X86584184Y-65285155D01*
G37*
X86584184Y-65285155D02*
X86722297Y-65317293D01*
X86840373Y-65384057D01*
X86929559Y-65466581D01*
X86991151Y-65545725D01*
X87035638Y-65635327D01*
X87064789Y-65743860D01*
X87080377Y-65879795D01*
X87084171Y-66051604D01*
X87080994Y-66191086D01*
X87068615Y-66386855D01*
X87044454Y-66540372D01*
X87004966Y-66659515D01*
X86946607Y-66752161D01*
X86865830Y-66826187D01*
X86768940Y-66884477D01*
X86671816Y-66918325D01*
X86547816Y-66940038D01*
X86418375Y-66947693D01*
X86304927Y-66939366D01*
X86264334Y-66929743D01*
X86121742Y-66858598D01*
X86001980Y-66748294D01*
X85928841Y-66635294D01*
X85904724Y-66584077D01*
X85887534Y-66538171D01*
X85876307Y-66488100D01*
X85870076Y-66424384D01*
X85867878Y-66337548D01*
X85868747Y-66218114D01*
X85871422Y-66071471D01*
X85871556Y-66065281D01*
X86198218Y-66065281D01*
X86202064Y-66193168D01*
X86211003Y-66316273D01*
X86224227Y-66421397D01*
X86240926Y-66495340D01*
X86249988Y-66515961D01*
X86300943Y-66568847D01*
X86374913Y-66616855D01*
X86448402Y-66645888D01*
X86471751Y-66649021D01*
X86516102Y-66638411D01*
X86577474Y-66611994D01*
X86579271Y-66611070D01*
X86637383Y-66573733D01*
X86679120Y-66525702D01*
X86706677Y-66458954D01*
X86722251Y-66365467D01*
X86728038Y-66237218D01*
X86726412Y-66073496D01*
X86718140Y-65730905D01*
X86635189Y-65656852D01*
X86537705Y-65596893D01*
X86439689Y-65583389D01*
X86349198Y-65612725D01*
X86274289Y-65681290D01*
X86223023Y-65785468D01*
X86209044Y-65847954D01*
X86200275Y-65945810D01*
X86198218Y-66065281D01*
X85871556Y-66065281D01*
X85874835Y-65913984D01*
X85878752Y-65798326D01*
X85884488Y-65715528D01*
X85893363Y-65656627D01*
X85906692Y-65612656D01*
X85925794Y-65574649D01*
X85950006Y-65536626D01*
X86048303Y-65418322D01*
X86164350Y-65339871D01*
X86308144Y-65295822D01*
X86414323Y-65283481D01*
X86584184Y-65285155D01*
G36*
X93783061Y-65294673D02*
X93927727Y-65350784D01*
X94052883Y-65442203D01*
X94134547Y-65543749D01*
X94164303Y-65593716D01*
X94185383Y-65638352D01*
X94199541Y-65687927D01*
X94208533Y-65752711D01*
X94214112Y-65842975D01*
X94218035Y-65968988D01*
X94219785Y-66042580D01*
X94221488Y-66241464D01*
X94214975Y-66398114D01*
X94198219Y-66520718D01*
X94169194Y-66617464D01*
X94125872Y-66696539D01*
X94066226Y-66766130D01*
X94033019Y-66796976D01*
X93886928Y-66893023D01*
X93720512Y-66943650D01*
X93537696Y-66948072D01*
X93401109Y-66923004D01*
X93299141Y-66875709D01*
X93195987Y-66794596D01*
X93106081Y-66694185D01*
X93043855Y-66588998D01*
X93030212Y-66549837D01*
X93017248Y-66467622D01*
X93009470Y-66341492D01*
X93007165Y-66178096D01*
X93007380Y-66161481D01*
X93349551Y-66161481D01*
X93351669Y-66291499D01*
X93356969Y-66381778D01*
X93367104Y-66443353D01*
X93383725Y-66487263D01*
X93402800Y-66517081D01*
X93489528Y-66601110D01*
X93585638Y-66638309D01*
X93683848Y-66628063D01*
X93776877Y-66569756D01*
X93796010Y-66550324D01*
X93833627Y-66500307D01*
X93857843Y-66440667D01*
X93873709Y-66355666D01*
X93881520Y-66283824D01*
X93889234Y-66117869D01*
X93882650Y-65956684D01*
X93863011Y-65816185D01*
X93838067Y-65727652D01*
X93786005Y-65655893D01*
X93703467Y-65603452D01*
X93610330Y-65582896D01*
X93609151Y-65582894D01*
X93548201Y-65596052D01*
X93477069Y-65628051D01*
X93469568Y-65632483D01*
X93423965Y-65667995D01*
X93391001Y-65715742D01*
X93368887Y-65783610D01*
X93355835Y-65879484D01*
X93350055Y-66011249D01*
X93349551Y-66161481D01*
X93007380Y-66161481D01*
X93008795Y-66052459D01*
X93012432Y-65904304D01*
X93016832Y-65796890D01*
X93023679Y-65720164D01*
X93034653Y-65664075D01*
X93051439Y-65618573D01*
X93075717Y-65573604D01*
X93093932Y-65543745D01*
X93196067Y-65423314D01*
X93325387Y-65338191D01*
X93472552Y-65288377D01*
X93628223Y-65273871D01*
X93783061Y-65294673D01*
X93783061Y-65294673D01*
G37*
X93783061Y-65294673D02*
X93927727Y-65350784D01*
X94052883Y-65442203D01*
X94134547Y-65543749D01*
X94164303Y-65593716D01*
X94185383Y-65638352D01*
X94199541Y-65687927D01*
X94208533Y-65752711D01*
X94214112Y-65842975D01*
X94218035Y-65968988D01*
X94219785Y-66042580D01*
X94221488Y-66241464D01*
X94214975Y-66398114D01*
X94198219Y-66520718D01*
X94169194Y-66617464D01*
X94125872Y-66696539D01*
X94066226Y-66766130D01*
X94033019Y-66796976D01*
X93886928Y-66893023D01*
X93720512Y-66943650D01*
X93537696Y-66948072D01*
X93401109Y-66923004D01*
X93299141Y-66875709D01*
X93195987Y-66794596D01*
X93106081Y-66694185D01*
X93043855Y-66588998D01*
X93030212Y-66549837D01*
X93017248Y-66467622D01*
X93009470Y-66341492D01*
X93007165Y-66178096D01*
X93007380Y-66161481D01*
X93349551Y-66161481D01*
X93351669Y-66291499D01*
X93356969Y-66381778D01*
X93367104Y-66443353D01*
X93383725Y-66487263D01*
X93402800Y-66517081D01*
X93489528Y-66601110D01*
X93585638Y-66638309D01*
X93683848Y-66628063D01*
X93776877Y-66569756D01*
X93796010Y-66550324D01*
X93833627Y-66500307D01*
X93857843Y-66440667D01*
X93873709Y-66355666D01*
X93881520Y-66283824D01*
X93889234Y-66117869D01*
X93882650Y-65956684D01*
X93863011Y-65816185D01*
X93838067Y-65727652D01*
X93786005Y-65655893D01*
X93703467Y-65603452D01*
X93610330Y-65582896D01*
X93609151Y-65582894D01*
X93548201Y-65596052D01*
X93477069Y-65628051D01*
X93469568Y-65632483D01*
X93423965Y-65667995D01*
X93391001Y-65715742D01*
X93368887Y-65783610D01*
X93355835Y-65879484D01*
X93350055Y-66011249D01*
X93349551Y-66161481D01*
X93007380Y-66161481D01*
X93008795Y-66052459D01*
X93012432Y-65904304D01*
X93016832Y-65796890D01*
X93023679Y-65720164D01*
X93034653Y-65664075D01*
X93051439Y-65618573D01*
X93075717Y-65573604D01*
X93093932Y-65543745D01*
X93196067Y-65423314D01*
X93325387Y-65338191D01*
X93472552Y-65288377D01*
X93628223Y-65273871D01*
X93783061Y-65294673D01*
G36*
X101155774Y-65291436D02*
X101301567Y-65327350D01*
X101418943Y-65382816D01*
X101486300Y-65440624D01*
X101503064Y-65469404D01*
X101496690Y-65499798D01*
X101461673Y-65543976D01*
X101420308Y-65586483D01*
X101318157Y-65688635D01*
X101219425Y-65635717D01*
X101106474Y-65593767D01*
X100988078Y-65580343D01*
X100879641Y-65595110D01*
X100796566Y-65637729D01*
X100788585Y-65645145D01*
X100736737Y-65715902D01*
X100731072Y-65785179D01*
X100750934Y-65835481D01*
X100773022Y-65866772D01*
X100807110Y-65890665D01*
X100863093Y-65910865D01*
X100950867Y-65931075D01*
X101061223Y-65951626D01*
X101230842Y-65990485D01*
X101357016Y-66041854D01*
X101446579Y-66110982D01*
X101506366Y-66203118D01*
X101542802Y-66321520D01*
X101553912Y-66486203D01*
X101518179Y-66634067D01*
X101437730Y-66760626D01*
X101314693Y-66861394D01*
X101276720Y-66882444D01*
X101175041Y-66917226D01*
X101042019Y-66939242D01*
X100895752Y-66947399D01*
X100754337Y-66940603D01*
X100645482Y-66920602D01*
X100558648Y-66887484D01*
X100472771Y-66840906D01*
X100400578Y-66789501D01*
X100354801Y-66741903D01*
X100345240Y-66716962D01*
X100362239Y-66682740D01*
X100405936Y-66628579D01*
X100444961Y-66587933D01*
X100544683Y-66490558D01*
X100610356Y-66542216D01*
X100721148Y-66602510D01*
X100852978Y-66633901D01*
X100988431Y-66635076D01*
X101110094Y-66604721D01*
X101151690Y-66583021D01*
X101194230Y-66529467D01*
X101209643Y-66453596D01*
X101196438Y-66376945D01*
X101168925Y-66333914D01*
X101135687Y-66302418D01*
X101124475Y-66293965D01*
X101063414Y-66287265D01*
X100970744Y-66270266D01*
X100862511Y-66246698D01*
X100754761Y-66220294D01*
X100663540Y-66194786D01*
X100604894Y-66173907D01*
X100601792Y-66172397D01*
X100506286Y-66097355D01*
X100440158Y-65991146D01*
X100404660Y-65864909D01*
X100401043Y-65729781D01*
X100430561Y-65596899D01*
X100494464Y-65477401D01*
X100520146Y-65446247D01*
X100619693Y-65361772D01*
X100740874Y-65308276D01*
X100893073Y-65282434D01*
X100992940Y-65278805D01*
X101155774Y-65291436D01*
X101155774Y-65291436D01*
G37*
X101155774Y-65291436D02*
X101301567Y-65327350D01*
X101418943Y-65382816D01*
X101486300Y-65440624D01*
X101503064Y-65469404D01*
X101496690Y-65499798D01*
X101461673Y-65543976D01*
X101420308Y-65586483D01*
X101318157Y-65688635D01*
X101219425Y-65635717D01*
X101106474Y-65593767D01*
X100988078Y-65580343D01*
X100879641Y-65595110D01*
X100796566Y-65637729D01*
X100788585Y-65645145D01*
X100736737Y-65715902D01*
X100731072Y-65785179D01*
X100750934Y-65835481D01*
X100773022Y-65866772D01*
X100807110Y-65890665D01*
X100863093Y-65910865D01*
X100950867Y-65931075D01*
X101061223Y-65951626D01*
X101230842Y-65990485D01*
X101357016Y-66041854D01*
X101446579Y-66110982D01*
X101506366Y-66203118D01*
X101542802Y-66321520D01*
X101553912Y-66486203D01*
X101518179Y-66634067D01*
X101437730Y-66760626D01*
X101314693Y-66861394D01*
X101276720Y-66882444D01*
X101175041Y-66917226D01*
X101042019Y-66939242D01*
X100895752Y-66947399D01*
X100754337Y-66940603D01*
X100645482Y-66920602D01*
X100558648Y-66887484D01*
X100472771Y-66840906D01*
X100400578Y-66789501D01*
X100354801Y-66741903D01*
X100345240Y-66716962D01*
X100362239Y-66682740D01*
X100405936Y-66628579D01*
X100444961Y-66587933D01*
X100544683Y-66490558D01*
X100610356Y-66542216D01*
X100721148Y-66602510D01*
X100852978Y-66633901D01*
X100988431Y-66635076D01*
X101110094Y-66604721D01*
X101151690Y-66583021D01*
X101194230Y-66529467D01*
X101209643Y-66453596D01*
X101196438Y-66376945D01*
X101168925Y-66333914D01*
X101135687Y-66302418D01*
X101124475Y-66293965D01*
X101063414Y-66287265D01*
X100970744Y-66270266D01*
X100862511Y-66246698D01*
X100754761Y-66220294D01*
X100663540Y-66194786D01*
X100604894Y-66173907D01*
X100601792Y-66172397D01*
X100506286Y-66097355D01*
X100440158Y-65991146D01*
X100404660Y-65864909D01*
X100401043Y-65729781D01*
X100430561Y-65596899D01*
X100494464Y-65477401D01*
X100520146Y-65446247D01*
X100619693Y-65361772D01*
X100740874Y-65308276D01*
X100893073Y-65282434D01*
X100992940Y-65278805D01*
X101155774Y-65291436D01*
G36*
X108467908Y-65298618D02*
X108620764Y-65357251D01*
X108741614Y-65455200D01*
X108830766Y-65592651D01*
X108842164Y-65618452D01*
X108865739Y-65703829D01*
X108883865Y-65825961D01*
X108895829Y-65971022D01*
X108900918Y-66125188D01*
X108898420Y-66274634D01*
X108887622Y-66405537D01*
X108884027Y-66430694D01*
X108841026Y-66599904D01*
X108768738Y-66732059D01*
X108662595Y-66834486D01*
X108611608Y-66867623D01*
X108486915Y-66918649D01*
X108339615Y-66945751D01*
X108190842Y-66946932D01*
X108061730Y-66920194D01*
X108060438Y-66919715D01*
X107907246Y-66837886D01*
X107788576Y-66721313D01*
X107733408Y-66631240D01*
X107710197Y-66579522D01*
X107693929Y-66528468D01*
X107683371Y-66467726D01*
X107677293Y-66386946D01*
X107674464Y-66275776D01*
X107674243Y-66235430D01*
X108018533Y-66235430D01*
X108026340Y-66369437D01*
X108045383Y-66467512D01*
X108077659Y-66536831D01*
X108125165Y-66584567D01*
X108173839Y-66611332D01*
X108240378Y-66638425D01*
X108285930Y-66645561D01*
X108335666Y-66632869D01*
X108386069Y-66612414D01*
X108449368Y-66575639D01*
X108494825Y-66521320D01*
X108524928Y-66441898D01*
X108542167Y-66329816D01*
X108549028Y-66177516D01*
X108549440Y-66116200D01*
X108545224Y-65949595D01*
X108532842Y-65825268D01*
X108514023Y-65750403D01*
X108450581Y-65652648D01*
X108365039Y-65596448D01*
X108266917Y-65584017D01*
X108165735Y-65617566D01*
X108111690Y-65656900D01*
X108028740Y-65731000D01*
X108019967Y-66058318D01*
X108018533Y-66235430D01*
X107674243Y-66235430D01*
X107673658Y-66128900D01*
X107675434Y-65948095D01*
X107682698Y-65808657D01*
X107697520Y-65701265D01*
X107721968Y-65616601D01*
X107758112Y-65545345D01*
X107808020Y-65478179D01*
X107821660Y-65462334D01*
X107930604Y-65365917D01*
X108059549Y-65306691D01*
X108217891Y-65280921D01*
X108282740Y-65279115D01*
X108467908Y-65298618D01*
X108467908Y-65298618D01*
G37*
X108467908Y-65298618D02*
X108620764Y-65357251D01*
X108741614Y-65455200D01*
X108830766Y-65592651D01*
X108842164Y-65618452D01*
X108865739Y-65703829D01*
X108883865Y-65825961D01*
X108895829Y-65971022D01*
X108900918Y-66125188D01*
X108898420Y-66274634D01*
X108887622Y-66405537D01*
X108884027Y-66430694D01*
X108841026Y-66599904D01*
X108768738Y-66732059D01*
X108662595Y-66834486D01*
X108611608Y-66867623D01*
X108486915Y-66918649D01*
X108339615Y-66945751D01*
X108190842Y-66946932D01*
X108061730Y-66920194D01*
X108060438Y-66919715D01*
X107907246Y-66837886D01*
X107788576Y-66721313D01*
X107733408Y-66631240D01*
X107710197Y-66579522D01*
X107693929Y-66528468D01*
X107683371Y-66467726D01*
X107677293Y-66386946D01*
X107674464Y-66275776D01*
X107674243Y-66235430D01*
X108018533Y-66235430D01*
X108026340Y-66369437D01*
X108045383Y-66467512D01*
X108077659Y-66536831D01*
X108125165Y-66584567D01*
X108173839Y-66611332D01*
X108240378Y-66638425D01*
X108285930Y-66645561D01*
X108335666Y-66632869D01*
X108386069Y-66612414D01*
X108449368Y-66575639D01*
X108494825Y-66521320D01*
X108524928Y-66441898D01*
X108542167Y-66329816D01*
X108549028Y-66177516D01*
X108549440Y-66116200D01*
X108545224Y-65949595D01*
X108532842Y-65825268D01*
X108514023Y-65750403D01*
X108450581Y-65652648D01*
X108365039Y-65596448D01*
X108266917Y-65584017D01*
X108165735Y-65617566D01*
X108111690Y-65656900D01*
X108028740Y-65731000D01*
X108019967Y-66058318D01*
X108018533Y-66235430D01*
X107674243Y-66235430D01*
X107673658Y-66128900D01*
X107675434Y-65948095D01*
X107682698Y-65808657D01*
X107697520Y-65701265D01*
X107721968Y-65616601D01*
X107758112Y-65545345D01*
X107808020Y-65478179D01*
X107821660Y-65462334D01*
X107930604Y-65365917D01*
X108059549Y-65306691D01*
X108217891Y-65280921D01*
X108282740Y-65279115D01*
X108467908Y-65298618D01*
G36*
X119350793Y-65290392D02*
X119411112Y-65303161D01*
X119495766Y-65336805D01*
X119576385Y-65380008D01*
X119639726Y-65424395D01*
X119672547Y-65461594D01*
X119674466Y-65469695D01*
X119657673Y-65501187D01*
X119614441Y-65553109D01*
X119578350Y-65590314D01*
X119482060Y-65684338D01*
X119382479Y-65633569D01*
X119266382Y-65591430D01*
X119152821Y-65579754D01*
X119051357Y-65596016D01*
X118971552Y-65637690D01*
X118922967Y-65702251D01*
X118912640Y-65757652D01*
X118924097Y-65820513D01*
X118962864Y-65868705D01*
X119035530Y-65906254D01*
X119148688Y-65937184D01*
X119232843Y-65953227D01*
X119397069Y-65989251D01*
X119518659Y-66035598D01*
X119605470Y-66097020D01*
X119665359Y-66178269D01*
X119687912Y-66228464D01*
X119723717Y-66383846D01*
X119715533Y-66535573D01*
X119666604Y-66674546D01*
X119580174Y-66791662D01*
X119459485Y-66877819D01*
X119455876Y-66879586D01*
X119344051Y-66917000D01*
X119202970Y-66940523D01*
X119052675Y-66948532D01*
X118913206Y-66939404D01*
X118855095Y-66928235D01*
X118751979Y-66894291D01*
X118650610Y-66847672D01*
X118568648Y-66797331D01*
X118532182Y-66764553D01*
X118517683Y-66737082D01*
X118526129Y-66705439D01*
X118563010Y-66658520D01*
X118607844Y-66611495D01*
X118717664Y-66499597D01*
X118785199Y-66547686D01*
X118885007Y-66598237D01*
X119007524Y-66631953D01*
X119127865Y-66643157D01*
X119181748Y-66638123D01*
X119267323Y-66606501D01*
X119340245Y-66552651D01*
X119386344Y-66489035D01*
X119395240Y-66450368D01*
X119380988Y-66383667D01*
X119334434Y-66332688D01*
X119249883Y-66293867D01*
X119121636Y-66263639D01*
X119087676Y-66257898D01*
X118913654Y-66221907D01*
X118783063Y-66174382D01*
X118689002Y-66110672D01*
X118624569Y-66026125D01*
X118583361Y-65917972D01*
X118564360Y-65757490D01*
X118592339Y-65607627D01*
X118664658Y-65475591D01*
X118778674Y-65368594D01*
X118786581Y-65363261D01*
X118850682Y-65326365D01*
X118917454Y-65303374D01*
X119003940Y-65289953D01*
X119101896Y-65283026D01*
X119236971Y-65281369D01*
X119350793Y-65290392D01*
X119350793Y-65290392D01*
G37*
X119350793Y-65290392D02*
X119411112Y-65303161D01*
X119495766Y-65336805D01*
X119576385Y-65380008D01*
X119639726Y-65424395D01*
X119672547Y-65461594D01*
X119674466Y-65469695D01*
X119657673Y-65501187D01*
X119614441Y-65553109D01*
X119578350Y-65590314D01*
X119482060Y-65684338D01*
X119382479Y-65633569D01*
X119266382Y-65591430D01*
X119152821Y-65579754D01*
X119051357Y-65596016D01*
X118971552Y-65637690D01*
X118922967Y-65702251D01*
X118912640Y-65757652D01*
X118924097Y-65820513D01*
X118962864Y-65868705D01*
X119035530Y-65906254D01*
X119148688Y-65937184D01*
X119232843Y-65953227D01*
X119397069Y-65989251D01*
X119518659Y-66035598D01*
X119605470Y-66097020D01*
X119665359Y-66178269D01*
X119687912Y-66228464D01*
X119723717Y-66383846D01*
X119715533Y-66535573D01*
X119666604Y-66674546D01*
X119580174Y-66791662D01*
X119459485Y-66877819D01*
X119455876Y-66879586D01*
X119344051Y-66917000D01*
X119202970Y-66940523D01*
X119052675Y-66948532D01*
X118913206Y-66939404D01*
X118855095Y-66928235D01*
X118751979Y-66894291D01*
X118650610Y-66847672D01*
X118568648Y-66797331D01*
X118532182Y-66764553D01*
X118517683Y-66737082D01*
X118526129Y-66705439D01*
X118563010Y-66658520D01*
X118607844Y-66611495D01*
X118717664Y-66499597D01*
X118785199Y-66547686D01*
X118885007Y-66598237D01*
X119007524Y-66631953D01*
X119127865Y-66643157D01*
X119181748Y-66638123D01*
X119267323Y-66606501D01*
X119340245Y-66552651D01*
X119386344Y-66489035D01*
X119395240Y-66450368D01*
X119380988Y-66383667D01*
X119334434Y-66332688D01*
X119249883Y-66293867D01*
X119121636Y-66263639D01*
X119087676Y-66257898D01*
X118913654Y-66221907D01*
X118783063Y-66174382D01*
X118689002Y-66110672D01*
X118624569Y-66026125D01*
X118583361Y-65917972D01*
X118564360Y-65757490D01*
X118592339Y-65607627D01*
X118664658Y-65475591D01*
X118778674Y-65368594D01*
X118786581Y-65363261D01*
X118850682Y-65326365D01*
X118917454Y-65303374D01*
X119003940Y-65289953D01*
X119101896Y-65283026D01*
X119236971Y-65281369D01*
X119350793Y-65290392D01*
G36*
X82371486Y-65709075D02*
X82580708Y-66140150D01*
X82992940Y-65278000D01*
X83327240Y-65278000D01*
X83327240Y-66929000D01*
X82997040Y-66929000D01*
X82994088Y-66027300D01*
X82850034Y-66313050D01*
X82705979Y-66598800D01*
X82449900Y-66598800D01*
X82305845Y-66313050D01*
X82161791Y-66027300D01*
X82160315Y-66478150D01*
X82158840Y-66929000D01*
X81828640Y-66929000D01*
X81828640Y-65278000D01*
X82162263Y-65278000D01*
X82371486Y-65709075D01*
X82371486Y-65709075D01*
G37*
X82371486Y-65709075D02*
X82580708Y-66140150D01*
X82992940Y-65278000D01*
X83327240Y-65278000D01*
X83327240Y-66929000D01*
X82997040Y-66929000D01*
X82994088Y-66027300D01*
X82850034Y-66313050D01*
X82705979Y-66598800D01*
X82449900Y-66598800D01*
X82305845Y-66313050D01*
X82161791Y-66027300D01*
X82160315Y-66478150D01*
X82158840Y-66929000D01*
X81828640Y-66929000D01*
X81828640Y-65278000D01*
X82162263Y-65278000D01*
X82371486Y-65709075D01*
G36*
X90642440Y-65582800D02*
X90210640Y-65582800D01*
X90210640Y-66929000D01*
X89880440Y-66929000D01*
X89880440Y-65582800D01*
X89448640Y-65582800D01*
X89448640Y-65278000D01*
X90642440Y-65278000D01*
X90642440Y-65582800D01*
X90642440Y-65582800D01*
G37*
X90642440Y-65582800D02*
X90210640Y-65582800D01*
X90210640Y-66929000D01*
X89880440Y-66929000D01*
X89880440Y-65582800D01*
X89448640Y-65582800D01*
X89448640Y-65278000D01*
X90642440Y-65278000D01*
X90642440Y-65582800D01*
G36*
X97113090Y-65278605D02*
X97250466Y-65280460D01*
X97377906Y-65285103D01*
X97482537Y-65291868D01*
X97551487Y-65300092D01*
X97558893Y-65301625D01*
X97703258Y-65359059D01*
X97818221Y-65452974D01*
X97899100Y-65575470D01*
X97941218Y-65718650D01*
X97939893Y-65874614D01*
X97929310Y-65926811D01*
X97895649Y-66011580D01*
X97842483Y-66095548D01*
X97780439Y-66165852D01*
X97720143Y-66209623D01*
X97688967Y-66217800D01*
X97681151Y-66233392D01*
X97695425Y-66282163D01*
X97733031Y-66367108D01*
X97795208Y-66491220D01*
X97829513Y-66556815D01*
X97891852Y-66675974D01*
X97944738Y-66779056D01*
X97984033Y-66857836D01*
X98005598Y-66904089D01*
X98008440Y-66912415D01*
X97985066Y-66920180D01*
X97923030Y-66925999D01*
X97834464Y-66928863D01*
X97808920Y-66929000D01*
X97609401Y-66929000D01*
X97459670Y-66611785D01*
X97309940Y-66294571D01*
X97201990Y-66294285D01*
X97094040Y-66294000D01*
X97094040Y-66929000D01*
X96763840Y-66929000D01*
X96763840Y-65989200D01*
X97094040Y-65989200D01*
X97285694Y-65989200D01*
X97387657Y-65987301D01*
X97453639Y-65979191D01*
X97498393Y-65961249D01*
X97536671Y-65929853D01*
X97539694Y-65926854D01*
X97591926Y-65846005D01*
X97593972Y-65760211D01*
X97545788Y-65672674D01*
X97543175Y-65669599D01*
X97506806Y-65633756D01*
X97464125Y-65611502D01*
X97400823Y-65598277D01*
X97302592Y-65589520D01*
X97289175Y-65588642D01*
X97094040Y-65576119D01*
X97094040Y-65989200D01*
X96763840Y-65989200D01*
X96763840Y-65278000D01*
X97113090Y-65278605D01*
X97113090Y-65278605D01*
G37*
X97113090Y-65278605D02*
X97250466Y-65280460D01*
X97377906Y-65285103D01*
X97482537Y-65291868D01*
X97551487Y-65300092D01*
X97558893Y-65301625D01*
X97703258Y-65359059D01*
X97818221Y-65452974D01*
X97899100Y-65575470D01*
X97941218Y-65718650D01*
X97939893Y-65874614D01*
X97929310Y-65926811D01*
X97895649Y-66011580D01*
X97842483Y-66095548D01*
X97780439Y-66165852D01*
X97720143Y-66209623D01*
X97688967Y-66217800D01*
X97681151Y-66233392D01*
X97695425Y-66282163D01*
X97733031Y-66367108D01*
X97795208Y-66491220D01*
X97829513Y-66556815D01*
X97891852Y-66675974D01*
X97944738Y-66779056D01*
X97984033Y-66857836D01*
X98005598Y-66904089D01*
X98008440Y-66912415D01*
X97985066Y-66920180D01*
X97923030Y-66925999D01*
X97834464Y-66928863D01*
X97808920Y-66929000D01*
X97609401Y-66929000D01*
X97459670Y-66611785D01*
X97309940Y-66294571D01*
X97201990Y-66294285D01*
X97094040Y-66294000D01*
X97094040Y-66929000D01*
X96763840Y-66929000D01*
X96763840Y-65989200D01*
X97094040Y-65989200D01*
X97285694Y-65989200D01*
X97387657Y-65987301D01*
X97453639Y-65979191D01*
X97498393Y-65961249D01*
X97536671Y-65929853D01*
X97539694Y-65926854D01*
X97591926Y-65846005D01*
X97593972Y-65760211D01*
X97545788Y-65672674D01*
X97543175Y-65669599D01*
X97506806Y-65633756D01*
X97464125Y-65611502D01*
X97400823Y-65598277D01*
X97302592Y-65589520D01*
X97289175Y-65588642D01*
X97094040Y-65576119D01*
X97094040Y-65989200D01*
X96763840Y-65989200D01*
X96763840Y-65278000D01*
X97113090Y-65278605D01*
G36*
X104415590Y-65278141D02*
X104594319Y-65280170D01*
X104731989Y-65287197D01*
X104838232Y-65300874D01*
X104922677Y-65322852D01*
X104994956Y-65354781D01*
X105047227Y-65386420D01*
X105137528Y-65474527D01*
X105203736Y-65595182D01*
X105241919Y-65734305D01*
X105248144Y-65877816D01*
X105220424Y-66006596D01*
X105146727Y-66134415D01*
X105034855Y-66228768D01*
X104884785Y-66289665D01*
X104696491Y-66317121D01*
X104631490Y-66318842D01*
X104409240Y-66319400D01*
X104409240Y-66929000D01*
X104053640Y-66929000D01*
X104053640Y-65582800D01*
X104409240Y-65582800D01*
X104409240Y-66014600D01*
X104583614Y-66014600D01*
X104690806Y-66010614D01*
X104763067Y-65996487D01*
X104815797Y-65968964D01*
X104822060Y-65964201D01*
X104887185Y-65885916D01*
X104904744Y-65794999D01*
X104880450Y-65712334D01*
X104819607Y-65643275D01*
X104720573Y-65600662D01*
X104580342Y-65583335D01*
X104545149Y-65582800D01*
X104409240Y-65582800D01*
X104053640Y-65582800D01*
X104053640Y-65278000D01*
X104415590Y-65278141D01*
X104415590Y-65278141D01*
G37*
X104415590Y-65278141D02*
X104594319Y-65280170D01*
X104731989Y-65287197D01*
X104838232Y-65300874D01*
X104922677Y-65322852D01*
X104994956Y-65354781D01*
X105047227Y-65386420D01*
X105137528Y-65474527D01*
X105203736Y-65595182D01*
X105241919Y-65734305D01*
X105248144Y-65877816D01*
X105220424Y-66006596D01*
X105146727Y-66134415D01*
X105034855Y-66228768D01*
X104884785Y-66289665D01*
X104696491Y-66317121D01*
X104631490Y-66318842D01*
X104409240Y-66319400D01*
X104409240Y-66929000D01*
X104053640Y-66929000D01*
X104053640Y-65582800D01*
X104409240Y-65582800D01*
X104409240Y-66014600D01*
X104583614Y-66014600D01*
X104690806Y-66010614D01*
X104763067Y-65996487D01*
X104815797Y-65968964D01*
X104822060Y-65964201D01*
X104887185Y-65885916D01*
X104904744Y-65794999D01*
X104880450Y-65712334D01*
X104819607Y-65643275D01*
X104720573Y-65600662D01*
X104580342Y-65583335D01*
X104545149Y-65582800D01*
X104409240Y-65582800D01*
X104053640Y-65582800D01*
X104053640Y-65278000D01*
X104415590Y-65278141D01*
G36*
X111781590Y-65278141D02*
X111967469Y-65280620D01*
X112111749Y-65289003D01*
X112223452Y-65304955D01*
X112311603Y-65330142D01*
X112385223Y-65366229D01*
X112432054Y-65398195D01*
X112521579Y-65495356D01*
X112582629Y-65622305D01*
X112611660Y-65764570D01*
X112605130Y-65907678D01*
X112578793Y-65997551D01*
X112536076Y-66067302D01*
X112471455Y-66140116D01*
X112401942Y-66198702D01*
X112357219Y-66222773D01*
X112356938Y-66248238D01*
X112380523Y-66313207D01*
X112426127Y-66413376D01*
X112491901Y-66544439D01*
X112510899Y-66580802D01*
X112694075Y-66929000D01*
X112279752Y-66929000D01*
X111975998Y-66294000D01*
X111775240Y-66294000D01*
X111775240Y-66929000D01*
X111419640Y-66929000D01*
X111419640Y-65582800D01*
X111775240Y-65582800D01*
X111775240Y-65989200D01*
X111959390Y-65988392D01*
X112069324Y-65983097D01*
X112151114Y-65969519D01*
X112186991Y-65954572D01*
X112246632Y-65881174D01*
X112266088Y-65791496D01*
X112245825Y-65711126D01*
X112184454Y-65642378D01*
X112083806Y-65600045D01*
X111941457Y-65583197D01*
X111911149Y-65582800D01*
X111775240Y-65582800D01*
X111419640Y-65582800D01*
X111419640Y-65278000D01*
X111781590Y-65278141D01*
X111781590Y-65278141D01*
G37*
X111781590Y-65278141D02*
X111967469Y-65280620D01*
X112111749Y-65289003D01*
X112223452Y-65304955D01*
X112311603Y-65330142D01*
X112385223Y-65366229D01*
X112432054Y-65398195D01*
X112521579Y-65495356D01*
X112582629Y-65622305D01*
X112611660Y-65764570D01*
X112605130Y-65907678D01*
X112578793Y-65997551D01*
X112536076Y-66067302D01*
X112471455Y-66140116D01*
X112401942Y-66198702D01*
X112357219Y-66222773D01*
X112356938Y-66248238D01*
X112380523Y-66313207D01*
X112426127Y-66413376D01*
X112491901Y-66544439D01*
X112510899Y-66580802D01*
X112694075Y-66929000D01*
X112279752Y-66929000D01*
X111975998Y-66294000D01*
X111775240Y-66294000D01*
X111775240Y-66929000D01*
X111419640Y-66929000D01*
X111419640Y-65582800D01*
X111775240Y-65582800D01*
X111775240Y-65989200D01*
X111959390Y-65988392D01*
X112069324Y-65983097D01*
X112151114Y-65969519D01*
X112186991Y-65954572D01*
X112246632Y-65881174D01*
X112266088Y-65791496D01*
X112245825Y-65711126D01*
X112184454Y-65642378D01*
X112083806Y-65600045D01*
X111941457Y-65583197D01*
X111911149Y-65582800D01*
X111775240Y-65582800D01*
X111419640Y-65582800D01*
X111419640Y-65278000D01*
X111781590Y-65278141D01*
G36*
X116194840Y-65582800D02*
X115763040Y-65582800D01*
X115763040Y-66929000D01*
X115407440Y-66929000D01*
X115407440Y-65582800D01*
X115001040Y-65582800D01*
X115001040Y-65278000D01*
X116194840Y-65278000D01*
X116194840Y-65582800D01*
X116194840Y-65582800D01*
G37*
X116194840Y-65582800D02*
X115763040Y-65582800D01*
X115763040Y-66929000D01*
X115407440Y-66929000D01*
X115407440Y-65582800D01*
X115001040Y-65582800D01*
X115001040Y-65278000D01*
X116194840Y-65278000D01*
X116194840Y-65582800D01*
G36*
X83260050Y-58725107D02*
X83345200Y-58727099D01*
X83395921Y-58732380D01*
X83420398Y-58742556D01*
X83426816Y-58759232D01*
X83423760Y-58781949D01*
X83415394Y-58813691D01*
X83393943Y-58891008D01*
X83360333Y-59010645D01*
X83315489Y-59169348D01*
X83260337Y-59363863D01*
X83195804Y-59590934D01*
X83122814Y-59847308D01*
X83042295Y-60129730D01*
X82955170Y-60434946D01*
X82862367Y-60759700D01*
X82764811Y-61100738D01*
X82665149Y-61448797D01*
X81917540Y-64058495D01*
X81607604Y-64058647D01*
X81297669Y-64058800D01*
X81330237Y-63950584D01*
X81341611Y-63911646D01*
X81366008Y-63827249D01*
X81402458Y-63700769D01*
X81449991Y-63535582D01*
X81507637Y-63335064D01*
X81574428Y-63102590D01*
X81649393Y-62841537D01*
X81731562Y-62555280D01*
X81819966Y-62247196D01*
X81913635Y-61920661D01*
X82011600Y-61579050D01*
X82096308Y-61283584D01*
X82829811Y-58724800D01*
X83132286Y-58724800D01*
X83260050Y-58725107D01*
X83260050Y-58725107D01*
G37*
X83260050Y-58725107D02*
X83345200Y-58727099D01*
X83395921Y-58732380D01*
X83420398Y-58742556D01*
X83426816Y-58759232D01*
X83423760Y-58781949D01*
X83415394Y-58813691D01*
X83393943Y-58891008D01*
X83360333Y-59010645D01*
X83315489Y-59169348D01*
X83260337Y-59363863D01*
X83195804Y-59590934D01*
X83122814Y-59847308D01*
X83042295Y-60129730D01*
X82955170Y-60434946D01*
X82862367Y-60759700D01*
X82764811Y-61100738D01*
X82665149Y-61448797D01*
X81917540Y-64058495D01*
X81607604Y-64058647D01*
X81297669Y-64058800D01*
X81330237Y-63950584D01*
X81341611Y-63911646D01*
X81366008Y-63827249D01*
X81402458Y-63700769D01*
X81449991Y-63535582D01*
X81507637Y-63335064D01*
X81574428Y-63102590D01*
X81649393Y-62841537D01*
X81731562Y-62555280D01*
X81819966Y-62247196D01*
X81913635Y-61920661D01*
X82011600Y-61579050D01*
X82096308Y-61283584D01*
X82829811Y-58724800D01*
X83132286Y-58724800D01*
X83260050Y-58725107D01*
G36*
X84972454Y-58728684D02*
X85052947Y-58731080D01*
X85105077Y-58735567D01*
X85134452Y-58742478D01*
X85146680Y-58752147D01*
X85147370Y-58764907D01*
X85146338Y-58768817D01*
X85137608Y-58799055D01*
X85115864Y-58874790D01*
X85082063Y-58992680D01*
X85037162Y-59149379D01*
X84982118Y-59341545D01*
X84917890Y-59565834D01*
X84845434Y-59818903D01*
X84765708Y-60097408D01*
X84679669Y-60398006D01*
X84588275Y-60717353D01*
X84492483Y-61052106D01*
X84431625Y-61264800D01*
X84332673Y-61610596D01*
X84236884Y-61945264D01*
X84145282Y-62265227D01*
X84058891Y-62566911D01*
X83978736Y-62846742D01*
X83905842Y-63101144D01*
X83841231Y-63326543D01*
X83785930Y-63519364D01*
X83740962Y-63676032D01*
X83707351Y-63792973D01*
X83686123Y-63866611D01*
X83680100Y-63887350D01*
X83629888Y-64058800D01*
X82983264Y-64058800D01*
X82776003Y-64058251D01*
X82614919Y-64056454D01*
X82495399Y-64053182D01*
X82412830Y-64048208D01*
X82362601Y-64041305D01*
X82340097Y-64032245D01*
X82337789Y-64027050D01*
X82344825Y-63998825D01*
X82365011Y-63924984D01*
X82397436Y-63808726D01*
X82441192Y-63653252D01*
X82495368Y-63461760D01*
X82559056Y-63237450D01*
X82631344Y-62983522D01*
X82711323Y-62703175D01*
X82798084Y-62399609D01*
X82890717Y-62076023D01*
X82988311Y-61735617D01*
X83089958Y-61381591D01*
X83094323Y-61366400D01*
X83849706Y-58737500D01*
X84504722Y-58730717D01*
X84703950Y-58728836D01*
X84857991Y-58728047D01*
X84972454Y-58728684D01*
X84972454Y-58728684D01*
G37*
X84972454Y-58728684D02*
X85052947Y-58731080D01*
X85105077Y-58735567D01*
X85134452Y-58742478D01*
X85146680Y-58752147D01*
X85147370Y-58764907D01*
X85146338Y-58768817D01*
X85137608Y-58799055D01*
X85115864Y-58874790D01*
X85082063Y-58992680D01*
X85037162Y-59149379D01*
X84982118Y-59341545D01*
X84917890Y-59565834D01*
X84845434Y-59818903D01*
X84765708Y-60097408D01*
X84679669Y-60398006D01*
X84588275Y-60717353D01*
X84492483Y-61052106D01*
X84431625Y-61264800D01*
X84332673Y-61610596D01*
X84236884Y-61945264D01*
X84145282Y-62265227D01*
X84058891Y-62566911D01*
X83978736Y-62846742D01*
X83905842Y-63101144D01*
X83841231Y-63326543D01*
X83785930Y-63519364D01*
X83740962Y-63676032D01*
X83707351Y-63792973D01*
X83686123Y-63866611D01*
X83680100Y-63887350D01*
X83629888Y-64058800D01*
X82983264Y-64058800D01*
X82776003Y-64058251D01*
X82614919Y-64056454D01*
X82495399Y-64053182D01*
X82412830Y-64048208D01*
X82362601Y-64041305D01*
X82340097Y-64032245D01*
X82337789Y-64027050D01*
X82344825Y-63998825D01*
X82365011Y-63924984D01*
X82397436Y-63808726D01*
X82441192Y-63653252D01*
X82495368Y-63461760D01*
X82559056Y-63237450D01*
X82631344Y-62983522D01*
X82711323Y-62703175D01*
X82798084Y-62399609D01*
X82890717Y-62076023D01*
X82988311Y-61735617D01*
X83089958Y-61381591D01*
X83094323Y-61366400D01*
X83849706Y-58737500D01*
X84504722Y-58730717D01*
X84703950Y-58728836D01*
X84857991Y-58728047D01*
X84972454Y-58728684D01*
G36*
X86805519Y-58724911D02*
X87010079Y-58725384D01*
X87173021Y-58726428D01*
X87298938Y-58728251D01*
X87392419Y-58731061D01*
X87458057Y-58735067D01*
X87500442Y-58740478D01*
X87524167Y-58747502D01*
X87533821Y-58756348D01*
X87533997Y-58767223D01*
X87533426Y-58769250D01*
X87524702Y-58799281D01*
X87502929Y-58874895D01*
X87469039Y-58992836D01*
X87423967Y-59149849D01*
X87368646Y-59342679D01*
X87304009Y-59568071D01*
X87230989Y-59822769D01*
X87150521Y-60103518D01*
X87063537Y-60407063D01*
X86970970Y-60730148D01*
X86873755Y-61069519D01*
X86781450Y-61391800D01*
X86680798Y-61743227D01*
X86583944Y-62081351D01*
X86491820Y-62402915D01*
X86405361Y-62704664D01*
X86325498Y-62983342D01*
X86253165Y-63235696D01*
X86189295Y-63458469D01*
X86134822Y-63648406D01*
X86090679Y-63802253D01*
X86057798Y-63916753D01*
X86037112Y-63988652D01*
X86029663Y-64014350D01*
X86023413Y-64025613D01*
X86008999Y-64034804D01*
X85981697Y-64042131D01*
X85936785Y-64047804D01*
X85869538Y-64052031D01*
X85775235Y-64055021D01*
X85649151Y-64056984D01*
X85486564Y-64058129D01*
X85282750Y-64058664D01*
X85032986Y-64058799D01*
X85025616Y-64058800D01*
X84775092Y-64058688D01*
X84570774Y-64058214D01*
X84408070Y-64057169D01*
X84282386Y-64055343D01*
X84189129Y-64052528D01*
X84123707Y-64048515D01*
X84081525Y-64043093D01*
X84057992Y-64036055D01*
X84048513Y-64027191D01*
X84048496Y-64016293D01*
X84049064Y-64014350D01*
X84058778Y-63981388D01*
X84081167Y-63904117D01*
X84115130Y-63786379D01*
X84159564Y-63632015D01*
X84213370Y-63444869D01*
X84275447Y-63228781D01*
X84344693Y-62987596D01*
X84420008Y-62725153D01*
X84500290Y-62445297D01*
X84584440Y-62151869D01*
X84671354Y-61848710D01*
X84759934Y-61539664D01*
X84849078Y-61228573D01*
X84937684Y-60919278D01*
X85024652Y-60615623D01*
X85108882Y-60321448D01*
X85189271Y-60040597D01*
X85264720Y-59776911D01*
X85334127Y-59534233D01*
X85396391Y-59316404D01*
X85450411Y-59127268D01*
X85495086Y-58970666D01*
X85529316Y-58850440D01*
X85551999Y-58770433D01*
X85562035Y-58734486D01*
X85562440Y-58732841D01*
X85586933Y-58731067D01*
X85656785Y-58729429D01*
X85766557Y-58727970D01*
X85910806Y-58726735D01*
X86084093Y-58725768D01*
X86280978Y-58725113D01*
X86496018Y-58724814D01*
X86554751Y-58724800D01*
X86805519Y-58724911D01*
X86805519Y-58724911D01*
G37*
X86805519Y-58724911D02*
X87010079Y-58725384D01*
X87173021Y-58726428D01*
X87298938Y-58728251D01*
X87392419Y-58731061D01*
X87458057Y-58735067D01*
X87500442Y-58740478D01*
X87524167Y-58747502D01*
X87533821Y-58756348D01*
X87533997Y-58767223D01*
X87533426Y-58769250D01*
X87524702Y-58799281D01*
X87502929Y-58874895D01*
X87469039Y-58992836D01*
X87423967Y-59149849D01*
X87368646Y-59342679D01*
X87304009Y-59568071D01*
X87230989Y-59822769D01*
X87150521Y-60103518D01*
X87063537Y-60407063D01*
X86970970Y-60730148D01*
X86873755Y-61069519D01*
X86781450Y-61391800D01*
X86680798Y-61743227D01*
X86583944Y-62081351D01*
X86491820Y-62402915D01*
X86405361Y-62704664D01*
X86325498Y-62983342D01*
X86253165Y-63235696D01*
X86189295Y-63458469D01*
X86134822Y-63648406D01*
X86090679Y-63802253D01*
X86057798Y-63916753D01*
X86037112Y-63988652D01*
X86029663Y-64014350D01*
X86023413Y-64025613D01*
X86008999Y-64034804D01*
X85981697Y-64042131D01*
X85936785Y-64047804D01*
X85869538Y-64052031D01*
X85775235Y-64055021D01*
X85649151Y-64056984D01*
X85486564Y-64058129D01*
X85282750Y-64058664D01*
X85032986Y-64058799D01*
X85025616Y-64058800D01*
X84775092Y-64058688D01*
X84570774Y-64058214D01*
X84408070Y-64057169D01*
X84282386Y-64055343D01*
X84189129Y-64052528D01*
X84123707Y-64048515D01*
X84081525Y-64043093D01*
X84057992Y-64036055D01*
X84048513Y-64027191D01*
X84048496Y-64016293D01*
X84049064Y-64014350D01*
X84058778Y-63981388D01*
X84081167Y-63904117D01*
X84115130Y-63786379D01*
X84159564Y-63632015D01*
X84213370Y-63444869D01*
X84275447Y-63228781D01*
X84344693Y-62987596D01*
X84420008Y-62725153D01*
X84500290Y-62445297D01*
X84584440Y-62151869D01*
X84671354Y-61848710D01*
X84759934Y-61539664D01*
X84849078Y-61228573D01*
X84937684Y-60919278D01*
X85024652Y-60615623D01*
X85108882Y-60321448D01*
X85189271Y-60040597D01*
X85264720Y-59776911D01*
X85334127Y-59534233D01*
X85396391Y-59316404D01*
X85450411Y-59127268D01*
X85495086Y-58970666D01*
X85529316Y-58850440D01*
X85551999Y-58770433D01*
X85562035Y-58734486D01*
X85562440Y-58732841D01*
X85586933Y-58731067D01*
X85656785Y-58729429D01*
X85766557Y-58727970D01*
X85910806Y-58726735D01*
X86084093Y-58725768D01*
X86280978Y-58725113D01*
X86496018Y-58724814D01*
X86554751Y-58724800D01*
X86805519Y-58724911D01*
G36*
X90071928Y-58794649D02*
X90062893Y-58828172D01*
X90040768Y-58907231D01*
X90006492Y-59028540D01*
X89961002Y-59188811D01*
X89905236Y-59384756D01*
X89840133Y-59613087D01*
X89766631Y-59870517D01*
X89685667Y-60153759D01*
X89598179Y-60459524D01*
X89505106Y-60784525D01*
X89407386Y-61125474D01*
X89312781Y-61455300D01*
X88569383Y-64046100D01*
X87495911Y-64052727D01*
X87234209Y-64054246D01*
X87018881Y-64055164D01*
X86845504Y-64055321D01*
X86709652Y-64054558D01*
X86606902Y-64052716D01*
X86532831Y-64049635D01*
X86483014Y-64045158D01*
X86453028Y-64039123D01*
X86438447Y-64031374D01*
X86434849Y-64021750D01*
X86436238Y-64014627D01*
X86444985Y-63984557D01*
X86466781Y-63908905D01*
X86500693Y-63790927D01*
X86545787Y-63633879D01*
X86601130Y-63441016D01*
X86665788Y-63215593D01*
X86738826Y-62960867D01*
X86819312Y-62680093D01*
X86906312Y-62376527D01*
X86998892Y-62053424D01*
X87096119Y-61714041D01*
X87188418Y-61391800D01*
X87289074Y-61040373D01*
X87385931Y-60702250D01*
X87478054Y-60380688D01*
X87564512Y-60078939D01*
X87644371Y-59800261D01*
X87716698Y-59547908D01*
X87780559Y-59325135D01*
X87835023Y-59135197D01*
X87879156Y-58981350D01*
X87912025Y-58866849D01*
X87932696Y-58794949D01*
X87940131Y-58769250D01*
X87946155Y-58758361D01*
X87960109Y-58749405D01*
X87986542Y-58742192D01*
X88030001Y-58736535D01*
X88095032Y-58732249D01*
X88186184Y-58729146D01*
X88308004Y-58727038D01*
X88465039Y-58725738D01*
X88661836Y-58725061D01*
X88902943Y-58724817D01*
X89020569Y-58724800D01*
X90087676Y-58724800D01*
X90071928Y-58794649D01*
X90071928Y-58794649D01*
G37*
X90071928Y-58794649D02*
X90062893Y-58828172D01*
X90040768Y-58907231D01*
X90006492Y-59028540D01*
X89961002Y-59188811D01*
X89905236Y-59384756D01*
X89840133Y-59613087D01*
X89766631Y-59870517D01*
X89685667Y-60153759D01*
X89598179Y-60459524D01*
X89505106Y-60784525D01*
X89407386Y-61125474D01*
X89312781Y-61455300D01*
X88569383Y-64046100D01*
X87495911Y-64052727D01*
X87234209Y-64054246D01*
X87018881Y-64055164D01*
X86845504Y-64055321D01*
X86709652Y-64054558D01*
X86606902Y-64052716D01*
X86532831Y-64049635D01*
X86483014Y-64045158D01*
X86453028Y-64039123D01*
X86438447Y-64031374D01*
X86434849Y-64021750D01*
X86436238Y-64014627D01*
X86444985Y-63984557D01*
X86466781Y-63908905D01*
X86500693Y-63790927D01*
X86545787Y-63633879D01*
X86601130Y-63441016D01*
X86665788Y-63215593D01*
X86738826Y-62960867D01*
X86819312Y-62680093D01*
X86906312Y-62376527D01*
X86998892Y-62053424D01*
X87096119Y-61714041D01*
X87188418Y-61391800D01*
X87289074Y-61040373D01*
X87385931Y-60702250D01*
X87478054Y-60380688D01*
X87564512Y-60078939D01*
X87644371Y-59800261D01*
X87716698Y-59547908D01*
X87780559Y-59325135D01*
X87835023Y-59135197D01*
X87879156Y-58981350D01*
X87912025Y-58866849D01*
X87932696Y-58794949D01*
X87940131Y-58769250D01*
X87946155Y-58758361D01*
X87960109Y-58749405D01*
X87986542Y-58742192D01*
X88030001Y-58736535D01*
X88095032Y-58732249D01*
X88186184Y-58729146D01*
X88308004Y-58727038D01*
X88465039Y-58725738D01*
X88661836Y-58725061D01*
X88902943Y-58724817D01*
X89020569Y-58724800D01*
X90087676Y-58724800D01*
X90071928Y-58794649D01*
G36*
X92948883Y-58731411D02*
X93147857Y-58768565D01*
X93320287Y-58838560D01*
X93461472Y-58939790D01*
X93566714Y-59070647D01*
X93602568Y-59142277D01*
X93636261Y-59261277D01*
X93655711Y-59413472D01*
X93660019Y-59583042D01*
X93648287Y-59754166D01*
X93640485Y-59809884D01*
X93626259Y-59878789D01*
X93599315Y-59990428D01*
X93561225Y-60139249D01*
X93513557Y-60319701D01*
X93457880Y-60526233D01*
X93395764Y-60753294D01*
X93328779Y-60995333D01*
X93258492Y-61246798D01*
X93186475Y-61502140D01*
X93114296Y-61755806D01*
X93043524Y-62002246D01*
X92975730Y-62235908D01*
X92912481Y-62451241D01*
X92855348Y-62642695D01*
X92805900Y-62804718D01*
X92765706Y-62931759D01*
X92736335Y-63018267D01*
X92725632Y-63045930D01*
X92590511Y-63311178D01*
X92427379Y-63540616D01*
X92239339Y-63731352D01*
X92029490Y-63880494D01*
X91800934Y-63985151D01*
X91681476Y-64019689D01*
X91537142Y-64043495D01*
X91372805Y-64054556D01*
X91207918Y-64052745D01*
X91061936Y-64037932D01*
X90996784Y-64024205D01*
X90819959Y-63953568D01*
X90678685Y-63847032D01*
X90573934Y-63705472D01*
X90528638Y-63603012D01*
X90507886Y-63510671D01*
X90495074Y-63383766D01*
X90490437Y-63237944D01*
X90493157Y-63130517D01*
X90770663Y-63130517D01*
X90774608Y-63280966D01*
X90792783Y-63409832D01*
X90817447Y-63487300D01*
X90884294Y-63601071D01*
X90968977Y-63683305D01*
X91078554Y-63737216D01*
X91220081Y-63766015D01*
X91400613Y-63772916D01*
X91442540Y-63771935D01*
X91570489Y-63765854D01*
X91664681Y-63754862D01*
X91742136Y-63735570D01*
X91819871Y-63704587D01*
X91848940Y-63691004D01*
X91987619Y-63611862D01*
X92111664Y-63512008D01*
X92223750Y-63386988D01*
X92326554Y-63232349D01*
X92422750Y-63043638D01*
X92515015Y-62816401D01*
X92606023Y-62546185D01*
X92673297Y-62318900D01*
X92794130Y-61890893D01*
X92901453Y-61509439D01*
X92995878Y-61172291D01*
X93078016Y-60877201D01*
X93148478Y-60621925D01*
X93207875Y-60404216D01*
X93256817Y-60221827D01*
X93295917Y-60072513D01*
X93325784Y-59954026D01*
X93347030Y-59864121D01*
X93360267Y-59800552D01*
X93363555Y-59781352D01*
X93378923Y-59572471D01*
X93356224Y-59393080D01*
X93296068Y-59244989D01*
X93199063Y-59130006D01*
X93127780Y-59080127D01*
X93073256Y-59051737D01*
X93020078Y-59033332D01*
X92955225Y-59022798D01*
X92865678Y-59018025D01*
X92738415Y-59016900D01*
X92737940Y-59016900D01*
X92608674Y-59018172D01*
X92515578Y-59023551D01*
X92444051Y-59035384D01*
X92379492Y-59056015D01*
X92312859Y-59085175D01*
X92216440Y-59134957D01*
X92123355Y-59190400D01*
X92074774Y-59223931D01*
X91984998Y-59309671D01*
X91888661Y-59430642D01*
X91794590Y-59573659D01*
X91711608Y-59725538D01*
X91658831Y-59845353D01*
X91639595Y-59901822D01*
X91608374Y-60001581D01*
X91566783Y-60138974D01*
X91516441Y-60308345D01*
X91458965Y-60504041D01*
X91395972Y-60720405D01*
X91329081Y-60951783D01*
X91259907Y-61192519D01*
X91190069Y-61436958D01*
X91121185Y-61679444D01*
X91054871Y-61914324D01*
X90992746Y-62135941D01*
X90936426Y-62338640D01*
X90887530Y-62516766D01*
X90847674Y-62664665D01*
X90818476Y-62776679D01*
X90806463Y-62825511D01*
X90781197Y-62973644D01*
X90770663Y-63130517D01*
X90493157Y-63130517D01*
X90494212Y-63088853D01*
X90506637Y-62952143D01*
X90517773Y-62885300D01*
X90529927Y-62835226D01*
X90554391Y-62741901D01*
X90589598Y-62610938D01*
X90633977Y-62447952D01*
X90685962Y-62258559D01*
X90743984Y-62048373D01*
X90806474Y-61823010D01*
X90871864Y-61588084D01*
X90938585Y-61349211D01*
X91005070Y-61112005D01*
X91069750Y-60882082D01*
X91131056Y-60665056D01*
X91187420Y-60466542D01*
X91237274Y-60292155D01*
X91279049Y-60147511D01*
X91311177Y-60038224D01*
X91332089Y-59969909D01*
X91332253Y-59969400D01*
X91444723Y-59683600D01*
X91586491Y-59429068D01*
X91754370Y-59209126D01*
X91945176Y-59027094D01*
X92155722Y-58886296D01*
X92382821Y-58790054D01*
X92490105Y-58762053D01*
X92728065Y-58728705D01*
X92948883Y-58731411D01*
X92948883Y-58731411D01*
G37*
X92948883Y-58731411D02*
X93147857Y-58768565D01*
X93320287Y-58838560D01*
X93461472Y-58939790D01*
X93566714Y-59070647D01*
X93602568Y-59142277D01*
X93636261Y-59261277D01*
X93655711Y-59413472D01*
X93660019Y-59583042D01*
X93648287Y-59754166D01*
X93640485Y-59809884D01*
X93626259Y-59878789D01*
X93599315Y-59990428D01*
X93561225Y-60139249D01*
X93513557Y-60319701D01*
X93457880Y-60526233D01*
X93395764Y-60753294D01*
X93328779Y-60995333D01*
X93258492Y-61246798D01*
X93186475Y-61502140D01*
X93114296Y-61755806D01*
X93043524Y-62002246D01*
X92975730Y-62235908D01*
X92912481Y-62451241D01*
X92855348Y-62642695D01*
X92805900Y-62804718D01*
X92765706Y-62931759D01*
X92736335Y-63018267D01*
X92725632Y-63045930D01*
X92590511Y-63311178D01*
X92427379Y-63540616D01*
X92239339Y-63731352D01*
X92029490Y-63880494D01*
X91800934Y-63985151D01*
X91681476Y-64019689D01*
X91537142Y-64043495D01*
X91372805Y-64054556D01*
X91207918Y-64052745D01*
X91061936Y-64037932D01*
X90996784Y-64024205D01*
X90819959Y-63953568D01*
X90678685Y-63847032D01*
X90573934Y-63705472D01*
X90528638Y-63603012D01*
X90507886Y-63510671D01*
X90495074Y-63383766D01*
X90490437Y-63237944D01*
X90493157Y-63130517D01*
X90770663Y-63130517D01*
X90774608Y-63280966D01*
X90792783Y-63409832D01*
X90817447Y-63487300D01*
X90884294Y-63601071D01*
X90968977Y-63683305D01*
X91078554Y-63737216D01*
X91220081Y-63766015D01*
X91400613Y-63772916D01*
X91442540Y-63771935D01*
X91570489Y-63765854D01*
X91664681Y-63754862D01*
X91742136Y-63735570D01*
X91819871Y-63704587D01*
X91848940Y-63691004D01*
X91987619Y-63611862D01*
X92111664Y-63512008D01*
X92223750Y-63386988D01*
X92326554Y-63232349D01*
X92422750Y-63043638D01*
X92515015Y-62816401D01*
X92606023Y-62546185D01*
X92673297Y-62318900D01*
X92794130Y-61890893D01*
X92901453Y-61509439D01*
X92995878Y-61172291D01*
X93078016Y-60877201D01*
X93148478Y-60621925D01*
X93207875Y-60404216D01*
X93256817Y-60221827D01*
X93295917Y-60072513D01*
X93325784Y-59954026D01*
X93347030Y-59864121D01*
X93360267Y-59800552D01*
X93363555Y-59781352D01*
X93378923Y-59572471D01*
X93356224Y-59393080D01*
X93296068Y-59244989D01*
X93199063Y-59130006D01*
X93127780Y-59080127D01*
X93073256Y-59051737D01*
X93020078Y-59033332D01*
X92955225Y-59022798D01*
X92865678Y-59018025D01*
X92738415Y-59016900D01*
X92737940Y-59016900D01*
X92608674Y-59018172D01*
X92515578Y-59023551D01*
X92444051Y-59035384D01*
X92379492Y-59056015D01*
X92312859Y-59085175D01*
X92216440Y-59134957D01*
X92123355Y-59190400D01*
X92074774Y-59223931D01*
X91984998Y-59309671D01*
X91888661Y-59430642D01*
X91794590Y-59573659D01*
X91711608Y-59725538D01*
X91658831Y-59845353D01*
X91639595Y-59901822D01*
X91608374Y-60001581D01*
X91566783Y-60138974D01*
X91516441Y-60308345D01*
X91458965Y-60504041D01*
X91395972Y-60720405D01*
X91329081Y-60951783D01*
X91259907Y-61192519D01*
X91190069Y-61436958D01*
X91121185Y-61679444D01*
X91054871Y-61914324D01*
X90992746Y-62135941D01*
X90936426Y-62338640D01*
X90887530Y-62516766D01*
X90847674Y-62664665D01*
X90818476Y-62776679D01*
X90806463Y-62825511D01*
X90781197Y-62973644D01*
X90770663Y-63130517D01*
X90493157Y-63130517D01*
X90494212Y-63088853D01*
X90506637Y-62952143D01*
X90517773Y-62885300D01*
X90529927Y-62835226D01*
X90554391Y-62741901D01*
X90589598Y-62610938D01*
X90633977Y-62447952D01*
X90685962Y-62258559D01*
X90743984Y-62048373D01*
X90806474Y-61823010D01*
X90871864Y-61588084D01*
X90938585Y-61349211D01*
X91005070Y-61112005D01*
X91069750Y-60882082D01*
X91131056Y-60665056D01*
X91187420Y-60466542D01*
X91237274Y-60292155D01*
X91279049Y-60147511D01*
X91311177Y-60038224D01*
X91332089Y-59969909D01*
X91332253Y-59969400D01*
X91444723Y-59683600D01*
X91586491Y-59429068D01*
X91754370Y-59209126D01*
X91945176Y-59027094D01*
X92155722Y-58886296D01*
X92382821Y-58790054D01*
X92490105Y-58762053D01*
X92728065Y-58728705D01*
X92948883Y-58731411D01*
G36*
X94694617Y-58794650D02*
X94685417Y-58828510D01*
X94663407Y-58907860D01*
X94629542Y-59029291D01*
X94584779Y-59189392D01*
X94530073Y-59384754D01*
X94466381Y-59611968D01*
X94394658Y-59867623D01*
X94315860Y-60148312D01*
X94230944Y-60450623D01*
X94140865Y-60771148D01*
X94046580Y-61106477D01*
X93993363Y-61295672D01*
X93897540Y-61636559D01*
X93805707Y-61963754D01*
X93718791Y-62273929D01*
X93637719Y-62563754D01*
X93563417Y-62829900D01*
X93496812Y-63069037D01*
X93438831Y-63277835D01*
X93390400Y-63452966D01*
X93352445Y-63591099D01*
X93325894Y-63688905D01*
X93311673Y-63743056D01*
X93309440Y-63753122D01*
X93334195Y-63761257D01*
X93408613Y-63767880D01*
X93532919Y-63772999D01*
X93707339Y-63776620D01*
X93932100Y-63778750D01*
X94188493Y-63779400D01*
X95067547Y-63779400D01*
X95050865Y-63845863D01*
X95032664Y-63923808D01*
X95019537Y-63985563D01*
X95004890Y-64058800D01*
X92932354Y-64058800D01*
X92980379Y-63887350D01*
X92993912Y-63839152D01*
X93020208Y-63745608D01*
X93058270Y-63610268D01*
X93107096Y-63436687D01*
X93165687Y-63228415D01*
X93233045Y-62989006D01*
X93308168Y-62722012D01*
X93390059Y-62430986D01*
X93477717Y-62119480D01*
X93570143Y-61791047D01*
X93666337Y-61449239D01*
X93727722Y-61231126D01*
X93824594Y-60886820D01*
X93917491Y-60556443D01*
X94005497Y-60243262D01*
X94087696Y-59950541D01*
X94163173Y-59681547D01*
X94231014Y-59439544D01*
X94290304Y-59227800D01*
X94340126Y-59049578D01*
X94379567Y-58908145D01*
X94407711Y-58806766D01*
X94423643Y-58748707D01*
X94427040Y-58735576D01*
X94450043Y-58729722D01*
X94509484Y-58725809D01*
X94569493Y-58724800D01*
X94711947Y-58724800D01*
X94694617Y-58794650D01*
X94694617Y-58794650D01*
G37*
X94694617Y-58794650D02*
X94685417Y-58828510D01*
X94663407Y-58907860D01*
X94629542Y-59029291D01*
X94584779Y-59189392D01*
X94530073Y-59384754D01*
X94466381Y-59611968D01*
X94394658Y-59867623D01*
X94315860Y-60148312D01*
X94230944Y-60450623D01*
X94140865Y-60771148D01*
X94046580Y-61106477D01*
X93993363Y-61295672D01*
X93897540Y-61636559D01*
X93805707Y-61963754D01*
X93718791Y-62273929D01*
X93637719Y-62563754D01*
X93563417Y-62829900D01*
X93496812Y-63069037D01*
X93438831Y-63277835D01*
X93390400Y-63452966D01*
X93352445Y-63591099D01*
X93325894Y-63688905D01*
X93311673Y-63743056D01*
X93309440Y-63753122D01*
X93334195Y-63761257D01*
X93408613Y-63767880D01*
X93532919Y-63772999D01*
X93707339Y-63776620D01*
X93932100Y-63778750D01*
X94188493Y-63779400D01*
X95067547Y-63779400D01*
X95050865Y-63845863D01*
X95032664Y-63923808D01*
X95019537Y-63985563D01*
X95004890Y-64058800D01*
X92932354Y-64058800D01*
X92980379Y-63887350D01*
X92993912Y-63839152D01*
X93020208Y-63745608D01*
X93058270Y-63610268D01*
X93107096Y-63436687D01*
X93165687Y-63228415D01*
X93233045Y-62989006D01*
X93308168Y-62722012D01*
X93390059Y-62430986D01*
X93477717Y-62119480D01*
X93570143Y-61791047D01*
X93666337Y-61449239D01*
X93727722Y-61231126D01*
X93824594Y-60886820D01*
X93917491Y-60556443D01*
X94005497Y-60243262D01*
X94087696Y-59950541D01*
X94163173Y-59681547D01*
X94231014Y-59439544D01*
X94290304Y-59227800D01*
X94340126Y-59049578D01*
X94379567Y-58908145D01*
X94407711Y-58806766D01*
X94423643Y-58748707D01*
X94427040Y-58735576D01*
X94450043Y-58729722D01*
X94509484Y-58725809D01*
X94569493Y-58724800D01*
X94711947Y-58724800D01*
X94694617Y-58794650D01*
G36*
X97116908Y-58726036D02*
X97155333Y-58733868D01*
X97165410Y-58754985D01*
X97158647Y-58794649D01*
X97149747Y-58828212D01*
X97127987Y-58907375D01*
X97094289Y-59028843D01*
X97049577Y-59189321D01*
X96994773Y-59385516D01*
X96930799Y-59614131D01*
X96858578Y-59871873D01*
X96779032Y-60155446D01*
X96693085Y-60461556D01*
X96601658Y-60786909D01*
X96505674Y-61128209D01*
X96413619Y-61455300D01*
X95684221Y-64046100D01*
X95550930Y-64053777D01*
X95476398Y-64054568D01*
X95427711Y-64048376D01*
X95416948Y-64041077D01*
X95423587Y-64014373D01*
X95443100Y-63941946D01*
X95474605Y-63826974D01*
X95517215Y-63672636D01*
X95570045Y-63482108D01*
X95632211Y-63258570D01*
X95702829Y-63005198D01*
X95781012Y-62725172D01*
X95865876Y-62421668D01*
X95956536Y-62097865D01*
X96052108Y-61756942D01*
X96151706Y-61402075D01*
X96159898Y-61372904D01*
X96903540Y-58725109D01*
X97038908Y-58724954D01*
X97116908Y-58726036D01*
X97116908Y-58726036D01*
G37*
X97116908Y-58726036D02*
X97155333Y-58733868D01*
X97165410Y-58754985D01*
X97158647Y-58794649D01*
X97149747Y-58828212D01*
X97127987Y-58907375D01*
X97094289Y-59028843D01*
X97049577Y-59189321D01*
X96994773Y-59385516D01*
X96930799Y-59614131D01*
X96858578Y-59871873D01*
X96779032Y-60155446D01*
X96693085Y-60461556D01*
X96601658Y-60786909D01*
X96505674Y-61128209D01*
X96413619Y-61455300D01*
X95684221Y-64046100D01*
X95550930Y-64053777D01*
X95476398Y-64054568D01*
X95427711Y-64048376D01*
X95416948Y-64041077D01*
X95423587Y-64014373D01*
X95443100Y-63941946D01*
X95474605Y-63826974D01*
X95517215Y-63672636D01*
X95570045Y-63482108D01*
X95632211Y-63258570D01*
X95702829Y-63005198D01*
X95781012Y-62725172D01*
X95865876Y-62421668D01*
X95956536Y-62097865D01*
X96052108Y-61756942D01*
X96151706Y-61402075D01*
X96159898Y-61372904D01*
X96903540Y-58725109D01*
X97038908Y-58724954D01*
X97116908Y-58726036D01*
G36*
X99833412Y-58725333D02*
X99902177Y-58729222D01*
X99951317Y-58736427D01*
X99964741Y-58743850D01*
X99958079Y-58770373D01*
X99938547Y-58842623D01*
X99907028Y-58957422D01*
X99864409Y-59111596D01*
X99811573Y-59301968D01*
X99749406Y-59525361D01*
X99678793Y-59778600D01*
X99600618Y-60058508D01*
X99515766Y-60361911D01*
X99425123Y-60685630D01*
X99329573Y-61026491D01*
X99230000Y-61381318D01*
X99221791Y-61410554D01*
X98478340Y-64058208D01*
X98357690Y-64058504D01*
X98277574Y-64053423D01*
X98240983Y-64036470D01*
X98237040Y-64023804D01*
X98234013Y-63993854D01*
X98225233Y-63917195D01*
X98211147Y-63797538D01*
X98192202Y-63638594D01*
X98168845Y-63444074D01*
X98141526Y-63217690D01*
X98110690Y-62963152D01*
X98076786Y-62684172D01*
X98040262Y-62384460D01*
X98001565Y-62067728D01*
X97970340Y-61812708D01*
X97930257Y-61485452D01*
X97891969Y-61172429D01*
X97855923Y-60877340D01*
X97822570Y-60603886D01*
X97792361Y-60355767D01*
X97765744Y-60136686D01*
X97743169Y-59950342D01*
X97725086Y-59800438D01*
X97711945Y-59690673D01*
X97704196Y-59624749D01*
X97702184Y-59606153D01*
X97695261Y-59625530D01*
X97675565Y-59690452D01*
X97644059Y-59797557D01*
X97601707Y-59943483D01*
X97549471Y-60124866D01*
X97488314Y-60338345D01*
X97419199Y-60580557D01*
X97343090Y-60848140D01*
X97260948Y-61137731D01*
X97173739Y-61445968D01*
X97082423Y-61769488D01*
X97070750Y-61810900D01*
X96440771Y-64046100D01*
X96295371Y-64053781D01*
X96213811Y-64056459D01*
X96172290Y-64051352D01*
X96160270Y-64035407D01*
X96163910Y-64015681D01*
X96172567Y-63985383D01*
X96194031Y-63909466D01*
X96227375Y-63791220D01*
X96271674Y-63633935D01*
X96326003Y-63440903D01*
X96389437Y-63215411D01*
X96461049Y-62960752D01*
X96539916Y-62680214D01*
X96625110Y-62377089D01*
X96715707Y-62054665D01*
X96810781Y-61716234D01*
X96891205Y-61429900D01*
X96989536Y-61079881D01*
X97084360Y-60742540D01*
X97174732Y-60421234D01*
X97259704Y-60119318D01*
X97338331Y-59840147D01*
X97409666Y-59587077D01*
X97472764Y-59363463D01*
X97526677Y-59172662D01*
X97570461Y-59018028D01*
X97603167Y-58902917D01*
X97623851Y-58830686D01*
X97631098Y-58806056D01*
X97650640Y-58755070D01*
X97677552Y-58731825D01*
X97728661Y-58727397D01*
X97774807Y-58729856D01*
X97891980Y-58737500D01*
X98158806Y-60953549D01*
X98198616Y-61282231D01*
X98237014Y-61595484D01*
X98273539Y-61889775D01*
X98307734Y-62161569D01*
X98339137Y-62407331D01*
X98367288Y-62623526D01*
X98391729Y-62806620D01*
X98411998Y-62953078D01*
X98427638Y-63059366D01*
X98438186Y-63121949D01*
X98442968Y-63137949D01*
X98451726Y-63110382D01*
X98472983Y-63038213D01*
X98505540Y-62925687D01*
X98548199Y-62777049D01*
X98599764Y-62596544D01*
X98659034Y-62388417D01*
X98724813Y-62156913D01*
X98795903Y-61906278D01*
X98871105Y-61640756D01*
X98949221Y-61364593D01*
X99029054Y-61082033D01*
X99109405Y-60797321D01*
X99189076Y-60514704D01*
X99266870Y-60238425D01*
X99341587Y-59972730D01*
X99412031Y-59721864D01*
X99477003Y-59490072D01*
X99535305Y-59281600D01*
X99585740Y-59100691D01*
X99627108Y-58951592D01*
X99658212Y-58838547D01*
X99677855Y-58765802D01*
X99684837Y-58737601D01*
X99684840Y-58737527D01*
X99707197Y-58729089D01*
X99762570Y-58725157D01*
X99833412Y-58725333D01*
X99833412Y-58725333D01*
G37*
X99833412Y-58725333D02*
X99902177Y-58729222D01*
X99951317Y-58736427D01*
X99964741Y-58743850D01*
X99958079Y-58770373D01*
X99938547Y-58842623D01*
X99907028Y-58957422D01*
X99864409Y-59111596D01*
X99811573Y-59301968D01*
X99749406Y-59525361D01*
X99678793Y-59778600D01*
X99600618Y-60058508D01*
X99515766Y-60361911D01*
X99425123Y-60685630D01*
X99329573Y-61026491D01*
X99230000Y-61381318D01*
X99221791Y-61410554D01*
X98478340Y-64058208D01*
X98357690Y-64058504D01*
X98277574Y-64053423D01*
X98240983Y-64036470D01*
X98237040Y-64023804D01*
X98234013Y-63993854D01*
X98225233Y-63917195D01*
X98211147Y-63797538D01*
X98192202Y-63638594D01*
X98168845Y-63444074D01*
X98141526Y-63217690D01*
X98110690Y-62963152D01*
X98076786Y-62684172D01*
X98040262Y-62384460D01*
X98001565Y-62067728D01*
X97970340Y-61812708D01*
X97930257Y-61485452D01*
X97891969Y-61172429D01*
X97855923Y-60877340D01*
X97822570Y-60603886D01*
X97792361Y-60355767D01*
X97765744Y-60136686D01*
X97743169Y-59950342D01*
X97725086Y-59800438D01*
X97711945Y-59690673D01*
X97704196Y-59624749D01*
X97702184Y-59606153D01*
X97695261Y-59625530D01*
X97675565Y-59690452D01*
X97644059Y-59797557D01*
X97601707Y-59943483D01*
X97549471Y-60124866D01*
X97488314Y-60338345D01*
X97419199Y-60580557D01*
X97343090Y-60848140D01*
X97260948Y-61137731D01*
X97173739Y-61445968D01*
X97082423Y-61769488D01*
X97070750Y-61810900D01*
X96440771Y-64046100D01*
X96295371Y-64053781D01*
X96213811Y-64056459D01*
X96172290Y-64051352D01*
X96160270Y-64035407D01*
X96163910Y-64015681D01*
X96172567Y-63985383D01*
X96194031Y-63909466D01*
X96227375Y-63791220D01*
X96271674Y-63633935D01*
X96326003Y-63440903D01*
X96389437Y-63215411D01*
X96461049Y-62960752D01*
X96539916Y-62680214D01*
X96625110Y-62377089D01*
X96715707Y-62054665D01*
X96810781Y-61716234D01*
X96891205Y-61429900D01*
X96989536Y-61079881D01*
X97084360Y-60742540D01*
X97174732Y-60421234D01*
X97259704Y-60119318D01*
X97338331Y-59840147D01*
X97409666Y-59587077D01*
X97472764Y-59363463D01*
X97526677Y-59172662D01*
X97570461Y-59018028D01*
X97603167Y-58902917D01*
X97623851Y-58830686D01*
X97631098Y-58806056D01*
X97650640Y-58755070D01*
X97677552Y-58731825D01*
X97728661Y-58727397D01*
X97774807Y-58729856D01*
X97891980Y-58737500D01*
X98158806Y-60953549D01*
X98198616Y-61282231D01*
X98237014Y-61595484D01*
X98273539Y-61889775D01*
X98307734Y-62161569D01*
X98339137Y-62407331D01*
X98367288Y-62623526D01*
X98391729Y-62806620D01*
X98411998Y-62953078D01*
X98427638Y-63059366D01*
X98438186Y-63121949D01*
X98442968Y-63137949D01*
X98451726Y-63110382D01*
X98472983Y-63038213D01*
X98505540Y-62925687D01*
X98548199Y-62777049D01*
X98599764Y-62596544D01*
X98659034Y-62388417D01*
X98724813Y-62156913D01*
X98795903Y-61906278D01*
X98871105Y-61640756D01*
X98949221Y-61364593D01*
X99029054Y-61082033D01*
X99109405Y-60797321D01*
X99189076Y-60514704D01*
X99266870Y-60238425D01*
X99341587Y-59972730D01*
X99412031Y-59721864D01*
X99477003Y-59490072D01*
X99535305Y-59281600D01*
X99585740Y-59100691D01*
X99627108Y-58951592D01*
X99658212Y-58838547D01*
X99677855Y-58765802D01*
X99684837Y-58737601D01*
X99684840Y-58737527D01*
X99707197Y-58729089D01*
X99762570Y-58725157D01*
X99833412Y-58725333D01*
G36*
X103331350Y-58725284D02*
X103530064Y-58726663D01*
X103706431Y-58728829D01*
X103854934Y-58731671D01*
X103970051Y-58735082D01*
X104046266Y-58738951D01*
X104078057Y-58743169D01*
X104078654Y-58743850D01*
X104071684Y-58777736D01*
X104054480Y-58841672D01*
X104044115Y-58877200D01*
X104009961Y-58991500D01*
X103176841Y-59004200D01*
X102343720Y-59016900D01*
X102031247Y-60121800D01*
X101966881Y-60349731D01*
X101906944Y-60562628D01*
X101852823Y-60755515D01*
X101805906Y-60923412D01*
X101767583Y-61061343D01*
X101739240Y-61164329D01*
X101722266Y-61227394D01*
X101717806Y-61245750D01*
X101741973Y-61250340D01*
X101810985Y-61254532D01*
X101918889Y-61258190D01*
X102059730Y-61261174D01*
X102227556Y-61263348D01*
X102416412Y-61264575D01*
X102542823Y-61264800D01*
X103368807Y-61264800D01*
X103351904Y-61334650D01*
X103330989Y-61410016D01*
X103313949Y-61461650D01*
X103292897Y-61518800D01*
X101642791Y-61518800D01*
X101592262Y-61690250D01*
X101573752Y-61754260D01*
X101543478Y-61860414D01*
X101503355Y-62001931D01*
X101455299Y-62172031D01*
X101401225Y-62363934D01*
X101343049Y-62570859D01*
X101285469Y-62776100D01*
X101227068Y-62984389D01*
X101172623Y-63178384D01*
X101123740Y-63352377D01*
X101082025Y-63500660D01*
X101049084Y-63617524D01*
X101026522Y-63697261D01*
X101015947Y-63734162D01*
X101015710Y-63734950D01*
X101014649Y-63747144D01*
X101023008Y-63756886D01*
X101045800Y-63764449D01*
X101088035Y-63770107D01*
X101154723Y-63774132D01*
X101250875Y-63776800D01*
X101381502Y-63778383D01*
X101551615Y-63779156D01*
X101766224Y-63779392D01*
X101829428Y-63779400D01*
X102028614Y-63779962D01*
X102210533Y-63781556D01*
X102369231Y-63784046D01*
X102498753Y-63787294D01*
X102593144Y-63791163D01*
X102646448Y-63795516D01*
X102656254Y-63798450D01*
X102649283Y-63832335D01*
X102632075Y-63896270D01*
X102621706Y-63931800D01*
X102587544Y-64046100D01*
X101616984Y-64052753D01*
X101369316Y-64054342D01*
X101167801Y-64055252D01*
X101007793Y-64055299D01*
X100884647Y-64054298D01*
X100793717Y-64052062D01*
X100730360Y-64048409D01*
X100689928Y-64043152D01*
X100667778Y-64036107D01*
X100659263Y-64027088D01*
X100659740Y-64015911D01*
X100660107Y-64014653D01*
X100668729Y-63984498D01*
X100690155Y-63908722D01*
X100723461Y-63790614D01*
X100767723Y-63633461D01*
X100822015Y-63440553D01*
X100885412Y-63215177D01*
X100956991Y-62960622D01*
X101035825Y-62680177D01*
X101120989Y-62377130D01*
X101211560Y-62054769D01*
X101306613Y-61716382D01*
X101387069Y-61429900D01*
X101485380Y-61079911D01*
X101580177Y-60742624D01*
X101670516Y-60421390D01*
X101755451Y-60119563D01*
X101834035Y-59840497D01*
X101905325Y-59587546D01*
X101968374Y-59364061D01*
X102022237Y-59173398D01*
X102065968Y-59018909D01*
X102098623Y-58903947D01*
X102119255Y-58831867D01*
X102126463Y-58807350D01*
X102152579Y-58724800D01*
X103115809Y-58724800D01*
X103331350Y-58725284D01*
X103331350Y-58725284D01*
G37*
X103331350Y-58725284D02*
X103530064Y-58726663D01*
X103706431Y-58728829D01*
X103854934Y-58731671D01*
X103970051Y-58735082D01*
X104046266Y-58738951D01*
X104078057Y-58743169D01*
X104078654Y-58743850D01*
X104071684Y-58777736D01*
X104054480Y-58841672D01*
X104044115Y-58877200D01*
X104009961Y-58991500D01*
X103176841Y-59004200D01*
X102343720Y-59016900D01*
X102031247Y-60121800D01*
X101966881Y-60349731D01*
X101906944Y-60562628D01*
X101852823Y-60755515D01*
X101805906Y-60923412D01*
X101767583Y-61061343D01*
X101739240Y-61164329D01*
X101722266Y-61227394D01*
X101717806Y-61245750D01*
X101741973Y-61250340D01*
X101810985Y-61254532D01*
X101918889Y-61258190D01*
X102059730Y-61261174D01*
X102227556Y-61263348D01*
X102416412Y-61264575D01*
X102542823Y-61264800D01*
X103368807Y-61264800D01*
X103351904Y-61334650D01*
X103330989Y-61410016D01*
X103313949Y-61461650D01*
X103292897Y-61518800D01*
X101642791Y-61518800D01*
X101592262Y-61690250D01*
X101573752Y-61754260D01*
X101543478Y-61860414D01*
X101503355Y-62001931D01*
X101455299Y-62172031D01*
X101401225Y-62363934D01*
X101343049Y-62570859D01*
X101285469Y-62776100D01*
X101227068Y-62984389D01*
X101172623Y-63178384D01*
X101123740Y-63352377D01*
X101082025Y-63500660D01*
X101049084Y-63617524D01*
X101026522Y-63697261D01*
X101015947Y-63734162D01*
X101015710Y-63734950D01*
X101014649Y-63747144D01*
X101023008Y-63756886D01*
X101045800Y-63764449D01*
X101088035Y-63770107D01*
X101154723Y-63774132D01*
X101250875Y-63776800D01*
X101381502Y-63778383D01*
X101551615Y-63779156D01*
X101766224Y-63779392D01*
X101829428Y-63779400D01*
X102028614Y-63779962D01*
X102210533Y-63781556D01*
X102369231Y-63784046D01*
X102498753Y-63787294D01*
X102593144Y-63791163D01*
X102646448Y-63795516D01*
X102656254Y-63798450D01*
X102649283Y-63832335D01*
X102632075Y-63896270D01*
X102621706Y-63931800D01*
X102587544Y-64046100D01*
X101616984Y-64052753D01*
X101369316Y-64054342D01*
X101167801Y-64055252D01*
X101007793Y-64055299D01*
X100884647Y-64054298D01*
X100793717Y-64052062D01*
X100730360Y-64048409D01*
X100689928Y-64043152D01*
X100667778Y-64036107D01*
X100659263Y-64027088D01*
X100659740Y-64015911D01*
X100660107Y-64014653D01*
X100668729Y-63984498D01*
X100690155Y-63908722D01*
X100723461Y-63790614D01*
X100767723Y-63633461D01*
X100822015Y-63440553D01*
X100885412Y-63215177D01*
X100956991Y-62960622D01*
X101035825Y-62680177D01*
X101120989Y-62377130D01*
X101211560Y-62054769D01*
X101306613Y-61716382D01*
X101387069Y-61429900D01*
X101485380Y-61079911D01*
X101580177Y-60742624D01*
X101670516Y-60421390D01*
X101755451Y-60119563D01*
X101834035Y-59840497D01*
X101905325Y-59587546D01*
X101968374Y-59364061D01*
X102022237Y-59173398D01*
X102065968Y-59018909D01*
X102098623Y-58903947D01*
X102119255Y-58831867D01*
X102126463Y-58807350D01*
X102152579Y-58724800D01*
X103115809Y-58724800D01*
X103331350Y-58725284D01*
G36*
X104702643Y-58727965D02*
X104752392Y-58736122D01*
X104763975Y-58743850D01*
X104757108Y-58770426D01*
X104737358Y-58842626D01*
X104705640Y-58957179D01*
X104662870Y-59110820D01*
X104609963Y-59300279D01*
X104547834Y-59522289D01*
X104477398Y-59773581D01*
X104399570Y-60050889D01*
X104315265Y-60350944D01*
X104225398Y-60670477D01*
X104130886Y-61006222D01*
X104058039Y-61264800D01*
X103352966Y-63766700D01*
X105124332Y-63780054D01*
X105106450Y-63862277D01*
X105086821Y-63939509D01*
X105067032Y-64001650D01*
X105045497Y-64058800D01*
X104014457Y-64058800D01*
X103758389Y-64058694D01*
X103548615Y-64058245D01*
X103380630Y-64057256D01*
X103249929Y-64055531D01*
X103152005Y-64052872D01*
X103082352Y-64049083D01*
X103036467Y-64043966D01*
X103009842Y-64037324D01*
X102997972Y-64028962D01*
X102996353Y-64018681D01*
X102997450Y-64014350D01*
X103006115Y-63984282D01*
X103027607Y-63908571D01*
X103061008Y-63790479D01*
X103105398Y-63633269D01*
X103159858Y-63440202D01*
X103223468Y-63214539D01*
X103295310Y-62959544D01*
X103374464Y-62678477D01*
X103460011Y-62374602D01*
X103551032Y-62051178D01*
X103646607Y-61711470D01*
X103736519Y-61391800D01*
X103835427Y-61040136D01*
X103930609Y-60701797D01*
X104021146Y-60380045D01*
X104106117Y-60078141D01*
X104184606Y-59799348D01*
X104255693Y-59546928D01*
X104318460Y-59324142D01*
X104371986Y-59134251D01*
X104415355Y-58980519D01*
X104447647Y-58866207D01*
X104467943Y-58794576D01*
X104475209Y-58769250D01*
X104494632Y-58742346D01*
X104539674Y-58728719D01*
X104622499Y-58724805D01*
X104626851Y-58724800D01*
X104702643Y-58727965D01*
X104702643Y-58727965D01*
G37*
X104702643Y-58727965D02*
X104752392Y-58736122D01*
X104763975Y-58743850D01*
X104757108Y-58770426D01*
X104737358Y-58842626D01*
X104705640Y-58957179D01*
X104662870Y-59110820D01*
X104609963Y-59300279D01*
X104547834Y-59522289D01*
X104477398Y-59773581D01*
X104399570Y-60050889D01*
X104315265Y-60350944D01*
X104225398Y-60670477D01*
X104130886Y-61006222D01*
X104058039Y-61264800D01*
X103352966Y-63766700D01*
X105124332Y-63780054D01*
X105106450Y-63862277D01*
X105086821Y-63939509D01*
X105067032Y-64001650D01*
X105045497Y-64058800D01*
X104014457Y-64058800D01*
X103758389Y-64058694D01*
X103548615Y-64058245D01*
X103380630Y-64057256D01*
X103249929Y-64055531D01*
X103152005Y-64052872D01*
X103082352Y-64049083D01*
X103036467Y-64043966D01*
X103009842Y-64037324D01*
X102997972Y-64028962D01*
X102996353Y-64018681D01*
X102997450Y-64014350D01*
X103006115Y-63984282D01*
X103027607Y-63908571D01*
X103061008Y-63790479D01*
X103105398Y-63633269D01*
X103159858Y-63440202D01*
X103223468Y-63214539D01*
X103295310Y-62959544D01*
X103374464Y-62678477D01*
X103460011Y-62374602D01*
X103551032Y-62051178D01*
X103646607Y-61711470D01*
X103736519Y-61391800D01*
X103835427Y-61040136D01*
X103930609Y-60701797D01*
X104021146Y-60380045D01*
X104106117Y-60078141D01*
X104184606Y-59799348D01*
X104255693Y-59546928D01*
X104318460Y-59324142D01*
X104371986Y-59134251D01*
X104415355Y-58980519D01*
X104447647Y-58866207D01*
X104467943Y-58794576D01*
X104475209Y-58769250D01*
X104494632Y-58742346D01*
X104539674Y-58728719D01*
X104622499Y-58724805D01*
X104626851Y-58724800D01*
X104702643Y-58727965D01*
G36*
X108096965Y-58725409D02*
X108326725Y-58727259D01*
X108508041Y-58730382D01*
X108642081Y-58734811D01*
X108730016Y-58740579D01*
X108773016Y-58747718D01*
X108778040Y-58751652D01*
X108772211Y-58791043D01*
X108757518Y-58858943D01*
X108749624Y-58891352D01*
X108721209Y-59004199D01*
X107886508Y-59004200D01*
X107051807Y-59004200D01*
X107034335Y-59074050D01*
X107023880Y-59112806D01*
X107001140Y-59195017D01*
X106967637Y-59315250D01*
X106924892Y-59468070D01*
X106874425Y-59648046D01*
X106817758Y-59849743D01*
X106756412Y-60067728D01*
X106719704Y-60198000D01*
X106422545Y-61252100D01*
X107244692Y-61258797D01*
X107493179Y-61261429D01*
X107693441Y-61264943D01*
X107848049Y-61269450D01*
X107959573Y-61275058D01*
X108030582Y-61281879D01*
X108063647Y-61290021D01*
X108066840Y-61293950D01*
X108059980Y-61335057D01*
X108042950Y-61401635D01*
X108037419Y-61420603D01*
X108007998Y-61518800D01*
X106347582Y-61518800D01*
X106199402Y-62045850D01*
X106145828Y-62236376D01*
X106083360Y-62458490D01*
X106016866Y-62694883D01*
X105951216Y-62928243D01*
X105891279Y-63141258D01*
X105883247Y-63169800D01*
X105715272Y-63766700D01*
X106535456Y-63773397D01*
X106797889Y-63776347D01*
X107009690Y-63780501D01*
X107171011Y-63785866D01*
X107282006Y-63792448D01*
X107342828Y-63800254D01*
X107355640Y-63806599D01*
X107349815Y-63845761D01*
X107335130Y-63913506D01*
X107327224Y-63945952D01*
X107298809Y-64058800D01*
X106336624Y-64058800D01*
X106078779Y-64058445D01*
X105867900Y-64057300D01*
X105700158Y-64055237D01*
X105571724Y-64052132D01*
X105478768Y-64047860D01*
X105417461Y-64042296D01*
X105383974Y-64035314D01*
X105374440Y-64027348D01*
X105381186Y-63999129D01*
X105400832Y-63925219D01*
X105432486Y-63808821D01*
X105475260Y-63653138D01*
X105528263Y-63461372D01*
X105590603Y-63236726D01*
X105661393Y-62982403D01*
X105739740Y-62701603D01*
X105824756Y-62397531D01*
X105915549Y-62073389D01*
X106011229Y-61732379D01*
X106110907Y-61377703D01*
X106115789Y-61360348D01*
X106857138Y-58724800D01*
X107817589Y-58724800D01*
X108096965Y-58725409D01*
X108096965Y-58725409D01*
G37*
X108096965Y-58725409D02*
X108326725Y-58727259D01*
X108508041Y-58730382D01*
X108642081Y-58734811D01*
X108730016Y-58740579D01*
X108773016Y-58747718D01*
X108778040Y-58751652D01*
X108772211Y-58791043D01*
X108757518Y-58858943D01*
X108749624Y-58891352D01*
X108721209Y-59004199D01*
X107886508Y-59004200D01*
X107051807Y-59004200D01*
X107034335Y-59074050D01*
X107023880Y-59112806D01*
X107001140Y-59195017D01*
X106967637Y-59315250D01*
X106924892Y-59468070D01*
X106874425Y-59648046D01*
X106817758Y-59849743D01*
X106756412Y-60067728D01*
X106719704Y-60198000D01*
X106422545Y-61252100D01*
X107244692Y-61258797D01*
X107493179Y-61261429D01*
X107693441Y-61264943D01*
X107848049Y-61269450D01*
X107959573Y-61275058D01*
X108030582Y-61281879D01*
X108063647Y-61290021D01*
X108066840Y-61293950D01*
X108059980Y-61335057D01*
X108042950Y-61401635D01*
X108037419Y-61420603D01*
X108007998Y-61518800D01*
X106347582Y-61518800D01*
X106199402Y-62045850D01*
X106145828Y-62236376D01*
X106083360Y-62458490D01*
X106016866Y-62694883D01*
X105951216Y-62928243D01*
X105891279Y-63141258D01*
X105883247Y-63169800D01*
X105715272Y-63766700D01*
X106535456Y-63773397D01*
X106797889Y-63776347D01*
X107009690Y-63780501D01*
X107171011Y-63785866D01*
X107282006Y-63792448D01*
X107342828Y-63800254D01*
X107355640Y-63806599D01*
X107349815Y-63845761D01*
X107335130Y-63913506D01*
X107327224Y-63945952D01*
X107298809Y-64058800D01*
X106336624Y-64058800D01*
X106078779Y-64058445D01*
X105867900Y-64057300D01*
X105700158Y-64055237D01*
X105571724Y-64052132D01*
X105478768Y-64047860D01*
X105417461Y-64042296D01*
X105383974Y-64035314D01*
X105374440Y-64027348D01*
X105381186Y-63999129D01*
X105400832Y-63925219D01*
X105432486Y-63808821D01*
X105475260Y-63653138D01*
X105528263Y-63461372D01*
X105590603Y-63236726D01*
X105661393Y-62982403D01*
X105739740Y-62701603D01*
X105824756Y-62397531D01*
X105915549Y-62073389D01*
X106011229Y-61732379D01*
X106110907Y-61377703D01*
X106115789Y-61360348D01*
X106857138Y-58724800D01*
X107817589Y-58724800D01*
X108096965Y-58725409D01*
G36*
X110497264Y-58738781D02*
X110591164Y-58742066D01*
X110661277Y-58750737D01*
X110721108Y-58767119D01*
X110784160Y-58793535D01*
X110838755Y-58819884D01*
X110988496Y-58918167D01*
X111100800Y-59047579D01*
X111175822Y-59208838D01*
X111213719Y-59402660D01*
X111214645Y-59629764D01*
X111178758Y-59890867D01*
X111122707Y-60128150D01*
X111082745Y-60274200D01*
X110946392Y-60274200D01*
X110870919Y-60271706D01*
X110821403Y-60265287D01*
X110810040Y-60259381D01*
X110815826Y-60229383D01*
X110831174Y-60163097D01*
X110853062Y-60073453D01*
X110858970Y-60049831D01*
X110908287Y-59818546D01*
X110929412Y-59624630D01*
X110921847Y-59462869D01*
X110885097Y-59328046D01*
X110818664Y-59214945D01*
X110774772Y-59165521D01*
X110684044Y-59089686D01*
X110584280Y-59040119D01*
X110464271Y-59013700D01*
X110312806Y-59007310D01*
X110218805Y-59010817D01*
X110090480Y-59021545D01*
X109991572Y-59040290D01*
X109900783Y-59072111D01*
X109837805Y-59101330D01*
X109655988Y-59218474D01*
X109491207Y-59380258D01*
X109346966Y-59582354D01*
X109226768Y-59820437D01*
X109198999Y-59890046D01*
X109179985Y-59946736D01*
X109149096Y-60046709D01*
X109107943Y-60184270D01*
X109058137Y-60353724D01*
X109001290Y-60549377D01*
X108939014Y-60765535D01*
X108872920Y-60996503D01*
X108804618Y-61236586D01*
X108735722Y-61480090D01*
X108667842Y-61721321D01*
X108602590Y-61954584D01*
X108541577Y-62174185D01*
X108486414Y-62374429D01*
X108438714Y-62549621D01*
X108400088Y-62694067D01*
X108372146Y-62802073D01*
X108357125Y-62865000D01*
X108337448Y-62982259D01*
X108324462Y-63108426D01*
X108321422Y-63182500D01*
X108337002Y-63369949D01*
X108385655Y-63520140D01*
X108469031Y-63634624D01*
X108588781Y-63714953D01*
X108746555Y-63762678D01*
X108944005Y-63779352D01*
X108956388Y-63779400D01*
X109186249Y-63757351D01*
X109394081Y-63690899D01*
X109580389Y-63579582D01*
X109745680Y-63422941D01*
X109890461Y-63220515D01*
X110015236Y-62971843D01*
X110101411Y-62738000D01*
X110170732Y-62522100D01*
X110312586Y-62514482D01*
X110389699Y-62512230D01*
X110441218Y-62514343D01*
X110454440Y-62518541D01*
X110447064Y-62546153D01*
X110427209Y-62611029D01*
X110398287Y-62702183D01*
X110377173Y-62767459D01*
X110254383Y-63086375D01*
X110108481Y-63360059D01*
X109939471Y-63588509D01*
X109747354Y-63771721D01*
X109532133Y-63909695D01*
X109293811Y-64002427D01*
X109032390Y-64049916D01*
X108866940Y-64056710D01*
X108751593Y-64051968D01*
X108639190Y-64040752D01*
X108552810Y-64025413D01*
X108548184Y-64024205D01*
X108371269Y-63953637D01*
X108230170Y-63847079D01*
X108125027Y-63704659D01*
X108078473Y-63599855D01*
X108054380Y-63494432D01*
X108041481Y-63354575D01*
X108039826Y-63195409D01*
X108049462Y-63032062D01*
X108070439Y-62879661D01*
X108076070Y-62851492D01*
X108089958Y-62794284D01*
X108116194Y-62694011D01*
X108153161Y-62556450D01*
X108199237Y-62387379D01*
X108252803Y-62192574D01*
X108312241Y-61977813D01*
X108375930Y-61748874D01*
X108442251Y-61511532D01*
X108509584Y-61271566D01*
X108576310Y-61034752D01*
X108640810Y-60806868D01*
X108701464Y-60593691D01*
X108756653Y-60400997D01*
X108804756Y-60234564D01*
X108844155Y-60100169D01*
X108873230Y-60003590D01*
X108884001Y-59969400D01*
X109001263Y-59671060D01*
X109146568Y-59409578D01*
X109318053Y-59187136D01*
X109513858Y-59005915D01*
X109732119Y-58868096D01*
X109877453Y-58805563D01*
X109966872Y-58775921D01*
X110048288Y-58756509D01*
X110137139Y-58745211D01*
X110248863Y-58739909D01*
X110366074Y-58738559D01*
X110497264Y-58738781D01*
X110497264Y-58738781D01*
G37*
X110497264Y-58738781D02*
X110591164Y-58742066D01*
X110661277Y-58750737D01*
X110721108Y-58767119D01*
X110784160Y-58793535D01*
X110838755Y-58819884D01*
X110988496Y-58918167D01*
X111100800Y-59047579D01*
X111175822Y-59208838D01*
X111213719Y-59402660D01*
X111214645Y-59629764D01*
X111178758Y-59890867D01*
X111122707Y-60128150D01*
X111082745Y-60274200D01*
X110946392Y-60274200D01*
X110870919Y-60271706D01*
X110821403Y-60265287D01*
X110810040Y-60259381D01*
X110815826Y-60229383D01*
X110831174Y-60163097D01*
X110853062Y-60073453D01*
X110858970Y-60049831D01*
X110908287Y-59818546D01*
X110929412Y-59624630D01*
X110921847Y-59462869D01*
X110885097Y-59328046D01*
X110818664Y-59214945D01*
X110774772Y-59165521D01*
X110684044Y-59089686D01*
X110584280Y-59040119D01*
X110464271Y-59013700D01*
X110312806Y-59007310D01*
X110218805Y-59010817D01*
X110090480Y-59021545D01*
X109991572Y-59040290D01*
X109900783Y-59072111D01*
X109837805Y-59101330D01*
X109655988Y-59218474D01*
X109491207Y-59380258D01*
X109346966Y-59582354D01*
X109226768Y-59820437D01*
X109198999Y-59890046D01*
X109179985Y-59946736D01*
X109149096Y-60046709D01*
X109107943Y-60184270D01*
X109058137Y-60353724D01*
X109001290Y-60549377D01*
X108939014Y-60765535D01*
X108872920Y-60996503D01*
X108804618Y-61236586D01*
X108735722Y-61480090D01*
X108667842Y-61721321D01*
X108602590Y-61954584D01*
X108541577Y-62174185D01*
X108486414Y-62374429D01*
X108438714Y-62549621D01*
X108400088Y-62694067D01*
X108372146Y-62802073D01*
X108357125Y-62865000D01*
X108337448Y-62982259D01*
X108324462Y-63108426D01*
X108321422Y-63182500D01*
X108337002Y-63369949D01*
X108385655Y-63520140D01*
X108469031Y-63634624D01*
X108588781Y-63714953D01*
X108746555Y-63762678D01*
X108944005Y-63779352D01*
X108956388Y-63779400D01*
X109186249Y-63757351D01*
X109394081Y-63690899D01*
X109580389Y-63579582D01*
X109745680Y-63422941D01*
X109890461Y-63220515D01*
X110015236Y-62971843D01*
X110101411Y-62738000D01*
X110170732Y-62522100D01*
X110312586Y-62514482D01*
X110389699Y-62512230D01*
X110441218Y-62514343D01*
X110454440Y-62518541D01*
X110447064Y-62546153D01*
X110427209Y-62611029D01*
X110398287Y-62702183D01*
X110377173Y-62767459D01*
X110254383Y-63086375D01*
X110108481Y-63360059D01*
X109939471Y-63588509D01*
X109747354Y-63771721D01*
X109532133Y-63909695D01*
X109293811Y-64002427D01*
X109032390Y-64049916D01*
X108866940Y-64056710D01*
X108751593Y-64051968D01*
X108639190Y-64040752D01*
X108552810Y-64025413D01*
X108548184Y-64024205D01*
X108371269Y-63953637D01*
X108230170Y-63847079D01*
X108125027Y-63704659D01*
X108078473Y-63599855D01*
X108054380Y-63494432D01*
X108041481Y-63354575D01*
X108039826Y-63195409D01*
X108049462Y-63032062D01*
X108070439Y-62879661D01*
X108076070Y-62851492D01*
X108089958Y-62794284D01*
X108116194Y-62694011D01*
X108153161Y-62556450D01*
X108199237Y-62387379D01*
X108252803Y-62192574D01*
X108312241Y-61977813D01*
X108375930Y-61748874D01*
X108442251Y-61511532D01*
X108509584Y-61271566D01*
X108576310Y-61034752D01*
X108640810Y-60806868D01*
X108701464Y-60593691D01*
X108756653Y-60400997D01*
X108804756Y-60234564D01*
X108844155Y-60100169D01*
X108873230Y-60003590D01*
X108884001Y-59969400D01*
X109001263Y-59671060D01*
X109146568Y-59409578D01*
X109318053Y-59187136D01*
X109513858Y-59005915D01*
X109732119Y-58868096D01*
X109877453Y-58805563D01*
X109966872Y-58775921D01*
X110048288Y-58756509D01*
X110137139Y-58745211D01*
X110248863Y-58739909D01*
X110366074Y-58738559D01*
X110497264Y-58738781D01*
G36*
X113346538Y-58724941D02*
X113592902Y-58725348D01*
X113818845Y-58725994D01*
X114019801Y-58726854D01*
X114191202Y-58727900D01*
X114328484Y-58729107D01*
X114427080Y-58730448D01*
X114482423Y-58731897D01*
X114493040Y-58732889D01*
X114486425Y-58759659D01*
X114469415Y-58819875D01*
X114454084Y-58872155D01*
X114415129Y-59003331D01*
X113776893Y-59010115D01*
X113138657Y-59016900D01*
X112448583Y-61468000D01*
X112351922Y-61811407D01*
X112258941Y-62141887D01*
X112170592Y-62456046D01*
X112087829Y-62750488D01*
X112011603Y-63021821D01*
X111942868Y-63266650D01*
X111882577Y-63481579D01*
X111831681Y-63663216D01*
X111791135Y-63808165D01*
X111761889Y-63913033D01*
X111744898Y-63974425D01*
X111740990Y-63988950D01*
X111727021Y-64029154D01*
X111701744Y-64049979D01*
X111650981Y-64057744D01*
X111584256Y-64058800D01*
X111507947Y-64057752D01*
X111457519Y-64055051D01*
X111445364Y-64052450D01*
X111452145Y-64027651D01*
X111471790Y-63957195D01*
X111503390Y-63844318D01*
X111546034Y-63692259D01*
X111598812Y-63504256D01*
X111660815Y-63283548D01*
X111731132Y-63033374D01*
X111808855Y-62756971D01*
X111893071Y-62457577D01*
X111982873Y-62138432D01*
X112077349Y-61802773D01*
X112153723Y-61531500D01*
X112861757Y-59016900D01*
X112227050Y-59010108D01*
X112028363Y-59007605D01*
X111875163Y-59004626D01*
X111762134Y-59000807D01*
X111683963Y-58995778D01*
X111635336Y-58989174D01*
X111610940Y-58980629D01*
X111605460Y-58969774D01*
X111606185Y-58967247D01*
X111621338Y-58920708D01*
X111641941Y-58849476D01*
X111647812Y-58827988D01*
X111675598Y-58724800D01*
X113084319Y-58724800D01*
X113346538Y-58724941D01*
X113346538Y-58724941D01*
G37*
X113346538Y-58724941D02*
X113592902Y-58725348D01*
X113818845Y-58725994D01*
X114019801Y-58726854D01*
X114191202Y-58727900D01*
X114328484Y-58729107D01*
X114427080Y-58730448D01*
X114482423Y-58731897D01*
X114493040Y-58732889D01*
X114486425Y-58759659D01*
X114469415Y-58819875D01*
X114454084Y-58872155D01*
X114415129Y-59003331D01*
X113776893Y-59010115D01*
X113138657Y-59016900D01*
X112448583Y-61468000D01*
X112351922Y-61811407D01*
X112258941Y-62141887D01*
X112170592Y-62456046D01*
X112087829Y-62750488D01*
X112011603Y-63021821D01*
X111942868Y-63266650D01*
X111882577Y-63481579D01*
X111831681Y-63663216D01*
X111791135Y-63808165D01*
X111761889Y-63913033D01*
X111744898Y-63974425D01*
X111740990Y-63988950D01*
X111727021Y-64029154D01*
X111701744Y-64049979D01*
X111650981Y-64057744D01*
X111584256Y-64058800D01*
X111507947Y-64057752D01*
X111457519Y-64055051D01*
X111445364Y-64052450D01*
X111452145Y-64027651D01*
X111471790Y-63957195D01*
X111503390Y-63844318D01*
X111546034Y-63692259D01*
X111598812Y-63504256D01*
X111660815Y-63283548D01*
X111731132Y-63033374D01*
X111808855Y-62756971D01*
X111893071Y-62457577D01*
X111982873Y-62138432D01*
X112077349Y-61802773D01*
X112153723Y-61531500D01*
X112861757Y-59016900D01*
X112227050Y-59010108D01*
X112028363Y-59007605D01*
X111875163Y-59004626D01*
X111762134Y-59000807D01*
X111683963Y-58995778D01*
X111635336Y-58989174D01*
X111610940Y-58980629D01*
X111605460Y-58969774D01*
X111606185Y-58967247D01*
X111621338Y-58920708D01*
X111641941Y-58849476D01*
X111647812Y-58827988D01*
X111675598Y-58724800D01*
X113084319Y-58724800D01*
X113346538Y-58724941D01*
G36*
X115371986Y-58728694D02*
X115551644Y-58730731D01*
X115553490Y-58730757D01*
X115766220Y-58734239D01*
X115934701Y-58738253D01*
X116065480Y-58743242D01*
X116165106Y-58749650D01*
X116240131Y-58757922D01*
X116297101Y-58768501D01*
X116342568Y-58781830D01*
X116350628Y-58784779D01*
X116507661Y-58868944D01*
X116637335Y-58988931D01*
X116729381Y-59135220D01*
X116729927Y-59136445D01*
X116770525Y-59273670D01*
X116789305Y-59445969D01*
X116786383Y-59642593D01*
X116761880Y-59852797D01*
X116719789Y-60051206D01*
X116612930Y-60395295D01*
X116483893Y-60693703D01*
X116332657Y-60946461D01*
X116159204Y-61153602D01*
X115963513Y-61315158D01*
X115890040Y-61360780D01*
X115824340Y-61398465D01*
X115780012Y-61424001D01*
X115769341Y-61430235D01*
X115781850Y-61449031D01*
X115820817Y-61493877D01*
X115868145Y-61544820D01*
X115958513Y-61650692D01*
X116019931Y-61753675D01*
X116057079Y-61867373D01*
X116074638Y-62005393D01*
X116077642Y-62153800D01*
X116076386Y-62230312D01*
X116073154Y-62298947D01*
X116066476Y-62366573D01*
X116054882Y-62440056D01*
X116036904Y-62526263D01*
X116011072Y-62632060D01*
X115975919Y-62764314D01*
X115929973Y-62929893D01*
X115871767Y-63135662D01*
X115854840Y-63195200D01*
X115800334Y-63386709D01*
X115749876Y-63563798D01*
X115705253Y-63720203D01*
X115668253Y-63849664D01*
X115640667Y-63945919D01*
X115624282Y-64002706D01*
X115620846Y-64014350D01*
X115601444Y-64041252D01*
X115556426Y-64054878D01*
X115473629Y-64058794D01*
X115469228Y-64058800D01*
X115393237Y-64056837D01*
X115343119Y-64051782D01*
X115331240Y-64047010D01*
X115337870Y-64020567D01*
X115356659Y-63951199D01*
X115385954Y-63844866D01*
X115424103Y-63707529D01*
X115469451Y-63545148D01*
X115520346Y-63363686D01*
X115547302Y-63267860D01*
X115602142Y-63071040D01*
X115653445Y-62883030D01*
X115699261Y-62711280D01*
X115737637Y-62563243D01*
X115766623Y-62446369D01*
X115784268Y-62368109D01*
X115787536Y-62350399D01*
X115798682Y-62155365D01*
X115766023Y-61984453D01*
X115690235Y-61839144D01*
X115571994Y-61720917D01*
X115471767Y-61658818D01*
X115418590Y-61632259D01*
X115371973Y-61612554D01*
X115323099Y-61598520D01*
X115263153Y-61588977D01*
X115183320Y-61582743D01*
X115074785Y-61578638D01*
X114928731Y-61575481D01*
X114837751Y-61573868D01*
X114353340Y-61565437D01*
X114050134Y-62653368D01*
X113985228Y-62886015D01*
X113922921Y-63108886D01*
X113864877Y-63316065D01*
X113812758Y-63501636D01*
X113768227Y-63659683D01*
X113732948Y-63784289D01*
X113708584Y-63869540D01*
X113699684Y-63900050D01*
X113652439Y-64058800D01*
X113526639Y-64058800D01*
X113446590Y-64054460D01*
X113407952Y-64039709D01*
X113400840Y-64021594D01*
X113407591Y-63992573D01*
X113427250Y-63917885D01*
X113458922Y-63800754D01*
X113501713Y-63644401D01*
X113554728Y-63452051D01*
X113617073Y-63226926D01*
X113687855Y-62972248D01*
X113766178Y-62691241D01*
X113851149Y-62387127D01*
X113941874Y-62063129D01*
X114037458Y-61722470D01*
X114137007Y-61368373D01*
X114137440Y-61366836D01*
X114162420Y-61278032D01*
X114442240Y-61278032D01*
X114466267Y-61282019D01*
X114532858Y-61285458D01*
X114633779Y-61288117D01*
X114760795Y-61289765D01*
X114875375Y-61290200D01*
X115090184Y-61287661D01*
X115261600Y-61279730D01*
X115396796Y-61265933D01*
X115486114Y-61249805D01*
X115688869Y-61181391D01*
X115869644Y-61072587D01*
X116029595Y-60921944D01*
X116169877Y-60728011D01*
X116291646Y-60489339D01*
X116396057Y-60204476D01*
X116439834Y-60052832D01*
X116493412Y-59801996D01*
X116510529Y-59586426D01*
X116491166Y-59405993D01*
X116435305Y-59260572D01*
X116342928Y-59150034D01*
X116302288Y-59119775D01*
X116235239Y-59081376D01*
X116160983Y-59052282D01*
X116071578Y-59031312D01*
X115959077Y-59017282D01*
X115815538Y-59009010D01*
X115633015Y-59005315D01*
X115529801Y-59004820D01*
X115367638Y-59005010D01*
X115249189Y-59006541D01*
X115167373Y-59010085D01*
X115115110Y-59016312D01*
X115085319Y-59025892D01*
X115070918Y-59039497D01*
X115067080Y-59048650D01*
X115054166Y-59092862D01*
X115029986Y-59177521D01*
X114996206Y-59296679D01*
X114954494Y-59444386D01*
X114906518Y-59614691D01*
X114853944Y-59801646D01*
X114798442Y-59999300D01*
X114741678Y-60201704D01*
X114685319Y-60402909D01*
X114631034Y-60596965D01*
X114580489Y-60777922D01*
X114535353Y-60939831D01*
X114497293Y-61076742D01*
X114467976Y-61182705D01*
X114449069Y-61251772D01*
X114442241Y-61277991D01*
X114442240Y-61278032D01*
X114162420Y-61278032D01*
X114236914Y-61013217D01*
X114332436Y-60673399D01*
X114423113Y-60350569D01*
X114508053Y-60047913D01*
X114586365Y-59768616D01*
X114657156Y-59515865D01*
X114719535Y-59292845D01*
X114772610Y-59102743D01*
X114815490Y-58948745D01*
X114847282Y-58834036D01*
X114867096Y-58761804D01*
X114874038Y-58735233D01*
X114874040Y-58735198D01*
X114898339Y-58731816D01*
X114966857Y-58729431D01*
X115073020Y-58728087D01*
X115210254Y-58727827D01*
X115371986Y-58728694D01*
X115371986Y-58728694D01*
G37*
X115371986Y-58728694D02*
X115551644Y-58730731D01*
X115553490Y-58730757D01*
X115766220Y-58734239D01*
X115934701Y-58738253D01*
X116065480Y-58743242D01*
X116165106Y-58749650D01*
X116240131Y-58757922D01*
X116297101Y-58768501D01*
X116342568Y-58781830D01*
X116350628Y-58784779D01*
X116507661Y-58868944D01*
X116637335Y-58988931D01*
X116729381Y-59135220D01*
X116729927Y-59136445D01*
X116770525Y-59273670D01*
X116789305Y-59445969D01*
X116786383Y-59642593D01*
X116761880Y-59852797D01*
X116719789Y-60051206D01*
X116612930Y-60395295D01*
X116483893Y-60693703D01*
X116332657Y-60946461D01*
X116159204Y-61153602D01*
X115963513Y-61315158D01*
X115890040Y-61360780D01*
X115824340Y-61398465D01*
X115780012Y-61424001D01*
X115769341Y-61430235D01*
X115781850Y-61449031D01*
X115820817Y-61493877D01*
X115868145Y-61544820D01*
X115958513Y-61650692D01*
X116019931Y-61753675D01*
X116057079Y-61867373D01*
X116074638Y-62005393D01*
X116077642Y-62153800D01*
X116076386Y-62230312D01*
X116073154Y-62298947D01*
X116066476Y-62366573D01*
X116054882Y-62440056D01*
X116036904Y-62526263D01*
X116011072Y-62632060D01*
X115975919Y-62764314D01*
X115929973Y-62929893D01*
X115871767Y-63135662D01*
X115854840Y-63195200D01*
X115800334Y-63386709D01*
X115749876Y-63563798D01*
X115705253Y-63720203D01*
X115668253Y-63849664D01*
X115640667Y-63945919D01*
X115624282Y-64002706D01*
X115620846Y-64014350D01*
X115601444Y-64041252D01*
X115556426Y-64054878D01*
X115473629Y-64058794D01*
X115469228Y-64058800D01*
X115393237Y-64056837D01*
X115343119Y-64051782D01*
X115331240Y-64047010D01*
X115337870Y-64020567D01*
X115356659Y-63951199D01*
X115385954Y-63844866D01*
X115424103Y-63707529D01*
X115469451Y-63545148D01*
X115520346Y-63363686D01*
X115547302Y-63267860D01*
X115602142Y-63071040D01*
X115653445Y-62883030D01*
X115699261Y-62711280D01*
X115737637Y-62563243D01*
X115766623Y-62446369D01*
X115784268Y-62368109D01*
X115787536Y-62350399D01*
X115798682Y-62155365D01*
X115766023Y-61984453D01*
X115690235Y-61839144D01*
X115571994Y-61720917D01*
X115471767Y-61658818D01*
X115418590Y-61632259D01*
X115371973Y-61612554D01*
X115323099Y-61598520D01*
X115263153Y-61588977D01*
X115183320Y-61582743D01*
X115074785Y-61578638D01*
X114928731Y-61575481D01*
X114837751Y-61573868D01*
X114353340Y-61565437D01*
X114050134Y-62653368D01*
X113985228Y-62886015D01*
X113922921Y-63108886D01*
X113864877Y-63316065D01*
X113812758Y-63501636D01*
X113768227Y-63659683D01*
X113732948Y-63784289D01*
X113708584Y-63869540D01*
X113699684Y-63900050D01*
X113652439Y-64058800D01*
X113526639Y-64058800D01*
X113446590Y-64054460D01*
X113407952Y-64039709D01*
X113400840Y-64021594D01*
X113407591Y-63992573D01*
X113427250Y-63917885D01*
X113458922Y-63800754D01*
X113501713Y-63644401D01*
X113554728Y-63452051D01*
X113617073Y-63226926D01*
X113687855Y-62972248D01*
X113766178Y-62691241D01*
X113851149Y-62387127D01*
X113941874Y-62063129D01*
X114037458Y-61722470D01*
X114137007Y-61368373D01*
X114137440Y-61366836D01*
X114162420Y-61278032D01*
X114442240Y-61278032D01*
X114466267Y-61282019D01*
X114532858Y-61285458D01*
X114633779Y-61288117D01*
X114760795Y-61289765D01*
X114875375Y-61290200D01*
X115090184Y-61287661D01*
X115261600Y-61279730D01*
X115396796Y-61265933D01*
X115486114Y-61249805D01*
X115688869Y-61181391D01*
X115869644Y-61072587D01*
X116029595Y-60921944D01*
X116169877Y-60728011D01*
X116291646Y-60489339D01*
X116396057Y-60204476D01*
X116439834Y-60052832D01*
X116493412Y-59801996D01*
X116510529Y-59586426D01*
X116491166Y-59405993D01*
X116435305Y-59260572D01*
X116342928Y-59150034D01*
X116302288Y-59119775D01*
X116235239Y-59081376D01*
X116160983Y-59052282D01*
X116071578Y-59031312D01*
X115959077Y-59017282D01*
X115815538Y-59009010D01*
X115633015Y-59005315D01*
X115529801Y-59004820D01*
X115367638Y-59005010D01*
X115249189Y-59006541D01*
X115167373Y-59010085D01*
X115115110Y-59016312D01*
X115085319Y-59025892D01*
X115070918Y-59039497D01*
X115067080Y-59048650D01*
X115054166Y-59092862D01*
X115029986Y-59177521D01*
X114996206Y-59296679D01*
X114954494Y-59444386D01*
X114906518Y-59614691D01*
X114853944Y-59801646D01*
X114798442Y-59999300D01*
X114741678Y-60201704D01*
X114685319Y-60402909D01*
X114631034Y-60596965D01*
X114580489Y-60777922D01*
X114535353Y-60939831D01*
X114497293Y-61076742D01*
X114467976Y-61182705D01*
X114449069Y-61251772D01*
X114442241Y-61277991D01*
X114442240Y-61278032D01*
X114162420Y-61278032D01*
X114236914Y-61013217D01*
X114332436Y-60673399D01*
X114423113Y-60350569D01*
X114508053Y-60047913D01*
X114586365Y-59768616D01*
X114657156Y-59515865D01*
X114719535Y-59292845D01*
X114772610Y-59102743D01*
X114815490Y-58948745D01*
X114847282Y-58834036D01*
X114867096Y-58761804D01*
X114874038Y-58735233D01*
X114874040Y-58735198D01*
X114898339Y-58731816D01*
X114966857Y-58729431D01*
X115073020Y-58728087D01*
X115210254Y-58727827D01*
X115371986Y-58728694D01*
G36*
X117963384Y-58738823D02*
X117972840Y-58758043D01*
X117966087Y-58786920D01*
X117946431Y-58861437D01*
X117914773Y-58978347D01*
X117872015Y-59134401D01*
X117819058Y-59326352D01*
X117756804Y-59550951D01*
X117686156Y-59804952D01*
X117608014Y-60085105D01*
X117523281Y-60388163D01*
X117432859Y-60710879D01*
X117337648Y-61050004D01*
X117247862Y-61369220D01*
X117148855Y-61720974D01*
X117053569Y-62059614D01*
X116962928Y-62381855D01*
X116877855Y-62684415D01*
X116799271Y-62964008D01*
X116728099Y-63217350D01*
X116665261Y-63441157D01*
X116611681Y-63632144D01*
X116568279Y-63787027D01*
X116535980Y-63902522D01*
X116515704Y-63975345D01*
X116508509Y-64001650D01*
X116494272Y-64034816D01*
X116464025Y-64051981D01*
X116404120Y-64058205D01*
X116354432Y-64058800D01*
X116275001Y-64057360D01*
X116235370Y-64049679D01*
X116224550Y-64030717D01*
X116229885Y-64001650D01*
X116238709Y-63969861D01*
X116260388Y-63892441D01*
X116294005Y-63772655D01*
X116338640Y-63613768D01*
X116393375Y-63419046D01*
X116457292Y-63191753D01*
X116529473Y-62935156D01*
X116608998Y-62652519D01*
X116694951Y-62347108D01*
X116786411Y-62022189D01*
X116882461Y-61681026D01*
X116978208Y-61341000D01*
X117711378Y-58737500D01*
X117842109Y-58729822D01*
X117923019Y-58728671D01*
X117963384Y-58738823D01*
X117963384Y-58738823D01*
G37*
X117963384Y-58738823D02*
X117972840Y-58758043D01*
X117966087Y-58786920D01*
X117946431Y-58861437D01*
X117914773Y-58978347D01*
X117872015Y-59134401D01*
X117819058Y-59326352D01*
X117756804Y-59550951D01*
X117686156Y-59804952D01*
X117608014Y-60085105D01*
X117523281Y-60388163D01*
X117432859Y-60710879D01*
X117337648Y-61050004D01*
X117247862Y-61369220D01*
X117148855Y-61720974D01*
X117053569Y-62059614D01*
X116962928Y-62381855D01*
X116877855Y-62684415D01*
X116799271Y-62964008D01*
X116728099Y-63217350D01*
X116665261Y-63441157D01*
X116611681Y-63632144D01*
X116568279Y-63787027D01*
X116535980Y-63902522D01*
X116515704Y-63975345D01*
X116508509Y-64001650D01*
X116494272Y-64034816D01*
X116464025Y-64051981D01*
X116404120Y-64058205D01*
X116354432Y-64058800D01*
X116275001Y-64057360D01*
X116235370Y-64049679D01*
X116224550Y-64030717D01*
X116229885Y-64001650D01*
X116238709Y-63969861D01*
X116260388Y-63892441D01*
X116294005Y-63772655D01*
X116338640Y-63613768D01*
X116393375Y-63419046D01*
X116457292Y-63191753D01*
X116529473Y-62935156D01*
X116608998Y-62652519D01*
X116694951Y-62347108D01*
X116786411Y-62022189D01*
X116882461Y-61681026D01*
X116978208Y-61341000D01*
X117711378Y-58737500D01*
X117842109Y-58729822D01*
X117923019Y-58728671D01*
X117963384Y-58738823D01*
G36*
X119699315Y-58732468D02*
X119918559Y-58765899D01*
X120098368Y-58831030D01*
X120239293Y-58928226D01*
X120341884Y-59057851D01*
X120400579Y-59197955D01*
X120422665Y-59319005D01*
X120431722Y-59474271D01*
X120428315Y-59649021D01*
X120413010Y-59828524D01*
X120386373Y-59998048D01*
X120366566Y-60083700D01*
X120319312Y-60261500D01*
X120172642Y-60269181D01*
X120090591Y-60271858D01*
X120048579Y-60266820D01*
X120036059Y-60251049D01*
X120039467Y-60231081D01*
X120088647Y-60051185D01*
X120120247Y-59899554D01*
X120137309Y-59758026D01*
X120142842Y-59613800D01*
X120142063Y-59494453D01*
X120135959Y-59410666D01*
X120121876Y-59347268D01*
X120097162Y-59289089D01*
X120080720Y-59258519D01*
X120001081Y-59151778D01*
X119896224Y-59076948D01*
X119759186Y-59030528D01*
X119584459Y-59009094D01*
X119346474Y-59019011D01*
X119130120Y-59074885D01*
X118935391Y-59176719D01*
X118762281Y-59324518D01*
X118610785Y-59518287D01*
X118480894Y-59758029D01*
X118445450Y-59840613D01*
X118424875Y-59899144D01*
X118392594Y-60001130D01*
X118350173Y-60140993D01*
X118299180Y-60313153D01*
X118241182Y-60512033D01*
X118177746Y-60732052D01*
X118110440Y-60967631D01*
X118040832Y-61213192D01*
X117970488Y-61463155D01*
X117900976Y-61711942D01*
X117833863Y-61953972D01*
X117770717Y-62183668D01*
X117713106Y-62395449D01*
X117662595Y-62583738D01*
X117620754Y-62742954D01*
X117589149Y-62867519D01*
X117569347Y-62951854D01*
X117564503Y-62976361D01*
X117543992Y-63191016D01*
X117561652Y-63372497D01*
X117617680Y-63521376D01*
X117712278Y-63638228D01*
X117820440Y-63711411D01*
X117888431Y-63744365D01*
X117946459Y-63764759D01*
X118009580Y-63774994D01*
X118092852Y-63777472D01*
X118211331Y-63774595D01*
X118215610Y-63774450D01*
X118340710Y-63768490D01*
X118432253Y-63758154D01*
X118507475Y-63739727D01*
X118583614Y-63709493D01*
X118638740Y-63683239D01*
X118820064Y-63566316D01*
X118984075Y-63403879D01*
X119128663Y-63198888D01*
X119251716Y-62954301D01*
X119345081Y-62693550D01*
X119400187Y-62509400D01*
X119537413Y-62509400D01*
X119613148Y-62513264D01*
X119662987Y-62523216D01*
X119674640Y-62532509D01*
X119665096Y-62583667D01*
X119639291Y-62669927D01*
X119601469Y-62779909D01*
X119555870Y-62902236D01*
X119506737Y-63025529D01*
X119458311Y-63138410D01*
X119414834Y-63229500D01*
X119414716Y-63229727D01*
X119321151Y-63382312D01*
X119201258Y-63536343D01*
X119065850Y-63680596D01*
X118925742Y-63803850D01*
X118791747Y-63894882D01*
X118755793Y-63913548D01*
X118538150Y-63994856D01*
X118303157Y-64043181D01*
X118065954Y-64056922D01*
X117841680Y-64034475D01*
X117769640Y-64017935D01*
X117595896Y-63949938D01*
X117459680Y-63848224D01*
X117358559Y-63710441D01*
X117297997Y-63561933D01*
X117273584Y-63436327D01*
X117263210Y-63279811D01*
X117267131Y-63110367D01*
X117285604Y-62945982D01*
X117288926Y-62926814D01*
X117303024Y-62863492D01*
X117329814Y-62757044D01*
X117367701Y-62613094D01*
X117415093Y-62437267D01*
X117470395Y-62235187D01*
X117532013Y-62012477D01*
X117598355Y-61774763D01*
X117667825Y-61527668D01*
X117738831Y-61276817D01*
X117809779Y-61027834D01*
X117879074Y-60786342D01*
X117945123Y-60557967D01*
X118006333Y-60348332D01*
X118061109Y-60163062D01*
X118107858Y-60007781D01*
X118144986Y-59888112D01*
X118170900Y-59809681D01*
X118176800Y-59793595D01*
X118305160Y-59519159D01*
X118462756Y-59282499D01*
X118647032Y-59085397D01*
X118855427Y-58929636D01*
X119085385Y-58817000D01*
X119334346Y-58749271D01*
X119599753Y-58728233D01*
X119699315Y-58732468D01*
X119699315Y-58732468D01*
G37*
X119699315Y-58732468D02*
X119918559Y-58765899D01*
X120098368Y-58831030D01*
X120239293Y-58928226D01*
X120341884Y-59057851D01*
X120400579Y-59197955D01*
X120422665Y-59319005D01*
X120431722Y-59474271D01*
X120428315Y-59649021D01*
X120413010Y-59828524D01*
X120386373Y-59998048D01*
X120366566Y-60083700D01*
X120319312Y-60261500D01*
X120172642Y-60269181D01*
X120090591Y-60271858D01*
X120048579Y-60266820D01*
X120036059Y-60251049D01*
X120039467Y-60231081D01*
X120088647Y-60051185D01*
X120120247Y-59899554D01*
X120137309Y-59758026D01*
X120142842Y-59613800D01*
X120142063Y-59494453D01*
X120135959Y-59410666D01*
X120121876Y-59347268D01*
X120097162Y-59289089D01*
X120080720Y-59258519D01*
X120001081Y-59151778D01*
X119896224Y-59076948D01*
X119759186Y-59030528D01*
X119584459Y-59009094D01*
X119346474Y-59019011D01*
X119130120Y-59074885D01*
X118935391Y-59176719D01*
X118762281Y-59324518D01*
X118610785Y-59518287D01*
X118480894Y-59758029D01*
X118445450Y-59840613D01*
X118424875Y-59899144D01*
X118392594Y-60001130D01*
X118350173Y-60140993D01*
X118299180Y-60313153D01*
X118241182Y-60512033D01*
X118177746Y-60732052D01*
X118110440Y-60967631D01*
X118040832Y-61213192D01*
X117970488Y-61463155D01*
X117900976Y-61711942D01*
X117833863Y-61953972D01*
X117770717Y-62183668D01*
X117713106Y-62395449D01*
X117662595Y-62583738D01*
X117620754Y-62742954D01*
X117589149Y-62867519D01*
X117569347Y-62951854D01*
X117564503Y-62976361D01*
X117543992Y-63191016D01*
X117561652Y-63372497D01*
X117617680Y-63521376D01*
X117712278Y-63638228D01*
X117820440Y-63711411D01*
X117888431Y-63744365D01*
X117946459Y-63764759D01*
X118009580Y-63774994D01*
X118092852Y-63777472D01*
X118211331Y-63774595D01*
X118215610Y-63774450D01*
X118340710Y-63768490D01*
X118432253Y-63758154D01*
X118507475Y-63739727D01*
X118583614Y-63709493D01*
X118638740Y-63683239D01*
X118820064Y-63566316D01*
X118984075Y-63403879D01*
X119128663Y-63198888D01*
X119251716Y-62954301D01*
X119345081Y-62693550D01*
X119400187Y-62509400D01*
X119537413Y-62509400D01*
X119613148Y-62513264D01*
X119662987Y-62523216D01*
X119674640Y-62532509D01*
X119665096Y-62583667D01*
X119639291Y-62669927D01*
X119601469Y-62779909D01*
X119555870Y-62902236D01*
X119506737Y-63025529D01*
X119458311Y-63138410D01*
X119414834Y-63229500D01*
X119414716Y-63229727D01*
X119321151Y-63382312D01*
X119201258Y-63536343D01*
X119065850Y-63680596D01*
X118925742Y-63803850D01*
X118791747Y-63894882D01*
X118755793Y-63913548D01*
X118538150Y-63994856D01*
X118303157Y-64043181D01*
X118065954Y-64056922D01*
X117841680Y-64034475D01*
X117769640Y-64017935D01*
X117595896Y-63949938D01*
X117459680Y-63848224D01*
X117358559Y-63710441D01*
X117297997Y-63561933D01*
X117273584Y-63436327D01*
X117263210Y-63279811D01*
X117267131Y-63110367D01*
X117285604Y-62945982D01*
X117288926Y-62926814D01*
X117303024Y-62863492D01*
X117329814Y-62757044D01*
X117367701Y-62613094D01*
X117415093Y-62437267D01*
X117470395Y-62235187D01*
X117532013Y-62012477D01*
X117598355Y-61774763D01*
X117667825Y-61527668D01*
X117738831Y-61276817D01*
X117809779Y-61027834D01*
X117879074Y-60786342D01*
X117945123Y-60557967D01*
X118006333Y-60348332D01*
X118061109Y-60163062D01*
X118107858Y-60007781D01*
X118144986Y-59888112D01*
X118170900Y-59809681D01*
X118176800Y-59793595D01*
X118305160Y-59519159D01*
X118462756Y-59282499D01*
X118647032Y-59085397D01*
X118855427Y-58929636D01*
X119085385Y-58817000D01*
X119334346Y-58749271D01*
X119599753Y-58728233D01*
X119699315Y-58732468D01*
D13*
X118792667Y-33488381D02*
X118792667Y-34202667D01*
X118745047Y-34345524D01*
X118649809Y-34440762D01*
X118506952Y-34488381D01*
X118411714Y-34488381D01*
X119221238Y-33583619D02*
X119268857Y-33536000D01*
X119364095Y-33488381D01*
X119602191Y-33488381D01*
X119697429Y-33536000D01*
X119745048Y-33583619D01*
X119792667Y-33678857D01*
X119792667Y-33774095D01*
X119745048Y-33916952D01*
X119173619Y-34488381D01*
X119792667Y-34488381D01*
X53863335Y-82357981D02*
X53863335Y-83167505D01*
X53910954Y-83262743D01*
X53958573Y-83310362D01*
X54053811Y-83357981D01*
X54244288Y-83357981D01*
X54339526Y-83310362D01*
X54387145Y-83262743D01*
X54434764Y-83167505D01*
X54434764Y-82357981D01*
X55434764Y-83357981D02*
X54863335Y-83357981D01*
X55149049Y-83357981D02*
X55149049Y-82357981D01*
X55053811Y-82500838D01*
X54958573Y-82596076D01*
X54863335Y-82643695D01*
X53355335Y-99629981D02*
X53355335Y-100439505D01*
X53402954Y-100534743D01*
X53450573Y-100582362D01*
X53545811Y-100629981D01*
X53736288Y-100629981D01*
X53831526Y-100582362D01*
X53879145Y-100534743D01*
X53926764Y-100439505D01*
X53926764Y-99629981D01*
X54355335Y-99725219D02*
X54402954Y-99677600D01*
X54498192Y-99629981D01*
X54736288Y-99629981D01*
X54831526Y-99677600D01*
X54879145Y-99725219D01*
X54926764Y-99820457D01*
X54926764Y-99915695D01*
X54879145Y-100058552D01*
X54307716Y-100629981D01*
X54926764Y-100629981D01*
M02*
