G04 #@! TF.FileFunction,Soldermask,Top*
%FSLAX46Y46*%
G04 Gerber Fmt 4.6, Leading zero omitted, Abs format (unit mm)*
G04 Created by KiCad (PCBNEW 4.0.2+dfsg1-stable) date Mon 11 Dec 2017 09:17:39 PM EST*
%MOMM*%
G01*
G04 APERTURE LIST*
%ADD10C,0.100000*%
%ADD11R,1.300000X2.900000*%
%ADD12R,1.400000X1.650000*%
%ADD13R,1.650000X1.400000*%
%ADD14C,2.200000*%
%ADD15R,3.700000X8.600000*%
%ADD16R,1.700000X1.100000*%
%ADD17R,1.100000X1.700000*%
%ADD18R,1.460000X1.050000*%
%ADD19C,1.700000*%
%ADD20R,2.559000X2.178000*%
%ADD21R,1.600000X1.600000*%
%ADD22R,1.200000X1.300000*%
%ADD23R,1.400000X2.000000*%
%ADD24R,3.600000X1.400000*%
%ADD25R,1.050000X1.460000*%
G04 APERTURE END LIST*
D10*
D11*
X38756000Y-44958000D03*
X41656000Y-44958000D03*
D12*
X54118000Y-76454000D03*
X56118000Y-76454000D03*
X55102000Y-55626000D03*
X53102000Y-55626000D03*
D13*
X50546000Y-65802000D03*
X50546000Y-67802000D03*
D14*
X47752000Y-75946000D03*
X47752000Y-65786000D03*
X47752000Y-58166000D03*
X40132000Y-75946000D03*
D15*
X61722000Y-43688000D03*
X66422000Y-43688000D03*
D16*
X40132000Y-53406000D03*
X40132000Y-55306000D03*
X40132000Y-49596000D03*
X40132000Y-51496000D03*
X50546000Y-74742000D03*
X50546000Y-76642000D03*
X50546000Y-71186000D03*
X50546000Y-73086000D03*
D17*
X48956000Y-53594000D03*
X47056000Y-53594000D03*
X52766000Y-53594000D03*
X50866000Y-53594000D03*
D16*
X54610000Y-57978000D03*
X54610000Y-59878000D03*
X56896000Y-59878000D03*
X56896000Y-57978000D03*
X50546000Y-64196000D03*
X50546000Y-62296000D03*
X58166000Y-64836000D03*
X58166000Y-66736000D03*
X58166000Y-76134000D03*
X58166000Y-74234000D03*
D18*
X42842000Y-52136000D03*
X42842000Y-53086000D03*
X42842000Y-54036000D03*
X45042000Y-54036000D03*
X45042000Y-52136000D03*
X52494000Y-67630000D03*
X52494000Y-68580000D03*
X52494000Y-69530000D03*
X54694000Y-69530000D03*
X54694000Y-67630000D03*
X52494000Y-62804000D03*
X52494000Y-63754000D03*
X52494000Y-64704000D03*
X54694000Y-64704000D03*
X54694000Y-62804000D03*
D19*
X33782000Y-58166000D03*
X33782000Y-55626000D03*
X33782000Y-53086000D03*
X33782000Y-60706000D03*
X36322000Y-54356000D03*
X36322000Y-56896000D03*
X36322000Y-59436000D03*
X36322000Y-61976000D03*
X33782000Y-63246000D03*
X36322000Y-64516000D03*
X33782000Y-65786000D03*
X36322000Y-67056000D03*
X33782000Y-68326000D03*
X36322000Y-69596000D03*
X33782000Y-70866000D03*
X36322000Y-72136000D03*
X33782000Y-73406000D03*
X36322000Y-74676000D03*
X33782000Y-75946000D03*
X36322000Y-77216000D03*
D20*
X35560000Y-42926000D03*
X35560000Y-46990000D03*
D21*
X47076000Y-55626000D03*
X49276000Y-55626000D03*
X58166000Y-68750000D03*
X58166000Y-70950000D03*
X42542000Y-79756000D03*
X45342000Y-79756000D03*
D22*
X52898000Y-73474000D03*
X54798000Y-73474000D03*
X53848000Y-71374000D03*
X59116000Y-78164000D03*
X57216000Y-78164000D03*
X58166000Y-80264000D03*
D23*
X43990000Y-41656000D03*
X46990000Y-41656000D03*
D12*
X55594000Y-44958000D03*
X53594000Y-44958000D03*
D13*
X60452000Y-54896000D03*
X60452000Y-56896000D03*
D21*
X49225020Y-44958000D03*
X51425020Y-44958000D03*
X66548000Y-63128980D03*
X66548000Y-65328980D03*
D17*
X43942000Y-44958000D03*
X45842000Y-44958000D03*
X43942000Y-48006000D03*
X45842000Y-48006000D03*
D16*
X63246000Y-52954000D03*
X63246000Y-51054000D03*
X60452000Y-52954000D03*
X60452000Y-51054000D03*
D24*
X66548000Y-55730000D03*
X66548000Y-49530000D03*
D16*
X66548000Y-58420000D03*
X66548000Y-60320000D03*
D18*
X55458000Y-48900000D03*
X55458000Y-49850000D03*
X55458000Y-50800000D03*
X57658000Y-50800000D03*
X57658000Y-48900000D03*
X57658000Y-49850000D03*
D25*
X50612000Y-60028000D03*
X51562000Y-60028000D03*
X52512000Y-60028000D03*
X52512000Y-57828000D03*
X50612000Y-57828000D03*
M02*
