M48
;DRILL file {KiCad 4.0.2+dfsg1-stable} date Mon 11 Dec 2017 09:17:46 PM EST
;FORMAT={-:-/ absolute / inch / decimal}
FMAT,2
INCH,TZ
T1C0.012
T2C0.031
T3C0.051
%
G90
G05
M72
T1
X1.4Y-3.11
X1.4Y-3.18
X1.49Y-2.16
X1.49Y-2.23
X1.52Y-1.98
X1.53Y-1.64
X1.67Y-2.18
X1.96Y-1.967
X1.97Y-1.67
X2.01Y-2.73
X2.02Y-2.19
X2.03Y-2.04
X2.04Y-2.6
X2.06Y-2.42
X2.08Y-2.61
X2.13Y-2.42
X2.14Y-2.61
X2.18Y-1.88
X2.18Y-2.42
X2.19Y-2.58
X2.19Y-2.94
X2.24Y-2.397
X2.25Y-2.58
X2.29Y-2.86
X2.3Y-2.2
X2.3Y-2.2
X2.43Y-2.11
X2.4316Y-2.0618
X2.49Y-1.973
X2.62Y-2.66
T2
X1.33Y-2.09
X1.33Y-2.19
X1.33Y-2.29
X1.33Y-2.39
X1.33Y-2.49
X1.33Y-2.59
X1.33Y-2.69
X1.33Y-2.79
X1.33Y-2.89
X1.33Y-2.99
X1.43Y-2.14
X1.43Y-2.24
X1.43Y-2.34
X1.43Y-2.44
X1.43Y-2.54
X1.43Y-2.64
X1.43Y-2.74
X1.43Y-2.84
X1.43Y-2.94
X1.43Y-3.04
T3
X1.58Y-2.99
X1.88Y-2.29
X1.88Y-2.59
X1.88Y-2.99
T0
M30
