G04 #@! TF.FileFunction,Copper,L2,Bot,Signal*
%FSLAX46Y46*%
G04 Gerber Fmt 4.6, Leading zero omitted, Abs format (unit mm)*
G04 Created by KiCad (PCBNEW 4.0.2+dfsg1-stable) date Mon 05 Feb 2018 09:34:23 PM EST*
%MOMM*%
G01*
G04 APERTURE LIST*
%ADD10C,0.100000*%
%ADD11C,1.800000*%
%ADD12C,1.300000*%
%ADD13C,0.609600*%
%ADD14C,0.762000*%
%ADD15C,0.254000*%
G04 APERTURE END LIST*
D10*
D11*
X47752000Y-75946000D03*
X47752000Y-65786000D03*
X47752000Y-58166000D03*
X40132000Y-75946000D03*
D12*
X33782000Y-58166000D03*
X33782000Y-55626000D03*
X33782000Y-53086000D03*
X33782000Y-60706000D03*
X36322000Y-54356000D03*
X36322000Y-56896000D03*
X36322000Y-59436000D03*
X36322000Y-61976000D03*
X33782000Y-63246000D03*
X36322000Y-64516000D03*
X33782000Y-65786000D03*
X36322000Y-67056000D03*
X33782000Y-68326000D03*
X36322000Y-69596000D03*
X33782000Y-70866000D03*
X36322000Y-72136000D03*
X33782000Y-73406000D03*
X36322000Y-74676000D03*
X33782000Y-75946000D03*
X36322000Y-77216000D03*
D13*
X40132000Y-56388000D03*
X70104000Y-53594000D03*
X66548000Y-67564000D03*
X58420000Y-55880000D03*
X58420000Y-55880000D03*
X63246000Y-50114210D03*
X55372000Y-47752000D03*
X50038000Y-42418000D03*
X38862000Y-41656000D03*
X55626000Y-74676000D03*
X51308000Y-55626000D03*
X51054000Y-69342000D03*
X51816000Y-66040000D03*
X52324000Y-61468000D03*
X38608000Y-50292000D03*
X56896000Y-60883790D03*
X58166000Y-72644000D03*
X61722000Y-53594000D03*
X61763495Y-52369790D03*
X55372000Y-61468000D03*
X54102000Y-61468000D03*
X37846000Y-56642000D03*
X37846000Y-54864000D03*
X51562000Y-51816000D03*
X49784000Y-49961790D03*
X35560000Y-80772000D03*
X35560000Y-78994000D03*
X57150000Y-65532000D03*
X55626000Y-65532000D03*
X54356000Y-66294000D03*
X52832000Y-66294000D03*
D14*
X50038000Y-42418000D02*
X50342799Y-42113201D01*
X50342799Y-42113201D02*
X50342799Y-40843201D01*
D15*
X61763495Y-52369790D02*
X61763495Y-53552505D01*
X61763495Y-53552505D02*
X61722000Y-53594000D01*
X54102000Y-61468000D02*
X55372000Y-61468000D01*
X37846000Y-54864000D02*
X37846000Y-56642000D01*
X49784000Y-49961790D02*
X51562000Y-51739790D01*
X51562000Y-51739790D02*
X51562000Y-51816000D01*
X35560000Y-78994000D02*
X35560000Y-80772000D01*
X55626000Y-65532000D02*
X57150000Y-65532000D01*
X52832000Y-66294000D02*
X54356000Y-66294000D01*
G36*
X93144489Y-33347511D02*
X93667022Y-34129537D01*
X93853000Y-35064509D01*
X93853000Y-38100000D01*
X93855440Y-38124776D01*
X94048786Y-39096792D01*
X94067749Y-39142573D01*
X94618352Y-39966608D01*
X94653392Y-40001648D01*
X95477427Y-40552251D01*
X95523208Y-40571214D01*
X96495224Y-40764560D01*
X96520000Y-40767000D01*
X99555491Y-40767000D01*
X100490463Y-40952978D01*
X101272489Y-41475511D01*
X101613000Y-41985122D01*
X101613000Y-93142878D01*
X101272489Y-93652489D01*
X100490463Y-94175022D01*
X99555491Y-94361000D01*
X96520000Y-94361000D01*
X96495224Y-94363440D01*
X95523208Y-94556786D01*
X95477427Y-94575749D01*
X94653392Y-95126352D01*
X94618352Y-95161392D01*
X94067749Y-95985427D01*
X94048786Y-96031208D01*
X93855440Y-97003224D01*
X93853000Y-97028000D01*
X93853000Y-100063491D01*
X93667022Y-100998463D01*
X93144489Y-101780489D01*
X92634878Y-102121000D01*
X41477122Y-102121000D01*
X40967511Y-101780489D01*
X40444978Y-100998463D01*
X40259000Y-100063491D01*
X40259000Y-97028000D01*
X40256560Y-97003224D01*
X40063214Y-96031208D01*
X40044251Y-95985427D01*
X39493648Y-95161392D01*
X39458608Y-95126352D01*
X38634573Y-94575749D01*
X38588792Y-94556786D01*
X37616776Y-94363440D01*
X37592000Y-94361000D01*
X34556509Y-94361000D01*
X33621537Y-94175022D01*
X32839511Y-93652489D01*
X32475000Y-93106960D01*
X32475000Y-79129816D01*
X34874081Y-79129816D01*
X34978268Y-79381967D01*
X35052000Y-79455828D01*
X35052000Y-80310092D01*
X34978946Y-80383018D01*
X34874319Y-80634987D01*
X34874081Y-80907816D01*
X34978268Y-81159967D01*
X35171018Y-81353054D01*
X35422987Y-81457681D01*
X35695816Y-81457919D01*
X35947967Y-81353732D01*
X36141054Y-81160982D01*
X36245681Y-80909013D01*
X36245919Y-80636184D01*
X36141732Y-80384033D01*
X36068000Y-80310172D01*
X36068000Y-79455908D01*
X36141054Y-79382982D01*
X36245681Y-79131013D01*
X36245919Y-78858184D01*
X36141732Y-78606033D01*
X35948982Y-78412946D01*
X35697013Y-78308319D01*
X35424184Y-78308081D01*
X35172033Y-78412268D01*
X34978946Y-78605018D01*
X34874319Y-78856987D01*
X34874081Y-79129816D01*
X32475000Y-79129816D01*
X32475000Y-77420179D01*
X35290822Y-77420179D01*
X35447451Y-77799251D01*
X35737223Y-78089529D01*
X36116022Y-78246820D01*
X36526179Y-78247178D01*
X36905251Y-78090549D01*
X37195529Y-77800777D01*
X37352820Y-77421978D01*
X37353178Y-77011821D01*
X37196549Y-76632749D01*
X36906777Y-76342471D01*
X36562920Y-76199689D01*
X38850778Y-76199689D01*
X39045388Y-76670680D01*
X39405425Y-77031345D01*
X39876076Y-77226777D01*
X40385689Y-77227222D01*
X40856680Y-77032612D01*
X41217345Y-76672575D01*
X41412777Y-76201924D01*
X41412778Y-76199689D01*
X46470778Y-76199689D01*
X46665388Y-76670680D01*
X47025425Y-77031345D01*
X47496076Y-77226777D01*
X48005689Y-77227222D01*
X48476680Y-77032612D01*
X48837345Y-76672575D01*
X49032777Y-76201924D01*
X49033222Y-75692311D01*
X48838612Y-75221320D01*
X48478575Y-74860655D01*
X48007924Y-74665223D01*
X47498311Y-74664778D01*
X47027320Y-74859388D01*
X46666655Y-75219425D01*
X46471223Y-75690076D01*
X46470778Y-76199689D01*
X41412778Y-76199689D01*
X41413222Y-75692311D01*
X41218612Y-75221320D01*
X40858575Y-74860655D01*
X40387924Y-74665223D01*
X39878311Y-74664778D01*
X39407320Y-74859388D01*
X39046655Y-75219425D01*
X38851223Y-75690076D01*
X38850778Y-76199689D01*
X36562920Y-76199689D01*
X36527978Y-76185180D01*
X36117821Y-76184822D01*
X35738749Y-76341451D01*
X35448471Y-76631223D01*
X35291180Y-77010022D01*
X35290822Y-77420179D01*
X32475000Y-77420179D01*
X32475000Y-76150179D01*
X32750822Y-76150179D01*
X32907451Y-76529251D01*
X33197223Y-76819529D01*
X33576022Y-76976820D01*
X33986179Y-76977178D01*
X34365251Y-76820549D01*
X34655529Y-76530777D01*
X34812820Y-76151978D01*
X34813178Y-75741821D01*
X34656549Y-75362749D01*
X34366777Y-75072471D01*
X33987978Y-74915180D01*
X33577821Y-74914822D01*
X33198749Y-75071451D01*
X32908471Y-75361223D01*
X32751180Y-75740022D01*
X32750822Y-76150179D01*
X32475000Y-76150179D01*
X32475000Y-74880179D01*
X35290822Y-74880179D01*
X35447451Y-75259251D01*
X35737223Y-75549529D01*
X36116022Y-75706820D01*
X36526179Y-75707178D01*
X36905251Y-75550549D01*
X37195529Y-75260777D01*
X37352820Y-74881978D01*
X37353178Y-74471821D01*
X37196549Y-74092749D01*
X36906777Y-73802471D01*
X36527978Y-73645180D01*
X36117821Y-73644822D01*
X35738749Y-73801451D01*
X35448471Y-74091223D01*
X35291180Y-74470022D01*
X35290822Y-74880179D01*
X32475000Y-74880179D01*
X32475000Y-73610179D01*
X32750822Y-73610179D01*
X32907451Y-73989251D01*
X33197223Y-74279529D01*
X33576022Y-74436820D01*
X33986179Y-74437178D01*
X34365251Y-74280549D01*
X34655529Y-73990777D01*
X34812820Y-73611978D01*
X34813178Y-73201821D01*
X34656549Y-72822749D01*
X34366777Y-72532471D01*
X33987978Y-72375180D01*
X33577821Y-72374822D01*
X33198749Y-72531451D01*
X32908471Y-72821223D01*
X32751180Y-73200022D01*
X32750822Y-73610179D01*
X32475000Y-73610179D01*
X32475000Y-72340179D01*
X35290822Y-72340179D01*
X35447451Y-72719251D01*
X35737223Y-73009529D01*
X36116022Y-73166820D01*
X36526179Y-73167178D01*
X36905251Y-73010549D01*
X37195529Y-72720777D01*
X37352820Y-72341978D01*
X37353178Y-71931821D01*
X37196549Y-71552749D01*
X36906777Y-71262471D01*
X36527978Y-71105180D01*
X36117821Y-71104822D01*
X35738749Y-71261451D01*
X35448471Y-71551223D01*
X35291180Y-71930022D01*
X35290822Y-72340179D01*
X32475000Y-72340179D01*
X32475000Y-71070179D01*
X32750822Y-71070179D01*
X32907451Y-71449251D01*
X33197223Y-71739529D01*
X33576022Y-71896820D01*
X33986179Y-71897178D01*
X34365251Y-71740549D01*
X34655529Y-71450777D01*
X34812820Y-71071978D01*
X34813178Y-70661821D01*
X34656549Y-70282749D01*
X34366777Y-69992471D01*
X33987978Y-69835180D01*
X33577821Y-69834822D01*
X33198749Y-69991451D01*
X32908471Y-70281223D01*
X32751180Y-70660022D01*
X32750822Y-71070179D01*
X32475000Y-71070179D01*
X32475000Y-69800179D01*
X35290822Y-69800179D01*
X35447451Y-70179251D01*
X35737223Y-70469529D01*
X36116022Y-70626820D01*
X36526179Y-70627178D01*
X36905251Y-70470549D01*
X37195529Y-70180777D01*
X37352820Y-69801978D01*
X37353178Y-69391821D01*
X37196549Y-69012749D01*
X36906777Y-68722471D01*
X36527978Y-68565180D01*
X36117821Y-68564822D01*
X35738749Y-68721451D01*
X35448471Y-69011223D01*
X35291180Y-69390022D01*
X35290822Y-69800179D01*
X32475000Y-69800179D01*
X32475000Y-68530179D01*
X32750822Y-68530179D01*
X32907451Y-68909251D01*
X33197223Y-69199529D01*
X33576022Y-69356820D01*
X33986179Y-69357178D01*
X34365251Y-69200549D01*
X34655529Y-68910777D01*
X34812820Y-68531978D01*
X34813178Y-68121821D01*
X34656549Y-67742749D01*
X34366777Y-67452471D01*
X33987978Y-67295180D01*
X33577821Y-67294822D01*
X33198749Y-67451451D01*
X32908471Y-67741223D01*
X32751180Y-68120022D01*
X32750822Y-68530179D01*
X32475000Y-68530179D01*
X32475000Y-67260179D01*
X35290822Y-67260179D01*
X35447451Y-67639251D01*
X35737223Y-67929529D01*
X36116022Y-68086820D01*
X36526179Y-68087178D01*
X36905251Y-67930549D01*
X37195529Y-67640777D01*
X37352820Y-67261978D01*
X37353178Y-66851821D01*
X37196549Y-66472749D01*
X36906777Y-66182471D01*
X36562920Y-66039689D01*
X46470778Y-66039689D01*
X46665388Y-66510680D01*
X47025425Y-66871345D01*
X47496076Y-67066777D01*
X48005689Y-67067222D01*
X48476680Y-66872612D01*
X48837345Y-66512575D01*
X48871709Y-66429816D01*
X52146081Y-66429816D01*
X52250268Y-66681967D01*
X52443018Y-66875054D01*
X52694987Y-66979681D01*
X52967816Y-66979919D01*
X53219967Y-66875732D01*
X53293828Y-66802000D01*
X53894092Y-66802000D01*
X53967018Y-66875054D01*
X54218987Y-66979681D01*
X54491816Y-66979919D01*
X54743967Y-66875732D01*
X54937054Y-66682982D01*
X55041681Y-66431013D01*
X55041919Y-66158184D01*
X54937732Y-65906033D01*
X54744982Y-65712946D01*
X54636298Y-65667816D01*
X54940081Y-65667816D01*
X55044268Y-65919967D01*
X55237018Y-66113054D01*
X55488987Y-66217681D01*
X55761816Y-66217919D01*
X56013967Y-66113732D01*
X56087828Y-66040000D01*
X56688092Y-66040000D01*
X56761018Y-66113054D01*
X57012987Y-66217681D01*
X57285816Y-66217919D01*
X57537967Y-66113732D01*
X57731054Y-65920982D01*
X57835681Y-65669013D01*
X57835919Y-65396184D01*
X57731732Y-65144033D01*
X57538982Y-64950946D01*
X57287013Y-64846319D01*
X57014184Y-64846081D01*
X56762033Y-64950268D01*
X56688172Y-65024000D01*
X56087908Y-65024000D01*
X56014982Y-64950946D01*
X55763013Y-64846319D01*
X55490184Y-64846081D01*
X55238033Y-64950268D01*
X55044946Y-65143018D01*
X54940319Y-65394987D01*
X54940081Y-65667816D01*
X54636298Y-65667816D01*
X54493013Y-65608319D01*
X54220184Y-65608081D01*
X53968033Y-65712268D01*
X53894172Y-65786000D01*
X53293908Y-65786000D01*
X53220982Y-65712946D01*
X52969013Y-65608319D01*
X52696184Y-65608081D01*
X52444033Y-65712268D01*
X52250946Y-65905018D01*
X52146319Y-66156987D01*
X52146081Y-66429816D01*
X48871709Y-66429816D01*
X49032777Y-66041924D01*
X49033222Y-65532311D01*
X48838612Y-65061320D01*
X48478575Y-64700655D01*
X48007924Y-64505223D01*
X47498311Y-64504778D01*
X47027320Y-64699388D01*
X46666655Y-65059425D01*
X46471223Y-65530076D01*
X46470778Y-66039689D01*
X36562920Y-66039689D01*
X36527978Y-66025180D01*
X36117821Y-66024822D01*
X35738749Y-66181451D01*
X35448471Y-66471223D01*
X35291180Y-66850022D01*
X35290822Y-67260179D01*
X32475000Y-67260179D01*
X32475000Y-65990179D01*
X32750822Y-65990179D01*
X32907451Y-66369251D01*
X33197223Y-66659529D01*
X33576022Y-66816820D01*
X33986179Y-66817178D01*
X34365251Y-66660549D01*
X34655529Y-66370777D01*
X34812820Y-65991978D01*
X34813178Y-65581821D01*
X34656549Y-65202749D01*
X34366777Y-64912471D01*
X33987978Y-64755180D01*
X33577821Y-64754822D01*
X33198749Y-64911451D01*
X32908471Y-65201223D01*
X32751180Y-65580022D01*
X32750822Y-65990179D01*
X32475000Y-65990179D01*
X32475000Y-64720179D01*
X35290822Y-64720179D01*
X35447451Y-65099251D01*
X35737223Y-65389529D01*
X36116022Y-65546820D01*
X36526179Y-65547178D01*
X36905251Y-65390549D01*
X37195529Y-65100777D01*
X37352820Y-64721978D01*
X37353178Y-64311821D01*
X37196549Y-63932749D01*
X36906777Y-63642471D01*
X36527978Y-63485180D01*
X36117821Y-63484822D01*
X35738749Y-63641451D01*
X35448471Y-63931223D01*
X35291180Y-64310022D01*
X35290822Y-64720179D01*
X32475000Y-64720179D01*
X32475000Y-63450179D01*
X32750822Y-63450179D01*
X32907451Y-63829251D01*
X33197223Y-64119529D01*
X33576022Y-64276820D01*
X33986179Y-64277178D01*
X34365251Y-64120549D01*
X34655529Y-63830777D01*
X34812820Y-63451978D01*
X34813178Y-63041821D01*
X34656549Y-62662749D01*
X34366777Y-62372471D01*
X33987978Y-62215180D01*
X33577821Y-62214822D01*
X33198749Y-62371451D01*
X32908471Y-62661223D01*
X32751180Y-63040022D01*
X32750822Y-63450179D01*
X32475000Y-63450179D01*
X32475000Y-62180179D01*
X35290822Y-62180179D01*
X35447451Y-62559251D01*
X35737223Y-62849529D01*
X36116022Y-63006820D01*
X36526179Y-63007178D01*
X36905251Y-62850549D01*
X37195529Y-62560777D01*
X37352820Y-62181978D01*
X37353178Y-61771821D01*
X37283760Y-61603816D01*
X53416081Y-61603816D01*
X53520268Y-61855967D01*
X53713018Y-62049054D01*
X53964987Y-62153681D01*
X54237816Y-62153919D01*
X54489967Y-62049732D01*
X54563828Y-61976000D01*
X54910092Y-61976000D01*
X54983018Y-62049054D01*
X55234987Y-62153681D01*
X55507816Y-62153919D01*
X55759967Y-62049732D01*
X55953054Y-61856982D01*
X56057681Y-61605013D01*
X56057919Y-61332184D01*
X55953732Y-61080033D01*
X55760982Y-60886946D01*
X55509013Y-60782319D01*
X55236184Y-60782081D01*
X54984033Y-60886268D01*
X54910172Y-60960000D01*
X54563908Y-60960000D01*
X54490982Y-60886946D01*
X54239013Y-60782319D01*
X53966184Y-60782081D01*
X53714033Y-60886268D01*
X53520946Y-61079018D01*
X53416319Y-61330987D01*
X53416081Y-61603816D01*
X37283760Y-61603816D01*
X37196549Y-61392749D01*
X36906777Y-61102471D01*
X36527978Y-60945180D01*
X36117821Y-60944822D01*
X35738749Y-61101451D01*
X35448471Y-61391223D01*
X35291180Y-61770022D01*
X35290822Y-62180179D01*
X32475000Y-62180179D01*
X32475000Y-60910179D01*
X32750822Y-60910179D01*
X32907451Y-61289251D01*
X33197223Y-61579529D01*
X33576022Y-61736820D01*
X33986179Y-61737178D01*
X34365251Y-61580549D01*
X34655529Y-61290777D01*
X34812820Y-60911978D01*
X34813178Y-60501821D01*
X34656549Y-60122749D01*
X34366777Y-59832471D01*
X33987978Y-59675180D01*
X33577821Y-59674822D01*
X33198749Y-59831451D01*
X32908471Y-60121223D01*
X32751180Y-60500022D01*
X32750822Y-60910179D01*
X32475000Y-60910179D01*
X32475000Y-59640179D01*
X35290822Y-59640179D01*
X35447451Y-60019251D01*
X35737223Y-60309529D01*
X36116022Y-60466820D01*
X36526179Y-60467178D01*
X36905251Y-60310549D01*
X37195529Y-60020777D01*
X37352820Y-59641978D01*
X37353178Y-59231821D01*
X37196549Y-58852749D01*
X36906777Y-58562471D01*
X36562920Y-58419689D01*
X46470778Y-58419689D01*
X46665388Y-58890680D01*
X47025425Y-59251345D01*
X47496076Y-59446777D01*
X48005689Y-59447222D01*
X48476680Y-59252612D01*
X48837345Y-58892575D01*
X49032777Y-58421924D01*
X49033222Y-57912311D01*
X48838612Y-57441320D01*
X48478575Y-57080655D01*
X48007924Y-56885223D01*
X47498311Y-56884778D01*
X47027320Y-57079388D01*
X46666655Y-57439425D01*
X46471223Y-57910076D01*
X46470778Y-58419689D01*
X36562920Y-58419689D01*
X36527978Y-58405180D01*
X36117821Y-58404822D01*
X35738749Y-58561451D01*
X35448471Y-58851223D01*
X35291180Y-59230022D01*
X35290822Y-59640179D01*
X32475000Y-59640179D01*
X32475000Y-58370179D01*
X32750822Y-58370179D01*
X32907451Y-58749251D01*
X33197223Y-59039529D01*
X33576022Y-59196820D01*
X33986179Y-59197178D01*
X34365251Y-59040549D01*
X34655529Y-58750777D01*
X34812820Y-58371978D01*
X34813178Y-57961821D01*
X34656549Y-57582749D01*
X34366777Y-57292471D01*
X33987978Y-57135180D01*
X33577821Y-57134822D01*
X33198749Y-57291451D01*
X32908471Y-57581223D01*
X32751180Y-57960022D01*
X32750822Y-58370179D01*
X32475000Y-58370179D01*
X32475000Y-55830179D01*
X32750822Y-55830179D01*
X32907451Y-56209251D01*
X33197223Y-56499529D01*
X33576022Y-56656820D01*
X33986179Y-56657178D01*
X34365251Y-56500549D01*
X34655529Y-56210777D01*
X34812820Y-55831978D01*
X34813178Y-55421821D01*
X34656549Y-55042749D01*
X34366777Y-54752471D01*
X33987978Y-54595180D01*
X33577821Y-54594822D01*
X33198749Y-54751451D01*
X32908471Y-55041223D01*
X32751180Y-55420022D01*
X32750822Y-55830179D01*
X32475000Y-55830179D01*
X32475000Y-54560179D01*
X35290822Y-54560179D01*
X35447451Y-54939251D01*
X35737223Y-55229529D01*
X36116022Y-55386820D01*
X36526179Y-55387178D01*
X36905251Y-55230549D01*
X37160102Y-54976143D01*
X37160081Y-54999816D01*
X37264268Y-55251967D01*
X37338000Y-55325828D01*
X37338000Y-56180092D01*
X37264946Y-56253018D01*
X37218292Y-56365372D01*
X37196549Y-56312749D01*
X36906777Y-56022471D01*
X36527978Y-55865180D01*
X36117821Y-55864822D01*
X35738749Y-56021451D01*
X35448471Y-56311223D01*
X35291180Y-56690022D01*
X35290822Y-57100179D01*
X35447451Y-57479251D01*
X35737223Y-57769529D01*
X36116022Y-57926820D01*
X36526179Y-57927178D01*
X36905251Y-57770549D01*
X37195529Y-57480777D01*
X37347924Y-57113769D01*
X37457018Y-57223054D01*
X37708987Y-57327681D01*
X37981816Y-57327919D01*
X38233967Y-57223732D01*
X38427054Y-57030982D01*
X38531681Y-56779013D01*
X38531919Y-56506184D01*
X38427732Y-56254033D01*
X38354000Y-56180172D01*
X38354000Y-55325908D01*
X38427054Y-55252982D01*
X38531681Y-55001013D01*
X38531919Y-54728184D01*
X38427732Y-54476033D01*
X38234982Y-54282946D01*
X37983013Y-54178319D01*
X37710184Y-54178081D01*
X37458033Y-54282268D01*
X37352973Y-54387145D01*
X37353178Y-54151821D01*
X37196549Y-53772749D01*
X37153691Y-53729816D01*
X61036081Y-53729816D01*
X61140268Y-53981967D01*
X61333018Y-54175054D01*
X61584987Y-54279681D01*
X61857816Y-54279919D01*
X62109967Y-54175732D01*
X62303054Y-53982982D01*
X62407681Y-53731013D01*
X62407919Y-53458184D01*
X62303732Y-53206033D01*
X62271495Y-53173740D01*
X62271495Y-52831698D01*
X62344549Y-52758772D01*
X62449176Y-52506803D01*
X62449414Y-52233974D01*
X62345227Y-51981823D01*
X62152477Y-51788736D01*
X61900508Y-51684109D01*
X61627679Y-51683871D01*
X61375528Y-51788058D01*
X61182441Y-51980808D01*
X61077814Y-52232777D01*
X61077576Y-52505606D01*
X61181763Y-52757757D01*
X61255495Y-52831618D01*
X61255495Y-53090669D01*
X61140946Y-53205018D01*
X61036319Y-53456987D01*
X61036081Y-53729816D01*
X37153691Y-53729816D01*
X36906777Y-53482471D01*
X36527978Y-53325180D01*
X36117821Y-53324822D01*
X35738749Y-53481451D01*
X35448471Y-53771223D01*
X35291180Y-54150022D01*
X35290822Y-54560179D01*
X32475000Y-54560179D01*
X32475000Y-53985016D01*
X33062590Y-53985016D01*
X33118271Y-54215611D01*
X33601078Y-54383622D01*
X34111428Y-54354083D01*
X34445729Y-54215611D01*
X34501410Y-53985016D01*
X33782000Y-53265605D01*
X33062590Y-53985016D01*
X32475000Y-53985016D01*
X32475000Y-52905078D01*
X32484378Y-52905078D01*
X32513917Y-53415428D01*
X32652389Y-53749729D01*
X32882984Y-53805410D01*
X33602395Y-53086000D01*
X33961605Y-53086000D01*
X34681016Y-53805410D01*
X34911611Y-53749729D01*
X35079622Y-53266922D01*
X35050083Y-52756572D01*
X34911611Y-52422271D01*
X34681016Y-52366590D01*
X33961605Y-53086000D01*
X33602395Y-53086000D01*
X32882984Y-52366590D01*
X32652389Y-52422271D01*
X32484378Y-52905078D01*
X32475000Y-52905078D01*
X32475000Y-52186984D01*
X33062590Y-52186984D01*
X33782000Y-52906395D01*
X34501410Y-52186984D01*
X34445729Y-51956389D01*
X33962922Y-51788378D01*
X33452572Y-51817917D01*
X33118271Y-51956389D01*
X33062590Y-52186984D01*
X32475000Y-52186984D01*
X32475000Y-50097606D01*
X49098081Y-50097606D01*
X49202268Y-50349757D01*
X49395018Y-50542844D01*
X49646987Y-50647471D01*
X49751352Y-50647562D01*
X50876237Y-51772447D01*
X50876081Y-51951816D01*
X50980268Y-52203967D01*
X51173018Y-52397054D01*
X51424987Y-52501681D01*
X51697816Y-52501919D01*
X51949967Y-52397732D01*
X52143054Y-52204982D01*
X52247681Y-51953013D01*
X52247919Y-51680184D01*
X52143732Y-51428033D01*
X51950982Y-51234946D01*
X51699013Y-51130319D01*
X51670924Y-51130294D01*
X50469829Y-49929199D01*
X50469919Y-49825974D01*
X50365732Y-49573823D01*
X50172982Y-49380736D01*
X49921013Y-49276109D01*
X49648184Y-49275871D01*
X49396033Y-49380058D01*
X49202946Y-49572808D01*
X49098319Y-49824777D01*
X49098081Y-50097606D01*
X32475000Y-50097606D01*
X32475000Y-42021040D01*
X32839511Y-41475511D01*
X33621537Y-40952978D01*
X34556509Y-40767000D01*
X37592000Y-40767000D01*
X37616776Y-40764560D01*
X38588792Y-40571214D01*
X38634573Y-40552251D01*
X39458608Y-40001648D01*
X39493648Y-39966608D01*
X40044251Y-39142573D01*
X40063214Y-39096792D01*
X40256560Y-38124776D01*
X40259000Y-38100000D01*
X40259000Y-35064509D01*
X40444978Y-34129537D01*
X40967511Y-33347511D01*
X41513040Y-32983000D01*
X92598960Y-32983000D01*
X93144489Y-33347511D01*
X93144489Y-33347511D01*
G37*
X93144489Y-33347511D02*
X93667022Y-34129537D01*
X93853000Y-35064509D01*
X93853000Y-38100000D01*
X93855440Y-38124776D01*
X94048786Y-39096792D01*
X94067749Y-39142573D01*
X94618352Y-39966608D01*
X94653392Y-40001648D01*
X95477427Y-40552251D01*
X95523208Y-40571214D01*
X96495224Y-40764560D01*
X96520000Y-40767000D01*
X99555491Y-40767000D01*
X100490463Y-40952978D01*
X101272489Y-41475511D01*
X101613000Y-41985122D01*
X101613000Y-93142878D01*
X101272489Y-93652489D01*
X100490463Y-94175022D01*
X99555491Y-94361000D01*
X96520000Y-94361000D01*
X96495224Y-94363440D01*
X95523208Y-94556786D01*
X95477427Y-94575749D01*
X94653392Y-95126352D01*
X94618352Y-95161392D01*
X94067749Y-95985427D01*
X94048786Y-96031208D01*
X93855440Y-97003224D01*
X93853000Y-97028000D01*
X93853000Y-100063491D01*
X93667022Y-100998463D01*
X93144489Y-101780489D01*
X92634878Y-102121000D01*
X41477122Y-102121000D01*
X40967511Y-101780489D01*
X40444978Y-100998463D01*
X40259000Y-100063491D01*
X40259000Y-97028000D01*
X40256560Y-97003224D01*
X40063214Y-96031208D01*
X40044251Y-95985427D01*
X39493648Y-95161392D01*
X39458608Y-95126352D01*
X38634573Y-94575749D01*
X38588792Y-94556786D01*
X37616776Y-94363440D01*
X37592000Y-94361000D01*
X34556509Y-94361000D01*
X33621537Y-94175022D01*
X32839511Y-93652489D01*
X32475000Y-93106960D01*
X32475000Y-79129816D01*
X34874081Y-79129816D01*
X34978268Y-79381967D01*
X35052000Y-79455828D01*
X35052000Y-80310092D01*
X34978946Y-80383018D01*
X34874319Y-80634987D01*
X34874081Y-80907816D01*
X34978268Y-81159967D01*
X35171018Y-81353054D01*
X35422987Y-81457681D01*
X35695816Y-81457919D01*
X35947967Y-81353732D01*
X36141054Y-81160982D01*
X36245681Y-80909013D01*
X36245919Y-80636184D01*
X36141732Y-80384033D01*
X36068000Y-80310172D01*
X36068000Y-79455908D01*
X36141054Y-79382982D01*
X36245681Y-79131013D01*
X36245919Y-78858184D01*
X36141732Y-78606033D01*
X35948982Y-78412946D01*
X35697013Y-78308319D01*
X35424184Y-78308081D01*
X35172033Y-78412268D01*
X34978946Y-78605018D01*
X34874319Y-78856987D01*
X34874081Y-79129816D01*
X32475000Y-79129816D01*
X32475000Y-77420179D01*
X35290822Y-77420179D01*
X35447451Y-77799251D01*
X35737223Y-78089529D01*
X36116022Y-78246820D01*
X36526179Y-78247178D01*
X36905251Y-78090549D01*
X37195529Y-77800777D01*
X37352820Y-77421978D01*
X37353178Y-77011821D01*
X37196549Y-76632749D01*
X36906777Y-76342471D01*
X36562920Y-76199689D01*
X38850778Y-76199689D01*
X39045388Y-76670680D01*
X39405425Y-77031345D01*
X39876076Y-77226777D01*
X40385689Y-77227222D01*
X40856680Y-77032612D01*
X41217345Y-76672575D01*
X41412777Y-76201924D01*
X41412778Y-76199689D01*
X46470778Y-76199689D01*
X46665388Y-76670680D01*
X47025425Y-77031345D01*
X47496076Y-77226777D01*
X48005689Y-77227222D01*
X48476680Y-77032612D01*
X48837345Y-76672575D01*
X49032777Y-76201924D01*
X49033222Y-75692311D01*
X48838612Y-75221320D01*
X48478575Y-74860655D01*
X48007924Y-74665223D01*
X47498311Y-74664778D01*
X47027320Y-74859388D01*
X46666655Y-75219425D01*
X46471223Y-75690076D01*
X46470778Y-76199689D01*
X41412778Y-76199689D01*
X41413222Y-75692311D01*
X41218612Y-75221320D01*
X40858575Y-74860655D01*
X40387924Y-74665223D01*
X39878311Y-74664778D01*
X39407320Y-74859388D01*
X39046655Y-75219425D01*
X38851223Y-75690076D01*
X38850778Y-76199689D01*
X36562920Y-76199689D01*
X36527978Y-76185180D01*
X36117821Y-76184822D01*
X35738749Y-76341451D01*
X35448471Y-76631223D01*
X35291180Y-77010022D01*
X35290822Y-77420179D01*
X32475000Y-77420179D01*
X32475000Y-76150179D01*
X32750822Y-76150179D01*
X32907451Y-76529251D01*
X33197223Y-76819529D01*
X33576022Y-76976820D01*
X33986179Y-76977178D01*
X34365251Y-76820549D01*
X34655529Y-76530777D01*
X34812820Y-76151978D01*
X34813178Y-75741821D01*
X34656549Y-75362749D01*
X34366777Y-75072471D01*
X33987978Y-74915180D01*
X33577821Y-74914822D01*
X33198749Y-75071451D01*
X32908471Y-75361223D01*
X32751180Y-75740022D01*
X32750822Y-76150179D01*
X32475000Y-76150179D01*
X32475000Y-74880179D01*
X35290822Y-74880179D01*
X35447451Y-75259251D01*
X35737223Y-75549529D01*
X36116022Y-75706820D01*
X36526179Y-75707178D01*
X36905251Y-75550549D01*
X37195529Y-75260777D01*
X37352820Y-74881978D01*
X37353178Y-74471821D01*
X37196549Y-74092749D01*
X36906777Y-73802471D01*
X36527978Y-73645180D01*
X36117821Y-73644822D01*
X35738749Y-73801451D01*
X35448471Y-74091223D01*
X35291180Y-74470022D01*
X35290822Y-74880179D01*
X32475000Y-74880179D01*
X32475000Y-73610179D01*
X32750822Y-73610179D01*
X32907451Y-73989251D01*
X33197223Y-74279529D01*
X33576022Y-74436820D01*
X33986179Y-74437178D01*
X34365251Y-74280549D01*
X34655529Y-73990777D01*
X34812820Y-73611978D01*
X34813178Y-73201821D01*
X34656549Y-72822749D01*
X34366777Y-72532471D01*
X33987978Y-72375180D01*
X33577821Y-72374822D01*
X33198749Y-72531451D01*
X32908471Y-72821223D01*
X32751180Y-73200022D01*
X32750822Y-73610179D01*
X32475000Y-73610179D01*
X32475000Y-72340179D01*
X35290822Y-72340179D01*
X35447451Y-72719251D01*
X35737223Y-73009529D01*
X36116022Y-73166820D01*
X36526179Y-73167178D01*
X36905251Y-73010549D01*
X37195529Y-72720777D01*
X37352820Y-72341978D01*
X37353178Y-71931821D01*
X37196549Y-71552749D01*
X36906777Y-71262471D01*
X36527978Y-71105180D01*
X36117821Y-71104822D01*
X35738749Y-71261451D01*
X35448471Y-71551223D01*
X35291180Y-71930022D01*
X35290822Y-72340179D01*
X32475000Y-72340179D01*
X32475000Y-71070179D01*
X32750822Y-71070179D01*
X32907451Y-71449251D01*
X33197223Y-71739529D01*
X33576022Y-71896820D01*
X33986179Y-71897178D01*
X34365251Y-71740549D01*
X34655529Y-71450777D01*
X34812820Y-71071978D01*
X34813178Y-70661821D01*
X34656549Y-70282749D01*
X34366777Y-69992471D01*
X33987978Y-69835180D01*
X33577821Y-69834822D01*
X33198749Y-69991451D01*
X32908471Y-70281223D01*
X32751180Y-70660022D01*
X32750822Y-71070179D01*
X32475000Y-71070179D01*
X32475000Y-69800179D01*
X35290822Y-69800179D01*
X35447451Y-70179251D01*
X35737223Y-70469529D01*
X36116022Y-70626820D01*
X36526179Y-70627178D01*
X36905251Y-70470549D01*
X37195529Y-70180777D01*
X37352820Y-69801978D01*
X37353178Y-69391821D01*
X37196549Y-69012749D01*
X36906777Y-68722471D01*
X36527978Y-68565180D01*
X36117821Y-68564822D01*
X35738749Y-68721451D01*
X35448471Y-69011223D01*
X35291180Y-69390022D01*
X35290822Y-69800179D01*
X32475000Y-69800179D01*
X32475000Y-68530179D01*
X32750822Y-68530179D01*
X32907451Y-68909251D01*
X33197223Y-69199529D01*
X33576022Y-69356820D01*
X33986179Y-69357178D01*
X34365251Y-69200549D01*
X34655529Y-68910777D01*
X34812820Y-68531978D01*
X34813178Y-68121821D01*
X34656549Y-67742749D01*
X34366777Y-67452471D01*
X33987978Y-67295180D01*
X33577821Y-67294822D01*
X33198749Y-67451451D01*
X32908471Y-67741223D01*
X32751180Y-68120022D01*
X32750822Y-68530179D01*
X32475000Y-68530179D01*
X32475000Y-67260179D01*
X35290822Y-67260179D01*
X35447451Y-67639251D01*
X35737223Y-67929529D01*
X36116022Y-68086820D01*
X36526179Y-68087178D01*
X36905251Y-67930549D01*
X37195529Y-67640777D01*
X37352820Y-67261978D01*
X37353178Y-66851821D01*
X37196549Y-66472749D01*
X36906777Y-66182471D01*
X36562920Y-66039689D01*
X46470778Y-66039689D01*
X46665388Y-66510680D01*
X47025425Y-66871345D01*
X47496076Y-67066777D01*
X48005689Y-67067222D01*
X48476680Y-66872612D01*
X48837345Y-66512575D01*
X48871709Y-66429816D01*
X52146081Y-66429816D01*
X52250268Y-66681967D01*
X52443018Y-66875054D01*
X52694987Y-66979681D01*
X52967816Y-66979919D01*
X53219967Y-66875732D01*
X53293828Y-66802000D01*
X53894092Y-66802000D01*
X53967018Y-66875054D01*
X54218987Y-66979681D01*
X54491816Y-66979919D01*
X54743967Y-66875732D01*
X54937054Y-66682982D01*
X55041681Y-66431013D01*
X55041919Y-66158184D01*
X54937732Y-65906033D01*
X54744982Y-65712946D01*
X54636298Y-65667816D01*
X54940081Y-65667816D01*
X55044268Y-65919967D01*
X55237018Y-66113054D01*
X55488987Y-66217681D01*
X55761816Y-66217919D01*
X56013967Y-66113732D01*
X56087828Y-66040000D01*
X56688092Y-66040000D01*
X56761018Y-66113054D01*
X57012987Y-66217681D01*
X57285816Y-66217919D01*
X57537967Y-66113732D01*
X57731054Y-65920982D01*
X57835681Y-65669013D01*
X57835919Y-65396184D01*
X57731732Y-65144033D01*
X57538982Y-64950946D01*
X57287013Y-64846319D01*
X57014184Y-64846081D01*
X56762033Y-64950268D01*
X56688172Y-65024000D01*
X56087908Y-65024000D01*
X56014982Y-64950946D01*
X55763013Y-64846319D01*
X55490184Y-64846081D01*
X55238033Y-64950268D01*
X55044946Y-65143018D01*
X54940319Y-65394987D01*
X54940081Y-65667816D01*
X54636298Y-65667816D01*
X54493013Y-65608319D01*
X54220184Y-65608081D01*
X53968033Y-65712268D01*
X53894172Y-65786000D01*
X53293908Y-65786000D01*
X53220982Y-65712946D01*
X52969013Y-65608319D01*
X52696184Y-65608081D01*
X52444033Y-65712268D01*
X52250946Y-65905018D01*
X52146319Y-66156987D01*
X52146081Y-66429816D01*
X48871709Y-66429816D01*
X49032777Y-66041924D01*
X49033222Y-65532311D01*
X48838612Y-65061320D01*
X48478575Y-64700655D01*
X48007924Y-64505223D01*
X47498311Y-64504778D01*
X47027320Y-64699388D01*
X46666655Y-65059425D01*
X46471223Y-65530076D01*
X46470778Y-66039689D01*
X36562920Y-66039689D01*
X36527978Y-66025180D01*
X36117821Y-66024822D01*
X35738749Y-66181451D01*
X35448471Y-66471223D01*
X35291180Y-66850022D01*
X35290822Y-67260179D01*
X32475000Y-67260179D01*
X32475000Y-65990179D01*
X32750822Y-65990179D01*
X32907451Y-66369251D01*
X33197223Y-66659529D01*
X33576022Y-66816820D01*
X33986179Y-66817178D01*
X34365251Y-66660549D01*
X34655529Y-66370777D01*
X34812820Y-65991978D01*
X34813178Y-65581821D01*
X34656549Y-65202749D01*
X34366777Y-64912471D01*
X33987978Y-64755180D01*
X33577821Y-64754822D01*
X33198749Y-64911451D01*
X32908471Y-65201223D01*
X32751180Y-65580022D01*
X32750822Y-65990179D01*
X32475000Y-65990179D01*
X32475000Y-64720179D01*
X35290822Y-64720179D01*
X35447451Y-65099251D01*
X35737223Y-65389529D01*
X36116022Y-65546820D01*
X36526179Y-65547178D01*
X36905251Y-65390549D01*
X37195529Y-65100777D01*
X37352820Y-64721978D01*
X37353178Y-64311821D01*
X37196549Y-63932749D01*
X36906777Y-63642471D01*
X36527978Y-63485180D01*
X36117821Y-63484822D01*
X35738749Y-63641451D01*
X35448471Y-63931223D01*
X35291180Y-64310022D01*
X35290822Y-64720179D01*
X32475000Y-64720179D01*
X32475000Y-63450179D01*
X32750822Y-63450179D01*
X32907451Y-63829251D01*
X33197223Y-64119529D01*
X33576022Y-64276820D01*
X33986179Y-64277178D01*
X34365251Y-64120549D01*
X34655529Y-63830777D01*
X34812820Y-63451978D01*
X34813178Y-63041821D01*
X34656549Y-62662749D01*
X34366777Y-62372471D01*
X33987978Y-62215180D01*
X33577821Y-62214822D01*
X33198749Y-62371451D01*
X32908471Y-62661223D01*
X32751180Y-63040022D01*
X32750822Y-63450179D01*
X32475000Y-63450179D01*
X32475000Y-62180179D01*
X35290822Y-62180179D01*
X35447451Y-62559251D01*
X35737223Y-62849529D01*
X36116022Y-63006820D01*
X36526179Y-63007178D01*
X36905251Y-62850549D01*
X37195529Y-62560777D01*
X37352820Y-62181978D01*
X37353178Y-61771821D01*
X37283760Y-61603816D01*
X53416081Y-61603816D01*
X53520268Y-61855967D01*
X53713018Y-62049054D01*
X53964987Y-62153681D01*
X54237816Y-62153919D01*
X54489967Y-62049732D01*
X54563828Y-61976000D01*
X54910092Y-61976000D01*
X54983018Y-62049054D01*
X55234987Y-62153681D01*
X55507816Y-62153919D01*
X55759967Y-62049732D01*
X55953054Y-61856982D01*
X56057681Y-61605013D01*
X56057919Y-61332184D01*
X55953732Y-61080033D01*
X55760982Y-60886946D01*
X55509013Y-60782319D01*
X55236184Y-60782081D01*
X54984033Y-60886268D01*
X54910172Y-60960000D01*
X54563908Y-60960000D01*
X54490982Y-60886946D01*
X54239013Y-60782319D01*
X53966184Y-60782081D01*
X53714033Y-60886268D01*
X53520946Y-61079018D01*
X53416319Y-61330987D01*
X53416081Y-61603816D01*
X37283760Y-61603816D01*
X37196549Y-61392749D01*
X36906777Y-61102471D01*
X36527978Y-60945180D01*
X36117821Y-60944822D01*
X35738749Y-61101451D01*
X35448471Y-61391223D01*
X35291180Y-61770022D01*
X35290822Y-62180179D01*
X32475000Y-62180179D01*
X32475000Y-60910179D01*
X32750822Y-60910179D01*
X32907451Y-61289251D01*
X33197223Y-61579529D01*
X33576022Y-61736820D01*
X33986179Y-61737178D01*
X34365251Y-61580549D01*
X34655529Y-61290777D01*
X34812820Y-60911978D01*
X34813178Y-60501821D01*
X34656549Y-60122749D01*
X34366777Y-59832471D01*
X33987978Y-59675180D01*
X33577821Y-59674822D01*
X33198749Y-59831451D01*
X32908471Y-60121223D01*
X32751180Y-60500022D01*
X32750822Y-60910179D01*
X32475000Y-60910179D01*
X32475000Y-59640179D01*
X35290822Y-59640179D01*
X35447451Y-60019251D01*
X35737223Y-60309529D01*
X36116022Y-60466820D01*
X36526179Y-60467178D01*
X36905251Y-60310549D01*
X37195529Y-60020777D01*
X37352820Y-59641978D01*
X37353178Y-59231821D01*
X37196549Y-58852749D01*
X36906777Y-58562471D01*
X36562920Y-58419689D01*
X46470778Y-58419689D01*
X46665388Y-58890680D01*
X47025425Y-59251345D01*
X47496076Y-59446777D01*
X48005689Y-59447222D01*
X48476680Y-59252612D01*
X48837345Y-58892575D01*
X49032777Y-58421924D01*
X49033222Y-57912311D01*
X48838612Y-57441320D01*
X48478575Y-57080655D01*
X48007924Y-56885223D01*
X47498311Y-56884778D01*
X47027320Y-57079388D01*
X46666655Y-57439425D01*
X46471223Y-57910076D01*
X46470778Y-58419689D01*
X36562920Y-58419689D01*
X36527978Y-58405180D01*
X36117821Y-58404822D01*
X35738749Y-58561451D01*
X35448471Y-58851223D01*
X35291180Y-59230022D01*
X35290822Y-59640179D01*
X32475000Y-59640179D01*
X32475000Y-58370179D01*
X32750822Y-58370179D01*
X32907451Y-58749251D01*
X33197223Y-59039529D01*
X33576022Y-59196820D01*
X33986179Y-59197178D01*
X34365251Y-59040549D01*
X34655529Y-58750777D01*
X34812820Y-58371978D01*
X34813178Y-57961821D01*
X34656549Y-57582749D01*
X34366777Y-57292471D01*
X33987978Y-57135180D01*
X33577821Y-57134822D01*
X33198749Y-57291451D01*
X32908471Y-57581223D01*
X32751180Y-57960022D01*
X32750822Y-58370179D01*
X32475000Y-58370179D01*
X32475000Y-55830179D01*
X32750822Y-55830179D01*
X32907451Y-56209251D01*
X33197223Y-56499529D01*
X33576022Y-56656820D01*
X33986179Y-56657178D01*
X34365251Y-56500549D01*
X34655529Y-56210777D01*
X34812820Y-55831978D01*
X34813178Y-55421821D01*
X34656549Y-55042749D01*
X34366777Y-54752471D01*
X33987978Y-54595180D01*
X33577821Y-54594822D01*
X33198749Y-54751451D01*
X32908471Y-55041223D01*
X32751180Y-55420022D01*
X32750822Y-55830179D01*
X32475000Y-55830179D01*
X32475000Y-54560179D01*
X35290822Y-54560179D01*
X35447451Y-54939251D01*
X35737223Y-55229529D01*
X36116022Y-55386820D01*
X36526179Y-55387178D01*
X36905251Y-55230549D01*
X37160102Y-54976143D01*
X37160081Y-54999816D01*
X37264268Y-55251967D01*
X37338000Y-55325828D01*
X37338000Y-56180092D01*
X37264946Y-56253018D01*
X37218292Y-56365372D01*
X37196549Y-56312749D01*
X36906777Y-56022471D01*
X36527978Y-55865180D01*
X36117821Y-55864822D01*
X35738749Y-56021451D01*
X35448471Y-56311223D01*
X35291180Y-56690022D01*
X35290822Y-57100179D01*
X35447451Y-57479251D01*
X35737223Y-57769529D01*
X36116022Y-57926820D01*
X36526179Y-57927178D01*
X36905251Y-57770549D01*
X37195529Y-57480777D01*
X37347924Y-57113769D01*
X37457018Y-57223054D01*
X37708987Y-57327681D01*
X37981816Y-57327919D01*
X38233967Y-57223732D01*
X38427054Y-57030982D01*
X38531681Y-56779013D01*
X38531919Y-56506184D01*
X38427732Y-56254033D01*
X38354000Y-56180172D01*
X38354000Y-55325908D01*
X38427054Y-55252982D01*
X38531681Y-55001013D01*
X38531919Y-54728184D01*
X38427732Y-54476033D01*
X38234982Y-54282946D01*
X37983013Y-54178319D01*
X37710184Y-54178081D01*
X37458033Y-54282268D01*
X37352973Y-54387145D01*
X37353178Y-54151821D01*
X37196549Y-53772749D01*
X37153691Y-53729816D01*
X61036081Y-53729816D01*
X61140268Y-53981967D01*
X61333018Y-54175054D01*
X61584987Y-54279681D01*
X61857816Y-54279919D01*
X62109967Y-54175732D01*
X62303054Y-53982982D01*
X62407681Y-53731013D01*
X62407919Y-53458184D01*
X62303732Y-53206033D01*
X62271495Y-53173740D01*
X62271495Y-52831698D01*
X62344549Y-52758772D01*
X62449176Y-52506803D01*
X62449414Y-52233974D01*
X62345227Y-51981823D01*
X62152477Y-51788736D01*
X61900508Y-51684109D01*
X61627679Y-51683871D01*
X61375528Y-51788058D01*
X61182441Y-51980808D01*
X61077814Y-52232777D01*
X61077576Y-52505606D01*
X61181763Y-52757757D01*
X61255495Y-52831618D01*
X61255495Y-53090669D01*
X61140946Y-53205018D01*
X61036319Y-53456987D01*
X61036081Y-53729816D01*
X37153691Y-53729816D01*
X36906777Y-53482471D01*
X36527978Y-53325180D01*
X36117821Y-53324822D01*
X35738749Y-53481451D01*
X35448471Y-53771223D01*
X35291180Y-54150022D01*
X35290822Y-54560179D01*
X32475000Y-54560179D01*
X32475000Y-53985016D01*
X33062590Y-53985016D01*
X33118271Y-54215611D01*
X33601078Y-54383622D01*
X34111428Y-54354083D01*
X34445729Y-54215611D01*
X34501410Y-53985016D01*
X33782000Y-53265605D01*
X33062590Y-53985016D01*
X32475000Y-53985016D01*
X32475000Y-52905078D01*
X32484378Y-52905078D01*
X32513917Y-53415428D01*
X32652389Y-53749729D01*
X32882984Y-53805410D01*
X33602395Y-53086000D01*
X33961605Y-53086000D01*
X34681016Y-53805410D01*
X34911611Y-53749729D01*
X35079622Y-53266922D01*
X35050083Y-52756572D01*
X34911611Y-52422271D01*
X34681016Y-52366590D01*
X33961605Y-53086000D01*
X33602395Y-53086000D01*
X32882984Y-52366590D01*
X32652389Y-52422271D01*
X32484378Y-52905078D01*
X32475000Y-52905078D01*
X32475000Y-52186984D01*
X33062590Y-52186984D01*
X33782000Y-52906395D01*
X34501410Y-52186984D01*
X34445729Y-51956389D01*
X33962922Y-51788378D01*
X33452572Y-51817917D01*
X33118271Y-51956389D01*
X33062590Y-52186984D01*
X32475000Y-52186984D01*
X32475000Y-50097606D01*
X49098081Y-50097606D01*
X49202268Y-50349757D01*
X49395018Y-50542844D01*
X49646987Y-50647471D01*
X49751352Y-50647562D01*
X50876237Y-51772447D01*
X50876081Y-51951816D01*
X50980268Y-52203967D01*
X51173018Y-52397054D01*
X51424987Y-52501681D01*
X51697816Y-52501919D01*
X51949967Y-52397732D01*
X52143054Y-52204982D01*
X52247681Y-51953013D01*
X52247919Y-51680184D01*
X52143732Y-51428033D01*
X51950982Y-51234946D01*
X51699013Y-51130319D01*
X51670924Y-51130294D01*
X50469829Y-49929199D01*
X50469919Y-49825974D01*
X50365732Y-49573823D01*
X50172982Y-49380736D01*
X49921013Y-49276109D01*
X49648184Y-49275871D01*
X49396033Y-49380058D01*
X49202946Y-49572808D01*
X49098319Y-49824777D01*
X49098081Y-50097606D01*
X32475000Y-50097606D01*
X32475000Y-42021040D01*
X32839511Y-41475511D01*
X33621537Y-40952978D01*
X34556509Y-40767000D01*
X37592000Y-40767000D01*
X37616776Y-40764560D01*
X38588792Y-40571214D01*
X38634573Y-40552251D01*
X39458608Y-40001648D01*
X39493648Y-39966608D01*
X40044251Y-39142573D01*
X40063214Y-39096792D01*
X40256560Y-38124776D01*
X40259000Y-38100000D01*
X40259000Y-35064509D01*
X40444978Y-34129537D01*
X40967511Y-33347511D01*
X41513040Y-32983000D01*
X92598960Y-32983000D01*
X93144489Y-33347511D01*
M02*
