M48
;DRILL file {KiCad 4.0.7} date 03/25/18 12:41:59
;FORMAT={-:-/ absolute / inch / decimal}
FMAT,2
INCH,TZ
T1C0.012
T2C0.031
T3C0.031
T4C0.037
T5C0.069
T6C0.079
T7C0.086
T8C0.091
%
G90
G05
M72
T1
X1.51Y-3.98
X1.64Y-3.98
X1.7285Y-4.3115
X1.8386Y-4.3114
X1.89Y-5.16
X1.91Y-5.11
X2.15Y-5.403
X2.1513Y-5.3087
X2.18Y-5.403
X2.1813Y-5.309
X2.21Y-5.403
X2.2129Y-5.309
X2.24Y-5.403
X2.2429Y-5.309
X2.32Y-4.21
X2.371Y-4.277
X2.3732Y-4.7332
X2.3903Y-5.65
X2.42Y-4.78
X2.4523Y-5.65
X2.46Y-2.61
X2.46Y-2.643
X2.46Y-2.673
X2.46Y-2.703
X2.46Y-2.733
X2.49Y-5.13
X2.5Y-4.8
X2.58Y-4.98
X2.63Y-2.61
X2.63Y-2.733
X2.653Y-2.67
X2.653Y-2.7
X2.67Y-2.64
X2.6767Y-4.8067
X2.72Y-4.88
X3.09Y-4.95
X3.2737Y-4.9537
X3.36Y-2.631
X3.36Y-2.709
X3.6617Y-5.4783
X3.6943Y-5.4457
X3.7Y-4.215
X3.7Y-4.28
X3.73Y-4.277
X3.73Y-4.215
X3.8537Y-2.9463
X3.98Y-4.36
X3.9913Y-2.9487
X4.0174Y-4.4574
X4.0372Y-3.2328
X4.0776Y-3.7376
X4.09Y-3.253
X4.09Y-3.29
X4.0967Y-3.32
X4.1012Y-3.717
X4.103Y-4.36
X4.1089Y-4.5489
X4.17Y-3.22
X4.17Y-3.25
X4.17Y-3.28
X4.17Y-3.31
X4.2Y-3.71
X4.2Y-3.74
X4.2534Y-2.6634
X4.2537Y-2.5737
X4.82Y-3.64
X4.82Y-3.67
X4.8213Y-3.6087
X4.8581Y-3.6998
X4.8581Y-3.7298
X5.Y-3.617
X5.03Y-3.647
X5.06Y-3.6718
X5.07Y-2.1258
X5.095Y-3.7
X5.095Y-3.73
X5.11Y-2.1258
X5.11Y-2.1918
X5.15Y-2.1918
X5.35Y-2.93
X5.403Y-2.88
X5.43Y-3.66
X5.52Y-3.66
T2
X1.8804Y-5.7874
X1.8843Y-5.504
X1.9804Y-5.7874
X1.9843Y-5.504
X2.0804Y-5.7874
X2.0843Y-5.504
X2.1804Y-5.7874
X2.1842Y-5.504
X2.2803Y-5.7874
X2.2842Y-5.504
X2.3803Y-5.7874
X2.3842Y-5.504
X2.4803Y-5.7874
X2.4842Y-5.504
X3.1162Y-5.7874
X3.1201Y-5.504
X3.2162Y-5.7874
X3.2201Y-5.504
X3.3162Y-5.7874
X3.3201Y-5.504
X3.4162Y-5.7874
X3.42Y-5.504
X3.5161Y-5.7874
X3.52Y-5.504
X3.6161Y-5.7874
X3.62Y-5.504
X3.7161Y-5.7874
X3.72Y-5.504
T3
X2.9138Y-3.9386
X2.9587Y-4.411
X2.9638Y-3.8386
X3.0087Y-4.311
X3.0138Y-3.9386
X3.0587Y-4.411
X3.0638Y-3.8386
X3.1087Y-4.311
X3.1138Y-3.9386
X3.1406Y-2.9937
X3.1587Y-4.411
X3.1638Y-3.8386
X3.1906Y-2.8937
X3.2087Y-4.311
X3.2138Y-3.9386
X3.2406Y-2.9937
X3.2638Y-3.8386
X3.2906Y-2.8937
X3.3138Y-3.9386
X3.3406Y-2.9937
X3.3571Y-2.5213
X3.3638Y-3.8386
X3.3906Y-2.8937
X3.4071Y-2.4213
X3.4138Y-3.9386
X3.4406Y-2.9937
X3.4571Y-2.5213
X3.4638Y-3.8386
X3.4906Y-2.8937
X3.5071Y-2.4213
X3.5138Y-3.9386
X3.5185Y-4.411
X3.5406Y-2.9937
X3.5571Y-2.5213
X3.5638Y-3.8386
X3.5685Y-4.311
X3.5697Y-3.4661
X3.5906Y-2.8937
X3.6071Y-2.4213
X3.6138Y-3.9386
X3.6185Y-4.411
X3.6197Y-3.3661
X3.6406Y-2.9937
X3.6571Y-2.5213
X3.6638Y-3.8386
X3.6685Y-4.311
X3.6697Y-3.4661
X3.6906Y-2.8937
X3.7071Y-2.4213
X3.7138Y-3.9386
X3.7185Y-4.411
X3.7197Y-3.3661
X3.7406Y-2.9937
X3.7571Y-2.5213
X3.7638Y-3.8386
X3.7685Y-4.311
X3.7697Y-3.4661
X3.7906Y-2.8937
X3.8071Y-2.4213
X3.8185Y-4.411
X3.8197Y-3.3661
X3.8406Y-2.9937
X3.8571Y-2.5213
X3.8685Y-4.311
X3.8697Y-3.4661
X3.8906Y-2.8937
X3.9071Y-2.4213
X3.9185Y-4.411
X3.9197Y-3.3661
X3.9406Y-2.9937
X3.9571Y-2.5213
X3.9685Y-4.311
X3.9697Y-3.4661
X3.9906Y-2.8937
X4.0071Y-2.4213
X4.0185Y-4.411
X4.0197Y-3.3661
X4.0406Y-2.9937
X4.0524Y-3.9386
X4.0571Y-2.5213
X4.0685Y-4.311
X4.0697Y-3.4661
X4.0906Y-2.8937
X4.1024Y-3.8386
X4.1071Y-2.4213
X4.1185Y-4.411
X4.1197Y-3.3661
X4.1524Y-3.9386
X4.1571Y-2.5213
X4.1685Y-4.311
X4.1697Y-3.4661
X4.2024Y-3.8386
X4.2071Y-2.4213
X4.2185Y-4.411
X4.2197Y-3.3661
X4.2524Y-3.9386
X4.2571Y-2.5213
X4.2685Y-4.311
X4.2697Y-3.4661
X4.3024Y-3.8386
X4.3071Y-2.4213
X4.3185Y-4.411
X4.3197Y-3.3661
X4.3524Y-3.9386
X4.3685Y-4.311
X4.3697Y-3.4661
X4.4024Y-3.8386
X4.4185Y-4.411
X4.4197Y-3.3661
X4.4524Y-3.9386
X4.4685Y-4.311
X4.4697Y-3.4661
X4.5024Y-3.8386
X4.5197Y-3.3661
X4.5524Y-3.9386
X4.6024Y-3.8386
T4
X3.326Y-5.2068
X3.4091Y-4.8457
X3.426Y-5.2068
X3.4591Y-4.9457
X3.5091Y-4.8457
X3.5591Y-4.9457
X3.6091Y-4.8457
X3.6591Y-4.9457
X3.7091Y-4.8457
X3.7417Y-5.2068
X3.7591Y-4.9457
X3.8417Y-5.2068
T5
X1.811Y-2.4803
X1.811Y-2.6378
X1.811Y-2.7953
X1.811Y-2.9528
X1.811Y-3.1102
X1.811Y-3.2677
X1.811Y-3.4252
X1.811Y-3.5827
X1.811Y-3.7402
X1.811Y-3.8976
X1.811Y-4.0551
X1.811Y-4.2126
X1.9685Y-2.5591
X1.9685Y-2.7165
X1.9685Y-2.874
X1.9685Y-3.0315
X1.9685Y-3.189
X1.9685Y-3.3465
X1.9685Y-3.5039
X1.9685Y-3.6614
X1.9685Y-3.8189
X1.9685Y-3.9764
X1.9685Y-4.1339
X2.126Y-2.4803
X2.126Y-2.6378
X2.126Y-2.7953
X2.126Y-2.9528
X2.126Y-3.1102
X2.126Y-3.2677
X2.126Y-3.4252
X2.126Y-3.5827
X2.126Y-3.7402
X2.126Y-3.8976
X2.126Y-4.0551
X2.126Y-4.2126
X5.4724Y-2.4803
X5.4724Y-2.6378
X5.4724Y-2.7953
X5.4724Y-2.9528
X5.4724Y-3.1102
X5.4724Y-3.2677
X5.4724Y-3.4252
X5.4724Y-3.5827
X5.4724Y-3.7402
X5.4724Y-3.8976
X5.4724Y-4.0551
X5.4724Y-4.2126
X5.6299Y-2.5591
X5.6299Y-2.7165
X5.6299Y-2.874
X5.6299Y-3.0315
X5.6299Y-3.189
X5.6299Y-3.3465
X5.6299Y-3.5039
X5.6299Y-3.6614
X5.6299Y-3.8189
X5.6299Y-3.9764
X5.6299Y-4.1339
X5.7874Y-2.4803
X5.7874Y-2.6378
X5.7874Y-2.7953
X5.7874Y-2.9528
X5.7874Y-3.1102
X5.7874Y-3.2677
X5.7874Y-3.4252
X5.7874Y-3.5827
X5.7874Y-3.7402
X5.7874Y-3.8976
X5.7874Y-4.0551
X5.7874Y-4.2126
T6
X4.1963Y-5.1416
X4.1963Y-5.3759
X4.3135Y-4.9386
X4.3135Y-5.5789
X4.4972Y-5.18
X4.5165Y-4.8214
X4.5165Y-5.6961
X4.6336Y-5.4162
X4.7508Y-4.8214
X4.7508Y-5.6961
X4.77Y-5.18
X4.9538Y-4.9386
X4.9538Y-5.5789
X5.0709Y-5.1416
X5.0709Y-5.3759
T7
X3.3102Y-5.0198
X3.8575Y-5.0198
T8
X5.5197Y-4.8898
X5.5197Y-5.315
X5.5197Y-5.5669
X5.7717Y-4.8898
X5.7717Y-5.315
X5.7717Y-5.5669
X6.0236Y-4.8898
X6.0236Y-5.315
X6.0236Y-5.5669
X6.2756Y-4.8898
X6.2756Y-5.315
X6.2756Y-5.5669
T0
M30
