M48
;DRILL file {KiCad 4.0.2+dfsg1-stable} date Mon 05 Mar 2018 09:52:26 PM EST
;FORMAT={-:-/ absolute / metric / decimal}
FMAT,2
METRIC,TZ
T1C0.305
T2C0.798
T3C0.800
T4C0.950
T5C1.750
T6C2.000
T7C2.180
T8C2.300
%
G90
G05
M71
T1
X38.353Y-101.092
X41.656Y-101.092
X43.903Y-109.513
X46.701Y-109.509
X48.006Y-131.064
X48.514Y-129.794
X54.61Y-137.236
X54.642Y-134.842
X55.372Y-137.236
X55.404Y-134.849
X56.134Y-137.236
X56.207Y-134.849
X56.896Y-137.236
X56.969Y-134.849
X58.928Y-106.934
X60.223Y-108.636
X60.28Y-120.224
X60.714Y-143.51
X61.469Y-121.412
X62.289Y-143.51
X62.484Y-66.294
X62.484Y-67.132
X62.484Y-67.894
X62.484Y-68.656
X62.484Y-69.418
X63.246Y-130.302
X63.5Y-121.92
X65.532Y-126.492
X66.802Y-66.294
X66.802Y-69.418
X67.386Y-67.818
X67.386Y-68.58
X67.818Y-67.056
X67.989Y-122.091
X69.088Y-123.952
X78.486Y-125.73
X83.151Y-125.823
X85.344Y-66.827
X85.344Y-68.809
X93.008Y-139.148
X93.834Y-138.322
X93.98Y-107.061
X93.98Y-108.712
X94.742Y-108.636
X94.742Y-107.061
X97.885Y-74.835
X101.092Y-110.744
X101.378Y-74.898
X102.043Y-113.219
X102.546Y-82.112
X103.57Y-94.934
X103.886Y-82.626
X103.886Y-83.566
X104.056Y-84.328
X104.17Y-94.412
X104.216Y-110.744
X104.366Y-115.542
X105.918Y-81.788
X105.918Y-82.55
X105.918Y-83.312
X105.918Y-84.074
X106.68Y-94.234
X106.68Y-94.996
X108.036Y-67.65
X108.045Y-65.373
X122.428Y-92.456
X122.428Y-93.218
X122.46Y-91.662
X123.396Y-93.976
X123.396Y-94.738
X127.Y-91.872
X127.762Y-92.634
X128.524Y-93.265
X128.778Y-53.995
X129.413Y-93.98
X129.413Y-94.742
X129.794Y-53.995
X129.794Y-55.672
X130.81Y-55.672
X135.89Y-74.422
X137.236Y-73.152
X137.922Y-92.964
X140.208Y-92.964
T2
X47.763Y-147.
X47.862Y-139.802
X50.303Y-147.
X50.402Y-139.802
X52.843Y-147.
X52.942Y-139.802
X55.383Y-147.
X55.479Y-139.802
X57.92Y-147.
X58.019Y-139.802
X60.46Y-147.
X60.559Y-139.802
X63.Y-147.
X63.099Y-139.802
X79.151Y-147.
X79.251Y-139.802
X81.691Y-147.
X81.791Y-139.802
X84.231Y-147.
X84.331Y-139.802
X86.771Y-147.
X86.868Y-139.802
X89.309Y-147.
X89.408Y-139.802
X91.849Y-147.
X91.948Y-139.802
X94.389Y-147.
X94.488Y-139.802
T3
X74.01Y-100.04
X75.15Y-112.04
X75.28Y-97.5
X76.42Y-109.5
X76.55Y-100.04
X77.69Y-112.04
X77.82Y-97.5
X78.96Y-109.5
X79.09Y-100.04
X79.77Y-76.04
X80.23Y-112.04
X80.36Y-97.5
X81.04Y-73.5
X81.5Y-109.5
X81.63Y-100.04
X82.31Y-76.04
X82.9Y-97.5
X83.58Y-73.5
X84.17Y-100.04
X84.85Y-76.04
X85.27Y-64.04
X85.44Y-97.5
X86.12Y-73.5
X86.54Y-61.5
X86.71Y-100.04
X87.39Y-76.04
X87.81Y-64.04
X87.98Y-97.5
X88.66Y-73.5
X89.08Y-61.5
X89.25Y-100.04
X89.37Y-112.04
X89.93Y-76.04
X90.35Y-64.04
X90.52Y-97.5
X90.64Y-109.5
X90.67Y-88.04
X91.2Y-73.5
X91.62Y-61.5
X91.79Y-100.04
X91.91Y-112.04
X91.94Y-85.5
X92.47Y-76.04
X92.89Y-64.04
X93.06Y-97.5
X93.18Y-109.5
X93.21Y-88.04
X93.74Y-73.5
X94.16Y-61.5
X94.33Y-100.04
X94.45Y-112.04
X94.48Y-85.5
X95.01Y-76.04
X95.43Y-64.04
X95.6Y-97.5
X95.72Y-109.5
X95.75Y-88.04
X96.28Y-73.5
X96.7Y-61.5
X96.99Y-112.04
X97.02Y-85.5
X97.55Y-76.04
X97.97Y-64.04
X98.26Y-109.5
X98.29Y-88.04
X98.82Y-73.5
X99.24Y-61.5
X99.53Y-112.04
X99.56Y-85.5
X100.09Y-76.04
X100.51Y-64.04
X100.8Y-109.5
X100.83Y-88.04
X101.36Y-73.5
X101.78Y-61.5
X102.07Y-112.04
X102.1Y-85.5
X102.63Y-76.04
X102.93Y-100.04
X103.05Y-64.04
X103.34Y-109.5
X103.37Y-88.04
X103.9Y-73.5
X104.2Y-97.5
X104.32Y-61.5
X104.61Y-112.04
X104.64Y-85.5
X105.47Y-100.04
X105.59Y-64.04
X105.88Y-109.5
X105.91Y-88.04
X106.74Y-97.5
X106.86Y-61.5
X107.15Y-112.04
X107.18Y-85.5
X108.01Y-100.04
X108.13Y-64.04
X108.42Y-109.5
X108.45Y-88.04
X109.28Y-97.5
X109.4Y-61.5
X109.69Y-112.04
X109.72Y-85.5
X110.55Y-100.04
X110.96Y-109.5
X110.99Y-88.04
X111.82Y-97.5
X112.23Y-112.04
X112.26Y-85.5
X113.09Y-100.04
X113.5Y-109.5
X113.53Y-88.04
X114.36Y-97.5
X114.8Y-85.5
X115.63Y-100.04
X116.9Y-97.5
T4
X84.48Y-132.252
X86.59Y-123.082
X87.02Y-132.252
X87.86Y-125.622
X89.13Y-123.082
X90.4Y-125.622
X91.67Y-123.082
X92.94Y-125.622
X94.21Y-123.082
X95.04Y-132.252
X95.48Y-125.622
X97.58Y-132.252
T5
X46.Y-63.
X46.Y-67.
X46.Y-71.
X46.Y-75.
X46.Y-79.
X46.Y-83.
X46.Y-87.
X46.Y-91.
X46.Y-95.
X46.Y-99.
X46.Y-103.
X46.Y-107.
X50.Y-65.
X50.Y-69.
X50.Y-73.
X50.Y-77.
X50.Y-81.
X50.Y-85.
X50.Y-89.
X50.Y-93.
X50.Y-97.
X50.Y-101.
X50.Y-105.
X54.Y-63.
X54.Y-67.
X54.Y-71.
X54.Y-75.
X54.Y-79.
X54.Y-83.
X54.Y-87.
X54.Y-91.
X54.Y-95.
X54.Y-99.
X54.Y-103.
X54.Y-107.
X139.Y-63.
X139.Y-67.
X139.Y-71.
X139.Y-75.
X139.Y-79.
X139.Y-83.
X139.Y-87.
X139.Y-91.
X139.Y-95.
X139.Y-99.
X139.Y-103.
X139.Y-107.
X143.Y-65.
X143.Y-69.
X143.Y-73.
X143.Y-77.
X143.Y-81.
X143.Y-85.
X143.Y-89.
X143.Y-93.
X143.Y-97.
X143.Y-101.
X143.Y-105.
X147.Y-63.
X147.Y-67.
X147.Y-71.
X147.Y-75.
X147.Y-79.
X147.Y-83.
X147.Y-87.
X147.Y-91.
X147.Y-95.
X147.Y-99.
X147.Y-103.
X147.Y-107.
T6
X106.586Y-130.596
X106.586Y-136.548
X109.562Y-125.44
X109.562Y-141.704
X114.23Y-131.572
X114.718Y-122.464
X114.718Y-144.68
X117.694Y-137.572
X120.67Y-122.464
X120.67Y-144.68
X121.158Y-131.572
X125.826Y-125.44
X125.826Y-141.704
X128.802Y-130.596
X128.802Y-136.548
T7
X84.08Y-127.502
X97.98Y-127.502
T8
X140.2Y-124.2
X140.2Y-135.
X140.2Y-141.4
X146.6Y-124.2
X146.6Y-135.
X146.6Y-141.4
X153.Y-124.2
X153.Y-135.
X153.Y-141.4
X159.4Y-124.2
X159.4Y-135.
X159.4Y-141.4
T0
M30
