G04 #@! TF.FileFunction,Copper,L1,Top,Signal*
%FSLAX46Y46*%
G04 Gerber Fmt 4.6, Leading zero omitted, Abs format (unit mm)*
G04 Created by KiCad (PCBNEW 4.0.7-e2-6376~58~ubuntu16.04.1) date Mon Feb 19 20:22:56 2018*
%MOMM*%
%LPD*%
G01*
G04 APERTURE LIST*
%ADD10C,0.100000*%
%ADD11C,1.397000*%
%ADD12C,1.981000*%
%ADD13C,1.676400*%
%ADD14C,0.609600*%
%ADD15C,0.254000*%
G04 APERTURE END LIST*
D10*
D11*
X195425000Y-106172000D03*
X198925000Y-106172000D03*
D12*
X197175000Y-108402000D03*
D11*
X191925000Y-106172000D03*
X188425000Y-106172000D03*
D13*
X196799200Y-114510820D03*
X194259200Y-114510820D03*
X191719200Y-114510820D03*
X189181740Y-114510820D03*
X186641740Y-114510820D03*
X184101740Y-114510820D03*
X181561740Y-114510820D03*
X181660800Y-121709180D03*
X184200800Y-121709180D03*
X186740800Y-121709180D03*
X189278260Y-121709180D03*
X191818260Y-121709180D03*
X194358260Y-121709180D03*
X196898260Y-121709180D03*
X166319200Y-114510820D03*
X163779200Y-114510820D03*
X161239200Y-114510820D03*
X158701740Y-114510820D03*
X156161740Y-114510820D03*
X153621740Y-114510820D03*
X151081740Y-114510820D03*
X151180800Y-121709180D03*
X153720800Y-121709180D03*
X156260800Y-121709180D03*
X158798260Y-121709180D03*
X161338260Y-121709180D03*
X163878260Y-121709180D03*
X166418260Y-121709180D03*
D14*
X201930000Y-103886000D03*
X179959000Y-106045000D03*
X185674000Y-103378000D03*
X185039000Y-115824000D03*
X190627000Y-115570000D03*
X184277000Y-116840000D03*
X188341000Y-116840000D03*
X177165000Y-108585000D03*
X168021000Y-115062000D03*
X184150000Y-112522000D03*
X176784000Y-109855000D03*
X168021000Y-115951000D03*
X154559000Y-116459000D03*
X152908000Y-116459000D03*
X181483000Y-110744000D03*
X183769000Y-117475000D03*
X187579000Y-120015000D03*
X168021000Y-111125000D03*
X165862000Y-111125000D03*
X167259000Y-112395000D03*
X162179000Y-112395000D03*
X167894000Y-113665000D03*
X159131000Y-113030000D03*
X168021000Y-118745000D03*
X164719000Y-118745000D03*
X171577000Y-119253000D03*
D15*
X166319200Y-114510820D02*
X166319200Y-121610120D01*
X166319200Y-121610120D02*
X166418260Y-121709180D01*
X190627000Y-115570000D02*
X190195948Y-115570000D01*
X190195948Y-115570000D02*
X189941948Y-115824000D01*
X189941948Y-115824000D02*
X185039000Y-115824000D01*
X188341000Y-116840000D02*
X184277000Y-116840000D01*
X168402000Y-114681000D02*
X171069000Y-114681000D01*
X171069000Y-114681000D02*
X177165000Y-108585000D01*
X168021000Y-115062000D02*
X168402000Y-114681000D01*
X184150000Y-112522000D02*
X184150000Y-114462560D01*
X184150000Y-114462560D02*
X184101740Y-114510820D01*
X184200800Y-121709180D02*
X184200800Y-120523787D01*
X184200800Y-120523787D02*
X183007000Y-119329987D01*
X183007000Y-119329987D02*
X183007000Y-115605560D01*
X183007000Y-115605560D02*
X184101740Y-114510820D01*
X168783000Y-115189000D02*
X171450000Y-115189000D01*
X171450000Y-115189000D02*
X176784000Y-109855000D01*
X168021000Y-115951000D02*
X168783000Y-115189000D01*
X152908000Y-116459000D02*
X154559000Y-116459000D01*
X181483000Y-110744000D02*
X181483000Y-114432080D01*
X181483000Y-114432080D02*
X181561740Y-114510820D01*
X181561740Y-114510820D02*
X181561740Y-121610120D01*
X181561740Y-121610120D02*
X181660800Y-121709180D01*
X186740800Y-121709180D02*
X186740800Y-120446800D01*
X186740800Y-120446800D02*
X183769000Y-117475000D01*
X187706000Y-120015000D02*
X187579000Y-120015000D01*
X191309473Y-120015000D02*
X187706000Y-120015000D01*
X191818260Y-121709180D02*
X191818260Y-120523787D01*
X191818260Y-120523787D02*
X191309473Y-120015000D01*
X165862000Y-111125000D02*
X168021000Y-111125000D01*
X162179000Y-112395000D02*
X167259000Y-112395000D01*
X159131000Y-113030000D02*
X167259000Y-113030000D01*
X167259000Y-113030000D02*
X167894000Y-113665000D01*
X168021000Y-118745000D02*
X171069000Y-118745000D01*
X161762440Y-118745000D02*
X164719000Y-118745000D01*
X171069000Y-118745000D02*
X171577000Y-119253000D01*
X158798260Y-121709180D02*
X161762440Y-118745000D01*
G36*
X204249377Y-102736811D02*
X204385341Y-102827658D01*
X204476189Y-102963622D01*
X204522000Y-103193931D01*
X204522000Y-110363000D01*
X182342439Y-110363000D01*
X182280188Y-110212341D01*
X182016049Y-109947741D01*
X181670758Y-109804363D01*
X181296882Y-109804037D01*
X180951341Y-109946812D01*
X180686741Y-110210951D01*
X180623604Y-110363000D01*
X177590660Y-110363000D01*
X177723637Y-110042758D01*
X177723963Y-109668882D01*
X177618796Y-109414360D01*
X177696659Y-109382188D01*
X177961259Y-109118049D01*
X178104637Y-108772758D01*
X178104963Y-108398882D01*
X177962188Y-108053341D01*
X177698049Y-107788741D01*
X177352758Y-107645363D01*
X176978882Y-107645037D01*
X176633341Y-107787812D01*
X176368741Y-108051951D01*
X176225363Y-108397242D01*
X176225320Y-108447050D01*
X174309370Y-110363000D01*
X168588248Y-110363000D01*
X168554049Y-110328741D01*
X168208758Y-110185363D01*
X167834882Y-110185037D01*
X167489341Y-110327812D01*
X167454092Y-110363000D01*
X166429248Y-110363000D01*
X166395049Y-110328741D01*
X166049758Y-110185363D01*
X165675882Y-110185037D01*
X165330341Y-110327812D01*
X165295092Y-110363000D01*
X164592000Y-110363000D01*
X164592000Y-109168000D01*
X165100000Y-109168000D01*
X165103512Y-109167301D01*
X165107029Y-109167965D01*
X165239229Y-109140305D01*
X165371705Y-109113954D01*
X165374681Y-109111965D01*
X165378186Y-109111232D01*
X165489753Y-109035077D01*
X165602046Y-108960046D01*
X165604035Y-108957070D01*
X165606992Y-108955051D01*
X168076565Y-106436086D01*
X187091269Y-106436086D01*
X187293854Y-106926380D01*
X187668647Y-107301827D01*
X188158587Y-107505268D01*
X188689086Y-107505731D01*
X189179380Y-107303146D01*
X189554827Y-106928353D01*
X189758268Y-106438413D01*
X189758270Y-106436086D01*
X190591269Y-106436086D01*
X190793854Y-106926380D01*
X191168647Y-107301827D01*
X191658587Y-107505268D01*
X192189086Y-107505731D01*
X192679380Y-107303146D01*
X192876681Y-107106188D01*
X194670417Y-107106188D01*
X194732071Y-107341800D01*
X195232480Y-107517927D01*
X195762199Y-107489148D01*
X195807382Y-107470433D01*
X195797772Y-107480026D01*
X195549783Y-108077250D01*
X195549219Y-108723913D01*
X195796165Y-109321569D01*
X196253026Y-109779228D01*
X196850250Y-110027217D01*
X197496913Y-110027781D01*
X198094569Y-109780835D01*
X198552228Y-109323974D01*
X198800217Y-108726750D01*
X198800781Y-108080087D01*
X198553835Y-107482431D01*
X198518610Y-107447144D01*
X198658587Y-107505268D01*
X199189086Y-107505731D01*
X199679380Y-107303146D01*
X200054827Y-106928353D01*
X200258268Y-106438413D01*
X200258731Y-105907914D01*
X200056146Y-105417620D01*
X199681353Y-105042173D01*
X199191413Y-104838732D01*
X198660914Y-104838269D01*
X198170620Y-105040854D01*
X197795173Y-105415647D01*
X197591732Y-105905587D01*
X197591269Y-106436086D01*
X197780151Y-106893216D01*
X197499750Y-106776783D01*
X196853087Y-106776219D01*
X196397197Y-106964589D01*
X196359190Y-106926582D01*
X196594800Y-106864929D01*
X196770927Y-106364520D01*
X196742148Y-105834801D01*
X196594800Y-105479071D01*
X196359188Y-105417417D01*
X195604605Y-106172000D01*
X195618748Y-106186143D01*
X195439143Y-106365748D01*
X195425000Y-106351605D01*
X194670417Y-107106188D01*
X192876681Y-107106188D01*
X193054827Y-106928353D01*
X193258268Y-106438413D01*
X193258668Y-105979480D01*
X194079073Y-105979480D01*
X194107852Y-106509199D01*
X194255200Y-106864929D01*
X194490812Y-106926583D01*
X195245395Y-106172000D01*
X194490812Y-105417417D01*
X194255200Y-105479071D01*
X194079073Y-105979480D01*
X193258668Y-105979480D01*
X193258731Y-105907914D01*
X193056146Y-105417620D01*
X192876652Y-105237812D01*
X194670417Y-105237812D01*
X195425000Y-105992395D01*
X196179583Y-105237812D01*
X196117929Y-105002200D01*
X195617520Y-104826073D01*
X195087801Y-104854852D01*
X194732071Y-105002200D01*
X194670417Y-105237812D01*
X192876652Y-105237812D01*
X192681353Y-105042173D01*
X192191413Y-104838732D01*
X191660914Y-104838269D01*
X191170620Y-105040854D01*
X190795173Y-105415647D01*
X190591732Y-105905587D01*
X190591269Y-106436086D01*
X189758270Y-106436086D01*
X189758731Y-105907914D01*
X189556146Y-105417620D01*
X189181353Y-105042173D01*
X188691413Y-104838732D01*
X188160914Y-104838269D01*
X187670620Y-105040854D01*
X187295173Y-105415647D01*
X187091732Y-105905587D01*
X187091269Y-106436086D01*
X168076565Y-106436086D01*
X171748218Y-102691000D01*
X204019073Y-102691000D01*
X204249377Y-102736811D01*
X204249377Y-102736811D01*
G37*
X204249377Y-102736811D02*
X204385341Y-102827658D01*
X204476189Y-102963622D01*
X204522000Y-103193931D01*
X204522000Y-110363000D01*
X182342439Y-110363000D01*
X182280188Y-110212341D01*
X182016049Y-109947741D01*
X181670758Y-109804363D01*
X181296882Y-109804037D01*
X180951341Y-109946812D01*
X180686741Y-110210951D01*
X180623604Y-110363000D01*
X177590660Y-110363000D01*
X177723637Y-110042758D01*
X177723963Y-109668882D01*
X177618796Y-109414360D01*
X177696659Y-109382188D01*
X177961259Y-109118049D01*
X178104637Y-108772758D01*
X178104963Y-108398882D01*
X177962188Y-108053341D01*
X177698049Y-107788741D01*
X177352758Y-107645363D01*
X176978882Y-107645037D01*
X176633341Y-107787812D01*
X176368741Y-108051951D01*
X176225363Y-108397242D01*
X176225320Y-108447050D01*
X174309370Y-110363000D01*
X168588248Y-110363000D01*
X168554049Y-110328741D01*
X168208758Y-110185363D01*
X167834882Y-110185037D01*
X167489341Y-110327812D01*
X167454092Y-110363000D01*
X166429248Y-110363000D01*
X166395049Y-110328741D01*
X166049758Y-110185363D01*
X165675882Y-110185037D01*
X165330341Y-110327812D01*
X165295092Y-110363000D01*
X164592000Y-110363000D01*
X164592000Y-109168000D01*
X165100000Y-109168000D01*
X165103512Y-109167301D01*
X165107029Y-109167965D01*
X165239229Y-109140305D01*
X165371705Y-109113954D01*
X165374681Y-109111965D01*
X165378186Y-109111232D01*
X165489753Y-109035077D01*
X165602046Y-108960046D01*
X165604035Y-108957070D01*
X165606992Y-108955051D01*
X168076565Y-106436086D01*
X187091269Y-106436086D01*
X187293854Y-106926380D01*
X187668647Y-107301827D01*
X188158587Y-107505268D01*
X188689086Y-107505731D01*
X189179380Y-107303146D01*
X189554827Y-106928353D01*
X189758268Y-106438413D01*
X189758270Y-106436086D01*
X190591269Y-106436086D01*
X190793854Y-106926380D01*
X191168647Y-107301827D01*
X191658587Y-107505268D01*
X192189086Y-107505731D01*
X192679380Y-107303146D01*
X192876681Y-107106188D01*
X194670417Y-107106188D01*
X194732071Y-107341800D01*
X195232480Y-107517927D01*
X195762199Y-107489148D01*
X195807382Y-107470433D01*
X195797772Y-107480026D01*
X195549783Y-108077250D01*
X195549219Y-108723913D01*
X195796165Y-109321569D01*
X196253026Y-109779228D01*
X196850250Y-110027217D01*
X197496913Y-110027781D01*
X198094569Y-109780835D01*
X198552228Y-109323974D01*
X198800217Y-108726750D01*
X198800781Y-108080087D01*
X198553835Y-107482431D01*
X198518610Y-107447144D01*
X198658587Y-107505268D01*
X199189086Y-107505731D01*
X199679380Y-107303146D01*
X200054827Y-106928353D01*
X200258268Y-106438413D01*
X200258731Y-105907914D01*
X200056146Y-105417620D01*
X199681353Y-105042173D01*
X199191413Y-104838732D01*
X198660914Y-104838269D01*
X198170620Y-105040854D01*
X197795173Y-105415647D01*
X197591732Y-105905587D01*
X197591269Y-106436086D01*
X197780151Y-106893216D01*
X197499750Y-106776783D01*
X196853087Y-106776219D01*
X196397197Y-106964589D01*
X196359190Y-106926582D01*
X196594800Y-106864929D01*
X196770927Y-106364520D01*
X196742148Y-105834801D01*
X196594800Y-105479071D01*
X196359188Y-105417417D01*
X195604605Y-106172000D01*
X195618748Y-106186143D01*
X195439143Y-106365748D01*
X195425000Y-106351605D01*
X194670417Y-107106188D01*
X192876681Y-107106188D01*
X193054827Y-106928353D01*
X193258268Y-106438413D01*
X193258668Y-105979480D01*
X194079073Y-105979480D01*
X194107852Y-106509199D01*
X194255200Y-106864929D01*
X194490812Y-106926583D01*
X195245395Y-106172000D01*
X194490812Y-105417417D01*
X194255200Y-105479071D01*
X194079073Y-105979480D01*
X193258668Y-105979480D01*
X193258731Y-105907914D01*
X193056146Y-105417620D01*
X192876652Y-105237812D01*
X194670417Y-105237812D01*
X195425000Y-105992395D01*
X196179583Y-105237812D01*
X196117929Y-105002200D01*
X195617520Y-104826073D01*
X195087801Y-104854852D01*
X194732071Y-105002200D01*
X194670417Y-105237812D01*
X192876652Y-105237812D01*
X192681353Y-105042173D01*
X192191413Y-104838732D01*
X191660914Y-104838269D01*
X191170620Y-105040854D01*
X190795173Y-105415647D01*
X190591732Y-105905587D01*
X190591269Y-106436086D01*
X189758270Y-106436086D01*
X189758731Y-105907914D01*
X189556146Y-105417620D01*
X189181353Y-105042173D01*
X188691413Y-104838732D01*
X188160914Y-104838269D01*
X187670620Y-105040854D01*
X187295173Y-105415647D01*
X187091732Y-105905587D01*
X187091269Y-106436086D01*
X168076565Y-106436086D01*
X171748218Y-102691000D01*
X204019073Y-102691000D01*
X204249377Y-102736811D01*
M02*
