G04 #@! TF.FileFunction,Legend,Bot*
%FSLAX46Y46*%
G04 Gerber Fmt 4.6, Leading zero omitted, Abs format (unit mm)*
G04 Created by KiCad (PCBNEW 4.0.7-e2-6376~58~ubuntu16.04.1) date Sat Feb  3 17:42:28 2018*
%MOMM*%
%LPD*%
G01*
G04 APERTURE LIST*
%ADD10C,0.100000*%
%ADD11C,0.152400*%
%ADD12C,0.127000*%
%ADD13C,0.150000*%
%ADD14C,0.120000*%
G04 APERTURE END LIST*
D10*
D11*
X204016429Y-119318314D02*
X203871286Y-119318314D01*
X203798714Y-119354600D01*
X203726143Y-119427171D01*
X203689857Y-119572314D01*
X203689857Y-119826314D01*
X203726143Y-119971457D01*
X203798714Y-120044029D01*
X203871286Y-120080314D01*
X204016429Y-120080314D01*
X204089000Y-120044029D01*
X204161571Y-119971457D01*
X204197857Y-119826314D01*
X204197857Y-119572314D01*
X204161571Y-119427171D01*
X204089000Y-119354600D01*
X204016429Y-119318314D01*
X203254428Y-120080314D02*
X203327000Y-120044029D01*
X203363285Y-119971457D01*
X203363285Y-119318314D01*
X202964142Y-120080314D02*
X202964142Y-119572314D01*
X202964142Y-119318314D02*
X203000428Y-119354600D01*
X202964142Y-119390886D01*
X202927857Y-119354600D01*
X202964142Y-119318314D01*
X202964142Y-119390886D01*
X202601285Y-119572314D02*
X202601285Y-120080314D01*
X202601285Y-119644886D02*
X202565000Y-119608600D01*
X202492428Y-119572314D01*
X202383571Y-119572314D01*
X202311000Y-119608600D01*
X202274714Y-119681171D01*
X202274714Y-120080314D01*
X201331285Y-119681171D02*
X201077285Y-119681171D01*
X200968428Y-120080314D02*
X201331285Y-120080314D01*
X201331285Y-119318314D01*
X200968428Y-119318314D01*
X200532999Y-120080314D02*
X200605571Y-120044029D01*
X200641856Y-119971457D01*
X200641856Y-119318314D01*
X199952428Y-120044029D02*
X200024999Y-120080314D01*
X200170142Y-120080314D01*
X200242713Y-120044029D01*
X200278999Y-119971457D01*
X200278999Y-119681171D01*
X200242713Y-119608600D01*
X200170142Y-119572314D01*
X200024999Y-119572314D01*
X199952428Y-119608600D01*
X199916142Y-119681171D01*
X199916142Y-119753743D01*
X200278999Y-119826314D01*
X199262999Y-120044029D02*
X199335570Y-120080314D01*
X199480713Y-120080314D01*
X199553285Y-120044029D01*
X199589570Y-120007743D01*
X199625856Y-119935171D01*
X199625856Y-119717457D01*
X199589570Y-119644886D01*
X199553285Y-119608600D01*
X199480713Y-119572314D01*
X199335570Y-119572314D01*
X199262999Y-119608600D01*
X199045285Y-119572314D02*
X198754999Y-119572314D01*
X198936427Y-119318314D02*
X198936427Y-119971457D01*
X198900142Y-120044029D01*
X198827570Y-120080314D01*
X198754999Y-120080314D01*
X198500998Y-120080314D02*
X198500998Y-119572314D01*
X198500998Y-119717457D02*
X198464713Y-119644886D01*
X198428427Y-119608600D01*
X198355856Y-119572314D01*
X198283284Y-119572314D01*
X198029284Y-120080314D02*
X198029284Y-119572314D01*
X198029284Y-119318314D02*
X198065570Y-119354600D01*
X198029284Y-119390886D01*
X197992999Y-119354600D01*
X198029284Y-119318314D01*
X198029284Y-119390886D01*
X197339856Y-120044029D02*
X197412427Y-120080314D01*
X197557570Y-120080314D01*
X197630142Y-120044029D01*
X197666427Y-120007743D01*
X197702713Y-119935171D01*
X197702713Y-119717457D01*
X197666427Y-119644886D01*
X197630142Y-119608600D01*
X197557570Y-119572314D01*
X197412427Y-119572314D01*
X197339856Y-119608600D01*
X196432713Y-120080314D02*
X196432713Y-119318314D01*
X196178713Y-119862600D01*
X195924713Y-119318314D01*
X195924713Y-120080314D01*
X195452999Y-120080314D02*
X195525571Y-120044029D01*
X195561856Y-120007743D01*
X195598142Y-119935171D01*
X195598142Y-119717457D01*
X195561856Y-119644886D01*
X195525571Y-119608600D01*
X195452999Y-119572314D01*
X195344142Y-119572314D01*
X195271571Y-119608600D01*
X195235285Y-119644886D01*
X195198999Y-119717457D01*
X195198999Y-119935171D01*
X195235285Y-120007743D01*
X195271571Y-120044029D01*
X195344142Y-120080314D01*
X195452999Y-120080314D01*
X194981285Y-119572314D02*
X194690999Y-119572314D01*
X194872427Y-119318314D02*
X194872427Y-119971457D01*
X194836142Y-120044029D01*
X194763570Y-120080314D01*
X194690999Y-120080314D01*
X194328141Y-120080314D02*
X194400713Y-120044029D01*
X194436998Y-120007743D01*
X194473284Y-119935171D01*
X194473284Y-119717457D01*
X194436998Y-119644886D01*
X194400713Y-119608600D01*
X194328141Y-119572314D01*
X194219284Y-119572314D01*
X194146713Y-119608600D01*
X194110427Y-119644886D01*
X194074141Y-119717457D01*
X194074141Y-119935171D01*
X194110427Y-120007743D01*
X194146713Y-120044029D01*
X194219284Y-120080314D01*
X194328141Y-120080314D01*
X193747569Y-120080314D02*
X193747569Y-119572314D01*
X193747569Y-119717457D02*
X193711284Y-119644886D01*
X193674998Y-119608600D01*
X193602427Y-119572314D01*
X193529855Y-119572314D01*
X193312141Y-120044029D02*
X193239570Y-120080314D01*
X193094427Y-120080314D01*
X193021855Y-120044029D01*
X192985570Y-119971457D01*
X192985570Y-119935171D01*
X193021855Y-119862600D01*
X193094427Y-119826314D01*
X193203284Y-119826314D01*
X193275855Y-119790029D01*
X193312141Y-119717457D01*
X193312141Y-119681171D01*
X193275855Y-119608600D01*
X193203284Y-119572314D01*
X193094427Y-119572314D01*
X193021855Y-119608600D01*
X192658998Y-119572314D02*
X192658998Y-120334314D01*
X192658998Y-119608600D02*
X192586427Y-119572314D01*
X192441284Y-119572314D01*
X192368713Y-119608600D01*
X192332427Y-119644886D01*
X192296141Y-119717457D01*
X192296141Y-119935171D01*
X192332427Y-120007743D01*
X192368713Y-120044029D01*
X192441284Y-120080314D01*
X192586427Y-120080314D01*
X192658998Y-120044029D01*
X191860712Y-120080314D02*
X191933284Y-120044029D01*
X191969569Y-120007743D01*
X192005855Y-119935171D01*
X192005855Y-119717457D01*
X191969569Y-119644886D01*
X191933284Y-119608600D01*
X191860712Y-119572314D01*
X191751855Y-119572314D01*
X191679284Y-119608600D01*
X191642998Y-119644886D01*
X191606712Y-119717457D01*
X191606712Y-119935171D01*
X191642998Y-120007743D01*
X191679284Y-120044029D01*
X191751855Y-120080314D01*
X191860712Y-120080314D01*
X191280140Y-120080314D02*
X191280140Y-119572314D01*
X191280140Y-119717457D02*
X191243855Y-119644886D01*
X191207569Y-119608600D01*
X191134998Y-119572314D01*
X191062426Y-119572314D01*
X190917284Y-119572314D02*
X190626998Y-119572314D01*
X190808426Y-119318314D02*
X190808426Y-119971457D01*
X190772141Y-120044029D01*
X190699569Y-120080314D01*
X190626998Y-120080314D01*
X190409283Y-120044029D02*
X190336712Y-120080314D01*
X190191569Y-120080314D01*
X190118997Y-120044029D01*
X190082712Y-119971457D01*
X190082712Y-119935171D01*
X190118997Y-119862600D01*
X190191569Y-119826314D01*
X190300426Y-119826314D01*
X190372997Y-119790029D01*
X190409283Y-119717457D01*
X190409283Y-119681171D01*
X190372997Y-119608600D01*
X190300426Y-119572314D01*
X190191569Y-119572314D01*
X190118997Y-119608600D01*
X203798714Y-121375714D02*
X204161571Y-121375714D01*
X204161571Y-120613714D01*
X203544714Y-120976571D02*
X203290714Y-120976571D01*
X203181857Y-121375714D02*
X203544714Y-121375714D01*
X203544714Y-120613714D01*
X203181857Y-120613714D01*
X202855285Y-121375714D02*
X202855285Y-120613714D01*
X202673857Y-120613714D01*
X202565000Y-120650000D01*
X202492428Y-120722571D01*
X202456143Y-120795143D01*
X202419857Y-120940286D01*
X202419857Y-121049143D01*
X202456143Y-121194286D01*
X202492428Y-121266857D01*
X202565000Y-121339429D01*
X202673857Y-121375714D01*
X202855285Y-121375714D01*
X201258714Y-120976571D02*
X201149857Y-121012857D01*
X201113572Y-121049143D01*
X201077286Y-121121714D01*
X201077286Y-121230571D01*
X201113572Y-121303143D01*
X201149857Y-121339429D01*
X201222429Y-121375714D01*
X201512714Y-121375714D01*
X201512714Y-120613714D01*
X201258714Y-120613714D01*
X201186143Y-120650000D01*
X201149857Y-120686286D01*
X201113572Y-120758857D01*
X201113572Y-120831429D01*
X201149857Y-120904000D01*
X201186143Y-120940286D01*
X201258714Y-120976571D01*
X201512714Y-120976571D01*
X200424143Y-121375714D02*
X200424143Y-120976571D01*
X200460429Y-120904000D01*
X200533000Y-120867714D01*
X200678143Y-120867714D01*
X200750714Y-120904000D01*
X200424143Y-121339429D02*
X200496714Y-121375714D01*
X200678143Y-121375714D01*
X200750714Y-121339429D01*
X200787000Y-121266857D01*
X200787000Y-121194286D01*
X200750714Y-121121714D01*
X200678143Y-121085429D01*
X200496714Y-121085429D01*
X200424143Y-121049143D01*
X200061285Y-121375714D02*
X200061285Y-120867714D01*
X200061285Y-121012857D02*
X200025000Y-120940286D01*
X199988714Y-120904000D01*
X199916143Y-120867714D01*
X199843571Y-120867714D01*
X198755000Y-120976571D02*
X198646143Y-121012857D01*
X198609858Y-121049143D01*
X198573572Y-121121714D01*
X198573572Y-121230571D01*
X198609858Y-121303143D01*
X198646143Y-121339429D01*
X198718715Y-121375714D01*
X199009000Y-121375714D01*
X199009000Y-120613714D01*
X198755000Y-120613714D01*
X198682429Y-120650000D01*
X198646143Y-120686286D01*
X198609858Y-120758857D01*
X198609858Y-120831429D01*
X198646143Y-120904000D01*
X198682429Y-120940286D01*
X198755000Y-120976571D01*
X199009000Y-120976571D01*
X197920429Y-121375714D02*
X197920429Y-120976571D01*
X197956715Y-120904000D01*
X198029286Y-120867714D01*
X198174429Y-120867714D01*
X198247000Y-120904000D01*
X197920429Y-121339429D02*
X197993000Y-121375714D01*
X198174429Y-121375714D01*
X198247000Y-121339429D01*
X198283286Y-121266857D01*
X198283286Y-121194286D01*
X198247000Y-121121714D01*
X198174429Y-121085429D01*
X197993000Y-121085429D01*
X197920429Y-121049143D01*
X197231000Y-121339429D02*
X197303571Y-121375714D01*
X197448714Y-121375714D01*
X197521286Y-121339429D01*
X197557571Y-121303143D01*
X197593857Y-121230571D01*
X197593857Y-121012857D01*
X197557571Y-120940286D01*
X197521286Y-120904000D01*
X197448714Y-120867714D01*
X197303571Y-120867714D01*
X197231000Y-120904000D01*
X196904428Y-121375714D02*
X196904428Y-120613714D01*
X196831857Y-121085429D02*
X196614143Y-121375714D01*
X196614143Y-120867714D02*
X196904428Y-121158000D01*
X196287571Y-120867714D02*
X196287571Y-121629714D01*
X196287571Y-120904000D02*
X196215000Y-120867714D01*
X196069857Y-120867714D01*
X195997286Y-120904000D01*
X195961000Y-120940286D01*
X195924714Y-121012857D01*
X195924714Y-121230571D01*
X195961000Y-121303143D01*
X195997286Y-121339429D01*
X196069857Y-121375714D01*
X196215000Y-121375714D01*
X196287571Y-121339429D01*
X195271571Y-121375714D02*
X195271571Y-120976571D01*
X195307857Y-120904000D01*
X195380428Y-120867714D01*
X195525571Y-120867714D01*
X195598142Y-120904000D01*
X195271571Y-121339429D02*
X195344142Y-121375714D01*
X195525571Y-121375714D01*
X195598142Y-121339429D01*
X195634428Y-121266857D01*
X195634428Y-121194286D01*
X195598142Y-121121714D01*
X195525571Y-121085429D01*
X195344142Y-121085429D01*
X195271571Y-121049143D01*
X194582142Y-121339429D02*
X194654713Y-121375714D01*
X194799856Y-121375714D01*
X194872428Y-121339429D01*
X194908713Y-121303143D01*
X194944999Y-121230571D01*
X194944999Y-121012857D01*
X194908713Y-120940286D01*
X194872428Y-120904000D01*
X194799856Y-120867714D01*
X194654713Y-120867714D01*
X194582142Y-120904000D01*
X194255570Y-121375714D02*
X194255570Y-120613714D01*
X194182999Y-121085429D02*
X193965285Y-121375714D01*
X193965285Y-120867714D02*
X194255570Y-121158000D01*
X203726143Y-122671114D02*
X203980143Y-122308257D01*
X204161571Y-122671114D02*
X204161571Y-121909114D01*
X203871286Y-121909114D01*
X203798714Y-121945400D01*
X203762429Y-121981686D01*
X203726143Y-122054257D01*
X203726143Y-122163114D01*
X203762429Y-122235686D01*
X203798714Y-122271971D01*
X203871286Y-122308257D01*
X204161571Y-122308257D01*
X203109286Y-122634829D02*
X203181857Y-122671114D01*
X203327000Y-122671114D01*
X203399571Y-122634829D01*
X203435857Y-122562257D01*
X203435857Y-122271971D01*
X203399571Y-122199400D01*
X203327000Y-122163114D01*
X203181857Y-122163114D01*
X203109286Y-122199400D01*
X203073000Y-122271971D01*
X203073000Y-122344543D01*
X203435857Y-122417114D01*
X202819000Y-122163114D02*
X202637571Y-122671114D01*
X202456143Y-122163114D01*
X201186144Y-122671114D02*
X201621572Y-122671114D01*
X201403858Y-122671114D02*
X201403858Y-121909114D01*
X201476429Y-122017971D01*
X201549001Y-122090543D01*
X201621572Y-122126829D01*
D12*
X199027142Y-100801714D02*
X199389999Y-100801714D01*
X199426285Y-101164571D01*
X199389999Y-101128286D01*
X199317428Y-101092000D01*
X199135999Y-101092000D01*
X199063428Y-101128286D01*
X199027142Y-101164571D01*
X198990857Y-101237143D01*
X198990857Y-101418571D01*
X199027142Y-101491143D01*
X199063428Y-101527429D01*
X199135999Y-101563714D01*
X199317428Y-101563714D01*
X199389999Y-101527429D01*
X199426285Y-101491143D01*
X198773143Y-100801714D02*
X198519143Y-101563714D01*
X198265143Y-100801714D01*
X196033572Y-100838000D02*
X196106143Y-100801714D01*
X196215000Y-100801714D01*
X196323857Y-100838000D01*
X196396429Y-100910571D01*
X196432714Y-100983143D01*
X196469000Y-101128286D01*
X196469000Y-101237143D01*
X196432714Y-101382286D01*
X196396429Y-101454857D01*
X196323857Y-101527429D01*
X196215000Y-101563714D01*
X196142429Y-101563714D01*
X196033572Y-101527429D01*
X195997286Y-101491143D01*
X195997286Y-101237143D01*
X196142429Y-101237143D01*
X195670714Y-101563714D02*
X195670714Y-100801714D01*
X195235286Y-101563714D01*
X195235286Y-100801714D01*
X194872428Y-101563714D02*
X194872428Y-100801714D01*
X194691000Y-100801714D01*
X194582143Y-100838000D01*
X194509571Y-100910571D01*
X194473286Y-100983143D01*
X194437000Y-101128286D01*
X194437000Y-101237143D01*
X194473286Y-101382286D01*
X194509571Y-101454857D01*
X194582143Y-101527429D01*
X194691000Y-101563714D01*
X194872428Y-101563714D01*
X192822285Y-101527429D02*
X192713428Y-101563714D01*
X192531999Y-101563714D01*
X192459428Y-101527429D01*
X192423142Y-101491143D01*
X192386857Y-101418571D01*
X192386857Y-101346000D01*
X192423142Y-101273429D01*
X192459428Y-101237143D01*
X192531999Y-101200857D01*
X192677142Y-101164571D01*
X192749714Y-101128286D01*
X192785999Y-101092000D01*
X192822285Y-101019429D01*
X192822285Y-100946857D01*
X192785999Y-100874286D01*
X192749714Y-100838000D01*
X192677142Y-100801714D01*
X192495714Y-100801714D01*
X192386857Y-100838000D01*
X192060285Y-101563714D02*
X192060285Y-100801714D01*
X191878857Y-100801714D01*
X191770000Y-100838000D01*
X191697428Y-100910571D01*
X191661143Y-100983143D01*
X191624857Y-101128286D01*
X191624857Y-101237143D01*
X191661143Y-101382286D01*
X191697428Y-101454857D01*
X191770000Y-101527429D01*
X191878857Y-101563714D01*
X192060285Y-101563714D01*
X191334571Y-101346000D02*
X190971714Y-101346000D01*
X191407143Y-101563714D02*
X191153143Y-100801714D01*
X190899143Y-101563714D01*
X189375142Y-101527429D02*
X189266285Y-101563714D01*
X189084856Y-101563714D01*
X189012285Y-101527429D01*
X188975999Y-101491143D01*
X188939714Y-101418571D01*
X188939714Y-101346000D01*
X188975999Y-101273429D01*
X189012285Y-101237143D01*
X189084856Y-101200857D01*
X189229999Y-101164571D01*
X189302571Y-101128286D01*
X189338856Y-101092000D01*
X189375142Y-101019429D01*
X189375142Y-100946857D01*
X189338856Y-100874286D01*
X189302571Y-100838000D01*
X189229999Y-100801714D01*
X189048571Y-100801714D01*
X188939714Y-100838000D01*
X188177714Y-101491143D02*
X188214000Y-101527429D01*
X188322857Y-101563714D01*
X188395428Y-101563714D01*
X188504285Y-101527429D01*
X188576857Y-101454857D01*
X188613142Y-101382286D01*
X188649428Y-101237143D01*
X188649428Y-101128286D01*
X188613142Y-100983143D01*
X188576857Y-100910571D01*
X188504285Y-100838000D01*
X188395428Y-100801714D01*
X188322857Y-100801714D01*
X188214000Y-100838000D01*
X188177714Y-100874286D01*
X187488285Y-101563714D02*
X187851142Y-101563714D01*
X187851142Y-100801714D01*
D13*
X189775000Y-101847000D02*
X189775000Y-98537000D01*
X189775000Y-98537000D02*
X197575000Y-98537000D01*
X197575000Y-98537000D02*
X197575000Y-101847000D01*
X201175000Y-101847000D02*
X201175000Y-107569000D01*
X186175000Y-101847000D02*
X186175000Y-107569000D01*
X201175000Y-101847000D02*
X186175000Y-101847000D01*
X201175000Y-107569000D02*
X186175000Y-107569000D01*
X176966998Y-107061000D02*
G75*
G03X176966998Y-107061000I-436998J0D01*
G01*
X177546000Y-106045000D02*
X170434000Y-106045000D01*
X177546000Y-122555000D02*
X177546000Y-106045000D01*
X170434000Y-122555000D02*
X177546000Y-122555000D01*
X170434000Y-106045000D02*
X170434000Y-122555000D01*
D14*
X184015000Y-102577000D02*
X183015000Y-102577000D01*
X183015000Y-100877000D02*
X184015000Y-100877000D01*
X202500000Y-101324000D02*
X203900000Y-101324000D01*
D10*
X204270000Y-102978000D02*
X204670000Y-102978000D01*
X204470000Y-102978000D02*
X204270000Y-103278000D01*
X204670000Y-103278000D02*
X204470000Y-102978000D01*
X204270000Y-103278000D02*
X204670000Y-103278000D01*
D14*
X203900000Y-101324000D02*
X203900000Y-104124000D01*
X202500000Y-101324000D02*
X202500000Y-104124000D01*
X185618656Y-105313024D02*
X185618656Y-104113024D01*
X183858656Y-104113024D02*
X183858656Y-105313024D01*
X183205656Y-105313024D02*
X183205656Y-104113024D01*
X181445656Y-104113024D02*
X181445656Y-105313024D01*
X202320000Y-106588000D02*
X202320000Y-107788000D01*
X204080000Y-107788000D02*
X204080000Y-106588000D01*
D13*
X198207381Y-109013667D02*
X198921667Y-109013667D01*
X199064524Y-108966047D01*
X199159762Y-108870809D01*
X199207381Y-108727952D01*
X199207381Y-108632714D01*
X199207381Y-110013667D02*
X199207381Y-109442238D01*
X199207381Y-109727952D02*
X198207381Y-109727952D01*
X198350238Y-109632714D01*
X198445476Y-109537476D01*
X198493095Y-109442238D01*
X179843181Y-113868295D02*
X180652705Y-113868295D01*
X180747943Y-113915914D01*
X180795562Y-113963533D01*
X180843181Y-114058771D01*
X180843181Y-114249248D01*
X180795562Y-114344486D01*
X180747943Y-114392105D01*
X180652705Y-114439724D01*
X179843181Y-114439724D01*
X180843181Y-115439724D02*
X180843181Y-114868295D01*
X180843181Y-115154009D02*
X179843181Y-115154009D01*
X179986038Y-115058771D01*
X180081276Y-114963533D01*
X180128895Y-114868295D01*
X180887666Y-102084143D02*
X180935285Y-102131762D01*
X181078142Y-102179381D01*
X181173380Y-102179381D01*
X181316238Y-102131762D01*
X181411476Y-102036524D01*
X181459095Y-101941286D01*
X181506714Y-101750810D01*
X181506714Y-101607952D01*
X181459095Y-101417476D01*
X181411476Y-101322238D01*
X181316238Y-101227000D01*
X181173380Y-101179381D01*
X181078142Y-101179381D01*
X180935285Y-101227000D01*
X180887666Y-101274619D01*
X179935285Y-102179381D02*
X180506714Y-102179381D01*
X180221000Y-102179381D02*
X180221000Y-101179381D01*
X180316238Y-101322238D01*
X180411476Y-101417476D01*
X180506714Y-101465095D01*
X202160095Y-103703381D02*
X202160095Y-102703381D01*
X201922000Y-102703381D01*
X201779142Y-102751000D01*
X201683904Y-102846238D01*
X201636285Y-102941476D01*
X201588666Y-103131952D01*
X201588666Y-103274810D01*
X201636285Y-103465286D01*
X201683904Y-103560524D01*
X201779142Y-103655762D01*
X201922000Y-103703381D01*
X202160095Y-103703381D01*
X200636285Y-103703381D02*
X201207714Y-103703381D01*
X200922000Y-103703381D02*
X200922000Y-102703381D01*
X201017238Y-102846238D01*
X201112476Y-102941476D01*
X201207714Y-102989095D01*
D12*
X184865656Y-107151714D02*
X185119656Y-106788857D01*
X185301084Y-107151714D02*
X185301084Y-106389714D01*
X185010799Y-106389714D01*
X184938227Y-106426000D01*
X184901942Y-106462286D01*
X184865656Y-106534857D01*
X184865656Y-106643714D01*
X184901942Y-106716286D01*
X184938227Y-106752571D01*
X185010799Y-106788857D01*
X185301084Y-106788857D01*
X184575370Y-106462286D02*
X184539084Y-106426000D01*
X184466513Y-106389714D01*
X184285084Y-106389714D01*
X184212513Y-106426000D01*
X184176227Y-106462286D01*
X184139942Y-106534857D01*
X184139942Y-106607429D01*
X184176227Y-106716286D01*
X184611656Y-107151714D01*
X184139942Y-107151714D01*
X182452656Y-107151714D02*
X182706656Y-106788857D01*
X182888084Y-107151714D02*
X182888084Y-106389714D01*
X182597799Y-106389714D01*
X182525227Y-106426000D01*
X182488942Y-106462286D01*
X182452656Y-106534857D01*
X182452656Y-106643714D01*
X182488942Y-106716286D01*
X182525227Y-106752571D01*
X182597799Y-106788857D01*
X182888084Y-106788857D01*
X182198656Y-106389714D02*
X181726942Y-106389714D01*
X181980942Y-106680000D01*
X181872084Y-106680000D01*
X181799513Y-106716286D01*
X181763227Y-106752571D01*
X181726942Y-106825143D01*
X181726942Y-107006571D01*
X181763227Y-107079143D01*
X181799513Y-107115429D01*
X181872084Y-107151714D01*
X182089799Y-107151714D01*
X182162370Y-107115429D01*
X182198656Y-107079143D01*
X203327000Y-109691714D02*
X203581000Y-109328857D01*
X203762428Y-109691714D02*
X203762428Y-108929714D01*
X203472143Y-108929714D01*
X203399571Y-108966000D01*
X203363286Y-109002286D01*
X203327000Y-109074857D01*
X203327000Y-109183714D01*
X203363286Y-109256286D01*
X203399571Y-109292571D01*
X203472143Y-109328857D01*
X203762428Y-109328857D01*
X202601286Y-109691714D02*
X203036714Y-109691714D01*
X202819000Y-109691714D02*
X202819000Y-108929714D01*
X202891571Y-109038571D01*
X202964143Y-109111143D01*
X203036714Y-109147429D01*
M02*
