M48
;DRILL file {KiCad 4.0.7-e2-6376~58~ubuntu16.04.1} date Mon Feb 19 20:22:58 2018
;FORMAT={-:-/ absolute / inch / decimal}
FMAT,2
INCH,TZ
T1C0.012
T2C0.031
T3C0.040
T4C0.063
%
G90
G05
M72
T1
X6.02Y-4.585
X6.085Y-4.585
X6.265Y-4.45
X6.385Y-4.425
X6.485Y-4.675
X6.53Y-4.375
X6.585Y-4.425
X6.61Y-4.475
X6.615Y-4.375
X6.615Y-4.53
X6.615Y-4.565
X6.615Y-4.675
X6.755Y-4.695
X6.96Y-4.325
X6.975Y-4.275
X7.085Y-4.175
X7.145Y-4.36
X7.235Y-4.625
X7.25Y-4.43
X7.255Y-4.6
X7.285Y-4.56
X7.31Y-4.07
X7.385Y-4.725
X7.415Y-4.6
X7.505Y-4.55
X7.95Y-4.09
T2
X5.9481Y-4.5083
X5.952Y-4.7917
X6.0481Y-4.5083
X6.052Y-4.7917
X6.1481Y-4.5083
X6.152Y-4.7917
X6.2481Y-4.5083
X6.2519Y-4.7917
X6.348Y-4.5083
X6.3519Y-4.7917
X6.448Y-4.5083
X6.4519Y-4.7917
X6.548Y-4.5083
X6.5519Y-4.7917
X7.1481Y-4.5083
X7.152Y-4.7917
X7.2481Y-4.5083
X7.252Y-4.7917
X7.3481Y-4.5083
X7.352Y-4.7917
X7.4481Y-4.5083
X7.4519Y-4.7917
X7.548Y-4.5083
X7.5519Y-4.7917
X7.648Y-4.5083
X7.6519Y-4.7917
X7.748Y-4.5083
X7.7519Y-4.7917
T3
X7.4183Y-4.18
X7.5561Y-4.18
X7.6939Y-4.18
X7.8317Y-4.18
T4
X7.7628Y-4.2678
T0
M30
