G04 #@! TF.FileFunction,Copper,L1,Top,Signal*
%FSLAX46Y46*%
G04 Gerber Fmt 4.6, Leading zero omitted, Abs format (unit mm)*
G04 Created by KiCad (PCBNEW 4.0.7-e2-6376~58~ubuntu16.04.1) date Sat Feb  3 17:42:28 2018*
%MOMM*%
%LPD*%
G01*
G04 APERTURE LIST*
%ADD10C,0.100000*%
%ADD11C,1.397000*%
%ADD12C,1.981000*%
%ADD13C,1.676400*%
%ADD14C,0.609600*%
%ADD15C,0.254000*%
G04 APERTURE END LIST*
D10*
D11*
X195425000Y-104267000D03*
X198925000Y-104267000D03*
D12*
X197175000Y-106497000D03*
D11*
X191925000Y-104267000D03*
X188425000Y-104267000D03*
D13*
X196799200Y-110700820D03*
X194259200Y-110700820D03*
X191719200Y-110700820D03*
X189181740Y-110700820D03*
X186641740Y-110700820D03*
X184101740Y-110700820D03*
X181561740Y-110700820D03*
X181660800Y-117899180D03*
X184200800Y-117899180D03*
X186740800Y-117899180D03*
X189278260Y-117899180D03*
X191818260Y-117899180D03*
X194358260Y-117899180D03*
X196898260Y-117899180D03*
X166319200Y-110700820D03*
X163779200Y-110700820D03*
X161239200Y-110700820D03*
X158701740Y-110700820D03*
X156161740Y-110700820D03*
X153621740Y-110700820D03*
X151081740Y-110700820D03*
X151180800Y-117899180D03*
X153720800Y-117899180D03*
X156260800Y-117899180D03*
X158798260Y-117899180D03*
X161338260Y-117899180D03*
X163878260Y-117899180D03*
X166418260Y-117899180D03*
D14*
X185801000Y-101727000D03*
X201930000Y-101981000D03*
X178562000Y-105156000D03*
X176784000Y-107950000D03*
X191008000Y-112903000D03*
X188595000Y-112903000D03*
X185674000Y-112928401D03*
X188595000Y-114173000D03*
X185674000Y-114173000D03*
X185674000Y-115570000D03*
X175768000Y-109474000D03*
X173863000Y-108839000D03*
D15*
X176784000Y-107950000D02*
X176784000Y-109601000D01*
X176784000Y-109601000D02*
X176276000Y-110109000D01*
X176276000Y-110109000D02*
X167259000Y-110109000D01*
X167259000Y-110109000D02*
X166667180Y-110700820D01*
X166667180Y-110700820D02*
X166319200Y-110700820D01*
X166319200Y-110700820D02*
X166319200Y-117800120D01*
X166319200Y-117800120D02*
X166418260Y-117899180D01*
X196799200Y-110700820D02*
X196799200Y-117800120D01*
X196799200Y-117800120D02*
X196898260Y-117899180D01*
X193675000Y-112903000D02*
X194259200Y-112318800D01*
X194259200Y-112318800D02*
X194259200Y-110700820D01*
X191008000Y-112903000D02*
X193675000Y-112903000D01*
X185674000Y-112928401D02*
X188569599Y-112928401D01*
X188569599Y-112928401D02*
X188595000Y-112903000D01*
X185674000Y-114173000D02*
X188595000Y-114173000D01*
X188595000Y-115570000D02*
X189181740Y-114983260D01*
X189181740Y-114983260D02*
X189181740Y-110700820D01*
X185674000Y-115570000D02*
X188595000Y-115570000D01*
X184200800Y-117899180D02*
X184200800Y-110799880D01*
X184200800Y-110799880D02*
X184101740Y-110700820D01*
X154848560Y-109474000D02*
X175768000Y-109474000D01*
X153621740Y-110700820D02*
X154848560Y-109474000D01*
X173863000Y-108839000D02*
X152943560Y-108839000D01*
X151081740Y-110700820D02*
X152943560Y-108839000D01*
X181561740Y-110700820D02*
X181561740Y-117800120D01*
X181561740Y-117800120D02*
X181660800Y-117899180D01*
G36*
X204170979Y-101349478D02*
X204348145Y-101467856D01*
X204466521Y-101645019D01*
X204522000Y-101923931D01*
X204522000Y-109093000D01*
X177546000Y-109093000D01*
X177546000Y-108517248D01*
X177580259Y-108483049D01*
X177723637Y-108137758D01*
X177723963Y-107763882D01*
X177581188Y-107418341D01*
X177317049Y-107153741D01*
X176971758Y-107010363D01*
X176597882Y-107010037D01*
X176252341Y-107152812D01*
X175987741Y-107416951D01*
X175895000Y-107640295D01*
X175895000Y-104531086D01*
X187091269Y-104531086D01*
X187293854Y-105021380D01*
X187668647Y-105396827D01*
X188158587Y-105600268D01*
X188689086Y-105600731D01*
X189179380Y-105398146D01*
X189554827Y-105023353D01*
X189758268Y-104533413D01*
X189758270Y-104531086D01*
X190591269Y-104531086D01*
X190793854Y-105021380D01*
X191168647Y-105396827D01*
X191658587Y-105600268D01*
X192189086Y-105600731D01*
X192679380Y-105398146D01*
X192876681Y-105201188D01*
X194670417Y-105201188D01*
X194732071Y-105436800D01*
X195232480Y-105612927D01*
X195762199Y-105584148D01*
X195807382Y-105565433D01*
X195797772Y-105575026D01*
X195549783Y-106172250D01*
X195549219Y-106818913D01*
X195796165Y-107416569D01*
X196253026Y-107874228D01*
X196850250Y-108122217D01*
X197496913Y-108122781D01*
X198094569Y-107875835D01*
X198552228Y-107418974D01*
X198800217Y-106821750D01*
X198800781Y-106175087D01*
X198553835Y-105577431D01*
X198518610Y-105542144D01*
X198658587Y-105600268D01*
X199189086Y-105600731D01*
X199679380Y-105398146D01*
X200054827Y-105023353D01*
X200258268Y-104533413D01*
X200258731Y-104002914D01*
X200056146Y-103512620D01*
X199681353Y-103137173D01*
X199191413Y-102933732D01*
X198660914Y-102933269D01*
X198170620Y-103135854D01*
X197795173Y-103510647D01*
X197591732Y-104000587D01*
X197591269Y-104531086D01*
X197780151Y-104988216D01*
X197499750Y-104871783D01*
X196853087Y-104871219D01*
X196397197Y-105059589D01*
X196359190Y-105021582D01*
X196594800Y-104959929D01*
X196770927Y-104459520D01*
X196742148Y-103929801D01*
X196594800Y-103574071D01*
X196359188Y-103512417D01*
X195604605Y-104267000D01*
X195618748Y-104281143D01*
X195439143Y-104460748D01*
X195425000Y-104446605D01*
X194670417Y-105201188D01*
X192876681Y-105201188D01*
X193054827Y-105023353D01*
X193258268Y-104533413D01*
X193258668Y-104074480D01*
X194079073Y-104074480D01*
X194107852Y-104604199D01*
X194255200Y-104959929D01*
X194490812Y-105021583D01*
X195245395Y-104267000D01*
X194490812Y-103512417D01*
X194255200Y-103574071D01*
X194079073Y-104074480D01*
X193258668Y-104074480D01*
X193258731Y-104002914D01*
X193056146Y-103512620D01*
X192876652Y-103332812D01*
X194670417Y-103332812D01*
X195425000Y-104087395D01*
X196179583Y-103332812D01*
X196117929Y-103097200D01*
X195617520Y-102921073D01*
X195087801Y-102949852D01*
X194732071Y-103097200D01*
X194670417Y-103332812D01*
X192876652Y-103332812D01*
X192681353Y-103137173D01*
X192191413Y-102933732D01*
X191660914Y-102933269D01*
X191170620Y-103135854D01*
X190795173Y-103510647D01*
X190591732Y-104000587D01*
X190591269Y-104531086D01*
X189758270Y-104531086D01*
X189758731Y-104002914D01*
X189556146Y-103512620D01*
X189181353Y-103137173D01*
X188691413Y-102933732D01*
X188160914Y-102933269D01*
X187670620Y-103135854D01*
X187295173Y-103510647D01*
X187091732Y-104000587D01*
X187091269Y-104531086D01*
X175895000Y-104531086D01*
X175895000Y-101294000D01*
X203892070Y-101294000D01*
X204170979Y-101349478D01*
X204170979Y-101349478D01*
G37*
X204170979Y-101349478D02*
X204348145Y-101467856D01*
X204466521Y-101645019D01*
X204522000Y-101923931D01*
X204522000Y-109093000D01*
X177546000Y-109093000D01*
X177546000Y-108517248D01*
X177580259Y-108483049D01*
X177723637Y-108137758D01*
X177723963Y-107763882D01*
X177581188Y-107418341D01*
X177317049Y-107153741D01*
X176971758Y-107010363D01*
X176597882Y-107010037D01*
X176252341Y-107152812D01*
X175987741Y-107416951D01*
X175895000Y-107640295D01*
X175895000Y-104531086D01*
X187091269Y-104531086D01*
X187293854Y-105021380D01*
X187668647Y-105396827D01*
X188158587Y-105600268D01*
X188689086Y-105600731D01*
X189179380Y-105398146D01*
X189554827Y-105023353D01*
X189758268Y-104533413D01*
X189758270Y-104531086D01*
X190591269Y-104531086D01*
X190793854Y-105021380D01*
X191168647Y-105396827D01*
X191658587Y-105600268D01*
X192189086Y-105600731D01*
X192679380Y-105398146D01*
X192876681Y-105201188D01*
X194670417Y-105201188D01*
X194732071Y-105436800D01*
X195232480Y-105612927D01*
X195762199Y-105584148D01*
X195807382Y-105565433D01*
X195797772Y-105575026D01*
X195549783Y-106172250D01*
X195549219Y-106818913D01*
X195796165Y-107416569D01*
X196253026Y-107874228D01*
X196850250Y-108122217D01*
X197496913Y-108122781D01*
X198094569Y-107875835D01*
X198552228Y-107418974D01*
X198800217Y-106821750D01*
X198800781Y-106175087D01*
X198553835Y-105577431D01*
X198518610Y-105542144D01*
X198658587Y-105600268D01*
X199189086Y-105600731D01*
X199679380Y-105398146D01*
X200054827Y-105023353D01*
X200258268Y-104533413D01*
X200258731Y-104002914D01*
X200056146Y-103512620D01*
X199681353Y-103137173D01*
X199191413Y-102933732D01*
X198660914Y-102933269D01*
X198170620Y-103135854D01*
X197795173Y-103510647D01*
X197591732Y-104000587D01*
X197591269Y-104531086D01*
X197780151Y-104988216D01*
X197499750Y-104871783D01*
X196853087Y-104871219D01*
X196397197Y-105059589D01*
X196359190Y-105021582D01*
X196594800Y-104959929D01*
X196770927Y-104459520D01*
X196742148Y-103929801D01*
X196594800Y-103574071D01*
X196359188Y-103512417D01*
X195604605Y-104267000D01*
X195618748Y-104281143D01*
X195439143Y-104460748D01*
X195425000Y-104446605D01*
X194670417Y-105201188D01*
X192876681Y-105201188D01*
X193054827Y-105023353D01*
X193258268Y-104533413D01*
X193258668Y-104074480D01*
X194079073Y-104074480D01*
X194107852Y-104604199D01*
X194255200Y-104959929D01*
X194490812Y-105021583D01*
X195245395Y-104267000D01*
X194490812Y-103512417D01*
X194255200Y-103574071D01*
X194079073Y-104074480D01*
X193258668Y-104074480D01*
X193258731Y-104002914D01*
X193056146Y-103512620D01*
X192876652Y-103332812D01*
X194670417Y-103332812D01*
X195425000Y-104087395D01*
X196179583Y-103332812D01*
X196117929Y-103097200D01*
X195617520Y-102921073D01*
X195087801Y-102949852D01*
X194732071Y-103097200D01*
X194670417Y-103332812D01*
X192876652Y-103332812D01*
X192681353Y-103137173D01*
X192191413Y-102933732D01*
X191660914Y-102933269D01*
X191170620Y-103135854D01*
X190795173Y-103510647D01*
X190591732Y-104000587D01*
X190591269Y-104531086D01*
X189758270Y-104531086D01*
X189758731Y-104002914D01*
X189556146Y-103512620D01*
X189181353Y-103137173D01*
X188691413Y-102933732D01*
X188160914Y-102933269D01*
X187670620Y-103135854D01*
X187295173Y-103510647D01*
X187091732Y-104000587D01*
X187091269Y-104531086D01*
X175895000Y-104531086D01*
X175895000Y-101294000D01*
X203892070Y-101294000D01*
X204170979Y-101349478D01*
M02*
