%TF.GenerationSoftware,KiCad,Pcbnew,no-vcs-found-b18601d~60~ubuntu16.04.1*%
%TF.CreationDate,2017-12-04T14:02:50-05:00*%
%TF.ProjectId,as,61732E6B696361645F70636200000000,rev?*%
%TF.SameCoordinates,Original*%
%TF.FileFunction,Legend,Top*%
%TF.FilePolarity,Positive*%
%FSLAX46Y46*%
G04 Gerber Fmt 4.6, Leading zero omitted, Abs format (unit mm)*
G04 Created by KiCad (PCBNEW no-vcs-found-b18601d~60~ubuntu16.04.1) date Mon Dec  4 14:02:50 2017*
%MOMM*%
%LPD*%
G01*
G04 APERTURE LIST*
%ADD10C,0.120000*%
%ADD11C,0.100000*%
%ADD12C,0.150000*%
%ADD13C,0.500000*%
%ADD14C,0.125000*%
G04 APERTURE END LIST*
D10*
%TO.C,D8*%
X169864000Y-83628000D02*
X169864000Y-86428000D01*
X168464000Y-83628000D02*
X168464000Y-86428000D01*
D11*
X168094000Y-85582000D02*
X167694000Y-85582000D01*
X167694000Y-85582000D02*
X167894000Y-85282000D01*
X167894000Y-85282000D02*
X168094000Y-85582000D01*
X168094000Y-85282000D02*
X167694000Y-85282000D01*
D10*
X169864000Y-83628000D02*
X168464000Y-83628000D01*
D12*
%TO.C,U2*%
X159214999Y-87849000D02*
X159215000Y-87899000D01*
X163365001Y-87849000D02*
X163365000Y-87994000D01*
X163365001Y-92999000D02*
X163365000Y-92854000D01*
X159214999Y-92999000D02*
X159215000Y-92854000D01*
X159214999Y-87849000D02*
X163365001Y-87849000D01*
X159214999Y-92999000D02*
X163365001Y-92999000D01*
X159215000Y-87899000D02*
X157815000Y-87898999D01*
D10*
%TO.C,D3*%
X145480001Y-102300000D02*
X145480001Y-100900000D01*
D11*
X143826001Y-100530000D02*
X143826002Y-100130000D01*
X143826001Y-100330000D02*
X143526001Y-100530000D01*
X143526002Y-100130000D02*
X143826001Y-100330000D01*
X143526001Y-100530000D02*
X143526002Y-100130000D01*
D10*
X145480001Y-100900000D02*
X142680001Y-100900000D01*
X145480001Y-102300000D02*
X142680001Y-102300000D01*
D12*
%TO.C,J2*%
X139300000Y-108602000D02*
X139300000Y-113902000D01*
X164230000Y-108602000D02*
X164230000Y-113902000D01*
X139300000Y-108602000D02*
X164230000Y-108602000D01*
X139300000Y-113902000D02*
X164230000Y-113902000D01*
%TO.C,J1*%
X139046000Y-74820001D02*
X139045999Y-80120000D01*
X169056000Y-74820000D02*
X169056000Y-80120000D01*
X139046000Y-74820001D02*
X169056000Y-74820000D01*
X139045999Y-80120000D02*
X169056000Y-80120000D01*
D10*
%TO.C,R13*%
X156012010Y-83850518D02*
X155163482Y-83001990D01*
X156407990Y-81757482D02*
X157256518Y-82606010D01*
D12*
%TO.C,P1*%
X161544000Y-98044000D02*
X161543999Y-103124000D01*
X161264000Y-95224000D02*
X162814000Y-95223999D01*
X164084000Y-95504000D02*
X164084000Y-98044000D01*
X164084000Y-98044000D02*
X161544000Y-98044000D01*
X161543999Y-103124000D02*
X166624000Y-103124000D01*
X166624000Y-103124000D02*
X166624000Y-98044000D01*
X161264000Y-95224000D02*
X161263999Y-96774000D01*
X166624000Y-95504000D02*
X164084000Y-95504000D01*
X166624000Y-98044000D02*
X166624000Y-95504000D01*
D13*
%TO.C,IC1*%
X156712548Y-100566039D02*
G75*
G03X156712548Y-100566039I-50801J0D01*
G01*
X159047414Y-100709724D02*
G75*
G03X159047414Y-100709724I-50800J0D01*
G01*
D12*
X158034524Y-100584000D02*
X157875425Y-100424901D01*
X152908000Y-105710524D02*
X152678190Y-105480714D01*
X147781476Y-100584000D02*
X148011286Y-100813810D01*
X152908000Y-95457476D02*
X153137810Y-95687286D01*
X158034524Y-100584000D02*
X157804714Y-100813810D01*
X152908000Y-95457476D02*
X152678190Y-95687286D01*
X147781476Y-100584000D02*
X148011286Y-100354190D01*
X152908000Y-105710524D02*
X153137810Y-105480714D01*
X157875425Y-100424901D02*
X158883052Y-99417274D01*
D10*
%TO.C,D2*%
X164360000Y-94680000D02*
X161560000Y-94680000D01*
X164360000Y-93280000D02*
X161560000Y-93280000D01*
D11*
X162406000Y-92910000D02*
X162406001Y-92510000D01*
X162406001Y-92510000D02*
X162706000Y-92710000D01*
X162706000Y-92710000D02*
X162406000Y-92910000D01*
X162706000Y-92910000D02*
X162706001Y-92510000D01*
D10*
X164360000Y-94680000D02*
X164360000Y-93280000D01*
%TO.C,D6*%
X154284000Y-81980000D02*
X154284000Y-80580000D01*
D11*
X152630000Y-80210000D02*
X152630000Y-79810000D01*
X152630000Y-80010000D02*
X152330000Y-80210000D01*
X152330000Y-79810000D02*
X152630000Y-80010000D01*
X152330000Y-80210000D02*
X152330000Y-79810000D01*
D10*
X154284000Y-80580000D02*
X151484000Y-80580000D01*
X154284000Y-81980000D02*
X151484000Y-81980000D01*
D11*
%TO.C,Y1*%
X145536416Y-93754843D02*
X146950629Y-92340629D01*
X145536416Y-93754843D02*
X146667786Y-94886214D01*
D10*
%TO.C,C1*%
X142232000Y-103798000D02*
X141232000Y-103798000D01*
X141232000Y-105498000D02*
X142232000Y-105498000D01*
%TO.C,C2*%
X145804000Y-106768000D02*
X146804000Y-106768000D01*
X146804000Y-105068000D02*
X145804000Y-105068000D01*
%TO.C,C3*%
X174268000Y-84924000D02*
X175268000Y-84924000D01*
X175268000Y-83224000D02*
X174268000Y-83224000D01*
%TO.C,C4*%
X146001620Y-90540299D02*
X145294513Y-91247406D01*
X146496594Y-92449487D02*
X147203701Y-91742380D01*
%TO.C,C5*%
X151322594Y-91192513D02*
X150615487Y-90485406D01*
X149413406Y-91687487D02*
X150120513Y-92394594D01*
%TO.C,C6*%
X172886000Y-88400000D02*
X172886000Y-89400000D01*
X174586000Y-89400000D02*
X174586000Y-88400000D01*
%TO.C,C7*%
X179493796Y-101758342D02*
X178493796Y-101758342D01*
X178493796Y-103458342D02*
X179493796Y-103458342D01*
%TO.C,C8*%
X167140000Y-112864000D02*
X168140000Y-112864000D01*
X168140000Y-111164000D02*
X167140000Y-111164000D01*
%TO.C,C9*%
X168080466Y-108846262D02*
X167080466Y-108846262D01*
X167080466Y-110546262D02*
X168080466Y-110546262D01*
%TO.C,C10*%
X162060000Y-86018000D02*
X161060000Y-86018000D01*
X161060000Y-87718000D02*
X162060000Y-87718000D01*
%TO.C,C11*%
X143090000Y-86606000D02*
X143090000Y-85606000D01*
X141390000Y-85606000D02*
X141390000Y-86606000D01*
%TO.C,D1*%
X177270000Y-83374000D02*
X177270000Y-84774000D01*
D11*
X178924000Y-85144000D02*
X178924000Y-85544000D01*
X178924000Y-85344000D02*
X179224000Y-85144000D01*
X179224000Y-85544000D02*
X178924000Y-85344000D01*
X179224000Y-85144000D02*
X179224000Y-85544000D01*
D10*
X177270000Y-84774000D02*
X180070000Y-84774000D01*
X177270000Y-83374000D02*
X180070000Y-83374000D01*
%TO.C,D4*%
X173198545Y-110747295D02*
X173198545Y-112147295D01*
D11*
X174852545Y-112517295D02*
X174852545Y-112917295D01*
X174852545Y-112717295D02*
X175152545Y-112517295D01*
X175152545Y-112917295D02*
X174852545Y-112717295D01*
X175152545Y-112517295D02*
X175152545Y-112917295D01*
D10*
X173198545Y-112147295D02*
X175998545Y-112147295D01*
X173198545Y-110747295D02*
X175998545Y-110747295D01*
%TO.C,D5*%
X179197000Y-79438500D02*
X179197000Y-76771500D01*
D11*
X175638000Y-76409000D02*
X175488000Y-76409000D01*
X175638000Y-76609000D02*
X175938000Y-76409000D01*
X175638000Y-76209000D02*
X175638000Y-76609000D01*
X175938000Y-76409000D02*
X175638000Y-76209000D01*
X175938000Y-76409000D02*
X176088000Y-76409000D01*
X175938000Y-76209000D02*
X175938000Y-76609000D01*
D10*
X179197000Y-76771500D02*
X176022000Y-76771500D01*
X179197000Y-79438500D02*
X176022000Y-79438500D01*
%TO.C,D7*%
X164824000Y-81342000D02*
X167624000Y-81342000D01*
X164824000Y-82742000D02*
X167624000Y-82742000D01*
D11*
X166778000Y-83112000D02*
X166778000Y-83512000D01*
X166778000Y-83512000D02*
X166478000Y-83312000D01*
X166478000Y-83312000D02*
X166778000Y-83112000D01*
X166478000Y-83112000D02*
X166478000Y-83512000D01*
D10*
X164824000Y-81342000D02*
X164824000Y-82742000D01*
%TO.C,F1*%
X180003000Y-79359000D02*
X180003000Y-77359000D01*
X182963000Y-77359000D02*
X182963000Y-79359000D01*
%TO.C,Q1*%
X165282000Y-89132000D02*
X165282000Y-92732000D01*
X165293522Y-89093522D02*
G75*
G02X169732000Y-90932000I1838478J-1838478D01*
G01*
X165293522Y-92770478D02*
G75*
G03X169732000Y-90932000I1838478J1838478D01*
G01*
%TO.C,R1*%
X142586000Y-107814000D02*
X141386000Y-107814000D01*
X141386000Y-106054000D02*
X142586000Y-106054000D01*
%TO.C,R2*%
X175098000Y-82414000D02*
X173898000Y-82414000D01*
X173898000Y-80654000D02*
X175098000Y-80654000D01*
%TO.C,R3*%
X179206000Y-89500000D02*
X179206000Y-88300000D01*
X180966000Y-88300000D02*
X180966000Y-89500000D01*
%TO.C,R4*%
X145196000Y-102752000D02*
X146396000Y-102752000D01*
X146396000Y-104512000D02*
X145196000Y-104512000D01*
%TO.C,R5*%
X158211482Y-95814010D02*
X159060010Y-94965482D01*
X160304518Y-96209990D02*
X159455990Y-97058518D01*
%TO.C,R6*%
X165490000Y-106076001D02*
X165490000Y-104876001D01*
X167250000Y-104876001D02*
X167250000Y-106076001D01*
%TO.C,R7*%
X152456010Y-91978518D02*
X151607482Y-91129990D01*
X152851990Y-89885482D02*
X153700518Y-90734010D01*
%TO.C,R8*%
X155137990Y-91917482D02*
X155986518Y-92766010D01*
X154742010Y-94010518D02*
X153893482Y-93161990D01*
%TO.C,R9*%
X179339796Y-109584342D02*
X178139796Y-109584342D01*
X178139796Y-107824342D02*
X179339796Y-107824342D01*
%TO.C,R10*%
X179873796Y-105056342D02*
X179873796Y-106256342D01*
X178113796Y-106256342D02*
X178113796Y-105056342D01*
%TO.C,R11*%
X176749796Y-103056342D02*
X176749796Y-108256342D01*
X173109796Y-108256342D02*
X173109796Y-103056342D01*
%TO.C,R12*%
X178470000Y-110567295D02*
X179670000Y-110567295D01*
X179670000Y-112327295D02*
X178470000Y-112327295D01*
%TO.C,R14*%
X142656000Y-81924000D02*
X143856000Y-81924000D01*
X143856000Y-83684000D02*
X142656000Y-83684000D01*
%TO.C,R15*%
X145993990Y-84297482D02*
X146842518Y-85146010D01*
X145598010Y-86390518D02*
X144749482Y-85541990D01*
%TO.C,R16*%
X149444000Y-82414000D02*
X148244000Y-82414000D01*
X148244000Y-80654000D02*
X149444000Y-80654000D01*
%TO.C,R17*%
X166779873Y-85007135D02*
X165579873Y-85007135D01*
X165579873Y-83247135D02*
X166779873Y-83247135D01*
%TO.C,R18*%
X166840873Y-87166135D02*
X165640873Y-87166135D01*
X165640873Y-85406135D02*
X166840873Y-85406135D01*
%TO.C,RV1*%
X160020000Y-105372000D02*
X160020000Y-103972000D01*
D12*
X160020000Y-106972000D02*
X160020000Y-108372000D01*
X160020000Y-108372000D02*
X163270000Y-108372000D01*
X163270000Y-108372000D02*
X163270000Y-107772000D01*
X163270000Y-106572000D02*
X163270000Y-105772000D01*
X163270000Y-104572000D02*
X163270000Y-103972000D01*
X160040000Y-103972000D02*
X163270000Y-103972000D01*
D10*
%TO.C,U1*%
X178582000Y-89716000D02*
X178582000Y-87916000D01*
X175362000Y-87916000D02*
X175362000Y-90366000D01*
%TO.C,D8*%
D12*
X170124380Y-83118095D02*
X169124380Y-83118095D01*
X169124380Y-82880000D01*
X169172000Y-82737142D01*
X169267238Y-82641904D01*
X169362476Y-82594285D01*
X169552952Y-82546666D01*
X169695809Y-82546666D01*
X169886285Y-82594285D01*
X169981523Y-82641904D01*
X170076761Y-82737142D01*
X170124380Y-82880000D01*
X170124380Y-83118095D01*
X169552952Y-81975238D02*
X169505333Y-82070476D01*
X169457714Y-82118095D01*
X169362476Y-82165714D01*
X169314857Y-82165714D01*
X169219619Y-82118095D01*
X169172000Y-82070476D01*
X169124380Y-81975238D01*
X169124380Y-81784761D01*
X169172000Y-81689523D01*
X169219619Y-81641904D01*
X169314857Y-81594285D01*
X169362476Y-81594285D01*
X169457714Y-81641904D01*
X169505333Y-81689523D01*
X169552952Y-81784761D01*
X169552952Y-81975238D01*
X169600571Y-82070476D01*
X169648190Y-82118095D01*
X169743428Y-82165714D01*
X169933904Y-82165714D01*
X170029142Y-82118095D01*
X170076761Y-82070476D01*
X170124380Y-81975238D01*
X170124380Y-81784761D01*
X170076761Y-81689523D01*
X170029142Y-81641904D01*
X169933904Y-81594285D01*
X169743428Y-81594285D01*
X169648190Y-81641904D01*
X169600571Y-81689523D01*
X169552952Y-81784761D01*
%TO.C,U2*%
X156170380Y-91820904D02*
X156979904Y-91820904D01*
X157075142Y-91773285D01*
X157122761Y-91725666D01*
X157170380Y-91630428D01*
X157170380Y-91439952D01*
X157122761Y-91344714D01*
X157075142Y-91297095D01*
X156979904Y-91249476D01*
X156170380Y-91249476D01*
X156265619Y-90820904D02*
X156218000Y-90773285D01*
X156170380Y-90678047D01*
X156170380Y-90439952D01*
X156218000Y-90344714D01*
X156265619Y-90297095D01*
X156360857Y-90249476D01*
X156456095Y-90249476D01*
X156598952Y-90297095D01*
X157170380Y-90868523D01*
X157170380Y-90249476D01*
%TO.C,D3*%
X146842382Y-102084095D02*
X145842382Y-102084095D01*
X145842382Y-101846000D01*
X145890002Y-101703142D01*
X145985240Y-101607904D01*
X146080478Y-101560285D01*
X146270954Y-101512666D01*
X146413811Y-101512666D01*
X146604287Y-101560285D01*
X146699525Y-101607904D01*
X146794763Y-101703142D01*
X146842382Y-101846000D01*
X146842382Y-102084095D01*
X145842382Y-101179333D02*
X145842382Y-100560285D01*
X146223335Y-100893619D01*
X146223335Y-100750761D01*
X146270954Y-100655523D01*
X146318573Y-100607904D01*
X146413811Y-100560285D01*
X146651906Y-100560285D01*
X146747144Y-100607904D01*
X146794763Y-100655523D01*
X146842382Y-100750761D01*
X146842382Y-101036476D01*
X146794763Y-101131714D01*
X146747144Y-101179333D01*
%TO.C,J2*%
X150582380Y-115395333D02*
X151296666Y-115395333D01*
X151439523Y-115442952D01*
X151534761Y-115538190D01*
X151582380Y-115681047D01*
X151582380Y-115776285D01*
X150677619Y-114966761D02*
X150630000Y-114919142D01*
X150582380Y-114823904D01*
X150582380Y-114585809D01*
X150630000Y-114490571D01*
X150677619Y-114442952D01*
X150772857Y-114395333D01*
X150868095Y-114395333D01*
X151010952Y-114442952D01*
X151582380Y-115014380D01*
X151582380Y-114395333D01*
X138882380Y-112712476D02*
X138882380Y-113283904D01*
X138882380Y-112998190D02*
X137882380Y-112998190D01*
X138025238Y-113093428D01*
X138120476Y-113188666D01*
X138168095Y-113283904D01*
X137882380Y-111855333D02*
X137882380Y-112045809D01*
X137930000Y-112141047D01*
X137977619Y-112188666D01*
X138120476Y-112283904D01*
X138310952Y-112331523D01*
X138691904Y-112331523D01*
X138787142Y-112283904D01*
X138834761Y-112236285D01*
X138882380Y-112141047D01*
X138882380Y-111950571D01*
X138834761Y-111855333D01*
X138787142Y-111807714D01*
X138691904Y-111760095D01*
X138453809Y-111760095D01*
X138358571Y-111807714D01*
X138310952Y-111855333D01*
X138263333Y-111950571D01*
X138263333Y-112141047D01*
X138310952Y-112236285D01*
X138358571Y-112283904D01*
X138453809Y-112331523D01*
X138628380Y-108934285D02*
X138628380Y-109505714D01*
X138628380Y-109220000D02*
X137628380Y-109220000D01*
X137771238Y-109315238D01*
X137866476Y-109410476D01*
X137914095Y-109505714D01*
%TO.C,J1*%
X167560666Y-78192380D02*
X167560666Y-78906666D01*
X167513047Y-79049523D01*
X167417809Y-79144761D01*
X167274952Y-79192380D01*
X167179714Y-79192380D01*
X168560666Y-79192380D02*
X167989238Y-79192380D01*
X168274952Y-79192380D02*
X168274952Y-78192380D01*
X168179714Y-78335238D01*
X168084476Y-78430476D01*
X167989238Y-78478095D01*
X139501619Y-76961904D02*
X139454000Y-76914285D01*
X139406380Y-76819047D01*
X139406380Y-76580952D01*
X139454000Y-76485714D01*
X139501619Y-76438095D01*
X139596857Y-76390476D01*
X139692095Y-76390476D01*
X139834952Y-76438095D01*
X140406380Y-77009523D01*
X140406380Y-76390476D01*
X139406380Y-75771428D02*
X139406380Y-75676190D01*
X139454000Y-75580952D01*
X139501619Y-75533333D01*
X139596857Y-75485714D01*
X139787333Y-75438095D01*
X140025428Y-75438095D01*
X140215904Y-75485714D01*
X140311142Y-75533333D01*
X140358761Y-75580952D01*
X140406380Y-75676190D01*
X140406380Y-75771428D01*
X140358761Y-75866666D01*
X140311142Y-75914285D01*
X140215904Y-75961904D01*
X140025428Y-76009523D01*
X139787333Y-76009523D01*
X139596857Y-75961904D01*
X139501619Y-75914285D01*
X139454000Y-75866666D01*
X139406380Y-75771428D01*
X168433713Y-76652380D02*
X167862284Y-76652380D01*
X168147999Y-76652380D02*
X168147999Y-75652380D01*
X168052760Y-75795238D01*
X167957522Y-75890476D01*
X167862284Y-75938095D01*
%TO.C,R13*%
X156033797Y-85717312D02*
X156134812Y-85144893D01*
X155629736Y-85313251D02*
X156336843Y-84606145D01*
X156606217Y-84875519D01*
X156639889Y-84976534D01*
X156639889Y-85043877D01*
X156606217Y-85144893D01*
X156505202Y-85245908D01*
X156404186Y-85279580D01*
X156336843Y-85279580D01*
X156235828Y-85245908D01*
X155966454Y-84976534D01*
X156707232Y-86390748D02*
X156303171Y-85986687D01*
X156505202Y-86188717D02*
X157212309Y-85481610D01*
X157043950Y-85515282D01*
X156909263Y-85515282D01*
X156808248Y-85481610D01*
X157650041Y-85919343D02*
X158087774Y-86357076D01*
X157582698Y-86390748D01*
X157683713Y-86491763D01*
X157717385Y-86592778D01*
X157717385Y-86660122D01*
X157683713Y-86761137D01*
X157515354Y-86929496D01*
X157414339Y-86963167D01*
X157346996Y-86963167D01*
X157245980Y-86929496D01*
X157043950Y-86727465D01*
X157010278Y-86626450D01*
X157010278Y-86559106D01*
%TO.C,P1*%
X165631904Y-94940380D02*
X165631904Y-93940380D01*
X166012857Y-93940380D01*
X166108095Y-93988000D01*
X166155714Y-94035619D01*
X166203333Y-94130857D01*
X166203333Y-94273714D01*
X166155714Y-94368952D01*
X166108095Y-94416571D01*
X166012857Y-94464190D01*
X165631904Y-94464190D01*
X167155714Y-94940380D02*
X166584285Y-94940380D01*
X166870000Y-94940380D02*
X166870000Y-93940380D01*
X166774761Y-94083238D01*
X166679523Y-94178476D01*
X166584285Y-94226095D01*
%TO.C,IC1*%
X149103847Y-106055610D02*
X149810954Y-105348503D01*
X149911969Y-106729045D02*
X149844625Y-106729045D01*
X149709938Y-106661702D01*
X149642595Y-106594358D01*
X149575251Y-106459671D01*
X149575251Y-106324984D01*
X149608923Y-106223969D01*
X149709938Y-106055610D01*
X149810954Y-105954595D01*
X149979312Y-105853580D01*
X150080328Y-105819908D01*
X150215015Y-105819908D01*
X150349702Y-105887251D01*
X150417045Y-105954595D01*
X150484389Y-106089282D01*
X150484389Y-106156625D01*
X150518061Y-107469824D02*
X150114000Y-107065763D01*
X150316030Y-107267793D02*
X151023137Y-106560687D01*
X150854778Y-106594358D01*
X150720091Y-106594358D01*
X150619076Y-106560687D01*
%TO.C,D2*%
X167695619Y-94003904D02*
X168695619Y-94003904D01*
X168695619Y-94242000D01*
X168648000Y-94384857D01*
X168552761Y-94480095D01*
X168457523Y-94527714D01*
X168267047Y-94575333D01*
X168124190Y-94575333D01*
X167933714Y-94527714D01*
X167838476Y-94480095D01*
X167743238Y-94384857D01*
X167695619Y-94242000D01*
X167695619Y-94003904D01*
X168600380Y-94956285D02*
X168648000Y-95003904D01*
X168695619Y-95099142D01*
X168695619Y-95337238D01*
X168648000Y-95432476D01*
X168600380Y-95480095D01*
X168505142Y-95527714D01*
X168409904Y-95527714D01*
X168267047Y-95480095D01*
X167695619Y-94908666D01*
X167695619Y-95527714D01*
%TO.C,U3*%
X154522026Y-88289522D02*
X155094446Y-88861942D01*
X155195461Y-88895614D01*
X155262805Y-88895614D01*
X155363820Y-88861942D01*
X155498507Y-88727255D01*
X155532179Y-88626240D01*
X155532179Y-88558896D01*
X155498507Y-88457881D01*
X154926087Y-87885461D01*
X155195461Y-87616087D02*
X155633194Y-87178355D01*
X155666866Y-87683431D01*
X155767881Y-87582416D01*
X155868896Y-87548744D01*
X155936240Y-87548744D01*
X156037255Y-87582416D01*
X156205614Y-87750774D01*
X156239286Y-87851790D01*
X156239286Y-87919133D01*
X156205614Y-88020148D01*
X156003583Y-88222179D01*
X155902568Y-88255851D01*
X155835225Y-88255851D01*
%TO.C,D6*%
X156233904Y-81732380D02*
X156233904Y-80732380D01*
X156472000Y-80732380D01*
X156614857Y-80780000D01*
X156710095Y-80875238D01*
X156757714Y-80970476D01*
X156805333Y-81160952D01*
X156805333Y-81303809D01*
X156757714Y-81494285D01*
X156710095Y-81589523D01*
X156614857Y-81684761D01*
X156472000Y-81732380D01*
X156233904Y-81732380D01*
X157662476Y-80732380D02*
X157472000Y-80732380D01*
X157376761Y-80780000D01*
X157329142Y-80827619D01*
X157233904Y-80970476D01*
X157186285Y-81160952D01*
X157186285Y-81541904D01*
X157233904Y-81637142D01*
X157281523Y-81684761D01*
X157376761Y-81732380D01*
X157567238Y-81732380D01*
X157662476Y-81684761D01*
X157710095Y-81637142D01*
X157757714Y-81541904D01*
X157757714Y-81303809D01*
X157710095Y-81208571D01*
X157662476Y-81160952D01*
X157567238Y-81113333D01*
X157376761Y-81113333D01*
X157281523Y-81160952D01*
X157233904Y-81208571D01*
X157186285Y-81303809D01*
%TO.C,Y1*%
X145950446Y-96331881D02*
X146287164Y-96668599D01*
X145344355Y-96197194D02*
X145950446Y-96331881D01*
X145815759Y-95725790D01*
X147128957Y-95826805D02*
X146724896Y-96230866D01*
X146926927Y-96028835D02*
X146219820Y-95321729D01*
X146253492Y-95490087D01*
X146253492Y-95624774D01*
X146219820Y-95725790D01*
%TO.C,C1*%
X139549142Y-104814666D02*
X139596761Y-104862285D01*
X139644380Y-105005142D01*
X139644380Y-105100380D01*
X139596761Y-105243238D01*
X139501523Y-105338476D01*
X139406285Y-105386095D01*
X139215809Y-105433714D01*
X139072952Y-105433714D01*
X138882476Y-105386095D01*
X138787238Y-105338476D01*
X138692000Y-105243238D01*
X138644380Y-105100380D01*
X138644380Y-105005142D01*
X138692000Y-104862285D01*
X138739619Y-104814666D01*
X139644380Y-103862285D02*
X139644380Y-104433714D01*
X139644380Y-104148000D02*
X138644380Y-104148000D01*
X138787238Y-104243238D01*
X138882476Y-104338476D01*
X138930095Y-104433714D01*
%TO.C,C2*%
X146137333Y-108053142D02*
X146089714Y-108100761D01*
X145946857Y-108148380D01*
X145851619Y-108148380D01*
X145708761Y-108100761D01*
X145613523Y-108005523D01*
X145565904Y-107910285D01*
X145518285Y-107719809D01*
X145518285Y-107576952D01*
X145565904Y-107386476D01*
X145613523Y-107291238D01*
X145708761Y-107196000D01*
X145851619Y-107148380D01*
X145946857Y-107148380D01*
X146089714Y-107196000D01*
X146137333Y-107243619D01*
X146518285Y-107243619D02*
X146565904Y-107196000D01*
X146661142Y-107148380D01*
X146899238Y-107148380D01*
X146994476Y-107196000D01*
X147042095Y-107243619D01*
X147089714Y-107338857D01*
X147089714Y-107434095D01*
X147042095Y-107576952D01*
X146470666Y-108148380D01*
X147089714Y-108148380D01*
%TO.C,C3*%
X181760857Y-91019333D02*
X181713238Y-90971714D01*
X181665619Y-90828857D01*
X181665619Y-90733619D01*
X181713238Y-90590761D01*
X181808476Y-90495523D01*
X181903714Y-90447904D01*
X182094190Y-90400285D01*
X182237047Y-90400285D01*
X182427523Y-90447904D01*
X182522761Y-90495523D01*
X182618000Y-90590761D01*
X182665619Y-90733619D01*
X182665619Y-90828857D01*
X182618000Y-90971714D01*
X182570380Y-91019333D01*
X182665619Y-91352666D02*
X182665619Y-91971714D01*
X182284666Y-91638380D01*
X182284666Y-91781238D01*
X182237047Y-91876476D01*
X182189428Y-91924095D01*
X182094190Y-91971714D01*
X181856095Y-91971714D01*
X181760857Y-91924095D01*
X181713238Y-91876476D01*
X181665619Y-91781238D01*
X181665619Y-91495523D01*
X181713238Y-91400285D01*
X181760857Y-91352666D01*
%TO.C,C4*%
X149489609Y-91066687D02*
X149422266Y-91066687D01*
X149287579Y-90999343D01*
X149220235Y-90932000D01*
X149152892Y-90797312D01*
X149152892Y-90662625D01*
X149186563Y-90561610D01*
X149287579Y-90393251D01*
X149388594Y-90292236D01*
X149556953Y-90191221D01*
X149657968Y-90157549D01*
X149792655Y-90157549D01*
X149927342Y-90224893D01*
X149994686Y-90292236D01*
X150062029Y-90426923D01*
X150062029Y-90494267D01*
X150499762Y-91268717D02*
X150028357Y-91740122D01*
X150600777Y-90830984D02*
X149927342Y-91167702D01*
X150365075Y-91605435D01*
%TO.C,C5*%
X152280687Y-93588389D02*
X152280687Y-93655732D01*
X152213343Y-93790419D01*
X152146000Y-93857763D01*
X152011312Y-93925106D01*
X151876625Y-93925106D01*
X151775610Y-93891435D01*
X151607251Y-93790419D01*
X151506236Y-93689404D01*
X151405221Y-93521045D01*
X151371549Y-93420030D01*
X151371549Y-93285343D01*
X151438893Y-93150656D01*
X151506236Y-93083312D01*
X151640923Y-93015969D01*
X151708267Y-93015969D01*
X152280687Y-92308862D02*
X151943969Y-92645580D01*
X152247015Y-93015969D01*
X152247015Y-92948625D01*
X152280687Y-92847610D01*
X152449045Y-92679251D01*
X152550061Y-92645580D01*
X152617404Y-92645580D01*
X152718419Y-92679251D01*
X152886778Y-92847610D01*
X152920450Y-92948625D01*
X152920450Y-93015969D01*
X152886778Y-93116984D01*
X152718419Y-93285343D01*
X152617404Y-93319015D01*
X152550061Y-93319015D01*
%TO.C,C6*%
X182475142Y-95162666D02*
X182522761Y-95210285D01*
X182570380Y-95353142D01*
X182570380Y-95448380D01*
X182522761Y-95591238D01*
X182427523Y-95686476D01*
X182332285Y-95734095D01*
X182141809Y-95781714D01*
X181998952Y-95781714D01*
X181808476Y-95734095D01*
X181713238Y-95686476D01*
X181618000Y-95591238D01*
X181570380Y-95448380D01*
X181570380Y-95353142D01*
X181618000Y-95210285D01*
X181665619Y-95162666D01*
X181570380Y-94305523D02*
X181570380Y-94496000D01*
X181618000Y-94591238D01*
X181665619Y-94638857D01*
X181808476Y-94734095D01*
X181998952Y-94781714D01*
X182379904Y-94781714D01*
X182475142Y-94734095D01*
X182522761Y-94686476D01*
X182570380Y-94591238D01*
X182570380Y-94400761D01*
X182522761Y-94305523D01*
X182475142Y-94257904D01*
X182379904Y-94210285D01*
X182141809Y-94210285D01*
X182046571Y-94257904D01*
X181998952Y-94305523D01*
X181951333Y-94400761D01*
X181951333Y-94591238D01*
X181998952Y-94686476D01*
X182046571Y-94734095D01*
X182141809Y-94781714D01*
%TO.C,C7*%
X181176653Y-102441675D02*
X181129034Y-102394056D01*
X181081415Y-102251199D01*
X181081415Y-102155961D01*
X181129034Y-102013103D01*
X181224272Y-101917865D01*
X181319510Y-101870246D01*
X181509986Y-101822627D01*
X181652843Y-101822627D01*
X181843319Y-101870246D01*
X181938557Y-101917865D01*
X182033796Y-102013103D01*
X182081415Y-102155961D01*
X182081415Y-102251199D01*
X182033796Y-102394056D01*
X181986176Y-102441675D01*
X182081415Y-102775008D02*
X182081415Y-103441675D01*
X181081415Y-103013103D01*
%TO.C,C8*%
X167997142Y-114466666D02*
X168044761Y-114514285D01*
X168092380Y-114657142D01*
X168092380Y-114752380D01*
X168044761Y-114895238D01*
X167949523Y-114990476D01*
X167854285Y-115038095D01*
X167663809Y-115085714D01*
X167520952Y-115085714D01*
X167330476Y-115038095D01*
X167235238Y-114990476D01*
X167140000Y-114895238D01*
X167092380Y-114752380D01*
X167092380Y-114657142D01*
X167140000Y-114514285D01*
X167187619Y-114466666D01*
X167520952Y-113895238D02*
X167473333Y-113990476D01*
X167425714Y-114038095D01*
X167330476Y-114085714D01*
X167282857Y-114085714D01*
X167187619Y-114038095D01*
X167140000Y-113990476D01*
X167092380Y-113895238D01*
X167092380Y-113704761D01*
X167140000Y-113609523D01*
X167187619Y-113561904D01*
X167282857Y-113514285D01*
X167330476Y-113514285D01*
X167425714Y-113561904D01*
X167473333Y-113609523D01*
X167520952Y-113704761D01*
X167520952Y-113895238D01*
X167568571Y-113990476D01*
X167616190Y-114038095D01*
X167711428Y-114085714D01*
X167901904Y-114085714D01*
X167997142Y-114038095D01*
X168044761Y-113990476D01*
X168092380Y-113895238D01*
X168092380Y-113704761D01*
X168044761Y-113609523D01*
X167997142Y-113561904D01*
X167901904Y-113514285D01*
X167711428Y-113514285D01*
X167616190Y-113561904D01*
X167568571Y-113609523D01*
X167520952Y-113704761D01*
%TO.C,C9*%
X167667799Y-111831404D02*
X167620180Y-111879023D01*
X167477323Y-111926642D01*
X167382085Y-111926642D01*
X167239227Y-111879023D01*
X167143989Y-111783785D01*
X167096370Y-111688547D01*
X167048751Y-111498071D01*
X167048751Y-111355214D01*
X167096370Y-111164738D01*
X167143989Y-111069500D01*
X167239227Y-110974262D01*
X167382085Y-110926642D01*
X167477323Y-110926642D01*
X167620180Y-110974262D01*
X167667799Y-111021881D01*
X168143989Y-111926642D02*
X168334466Y-111926642D01*
X168429704Y-111879023D01*
X168477323Y-111831404D01*
X168572561Y-111688547D01*
X168620180Y-111498071D01*
X168620180Y-111117119D01*
X168572561Y-111021881D01*
X168524942Y-110974262D01*
X168429704Y-110926642D01*
X168239227Y-110926642D01*
X168143989Y-110974262D01*
X168096370Y-111021881D01*
X168048751Y-111117119D01*
X168048751Y-111355214D01*
X168096370Y-111450452D01*
X168143989Y-111498071D01*
X168239227Y-111545690D01*
X168429704Y-111545690D01*
X168524942Y-111498071D01*
X168572561Y-111450452D01*
X168620180Y-111355214D01*
%TO.C,C10*%
X160901142Y-85701142D02*
X160853523Y-85748761D01*
X160710666Y-85796380D01*
X160615428Y-85796380D01*
X160472571Y-85748761D01*
X160377333Y-85653523D01*
X160329714Y-85558285D01*
X160282095Y-85367809D01*
X160282095Y-85224952D01*
X160329714Y-85034476D01*
X160377333Y-84939238D01*
X160472571Y-84844000D01*
X160615428Y-84796380D01*
X160710666Y-84796380D01*
X160853523Y-84844000D01*
X160901142Y-84891619D01*
X161853523Y-85796380D02*
X161282095Y-85796380D01*
X161567809Y-85796380D02*
X161567809Y-84796380D01*
X161472571Y-84939238D01*
X161377333Y-85034476D01*
X161282095Y-85082095D01*
X162472571Y-84796380D02*
X162567809Y-84796380D01*
X162663047Y-84844000D01*
X162710666Y-84891619D01*
X162758285Y-84986857D01*
X162805904Y-85177333D01*
X162805904Y-85415428D01*
X162758285Y-85605904D01*
X162710666Y-85701142D01*
X162663047Y-85748761D01*
X162567809Y-85796380D01*
X162472571Y-85796380D01*
X162377333Y-85748761D01*
X162329714Y-85701142D01*
X162282095Y-85605904D01*
X162234476Y-85415428D01*
X162234476Y-85177333D01*
X162282095Y-84986857D01*
X162329714Y-84891619D01*
X162377333Y-84844000D01*
X162472571Y-84796380D01*
%TO.C,C11*%
X142359142Y-89003142D02*
X142311523Y-89050761D01*
X142168666Y-89098380D01*
X142073428Y-89098380D01*
X141930571Y-89050761D01*
X141835333Y-88955523D01*
X141787714Y-88860285D01*
X141740095Y-88669809D01*
X141740095Y-88526952D01*
X141787714Y-88336476D01*
X141835333Y-88241238D01*
X141930571Y-88146000D01*
X142073428Y-88098380D01*
X142168666Y-88098380D01*
X142311523Y-88146000D01*
X142359142Y-88193619D01*
X143311523Y-89098380D02*
X142740095Y-89098380D01*
X143025809Y-89098380D02*
X143025809Y-88098380D01*
X142930571Y-88241238D01*
X142835333Y-88336476D01*
X142740095Y-88384095D01*
X144263904Y-89098380D02*
X143692476Y-89098380D01*
X143978190Y-89098380D02*
X143978190Y-88098380D01*
X143882952Y-88241238D01*
X143787714Y-88336476D01*
X143692476Y-88384095D01*
%TO.C,D1*%
X182570380Y-84812095D02*
X181570380Y-84812095D01*
X181570380Y-84574000D01*
X181618000Y-84431142D01*
X181713238Y-84335904D01*
X181808476Y-84288285D01*
X181998952Y-84240666D01*
X182141809Y-84240666D01*
X182332285Y-84288285D01*
X182427523Y-84335904D01*
X182522761Y-84431142D01*
X182570380Y-84574000D01*
X182570380Y-84812095D01*
X182570380Y-83288285D02*
X182570380Y-83859714D01*
X182570380Y-83574000D02*
X181570380Y-83574000D01*
X181713238Y-83669238D01*
X181808476Y-83764476D01*
X181856095Y-83859714D01*
%TO.C,D4*%
X174267904Y-113990380D02*
X174267904Y-112990380D01*
X174506000Y-112990380D01*
X174648857Y-113038000D01*
X174744095Y-113133238D01*
X174791714Y-113228476D01*
X174839333Y-113418952D01*
X174839333Y-113561809D01*
X174791714Y-113752285D01*
X174744095Y-113847523D01*
X174648857Y-113942761D01*
X174506000Y-113990380D01*
X174267904Y-113990380D01*
X175696476Y-113323714D02*
X175696476Y-113990380D01*
X175458380Y-112942761D02*
X175220285Y-113657047D01*
X175839333Y-113657047D01*
%TO.C,D5*%
X178379380Y-76176095D02*
X177379380Y-76176095D01*
X177379380Y-75938000D01*
X177427000Y-75795142D01*
X177522238Y-75699904D01*
X177617476Y-75652285D01*
X177807952Y-75604666D01*
X177950809Y-75604666D01*
X178141285Y-75652285D01*
X178236523Y-75699904D01*
X178331761Y-75795142D01*
X178379380Y-75938000D01*
X178379380Y-76176095D01*
X177379380Y-74699904D02*
X177379380Y-75176095D01*
X177855571Y-75223714D01*
X177807952Y-75176095D01*
X177760333Y-75080857D01*
X177760333Y-74842761D01*
X177807952Y-74747523D01*
X177855571Y-74699904D01*
X177950809Y-74652285D01*
X178188904Y-74652285D01*
X178284142Y-74699904D01*
X178331761Y-74747523D01*
X178379380Y-74842761D01*
X178379380Y-75080857D01*
X178331761Y-75176095D01*
X178284142Y-75223714D01*
%TO.C,D7*%
X162504380Y-82780095D02*
X161504380Y-82780095D01*
X161504380Y-82542000D01*
X161552000Y-82399142D01*
X161647238Y-82303904D01*
X161742476Y-82256285D01*
X161932952Y-82208666D01*
X162075809Y-82208666D01*
X162266285Y-82256285D01*
X162361523Y-82303904D01*
X162456761Y-82399142D01*
X162504380Y-82542000D01*
X162504380Y-82780095D01*
X161504380Y-81875333D02*
X161504380Y-81208666D01*
X162504380Y-81637238D01*
%TO.C,F1*%
X181403666Y-81335571D02*
X181070333Y-81335571D01*
X181070333Y-81859380D02*
X181070333Y-80859380D01*
X181546523Y-80859380D01*
X182451285Y-81859380D02*
X181879857Y-81859380D01*
X182165571Y-81859380D02*
X182165571Y-80859380D01*
X182070333Y-81002238D01*
X181975095Y-81097476D01*
X181879857Y-81145095D01*
%TO.C,L1*%
X177347619Y-93813333D02*
X177347619Y-93337142D01*
X178347619Y-93337142D01*
X177347619Y-94670476D02*
X177347619Y-94099047D01*
X177347619Y-94384761D02*
X178347619Y-94384761D01*
X178204761Y-94289523D01*
X178109523Y-94194285D01*
X178061904Y-94099047D01*
%TO.C,Q1*%
X169457619Y-90773238D02*
X169410000Y-90868476D01*
X169314761Y-90963714D01*
X169171904Y-91106571D01*
X169124285Y-91201809D01*
X169124285Y-91297047D01*
X169362380Y-91249428D02*
X169314761Y-91344666D01*
X169219523Y-91439904D01*
X169029047Y-91487523D01*
X168695714Y-91487523D01*
X168505238Y-91439904D01*
X168410000Y-91344666D01*
X168362380Y-91249428D01*
X168362380Y-91058952D01*
X168410000Y-90963714D01*
X168505238Y-90868476D01*
X168695714Y-90820857D01*
X169029047Y-90820857D01*
X169219523Y-90868476D01*
X169314761Y-90963714D01*
X169362380Y-91058952D01*
X169362380Y-91249428D01*
X169362380Y-89868476D02*
X169362380Y-90439904D01*
X169362380Y-90154190D02*
X168362380Y-90154190D01*
X168505238Y-90249428D01*
X168600476Y-90344666D01*
X168648095Y-90439904D01*
%TO.C,R1*%
X140152380Y-107100666D02*
X139676190Y-107434000D01*
X140152380Y-107672095D02*
X139152380Y-107672095D01*
X139152380Y-107291142D01*
X139200000Y-107195904D01*
X139247619Y-107148285D01*
X139342857Y-107100666D01*
X139485714Y-107100666D01*
X139580952Y-107148285D01*
X139628571Y-107195904D01*
X139676190Y-107291142D01*
X139676190Y-107672095D01*
X140152380Y-106148285D02*
X140152380Y-106719714D01*
X140152380Y-106434000D02*
X139152380Y-106434000D01*
X139295238Y-106529238D01*
X139390476Y-106624476D01*
X139438095Y-106719714D01*
%TO.C,R2*%
X177683380Y-81192666D02*
X177207190Y-81526000D01*
X177683380Y-81764095D02*
X176683380Y-81764095D01*
X176683380Y-81383142D01*
X176731000Y-81287904D01*
X176778619Y-81240285D01*
X176873857Y-81192666D01*
X177016714Y-81192666D01*
X177111952Y-81240285D01*
X177159571Y-81287904D01*
X177207190Y-81383142D01*
X177207190Y-81764095D01*
X176778619Y-80811714D02*
X176731000Y-80764095D01*
X176683380Y-80668857D01*
X176683380Y-80430761D01*
X176731000Y-80335523D01*
X176778619Y-80287904D01*
X176873857Y-80240285D01*
X176969095Y-80240285D01*
X177111952Y-80287904D01*
X177683380Y-80859333D01*
X177683380Y-80240285D01*
%TO.C,R3*%
X182316380Y-88685666D02*
X181840190Y-89019000D01*
X182316380Y-89257095D02*
X181316380Y-89257095D01*
X181316380Y-88876142D01*
X181364000Y-88780904D01*
X181411619Y-88733285D01*
X181506857Y-88685666D01*
X181649714Y-88685666D01*
X181744952Y-88733285D01*
X181792571Y-88780904D01*
X181840190Y-88876142D01*
X181840190Y-89257095D01*
X181316380Y-88352333D02*
X181316380Y-87733285D01*
X181697333Y-88066619D01*
X181697333Y-87923761D01*
X181744952Y-87828523D01*
X181792571Y-87780904D01*
X181887809Y-87733285D01*
X182125904Y-87733285D01*
X182221142Y-87780904D01*
X182268761Y-87828523D01*
X182316380Y-87923761D01*
X182316380Y-88209476D01*
X182268761Y-88304714D01*
X182221142Y-88352333D01*
%TO.C,R4*%
X148534380Y-105068666D02*
X148058190Y-105402000D01*
X148534380Y-105640095D02*
X147534380Y-105640095D01*
X147534380Y-105259142D01*
X147582000Y-105163904D01*
X147629619Y-105116285D01*
X147724857Y-105068666D01*
X147867714Y-105068666D01*
X147962952Y-105116285D01*
X148010571Y-105163904D01*
X148058190Y-105259142D01*
X148058190Y-105640095D01*
X147867714Y-104211523D02*
X148534380Y-104211523D01*
X147486761Y-104449619D02*
X148201047Y-104687714D01*
X148201047Y-104068666D01*
%TO.C,R5*%
X160626756Y-97616458D02*
X160054336Y-97515443D01*
X160222695Y-98020519D02*
X159515588Y-97313413D01*
X159784962Y-97044038D01*
X159885977Y-97010367D01*
X159953321Y-97010367D01*
X160054336Y-97044038D01*
X160155351Y-97145054D01*
X160189023Y-97246069D01*
X160189023Y-97313413D01*
X160155351Y-97414428D01*
X159885977Y-97683802D01*
X160559413Y-96269588D02*
X160222695Y-96606306D01*
X160525741Y-96976695D01*
X160525741Y-96909351D01*
X160559413Y-96808336D01*
X160727771Y-96639977D01*
X160828787Y-96606306D01*
X160896130Y-96606306D01*
X160997145Y-96639977D01*
X161165504Y-96808336D01*
X161199176Y-96909351D01*
X161199176Y-96976695D01*
X161165504Y-97077710D01*
X160997145Y-97246069D01*
X160896130Y-97279741D01*
X160828787Y-97279741D01*
%TO.C,R6*%
X166203333Y-103642381D02*
X165870000Y-103166191D01*
X165631904Y-103642381D02*
X165631904Y-102642381D01*
X166012857Y-102642381D01*
X166108095Y-102690001D01*
X166155714Y-102737620D01*
X166203333Y-102832858D01*
X166203333Y-102975715D01*
X166155714Y-103070953D01*
X166108095Y-103118572D01*
X166012857Y-103166191D01*
X165631904Y-103166191D01*
X167060476Y-102642381D02*
X166870000Y-102642381D01*
X166774761Y-102690001D01*
X166727142Y-102737620D01*
X166631904Y-102880477D01*
X166584285Y-103070953D01*
X166584285Y-103451905D01*
X166631904Y-103547143D01*
X166679523Y-103594762D01*
X166774761Y-103642381D01*
X166965238Y-103642381D01*
X167060476Y-103594762D01*
X167108095Y-103547143D01*
X167155714Y-103451905D01*
X167155714Y-103213810D01*
X167108095Y-103118572D01*
X167060476Y-103070953D01*
X166965238Y-103023334D01*
X166774761Y-103023334D01*
X166679523Y-103070953D01*
X166631904Y-103118572D01*
X166584285Y-103213810D01*
%TO.C,R7*%
X154634029Y-90099732D02*
X154061609Y-89998717D01*
X154229968Y-90503793D02*
X153522861Y-89796687D01*
X153792235Y-89527312D01*
X153893250Y-89493641D01*
X153960594Y-89493641D01*
X154061609Y-89527312D01*
X154162624Y-89628328D01*
X154196296Y-89729343D01*
X154196296Y-89796687D01*
X154162624Y-89897702D01*
X153893250Y-90167076D01*
X154162624Y-89156923D02*
X154634029Y-88685519D01*
X155038090Y-89695671D01*
%TO.C,R8*%
X155305781Y-90644483D02*
X154733361Y-90543468D01*
X154901720Y-91048544D02*
X154194613Y-90341438D01*
X154463987Y-90072063D01*
X154565002Y-90038392D01*
X154632346Y-90038392D01*
X154733361Y-90072063D01*
X154834376Y-90173079D01*
X154868048Y-90274094D01*
X154868048Y-90341438D01*
X154834376Y-90442453D01*
X154565002Y-90711827D01*
X155305781Y-89836361D02*
X155204766Y-89870033D01*
X155137422Y-89870033D01*
X155036407Y-89836361D01*
X155002735Y-89802689D01*
X154969063Y-89701674D01*
X154969063Y-89634331D01*
X155002735Y-89533315D01*
X155137422Y-89398628D01*
X155238438Y-89364957D01*
X155305781Y-89364957D01*
X155406796Y-89398628D01*
X155440468Y-89432300D01*
X155474140Y-89533315D01*
X155474140Y-89600659D01*
X155440468Y-89701674D01*
X155305781Y-89836361D01*
X155272109Y-89937376D01*
X155272109Y-90004720D01*
X155305781Y-90105735D01*
X155440468Y-90240422D01*
X155541483Y-90274094D01*
X155608827Y-90274094D01*
X155709842Y-90240422D01*
X155844529Y-90105735D01*
X155878201Y-90004720D01*
X155878201Y-89937376D01*
X155844529Y-89836361D01*
X155709842Y-89701674D01*
X155608827Y-89668002D01*
X155541483Y-89668002D01*
X155440468Y-89701674D01*
%TO.C,R9*%
X180893415Y-108537675D02*
X181369605Y-108204342D01*
X180893415Y-107966246D02*
X181893415Y-107966246D01*
X181893415Y-108347199D01*
X181845796Y-108442437D01*
X181798176Y-108490056D01*
X181702938Y-108537675D01*
X181560081Y-108537675D01*
X181464843Y-108490056D01*
X181417224Y-108442437D01*
X181369605Y-108347199D01*
X181369605Y-107966246D01*
X180893415Y-109013865D02*
X180893415Y-109204342D01*
X180941034Y-109299580D01*
X180988653Y-109347199D01*
X181131510Y-109442437D01*
X181321986Y-109490056D01*
X181702938Y-109490056D01*
X181798176Y-109442437D01*
X181845796Y-109394818D01*
X181893415Y-109299580D01*
X181893415Y-109109103D01*
X181845796Y-109013865D01*
X181798176Y-108966246D01*
X181702938Y-108918627D01*
X181464843Y-108918627D01*
X181369605Y-108966246D01*
X181321986Y-109013865D01*
X181274367Y-109109103D01*
X181274367Y-109299580D01*
X181321986Y-109394818D01*
X181369605Y-109442437D01*
X181464843Y-109490056D01*
%TO.C,R10*%
X180970176Y-106045199D02*
X180493986Y-106378532D01*
X180970176Y-106616627D02*
X179970176Y-106616627D01*
X179970176Y-106235675D01*
X180017796Y-106140437D01*
X180065415Y-106092818D01*
X180160653Y-106045199D01*
X180303510Y-106045199D01*
X180398748Y-106092818D01*
X180446367Y-106140437D01*
X180493986Y-106235675D01*
X180493986Y-106616627D01*
X180970176Y-105092818D02*
X180970176Y-105664246D01*
X180970176Y-105378532D02*
X179970176Y-105378532D01*
X180113034Y-105473770D01*
X180208272Y-105569008D01*
X180255891Y-105664246D01*
X179970176Y-104473770D02*
X179970176Y-104378532D01*
X180017796Y-104283294D01*
X180065415Y-104235675D01*
X180160653Y-104188056D01*
X180351129Y-104140437D01*
X180589224Y-104140437D01*
X180779700Y-104188056D01*
X180874938Y-104235675D01*
X180922557Y-104283294D01*
X180970176Y-104378532D01*
X180970176Y-104473770D01*
X180922557Y-104569008D01*
X180874938Y-104616627D01*
X180779700Y-104664246D01*
X180589224Y-104711865D01*
X180351129Y-104711865D01*
X180160653Y-104664246D01*
X180065415Y-104616627D01*
X180017796Y-104569008D01*
X179970176Y-104473770D01*
%TO.C,R11*%
X172782176Y-106299199D02*
X172305986Y-106632532D01*
X172782176Y-106870627D02*
X171782176Y-106870627D01*
X171782176Y-106489675D01*
X171829796Y-106394437D01*
X171877415Y-106346818D01*
X171972653Y-106299199D01*
X172115510Y-106299199D01*
X172210748Y-106346818D01*
X172258367Y-106394437D01*
X172305986Y-106489675D01*
X172305986Y-106870627D01*
X172782176Y-105346818D02*
X172782176Y-105918246D01*
X172782176Y-105632532D02*
X171782176Y-105632532D01*
X171925034Y-105727770D01*
X172020272Y-105823008D01*
X172067891Y-105918246D01*
X172782176Y-104394437D02*
X172782176Y-104965865D01*
X172782176Y-104680151D02*
X171782176Y-104680151D01*
X171925034Y-104775389D01*
X172020272Y-104870627D01*
X172067891Y-104965865D01*
%TO.C,R12*%
X182062380Y-112148857D02*
X181586190Y-112482190D01*
X182062380Y-112720285D02*
X181062380Y-112720285D01*
X181062380Y-112339333D01*
X181110000Y-112244095D01*
X181157619Y-112196476D01*
X181252857Y-112148857D01*
X181395714Y-112148857D01*
X181490952Y-112196476D01*
X181538571Y-112244095D01*
X181586190Y-112339333D01*
X181586190Y-112720285D01*
X182062380Y-111196476D02*
X182062380Y-111767904D01*
X182062380Y-111482190D02*
X181062380Y-111482190D01*
X181205238Y-111577428D01*
X181300476Y-111672666D01*
X181348095Y-111767904D01*
X181157619Y-110815523D02*
X181110000Y-110767904D01*
X181062380Y-110672666D01*
X181062380Y-110434571D01*
X181110000Y-110339333D01*
X181157619Y-110291714D01*
X181252857Y-110244095D01*
X181348095Y-110244095D01*
X181490952Y-110291714D01*
X182062380Y-110863142D01*
X182062380Y-110244095D01*
%TO.C,R14*%
X141851142Y-81986380D02*
X141517809Y-81510190D01*
X141279714Y-81986380D02*
X141279714Y-80986380D01*
X141660666Y-80986380D01*
X141755904Y-81034000D01*
X141803523Y-81081619D01*
X141851142Y-81176857D01*
X141851142Y-81319714D01*
X141803523Y-81414952D01*
X141755904Y-81462571D01*
X141660666Y-81510190D01*
X141279714Y-81510190D01*
X142803523Y-81986380D02*
X142232095Y-81986380D01*
X142517809Y-81986380D02*
X142517809Y-80986380D01*
X142422571Y-81129238D01*
X142327333Y-81224476D01*
X142232095Y-81272095D01*
X143660666Y-81319714D02*
X143660666Y-81986380D01*
X143422571Y-80938761D02*
X143184476Y-81653047D01*
X143803523Y-81653047D01*
%TO.C,R15*%
X143751549Y-86225312D02*
X143852564Y-85652893D01*
X143347488Y-85821251D02*
X144054595Y-85114145D01*
X144323969Y-85383519D01*
X144357641Y-85484534D01*
X144357641Y-85551877D01*
X144323969Y-85652893D01*
X144222954Y-85753908D01*
X144121938Y-85787580D01*
X144054595Y-85787580D01*
X143953580Y-85753908D01*
X143684206Y-85484534D01*
X144424984Y-86898748D02*
X144020923Y-86494687D01*
X144222954Y-86696717D02*
X144930061Y-85989610D01*
X144761702Y-86023282D01*
X144627015Y-86023282D01*
X144526000Y-85989610D01*
X145771854Y-86831404D02*
X145435137Y-86494687D01*
X145064748Y-86797732D01*
X145132091Y-86797732D01*
X145233106Y-86831404D01*
X145401465Y-86999763D01*
X145435137Y-87100778D01*
X145435137Y-87168122D01*
X145401465Y-87269137D01*
X145233106Y-87437496D01*
X145132091Y-87471167D01*
X145064748Y-87471167D01*
X144963732Y-87437496D01*
X144795374Y-87269137D01*
X144761702Y-87168122D01*
X144761702Y-87100778D01*
%TO.C,R16*%
X149278773Y-83764380D02*
X148945440Y-83288190D01*
X148707345Y-83764380D02*
X148707345Y-82764380D01*
X149088297Y-82764380D01*
X149183535Y-82812000D01*
X149231154Y-82859619D01*
X149278773Y-82954857D01*
X149278773Y-83097714D01*
X149231154Y-83192952D01*
X149183535Y-83240571D01*
X149088297Y-83288190D01*
X148707345Y-83288190D01*
X150231154Y-83764380D02*
X149659726Y-83764380D01*
X149945440Y-83764380D02*
X149945440Y-82764380D01*
X149850202Y-82907238D01*
X149754964Y-83002476D01*
X149659726Y-83050095D01*
X151088297Y-82764380D02*
X150897821Y-82764380D01*
X150802583Y-82812000D01*
X150754964Y-82859619D01*
X150659726Y-83002476D01*
X150612107Y-83192952D01*
X150612107Y-83573904D01*
X150659726Y-83669142D01*
X150707345Y-83716761D01*
X150802583Y-83764380D01*
X150993059Y-83764380D01*
X151088297Y-83716761D01*
X151135916Y-83669142D01*
X151183535Y-83573904D01*
X151183535Y-83335809D01*
X151135916Y-83240571D01*
X151088297Y-83192952D01*
X150993059Y-83145333D01*
X150802583Y-83145333D01*
X150707345Y-83192952D01*
X150659726Y-83240571D01*
X150612107Y-83335809D01*
%TO.C,R17*%
D14*
X164282380Y-83633428D02*
X163806190Y-83800095D01*
X164282380Y-83919142D02*
X163282380Y-83919142D01*
X163282380Y-83728666D01*
X163330000Y-83681047D01*
X163377619Y-83657238D01*
X163472857Y-83633428D01*
X163615714Y-83633428D01*
X163710952Y-83657238D01*
X163758571Y-83681047D01*
X163806190Y-83728666D01*
X163806190Y-83919142D01*
X164282380Y-83157238D02*
X164282380Y-83442952D01*
X164282380Y-83300095D02*
X163282380Y-83300095D01*
X163425238Y-83347714D01*
X163520476Y-83395333D01*
X163568095Y-83442952D01*
X163282380Y-82990571D02*
X163282380Y-82657238D01*
X164282380Y-82871523D01*
%TO.C,R18*%
X163377619Y-85022571D02*
X163853809Y-84855904D01*
X163377619Y-84736857D02*
X164377619Y-84736857D01*
X164377619Y-84927333D01*
X164330000Y-84974952D01*
X164282380Y-84998761D01*
X164187142Y-85022571D01*
X164044285Y-85022571D01*
X163949047Y-84998761D01*
X163901428Y-84974952D01*
X163853809Y-84927333D01*
X163853809Y-84736857D01*
X163377619Y-85498761D02*
X163377619Y-85213047D01*
X163377619Y-85355904D02*
X164377619Y-85355904D01*
X164234761Y-85308285D01*
X164139523Y-85260666D01*
X164091904Y-85213047D01*
X163949047Y-85784476D02*
X163996666Y-85736857D01*
X164044285Y-85713047D01*
X164139523Y-85689238D01*
X164187142Y-85689238D01*
X164282380Y-85713047D01*
X164330000Y-85736857D01*
X164377619Y-85784476D01*
X164377619Y-85879714D01*
X164330000Y-85927333D01*
X164282380Y-85951142D01*
X164187142Y-85974952D01*
X164139523Y-85974952D01*
X164044285Y-85951142D01*
X163996666Y-85927333D01*
X163949047Y-85879714D01*
X163949047Y-85784476D01*
X163901428Y-85736857D01*
X163853809Y-85713047D01*
X163758571Y-85689238D01*
X163568095Y-85689238D01*
X163472857Y-85713047D01*
X163425238Y-85736857D01*
X163377619Y-85784476D01*
X163377619Y-85879714D01*
X163425238Y-85927333D01*
X163472857Y-85951142D01*
X163568095Y-85974952D01*
X163758571Y-85974952D01*
X163853809Y-85951142D01*
X163901428Y-85927333D01*
X163949047Y-85879714D01*
%TO.C,RV1*%
D12*
X158272380Y-106767238D02*
X157796190Y-107100571D01*
X158272380Y-107338666D02*
X157272380Y-107338666D01*
X157272380Y-106957714D01*
X157320000Y-106862476D01*
X157367619Y-106814857D01*
X157462857Y-106767238D01*
X157605714Y-106767238D01*
X157700952Y-106814857D01*
X157748571Y-106862476D01*
X157796190Y-106957714D01*
X157796190Y-107338666D01*
X157272380Y-106481523D02*
X158272380Y-106148190D01*
X157272380Y-105814857D01*
X158272380Y-104957714D02*
X158272380Y-105529142D01*
X158272380Y-105243428D02*
X157272380Y-105243428D01*
X157415238Y-105338666D01*
X157510476Y-105433904D01*
X157558095Y-105529142D01*
%TO.C,U1*%
X181316380Y-91439904D02*
X182125904Y-91439904D01*
X182221142Y-91392285D01*
X182268761Y-91344666D01*
X182316380Y-91249428D01*
X182316380Y-91058952D01*
X182268761Y-90963714D01*
X182221142Y-90916095D01*
X182125904Y-90868476D01*
X181316380Y-90868476D01*
X182316380Y-89868476D02*
X182316380Y-90439904D01*
X182316380Y-90154190D02*
X181316380Y-90154190D01*
X181459238Y-90249428D01*
X181554476Y-90344666D01*
X181602095Y-90439904D01*
%TD*%
M02*
