%TF.GenerationSoftware,KiCad,Pcbnew,no-vcs-found-b18601d~60~ubuntu16.04.1*%
%TF.CreationDate,2017-12-11T16:29:56-05:00*%
%TF.ProjectId,etc.,6574632E2E6B696361645F7063620000,rev?*%
%TF.SameCoordinates,Original*%
%TF.FileFunction,Copper,L1,Top,Signal*%
%TF.FilePolarity,Positive*%
%FSLAX46Y46*%
G04 Gerber Fmt 4.6, Leading zero omitted, Abs format (unit mm)*
G04 Created by KiCad (PCBNEW no-vcs-found-b18601d~60~ubuntu16.04.1) date Mon Dec 11 16:29:56 2017*
%MOMM*%
%LPD*%
G01*
G04 APERTURE LIST*
%TA.AperFunction,SMDPad,CuDef*%
%ADD10R,1.200000X1.200000*%
%TD*%
%TA.AperFunction,SMDPad,CuDef*%
%ADD11R,1.550000X0.600000*%
%TD*%
%TA.AperFunction,ComponentPad*%
%ADD12C,1.300000*%
%TD*%
%TA.AperFunction,SMDPad,CuDef*%
%ADD13C,0.700000*%
%TD*%
%TA.AperFunction,Conductor*%
%ADD14C,0.100000*%
%TD*%
%TA.AperFunction,ComponentPad*%
%ADD15R,1.727200X1.727200*%
%TD*%
%TA.AperFunction,ComponentPad*%
%ADD16O,1.727200X1.727200*%
%TD*%
%TA.AperFunction,SMDPad,CuDef*%
%ADD17C,0.550000*%
%TD*%
%TA.AperFunction,SMDPad,CuDef*%
%ADD18C,0.230000*%
%TD*%
%TA.AperFunction,SMDPad,CuDef*%
%ADD19C,2.150000*%
%TD*%
%TA.AperFunction,SMDPad,CuDef*%
%ADD20C,0.435000*%
%TD*%
%TA.AperFunction,SMDPad,CuDef*%
%ADD21C,1.200000*%
%TD*%
%TA.AperFunction,SMDPad,CuDef*%
%ADD22R,1.000000X1.250000*%
%TD*%
%TA.AperFunction,SMDPad,CuDef*%
%ADD23C,1.000000*%
%TD*%
%TA.AperFunction,SMDPad,CuDef*%
%ADD24R,1.250000X1.000000*%
%TD*%
%TA.AperFunction,SMDPad,CuDef*%
%ADD25R,1.778000X2.159000*%
%TD*%
%TA.AperFunction,SMDPad,CuDef*%
%ADD26R,2.500000X0.900000*%
%TD*%
%TA.AperFunction,SMDPad,CuDef*%
%ADD27R,3.300000X8.200000*%
%TD*%
%TA.AperFunction,SMDPad,CuDef*%
%ADD28R,0.700000X1.300000*%
%TD*%
%TA.AperFunction,SMDPad,CuDef*%
%ADD29R,1.300000X0.700000*%
%TD*%
%TA.AperFunction,SMDPad,CuDef*%
%ADD30R,3.200000X1.000000*%
%TD*%
%TA.AperFunction,SMDPad,CuDef*%
%ADD31R,1.500000X1.600000*%
%TD*%
%TA.AperFunction,SMDPad,CuDef*%
%ADD32R,0.650000X1.060000*%
%TD*%
%TA.AperFunction,SMDPad,CuDef*%
%ADD33R,0.900000X0.800000*%
%TD*%
%TA.AperFunction,ViaPad*%
%ADD34C,0.609600*%
%TD*%
%TA.AperFunction,Conductor*%
%ADD35C,0.250000*%
%TD*%
%TA.AperFunction,Conductor*%
%ADD36C,0.254000*%
%TD*%
%TA.AperFunction,Conductor*%
%ADD37C,0.762000*%
%TD*%
G04 APERTURE END LIST*
D10*
%TO.P,D8,1*%
%TO.N,GND*%
X169164000Y-84328000D03*
%TO.P,D8,2*%
%TO.N,Net-(D8-Pad2)*%
X169164000Y-86528000D03*
%TD*%
D11*
%TO.P,U2,1*%
%TO.N,TXCAN*%
X158590000Y-88519000D03*
%TO.P,U2,2*%
%TO.N,GND*%
X158590000Y-89789000D03*
%TO.P,U2,3*%
%TO.N,VCC*%
X158590000Y-91059000D03*
%TO.P,U2,4*%
%TO.N,RXCAN*%
X158590000Y-92329000D03*
%TO.P,U2,5*%
%TO.N,Net-(U2-Pad5)*%
X163990000Y-92329000D03*
%TO.P,U2,6*%
%TO.N,CANL*%
X163990000Y-91059000D03*
%TO.P,U2,7*%
%TO.N,CANH*%
X163990000Y-89789000D03*
%TO.P,U2,8*%
%TO.N,GND*%
X163990000Y-88519000D03*
%TD*%
D10*
%TO.P,D3,2*%
%TO.N,Net-(D3-Pad2)*%
X142580002Y-101600000D03*
%TO.P,D3,1*%
%TO.N,GND*%
X144780000Y-101600000D03*
%TD*%
D12*
%TO.P,J2,5*%
%TO.N,R/W*%
X156210000Y-109982000D03*
%TO.P,J2,3*%
%TO.N,Net-(J2-Pad3)*%
X158750000Y-109982000D03*
%TO.P,J2,1*%
%TO.N,GND*%
X161290000Y-109982000D03*
%TO.P,J2,7*%
%TO.N,DB0*%
X153670000Y-109982000D03*
%TO.P,J2,2*%
%TO.N,VCC*%
X160020000Y-112522000D03*
%TO.P,J2,4*%
%TO.N,RS*%
X157480000Y-112522000D03*
%TO.P,J2,6*%
%TO.N,E*%
X154940000Y-112522000D03*
%TO.P,J2,8*%
%TO.N,DB1*%
X152400000Y-112522000D03*
%TO.P,J2,9*%
%TO.N,DB2*%
X151130000Y-109982000D03*
%TO.P,J2,10*%
%TO.N,DB3*%
X149860000Y-112522000D03*
%TO.P,J2,11*%
%TO.N,DB4*%
X148590000Y-109982000D03*
%TO.P,J2,12*%
%TO.N,DB5*%
X147320000Y-112522000D03*
%TO.P,J2,13*%
%TO.N,DB6*%
X146050000Y-109982000D03*
%TO.P,J2,14*%
%TO.N,DB7*%
X144780000Y-112522000D03*
%TO.P,J2,15*%
%TO.N,VCC*%
X143510000Y-109982000D03*
%TO.P,J2,16*%
%TO.N,GND*%
X142240000Y-112522000D03*
%TD*%
%TO.P,J1,5*%
%TO.N,MISO*%
X161036000Y-76200000D03*
%TO.P,J1,3*%
%TO.N,VCC*%
X163576000Y-76200000D03*
%TO.P,J1,1*%
%TO.N,GND*%
X166115999Y-76200000D03*
%TO.P,J1,7*%
%TO.N,RESET*%
X158496000Y-76200000D03*
%TO.P,J1,2*%
%TO.N,+12V*%
X164846000Y-78740000D03*
%TO.P,J1,4*%
%TO.N,MOSI*%
X162306000Y-78740000D03*
%TO.P,J1,6*%
%TO.N,SCK*%
X159766000Y-78740000D03*
%TO.P,J1,8*%
%TO.N,CANH*%
X157226000Y-78740000D03*
%TO.P,J1,9*%
%TO.N,CANL*%
X155956001Y-76200000D03*
%TO.P,J1,10*%
%TO.N,LED1*%
X154686000Y-78740000D03*
%TO.P,J1,11*%
%TO.N,LED2*%
X153416000Y-76200000D03*
%TO.P,J1,12*%
%TO.N,IMD*%
X152146000Y-78740000D03*
%TO.P,J1,13*%
%TO.N,GND*%
X150876000Y-76200000D03*
%TO.P,J1,14*%
%TO.N,AMS*%
X149606000Y-78740000D03*
%TO.P,J1,15*%
%TO.N,GND*%
X148336000Y-76200000D03*
%TO.P,J1,16*%
%TO.N,SDA*%
X147066000Y-78740000D03*
%TO.P,J1,17*%
%TO.N,SCL*%
X145796000Y-76200000D03*
%TO.P,J1,18*%
%TO.N,INT*%
X144526000Y-78740000D03*
%TO.P,J1,19*%
%TO.N,RST*%
X143255999Y-76200000D03*
%TO.P,J1,20*%
%TO.N,EINT*%
X141986000Y-78740000D03*
%TD*%
D13*
%TO.P,R13,2*%
%TO.N,RST*%
X155538249Y-82132249D03*
D14*
%TD*%
%TO.N,RST*%
%TO.C,R13*%
G36*
X156245356Y-81920117D02*
X155326117Y-82839356D01*
X154831142Y-82344381D01*
X155750381Y-81425142D01*
X156245356Y-81920117D01*
X156245356Y-81920117D01*
G37*
D13*
%TO.P,R13,1*%
%TO.N,+3V3*%
X156881751Y-83475751D03*
D14*
%TD*%
%TO.N,+3V3*%
%TO.C,R13*%
G36*
X157588858Y-83263619D02*
X156669619Y-84182858D01*
X156174644Y-83687883D01*
X157093883Y-82768644D01*
X157588858Y-83263619D01*
X157588858Y-83263619D01*
G37*
D15*
%TO.P,P1,1*%
%TO.N,MISO*%
X162814000Y-96774000D03*
D16*
%TO.P,P1,2*%
%TO.N,VCC*%
X165354000Y-96774000D03*
%TO.P,P1,3*%
%TO.N,SCK*%
X162814000Y-99314000D03*
%TO.P,P1,4*%
%TO.N,MOSI*%
X165354000Y-99314000D03*
%TO.P,P1,5*%
%TO.N,RESET*%
X162814000Y-101853999D03*
%TO.P,P1,6*%
%TO.N,GND*%
X165354000Y-101854000D03*
%TD*%
D17*
%TO.P,IC1,1*%
%TO.N,MISO*%
X157893103Y-99558695D03*
D14*
%TD*%
%TO.N,MISO*%
%TO.C,IC1*%
G36*
X158264334Y-98798555D02*
X158653243Y-99187464D01*
X157521872Y-100318835D01*
X157132963Y-99929926D01*
X158264334Y-98798555D01*
X158264334Y-98798555D01*
G37*
D17*
%TO.P,IC1,2*%
%TO.N,MOSI*%
X157327417Y-98993010D03*
D14*
%TD*%
%TO.N,MOSI*%
%TO.C,IC1*%
G36*
X157698648Y-98232870D02*
X158087557Y-98621779D01*
X156956186Y-99753150D01*
X156567277Y-99364241D01*
X157698648Y-98232870D01*
X157698648Y-98232870D01*
G37*
D17*
%TO.P,IC1,3*%
%TO.N,Net-(IC1-Pad3)*%
X156761732Y-98427324D03*
D14*
%TD*%
%TO.N,Net-(IC1-Pad3)*%
%TO.C,IC1*%
G36*
X157132963Y-97667184D02*
X157521872Y-98056093D01*
X156390501Y-99187464D01*
X156001592Y-98798555D01*
X157132963Y-97667184D01*
X157132963Y-97667184D01*
G37*
D17*
%TO.P,IC1,4*%
%TO.N,VCC*%
X156196047Y-97861639D03*
D14*
%TD*%
%TO.N,VCC*%
%TO.C,IC1*%
G36*
X156567278Y-97101499D02*
X156956187Y-97490408D01*
X155824816Y-98621779D01*
X155435907Y-98232870D01*
X156567278Y-97101499D01*
X156567278Y-97101499D01*
G37*
D17*
%TO.P,IC1,5*%
%TO.N,GND*%
X155630361Y-97295953D03*
D14*
%TD*%
%TO.N,GND*%
%TO.C,IC1*%
G36*
X156001592Y-96535813D02*
X156390501Y-96924722D01*
X155259130Y-98056093D01*
X154870221Y-97667184D01*
X156001592Y-96535813D01*
X156001592Y-96535813D01*
G37*
D17*
%TO.P,IC1,6*%
%TO.N,TXCAN*%
X155064676Y-96730268D03*
D14*
%TD*%
%TO.N,TXCAN*%
%TO.C,IC1*%
G36*
X155435907Y-95970128D02*
X155824816Y-96359037D01*
X154693445Y-97490408D01*
X154304536Y-97101499D01*
X155435907Y-95970128D01*
X155435907Y-95970128D01*
G37*
D17*
%TO.P,IC1,7*%
%TO.N,RXCAN*%
X154498990Y-96164583D03*
D14*
%TD*%
%TO.N,RXCAN*%
%TO.C,IC1*%
G36*
X154870221Y-95404443D02*
X155259130Y-95793352D01*
X154127759Y-96924723D01*
X153738850Y-96535814D01*
X154870221Y-95404443D01*
X154870221Y-95404443D01*
G37*
D17*
%TO.P,IC1,8*%
%TO.N,Net-(IC1-Pad8)*%
X153933305Y-95598897D03*
D14*
%TD*%
%TO.N,Net-(IC1-Pad8)*%
%TO.C,IC1*%
G36*
X154304536Y-94838757D02*
X154693445Y-95227666D01*
X153562074Y-96359037D01*
X153173165Y-95970128D01*
X154304536Y-94838757D01*
X154304536Y-94838757D01*
G37*
D17*
%TO.P,IC1,9*%
%TO.N,Net-(IC1-Pad9)*%
X151882695Y-95598897D03*
D14*
%TD*%
%TO.N,Net-(IC1-Pad9)*%
%TO.C,IC1*%
G36*
X151122555Y-95227666D02*
X151511464Y-94838757D01*
X152642835Y-95970128D01*
X152253926Y-96359037D01*
X151122555Y-95227666D01*
X151122555Y-95227666D01*
G37*
D17*
%TO.P,IC1,10*%
%TO.N,Net-(C5-Pad1)*%
X151317010Y-96164583D03*
D14*
%TD*%
%TO.N,Net-(C5-Pad1)*%
%TO.C,IC1*%
G36*
X150556870Y-95793352D02*
X150945779Y-95404443D01*
X152077150Y-96535814D01*
X151688241Y-96924723D01*
X150556870Y-95793352D01*
X150556870Y-95793352D01*
G37*
D17*
%TO.P,IC1,11*%
%TO.N,Net-(C4-Pad1)*%
X150751324Y-96730268D03*
D14*
%TD*%
%TO.N,Net-(C4-Pad1)*%
%TO.C,IC1*%
G36*
X149991184Y-96359037D02*
X150380093Y-95970128D01*
X151511464Y-97101499D01*
X151122555Y-97490408D01*
X149991184Y-96359037D01*
X149991184Y-96359037D01*
G37*
D17*
%TO.P,IC1,12*%
%TO.N,SCK*%
X150185639Y-97295953D03*
D14*
%TD*%
%TO.N,SCK*%
%TO.C,IC1*%
G36*
X149425499Y-96924722D02*
X149814408Y-96535813D01*
X150945779Y-97667184D01*
X150556870Y-98056093D01*
X149425499Y-96924722D01*
X149425499Y-96924722D01*
G37*
D17*
%TO.P,IC1,13*%
%TO.N,CS*%
X149619953Y-97861639D03*
D14*
%TD*%
%TO.N,CS*%
%TO.C,IC1*%
G36*
X148859813Y-97490408D02*
X149248722Y-97101499D01*
X150380093Y-98232870D01*
X149991184Y-98621779D01*
X148859813Y-97490408D01*
X148859813Y-97490408D01*
G37*
D17*
%TO.P,IC1,14*%
%TO.N,IMD*%
X149054268Y-98427324D03*
D14*
%TD*%
%TO.N,IMD*%
%TO.C,IC1*%
G36*
X148294128Y-98056093D02*
X148683037Y-97667184D01*
X149814408Y-98798555D01*
X149425499Y-99187464D01*
X148294128Y-98056093D01*
X148294128Y-98056093D01*
G37*
D17*
%TO.P,IC1,15*%
%TO.N,AMS*%
X148488583Y-98993010D03*
D14*
%TD*%
%TO.N,AMS*%
%TO.C,IC1*%
G36*
X147728443Y-98621779D02*
X148117352Y-98232870D01*
X149248723Y-99364241D01*
X148859814Y-99753150D01*
X147728443Y-98621779D01*
X147728443Y-98621779D01*
G37*
D17*
%TO.P,IC1,16*%
%TO.N,Net-(IC1-Pad16)*%
X147922897Y-99558695D03*
D14*
%TD*%
%TO.N,Net-(IC1-Pad16)*%
%TO.C,IC1*%
G36*
X147162757Y-99187464D02*
X147551666Y-98798555D01*
X148683037Y-99929926D01*
X148294128Y-100318835D01*
X147162757Y-99187464D01*
X147162757Y-99187464D01*
G37*
D17*
%TO.P,IC1,17*%
%TO.N,Net-(IC1-Pad17)*%
X147922897Y-101609305D03*
D14*
%TD*%
%TO.N,Net-(IC1-Pad17)*%
%TO.C,IC1*%
G36*
X148294128Y-100849165D02*
X148683037Y-101238074D01*
X147551666Y-102369445D01*
X147162757Y-101980536D01*
X148294128Y-100849165D01*
X148294128Y-100849165D01*
G37*
D17*
%TO.P,IC1,18*%
%TO.N,DB7*%
X148488583Y-102174990D03*
D14*
%TD*%
%TO.N,DB7*%
%TO.C,IC1*%
G36*
X148859814Y-101414850D02*
X149248723Y-101803759D01*
X148117352Y-102935130D01*
X147728443Y-102546221D01*
X148859814Y-101414850D01*
X148859814Y-101414850D01*
G37*
D17*
%TO.P,IC1,19*%
%TO.N,Net-(C2-Pad1)*%
X149054268Y-102740676D03*
D14*
%TD*%
%TO.N,Net-(C2-Pad1)*%
%TO.C,IC1*%
G36*
X149425499Y-101980536D02*
X149814408Y-102369445D01*
X148683037Y-103500816D01*
X148294128Y-103111907D01*
X149425499Y-101980536D01*
X149425499Y-101980536D01*
G37*
D17*
%TO.P,IC1,20*%
%TO.N,GND*%
X149619953Y-103306361D03*
D14*
%TD*%
%TO.N,GND*%
%TO.C,IC1*%
G36*
X149991184Y-102546221D02*
X150380093Y-102935130D01*
X149248722Y-104066501D01*
X148859813Y-103677592D01*
X149991184Y-102546221D01*
X149991184Y-102546221D01*
G37*
D17*
%TO.P,IC1,21*%
%TO.N,Net-(IC1-Pad21)*%
X150185639Y-103872047D03*
D14*
%TD*%
%TO.N,Net-(IC1-Pad21)*%
%TO.C,IC1*%
G36*
X150556870Y-103111907D02*
X150945779Y-103500816D01*
X149814408Y-104632187D01*
X149425499Y-104243278D01*
X150556870Y-103111907D01*
X150556870Y-103111907D01*
G37*
D17*
%TO.P,IC1,22*%
%TO.N,DB6*%
X150751324Y-104437732D03*
D14*
%TD*%
%TO.N,DB6*%
%TO.C,IC1*%
G36*
X151122555Y-103677592D02*
X151511464Y-104066501D01*
X150380093Y-105197872D01*
X149991184Y-104808963D01*
X151122555Y-103677592D01*
X151122555Y-103677592D01*
G37*
D17*
%TO.P,IC1,23*%
%TO.N,DB5*%
X151317010Y-105003417D03*
D14*
%TD*%
%TO.N,DB5*%
%TO.C,IC1*%
G36*
X151688241Y-104243277D02*
X152077150Y-104632186D01*
X150945779Y-105763557D01*
X150556870Y-105374648D01*
X151688241Y-104243277D01*
X151688241Y-104243277D01*
G37*
D17*
%TO.P,IC1,24*%
%TO.N,DB4*%
X151882695Y-105569103D03*
D14*
%TD*%
%TO.N,DB4*%
%TO.C,IC1*%
G36*
X152253926Y-104808963D02*
X152642835Y-105197872D01*
X151511464Y-106329243D01*
X151122555Y-105940334D01*
X152253926Y-104808963D01*
X152253926Y-104808963D01*
G37*
D17*
%TO.P,IC1,25*%
%TO.N,DB3*%
X153933305Y-105569103D03*
D14*
%TD*%
%TO.N,DB3*%
%TO.C,IC1*%
G36*
X153173165Y-105197872D02*
X153562074Y-104808963D01*
X154693445Y-105940334D01*
X154304536Y-106329243D01*
X153173165Y-105197872D01*
X153173165Y-105197872D01*
G37*
D17*
%TO.P,IC1,26*%
%TO.N,DB2*%
X154498990Y-105003417D03*
D14*
%TD*%
%TO.N,DB2*%
%TO.C,IC1*%
G36*
X153738850Y-104632186D02*
X154127759Y-104243277D01*
X155259130Y-105374648D01*
X154870221Y-105763557D01*
X153738850Y-104632186D01*
X153738850Y-104632186D01*
G37*
D17*
%TO.P,IC1,27*%
%TO.N,DB1*%
X155064676Y-104437732D03*
D14*
%TD*%
%TO.N,DB1*%
%TO.C,IC1*%
G36*
X154304536Y-104066501D02*
X154693445Y-103677592D01*
X155824816Y-104808963D01*
X155435907Y-105197872D01*
X154304536Y-104066501D01*
X154304536Y-104066501D01*
G37*
D17*
%TO.P,IC1,28*%
%TO.N,DB0*%
X155630361Y-103872047D03*
D14*
%TD*%
%TO.N,DB0*%
%TO.C,IC1*%
G36*
X154870221Y-103500816D02*
X155259130Y-103111907D01*
X156390501Y-104243278D01*
X156001592Y-104632187D01*
X154870221Y-103500816D01*
X154870221Y-103500816D01*
G37*
D17*
%TO.P,IC1,29*%
%TO.N,E*%
X156196047Y-103306361D03*
D14*
%TD*%
%TO.N,E*%
%TO.C,IC1*%
G36*
X155435907Y-102935130D02*
X155824816Y-102546221D01*
X156956187Y-103677592D01*
X156567278Y-104066501D01*
X155435907Y-102935130D01*
X155435907Y-102935130D01*
G37*
D17*
%TO.P,IC1,30*%
%TO.N,R/W*%
X156761732Y-102740676D03*
D14*
%TD*%
%TO.N,R/W*%
%TO.C,IC1*%
G36*
X156001592Y-102369445D02*
X156390501Y-101980536D01*
X157521872Y-103111907D01*
X157132963Y-103500816D01*
X156001592Y-102369445D01*
X156001592Y-102369445D01*
G37*
D17*
%TO.P,IC1,31*%
%TO.N,RESET*%
X157327417Y-102174990D03*
D14*
%TD*%
%TO.N,RESET*%
%TO.C,IC1*%
G36*
X156567277Y-101803759D02*
X156956186Y-101414850D01*
X158087557Y-102546221D01*
X157698648Y-102935130D01*
X156567277Y-101803759D01*
X156567277Y-101803759D01*
G37*
D17*
%TO.P,IC1,32*%
%TO.N,RS*%
X157893103Y-101609305D03*
D14*
%TD*%
%TO.N,RS*%
%TO.C,IC1*%
G36*
X157132963Y-101238074D02*
X157521872Y-100849165D01*
X158653243Y-101980536D01*
X158264334Y-102369445D01*
X157132963Y-101238074D01*
X157132963Y-101238074D01*
G37*
D10*
%TO.P,D2,1*%
%TO.N,GND*%
X163659999Y-93980000D03*
%TO.P,D2,2*%
%TO.N,Net-(D2-Pad2)*%
X161460001Y-93980000D03*
%TD*%
D18*
%TO.P,U3,1*%
%TO.N,SCK*%
X155342866Y-84831348D03*
D14*
%TD*%
%TO.N,SCK*%
%TO.C,U3*%
G36*
X155456003Y-84555576D02*
X155618638Y-84718211D01*
X155229729Y-85107120D01*
X155067094Y-84944485D01*
X155456003Y-84555576D01*
X155456003Y-84555576D01*
G37*
D18*
%TO.P,U3,2*%
%TO.N,GND*%
X154989313Y-84477794D03*
D14*
%TD*%
%TO.N,GND*%
%TO.C,U3*%
G36*
X155102450Y-84202022D02*
X155265085Y-84364657D01*
X154876176Y-84753566D01*
X154713541Y-84590931D01*
X155102450Y-84202022D01*
X155102450Y-84202022D01*
G37*
D18*
%TO.P,U3,3*%
%TO.N,+3V3*%
X154635759Y-84124241D03*
D14*
%TD*%
%TO.N,+3V3*%
%TO.C,U3*%
G36*
X154748896Y-83848469D02*
X154911531Y-84011104D01*
X154522622Y-84400013D01*
X154359987Y-84237378D01*
X154748896Y-83848469D01*
X154748896Y-83848469D01*
G37*
D18*
%TO.P,U3,4*%
%TO.N,RST*%
X154282206Y-83770687D03*
D14*
%TD*%
%TO.N,RST*%
%TO.C,U3*%
G36*
X154395343Y-83494915D02*
X154557978Y-83657550D01*
X154169069Y-84046459D01*
X154006434Y-83883824D01*
X154395343Y-83494915D01*
X154395343Y-83494915D01*
G37*
D18*
%TO.P,U3,5*%
%TO.N,GPIO_0*%
X153928652Y-83417134D03*
D14*
%TD*%
%TO.N,GPIO_0*%
%TO.C,U3*%
G36*
X154041789Y-83141362D02*
X154204424Y-83303997D01*
X153815515Y-83692906D01*
X153652880Y-83530271D01*
X154041789Y-83141362D01*
X154041789Y-83141362D01*
G37*
D18*
%TO.P,U3,6*%
%TO.N,Net-(U3-Pad6)*%
X152903348Y-83417134D03*
D14*
%TD*%
%TO.N,Net-(U3-Pad6)*%
%TO.C,U3*%
G36*
X152790211Y-83141362D02*
X153179120Y-83530271D01*
X153016485Y-83692906D01*
X152627576Y-83303997D01*
X152790211Y-83141362D01*
X152790211Y-83141362D01*
G37*
D18*
%TO.P,U3,7*%
%TO.N,Net-(U3-Pad7)*%
X152549794Y-83770687D03*
D14*
%TD*%
%TO.N,Net-(U3-Pad7)*%
%TO.C,U3*%
G36*
X152436657Y-83494915D02*
X152825566Y-83883824D01*
X152662931Y-84046459D01*
X152274022Y-83657550D01*
X152436657Y-83494915D01*
X152436657Y-83494915D01*
G37*
D18*
%TO.P,U3,8*%
%TO.N,Net-(U3-Pad8)*%
X152196241Y-84124241D03*
D14*
%TD*%
%TO.N,Net-(U3-Pad8)*%
%TO.C,U3*%
G36*
X152083104Y-83848469D02*
X152472013Y-84237378D01*
X152309378Y-84400013D01*
X151920469Y-84011104D01*
X152083104Y-83848469D01*
X152083104Y-83848469D01*
G37*
D18*
%TO.P,U3,9*%
%TO.N,Net-(U3-Pad9)*%
X151842687Y-84477794D03*
D14*
%TD*%
%TO.N,Net-(U3-Pad9)*%
%TO.C,U3*%
G36*
X151729550Y-84202022D02*
X152118459Y-84590931D01*
X151955824Y-84753566D01*
X151566915Y-84364657D01*
X151729550Y-84202022D01*
X151729550Y-84202022D01*
G37*
D18*
%TO.P,U3,10*%
%TO.N,Net-(U3-Pad10)*%
X151489134Y-84831348D03*
D14*
%TD*%
%TO.N,Net-(U3-Pad10)*%
%TO.C,U3*%
G36*
X151375997Y-84555576D02*
X151764906Y-84944485D01*
X151602271Y-85107120D01*
X151213362Y-84718211D01*
X151375997Y-84555576D01*
X151375997Y-84555576D01*
G37*
D18*
%TO.P,U3,11*%
%TO.N,Net-(U3-Pad11)*%
X151489134Y-85856652D03*
D14*
%TD*%
%TO.N,Net-(U3-Pad11)*%
%TO.C,U3*%
G36*
X151602271Y-85580880D02*
X151764906Y-85743515D01*
X151375997Y-86132424D01*
X151213362Y-85969789D01*
X151602271Y-85580880D01*
X151602271Y-85580880D01*
G37*
D18*
%TO.P,U3,12*%
%TO.N,Net-(U3-Pad12)*%
X151842687Y-86210206D03*
D14*
%TD*%
%TO.N,Net-(U3-Pad12)*%
%TO.C,U3*%
G36*
X151955824Y-85934434D02*
X152118459Y-86097069D01*
X151729550Y-86485978D01*
X151566915Y-86323343D01*
X151955824Y-85934434D01*
X151955824Y-85934434D01*
G37*
D18*
%TO.P,U3,13*%
%TO.N,EINT*%
X152196241Y-86563759D03*
D14*
%TD*%
%TO.N,EINT*%
%TO.C,U3*%
G36*
X152309378Y-86287987D02*
X152472013Y-86450622D01*
X152083104Y-86839531D01*
X151920469Y-86676896D01*
X152309378Y-86287987D01*
X152309378Y-86287987D01*
G37*
D18*
%TO.P,U3,14*%
%TO.N,INT*%
X152549794Y-86917313D03*
D14*
%TD*%
%TO.N,INT*%
%TO.C,U3*%
G36*
X152662931Y-86641541D02*
X152825566Y-86804176D01*
X152436657Y-87193085D01*
X152274022Y-87030450D01*
X152662931Y-86641541D01*
X152662931Y-86641541D01*
G37*
D18*
%TO.P,U3,15*%
%TO.N,Net-(U3-Pad15)*%
X152903348Y-87270866D03*
D14*
%TD*%
%TO.N,Net-(U3-Pad15)*%
%TO.C,U3*%
G36*
X153016485Y-86995094D02*
X153179120Y-87157729D01*
X152790211Y-87546638D01*
X152627576Y-87384003D01*
X153016485Y-86995094D01*
X153016485Y-86995094D01*
G37*
D18*
%TO.P,U3,16*%
%TO.N,SCL*%
X153928652Y-87270866D03*
D14*
%TD*%
%TO.N,SCL*%
%TO.C,U3*%
G36*
X153815515Y-86995094D02*
X154204424Y-87384003D01*
X154041789Y-87546638D01*
X153652880Y-87157729D01*
X153815515Y-86995094D01*
X153815515Y-86995094D01*
G37*
D18*
%TO.P,U3,17*%
%TO.N,SDA*%
X154282206Y-86917313D03*
D14*
%TD*%
%TO.N,SDA*%
%TO.C,U3*%
G36*
X154169069Y-86641541D02*
X154557978Y-87030450D01*
X154395343Y-87193085D01*
X154006434Y-86804176D01*
X154169069Y-86641541D01*
X154169069Y-86641541D01*
G37*
D18*
%TO.P,U3,18*%
%TO.N,CS*%
X154635759Y-86563759D03*
D14*
%TD*%
%TO.N,CS*%
%TO.C,U3*%
G36*
X154522622Y-86287987D02*
X154911531Y-86676896D01*
X154748896Y-86839531D01*
X154359987Y-86450622D01*
X154522622Y-86287987D01*
X154522622Y-86287987D01*
G37*
D18*
%TO.P,U3,19*%
%TO.N,MOSI*%
X154989313Y-86210206D03*
D14*
%TD*%
%TO.N,MOSI*%
%TO.C,U3*%
G36*
X154876176Y-85934434D02*
X155265085Y-86323343D01*
X155102450Y-86485978D01*
X154713541Y-86097069D01*
X154876176Y-85934434D01*
X154876176Y-85934434D01*
G37*
D18*
%TO.P,U3,20*%
%TO.N,MISO*%
X155342866Y-85856652D03*
D14*
%TD*%
%TO.N,MISO*%
%TO.C,U3*%
G36*
X155229729Y-85580880D02*
X155618638Y-85969789D01*
X155456003Y-86132424D01*
X155067094Y-85743515D01*
X155229729Y-85580880D01*
X155229729Y-85580880D01*
G37*
D19*
%TO.P,U3,GND*%
%TO.N,GND*%
X153416000Y-85344000D03*
D14*
%TD*%
%TO.N,GND*%
%TO.C,U3*%
G36*
X153416000Y-83823720D02*
X154936280Y-85344000D01*
X153416000Y-86864280D01*
X151895720Y-85344000D01*
X153416000Y-83823720D01*
X153416000Y-83823720D01*
G37*
D20*
%TO.P,U3,*%
%TO.N,*%
X155682277Y-85344000D03*
D14*
%TD*%
%TO.N,*%
%TO.C,U3*%
G36*
X155682277Y-85036409D02*
X155989868Y-85344000D01*
X155682277Y-85651591D01*
X155374686Y-85344000D01*
X155682277Y-85036409D01*
X155682277Y-85036409D01*
G37*
D10*
%TO.P,D6,2*%
%TO.N,Net-(D6-Pad2)*%
X151384000Y-81280000D03*
%TO.P,D6,1*%
%TO.N,GND*%
X153584000Y-81280000D03*
%TD*%
D21*
%TO.P,Y1,1*%
%TO.N,Net-(C4-Pad1)*%
X147869868Y-94815503D03*
D14*
%TD*%
%TO.N,Net-(C4-Pad1)*%
%TO.C,Y1*%
G36*
X147799157Y-95734742D02*
X146950629Y-94886214D01*
X147940579Y-93896264D01*
X148789107Y-94744792D01*
X147799157Y-95734742D01*
X147799157Y-95734742D01*
G37*
D21*
%TO.P,Y1,2*%
%TO.N,GND*%
X149425503Y-93259868D03*
D14*
%TD*%
%TO.N,GND*%
%TO.C,Y1*%
G36*
X149354792Y-94179107D02*
X148506264Y-93330579D01*
X149496214Y-92340629D01*
X150344742Y-93189157D01*
X149354792Y-94179107D01*
X149354792Y-94179107D01*
G37*
D21*
%TO.P,Y1,3*%
%TO.N,Net-(C5-Pad1)*%
X148294132Y-92128497D03*
D14*
%TD*%
%TO.N,Net-(C5-Pad1)*%
%TO.C,Y1*%
G36*
X148223421Y-93047736D02*
X147374893Y-92199208D01*
X148364843Y-91209258D01*
X149213371Y-92057786D01*
X148223421Y-93047736D01*
X148223421Y-93047736D01*
G37*
D21*
%TO.P,Y1,4*%
%TO.N,GND*%
X146738497Y-93684132D03*
D14*
%TD*%
%TO.N,GND*%
%TO.C,Y1*%
G36*
X146667786Y-94603371D02*
X145819258Y-93754843D01*
X146809208Y-92764893D01*
X147657736Y-93613421D01*
X146667786Y-94603371D01*
X146667786Y-94603371D01*
G37*
D22*
%TO.P,C1,1*%
%TO.N,VCC*%
X140732000Y-104648000D03*
%TO.P,C1,2*%
%TO.N,GND*%
X142732000Y-104648000D03*
%TD*%
%TO.P,C2,1*%
%TO.N,Net-(C2-Pad1)*%
X147304000Y-105918000D03*
%TO.P,C2,2*%
%TO.N,GND*%
X145304000Y-105918000D03*
%TD*%
%TO.P,C3,2*%
%TO.N,GND*%
X175768000Y-84074000D03*
%TO.P,C3,1*%
%TO.N,Net-(C3-Pad1)*%
X173768000Y-84074000D03*
%TD*%
D23*
%TO.P,C4,1*%
%TO.N,Net-(C4-Pad1)*%
X145542000Y-92202000D03*
D14*
%TD*%
%TO.N,Net-(C4-Pad1)*%
%TO.C,C4*%
G36*
X145630388Y-92997495D02*
X144746505Y-92113612D01*
X145453612Y-91406505D01*
X146337495Y-92290388D01*
X145630388Y-92997495D01*
X145630388Y-92997495D01*
G37*
D23*
%TO.P,C4,2*%
%TO.N,GND*%
X146956214Y-90787786D03*
D14*
%TD*%
%TO.N,GND*%
%TO.C,C4*%
G36*
X147044602Y-91583281D02*
X146160719Y-90699398D01*
X146867826Y-89992291D01*
X147751709Y-90876174D01*
X147044602Y-91583281D01*
X147044602Y-91583281D01*
G37*
D23*
%TO.P,C5,2*%
%TO.N,GND*%
X149660893Y-90732893D03*
D14*
%TD*%
%TO.N,GND*%
%TO.C,C5*%
G36*
X150456388Y-90644505D02*
X149572505Y-91528388D01*
X148865398Y-90821281D01*
X149749281Y-89937398D01*
X150456388Y-90644505D01*
X150456388Y-90644505D01*
G37*
D23*
%TO.P,C5,1*%
%TO.N,Net-(C5-Pad1)*%
X151075107Y-92147107D03*
D14*
%TD*%
%TO.N,Net-(C5-Pad1)*%
%TO.C,C5*%
G36*
X151870602Y-92058719D02*
X150986719Y-92942602D01*
X150279612Y-92235495D01*
X151163495Y-91351612D01*
X151870602Y-92058719D01*
X151870602Y-92058719D01*
G37*
D24*
%TO.P,C6,2*%
%TO.N,Net-(C6-Pad2)*%
X173736000Y-89900000D03*
%TO.P,C6,1*%
%TO.N,Net-(C6-Pad1)*%
X173736000Y-87900000D03*
%TD*%
D22*
%TO.P,C7,2*%
%TO.N,GND*%
X177993796Y-102608342D03*
%TO.P,C7,1*%
%TO.N,Net-(C7-Pad1)*%
X179993796Y-102608342D03*
%TD*%
%TO.P,C8,1*%
%TO.N,VCC*%
X168640000Y-112014000D03*
%TO.P,C8,2*%
%TO.N,GND*%
X166640000Y-112014000D03*
%TD*%
%TO.P,C9,2*%
%TO.N,GND*%
X166580466Y-109696262D03*
%TO.P,C9,1*%
%TO.N,VCC*%
X168580466Y-109696262D03*
%TD*%
%TO.P,C10,1*%
%TO.N,+3V3*%
X160560000Y-86868000D03*
%TO.P,C10,2*%
%TO.N,GND*%
X162560000Y-86868000D03*
%TD*%
D24*
%TO.P,C11,1*%
%TO.N,+3V3*%
X142240000Y-85106000D03*
%TO.P,C11,2*%
%TO.N,GND*%
X142240000Y-87106000D03*
%TD*%
D10*
%TO.P,D1,2*%
%TO.N,Net-(D1-Pad2)*%
X180170000Y-84074000D03*
%TO.P,D1,1*%
%TO.N,GND*%
X177970000Y-84074000D03*
%TD*%
%TO.P,D4,2*%
%TO.N,Net-(D4-Pad2)*%
X176098545Y-111447295D03*
%TO.P,D4,1*%
%TO.N,GND*%
X173898545Y-111447295D03*
%TD*%
D25*
%TO.P,D5,2*%
%TO.N,GND*%
X173990000Y-78105000D03*
%TO.P,D5,1*%
%TO.N,+12V*%
X178054000Y-78105000D03*
%TD*%
D10*
%TO.P,D7,1*%
%TO.N,GND*%
X165524000Y-82042000D03*
%TO.P,D7,2*%
%TO.N,Net-(D7-Pad2)*%
X167724000Y-82042000D03*
%TD*%
D26*
%TO.P,F1,1*%
%TO.N,+12V*%
X181483000Y-76909000D03*
%TO.P,F1,2*%
%TO.N,Net-(C3-Pad1)*%
X181483000Y-79809000D03*
%TD*%
D27*
%TO.P,L1,1*%
%TO.N,Net-(C6-Pad2)*%
X174624000Y-96012000D03*
%TO.P,L1,2*%
%TO.N,Net-(C7-Pad1)*%
X179324000Y-96012000D03*
%TD*%
D28*
%TO.P,R1,1*%
%TO.N,VCC*%
X141036000Y-106934000D03*
%TO.P,R1,2*%
%TO.N,Net-(C2-Pad1)*%
X142936000Y-106934000D03*
%TD*%
%TO.P,R2,1*%
%TO.N,Net-(C3-Pad1)*%
X173548000Y-81534000D03*
%TO.P,R2,2*%
%TO.N,Net-(D1-Pad2)*%
X175448000Y-81534000D03*
%TD*%
D29*
%TO.P,R3,2*%
%TO.N,Net-(R3-Pad2)*%
X180086000Y-87950000D03*
%TO.P,R3,1*%
%TO.N,Net-(C3-Pad1)*%
X180086000Y-89850000D03*
%TD*%
D28*
%TO.P,R4,2*%
%TO.N,Net-(IC1-Pad17)*%
X146745999Y-103632000D03*
%TO.P,R4,1*%
%TO.N,Net-(D3-Pad2)*%
X144846001Y-103632000D03*
%TD*%
D13*
%TO.P,R5,1*%
%TO.N,Net-(D2-Pad2)*%
X159929751Y-95340249D03*
D14*
%TD*%
%TO.N,Net-(D2-Pad2)*%
%TO.C,R5*%
G36*
X159717619Y-94633142D02*
X160636858Y-95552381D01*
X160141883Y-96047356D01*
X159222644Y-95128117D01*
X159717619Y-94633142D01*
X159717619Y-94633142D01*
G37*
D13*
%TO.P,R5,2*%
%TO.N,Net-(IC1-Pad3)*%
X158586249Y-96683751D03*
D14*
%TD*%
%TO.N,Net-(IC1-Pad3)*%
%TO.C,R5*%
G36*
X158374117Y-95976644D02*
X159293356Y-96895883D01*
X158798381Y-97390858D01*
X157879142Y-96471619D01*
X158374117Y-95976644D01*
X158374117Y-95976644D01*
G37*
D29*
%TO.P,R6,2*%
%TO.N,RESET*%
X166370000Y-104526002D03*
%TO.P,R6,1*%
%TO.N,VCC*%
X166370000Y-106426000D03*
%TD*%
D13*
%TO.P,R7,1*%
%TO.N,LED2*%
X151982249Y-90260249D03*
D14*
%TD*%
%TO.N,LED2*%
%TO.C,R7*%
G36*
X151275142Y-90472381D02*
X152194381Y-89553142D01*
X152689356Y-90048117D01*
X151770117Y-90967356D01*
X151275142Y-90472381D01*
X151275142Y-90472381D01*
G37*
D13*
%TO.P,R7,2*%
%TO.N,Net-(IC1-Pad9)*%
X153325751Y-91603751D03*
D14*
%TD*%
%TO.N,Net-(IC1-Pad9)*%
%TO.C,R7*%
G36*
X152618644Y-91815883D02*
X153537883Y-90896644D01*
X154032858Y-91391619D01*
X153113619Y-92310858D01*
X152618644Y-91815883D01*
X152618644Y-91815883D01*
G37*
D13*
%TO.P,R8,2*%
%TO.N,Net-(IC1-Pad8)*%
X155611751Y-93635751D03*
D14*
%TD*%
%TO.N,Net-(IC1-Pad8)*%
%TO.C,R8*%
G36*
X154904644Y-93847883D02*
X155823883Y-92928644D01*
X156318858Y-93423619D01*
X155399619Y-94342858D01*
X154904644Y-93847883D01*
X154904644Y-93847883D01*
G37*
D13*
%TO.P,R8,1*%
%TO.N,LED1*%
X154268249Y-92292249D03*
D14*
%TD*%
%TO.N,LED1*%
%TO.C,R8*%
G36*
X153561142Y-92504381D02*
X154480381Y-91585142D01*
X154975356Y-92080117D01*
X154056117Y-92999356D01*
X153561142Y-92504381D01*
X153561142Y-92504381D01*
G37*
D28*
%TO.P,R9,2*%
%TO.N,GND*%
X177789796Y-108704342D03*
%TO.P,R9,1*%
%TO.N,Net-(R10-Pad1)*%
X179689796Y-108704342D03*
%TD*%
D29*
%TO.P,R10,1*%
%TO.N,Net-(R10-Pad1)*%
X178993796Y-106606342D03*
%TO.P,R10,2*%
%TO.N,Net-(C7-Pad1)*%
X178993796Y-104706342D03*
%TD*%
D30*
%TO.P,R11,1*%
%TO.N,VCC*%
X174929796Y-108756342D03*
%TO.P,R11,2*%
%TO.N,Net-(C7-Pad1)*%
X174929796Y-102556342D03*
%TD*%
D28*
%TO.P,R12,1*%
%TO.N,VCC*%
X180020000Y-111447295D03*
%TO.P,R12,2*%
%TO.N,Net-(D4-Pad2)*%
X178120000Y-111447295D03*
%TD*%
%TO.P,R14,1*%
%TO.N,+3V3*%
X142306000Y-82804000D03*
%TO.P,R14,2*%
%TO.N,SCL*%
X144206000Y-82804000D03*
%TD*%
D29*
%TO.P,R15,2*%
%TO.N,SDA*%
X146050000Y-87055999D03*
%TO.P,R15,1*%
%TO.N,+3V3*%
X146050000Y-85156001D03*
%TD*%
D28*
%TO.P,R16,1*%
%TO.N,GPIO_0*%
X147894001Y-81534000D03*
%TO.P,R16,2*%
%TO.N,Net-(D6-Pad2)*%
X149793999Y-81534000D03*
%TD*%
%TO.P,R17,2*%
%TO.N,Net-(D7-Pad2)*%
X167129873Y-84127135D03*
%TO.P,R17,1*%
%TO.N,VCC*%
X165229873Y-84127135D03*
%TD*%
%TO.P,R18,1*%
%TO.N,+3V3*%
X165290873Y-86286135D03*
%TO.P,R18,2*%
%TO.N,Net-(D8-Pad2)*%
X167190873Y-86286135D03*
%TD*%
D10*
%TO.P,RV1,3*%
%TO.N,GND*%
X163270000Y-105172000D03*
D31*
%TO.P,RV1,2*%
%TO.N,Net-(J2-Pad3)*%
X160020000Y-106172000D03*
D10*
%TO.P,RV1,1*%
%TO.N,VCC*%
X163270000Y-107172000D03*
%TD*%
D32*
%TO.P,U1,1*%
%TO.N,GND*%
X176022000Y-89916000D03*
%TO.P,U1,2*%
%TO.N,Net-(C6-Pad2)*%
X176972000Y-89916000D03*
%TO.P,U1,3*%
%TO.N,Net-(C3-Pad1)*%
X177922000Y-89916000D03*
%TO.P,U1,4*%
%TO.N,Net-(R10-Pad1)*%
X177922000Y-87716000D03*
%TO.P,U1,6*%
%TO.N,Net-(C6-Pad1)*%
X176022000Y-87716000D03*
%TO.P,U1,5*%
%TO.N,Net-(R3-Pad2)*%
X176972000Y-87716000D03*
%TD*%
D33*
%TO.P,U4,1*%
%TO.N,+3V3*%
X166590000Y-89220000D03*
%TO.P,U4,2*%
%TO.N,VCC*%
X166590000Y-91120000D03*
%TO.P,U4,3*%
%TO.N,GND*%
X168690000Y-90170000D03*
%TD*%
D34*
%TO.N,VCC*%
X162560000Y-80772000D03*
X163830000Y-77373238D03*
X167894000Y-89154000D03*
X167714200Y-95250000D03*
X167894000Y-87555800D03*
X167894000Y-87555800D03*
X168486340Y-104732340D03*
X168369908Y-102329908D03*
X168402000Y-98983052D03*
X167355322Y-97505322D03*
X167355322Y-97505322D03*
%TO.N,GND*%
X168910000Y-92456000D03*
X176022000Y-91186000D03*
X177546000Y-107188000D03*
X177800000Y-82804000D03*
X164846000Y-93980000D03*
X159975800Y-89916000D03*
X162560000Y-88392000D03*
X144780000Y-100076000D03*
X144018000Y-105410000D03*
X156718000Y-96266000D03*
X154940000Y-81280000D03*
X157129555Y-84739556D03*
X148844000Y-105410000D03*
X166624000Y-107696000D03*
X164592000Y-104902000D03*
X145542000Y-94742000D03*
X144018000Y-87630000D03*
X149860000Y-94642893D03*
X148336000Y-89662000D03*
X175768000Y-78232000D03*
X168910000Y-82550000D03*
X163830000Y-82042000D03*
X172212000Y-111506000D03*
%TO.N,Net-(C2-Pad1)*%
X146812000Y-107442000D03*
X145288000Y-107442000D03*
%TO.N,Net-(C3-Pad1)*%
X182880000Y-91186000D03*
X179832000Y-91186000D03*
%TO.N,+3V3*%
X140558322Y-92867678D03*
X167832644Y-96204644D03*
X167832644Y-96204644D03*
X169278433Y-97904433D03*
X170180000Y-100330000D03*
X170180000Y-100330000D03*
X170180000Y-103124000D03*
X170180000Y-108204000D03*
X170180000Y-109728000D03*
X170180000Y-109728000D03*
X170180000Y-109728000D03*
X141809303Y-91616697D03*
X159233393Y-87097393D03*
X157734000Y-84074000D03*
%TO.N,SCK*%
X170180000Y-79756000D03*
X168656000Y-77724000D03*
X146118598Y-98483402D03*
X146118598Y-98483402D03*
X160528000Y-102362000D03*
X160528000Y-102362000D03*
X160528000Y-103701400D03*
X148336000Y-96266000D03*
%TO.N,RS*%
X159004000Y-103701400D03*
X159004000Y-103701400D03*
X159258000Y-102546600D03*
%TO.N,CANH*%
X161105400Y-82550000D03*
X161105400Y-82550000D03*
X158934600Y-81280000D03*
X158934600Y-81280000D03*
%TO.N,CANL*%
X160929692Y-83720355D03*
X158934600Y-82144681D03*
%TO.N,LED1*%
X158884945Y-82895442D03*
X160298023Y-84352023D03*
%TO.N,LED2*%
X158404363Y-83474363D03*
X159690309Y-84959738D03*
%TO.N,SDA*%
X148290353Y-83395077D03*
X148180232Y-86166650D03*
%TO.N,SCL*%
X145870113Y-80972100D03*
X145768716Y-83085284D03*
%TO.N,INT*%
X143764000Y-80772000D03*
%TD*%
D35*
%TO.N,VCC*%
X165229873Y-84127135D02*
X164629873Y-84127135D01*
X164629873Y-84127135D02*
X162560000Y-82057262D01*
X162560000Y-82057262D02*
X162560000Y-80772000D01*
X165229873Y-84127135D02*
X166563472Y-85460734D01*
X166563472Y-85460734D02*
X166563472Y-87158056D01*
X163830000Y-77470000D02*
X163830000Y-77373238D01*
X163576000Y-76200000D02*
X163576000Y-77119238D01*
X163576000Y-77119238D02*
X163830000Y-77373238D01*
%TO.N,Net-(D7-Pad2)*%
X167724000Y-82042000D02*
X167724000Y-83533008D01*
X167724000Y-83533008D02*
X167129873Y-84127135D01*
X167129873Y-84127135D02*
X167129873Y-84427135D01*
%TO.N,VCC*%
X143510000Y-109982000D02*
X143510000Y-111444907D01*
X143510000Y-111444907D02*
X143450189Y-111504718D01*
X143450189Y-111504718D02*
X143450189Y-113133836D01*
X158690189Y-113851811D02*
X158750000Y-113792000D01*
X143450189Y-113133836D02*
X144168164Y-113851811D01*
X144168164Y-113851811D02*
X158690189Y-113851811D01*
X141036000Y-106934000D02*
X141036000Y-107508000D01*
X141036000Y-107508000D02*
X142860001Y-109332001D01*
X142860001Y-109332001D02*
X143510000Y-109982000D01*
X140732000Y-104648000D02*
X140732000Y-106630000D01*
X140732000Y-106630000D02*
X141036000Y-106934000D01*
X162782598Y-94801921D02*
X162814000Y-94833323D01*
X162814000Y-94833323D02*
X163209267Y-95228590D01*
X160044811Y-92202000D02*
X161381323Y-92202000D01*
X162560000Y-93380677D02*
X162560000Y-94579323D01*
X161381323Y-92202000D02*
X162560000Y-93380677D01*
X162560000Y-94579323D02*
X162814000Y-94833323D01*
X166590000Y-91120000D02*
X166590000Y-90470000D01*
X166590000Y-90470000D02*
X167894000Y-89166000D01*
X168159410Y-91440000D02*
X168159410Y-94730590D01*
X166590000Y-91120000D02*
X167290000Y-91120000D01*
X167290000Y-91120000D02*
X167610000Y-91440000D01*
X167610000Y-91440000D02*
X168159410Y-91440000D01*
X168159410Y-94730590D02*
X167714200Y-95250000D01*
X167640000Y-95250000D02*
X167714200Y-95250000D01*
X167035416Y-87630000D02*
X167894000Y-87555800D01*
X167894000Y-87630000D02*
X167894000Y-87555800D01*
X166563472Y-87158056D02*
X167035416Y-87630000D01*
%TO.N,Net-(D7-Pad2)*%
X167129873Y-84127135D02*
X167185135Y-84127135D01*
%TO.N,VCC*%
X166624000Y-96774000D02*
X166878000Y-97028000D01*
X166878000Y-97028000D02*
X167355322Y-97505322D01*
X167640000Y-106796000D02*
X168580466Y-107736466D01*
X167640000Y-106796000D02*
X167640000Y-105578680D01*
X167270000Y-106426000D02*
X167640000Y-106796000D01*
X167640000Y-105578680D02*
X168486340Y-104732340D01*
X168402000Y-102108000D02*
X168402000Y-102297816D01*
X168402000Y-102297816D02*
X168369908Y-102329908D01*
X168402000Y-98983052D02*
X168402000Y-102108000D01*
X167386000Y-97536000D02*
X167355322Y-97505322D01*
X165354000Y-96774000D02*
X166624000Y-96774000D01*
X160044811Y-92202000D02*
X160044811Y-91488811D01*
X165354000Y-95552686D02*
X165354000Y-96774000D01*
X160044811Y-93017604D02*
X160044811Y-92202000D01*
X163209267Y-95228590D02*
X165029904Y-95228590D01*
X165029904Y-95228590D02*
X165354000Y-95552686D01*
X160020000Y-112522000D02*
X158750000Y-113792000D01*
X160884554Y-111760000D02*
X161392554Y-111252000D01*
X160772553Y-111872001D02*
X160884554Y-111760000D01*
X160884554Y-111760000D02*
X160782000Y-111760000D01*
X160782000Y-111760000D02*
X160020000Y-112522000D01*
X161392554Y-111252000D02*
X163270000Y-109374554D01*
X163270000Y-109374554D02*
X163270000Y-108022000D01*
X163270000Y-108022000D02*
X163270000Y-107172000D01*
X141036000Y-106934000D02*
X141036000Y-107234000D01*
X141036000Y-104952000D02*
X140732000Y-104648000D01*
X168580466Y-109571262D02*
X169164000Y-108987728D01*
X169164000Y-108987728D02*
X170434000Y-108987728D01*
X170434000Y-108987728D02*
X170665386Y-108756342D01*
X156196047Y-97861639D02*
X157300201Y-96757485D01*
X157300201Y-96757485D02*
X157300201Y-95762214D01*
X157300201Y-95762214D02*
X160044811Y-93017604D01*
X160044811Y-91488811D02*
X159615000Y-91059000D01*
X159615000Y-91059000D02*
X158590000Y-91059000D01*
X163270000Y-107172000D02*
X166224000Y-107172000D01*
X166224000Y-107172000D02*
X166370000Y-107026000D01*
X166370000Y-107026000D02*
X166370000Y-106426000D01*
X166370000Y-106426000D02*
X167270000Y-106426000D01*
X168580466Y-107736466D02*
X168580466Y-108821262D01*
X168580466Y-108821262D02*
X168580466Y-109696262D01*
X168640000Y-112014000D02*
X168640000Y-109755796D01*
X168640000Y-109755796D02*
X168580466Y-109696262D01*
X180020000Y-111447295D02*
X180020000Y-110547295D01*
X180020000Y-110547295D02*
X179454705Y-109982000D01*
X179454705Y-109982000D02*
X175405454Y-109982000D01*
X175405454Y-109982000D02*
X174929796Y-109506342D01*
X174929796Y-109506342D02*
X174929796Y-108756342D01*
X168580466Y-109696262D02*
X168580466Y-109571262D01*
X170665386Y-108756342D02*
X173079796Y-108756342D01*
X173079796Y-108756342D02*
X174929796Y-108756342D01*
%TO.N,GND*%
X168910000Y-91040000D02*
X168910000Y-92456000D01*
X168690000Y-90170000D02*
X168690000Y-90820000D01*
X168690000Y-90820000D02*
X168910000Y-91040000D01*
X154275260Y-85344000D02*
X154275260Y-85191847D01*
X154275260Y-85191847D02*
X154989313Y-84477794D01*
X153416000Y-85344000D02*
X154275260Y-85344000D01*
X176022000Y-90696000D02*
X176022000Y-91186000D01*
X176022000Y-89916000D02*
X176022000Y-90696000D01*
X175768000Y-84074000D02*
X176530000Y-84074000D01*
X176530000Y-84074000D02*
X177800000Y-82804000D01*
X177970000Y-84074000D02*
X177970000Y-82974000D01*
X177970000Y-82974000D02*
X177800000Y-82804000D01*
X177993796Y-102608342D02*
X177993796Y-103483342D01*
X177993796Y-103483342D02*
X177546000Y-103931138D01*
X177546000Y-103931138D02*
X177546000Y-107188000D01*
X177546000Y-107560546D02*
X177546000Y-107188000D01*
X177789796Y-108704342D02*
X177789796Y-107804342D01*
X177789796Y-107804342D02*
X177546000Y-107560546D01*
X166640000Y-112014000D02*
X166640000Y-109755796D01*
X166640000Y-109755796D02*
X166580466Y-109696262D01*
X162560000Y-88392000D02*
X162560000Y-86868000D01*
X164509999Y-93980000D02*
X164846000Y-93980000D01*
X163659999Y-93980000D02*
X164509999Y-93980000D01*
X159893000Y-89789000D02*
X159975800Y-89871800D01*
X159975800Y-89871800D02*
X159975800Y-89916000D01*
X159639000Y-89789000D02*
X159893000Y-89789000D01*
X158590000Y-89789000D02*
X159639000Y-89789000D01*
X162687000Y-88519000D02*
X162560000Y-88392000D01*
X163990000Y-88519000D02*
X162687000Y-88519000D01*
X144780000Y-100750000D02*
X144780000Y-100076000D01*
X144780000Y-101600000D02*
X144780000Y-100750000D01*
X144018000Y-105410000D02*
X143494000Y-105410000D01*
X143494000Y-105410000D02*
X142732000Y-104648000D01*
X145304000Y-105918000D02*
X144526000Y-105918000D01*
X144526000Y-105918000D02*
X144018000Y-105410000D01*
X145050000Y-106047000D02*
X145050000Y-106172000D01*
X142322001Y-104648000D02*
X142732000Y-104648000D01*
X156324442Y-96659558D02*
X156718000Y-96266000D01*
X155630361Y-97295953D02*
X156266756Y-96659558D01*
X156266756Y-96659558D02*
X156324442Y-96659558D01*
X153584000Y-81280000D02*
X154940000Y-81280000D01*
X157129555Y-84739556D02*
X156349665Y-84739556D01*
X156349665Y-84739556D02*
X155822739Y-84212630D01*
X154989313Y-84477794D02*
X155254477Y-84212630D01*
X155254477Y-84212630D02*
X155822739Y-84212630D01*
X148983558Y-105270442D02*
X148844000Y-105410000D01*
X149619953Y-103306361D02*
X148983558Y-103942756D01*
X148983558Y-103942756D02*
X148983558Y-105270442D01*
X166624000Y-108777728D02*
X166624000Y-107696000D01*
X166580466Y-109696262D02*
X166580466Y-108821262D01*
X166580466Y-108821262D02*
X166624000Y-108777728D01*
X163270000Y-105172000D02*
X164322000Y-105172000D01*
X164322000Y-105172000D02*
X164592000Y-104902000D01*
X146738497Y-93684132D02*
X146599868Y-93684132D01*
X146599868Y-93684132D02*
X145542000Y-94742000D01*
X143385000Y-87376000D02*
X143764000Y-87376000D01*
X143764000Y-87376000D02*
X144018000Y-87630000D01*
X142240000Y-87106000D02*
X143115000Y-87106000D01*
X143115000Y-87106000D02*
X143385000Y-87376000D01*
X149425503Y-93259868D02*
X149425503Y-94208396D01*
X149425503Y-94208396D02*
X149860000Y-94642893D01*
X146956214Y-90787786D02*
X147210214Y-90787786D01*
X147210214Y-90787786D02*
X148336000Y-89662000D01*
X148982630Y-90308630D02*
X148336000Y-89662000D01*
X149660893Y-90732893D02*
X149236630Y-90308630D01*
X149236630Y-90308630D02*
X148982630Y-90308630D01*
X175768000Y-84074000D02*
X175768000Y-83820000D01*
X175256000Y-78232000D02*
X175768000Y-78232000D01*
X173990000Y-78105000D02*
X175129000Y-78105000D01*
X175129000Y-78105000D02*
X175256000Y-78232000D01*
X168910000Y-83990000D02*
X168910000Y-82550000D01*
X164674000Y-82042000D02*
X163830000Y-82042000D01*
X165524000Y-82042000D02*
X164674000Y-82042000D01*
X172989840Y-111506000D02*
X172212000Y-111506000D01*
X173898545Y-111447295D02*
X173048545Y-111447295D01*
X173048545Y-111447295D02*
X172989840Y-111506000D01*
%TO.N,Net-(C2-Pad1)*%
X146812000Y-107442000D02*
X146812000Y-106410000D01*
X146812000Y-106410000D02*
X147304000Y-105918000D01*
X144044000Y-107442000D02*
X145288000Y-107442000D01*
X142936000Y-106934000D02*
X143536000Y-106934000D01*
X143536000Y-106934000D02*
X144044000Y-107442000D01*
X147304000Y-105918000D02*
X147304000Y-105793000D01*
X147304000Y-105793000D02*
X148417873Y-104679127D01*
X148417873Y-104679127D02*
X148417873Y-104394000D01*
D36*
X148417873Y-104394000D02*
X148417873Y-104546127D01*
X148417873Y-103377071D02*
X148417873Y-104394000D01*
D35*
X147050000Y-106047000D02*
X147050000Y-106172000D01*
D37*
%TO.N,Net-(C3-Pad1)*%
X182880000Y-91186000D02*
X182421811Y-90727811D01*
X182421811Y-90727811D02*
X182421811Y-87032518D01*
X182421811Y-87032518D02*
X180850293Y-85461000D01*
X180850293Y-85461000D02*
X175030000Y-85461000D01*
X175030000Y-85461000D02*
X173768000Y-84199000D01*
X173768000Y-84199000D02*
X173768000Y-84074000D01*
X180086000Y-90678000D02*
X179832000Y-90932000D01*
X179832000Y-90932000D02*
X179832000Y-91186000D01*
X180086000Y-89850000D02*
X180086000Y-90678000D01*
X177922000Y-89916000D02*
X180020000Y-89916000D01*
X180020000Y-89916000D02*
X180086000Y-89850000D01*
X173768000Y-84074000D02*
X173768000Y-81754000D01*
X173768000Y-81754000D02*
X173548000Y-81534000D01*
X181483000Y-79809000D02*
X174973000Y-79809000D01*
X174973000Y-79809000D02*
X173548000Y-81234000D01*
X173548000Y-81234000D02*
X173548000Y-81534000D01*
%TO.N,Net-(C6-Pad2)*%
X174624000Y-96012000D02*
X176972000Y-93664000D01*
X176972000Y-93664000D02*
X176972000Y-89916000D01*
X174624000Y-96012000D02*
X174624000Y-90788000D01*
X174624000Y-90788000D02*
X173736000Y-89900000D01*
X174370000Y-99060000D02*
X174370000Y-96610000D01*
%TO.N,Net-(C6-Pad1)*%
X173736000Y-87900000D02*
X175838000Y-87900000D01*
X175838000Y-87900000D02*
X176022000Y-87716000D01*
%TO.N,Net-(C7-Pad1)*%
X174929796Y-102556342D02*
X176029796Y-102556342D01*
X176029796Y-102556342D02*
X179324000Y-99262138D01*
X179324000Y-99262138D02*
X179324000Y-96012000D01*
X179993796Y-102608342D02*
X179993796Y-103706342D01*
X179993796Y-103706342D02*
X178993796Y-104706342D01*
X179324000Y-96012000D02*
X179324000Y-101938546D01*
X179324000Y-101938546D02*
X179993796Y-102608342D01*
D35*
%TO.N,+3V3*%
X142240000Y-85106000D02*
X142240000Y-82870000D01*
X142240000Y-82870000D02*
X142306000Y-82804000D01*
X146050000Y-85156001D02*
X144358001Y-85156001D01*
X144358001Y-85156001D02*
X142306000Y-83104000D01*
X142306000Y-83104000D02*
X142306000Y-82804000D01*
X140970000Y-113193647D02*
X142076353Y-114300000D01*
X139954000Y-112177647D02*
X140970000Y-113193647D01*
X140970000Y-113193647D02*
X139954599Y-112178246D01*
X139954599Y-112178246D02*
X139954599Y-93472599D01*
X139954599Y-93472599D02*
X139954000Y-93472000D01*
X142365000Y-85106000D02*
X144600201Y-87341201D01*
X142240000Y-85106000D02*
X142365000Y-85106000D01*
X144600201Y-87341201D02*
X144600201Y-88825799D01*
X144600201Y-88825799D02*
X142114102Y-91311898D01*
X142114102Y-91311898D02*
X141809303Y-91616697D01*
X165290873Y-86286135D02*
X165290873Y-88620873D01*
X165290873Y-88620873D02*
X165890000Y-89220000D01*
X165890000Y-89220000D02*
X166590000Y-89220000D01*
X164986921Y-91751599D02*
X165437322Y-92202000D01*
X165437322Y-92202000D02*
X167131999Y-93896677D01*
X166590000Y-89220000D02*
X166558000Y-89220000D01*
X166558000Y-89220000D02*
X165437322Y-90340678D01*
X165437322Y-90340678D02*
X165437322Y-92202000D01*
X160560000Y-86868000D02*
X160560000Y-90811584D01*
X167131999Y-95503999D02*
X167527845Y-95899845D01*
X160560000Y-90811584D02*
X161500015Y-91751599D01*
X161500015Y-91751599D02*
X164986921Y-91751599D01*
X167131999Y-93896677D02*
X167131999Y-95503999D01*
X167527845Y-95899845D02*
X167832644Y-96204644D01*
%TO.N,RS*%
X159258000Y-102546600D02*
X158830398Y-102546600D01*
X158830398Y-102546600D02*
X157893103Y-101609305D01*
%TO.N,SCL*%
X144206000Y-82804000D02*
X145487432Y-82804000D01*
X145487432Y-82804000D02*
X145768716Y-83085284D01*
X144206000Y-82804000D02*
X144206000Y-83104000D01*
%TO.N,+3V3*%
X146050000Y-84948000D02*
X146050000Y-85156001D01*
X140558322Y-92867678D02*
X139954000Y-93472000D01*
X142076353Y-114300000D02*
X167978322Y-114300000D01*
X167978322Y-114300000D02*
X170180000Y-112098322D01*
X170180000Y-112098322D02*
X170180000Y-109728000D01*
X169875201Y-98501201D02*
X169278433Y-97904433D01*
X169164000Y-97790000D02*
X169278433Y-97904433D01*
X170180000Y-100330000D02*
X169875201Y-100025201D01*
X169875201Y-100025201D02*
X169875201Y-98501201D01*
X170180000Y-108204000D02*
X170180000Y-103124000D01*
X141732000Y-91694000D02*
X141809303Y-91616697D01*
X159233393Y-87097393D02*
X160330607Y-87097393D01*
X160330607Y-87097393D02*
X160560000Y-86868000D01*
X156881751Y-83475751D02*
X157135751Y-83475751D01*
X157135751Y-83475751D02*
X157734000Y-84074000D01*
X154635759Y-84124241D02*
X155284249Y-83475751D01*
X155284249Y-83475751D02*
X156881751Y-83475751D01*
D36*
X160306000Y-87122000D02*
X160560000Y-86868000D01*
%TO.N,Net-(C2-Pad1)*%
X149054268Y-102740676D02*
X148417873Y-103377071D01*
%TO.N,Net-(C3-Pad1)*%
X173609000Y-83266000D02*
X173609000Y-83566000D01*
%TO.N,Net-(C4-Pad1)*%
X147869868Y-94815503D02*
X148435553Y-94249818D01*
X148435553Y-94249818D02*
X148435553Y-93998918D01*
X148435553Y-93998918D02*
X146638635Y-92202000D01*
X146638635Y-92202000D02*
X146349107Y-92202000D01*
X146349107Y-92202000D02*
X145542000Y-92202000D01*
X147869868Y-94815503D02*
X148364842Y-95310477D01*
X148364842Y-95310477D02*
X149331533Y-95310477D01*
X149331533Y-95310477D02*
X150114929Y-96093873D01*
X150114929Y-96093873D02*
X150751324Y-96730268D01*
X150279459Y-96258403D02*
X150751324Y-96730268D01*
%TO.N,Net-(C5-Pad1)*%
X151075107Y-92147107D02*
X150268000Y-92147107D01*
X150268000Y-92147107D02*
X150184112Y-92063219D01*
X150184112Y-92063219D02*
X149307938Y-92063219D01*
X149307938Y-92063219D02*
X149242660Y-92128497D01*
X149242660Y-92128497D02*
X148294132Y-92128497D01*
X151075107Y-92147107D02*
X151075107Y-92954214D01*
X151075107Y-92954214D02*
X150680615Y-93348706D01*
X150680615Y-93348706D02*
X150680615Y-95528188D01*
X150680615Y-95528188D02*
X151317010Y-96164583D01*
X151317010Y-96164583D02*
X150845145Y-95692718D01*
X151317010Y-96164583D02*
X151317010Y-95945010D01*
%TO.N,Net-(C6-Pad2)*%
X173736000Y-98426000D02*
X174370000Y-99060000D01*
%TO.N,Net-(C7-Pad1)*%
X179216395Y-101705941D02*
X179993796Y-102483342D01*
X179993796Y-102483342D02*
X179993796Y-102608342D01*
%TO.N,+3V3*%
X142306000Y-85040000D02*
X142240000Y-85106000D01*
D37*
%TO.N,Net-(D1-Pad2)*%
X180170000Y-84074000D02*
X180170000Y-82712000D01*
X180170000Y-82712000D02*
X178992000Y-81534000D01*
X178992000Y-81534000D02*
X176560000Y-81534000D01*
X176560000Y-81534000D02*
X175448000Y-81534000D01*
D35*
%TO.N,Net-(D2-Pad2)*%
X159929751Y-95340249D02*
X160099752Y-95340249D01*
X160099752Y-95340249D02*
X161460001Y-93980000D01*
%TO.N,Net-(D3-Pad2)*%
X144846001Y-103632000D02*
X144846001Y-103332000D01*
X144846001Y-103332000D02*
X143114001Y-101600000D01*
X143114001Y-101600000D02*
X142580002Y-101600000D01*
D36*
%TO.N,Net-(D4-Pad2)*%
X176098545Y-111447295D02*
X178120000Y-111447295D01*
D37*
%TO.N,+12V*%
X164846000Y-78740000D02*
X170434000Y-78740000D01*
X171218376Y-77948002D02*
X171218376Y-77955624D01*
X171218376Y-77955624D02*
X170434000Y-78740000D01*
X171218376Y-77948002D02*
X173474378Y-75692000D01*
X173474378Y-75692000D02*
X175831500Y-75692000D01*
X175831500Y-75692000D02*
X178054000Y-77914500D01*
X178054000Y-77914500D02*
X178054000Y-78105000D01*
X178054000Y-78105000D02*
X180287000Y-78105000D01*
X180287000Y-78105000D02*
X181483000Y-76909000D01*
D36*
X177673000Y-77914500D02*
X177673000Y-78105000D01*
X177673000Y-78295500D02*
X177673000Y-78105000D01*
X177673000Y-78105000D02*
X180795000Y-78105000D01*
X180795000Y-78105000D02*
X181483000Y-77417000D01*
D35*
%TO.N,Net-(D6-Pad2)*%
X151384000Y-81788000D02*
X150047999Y-81788000D01*
X150047999Y-81788000D02*
X149793999Y-81534000D01*
%TO.N,VCC*%
X165229873Y-84127135D02*
X165229873Y-83827135D01*
%TO.N,Net-(D8-Pad2)*%
X167190873Y-86286135D02*
X168922135Y-86286135D01*
X168922135Y-86286135D02*
X169164000Y-86528000D01*
X169164000Y-86360000D02*
X169164000Y-86528000D01*
X167190873Y-86286135D02*
X167190873Y-86047127D01*
D36*
X168813865Y-86286135D02*
X168910000Y-86190000D01*
D35*
%TO.N,MISO*%
X160782000Y-76962000D02*
X160782000Y-76454000D01*
X160782000Y-76454000D02*
X161036000Y-76200000D01*
D36*
X170688000Y-83923618D02*
X170688000Y-95504000D01*
D35*
X170189811Y-96166871D02*
X170688000Y-95668682D01*
X170688000Y-95668682D02*
X170688000Y-95504000D01*
X169926000Y-82544678D02*
X168545921Y-81164599D01*
X168545921Y-81164599D02*
X163437401Y-81164599D01*
X163437401Y-81164599D02*
X163437401Y-78498847D01*
X163437401Y-78498847D02*
X162662554Y-77724000D01*
X162662554Y-77724000D02*
X160782000Y-77724000D01*
D36*
X160782000Y-77724000D02*
X160782000Y-78486000D01*
X160782000Y-76962000D02*
X160782000Y-77724000D01*
X169931322Y-82550000D02*
X170189811Y-82808489D01*
D35*
X170688000Y-83923618D02*
X170688000Y-83306678D01*
X170688000Y-83306678D02*
X169931322Y-82550000D01*
D36*
X170189811Y-96166871D02*
X165901681Y-100455001D01*
X164212999Y-98742092D02*
X162814000Y-97343093D01*
X165901681Y-100455001D02*
X164806319Y-100455001D01*
X164806319Y-100455001D02*
X164212999Y-99861681D01*
X164212999Y-99861681D02*
X164212999Y-98742092D01*
X162814000Y-97343093D02*
X162814000Y-96774000D01*
X160782000Y-78486000D02*
X160782000Y-79904410D01*
X157893103Y-99558695D02*
X160029305Y-99558695D01*
X160029305Y-99558695D02*
X162814000Y-96774000D01*
X160782000Y-79904410D02*
X159914410Y-80772000D01*
X159914410Y-80772000D02*
X159914410Y-83349977D01*
X159914410Y-83349977D02*
X157142571Y-86121816D01*
X157142571Y-86121816D02*
X155608030Y-86121816D01*
X155608030Y-86121816D02*
X155342866Y-85856652D01*
%TO.N,MOSI*%
X170178050Y-94742000D02*
X170179459Y-88138000D01*
D35*
X165974548Y-88138000D02*
X170179459Y-88138000D01*
X165918274Y-88081726D02*
X165974548Y-88138000D01*
X164369401Y-85312599D02*
X165816659Y-85312599D01*
X165918274Y-85414214D02*
X165918274Y-88081726D01*
X165816659Y-85312599D02*
X165918274Y-85414214D01*
X160528000Y-81026000D02*
X161656001Y-79897999D01*
X161656001Y-79897999D02*
X161656001Y-79389999D01*
X161656001Y-79389999D02*
X162306000Y-78740000D01*
X164369401Y-85312599D02*
X161886259Y-82829457D01*
X161886259Y-82829457D02*
X161886259Y-82715741D01*
X161886259Y-82715741D02*
X162052000Y-82550000D01*
D36*
X162052000Y-82550000D02*
X160528000Y-81026000D01*
X170178000Y-94971921D02*
X170178050Y-94742000D01*
D35*
X169672000Y-96012000D02*
X170178050Y-95505950D01*
X170178050Y-95505950D02*
X170178050Y-94742000D01*
X169672000Y-96012000D02*
X169785401Y-95898599D01*
X167233599Y-98450401D02*
X169672000Y-96012000D01*
X165354000Y-99314000D02*
X166217599Y-98450401D01*
X166217599Y-98450401D02*
X167233599Y-98450401D01*
X157327417Y-98993010D02*
X157963812Y-98356615D01*
X157963812Y-98356615D02*
X159004863Y-98356615D01*
X159004863Y-98356615D02*
X161728479Y-95632999D01*
X161728479Y-95632999D02*
X163899521Y-95632999D01*
D36*
X164212999Y-98172999D02*
X164490401Y-98450401D01*
X163899521Y-95632999D02*
X164212999Y-95946477D01*
X164212999Y-95946477D02*
X164212999Y-98172999D01*
X164490401Y-98450401D02*
X165354000Y-99314000D01*
X160528000Y-81026000D02*
X160528000Y-83305479D01*
X160528000Y-83305479D02*
X157219479Y-86614000D01*
X157219479Y-86614000D02*
X155393107Y-86614000D01*
X155393107Y-86614000D02*
X155254477Y-86475370D01*
X155254477Y-86475370D02*
X154989313Y-86210206D01*
%TO.N,E*%
X154940000Y-112522000D02*
X154940000Y-109879446D01*
X154940000Y-109879446D02*
X156832442Y-107987004D01*
X156832442Y-107987004D02*
X156832442Y-103942756D01*
X156832442Y-103942756D02*
X156196047Y-103306361D01*
D35*
%TO.N,TXCAN*%
X159529322Y-92964000D02*
X158830944Y-92964000D01*
X158830944Y-92964000D02*
X155064676Y-96730268D01*
X158590000Y-88519000D02*
X158115000Y-88519000D01*
X158115000Y-88519000D02*
X157537599Y-89096401D01*
X157708277Y-91751599D02*
X159586921Y-91751599D01*
X159642401Y-91807079D02*
X159642401Y-92850921D01*
X159642401Y-92850921D02*
X159529322Y-92964000D01*
X157537599Y-89096401D02*
X157537599Y-91580921D01*
X157537599Y-91580921D02*
X157708277Y-91751599D01*
X159586921Y-91751599D02*
X159642401Y-91807079D01*
D36*
X159065000Y-88519000D02*
X158590000Y-88519000D01*
D35*
%TO.N,RXCAN*%
X157226000Y-93437573D02*
X157226000Y-93218000D01*
X157226000Y-93218000D02*
X158115000Y-92329000D01*
X158115000Y-92329000D02*
X158590000Y-92329000D01*
X154498990Y-96164583D02*
X157226000Y-93437573D01*
D36*
%TO.N,Net-(IC1-Pad8)*%
X155611751Y-93635751D02*
X153933305Y-95314197D01*
X153933305Y-95314197D02*
X153933305Y-95598897D01*
%TO.N,Net-(IC1-Pad9)*%
X151882695Y-95598897D02*
X152400000Y-95081592D01*
X153325751Y-91603751D02*
X153325751Y-92198726D01*
X153325751Y-92198726D02*
X152400000Y-93124477D01*
X152400000Y-93124477D02*
X152400000Y-95081592D01*
X151801751Y-95517953D02*
X151882695Y-95598897D01*
D35*
%TO.N,SCK*%
X143852599Y-112356599D02*
X143852599Y-111671401D01*
X143852599Y-111671401D02*
X144437401Y-111086599D01*
X141702601Y-107199923D02*
X141702601Y-100778079D01*
X144437401Y-111086599D02*
X144437401Y-109536847D01*
X142761955Y-107861401D02*
X142364079Y-107861401D01*
X141702601Y-100778079D02*
X143997278Y-98483402D01*
X144437401Y-109536847D02*
X142761955Y-107861401D01*
X142364079Y-107861401D02*
X141702601Y-107199923D01*
X143997278Y-98483402D02*
X145687546Y-98483402D01*
X145687546Y-98483402D02*
X146118598Y-98483402D01*
X143852599Y-112967153D02*
X143852599Y-112356599D01*
X160362599Y-110806847D02*
X160362599Y-107878723D01*
X143852599Y-112967153D02*
X144334847Y-113449401D01*
X144334847Y-113449401D02*
X157925153Y-113449401D01*
X157925153Y-113449401D02*
X159092599Y-112281955D01*
X159092599Y-112281955D02*
X159092599Y-112076847D01*
X160362599Y-107878723D02*
X161815322Y-106426000D01*
X161815322Y-106426000D02*
X161815322Y-105664000D01*
X159092599Y-112076847D02*
X160362599Y-110806847D01*
X166246337Y-77724000D02*
X165608000Y-77724000D01*
X165608000Y-77724000D02*
X164503401Y-76619401D01*
X168402000Y-77724000D02*
X168656000Y-77724000D01*
X164503401Y-75981064D02*
X164503401Y-76619401D01*
X164503401Y-75603401D02*
X164503401Y-75981064D01*
X166246337Y-77724000D02*
X168402000Y-77724000D01*
X163770189Y-74870189D02*
X164503401Y-75603401D01*
X158453257Y-74870189D02*
X163770189Y-74870189D01*
X157568599Y-75754847D02*
X158453257Y-74870189D01*
X158846762Y-78740000D02*
X157568599Y-77461837D01*
X157568599Y-77461837D02*
X157568599Y-75754847D01*
X159766000Y-78740000D02*
X158846762Y-78740000D01*
X161815322Y-104919322D02*
X161815322Y-105664000D01*
X161815322Y-105664000D02*
X161815322Y-106163198D01*
X161815322Y-106163198D02*
X161946723Y-106294599D01*
X170180000Y-79756000D02*
X170180000Y-81657664D01*
X170180000Y-81657664D02*
X171494820Y-82972484D01*
X171494820Y-82972484D02*
X171494820Y-83058000D01*
X171494820Y-82972483D02*
X171494820Y-83058000D01*
D36*
X171494820Y-83058000D02*
X171450000Y-100838000D01*
D35*
X171196000Y-101199324D02*
X171196000Y-101092000D01*
X171196000Y-101092000D02*
X171450000Y-100838000D01*
D36*
X159512000Y-79756000D02*
X159512000Y-83183294D01*
D35*
X159766000Y-79659238D02*
X159766000Y-78740000D01*
X159512000Y-79756000D02*
X159669238Y-79756000D01*
X159669238Y-79756000D02*
X159766000Y-79659238D01*
X171196000Y-101199324D02*
X166731324Y-105664000D01*
X166431093Y-105664000D02*
X166731324Y-105664000D01*
D36*
X164477322Y-105664000D02*
X163846723Y-106294599D01*
X166431093Y-105664000D02*
X164477322Y-105664000D01*
X163846723Y-106294599D02*
X161946723Y-106294599D01*
X159512000Y-83183294D02*
X157269482Y-85425813D01*
X157269482Y-85425813D02*
X156464000Y-85425813D01*
X155415215Y-84758999D02*
X155342866Y-84831348D01*
X156464000Y-85425813D02*
X155797186Y-84758999D01*
X155797186Y-84758999D02*
X155415215Y-84758999D01*
X160528000Y-102362000D02*
X162814000Y-100076000D01*
X162814000Y-100076000D02*
X162814000Y-99314000D01*
X161815322Y-104919322D02*
X160528000Y-103701400D01*
X160528000Y-103632000D02*
X160528000Y-103701400D01*
X150185639Y-97295953D02*
X149549244Y-96659558D01*
X149549244Y-96659558D02*
X148729558Y-96659558D01*
X148729558Y-96659558D02*
X148336000Y-96266000D01*
X150185639Y-97295953D02*
X149713774Y-96824088D01*
%TO.N,DB6*%
X146050000Y-109982000D02*
X146699999Y-109332001D01*
X146699999Y-109332001D02*
X146699999Y-108489057D01*
X146699999Y-108489057D02*
X150114929Y-105074127D01*
X150114929Y-105074127D02*
X150751324Y-104437732D01*
D35*
%TO.N,DB7*%
X147373400Y-104503921D02*
X146861722Y-105015599D01*
X144780000Y-111760000D02*
X144780000Y-112522000D01*
X148488583Y-102174990D02*
X147373400Y-103290173D01*
X147373400Y-103290173D02*
X147373400Y-104503921D01*
X146861722Y-105015599D02*
X146582079Y-105015599D01*
X146582079Y-105015599D02*
X146081401Y-105516277D01*
X146050000Y-108966000D02*
X145693446Y-108966000D01*
X145034000Y-111506000D02*
X144780000Y-111760000D01*
X146081401Y-105516277D02*
X146081401Y-108934599D01*
X146081401Y-108934599D02*
X146050000Y-108966000D01*
X145693446Y-108966000D02*
X145034000Y-109625446D01*
X145034000Y-109625446D02*
X145034000Y-111506000D01*
D36*
%TO.N,CS*%
X144066685Y-92710000D02*
X144066685Y-92963683D01*
X144066685Y-91733773D02*
X144066685Y-92710000D01*
X148328246Y-97225244D02*
X148590000Y-97225244D01*
X148590000Y-97225244D02*
X148983558Y-97225244D01*
D35*
X144066685Y-92710000D02*
X144066685Y-94128343D01*
X144066685Y-94128343D02*
X147163586Y-97225244D01*
X147163586Y-97225244D02*
X148590000Y-97225244D01*
D36*
X144164932Y-91733773D02*
X146998705Y-88900000D01*
X154940000Y-87609839D02*
X154940000Y-88584908D01*
X154635759Y-86563759D02*
X154949780Y-86877780D01*
X154949780Y-86877780D02*
X154949780Y-87600059D01*
X154651586Y-88873322D02*
X147025383Y-88873322D01*
X154949780Y-87600059D02*
X154940000Y-87609839D01*
X154940000Y-88584908D02*
X154651586Y-88873322D01*
X147025383Y-88873322D02*
X146998705Y-88900000D01*
X144066685Y-91733773D02*
X144164932Y-91733773D01*
X148983558Y-97225244D02*
X149619953Y-97861639D01*
%TO.N,DB0*%
X153670000Y-109982000D02*
X156266756Y-107385244D01*
X156266756Y-107385244D02*
X156266756Y-104508442D01*
X156266756Y-104508442D02*
X155630361Y-103872047D01*
%TO.N,DB1*%
X155864346Y-106415100D02*
X155864346Y-105237402D01*
X155864346Y-105237402D02*
X155064676Y-104437732D01*
X152400000Y-112522000D02*
X152400000Y-109879446D01*
X152400000Y-109879446D02*
X155864346Y-106415100D01*
%TO.N,DB2*%
X151130000Y-109982000D02*
X155135385Y-105976615D01*
X155135385Y-105976615D02*
X155135385Y-105639812D01*
X155135385Y-105639812D02*
X154498990Y-105003417D01*
D35*
%TO.N,IMD*%
X152146000Y-78740000D02*
X151218599Y-79667401D01*
X151218599Y-79667401D02*
X149160847Y-79667401D01*
X149160847Y-79667401D02*
X148678599Y-79185153D01*
X148678599Y-79185153D02*
X148678599Y-78980045D01*
X148678599Y-78980045D02*
X147408599Y-77710045D01*
X143510000Y-77724000D02*
X140806599Y-77724000D01*
X147408599Y-77710045D02*
X147408599Y-76440045D01*
X147408599Y-76440045D02*
X146241153Y-75272599D01*
X146241153Y-75272599D02*
X145350847Y-75272599D01*
X145350847Y-75272599D02*
X144868599Y-75754847D01*
X144868599Y-75754847D02*
X144868599Y-77024847D01*
X144169446Y-77724000D02*
X143510000Y-77724000D01*
X144868599Y-77024847D02*
X144169446Y-77724000D01*
X140806599Y-79756000D02*
X140806599Y-77724000D01*
D36*
X140806599Y-89916000D02*
X140806599Y-79756000D01*
X140806599Y-79756000D02*
X140806599Y-79502000D01*
X140806599Y-79502000D02*
X140804599Y-79056847D01*
X140804599Y-90270689D02*
X140806599Y-89916000D01*
D35*
X148417873Y-97790929D02*
X147160179Y-97790929D01*
X147160179Y-97790929D02*
X140806599Y-91437349D01*
X140806599Y-91437349D02*
X140806599Y-90785701D01*
X140806599Y-90785701D02*
X140806599Y-89916000D01*
D36*
X149054268Y-98427324D02*
X148417873Y-97790929D01*
X148417873Y-97790929D02*
X148324839Y-97790929D01*
X149054268Y-98427324D02*
X148582404Y-97955460D01*
X149054268Y-98427324D02*
X148581149Y-97954205D01*
D35*
%TO.N,AMS*%
X140402189Y-78189256D02*
X140402189Y-77559317D01*
X140402189Y-77559317D02*
X140745506Y-77216000D01*
X140745506Y-77216000D02*
X143612553Y-77216000D01*
X143612553Y-77216000D02*
X144183400Y-76645153D01*
X144183400Y-76645153D02*
X144183400Y-75870954D01*
X144183400Y-75870954D02*
X145184164Y-74870189D01*
X145184164Y-74870189D02*
X148378743Y-74870189D01*
X148378743Y-74870189D02*
X149606000Y-76097446D01*
X149606000Y-76097446D02*
X149606000Y-77820762D01*
X149606000Y-77820762D02*
X149606000Y-78740000D01*
D36*
X140402189Y-90424000D02*
X140402189Y-90618189D01*
X140402189Y-78189256D02*
X140402189Y-90424000D01*
D35*
X140402189Y-90424000D02*
X140402189Y-91888189D01*
X140402189Y-91888189D02*
X146870615Y-98356615D01*
X146870615Y-98356615D02*
X147852188Y-98356615D01*
X147852188Y-98356615D02*
X148488583Y-98993010D01*
D36*
X148016718Y-98521145D02*
X148488583Y-98993010D01*
%TO.N,DB3*%
X149860000Y-112522000D02*
X149860000Y-109642408D01*
X149860000Y-109642408D02*
X153933305Y-105569103D01*
%TO.N,RS*%
X159004000Y-103701400D02*
X159004000Y-105184907D01*
X157637262Y-106551645D02*
X157637262Y-111445500D01*
X157637262Y-111445500D02*
X157480000Y-111602762D01*
X159004000Y-105184907D02*
X157637262Y-106551645D01*
X157480000Y-111602762D02*
X157480000Y-112522000D01*
X159442600Y-102546600D02*
X159258000Y-102546600D01*
X157893103Y-101609305D02*
X158529498Y-102245700D01*
%TO.N,DB4*%
X148590000Y-109982000D02*
X151882695Y-106689305D01*
X151882695Y-106689305D02*
X151882695Y-105569103D01*
%TO.N,R/W*%
X156210000Y-109220000D02*
X156549538Y-108880462D01*
X156549538Y-108880462D02*
X156549538Y-108839000D01*
X156210000Y-109982000D02*
X156210000Y-109220000D01*
X156761732Y-102740676D02*
X157234852Y-103213796D01*
X157234852Y-103213796D02*
X157234852Y-108153687D01*
X157234852Y-108153687D02*
X156549538Y-108839000D01*
D35*
%TO.N,RESET*%
X170434000Y-82480756D02*
X170688000Y-82734756D01*
X170434000Y-82480756D02*
X171092410Y-83139166D01*
X168715433Y-80762189D02*
X170434000Y-82480756D01*
D36*
X170592221Y-100933779D02*
X170180000Y-101346000D01*
X170180000Y-101346000D02*
X166938999Y-104587001D01*
D35*
X171092410Y-83139166D02*
X171092410Y-100372497D01*
X171092410Y-100372497D02*
X170180000Y-101284907D01*
X170180000Y-101284907D02*
X170180000Y-101346000D01*
X164582189Y-80762189D02*
X168715433Y-80762189D01*
X170688000Y-82734756D02*
X170688000Y-82737586D01*
X158496000Y-76200000D02*
X159423401Y-75272599D01*
X161963401Y-75754847D02*
X161963401Y-76455754D01*
X159423401Y-75272599D02*
X161481153Y-75272599D01*
X161481153Y-75272599D02*
X161963401Y-75754847D01*
X161963401Y-76455754D02*
X163918599Y-78410952D01*
X163918599Y-78410952D02*
X163918599Y-80098599D01*
X163918599Y-80098599D02*
X164582189Y-80762189D01*
X162814000Y-101853999D02*
X165486003Y-104526002D01*
X165486003Y-104526002D02*
X166370000Y-104526002D01*
D36*
X157327417Y-102174990D02*
X158276427Y-103124000D01*
X158276427Y-103124000D02*
X161543999Y-103124000D01*
X161543999Y-103124000D02*
X161950401Y-102717598D01*
X161950401Y-102717598D02*
X162814000Y-101853999D01*
X167132000Y-104394000D02*
X166937092Y-104588908D01*
X166938999Y-104587001D02*
X167132000Y-104394000D01*
X157327417Y-102174990D02*
X157799282Y-102646855D01*
%TO.N,DB5*%
X147320000Y-112522000D02*
X147320000Y-109000427D01*
X147320000Y-109000427D02*
X151317010Y-105003417D01*
D35*
%TO.N,CANH*%
X158934600Y-81280000D02*
X157226000Y-79571400D01*
X157226000Y-79571400D02*
X157226000Y-78740000D01*
D36*
X161105400Y-82550000D02*
X161105400Y-83041509D01*
X161105400Y-83041509D02*
X161739811Y-83675920D01*
X161739811Y-83675920D02*
X161739811Y-89603811D01*
X161739811Y-89603811D02*
X161925000Y-89789000D01*
X161925000Y-89789000D02*
X163990000Y-89789000D01*
X158750000Y-81280000D02*
X158934600Y-81280000D01*
X159004000Y-81280000D02*
X158934600Y-81280000D01*
D35*
%TO.N,CANL*%
X155702001Y-76962000D02*
X155702001Y-76454000D01*
X155702001Y-76454000D02*
X155956001Y-76200000D01*
D36*
X161337401Y-90979401D02*
X161417000Y-91059000D01*
X161417000Y-91059000D02*
X163990000Y-91059000D01*
X160929692Y-83720355D02*
X161337401Y-84128064D01*
X161337401Y-84128064D02*
X161337401Y-90979401D01*
X160929692Y-83720355D02*
X161229691Y-84020354D01*
X161229691Y-84020354D02*
X161236354Y-84020354D01*
X158393446Y-82296000D02*
X158934600Y-82144681D01*
X159004000Y-82296000D02*
X159004000Y-82214081D01*
X159004000Y-82214081D02*
X158934600Y-82144681D01*
X155702001Y-76962000D02*
X155702001Y-79604555D01*
X155702001Y-79604555D02*
X158393446Y-82296000D01*
%TO.N,LED1*%
X158303092Y-82804000D02*
X155956000Y-80456908D01*
X155956000Y-80456908D02*
X155763092Y-80264000D01*
D35*
X154432000Y-78740000D02*
X155194000Y-78740000D01*
X155194000Y-78740000D02*
X155297591Y-78843591D01*
X155297591Y-78843591D02*
X155297591Y-79798499D01*
X155297591Y-79798499D02*
X155956000Y-80456908D01*
D36*
X158884945Y-82895442D02*
X158658558Y-82895442D01*
X158658558Y-82895442D02*
X158567116Y-82804000D01*
X158567116Y-82804000D02*
X158303092Y-82804000D01*
X158681516Y-82896962D02*
X158683036Y-82895442D01*
X158683036Y-82895442D02*
X158884945Y-82895442D01*
X160298023Y-84352023D02*
X160298023Y-85206578D01*
X160298023Y-85206578D02*
X154798578Y-90706023D01*
X154798578Y-90706023D02*
X154798578Y-91761920D01*
X154798578Y-91761920D02*
X154268249Y-92292249D01*
D35*
%TO.N,LED2*%
X158404363Y-83474363D02*
X158099564Y-83169564D01*
X158099564Y-83169564D02*
X158096734Y-83169564D01*
X158096734Y-83169564D02*
X155445170Y-80518000D01*
X155445170Y-80518000D02*
X154837446Y-80518000D01*
X154837446Y-80518000D02*
X153670000Y-79350554D01*
X153670000Y-79350554D02*
X153670000Y-77373238D01*
X153670000Y-77373238D02*
X153416000Y-77119238D01*
X153416000Y-77119238D02*
X153416000Y-76200000D01*
X153416000Y-76200000D02*
X153416000Y-76454000D01*
D36*
X153824125Y-90578446D02*
X159690309Y-84959738D01*
X159566571Y-84836000D02*
X159690309Y-84959738D01*
X151982249Y-90260249D02*
X152300446Y-90578446D01*
X152300446Y-90578446D02*
X153824125Y-90578446D01*
D35*
%TO.N,SDA*%
X146050000Y-87055999D02*
X147290883Y-87055999D01*
X147290883Y-87055999D02*
X148180232Y-86166650D01*
X146812000Y-79502000D02*
X146812000Y-78994000D01*
X146812000Y-78994000D02*
X147066000Y-78740000D01*
X148290353Y-83395077D02*
X147985554Y-83090278D01*
X147985554Y-83090278D02*
X147731292Y-83090278D01*
X147731292Y-83090278D02*
X146812000Y-82170986D01*
X146812000Y-82170986D02*
X146812000Y-81926340D01*
D36*
X146812000Y-79502000D02*
X146812000Y-81926340D01*
X148029333Y-86015751D02*
X148180232Y-86166650D01*
X148180232Y-86166650D02*
X148180232Y-86590914D01*
X148180232Y-86590914D02*
X149875728Y-88286410D01*
X154547370Y-87433376D02*
X154547370Y-87182477D01*
X149875728Y-88286410D02*
X153694336Y-88286410D01*
X153694336Y-88286410D02*
X154547370Y-87433376D01*
X154547370Y-87182477D02*
X154282206Y-86917313D01*
D35*
%TO.N,SCL*%
X145796000Y-76200000D02*
X145870113Y-80972100D01*
X145796000Y-81026000D02*
X145816213Y-81026000D01*
X145816213Y-81026000D02*
X145870113Y-80972100D01*
X145768716Y-83085284D02*
X146073515Y-83390083D01*
X146073515Y-83390083D02*
X146318161Y-83390083D01*
X146318161Y-83390083D02*
X150752126Y-87824048D01*
X150752126Y-87824048D02*
X153375470Y-87824048D01*
X153375470Y-87824048D02*
X153776625Y-87422893D01*
X153776625Y-87422893D02*
X153928652Y-87270866D01*
D36*
X145892454Y-82961546D02*
X145768716Y-83085284D01*
D35*
%TO.N,INT*%
X144272000Y-80772000D02*
X143764000Y-80772000D01*
D36*
X150682477Y-87182477D02*
X152284630Y-87182477D01*
X152284630Y-87182477D02*
X152549794Y-86917313D01*
X144272000Y-80772000D02*
X150682477Y-87182477D01*
D35*
%TO.N,RST*%
X152400000Y-76351446D02*
X152400000Y-77621446D01*
X152400000Y-77621446D02*
X153073401Y-78294847D01*
X153073401Y-78294847D02*
X153073401Y-80091277D01*
X153073401Y-80091277D02*
X152706599Y-80458079D01*
X152706599Y-80458079D02*
X152706599Y-82101921D01*
X152706599Y-82101921D02*
X153062220Y-82457542D01*
X153062220Y-82457542D02*
X154284649Y-82457542D01*
X154284649Y-82457542D02*
X154940000Y-83112893D01*
X143255999Y-76200000D02*
X144988220Y-74467779D01*
X144988220Y-74467779D02*
X150516333Y-74467779D01*
X150516333Y-74467779D02*
X152400000Y-76351446D01*
X154282206Y-83770687D02*
X154940000Y-83112893D01*
X154940000Y-83112893D02*
X155538249Y-82514644D01*
X155538249Y-82514644D02*
X155538249Y-82132249D01*
%TO.N,EINT*%
X142635999Y-79389999D02*
X143461921Y-79389999D01*
X141986000Y-78740000D02*
X142635999Y-79389999D01*
X143461921Y-79389999D02*
X144439513Y-80367591D01*
D36*
X150849159Y-86780067D02*
X145271629Y-81199707D01*
X145271629Y-81199707D02*
X145199401Y-81130309D01*
D35*
X144439513Y-80367591D02*
X145271629Y-81199707D01*
D36*
X151979933Y-86780067D02*
X150849159Y-86780067D01*
X152196241Y-86563759D02*
X151979933Y-86780067D01*
%TO.N,Net-(J2-Pad3)*%
X158750000Y-109982000D02*
X158750000Y-106442000D01*
X158750000Y-106442000D02*
X159020000Y-106172000D01*
X159020000Y-106172000D02*
X160020000Y-106172000D01*
D37*
%TO.N,Net-(R3-Pad2)*%
X176972000Y-87716000D02*
X176972000Y-88581122D01*
X176972000Y-88581122D02*
X177170279Y-88779401D01*
X177170279Y-88779401D02*
X179256599Y-88779401D01*
X179256599Y-88779401D02*
X180086000Y-87950000D01*
%TO.N,Net-(R10-Pad1)*%
X181507401Y-87411279D02*
X180520122Y-86424000D01*
X180520122Y-86424000D02*
X179009000Y-86424000D01*
X179009000Y-86424000D02*
X177922000Y-87511000D01*
X177922000Y-87511000D02*
X177922000Y-87716000D01*
X178993796Y-106606342D02*
X179293796Y-106606342D01*
X179293796Y-106606342D02*
X181507401Y-104392737D01*
X181507401Y-104392737D02*
X181507401Y-87411279D01*
X179689796Y-108704342D02*
X179689796Y-107302342D01*
X179689796Y-107302342D02*
X178993796Y-106606342D01*
D35*
%TO.N,GPIO_0*%
X153373470Y-82861952D02*
X148921953Y-82861952D01*
X148921953Y-82861952D02*
X147894001Y-81834000D01*
X147894001Y-81834000D02*
X147894001Y-81534000D01*
D36*
X149175953Y-82861952D02*
X149352000Y-82861952D01*
D35*
X148921953Y-82861952D02*
X149352000Y-82861952D01*
D36*
X153373470Y-82861952D02*
X153776625Y-83265107D01*
X153776625Y-83265107D02*
X153928652Y-83417134D01*
D35*
%TO.N,Net-(IC1-Pad3)*%
X158586249Y-96683751D02*
X156842676Y-98427324D01*
X156842676Y-98427324D02*
X156761732Y-98427324D01*
D36*
%TO.N,Net-(IC1-Pad17)*%
X146745999Y-103632000D02*
X146745999Y-102732000D01*
X146745999Y-102732000D02*
X147868694Y-101609305D01*
X147868694Y-101609305D02*
X147922897Y-101609305D01*
%TD*%
M02*
