M48
;DRILL file {KiCad 4.0.7} date 11/20/17 16:46:14
;FORMAT={-:-/ absolute / inch / decimal}
FMAT,2
INCH,TZ
T1C0.012
T2C0.024
T3C0.031
T4C0.040
T5C0.040
T6C0.063
%
G90
G05
M72
T1
X4.98Y-4.61
X5.08Y-4.64
X5.1Y-2.85
X5.1Y-2.9
X5.12Y-3.31
X5.15Y-2.85
X5.15Y-2.9
X5.15Y-3.34
X5.17Y-4.4
X5.18Y-3.37
X5.19Y-4.5
X5.21Y-3.4
X5.22Y-3.69
X5.24Y-3.76
X5.28Y-3.25
X5.28Y-3.85
X5.31Y-2.53
X5.31Y-3.28
X5.32Y-3.76
X5.34Y-3.31
X5.35Y-3.5
X5.35Y-3.71
X5.37Y-3.34
X5.4Y-3.85
X5.51Y-4.12
X5.6Y-3.62
X5.6Y-3.82
X5.63Y-3.72
X5.64Y-2.62
X5.64Y-3.99
X5.69Y-3.81
X5.74Y-4.38
X5.75Y-3.62
X5.8Y-2.9
X5.84Y-3.81
X6.Y-4.4
X6.01Y-3.99
X6.12Y-3.98
X6.15Y-4.01
X6.2Y-4.3
X6.24Y-3.9
X6.25Y-3.46
X6.282Y-3.022
X6.35Y-3.46
X6.35Y-3.54
X6.44Y-3.23
X6.44Y-3.94
X6.47Y-3.26
X6.49Y-3.18
X6.5Y-4.4
X6.52Y-3.21
X6.68Y-3.38
X6.7Y-2.95
X6.9Y-2.95
X7.09Y-3.37
X7.09Y-3.83
T2
X5.1Y-2.64
T3
X4.71Y-2.84
X4.71Y-2.94
X4.71Y-3.04
X4.71Y-3.14
X4.71Y-3.24
X4.71Y-3.34
X4.71Y-3.44
X4.71Y-3.54
X4.71Y-3.64
X4.71Y-3.74
X4.71Y-4.12
X4.71Y-4.22
X4.71Y-4.32
X4.81Y-2.89
X4.81Y-2.99
X4.81Y-3.09
X4.81Y-3.19
X4.81Y-3.29
X4.81Y-3.39
X4.81Y-3.49
X4.81Y-3.59
X4.81Y-3.69
X4.81Y-3.79
X4.81Y-4.17
X4.81Y-4.27
X4.81Y-4.37
T4
X5.42Y-3.52
X5.42Y-3.62
X5.42Y-3.72
X5.52Y-3.52
X5.52Y-3.62
X5.52Y-3.72
T5
X6.6811Y-2.6322
X6.8189Y-2.6322
T6
X6.75Y-2.72
T0
M30
