G04 #@! TF.FileFunction,Copper,L1,Top,Signal*
%FSLAX46Y46*%
G04 Gerber Fmt 4.6, Leading zero omitted, Abs format (unit mm)*
G04 Created by KiCad (PCBNEW 4.0.7-e2-6376~58~ubuntu16.04.1) date Mon Nov 27 21:16:57 2017*
%MOMM*%
%LPD*%
G01*
G04 APERTURE LIST*
%ADD10C,0.100000*%
%ADD11C,1.800000*%
%ADD12C,1.300000*%
%ADD13R,1.200000X1.200000*%
%ADD14C,1.600000*%
%ADD15C,1.397000*%
%ADD16C,1.981000*%
%ADD17C,0.609600*%
%ADD18C,0.508000*%
G04 APERTURE END LIST*
D10*
D11*
X137094000Y-105530000D03*
X137094000Y-113030000D03*
X132094000Y-113030000D03*
X117094000Y-113030000D03*
X117094000Y-105530000D03*
X132094000Y-105530000D03*
X142094000Y-113030000D03*
X142094000Y-105530000D03*
D12*
X173990000Y-110490000D03*
X173990000Y-99590000D03*
D13*
X112776000Y-107693000D03*
X112776000Y-110493000D03*
D14*
X142240000Y-93472000D03*
X142250000Y-85972000D03*
X140589000Y-97790000D03*
X133089000Y-97780000D03*
D15*
X133477000Y-87630000D03*
X136977000Y-87630000D03*
D16*
X135227000Y-85400000D03*
D15*
X105918000Y-101854000D03*
X105918000Y-98354000D03*
D16*
X103688000Y-100104000D03*
D15*
X135664000Y-122174000D03*
X132164000Y-122174000D03*
D16*
X133914000Y-124404000D03*
D15*
X139164000Y-122174000D03*
X142664000Y-122174000D03*
D12*
X157226000Y-120650000D03*
X157226000Y-87650000D03*
X149352000Y-120650000D03*
X149352000Y-87650000D03*
D17*
X144526000Y-113919000D03*
X144526000Y-107061000D03*
D18*
X112776000Y-107693000D02*
X114931000Y-107693000D01*
X114931000Y-107693000D02*
X117094000Y-105530000D01*
X105918000Y-98354000D02*
X106228000Y-98354000D01*
X106228000Y-98354000D02*
X112776000Y-104902000D01*
X112776000Y-104902000D02*
X112776000Y-107693000D01*
X112014000Y-110493000D02*
X112779000Y-110493000D01*
X112779000Y-110493000D02*
X115316000Y-113030000D01*
X115316000Y-113030000D02*
X117094000Y-113030000D01*
X105918000Y-101854000D02*
X105918000Y-107188000D01*
X109223000Y-110493000D02*
X112014000Y-110493000D01*
X112014000Y-110493000D02*
X112776000Y-110493000D01*
X105918000Y-107188000D02*
X109223000Y-110493000D01*
X142240000Y-93472000D02*
X144526000Y-95758000D01*
X144526000Y-113919000D02*
X136271000Y-122174000D01*
X144526000Y-95758000D02*
X144526000Y-107061000D01*
X136271000Y-122174000D02*
X135664000Y-122174000D01*
X142250000Y-85972000D02*
X155548000Y-85972000D01*
X155548000Y-85972000D02*
X157226000Y-87650000D01*
X136596000Y-87630000D02*
X136596000Y-87559000D01*
X136596000Y-87559000D02*
X138183000Y-85972000D01*
X138183000Y-85972000D02*
X142250000Y-85972000D01*
X157226000Y-87650000D02*
X162050000Y-87650000D01*
X162050000Y-87650000D02*
X173990000Y-99590000D01*
X140589000Y-97790000D02*
X140589000Y-99568000D01*
X134239000Y-120099000D02*
X132164000Y-122174000D01*
X134239000Y-105918000D02*
X134239000Y-120099000D01*
X140589000Y-99568000D02*
X134239000Y-105918000D01*
X133089000Y-97780000D02*
X133089000Y-104535000D01*
X133089000Y-104535000D02*
X132094000Y-105530000D01*
X133477000Y-87630000D02*
X135509000Y-89662000D01*
X147340000Y-89662000D02*
X149352000Y-87650000D01*
X135509000Y-89662000D02*
X147340000Y-89662000D01*
X133477000Y-87630000D02*
X133477000Y-97392000D01*
X133477000Y-97392000D02*
X133089000Y-97780000D01*
X133096000Y-97392000D02*
X132708000Y-97780000D01*
X149352000Y-120650000D02*
X149352000Y-120523000D01*
X149352000Y-120523000D02*
X148336000Y-119507000D01*
X148336000Y-119507000D02*
X141831000Y-119507000D01*
X141831000Y-119507000D02*
X139164000Y-122174000D01*
X157226000Y-120650000D02*
X153797000Y-124079000D01*
X144569000Y-124079000D02*
X142664000Y-122174000D01*
X153797000Y-124079000D02*
X144569000Y-124079000D01*
X139573000Y-110490000D02*
X173990000Y-110490000D01*
X137094000Y-112969000D02*
X139573000Y-110490000D01*
X137094000Y-113030000D02*
X137094000Y-112969000D01*
M02*
