M48
;DRILL file {KiCad 4.0.7-e2-6376~58~ubuntu16.04.1} date Tue Dec  5 20:34:12 2017
;FORMAT={-:-/ absolute / inch / decimal}
FMAT,2
INCH,TZ
T1C0.012
T2C0.031
T3C0.040
%
G90
G05
M72
T1
X4.59Y-4.2126
X4.59Y-4.5126
X4.59Y-4.8126
X4.63Y-5.0426
X4.66Y-4.9126
X4.69Y-4.4626
X4.69Y-4.6126
X4.76Y-4.6126
X4.77Y-4.4626
X4.83Y-3.6626
X4.85Y-4.9126
X4.86Y-4.3326
X4.87Y-3.6226
X4.9Y-3.8826
X4.9025Y-3.3
X4.93Y-3.9126
X4.99Y-3.8326
X5.025Y-2.96
X5.07Y-3.8526
X5.14Y-3.8826
X5.17Y-3.9126
X5.185Y-5.1026
X5.21Y-4.3126
X5.23Y-4.1926
X5.24Y-4.4126
X5.27Y-4.2326
X5.29Y-4.4626
X5.3Y-3.6226
X5.32Y-4.2426
X5.37Y-4.2826
X5.38Y-3.0326
X5.41Y-4.1526
X5.43Y-3.4426
X5.465Y-4.4726
X5.53Y-3.87
X5.5675Y-3.8175
X5.61Y-3.8175
X5.61Y-3.87
X5.71Y-5.1026
X5.82Y-4.5226
X5.91Y-4.6626
X5.91Y-4.6976
X5.975Y-4.6626
X5.975Y-4.6976
X6.11Y-3.9626
X6.17Y-4.8126
X6.22Y-4.2274
X6.3025Y-3.7075
X6.41Y-4.8826
X6.62Y-3.3626
T2
X4.53Y-3.27
X4.53Y-3.37
X4.53Y-3.47
X4.53Y-3.57
X4.53Y-3.67
X4.53Y-3.77
X4.53Y-4.11
X4.53Y-4.21
X4.53Y-4.31
X4.53Y-4.41
X4.53Y-4.51
X4.53Y-4.61
X4.53Y-4.71
X4.53Y-4.81
X4.53Y-4.91
X4.63Y-3.32
X4.63Y-3.42
X4.63Y-3.52
X4.63Y-3.62
X4.63Y-3.72
X4.63Y-3.82
X4.63Y-4.16
X4.63Y-4.26
X4.63Y-4.36
X4.63Y-4.46
X4.63Y-4.56
X4.63Y-4.66
X4.63Y-4.76
X4.63Y-4.86
X4.63Y-4.96
T3
X4.97Y-3.56
X4.97Y-3.66
X4.97Y-3.76
X5.07Y-3.56
X5.07Y-3.66
X5.07Y-3.76
T0
M30
