G04 #@! TF.GenerationSoftware,KiCad,Pcbnew,5.0-dev-unknown-dd04bcb~61~ubuntu16.04.1*
G04 #@! TF.CreationDate,2018-03-08T21:33:43-05:00*
G04 #@! TF.ProjectId,etc.,6574632E2E6B696361645F7063620000,rev?*
G04 #@! TF.SameCoordinates,Original*
G04 #@! TF.FileFunction,Soldermask,Top*
G04 #@! TF.FilePolarity,Negative*
%FSLAX46Y46*%
G04 Gerber Fmt 4.6, Leading zero omitted, Abs format (unit mm)*
G04 Created by KiCad (PCBNEW 5.0-dev-unknown-dd04bcb~61~ubuntu16.04.1) date Thu Mar  8 21:33:43 2018*
%MOMM*%
%LPD*%
G01*
G04 APERTURE LIST*
%ADD10R,1.300000X0.700000*%
%ADD11R,1.250000X1.000000*%
%ADD12C,0.550000*%
%ADD13C,0.100000*%
%ADD14R,1.000000X1.250000*%
%ADD15R,0.700000X1.300000*%
%ADD16C,0.700000*%
%ADD17C,1.500000*%
%ADD18C,2.750000*%
%ADD19C,1.200000*%
%ADD20O,1.727200X1.727200*%
%ADD21R,1.727200X1.727200*%
%ADD22C,1.000000*%
%ADD23R,1.200000X1.200000*%
%ADD24R,2.159000X1.778000*%
%ADD25R,0.900000X2.500000*%
%ADD26C,1.300000*%
%ADD27C,2.000000*%
%ADD28C,1.397000*%
%ADD29C,1.981000*%
%ADD30R,8.200000X3.300000*%
%ADD31R,1.000000X3.200000*%
%ADD32R,0.550000X1.600000*%
%ADD33R,1.600000X0.550000*%
%ADD34R,0.600000X1.550000*%
%ADD35R,1.060000X0.650000*%
%ADD36R,1.200000X1.400000*%
%ADD37R,1.400000X1.200000*%
%ADD38C,3.000000*%
%ADD39R,1.600000X1.500000*%
G04 APERTURE END LIST*
D10*
X103164529Y-73139503D03*
X103164529Y-75039503D03*
D11*
X100844833Y-64588823D03*
X100844833Y-66588823D03*
D12*
X143051834Y-46752400D03*
D13*
G36*
X142680603Y-47512540D02*
X142291694Y-47123631D01*
X143423065Y-45992260D01*
X143811974Y-46381169D01*
X142680603Y-47512540D01*
X142680603Y-47512540D01*
G37*
D12*
X143617519Y-47318086D03*
D13*
G36*
X143246288Y-48078226D02*
X142857379Y-47689317D01*
X143988750Y-46557946D01*
X144377659Y-46946855D01*
X143246288Y-48078226D01*
X143246288Y-48078226D01*
G37*
D12*
X144183205Y-47883771D03*
D13*
G36*
X143811974Y-48643911D02*
X143423065Y-48255002D01*
X144554436Y-47123631D01*
X144943345Y-47512540D01*
X143811974Y-48643911D01*
X143811974Y-48643911D01*
G37*
D12*
X144748890Y-48449456D03*
D13*
G36*
X144377659Y-49209596D02*
X143988750Y-48820687D01*
X145120121Y-47689316D01*
X145509030Y-48078225D01*
X144377659Y-49209596D01*
X144377659Y-49209596D01*
G37*
D12*
X145314576Y-49015142D03*
D13*
G36*
X144943345Y-49775282D02*
X144554436Y-49386373D01*
X145685807Y-48255002D01*
X146074716Y-48643911D01*
X144943345Y-49775282D01*
X144943345Y-49775282D01*
G37*
D12*
X145880261Y-49580827D03*
D13*
G36*
X145509030Y-50340967D02*
X145120121Y-49952058D01*
X146251492Y-48820687D01*
X146640401Y-49209596D01*
X145509030Y-50340967D01*
X145509030Y-50340967D01*
G37*
D12*
X146445946Y-50146513D03*
D13*
G36*
X146074715Y-50906653D02*
X145685806Y-50517744D01*
X146817177Y-49386373D01*
X147206086Y-49775282D01*
X146074715Y-50906653D01*
X146074715Y-50906653D01*
G37*
D12*
X147011632Y-50712198D03*
D13*
G36*
X146640401Y-51472338D02*
X146251492Y-51083429D01*
X147382863Y-49952058D01*
X147771772Y-50340967D01*
X146640401Y-51472338D01*
X146640401Y-51472338D01*
G37*
D12*
X147011632Y-52762808D03*
D13*
G36*
X146251492Y-52391577D02*
X146640401Y-52002668D01*
X147771772Y-53134039D01*
X147382863Y-53522948D01*
X146251492Y-52391577D01*
X146251492Y-52391577D01*
G37*
D12*
X146445946Y-53328493D03*
D13*
G36*
X145685806Y-52957262D02*
X146074715Y-52568353D01*
X147206086Y-53699724D01*
X146817177Y-54088633D01*
X145685806Y-52957262D01*
X145685806Y-52957262D01*
G37*
D12*
X145880261Y-53894179D03*
D13*
G36*
X145120121Y-53522948D02*
X145509030Y-53134039D01*
X146640401Y-54265410D01*
X146251492Y-54654319D01*
X145120121Y-53522948D01*
X145120121Y-53522948D01*
G37*
D12*
X145314576Y-54459864D03*
D13*
G36*
X144554436Y-54088633D02*
X144943345Y-53699724D01*
X146074716Y-54831095D01*
X145685807Y-55220004D01*
X144554436Y-54088633D01*
X144554436Y-54088633D01*
G37*
D12*
X144748890Y-55025550D03*
D13*
G36*
X143988750Y-54654319D02*
X144377659Y-54265410D01*
X145509030Y-55396781D01*
X145120121Y-55785690D01*
X143988750Y-54654319D01*
X143988750Y-54654319D01*
G37*
D12*
X144183205Y-55591235D03*
D13*
G36*
X143423065Y-55220004D02*
X143811974Y-54831095D01*
X144943345Y-55962466D01*
X144554436Y-56351375D01*
X143423065Y-55220004D01*
X143423065Y-55220004D01*
G37*
D12*
X143617519Y-56156920D03*
D13*
G36*
X142857379Y-55785689D02*
X143246288Y-55396780D01*
X144377659Y-56528151D01*
X143988750Y-56917060D01*
X142857379Y-55785689D01*
X142857379Y-55785689D01*
G37*
D12*
X143051834Y-56722606D03*
D13*
G36*
X142291694Y-56351375D02*
X142680603Y-55962466D01*
X143811974Y-57093837D01*
X143423065Y-57482746D01*
X142291694Y-56351375D01*
X142291694Y-56351375D01*
G37*
D12*
X141001224Y-56722606D03*
D13*
G36*
X140629993Y-57482746D02*
X140241084Y-57093837D01*
X141372455Y-55962466D01*
X141761364Y-56351375D01*
X140629993Y-57482746D01*
X140629993Y-57482746D01*
G37*
D12*
X140435539Y-56156920D03*
D13*
G36*
X140064308Y-56917060D02*
X139675399Y-56528151D01*
X140806770Y-55396780D01*
X141195679Y-55785689D01*
X140064308Y-56917060D01*
X140064308Y-56917060D01*
G37*
D12*
X139869853Y-55591235D03*
D13*
G36*
X139498622Y-56351375D02*
X139109713Y-55962466D01*
X140241084Y-54831095D01*
X140629993Y-55220004D01*
X139498622Y-56351375D01*
X139498622Y-56351375D01*
G37*
D12*
X139304168Y-55025550D03*
D13*
G36*
X138932937Y-55785690D02*
X138544028Y-55396781D01*
X139675399Y-54265410D01*
X140064308Y-54654319D01*
X138932937Y-55785690D01*
X138932937Y-55785690D01*
G37*
D12*
X138738482Y-54459864D03*
D13*
G36*
X138367251Y-55220004D02*
X137978342Y-54831095D01*
X139109713Y-53699724D01*
X139498622Y-54088633D01*
X138367251Y-55220004D01*
X138367251Y-55220004D01*
G37*
D12*
X138172797Y-53894179D03*
D13*
G36*
X137801566Y-54654319D02*
X137412657Y-54265410D01*
X138544028Y-53134039D01*
X138932937Y-53522948D01*
X137801566Y-54654319D01*
X137801566Y-54654319D01*
G37*
D12*
X137607112Y-53328493D03*
D13*
G36*
X137235881Y-54088633D02*
X136846972Y-53699724D01*
X137978343Y-52568353D01*
X138367252Y-52957262D01*
X137235881Y-54088633D01*
X137235881Y-54088633D01*
G37*
D12*
X137041426Y-52762808D03*
D13*
G36*
X136670195Y-53522948D02*
X136281286Y-53134039D01*
X137412657Y-52002668D01*
X137801566Y-52391577D01*
X136670195Y-53522948D01*
X136670195Y-53522948D01*
G37*
D12*
X137041426Y-50712198D03*
D13*
G36*
X136281286Y-50340967D02*
X136670195Y-49952058D01*
X137801566Y-51083429D01*
X137412657Y-51472338D01*
X136281286Y-50340967D01*
X136281286Y-50340967D01*
G37*
D12*
X137607112Y-50146513D03*
D13*
G36*
X136846972Y-49775282D02*
X137235881Y-49386373D01*
X138367252Y-50517744D01*
X137978343Y-50906653D01*
X136846972Y-49775282D01*
X136846972Y-49775282D01*
G37*
D12*
X138172797Y-49580827D03*
D13*
G36*
X137412657Y-49209596D02*
X137801566Y-48820687D01*
X138932937Y-49952058D01*
X138544028Y-50340967D01*
X137412657Y-49209596D01*
X137412657Y-49209596D01*
G37*
D12*
X138738482Y-49015142D03*
D13*
G36*
X137978342Y-48643911D02*
X138367251Y-48255002D01*
X139498622Y-49386373D01*
X139109713Y-49775282D01*
X137978342Y-48643911D01*
X137978342Y-48643911D01*
G37*
D12*
X139304168Y-48449456D03*
D13*
G36*
X138544028Y-48078225D02*
X138932937Y-47689316D01*
X140064308Y-48820687D01*
X139675399Y-49209596D01*
X138544028Y-48078225D01*
X138544028Y-48078225D01*
G37*
D12*
X139869853Y-47883771D03*
D13*
G36*
X139109713Y-47512540D02*
X139498622Y-47123631D01*
X140629993Y-48255002D01*
X140241084Y-48643911D01*
X139109713Y-47512540D01*
X139109713Y-47512540D01*
G37*
D12*
X140435539Y-47318086D03*
D13*
G36*
X139675399Y-46946855D02*
X140064308Y-46557946D01*
X141195679Y-47689317D01*
X140806770Y-48078226D01*
X139675399Y-46946855D01*
X139675399Y-46946855D01*
G37*
D12*
X141001224Y-46752400D03*
D13*
G36*
X140241084Y-46381169D02*
X140629993Y-45992260D01*
X141761364Y-47123631D01*
X141372455Y-47512540D01*
X140241084Y-46381169D01*
X140241084Y-46381169D01*
G37*
D14*
X128326529Y-49197503D03*
X130326529Y-49197503D03*
D15*
X124566530Y-48943503D03*
X126466528Y-48943503D03*
D16*
X144730280Y-58431752D03*
D13*
G36*
X144942412Y-59138859D02*
X144023173Y-58219620D01*
X144518148Y-57724645D01*
X145437387Y-58643884D01*
X144942412Y-59138859D01*
X144942412Y-59138859D01*
G37*
D16*
X143386778Y-59775254D03*
D13*
G36*
X143598910Y-60482361D02*
X142679671Y-59563122D01*
X143174646Y-59068147D01*
X144093885Y-59987386D01*
X143598910Y-60482361D01*
X143598910Y-60482361D01*
G37*
D17*
X117896529Y-31671503D03*
X117896529Y-34211503D03*
X117896529Y-44771503D03*
X117896529Y-42231503D03*
X124526529Y-33771503D03*
X124526529Y-36311503D03*
X124526529Y-38851503D03*
X124526529Y-41391503D03*
X127066529Y-35041503D03*
X127066529Y-37581503D03*
X127066529Y-40121503D03*
X127066529Y-42661503D03*
D18*
X122646529Y-31271503D03*
X122646529Y-45171503D03*
D19*
X131088712Y-46641686D03*
D13*
G36*
X131937240Y-46641686D02*
X131088712Y-47490214D01*
X130240184Y-46641686D01*
X131088712Y-45793158D01*
X131937240Y-46641686D01*
X131937240Y-46641686D01*
G37*
D19*
X132644346Y-48197320D03*
D13*
G36*
X133492874Y-48197320D02*
X132644346Y-49045848D01*
X131795818Y-48197320D01*
X132644346Y-47348792D01*
X133492874Y-48197320D01*
X133492874Y-48197320D01*
G37*
D20*
X131104529Y-30401503D03*
X133644529Y-30401503D03*
X131104529Y-32941503D03*
X133644529Y-32941503D03*
X131104529Y-35481503D03*
D21*
X133644529Y-35481503D03*
D11*
X141264529Y-31655503D03*
X141264529Y-29655503D03*
D22*
X150607636Y-58396396D03*
D13*
G36*
X150696024Y-59191891D02*
X149812141Y-58308008D01*
X150519248Y-57600901D01*
X151403131Y-58484784D01*
X150696024Y-59191891D01*
X150696024Y-59191891D01*
G37*
D22*
X149193422Y-59810610D03*
D13*
G36*
X149281810Y-60606105D02*
X148397927Y-59722222D01*
X149105034Y-59015115D01*
X149988917Y-59898998D01*
X149281810Y-60606105D01*
X149281810Y-60606105D01*
G37*
D22*
X147669422Y-55602396D03*
D13*
G36*
X146873927Y-55690784D02*
X147757810Y-54806901D01*
X148464917Y-55514008D01*
X147581034Y-56397891D01*
X146873927Y-55690784D01*
X146873927Y-55690784D01*
G37*
D22*
X149083636Y-57016610D03*
D13*
G36*
X148288141Y-57104998D02*
X149172024Y-56221115D01*
X149879131Y-56928222D01*
X148995248Y-57812105D01*
X148288141Y-57104998D01*
X148288141Y-57104998D01*
G37*
D14*
X134676529Y-59865503D03*
X136676529Y-59865503D03*
X139502529Y-33703503D03*
X141502529Y-33703503D03*
X131850529Y-59865503D03*
X129850529Y-59865503D03*
D11*
X136692529Y-33211503D03*
X136692529Y-35211503D03*
X101132529Y-74359503D03*
X101132529Y-76359503D03*
D14*
X115814833Y-75494823D03*
X113814833Y-75494823D03*
D11*
X111766833Y-69176823D03*
X111766833Y-71176823D03*
D14*
X115814833Y-73208823D03*
X113814833Y-73208823D03*
D19*
X144550712Y-61405320D03*
D13*
G36*
X144550712Y-62253848D02*
X143702184Y-61405320D01*
X144550712Y-60556792D01*
X145399240Y-61405320D01*
X144550712Y-62253848D01*
X144550712Y-62253848D01*
G37*
D19*
X146106346Y-59849686D03*
D13*
G36*
X146106346Y-60698214D02*
X145257818Y-59849686D01*
X146106346Y-59001158D01*
X146954874Y-59849686D01*
X146106346Y-60698214D01*
X146106346Y-60698214D01*
G37*
D23*
X152778529Y-44371503D03*
X150578529Y-44371503D03*
X148630529Y-44371503D03*
X146430529Y-44371503D03*
D24*
X120910833Y-66858823D03*
X120910833Y-70922823D03*
D23*
X148546529Y-64691503D03*
X150746529Y-64691503D03*
X122434833Y-73378823D03*
X122434833Y-75578823D03*
D25*
X116518833Y-70414823D03*
X113618833Y-70414823D03*
D26*
X159298529Y-52753503D03*
X159298529Y-50213503D03*
X159298529Y-47673503D03*
X159298529Y-55293503D03*
X161838529Y-48943503D03*
X161838529Y-51483503D03*
X161838529Y-54023503D03*
X161838529Y-56563503D03*
X159298529Y-57833503D03*
X161838529Y-59103503D03*
X159298529Y-60373503D03*
X161838529Y-61643503D03*
X159298529Y-62913503D03*
X161838529Y-64183503D03*
X159298529Y-65453503D03*
X161838529Y-66723503D03*
D27*
X161098529Y-46273503D03*
D28*
X126108529Y-64945503D03*
X129608529Y-64945503D03*
D29*
X134858529Y-62715503D03*
D28*
X136608529Y-64945503D03*
X133108529Y-64945503D03*
X157266529Y-34747503D03*
X157266529Y-31247503D03*
D29*
X155036529Y-32997503D03*
D28*
X157266529Y-38247503D03*
X157266529Y-41747503D03*
D30*
X106178833Y-70224823D03*
X106178833Y-65524823D03*
D21*
X134660529Y-41831503D03*
D20*
X134660529Y-39291503D03*
X137200529Y-41831503D03*
X137200529Y-39291503D03*
X139740529Y-41831503D03*
X139740529Y-39291503D03*
D16*
X146434778Y-57071503D03*
D13*
G36*
X147141885Y-56859371D02*
X146222646Y-57778610D01*
X145727671Y-57283635D01*
X146646910Y-56364396D01*
X147141885Y-56859371D01*
X147141885Y-56859371D01*
G37*
D16*
X147778280Y-58415005D03*
D13*
G36*
X148485387Y-58202873D02*
X147566148Y-59122112D01*
X147071173Y-58627137D01*
X147990412Y-57707898D01*
X148485387Y-58202873D01*
X148485387Y-58202873D01*
G37*
D15*
X152628529Y-40815503D03*
X150728529Y-40815503D03*
D16*
X140084778Y-58939752D03*
D13*
G36*
X139377671Y-59151884D02*
X140296910Y-58232645D01*
X140791885Y-58727620D01*
X139872646Y-59646859D01*
X139377671Y-59151884D01*
X139377671Y-59151884D01*
G37*
D16*
X141428280Y-60283254D03*
D13*
G36*
X140721173Y-60495386D02*
X141640412Y-59576147D01*
X142135387Y-60071122D01*
X141216148Y-60990361D01*
X140721173Y-60495386D01*
X140721173Y-60495386D01*
G37*
D16*
X133734778Y-46493752D03*
D13*
G36*
X133027671Y-46705884D02*
X133946910Y-45786645D01*
X134441885Y-46281620D01*
X133522646Y-47200859D01*
X133027671Y-46705884D01*
X133027671Y-46705884D01*
G37*
D16*
X135078280Y-47837254D03*
D13*
G36*
X134371173Y-48049386D02*
X135290412Y-47130147D01*
X135785387Y-47625122D01*
X134866148Y-48544361D01*
X134371173Y-48049386D01*
X134371173Y-48049386D01*
G37*
D10*
X131104529Y-41135503D03*
X131104529Y-43035503D03*
D15*
X122910528Y-48943503D03*
X121010530Y-48943503D03*
D10*
X148884529Y-40627504D03*
X148884529Y-42527502D03*
X146852529Y-40627503D03*
X146852529Y-42527503D03*
D31*
X117914833Y-65080823D03*
X111714833Y-65080823D03*
D15*
X150188574Y-62738447D03*
X148288574Y-62738447D03*
D10*
X118370833Y-72766823D03*
X118370833Y-74666823D03*
X100844833Y-69464823D03*
X100844833Y-71364823D03*
X120402833Y-74920823D03*
X120402833Y-73020823D03*
D32*
X150668529Y-29961503D03*
X149868529Y-29961503D03*
X149068529Y-29961503D03*
X148268529Y-29961503D03*
X147468529Y-29961503D03*
X146668529Y-29961503D03*
X145868529Y-29961503D03*
X145068529Y-29961503D03*
D33*
X143618529Y-31411503D03*
X143618529Y-32211503D03*
X143618529Y-33011503D03*
X143618529Y-33811503D03*
X143618529Y-34611503D03*
X143618529Y-35411503D03*
X143618529Y-36211503D03*
X143618529Y-37011503D03*
D32*
X145068529Y-38461503D03*
X145868529Y-38461503D03*
X146668529Y-38461503D03*
X147468529Y-38461503D03*
X148268529Y-38461503D03*
X149068529Y-38461503D03*
X149868529Y-38461503D03*
X150668529Y-38461503D03*
D33*
X152118529Y-37011503D03*
X152118529Y-36211503D03*
X152118529Y-35411503D03*
X152118529Y-34611503D03*
X152118529Y-33811503D03*
X152118529Y-33011503D03*
X152118529Y-32211503D03*
X152118529Y-31411503D03*
D34*
X133263529Y-51577503D03*
X131993529Y-51577503D03*
X130723529Y-51577503D03*
X129453529Y-51577503D03*
X129453529Y-56977503D03*
X130723529Y-56977503D03*
X131993529Y-56977503D03*
X133263529Y-56977503D03*
D35*
X107786833Y-75682823D03*
X107786833Y-74732823D03*
X107786833Y-73782823D03*
X105586833Y-73782823D03*
X105586833Y-75682823D03*
X105586833Y-74732823D03*
D36*
X136692529Y-57917503D03*
X136692529Y-55717503D03*
X135092529Y-55717503D03*
X135092529Y-57917503D03*
D37*
X137116529Y-29855503D03*
X139316529Y-29855503D03*
X139316529Y-31455503D03*
X137116529Y-31455503D03*
D27*
X112758529Y-30609503D03*
X112758529Y-61009503D03*
X94658529Y-32109503D03*
X94658529Y-59509503D03*
D38*
X109458529Y-45809503D03*
X109458529Y-41809503D03*
X105458529Y-43809503D03*
X101458529Y-41809503D03*
X101458529Y-45809503D03*
X109458529Y-49809503D03*
X105458529Y-47809503D03*
X101458529Y-49809503D03*
D23*
X155726529Y-51451503D03*
D39*
X154726529Y-48001503D03*
D23*
X153726529Y-51451503D03*
M02*
