G04 #@! TF.GenerationSoftware,KiCad,Pcbnew,5.0-dev-unknown-dd04bcb~61~ubuntu16.04.1*
G04 #@! TF.CreationDate,2018-03-08T21:33:43-05:00*
G04 #@! TF.ProjectId,etc.,6574632E2E6B696361645F7063620000,rev?*
G04 #@! TF.SameCoordinates,Original*
G04 #@! TF.FileFunction,Copper,L1,Top,Signal*
G04 #@! TF.FilePolarity,Positive*
%FSLAX46Y46*%
G04 Gerber Fmt 4.6, Leading zero omitted, Abs format (unit mm)*
G04 Created by KiCad (PCBNEW 5.0-dev-unknown-dd04bcb~61~ubuntu16.04.1) date Thu Mar  8 21:33:43 2018*
%MOMM*%
%LPD*%
G01*
G04 APERTURE LIST*
%ADD10R,1.300000X0.700000*%
%ADD11R,1.250000X1.000000*%
%ADD12C,0.550000*%
%ADD13C,0.100000*%
%ADD14R,1.000000X1.250000*%
%ADD15R,0.700000X1.300000*%
%ADD16C,0.700000*%
%ADD17C,1.500000*%
%ADD18C,2.750000*%
%ADD19C,1.200000*%
%ADD20O,1.727200X1.727200*%
%ADD21R,1.727200X1.727200*%
%ADD22C,1.000000*%
%ADD23R,1.200000X1.200000*%
%ADD24R,2.159000X1.778000*%
%ADD25R,0.900000X2.500000*%
%ADD26C,1.300000*%
%ADD27C,2.000000*%
%ADD28C,1.397000*%
%ADD29C,1.981000*%
%ADD30R,8.200000X3.300000*%
%ADD31R,1.000000X3.200000*%
%ADD32R,0.550000X1.600000*%
%ADD33R,1.600000X0.550000*%
%ADD34R,0.600000X1.550000*%
%ADD35R,1.060000X0.650000*%
%ADD36R,1.200000X1.400000*%
%ADD37R,1.400000X1.200000*%
%ADD38C,3.000000*%
%ADD39R,1.600000X1.500000*%
%ADD40C,0.609600*%
%ADD41C,0.800000*%
%ADD42C,0.508000*%
%ADD43C,0.254000*%
%ADD44C,0.250000*%
G04 APERTURE END LIST*
D10*
X103164529Y-73139503D03*
X103164529Y-75039503D03*
D11*
X100844833Y-64588823D03*
X100844833Y-66588823D03*
D12*
X143051834Y-46752400D03*
D13*
G36*
X142680603Y-47512540D02*
X142291694Y-47123631D01*
X143423065Y-45992260D01*
X143811974Y-46381169D01*
X142680603Y-47512540D01*
X142680603Y-47512540D01*
G37*
D12*
X143617519Y-47318086D03*
D13*
G36*
X143246288Y-48078226D02*
X142857379Y-47689317D01*
X143988750Y-46557946D01*
X144377659Y-46946855D01*
X143246288Y-48078226D01*
X143246288Y-48078226D01*
G37*
D12*
X144183205Y-47883771D03*
D13*
G36*
X143811974Y-48643911D02*
X143423065Y-48255002D01*
X144554436Y-47123631D01*
X144943345Y-47512540D01*
X143811974Y-48643911D01*
X143811974Y-48643911D01*
G37*
D12*
X144748890Y-48449456D03*
D13*
G36*
X144377659Y-49209596D02*
X143988750Y-48820687D01*
X145120121Y-47689316D01*
X145509030Y-48078225D01*
X144377659Y-49209596D01*
X144377659Y-49209596D01*
G37*
D12*
X145314576Y-49015142D03*
D13*
G36*
X144943345Y-49775282D02*
X144554436Y-49386373D01*
X145685807Y-48255002D01*
X146074716Y-48643911D01*
X144943345Y-49775282D01*
X144943345Y-49775282D01*
G37*
D12*
X145880261Y-49580827D03*
D13*
G36*
X145509030Y-50340967D02*
X145120121Y-49952058D01*
X146251492Y-48820687D01*
X146640401Y-49209596D01*
X145509030Y-50340967D01*
X145509030Y-50340967D01*
G37*
D12*
X146445946Y-50146513D03*
D13*
G36*
X146074715Y-50906653D02*
X145685806Y-50517744D01*
X146817177Y-49386373D01*
X147206086Y-49775282D01*
X146074715Y-50906653D01*
X146074715Y-50906653D01*
G37*
D12*
X147011632Y-50712198D03*
D13*
G36*
X146640401Y-51472338D02*
X146251492Y-51083429D01*
X147382863Y-49952058D01*
X147771772Y-50340967D01*
X146640401Y-51472338D01*
X146640401Y-51472338D01*
G37*
D12*
X147011632Y-52762808D03*
D13*
G36*
X146251492Y-52391577D02*
X146640401Y-52002668D01*
X147771772Y-53134039D01*
X147382863Y-53522948D01*
X146251492Y-52391577D01*
X146251492Y-52391577D01*
G37*
D12*
X146445946Y-53328493D03*
D13*
G36*
X145685806Y-52957262D02*
X146074715Y-52568353D01*
X147206086Y-53699724D01*
X146817177Y-54088633D01*
X145685806Y-52957262D01*
X145685806Y-52957262D01*
G37*
D12*
X145880261Y-53894179D03*
D13*
G36*
X145120121Y-53522948D02*
X145509030Y-53134039D01*
X146640401Y-54265410D01*
X146251492Y-54654319D01*
X145120121Y-53522948D01*
X145120121Y-53522948D01*
G37*
D12*
X145314576Y-54459864D03*
D13*
G36*
X144554436Y-54088633D02*
X144943345Y-53699724D01*
X146074716Y-54831095D01*
X145685807Y-55220004D01*
X144554436Y-54088633D01*
X144554436Y-54088633D01*
G37*
D12*
X144748890Y-55025550D03*
D13*
G36*
X143988750Y-54654319D02*
X144377659Y-54265410D01*
X145509030Y-55396781D01*
X145120121Y-55785690D01*
X143988750Y-54654319D01*
X143988750Y-54654319D01*
G37*
D12*
X144183205Y-55591235D03*
D13*
G36*
X143423065Y-55220004D02*
X143811974Y-54831095D01*
X144943345Y-55962466D01*
X144554436Y-56351375D01*
X143423065Y-55220004D01*
X143423065Y-55220004D01*
G37*
D12*
X143617519Y-56156920D03*
D13*
G36*
X142857379Y-55785689D02*
X143246288Y-55396780D01*
X144377659Y-56528151D01*
X143988750Y-56917060D01*
X142857379Y-55785689D01*
X142857379Y-55785689D01*
G37*
D12*
X143051834Y-56722606D03*
D13*
G36*
X142291694Y-56351375D02*
X142680603Y-55962466D01*
X143811974Y-57093837D01*
X143423065Y-57482746D01*
X142291694Y-56351375D01*
X142291694Y-56351375D01*
G37*
D12*
X141001224Y-56722606D03*
D13*
G36*
X140629993Y-57482746D02*
X140241084Y-57093837D01*
X141372455Y-55962466D01*
X141761364Y-56351375D01*
X140629993Y-57482746D01*
X140629993Y-57482746D01*
G37*
D12*
X140435539Y-56156920D03*
D13*
G36*
X140064308Y-56917060D02*
X139675399Y-56528151D01*
X140806770Y-55396780D01*
X141195679Y-55785689D01*
X140064308Y-56917060D01*
X140064308Y-56917060D01*
G37*
D12*
X139869853Y-55591235D03*
D13*
G36*
X139498622Y-56351375D02*
X139109713Y-55962466D01*
X140241084Y-54831095D01*
X140629993Y-55220004D01*
X139498622Y-56351375D01*
X139498622Y-56351375D01*
G37*
D12*
X139304168Y-55025550D03*
D13*
G36*
X138932937Y-55785690D02*
X138544028Y-55396781D01*
X139675399Y-54265410D01*
X140064308Y-54654319D01*
X138932937Y-55785690D01*
X138932937Y-55785690D01*
G37*
D12*
X138738482Y-54459864D03*
D13*
G36*
X138367251Y-55220004D02*
X137978342Y-54831095D01*
X139109713Y-53699724D01*
X139498622Y-54088633D01*
X138367251Y-55220004D01*
X138367251Y-55220004D01*
G37*
D12*
X138172797Y-53894179D03*
D13*
G36*
X137801566Y-54654319D02*
X137412657Y-54265410D01*
X138544028Y-53134039D01*
X138932937Y-53522948D01*
X137801566Y-54654319D01*
X137801566Y-54654319D01*
G37*
D12*
X137607112Y-53328493D03*
D13*
G36*
X137235881Y-54088633D02*
X136846972Y-53699724D01*
X137978343Y-52568353D01*
X138367252Y-52957262D01*
X137235881Y-54088633D01*
X137235881Y-54088633D01*
G37*
D12*
X137041426Y-52762808D03*
D13*
G36*
X136670195Y-53522948D02*
X136281286Y-53134039D01*
X137412657Y-52002668D01*
X137801566Y-52391577D01*
X136670195Y-53522948D01*
X136670195Y-53522948D01*
G37*
D12*
X137041426Y-50712198D03*
D13*
G36*
X136281286Y-50340967D02*
X136670195Y-49952058D01*
X137801566Y-51083429D01*
X137412657Y-51472338D01*
X136281286Y-50340967D01*
X136281286Y-50340967D01*
G37*
D12*
X137607112Y-50146513D03*
D13*
G36*
X136846972Y-49775282D02*
X137235881Y-49386373D01*
X138367252Y-50517744D01*
X137978343Y-50906653D01*
X136846972Y-49775282D01*
X136846972Y-49775282D01*
G37*
D12*
X138172797Y-49580827D03*
D13*
G36*
X137412657Y-49209596D02*
X137801566Y-48820687D01*
X138932937Y-49952058D01*
X138544028Y-50340967D01*
X137412657Y-49209596D01*
X137412657Y-49209596D01*
G37*
D12*
X138738482Y-49015142D03*
D13*
G36*
X137978342Y-48643911D02*
X138367251Y-48255002D01*
X139498622Y-49386373D01*
X139109713Y-49775282D01*
X137978342Y-48643911D01*
X137978342Y-48643911D01*
G37*
D12*
X139304168Y-48449456D03*
D13*
G36*
X138544028Y-48078225D02*
X138932937Y-47689316D01*
X140064308Y-48820687D01*
X139675399Y-49209596D01*
X138544028Y-48078225D01*
X138544028Y-48078225D01*
G37*
D12*
X139869853Y-47883771D03*
D13*
G36*
X139109713Y-47512540D02*
X139498622Y-47123631D01*
X140629993Y-48255002D01*
X140241084Y-48643911D01*
X139109713Y-47512540D01*
X139109713Y-47512540D01*
G37*
D12*
X140435539Y-47318086D03*
D13*
G36*
X139675399Y-46946855D02*
X140064308Y-46557946D01*
X141195679Y-47689317D01*
X140806770Y-48078226D01*
X139675399Y-46946855D01*
X139675399Y-46946855D01*
G37*
D12*
X141001224Y-46752400D03*
D13*
G36*
X140241084Y-46381169D02*
X140629993Y-45992260D01*
X141761364Y-47123631D01*
X141372455Y-47512540D01*
X140241084Y-46381169D01*
X140241084Y-46381169D01*
G37*
D14*
X128326529Y-49197503D03*
X130326529Y-49197503D03*
D15*
X124566530Y-48943503D03*
X126466528Y-48943503D03*
D16*
X144730280Y-58431752D03*
D13*
G36*
X144942412Y-59138859D02*
X144023173Y-58219620D01*
X144518148Y-57724645D01*
X145437387Y-58643884D01*
X144942412Y-59138859D01*
X144942412Y-59138859D01*
G37*
D16*
X143386778Y-59775254D03*
D13*
G36*
X143598910Y-60482361D02*
X142679671Y-59563122D01*
X143174646Y-59068147D01*
X144093885Y-59987386D01*
X143598910Y-60482361D01*
X143598910Y-60482361D01*
G37*
D17*
X117896529Y-31671503D03*
X117896529Y-34211503D03*
X117896529Y-44771503D03*
X117896529Y-42231503D03*
X124526529Y-33771503D03*
X124526529Y-36311503D03*
X124526529Y-38851503D03*
X124526529Y-41391503D03*
X127066529Y-35041503D03*
X127066529Y-37581503D03*
X127066529Y-40121503D03*
X127066529Y-42661503D03*
D18*
X122646529Y-31271503D03*
X122646529Y-45171503D03*
D19*
X131088712Y-46641686D03*
D13*
G36*
X131937240Y-46641686D02*
X131088712Y-47490214D01*
X130240184Y-46641686D01*
X131088712Y-45793158D01*
X131937240Y-46641686D01*
X131937240Y-46641686D01*
G37*
D19*
X132644346Y-48197320D03*
D13*
G36*
X133492874Y-48197320D02*
X132644346Y-49045848D01*
X131795818Y-48197320D01*
X132644346Y-47348792D01*
X133492874Y-48197320D01*
X133492874Y-48197320D01*
G37*
D20*
X131104529Y-30401503D03*
X133644529Y-30401503D03*
X131104529Y-32941503D03*
X133644529Y-32941503D03*
X131104529Y-35481503D03*
D21*
X133644529Y-35481503D03*
D11*
X141264529Y-31655503D03*
X141264529Y-29655503D03*
D22*
X150607636Y-58396396D03*
D13*
G36*
X150696024Y-59191891D02*
X149812141Y-58308008D01*
X150519248Y-57600901D01*
X151403131Y-58484784D01*
X150696024Y-59191891D01*
X150696024Y-59191891D01*
G37*
D22*
X149193422Y-59810610D03*
D13*
G36*
X149281810Y-60606105D02*
X148397927Y-59722222D01*
X149105034Y-59015115D01*
X149988917Y-59898998D01*
X149281810Y-60606105D01*
X149281810Y-60606105D01*
G37*
D22*
X147669422Y-55602396D03*
D13*
G36*
X146873927Y-55690784D02*
X147757810Y-54806901D01*
X148464917Y-55514008D01*
X147581034Y-56397891D01*
X146873927Y-55690784D01*
X146873927Y-55690784D01*
G37*
D22*
X149083636Y-57016610D03*
D13*
G36*
X148288141Y-57104998D02*
X149172024Y-56221115D01*
X149879131Y-56928222D01*
X148995248Y-57812105D01*
X148288141Y-57104998D01*
X148288141Y-57104998D01*
G37*
D14*
X134676529Y-59865503D03*
X136676529Y-59865503D03*
X139502529Y-33703503D03*
X141502529Y-33703503D03*
X131850529Y-59865503D03*
X129850529Y-59865503D03*
D11*
X136692529Y-33211503D03*
X136692529Y-35211503D03*
X101132529Y-74359503D03*
X101132529Y-76359503D03*
D14*
X115814833Y-75494823D03*
X113814833Y-75494823D03*
D11*
X111766833Y-69176823D03*
X111766833Y-71176823D03*
D14*
X115814833Y-73208823D03*
X113814833Y-73208823D03*
D19*
X144550712Y-61405320D03*
D13*
G36*
X144550712Y-62253848D02*
X143702184Y-61405320D01*
X144550712Y-60556792D01*
X145399240Y-61405320D01*
X144550712Y-62253848D01*
X144550712Y-62253848D01*
G37*
D19*
X146106346Y-59849686D03*
D13*
G36*
X146106346Y-60698214D02*
X145257818Y-59849686D01*
X146106346Y-59001158D01*
X146954874Y-59849686D01*
X146106346Y-60698214D01*
X146106346Y-60698214D01*
G37*
D23*
X152778529Y-44371503D03*
X150578529Y-44371503D03*
X148630529Y-44371503D03*
X146430529Y-44371503D03*
D24*
X120910833Y-66858823D03*
X120910833Y-70922823D03*
D23*
X148546529Y-64691503D03*
X150746529Y-64691503D03*
X122434833Y-73378823D03*
X122434833Y-75578823D03*
D25*
X116518833Y-70414823D03*
X113618833Y-70414823D03*
D26*
X159298529Y-52753503D03*
X159298529Y-50213503D03*
X159298529Y-47673503D03*
X159298529Y-55293503D03*
X161838529Y-48943503D03*
X161838529Y-51483503D03*
X161838529Y-54023503D03*
X161838529Y-56563503D03*
X159298529Y-57833503D03*
X161838529Y-59103503D03*
X159298529Y-60373503D03*
X161838529Y-61643503D03*
X159298529Y-62913503D03*
X161838529Y-64183503D03*
X159298529Y-65453503D03*
X161838529Y-66723503D03*
D27*
X161098529Y-46273503D03*
D28*
X126108529Y-64945503D03*
X129608529Y-64945503D03*
D29*
X134858529Y-62715503D03*
D28*
X136608529Y-64945503D03*
X133108529Y-64945503D03*
X157266529Y-34747503D03*
X157266529Y-31247503D03*
D29*
X155036529Y-32997503D03*
D28*
X157266529Y-38247503D03*
X157266529Y-41747503D03*
D30*
X106178833Y-70224823D03*
X106178833Y-65524823D03*
D21*
X134660529Y-41831503D03*
D20*
X134660529Y-39291503D03*
X137200529Y-41831503D03*
X137200529Y-39291503D03*
X139740529Y-41831503D03*
X139740529Y-39291503D03*
D16*
X146434778Y-57071503D03*
D13*
G36*
X147141885Y-56859371D02*
X146222646Y-57778610D01*
X145727671Y-57283635D01*
X146646910Y-56364396D01*
X147141885Y-56859371D01*
X147141885Y-56859371D01*
G37*
D16*
X147778280Y-58415005D03*
D13*
G36*
X148485387Y-58202873D02*
X147566148Y-59122112D01*
X147071173Y-58627137D01*
X147990412Y-57707898D01*
X148485387Y-58202873D01*
X148485387Y-58202873D01*
G37*
D15*
X152628529Y-40815503D03*
X150728529Y-40815503D03*
D16*
X140084778Y-58939752D03*
D13*
G36*
X139377671Y-59151884D02*
X140296910Y-58232645D01*
X140791885Y-58727620D01*
X139872646Y-59646859D01*
X139377671Y-59151884D01*
X139377671Y-59151884D01*
G37*
D16*
X141428280Y-60283254D03*
D13*
G36*
X140721173Y-60495386D02*
X141640412Y-59576147D01*
X142135387Y-60071122D01*
X141216148Y-60990361D01*
X140721173Y-60495386D01*
X140721173Y-60495386D01*
G37*
D16*
X133734778Y-46493752D03*
D13*
G36*
X133027671Y-46705884D02*
X133946910Y-45786645D01*
X134441885Y-46281620D01*
X133522646Y-47200859D01*
X133027671Y-46705884D01*
X133027671Y-46705884D01*
G37*
D16*
X135078280Y-47837254D03*
D13*
G36*
X134371173Y-48049386D02*
X135290412Y-47130147D01*
X135785387Y-47625122D01*
X134866148Y-48544361D01*
X134371173Y-48049386D01*
X134371173Y-48049386D01*
G37*
D10*
X131104529Y-41135503D03*
X131104529Y-43035503D03*
D15*
X122910528Y-48943503D03*
X121010530Y-48943503D03*
D10*
X148884529Y-40627504D03*
X148884529Y-42527502D03*
X146852529Y-40627503D03*
X146852529Y-42527503D03*
D31*
X117914833Y-65080823D03*
X111714833Y-65080823D03*
D15*
X150188574Y-62738447D03*
X148288574Y-62738447D03*
D10*
X118370833Y-72766823D03*
X118370833Y-74666823D03*
X100844833Y-69464823D03*
X100844833Y-71364823D03*
X120402833Y-74920823D03*
X120402833Y-73020823D03*
D32*
X150668529Y-29961503D03*
X149868529Y-29961503D03*
X149068529Y-29961503D03*
X148268529Y-29961503D03*
X147468529Y-29961503D03*
X146668529Y-29961503D03*
X145868529Y-29961503D03*
X145068529Y-29961503D03*
D33*
X143618529Y-31411503D03*
X143618529Y-32211503D03*
X143618529Y-33011503D03*
X143618529Y-33811503D03*
X143618529Y-34611503D03*
X143618529Y-35411503D03*
X143618529Y-36211503D03*
X143618529Y-37011503D03*
D32*
X145068529Y-38461503D03*
X145868529Y-38461503D03*
X146668529Y-38461503D03*
X147468529Y-38461503D03*
X148268529Y-38461503D03*
X149068529Y-38461503D03*
X149868529Y-38461503D03*
X150668529Y-38461503D03*
D33*
X152118529Y-37011503D03*
X152118529Y-36211503D03*
X152118529Y-35411503D03*
X152118529Y-34611503D03*
X152118529Y-33811503D03*
X152118529Y-33011503D03*
X152118529Y-32211503D03*
X152118529Y-31411503D03*
D34*
X133263529Y-51577503D03*
X131993529Y-51577503D03*
X130723529Y-51577503D03*
X129453529Y-51577503D03*
X129453529Y-56977503D03*
X130723529Y-56977503D03*
X131993529Y-56977503D03*
X133263529Y-56977503D03*
D35*
X107786833Y-75682823D03*
X107786833Y-74732823D03*
X107786833Y-73782823D03*
X105586833Y-73782823D03*
X105586833Y-75682823D03*
X105586833Y-74732823D03*
D36*
X136692529Y-57917503D03*
X136692529Y-55717503D03*
X135092529Y-55717503D03*
X135092529Y-57917503D03*
D37*
X137116529Y-29855503D03*
X139316529Y-29855503D03*
X139316529Y-31455503D03*
X137116529Y-31455503D03*
D38*
X109458529Y-45809503D03*
X109458529Y-41809503D03*
X105458529Y-43809503D03*
X101458529Y-41809503D03*
X101458529Y-45809503D03*
X109458529Y-49809503D03*
X105458529Y-47809503D03*
X101458529Y-49809503D03*
D23*
X155726529Y-51451503D03*
D39*
X154726529Y-48001503D03*
D23*
X153726529Y-51451503D03*
D40*
X139700000Y-50292000D03*
X99314000Y-64008000D03*
X101386529Y-68247503D03*
X100092529Y-78153503D03*
X123992529Y-73073503D03*
X118116833Y-68636823D03*
X117100833Y-73716823D03*
X111004833Y-72446823D03*
X109480833Y-75494823D03*
X152186529Y-64691503D03*
D41*
X151678529Y-45641504D03*
X149138529Y-28369503D03*
X132374529Y-45641503D03*
X128310529Y-58849503D03*
X118658529Y-48181503D03*
X142771782Y-55022756D03*
X142026529Y-57833503D03*
X157012529Y-66977503D03*
X147360529Y-60881503D03*
X151424529Y-57325503D03*
X145836529Y-56055503D03*
X156930681Y-53343351D03*
X129580529Y-43101503D03*
X136570182Y-28501156D03*
X138216529Y-35735503D03*
X138126333Y-33678005D03*
X129834529Y-45641503D03*
X130088529Y-44096512D03*
X153202529Y-59103503D03*
X155488529Y-55293503D03*
X129580529Y-41921504D03*
X130850529Y-38021503D03*
X130850529Y-38021503D03*
X139740529Y-41831503D03*
X143978977Y-44799951D03*
X144877283Y-46021504D03*
X137085100Y-44880359D03*
X132628529Y-44096512D03*
X150916529Y-48538061D03*
X150916529Y-47088061D03*
X141010529Y-51737503D03*
X142060025Y-50180007D03*
X142026529Y-48181503D03*
X142454977Y-45298645D03*
X144566529Y-40307503D03*
X145074529Y-37005503D03*
X126216466Y-53831566D03*
X126626261Y-50688955D03*
X133766876Y-44249156D03*
X136438529Y-44117503D03*
X129580529Y-38058503D03*
X129580529Y-39508503D03*
X132374529Y-38529503D03*
D42*
X100844833Y-64588823D02*
X99894823Y-64588823D01*
X99894823Y-64588823D02*
X99314000Y-64008000D01*
X100844833Y-69464823D02*
X100844833Y-68789199D01*
X100844833Y-68789199D02*
X101386529Y-68247503D01*
X100092529Y-78153503D02*
X100092529Y-77399503D01*
X100092529Y-77399503D02*
X101132529Y-76359503D01*
X107786833Y-75682823D02*
X109292833Y-75682823D01*
X109292833Y-75682823D02*
X109480833Y-75494823D01*
X115814833Y-73208823D02*
X116592833Y-73208823D01*
X116592833Y-73208823D02*
X117100833Y-73716823D01*
X111766833Y-71176823D02*
X111766833Y-71684823D01*
X111766833Y-71684823D02*
X111004833Y-72446823D01*
X120910833Y-66858823D02*
X119894833Y-66858823D01*
X119894833Y-66858823D02*
X118116833Y-68636823D01*
D43*
X139700000Y-49976660D02*
X139700000Y-50292000D01*
X138738482Y-49015142D02*
X139700000Y-49976660D01*
X123594153Y-73073503D02*
X123992529Y-73073503D01*
X122434833Y-73378823D02*
X123288833Y-73378823D01*
X123288833Y-73378823D02*
X123594153Y-73073503D01*
X150746529Y-64691503D02*
X152186529Y-64691503D01*
D44*
X151678529Y-45641503D02*
X151678529Y-45641504D01*
X151678529Y-44621503D02*
X151678529Y-45641503D01*
X150578529Y-44371503D02*
X151428529Y-44371503D01*
X151428529Y-44371503D02*
X151678529Y-44621503D01*
X148630529Y-44371503D02*
X150578529Y-44371503D01*
X149138529Y-28841503D02*
X149138529Y-28369503D01*
X149068529Y-29961503D02*
X149068529Y-28911503D01*
X149068529Y-28911503D02*
X149138529Y-28841503D01*
X131088712Y-48181503D02*
X131088712Y-48451320D01*
X131088712Y-46641686D02*
X131088712Y-48181503D01*
X131088712Y-49185320D02*
X131088712Y-48181503D01*
X130326529Y-49197503D02*
X131076529Y-49197503D01*
X131076529Y-49197503D02*
X131088712Y-49185320D01*
X131869320Y-46146712D02*
X132374529Y-45641503D01*
X131088712Y-46641686D02*
X131583686Y-46146712D01*
X131583686Y-46146712D02*
X131869320Y-46146712D01*
X128310529Y-59075503D02*
X128310529Y-58849503D01*
X129850529Y-59865503D02*
X129100529Y-59865503D01*
X129100529Y-59865503D02*
X128310529Y-59075503D01*
X129850529Y-59865503D02*
X129850529Y-59990503D01*
X129850529Y-59990503D02*
X130675530Y-60815504D01*
X133926529Y-59865503D02*
X134676529Y-59865503D01*
X130675530Y-60815504D02*
X132976528Y-60815504D01*
X132976528Y-60815504D02*
X133926529Y-59865503D01*
X129850529Y-59865503D02*
X129850529Y-59740503D01*
X129850529Y-59740503D02*
X130675530Y-58915502D01*
X130675530Y-58915502D02*
X131800530Y-58915502D01*
X131800530Y-58915502D02*
X133263529Y-57452503D01*
X133263529Y-57452503D02*
X133263529Y-56977503D01*
X134676529Y-59865503D02*
X134676529Y-58333503D01*
X134676529Y-58333503D02*
X135092529Y-57917503D01*
X136692529Y-55717503D02*
X136692529Y-56002505D01*
X136692529Y-56002505D02*
X135092529Y-57602505D01*
X135092529Y-57602505D02*
X135092529Y-57917503D01*
X120182529Y-46657503D02*
X118658529Y-48181503D01*
X117896529Y-44771503D02*
X120182529Y-44771503D01*
X120182529Y-44771503D02*
X122246529Y-44771503D01*
X120182529Y-44771503D02*
X120182529Y-46657503D01*
X122246529Y-44771503D02*
X122646529Y-45171503D01*
D42*
X117914833Y-65080823D02*
X121832855Y-65080823D01*
X121832855Y-65080823D02*
X123252446Y-66500414D01*
X123252446Y-66500414D02*
X137319927Y-66500414D01*
X137319927Y-66500414D02*
X141428280Y-62392061D01*
X141428280Y-62392061D02*
X141428280Y-60878229D01*
X141428280Y-60878229D02*
X141428280Y-60283254D01*
D44*
X159298529Y-65453503D02*
X154836315Y-65453503D01*
X150772315Y-61389503D02*
X149193422Y-59810610D01*
X150916529Y-61533717D02*
X150772315Y-61389503D01*
D43*
X150188574Y-61834447D02*
X150633518Y-61389503D01*
X150633518Y-61389503D02*
X150772315Y-61389503D01*
X150188574Y-62738447D02*
X150188574Y-61834447D01*
D44*
X142771782Y-55022756D02*
X142771782Y-54457071D01*
X142026529Y-53711818D02*
X142026529Y-51171817D01*
X142771782Y-54457071D02*
X142026529Y-53711818D01*
X142026529Y-57833503D02*
X142426528Y-58233502D01*
X142426528Y-58922000D02*
X142608031Y-59103503D01*
X142426528Y-58233502D02*
X142426528Y-58922000D01*
X142608031Y-59103503D02*
X142968397Y-58743137D01*
X141428280Y-60283254D02*
X142608031Y-59103503D01*
X139304168Y-48449456D02*
X142026529Y-51171817D01*
X157266529Y-31247503D02*
X158254357Y-31247503D01*
X162488528Y-48293504D02*
X161838529Y-48943503D01*
X158254357Y-31247503D02*
X158555358Y-30946502D01*
X158555358Y-30946502D02*
X160662530Y-30946502D01*
X160662530Y-30946502D02*
X162488528Y-32772500D01*
X162488528Y-32772500D02*
X162488528Y-48293504D01*
X143042529Y-28752503D02*
X142139529Y-29655503D01*
X143408540Y-28386492D02*
X143042529Y-28752503D01*
X146355527Y-41715503D02*
X150128529Y-41715503D01*
X150128529Y-41715503D02*
X150728529Y-41115503D01*
X145868529Y-41228505D02*
X146355527Y-41715503D01*
X125276528Y-42141502D02*
X125276528Y-42462504D01*
X125276528Y-42462504D02*
X126910536Y-44096512D01*
X127170522Y-44096512D02*
X130088529Y-44096512D01*
X124526529Y-41391503D02*
X125276528Y-42141502D01*
X126910536Y-44096512D02*
X127170522Y-44096512D01*
X128326529Y-49197503D02*
X128326529Y-47149503D01*
X128326529Y-47149503D02*
X129834529Y-45641503D01*
X128326529Y-49197503D02*
X128326529Y-49322503D01*
X128326529Y-49322503D02*
X129076529Y-50072503D01*
X129076529Y-50072503D02*
X129608531Y-50072503D01*
X129608531Y-50072503D02*
X130088531Y-50552503D01*
X130088531Y-50552503D02*
X130173529Y-50552503D01*
X130173529Y-50552503D02*
X130723529Y-51102503D01*
X130723529Y-51102503D02*
X130723529Y-51577503D01*
X128326529Y-49197503D02*
X128326529Y-49072503D01*
X130757346Y-46641686D02*
X131088712Y-46641686D01*
X157408528Y-67373502D02*
X157012529Y-66977503D01*
X161838529Y-66723503D02*
X161188530Y-67373502D01*
X161188530Y-67373502D02*
X157408528Y-67373502D01*
X147106529Y-60881503D02*
X147360529Y-60881503D01*
X146601320Y-60376294D02*
X147106529Y-60881503D01*
X146106346Y-59849686D02*
X146601320Y-60344660D01*
X146601320Y-60344660D02*
X146601320Y-60376294D01*
X151424529Y-57579503D02*
X151424529Y-57325503D01*
X151031899Y-57972133D02*
X151424529Y-57579503D01*
X150607636Y-58396396D02*
X151031899Y-57972133D01*
X149083636Y-57016610D02*
X149227850Y-57016610D01*
X149227850Y-57016610D02*
X150607636Y-58396396D01*
X144748890Y-55025550D02*
X144806576Y-55025550D01*
X144806576Y-55025550D02*
X145836529Y-56055503D01*
X156848833Y-53261503D02*
X156930681Y-53343351D01*
X156686529Y-53261503D02*
X156848833Y-53261503D01*
X155726529Y-51451503D02*
X155726529Y-52301503D01*
X155726529Y-52301503D02*
X156686529Y-53261503D01*
X129140529Y-42661503D02*
X129580529Y-43101503D01*
X127066529Y-42661503D02*
X129140529Y-42661503D01*
X137116529Y-29047503D02*
X136570182Y-28501156D01*
X137116529Y-29855503D02*
X137116529Y-29047503D01*
X137692529Y-35211503D02*
X138216529Y-35735503D01*
X136692529Y-35211503D02*
X137692529Y-35211503D01*
X138151831Y-33703503D02*
X138126333Y-33678005D01*
X139502529Y-33703503D02*
X138151831Y-33703503D01*
X139316529Y-31455503D02*
X139316529Y-33517503D01*
X139316529Y-33517503D02*
X139502529Y-33703503D01*
X141264529Y-31655503D02*
X139516529Y-31655503D01*
X139516529Y-31655503D02*
X139316529Y-31455503D01*
X138738482Y-49015142D02*
X138217763Y-48494423D01*
X138217763Y-48494423D02*
X136260199Y-48494423D01*
X136260199Y-48494423D02*
X134277120Y-50477502D01*
X134277120Y-50477502D02*
X132618530Y-50477502D01*
X132618530Y-50477502D02*
X131993529Y-51102503D01*
X131993529Y-51102503D02*
X131993529Y-51577503D01*
X130850529Y-44371503D02*
X130088529Y-44096512D01*
X130088529Y-44371503D02*
X130088529Y-44096512D01*
X159298529Y-65453503D02*
X162011531Y-65453503D01*
X162813530Y-49918504D02*
X162488528Y-49593502D01*
X162011531Y-65453503D02*
X162813530Y-64651504D01*
X162813530Y-64651504D02*
X162813530Y-49918504D01*
X162488528Y-49593502D02*
X161838529Y-48943503D01*
X143042529Y-58743137D02*
X144087055Y-58743137D01*
X142968397Y-58743137D02*
X143042529Y-58743137D01*
X150916529Y-61389503D02*
X150916529Y-61533717D01*
X154836315Y-65453503D02*
X150916529Y-61533717D01*
X153202529Y-59103503D02*
X150916529Y-61389503D01*
X155488529Y-54063503D02*
X155488529Y-55293503D01*
X153726529Y-51451503D02*
X153726529Y-52301503D01*
X153726529Y-52301503D02*
X155488529Y-54063503D01*
X147183305Y-58415005D02*
X147778280Y-58415005D01*
X144087055Y-58743137D02*
X144807787Y-59463869D01*
X144807787Y-59463869D02*
X145183999Y-59463869D01*
X145183999Y-59463869D02*
X146094238Y-58553630D01*
X146094238Y-58553630D02*
X147044680Y-58553630D01*
X147044680Y-58553630D02*
X147183305Y-58415005D01*
X149193422Y-59810610D02*
X149173885Y-59810610D01*
X149173885Y-59810610D02*
X147778280Y-58415005D01*
X146852529Y-37336502D02*
X145793528Y-37336502D01*
X147393528Y-37336502D02*
X146852529Y-37336502D01*
X146668529Y-29961503D02*
X146668529Y-37152502D01*
X146668529Y-37152502D02*
X146852529Y-37336502D01*
X145868529Y-38461503D02*
X145868529Y-41228505D01*
X150728529Y-41115503D02*
X150728529Y-40815503D01*
X161838529Y-48943503D02*
X160854177Y-48943503D01*
X160854177Y-48943503D02*
X160559178Y-48648504D01*
X160559178Y-48648504D02*
X158840532Y-48648504D01*
X158840532Y-48648504D02*
X151907531Y-41715503D01*
X151907531Y-41715503D02*
X151328529Y-41715503D01*
X151328529Y-41715503D02*
X150728529Y-41115503D01*
X130850529Y-44371503D02*
X131104529Y-44117503D01*
X131104529Y-44117503D02*
X131104529Y-43035503D01*
X130723529Y-51102503D02*
X131798539Y-50027493D01*
X131798539Y-50027493D02*
X134090719Y-50027493D01*
X134090719Y-50027493D02*
X136305151Y-47813061D01*
X136305151Y-47813061D02*
X138667773Y-47813061D01*
X138667773Y-47813061D02*
X139304168Y-48449456D01*
X129580529Y-41921504D02*
X129990530Y-41921504D01*
X129990530Y-41921504D02*
X131104529Y-43035503D01*
X130850529Y-38021503D02*
X130850529Y-35735503D01*
X130850529Y-35735503D02*
X131104529Y-35481503D01*
X147669422Y-55602396D02*
X147669422Y-55836859D01*
X147669422Y-55836859D02*
X146434778Y-57071503D01*
X144183205Y-55591235D02*
X145663473Y-57071503D01*
X145663473Y-57071503D02*
X146434778Y-57071503D01*
X136676529Y-59865503D02*
X136676529Y-57933503D01*
X136676529Y-57933503D02*
X136692529Y-57917503D01*
X138172797Y-53894179D02*
X137653332Y-54413644D01*
X137653332Y-56856700D02*
X136692529Y-57817503D01*
X136692529Y-57817503D02*
X136692529Y-57917503D01*
X137653332Y-54413644D02*
X137653332Y-56856700D01*
X137536402Y-54530574D02*
X138172797Y-53894179D01*
X137459526Y-34036504D02*
X138142525Y-34719503D01*
X138142525Y-34719503D02*
X140611529Y-34719503D01*
X140611529Y-34719503D02*
X141502529Y-33828503D01*
X141502529Y-33828503D02*
X141502529Y-33703503D01*
X135092529Y-55717503D02*
X134242529Y-55717503D01*
X134242529Y-55717503D02*
X133888530Y-56071502D01*
X133888530Y-56071502D02*
X133888530Y-58577502D01*
X133888530Y-58577502D02*
X132600529Y-59865503D01*
X132600529Y-59865503D02*
X131850529Y-59865503D01*
X135092529Y-55717503D02*
X135092529Y-55432501D01*
X136970717Y-53964888D02*
X137607112Y-53328493D01*
X135092529Y-55432501D02*
X136501527Y-54023503D01*
X136912102Y-54023503D02*
X136970717Y-53964888D01*
X136501527Y-54023503D02*
X136912102Y-54023503D01*
D42*
X111714833Y-65080823D02*
X111714833Y-69124823D01*
X111714833Y-69124823D02*
X111766833Y-69176823D01*
X106178833Y-65524823D02*
X110786833Y-65524823D01*
X110786833Y-65524823D02*
X111230833Y-65080823D01*
X111230833Y-65080823D02*
X111714833Y-65080823D01*
X100844833Y-66588823D02*
X100719833Y-66588823D01*
X100719833Y-66588823D02*
X99788432Y-67520224D01*
X99788432Y-67520224D02*
X99788432Y-73140406D01*
X99788432Y-73140406D02*
X101007529Y-74359503D01*
X101007529Y-74359503D02*
X101132529Y-74359503D01*
X101132529Y-74359503D02*
X102484529Y-74359503D01*
X102484529Y-74359503D02*
X103164529Y-75039503D01*
X106178833Y-65524823D02*
X101570833Y-65524823D01*
X100844833Y-66250823D02*
X100844833Y-66588823D01*
X101570833Y-65524823D02*
X100844833Y-66250823D01*
X115814833Y-75494823D02*
X115814833Y-75619823D01*
X115814833Y-75619823D02*
X114806833Y-76627823D01*
X114806833Y-76627823D02*
X106736833Y-76627823D01*
X106736833Y-76627823D02*
X105791833Y-75682823D01*
X105791833Y-75682823D02*
X105586833Y-75682823D01*
X107786833Y-74732823D02*
X113052833Y-74732823D01*
X113052833Y-74732823D02*
X113814833Y-75494823D01*
X106178833Y-70224823D02*
X106178833Y-72382823D01*
X106178833Y-72382823D02*
X106850432Y-73054422D01*
X107150311Y-74732823D02*
X107786833Y-74732823D01*
X106850432Y-73054422D02*
X106850432Y-74432944D01*
X106850432Y-74432944D02*
X107150311Y-74732823D01*
X108498529Y-73208823D02*
X107924529Y-73782823D01*
X113814833Y-73208823D02*
X108498529Y-73208823D01*
X107924529Y-73782823D02*
X107786833Y-73782823D01*
X118370833Y-72766823D02*
X120148833Y-72766823D01*
X120148833Y-72766823D02*
X120402833Y-73020823D01*
X113814833Y-73208823D02*
X113814833Y-70610823D01*
X113814833Y-70610823D02*
X113618833Y-70414823D01*
X113814833Y-73208823D02*
X113814833Y-73083823D01*
X113814833Y-73083823D02*
X114721234Y-72177422D01*
X114721234Y-72177422D02*
X116623432Y-72177422D01*
X116623432Y-72177422D02*
X117212833Y-72766823D01*
X117212833Y-72766823D02*
X118370833Y-72766823D01*
D43*
X113814833Y-73083823D02*
X114594234Y-72304422D01*
X114594234Y-72304422D02*
X116496432Y-72304422D01*
X116496432Y-72304422D02*
X116958833Y-72766823D01*
X116958833Y-72766823D02*
X117862833Y-72766823D01*
X107974833Y-73970823D02*
X107786833Y-73782823D01*
D44*
X132644346Y-48197320D02*
X132644346Y-47584184D01*
X132644346Y-47584184D02*
X133734778Y-46493752D01*
X144550712Y-61405320D02*
X144550712Y-60939188D01*
X144550712Y-60939188D02*
X143386778Y-59775254D01*
X148884529Y-42527502D02*
X151784528Y-42527502D01*
D42*
X101181436Y-51715904D02*
X100543456Y-51715904D01*
X100543456Y-51715904D02*
X99552128Y-50724576D01*
X101458529Y-41809503D02*
X103458529Y-41809503D01*
X103458529Y-41809503D02*
X105458529Y-43809503D01*
X116518833Y-70414823D02*
X116518833Y-67053301D01*
X116518833Y-67053301D02*
X101181436Y-51715904D01*
X99552128Y-50724576D02*
X99552128Y-43715904D01*
X99958530Y-43309502D02*
X101458529Y-41809503D01*
X99552128Y-43715904D02*
X99958530Y-43309502D01*
X120910833Y-70922823D02*
X117026833Y-70922823D01*
X117026833Y-70922823D02*
X116518833Y-70414823D01*
D43*
X148288574Y-62738447D02*
X148288574Y-64433548D01*
X148288574Y-64433548D02*
X148546529Y-64691503D01*
X120402833Y-74920823D02*
X121776833Y-74920823D01*
X121776833Y-74920823D02*
X122434833Y-75578823D01*
D44*
X155197530Y-46366504D02*
X151267974Y-46366504D01*
X161838529Y-50564265D02*
X160512766Y-49238502D01*
X151267974Y-46366504D02*
X151264530Y-46363060D01*
X160512766Y-49238502D02*
X158069528Y-49238502D01*
X158069528Y-49238502D02*
X155197530Y-46366504D01*
X161838529Y-51483503D02*
X161838529Y-50564265D01*
X151264530Y-46363060D02*
X145876972Y-46363060D01*
X145602284Y-46088372D02*
X145602284Y-45673503D01*
X145876972Y-46363060D02*
X145602284Y-46088372D01*
X145602284Y-45673503D02*
X145225284Y-45296503D01*
X145225284Y-45296503D02*
X144507731Y-45296503D01*
X144507731Y-45296503D02*
X144162731Y-45641503D01*
X144162731Y-45641503D02*
X143688229Y-46116005D01*
X144507730Y-45296504D02*
X144162731Y-45641503D01*
X143688229Y-46116005D02*
X143051834Y-46752400D01*
X142280529Y-46149503D02*
X142629425Y-46149503D01*
X142629425Y-46149503D02*
X143978977Y-44799951D01*
X140604128Y-44473102D02*
X142280529Y-46149503D01*
X139740529Y-41831503D02*
X140604128Y-42695102D01*
X140604128Y-42695102D02*
X140604128Y-44473102D01*
X144820529Y-46078258D02*
X144877283Y-46021504D01*
X144820529Y-46115076D02*
X144820529Y-46078258D01*
X143617519Y-47318086D02*
X144820529Y-46115076D01*
X143617519Y-47318086D02*
X144253914Y-46681691D01*
X137085100Y-44880359D02*
X139740529Y-42224930D01*
X139740529Y-42224930D02*
X139740529Y-41831503D01*
X132628529Y-42974501D02*
X132628529Y-44096512D01*
X131104529Y-41135503D02*
X131104529Y-41450501D01*
X131104529Y-41450501D02*
X132628529Y-42974501D01*
X159298529Y-52753503D02*
X157266529Y-50721503D01*
X157266529Y-50721503D02*
X157266529Y-50595913D01*
X150916529Y-48538061D02*
X152797087Y-48538061D01*
X152797087Y-48538061D02*
X153006519Y-48747493D01*
X153006520Y-49052906D02*
X153480128Y-49526514D01*
X153006519Y-48747493D02*
X153006520Y-49052906D01*
X156197130Y-49526514D02*
X157266529Y-50595913D01*
X153480128Y-49526514D02*
X156197130Y-49526514D01*
X158648530Y-52103504D02*
X159298529Y-52753503D01*
X150860077Y-47144513D02*
X150916529Y-47088061D01*
X150860077Y-47363051D02*
X150860077Y-47144513D01*
X144819600Y-47247376D02*
X150744402Y-47247376D01*
X150744402Y-47247376D02*
X150860077Y-47363051D01*
X144183205Y-47883771D02*
X144819600Y-47247376D01*
X153456529Y-47927503D02*
X153342087Y-47813061D01*
X153342087Y-47813061D02*
X145385285Y-47813061D01*
X145385285Y-47813061D02*
X144748890Y-48449456D01*
X153456529Y-48866505D02*
X153456529Y-47927503D01*
X156383530Y-49076504D02*
X153666528Y-49076504D01*
X158495530Y-51188504D02*
X156383530Y-49076504D01*
X153666528Y-49076504D02*
X153456529Y-48866505D01*
X161838529Y-53104265D02*
X159922768Y-51188504D01*
X161838529Y-54023503D02*
X161838529Y-53104265D01*
X159922768Y-51188504D02*
X158495530Y-51188504D01*
X156816519Y-50782313D02*
X156816519Y-51795493D01*
X145314576Y-49015142D02*
X145950971Y-48378747D01*
X156010730Y-49976524D02*
X156816519Y-50782313D01*
X151281990Y-49976524D02*
X156010730Y-49976524D01*
X149684213Y-48378747D02*
X151281990Y-49976524D01*
X156816519Y-51795493D02*
X159298529Y-54277503D01*
X145950971Y-48378747D02*
X149684213Y-48378747D01*
X159298529Y-54277503D02*
X159298529Y-55293503D01*
X145880261Y-49580827D02*
X146516656Y-48944432D01*
X149613488Y-48944432D02*
X151195558Y-50526502D01*
X151195558Y-50526502D02*
X154586530Y-50526502D01*
X146516656Y-48944432D02*
X149613488Y-48944432D01*
X159125527Y-56563503D02*
X160919291Y-56563503D01*
X154586530Y-50526502D02*
X154801528Y-50741500D01*
X154801528Y-50741500D02*
X154801528Y-52239504D01*
X154801528Y-52239504D02*
X159125527Y-56563503D01*
X160919291Y-56563503D02*
X161838529Y-56563503D01*
X146445946Y-50146513D02*
X147082341Y-49510118D01*
X147082341Y-49510118D02*
X148440784Y-49510118D01*
X148440784Y-49510118D02*
X156764169Y-57833503D01*
X156764169Y-57833503D02*
X159298529Y-57833503D01*
X151133351Y-52839095D02*
X157397759Y-59103503D01*
X157905759Y-59103503D02*
X157397759Y-59103503D01*
X157905759Y-59103503D02*
X161838529Y-59103503D01*
X149138529Y-52839095D02*
X151133351Y-52839095D01*
X147011632Y-50712198D02*
X149138529Y-52839095D01*
X158031349Y-60373503D02*
X151170529Y-53512683D01*
X147763702Y-53514878D02*
X151168334Y-53514878D01*
X151168334Y-53514878D02*
X151170529Y-53512683D01*
X147011632Y-52762808D02*
X147763702Y-53514878D01*
X159298529Y-60373503D02*
X158031349Y-60373503D01*
X146445946Y-53328493D02*
X147082341Y-53964888D01*
X160919291Y-61643503D02*
X161838529Y-61643503D01*
X147082341Y-53964888D02*
X150986324Y-53964888D01*
X150986324Y-53964888D02*
X158664939Y-61643503D01*
X158664939Y-61643503D02*
X160919291Y-61643503D01*
X145880261Y-53894179D02*
X146467973Y-54481891D01*
X158648530Y-62263504D02*
X159298529Y-62913503D01*
X146467973Y-54481891D02*
X150866917Y-54481891D01*
X150866917Y-54481891D02*
X158648530Y-62263504D01*
X143617519Y-56156920D02*
X145564219Y-58103620D01*
X145564219Y-58103620D02*
X146829884Y-58103620D01*
X146829884Y-58103620D02*
X149037399Y-55896105D01*
X149037399Y-55896105D02*
X151068133Y-55896105D01*
X151068133Y-55896105D02*
X158323528Y-63151500D01*
X158323528Y-63151500D02*
X158323528Y-63381504D01*
X158323528Y-63381504D02*
X159125527Y-64183503D01*
X159125527Y-64183503D02*
X160919291Y-64183503D01*
X160919291Y-64183503D02*
X161838529Y-64183503D01*
X143051834Y-56722606D02*
X143051834Y-56753306D01*
X143051834Y-56753306D02*
X144730280Y-58431752D01*
X141637619Y-55682413D02*
X141010529Y-55055323D01*
X141010529Y-55055323D02*
X141010529Y-51737503D01*
X141001224Y-56722606D02*
X141637619Y-56086211D01*
X141637619Y-56086211D02*
X141637619Y-55682413D01*
X142026529Y-48181503D02*
X142060025Y-50180007D01*
X142026529Y-50213503D02*
X142060025Y-50180007D01*
X142534529Y-45219093D02*
X142454977Y-45298645D01*
X142534529Y-42339503D02*
X142534529Y-45219093D01*
X144566529Y-40307503D02*
X142534529Y-42339503D01*
X145074529Y-35817503D02*
X145074529Y-37005503D01*
X143618529Y-35411503D02*
X144668529Y-35411503D01*
X144668529Y-35411503D02*
X145074529Y-35817503D01*
X141001224Y-56722606D02*
X141001224Y-58023306D01*
X141001224Y-58023306D02*
X140084778Y-58939752D01*
X140435539Y-56156920D02*
X139003362Y-57589097D01*
X139003361Y-64065453D02*
X137099810Y-65969004D01*
X139003362Y-57589097D02*
X139003361Y-64065453D01*
X137099810Y-65969004D02*
X130632030Y-65969004D01*
X130307028Y-65644002D02*
X129608529Y-64945503D01*
X130632030Y-65969004D02*
X130307028Y-65644002D01*
X136608529Y-62279915D02*
X138553352Y-60335092D01*
X138553352Y-56907736D02*
X138553352Y-60119503D01*
X136608529Y-64945503D02*
X136608529Y-62279915D01*
X138553352Y-60335092D02*
X138553352Y-60119503D01*
X139869853Y-55591235D02*
X138553352Y-56907736D01*
X126216466Y-53831566D02*
X126216466Y-58025440D01*
X126216466Y-58025440D02*
X129456540Y-61265514D01*
X129456540Y-61265514D02*
X136986520Y-61265514D01*
X136986520Y-61265514D02*
X137436530Y-60815504D01*
X125791527Y-49854221D02*
X125791527Y-45003503D01*
X125791527Y-45003503D02*
X126169527Y-44625503D01*
X126626261Y-50688955D02*
X125791527Y-49854221D01*
X137436530Y-60815504D02*
X138103342Y-60148692D01*
X138103342Y-60148692D02*
X138103342Y-55095004D01*
X138103342Y-55095004D02*
X138738482Y-54459864D01*
X137436530Y-60815504D02*
X137501530Y-60750504D01*
X126169527Y-44625503D02*
X123001518Y-41457494D01*
X126365536Y-44821512D02*
X126169527Y-44625503D01*
X124010528Y-35236502D02*
X125042530Y-35236502D01*
X123001518Y-36245512D02*
X124010528Y-35236502D01*
X123001518Y-41457494D02*
X123001518Y-36245512D01*
X133194520Y-44821512D02*
X126365536Y-44821512D01*
X133766876Y-44249156D02*
X133194520Y-44821512D01*
X125042530Y-35236502D02*
X126316530Y-36510502D01*
X126316530Y-36510502D02*
X126316530Y-36831504D01*
X126316530Y-36831504D02*
X127066529Y-37581503D01*
X137200529Y-43355503D02*
X136438529Y-44117503D01*
X137200529Y-41831503D02*
X137200529Y-43355503D01*
X137200529Y-41831503D02*
X138551928Y-40480104D01*
X138551928Y-40480104D02*
X142524928Y-40480104D01*
X142524928Y-40480104D02*
X144543529Y-38461503D01*
X144543529Y-38461503D02*
X145068529Y-38461503D01*
X128310529Y-53577524D02*
X128260549Y-53577524D01*
X136226710Y-53577524D02*
X128310529Y-53577524D01*
X122910528Y-48943503D02*
X122910528Y-49243503D01*
X125258498Y-50525493D02*
X128310529Y-53577524D01*
X122910528Y-49243503D02*
X124192518Y-50525493D01*
X124192518Y-50525493D02*
X125258498Y-50525493D01*
X137041426Y-52762808D02*
X136226710Y-53577524D01*
X129343538Y-53127514D02*
X128564529Y-52348505D01*
X128564529Y-51341504D02*
X128564529Y-52348505D01*
X126466528Y-48943503D02*
X126466528Y-49243503D01*
X126466528Y-49243503D02*
X128564529Y-51341504D01*
X134626110Y-53127514D02*
X129343538Y-53127514D01*
X137041426Y-50712198D02*
X134626110Y-53127514D01*
X136517324Y-49510118D02*
X133888530Y-52138912D01*
X133888530Y-52612504D02*
X133823530Y-52677504D01*
X136970717Y-49510118D02*
X136517324Y-49510118D01*
X137607112Y-50146513D02*
X136970717Y-49510118D01*
X130078530Y-52677504D02*
X129453529Y-52052503D01*
X133823530Y-52677504D02*
X130078530Y-52677504D01*
X129453529Y-52052503D02*
X129453529Y-51577503D01*
X133888530Y-52138912D02*
X133888530Y-52612504D01*
X136446600Y-48944432D02*
X133813529Y-51577503D01*
X133813529Y-51577503D02*
X133263529Y-51577503D01*
X137536402Y-48944432D02*
X136446600Y-48944432D01*
X139869853Y-47883771D02*
X139349133Y-47363051D01*
X139349133Y-47363051D02*
X136118751Y-47363051D01*
X136118751Y-47363051D02*
X135554299Y-47927503D01*
X135554299Y-47927503D02*
X135168529Y-47927503D01*
X135168529Y-47927503D02*
X135078280Y-47837254D01*
X132628529Y-42085503D02*
X132374529Y-41831503D01*
X139683468Y-46566015D02*
X137109040Y-46566014D01*
X137109040Y-46566014D02*
X132628529Y-42085503D01*
X132882529Y-42339503D02*
X132628529Y-42085503D01*
X140435539Y-47318086D02*
X139683468Y-46566015D01*
X130240930Y-33805102D02*
X130240930Y-34313102D01*
X130240930Y-34313102D02*
X129580529Y-34973503D01*
X129580529Y-38058503D02*
X129580529Y-34973503D01*
X127066529Y-40121503D02*
X129580529Y-40121503D01*
X129580529Y-40121503D02*
X129580529Y-39508503D01*
X129580529Y-40121503D02*
X131104529Y-40121503D01*
X130240930Y-33805102D02*
X131104529Y-32941503D01*
X147468529Y-29961503D02*
X147468529Y-31011503D01*
X147468529Y-31011503D02*
X148078531Y-31621505D01*
X148078531Y-31621505D02*
X148268529Y-31621505D01*
X148268529Y-38461503D02*
X148268529Y-31621505D01*
X148268529Y-31621505D02*
X149068529Y-30821505D01*
X149068529Y-30821505D02*
X149068529Y-29961503D01*
X131072208Y-35513824D02*
X131104529Y-35481503D01*
X132677215Y-38529503D02*
X132374529Y-38529503D01*
X134660529Y-39291503D02*
X133439215Y-39291503D01*
X133439215Y-39291503D02*
X132677215Y-38529503D01*
X147468529Y-38461503D02*
X147468529Y-37411503D01*
X145793528Y-37336502D02*
X145868529Y-37411503D01*
X147468529Y-37411503D02*
X147393528Y-37336502D01*
X145868529Y-37411503D02*
X145868529Y-38461503D01*
X148268529Y-29961503D02*
X148268529Y-28911503D01*
X148268529Y-28911503D02*
X147743518Y-28386492D01*
X147743518Y-28386492D02*
X145979928Y-28386492D01*
X146668529Y-29961503D02*
X146668529Y-29075093D01*
X146668529Y-29075093D02*
X145979928Y-28386492D01*
X145979928Y-28386492D02*
X143408540Y-28386492D01*
X142139529Y-29655503D02*
X141264529Y-29655503D01*
X137116529Y-31455503D02*
X136166529Y-31455503D01*
X135807528Y-34036504D02*
X137459526Y-34036504D01*
X136166529Y-31455503D02*
X135742528Y-31879504D01*
X135742528Y-31879504D02*
X135742528Y-33971504D01*
X141502529Y-33578503D02*
X141502529Y-33703503D01*
X135742528Y-33971504D02*
X135807528Y-34036504D01*
X145068529Y-29961503D02*
X143228529Y-29961503D01*
X143228529Y-29961503D02*
X142252529Y-30937503D01*
X142252529Y-30937503D02*
X142252529Y-32828503D01*
X142252529Y-32828503D02*
X141502529Y-33578503D01*
X139316529Y-29855503D02*
X139941530Y-30480504D01*
X145793528Y-28836502D02*
X145868529Y-28911503D01*
X139941530Y-30480504D02*
X142073118Y-30480504D01*
X142073118Y-30480504D02*
X143717120Y-28836502D01*
X143717120Y-28836502D02*
X145793528Y-28836502D01*
X145868529Y-28911503D02*
X145868529Y-29961503D01*
X136692529Y-33211503D02*
X137567529Y-33211503D01*
X137567529Y-33211503D02*
X138291528Y-32487504D01*
X138366529Y-29855503D02*
X139316529Y-29855503D01*
X138291528Y-32487504D02*
X138291528Y-29930504D01*
X138291528Y-29930504D02*
X138366529Y-29855503D01*
X151784528Y-42527502D02*
X152778529Y-43521503D01*
X152778529Y-43521503D02*
X152778529Y-44371503D01*
X146852529Y-42527503D02*
X146852529Y-43949503D01*
X146852529Y-43949503D02*
X146430529Y-44371503D01*
X139566081Y-42005951D02*
X139740529Y-41831503D01*
X131104529Y-41135503D02*
X131104529Y-41224115D01*
X124526529Y-36311503D02*
X123451528Y-37386504D01*
X126550528Y-41196504D02*
X130143528Y-41196504D01*
X123451528Y-37386504D02*
X123451528Y-39367504D01*
X123451528Y-39367504D02*
X124400526Y-40316502D01*
X124400526Y-40316502D02*
X125670526Y-40316502D01*
X125670526Y-40316502D02*
X126550528Y-41196504D01*
X130204529Y-41135503D02*
X131104529Y-41135503D01*
X130143528Y-41196504D02*
X130204529Y-41135503D01*
X127066529Y-37581503D02*
X128141530Y-36506502D01*
X128141530Y-36506502D02*
X128141530Y-34145372D01*
X128141530Y-34145372D02*
X130534000Y-31752902D01*
X130534000Y-31752902D02*
X132455928Y-31752902D01*
X132780930Y-32077904D02*
X133644529Y-32941503D01*
X132455928Y-31752902D02*
X132780930Y-32077904D01*
X138172797Y-49580827D02*
X137536402Y-48944432D01*
X131104529Y-40121503D02*
X132188529Y-40121503D01*
X132374529Y-41831503D02*
X132374529Y-40307503D01*
X132188529Y-40121503D02*
X132374529Y-40307503D01*
X132882529Y-42365705D02*
X132882529Y-42339503D01*
X131104529Y-32941503D02*
X132374529Y-34211503D01*
X132374529Y-34211503D02*
X132455928Y-34292902D01*
X132882529Y-34292902D02*
X134768130Y-34292902D01*
X132709928Y-34292902D02*
X132882529Y-34292902D01*
X132455928Y-34292902D02*
X132882529Y-34292902D01*
X135930529Y-38021503D02*
X136336930Y-38427904D01*
X135742528Y-37833502D02*
X135930529Y-38021503D01*
X142218539Y-36561493D02*
X137390539Y-36561493D01*
X137390539Y-36561493D02*
X135930529Y-38021503D01*
X143618529Y-36211503D02*
X142568529Y-36211503D01*
X142568529Y-36211503D02*
X142218539Y-36561493D01*
X135742528Y-35267300D02*
X135742528Y-37833502D01*
X134768130Y-34292902D02*
X135742528Y-35267300D01*
X136336930Y-38427904D02*
X137200529Y-39291503D01*
X137295441Y-46116005D02*
X134660529Y-43481093D01*
X134660529Y-43481093D02*
X134660529Y-41831503D01*
X137831431Y-46116005D02*
X137962529Y-46116005D01*
X137962529Y-46116005D02*
X140364829Y-46116005D01*
X137962529Y-46116005D02*
X137295441Y-46116005D01*
X134660529Y-41831503D02*
X134660529Y-42945103D01*
X140364829Y-46116005D02*
X141001224Y-46752400D01*
X131649528Y-38181502D02*
X131649528Y-38783503D01*
X131649528Y-38783503D02*
X131649528Y-38946092D01*
X131649528Y-38783503D02*
X127455531Y-38783503D01*
X127455531Y-38783503D02*
X127387531Y-38851503D01*
X132824539Y-41109113D02*
X133546929Y-41831503D01*
X131649528Y-38946092D02*
X132824538Y-40121102D01*
X133644529Y-36186501D02*
X131649528Y-38181502D01*
X132824538Y-40121102D02*
X132824539Y-41109113D01*
X133644529Y-35481503D02*
X133644529Y-36186501D01*
X133546929Y-41831503D02*
X134660529Y-41831503D01*
X127040529Y-38851503D02*
X127387531Y-38851503D01*
X124526529Y-38851503D02*
X127040529Y-38851503D01*
X133644529Y-35481503D02*
X133644529Y-36595103D01*
X135441399Y-41831503D02*
X134660529Y-41831503D01*
X143618529Y-37011503D02*
X140261399Y-37011503D01*
X140261399Y-37011503D02*
X138389130Y-38883772D01*
X138389130Y-38883772D02*
X138389130Y-39862032D01*
X138389130Y-39862032D02*
X137608260Y-40642902D01*
X137608260Y-40642902D02*
X134735530Y-40642902D01*
X134735530Y-40642902D02*
X134660529Y-40717903D01*
X134660529Y-40717903D02*
X134660529Y-41831503D01*
X158282529Y-50213503D02*
X156070529Y-48001503D01*
X156070529Y-48001503D02*
X154726529Y-48001503D01*
X159298529Y-50213503D02*
X158282529Y-50213503D01*
X157266529Y-38247503D02*
X154430529Y-35411503D01*
X154430529Y-35411503D02*
X152118529Y-35411503D01*
X154616929Y-34961493D02*
X154417167Y-34961493D01*
X156879438Y-37224002D02*
X154616929Y-34961493D01*
X157757810Y-37224002D02*
X156879438Y-37224002D01*
X158290030Y-37756222D02*
X157757810Y-37224002D01*
X157266529Y-41747503D02*
X158290030Y-40724002D01*
X158290030Y-40724002D02*
X158290030Y-37756222D01*
X154417167Y-34961493D02*
X154067177Y-34611503D01*
X154067177Y-34611503D02*
X152118529Y-34611503D01*
X152118529Y-34611503D02*
X153168529Y-34611503D01*
X153168529Y-34611503D02*
X153202529Y-34645503D01*
X154472529Y-34380445D02*
X154603567Y-34511483D01*
X154472529Y-34380445D02*
X154672291Y-34380445D01*
X153228529Y-40815503D02*
X152628529Y-40815503D01*
X153903587Y-33811503D02*
X154472529Y-34380445D01*
X154672291Y-34380445D02*
X157065838Y-36773992D01*
X157065838Y-36773992D02*
X157944211Y-36773993D01*
X157944211Y-36773993D02*
X158740040Y-37569822D01*
X158740040Y-37569822D02*
X158740040Y-41788774D01*
X158740040Y-41788774D02*
X157757810Y-42771004D01*
X155184030Y-42771004D02*
X153228529Y-40815503D01*
X157757810Y-42771004D02*
X155184030Y-42771004D01*
X150408529Y-28041501D02*
X150011530Y-27644502D01*
X150011530Y-27644502D02*
X136401530Y-27644502D01*
X136401530Y-27644502D02*
X134508128Y-29537904D01*
X134508128Y-29537904D02*
X133644529Y-30401503D01*
X153202529Y-33811503D02*
X153903587Y-33811503D01*
X152118529Y-33811503D02*
X153202529Y-33811503D01*
X153243530Y-30876502D02*
X153243530Y-33770502D01*
X153243530Y-33770502D02*
X153202529Y-33811503D01*
X135930529Y-28115503D02*
X136109550Y-27936482D01*
X150408529Y-28041501D02*
X150990531Y-28623503D01*
X135168529Y-28877503D02*
X135930529Y-28115503D01*
X150303510Y-27936482D02*
X150408529Y-28041501D01*
X150990531Y-28623503D02*
X153243530Y-30876502D01*
X150753520Y-28386492D02*
X150990531Y-28623503D01*
X135168529Y-28877503D02*
X135659540Y-28386492D01*
X133644529Y-30401503D02*
X135168529Y-28877503D01*
X153168529Y-33811503D02*
X152118529Y-33811503D01*
X121010530Y-48943503D02*
X118347527Y-48943503D01*
X118347527Y-48943503D02*
X116821528Y-47417504D01*
X116821528Y-47417504D02*
X116821528Y-36751503D01*
X116821528Y-32746504D02*
X116821528Y-36751503D01*
X116821528Y-36751503D02*
X116821528Y-37005503D01*
X121010530Y-48943503D02*
X120410530Y-48943503D01*
X116821528Y-37005503D02*
X116821528Y-36877506D01*
X117896529Y-31671503D02*
X116821528Y-32746504D01*
X123462530Y-43471502D02*
X124108531Y-44117503D01*
X124566530Y-48943503D02*
X124566530Y-44575502D01*
X124566530Y-44575502D02*
X124108531Y-44117503D01*
X117896529Y-42231503D02*
X119136528Y-43471502D01*
X119136528Y-43471502D02*
X123462530Y-43471502D01*
X148884529Y-40627504D02*
X149362530Y-40627504D01*
X149362530Y-40627504D02*
X150668529Y-39321505D01*
X150668529Y-39321505D02*
X150668529Y-38461503D01*
X146852529Y-40627503D02*
X147152529Y-40627503D01*
X149237531Y-39952503D02*
X149868529Y-39321505D01*
X147152529Y-40627503D02*
X147827529Y-39952503D01*
X147827529Y-39952503D02*
X149237531Y-39952503D01*
X149868529Y-39321505D02*
X149868529Y-38461503D01*
D42*
X103164529Y-73139503D02*
X104943513Y-73139503D01*
X104943513Y-73139503D02*
X105586833Y-73782823D01*
X100844833Y-71364823D02*
X102619513Y-73139503D01*
X102619513Y-73139503D02*
X103164529Y-73139503D01*
X105586833Y-74732823D02*
X104950311Y-74732823D01*
X104650432Y-76332944D02*
X105605721Y-77288233D01*
X104950311Y-74732823D02*
X104650432Y-75032702D01*
X104650432Y-75032702D02*
X104650432Y-76332944D01*
X105605721Y-77288233D02*
X116607423Y-77288233D01*
X116607423Y-77288233D02*
X118370833Y-75524823D01*
X118370833Y-75524823D02*
X118370833Y-74666823D01*
D44*
X114624529Y-50975503D02*
X125022118Y-50975503D01*
X125022118Y-50975503D02*
X129924117Y-55877502D01*
X109458529Y-45809503D02*
X114624529Y-50975503D01*
X129924117Y-55877502D02*
X130098528Y-55877502D01*
X130723529Y-56502503D02*
X130723529Y-56977503D01*
X130098528Y-55877502D02*
X130723529Y-56502503D01*
X124526529Y-33771503D02*
X121587531Y-33771503D01*
X109458529Y-39688183D02*
X109458529Y-41809503D01*
X121587531Y-33771503D02*
X118412530Y-30596502D01*
X118412530Y-30596502D02*
X117380528Y-30596502D01*
X117380528Y-30596502D02*
X109458529Y-38518501D01*
X109458529Y-38518501D02*
X109458529Y-39688183D01*
X130723529Y-56977503D02*
X130723529Y-56676914D01*
X109458529Y-45809503D02*
X109458529Y-41809503D01*
X128828528Y-55418323D02*
X128828528Y-58012504D01*
X127237119Y-53826914D02*
X128828528Y-55418323D01*
X128828528Y-58012504D02*
X128893528Y-58077504D01*
X124835718Y-51425513D02*
X127237119Y-53826914D01*
X131368528Y-58077504D02*
X128893528Y-58077504D01*
X131993529Y-57452503D02*
X131368528Y-58077504D01*
X128893528Y-58077504D02*
X128818529Y-58002505D01*
X124835718Y-51425513D02*
X111074539Y-51425513D01*
X131993529Y-56977503D02*
X131993529Y-57452503D01*
X111074539Y-51425513D02*
X109458529Y-49809503D01*
X118598931Y-30146493D02*
X121423942Y-32971504D01*
X117194128Y-30146492D02*
X118598931Y-30146493D01*
X107633528Y-39707092D02*
X117194128Y-30146492D01*
X107633528Y-44335506D02*
X107633528Y-39707092D01*
X124010528Y-32696502D02*
X125782188Y-32696502D01*
X105458529Y-46510505D02*
X107633528Y-44335506D01*
X105458529Y-47809503D02*
X105458529Y-46510505D01*
X121423942Y-32971504D02*
X123735526Y-32971504D01*
X123735526Y-32971504D02*
X124010528Y-32696502D01*
X125782188Y-32696502D02*
X127066529Y-33980843D01*
X127066529Y-33980843D02*
X127066529Y-35041503D01*
X105458529Y-47809503D02*
X107458529Y-49809503D01*
X107458529Y-49809503D02*
X109458529Y-49809503D01*
M02*
