M48
;DRILL file {KiCad 5.0-dev-unknown-dd04bcb~61~ubuntu16.04.1} date Thu Mar  8 21:27:49 2018
;FORMAT={-:-/ absolute / inch / decimal}
FMAT,2
INCH,TZ
T1C0.0120
T2C0.0157
T3C0.0315
T4C0.0374
T5C0.0400
T6C0.0402
T7C0.0591
T8C0.0630
T9C0.0689
T10C0.0858
%
G90
G05
M72
T1
X3.91Y-2.52
X3.9407Y-3.0769
X3.9916Y-2.6869
X4.3103Y-2.9722
X4.3703Y-2.8522
X4.6103Y-2.9022
X4.6503Y-2.7022
X4.8816Y-2.8769
X5.5Y-1.98
X5.9916Y-2.5469
T2
X4.6716Y-1.8969
X4.9692Y-2.1194
X4.9853Y-1.9956
X5.0516Y-2.3169
X5.1016Y-1.4984
X5.1016Y-1.5555
X5.1016Y-1.6505
X5.1016Y-1.6969
X5.1116Y-1.7969
X5.1216Y-1.7361
X5.1516Y-1.4969
X5.1516Y-1.4969
X5.2116Y-1.5169
X5.2116Y-1.7969
X5.2216Y-1.7361
X5.2664Y-1.7421
X5.3716Y-1.7369
X5.3768Y-1.1221
X5.3971Y-1.7669
X5.438Y-1.3259
X5.4416Y-1.4069
X5.5016Y-1.6469
X5.5516Y-2.0369
X5.5916Y-1.8969
X5.5916Y-2.2769
X5.5929Y-1.9756
X5.6085Y-1.7834
X5.6209Y-2.1663
X5.6685Y-1.7638
X5.6916Y-1.5869
X5.7038Y-1.8119
X5.7116Y-1.4569
X5.7416Y-2.2069
X5.8016Y-2.3969
X5.8716Y-1.1169
X5.9416Y-1.8539
X5.9416Y-1.9109
X5.9616Y-2.2569
X5.9716Y-1.7969
X6.0316Y-2.3269
X6.1216Y-2.1769
X6.1784Y-2.1001
X6.1816Y-2.6369
T3
X6.2716Y-1.8769
X6.2716Y-1.9769
X6.2716Y-2.0769
X6.2716Y-2.1769
X6.2716Y-2.2769
X6.2716Y-2.3769
X6.2716Y-2.4769
X6.2716Y-2.5769
X6.3716Y-1.9269
X6.3716Y-2.0269
X6.3716Y-2.1269
X6.3716Y-2.2269
X6.3716Y-2.3269
X6.3716Y-2.4269
X6.3716Y-2.5269
X6.3716Y-2.6269
T4
X4.6416Y-1.2469
X4.6416Y-1.3469
X4.6416Y-1.6627
X4.6416Y-1.7627
X4.9026Y-1.3296
X4.9026Y-1.4296
X4.9026Y-1.5296
X4.9026Y-1.6296
X5.0026Y-1.3796
X5.0026Y-1.4796
X5.0026Y-1.5796
X5.0026Y-1.6796
T5
X5.1616Y-1.1969
X5.1616Y-1.2969
X5.1616Y-1.3969
X5.2616Y-1.1969
X5.2616Y-1.2969
X5.2616Y-1.3969
X5.3016Y-1.5469
X5.3016Y-1.6469
X5.4016Y-1.5469
X5.4016Y-1.6469
X5.5016Y-1.5469
X5.5016Y-1.6469
T6
X6.1916Y-1.2302
X6.1916Y-1.368
X6.1916Y-1.5058
X6.1916Y-1.6436
X4.9649Y-2.5569
X5.1027Y-2.5569
X5.2405Y-2.5569
X5.3783Y-2.5569
T7
X6.3425Y-1.8218
T8
X6.1038Y-1.2991
X5.3094Y-2.4691
T9
X3.9944Y-1.646
X3.9944Y-1.8035
X3.9944Y-1.961
X4.1519Y-1.7248
X4.1519Y-1.8823
X4.3094Y-1.646
X4.3094Y-1.8035
X4.3094Y-1.961
T10
X4.8286Y-1.2312
X4.8286Y-1.7784
T0
M30
