G04 #@! TF.FileFunction,Copper,L1,Top,Signal*
%FSLAX46Y46*%
G04 Gerber Fmt 4.6, Leading zero omitted, Abs format (unit mm)*
G04 Created by KiCad (PCBNEW 4.0.7-e2-6376~58~ubuntu16.04.1) date Fri Feb 16 15:49:58 2018*
%MOMM*%
%LPD*%
G01*
G04 APERTURE LIST*
%ADD10C,0.100000*%
%ADD11R,1.000000X1.250000*%
%ADD12R,1.600000X1.000000*%
%ADD13R,1.250000X1.000000*%
%ADD14R,2.159000X1.778000*%
%ADD15R,1.200000X1.200000*%
%ADD16R,2.500000X0.900000*%
%ADD17C,1.300000*%
%ADD18R,3.300000X8.200000*%
%ADD19R,1.727200X1.727200*%
%ADD20O,1.727200X1.727200*%
%ADD21R,0.900000X0.800000*%
%ADD22R,1.300000X0.700000*%
%ADD23R,0.700000X1.300000*%
%ADD24R,1.000000X3.200000*%
%ADD25R,3.200000X1.000000*%
%ADD26R,1.060000X0.650000*%
%ADD27R,1.550000X0.600000*%
%ADD28R,1.400000X1.200000*%
%ADD29C,0.609600*%
%ADD30C,0.254000*%
%ADD31C,0.508000*%
%ADD32C,0.762000*%
%ADD33C,0.152400*%
G04 APERTURE END LIST*
D10*
G36*
X153596866Y-117660245D02*
X153207957Y-117271336D01*
X154339328Y-116139965D01*
X154728237Y-116528874D01*
X153596866Y-117660245D01*
X153596866Y-117660245D01*
G37*
G36*
X154162552Y-118225930D02*
X153773643Y-117837021D01*
X154905014Y-116705650D01*
X155293923Y-117094559D01*
X154162552Y-118225930D01*
X154162552Y-118225930D01*
G37*
G36*
X154728237Y-118791616D02*
X154339328Y-118402707D01*
X155470699Y-117271336D01*
X155859608Y-117660245D01*
X154728237Y-118791616D01*
X154728237Y-118791616D01*
G37*
G36*
X155293922Y-119357301D02*
X154905013Y-118968392D01*
X156036384Y-117837021D01*
X156425293Y-118225930D01*
X155293922Y-119357301D01*
X155293922Y-119357301D01*
G37*
G36*
X155859608Y-119922987D02*
X155470699Y-119534078D01*
X156602070Y-118402707D01*
X156990979Y-118791616D01*
X155859608Y-119922987D01*
X155859608Y-119922987D01*
G37*
G36*
X156425293Y-120488672D02*
X156036384Y-120099763D01*
X157167755Y-118968392D01*
X157556664Y-119357301D01*
X156425293Y-120488672D01*
X156425293Y-120488672D01*
G37*
G36*
X156990979Y-121054357D02*
X156602070Y-120665448D01*
X157733441Y-119534077D01*
X158122350Y-119922986D01*
X156990979Y-121054357D01*
X156990979Y-121054357D01*
G37*
G36*
X157556664Y-121620043D02*
X157167755Y-121231134D01*
X158299126Y-120099763D01*
X158688035Y-120488672D01*
X157556664Y-121620043D01*
X157556664Y-121620043D01*
G37*
G36*
X160738645Y-121231134D02*
X160349736Y-121620043D01*
X159218365Y-120488672D01*
X159607274Y-120099763D01*
X160738645Y-121231134D01*
X160738645Y-121231134D01*
G37*
G36*
X161304330Y-120665448D02*
X160915421Y-121054357D01*
X159784050Y-119922986D01*
X160172959Y-119534077D01*
X161304330Y-120665448D01*
X161304330Y-120665448D01*
G37*
G36*
X161870016Y-120099763D02*
X161481107Y-120488672D01*
X160349736Y-119357301D01*
X160738645Y-118968392D01*
X161870016Y-120099763D01*
X161870016Y-120099763D01*
G37*
G36*
X162435701Y-119534078D02*
X162046792Y-119922987D01*
X160915421Y-118791616D01*
X161304330Y-118402707D01*
X162435701Y-119534078D01*
X162435701Y-119534078D01*
G37*
G36*
X163001387Y-118968392D02*
X162612478Y-119357301D01*
X161481107Y-118225930D01*
X161870016Y-117837021D01*
X163001387Y-118968392D01*
X163001387Y-118968392D01*
G37*
G36*
X163567072Y-118402707D02*
X163178163Y-118791616D01*
X162046792Y-117660245D01*
X162435701Y-117271336D01*
X163567072Y-118402707D01*
X163567072Y-118402707D01*
G37*
G36*
X164132757Y-117837021D02*
X163743848Y-118225930D01*
X162612477Y-117094559D01*
X163001386Y-116705650D01*
X164132757Y-117837021D01*
X164132757Y-117837021D01*
G37*
G36*
X164698443Y-117271336D02*
X164309534Y-117660245D01*
X163178163Y-116528874D01*
X163567072Y-116139965D01*
X164698443Y-117271336D01*
X164698443Y-117271336D01*
G37*
G36*
X163567072Y-115609635D02*
X163178163Y-115220726D01*
X164309534Y-114089355D01*
X164698443Y-114478264D01*
X163567072Y-115609635D01*
X163567072Y-115609635D01*
G37*
G36*
X163001386Y-115043950D02*
X162612477Y-114655041D01*
X163743848Y-113523670D01*
X164132757Y-113912579D01*
X163001386Y-115043950D01*
X163001386Y-115043950D01*
G37*
G36*
X162435701Y-114478264D02*
X162046792Y-114089355D01*
X163178163Y-112957984D01*
X163567072Y-113346893D01*
X162435701Y-114478264D01*
X162435701Y-114478264D01*
G37*
G36*
X161870016Y-113912579D02*
X161481107Y-113523670D01*
X162612478Y-112392299D01*
X163001387Y-112781208D01*
X161870016Y-113912579D01*
X161870016Y-113912579D01*
G37*
G36*
X161304330Y-113346893D02*
X160915421Y-112957984D01*
X162046792Y-111826613D01*
X162435701Y-112215522D01*
X161304330Y-113346893D01*
X161304330Y-113346893D01*
G37*
G36*
X160738645Y-112781208D02*
X160349736Y-112392299D01*
X161481107Y-111260928D01*
X161870016Y-111649837D01*
X160738645Y-112781208D01*
X160738645Y-112781208D01*
G37*
G36*
X160172959Y-112215523D02*
X159784050Y-111826614D01*
X160915421Y-110695243D01*
X161304330Y-111084152D01*
X160172959Y-112215523D01*
X160172959Y-112215523D01*
G37*
G36*
X159607274Y-111649837D02*
X159218365Y-111260928D01*
X160349736Y-110129557D01*
X160738645Y-110518466D01*
X159607274Y-111649837D01*
X159607274Y-111649837D01*
G37*
G36*
X158688035Y-111260928D02*
X158299126Y-111649837D01*
X157167755Y-110518466D01*
X157556664Y-110129557D01*
X158688035Y-111260928D01*
X158688035Y-111260928D01*
G37*
G36*
X158122350Y-111826614D02*
X157733441Y-112215523D01*
X156602070Y-111084152D01*
X156990979Y-110695243D01*
X158122350Y-111826614D01*
X158122350Y-111826614D01*
G37*
G36*
X157556664Y-112392299D02*
X157167755Y-112781208D01*
X156036384Y-111649837D01*
X156425293Y-111260928D01*
X157556664Y-112392299D01*
X157556664Y-112392299D01*
G37*
G36*
X156990979Y-112957984D02*
X156602070Y-113346893D01*
X155470699Y-112215522D01*
X155859608Y-111826613D01*
X156990979Y-112957984D01*
X156990979Y-112957984D01*
G37*
G36*
X156425293Y-113523670D02*
X156036384Y-113912579D01*
X154905013Y-112781208D01*
X155293922Y-112392299D01*
X156425293Y-113523670D01*
X156425293Y-113523670D01*
G37*
G36*
X155859608Y-114089355D02*
X155470699Y-114478264D01*
X154339328Y-113346893D01*
X154728237Y-112957984D01*
X155859608Y-114089355D01*
X155859608Y-114089355D01*
G37*
G36*
X155293923Y-114655041D02*
X154905014Y-115043950D01*
X153773643Y-113912579D01*
X154162552Y-113523670D01*
X155293923Y-114655041D01*
X155293923Y-114655041D01*
G37*
G36*
X154728237Y-115220726D02*
X154339328Y-115609635D01*
X153207957Y-114478264D01*
X153596866Y-114089355D01*
X154728237Y-115220726D01*
X154728237Y-115220726D01*
G37*
D11*
X166335200Y-108127800D03*
X168335200Y-108127800D03*
X166208200Y-110286800D03*
X168208200Y-110286800D03*
D12*
X158953200Y-90244800D03*
X158953200Y-93244800D03*
D13*
X168605200Y-120970800D03*
X168605200Y-122970800D03*
D11*
X164049200Y-125018800D03*
X166049200Y-125018800D03*
X166049200Y-84632800D03*
X164049200Y-84632800D03*
D13*
X195529200Y-120716800D03*
X195529200Y-122716800D03*
X170129200Y-92522800D03*
X170129200Y-94522800D03*
X202641200Y-118938800D03*
X202641200Y-120938800D03*
X159461200Y-125542800D03*
X159461200Y-127542800D03*
D11*
X198085200Y-122478800D03*
X200085200Y-122478800D03*
D14*
X150317200Y-93776800D03*
X150317200Y-89712800D03*
D15*
X158953200Y-88272800D03*
X158953200Y-86072800D03*
X167081200Y-97332800D03*
X164881200Y-97332800D03*
X156667200Y-133738800D03*
X156667200Y-131538800D03*
X204419200Y-133738800D03*
X204419200Y-131538800D03*
X175717200Y-133738800D03*
X175717200Y-131538800D03*
X185115200Y-133738800D03*
X185115200Y-131538800D03*
X166319200Y-133738800D03*
X166319200Y-131538800D03*
X194767200Y-133738800D03*
X194767200Y-131538800D03*
X183083200Y-109440800D03*
X183083200Y-111640800D03*
X179019200Y-109440800D03*
X179019200Y-111640800D03*
X168986200Y-112488800D03*
X168986200Y-114688800D03*
X173050200Y-112488800D03*
X173050200Y-114688800D03*
D16*
X154889200Y-87754800D03*
X154889200Y-90654800D03*
D17*
X142443200Y-133400800D03*
X142443200Y-130860800D03*
X142443200Y-128320800D03*
X144983200Y-129590800D03*
X144983200Y-132130800D03*
X144983200Y-134670800D03*
X142443200Y-101396800D03*
X142443200Y-98856800D03*
X142443200Y-96316800D03*
X142443200Y-103936800D03*
X144983200Y-97586800D03*
X144983200Y-100126800D03*
X144983200Y-102666800D03*
X144983200Y-105206800D03*
X142443200Y-106476800D03*
X144983200Y-107746800D03*
X142443200Y-109016800D03*
X144983200Y-110286800D03*
X142443200Y-111556800D03*
X144983200Y-112826800D03*
X142443200Y-114096800D03*
X144983200Y-115366800D03*
X142443200Y-116636800D03*
X144983200Y-117906800D03*
X142443200Y-119176800D03*
X144983200Y-120446800D03*
D18*
X170319200Y-85902800D03*
X175019200Y-85902800D03*
D19*
X151333200Y-103936800D03*
D20*
X148793200Y-103936800D03*
X151333200Y-101396800D03*
X148793200Y-101396800D03*
X151333200Y-98856800D03*
X148793200Y-98856800D03*
D19*
X189687200Y-101396800D03*
D20*
X192227200Y-101396800D03*
X189687200Y-103936800D03*
X192227200Y-103936800D03*
X189687200Y-106476800D03*
X192227200Y-106476800D03*
D21*
X196511200Y-85714800D03*
X196511200Y-87614800D03*
X198611200Y-86664800D03*
X151367200Y-133588800D03*
X151367200Y-131688800D03*
X149267200Y-132638800D03*
X199119200Y-133588800D03*
X199119200Y-131688800D03*
X197019200Y-132638800D03*
X170417200Y-133588800D03*
X170417200Y-131688800D03*
X168317200Y-132638800D03*
X179815200Y-133588800D03*
X179815200Y-131688800D03*
X177715200Y-132638800D03*
X161019200Y-133588800D03*
X161019200Y-131688800D03*
X158919200Y-132638800D03*
X189467200Y-133588800D03*
X189467200Y-131688800D03*
X187367200Y-132638800D03*
D22*
X164033200Y-108193800D03*
X164033200Y-110093800D03*
X161493200Y-88122800D03*
X161493200Y-86222800D03*
X194701200Y-94914800D03*
X194701200Y-93014800D03*
X161493200Y-89778800D03*
X161493200Y-91678800D03*
D23*
X148859200Y-113842800D03*
X150759200Y-113842800D03*
D22*
X166065200Y-92572800D03*
X166065200Y-94472800D03*
X168097200Y-94472800D03*
X168097200Y-92572800D03*
D24*
X194311200Y-89204800D03*
X188111200Y-89204800D03*
D23*
X194701200Y-85394800D03*
X192801200Y-85394800D03*
D22*
X200863200Y-93964800D03*
X200863200Y-92064800D03*
D25*
X173177200Y-97892800D03*
X173177200Y-91692800D03*
D23*
X197119200Y-95046800D03*
X199019200Y-95046800D03*
X170571200Y-97332800D03*
X168671200Y-97332800D03*
X154447200Y-136448800D03*
X156347200Y-136448800D03*
X202199200Y-136448800D03*
X204099200Y-136448800D03*
D22*
X154127200Y-133588800D03*
X154127200Y-131688800D03*
X201879200Y-133588800D03*
X201879200Y-131688800D03*
D23*
X151267200Y-136448800D03*
X149367200Y-136448800D03*
X199019200Y-136448800D03*
X197119200Y-136448800D03*
X173497200Y-136448800D03*
X175397200Y-136448800D03*
X182895200Y-136448800D03*
X184795200Y-136448800D03*
D22*
X173177200Y-133588800D03*
X173177200Y-131688800D03*
X182575200Y-133588800D03*
X182575200Y-131688800D03*
D23*
X170317200Y-136448800D03*
X168417200Y-136448800D03*
X179715200Y-136448800D03*
X177815200Y-136448800D03*
X164099200Y-136448800D03*
X165999200Y-136448800D03*
X192547200Y-136448800D03*
X194447200Y-136448800D03*
D22*
X163779200Y-133588800D03*
X163779200Y-131688800D03*
X192227200Y-133588800D03*
X192227200Y-131688800D03*
D23*
X160919200Y-136448800D03*
X159019200Y-136448800D03*
X189367200Y-136448800D03*
X187467200Y-136448800D03*
D22*
X166954200Y-114538800D03*
X166954200Y-112638800D03*
X171018200Y-114538800D03*
X171018200Y-112638800D03*
X185115200Y-111490800D03*
X185115200Y-109590800D03*
X181051200Y-111490800D03*
X181051200Y-109590800D03*
D23*
X185689200Y-122224800D03*
X187589200Y-122224800D03*
D22*
X194767200Y-108574800D03*
X194767200Y-110474800D03*
D23*
X149301200Y-111810800D03*
X151201200Y-111810800D03*
X149301200Y-109778800D03*
X151201200Y-109778800D03*
D26*
X196461200Y-90794800D03*
X196461200Y-91744800D03*
X196461200Y-92694800D03*
X198661200Y-92694800D03*
X198661200Y-90794800D03*
X163949200Y-87492800D03*
X163949200Y-88442800D03*
X163949200Y-89392800D03*
X166149200Y-89392800D03*
X166149200Y-87492800D03*
X166149200Y-88442800D03*
D10*
G36*
X192742645Y-121231134D02*
X192353736Y-121620043D01*
X191222365Y-120488672D01*
X191611274Y-120099763D01*
X192742645Y-121231134D01*
X192742645Y-121231134D01*
G37*
G36*
X193308330Y-120665448D02*
X192919421Y-121054357D01*
X191788050Y-119922986D01*
X192176959Y-119534077D01*
X193308330Y-120665448D01*
X193308330Y-120665448D01*
G37*
G36*
X193874016Y-120099763D02*
X193485107Y-120488672D01*
X192353736Y-119357301D01*
X192742645Y-118968392D01*
X193874016Y-120099763D01*
X193874016Y-120099763D01*
G37*
G36*
X194439701Y-119534078D02*
X194050792Y-119922987D01*
X192919421Y-118791616D01*
X193308330Y-118402707D01*
X194439701Y-119534078D01*
X194439701Y-119534078D01*
G37*
G36*
X195005387Y-118968392D02*
X194616478Y-119357301D01*
X193485107Y-118225930D01*
X193874016Y-117837021D01*
X195005387Y-118968392D01*
X195005387Y-118968392D01*
G37*
G36*
X195571072Y-118402707D02*
X195182163Y-118791616D01*
X194050792Y-117660245D01*
X194439701Y-117271336D01*
X195571072Y-118402707D01*
X195571072Y-118402707D01*
G37*
G36*
X196136757Y-117837021D02*
X195747848Y-118225930D01*
X194616477Y-117094559D01*
X195005386Y-116705650D01*
X196136757Y-117837021D01*
X196136757Y-117837021D01*
G37*
G36*
X196702443Y-117271336D02*
X196313534Y-117660245D01*
X195182163Y-116528874D01*
X195571072Y-116139965D01*
X196702443Y-117271336D01*
X196702443Y-117271336D01*
G37*
G36*
X196313534Y-114089355D02*
X196702443Y-114478264D01*
X195571072Y-115609635D01*
X195182163Y-115220726D01*
X196313534Y-114089355D01*
X196313534Y-114089355D01*
G37*
G36*
X195747848Y-113523670D02*
X196136757Y-113912579D01*
X195005386Y-115043950D01*
X194616477Y-114655041D01*
X195747848Y-113523670D01*
X195747848Y-113523670D01*
G37*
G36*
X195182163Y-112957984D02*
X195571072Y-113346893D01*
X194439701Y-114478264D01*
X194050792Y-114089355D01*
X195182163Y-112957984D01*
X195182163Y-112957984D01*
G37*
G36*
X194616478Y-112392299D02*
X195005387Y-112781208D01*
X193874016Y-113912579D01*
X193485107Y-113523670D01*
X194616478Y-112392299D01*
X194616478Y-112392299D01*
G37*
G36*
X194050792Y-111826613D02*
X194439701Y-112215522D01*
X193308330Y-113346893D01*
X192919421Y-112957984D01*
X194050792Y-111826613D01*
X194050792Y-111826613D01*
G37*
G36*
X193485107Y-111260928D02*
X193874016Y-111649837D01*
X192742645Y-112781208D01*
X192353736Y-112392299D01*
X193485107Y-111260928D01*
X193485107Y-111260928D01*
G37*
G36*
X192919421Y-110695243D02*
X193308330Y-111084152D01*
X192176959Y-112215523D01*
X191788050Y-111826614D01*
X192919421Y-110695243D01*
X192919421Y-110695243D01*
G37*
G36*
X192353736Y-110129557D02*
X192742645Y-110518466D01*
X191611274Y-111649837D01*
X191222365Y-111260928D01*
X192353736Y-110129557D01*
X192353736Y-110129557D01*
G37*
G36*
X190692035Y-111260928D02*
X190303126Y-111649837D01*
X189171755Y-110518466D01*
X189560664Y-110129557D01*
X190692035Y-111260928D01*
X190692035Y-111260928D01*
G37*
G36*
X190126350Y-111826614D02*
X189737441Y-112215523D01*
X188606070Y-111084152D01*
X188994979Y-110695243D01*
X190126350Y-111826614D01*
X190126350Y-111826614D01*
G37*
G36*
X189560664Y-112392299D02*
X189171755Y-112781208D01*
X188040384Y-111649837D01*
X188429293Y-111260928D01*
X189560664Y-112392299D01*
X189560664Y-112392299D01*
G37*
G36*
X188994979Y-112957984D02*
X188606070Y-113346893D01*
X187474699Y-112215522D01*
X187863608Y-111826613D01*
X188994979Y-112957984D01*
X188994979Y-112957984D01*
G37*
G36*
X188429293Y-113523670D02*
X188040384Y-113912579D01*
X186909013Y-112781208D01*
X187297922Y-112392299D01*
X188429293Y-113523670D01*
X188429293Y-113523670D01*
G37*
G36*
X187863608Y-114089355D02*
X187474699Y-114478264D01*
X186343328Y-113346893D01*
X186732237Y-112957984D01*
X187863608Y-114089355D01*
X187863608Y-114089355D01*
G37*
G36*
X187297923Y-114655041D02*
X186909014Y-115043950D01*
X185777643Y-113912579D01*
X186166552Y-113523670D01*
X187297923Y-114655041D01*
X187297923Y-114655041D01*
G37*
G36*
X186732237Y-115220726D02*
X186343328Y-115609635D01*
X185211957Y-114478264D01*
X185600866Y-114089355D01*
X186732237Y-115220726D01*
X186732237Y-115220726D01*
G37*
G36*
X186343328Y-116139965D02*
X186732237Y-116528874D01*
X185600866Y-117660245D01*
X185211957Y-117271336D01*
X186343328Y-116139965D01*
X186343328Y-116139965D01*
G37*
G36*
X186909014Y-116705650D02*
X187297923Y-117094559D01*
X186166552Y-118225930D01*
X185777643Y-117837021D01*
X186909014Y-116705650D01*
X186909014Y-116705650D01*
G37*
G36*
X187474699Y-117271336D02*
X187863608Y-117660245D01*
X186732237Y-118791616D01*
X186343328Y-118402707D01*
X187474699Y-117271336D01*
X187474699Y-117271336D01*
G37*
G36*
X188040384Y-117837021D02*
X188429293Y-118225930D01*
X187297922Y-119357301D01*
X186909013Y-118968392D01*
X188040384Y-117837021D01*
X188040384Y-117837021D01*
G37*
G36*
X188606070Y-118402707D02*
X188994979Y-118791616D01*
X187863608Y-119922987D01*
X187474699Y-119534078D01*
X188606070Y-118402707D01*
X188606070Y-118402707D01*
G37*
G36*
X189171755Y-118968392D02*
X189560664Y-119357301D01*
X188429293Y-120488672D01*
X188040384Y-120099763D01*
X189171755Y-118968392D01*
X189171755Y-118968392D01*
G37*
G36*
X189737441Y-119534077D02*
X190126350Y-119922986D01*
X188994979Y-121054357D01*
X188606070Y-120665448D01*
X189737441Y-119534077D01*
X189737441Y-119534077D01*
G37*
G36*
X190303126Y-120099763D02*
X190692035Y-120488672D01*
X189560664Y-121620043D01*
X189171755Y-121231134D01*
X190303126Y-120099763D01*
X190303126Y-120099763D01*
G37*
D27*
X157081200Y-128193800D03*
X157081200Y-126923800D03*
X157081200Y-125653800D03*
X157081200Y-124383800D03*
X151681200Y-124383800D03*
X151681200Y-125653800D03*
X151681200Y-126923800D03*
X151681200Y-128193800D03*
D28*
X166149200Y-121170800D03*
X163949200Y-121170800D03*
X163949200Y-122770800D03*
X166149200Y-122770800D03*
X200185200Y-118630800D03*
X197985200Y-118630800D03*
X197985200Y-120230800D03*
X200185200Y-120230800D03*
D13*
X200355200Y-87950800D03*
X200355200Y-89950800D03*
D11*
X176749200Y-91744800D03*
X178749200Y-91744800D03*
X176749200Y-93776800D03*
X178749200Y-93776800D03*
D29*
X171526200Y-103936800D03*
X171653200Y-99364800D03*
X170510200Y-103809800D03*
X170510200Y-99364800D03*
X143967200Y-96062800D03*
X148285200Y-117398800D03*
X148285200Y-115874800D03*
X190322200Y-115747800D03*
X191465200Y-116890800D03*
X180924200Y-96824800D03*
X183210200Y-98094800D03*
X196545200Y-112953800D03*
X194386200Y-115112800D03*
X154762200Y-120573800D03*
X157302200Y-122478800D03*
X153365200Y-120446800D03*
X150444200Y-120446800D03*
X158699200Y-112191800D03*
X161112200Y-108762800D03*
X170891200Y-113588800D03*
X169875200Y-108127800D03*
X172923200Y-116382800D03*
X153365200Y-128066800D03*
X158953200Y-84124800D03*
X188798200Y-114350800D03*
X191846200Y-118541800D03*
X163525200Y-112064800D03*
X178892200Y-113334800D03*
X166065200Y-126669800D03*
X160985200Y-126542800D03*
X157302200Y-118160800D03*
X154127200Y-130606800D03*
X163779200Y-130352800D03*
X173177200Y-130225800D03*
X182575200Y-130098800D03*
X192227200Y-130098800D03*
X204419200Y-129336800D03*
X200101200Y-124129800D03*
X195529200Y-124129800D03*
X193243200Y-117525800D03*
X194767200Y-96570800D03*
X200355200Y-88950800D03*
X196545200Y-88696800D03*
X191338200Y-85394800D03*
X180035200Y-91744800D03*
X163398200Y-96316800D03*
X164287200Y-86156800D03*
X153238200Y-93903800D03*
X173304200Y-138988800D03*
X171907200Y-138099800D03*
X152730200Y-137464800D03*
X155016200Y-138480800D03*
X181813200Y-138988800D03*
X183845200Y-139750800D03*
X144856200Y-95046800D03*
X188925200Y-102717602D03*
X165049200Y-99618800D03*
X162128200Y-100634800D03*
X156159200Y-103682800D03*
X152603200Y-105968800D03*
X150571200Y-106476800D03*
X148285200Y-107238800D03*
X190957200Y-89966800D03*
X189789305Y-90880695D03*
X180797200Y-98856800D03*
X179527200Y-102412800D03*
X158699200Y-106476800D03*
X157683200Y-107746800D03*
X159715200Y-130098800D03*
X161112200Y-128066800D03*
X162001200Y-128066800D03*
X160985200Y-129844800D03*
X168351200Y-127812800D03*
X168351200Y-130098800D03*
X176733200Y-127304800D03*
X178003200Y-129082800D03*
X179527200Y-124256800D03*
X181051200Y-125780800D03*
X181559200Y-122224800D03*
X183083200Y-123748800D03*
X147269200Y-99999800D03*
X151206200Y-115239800D03*
X153111200Y-113588800D03*
X154635200Y-104444800D03*
X155143200Y-102920800D03*
X149809200Y-105714800D03*
X147015200Y-107238800D03*
X163525200Y-98348800D03*
X160985200Y-99745800D03*
X154917661Y-101615076D03*
X152857200Y-104952800D03*
X179527200Y-99110800D03*
X178003200Y-102412800D03*
X158445200Y-105460800D03*
X156921200Y-106984800D03*
X155651200Y-109524800D03*
X152603200Y-108000800D03*
X151333200Y-107238800D03*
X149047200Y-107746800D03*
X150063200Y-117906800D03*
X152349200Y-117906800D03*
X155397200Y-111302800D03*
X152603200Y-109016800D03*
X151333200Y-108254800D03*
X149301200Y-108508800D03*
X152918834Y-110286800D03*
X154920017Y-112287983D03*
X165557200Y-106603800D03*
X167081200Y-106603800D03*
X187909200Y-108889800D03*
X192100200Y-113080800D03*
X158191200Y-109270800D03*
X160096200Y-107492800D03*
X191846200Y-114096800D03*
X188163200Y-110413800D03*
X165557200Y-105587800D03*
X167208200Y-105587800D03*
X154381200Y-112826800D03*
X152857200Y-111302800D03*
D30*
X161112200Y-108762800D02*
X161112200Y-107492800D01*
X164795200Y-103809800D02*
X166192200Y-103809800D01*
X161112200Y-107492800D02*
X164795200Y-103809800D01*
X166335200Y-108127800D02*
X166335200Y-105317800D01*
X170891200Y-104571800D02*
X171526200Y-103936800D01*
X167081200Y-104571800D02*
X170891200Y-104571800D01*
X166335200Y-105317800D02*
X167081200Y-104571800D01*
X170571200Y-97332800D02*
X170571200Y-98282800D01*
X170571200Y-98282800D02*
X171653200Y-99364800D01*
X166335200Y-108127800D02*
X164099200Y-108127800D01*
X164099200Y-108127800D02*
X164033200Y-108193800D01*
X170510200Y-103809800D02*
X166192200Y-103809800D01*
X170571200Y-97332800D02*
X170571200Y-99303800D01*
X170571200Y-99303800D02*
X170510200Y-99364800D01*
X150444200Y-120446800D02*
X148981200Y-120446800D01*
X148981200Y-120446800D02*
X148285200Y-119750800D01*
X158699200Y-112191800D02*
X158699200Y-115563114D01*
X158699200Y-115563114D02*
X155665153Y-118597161D01*
X193679561Y-119162847D02*
X192296514Y-117779800D01*
X192296514Y-117779800D02*
X191465200Y-116948486D01*
X192735200Y-116763800D02*
X192296514Y-117202486D01*
X192296514Y-117202486D02*
X192296514Y-117779800D01*
X193543256Y-116763800D02*
X192735200Y-116763800D01*
X194810932Y-118031476D02*
X193543256Y-116763800D01*
X194767200Y-108574800D02*
X194579200Y-108574800D01*
X194579200Y-108574800D02*
X194005200Y-108000800D01*
X194005200Y-103174800D02*
X192227200Y-101396800D01*
X194005200Y-108000800D02*
X194005200Y-103174800D01*
X170571200Y-97332800D02*
X170571200Y-97398800D01*
X170571200Y-97398800D02*
X168986200Y-98983800D01*
X144094200Y-95935800D02*
X143967200Y-96062800D01*
X160096200Y-95935800D02*
X144094200Y-95935800D01*
X163144200Y-98983800D02*
X160096200Y-95935800D01*
X168986200Y-98983800D02*
X163144200Y-98983800D01*
X148285200Y-119750800D02*
X148285200Y-117398800D01*
X148285200Y-115874800D02*
X148859200Y-115300800D01*
X148859200Y-115300800D02*
X148859200Y-113842800D01*
X190322200Y-115747800D02*
X190322200Y-114674114D01*
X190322200Y-114674114D02*
X188234839Y-112586753D01*
X191465200Y-116948486D02*
X191465200Y-116890800D01*
X190002605Y-112638395D02*
X189417852Y-113223148D01*
X189417852Y-113223148D02*
X188871234Y-113223148D01*
X188871234Y-113223148D02*
X188234839Y-112586753D01*
X189366210Y-111455383D02*
X190002605Y-112091778D01*
X190002605Y-112091778D02*
X190002605Y-112638395D01*
X194174537Y-117395081D02*
X194810932Y-118031476D01*
X193679561Y-119162847D02*
X192989200Y-118472486D01*
X179908200Y-96824800D02*
X178840200Y-97892800D01*
X178840200Y-97892800D02*
X173177200Y-97892800D01*
X180924200Y-96824800D02*
X179908200Y-96824800D01*
X194767200Y-100634800D02*
X192227200Y-98094800D01*
X192227200Y-98094800D02*
X183210200Y-98094800D01*
X194767200Y-108574800D02*
X194767200Y-100634800D01*
X196545200Y-112953800D02*
X196849999Y-112649001D01*
X196849999Y-112649001D02*
X196849999Y-110357599D01*
X196849999Y-110357599D02*
X195067200Y-108574800D01*
X195067200Y-108574800D02*
X194767200Y-108574800D01*
X194174537Y-117395081D02*
X194174537Y-115324463D01*
X194174537Y-115324463D02*
X194386200Y-115112800D01*
X154762200Y-120573800D02*
X155143200Y-119119114D01*
X155143200Y-119119114D02*
X155665153Y-118597161D01*
X159461200Y-125542800D02*
X159461200Y-124720045D01*
X159461200Y-124720045D02*
X157302200Y-122478800D01*
X153815514Y-120446800D02*
X153365200Y-120446800D01*
X155665153Y-118597161D02*
X153815514Y-120446800D01*
X185689200Y-122224800D02*
X185689200Y-123306800D01*
X194751200Y-120716800D02*
X195529200Y-120716800D01*
X191719200Y-123748800D02*
X194751200Y-120716800D01*
X186131200Y-123748800D02*
X191719200Y-123748800D01*
X185689200Y-123306800D02*
X186131200Y-123748800D01*
X148793200Y-103936800D02*
X148452601Y-103596201D01*
X148452601Y-103596201D02*
X144537087Y-103596201D01*
X143372601Y-99786201D02*
X143093199Y-99506799D01*
X144537087Y-103596201D02*
X143372601Y-102431715D01*
X143093199Y-99506799D02*
X142443200Y-98856800D01*
X143372601Y-102431715D02*
X143372601Y-99786201D01*
X195529200Y-120716800D02*
X195529200Y-118749744D01*
X195529200Y-118749744D02*
X194810932Y-118031476D01*
X195529200Y-120716800D02*
X195233514Y-120716800D01*
X195233514Y-120716800D02*
X193679561Y-119162847D01*
X159461200Y-125542800D02*
X157192200Y-125542800D01*
X157192200Y-125542800D02*
X157081200Y-125653800D01*
D31*
X170571200Y-97332800D02*
X172617200Y-97332800D01*
X172617200Y-97332800D02*
X173177200Y-97892800D01*
D32*
X150317200Y-93776800D02*
X153111200Y-93776800D01*
X153111200Y-93776800D02*
X153238200Y-93903800D01*
D30*
X168986200Y-114688800D02*
X168986200Y-113834800D01*
X168986200Y-113834800D02*
X169232200Y-113588800D01*
X169232200Y-113588800D02*
X170891200Y-113588800D01*
X168335200Y-108127800D02*
X169875200Y-108127800D01*
X168208200Y-110286800D02*
X168208200Y-108254800D01*
X168208200Y-108254800D02*
X168335200Y-108127800D01*
X173050200Y-114688800D02*
X173050200Y-116255800D01*
X173050200Y-116255800D02*
X172923200Y-116382800D01*
X151681200Y-128193800D02*
X153238200Y-128193800D01*
X153238200Y-128193800D02*
X153365200Y-128066800D01*
X158953200Y-86072800D02*
X158953200Y-84124800D01*
X187669153Y-113152439D02*
X187669153Y-113221753D01*
X187669153Y-113221753D02*
X188798200Y-114350800D01*
X193113876Y-119728532D02*
X193032932Y-119728532D01*
X193032932Y-119728532D02*
X191846200Y-118541800D01*
X162241247Y-113152439D02*
X162437561Y-113152439D01*
X162437561Y-113152439D02*
X163525200Y-112064800D01*
X179019200Y-111640800D02*
X179019200Y-113207800D01*
X179019200Y-113207800D02*
X178892200Y-113334800D01*
X166049200Y-125018800D02*
X166049200Y-126653800D01*
X166049200Y-126653800D02*
X166065200Y-126669800D01*
X159461200Y-127542800D02*
X159985200Y-127542800D01*
X159985200Y-127542800D02*
X160985200Y-126542800D01*
X156230839Y-119162847D02*
X156300153Y-119162847D01*
X156300153Y-119162847D02*
X157302200Y-118160800D01*
X154127200Y-131688800D02*
X154127200Y-130606800D01*
X163779200Y-131688800D02*
X163779200Y-130352800D01*
X173177200Y-131688800D02*
X173177200Y-130225800D01*
X182575200Y-131688800D02*
X182575200Y-130098800D01*
X192227200Y-131688800D02*
X192227200Y-130098800D01*
X204419200Y-131538800D02*
X204419200Y-129336800D01*
X200085200Y-122478800D02*
X200085200Y-124113800D01*
X200085200Y-124113800D02*
X200101200Y-124129800D01*
X195529200Y-122716800D02*
X195529200Y-124129800D01*
X194245247Y-118597161D02*
X194245247Y-118527847D01*
X194245247Y-118527847D02*
X193243200Y-117525800D01*
X194701200Y-94914800D02*
X194701200Y-96504800D01*
X194701200Y-96504800D02*
X194767200Y-96570800D01*
X200355200Y-89950800D02*
X200355200Y-88950800D01*
X196511200Y-87614800D02*
X196511200Y-88662800D01*
X196511200Y-88662800D02*
X196545200Y-88696800D01*
X192801200Y-85394800D02*
X191338200Y-85394800D01*
X178749200Y-91744800D02*
X180035200Y-91744800D01*
X164881200Y-97332800D02*
X164414200Y-97332800D01*
X164414200Y-97332800D02*
X163398200Y-96316800D01*
X163949200Y-87492800D02*
X163949200Y-86494800D01*
X163949200Y-86494800D02*
X164287200Y-86156800D01*
X158953200Y-93244800D02*
X150849200Y-93244800D01*
X150849200Y-93244800D02*
X150317200Y-93776800D01*
X168986200Y-114688800D02*
X169156200Y-114688800D01*
X200085200Y-122478800D02*
X200085200Y-120330800D01*
X200085200Y-120330800D02*
X200185200Y-120230800D01*
X202641200Y-120938800D02*
X200893200Y-120938800D01*
X200893200Y-120938800D02*
X200185200Y-120230800D01*
X197985200Y-118630800D02*
X198285200Y-118630800D01*
X198285200Y-118630800D02*
X199885200Y-120230800D01*
X199885200Y-120230800D02*
X200185200Y-120230800D01*
X179019200Y-111640800D02*
X179019200Y-111302800D01*
X179019200Y-111302800D02*
X179781200Y-110540800D01*
X179781200Y-110540800D02*
X181983200Y-110540800D01*
X181983200Y-110540800D02*
X183083200Y-111640800D01*
X159461200Y-127542800D02*
X159191200Y-127542800D01*
X159191200Y-127542800D02*
X158572200Y-126923800D01*
X158572200Y-126923800D02*
X157081200Y-126923800D01*
X163949200Y-121170800D02*
X164249200Y-121170800D01*
X164249200Y-121170800D02*
X165849200Y-122770800D01*
X165849200Y-122770800D02*
X166149200Y-122770800D01*
X166149200Y-122770800D02*
X168405200Y-122770800D01*
X168405200Y-122770800D02*
X168605200Y-122970800D01*
X166049200Y-125018800D02*
X166049200Y-122870800D01*
X166049200Y-122870800D02*
X166149200Y-122770800D01*
X178749200Y-91744800D02*
X178749200Y-93776800D01*
D31*
X154127200Y-131688800D02*
X156517200Y-131688800D01*
X156517200Y-131688800D02*
X156667200Y-131538800D01*
X151367200Y-131688800D02*
X154127200Y-131688800D01*
X173177200Y-131688800D02*
X175567200Y-131688800D01*
X175567200Y-131688800D02*
X175717200Y-131538800D01*
X170417200Y-131688800D02*
X173177200Y-131688800D01*
X163779200Y-131688800D02*
X166169200Y-131688800D01*
X166169200Y-131688800D02*
X166319200Y-131538800D01*
X161019200Y-131688800D02*
X163779200Y-131688800D01*
X192227200Y-131688800D02*
X194617200Y-131688800D01*
X194617200Y-131688800D02*
X194767200Y-131538800D01*
X189467200Y-131688800D02*
X192227200Y-131688800D01*
X182575200Y-131688800D02*
X184965200Y-131688800D01*
X184965200Y-131688800D02*
X185115200Y-131538800D01*
X179815200Y-131688800D02*
X182575200Y-131688800D01*
X199119200Y-131688800D02*
X201879200Y-131688800D01*
X204419200Y-131538800D02*
X202029200Y-131538800D01*
X202029200Y-131538800D02*
X201879200Y-131688800D01*
X164881200Y-97332800D02*
X164881200Y-95656800D01*
X164881200Y-95656800D02*
X166065200Y-94472800D01*
X166065200Y-94472800D02*
X166365200Y-94472800D01*
X166365200Y-94472800D02*
X167423200Y-95530800D01*
X167423200Y-95530800D02*
X168996200Y-95530800D01*
X168996200Y-95530800D02*
X170004200Y-94522800D01*
X170004200Y-94522800D02*
X170129200Y-94522800D01*
X194701200Y-94914800D02*
X196987200Y-94914800D01*
X196987200Y-94914800D02*
X197119200Y-95046800D01*
X198661200Y-90794800D02*
X199511200Y-90794800D01*
X199511200Y-90794800D02*
X200355200Y-89950800D01*
D30*
X166208200Y-110286800D02*
X164226200Y-110286800D01*
X164226200Y-110286800D02*
X164033200Y-110093800D01*
X162806932Y-113718124D02*
X162806932Y-113688068D01*
X162806932Y-113688068D02*
X166208200Y-110286800D01*
D32*
X163949200Y-89392800D02*
X161879200Y-89392800D01*
D31*
X161879200Y-89392800D02*
X161493200Y-89778800D01*
D32*
X161493200Y-89778800D02*
X161493200Y-88122800D01*
X158953200Y-90244800D02*
X161027200Y-90244800D01*
X161027200Y-90244800D02*
X161493200Y-89778800D01*
X154889200Y-90654800D02*
X158543200Y-90654800D01*
X158543200Y-90654800D02*
X158953200Y-90244800D01*
D30*
X166149200Y-121170800D02*
X166027200Y-121170800D01*
X166027200Y-121170800D02*
X165049200Y-120192800D01*
X161828144Y-120446800D02*
X161109876Y-119728532D01*
X162255200Y-120446800D02*
X161828144Y-120446800D01*
X162509200Y-120192800D02*
X162255200Y-120446800D01*
X165049200Y-120192800D02*
X162509200Y-120192800D01*
X168605200Y-120970800D02*
X166349200Y-120970800D01*
X166349200Y-120970800D02*
X166149200Y-121170800D01*
X163949200Y-122770800D02*
X163020773Y-122770800D01*
X163020773Y-122770800D02*
X160544190Y-120294217D01*
X163949200Y-122770800D02*
X163949200Y-124918800D01*
X163949200Y-124918800D02*
X164049200Y-125018800D01*
D32*
X166049200Y-84632800D02*
X166049200Y-87392800D01*
X166049200Y-87392800D02*
X166149200Y-87492800D01*
X167462200Y-85203800D02*
X167462200Y-83997800D01*
X167462200Y-83997800D02*
X166065200Y-82600800D01*
X170319200Y-85902800D02*
X168161200Y-85902800D01*
X168161200Y-85902800D02*
X167462200Y-85203800D01*
X166065200Y-82600800D02*
X164541200Y-82600800D01*
X164049200Y-83092800D02*
X164049200Y-84632800D01*
X164541200Y-82600800D02*
X164049200Y-83092800D01*
X164049200Y-84632800D02*
X164033200Y-84632800D01*
X164033200Y-84632800D02*
X162885799Y-85780201D01*
X163084078Y-88442800D02*
X163949200Y-88442800D01*
X162885799Y-85780201D02*
X162885799Y-88244521D01*
X162885799Y-88244521D02*
X163084078Y-88442800D01*
D30*
X142443200Y-109016800D02*
X142443200Y-108635800D01*
X142443200Y-108635800D02*
X140919200Y-107111800D01*
X140919200Y-107111800D02*
X140919200Y-93776800D01*
X140919200Y-93776800D02*
X153746200Y-80949800D01*
X153746200Y-80949800D02*
X195910200Y-80949800D01*
X195910200Y-80949800D02*
X200355200Y-85394800D01*
X200355200Y-85394800D02*
X200355200Y-87950800D01*
X199019200Y-136448800D02*
X199019200Y-135620800D01*
X204165200Y-95366800D02*
X200863200Y-92064800D01*
X204165200Y-124510800D02*
X204165200Y-95366800D01*
X198069200Y-130606800D02*
X204165200Y-124510800D01*
X198069200Y-134670800D02*
X198069200Y-130606800D01*
X199019200Y-135620800D02*
X198069200Y-134670800D01*
X170317200Y-136448800D02*
X170317200Y-136509800D01*
X170317200Y-136509800D02*
X171907200Y-138099800D01*
X177302200Y-138861800D02*
X179715200Y-136448800D01*
X173431200Y-138861800D02*
X177302200Y-138861800D01*
X173304200Y-138988800D02*
X173431200Y-138861800D01*
X160919200Y-136448800D02*
X160919200Y-137022800D01*
X160919200Y-137022800D02*
X159461200Y-138480800D01*
X151714200Y-136448800D02*
X151267200Y-136448800D01*
X152730200Y-137464800D02*
X151714200Y-136448800D01*
X159461200Y-138480800D02*
X155016200Y-138480800D01*
X189367200Y-136448800D02*
X189367200Y-137403800D01*
X181813200Y-138988800D02*
X179715200Y-136890800D01*
X187020200Y-139750800D02*
X183845200Y-139750800D01*
X189367200Y-137403800D02*
X187020200Y-139750800D01*
X179715200Y-136890800D02*
X179715200Y-136448800D01*
X189367200Y-136448800D02*
X189367200Y-138033800D01*
X199019200Y-137784800D02*
X199019200Y-136448800D01*
X198323200Y-138480800D02*
X199019200Y-137784800D01*
X189814200Y-138480800D02*
X198323200Y-138480800D01*
X189367200Y-138033800D02*
X189814200Y-138480800D01*
X160919200Y-136448800D02*
X160919200Y-137779800D01*
X170317200Y-137784800D02*
X170317200Y-136448800D01*
X169748200Y-138353800D02*
X170317200Y-137784800D01*
X161493200Y-138353800D02*
X169748200Y-138353800D01*
X160919200Y-137779800D02*
X161493200Y-138353800D01*
D31*
X200863200Y-92064800D02*
X200863200Y-91206800D01*
X201488200Y-88958800D02*
X200480200Y-87950800D01*
X201488200Y-90581800D02*
X201488200Y-88958800D01*
X200863200Y-91206800D02*
X201488200Y-90581800D01*
X200480200Y-87950800D02*
X200355200Y-87950800D01*
X200355200Y-87950800D02*
X199222200Y-87950800D01*
X199222200Y-87950800D02*
X197724799Y-89448201D01*
X197724799Y-89448201D02*
X197724799Y-91519201D01*
X197724799Y-91519201D02*
X197499200Y-91744800D01*
X197499200Y-91744800D02*
X196461200Y-91744800D01*
D32*
X144856200Y-95046800D02*
X150190200Y-89712800D01*
X150190200Y-89712800D02*
X150317200Y-89712800D01*
X150317200Y-89712800D02*
X152931200Y-89712800D01*
X152931200Y-89712800D02*
X154889200Y-87754800D01*
D31*
X161493200Y-86222800D02*
X161003200Y-86222800D01*
X161003200Y-86222800D02*
X158953200Y-88272800D01*
X168671200Y-97332800D02*
X167081200Y-97332800D01*
X156347200Y-136448800D02*
X156347200Y-134058800D01*
X156347200Y-134058800D02*
X156667200Y-133738800D01*
D30*
X156347200Y-134058800D02*
X156667200Y-133738800D01*
D31*
X204099200Y-136448800D02*
X204099200Y-134058800D01*
X204099200Y-134058800D02*
X204419200Y-133738800D01*
X175717200Y-133738800D02*
X175717200Y-136128800D01*
X175717200Y-136128800D02*
X175397200Y-136448800D01*
X185115200Y-133738800D02*
X185115200Y-136128800D01*
X185115200Y-136128800D02*
X184795200Y-136448800D01*
X166319200Y-133738800D02*
X166319200Y-136128800D01*
X166319200Y-136128800D02*
X165999200Y-136448800D01*
X194447200Y-136448800D02*
X194447200Y-134058800D01*
X194447200Y-134058800D02*
X194767200Y-133738800D01*
D30*
X183083200Y-109440800D02*
X184965200Y-109440800D01*
X184965200Y-109440800D02*
X185115200Y-109590800D01*
X179019200Y-109440800D02*
X180901200Y-109440800D01*
X180901200Y-109440800D02*
X181051200Y-109590800D01*
X164414200Y-100405086D02*
X163422486Y-100405086D01*
X163422486Y-100405086D02*
X160858200Y-97840800D01*
X153619200Y-96657399D02*
X154112201Y-96657399D01*
X144537087Y-96657399D02*
X153619200Y-96657399D01*
X143948285Y-97246201D02*
X144537087Y-96657399D01*
X142678285Y-97246201D02*
X143948285Y-97246201D01*
X141513799Y-98410687D02*
X142678285Y-97246201D01*
X141513799Y-100467399D02*
X141513799Y-98410687D01*
X142443200Y-101396800D02*
X141513799Y-100467399D01*
X154112201Y-96657399D02*
X155295602Y-97840800D01*
X155295602Y-97840800D02*
X160858200Y-97840800D01*
X187553600Y-100380800D02*
X188569600Y-101396800D01*
X164414200Y-100405086D02*
X170915486Y-100405086D01*
X170915486Y-100405086D02*
X170939772Y-100380800D01*
X170939772Y-100380800D02*
X187553600Y-100380800D01*
X188569600Y-101396800D02*
X189687200Y-101396800D01*
X152845009Y-112179609D02*
X152361391Y-112179609D01*
X151841200Y-114773208D02*
X152095200Y-115027208D01*
X151841200Y-112699800D02*
X151841200Y-114773208D01*
X152361391Y-112179609D02*
X151841200Y-112699800D01*
X191982505Y-110889697D02*
X190830201Y-109737393D01*
X190830201Y-109737393D02*
X190830201Y-101422201D01*
X190830201Y-101422201D02*
X190804800Y-101396800D01*
X190804800Y-101396800D02*
X189687200Y-101396800D01*
X153968097Y-116900105D02*
X152095200Y-115027208D01*
X152741035Y-103936800D02*
X151333200Y-103936800D01*
X152845009Y-112179609D02*
X153503035Y-111521583D01*
X153503035Y-111521583D02*
X153503035Y-104698800D01*
X153503035Y-104698800D02*
X152741035Y-103936800D01*
X151333200Y-105054400D02*
X151333200Y-103936800D01*
X142443200Y-101396800D02*
X142443200Y-102316038D01*
X142443200Y-102316038D02*
X144404561Y-104277399D01*
X144404561Y-104277399D02*
X147442157Y-104277399D01*
X147442157Y-104277399D02*
X148244559Y-105079801D01*
X151307799Y-105079801D02*
X151333200Y-105054400D01*
X148244559Y-105079801D02*
X151307799Y-105079801D01*
X164414200Y-100888800D02*
X163271200Y-100888800D01*
X163271200Y-100888800D02*
X160731200Y-98348800D01*
X150698200Y-97063809D02*
X153604209Y-97063809D01*
X147364993Y-97063809D02*
X150698200Y-97063809D01*
X145912601Y-98516201D02*
X147364993Y-97063809D01*
X145912601Y-99737515D02*
X145912601Y-98516201D01*
X147571886Y-101396800D02*
X145912601Y-99737515D01*
X148793200Y-101396800D02*
X147571886Y-101396800D01*
X153604209Y-97063809D02*
X154889200Y-98348800D01*
X154889200Y-98348800D02*
X160731200Y-98348800D01*
X152984200Y-112699800D02*
X152603200Y-112699800D01*
X152349200Y-114350800D02*
X153365200Y-115366800D01*
X152349200Y-112953800D02*
X152349200Y-114350800D01*
X152603200Y-112699800D02*
X152349200Y-112953800D01*
D33*
X154720743Y-115874800D02*
X153873200Y-115874800D01*
D30*
X153873200Y-115874800D02*
X153365200Y-115366800D01*
X186893200Y-100832922D02*
X183789322Y-100832922D01*
X183789322Y-100832922D02*
X183733444Y-100888800D01*
X183733444Y-100888800D02*
X164414200Y-100888800D01*
X188925200Y-102717602D02*
X188777880Y-102717602D01*
X188777880Y-102717602D02*
X186893200Y-100832922D01*
X149656799Y-102260399D02*
X148793200Y-101396800D01*
X149936201Y-102539801D02*
X149656799Y-102260399D01*
X152166323Y-102539801D02*
X149936201Y-102539801D01*
X153909445Y-111774555D02*
X153909445Y-104282923D01*
X152984200Y-112699800D02*
X153909445Y-111774555D01*
X153909445Y-104282923D02*
X152166323Y-102539801D01*
X192227200Y-103936800D02*
X193370201Y-105079801D01*
X193370201Y-105079801D02*
X193370201Y-110633372D01*
X193370201Y-110633372D02*
X193184585Y-110818988D01*
X193184585Y-110818988D02*
X192548190Y-111455383D01*
X154533783Y-117465790D02*
X154533783Y-117403118D01*
X154533783Y-117403118D02*
X155138842Y-116798059D01*
X155138842Y-116292899D02*
X154720743Y-115874800D01*
X155138842Y-116292899D02*
X155138842Y-116798059D01*
D33*
X154720743Y-115874800D02*
X154736411Y-115859132D01*
D30*
X148793200Y-101396800D02*
X146253200Y-101396800D01*
X146253200Y-101396800D02*
X144983200Y-100126800D01*
X157081200Y-128193800D02*
X156606200Y-128193800D01*
X155975345Y-127562945D02*
X155975345Y-120549711D01*
X156606200Y-128193800D02*
X155975345Y-127562945D01*
X156160129Y-120364927D02*
X156796524Y-119728532D01*
X155975345Y-120549711D02*
X156160129Y-120364927D01*
X157081200Y-124383800D02*
X157081200Y-123829800D01*
X157081200Y-123829800D02*
X156381755Y-123130355D01*
X156381755Y-123130355D02*
X156381755Y-121274672D01*
X156381755Y-121274672D02*
X156447627Y-121208800D01*
X156447627Y-121208800D02*
X157362210Y-120294217D01*
X158953200Y-109270800D02*
X158953200Y-108254800D01*
X158318200Y-107619800D02*
X158318200Y-107111800D01*
X158953200Y-108254800D02*
X158318200Y-107619800D01*
D33*
X158953200Y-111556800D02*
X158953200Y-110794800D01*
D30*
X185925886Y-101396800D02*
X160223200Y-101396800D01*
X160223200Y-101396800D02*
X157683200Y-103936800D01*
X189687200Y-103936800D02*
X188465886Y-103936800D01*
X188465886Y-103936800D02*
X185925886Y-101396800D01*
X156667200Y-105460800D02*
X156921200Y-105714800D01*
X156921200Y-105714800D02*
X158318200Y-107111800D01*
X156921200Y-104698800D02*
X156921200Y-105714800D01*
X156921200Y-104698800D02*
X156667200Y-104952800D01*
X156029230Y-104698800D02*
X155942872Y-104785158D01*
X157683200Y-103936800D02*
X156921200Y-104698800D01*
X156921200Y-104698800D02*
X156029230Y-104698800D01*
X156413200Y-105206800D02*
X156667200Y-105460800D01*
X156667200Y-104952800D02*
X156667200Y-105460800D01*
X156413200Y-104952800D02*
X156667200Y-104952800D01*
X156667200Y-104952800D02*
X156413200Y-105206800D01*
X156245558Y-104785158D02*
X156413200Y-104952800D01*
X155942872Y-104785158D02*
X156245558Y-104785158D01*
X155991558Y-104785158D02*
X156413200Y-105206800D01*
X158953200Y-110794800D02*
X158953200Y-109270800D01*
X155942872Y-104785158D02*
X155991558Y-104785158D01*
X155942872Y-104785158D02*
X152554514Y-101396800D01*
X152554514Y-101396800D02*
X151333200Y-101396800D01*
X189687200Y-103936800D02*
X188544199Y-105079801D01*
X188544199Y-109502001D02*
X189295500Y-110253302D01*
X188544199Y-105079801D02*
X188544199Y-109502001D01*
X189295500Y-110253302D02*
X189931895Y-110889697D01*
X158953200Y-111556800D02*
X161039166Y-113642766D01*
X161039166Y-113642766D02*
X161039166Y-118526452D01*
X161039166Y-118526452D02*
X161675561Y-119162847D01*
X165049200Y-99618800D02*
X165429076Y-99998676D01*
X165429076Y-99998676D02*
X170747146Y-99998676D01*
X178130200Y-99819887D02*
X181358113Y-99819887D01*
X181358113Y-99819887D02*
X182575200Y-98602800D01*
X170747146Y-99998676D02*
X170771432Y-99974390D01*
X170771432Y-99974390D02*
X178003200Y-99974390D01*
X178003200Y-99974390D02*
X178003200Y-99946887D01*
X182575200Y-98602800D02*
X182575200Y-97840800D01*
X193797200Y-93014800D02*
X194701200Y-93014800D01*
X178003200Y-99946887D02*
X178130200Y-99819887D01*
X182575200Y-97840800D02*
X186360905Y-94055095D01*
X186360905Y-94055095D02*
X192756905Y-94055095D01*
X192756905Y-94055095D02*
X193797200Y-93014800D01*
X156159200Y-103682800D02*
X159161556Y-100680444D01*
X159161556Y-100680444D02*
X162128200Y-100634800D01*
X150571200Y-106476800D02*
X152049307Y-106276999D01*
X152049307Y-106276999D02*
X152603200Y-105968800D01*
X144983200Y-110286800D02*
X145633199Y-109636801D01*
X145633199Y-109636801D02*
X145773583Y-109636801D01*
X145773583Y-109636801D02*
X148285200Y-107238800D01*
D31*
X194701200Y-93014800D02*
X196141200Y-93014800D01*
X196141200Y-93014800D02*
X196461200Y-92694800D01*
D30*
X158699200Y-106476800D02*
X160223200Y-104952800D01*
X176276020Y-102209620D02*
X162966380Y-102209620D01*
X162966380Y-102209620D02*
X160223200Y-104952800D01*
X177114200Y-103047800D02*
X176276020Y-102209620D01*
X178745662Y-103047800D02*
X177114200Y-103047800D01*
X178892200Y-102901262D02*
X179527200Y-102412800D01*
X178892200Y-102901262D02*
X178745662Y-103047800D01*
X190957200Y-89966800D02*
X191719200Y-89204800D01*
X191719200Y-89204800D02*
X194311200Y-89204800D01*
X180797200Y-98856800D02*
X186131200Y-93648685D01*
X186131200Y-93648685D02*
X187021315Y-93648685D01*
X187021315Y-93648685D02*
X189789305Y-90880695D01*
X193557200Y-89204800D02*
X194311200Y-89204800D01*
X157362210Y-111455383D02*
X156725815Y-110818988D01*
X156725815Y-110818988D02*
X156921200Y-108508800D01*
X156921200Y-108508800D02*
X157683200Y-107746800D01*
D31*
X194701200Y-85394800D02*
X196191200Y-85394800D01*
X196191200Y-85394800D02*
X196511200Y-85714800D01*
X194311200Y-89204800D02*
X194311200Y-85784800D01*
X194311200Y-85784800D02*
X194701200Y-85394800D01*
D30*
X161112200Y-128066800D02*
X161112200Y-127939800D01*
X162001200Y-124933208D02*
X157927895Y-120859903D01*
X162001200Y-127050800D02*
X162001200Y-124933208D01*
X161112200Y-127939800D02*
X162001200Y-127050800D01*
X151587200Y-129590800D02*
X149267200Y-131910800D01*
X149267200Y-131910800D02*
X149267200Y-132638800D01*
X159619137Y-129844800D02*
X151587200Y-129590800D01*
X159715200Y-130098800D02*
X159792148Y-130017811D01*
X159792148Y-130017811D02*
X159619137Y-129844800D01*
D31*
X149267200Y-132638800D02*
X149267200Y-136348800D01*
X149267200Y-136348800D02*
X149367200Y-136448800D01*
D30*
X162001200Y-128066800D02*
X162763200Y-127304800D01*
X162763200Y-123644598D02*
X161493200Y-122374598D01*
X162763200Y-127304800D02*
X162763200Y-123644598D01*
X161493200Y-122374598D02*
X159978505Y-120859903D01*
X158919200Y-132638800D02*
X158919200Y-131910800D01*
X158919200Y-131910800D02*
X160985200Y-129844800D01*
D31*
X159019200Y-136448800D02*
X159019200Y-132738800D01*
X159019200Y-132738800D02*
X158919200Y-132638800D01*
D30*
X168351200Y-127812800D02*
X169509601Y-127030600D01*
X169509601Y-127030600D02*
X169509601Y-120247279D01*
X169509601Y-120247279D02*
X169048712Y-119786390D01*
X169048712Y-119786390D02*
X163430476Y-119786390D01*
X163430476Y-119786390D02*
X162877642Y-119233556D01*
X162877642Y-119233556D02*
X162241247Y-118597161D01*
X168317200Y-132638800D02*
X168317200Y-130132800D01*
X168317200Y-130132800D02*
X168351200Y-130098800D01*
D31*
X168417200Y-136448800D02*
X168417200Y-132738800D01*
X168417200Y-132738800D02*
X168317200Y-132638800D01*
D30*
X176733200Y-127304800D02*
X176428401Y-127000001D01*
X176428401Y-127000001D02*
X176428401Y-126591329D01*
X176428401Y-126591329D02*
X168504943Y-118667871D01*
X168504943Y-118667871D02*
X163443327Y-118667871D01*
X163443327Y-118667871D02*
X162806932Y-118031476D01*
X177715200Y-132638800D02*
X177810108Y-129275892D01*
X177810108Y-129275892D02*
X178003200Y-129082800D01*
D31*
X177715200Y-132638800D02*
X177715200Y-136348800D01*
X177715200Y-136348800D02*
X177815200Y-136448800D01*
D30*
X179527200Y-124256800D02*
X173372585Y-118102185D01*
X173372585Y-118102185D02*
X164009012Y-118102185D01*
X164009012Y-118102185D02*
X163372617Y-117465790D01*
X187367200Y-132638800D02*
X187367200Y-131984800D01*
X187367200Y-131984800D02*
X181163200Y-125780800D01*
X181163200Y-125780800D02*
X181051200Y-125780800D01*
D31*
X187467200Y-136448800D02*
X187467200Y-132738800D01*
X187467200Y-132738800D02*
X187367200Y-132638800D01*
D30*
X181559200Y-122224800D02*
X177030175Y-117695775D01*
X177030175Y-117695775D02*
X164733973Y-117695775D01*
X164733973Y-117695775D02*
X163938303Y-116900105D01*
X192085200Y-127050800D02*
X186385200Y-127050800D01*
X186385200Y-127050800D02*
X183083200Y-123748800D01*
X197019200Y-132638800D02*
X197019200Y-131984800D01*
X197019200Y-131984800D02*
X192085200Y-127050800D01*
D31*
X197019200Y-132638800D02*
X197019200Y-136348800D01*
X197019200Y-136348800D02*
X197119200Y-136448800D01*
D30*
X150063200Y-100126800D02*
X151333200Y-98856800D01*
X147396200Y-100126800D02*
X150063200Y-100126800D01*
X147269200Y-99999800D02*
X147396200Y-100126800D01*
X154533783Y-114283810D02*
X153796999Y-113547026D01*
X153796999Y-113547026D02*
X153152974Y-113547026D01*
X150759200Y-114792800D02*
X150759200Y-113842800D01*
X151206200Y-115239800D02*
X150759200Y-114792800D01*
X153152974Y-113547026D02*
X153111200Y-113588800D01*
X154635200Y-105129852D02*
X154635200Y-104444800D01*
X154635200Y-105129852D02*
X154635200Y-105129852D01*
X154635200Y-105129852D02*
X154635200Y-111708182D01*
X154635200Y-111708182D02*
X153796999Y-112546383D01*
X153796999Y-112546383D02*
X153796999Y-113547026D01*
X154635200Y-102158800D02*
X155008451Y-102786051D01*
X155008451Y-102786051D02*
X155143200Y-102920800D01*
X154533783Y-114283810D02*
X154390410Y-114283810D01*
X151333200Y-98856800D02*
X154635200Y-102158800D01*
X202199200Y-136448800D02*
X202199200Y-139176800D01*
X144983200Y-138226800D02*
X144983200Y-134670800D01*
X147523200Y-140766800D02*
X144983200Y-138226800D01*
X200609200Y-140766800D02*
X147523200Y-140766800D01*
X202199200Y-139176800D02*
X200609200Y-140766800D01*
D31*
X201879200Y-133588800D02*
X201879200Y-136128800D01*
X201879200Y-136128800D02*
X202199200Y-136448800D01*
X199119200Y-133588800D02*
X201879200Y-133588800D01*
D30*
X182895200Y-136448800D02*
X182895200Y-138922800D01*
X146253200Y-132130800D02*
X144983200Y-132130800D01*
X146761200Y-132638800D02*
X146253200Y-132130800D01*
X146761200Y-138480800D02*
X146761200Y-132638800D01*
X148031200Y-139750800D02*
X146761200Y-138480800D01*
X182067200Y-139750800D02*
X148031200Y-139750800D01*
X182895200Y-138922800D02*
X182067200Y-139750800D01*
D31*
X182575200Y-133588800D02*
X182575200Y-136128800D01*
X182575200Y-136128800D02*
X182895200Y-136448800D01*
X182575200Y-133588800D02*
X179815200Y-133588800D01*
D30*
X150514339Y-129179611D02*
X176382389Y-129179611D01*
X185470790Y-120091210D02*
X186175104Y-120091210D01*
X176382390Y-129179610D02*
X185470790Y-120091210D01*
X142443200Y-121108472D02*
X150514339Y-129179611D01*
X187669153Y-118597161D02*
X187032758Y-119233556D01*
X186175104Y-120091210D02*
X187032758Y-119233556D01*
X142443200Y-121108472D02*
X142443200Y-119176800D01*
X176382389Y-129179611D02*
X176382390Y-129179610D01*
X173497200Y-136448800D02*
X173497200Y-137652800D01*
X146253200Y-130860800D02*
X142443200Y-130860800D01*
X147269200Y-131876800D02*
X146253200Y-130860800D01*
X147269200Y-138226800D02*
X147269200Y-131876800D01*
X148285200Y-139242800D02*
X147269200Y-138226800D01*
X171907200Y-139242800D02*
X148285200Y-139242800D01*
X173497200Y-137652800D02*
X171907200Y-139242800D01*
D31*
X170417200Y-133588800D02*
X173177200Y-133588800D01*
X173497200Y-136448800D02*
X173497200Y-133908800D01*
X173497200Y-133908800D02*
X173177200Y-133588800D01*
D30*
X188417200Y-136829800D02*
X188417200Y-137337800D01*
X183845200Y-138734800D02*
X182321200Y-140258800D01*
X187020200Y-138734800D02*
X183845200Y-138734800D01*
X188417200Y-137337800D02*
X187020200Y-138734800D01*
X192547200Y-136448800D02*
X192100200Y-136448800D01*
X188417200Y-135432800D02*
X188417200Y-136829800D01*
X188925200Y-134924800D02*
X188417200Y-135432800D01*
X190576200Y-134924800D02*
X188925200Y-134924800D01*
X192100200Y-136448800D02*
X190576200Y-134924800D01*
X145491200Y-133400800D02*
X142443200Y-133400800D01*
X146253200Y-134162800D02*
X145491200Y-133400800D01*
X146253200Y-138734800D02*
X146253200Y-134162800D01*
X147777200Y-140258800D02*
X146253200Y-138734800D01*
X182321200Y-140258800D02*
X147777200Y-140258800D01*
D31*
X192227200Y-133588800D02*
X192227200Y-136128800D01*
X192227200Y-136128800D02*
X192547200Y-136448800D01*
X189467200Y-133588800D02*
X192227200Y-133588800D01*
D30*
X144983200Y-117906800D02*
X144983200Y-118704680D01*
X144983200Y-118704680D02*
X147015200Y-120736680D01*
X147015200Y-120736680D02*
X147015200Y-125105722D01*
X185556450Y-119430800D02*
X185704144Y-119430800D01*
X147015200Y-125105722D02*
X150682679Y-128773201D01*
X150682679Y-128773201D02*
X176214049Y-128773201D01*
X176214049Y-128773201D02*
X185556450Y-119430800D01*
X185704144Y-119430800D02*
X187103468Y-118031476D01*
X164020932Y-98512868D02*
X165404054Y-98512868D01*
X165404054Y-98512868D02*
X165430200Y-98486722D01*
X165430200Y-98486722D02*
X165430200Y-98475800D01*
X165430200Y-98475800D02*
X165430200Y-98486722D01*
X160985200Y-99745800D02*
X157167937Y-99364800D01*
X157167937Y-99364800D02*
X154917661Y-101615076D01*
X163525200Y-98348800D02*
X164020932Y-98512868D01*
X181684790Y-96064210D02*
X184454790Y-93294210D01*
X197065799Y-84465399D02*
X198611200Y-86010800D01*
X165430200Y-98486722D02*
X165760601Y-98156321D01*
X184454790Y-89103210D02*
X189092601Y-84465399D01*
X165760601Y-98156321D02*
X165760601Y-96509279D01*
X166205670Y-96064210D02*
X181684790Y-96064210D01*
X165760601Y-96509279D02*
X166205670Y-96064210D01*
X184454790Y-93294210D02*
X184454790Y-89103210D01*
X189092601Y-84465399D02*
X197065799Y-84465399D01*
X198611200Y-86010800D02*
X198611200Y-86664800D01*
X149809200Y-105714800D02*
X151836121Y-105664001D01*
X151836121Y-105664001D02*
X152857200Y-105075359D01*
X152857200Y-105075359D02*
X152857200Y-104952800D01*
X144983200Y-107746800D02*
X146837400Y-107746800D01*
X146837400Y-107746800D02*
X147015200Y-107238800D01*
X150571200Y-112318800D02*
X150571200Y-112572800D01*
X150063200Y-116062404D02*
X150571200Y-116570404D01*
X150063200Y-113080800D02*
X150063200Y-116062404D01*
X150571200Y-112572800D02*
X150063200Y-113080800D01*
X150571200Y-107634799D02*
X150571200Y-112318800D01*
X150571200Y-116570404D02*
X151553799Y-117553003D01*
X145633199Y-105856799D02*
X148793200Y-105856799D01*
X148793200Y-105856799D02*
X150571200Y-107634799D01*
X144983200Y-105206800D02*
X145633199Y-105856799D01*
X152735601Y-126344399D02*
X152156200Y-126923800D01*
X152156200Y-126923800D02*
X151681200Y-126923800D01*
X151553799Y-117553003D02*
X151553799Y-122678477D01*
X151553799Y-122678477D02*
X152735601Y-123860279D01*
X152735601Y-123860279D02*
X152735601Y-126344399D01*
X149930601Y-112572800D02*
X149930601Y-112578399D01*
X149555200Y-116568611D02*
X149930601Y-116944012D01*
X149555200Y-112953800D02*
X149555200Y-116568611D01*
X149930601Y-112578399D02*
X149555200Y-112953800D01*
X142443200Y-106476800D02*
X148793200Y-106476800D01*
X149930601Y-107614201D02*
X149930601Y-112572800D01*
X148793200Y-106476800D02*
X149930601Y-107614201D01*
X149930601Y-116944012D02*
X151147389Y-118160800D01*
X151147389Y-118160800D02*
X151147389Y-123339689D01*
X151147389Y-123339689D02*
X150626799Y-123860279D01*
X150626799Y-123860279D02*
X150626799Y-125074399D01*
X150626799Y-125074399D02*
X151206200Y-125653800D01*
X151206200Y-125653800D02*
X151681200Y-125653800D01*
X142443200Y-114096800D02*
X145283200Y-114096800D01*
X145283200Y-114096800D02*
X149301200Y-110078800D01*
X149301200Y-110078800D02*
X149301200Y-109778800D01*
X144983200Y-115366800D02*
X148539200Y-111810800D01*
X148539200Y-111810800D02*
X149179200Y-111810800D01*
X184861200Y-93776800D02*
X184861200Y-91700800D01*
X179527200Y-99110800D02*
X184861200Y-93776800D01*
X178003200Y-102412800D02*
X177368200Y-102395747D01*
X177368200Y-102395747D02*
X176775663Y-101803210D01*
X162102790Y-101803210D02*
X161620200Y-102285800D01*
X176775663Y-101803210D02*
X162102790Y-101803210D01*
X161620200Y-102285800D02*
X158445200Y-105460800D01*
X184861200Y-91700800D02*
X187357200Y-89204800D01*
X187357200Y-89204800D02*
X188111200Y-89204800D01*
X155651200Y-109524800D02*
X155651200Y-108508800D01*
X155651200Y-108508800D02*
X156921200Y-106984800D01*
X142443200Y-111556800D02*
X145088714Y-111556800D01*
X145088714Y-111556800D02*
X148331160Y-108314354D01*
X148331160Y-108314354D02*
X149047200Y-107746800D01*
X156796524Y-112021068D02*
X155651200Y-110540800D01*
X155651200Y-110540800D02*
X155651200Y-110032800D01*
X155651200Y-110032800D02*
X155651200Y-109524800D01*
X151081312Y-106861199D02*
X152477487Y-107875087D01*
X152477487Y-107875087D02*
X152603200Y-108000800D01*
X151333200Y-107238800D02*
X151081312Y-106861199D01*
D31*
X194767200Y-91450800D02*
X191365200Y-91450800D01*
X191365200Y-91450800D02*
X189119200Y-89204800D01*
X189119200Y-89204800D02*
X188111200Y-89204800D01*
X196461200Y-90794800D02*
X195423200Y-90794800D01*
X195423200Y-90794800D02*
X194767200Y-91450800D01*
D30*
X154447200Y-136448800D02*
X154447200Y-136890800D01*
X154447200Y-136890800D02*
X153111200Y-138226800D01*
X147015200Y-128320800D02*
X142443200Y-128320800D01*
X148285200Y-129590800D02*
X147015200Y-128320800D01*
X148285200Y-137718800D02*
X148285200Y-129590800D01*
X148793200Y-138226800D02*
X148285200Y-137718800D01*
X153111200Y-138226800D02*
X148793200Y-138226800D01*
D31*
X151367200Y-133588800D02*
X151267200Y-133588800D01*
X154447200Y-136448800D02*
X154447200Y-133908800D01*
X154447200Y-133908800D02*
X154127200Y-133588800D01*
X154127200Y-133588800D02*
X151367200Y-133588800D01*
D30*
X159969200Y-136575800D02*
X159969200Y-137083800D01*
X154762200Y-137845800D02*
X153873200Y-138734800D01*
X159207200Y-137845800D02*
X154762200Y-137845800D01*
X159969200Y-137083800D02*
X159207200Y-137845800D01*
X164099200Y-136448800D02*
X163398200Y-136448800D01*
X159969200Y-135940800D02*
X159969200Y-136575800D01*
X160731200Y-135178800D02*
X159969200Y-135940800D01*
X162128200Y-135178800D02*
X160731200Y-135178800D01*
X163398200Y-136448800D02*
X162128200Y-135178800D01*
X146761200Y-129590800D02*
X144983200Y-129590800D01*
X147777200Y-130606800D02*
X146761200Y-129590800D01*
X147777200Y-137972800D02*
X147777200Y-130606800D01*
X148539200Y-138734800D02*
X147777200Y-137972800D01*
X153873200Y-138734800D02*
X148539200Y-138734800D01*
D31*
X161019200Y-133588800D02*
X160919200Y-133588800D01*
X163779200Y-133588800D02*
X161019200Y-133588800D01*
X164099200Y-136448800D02*
X164099200Y-133908800D01*
X164099200Y-133908800D02*
X163779200Y-133588800D01*
X166149200Y-88442800D02*
X165557200Y-88442800D01*
X163249722Y-91678800D02*
X161493200Y-91678800D01*
X165557200Y-88442800D02*
X165049200Y-88950800D01*
X165049200Y-88950800D02*
X165049200Y-89879322D01*
X165049200Y-89879322D02*
X163249722Y-91678800D01*
X168097200Y-94472800D02*
X167965200Y-94472800D01*
X167965200Y-94472800D02*
X166065200Y-92572800D01*
X166149200Y-89392800D02*
X166149200Y-92488800D01*
X166149200Y-92488800D02*
X166065200Y-92572800D01*
X198661200Y-92694800D02*
X198661200Y-94688800D01*
X198661200Y-94688800D02*
X199019200Y-95046800D01*
X200863200Y-93964800D02*
X200101200Y-93964800D01*
X200101200Y-93964800D02*
X199019200Y-95046800D01*
D30*
X150063200Y-117906800D02*
X148793200Y-116636800D01*
X148793200Y-116636800D02*
X142443200Y-116636800D01*
X155099468Y-118031476D02*
X154463073Y-118667871D01*
X154463073Y-118667871D02*
X154209346Y-118667871D01*
X154209346Y-118667871D02*
X153448275Y-117906800D01*
X153448275Y-117906800D02*
X152349200Y-117906800D01*
X166954200Y-112638800D02*
X168836200Y-112638800D01*
X168836200Y-112638800D02*
X168986200Y-112488800D01*
X171018200Y-112638800D02*
X172900200Y-112638800D01*
X172900200Y-112638800D02*
X173050200Y-112488800D01*
X155397200Y-111302800D02*
X155397200Y-111575314D01*
X155397200Y-111575314D02*
X156230839Y-112586753D01*
X151333200Y-108254800D02*
X151485601Y-108839001D01*
X151485601Y-108839001D02*
X152487036Y-108839001D01*
X152487036Y-108839001D02*
X152603200Y-109016800D01*
X144983200Y-112826800D02*
X145633199Y-112176801D01*
X145633199Y-112176801D02*
X145633199Y-111943879D01*
X145633199Y-111943879D02*
X149068278Y-108508800D01*
X149068278Y-108508800D02*
X149301200Y-108508800D01*
X166954200Y-114538800D02*
X165745200Y-114538800D01*
X164067627Y-113588800D02*
X163372617Y-114283810D01*
X164795200Y-113588800D02*
X164067627Y-113588800D01*
X165745200Y-114538800D02*
X164795200Y-113588800D01*
X163938303Y-114849495D02*
X163938303Y-115271903D01*
X171018200Y-116382800D02*
X171018200Y-114538800D01*
X170129200Y-117271800D02*
X171018200Y-116382800D01*
X165938200Y-117271800D02*
X170129200Y-117271800D01*
X163938303Y-115271903D02*
X165938200Y-117271800D01*
X171018200Y-114538800D02*
X171018200Y-114858800D01*
X152918834Y-110286800D02*
X151709200Y-110286800D01*
X151709200Y-110286800D02*
X151201200Y-109778800D01*
X152918834Y-110286800D02*
X152918834Y-110226434D01*
X152918834Y-110286800D02*
X152918834Y-110160434D01*
X155665153Y-113152439D02*
X155665153Y-113033119D01*
X155665153Y-113033119D02*
X154920017Y-112287983D01*
X200185200Y-118630800D02*
X200185200Y-118244800D01*
X200185200Y-118244800D02*
X199339200Y-117398800D01*
X199339200Y-117398800D02*
X196440998Y-117398800D01*
X196440998Y-117398800D02*
X195942303Y-116900105D01*
X200185200Y-118630800D02*
X202333200Y-118630800D01*
X202333200Y-118630800D02*
X202641200Y-118938800D01*
X197985200Y-120230800D02*
X197599200Y-120230800D01*
X197599200Y-120230800D02*
X196545200Y-119176800D01*
X196545200Y-118634373D02*
X195376617Y-117465790D01*
X196545200Y-119176800D02*
X196545200Y-118634373D01*
X197985200Y-120230800D02*
X197985200Y-122378800D01*
X197985200Y-122378800D02*
X198085200Y-122478800D01*
X169875200Y-106603800D02*
X167081200Y-106603800D01*
X162763200Y-110286800D02*
X161109876Y-111940124D01*
X162763200Y-107746800D02*
X162763200Y-110286800D01*
X163906200Y-106603800D02*
X162763200Y-107746800D01*
X164287200Y-106603800D02*
X163906200Y-106603800D01*
X165557200Y-106603800D02*
X164287200Y-106603800D01*
X161109876Y-111940124D02*
X161109876Y-112021068D01*
X186537783Y-117465790D02*
X186445210Y-117465790D01*
X186445210Y-117465790D02*
X185623200Y-118287800D01*
X185623200Y-118287800D02*
X181178200Y-118287800D01*
X181178200Y-118287800D02*
X176606200Y-113715800D01*
X176606200Y-113715800D02*
X176606200Y-109905800D01*
X176606200Y-109905800D02*
X173304200Y-106603800D01*
X173304200Y-106603800D02*
X169875200Y-106603800D01*
X169875200Y-106603800D02*
X169748200Y-106603800D01*
X161109876Y-111940124D02*
X161109876Y-112021068D01*
X193113876Y-112021068D02*
X193113876Y-112067124D01*
X193113876Y-112067124D02*
X192100200Y-113080800D01*
X159978505Y-108518105D02*
X159978505Y-110889697D01*
X159207200Y-107746800D02*
X159978505Y-108518105D01*
X159207200Y-106984800D02*
X159207200Y-107746800D01*
X163525200Y-102666800D02*
X159207200Y-106984800D01*
X175463200Y-102666800D02*
X163525200Y-102666800D01*
X179527200Y-106730800D02*
X175463200Y-102666800D01*
X185750200Y-106730800D02*
X179527200Y-106730800D01*
X187909200Y-108889800D02*
X185750200Y-106730800D01*
X193113876Y-112021068D02*
X193032932Y-112021068D01*
X194767200Y-110474800D02*
X194660144Y-110474800D01*
X194660144Y-110474800D02*
X193113876Y-112021068D01*
X165176200Y-103174800D02*
X164414200Y-103174800D01*
X157927895Y-109534105D02*
X157927895Y-110889697D01*
X158191200Y-109270800D02*
X157927895Y-109534105D01*
X164414200Y-103174800D02*
X160096200Y-107492800D01*
X180416200Y-107365800D02*
X179146200Y-107365800D01*
X179146200Y-107365800D02*
X177622200Y-105841800D01*
X174955200Y-103174800D02*
X165176200Y-103174800D01*
X177622200Y-105841800D02*
X174955200Y-103174800D01*
X194178256Y-114350800D02*
X194810932Y-113718124D01*
X192100200Y-114350800D02*
X194178256Y-114350800D01*
X191846200Y-114096800D02*
X192100200Y-114350800D01*
X185115200Y-107365800D02*
X188163200Y-110413800D01*
X180416200Y-107365800D02*
X185115200Y-107365800D01*
X160544190Y-111455383D02*
X160544190Y-111362810D01*
X160544190Y-111362810D02*
X162001200Y-109905800D01*
X162001200Y-109905800D02*
X162001200Y-107492800D01*
X162001200Y-107492800D02*
X163906200Y-105587800D01*
X163906200Y-105587800D02*
X165557200Y-105587800D01*
X167208200Y-105587800D02*
X173685200Y-105587800D01*
X173685200Y-105587800D02*
X177368200Y-109270800D01*
X177368200Y-109270800D02*
X177368200Y-113334800D01*
X177368200Y-113334800D02*
X180933505Y-116900105D01*
X180933505Y-116900105D02*
X185972097Y-116900105D01*
D33*
X190957200Y-111556800D02*
X190957200Y-110794800D01*
D30*
X187589200Y-122224800D02*
X187589200Y-119808486D01*
X187589200Y-119808486D02*
X188234839Y-119162847D01*
X190957200Y-111556800D02*
X190957200Y-116440486D01*
X190957200Y-116440486D02*
X188234839Y-119162847D01*
X189687200Y-109524800D02*
X190957200Y-110794800D01*
X189687200Y-106476800D02*
X189687200Y-109524800D01*
X185115200Y-111490800D02*
X185115200Y-112861227D01*
X185115200Y-112861227D02*
X186537783Y-114283810D01*
X181051200Y-111490800D02*
X181051200Y-113080800D01*
X184965402Y-113842800D02*
X185972097Y-114849495D01*
X181813200Y-113842800D02*
X184965402Y-113842800D01*
X181051200Y-113080800D02*
X181813200Y-113842800D01*
X176749200Y-91744800D02*
X176749200Y-93776800D01*
X173177200Y-91692800D02*
X176697200Y-91692800D01*
X176697200Y-91692800D02*
X176749200Y-91744800D01*
D31*
X172347200Y-92522800D02*
X173177200Y-91692800D01*
D32*
X173177200Y-91692800D02*
X173177200Y-87744800D01*
X173177200Y-87744800D02*
X175019200Y-85902800D01*
D31*
X170129200Y-92522800D02*
X172347200Y-92522800D01*
X168097200Y-92572800D02*
X170079200Y-92572800D01*
X170079200Y-92572800D02*
X170129200Y-92522800D01*
D30*
X152857200Y-111302800D02*
X152603200Y-111048800D01*
X151841200Y-111048800D02*
X151201200Y-111688800D01*
X152603200Y-111048800D02*
X151841200Y-111048800D01*
X151201200Y-111688800D02*
X151201200Y-111810800D01*
X154381200Y-112826800D02*
X154381200Y-112999856D01*
X154381200Y-112999856D02*
X155099468Y-113718124D01*
M02*
