G04 #@! TF.FileFunction,Legend,Top*
%FSLAX46Y46*%
G04 Gerber Fmt 4.6, Leading zero omitted, Abs format (unit mm)*
G04 Created by KiCad (PCBNEW 4.0.7-e2-6376~58~ubuntu16.04.1) date Fri Feb 16 15:48:39 2018*
%MOMM*%
%LPD*%
G01*
G04 APERTURE LIST*
%ADD10C,0.100000*%
%ADD11C,0.190500*%
%ADD12C,0.203200*%
%ADD13C,0.177800*%
%ADD14C,0.500000*%
%ADD15C,0.150000*%
%ADD16C,0.120000*%
%ADD17C,0.200000*%
G04 APERTURE END LIST*
D10*
D11*
X156703486Y-85104514D02*
X156268058Y-85104514D01*
X156485772Y-85104514D02*
X156485772Y-84342514D01*
X156413201Y-84451371D01*
X156340629Y-84523943D01*
X156268058Y-84560229D01*
X156993772Y-84415086D02*
X157030058Y-84378800D01*
X157102629Y-84342514D01*
X157284058Y-84342514D01*
X157356629Y-84378800D01*
X157392915Y-84415086D01*
X157429200Y-84487657D01*
X157429200Y-84560229D01*
X157392915Y-84669086D01*
X156957486Y-85104514D01*
X157429200Y-85104514D01*
X157646914Y-84342514D02*
X157900914Y-85104514D01*
X158154914Y-84342514D01*
X163888058Y-94756514D02*
X163525201Y-94756514D01*
X163488915Y-95119371D01*
X163525201Y-95083086D01*
X163597772Y-95046800D01*
X163779201Y-95046800D01*
X163851772Y-95083086D01*
X163888058Y-95119371D01*
X163924343Y-95191943D01*
X163924343Y-95373371D01*
X163888058Y-95445943D01*
X163851772Y-95482229D01*
X163779201Y-95518514D01*
X163597772Y-95518514D01*
X163525201Y-95482229D01*
X163488915Y-95445943D01*
X164142057Y-94756514D02*
X164396057Y-95518514D01*
X164650057Y-94756514D01*
D12*
X169276486Y-142928219D02*
X169615153Y-143944219D01*
X169953819Y-142928219D01*
X170292486Y-143944219D02*
X170292486Y-142928219D01*
X170776296Y-143412029D02*
X171114962Y-143412029D01*
X171260105Y-143944219D02*
X170776296Y-143944219D01*
X170776296Y-142928219D01*
X171260105Y-142928219D01*
X171695534Y-143944219D02*
X171695534Y-142928219D01*
X172276105Y-143944219D01*
X172276105Y-142928219D01*
X172759915Y-143944219D02*
X172759915Y-142928219D01*
X173340486Y-143944219D01*
X173340486Y-142928219D01*
X173775915Y-143653933D02*
X174259724Y-143653933D01*
X173679153Y-143944219D02*
X174017820Y-142928219D01*
X174356486Y-143944219D01*
X175420867Y-143895838D02*
X175566010Y-143944219D01*
X175807914Y-143944219D01*
X175904676Y-143895838D01*
X175953057Y-143847457D01*
X176001438Y-143750695D01*
X176001438Y-143653933D01*
X175953057Y-143557171D01*
X175904676Y-143508790D01*
X175807914Y-143460410D01*
X175614391Y-143412029D01*
X175517629Y-143363648D01*
X175469248Y-143315267D01*
X175420867Y-143218505D01*
X175420867Y-143121743D01*
X175469248Y-143024981D01*
X175517629Y-142976600D01*
X175614391Y-142928219D01*
X175856295Y-142928219D01*
X176001438Y-142976600D01*
X177017438Y-143847457D02*
X176969057Y-143895838D01*
X176823914Y-143944219D01*
X176727152Y-143944219D01*
X176582010Y-143895838D01*
X176485248Y-143799076D01*
X176436867Y-143702314D01*
X176388486Y-143508790D01*
X176388486Y-143363648D01*
X176436867Y-143170124D01*
X176485248Y-143073362D01*
X176582010Y-142976600D01*
X176727152Y-142928219D01*
X176823914Y-142928219D01*
X176969057Y-142976600D01*
X177017438Y-143024981D01*
X177452867Y-143944219D02*
X177452867Y-142928219D01*
X177452867Y-143412029D02*
X178033438Y-143412029D01*
X178033438Y-143944219D02*
X178033438Y-142928219D01*
X178517248Y-143412029D02*
X178855914Y-143412029D01*
X179001057Y-143944219D02*
X178517248Y-143944219D01*
X178517248Y-142928219D01*
X179001057Y-142928219D01*
X179630010Y-143460410D02*
X179630010Y-143944219D01*
X179291343Y-142928219D02*
X179630010Y-143460410D01*
X179968676Y-142928219D01*
X180307343Y-143412029D02*
X180646009Y-143412029D01*
X180791152Y-143944219D02*
X180307343Y-143944219D01*
X180307343Y-142928219D01*
X180791152Y-142928219D01*
X181807152Y-143944219D02*
X181468486Y-143460410D01*
X181226581Y-143944219D02*
X181226581Y-142928219D01*
X181613628Y-142928219D01*
X181710390Y-142976600D01*
X181758771Y-143024981D01*
X181807152Y-143121743D01*
X181807152Y-143266886D01*
X181758771Y-143363648D01*
X181710390Y-143412029D01*
X181613628Y-143460410D01*
X181226581Y-143460410D01*
X164607725Y-144655419D02*
X164801248Y-144655419D01*
X164898010Y-144703800D01*
X164994772Y-144800562D01*
X165043153Y-144994086D01*
X165043153Y-145332752D01*
X164994772Y-145526276D01*
X164898010Y-145623038D01*
X164801248Y-145671419D01*
X164607725Y-145671419D01*
X164510963Y-145623038D01*
X164414201Y-145526276D01*
X164365820Y-145332752D01*
X164365820Y-144994086D01*
X164414201Y-144800562D01*
X164510963Y-144703800D01*
X164607725Y-144655419D01*
X165962391Y-145671419D02*
X165478582Y-145671419D01*
X165478582Y-144655419D01*
X166301058Y-145671419D02*
X166301058Y-144655419D01*
X166784868Y-145671419D02*
X166784868Y-144655419D01*
X167365439Y-145671419D01*
X167365439Y-144655419D01*
X168623344Y-145139229D02*
X168962010Y-145139229D01*
X169107153Y-145671419D02*
X168623344Y-145671419D01*
X168623344Y-144655419D01*
X169107153Y-144655419D01*
X170026391Y-145671419D02*
X169542582Y-145671419D01*
X169542582Y-144655419D01*
X170365058Y-145139229D02*
X170703724Y-145139229D01*
X170848867Y-145671419D02*
X170365058Y-145671419D01*
X170365058Y-144655419D01*
X170848867Y-144655419D01*
X171864867Y-145574657D02*
X171816486Y-145623038D01*
X171671343Y-145671419D01*
X171574581Y-145671419D01*
X171429439Y-145623038D01*
X171332677Y-145526276D01*
X171284296Y-145429514D01*
X171235915Y-145235990D01*
X171235915Y-145090848D01*
X171284296Y-144897324D01*
X171332677Y-144800562D01*
X171429439Y-144703800D01*
X171574581Y-144655419D01*
X171671343Y-144655419D01*
X171816486Y-144703800D01*
X171864867Y-144752181D01*
X172155153Y-144655419D02*
X172735724Y-144655419D01*
X172445439Y-145671419D02*
X172445439Y-144655419D01*
X173654962Y-145671419D02*
X173316296Y-145187610D01*
X173074391Y-145671419D02*
X173074391Y-144655419D01*
X173461438Y-144655419D01*
X173558200Y-144703800D01*
X173606581Y-144752181D01*
X173654962Y-144848943D01*
X173654962Y-144994086D01*
X173606581Y-145090848D01*
X173558200Y-145139229D01*
X173461438Y-145187610D01*
X173074391Y-145187610D01*
X174090391Y-145671419D02*
X174090391Y-144655419D01*
X175154772Y-145574657D02*
X175106391Y-145623038D01*
X174961248Y-145671419D01*
X174864486Y-145671419D01*
X174719344Y-145623038D01*
X174622582Y-145526276D01*
X174574201Y-145429514D01*
X174525820Y-145235990D01*
X174525820Y-145090848D01*
X174574201Y-144897324D01*
X174622582Y-144800562D01*
X174719344Y-144703800D01*
X174864486Y-144655419D01*
X174961248Y-144655419D01*
X175106391Y-144703800D01*
X175154772Y-144752181D01*
X176364296Y-145671419D02*
X176364296Y-144655419D01*
X176702962Y-145381133D01*
X177041629Y-144655419D01*
X177041629Y-145671419D01*
X177718963Y-144655419D02*
X177912486Y-144655419D01*
X178009248Y-144703800D01*
X178106010Y-144800562D01*
X178154391Y-144994086D01*
X178154391Y-145332752D01*
X178106010Y-145526276D01*
X178009248Y-145623038D01*
X177912486Y-145671419D01*
X177718963Y-145671419D01*
X177622201Y-145623038D01*
X177525439Y-145526276D01*
X177477058Y-145332752D01*
X177477058Y-144994086D01*
X177525439Y-144800562D01*
X177622201Y-144703800D01*
X177718963Y-144655419D01*
X178444677Y-144655419D02*
X179025248Y-144655419D01*
X178734963Y-145671419D02*
X178734963Y-144655419D01*
X179557439Y-144655419D02*
X179750962Y-144655419D01*
X179847724Y-144703800D01*
X179944486Y-144800562D01*
X179992867Y-144994086D01*
X179992867Y-145332752D01*
X179944486Y-145526276D01*
X179847724Y-145623038D01*
X179750962Y-145671419D01*
X179557439Y-145671419D01*
X179460677Y-145623038D01*
X179363915Y-145526276D01*
X179315534Y-145332752D01*
X179315534Y-144994086D01*
X179363915Y-144800562D01*
X179460677Y-144703800D01*
X179557439Y-144655419D01*
X181008867Y-145671419D02*
X180670201Y-145187610D01*
X180428296Y-145671419D02*
X180428296Y-144655419D01*
X180815343Y-144655419D01*
X180912105Y-144703800D01*
X180960486Y-144752181D01*
X181008867Y-144848943D01*
X181008867Y-144994086D01*
X180960486Y-145090848D01*
X180912105Y-145139229D01*
X180815343Y-145187610D01*
X180428296Y-145187610D01*
X181395915Y-145623038D02*
X181541058Y-145671419D01*
X181782962Y-145671419D01*
X181879724Y-145623038D01*
X181928105Y-145574657D01*
X181976486Y-145477895D01*
X181976486Y-145381133D01*
X181928105Y-145284371D01*
X181879724Y-145235990D01*
X181782962Y-145187610D01*
X181589439Y-145139229D01*
X181492677Y-145090848D01*
X181444296Y-145042467D01*
X181395915Y-144945705D01*
X181395915Y-144848943D01*
X181444296Y-144752181D01*
X181492677Y-144703800D01*
X181589439Y-144655419D01*
X181831343Y-144655419D01*
X181976486Y-144703800D01*
X182411915Y-145671419D02*
X182411915Y-144655419D01*
X182798962Y-144655419D01*
X182895724Y-144703800D01*
X182944105Y-144752181D01*
X182992486Y-144848943D01*
X182992486Y-144994086D01*
X182944105Y-145090848D01*
X182895724Y-145139229D01*
X182798962Y-145187610D01*
X182411915Y-145187610D01*
X183621439Y-144655419D02*
X183814962Y-144655419D01*
X183911724Y-144703800D01*
X184008486Y-144800562D01*
X184056867Y-144994086D01*
X184056867Y-145332752D01*
X184008486Y-145526276D01*
X183911724Y-145623038D01*
X183814962Y-145671419D01*
X183621439Y-145671419D01*
X183524677Y-145623038D01*
X183427915Y-145526276D01*
X183379534Y-145332752D01*
X183379534Y-144994086D01*
X183427915Y-144800562D01*
X183524677Y-144703800D01*
X183621439Y-144655419D01*
X185072867Y-145671419D02*
X184734201Y-145187610D01*
X184492296Y-145671419D02*
X184492296Y-144655419D01*
X184879343Y-144655419D01*
X184976105Y-144703800D01*
X185024486Y-144752181D01*
X185072867Y-144848943D01*
X185072867Y-144994086D01*
X185024486Y-145090848D01*
X184976105Y-145139229D01*
X184879343Y-145187610D01*
X184492296Y-145187610D01*
X185363153Y-144655419D02*
X185943724Y-144655419D01*
X185653439Y-145671419D02*
X185653439Y-144655419D01*
X186234010Y-145623038D02*
X186379153Y-145671419D01*
X186621057Y-145671419D01*
X186717819Y-145623038D01*
X186766200Y-145574657D01*
X186814581Y-145477895D01*
X186814581Y-145381133D01*
X186766200Y-145284371D01*
X186717819Y-145235990D01*
X186621057Y-145187610D01*
X186427534Y-145139229D01*
X186330772Y-145090848D01*
X186282391Y-145042467D01*
X186234010Y-144945705D01*
X186234010Y-144848943D01*
X186282391Y-144752181D01*
X186330772Y-144703800D01*
X186427534Y-144655419D01*
X186669438Y-144655419D01*
X186814581Y-144703800D01*
X160858200Y-146866429D02*
X161003343Y-146914810D01*
X161051724Y-146963190D01*
X161100105Y-147059952D01*
X161100105Y-147205095D01*
X161051724Y-147301857D01*
X161003343Y-147350238D01*
X160906581Y-147398619D01*
X160519534Y-147398619D01*
X160519534Y-146382619D01*
X160858200Y-146382619D01*
X160954962Y-146431000D01*
X161003343Y-146479381D01*
X161051724Y-146576143D01*
X161051724Y-146672905D01*
X161003343Y-146769667D01*
X160954962Y-146818048D01*
X160858200Y-146866429D01*
X160519534Y-146866429D01*
X162116105Y-147398619D02*
X161777439Y-146914810D01*
X161535534Y-147398619D02*
X161535534Y-146382619D01*
X161922581Y-146382619D01*
X162019343Y-146431000D01*
X162067724Y-146479381D01*
X162116105Y-146576143D01*
X162116105Y-146721286D01*
X162067724Y-146818048D01*
X162019343Y-146866429D01*
X161922581Y-146914810D01*
X161535534Y-146914810D01*
X162503153Y-147108333D02*
X162986962Y-147108333D01*
X162406391Y-147398619D02*
X162745058Y-146382619D01*
X163083724Y-147398619D01*
X163422391Y-147398619D02*
X163422391Y-146382619D01*
X164002962Y-147398619D02*
X163567534Y-146818048D01*
X164002962Y-146382619D02*
X163422391Y-146963190D01*
X164438391Y-146866429D02*
X164777057Y-146866429D01*
X164922200Y-147398619D02*
X164438391Y-147398619D01*
X164438391Y-146382619D01*
X164922200Y-146382619D01*
X166615533Y-147398619D02*
X166131724Y-147398619D01*
X166131724Y-146382619D01*
X166954200Y-147398619D02*
X166954200Y-146382619D01*
X167970200Y-146431000D02*
X167873438Y-146382619D01*
X167728295Y-146382619D01*
X167583153Y-146431000D01*
X167486391Y-146527762D01*
X167438010Y-146624524D01*
X167389629Y-146818048D01*
X167389629Y-146963190D01*
X167438010Y-147156714D01*
X167486391Y-147253476D01*
X167583153Y-147350238D01*
X167728295Y-147398619D01*
X167825057Y-147398619D01*
X167970200Y-147350238D01*
X168018581Y-147301857D01*
X168018581Y-146963190D01*
X167825057Y-146963190D01*
X168454010Y-147398619D02*
X168454010Y-146382619D01*
X168454010Y-146866429D02*
X169034581Y-146866429D01*
X169034581Y-147398619D02*
X169034581Y-146382619D01*
X169373248Y-146382619D02*
X169953819Y-146382619D01*
X169663534Y-147398619D02*
X169663534Y-146382619D01*
X171889057Y-147398619D02*
X171840676Y-147398619D01*
X171743914Y-147350238D01*
X171598771Y-147205095D01*
X171356866Y-146914810D01*
X171260105Y-146769667D01*
X171211724Y-146624524D01*
X171211724Y-146527762D01*
X171260105Y-146431000D01*
X171356866Y-146382619D01*
X171405247Y-146382619D01*
X171502009Y-146431000D01*
X171550390Y-146527762D01*
X171550390Y-146576143D01*
X171502009Y-146672905D01*
X171453628Y-146721286D01*
X171163343Y-146914810D01*
X171114962Y-146963190D01*
X171066581Y-147059952D01*
X171066581Y-147205095D01*
X171114962Y-147301857D01*
X171163343Y-147350238D01*
X171260105Y-147398619D01*
X171405247Y-147398619D01*
X171502009Y-147350238D01*
X171550390Y-147301857D01*
X171695533Y-147108333D01*
X171743914Y-146963190D01*
X171743914Y-146866429D01*
X173050200Y-147350238D02*
X173195343Y-147398619D01*
X173437247Y-147398619D01*
X173534009Y-147350238D01*
X173582390Y-147301857D01*
X173630771Y-147205095D01*
X173630771Y-147108333D01*
X173582390Y-147011571D01*
X173534009Y-146963190D01*
X173437247Y-146914810D01*
X173243724Y-146866429D01*
X173146962Y-146818048D01*
X173098581Y-146769667D01*
X173050200Y-146672905D01*
X173050200Y-146576143D01*
X173098581Y-146479381D01*
X173146962Y-146431000D01*
X173243724Y-146382619D01*
X173485628Y-146382619D01*
X173630771Y-146431000D01*
X174066200Y-147398619D02*
X174066200Y-146382619D01*
X174066200Y-146866429D02*
X174646771Y-146866429D01*
X174646771Y-147398619D02*
X174646771Y-146382619D01*
X175130581Y-146382619D02*
X175130581Y-147205095D01*
X175178962Y-147301857D01*
X175227343Y-147350238D01*
X175324105Y-147398619D01*
X175517628Y-147398619D01*
X175614390Y-147350238D01*
X175662771Y-147301857D01*
X175711152Y-147205095D01*
X175711152Y-146382619D01*
X176049819Y-146382619D02*
X176630390Y-146382619D01*
X176340105Y-147398619D02*
X176340105Y-146382619D01*
X176969057Y-147398619D02*
X176969057Y-146382619D01*
X177210962Y-146382619D01*
X177356104Y-146431000D01*
X177452866Y-146527762D01*
X177501247Y-146624524D01*
X177549628Y-146818048D01*
X177549628Y-146963190D01*
X177501247Y-147156714D01*
X177452866Y-147253476D01*
X177356104Y-147350238D01*
X177210962Y-147398619D01*
X176969057Y-147398619D01*
X178178581Y-146382619D02*
X178372104Y-146382619D01*
X178468866Y-146431000D01*
X178565628Y-146527762D01*
X178614009Y-146721286D01*
X178614009Y-147059952D01*
X178565628Y-147253476D01*
X178468866Y-147350238D01*
X178372104Y-147398619D01*
X178178581Y-147398619D01*
X178081819Y-147350238D01*
X177985057Y-147253476D01*
X177936676Y-147059952D01*
X177936676Y-146721286D01*
X177985057Y-146527762D01*
X178081819Y-146431000D01*
X178178581Y-146382619D01*
X178952676Y-146382619D02*
X179194581Y-147398619D01*
X179388104Y-146672905D01*
X179581628Y-147398619D01*
X179823533Y-146382619D01*
X180210581Y-147398619D02*
X180210581Y-146382619D01*
X180791152Y-147398619D01*
X180791152Y-146382619D01*
X182000676Y-147350238D02*
X182145819Y-147398619D01*
X182387723Y-147398619D01*
X182484485Y-147350238D01*
X182532866Y-147301857D01*
X182581247Y-147205095D01*
X182581247Y-147108333D01*
X182532866Y-147011571D01*
X182484485Y-146963190D01*
X182387723Y-146914810D01*
X182194200Y-146866429D01*
X182097438Y-146818048D01*
X182049057Y-146769667D01*
X182000676Y-146672905D01*
X182000676Y-146576143D01*
X182049057Y-146479381D01*
X182097438Y-146431000D01*
X182194200Y-146382619D01*
X182436104Y-146382619D01*
X182581247Y-146431000D01*
X183016676Y-146866429D02*
X183355342Y-146866429D01*
X183500485Y-147398619D02*
X183016676Y-147398619D01*
X183016676Y-146382619D01*
X183500485Y-146382619D01*
X183935914Y-147398619D02*
X183935914Y-146382619D01*
X184516485Y-147398619D01*
X184516485Y-146382619D01*
X184951914Y-147350238D02*
X185097057Y-147398619D01*
X185338961Y-147398619D01*
X185435723Y-147350238D01*
X185484104Y-147301857D01*
X185532485Y-147205095D01*
X185532485Y-147108333D01*
X185484104Y-147011571D01*
X185435723Y-146963190D01*
X185338961Y-146914810D01*
X185145438Y-146866429D01*
X185048676Y-146818048D01*
X185000295Y-146769667D01*
X184951914Y-146672905D01*
X184951914Y-146576143D01*
X185000295Y-146479381D01*
X185048676Y-146431000D01*
X185145438Y-146382619D01*
X185387342Y-146382619D01*
X185532485Y-146431000D01*
X185967914Y-147398619D02*
X185967914Y-146382619D01*
X186451724Y-147398619D02*
X186451724Y-146382619D01*
X187032295Y-147398619D01*
X187032295Y-146382619D01*
X188048295Y-146431000D02*
X187951533Y-146382619D01*
X187806390Y-146382619D01*
X187661248Y-146431000D01*
X187564486Y-146527762D01*
X187516105Y-146624524D01*
X187467724Y-146818048D01*
X187467724Y-146963190D01*
X187516105Y-147156714D01*
X187564486Y-147253476D01*
X187661248Y-147350238D01*
X187806390Y-147398619D01*
X187903152Y-147398619D01*
X188048295Y-147350238D01*
X188096676Y-147301857D01*
X188096676Y-146963190D01*
X187903152Y-146963190D01*
X189161057Y-146382619D02*
X189499724Y-147398619D01*
X189838390Y-146382619D01*
X190709247Y-147398619D02*
X190128676Y-147398619D01*
X190418962Y-147398619D02*
X190418962Y-146382619D01*
X190322200Y-146527762D01*
X190225438Y-146624524D01*
X190128676Y-146672905D01*
D13*
X198516724Y-139702419D02*
X199097295Y-139702419D01*
X198807010Y-140718419D02*
X198807010Y-139702419D01*
X199387581Y-140670038D02*
X199532724Y-140718419D01*
X199774628Y-140718419D01*
X199871390Y-140670038D01*
X199919771Y-140621657D01*
X199968152Y-140524895D01*
X199968152Y-140428133D01*
X199919771Y-140331371D01*
X199871390Y-140282990D01*
X199774628Y-140234610D01*
X199581105Y-140186229D01*
X199484343Y-140137848D01*
X199435962Y-140089467D01*
X199387581Y-139992705D01*
X199387581Y-139895943D01*
X199435962Y-139799181D01*
X199484343Y-139750800D01*
X199581105Y-139702419D01*
X199823009Y-139702419D01*
X199968152Y-139750800D01*
X200403581Y-140718419D02*
X200403581Y-139702419D01*
X200742247Y-140428133D01*
X201080914Y-139702419D01*
X201080914Y-140718419D01*
X201516343Y-140670038D02*
X201661486Y-140718419D01*
X201903390Y-140718419D01*
X202000152Y-140670038D01*
X202048533Y-140621657D01*
X202096914Y-140524895D01*
X202096914Y-140428133D01*
X202048533Y-140331371D01*
X202000152Y-140282990D01*
X201903390Y-140234610D01*
X201709867Y-140186229D01*
X201613105Y-140137848D01*
X201564724Y-140089467D01*
X201516343Y-139992705D01*
X201516343Y-139895943D01*
X201564724Y-139799181D01*
X201613105Y-139750800D01*
X201709867Y-139702419D01*
X201951771Y-139702419D01*
X202096914Y-139750800D01*
X190231486Y-140718419D02*
X190231486Y-139702419D01*
X190231486Y-140186229D02*
X190812057Y-140186229D01*
X190812057Y-140718419D02*
X190812057Y-139702419D01*
X191150724Y-139702419D02*
X191489391Y-140718419D01*
X191828057Y-139702419D01*
X192166724Y-140718419D02*
X192166724Y-139702419D01*
X192408629Y-139702419D01*
X192553771Y-139750800D01*
X192650533Y-139847562D01*
X192698914Y-139944324D01*
X192747295Y-140137848D01*
X192747295Y-140282990D01*
X192698914Y-140476514D01*
X192650533Y-140573276D01*
X192553771Y-140670038D01*
X192408629Y-140718419D01*
X192166724Y-140718419D01*
X179623962Y-140186229D02*
X179769105Y-140234610D01*
X179817486Y-140282990D01*
X179865867Y-140379752D01*
X179865867Y-140524895D01*
X179817486Y-140621657D01*
X179769105Y-140670038D01*
X179672343Y-140718419D01*
X179285296Y-140718419D01*
X179285296Y-139702419D01*
X179623962Y-139702419D01*
X179720724Y-139750800D01*
X179769105Y-139799181D01*
X179817486Y-139895943D01*
X179817486Y-139992705D01*
X179769105Y-140089467D01*
X179720724Y-140137848D01*
X179623962Y-140186229D01*
X179285296Y-140186229D01*
X180252915Y-140670038D02*
X180398058Y-140718419D01*
X180639962Y-140718419D01*
X180736724Y-140670038D01*
X180785105Y-140621657D01*
X180833486Y-140524895D01*
X180833486Y-140428133D01*
X180785105Y-140331371D01*
X180736724Y-140282990D01*
X180639962Y-140234610D01*
X180446439Y-140186229D01*
X180349677Y-140137848D01*
X180301296Y-140089467D01*
X180252915Y-139992705D01*
X180252915Y-139895943D01*
X180301296Y-139799181D01*
X180349677Y-139750800D01*
X180446439Y-139702419D01*
X180688343Y-139702419D01*
X180833486Y-139750800D01*
X181268915Y-140718419D02*
X181268915Y-139702419D01*
X181655962Y-139702419D01*
X181752724Y-139750800D01*
X181801105Y-139799181D01*
X181849486Y-139895943D01*
X181849486Y-140041086D01*
X181801105Y-140137848D01*
X181752724Y-140186229D01*
X181655962Y-140234610D01*
X181268915Y-140234610D01*
X182284915Y-140718419D02*
X182284915Y-139702419D01*
X182526820Y-139702419D01*
X182671962Y-139750800D01*
X182768724Y-139847562D01*
X182817105Y-139944324D01*
X182865486Y-140137848D01*
X182865486Y-140282990D01*
X182817105Y-140476514D01*
X182768724Y-140573276D01*
X182671962Y-140670038D01*
X182526820Y-140718419D01*
X182284915Y-140718419D01*
X167843201Y-140718419D02*
X167504535Y-140234610D01*
X167262630Y-140718419D02*
X167262630Y-139702419D01*
X167649677Y-139702419D01*
X167746439Y-139750800D01*
X167794820Y-139799181D01*
X167843201Y-139895943D01*
X167843201Y-140041086D01*
X167794820Y-140137848D01*
X167746439Y-140186229D01*
X167649677Y-140234610D01*
X167262630Y-140234610D01*
X168278630Y-140718419D02*
X168278630Y-140041086D01*
X168278630Y-139702419D02*
X168230249Y-139750800D01*
X168278630Y-139799181D01*
X168327011Y-139750800D01*
X168278630Y-139702419D01*
X168278630Y-139799181D01*
X169197868Y-140041086D02*
X169197868Y-140863562D01*
X169149487Y-140960324D01*
X169101106Y-141008705D01*
X169004345Y-141057086D01*
X168859202Y-141057086D01*
X168762440Y-141008705D01*
X169197868Y-140670038D02*
X169101106Y-140718419D01*
X168907583Y-140718419D01*
X168810821Y-140670038D01*
X168762440Y-140621657D01*
X168714059Y-140524895D01*
X168714059Y-140234610D01*
X168762440Y-140137848D01*
X168810821Y-140089467D01*
X168907583Y-140041086D01*
X169101106Y-140041086D01*
X169197868Y-140089467D01*
X169681678Y-140718419D02*
X169681678Y-139702419D01*
X170117106Y-140718419D02*
X170117106Y-140186229D01*
X170068725Y-140089467D01*
X169971963Y-140041086D01*
X169826821Y-140041086D01*
X169730059Y-140089467D01*
X169681678Y-140137848D01*
X170455773Y-140041086D02*
X170842821Y-140041086D01*
X170600916Y-139702419D02*
X170600916Y-140573276D01*
X170649297Y-140670038D01*
X170746059Y-140718419D01*
X170842821Y-140718419D01*
X171955582Y-140186229D02*
X172294248Y-140186229D01*
X172439391Y-140718419D02*
X171955582Y-140718419D01*
X171955582Y-139702419D01*
X172439391Y-139702419D01*
X173600534Y-140670038D02*
X173745677Y-140718419D01*
X173987581Y-140718419D01*
X174084343Y-140670038D01*
X174132724Y-140621657D01*
X174181105Y-140524895D01*
X174181105Y-140428133D01*
X174132724Y-140331371D01*
X174084343Y-140282990D01*
X173987581Y-140234610D01*
X173794058Y-140186229D01*
X173697296Y-140137848D01*
X173648915Y-140089467D01*
X173600534Y-139992705D01*
X173600534Y-139895943D01*
X173648915Y-139799181D01*
X173697296Y-139750800D01*
X173794058Y-139702419D01*
X174035962Y-139702419D01*
X174181105Y-139750800D01*
X174471391Y-140041086D02*
X174858439Y-140041086D01*
X174616534Y-139702419D02*
X174616534Y-140573276D01*
X174664915Y-140670038D01*
X174761677Y-140718419D01*
X174858439Y-140718419D01*
X175342248Y-140718419D02*
X175245486Y-140670038D01*
X175197105Y-140621657D01*
X175148724Y-140524895D01*
X175148724Y-140234610D01*
X175197105Y-140137848D01*
X175245486Y-140089467D01*
X175342248Y-140041086D01*
X175487390Y-140041086D01*
X175584152Y-140089467D01*
X175632533Y-140137848D01*
X175680914Y-140234610D01*
X175680914Y-140524895D01*
X175632533Y-140621657D01*
X175584152Y-140670038D01*
X175487390Y-140718419D01*
X175342248Y-140718419D01*
X176116343Y-140041086D02*
X176116343Y-141057086D01*
X176116343Y-140089467D02*
X176213105Y-140041086D01*
X176406628Y-140041086D01*
X176503390Y-140089467D01*
X176551771Y-140137848D01*
X176600152Y-140234610D01*
X176600152Y-140524895D01*
X176551771Y-140621657D01*
X176503390Y-140670038D01*
X176406628Y-140718419D01*
X176213105Y-140718419D01*
X176116343Y-140670038D01*
X157864630Y-140718419D02*
X157380821Y-140718419D01*
X157380821Y-139702419D01*
X158590344Y-140670038D02*
X158493582Y-140718419D01*
X158300059Y-140718419D01*
X158203297Y-140670038D01*
X158154916Y-140573276D01*
X158154916Y-140186229D01*
X158203297Y-140089467D01*
X158300059Y-140041086D01*
X158493582Y-140041086D01*
X158590344Y-140089467D01*
X158638725Y-140186229D01*
X158638725Y-140282990D01*
X158154916Y-140379752D01*
X158929011Y-140041086D02*
X159316059Y-140041086D01*
X159074154Y-140718419D02*
X159074154Y-139847562D01*
X159122535Y-139750800D01*
X159219297Y-139702419D01*
X159316059Y-139702419D01*
X159509582Y-140041086D02*
X159896630Y-140041086D01*
X159654725Y-139702419D02*
X159654725Y-140573276D01*
X159703106Y-140670038D01*
X159799868Y-140718419D01*
X159896630Y-140718419D01*
X161009391Y-140186229D02*
X161348057Y-140186229D01*
X161493200Y-140718419D02*
X161009391Y-140718419D01*
X161009391Y-139702419D01*
X161493200Y-139702419D01*
X162654343Y-140670038D02*
X162799486Y-140718419D01*
X163041390Y-140718419D01*
X163138152Y-140670038D01*
X163186533Y-140621657D01*
X163234914Y-140524895D01*
X163234914Y-140428133D01*
X163186533Y-140331371D01*
X163138152Y-140282990D01*
X163041390Y-140234610D01*
X162847867Y-140186229D01*
X162751105Y-140137848D01*
X162702724Y-140089467D01*
X162654343Y-139992705D01*
X162654343Y-139895943D01*
X162702724Y-139799181D01*
X162751105Y-139750800D01*
X162847867Y-139702419D01*
X163089771Y-139702419D01*
X163234914Y-139750800D01*
X163525200Y-140041086D02*
X163912248Y-140041086D01*
X163670343Y-139702419D02*
X163670343Y-140573276D01*
X163718724Y-140670038D01*
X163815486Y-140718419D01*
X163912248Y-140718419D01*
X164396057Y-140718419D02*
X164299295Y-140670038D01*
X164250914Y-140621657D01*
X164202533Y-140524895D01*
X164202533Y-140234610D01*
X164250914Y-140137848D01*
X164299295Y-140089467D01*
X164396057Y-140041086D01*
X164541199Y-140041086D01*
X164637961Y-140089467D01*
X164686342Y-140137848D01*
X164734723Y-140234610D01*
X164734723Y-140524895D01*
X164686342Y-140621657D01*
X164637961Y-140670038D01*
X164541199Y-140718419D01*
X164396057Y-140718419D01*
X165170152Y-140041086D02*
X165170152Y-141057086D01*
X165170152Y-140089467D02*
X165266914Y-140041086D01*
X165460437Y-140041086D01*
X165557199Y-140089467D01*
X165605580Y-140137848D01*
X165653961Y-140234610D01*
X165653961Y-140524895D01*
X165605580Y-140621657D01*
X165557199Y-140670038D01*
X165460437Y-140718419D01*
X165266914Y-140718419D01*
X165170152Y-140670038D01*
X150595391Y-140718419D02*
X150595391Y-139702419D01*
X150934057Y-140428133D01*
X151272724Y-139702419D01*
X151272724Y-140718419D01*
X152191962Y-140718419D02*
X152191962Y-140186229D01*
X152143581Y-140089467D01*
X152046819Y-140041086D01*
X151853296Y-140041086D01*
X151756534Y-140089467D01*
X152191962Y-140670038D02*
X152095200Y-140718419D01*
X151853296Y-140718419D01*
X151756534Y-140670038D01*
X151708153Y-140573276D01*
X151708153Y-140476514D01*
X151756534Y-140379752D01*
X151853296Y-140331371D01*
X152095200Y-140331371D01*
X152191962Y-140282990D01*
X152675772Y-140718419D02*
X152675772Y-140041086D01*
X152675772Y-139702419D02*
X152627391Y-139750800D01*
X152675772Y-139799181D01*
X152724153Y-139750800D01*
X152675772Y-139702419D01*
X152675772Y-139799181D01*
X153159582Y-140041086D02*
X153159582Y-140718419D01*
X153159582Y-140137848D02*
X153207963Y-140089467D01*
X153304725Y-140041086D01*
X153449867Y-140041086D01*
X153546629Y-140089467D01*
X153595010Y-140186229D01*
X153595010Y-140718419D01*
D14*
X155250254Y-115892761D02*
G75*
G03X155250254Y-115892761I-50801J0D01*
G01*
X152915386Y-115749076D02*
G75*
G03X152915386Y-115749076I-50800J0D01*
G01*
D15*
X153826676Y-115874800D02*
X153985775Y-116033899D01*
X158953200Y-110748276D02*
X159183010Y-110978086D01*
X164079724Y-115874800D02*
X163849914Y-115644990D01*
X158953200Y-121001324D02*
X158723390Y-120771514D01*
X153826676Y-115874800D02*
X154056486Y-115644990D01*
X158953200Y-121001324D02*
X159183010Y-120771514D01*
X164079724Y-115874800D02*
X163849914Y-116104610D01*
X158953200Y-110748276D02*
X158723390Y-110978086D01*
X153985775Y-116033899D02*
X152978148Y-117041526D01*
D16*
X167835200Y-107277800D02*
X166835200Y-107277800D01*
X166835200Y-108977800D02*
X167835200Y-108977800D01*
X167708200Y-109436800D02*
X166708200Y-109436800D01*
X166708200Y-111136800D02*
X167708200Y-111136800D01*
X159973200Y-92744800D02*
X159973200Y-90744800D01*
X157933200Y-90744800D02*
X157933200Y-92744800D01*
X169455200Y-122470800D02*
X169455200Y-121470800D01*
X167755200Y-121470800D02*
X167755200Y-122470800D01*
X165549200Y-124168800D02*
X164549200Y-124168800D01*
X164549200Y-125868800D02*
X165549200Y-125868800D01*
X164549200Y-85482800D02*
X165549200Y-85482800D01*
X165549200Y-83782800D02*
X164549200Y-83782800D01*
X196379200Y-122216800D02*
X196379200Y-121216800D01*
X194679200Y-121216800D02*
X194679200Y-122216800D01*
X170979200Y-94022800D02*
X170979200Y-93022800D01*
X169279200Y-93022800D02*
X169279200Y-94022800D01*
X203491200Y-120438800D02*
X203491200Y-119438800D01*
X201791200Y-119438800D02*
X201791200Y-120438800D01*
X160311200Y-127042800D02*
X160311200Y-126042800D01*
X158611200Y-126042800D02*
X158611200Y-127042800D01*
X199585200Y-121628800D02*
X198585200Y-121628800D01*
X198585200Y-123328800D02*
X199585200Y-123328800D01*
D17*
X149317200Y-92344800D02*
X150217200Y-91244800D01*
X151017200Y-92344800D02*
X149317200Y-92344800D01*
X150217200Y-91244800D02*
X151017200Y-92344800D01*
X151017200Y-91244800D02*
X149317200Y-91244800D01*
D16*
X151650700Y-88569800D02*
X148983700Y-88569800D01*
X148983700Y-88569800D02*
X148983700Y-91744800D01*
X151650700Y-88569800D02*
X151650700Y-91744800D01*
D10*
X158603200Y-86972800D02*
X158953200Y-86972800D01*
X158953200Y-86972800D02*
X159303200Y-86972800D01*
X158603200Y-87322800D02*
X158953200Y-86972800D01*
X158653200Y-87322800D02*
X158603200Y-87322800D01*
X158603200Y-87322800D02*
X158653200Y-87322800D01*
X159303200Y-87322800D02*
X158653200Y-87322800D01*
X159253200Y-87272800D02*
X159303200Y-87322800D01*
X158953200Y-86972800D02*
X159253200Y-87272800D01*
D16*
X159653200Y-85372800D02*
X158253200Y-85372800D01*
X158253200Y-85372800D02*
X158253200Y-88172800D01*
X159653200Y-85372800D02*
X159653200Y-88172800D01*
D10*
X165781200Y-97682800D02*
X165781200Y-97332800D01*
X165781200Y-97332800D02*
X165781200Y-96982800D01*
X166131200Y-97682800D02*
X165781200Y-97332800D01*
X166131200Y-97632800D02*
X166131200Y-97682800D01*
X166131200Y-97682800D02*
X166131200Y-97632800D01*
X166131200Y-96982800D02*
X166131200Y-97632800D01*
X166081200Y-97032800D02*
X166131200Y-96982800D01*
X165781200Y-97332800D02*
X166081200Y-97032800D01*
D16*
X164181200Y-96632800D02*
X164181200Y-98032800D01*
X164181200Y-98032800D02*
X166981200Y-98032800D01*
X164181200Y-96632800D02*
X166981200Y-96632800D01*
D10*
X156317200Y-132438800D02*
X156667200Y-132438800D01*
X156667200Y-132438800D02*
X157017200Y-132438800D01*
X156317200Y-132788800D02*
X156667200Y-132438800D01*
X156367200Y-132788800D02*
X156317200Y-132788800D01*
X156317200Y-132788800D02*
X156367200Y-132788800D01*
X157017200Y-132788800D02*
X156367200Y-132788800D01*
X156967200Y-132738800D02*
X157017200Y-132788800D01*
X156667200Y-132438800D02*
X156967200Y-132738800D01*
D16*
X157367200Y-130838800D02*
X155967200Y-130838800D01*
X155967200Y-130838800D02*
X155967200Y-133638800D01*
X157367200Y-130838800D02*
X157367200Y-133638800D01*
D10*
X204069200Y-132438800D02*
X204419200Y-132438800D01*
X204419200Y-132438800D02*
X204769200Y-132438800D01*
X204069200Y-132788800D02*
X204419200Y-132438800D01*
X204119200Y-132788800D02*
X204069200Y-132788800D01*
X204069200Y-132788800D02*
X204119200Y-132788800D01*
X204769200Y-132788800D02*
X204119200Y-132788800D01*
X204719200Y-132738800D02*
X204769200Y-132788800D01*
X204419200Y-132438800D02*
X204719200Y-132738800D01*
D16*
X205119200Y-130838800D02*
X203719200Y-130838800D01*
X203719200Y-130838800D02*
X203719200Y-133638800D01*
X205119200Y-130838800D02*
X205119200Y-133638800D01*
D10*
X175367200Y-132438800D02*
X175717200Y-132438800D01*
X175717200Y-132438800D02*
X176067200Y-132438800D01*
X175367200Y-132788800D02*
X175717200Y-132438800D01*
X175417200Y-132788800D02*
X175367200Y-132788800D01*
X175367200Y-132788800D02*
X175417200Y-132788800D01*
X176067200Y-132788800D02*
X175417200Y-132788800D01*
X176017200Y-132738800D02*
X176067200Y-132788800D01*
X175717200Y-132438800D02*
X176017200Y-132738800D01*
D16*
X176417200Y-130838800D02*
X175017200Y-130838800D01*
X175017200Y-130838800D02*
X175017200Y-133638800D01*
X176417200Y-130838800D02*
X176417200Y-133638800D01*
D10*
X184765200Y-132438800D02*
X185115200Y-132438800D01*
X185115200Y-132438800D02*
X185465200Y-132438800D01*
X184765200Y-132788800D02*
X185115200Y-132438800D01*
X184815200Y-132788800D02*
X184765200Y-132788800D01*
X184765200Y-132788800D02*
X184815200Y-132788800D01*
X185465200Y-132788800D02*
X184815200Y-132788800D01*
X185415200Y-132738800D02*
X185465200Y-132788800D01*
X185115200Y-132438800D02*
X185415200Y-132738800D01*
D16*
X185815200Y-130838800D02*
X184415200Y-130838800D01*
X184415200Y-130838800D02*
X184415200Y-133638800D01*
X185815200Y-130838800D02*
X185815200Y-133638800D01*
D10*
X165969200Y-132438800D02*
X166319200Y-132438800D01*
X166319200Y-132438800D02*
X166669200Y-132438800D01*
X165969200Y-132788800D02*
X166319200Y-132438800D01*
X166019200Y-132788800D02*
X165969200Y-132788800D01*
X165969200Y-132788800D02*
X166019200Y-132788800D01*
X166669200Y-132788800D02*
X166019200Y-132788800D01*
X166619200Y-132738800D02*
X166669200Y-132788800D01*
X166319200Y-132438800D02*
X166619200Y-132738800D01*
D16*
X167019200Y-130838800D02*
X165619200Y-130838800D01*
X165619200Y-130838800D02*
X165619200Y-133638800D01*
X167019200Y-130838800D02*
X167019200Y-133638800D01*
D10*
X194417200Y-132438800D02*
X194767200Y-132438800D01*
X194767200Y-132438800D02*
X195117200Y-132438800D01*
X194417200Y-132788800D02*
X194767200Y-132438800D01*
X194467200Y-132788800D02*
X194417200Y-132788800D01*
X194417200Y-132788800D02*
X194467200Y-132788800D01*
X195117200Y-132788800D02*
X194467200Y-132788800D01*
X195067200Y-132738800D02*
X195117200Y-132788800D01*
X194767200Y-132438800D02*
X195067200Y-132738800D01*
D16*
X195467200Y-130838800D02*
X194067200Y-130838800D01*
X194067200Y-130838800D02*
X194067200Y-133638800D01*
X195467200Y-130838800D02*
X195467200Y-133638800D01*
D10*
X183433200Y-110740800D02*
X183083200Y-110740800D01*
X183083200Y-110740800D02*
X182733200Y-110740800D01*
X183433200Y-110390800D02*
X183083200Y-110740800D01*
X183383200Y-110390800D02*
X183433200Y-110390800D01*
X183433200Y-110390800D02*
X183383200Y-110390800D01*
X182733200Y-110390800D02*
X183383200Y-110390800D01*
X182783200Y-110440800D02*
X182733200Y-110390800D01*
X183083200Y-110740800D02*
X182783200Y-110440800D01*
D16*
X182383200Y-112340800D02*
X183783200Y-112340800D01*
X183783200Y-112340800D02*
X183783200Y-109540800D01*
X182383200Y-112340800D02*
X182383200Y-109540800D01*
D10*
X179369200Y-110740800D02*
X179019200Y-110740800D01*
X179019200Y-110740800D02*
X178669200Y-110740800D01*
X179369200Y-110390800D02*
X179019200Y-110740800D01*
X179319200Y-110390800D02*
X179369200Y-110390800D01*
X179369200Y-110390800D02*
X179319200Y-110390800D01*
X178669200Y-110390800D02*
X179319200Y-110390800D01*
X178719200Y-110440800D02*
X178669200Y-110390800D01*
X179019200Y-110740800D02*
X178719200Y-110440800D01*
D16*
X178319200Y-112340800D02*
X179719200Y-112340800D01*
X179719200Y-112340800D02*
X179719200Y-109540800D01*
X178319200Y-112340800D02*
X178319200Y-109540800D01*
D10*
X169336200Y-113788800D02*
X168986200Y-113788800D01*
X168986200Y-113788800D02*
X168636200Y-113788800D01*
X169336200Y-113438800D02*
X168986200Y-113788800D01*
X169286200Y-113438800D02*
X169336200Y-113438800D01*
X169336200Y-113438800D02*
X169286200Y-113438800D01*
X168636200Y-113438800D02*
X169286200Y-113438800D01*
X168686200Y-113488800D02*
X168636200Y-113438800D01*
X168986200Y-113788800D02*
X168686200Y-113488800D01*
D16*
X168286200Y-115388800D02*
X169686200Y-115388800D01*
X169686200Y-115388800D02*
X169686200Y-112588800D01*
X168286200Y-115388800D02*
X168286200Y-112588800D01*
D10*
X173400200Y-113788800D02*
X173050200Y-113788800D01*
X173050200Y-113788800D02*
X172700200Y-113788800D01*
X173400200Y-113438800D02*
X173050200Y-113788800D01*
X173350200Y-113438800D02*
X173400200Y-113438800D01*
X173400200Y-113438800D02*
X173350200Y-113438800D01*
X172700200Y-113438800D02*
X173350200Y-113438800D01*
X172750200Y-113488800D02*
X172700200Y-113438800D01*
X173050200Y-113788800D02*
X172750200Y-113488800D01*
D16*
X172350200Y-115388800D02*
X173750200Y-115388800D01*
X173750200Y-115388800D02*
X173750200Y-112588800D01*
X172350200Y-115388800D02*
X172350200Y-112588800D01*
X153409200Y-90204800D02*
X153409200Y-88204800D01*
X156369200Y-88204800D02*
X156369200Y-90204800D01*
D15*
X141063200Y-137610800D02*
X146363200Y-137610800D01*
X141063200Y-125380800D02*
X146363200Y-125380800D01*
X141063200Y-137610800D02*
X141063200Y-125380800D01*
X146363200Y-137610800D02*
X146363200Y-125380800D01*
X141063200Y-123386800D02*
X146363200Y-123386800D01*
X141063200Y-93376800D02*
X146363200Y-93376800D01*
X141063200Y-123386800D02*
X141063200Y-93376800D01*
X146363200Y-123386800D02*
X146363200Y-93376800D01*
X152603200Y-102666800D02*
X152603200Y-97586800D01*
X152883200Y-105486800D02*
X151333200Y-105486800D01*
X150063200Y-105206800D02*
X150063200Y-102666800D01*
X150063200Y-102666800D02*
X152603200Y-102666800D01*
X152603200Y-97586800D02*
X147523200Y-97586800D01*
X147523200Y-97586800D02*
X147523200Y-102666800D01*
X152883200Y-105486800D02*
X152883200Y-103936800D01*
X147523200Y-105206800D02*
X150063200Y-105206800D01*
X147523200Y-102666800D02*
X147523200Y-105206800D01*
X188417200Y-102666800D02*
X188417200Y-107746800D01*
X188137200Y-99846800D02*
X189687200Y-99846800D01*
X190957200Y-100126800D02*
X190957200Y-102666800D01*
X190957200Y-102666800D02*
X188417200Y-102666800D01*
X188417200Y-107746800D02*
X193497200Y-107746800D01*
X193497200Y-107746800D02*
X193497200Y-102666800D01*
X188137200Y-99846800D02*
X188137200Y-101396800D01*
X193497200Y-100126800D02*
X190957200Y-100126800D01*
X193497200Y-102666800D02*
X193497200Y-100126800D01*
D16*
X198321200Y-88244800D02*
X198321200Y-87314800D01*
X198321200Y-85084800D02*
X198321200Y-86014800D01*
X198321200Y-85084800D02*
X196161200Y-85084800D01*
X198321200Y-88244800D02*
X196861200Y-88244800D01*
X149557200Y-131058800D02*
X149557200Y-131988800D01*
X149557200Y-134218800D02*
X149557200Y-133288800D01*
X149557200Y-134218800D02*
X151717200Y-134218800D01*
X149557200Y-131058800D02*
X151017200Y-131058800D01*
X197309200Y-131058800D02*
X197309200Y-131988800D01*
X197309200Y-134218800D02*
X197309200Y-133288800D01*
X197309200Y-134218800D02*
X199469200Y-134218800D01*
X197309200Y-131058800D02*
X198769200Y-131058800D01*
X168607200Y-131058800D02*
X168607200Y-131988800D01*
X168607200Y-134218800D02*
X168607200Y-133288800D01*
X168607200Y-134218800D02*
X170767200Y-134218800D01*
X168607200Y-131058800D02*
X170067200Y-131058800D01*
X178005200Y-131058800D02*
X178005200Y-131988800D01*
X178005200Y-134218800D02*
X178005200Y-133288800D01*
X178005200Y-134218800D02*
X180165200Y-134218800D01*
X178005200Y-131058800D02*
X179465200Y-131058800D01*
X159209200Y-131058800D02*
X159209200Y-131988800D01*
X159209200Y-134218800D02*
X159209200Y-133288800D01*
X159209200Y-134218800D02*
X161369200Y-134218800D01*
X159209200Y-131058800D02*
X160669200Y-131058800D01*
X187657200Y-131058800D02*
X187657200Y-131988800D01*
X187657200Y-134218800D02*
X187657200Y-133288800D01*
X187657200Y-134218800D02*
X189817200Y-134218800D01*
X187657200Y-131058800D02*
X189117200Y-131058800D01*
X163153200Y-109743800D02*
X163153200Y-108543800D01*
X164913200Y-108543800D02*
X164913200Y-109743800D01*
X162373200Y-86572800D02*
X162373200Y-87772800D01*
X160613200Y-87772800D02*
X160613200Y-86572800D01*
X195581200Y-93364800D02*
X195581200Y-94564800D01*
X193821200Y-94564800D02*
X193821200Y-93364800D01*
X160613200Y-91328800D02*
X160613200Y-90128800D01*
X162373200Y-90128800D02*
X162373200Y-91328800D01*
X150409200Y-114722800D02*
X149209200Y-114722800D01*
X149209200Y-112962800D02*
X150409200Y-112962800D01*
X165185200Y-94122800D02*
X165185200Y-92922800D01*
X166945200Y-92922800D02*
X166945200Y-94122800D01*
X168977200Y-92922800D02*
X168977200Y-94122800D01*
X167217200Y-94122800D02*
X167217200Y-92922800D01*
X188611200Y-87384800D02*
X193811200Y-87384800D01*
X193811200Y-91024800D02*
X188611200Y-91024800D01*
X193151200Y-84514800D02*
X194351200Y-84514800D01*
X194351200Y-86274800D02*
X193151200Y-86274800D01*
X201743200Y-92414800D02*
X201743200Y-93614800D01*
X199983200Y-93614800D02*
X199983200Y-92414800D01*
X174997200Y-92192800D02*
X174997200Y-97392800D01*
X171357200Y-97392800D02*
X171357200Y-92192800D01*
X198669200Y-95926800D02*
X197469200Y-95926800D01*
X197469200Y-94166800D02*
X198669200Y-94166800D01*
X169021200Y-96452800D02*
X170221200Y-96452800D01*
X170221200Y-98212800D02*
X169021200Y-98212800D01*
X155997200Y-137328800D02*
X154797200Y-137328800D01*
X154797200Y-135568800D02*
X155997200Y-135568800D01*
X203749200Y-137328800D02*
X202549200Y-137328800D01*
X202549200Y-135568800D02*
X203749200Y-135568800D01*
X155007200Y-132038800D02*
X155007200Y-133238800D01*
X153247200Y-133238800D02*
X153247200Y-132038800D01*
X202759200Y-132038800D02*
X202759200Y-133238800D01*
X200999200Y-133238800D02*
X200999200Y-132038800D01*
X149717200Y-135568800D02*
X150917200Y-135568800D01*
X150917200Y-137328800D02*
X149717200Y-137328800D01*
X197469200Y-135568800D02*
X198669200Y-135568800D01*
X198669200Y-137328800D02*
X197469200Y-137328800D01*
X175047200Y-137328800D02*
X173847200Y-137328800D01*
X173847200Y-135568800D02*
X175047200Y-135568800D01*
X184445200Y-137328800D02*
X183245200Y-137328800D01*
X183245200Y-135568800D02*
X184445200Y-135568800D01*
X174057200Y-132038800D02*
X174057200Y-133238800D01*
X172297200Y-133238800D02*
X172297200Y-132038800D01*
X183455200Y-132038800D02*
X183455200Y-133238800D01*
X181695200Y-133238800D02*
X181695200Y-132038800D01*
X168767200Y-135568800D02*
X169967200Y-135568800D01*
X169967200Y-137328800D02*
X168767200Y-137328800D01*
X178165200Y-135568800D02*
X179365200Y-135568800D01*
X179365200Y-137328800D02*
X178165200Y-137328800D01*
X165649200Y-137328800D02*
X164449200Y-137328800D01*
X164449200Y-135568800D02*
X165649200Y-135568800D01*
X194097200Y-137328800D02*
X192897200Y-137328800D01*
X192897200Y-135568800D02*
X194097200Y-135568800D01*
X164659200Y-132038800D02*
X164659200Y-133238800D01*
X162899200Y-133238800D02*
X162899200Y-132038800D01*
X193107200Y-132038800D02*
X193107200Y-133238800D01*
X191347200Y-133238800D02*
X191347200Y-132038800D01*
X159369200Y-135568800D02*
X160569200Y-135568800D01*
X160569200Y-137328800D02*
X159369200Y-137328800D01*
X187817200Y-135568800D02*
X189017200Y-135568800D01*
X189017200Y-137328800D02*
X187817200Y-137328800D01*
X167834200Y-112988800D02*
X167834200Y-114188800D01*
X166074200Y-114188800D02*
X166074200Y-112988800D01*
X171898200Y-112988800D02*
X171898200Y-114188800D01*
X170138200Y-114188800D02*
X170138200Y-112988800D01*
X185995200Y-109940800D02*
X185995200Y-111140800D01*
X184235200Y-111140800D02*
X184235200Y-109940800D01*
X181931200Y-109940800D02*
X181931200Y-111140800D01*
X180171200Y-111140800D02*
X180171200Y-109940800D01*
X187239200Y-123104800D02*
X186039200Y-123104800D01*
X186039200Y-121344800D02*
X187239200Y-121344800D01*
X193887200Y-110124800D02*
X193887200Y-108924800D01*
X195647200Y-108924800D02*
X195647200Y-110124800D01*
X150851200Y-112690800D02*
X149651200Y-112690800D01*
X149651200Y-110930800D02*
X150851200Y-110930800D01*
X150851200Y-110658800D02*
X149651200Y-110658800D01*
X149651200Y-108898800D02*
X150851200Y-108898800D01*
X196661200Y-93354800D02*
X198461200Y-93354800D01*
X198461200Y-90134800D02*
X196011200Y-90134800D01*
X164149200Y-90052800D02*
X165949200Y-90052800D01*
X165949200Y-86832800D02*
X163499200Y-86832800D01*
D15*
X190957200Y-121001324D02*
X191116299Y-120842225D01*
X185830676Y-115874800D02*
X186060486Y-115644990D01*
X190957200Y-110748276D02*
X190727390Y-110978086D01*
X196083724Y-115874800D02*
X195853914Y-116104610D01*
X190957200Y-121001324D02*
X190727390Y-120771514D01*
X196083724Y-115874800D02*
X195853914Y-115644990D01*
X190957200Y-110748276D02*
X191187010Y-110978086D01*
X185830676Y-115874800D02*
X186060486Y-116104610D01*
X191116299Y-120842225D02*
X192123926Y-121849852D01*
X156456200Y-128863800D02*
X156456200Y-128813800D01*
X152306200Y-128863800D02*
X152306200Y-128718800D01*
X152306200Y-123713800D02*
X152306200Y-123858800D01*
X156456200Y-123713800D02*
X156456200Y-123858800D01*
X156456200Y-128863800D02*
X152306200Y-128863800D01*
X156456200Y-123713800D02*
X152306200Y-123713800D01*
X156456200Y-128813800D02*
X157856200Y-128813800D01*
D10*
X167049200Y-123570800D02*
X165049200Y-123570800D01*
X167049200Y-123570800D02*
X167049200Y-121970800D01*
X201085200Y-121030800D02*
X199085200Y-121030800D01*
X201085200Y-121030800D02*
X201085200Y-119430800D01*
D16*
X201205200Y-89450800D02*
X201205200Y-88450800D01*
X199505200Y-88450800D02*
X199505200Y-89450800D01*
X178249200Y-90894800D02*
X177249200Y-90894800D01*
X177249200Y-92594800D02*
X178249200Y-92594800D01*
X178249200Y-92926800D02*
X177249200Y-92926800D01*
X177249200Y-94626800D02*
X178249200Y-94626800D01*
D15*
X154304815Y-112606956D02*
X153597708Y-111899849D01*
X154978250Y-111798834D02*
X154978250Y-111866178D01*
X154910907Y-112000865D01*
X154843563Y-112068208D01*
X154708876Y-112135552D01*
X154574189Y-112135552D01*
X154473174Y-112101880D01*
X154304815Y-112000865D01*
X154203799Y-111899849D01*
X154102784Y-111731491D01*
X154069112Y-111630476D01*
X154069112Y-111495789D01*
X154136457Y-111361101D01*
X154203800Y-111293758D01*
X154338487Y-111226414D01*
X154405830Y-111226414D01*
X155719029Y-111192743D02*
X155314967Y-111596804D01*
X155516998Y-111394774D02*
X154809891Y-110687667D01*
X154843563Y-110856026D01*
X154843563Y-110990712D01*
X154809891Y-111091728D01*
X168438534Y-106960943D02*
X168390915Y-107008562D01*
X168248058Y-107056181D01*
X168152820Y-107056181D01*
X168009962Y-107008562D01*
X167914724Y-106913324D01*
X167867105Y-106818086D01*
X167819486Y-106627610D01*
X167819486Y-106484752D01*
X167867105Y-106294276D01*
X167914724Y-106199038D01*
X168009962Y-106103800D01*
X168152820Y-106056181D01*
X168248058Y-106056181D01*
X168390915Y-106103800D01*
X168438534Y-106151419D01*
X169390915Y-107056181D02*
X168819486Y-107056181D01*
X169105200Y-107056181D02*
X169105200Y-106056181D01*
X169009962Y-106199038D01*
X168914724Y-106294276D01*
X168819486Y-106341895D01*
X169835534Y-110770943D02*
X169787915Y-110818562D01*
X169645058Y-110866181D01*
X169549820Y-110866181D01*
X169406962Y-110818562D01*
X169311724Y-110723324D01*
X169264105Y-110628086D01*
X169216486Y-110437610D01*
X169216486Y-110294752D01*
X169264105Y-110104276D01*
X169311724Y-110009038D01*
X169406962Y-109913800D01*
X169549820Y-109866181D01*
X169645058Y-109866181D01*
X169787915Y-109913800D01*
X169835534Y-109961419D01*
X170216486Y-109961419D02*
X170264105Y-109913800D01*
X170359343Y-109866181D01*
X170597439Y-109866181D01*
X170692677Y-109913800D01*
X170740296Y-109961419D01*
X170787915Y-110056657D01*
X170787915Y-110151895D01*
X170740296Y-110294752D01*
X170168867Y-110866181D01*
X170787915Y-110866181D01*
X159564343Y-95467466D02*
X159611962Y-95515085D01*
X159659581Y-95657942D01*
X159659581Y-95753180D01*
X159611962Y-95896038D01*
X159516724Y-95991276D01*
X159421486Y-96038895D01*
X159231010Y-96086514D01*
X159088152Y-96086514D01*
X158897676Y-96038895D01*
X158802438Y-95991276D01*
X158707200Y-95896038D01*
X158659581Y-95753180D01*
X158659581Y-95657942D01*
X158707200Y-95515085D01*
X158754819Y-95467466D01*
X158659581Y-95134133D02*
X158659581Y-94515085D01*
X159040533Y-94848419D01*
X159040533Y-94705561D01*
X159088152Y-94610323D01*
X159135771Y-94562704D01*
X159231010Y-94515085D01*
X159469105Y-94515085D01*
X159564343Y-94562704D01*
X159611962Y-94610323D01*
X159659581Y-94705561D01*
X159659581Y-94991276D01*
X159611962Y-95086514D01*
X159564343Y-95134133D01*
X168962343Y-124931466D02*
X169009962Y-124979085D01*
X169057581Y-125121942D01*
X169057581Y-125217180D01*
X169009962Y-125360038D01*
X168914724Y-125455276D01*
X168819486Y-125502895D01*
X168629010Y-125550514D01*
X168486152Y-125550514D01*
X168295676Y-125502895D01*
X168200438Y-125455276D01*
X168105200Y-125360038D01*
X168057581Y-125217180D01*
X168057581Y-125121942D01*
X168105200Y-124979085D01*
X168152819Y-124931466D01*
X168390914Y-124074323D02*
X169057581Y-124074323D01*
X168009962Y-124312419D02*
X168724248Y-124550514D01*
X168724248Y-123931466D01*
X165136534Y-127407943D02*
X165088915Y-127455562D01*
X164946058Y-127503181D01*
X164850820Y-127503181D01*
X164707962Y-127455562D01*
X164612724Y-127360324D01*
X164565105Y-127265086D01*
X164517486Y-127074610D01*
X164517486Y-126931752D01*
X164565105Y-126741276D01*
X164612724Y-126646038D01*
X164707962Y-126550800D01*
X164850820Y-126503181D01*
X164946058Y-126503181D01*
X165088915Y-126550800D01*
X165136534Y-126598419D01*
X166041296Y-126503181D02*
X165565105Y-126503181D01*
X165517486Y-126979371D01*
X165565105Y-126931752D01*
X165660343Y-126884133D01*
X165898439Y-126884133D01*
X165993677Y-126931752D01*
X166041296Y-126979371D01*
X166088915Y-127074610D01*
X166088915Y-127312705D01*
X166041296Y-127407943D01*
X165993677Y-127455562D01*
X165898439Y-127503181D01*
X165660343Y-127503181D01*
X165565105Y-127455562D01*
X165517486Y-127407943D01*
X164882534Y-83465943D02*
X164834915Y-83513562D01*
X164692058Y-83561181D01*
X164596820Y-83561181D01*
X164453962Y-83513562D01*
X164358724Y-83418324D01*
X164311105Y-83323086D01*
X164263486Y-83132610D01*
X164263486Y-82989752D01*
X164311105Y-82799276D01*
X164358724Y-82704038D01*
X164453962Y-82608800D01*
X164596820Y-82561181D01*
X164692058Y-82561181D01*
X164834915Y-82608800D01*
X164882534Y-82656419D01*
X165739677Y-82561181D02*
X165549200Y-82561181D01*
X165453962Y-82608800D01*
X165406343Y-82656419D01*
X165311105Y-82799276D01*
X165263486Y-82989752D01*
X165263486Y-83370705D01*
X165311105Y-83465943D01*
X165358724Y-83513562D01*
X165453962Y-83561181D01*
X165644439Y-83561181D01*
X165739677Y-83513562D01*
X165787296Y-83465943D01*
X165834915Y-83370705D01*
X165834915Y-83132610D01*
X165787296Y-83037371D01*
X165739677Y-82989752D01*
X165644439Y-82942133D01*
X165453962Y-82942133D01*
X165358724Y-82989752D01*
X165311105Y-83037371D01*
X165263486Y-83132610D01*
X195362534Y-124867943D02*
X195314915Y-124915562D01*
X195172058Y-124963181D01*
X195076820Y-124963181D01*
X194933962Y-124915562D01*
X194838724Y-124820324D01*
X194791105Y-124725086D01*
X194743486Y-124534610D01*
X194743486Y-124391752D01*
X194791105Y-124201276D01*
X194838724Y-124106038D01*
X194933962Y-124010800D01*
X195076820Y-123963181D01*
X195172058Y-123963181D01*
X195314915Y-124010800D01*
X195362534Y-124058419D01*
X195695867Y-123963181D02*
X196362534Y-123963181D01*
X195933962Y-124963181D01*
X169962534Y-91593943D02*
X169914915Y-91641562D01*
X169772058Y-91689181D01*
X169676820Y-91689181D01*
X169533962Y-91641562D01*
X169438724Y-91546324D01*
X169391105Y-91451086D01*
X169343486Y-91260610D01*
X169343486Y-91117752D01*
X169391105Y-90927276D01*
X169438724Y-90832038D01*
X169533962Y-90736800D01*
X169676820Y-90689181D01*
X169772058Y-90689181D01*
X169914915Y-90736800D01*
X169962534Y-90784419D01*
X170533962Y-91117752D02*
X170438724Y-91070133D01*
X170391105Y-91022514D01*
X170343486Y-90927276D01*
X170343486Y-90879657D01*
X170391105Y-90784419D01*
X170438724Y-90736800D01*
X170533962Y-90689181D01*
X170724439Y-90689181D01*
X170819677Y-90736800D01*
X170867296Y-90784419D01*
X170914915Y-90879657D01*
X170914915Y-90927276D01*
X170867296Y-91022514D01*
X170819677Y-91070133D01*
X170724439Y-91117752D01*
X170533962Y-91117752D01*
X170438724Y-91165371D01*
X170391105Y-91212990D01*
X170343486Y-91308229D01*
X170343486Y-91498705D01*
X170391105Y-91593943D01*
X170438724Y-91641562D01*
X170533962Y-91689181D01*
X170724439Y-91689181D01*
X170819677Y-91641562D01*
X170867296Y-91593943D01*
X170914915Y-91498705D01*
X170914915Y-91308229D01*
X170867296Y-91212990D01*
X170819677Y-91165371D01*
X170724439Y-91117752D01*
X203252343Y-122899466D02*
X203299962Y-122947085D01*
X203347581Y-123089942D01*
X203347581Y-123185180D01*
X203299962Y-123328038D01*
X203204724Y-123423276D01*
X203109486Y-123470895D01*
X202919010Y-123518514D01*
X202776152Y-123518514D01*
X202585676Y-123470895D01*
X202490438Y-123423276D01*
X202395200Y-123328038D01*
X202347581Y-123185180D01*
X202347581Y-123089942D01*
X202395200Y-122947085D01*
X202442819Y-122899466D01*
X203347581Y-122423276D02*
X203347581Y-122232800D01*
X203299962Y-122137561D01*
X203252343Y-122089942D01*
X203109486Y-121994704D01*
X202919010Y-121947085D01*
X202538057Y-121947085D01*
X202442819Y-121994704D01*
X202395200Y-122042323D01*
X202347581Y-122137561D01*
X202347581Y-122328038D01*
X202395200Y-122423276D01*
X202442819Y-122470895D01*
X202538057Y-122518514D01*
X202776152Y-122518514D01*
X202871390Y-122470895D01*
X202919010Y-122423276D01*
X202966629Y-122328038D01*
X202966629Y-122137561D01*
X202919010Y-122042323D01*
X202871390Y-121994704D01*
X202776152Y-121947085D01*
X161596343Y-126931657D02*
X161643962Y-126979276D01*
X161691581Y-127122133D01*
X161691581Y-127217371D01*
X161643962Y-127360229D01*
X161548724Y-127455467D01*
X161453486Y-127503086D01*
X161263010Y-127550705D01*
X161120152Y-127550705D01*
X160929676Y-127503086D01*
X160834438Y-127455467D01*
X160739200Y-127360229D01*
X160691581Y-127217371D01*
X160691581Y-127122133D01*
X160739200Y-126979276D01*
X160786819Y-126931657D01*
X161691581Y-125979276D02*
X161691581Y-126550705D01*
X161691581Y-126264991D02*
X160691581Y-126264991D01*
X160834438Y-126360229D01*
X160929676Y-126455467D01*
X160977295Y-126550705D01*
X160691581Y-125360229D02*
X160691581Y-125264990D01*
X160739200Y-125169752D01*
X160786819Y-125122133D01*
X160882057Y-125074514D01*
X161072533Y-125026895D01*
X161310629Y-125026895D01*
X161501105Y-125074514D01*
X161596343Y-125122133D01*
X161643962Y-125169752D01*
X161691581Y-125264990D01*
X161691581Y-125360229D01*
X161643962Y-125455467D01*
X161596343Y-125503086D01*
X161501105Y-125550705D01*
X161310629Y-125598324D01*
X161072533Y-125598324D01*
X160882057Y-125550705D01*
X160786819Y-125503086D01*
X160739200Y-125455467D01*
X160691581Y-125360229D01*
X198442343Y-124867943D02*
X198394724Y-124915562D01*
X198251867Y-124963181D01*
X198156629Y-124963181D01*
X198013771Y-124915562D01*
X197918533Y-124820324D01*
X197870914Y-124725086D01*
X197823295Y-124534610D01*
X197823295Y-124391752D01*
X197870914Y-124201276D01*
X197918533Y-124106038D01*
X198013771Y-124010800D01*
X198156629Y-123963181D01*
X198251867Y-123963181D01*
X198394724Y-124010800D01*
X198442343Y-124058419D01*
X199394724Y-124963181D02*
X198823295Y-124963181D01*
X199109009Y-124963181D02*
X199109009Y-123963181D01*
X199013771Y-124106038D01*
X198918533Y-124201276D01*
X198823295Y-124248895D01*
X200347105Y-124963181D02*
X199775676Y-124963181D01*
X200061390Y-124963181D02*
X200061390Y-123963181D01*
X199966152Y-124106038D01*
X199870914Y-124201276D01*
X199775676Y-124248895D01*
X148229581Y-92482895D02*
X147229581Y-92482895D01*
X147229581Y-92244800D01*
X147277200Y-92101942D01*
X147372438Y-92006704D01*
X147467676Y-91959085D01*
X147658152Y-91911466D01*
X147801010Y-91911466D01*
X147991486Y-91959085D01*
X148086724Y-92006704D01*
X148181962Y-92101942D01*
X148229581Y-92244800D01*
X148229581Y-92482895D01*
X148229581Y-90959085D02*
X148229581Y-91530514D01*
X148229581Y-91244800D02*
X147229581Y-91244800D01*
X147372438Y-91340038D01*
X147467676Y-91435276D01*
X147515295Y-91530514D01*
X159659581Y-84862895D02*
X158659581Y-84862895D01*
X158659581Y-84624800D01*
X158707200Y-84481942D01*
X158802438Y-84386704D01*
X158897676Y-84339085D01*
X159088152Y-84291466D01*
X159231010Y-84291466D01*
X159421486Y-84339085D01*
X159516724Y-84386704D01*
X159611962Y-84481942D01*
X159659581Y-84624800D01*
X159659581Y-84862895D01*
X158754819Y-83910514D02*
X158707200Y-83862895D01*
X158659581Y-83767657D01*
X158659581Y-83529561D01*
X158707200Y-83434323D01*
X158754819Y-83386704D01*
X158850057Y-83339085D01*
X158945295Y-83339085D01*
X159088152Y-83386704D01*
X159659581Y-83958133D01*
X159659581Y-83339085D01*
X165497105Y-99309181D02*
X165497105Y-98309181D01*
X165735200Y-98309181D01*
X165878058Y-98356800D01*
X165973296Y-98452038D01*
X166020915Y-98547276D01*
X166068534Y-98737752D01*
X166068534Y-98880610D01*
X166020915Y-99071086D01*
X165973296Y-99166324D01*
X165878058Y-99261562D01*
X165735200Y-99309181D01*
X165497105Y-99309181D01*
X166401867Y-98309181D02*
X167020915Y-98309181D01*
X166687581Y-98690133D01*
X166830439Y-98690133D01*
X166925677Y-98737752D01*
X166973296Y-98785371D01*
X167020915Y-98880610D01*
X167020915Y-99118705D01*
X166973296Y-99213943D01*
X166925677Y-99261562D01*
X166830439Y-99309181D01*
X166544724Y-99309181D01*
X166449486Y-99261562D01*
X166401867Y-99213943D01*
X155929105Y-130297181D02*
X155929105Y-129297181D01*
X156167200Y-129297181D01*
X156310058Y-129344800D01*
X156405296Y-129440038D01*
X156452915Y-129535276D01*
X156500534Y-129725752D01*
X156500534Y-129868610D01*
X156452915Y-130059086D01*
X156405296Y-130154324D01*
X156310058Y-130249562D01*
X156167200Y-130297181D01*
X155929105Y-130297181D01*
X157357677Y-129630514D02*
X157357677Y-130297181D01*
X157119581Y-129249562D02*
X156881486Y-129963848D01*
X157500534Y-129963848D01*
X204871581Y-129566895D02*
X203871581Y-129566895D01*
X203871581Y-129328800D01*
X203919200Y-129185942D01*
X204014438Y-129090704D01*
X204109676Y-129043085D01*
X204300152Y-128995466D01*
X204443010Y-128995466D01*
X204633486Y-129043085D01*
X204728724Y-129090704D01*
X204823962Y-129185942D01*
X204871581Y-129328800D01*
X204871581Y-129566895D01*
X203871581Y-128090704D02*
X203871581Y-128566895D01*
X204347771Y-128614514D01*
X204300152Y-128566895D01*
X204252533Y-128471657D01*
X204252533Y-128233561D01*
X204300152Y-128138323D01*
X204347771Y-128090704D01*
X204443010Y-128043085D01*
X204681105Y-128043085D01*
X204776343Y-128090704D01*
X204823962Y-128138323D01*
X204871581Y-128233561D01*
X204871581Y-128471657D01*
X204823962Y-128566895D01*
X204776343Y-128614514D01*
X175915581Y-130328895D02*
X174915581Y-130328895D01*
X174915581Y-130090800D01*
X174963200Y-129947942D01*
X175058438Y-129852704D01*
X175153676Y-129805085D01*
X175344152Y-129757466D01*
X175487010Y-129757466D01*
X175677486Y-129805085D01*
X175772724Y-129852704D01*
X175867962Y-129947942D01*
X175915581Y-130090800D01*
X175915581Y-130328895D01*
X174915581Y-128900323D02*
X174915581Y-129090800D01*
X174963200Y-129186038D01*
X175010819Y-129233657D01*
X175153676Y-129328895D01*
X175344152Y-129376514D01*
X175725105Y-129376514D01*
X175820343Y-129328895D01*
X175867962Y-129281276D01*
X175915581Y-129186038D01*
X175915581Y-128995561D01*
X175867962Y-128900323D01*
X175820343Y-128852704D01*
X175725105Y-128805085D01*
X175487010Y-128805085D01*
X175391771Y-128852704D01*
X175344152Y-128900323D01*
X175296533Y-128995561D01*
X175296533Y-129186038D01*
X175344152Y-129281276D01*
X175391771Y-129328895D01*
X175487010Y-129376514D01*
X185821581Y-130328895D02*
X184821581Y-130328895D01*
X184821581Y-130090800D01*
X184869200Y-129947942D01*
X184964438Y-129852704D01*
X185059676Y-129805085D01*
X185250152Y-129757466D01*
X185393010Y-129757466D01*
X185583486Y-129805085D01*
X185678724Y-129852704D01*
X185773962Y-129947942D01*
X185821581Y-130090800D01*
X185821581Y-130328895D01*
X184821581Y-129424133D02*
X184821581Y-128757466D01*
X185821581Y-129186038D01*
X167025581Y-130328895D02*
X166025581Y-130328895D01*
X166025581Y-130090800D01*
X166073200Y-129947942D01*
X166168438Y-129852704D01*
X166263676Y-129805085D01*
X166454152Y-129757466D01*
X166597010Y-129757466D01*
X166787486Y-129805085D01*
X166882724Y-129852704D01*
X166977962Y-129947942D01*
X167025581Y-130090800D01*
X167025581Y-130328895D01*
X166454152Y-129186038D02*
X166406533Y-129281276D01*
X166358914Y-129328895D01*
X166263676Y-129376514D01*
X166216057Y-129376514D01*
X166120819Y-129328895D01*
X166073200Y-129281276D01*
X166025581Y-129186038D01*
X166025581Y-128995561D01*
X166073200Y-128900323D01*
X166120819Y-128852704D01*
X166216057Y-128805085D01*
X166263676Y-128805085D01*
X166358914Y-128852704D01*
X166406533Y-128900323D01*
X166454152Y-128995561D01*
X166454152Y-129186038D01*
X166501771Y-129281276D01*
X166549390Y-129328895D01*
X166644629Y-129376514D01*
X166835105Y-129376514D01*
X166930343Y-129328895D01*
X166977962Y-129281276D01*
X167025581Y-129186038D01*
X167025581Y-128995561D01*
X166977962Y-128900323D01*
X166930343Y-128852704D01*
X166835105Y-128805085D01*
X166644629Y-128805085D01*
X166549390Y-128852704D01*
X166501771Y-128900323D01*
X166454152Y-128995561D01*
X194965581Y-130328895D02*
X193965581Y-130328895D01*
X193965581Y-130090800D01*
X194013200Y-129947942D01*
X194108438Y-129852704D01*
X194203676Y-129805085D01*
X194394152Y-129757466D01*
X194537010Y-129757466D01*
X194727486Y-129805085D01*
X194822724Y-129852704D01*
X194917962Y-129947942D01*
X194965581Y-130090800D01*
X194965581Y-130328895D01*
X194965581Y-129281276D02*
X194965581Y-129090800D01*
X194917962Y-128995561D01*
X194870343Y-128947942D01*
X194727486Y-128852704D01*
X194537010Y-128805085D01*
X194156057Y-128805085D01*
X194060819Y-128852704D01*
X194013200Y-128900323D01*
X193965581Y-128995561D01*
X193965581Y-129186038D01*
X194013200Y-129281276D01*
X194060819Y-129328895D01*
X194156057Y-129376514D01*
X194394152Y-129376514D01*
X194489390Y-129328895D01*
X194537010Y-129281276D01*
X194584629Y-129186038D01*
X194584629Y-128995561D01*
X194537010Y-128900323D01*
X194489390Y-128852704D01*
X194394152Y-128805085D01*
X183535581Y-108199086D02*
X182535581Y-108199086D01*
X182535581Y-107960991D01*
X182583200Y-107818133D01*
X182678438Y-107722895D01*
X182773676Y-107675276D01*
X182964152Y-107627657D01*
X183107010Y-107627657D01*
X183297486Y-107675276D01*
X183392724Y-107722895D01*
X183487962Y-107818133D01*
X183535581Y-107960991D01*
X183535581Y-108199086D01*
X183535581Y-106675276D02*
X183535581Y-107246705D01*
X183535581Y-106960991D02*
X182535581Y-106960991D01*
X182678438Y-107056229D01*
X182773676Y-107151467D01*
X182821295Y-107246705D01*
X182535581Y-106056229D02*
X182535581Y-105960990D01*
X182583200Y-105865752D01*
X182630819Y-105818133D01*
X182726057Y-105770514D01*
X182916533Y-105722895D01*
X183154629Y-105722895D01*
X183345105Y-105770514D01*
X183440343Y-105818133D01*
X183487962Y-105865752D01*
X183535581Y-105960990D01*
X183535581Y-106056229D01*
X183487962Y-106151467D01*
X183440343Y-106199086D01*
X183345105Y-106246705D01*
X183154629Y-106294324D01*
X182916533Y-106294324D01*
X182726057Y-106246705D01*
X182630819Y-106199086D01*
X182583200Y-106151467D01*
X182535581Y-106056229D01*
X179471581Y-108199086D02*
X178471581Y-108199086D01*
X178471581Y-107960991D01*
X178519200Y-107818133D01*
X178614438Y-107722895D01*
X178709676Y-107675276D01*
X178900152Y-107627657D01*
X179043010Y-107627657D01*
X179233486Y-107675276D01*
X179328724Y-107722895D01*
X179423962Y-107818133D01*
X179471581Y-107960991D01*
X179471581Y-108199086D01*
X179471581Y-106675276D02*
X179471581Y-107246705D01*
X179471581Y-106960991D02*
X178471581Y-106960991D01*
X178614438Y-107056229D01*
X178709676Y-107151467D01*
X178757295Y-107246705D01*
X179471581Y-105722895D02*
X179471581Y-106294324D01*
X179471581Y-106008610D02*
X178471581Y-106008610D01*
X178614438Y-106103848D01*
X178709676Y-106199086D01*
X178757295Y-106294324D01*
X169438581Y-118359086D02*
X168438581Y-118359086D01*
X168438581Y-118120991D01*
X168486200Y-117978133D01*
X168581438Y-117882895D01*
X168676676Y-117835276D01*
X168867152Y-117787657D01*
X169010010Y-117787657D01*
X169200486Y-117835276D01*
X169295724Y-117882895D01*
X169390962Y-117978133D01*
X169438581Y-118120991D01*
X169438581Y-118359086D01*
X169438581Y-116835276D02*
X169438581Y-117406705D01*
X169438581Y-117120991D02*
X168438581Y-117120991D01*
X168581438Y-117216229D01*
X168676676Y-117311467D01*
X168724295Y-117406705D01*
X168438581Y-116501943D02*
X168438581Y-115882895D01*
X168819533Y-116216229D01*
X168819533Y-116073371D01*
X168867152Y-115978133D01*
X168914771Y-115930514D01*
X169010010Y-115882895D01*
X169248105Y-115882895D01*
X169343343Y-115930514D01*
X169390962Y-115978133D01*
X169438581Y-116073371D01*
X169438581Y-116359086D01*
X169390962Y-116454324D01*
X169343343Y-116501943D01*
X173502581Y-111247086D02*
X172502581Y-111247086D01*
X172502581Y-111008991D01*
X172550200Y-110866133D01*
X172645438Y-110770895D01*
X172740676Y-110723276D01*
X172931152Y-110675657D01*
X173074010Y-110675657D01*
X173264486Y-110723276D01*
X173359724Y-110770895D01*
X173454962Y-110866133D01*
X173502581Y-111008991D01*
X173502581Y-111247086D01*
X173502581Y-109723276D02*
X173502581Y-110294705D01*
X173502581Y-110008991D02*
X172502581Y-110008991D01*
X172645438Y-110104229D01*
X172740676Y-110199467D01*
X172788295Y-110294705D01*
X172835914Y-108866133D02*
X173502581Y-108866133D01*
X172454962Y-109104229D02*
X173169248Y-109342324D01*
X173169248Y-108723276D01*
X154817771Y-86490133D02*
X154817771Y-86823467D01*
X155341581Y-86823467D02*
X154341581Y-86823467D01*
X154341581Y-86347276D01*
X155341581Y-85442514D02*
X155341581Y-86013943D01*
X155341581Y-85728229D02*
X154341581Y-85728229D01*
X154484438Y-85823467D01*
X154579676Y-85918705D01*
X154627295Y-86013943D01*
X142363867Y-137933181D02*
X142363867Y-138647467D01*
X142316247Y-138790324D01*
X142221009Y-138885562D01*
X142078152Y-138933181D01*
X141982914Y-138933181D01*
X143363867Y-138933181D02*
X142792438Y-138933181D01*
X143078152Y-138933181D02*
X143078152Y-137933181D01*
X142982914Y-138076038D01*
X142887676Y-138171276D01*
X142792438Y-138218895D01*
X145173677Y-137933181D02*
X144983200Y-137933181D01*
X144887962Y-137980800D01*
X144840343Y-138028419D01*
X144745105Y-138171276D01*
X144697486Y-138361752D01*
X144697486Y-138742705D01*
X144745105Y-138837943D01*
X144792724Y-138885562D01*
X144887962Y-138933181D01*
X145078439Y-138933181D01*
X145173677Y-138885562D01*
X145221296Y-138837943D01*
X145268915Y-138742705D01*
X145268915Y-138504610D01*
X145221296Y-138409371D01*
X145173677Y-138361752D01*
X145078439Y-138314133D01*
X144887962Y-138314133D01*
X144792724Y-138361752D01*
X144745105Y-138409371D01*
X144697486Y-138504610D01*
X142728915Y-124963181D02*
X142157486Y-124963181D01*
X142443200Y-124963181D02*
X142443200Y-123963181D01*
X142347962Y-124106038D01*
X142252724Y-124201276D01*
X142157486Y-124248895D01*
X144395867Y-91705181D02*
X144395867Y-92419467D01*
X144348247Y-92562324D01*
X144253009Y-92657562D01*
X144110152Y-92705181D01*
X144014914Y-92705181D01*
X144824438Y-91800419D02*
X144872057Y-91752800D01*
X144967295Y-91705181D01*
X145205391Y-91705181D01*
X145300629Y-91752800D01*
X145348248Y-91800419D01*
X145395867Y-91895657D01*
X145395867Y-91990895D01*
X145348248Y-92133752D01*
X144776819Y-92705181D01*
X145395867Y-92705181D01*
X144221295Y-123804419D02*
X144268914Y-123756800D01*
X144364152Y-123709181D01*
X144602248Y-123709181D01*
X144697486Y-123756800D01*
X144745105Y-123804419D01*
X144792724Y-123899657D01*
X144792724Y-123994895D01*
X144745105Y-124137752D01*
X144173676Y-124709181D01*
X144792724Y-124709181D01*
X145411771Y-123709181D02*
X145507010Y-123709181D01*
X145602248Y-123756800D01*
X145649867Y-123804419D01*
X145697486Y-123899657D01*
X145745105Y-124090133D01*
X145745105Y-124328229D01*
X145697486Y-124518705D01*
X145649867Y-124613943D01*
X145602248Y-124661562D01*
X145507010Y-124709181D01*
X145411771Y-124709181D01*
X145316533Y-124661562D01*
X145268914Y-124613943D01*
X145221295Y-124518705D01*
X145173676Y-124328229D01*
X145173676Y-124090133D01*
X145221295Y-123899657D01*
X145268914Y-123804419D01*
X145316533Y-123756800D01*
X145411771Y-123709181D01*
X142728915Y-92959181D02*
X142157486Y-92959181D01*
X142443200Y-92959181D02*
X142443200Y-91959181D01*
X142347962Y-92102038D01*
X142252724Y-92197276D01*
X142157486Y-92244895D01*
X172502534Y-81021181D02*
X172026343Y-81021181D01*
X172026343Y-80021181D01*
X173359677Y-81021181D02*
X172788248Y-81021181D01*
X173073962Y-81021181D02*
X173073962Y-80021181D01*
X172978724Y-80164038D01*
X172883486Y-80259276D01*
X172788248Y-80306895D01*
X148817105Y-106929181D02*
X148817105Y-105929181D01*
X149198058Y-105929181D01*
X149293296Y-105976800D01*
X149340915Y-106024419D01*
X149388534Y-106119657D01*
X149388534Y-106262514D01*
X149340915Y-106357752D01*
X149293296Y-106405371D01*
X149198058Y-106452990D01*
X148817105Y-106452990D01*
X150340915Y-106929181D02*
X149769486Y-106929181D01*
X150055200Y-106929181D02*
X150055200Y-105929181D01*
X149959962Y-106072038D01*
X149864724Y-106167276D01*
X149769486Y-106214895D01*
X190727105Y-99309181D02*
X190727105Y-98309181D01*
X191108058Y-98309181D01*
X191203296Y-98356800D01*
X191250915Y-98404419D01*
X191298534Y-98499657D01*
X191298534Y-98642514D01*
X191250915Y-98737752D01*
X191203296Y-98785371D01*
X191108058Y-98832990D01*
X190727105Y-98832990D01*
X191679486Y-98404419D02*
X191727105Y-98356800D01*
X191822343Y-98309181D01*
X192060439Y-98309181D01*
X192155677Y-98356800D01*
X192203296Y-98404419D01*
X192250915Y-98499657D01*
X192250915Y-98594895D01*
X192203296Y-98737752D01*
X191631867Y-99309181D01*
X192250915Y-99309181D01*
X197465962Y-84712419D02*
X197370724Y-84664800D01*
X197275486Y-84569562D01*
X197132629Y-84426705D01*
X197037390Y-84379086D01*
X196942152Y-84379086D01*
X196989771Y-84617181D02*
X196894533Y-84569562D01*
X196799295Y-84474324D01*
X196751676Y-84283848D01*
X196751676Y-83950514D01*
X196799295Y-83760038D01*
X196894533Y-83664800D01*
X196989771Y-83617181D01*
X197180248Y-83617181D01*
X197275486Y-83664800D01*
X197370724Y-83760038D01*
X197418343Y-83950514D01*
X197418343Y-84283848D01*
X197370724Y-84474324D01*
X197275486Y-84569562D01*
X197180248Y-84617181D01*
X196989771Y-84617181D01*
X198370724Y-84617181D02*
X197799295Y-84617181D01*
X198085009Y-84617181D02*
X198085009Y-83617181D01*
X197989771Y-83760038D01*
X197894533Y-83855276D01*
X197799295Y-83902895D01*
X150475962Y-130646419D02*
X150380724Y-130598800D01*
X150285486Y-130503562D01*
X150142629Y-130360705D01*
X150047390Y-130313086D01*
X149952152Y-130313086D01*
X149999771Y-130551181D02*
X149904533Y-130503562D01*
X149809295Y-130408324D01*
X149761676Y-130217848D01*
X149761676Y-129884514D01*
X149809295Y-129694038D01*
X149904533Y-129598800D01*
X149999771Y-129551181D01*
X150190248Y-129551181D01*
X150285486Y-129598800D01*
X150380724Y-129694038D01*
X150428343Y-129884514D01*
X150428343Y-130217848D01*
X150380724Y-130408324D01*
X150285486Y-130503562D01*
X150190248Y-130551181D01*
X149999771Y-130551181D01*
X150809295Y-129646419D02*
X150856914Y-129598800D01*
X150952152Y-129551181D01*
X151190248Y-129551181D01*
X151285486Y-129598800D01*
X151333105Y-129646419D01*
X151380724Y-129741657D01*
X151380724Y-129836895D01*
X151333105Y-129979752D01*
X150761676Y-130551181D01*
X151380724Y-130551181D01*
X197973962Y-130646419D02*
X197878724Y-130598800D01*
X197783486Y-130503562D01*
X197640629Y-130360705D01*
X197545390Y-130313086D01*
X197450152Y-130313086D01*
X197497771Y-130551181D02*
X197402533Y-130503562D01*
X197307295Y-130408324D01*
X197259676Y-130217848D01*
X197259676Y-129884514D01*
X197307295Y-129694038D01*
X197402533Y-129598800D01*
X197497771Y-129551181D01*
X197688248Y-129551181D01*
X197783486Y-129598800D01*
X197878724Y-129694038D01*
X197926343Y-129884514D01*
X197926343Y-130217848D01*
X197878724Y-130408324D01*
X197783486Y-130503562D01*
X197688248Y-130551181D01*
X197497771Y-130551181D01*
X198259676Y-129551181D02*
X198878724Y-129551181D01*
X198545390Y-129932133D01*
X198688248Y-129932133D01*
X198783486Y-129979752D01*
X198831105Y-130027371D01*
X198878724Y-130122610D01*
X198878724Y-130360705D01*
X198831105Y-130455943D01*
X198783486Y-130503562D01*
X198688248Y-130551181D01*
X198402533Y-130551181D01*
X198307295Y-130503562D01*
X198259676Y-130455943D01*
X169271962Y-130646419D02*
X169176724Y-130598800D01*
X169081486Y-130503562D01*
X168938629Y-130360705D01*
X168843390Y-130313086D01*
X168748152Y-130313086D01*
X168795771Y-130551181D02*
X168700533Y-130503562D01*
X168605295Y-130408324D01*
X168557676Y-130217848D01*
X168557676Y-129884514D01*
X168605295Y-129694038D01*
X168700533Y-129598800D01*
X168795771Y-129551181D01*
X168986248Y-129551181D01*
X169081486Y-129598800D01*
X169176724Y-129694038D01*
X169224343Y-129884514D01*
X169224343Y-130217848D01*
X169176724Y-130408324D01*
X169081486Y-130503562D01*
X168986248Y-130551181D01*
X168795771Y-130551181D01*
X170081486Y-129884514D02*
X170081486Y-130551181D01*
X169843390Y-129503562D02*
X169605295Y-130217848D01*
X170224343Y-130217848D01*
X178669962Y-130646419D02*
X178574724Y-130598800D01*
X178479486Y-130503562D01*
X178336629Y-130360705D01*
X178241390Y-130313086D01*
X178146152Y-130313086D01*
X178193771Y-130551181D02*
X178098533Y-130503562D01*
X178003295Y-130408324D01*
X177955676Y-130217848D01*
X177955676Y-129884514D01*
X178003295Y-129694038D01*
X178098533Y-129598800D01*
X178193771Y-129551181D01*
X178384248Y-129551181D01*
X178479486Y-129598800D01*
X178574724Y-129694038D01*
X178622343Y-129884514D01*
X178622343Y-130217848D01*
X178574724Y-130408324D01*
X178479486Y-130503562D01*
X178384248Y-130551181D01*
X178193771Y-130551181D01*
X179527105Y-129551181D02*
X179050914Y-129551181D01*
X179003295Y-130027371D01*
X179050914Y-129979752D01*
X179146152Y-129932133D01*
X179384248Y-129932133D01*
X179479486Y-129979752D01*
X179527105Y-130027371D01*
X179574724Y-130122610D01*
X179574724Y-130360705D01*
X179527105Y-130455943D01*
X179479486Y-130503562D01*
X179384248Y-130551181D01*
X179146152Y-130551181D01*
X179050914Y-130503562D01*
X179003295Y-130455943D01*
X159873962Y-130646419D02*
X159778724Y-130598800D01*
X159683486Y-130503562D01*
X159540629Y-130360705D01*
X159445390Y-130313086D01*
X159350152Y-130313086D01*
X159397771Y-130551181D02*
X159302533Y-130503562D01*
X159207295Y-130408324D01*
X159159676Y-130217848D01*
X159159676Y-129884514D01*
X159207295Y-129694038D01*
X159302533Y-129598800D01*
X159397771Y-129551181D01*
X159588248Y-129551181D01*
X159683486Y-129598800D01*
X159778724Y-129694038D01*
X159826343Y-129884514D01*
X159826343Y-130217848D01*
X159778724Y-130408324D01*
X159683486Y-130503562D01*
X159588248Y-130551181D01*
X159397771Y-130551181D01*
X160683486Y-129551181D02*
X160493009Y-129551181D01*
X160397771Y-129598800D01*
X160350152Y-129646419D01*
X160254914Y-129789276D01*
X160207295Y-129979752D01*
X160207295Y-130360705D01*
X160254914Y-130455943D01*
X160302533Y-130503562D01*
X160397771Y-130551181D01*
X160588248Y-130551181D01*
X160683486Y-130503562D01*
X160731105Y-130455943D01*
X160778724Y-130360705D01*
X160778724Y-130122610D01*
X160731105Y-130027371D01*
X160683486Y-129979752D01*
X160588248Y-129932133D01*
X160397771Y-129932133D01*
X160302533Y-129979752D01*
X160254914Y-130027371D01*
X160207295Y-130122610D01*
X188321962Y-130646419D02*
X188226724Y-130598800D01*
X188131486Y-130503562D01*
X187988629Y-130360705D01*
X187893390Y-130313086D01*
X187798152Y-130313086D01*
X187845771Y-130551181D02*
X187750533Y-130503562D01*
X187655295Y-130408324D01*
X187607676Y-130217848D01*
X187607676Y-129884514D01*
X187655295Y-129694038D01*
X187750533Y-129598800D01*
X187845771Y-129551181D01*
X188036248Y-129551181D01*
X188131486Y-129598800D01*
X188226724Y-129694038D01*
X188274343Y-129884514D01*
X188274343Y-130217848D01*
X188226724Y-130408324D01*
X188131486Y-130503562D01*
X188036248Y-130551181D01*
X187845771Y-130551181D01*
X188607676Y-129551181D02*
X189274343Y-129551181D01*
X188845771Y-130551181D01*
X163866534Y-107310181D02*
X163533200Y-106833990D01*
X163295105Y-107310181D02*
X163295105Y-106310181D01*
X163676058Y-106310181D01*
X163771296Y-106357800D01*
X163818915Y-106405419D01*
X163866534Y-106500657D01*
X163866534Y-106643514D01*
X163818915Y-106738752D01*
X163771296Y-106786371D01*
X163676058Y-106833990D01*
X163295105Y-106833990D01*
X164818915Y-107310181D02*
X164247486Y-107310181D01*
X164533200Y-107310181D02*
X164533200Y-106310181D01*
X164437962Y-106453038D01*
X164342724Y-106548276D01*
X164247486Y-106595895D01*
X162199581Y-84799466D02*
X161723390Y-85132800D01*
X162199581Y-85370895D02*
X161199581Y-85370895D01*
X161199581Y-84989942D01*
X161247200Y-84894704D01*
X161294819Y-84847085D01*
X161390057Y-84799466D01*
X161532914Y-84799466D01*
X161628152Y-84847085D01*
X161675771Y-84894704D01*
X161723390Y-84989942D01*
X161723390Y-85370895D01*
X161294819Y-84418514D02*
X161247200Y-84370895D01*
X161199581Y-84275657D01*
X161199581Y-84037561D01*
X161247200Y-83942323D01*
X161294819Y-83894704D01*
X161390057Y-83847085D01*
X161485295Y-83847085D01*
X161628152Y-83894704D01*
X162199581Y-84466133D01*
X162199581Y-83847085D01*
X193187581Y-94197466D02*
X192711390Y-94530800D01*
X193187581Y-94768895D02*
X192187581Y-94768895D01*
X192187581Y-94387942D01*
X192235200Y-94292704D01*
X192282819Y-94245085D01*
X192378057Y-94197466D01*
X192520914Y-94197466D01*
X192616152Y-94245085D01*
X192663771Y-94292704D01*
X192711390Y-94387942D01*
X192711390Y-94768895D01*
X192187581Y-93864133D02*
X192187581Y-93245085D01*
X192568533Y-93578419D01*
X192568533Y-93435561D01*
X192616152Y-93340323D01*
X192663771Y-93292704D01*
X192759010Y-93245085D01*
X192997105Y-93245085D01*
X193092343Y-93292704D01*
X193139962Y-93340323D01*
X193187581Y-93435561D01*
X193187581Y-93721276D01*
X193139962Y-93816514D01*
X193092343Y-93864133D01*
X162199581Y-93689466D02*
X161723390Y-94022800D01*
X162199581Y-94260895D02*
X161199581Y-94260895D01*
X161199581Y-93879942D01*
X161247200Y-93784704D01*
X161294819Y-93737085D01*
X161390057Y-93689466D01*
X161532914Y-93689466D01*
X161628152Y-93737085D01*
X161675771Y-93784704D01*
X161723390Y-93879942D01*
X161723390Y-94260895D01*
X161532914Y-92832323D02*
X162199581Y-92832323D01*
X161151962Y-93070419D02*
X161866248Y-93308514D01*
X161866248Y-92689466D01*
X147102534Y-114295181D02*
X146769200Y-113818990D01*
X146531105Y-114295181D02*
X146531105Y-113295181D01*
X146912058Y-113295181D01*
X147007296Y-113342800D01*
X147054915Y-113390419D01*
X147102534Y-113485657D01*
X147102534Y-113628514D01*
X147054915Y-113723752D01*
X147007296Y-113771371D01*
X146912058Y-113818990D01*
X146531105Y-113818990D01*
X148007296Y-113295181D02*
X147531105Y-113295181D01*
X147483486Y-113771371D01*
X147531105Y-113723752D01*
X147626343Y-113676133D01*
X147864439Y-113676133D01*
X147959677Y-113723752D01*
X148007296Y-113771371D01*
X148054915Y-113866610D01*
X148054915Y-114104705D01*
X148007296Y-114199943D01*
X147959677Y-114247562D01*
X147864439Y-114295181D01*
X147626343Y-114295181D01*
X147531105Y-114247562D01*
X147483486Y-114199943D01*
X165898534Y-91689181D02*
X165565200Y-91212990D01*
X165327105Y-91689181D02*
X165327105Y-90689181D01*
X165708058Y-90689181D01*
X165803296Y-90736800D01*
X165850915Y-90784419D01*
X165898534Y-90879657D01*
X165898534Y-91022514D01*
X165850915Y-91117752D01*
X165803296Y-91165371D01*
X165708058Y-91212990D01*
X165327105Y-91212990D01*
X166755677Y-90689181D02*
X166565200Y-90689181D01*
X166469962Y-90736800D01*
X166422343Y-90784419D01*
X166327105Y-90927276D01*
X166279486Y-91117752D01*
X166279486Y-91498705D01*
X166327105Y-91593943D01*
X166374724Y-91641562D01*
X166469962Y-91689181D01*
X166660439Y-91689181D01*
X166755677Y-91641562D01*
X166803296Y-91593943D01*
X166850915Y-91498705D01*
X166850915Y-91260610D01*
X166803296Y-91165371D01*
X166755677Y-91117752D01*
X166660439Y-91070133D01*
X166469962Y-91070133D01*
X166374724Y-91117752D01*
X166327105Y-91165371D01*
X166279486Y-91260610D01*
X167930534Y-91689181D02*
X167597200Y-91212990D01*
X167359105Y-91689181D02*
X167359105Y-90689181D01*
X167740058Y-90689181D01*
X167835296Y-90736800D01*
X167882915Y-90784419D01*
X167930534Y-90879657D01*
X167930534Y-91022514D01*
X167882915Y-91117752D01*
X167835296Y-91165371D01*
X167740058Y-91212990D01*
X167359105Y-91212990D01*
X168263867Y-90689181D02*
X168930534Y-90689181D01*
X168501962Y-91689181D01*
X191044534Y-92257181D02*
X190711200Y-91780990D01*
X190473105Y-92257181D02*
X190473105Y-91257181D01*
X190854058Y-91257181D01*
X190949296Y-91304800D01*
X190996915Y-91352419D01*
X191044534Y-91447657D01*
X191044534Y-91590514D01*
X190996915Y-91685752D01*
X190949296Y-91733371D01*
X190854058Y-91780990D01*
X190473105Y-91780990D01*
X191615962Y-91685752D02*
X191520724Y-91638133D01*
X191473105Y-91590514D01*
X191425486Y-91495276D01*
X191425486Y-91447657D01*
X191473105Y-91352419D01*
X191520724Y-91304800D01*
X191615962Y-91257181D01*
X191806439Y-91257181D01*
X191901677Y-91304800D01*
X191949296Y-91352419D01*
X191996915Y-91447657D01*
X191996915Y-91495276D01*
X191949296Y-91590514D01*
X191901677Y-91638133D01*
X191806439Y-91685752D01*
X191615962Y-91685752D01*
X191520724Y-91733371D01*
X191473105Y-91780990D01*
X191425486Y-91876229D01*
X191425486Y-92066705D01*
X191473105Y-92161943D01*
X191520724Y-92209562D01*
X191615962Y-92257181D01*
X191806439Y-92257181D01*
X191901677Y-92209562D01*
X191949296Y-92161943D01*
X191996915Y-92066705D01*
X191996915Y-91876229D01*
X191949296Y-91780990D01*
X191901677Y-91733371D01*
X191806439Y-91685752D01*
X193584534Y-84069181D02*
X193251200Y-83592990D01*
X193013105Y-84069181D02*
X193013105Y-83069181D01*
X193394058Y-83069181D01*
X193489296Y-83116800D01*
X193536915Y-83164419D01*
X193584534Y-83259657D01*
X193584534Y-83402514D01*
X193536915Y-83497752D01*
X193489296Y-83545371D01*
X193394058Y-83592990D01*
X193013105Y-83592990D01*
X194060724Y-84069181D02*
X194251200Y-84069181D01*
X194346439Y-84021562D01*
X194394058Y-83973943D01*
X194489296Y-83831086D01*
X194536915Y-83640610D01*
X194536915Y-83259657D01*
X194489296Y-83164419D01*
X194441677Y-83116800D01*
X194346439Y-83069181D01*
X194155962Y-83069181D01*
X194060724Y-83116800D01*
X194013105Y-83164419D01*
X193965486Y-83259657D01*
X193965486Y-83497752D01*
X194013105Y-83592990D01*
X194060724Y-83640610D01*
X194155962Y-83688229D01*
X194346439Y-83688229D01*
X194441677Y-83640610D01*
X194489296Y-83592990D01*
X194536915Y-83497752D01*
X203347581Y-93657657D02*
X202871390Y-93990991D01*
X203347581Y-94229086D02*
X202347581Y-94229086D01*
X202347581Y-93848133D01*
X202395200Y-93752895D01*
X202442819Y-93705276D01*
X202538057Y-93657657D01*
X202680914Y-93657657D01*
X202776152Y-93705276D01*
X202823771Y-93752895D01*
X202871390Y-93848133D01*
X202871390Y-94229086D01*
X203347581Y-92705276D02*
X203347581Y-93276705D01*
X203347581Y-92990991D02*
X202347581Y-92990991D01*
X202490438Y-93086229D01*
X202585676Y-93181467D01*
X202633295Y-93276705D01*
X202347581Y-92086229D02*
X202347581Y-91990990D01*
X202395200Y-91895752D01*
X202442819Y-91848133D01*
X202538057Y-91800514D01*
X202728533Y-91752895D01*
X202966629Y-91752895D01*
X203157105Y-91800514D01*
X203252343Y-91848133D01*
X203299962Y-91895752D01*
X203347581Y-91990990D01*
X203347581Y-92086229D01*
X203299962Y-92181467D01*
X203252343Y-92229086D01*
X203157105Y-92276705D01*
X202966629Y-92324324D01*
X202728533Y-92324324D01*
X202538057Y-92276705D01*
X202442819Y-92229086D01*
X202395200Y-92181467D01*
X202347581Y-92086229D01*
X172788343Y-99817181D02*
X172455009Y-99340990D01*
X172216914Y-99817181D02*
X172216914Y-98817181D01*
X172597867Y-98817181D01*
X172693105Y-98864800D01*
X172740724Y-98912419D01*
X172788343Y-99007657D01*
X172788343Y-99150514D01*
X172740724Y-99245752D01*
X172693105Y-99293371D01*
X172597867Y-99340990D01*
X172216914Y-99340990D01*
X173740724Y-99817181D02*
X173169295Y-99817181D01*
X173455009Y-99817181D02*
X173455009Y-98817181D01*
X173359771Y-98960038D01*
X173264533Y-99055276D01*
X173169295Y-99102895D01*
X174693105Y-99817181D02*
X174121676Y-99817181D01*
X174407390Y-99817181D02*
X174407390Y-98817181D01*
X174312152Y-98960038D01*
X174216914Y-99055276D01*
X174121676Y-99102895D01*
X200728343Y-96007181D02*
X200395009Y-95530990D01*
X200156914Y-96007181D02*
X200156914Y-95007181D01*
X200537867Y-95007181D01*
X200633105Y-95054800D01*
X200680724Y-95102419D01*
X200728343Y-95197657D01*
X200728343Y-95340514D01*
X200680724Y-95435752D01*
X200633105Y-95483371D01*
X200537867Y-95530990D01*
X200156914Y-95530990D01*
X201680724Y-96007181D02*
X201109295Y-96007181D01*
X201395009Y-96007181D02*
X201395009Y-95007181D01*
X201299771Y-95150038D01*
X201204533Y-95245276D01*
X201109295Y-95292895D01*
X202061676Y-95102419D02*
X202109295Y-95054800D01*
X202204533Y-95007181D01*
X202442629Y-95007181D01*
X202537867Y-95054800D01*
X202585486Y-95102419D01*
X202633105Y-95197657D01*
X202633105Y-95292895D01*
X202585486Y-95435752D01*
X202014057Y-96007181D01*
X202633105Y-96007181D01*
X168978343Y-99435181D02*
X168645009Y-98958990D01*
X168406914Y-99435181D02*
X168406914Y-98435181D01*
X168787867Y-98435181D01*
X168883105Y-98482800D01*
X168930724Y-98530419D01*
X168978343Y-98625657D01*
X168978343Y-98768514D01*
X168930724Y-98863752D01*
X168883105Y-98911371D01*
X168787867Y-98958990D01*
X168406914Y-98958990D01*
X169930724Y-99435181D02*
X169359295Y-99435181D01*
X169645009Y-99435181D02*
X169645009Y-98435181D01*
X169549771Y-98578038D01*
X169454533Y-98673276D01*
X169359295Y-98720895D01*
X170264057Y-98435181D02*
X170883105Y-98435181D01*
X170549771Y-98816133D01*
X170692629Y-98816133D01*
X170787867Y-98863752D01*
X170835486Y-98911371D01*
X170883105Y-99006610D01*
X170883105Y-99244705D01*
X170835486Y-99339943D01*
X170787867Y-99387562D01*
X170692629Y-99435181D01*
X170406914Y-99435181D01*
X170311676Y-99387562D01*
X170264057Y-99339943D01*
X154754343Y-138679181D02*
X154421009Y-138202990D01*
X154182914Y-138679181D02*
X154182914Y-137679181D01*
X154563867Y-137679181D01*
X154659105Y-137726800D01*
X154706724Y-137774419D01*
X154754343Y-137869657D01*
X154754343Y-138012514D01*
X154706724Y-138107752D01*
X154659105Y-138155371D01*
X154563867Y-138202990D01*
X154182914Y-138202990D01*
X155706724Y-138679181D02*
X155135295Y-138679181D01*
X155421009Y-138679181D02*
X155421009Y-137679181D01*
X155325771Y-137822038D01*
X155230533Y-137917276D01*
X155135295Y-137964895D01*
X156563867Y-138012514D02*
X156563867Y-138679181D01*
X156325771Y-137631562D02*
X156087676Y-138345848D01*
X156706724Y-138345848D01*
X202506343Y-138679181D02*
X202173009Y-138202990D01*
X201934914Y-138679181D02*
X201934914Y-137679181D01*
X202315867Y-137679181D01*
X202411105Y-137726800D01*
X202458724Y-137774419D01*
X202506343Y-137869657D01*
X202506343Y-138012514D01*
X202458724Y-138107752D01*
X202411105Y-138155371D01*
X202315867Y-138202990D01*
X201934914Y-138202990D01*
X203458724Y-138679181D02*
X202887295Y-138679181D01*
X203173009Y-138679181D02*
X203173009Y-137679181D01*
X203077771Y-137822038D01*
X202982533Y-137917276D01*
X202887295Y-137964895D01*
X204363486Y-137679181D02*
X203887295Y-137679181D01*
X203839676Y-138155371D01*
X203887295Y-138107752D01*
X203982533Y-138060133D01*
X204220629Y-138060133D01*
X204315867Y-138107752D01*
X204363486Y-138155371D01*
X204411105Y-138250610D01*
X204411105Y-138488705D01*
X204363486Y-138583943D01*
X204315867Y-138631562D01*
X204220629Y-138679181D01*
X203982533Y-138679181D01*
X203887295Y-138631562D01*
X203839676Y-138583943D01*
X153484343Y-130551181D02*
X153151009Y-130074990D01*
X152912914Y-130551181D02*
X152912914Y-129551181D01*
X153293867Y-129551181D01*
X153389105Y-129598800D01*
X153436724Y-129646419D01*
X153484343Y-129741657D01*
X153484343Y-129884514D01*
X153436724Y-129979752D01*
X153389105Y-130027371D01*
X153293867Y-130074990D01*
X152912914Y-130074990D01*
X154436724Y-130551181D02*
X153865295Y-130551181D01*
X154151009Y-130551181D02*
X154151009Y-129551181D01*
X154055771Y-129694038D01*
X153960533Y-129789276D01*
X153865295Y-129836895D01*
X155293867Y-129551181D02*
X155103390Y-129551181D01*
X155008152Y-129598800D01*
X154960533Y-129646419D01*
X154865295Y-129789276D01*
X154817676Y-129979752D01*
X154817676Y-130360705D01*
X154865295Y-130455943D01*
X154912914Y-130503562D01*
X155008152Y-130551181D01*
X155198629Y-130551181D01*
X155293867Y-130503562D01*
X155341486Y-130455943D01*
X155389105Y-130360705D01*
X155389105Y-130122610D01*
X155341486Y-130027371D01*
X155293867Y-129979752D01*
X155198629Y-129932133D01*
X155008152Y-129932133D01*
X154912914Y-129979752D01*
X154865295Y-130027371D01*
X154817676Y-130122610D01*
X202331581Y-129471657D02*
X201855390Y-129804991D01*
X202331581Y-130043086D02*
X201331581Y-130043086D01*
X201331581Y-129662133D01*
X201379200Y-129566895D01*
X201426819Y-129519276D01*
X201522057Y-129471657D01*
X201664914Y-129471657D01*
X201760152Y-129519276D01*
X201807771Y-129566895D01*
X201855390Y-129662133D01*
X201855390Y-130043086D01*
X202331581Y-128519276D02*
X202331581Y-129090705D01*
X202331581Y-128804991D02*
X201331581Y-128804991D01*
X201474438Y-128900229D01*
X201569676Y-128995467D01*
X201617295Y-129090705D01*
X201331581Y-128185943D02*
X201331581Y-127519276D01*
X202331581Y-127947848D01*
X149674343Y-138551181D02*
X149341009Y-138074990D01*
X149102914Y-138551181D02*
X149102914Y-137551181D01*
X149483867Y-137551181D01*
X149579105Y-137598800D01*
X149626724Y-137646419D01*
X149674343Y-137741657D01*
X149674343Y-137884514D01*
X149626724Y-137979752D01*
X149579105Y-138027371D01*
X149483867Y-138074990D01*
X149102914Y-138074990D01*
X150626724Y-138551181D02*
X150055295Y-138551181D01*
X150341009Y-138551181D02*
X150341009Y-137551181D01*
X150245771Y-137694038D01*
X150150533Y-137789276D01*
X150055295Y-137836895D01*
X151198152Y-137979752D02*
X151102914Y-137932133D01*
X151055295Y-137884514D01*
X151007676Y-137789276D01*
X151007676Y-137741657D01*
X151055295Y-137646419D01*
X151102914Y-137598800D01*
X151198152Y-137551181D01*
X151388629Y-137551181D01*
X151483867Y-137598800D01*
X151531486Y-137646419D01*
X151579105Y-137741657D01*
X151579105Y-137789276D01*
X151531486Y-137884514D01*
X151483867Y-137932133D01*
X151388629Y-137979752D01*
X151198152Y-137979752D01*
X151102914Y-138027371D01*
X151055295Y-138074990D01*
X151007676Y-138170229D01*
X151007676Y-138360705D01*
X151055295Y-138455943D01*
X151102914Y-138503562D01*
X151198152Y-138551181D01*
X151388629Y-138551181D01*
X151483867Y-138503562D01*
X151531486Y-138455943D01*
X151579105Y-138360705D01*
X151579105Y-138170229D01*
X151531486Y-138074990D01*
X151483867Y-138027371D01*
X151388629Y-137979752D01*
X197426343Y-138551181D02*
X197093009Y-138074990D01*
X196854914Y-138551181D02*
X196854914Y-137551181D01*
X197235867Y-137551181D01*
X197331105Y-137598800D01*
X197378724Y-137646419D01*
X197426343Y-137741657D01*
X197426343Y-137884514D01*
X197378724Y-137979752D01*
X197331105Y-138027371D01*
X197235867Y-138074990D01*
X196854914Y-138074990D01*
X198378724Y-138551181D02*
X197807295Y-138551181D01*
X198093009Y-138551181D02*
X198093009Y-137551181D01*
X197997771Y-137694038D01*
X197902533Y-137789276D01*
X197807295Y-137836895D01*
X198854914Y-138551181D02*
X199045390Y-138551181D01*
X199140629Y-138503562D01*
X199188248Y-138455943D01*
X199283486Y-138313086D01*
X199331105Y-138122610D01*
X199331105Y-137741657D01*
X199283486Y-137646419D01*
X199235867Y-137598800D01*
X199140629Y-137551181D01*
X198950152Y-137551181D01*
X198854914Y-137598800D01*
X198807295Y-137646419D01*
X198759676Y-137741657D01*
X198759676Y-137979752D01*
X198807295Y-138074990D01*
X198854914Y-138122610D01*
X198950152Y-138170229D01*
X199140629Y-138170229D01*
X199235867Y-138122610D01*
X199283486Y-138074990D01*
X199331105Y-137979752D01*
X173804343Y-138679181D02*
X173471009Y-138202990D01*
X173232914Y-138679181D02*
X173232914Y-137679181D01*
X173613867Y-137679181D01*
X173709105Y-137726800D01*
X173756724Y-137774419D01*
X173804343Y-137869657D01*
X173804343Y-138012514D01*
X173756724Y-138107752D01*
X173709105Y-138155371D01*
X173613867Y-138202990D01*
X173232914Y-138202990D01*
X174185295Y-137774419D02*
X174232914Y-137726800D01*
X174328152Y-137679181D01*
X174566248Y-137679181D01*
X174661486Y-137726800D01*
X174709105Y-137774419D01*
X174756724Y-137869657D01*
X174756724Y-137964895D01*
X174709105Y-138107752D01*
X174137676Y-138679181D01*
X174756724Y-138679181D01*
X175375771Y-137679181D02*
X175471010Y-137679181D01*
X175566248Y-137726800D01*
X175613867Y-137774419D01*
X175661486Y-137869657D01*
X175709105Y-138060133D01*
X175709105Y-138298229D01*
X175661486Y-138488705D01*
X175613867Y-138583943D01*
X175566248Y-138631562D01*
X175471010Y-138679181D01*
X175375771Y-138679181D01*
X175280533Y-138631562D01*
X175232914Y-138583943D01*
X175185295Y-138488705D01*
X175137676Y-138298229D01*
X175137676Y-138060133D01*
X175185295Y-137869657D01*
X175232914Y-137774419D01*
X175280533Y-137726800D01*
X175375771Y-137679181D01*
X183202343Y-138679181D02*
X182869009Y-138202990D01*
X182630914Y-138679181D02*
X182630914Y-137679181D01*
X183011867Y-137679181D01*
X183107105Y-137726800D01*
X183154724Y-137774419D01*
X183202343Y-137869657D01*
X183202343Y-138012514D01*
X183154724Y-138107752D01*
X183107105Y-138155371D01*
X183011867Y-138202990D01*
X182630914Y-138202990D01*
X183583295Y-137774419D02*
X183630914Y-137726800D01*
X183726152Y-137679181D01*
X183964248Y-137679181D01*
X184059486Y-137726800D01*
X184107105Y-137774419D01*
X184154724Y-137869657D01*
X184154724Y-137964895D01*
X184107105Y-138107752D01*
X183535676Y-138679181D01*
X184154724Y-138679181D01*
X185107105Y-138679181D02*
X184535676Y-138679181D01*
X184821390Y-138679181D02*
X184821390Y-137679181D01*
X184726152Y-137822038D01*
X184630914Y-137917276D01*
X184535676Y-137964895D01*
X173375581Y-130233657D02*
X172899390Y-130566991D01*
X173375581Y-130805086D02*
X172375581Y-130805086D01*
X172375581Y-130424133D01*
X172423200Y-130328895D01*
X172470819Y-130281276D01*
X172566057Y-130233657D01*
X172708914Y-130233657D01*
X172804152Y-130281276D01*
X172851771Y-130328895D01*
X172899390Y-130424133D01*
X172899390Y-130805086D01*
X172470819Y-129852705D02*
X172423200Y-129805086D01*
X172375581Y-129709848D01*
X172375581Y-129471752D01*
X172423200Y-129376514D01*
X172470819Y-129328895D01*
X172566057Y-129281276D01*
X172661295Y-129281276D01*
X172804152Y-129328895D01*
X173375581Y-129900324D01*
X173375581Y-129281276D01*
X172470819Y-128900324D02*
X172423200Y-128852705D01*
X172375581Y-128757467D01*
X172375581Y-128519371D01*
X172423200Y-128424133D01*
X172470819Y-128376514D01*
X172566057Y-128328895D01*
X172661295Y-128328895D01*
X172804152Y-128376514D01*
X173375581Y-128947943D01*
X173375581Y-128328895D01*
X183281581Y-130233657D02*
X182805390Y-130566991D01*
X183281581Y-130805086D02*
X182281581Y-130805086D01*
X182281581Y-130424133D01*
X182329200Y-130328895D01*
X182376819Y-130281276D01*
X182472057Y-130233657D01*
X182614914Y-130233657D01*
X182710152Y-130281276D01*
X182757771Y-130328895D01*
X182805390Y-130424133D01*
X182805390Y-130805086D01*
X182376819Y-129852705D02*
X182329200Y-129805086D01*
X182281581Y-129709848D01*
X182281581Y-129471752D01*
X182329200Y-129376514D01*
X182376819Y-129328895D01*
X182472057Y-129281276D01*
X182567295Y-129281276D01*
X182710152Y-129328895D01*
X183281581Y-129900324D01*
X183281581Y-129281276D01*
X182281581Y-128947943D02*
X182281581Y-128328895D01*
X182662533Y-128662229D01*
X182662533Y-128519371D01*
X182710152Y-128424133D01*
X182757771Y-128376514D01*
X182853010Y-128328895D01*
X183091105Y-128328895D01*
X183186343Y-128376514D01*
X183233962Y-128424133D01*
X183281581Y-128519371D01*
X183281581Y-128805086D01*
X183233962Y-128900324D01*
X183186343Y-128947943D01*
X168724343Y-138551181D02*
X168391009Y-138074990D01*
X168152914Y-138551181D02*
X168152914Y-137551181D01*
X168533867Y-137551181D01*
X168629105Y-137598800D01*
X168676724Y-137646419D01*
X168724343Y-137741657D01*
X168724343Y-137884514D01*
X168676724Y-137979752D01*
X168629105Y-138027371D01*
X168533867Y-138074990D01*
X168152914Y-138074990D01*
X169105295Y-137646419D02*
X169152914Y-137598800D01*
X169248152Y-137551181D01*
X169486248Y-137551181D01*
X169581486Y-137598800D01*
X169629105Y-137646419D01*
X169676724Y-137741657D01*
X169676724Y-137836895D01*
X169629105Y-137979752D01*
X169057676Y-138551181D01*
X169676724Y-138551181D01*
X170533867Y-137884514D02*
X170533867Y-138551181D01*
X170295771Y-137503562D02*
X170057676Y-138217848D01*
X170676724Y-138217848D01*
X178122343Y-138551181D02*
X177789009Y-138074990D01*
X177550914Y-138551181D02*
X177550914Y-137551181D01*
X177931867Y-137551181D01*
X178027105Y-137598800D01*
X178074724Y-137646419D01*
X178122343Y-137741657D01*
X178122343Y-137884514D01*
X178074724Y-137979752D01*
X178027105Y-138027371D01*
X177931867Y-138074990D01*
X177550914Y-138074990D01*
X178503295Y-137646419D02*
X178550914Y-137598800D01*
X178646152Y-137551181D01*
X178884248Y-137551181D01*
X178979486Y-137598800D01*
X179027105Y-137646419D01*
X179074724Y-137741657D01*
X179074724Y-137836895D01*
X179027105Y-137979752D01*
X178455676Y-138551181D01*
X179074724Y-138551181D01*
X179979486Y-137551181D02*
X179503295Y-137551181D01*
X179455676Y-138027371D01*
X179503295Y-137979752D01*
X179598533Y-137932133D01*
X179836629Y-137932133D01*
X179931867Y-137979752D01*
X179979486Y-138027371D01*
X180027105Y-138122610D01*
X180027105Y-138360705D01*
X179979486Y-138455943D01*
X179931867Y-138503562D01*
X179836629Y-138551181D01*
X179598533Y-138551181D01*
X179503295Y-138503562D01*
X179455676Y-138455943D01*
X164406343Y-138679181D02*
X164073009Y-138202990D01*
X163834914Y-138679181D02*
X163834914Y-137679181D01*
X164215867Y-137679181D01*
X164311105Y-137726800D01*
X164358724Y-137774419D01*
X164406343Y-137869657D01*
X164406343Y-138012514D01*
X164358724Y-138107752D01*
X164311105Y-138155371D01*
X164215867Y-138202990D01*
X163834914Y-138202990D01*
X164787295Y-137774419D02*
X164834914Y-137726800D01*
X164930152Y-137679181D01*
X165168248Y-137679181D01*
X165263486Y-137726800D01*
X165311105Y-137774419D01*
X165358724Y-137869657D01*
X165358724Y-137964895D01*
X165311105Y-138107752D01*
X164739676Y-138679181D01*
X165358724Y-138679181D01*
X166215867Y-137679181D02*
X166025390Y-137679181D01*
X165930152Y-137726800D01*
X165882533Y-137774419D01*
X165787295Y-137917276D01*
X165739676Y-138107752D01*
X165739676Y-138488705D01*
X165787295Y-138583943D01*
X165834914Y-138631562D01*
X165930152Y-138679181D01*
X166120629Y-138679181D01*
X166215867Y-138631562D01*
X166263486Y-138583943D01*
X166311105Y-138488705D01*
X166311105Y-138250610D01*
X166263486Y-138155371D01*
X166215867Y-138107752D01*
X166120629Y-138060133D01*
X165930152Y-138060133D01*
X165834914Y-138107752D01*
X165787295Y-138155371D01*
X165739676Y-138250610D01*
X192854343Y-138679181D02*
X192521009Y-138202990D01*
X192282914Y-138679181D02*
X192282914Y-137679181D01*
X192663867Y-137679181D01*
X192759105Y-137726800D01*
X192806724Y-137774419D01*
X192854343Y-137869657D01*
X192854343Y-138012514D01*
X192806724Y-138107752D01*
X192759105Y-138155371D01*
X192663867Y-138202990D01*
X192282914Y-138202990D01*
X193235295Y-137774419D02*
X193282914Y-137726800D01*
X193378152Y-137679181D01*
X193616248Y-137679181D01*
X193711486Y-137726800D01*
X193759105Y-137774419D01*
X193806724Y-137869657D01*
X193806724Y-137964895D01*
X193759105Y-138107752D01*
X193187676Y-138679181D01*
X193806724Y-138679181D01*
X194140057Y-137679181D02*
X194806724Y-137679181D01*
X194378152Y-138679181D01*
X164485581Y-130233657D02*
X164009390Y-130566991D01*
X164485581Y-130805086D02*
X163485581Y-130805086D01*
X163485581Y-130424133D01*
X163533200Y-130328895D01*
X163580819Y-130281276D01*
X163676057Y-130233657D01*
X163818914Y-130233657D01*
X163914152Y-130281276D01*
X163961771Y-130328895D01*
X164009390Y-130424133D01*
X164009390Y-130805086D01*
X163580819Y-129852705D02*
X163533200Y-129805086D01*
X163485581Y-129709848D01*
X163485581Y-129471752D01*
X163533200Y-129376514D01*
X163580819Y-129328895D01*
X163676057Y-129281276D01*
X163771295Y-129281276D01*
X163914152Y-129328895D01*
X164485581Y-129900324D01*
X164485581Y-129281276D01*
X163914152Y-128709848D02*
X163866533Y-128805086D01*
X163818914Y-128852705D01*
X163723676Y-128900324D01*
X163676057Y-128900324D01*
X163580819Y-128852705D01*
X163533200Y-128805086D01*
X163485581Y-128709848D01*
X163485581Y-128519371D01*
X163533200Y-128424133D01*
X163580819Y-128376514D01*
X163676057Y-128328895D01*
X163723676Y-128328895D01*
X163818914Y-128376514D01*
X163866533Y-128424133D01*
X163914152Y-128519371D01*
X163914152Y-128709848D01*
X163961771Y-128805086D01*
X164009390Y-128852705D01*
X164104629Y-128900324D01*
X164295105Y-128900324D01*
X164390343Y-128852705D01*
X164437962Y-128805086D01*
X164485581Y-128709848D01*
X164485581Y-128519371D01*
X164437962Y-128424133D01*
X164390343Y-128376514D01*
X164295105Y-128328895D01*
X164104629Y-128328895D01*
X164009390Y-128376514D01*
X163961771Y-128424133D01*
X163914152Y-128519371D01*
X192933581Y-130233657D02*
X192457390Y-130566991D01*
X192933581Y-130805086D02*
X191933581Y-130805086D01*
X191933581Y-130424133D01*
X191981200Y-130328895D01*
X192028819Y-130281276D01*
X192124057Y-130233657D01*
X192266914Y-130233657D01*
X192362152Y-130281276D01*
X192409771Y-130328895D01*
X192457390Y-130424133D01*
X192457390Y-130805086D01*
X192028819Y-129852705D02*
X191981200Y-129805086D01*
X191933581Y-129709848D01*
X191933581Y-129471752D01*
X191981200Y-129376514D01*
X192028819Y-129328895D01*
X192124057Y-129281276D01*
X192219295Y-129281276D01*
X192362152Y-129328895D01*
X192933581Y-129900324D01*
X192933581Y-129281276D01*
X192933581Y-128805086D02*
X192933581Y-128614610D01*
X192885962Y-128519371D01*
X192838343Y-128471752D01*
X192695486Y-128376514D01*
X192505010Y-128328895D01*
X192124057Y-128328895D01*
X192028819Y-128376514D01*
X191981200Y-128424133D01*
X191933581Y-128519371D01*
X191933581Y-128709848D01*
X191981200Y-128805086D01*
X192028819Y-128852705D01*
X192124057Y-128900324D01*
X192362152Y-128900324D01*
X192457390Y-128852705D01*
X192505010Y-128805086D01*
X192552629Y-128709848D01*
X192552629Y-128519371D01*
X192505010Y-128424133D01*
X192457390Y-128376514D01*
X192362152Y-128328895D01*
X159326343Y-138551181D02*
X158993009Y-138074990D01*
X158754914Y-138551181D02*
X158754914Y-137551181D01*
X159135867Y-137551181D01*
X159231105Y-137598800D01*
X159278724Y-137646419D01*
X159326343Y-137741657D01*
X159326343Y-137884514D01*
X159278724Y-137979752D01*
X159231105Y-138027371D01*
X159135867Y-138074990D01*
X158754914Y-138074990D01*
X159659676Y-137551181D02*
X160278724Y-137551181D01*
X159945390Y-137932133D01*
X160088248Y-137932133D01*
X160183486Y-137979752D01*
X160231105Y-138027371D01*
X160278724Y-138122610D01*
X160278724Y-138360705D01*
X160231105Y-138455943D01*
X160183486Y-138503562D01*
X160088248Y-138551181D01*
X159802533Y-138551181D01*
X159707295Y-138503562D01*
X159659676Y-138455943D01*
X160897771Y-137551181D02*
X160993010Y-137551181D01*
X161088248Y-137598800D01*
X161135867Y-137646419D01*
X161183486Y-137741657D01*
X161231105Y-137932133D01*
X161231105Y-138170229D01*
X161183486Y-138360705D01*
X161135867Y-138455943D01*
X161088248Y-138503562D01*
X160993010Y-138551181D01*
X160897771Y-138551181D01*
X160802533Y-138503562D01*
X160754914Y-138455943D01*
X160707295Y-138360705D01*
X160659676Y-138170229D01*
X160659676Y-137932133D01*
X160707295Y-137741657D01*
X160754914Y-137646419D01*
X160802533Y-137598800D01*
X160897771Y-137551181D01*
X187774343Y-138551181D02*
X187441009Y-138074990D01*
X187202914Y-138551181D02*
X187202914Y-137551181D01*
X187583867Y-137551181D01*
X187679105Y-137598800D01*
X187726724Y-137646419D01*
X187774343Y-137741657D01*
X187774343Y-137884514D01*
X187726724Y-137979752D01*
X187679105Y-138027371D01*
X187583867Y-138074990D01*
X187202914Y-138074990D01*
X188107676Y-137551181D02*
X188726724Y-137551181D01*
X188393390Y-137932133D01*
X188536248Y-137932133D01*
X188631486Y-137979752D01*
X188679105Y-138027371D01*
X188726724Y-138122610D01*
X188726724Y-138360705D01*
X188679105Y-138455943D01*
X188631486Y-138503562D01*
X188536248Y-138551181D01*
X188250533Y-138551181D01*
X188155295Y-138503562D01*
X188107676Y-138455943D01*
X189679105Y-138551181D02*
X189107676Y-138551181D01*
X189393390Y-138551181D02*
X189393390Y-137551181D01*
X189298152Y-137694038D01*
X189202914Y-137789276D01*
X189107676Y-137836895D01*
X167406581Y-117279657D02*
X166930390Y-117612991D01*
X167406581Y-117851086D02*
X166406581Y-117851086D01*
X166406581Y-117470133D01*
X166454200Y-117374895D01*
X166501819Y-117327276D01*
X166597057Y-117279657D01*
X166739914Y-117279657D01*
X166835152Y-117327276D01*
X166882771Y-117374895D01*
X166930390Y-117470133D01*
X166930390Y-117851086D01*
X166406581Y-116946324D02*
X166406581Y-116327276D01*
X166787533Y-116660610D01*
X166787533Y-116517752D01*
X166835152Y-116422514D01*
X166882771Y-116374895D01*
X166978010Y-116327276D01*
X167216105Y-116327276D01*
X167311343Y-116374895D01*
X167358962Y-116422514D01*
X167406581Y-116517752D01*
X167406581Y-116803467D01*
X167358962Y-116898705D01*
X167311343Y-116946324D01*
X166501819Y-115946324D02*
X166454200Y-115898705D01*
X166406581Y-115803467D01*
X166406581Y-115565371D01*
X166454200Y-115470133D01*
X166501819Y-115422514D01*
X166597057Y-115374895D01*
X166692295Y-115374895D01*
X166835152Y-115422514D01*
X167406581Y-115993943D01*
X167406581Y-115374895D01*
X171597581Y-117406657D02*
X171121390Y-117739991D01*
X171597581Y-117978086D02*
X170597581Y-117978086D01*
X170597581Y-117597133D01*
X170645200Y-117501895D01*
X170692819Y-117454276D01*
X170788057Y-117406657D01*
X170930914Y-117406657D01*
X171026152Y-117454276D01*
X171073771Y-117501895D01*
X171121390Y-117597133D01*
X171121390Y-117978086D01*
X170597581Y-117073324D02*
X170597581Y-116454276D01*
X170978533Y-116787610D01*
X170978533Y-116644752D01*
X171026152Y-116549514D01*
X171073771Y-116501895D01*
X171169010Y-116454276D01*
X171407105Y-116454276D01*
X171502343Y-116501895D01*
X171549962Y-116549514D01*
X171597581Y-116644752D01*
X171597581Y-116930467D01*
X171549962Y-117025705D01*
X171502343Y-117073324D01*
X170597581Y-116120943D02*
X170597581Y-115501895D01*
X170978533Y-115835229D01*
X170978533Y-115692371D01*
X171026152Y-115597133D01*
X171073771Y-115549514D01*
X171169010Y-115501895D01*
X171407105Y-115501895D01*
X171502343Y-115549514D01*
X171549962Y-115597133D01*
X171597581Y-115692371D01*
X171597581Y-115978086D01*
X171549962Y-116073324D01*
X171502343Y-116120943D01*
X185567581Y-108135657D02*
X185091390Y-108468991D01*
X185567581Y-108707086D02*
X184567581Y-108707086D01*
X184567581Y-108326133D01*
X184615200Y-108230895D01*
X184662819Y-108183276D01*
X184758057Y-108135657D01*
X184900914Y-108135657D01*
X184996152Y-108183276D01*
X185043771Y-108230895D01*
X185091390Y-108326133D01*
X185091390Y-108707086D01*
X184567581Y-107802324D02*
X184567581Y-107183276D01*
X184948533Y-107516610D01*
X184948533Y-107373752D01*
X184996152Y-107278514D01*
X185043771Y-107230895D01*
X185139010Y-107183276D01*
X185377105Y-107183276D01*
X185472343Y-107230895D01*
X185519962Y-107278514D01*
X185567581Y-107373752D01*
X185567581Y-107659467D01*
X185519962Y-107754705D01*
X185472343Y-107802324D01*
X184900914Y-106326133D02*
X185567581Y-106326133D01*
X184519962Y-106564229D02*
X185234248Y-106802324D01*
X185234248Y-106183276D01*
X181503581Y-108135657D02*
X181027390Y-108468991D01*
X181503581Y-108707086D02*
X180503581Y-108707086D01*
X180503581Y-108326133D01*
X180551200Y-108230895D01*
X180598819Y-108183276D01*
X180694057Y-108135657D01*
X180836914Y-108135657D01*
X180932152Y-108183276D01*
X180979771Y-108230895D01*
X181027390Y-108326133D01*
X181027390Y-108707086D01*
X180503581Y-107802324D02*
X180503581Y-107183276D01*
X180884533Y-107516610D01*
X180884533Y-107373752D01*
X180932152Y-107278514D01*
X180979771Y-107230895D01*
X181075010Y-107183276D01*
X181313105Y-107183276D01*
X181408343Y-107230895D01*
X181455962Y-107278514D01*
X181503581Y-107373752D01*
X181503581Y-107659467D01*
X181455962Y-107754705D01*
X181408343Y-107802324D01*
X180503581Y-106278514D02*
X180503581Y-106754705D01*
X180979771Y-106802324D01*
X180932152Y-106754705D01*
X180884533Y-106659467D01*
X180884533Y-106421371D01*
X180932152Y-106326133D01*
X180979771Y-106278514D01*
X181075010Y-106230895D01*
X181313105Y-106230895D01*
X181408343Y-106278514D01*
X181455962Y-106326133D01*
X181503581Y-106421371D01*
X181503581Y-106659467D01*
X181455962Y-106754705D01*
X181408343Y-106802324D01*
X186250343Y-124455181D02*
X185917009Y-123978990D01*
X185678914Y-124455181D02*
X185678914Y-123455181D01*
X186059867Y-123455181D01*
X186155105Y-123502800D01*
X186202724Y-123550419D01*
X186250343Y-123645657D01*
X186250343Y-123788514D01*
X186202724Y-123883752D01*
X186155105Y-123931371D01*
X186059867Y-123978990D01*
X185678914Y-123978990D01*
X186583676Y-123455181D02*
X187202724Y-123455181D01*
X186869390Y-123836133D01*
X187012248Y-123836133D01*
X187107486Y-123883752D01*
X187155105Y-123931371D01*
X187202724Y-124026610D01*
X187202724Y-124264705D01*
X187155105Y-124359943D01*
X187107486Y-124407562D01*
X187012248Y-124455181D01*
X186726533Y-124455181D01*
X186631295Y-124407562D01*
X186583676Y-124359943D01*
X188059867Y-123455181D02*
X187869390Y-123455181D01*
X187774152Y-123502800D01*
X187726533Y-123550419D01*
X187631295Y-123693276D01*
X187583676Y-123883752D01*
X187583676Y-124264705D01*
X187631295Y-124359943D01*
X187678914Y-124407562D01*
X187774152Y-124455181D01*
X187964629Y-124455181D01*
X188059867Y-124407562D01*
X188107486Y-124359943D01*
X188155105Y-124264705D01*
X188155105Y-124026610D01*
X188107486Y-123931371D01*
X188059867Y-123883752D01*
X187964629Y-123836133D01*
X187774152Y-123836133D01*
X187678914Y-123883752D01*
X187631295Y-123931371D01*
X187583676Y-124026610D01*
X196997581Y-110167657D02*
X196521390Y-110500991D01*
X196997581Y-110739086D02*
X195997581Y-110739086D01*
X195997581Y-110358133D01*
X196045200Y-110262895D01*
X196092819Y-110215276D01*
X196188057Y-110167657D01*
X196330914Y-110167657D01*
X196426152Y-110215276D01*
X196473771Y-110262895D01*
X196521390Y-110358133D01*
X196521390Y-110739086D01*
X195997581Y-109834324D02*
X195997581Y-109215276D01*
X196378533Y-109548610D01*
X196378533Y-109405752D01*
X196426152Y-109310514D01*
X196473771Y-109262895D01*
X196569010Y-109215276D01*
X196807105Y-109215276D01*
X196902343Y-109262895D01*
X196949962Y-109310514D01*
X196997581Y-109405752D01*
X196997581Y-109691467D01*
X196949962Y-109786705D01*
X196902343Y-109834324D01*
X195997581Y-108881943D02*
X195997581Y-108215276D01*
X196997581Y-108643848D01*
X146560343Y-112263181D02*
X146227009Y-111786990D01*
X145988914Y-112263181D02*
X145988914Y-111263181D01*
X146369867Y-111263181D01*
X146465105Y-111310800D01*
X146512724Y-111358419D01*
X146560343Y-111453657D01*
X146560343Y-111596514D01*
X146512724Y-111691752D01*
X146465105Y-111739371D01*
X146369867Y-111786990D01*
X145988914Y-111786990D01*
X146893676Y-111263181D02*
X147512724Y-111263181D01*
X147179390Y-111644133D01*
X147322248Y-111644133D01*
X147417486Y-111691752D01*
X147465105Y-111739371D01*
X147512724Y-111834610D01*
X147512724Y-112072705D01*
X147465105Y-112167943D01*
X147417486Y-112215562D01*
X147322248Y-112263181D01*
X147036533Y-112263181D01*
X146941295Y-112215562D01*
X146893676Y-112167943D01*
X148084152Y-111691752D02*
X147988914Y-111644133D01*
X147941295Y-111596514D01*
X147893676Y-111501276D01*
X147893676Y-111453657D01*
X147941295Y-111358419D01*
X147988914Y-111310800D01*
X148084152Y-111263181D01*
X148274629Y-111263181D01*
X148369867Y-111310800D01*
X148417486Y-111358419D01*
X148465105Y-111453657D01*
X148465105Y-111501276D01*
X148417486Y-111596514D01*
X148369867Y-111644133D01*
X148274629Y-111691752D01*
X148084152Y-111691752D01*
X147988914Y-111739371D01*
X147941295Y-111786990D01*
X147893676Y-111882229D01*
X147893676Y-112072705D01*
X147941295Y-112167943D01*
X147988914Y-112215562D01*
X148084152Y-112263181D01*
X148274629Y-112263181D01*
X148369867Y-112215562D01*
X148417486Y-112167943D01*
X148465105Y-112072705D01*
X148465105Y-111882229D01*
X148417486Y-111786990D01*
X148369867Y-111739371D01*
X148274629Y-111691752D01*
X146560343Y-110231181D02*
X146227009Y-109754990D01*
X145988914Y-110231181D02*
X145988914Y-109231181D01*
X146369867Y-109231181D01*
X146465105Y-109278800D01*
X146512724Y-109326419D01*
X146560343Y-109421657D01*
X146560343Y-109564514D01*
X146512724Y-109659752D01*
X146465105Y-109707371D01*
X146369867Y-109754990D01*
X145988914Y-109754990D01*
X146893676Y-109231181D02*
X147512724Y-109231181D01*
X147179390Y-109612133D01*
X147322248Y-109612133D01*
X147417486Y-109659752D01*
X147465105Y-109707371D01*
X147512724Y-109802610D01*
X147512724Y-110040705D01*
X147465105Y-110135943D01*
X147417486Y-110183562D01*
X147322248Y-110231181D01*
X147036533Y-110231181D01*
X146941295Y-110183562D01*
X146893676Y-110135943D01*
X147988914Y-110231181D02*
X148179390Y-110231181D01*
X148274629Y-110183562D01*
X148322248Y-110135943D01*
X148417486Y-109993086D01*
X148465105Y-109802610D01*
X148465105Y-109421657D01*
X148417486Y-109326419D01*
X148369867Y-109278800D01*
X148274629Y-109231181D01*
X148084152Y-109231181D01*
X147988914Y-109278800D01*
X147941295Y-109326419D01*
X147893676Y-109421657D01*
X147893676Y-109659752D01*
X147941295Y-109754990D01*
X147988914Y-109802610D01*
X148084152Y-109850229D01*
X148274629Y-109850229D01*
X148369867Y-109802610D01*
X148417486Y-109754990D01*
X148465105Y-109659752D01*
X197053295Y-88911181D02*
X197053295Y-89720705D01*
X197100914Y-89815943D01*
X197148533Y-89863562D01*
X197243771Y-89911181D01*
X197434248Y-89911181D01*
X197529486Y-89863562D01*
X197577105Y-89815943D01*
X197624724Y-89720705D01*
X197624724Y-88911181D01*
X198624724Y-89911181D02*
X198053295Y-89911181D01*
X198339009Y-89911181D02*
X198339009Y-88911181D01*
X198243771Y-89054038D01*
X198148533Y-89149276D01*
X198053295Y-89196895D01*
X167041581Y-88950705D02*
X167851105Y-88950705D01*
X167946343Y-88903086D01*
X167993962Y-88855467D01*
X168041581Y-88760229D01*
X168041581Y-88569752D01*
X167993962Y-88474514D01*
X167946343Y-88426895D01*
X167851105Y-88379276D01*
X167041581Y-88379276D01*
X167136819Y-87950705D02*
X167089200Y-87903086D01*
X167041581Y-87807848D01*
X167041581Y-87569752D01*
X167089200Y-87474514D01*
X167136819Y-87426895D01*
X167232057Y-87379276D01*
X167327295Y-87379276D01*
X167470152Y-87426895D01*
X168041581Y-87998324D01*
X168041581Y-87379276D01*
X184963677Y-118250827D02*
X184391257Y-118823247D01*
X184357585Y-118924262D01*
X184357585Y-118991605D01*
X184391257Y-119092620D01*
X184525945Y-119227308D01*
X184626960Y-119260980D01*
X184694303Y-119260980D01*
X184795318Y-119227308D01*
X185367738Y-118654888D01*
X185637112Y-118924262D02*
X186074845Y-119361995D01*
X185569769Y-119395666D01*
X185670784Y-119496682D01*
X185704456Y-119597697D01*
X185704456Y-119665040D01*
X185670784Y-119766056D01*
X185502425Y-119934415D01*
X185401410Y-119968086D01*
X185334067Y-119968086D01*
X185233051Y-119934415D01*
X185031020Y-119732384D01*
X184997349Y-119631369D01*
X184997349Y-119564025D01*
X149261581Y-127050705D02*
X150071105Y-127050705D01*
X150166343Y-127003086D01*
X150213962Y-126955467D01*
X150261581Y-126860229D01*
X150261581Y-126669752D01*
X150213962Y-126574514D01*
X150166343Y-126526895D01*
X150071105Y-126479276D01*
X149261581Y-126479276D01*
X149261581Y-125526895D02*
X149261581Y-126003086D01*
X149737771Y-126050705D01*
X149690152Y-126003086D01*
X149642533Y-125907848D01*
X149642533Y-125669752D01*
X149690152Y-125574514D01*
X149737771Y-125526895D01*
X149833010Y-125479276D01*
X150071105Y-125479276D01*
X150166343Y-125526895D01*
X150213962Y-125574514D01*
X150261581Y-125669752D01*
X150261581Y-125907848D01*
X150213962Y-126003086D01*
X150166343Y-126050705D01*
X164827009Y-119660990D02*
X164827009Y-120137181D01*
X164493676Y-119137181D02*
X164827009Y-119660990D01*
X165160343Y-119137181D01*
X166017486Y-120137181D02*
X165446057Y-120137181D01*
X165731771Y-120137181D02*
X165731771Y-119137181D01*
X165636533Y-119280038D01*
X165541295Y-119375276D01*
X165446057Y-119422895D01*
X198609009Y-117120990D02*
X198609009Y-117597181D01*
X198275676Y-116597181D02*
X198609009Y-117120990D01*
X198942343Y-116597181D01*
X199228057Y-116692419D02*
X199275676Y-116644800D01*
X199370914Y-116597181D01*
X199609010Y-116597181D01*
X199704248Y-116644800D01*
X199751867Y-116692419D01*
X199799486Y-116787657D01*
X199799486Y-116882895D01*
X199751867Y-117025752D01*
X199180438Y-117597181D01*
X199799486Y-117597181D01*
X202236343Y-89593657D02*
X202283962Y-89641276D01*
X202331581Y-89784133D01*
X202331581Y-89879371D01*
X202283962Y-90022229D01*
X202188724Y-90117467D01*
X202093486Y-90165086D01*
X201903010Y-90212705D01*
X201760152Y-90212705D01*
X201569676Y-90165086D01*
X201474438Y-90117467D01*
X201379200Y-90022229D01*
X201331581Y-89879371D01*
X201331581Y-89784133D01*
X201379200Y-89641276D01*
X201426819Y-89593657D01*
X202331581Y-88641276D02*
X202331581Y-89212705D01*
X202331581Y-88926991D02*
X201331581Y-88926991D01*
X201474438Y-89022229D01*
X201569676Y-89117467D01*
X201617295Y-89212705D01*
X201426819Y-88260324D02*
X201379200Y-88212705D01*
X201331581Y-88117467D01*
X201331581Y-87879371D01*
X201379200Y-87784133D01*
X201426819Y-87736514D01*
X201522057Y-87688895D01*
X201617295Y-87688895D01*
X201760152Y-87736514D01*
X202331581Y-88307943D01*
X202331581Y-87688895D01*
X177106343Y-90601943D02*
X177058724Y-90649562D01*
X176915867Y-90697181D01*
X176820629Y-90697181D01*
X176677771Y-90649562D01*
X176582533Y-90554324D01*
X176534914Y-90459086D01*
X176487295Y-90268610D01*
X176487295Y-90125752D01*
X176534914Y-89935276D01*
X176582533Y-89840038D01*
X176677771Y-89744800D01*
X176820629Y-89697181D01*
X176915867Y-89697181D01*
X177058724Y-89744800D01*
X177106343Y-89792419D01*
X178058724Y-90697181D02*
X177487295Y-90697181D01*
X177773009Y-90697181D02*
X177773009Y-89697181D01*
X177677771Y-89840038D01*
X177582533Y-89935276D01*
X177487295Y-89982895D01*
X178392057Y-89697181D02*
X179011105Y-89697181D01*
X178677771Y-90078133D01*
X178820629Y-90078133D01*
X178915867Y-90125752D01*
X178963486Y-90173371D01*
X179011105Y-90268610D01*
X179011105Y-90506705D01*
X178963486Y-90601943D01*
X178915867Y-90649562D01*
X178820629Y-90697181D01*
X178534914Y-90697181D01*
X178439676Y-90649562D01*
X178392057Y-90601943D01*
X177106343Y-95657943D02*
X177058724Y-95705562D01*
X176915867Y-95753181D01*
X176820629Y-95753181D01*
X176677771Y-95705562D01*
X176582533Y-95610324D01*
X176534914Y-95515086D01*
X176487295Y-95324610D01*
X176487295Y-95181752D01*
X176534914Y-94991276D01*
X176582533Y-94896038D01*
X176677771Y-94800800D01*
X176820629Y-94753181D01*
X176915867Y-94753181D01*
X177058724Y-94800800D01*
X177106343Y-94848419D01*
X178058724Y-95753181D02*
X177487295Y-95753181D01*
X177773009Y-95753181D02*
X177773009Y-94753181D01*
X177677771Y-94896038D01*
X177582533Y-94991276D01*
X177487295Y-95038895D01*
X178915867Y-95086514D02*
X178915867Y-95753181D01*
X178677771Y-94705562D02*
X178439676Y-95419848D01*
X179058724Y-95419848D01*
M02*
