G04 #@! TF.FileFunction,Soldermask,Top*
%FSLAX46Y46*%
G04 Gerber Fmt 4.6, Leading zero omitted, Abs format (unit mm)*
G04 Created by KiCad (PCBNEW 4.0.7-e2-6376~58~ubuntu16.04.1) date Thu Nov 16 22:22:22 2017*
%MOMM*%
%LPD*%
G01*
G04 APERTURE LIST*
%ADD10C,0.100000*%
%ADD11C,1.397000*%
%ADD12C,1.981000*%
%ADD13C,1.600000*%
%ADD14R,0.800000X0.900000*%
%ADD15R,1.000000X1.500000*%
%ADD16R,1.000000X1.800000*%
%ADD17R,2.200000X1.840000*%
%ADD18C,1.800000*%
%ADD19R,0.550000X0.450000*%
%ADD20R,2.743000X2.159000*%
%ADD21R,0.700000X1.300000*%
%ADD22C,1.300000*%
G04 APERTURE END LIST*
D10*
D11*
X140970000Y-113990000D03*
X140970000Y-110490000D03*
D12*
X138740000Y-112240000D03*
D13*
X125222000Y-95250000D03*
X125212000Y-102750000D03*
D14*
X144460000Y-104040000D03*
X142560000Y-104040000D03*
X143510000Y-106140000D03*
D10*
G36*
X135974000Y-98190500D02*
X135374000Y-99040500D01*
X134374000Y-99040500D01*
X133774000Y-98190500D01*
X135974000Y-98190500D01*
X135974000Y-98190500D01*
G37*
D15*
X136374000Y-94468500D03*
D16*
X134874000Y-94615000D03*
D15*
X133374000Y-94468500D03*
D17*
X134874000Y-97282000D03*
D10*
G36*
X133774000Y-96372300D02*
X134474000Y-95372300D01*
X135274000Y-95372300D01*
X135974000Y-96372300D01*
X133774000Y-96372300D01*
X133774000Y-96372300D01*
G37*
D11*
X126428500Y-110561000D03*
X126428500Y-107061000D03*
D12*
X124198500Y-108811000D03*
D18*
X153416000Y-103893000D03*
X153416000Y-96393000D03*
X158416000Y-96393000D03*
X173416000Y-96393000D03*
X173416000Y-103893000D03*
X158416000Y-103893000D03*
X148416000Y-96393000D03*
X148416000Y-103893000D03*
D19*
X120904000Y-97950000D03*
X120904000Y-98900000D03*
D20*
X134429500Y-111417500D03*
X134429500Y-106997500D03*
D13*
X129921000Y-95250000D03*
X129911000Y-102750000D03*
D11*
X116840000Y-100965000D03*
X116840000Y-97465000D03*
D12*
X114610000Y-99215000D03*
D11*
X173482000Y-87630000D03*
X176982000Y-87630000D03*
D12*
X175232000Y-85400000D03*
D11*
X143327000Y-99314000D03*
X139827000Y-99314000D03*
D12*
X141577000Y-101544000D03*
D21*
X139954000Y-95123000D03*
X141854000Y-95123000D03*
X138485800Y-107061000D03*
X140385800Y-107061000D03*
X136461500Y-102362000D03*
X134561500Y-102362000D03*
D22*
X139446000Y-80518000D03*
X150346000Y-80518000D03*
M02*
