G04 #@! TF.FileFunction,Legend,Top*
%FSLAX46Y46*%
G04 Gerber Fmt 4.6, Leading zero omitted, Abs format (unit mm)*
G04 Created by KiCad (PCBNEW 4.0.7-e2-6376~58~ubuntu16.04.1) date Thu Nov 16 22:22:22 2017*
%MOMM*%
%LPD*%
G01*
G04 APERTURE LIST*
%ADD10C,0.100000*%
%ADD11C,0.250000*%
%ADD12C,0.292100*%
%ADD13C,0.300000*%
%ADD14C,0.200000*%
%ADD15C,0.150000*%
%ADD16C,0.120000*%
%ADD17C,0.060000*%
G04 APERTURE END LIST*
D10*
D11*
X129581448Y-110120181D02*
X130152877Y-110120181D01*
X129867162Y-111120181D02*
X129867162Y-110120181D01*
X130438591Y-111072562D02*
X130581448Y-111120181D01*
X130819544Y-111120181D01*
X130914782Y-111072562D01*
X130962401Y-111024943D01*
X131010020Y-110929705D01*
X131010020Y-110834467D01*
X130962401Y-110739229D01*
X130914782Y-110691610D01*
X130819544Y-110643990D01*
X130629067Y-110596371D01*
X130533829Y-110548752D01*
X130486210Y-110501133D01*
X130438591Y-110405895D01*
X130438591Y-110310657D01*
X130486210Y-110215419D01*
X130533829Y-110167800D01*
X130629067Y-110120181D01*
X130867163Y-110120181D01*
X131010020Y-110167800D01*
X131438591Y-110739229D02*
X132200496Y-110739229D01*
X129302048Y-106335581D02*
X129873477Y-106335581D01*
X129587762Y-107335581D02*
X129587762Y-106335581D01*
X130159191Y-107287962D02*
X130302048Y-107335581D01*
X130540144Y-107335581D01*
X130635382Y-107287962D01*
X130683001Y-107240343D01*
X130730620Y-107145105D01*
X130730620Y-107049867D01*
X130683001Y-106954629D01*
X130635382Y-106907010D01*
X130540144Y-106859390D01*
X130349667Y-106811771D01*
X130254429Y-106764152D01*
X130206810Y-106716533D01*
X130159191Y-106621295D01*
X130159191Y-106526057D01*
X130206810Y-106430819D01*
X130254429Y-106383200D01*
X130349667Y-106335581D01*
X130587763Y-106335581D01*
X130730620Y-106383200D01*
X131159191Y-106954629D02*
X131921096Y-106954629D01*
X131540144Y-107335581D02*
X131540144Y-106573676D01*
D12*
X172400000Y-74300000D02*
X172350000Y-84050000D01*
D13*
X175021429Y-81958571D02*
X174307143Y-81958571D01*
X174307143Y-80458571D01*
X175307143Y-80458571D02*
X175807143Y-81958571D01*
X176307143Y-80458571D01*
X154503572Y-114140371D02*
X154503572Y-112640371D01*
X154503572Y-113354657D02*
X155360715Y-113354657D01*
X155360715Y-114140371D02*
X155360715Y-112640371D01*
X155860715Y-112640371D02*
X156360715Y-114140371D01*
X156860715Y-112640371D01*
X160977605Y-108520976D02*
X161120461Y-108521541D01*
X161263034Y-108593534D01*
X161334181Y-108665245D01*
X161405044Y-108808383D01*
X161475342Y-109094377D01*
X161473931Y-109451517D01*
X161401374Y-109736947D01*
X161329381Y-109879520D01*
X161257670Y-109950666D01*
X161114532Y-110021529D01*
X160971676Y-110020964D01*
X160829103Y-109948972D01*
X160757956Y-109877262D01*
X160687094Y-109734123D01*
X160616795Y-109448129D01*
X160618206Y-109090989D01*
X160690764Y-108805560D01*
X160762756Y-108662986D01*
X160834467Y-108591840D01*
X160977605Y-108520976D01*
X162115089Y-109882626D02*
X162186234Y-109954337D01*
X162114524Y-110025482D01*
X162043378Y-109953772D01*
X162115089Y-109882626D01*
X162114524Y-110025482D01*
X163549014Y-108531140D02*
X162834733Y-108528317D01*
X162760482Y-109242315D01*
X162832193Y-109171170D01*
X162975331Y-109100306D01*
X163332471Y-109101717D01*
X163475045Y-109173711D01*
X163546191Y-109245420D01*
X163617053Y-109388559D01*
X163615642Y-109745699D01*
X163543650Y-109888272D01*
X163471939Y-109959418D01*
X163328801Y-110030281D01*
X162971661Y-110028870D01*
X162829087Y-109956877D01*
X162757941Y-109885167D01*
X164549005Y-108535092D02*
X164691861Y-108535657D01*
X164834434Y-108607650D01*
X164905581Y-108679361D01*
X164976444Y-108822499D01*
X165046743Y-109108493D01*
X165045331Y-109465633D01*
X164972774Y-109751063D01*
X164900781Y-109893636D01*
X164829070Y-109964783D01*
X164685932Y-110035645D01*
X164543076Y-110035081D01*
X164400503Y-109963089D01*
X164329357Y-109891378D01*
X164258494Y-109748240D01*
X164188195Y-109462246D01*
X164189606Y-109105105D01*
X164262164Y-108819676D01*
X164334156Y-108677102D01*
X164405867Y-108605956D01*
X164549005Y-108535092D01*
X166334705Y-108542151D02*
X166048993Y-108541021D01*
X165905855Y-108611885D01*
X165834144Y-108683031D01*
X165690442Y-108896750D01*
X165617884Y-109182180D01*
X165615625Y-109753604D01*
X165686489Y-109896742D01*
X165757634Y-109968453D01*
X165900209Y-110040445D01*
X166185920Y-110041574D01*
X166329059Y-109970711D01*
X166400769Y-109899565D01*
X166472761Y-109756992D01*
X166474173Y-109399851D01*
X166403310Y-109256713D01*
X166332164Y-109185004D01*
X166189591Y-109113010D01*
X165903879Y-109111881D01*
X165760740Y-109182745D01*
X165689030Y-109253890D01*
X165617037Y-109396464D01*
X167406125Y-108546385D02*
X167548981Y-108546950D01*
X167691554Y-108618943D01*
X167762700Y-108690654D01*
X167833564Y-108833792D01*
X167903862Y-109119786D01*
X167902451Y-109476926D01*
X167829894Y-109762356D01*
X167757901Y-109904929D01*
X167686190Y-109976076D01*
X167543052Y-110046938D01*
X167400196Y-110046374D01*
X167257622Y-109974382D01*
X167186476Y-109902671D01*
X167115613Y-109759533D01*
X167045314Y-109473539D01*
X167046726Y-109116398D01*
X167119284Y-108830969D01*
X167191276Y-108688395D01*
X167262987Y-108617249D01*
X167406125Y-108546385D01*
X169685892Y-110055408D02*
X169689845Y-109055416D01*
X169691821Y-108555420D02*
X169620110Y-108626566D01*
X169691256Y-108698277D01*
X169762966Y-108627131D01*
X169691821Y-108555420D01*
X169691256Y-108698277D01*
X170404125Y-109058239D02*
X170400172Y-110058231D01*
X170403560Y-109201096D02*
X170475270Y-109129950D01*
X170618409Y-109059086D01*
X170832693Y-109059933D01*
X170975266Y-109131926D01*
X171046130Y-109275064D01*
X171043024Y-110060772D01*
X159446312Y-107986349D02*
X172298712Y-108037149D01*
X159494467Y-95803120D02*
X159435640Y-110686328D01*
X172346867Y-95853920D02*
X172288040Y-110737128D01*
X172298712Y-108037149D02*
X171169899Y-108619113D01*
X172298712Y-108037149D02*
X171174535Y-107446280D01*
X159446312Y-107986349D02*
X160570489Y-108577218D01*
X159446312Y-107986349D02*
X160575125Y-107404385D01*
D14*
X117387858Y-93908571D02*
X117530715Y-93956190D01*
X117578334Y-94003810D01*
X117625953Y-94099048D01*
X117625953Y-94241905D01*
X117578334Y-94337143D01*
X117530715Y-94384762D01*
X117435477Y-94432381D01*
X117054524Y-94432381D01*
X117054524Y-93432381D01*
X117387858Y-93432381D01*
X117483096Y-93480000D01*
X117530715Y-93527619D01*
X117578334Y-93622857D01*
X117578334Y-93718095D01*
X117530715Y-93813333D01*
X117483096Y-93860952D01*
X117387858Y-93908571D01*
X117054524Y-93908571D01*
X118006905Y-94146667D02*
X118483096Y-94146667D01*
X117911667Y-94432381D02*
X118245000Y-93432381D01*
X118578334Y-94432381D01*
X118768810Y-93432381D02*
X119340239Y-93432381D01*
X119054524Y-94432381D02*
X119054524Y-93432381D01*
X119673572Y-94051429D02*
X120435477Y-94051429D01*
X120054525Y-94432381D02*
X120054525Y-93670476D01*
X120523095Y-108672381D02*
X121094524Y-108672381D01*
X120808809Y-109672381D02*
X120808809Y-108672381D01*
X121380238Y-109624762D02*
X121523095Y-109672381D01*
X121761191Y-109672381D01*
X121856429Y-109624762D01*
X121904048Y-109577143D01*
X121951667Y-109481905D01*
X121951667Y-109386667D01*
X121904048Y-109291429D01*
X121856429Y-109243810D01*
X121761191Y-109196190D01*
X121570714Y-109148571D01*
X121475476Y-109100952D01*
X121427857Y-109053333D01*
X121380238Y-108958095D01*
X121380238Y-108862857D01*
X121427857Y-108767619D01*
X121475476Y-108720000D01*
X121570714Y-108672381D01*
X121808810Y-108672381D01*
X121951667Y-108720000D01*
X147582048Y-112434667D02*
X148058239Y-112434667D01*
X147486810Y-112720381D02*
X147820143Y-111720381D01*
X148153477Y-112720381D01*
X148486810Y-112720381D02*
X148486810Y-111720381D01*
X149439191Y-112720381D02*
X148963000Y-112720381D01*
X148963000Y-111720381D01*
X137739572Y-104135181D02*
X137739572Y-103135181D01*
X138215762Y-104135181D02*
X138215762Y-103135181D01*
X138549096Y-103849467D01*
X138882429Y-103135181D01*
X138882429Y-104135181D01*
X139358619Y-104135181D02*
X139358619Y-103135181D01*
X139596714Y-103135181D01*
X139739572Y-103182800D01*
X139834810Y-103278038D01*
X139882429Y-103373276D01*
X139930048Y-103563752D01*
X139930048Y-103706610D01*
X139882429Y-103897086D01*
X139834810Y-103992324D01*
X139739572Y-104087562D01*
X139596714Y-104135181D01*
X139358619Y-104135181D01*
X174978572Y-91300000D02*
X174883334Y-91252381D01*
X174740477Y-91252381D01*
X174597619Y-91300000D01*
X174502381Y-91395238D01*
X174454762Y-91490476D01*
X174407143Y-91680952D01*
X174407143Y-91823810D01*
X174454762Y-92014286D01*
X174502381Y-92109524D01*
X174597619Y-92204762D01*
X174740477Y-92252381D01*
X174835715Y-92252381D01*
X174978572Y-92204762D01*
X175026191Y-92157143D01*
X175026191Y-91823810D01*
X174835715Y-91823810D01*
X175930953Y-92252381D02*
X175454762Y-92252381D01*
X175454762Y-91252381D01*
X176121429Y-91252381D02*
X176454762Y-92252381D01*
X176788096Y-91252381D01*
X115100381Y-84939048D02*
X115100381Y-84748571D01*
X115148000Y-84653333D01*
X115243238Y-84558095D01*
X115433714Y-84510476D01*
X115767048Y-84510476D01*
X115957524Y-84558095D01*
X116052762Y-84653333D01*
X116100381Y-84748571D01*
X116100381Y-84939048D01*
X116052762Y-85034286D01*
X115957524Y-85129524D01*
X115767048Y-85177143D01*
X115433714Y-85177143D01*
X115243238Y-85129524D01*
X115148000Y-85034286D01*
X115100381Y-84939048D01*
X115576571Y-84081905D02*
X115576571Y-83748571D01*
X116100381Y-83605714D02*
X116100381Y-84081905D01*
X115100381Y-84081905D01*
X115100381Y-83605714D01*
X116100381Y-83177143D02*
X115100381Y-83177143D01*
X115814667Y-82843809D01*
X115100381Y-82510476D01*
X116100381Y-82510476D01*
X117514667Y-91605715D02*
X117514667Y-91129524D01*
X117800381Y-91700953D02*
X116800381Y-91367620D01*
X117800381Y-91034286D01*
X117800381Y-90700953D02*
X116800381Y-90700953D01*
X117800381Y-89748572D02*
X117800381Y-90224763D01*
X116800381Y-90224763D01*
X117800381Y-88653334D02*
X116800381Y-88653334D01*
X116800381Y-88272381D01*
X116848000Y-88177143D01*
X116895619Y-88129524D01*
X116990857Y-88081905D01*
X117133714Y-88081905D01*
X117228952Y-88129524D01*
X117276571Y-88177143D01*
X117324190Y-88272381D01*
X117324190Y-88653334D01*
X117800381Y-87081905D02*
X117324190Y-87415239D01*
X117800381Y-87653334D02*
X116800381Y-87653334D01*
X116800381Y-87272381D01*
X116848000Y-87177143D01*
X116895619Y-87129524D01*
X116990857Y-87081905D01*
X117133714Y-87081905D01*
X117228952Y-87129524D01*
X117276571Y-87177143D01*
X117324190Y-87272381D01*
X117324190Y-87653334D01*
X117276571Y-86653334D02*
X117276571Y-86320000D01*
X117800381Y-86177143D02*
X117800381Y-86653334D01*
X116800381Y-86653334D01*
X116800381Y-86177143D01*
X117705143Y-85177143D02*
X117752762Y-85224762D01*
X117800381Y-85367619D01*
X117800381Y-85462857D01*
X117752762Y-85605715D01*
X117657524Y-85700953D01*
X117562286Y-85748572D01*
X117371810Y-85796191D01*
X117228952Y-85796191D01*
X117038476Y-85748572D01*
X116943238Y-85700953D01*
X116848000Y-85605715D01*
X116800381Y-85462857D01*
X116800381Y-85367619D01*
X116848000Y-85224762D01*
X116895619Y-85177143D01*
X117800381Y-84748572D02*
X116800381Y-84748572D01*
X117276571Y-84748572D02*
X117276571Y-84177143D01*
X117800381Y-84177143D02*
X116800381Y-84177143D01*
X117514667Y-83748572D02*
X117514667Y-83272381D01*
X117800381Y-83843810D02*
X116800381Y-83510477D01*
X117800381Y-83177143D01*
X117800381Y-82272381D02*
X117324190Y-82605715D01*
X117800381Y-82843810D02*
X116800381Y-82843810D01*
X116800381Y-82462857D01*
X116848000Y-82367619D01*
X116895619Y-82320000D01*
X116990857Y-82272381D01*
X117133714Y-82272381D01*
X117228952Y-82320000D01*
X117276571Y-82367619D01*
X117324190Y-82462857D01*
X117324190Y-82843810D01*
X116848000Y-81320000D02*
X116800381Y-81415238D01*
X116800381Y-81558095D01*
X116848000Y-81700953D01*
X116943238Y-81796191D01*
X117038476Y-81843810D01*
X117228952Y-81891429D01*
X117371810Y-81891429D01*
X117562286Y-81843810D01*
X117657524Y-81796191D01*
X117752762Y-81700953D01*
X117800381Y-81558095D01*
X117800381Y-81462857D01*
X117752762Y-81320000D01*
X117705143Y-81272381D01*
X117371810Y-81272381D01*
X117371810Y-81462857D01*
X117276571Y-80843810D02*
X117276571Y-80510476D01*
X117800381Y-80367619D02*
X117800381Y-80843810D01*
X116800381Y-80843810D01*
X116800381Y-80367619D01*
X117895619Y-80177143D02*
X117895619Y-79415238D01*
X117800381Y-78605714D02*
X117324190Y-78939048D01*
X117800381Y-79177143D02*
X116800381Y-79177143D01*
X116800381Y-78796190D01*
X116848000Y-78700952D01*
X116895619Y-78653333D01*
X116990857Y-78605714D01*
X117133714Y-78605714D01*
X117228952Y-78653333D01*
X117276571Y-78700952D01*
X117324190Y-78796190D01*
X117324190Y-79177143D01*
X117752762Y-77796190D02*
X117800381Y-77891428D01*
X117800381Y-78081905D01*
X117752762Y-78177143D01*
X117657524Y-78224762D01*
X117276571Y-78224762D01*
X117181333Y-78177143D01*
X117133714Y-78081905D01*
X117133714Y-77891428D01*
X117181333Y-77796190D01*
X117276571Y-77748571D01*
X117371810Y-77748571D01*
X117467048Y-78224762D01*
X117133714Y-77415238D02*
X117800381Y-77177143D01*
X117133714Y-76939047D01*
X117800381Y-76034285D02*
X117800381Y-76605714D01*
X117800381Y-76320000D02*
X116800381Y-76320000D01*
X116943238Y-76415238D01*
X117038476Y-76510476D01*
X117086095Y-76605714D01*
X119452762Y-89129524D02*
X119500381Y-88986667D01*
X119500381Y-88748571D01*
X119452762Y-88653333D01*
X119405143Y-88605714D01*
X119309905Y-88558095D01*
X119214667Y-88558095D01*
X119119429Y-88605714D01*
X119071810Y-88653333D01*
X119024190Y-88748571D01*
X118976571Y-88939048D01*
X118928952Y-89034286D01*
X118881333Y-89081905D01*
X118786095Y-89129524D01*
X118690857Y-89129524D01*
X118595619Y-89081905D01*
X118548000Y-89034286D01*
X118500381Y-88939048D01*
X118500381Y-88700952D01*
X118548000Y-88558095D01*
X119500381Y-88129524D02*
X118500381Y-88129524D01*
X118976571Y-88129524D02*
X118976571Y-87558095D01*
X119500381Y-87558095D02*
X118500381Y-87558095D01*
X118976571Y-87081905D02*
X118976571Y-86748571D01*
X119500381Y-86605714D02*
X119500381Y-87081905D01*
X118500381Y-87081905D01*
X118500381Y-86605714D01*
X119500381Y-85605714D02*
X119024190Y-85939048D01*
X119500381Y-86177143D02*
X118500381Y-86177143D01*
X118500381Y-85796190D01*
X118548000Y-85700952D01*
X118595619Y-85653333D01*
X118690857Y-85605714D01*
X118833714Y-85605714D01*
X118928952Y-85653333D01*
X118976571Y-85700952D01*
X119024190Y-85796190D01*
X119024190Y-86177143D01*
X119500381Y-84605714D02*
X119024190Y-84939048D01*
X119500381Y-85177143D02*
X118500381Y-85177143D01*
X118500381Y-84796190D01*
X118548000Y-84700952D01*
X118595619Y-84653333D01*
X118690857Y-84605714D01*
X118833714Y-84605714D01*
X118928952Y-84653333D01*
X118976571Y-84700952D01*
X119024190Y-84796190D01*
X119024190Y-85177143D01*
X119500381Y-84177143D02*
X118500381Y-84177143D01*
X118976571Y-83700953D02*
X118976571Y-83367619D01*
X119500381Y-83224762D02*
X119500381Y-83700953D01*
X118500381Y-83700953D01*
X118500381Y-83224762D01*
X119452762Y-82081905D02*
X119500381Y-81939048D01*
X119500381Y-81700952D01*
X119452762Y-81605714D01*
X119405143Y-81558095D01*
X119309905Y-81510476D01*
X119214667Y-81510476D01*
X119119429Y-81558095D01*
X119071810Y-81605714D01*
X119024190Y-81700952D01*
X118976571Y-81891429D01*
X118928952Y-81986667D01*
X118881333Y-82034286D01*
X118786095Y-82081905D01*
X118690857Y-82081905D01*
X118595619Y-82034286D01*
X118548000Y-81986667D01*
X118500381Y-81891429D01*
X118500381Y-81653333D01*
X118548000Y-81510476D01*
X119500381Y-81081905D02*
X118500381Y-81081905D01*
X118976571Y-81081905D02*
X118976571Y-80510476D01*
X119500381Y-80510476D02*
X118500381Y-80510476D01*
X118976571Y-80034286D02*
X118976571Y-79700952D01*
X119500381Y-79558095D02*
X119500381Y-80034286D01*
X118500381Y-80034286D01*
X118500381Y-79558095D01*
X119500381Y-79129524D02*
X118500381Y-79129524D01*
X119500381Y-78558095D01*
X118500381Y-78558095D01*
D15*
X143390000Y-116140000D02*
X146700000Y-116140000D01*
X146700000Y-116140000D02*
X146700000Y-108340000D01*
X146700000Y-108340000D02*
X143390000Y-108340000D01*
X143390000Y-108340000D02*
X137668000Y-108340000D01*
X143390000Y-116140000D02*
X137668000Y-116140000D01*
X143390000Y-108340000D02*
X143390000Y-116140000D01*
X137668000Y-108340000D02*
X137668000Y-116140000D01*
D16*
X127342000Y-93550000D02*
X127342000Y-104450000D01*
X127342000Y-93550000D02*
X123102000Y-93550000D01*
X123102000Y-104450000D02*
X127342000Y-104450000D01*
X123102000Y-104450000D02*
X123102000Y-93550000D01*
X141930000Y-105850000D02*
X142860000Y-105850000D01*
X145090000Y-105850000D02*
X144160000Y-105850000D01*
X145090000Y-105850000D02*
X145090000Y-103690000D01*
X141930000Y-105850000D02*
X141930000Y-104390000D01*
X133674000Y-97728500D02*
X132474000Y-97728500D01*
X132474000Y-97728500D02*
X132474000Y-95028500D01*
X137274000Y-93728500D02*
X137274000Y-97728500D01*
X137274000Y-97728500D02*
X136074000Y-97728500D01*
D15*
X128848500Y-112711000D02*
X132158500Y-112711000D01*
X132158500Y-112711000D02*
X132158500Y-104911000D01*
X132158500Y-104911000D02*
X128848500Y-104911000D01*
X128848500Y-104911000D02*
X123126500Y-104911000D01*
X128848500Y-112711000D02*
X123126500Y-112711000D01*
X128848500Y-104911000D02*
X128848500Y-112711000D01*
X123126500Y-104911000D02*
X123126500Y-112711000D01*
D16*
X175916000Y-106593000D02*
X145916000Y-106593000D01*
X145916000Y-106593000D02*
X145916000Y-93693000D01*
X175916000Y-93693000D02*
X145916000Y-93693000D01*
X175916000Y-106593000D02*
X175916000Y-93693000D01*
D17*
X121259000Y-97645000D02*
X120549000Y-97645000D01*
X120142000Y-98525000D02*
X120142000Y-98675000D01*
X120342000Y-98525000D02*
X120142000Y-98225000D01*
X119942000Y-98525000D02*
X120342000Y-98525000D01*
X120142000Y-98225000D02*
X119942000Y-98525000D01*
X120142000Y-98225000D02*
X120142000Y-98075000D01*
X119942000Y-98225000D02*
X120342000Y-98225000D01*
X120549000Y-97645000D02*
X120549000Y-98425000D01*
X121259000Y-97645000D02*
X121259000Y-98425000D01*
D16*
X135929500Y-105707500D02*
X132929500Y-105707500D01*
D10*
X132479500Y-109337500D02*
X132479500Y-109487500D01*
X132679500Y-109337500D02*
X132479500Y-109037500D01*
X132279500Y-109337500D02*
X132679500Y-109337500D01*
X132479500Y-109037500D02*
X132279500Y-109337500D01*
X132479500Y-109037500D02*
X132479500Y-108887500D01*
X132279500Y-109037500D02*
X132679500Y-109037500D01*
D16*
X132929500Y-105707500D02*
X132929500Y-109207500D01*
X135929500Y-105707500D02*
X135929500Y-109207500D01*
X132041000Y-93550000D02*
X132041000Y-104450000D01*
X132041000Y-93550000D02*
X127801000Y-93550000D01*
X127801000Y-104450000D02*
X132041000Y-104450000D01*
X127801000Y-104450000D02*
X127801000Y-93550000D01*
D15*
X119260000Y-103115000D02*
X122570000Y-103115000D01*
X122570000Y-103115000D02*
X122570000Y-95315000D01*
X122570000Y-95315000D02*
X119260000Y-95315000D01*
X119260000Y-95315000D02*
X113538000Y-95315000D01*
X119260000Y-103115000D02*
X113538000Y-103115000D01*
X119260000Y-95315000D02*
X119260000Y-103115000D01*
X113538000Y-95315000D02*
X113538000Y-103115000D01*
X171332000Y-90050000D02*
X171332000Y-93360000D01*
X171332000Y-93360000D02*
X179132000Y-93360000D01*
X179132000Y-93360000D02*
X179132000Y-90050000D01*
X179132000Y-90050000D02*
X179132000Y-84328000D01*
X171332000Y-90050000D02*
X171332000Y-84328000D01*
X179132000Y-90050000D02*
X171332000Y-90050000D01*
X179132000Y-84328000D02*
X171332000Y-84328000D01*
X145477000Y-96894000D02*
X145477000Y-93584000D01*
X145477000Y-93584000D02*
X137677000Y-93584000D01*
X137677000Y-93584000D02*
X137677000Y-96894000D01*
X137677000Y-96894000D02*
X137677000Y-102616000D01*
X145477000Y-96894000D02*
X145477000Y-102616000D01*
X137677000Y-96894000D02*
X145477000Y-96894000D01*
X137677000Y-102616000D02*
X145477000Y-102616000D01*
D16*
X141504000Y-96003000D02*
X140304000Y-96003000D01*
X140304000Y-94243000D02*
X141504000Y-94243000D01*
X140035800Y-107941000D02*
X138835800Y-107941000D01*
X138835800Y-106181000D02*
X140035800Y-106181000D01*
X134911500Y-101482000D02*
X136111500Y-101482000D01*
X136111500Y-103242000D02*
X134911500Y-103242000D01*
X136746000Y-77918000D02*
X153046000Y-77918000D01*
X123696000Y-67818000D02*
X166096000Y-67818000D01*
X136746000Y-77918000D02*
X136746000Y-83118000D01*
X153046000Y-77918000D02*
X153046000Y-83118000D01*
X136746000Y-83118000D02*
X153046000Y-83118000D01*
X123696000Y-93218000D02*
X166096000Y-93218000D01*
X166096000Y-93218000D02*
X166096000Y-67818000D01*
X123696000Y-93218000D02*
X123696000Y-67818000D01*
D15*
X121653334Y-104082857D02*
X121386667Y-104082857D01*
X121386667Y-104501905D02*
X121386667Y-103701905D01*
X121767620Y-103701905D01*
X122491429Y-104501905D02*
X122034286Y-104501905D01*
X122262857Y-104501905D02*
X122262857Y-103701905D01*
X122186667Y-103816190D01*
X122110476Y-103892381D01*
X122034286Y-103930476D01*
D10*
X144891133Y-108003133D02*
X144824467Y-107969800D01*
X144757800Y-107903133D01*
X144657800Y-107803133D01*
X144591133Y-107769800D01*
X144524467Y-107769800D01*
X144557800Y-107936467D02*
X144491133Y-107903133D01*
X144424467Y-107836467D01*
X144391133Y-107703133D01*
X144391133Y-107469800D01*
X144424467Y-107336467D01*
X144491133Y-107269800D01*
X144557800Y-107236467D01*
X144691133Y-107236467D01*
X144757800Y-107269800D01*
X144824467Y-107336467D01*
X144857800Y-107469800D01*
X144857800Y-107703133D01*
X144824467Y-107836467D01*
X144757800Y-107903133D01*
X144691133Y-107936467D01*
X144557800Y-107936467D01*
X145524466Y-107936467D02*
X145124466Y-107936467D01*
X145324466Y-107936467D02*
X145324466Y-107236467D01*
X145257800Y-107336467D01*
X145191133Y-107403133D01*
X145124466Y-107436467D01*
D15*
X133223095Y-99845881D02*
X133223095Y-100655405D01*
X133270714Y-100750643D01*
X133318333Y-100798262D01*
X133413571Y-100845881D01*
X133604048Y-100845881D01*
X133699286Y-100798262D01*
X133746905Y-100750643D01*
X133794524Y-100655405D01*
X133794524Y-99845881D01*
X134794524Y-100845881D02*
X134223095Y-100845881D01*
X134508809Y-100845881D02*
X134508809Y-99845881D01*
X134413571Y-99988738D01*
X134318333Y-100083976D01*
X134223095Y-100131595D01*
X177011905Y-100952381D02*
X177011905Y-99952381D01*
X177583334Y-100952381D02*
X177154762Y-100380952D01*
X177583334Y-99952381D02*
X177011905Y-100523810D01*
X178535715Y-100952381D02*
X177964286Y-100952381D01*
X178250000Y-100952381D02*
X178250000Y-99952381D01*
X178154762Y-100095238D01*
X178059524Y-100190476D01*
X177964286Y-100238095D01*
X120165905Y-101544381D02*
X120165905Y-100544381D01*
X120404000Y-100544381D01*
X120546858Y-100592000D01*
X120642096Y-100687238D01*
X120689715Y-100782476D01*
X120737334Y-100972952D01*
X120737334Y-101115810D01*
X120689715Y-101306286D01*
X120642096Y-101401524D01*
X120546858Y-101496762D01*
X120404000Y-101544381D01*
X120165905Y-101544381D01*
X121689715Y-101544381D02*
X121118286Y-101544381D01*
X121404000Y-101544381D02*
X121404000Y-100544381D01*
X121308762Y-100687238D01*
X121213524Y-100782476D01*
X121118286Y-100830095D01*
X133881905Y-114244381D02*
X133881905Y-113244381D01*
X134120000Y-113244381D01*
X134262858Y-113292000D01*
X134358096Y-113387238D01*
X134405715Y-113482476D01*
X134453334Y-113672952D01*
X134453334Y-113815810D01*
X134405715Y-114006286D01*
X134358096Y-114101524D01*
X134262858Y-114196762D01*
X134120000Y-114244381D01*
X133881905Y-114244381D01*
X134834286Y-113339619D02*
X134881905Y-113292000D01*
X134977143Y-113244381D01*
X135215239Y-113244381D01*
X135310477Y-113292000D01*
X135358096Y-113339619D01*
X135405715Y-113434857D01*
X135405715Y-113530095D01*
X135358096Y-113672952D01*
X134786667Y-114244381D01*
X135405715Y-114244381D01*
X132862667Y-102566000D02*
X132629334Y-102566000D01*
X132629334Y-102932667D02*
X132629334Y-102232667D01*
X132962667Y-102232667D01*
X133196000Y-102299333D02*
X133229334Y-102266000D01*
X133296000Y-102232667D01*
X133462667Y-102232667D01*
X133529334Y-102266000D01*
X133562667Y-102299333D01*
X133596000Y-102366000D01*
X133596000Y-102432667D01*
X133562667Y-102532667D01*
X133162667Y-102932667D01*
X133596000Y-102932667D01*
X138882381Y-95416666D02*
X138406190Y-95750000D01*
X138882381Y-95988095D02*
X137882381Y-95988095D01*
X137882381Y-95607142D01*
X137930000Y-95511904D01*
X137977619Y-95464285D01*
X138072857Y-95416666D01*
X138215714Y-95416666D01*
X138310952Y-95464285D01*
X138358571Y-95511904D01*
X138406190Y-95607142D01*
X138406190Y-95988095D01*
X137977619Y-95035714D02*
X137930000Y-94988095D01*
X137882381Y-94892857D01*
X137882381Y-94654761D01*
X137930000Y-94559523D01*
X137977619Y-94511904D01*
X138072857Y-94464285D01*
X138168095Y-94464285D01*
X138310952Y-94511904D01*
X138882381Y-95083333D01*
X138882381Y-94464285D01*
D10*
X138440334Y-105599667D02*
X138207000Y-105266333D01*
X138040334Y-105599667D02*
X138040334Y-104899667D01*
X138307000Y-104899667D01*
X138373667Y-104933000D01*
X138407000Y-104966333D01*
X138440334Y-105033000D01*
X138440334Y-105133000D01*
X138407000Y-105199667D01*
X138373667Y-105233000D01*
X138307000Y-105266333D01*
X138040334Y-105266333D01*
X138673667Y-104899667D02*
X139107000Y-104899667D01*
X138873667Y-105166333D01*
X138973667Y-105166333D01*
X139040334Y-105199667D01*
X139073667Y-105233000D01*
X139107000Y-105299667D01*
X139107000Y-105466333D01*
X139073667Y-105533000D01*
X139040334Y-105566333D01*
X138973667Y-105599667D01*
X138773667Y-105599667D01*
X138707000Y-105566333D01*
X138673667Y-105533000D01*
D15*
X134961334Y-104592381D02*
X134628000Y-104116190D01*
X134389905Y-104592381D02*
X134389905Y-103592381D01*
X134770858Y-103592381D01*
X134866096Y-103640000D01*
X134913715Y-103687619D01*
X134961334Y-103782857D01*
X134961334Y-103925714D01*
X134913715Y-104020952D01*
X134866096Y-104068571D01*
X134770858Y-104116190D01*
X134389905Y-104116190D01*
X135818477Y-103925714D02*
X135818477Y-104592381D01*
X135580381Y-103544762D02*
X135342286Y-104259048D01*
X135961334Y-104259048D01*
X145035834Y-81021181D02*
X144702500Y-80544990D01*
X144464405Y-81021181D02*
X144464405Y-80021181D01*
X144845358Y-80021181D01*
X144940596Y-80068800D01*
X144988215Y-80116419D01*
X145035834Y-80211657D01*
X145035834Y-80354514D01*
X144988215Y-80449752D01*
X144940596Y-80497371D01*
X144845358Y-80544990D01*
X144464405Y-80544990D01*
X145988215Y-81021181D02*
X145416786Y-81021181D01*
X145702500Y-81021181D02*
X145702500Y-80021181D01*
X145607262Y-80164038D01*
X145512024Y-80259276D01*
X145416786Y-80306895D01*
M02*
