G04 #@! TF.FileFunction,Legend,Bot*
%FSLAX46Y46*%
G04 Gerber Fmt 4.6, Leading zero omitted, Abs format (unit mm)*
G04 Created by KiCad (PCBNEW 4.0.7-e2-6376~58~ubuntu16.04.1) date Thu Nov 16 22:22:22 2017*
%MOMM*%
%LPD*%
G01*
G04 APERTURE LIST*
%ADD10C,0.100000*%
%ADD11C,0.300000*%
%ADD12C,0.200000*%
%ADD13C,0.292100*%
%ADD14C,0.010000*%
G04 APERTURE END LIST*
D10*
D11*
X175438571Y-78148571D02*
X176152857Y-78148571D01*
X176152857Y-76648571D01*
X175152857Y-76648571D02*
X174652857Y-78148571D01*
X174152857Y-76648571D01*
X156976628Y-110990771D02*
X156976628Y-109490771D01*
X156976628Y-110205057D02*
X156119485Y-110205057D01*
X156119485Y-110990771D02*
X156119485Y-109490771D01*
X155619485Y-109490771D02*
X155119485Y-110990771D01*
X154619485Y-109490771D01*
D12*
X159450000Y-78150000D02*
X159450000Y-105950000D01*
D11*
X170942856Y-98378571D02*
X170799999Y-98378571D01*
X170657142Y-98450000D01*
X170585713Y-98521429D01*
X170514284Y-98664286D01*
X170442856Y-98950000D01*
X170442856Y-99307143D01*
X170514284Y-99592857D01*
X170585713Y-99735714D01*
X170657142Y-99807143D01*
X170799999Y-99878571D01*
X170942856Y-99878571D01*
X171085713Y-99807143D01*
X171157142Y-99735714D01*
X171228570Y-99592857D01*
X171299999Y-99307143D01*
X171299999Y-98950000D01*
X171228570Y-98664286D01*
X171157142Y-98521429D01*
X171085713Y-98450000D01*
X170942856Y-98378571D01*
X169799999Y-99735714D02*
X169728571Y-99807143D01*
X169799999Y-99878571D01*
X169871428Y-99807143D01*
X169799999Y-99735714D01*
X169799999Y-99878571D01*
X168371427Y-98378571D02*
X169085713Y-98378571D01*
X169157142Y-99092857D01*
X169085713Y-99021429D01*
X168942856Y-98950000D01*
X168585713Y-98950000D01*
X168442856Y-99021429D01*
X168371427Y-99092857D01*
X168299999Y-99235714D01*
X168299999Y-99592857D01*
X168371427Y-99735714D01*
X168442856Y-99807143D01*
X168585713Y-99878571D01*
X168942856Y-99878571D01*
X169085713Y-99807143D01*
X169157142Y-99735714D01*
X167371428Y-98378571D02*
X167228571Y-98378571D01*
X167085714Y-98450000D01*
X167014285Y-98521429D01*
X166942856Y-98664286D01*
X166871428Y-98950000D01*
X166871428Y-99307143D01*
X166942856Y-99592857D01*
X167014285Y-99735714D01*
X167085714Y-99807143D01*
X167228571Y-99878571D01*
X167371428Y-99878571D01*
X167514285Y-99807143D01*
X167585714Y-99735714D01*
X167657142Y-99592857D01*
X167728571Y-99307143D01*
X167728571Y-98950000D01*
X167657142Y-98664286D01*
X167585714Y-98521429D01*
X167514285Y-98450000D01*
X167371428Y-98378571D01*
X165585714Y-98378571D02*
X165871428Y-98378571D01*
X166014285Y-98450000D01*
X166085714Y-98521429D01*
X166228571Y-98735714D01*
X166300000Y-99021429D01*
X166300000Y-99592857D01*
X166228571Y-99735714D01*
X166157143Y-99807143D01*
X166014285Y-99878571D01*
X165728571Y-99878571D01*
X165585714Y-99807143D01*
X165514285Y-99735714D01*
X165442857Y-99592857D01*
X165442857Y-99235714D01*
X165514285Y-99092857D01*
X165585714Y-99021429D01*
X165728571Y-98950000D01*
X166014285Y-98950000D01*
X166157143Y-99021429D01*
X166228571Y-99092857D01*
X166300000Y-99235714D01*
X164514286Y-98378571D02*
X164371429Y-98378571D01*
X164228572Y-98450000D01*
X164157143Y-98521429D01*
X164085714Y-98664286D01*
X164014286Y-98950000D01*
X164014286Y-99307143D01*
X164085714Y-99592857D01*
X164157143Y-99735714D01*
X164228572Y-99807143D01*
X164371429Y-99878571D01*
X164514286Y-99878571D01*
X164657143Y-99807143D01*
X164728572Y-99735714D01*
X164800000Y-99592857D01*
X164871429Y-99307143D01*
X164871429Y-98950000D01*
X164800000Y-98664286D01*
X164728572Y-98521429D01*
X164657143Y-98450000D01*
X164514286Y-98378571D01*
X162228572Y-99878571D02*
X162228572Y-98878571D01*
X162228572Y-98378571D02*
X162300001Y-98450000D01*
X162228572Y-98521429D01*
X162157144Y-98450000D01*
X162228572Y-98378571D01*
X162228572Y-98521429D01*
X161514286Y-98878571D02*
X161514286Y-99878571D01*
X161514286Y-99021429D02*
X161442858Y-98950000D01*
X161300000Y-98878571D01*
X161085715Y-98878571D01*
X160942858Y-98950000D01*
X160871429Y-99092857D01*
X160871429Y-99878571D01*
D12*
X159600000Y-101000000D02*
X160750000Y-101700000D01*
X159550000Y-101000000D02*
X160750000Y-100250000D01*
X172150000Y-101050000D02*
X171100000Y-101650000D01*
X172150000Y-101050000D02*
X171100000Y-100250000D01*
X159600000Y-101000000D02*
X172150000Y-101050000D01*
D13*
X172313600Y-74193400D02*
X172300000Y-106050000D01*
D14*
G36*
X158858556Y-75686455D02*
X158720443Y-75718593D01*
X158602367Y-75785357D01*
X158513181Y-75867881D01*
X158451589Y-75947025D01*
X158407102Y-76036627D01*
X158377951Y-76145160D01*
X158362363Y-76281095D01*
X158358569Y-76452904D01*
X158361746Y-76592386D01*
X158374125Y-76788155D01*
X158398286Y-76941672D01*
X158437774Y-77060815D01*
X158496133Y-77153461D01*
X158576910Y-77227487D01*
X158673800Y-77285777D01*
X158770924Y-77319625D01*
X158894924Y-77341338D01*
X159024365Y-77348993D01*
X159137813Y-77340666D01*
X159178406Y-77331043D01*
X159320998Y-77259898D01*
X159440760Y-77149594D01*
X159513899Y-77036594D01*
X159538016Y-76985377D01*
X159555206Y-76939471D01*
X159566433Y-76889400D01*
X159572664Y-76825684D01*
X159574862Y-76738848D01*
X159573993Y-76619414D01*
X159571318Y-76472771D01*
X159571184Y-76466581D01*
X159244522Y-76466581D01*
X159240676Y-76594468D01*
X159231737Y-76717573D01*
X159218513Y-76822697D01*
X159201814Y-76896640D01*
X159192752Y-76917261D01*
X159141797Y-76970147D01*
X159067827Y-77018155D01*
X158994338Y-77047188D01*
X158970989Y-77050321D01*
X158926638Y-77039711D01*
X158865266Y-77013294D01*
X158863469Y-77012370D01*
X158805357Y-76975033D01*
X158763620Y-76927002D01*
X158736063Y-76860254D01*
X158720489Y-76766767D01*
X158714702Y-76638518D01*
X158716328Y-76474796D01*
X158724600Y-76132205D01*
X158807551Y-76058152D01*
X158905035Y-75998193D01*
X159003051Y-75984689D01*
X159093542Y-76014025D01*
X159168451Y-76082590D01*
X159219717Y-76186768D01*
X159233696Y-76249254D01*
X159242465Y-76347110D01*
X159244522Y-76466581D01*
X159571184Y-76466581D01*
X159567905Y-76315284D01*
X159563988Y-76199626D01*
X159558252Y-76116828D01*
X159549377Y-76057927D01*
X159536048Y-76013956D01*
X159516946Y-75975949D01*
X159492734Y-75937926D01*
X159394437Y-75819622D01*
X159278390Y-75741171D01*
X159134596Y-75697122D01*
X159028417Y-75684781D01*
X158858556Y-75686455D01*
X158858556Y-75686455D01*
G37*
X158858556Y-75686455D02*
X158720443Y-75718593D01*
X158602367Y-75785357D01*
X158513181Y-75867881D01*
X158451589Y-75947025D01*
X158407102Y-76036627D01*
X158377951Y-76145160D01*
X158362363Y-76281095D01*
X158358569Y-76452904D01*
X158361746Y-76592386D01*
X158374125Y-76788155D01*
X158398286Y-76941672D01*
X158437774Y-77060815D01*
X158496133Y-77153461D01*
X158576910Y-77227487D01*
X158673800Y-77285777D01*
X158770924Y-77319625D01*
X158894924Y-77341338D01*
X159024365Y-77348993D01*
X159137813Y-77340666D01*
X159178406Y-77331043D01*
X159320998Y-77259898D01*
X159440760Y-77149594D01*
X159513899Y-77036594D01*
X159538016Y-76985377D01*
X159555206Y-76939471D01*
X159566433Y-76889400D01*
X159572664Y-76825684D01*
X159574862Y-76738848D01*
X159573993Y-76619414D01*
X159571318Y-76472771D01*
X159571184Y-76466581D01*
X159244522Y-76466581D01*
X159240676Y-76594468D01*
X159231737Y-76717573D01*
X159218513Y-76822697D01*
X159201814Y-76896640D01*
X159192752Y-76917261D01*
X159141797Y-76970147D01*
X159067827Y-77018155D01*
X158994338Y-77047188D01*
X158970989Y-77050321D01*
X158926638Y-77039711D01*
X158865266Y-77013294D01*
X158863469Y-77012370D01*
X158805357Y-76975033D01*
X158763620Y-76927002D01*
X158736063Y-76860254D01*
X158720489Y-76766767D01*
X158714702Y-76638518D01*
X158716328Y-76474796D01*
X158724600Y-76132205D01*
X158807551Y-76058152D01*
X158905035Y-75998193D01*
X159003051Y-75984689D01*
X159093542Y-76014025D01*
X159168451Y-76082590D01*
X159219717Y-76186768D01*
X159233696Y-76249254D01*
X159242465Y-76347110D01*
X159244522Y-76466581D01*
X159571184Y-76466581D01*
X159567905Y-76315284D01*
X159563988Y-76199626D01*
X159558252Y-76116828D01*
X159549377Y-76057927D01*
X159536048Y-76013956D01*
X159516946Y-75975949D01*
X159492734Y-75937926D01*
X159394437Y-75819622D01*
X159278390Y-75741171D01*
X159134596Y-75697122D01*
X159028417Y-75684781D01*
X158858556Y-75686455D01*
G36*
X151659679Y-75695973D02*
X151515013Y-75752084D01*
X151389857Y-75843503D01*
X151308193Y-75945049D01*
X151278437Y-75995016D01*
X151257357Y-76039652D01*
X151243199Y-76089227D01*
X151234207Y-76154011D01*
X151228628Y-76244275D01*
X151224705Y-76370288D01*
X151222955Y-76443880D01*
X151221252Y-76642764D01*
X151227765Y-76799414D01*
X151244521Y-76922018D01*
X151273546Y-77018764D01*
X151316868Y-77097839D01*
X151376514Y-77167430D01*
X151409721Y-77198276D01*
X151555812Y-77294323D01*
X151722228Y-77344950D01*
X151905044Y-77349372D01*
X152041631Y-77324304D01*
X152143599Y-77277009D01*
X152246753Y-77195896D01*
X152336659Y-77095485D01*
X152398885Y-76990298D01*
X152412528Y-76951137D01*
X152425492Y-76868922D01*
X152433270Y-76742792D01*
X152435575Y-76579396D01*
X152435360Y-76562781D01*
X152093189Y-76562781D01*
X152091071Y-76692799D01*
X152085771Y-76783078D01*
X152075636Y-76844653D01*
X152059015Y-76888563D01*
X152039940Y-76918381D01*
X151953212Y-77002410D01*
X151857102Y-77039609D01*
X151758892Y-77029363D01*
X151665863Y-76971056D01*
X151646730Y-76951624D01*
X151609113Y-76901607D01*
X151584897Y-76841967D01*
X151569031Y-76756966D01*
X151561220Y-76685124D01*
X151553506Y-76519169D01*
X151560090Y-76357984D01*
X151579729Y-76217485D01*
X151604673Y-76128952D01*
X151656735Y-76057193D01*
X151739273Y-76004752D01*
X151832410Y-75984196D01*
X151833589Y-75984194D01*
X151894539Y-75997352D01*
X151965671Y-76029351D01*
X151973172Y-76033783D01*
X152018775Y-76069295D01*
X152051739Y-76117042D01*
X152073853Y-76184910D01*
X152086905Y-76280784D01*
X152092685Y-76412549D01*
X152093189Y-76562781D01*
X152435360Y-76562781D01*
X152433945Y-76453759D01*
X152430308Y-76305604D01*
X152425908Y-76198190D01*
X152419061Y-76121464D01*
X152408087Y-76065375D01*
X152391301Y-76019873D01*
X152367023Y-75974904D01*
X152348808Y-75945045D01*
X152246673Y-75824614D01*
X152117353Y-75739491D01*
X151970188Y-75689677D01*
X151814517Y-75675171D01*
X151659679Y-75695973D01*
X151659679Y-75695973D01*
G37*
X151659679Y-75695973D02*
X151515013Y-75752084D01*
X151389857Y-75843503D01*
X151308193Y-75945049D01*
X151278437Y-75995016D01*
X151257357Y-76039652D01*
X151243199Y-76089227D01*
X151234207Y-76154011D01*
X151228628Y-76244275D01*
X151224705Y-76370288D01*
X151222955Y-76443880D01*
X151221252Y-76642764D01*
X151227765Y-76799414D01*
X151244521Y-76922018D01*
X151273546Y-77018764D01*
X151316868Y-77097839D01*
X151376514Y-77167430D01*
X151409721Y-77198276D01*
X151555812Y-77294323D01*
X151722228Y-77344950D01*
X151905044Y-77349372D01*
X152041631Y-77324304D01*
X152143599Y-77277009D01*
X152246753Y-77195896D01*
X152336659Y-77095485D01*
X152398885Y-76990298D01*
X152412528Y-76951137D01*
X152425492Y-76868922D01*
X152433270Y-76742792D01*
X152435575Y-76579396D01*
X152435360Y-76562781D01*
X152093189Y-76562781D01*
X152091071Y-76692799D01*
X152085771Y-76783078D01*
X152075636Y-76844653D01*
X152059015Y-76888563D01*
X152039940Y-76918381D01*
X151953212Y-77002410D01*
X151857102Y-77039609D01*
X151758892Y-77029363D01*
X151665863Y-76971056D01*
X151646730Y-76951624D01*
X151609113Y-76901607D01*
X151584897Y-76841967D01*
X151569031Y-76756966D01*
X151561220Y-76685124D01*
X151553506Y-76519169D01*
X151560090Y-76357984D01*
X151579729Y-76217485D01*
X151604673Y-76128952D01*
X151656735Y-76057193D01*
X151739273Y-76004752D01*
X151832410Y-75984196D01*
X151833589Y-75984194D01*
X151894539Y-75997352D01*
X151965671Y-76029351D01*
X151973172Y-76033783D01*
X152018775Y-76069295D01*
X152051739Y-76117042D01*
X152073853Y-76184910D01*
X152086905Y-76280784D01*
X152092685Y-76412549D01*
X152093189Y-76562781D01*
X152435360Y-76562781D01*
X152433945Y-76453759D01*
X152430308Y-76305604D01*
X152425908Y-76198190D01*
X152419061Y-76121464D01*
X152408087Y-76065375D01*
X152391301Y-76019873D01*
X152367023Y-75974904D01*
X152348808Y-75945045D01*
X152246673Y-75824614D01*
X152117353Y-75739491D01*
X151970188Y-75689677D01*
X151814517Y-75675171D01*
X151659679Y-75695973D01*
G36*
X144286966Y-75692736D02*
X144141173Y-75728650D01*
X144023797Y-75784116D01*
X143956440Y-75841924D01*
X143939676Y-75870704D01*
X143946050Y-75901098D01*
X143981067Y-75945276D01*
X144022432Y-75987783D01*
X144124583Y-76089935D01*
X144223315Y-76037017D01*
X144336266Y-75995067D01*
X144454662Y-75981643D01*
X144563099Y-75996410D01*
X144646174Y-76039029D01*
X144654155Y-76046445D01*
X144706003Y-76117202D01*
X144711668Y-76186479D01*
X144691806Y-76236781D01*
X144669718Y-76268072D01*
X144635630Y-76291965D01*
X144579647Y-76312165D01*
X144491873Y-76332375D01*
X144381517Y-76352926D01*
X144211898Y-76391785D01*
X144085724Y-76443154D01*
X143996161Y-76512282D01*
X143936374Y-76604418D01*
X143899938Y-76722820D01*
X143888828Y-76887503D01*
X143924561Y-77035367D01*
X144005010Y-77161926D01*
X144128047Y-77262694D01*
X144166020Y-77283744D01*
X144267699Y-77318526D01*
X144400721Y-77340542D01*
X144546988Y-77348699D01*
X144688403Y-77341903D01*
X144797258Y-77321902D01*
X144884092Y-77288784D01*
X144969969Y-77242206D01*
X145042162Y-77190801D01*
X145087939Y-77143203D01*
X145097500Y-77118262D01*
X145080501Y-77084040D01*
X145036804Y-77029879D01*
X144997779Y-76989233D01*
X144898057Y-76891858D01*
X144832384Y-76943516D01*
X144721592Y-77003810D01*
X144589762Y-77035201D01*
X144454309Y-77036376D01*
X144332646Y-77006021D01*
X144291050Y-76984321D01*
X144248510Y-76930767D01*
X144233097Y-76854896D01*
X144246302Y-76778245D01*
X144273815Y-76735214D01*
X144307053Y-76703718D01*
X144318265Y-76695265D01*
X144379326Y-76688565D01*
X144471996Y-76671566D01*
X144580229Y-76647998D01*
X144687979Y-76621594D01*
X144779200Y-76596086D01*
X144837846Y-76575207D01*
X144840948Y-76573697D01*
X144936454Y-76498655D01*
X145002582Y-76392446D01*
X145038080Y-76266209D01*
X145041697Y-76131081D01*
X145012179Y-75998199D01*
X144948276Y-75878701D01*
X144922594Y-75847547D01*
X144823047Y-75763072D01*
X144701866Y-75709576D01*
X144549667Y-75683734D01*
X144449800Y-75680105D01*
X144286966Y-75692736D01*
X144286966Y-75692736D01*
G37*
X144286966Y-75692736D02*
X144141173Y-75728650D01*
X144023797Y-75784116D01*
X143956440Y-75841924D01*
X143939676Y-75870704D01*
X143946050Y-75901098D01*
X143981067Y-75945276D01*
X144022432Y-75987783D01*
X144124583Y-76089935D01*
X144223315Y-76037017D01*
X144336266Y-75995067D01*
X144454662Y-75981643D01*
X144563099Y-75996410D01*
X144646174Y-76039029D01*
X144654155Y-76046445D01*
X144706003Y-76117202D01*
X144711668Y-76186479D01*
X144691806Y-76236781D01*
X144669718Y-76268072D01*
X144635630Y-76291965D01*
X144579647Y-76312165D01*
X144491873Y-76332375D01*
X144381517Y-76352926D01*
X144211898Y-76391785D01*
X144085724Y-76443154D01*
X143996161Y-76512282D01*
X143936374Y-76604418D01*
X143899938Y-76722820D01*
X143888828Y-76887503D01*
X143924561Y-77035367D01*
X144005010Y-77161926D01*
X144128047Y-77262694D01*
X144166020Y-77283744D01*
X144267699Y-77318526D01*
X144400721Y-77340542D01*
X144546988Y-77348699D01*
X144688403Y-77341903D01*
X144797258Y-77321902D01*
X144884092Y-77288784D01*
X144969969Y-77242206D01*
X145042162Y-77190801D01*
X145087939Y-77143203D01*
X145097500Y-77118262D01*
X145080501Y-77084040D01*
X145036804Y-77029879D01*
X144997779Y-76989233D01*
X144898057Y-76891858D01*
X144832384Y-76943516D01*
X144721592Y-77003810D01*
X144589762Y-77035201D01*
X144454309Y-77036376D01*
X144332646Y-77006021D01*
X144291050Y-76984321D01*
X144248510Y-76930767D01*
X144233097Y-76854896D01*
X144246302Y-76778245D01*
X144273815Y-76735214D01*
X144307053Y-76703718D01*
X144318265Y-76695265D01*
X144379326Y-76688565D01*
X144471996Y-76671566D01*
X144580229Y-76647998D01*
X144687979Y-76621594D01*
X144779200Y-76596086D01*
X144837846Y-76575207D01*
X144840948Y-76573697D01*
X144936454Y-76498655D01*
X145002582Y-76392446D01*
X145038080Y-76266209D01*
X145041697Y-76131081D01*
X145012179Y-75998199D01*
X144948276Y-75878701D01*
X144922594Y-75847547D01*
X144823047Y-75763072D01*
X144701866Y-75709576D01*
X144549667Y-75683734D01*
X144449800Y-75680105D01*
X144286966Y-75692736D01*
G36*
X136974832Y-75699918D02*
X136821976Y-75758551D01*
X136701126Y-75856500D01*
X136611974Y-75993951D01*
X136600576Y-76019752D01*
X136577001Y-76105129D01*
X136558875Y-76227261D01*
X136546911Y-76372322D01*
X136541822Y-76526488D01*
X136544320Y-76675934D01*
X136555118Y-76806837D01*
X136558713Y-76831994D01*
X136601714Y-77001204D01*
X136674002Y-77133359D01*
X136780145Y-77235786D01*
X136831132Y-77268923D01*
X136955825Y-77319949D01*
X137103125Y-77347051D01*
X137251898Y-77348232D01*
X137381010Y-77321494D01*
X137382302Y-77321015D01*
X137535494Y-77239186D01*
X137654164Y-77122613D01*
X137709332Y-77032540D01*
X137732543Y-76980822D01*
X137748811Y-76929768D01*
X137759369Y-76869026D01*
X137765447Y-76788246D01*
X137768276Y-76677076D01*
X137768497Y-76636730D01*
X137424207Y-76636730D01*
X137416400Y-76770737D01*
X137397357Y-76868812D01*
X137365081Y-76938131D01*
X137317575Y-76985867D01*
X137268901Y-77012632D01*
X137202362Y-77039725D01*
X137156810Y-77046861D01*
X137107074Y-77034169D01*
X137056671Y-77013714D01*
X136993372Y-76976939D01*
X136947915Y-76922620D01*
X136917812Y-76843198D01*
X136900573Y-76731116D01*
X136893712Y-76578816D01*
X136893300Y-76517500D01*
X136897516Y-76350895D01*
X136909898Y-76226568D01*
X136928717Y-76151703D01*
X136992159Y-76053948D01*
X137077701Y-75997748D01*
X137175823Y-75985317D01*
X137277005Y-76018866D01*
X137331050Y-76058200D01*
X137414000Y-76132300D01*
X137422773Y-76459618D01*
X137424207Y-76636730D01*
X137768497Y-76636730D01*
X137769082Y-76530200D01*
X137767306Y-76349395D01*
X137760042Y-76209957D01*
X137745220Y-76102565D01*
X137720772Y-76017901D01*
X137684628Y-75946645D01*
X137634720Y-75879479D01*
X137621080Y-75863634D01*
X137512136Y-75767217D01*
X137383191Y-75707991D01*
X137224849Y-75682221D01*
X137160000Y-75680415D01*
X136974832Y-75699918D01*
X136974832Y-75699918D01*
G37*
X136974832Y-75699918D02*
X136821976Y-75758551D01*
X136701126Y-75856500D01*
X136611974Y-75993951D01*
X136600576Y-76019752D01*
X136577001Y-76105129D01*
X136558875Y-76227261D01*
X136546911Y-76372322D01*
X136541822Y-76526488D01*
X136544320Y-76675934D01*
X136555118Y-76806837D01*
X136558713Y-76831994D01*
X136601714Y-77001204D01*
X136674002Y-77133359D01*
X136780145Y-77235786D01*
X136831132Y-77268923D01*
X136955825Y-77319949D01*
X137103125Y-77347051D01*
X137251898Y-77348232D01*
X137381010Y-77321494D01*
X137382302Y-77321015D01*
X137535494Y-77239186D01*
X137654164Y-77122613D01*
X137709332Y-77032540D01*
X137732543Y-76980822D01*
X137748811Y-76929768D01*
X137759369Y-76869026D01*
X137765447Y-76788246D01*
X137768276Y-76677076D01*
X137768497Y-76636730D01*
X137424207Y-76636730D01*
X137416400Y-76770737D01*
X137397357Y-76868812D01*
X137365081Y-76938131D01*
X137317575Y-76985867D01*
X137268901Y-77012632D01*
X137202362Y-77039725D01*
X137156810Y-77046861D01*
X137107074Y-77034169D01*
X137056671Y-77013714D01*
X136993372Y-76976939D01*
X136947915Y-76922620D01*
X136917812Y-76843198D01*
X136900573Y-76731116D01*
X136893712Y-76578816D01*
X136893300Y-76517500D01*
X136897516Y-76350895D01*
X136909898Y-76226568D01*
X136928717Y-76151703D01*
X136992159Y-76053948D01*
X137077701Y-75997748D01*
X137175823Y-75985317D01*
X137277005Y-76018866D01*
X137331050Y-76058200D01*
X137414000Y-76132300D01*
X137422773Y-76459618D01*
X137424207Y-76636730D01*
X137768497Y-76636730D01*
X137769082Y-76530200D01*
X137767306Y-76349395D01*
X137760042Y-76209957D01*
X137745220Y-76102565D01*
X137720772Y-76017901D01*
X137684628Y-75946645D01*
X137634720Y-75879479D01*
X137621080Y-75863634D01*
X137512136Y-75767217D01*
X137383191Y-75707991D01*
X137224849Y-75682221D01*
X137160000Y-75680415D01*
X136974832Y-75699918D01*
G36*
X126091947Y-75691692D02*
X126031628Y-75704461D01*
X125946974Y-75738105D01*
X125866355Y-75781308D01*
X125803014Y-75825695D01*
X125770193Y-75862894D01*
X125768274Y-75870995D01*
X125785067Y-75902487D01*
X125828299Y-75954409D01*
X125864390Y-75991614D01*
X125960680Y-76085638D01*
X126060261Y-76034869D01*
X126176358Y-75992730D01*
X126289919Y-75981054D01*
X126391383Y-75997316D01*
X126471188Y-76038990D01*
X126519773Y-76103551D01*
X126530100Y-76158952D01*
X126518643Y-76221813D01*
X126479876Y-76270005D01*
X126407210Y-76307554D01*
X126294052Y-76338484D01*
X126209897Y-76354527D01*
X126045671Y-76390551D01*
X125924081Y-76436898D01*
X125837270Y-76498320D01*
X125777381Y-76579569D01*
X125754828Y-76629764D01*
X125719023Y-76785146D01*
X125727207Y-76936873D01*
X125776136Y-77075846D01*
X125862566Y-77192962D01*
X125983255Y-77279119D01*
X125986864Y-77280886D01*
X126098689Y-77318300D01*
X126239770Y-77341823D01*
X126390065Y-77349832D01*
X126529534Y-77340704D01*
X126587645Y-77329535D01*
X126690761Y-77295591D01*
X126792130Y-77248972D01*
X126874092Y-77198631D01*
X126910558Y-77165853D01*
X126925057Y-77138382D01*
X126916611Y-77106739D01*
X126879730Y-77059820D01*
X126834896Y-77012795D01*
X126725076Y-76900897D01*
X126657541Y-76948986D01*
X126557733Y-76999537D01*
X126435216Y-77033253D01*
X126314875Y-77044457D01*
X126260992Y-77039423D01*
X126175417Y-77007801D01*
X126102495Y-76953951D01*
X126056396Y-76890335D01*
X126047500Y-76851668D01*
X126061752Y-76784967D01*
X126108306Y-76733988D01*
X126192857Y-76695167D01*
X126321104Y-76664939D01*
X126355064Y-76659198D01*
X126529086Y-76623207D01*
X126659677Y-76575682D01*
X126753738Y-76511972D01*
X126818171Y-76427425D01*
X126859379Y-76319272D01*
X126878380Y-76158790D01*
X126850401Y-76008927D01*
X126778082Y-75876891D01*
X126664066Y-75769894D01*
X126656159Y-75764561D01*
X126592058Y-75727665D01*
X126525286Y-75704674D01*
X126438800Y-75691253D01*
X126340844Y-75684326D01*
X126205769Y-75682669D01*
X126091947Y-75691692D01*
X126091947Y-75691692D01*
G37*
X126091947Y-75691692D02*
X126031628Y-75704461D01*
X125946974Y-75738105D01*
X125866355Y-75781308D01*
X125803014Y-75825695D01*
X125770193Y-75862894D01*
X125768274Y-75870995D01*
X125785067Y-75902487D01*
X125828299Y-75954409D01*
X125864390Y-75991614D01*
X125960680Y-76085638D01*
X126060261Y-76034869D01*
X126176358Y-75992730D01*
X126289919Y-75981054D01*
X126391383Y-75997316D01*
X126471188Y-76038990D01*
X126519773Y-76103551D01*
X126530100Y-76158952D01*
X126518643Y-76221813D01*
X126479876Y-76270005D01*
X126407210Y-76307554D01*
X126294052Y-76338484D01*
X126209897Y-76354527D01*
X126045671Y-76390551D01*
X125924081Y-76436898D01*
X125837270Y-76498320D01*
X125777381Y-76579569D01*
X125754828Y-76629764D01*
X125719023Y-76785146D01*
X125727207Y-76936873D01*
X125776136Y-77075846D01*
X125862566Y-77192962D01*
X125983255Y-77279119D01*
X125986864Y-77280886D01*
X126098689Y-77318300D01*
X126239770Y-77341823D01*
X126390065Y-77349832D01*
X126529534Y-77340704D01*
X126587645Y-77329535D01*
X126690761Y-77295591D01*
X126792130Y-77248972D01*
X126874092Y-77198631D01*
X126910558Y-77165853D01*
X126925057Y-77138382D01*
X126916611Y-77106739D01*
X126879730Y-77059820D01*
X126834896Y-77012795D01*
X126725076Y-76900897D01*
X126657541Y-76948986D01*
X126557733Y-76999537D01*
X126435216Y-77033253D01*
X126314875Y-77044457D01*
X126260992Y-77039423D01*
X126175417Y-77007801D01*
X126102495Y-76953951D01*
X126056396Y-76890335D01*
X126047500Y-76851668D01*
X126061752Y-76784967D01*
X126108306Y-76733988D01*
X126192857Y-76695167D01*
X126321104Y-76664939D01*
X126355064Y-76659198D01*
X126529086Y-76623207D01*
X126659677Y-76575682D01*
X126753738Y-76511972D01*
X126818171Y-76427425D01*
X126859379Y-76319272D01*
X126878380Y-76158790D01*
X126850401Y-76008927D01*
X126778082Y-75876891D01*
X126664066Y-75769894D01*
X126656159Y-75764561D01*
X126592058Y-75727665D01*
X126525286Y-75704674D01*
X126438800Y-75691253D01*
X126340844Y-75684326D01*
X126205769Y-75682669D01*
X126091947Y-75691692D01*
G36*
X163071254Y-76110375D02*
X162862032Y-76541450D01*
X162449800Y-75679300D01*
X162115500Y-75679300D01*
X162115500Y-77330300D01*
X162445700Y-77330300D01*
X162448652Y-76428600D01*
X162592706Y-76714350D01*
X162736761Y-77000100D01*
X162992840Y-77000100D01*
X163136895Y-76714350D01*
X163280949Y-76428600D01*
X163282425Y-76879450D01*
X163283900Y-77330300D01*
X163614100Y-77330300D01*
X163614100Y-75679300D01*
X163280477Y-75679300D01*
X163071254Y-76110375D01*
X163071254Y-76110375D01*
G37*
X163071254Y-76110375D02*
X162862032Y-76541450D01*
X162449800Y-75679300D01*
X162115500Y-75679300D01*
X162115500Y-77330300D01*
X162445700Y-77330300D01*
X162448652Y-76428600D01*
X162592706Y-76714350D01*
X162736761Y-77000100D01*
X162992840Y-77000100D01*
X163136895Y-76714350D01*
X163280949Y-76428600D01*
X163282425Y-76879450D01*
X163283900Y-77330300D01*
X163614100Y-77330300D01*
X163614100Y-75679300D01*
X163280477Y-75679300D01*
X163071254Y-76110375D01*
G36*
X154800300Y-75984100D02*
X155232100Y-75984100D01*
X155232100Y-77330300D01*
X155562300Y-77330300D01*
X155562300Y-75984100D01*
X155994100Y-75984100D01*
X155994100Y-75679300D01*
X154800300Y-75679300D01*
X154800300Y-75984100D01*
X154800300Y-75984100D01*
G37*
X154800300Y-75984100D02*
X155232100Y-75984100D01*
X155232100Y-77330300D01*
X155562300Y-77330300D01*
X155562300Y-75984100D01*
X155994100Y-75984100D01*
X155994100Y-75679300D01*
X154800300Y-75679300D01*
X154800300Y-75984100D01*
G36*
X148329650Y-75679905D02*
X148192274Y-75681760D01*
X148064834Y-75686403D01*
X147960203Y-75693168D01*
X147891253Y-75701392D01*
X147883847Y-75702925D01*
X147739482Y-75760359D01*
X147624519Y-75854274D01*
X147543640Y-75976770D01*
X147501522Y-76119950D01*
X147502847Y-76275914D01*
X147513430Y-76328111D01*
X147547091Y-76412880D01*
X147600257Y-76496848D01*
X147662301Y-76567152D01*
X147722597Y-76610923D01*
X147753773Y-76619100D01*
X147761589Y-76634692D01*
X147747315Y-76683463D01*
X147709709Y-76768408D01*
X147647532Y-76892520D01*
X147613227Y-76958115D01*
X147550888Y-77077274D01*
X147498002Y-77180356D01*
X147458707Y-77259136D01*
X147437142Y-77305389D01*
X147434300Y-77313715D01*
X147457674Y-77321480D01*
X147519710Y-77327299D01*
X147608276Y-77330163D01*
X147633820Y-77330300D01*
X147833339Y-77330300D01*
X147983070Y-77013085D01*
X148132800Y-76695871D01*
X148240750Y-76695585D01*
X148348700Y-76695300D01*
X148348700Y-77330300D01*
X148678900Y-77330300D01*
X148678900Y-76390500D01*
X148348700Y-76390500D01*
X148157046Y-76390500D01*
X148055083Y-76388601D01*
X147989101Y-76380491D01*
X147944347Y-76362549D01*
X147906069Y-76331153D01*
X147903046Y-76328154D01*
X147850814Y-76247305D01*
X147848768Y-76161511D01*
X147896952Y-76073974D01*
X147899565Y-76070899D01*
X147935934Y-76035056D01*
X147978615Y-76012802D01*
X148041917Y-75999577D01*
X148140148Y-75990820D01*
X148153565Y-75989942D01*
X148348700Y-75977419D01*
X148348700Y-76390500D01*
X148678900Y-76390500D01*
X148678900Y-75679300D01*
X148329650Y-75679905D01*
X148329650Y-75679905D01*
G37*
X148329650Y-75679905D02*
X148192274Y-75681760D01*
X148064834Y-75686403D01*
X147960203Y-75693168D01*
X147891253Y-75701392D01*
X147883847Y-75702925D01*
X147739482Y-75760359D01*
X147624519Y-75854274D01*
X147543640Y-75976770D01*
X147501522Y-76119950D01*
X147502847Y-76275914D01*
X147513430Y-76328111D01*
X147547091Y-76412880D01*
X147600257Y-76496848D01*
X147662301Y-76567152D01*
X147722597Y-76610923D01*
X147753773Y-76619100D01*
X147761589Y-76634692D01*
X147747315Y-76683463D01*
X147709709Y-76768408D01*
X147647532Y-76892520D01*
X147613227Y-76958115D01*
X147550888Y-77077274D01*
X147498002Y-77180356D01*
X147458707Y-77259136D01*
X147437142Y-77305389D01*
X147434300Y-77313715D01*
X147457674Y-77321480D01*
X147519710Y-77327299D01*
X147608276Y-77330163D01*
X147633820Y-77330300D01*
X147833339Y-77330300D01*
X147983070Y-77013085D01*
X148132800Y-76695871D01*
X148240750Y-76695585D01*
X148348700Y-76695300D01*
X148348700Y-77330300D01*
X148678900Y-77330300D01*
X148678900Y-76390500D01*
X148348700Y-76390500D01*
X148157046Y-76390500D01*
X148055083Y-76388601D01*
X147989101Y-76380491D01*
X147944347Y-76362549D01*
X147906069Y-76331153D01*
X147903046Y-76328154D01*
X147850814Y-76247305D01*
X147848768Y-76161511D01*
X147896952Y-76073974D01*
X147899565Y-76070899D01*
X147935934Y-76035056D01*
X147978615Y-76012802D01*
X148041917Y-75999577D01*
X148140148Y-75990820D01*
X148153565Y-75989942D01*
X148348700Y-75977419D01*
X148348700Y-76390500D01*
X148678900Y-76390500D01*
X148678900Y-75679300D01*
X148329650Y-75679905D01*
G36*
X141027150Y-75679441D02*
X140848421Y-75681470D01*
X140710751Y-75688497D01*
X140604508Y-75702174D01*
X140520063Y-75724152D01*
X140447784Y-75756081D01*
X140395513Y-75787720D01*
X140305212Y-75875827D01*
X140239004Y-75996482D01*
X140200821Y-76135605D01*
X140194596Y-76279116D01*
X140222316Y-76407896D01*
X140296013Y-76535715D01*
X140407885Y-76630068D01*
X140557955Y-76690965D01*
X140746249Y-76718421D01*
X140811250Y-76720142D01*
X141033500Y-76720700D01*
X141033500Y-77330300D01*
X141389100Y-77330300D01*
X141389100Y-75984100D01*
X141033500Y-75984100D01*
X141033500Y-76415900D01*
X140859126Y-76415900D01*
X140751934Y-76411914D01*
X140679673Y-76397787D01*
X140626943Y-76370264D01*
X140620680Y-76365501D01*
X140555555Y-76287216D01*
X140537996Y-76196299D01*
X140562290Y-76113634D01*
X140623133Y-76044575D01*
X140722167Y-76001962D01*
X140862398Y-75984635D01*
X140897591Y-75984100D01*
X141033500Y-75984100D01*
X141389100Y-75984100D01*
X141389100Y-75679300D01*
X141027150Y-75679441D01*
X141027150Y-75679441D01*
G37*
X141027150Y-75679441D02*
X140848421Y-75681470D01*
X140710751Y-75688497D01*
X140604508Y-75702174D01*
X140520063Y-75724152D01*
X140447784Y-75756081D01*
X140395513Y-75787720D01*
X140305212Y-75875827D01*
X140239004Y-75996482D01*
X140200821Y-76135605D01*
X140194596Y-76279116D01*
X140222316Y-76407896D01*
X140296013Y-76535715D01*
X140407885Y-76630068D01*
X140557955Y-76690965D01*
X140746249Y-76718421D01*
X140811250Y-76720142D01*
X141033500Y-76720700D01*
X141033500Y-77330300D01*
X141389100Y-77330300D01*
X141389100Y-75984100D01*
X141033500Y-75984100D01*
X141033500Y-76415900D01*
X140859126Y-76415900D01*
X140751934Y-76411914D01*
X140679673Y-76397787D01*
X140626943Y-76370264D01*
X140620680Y-76365501D01*
X140555555Y-76287216D01*
X140537996Y-76196299D01*
X140562290Y-76113634D01*
X140623133Y-76044575D01*
X140722167Y-76001962D01*
X140862398Y-75984635D01*
X140897591Y-75984100D01*
X141033500Y-75984100D01*
X141389100Y-75984100D01*
X141389100Y-75679300D01*
X141027150Y-75679441D01*
G36*
X133661150Y-75679441D02*
X133475271Y-75681920D01*
X133330991Y-75690303D01*
X133219288Y-75706255D01*
X133131137Y-75731442D01*
X133057517Y-75767529D01*
X133010686Y-75799495D01*
X132921161Y-75896656D01*
X132860111Y-76023605D01*
X132831080Y-76165870D01*
X132837610Y-76308978D01*
X132863947Y-76398851D01*
X132906664Y-76468602D01*
X132971285Y-76541416D01*
X133040798Y-76600002D01*
X133085521Y-76624073D01*
X133085802Y-76649538D01*
X133062217Y-76714507D01*
X133016613Y-76814676D01*
X132950839Y-76945739D01*
X132931841Y-76982102D01*
X132748665Y-77330300D01*
X133162988Y-77330300D01*
X133466742Y-76695300D01*
X133667500Y-76695300D01*
X133667500Y-77330300D01*
X134023100Y-77330300D01*
X134023100Y-75984100D01*
X133667500Y-75984100D01*
X133667500Y-76390500D01*
X133483350Y-76389692D01*
X133373416Y-76384397D01*
X133291626Y-76370819D01*
X133255749Y-76355872D01*
X133196108Y-76282474D01*
X133176652Y-76192796D01*
X133196915Y-76112426D01*
X133258286Y-76043678D01*
X133358934Y-76001345D01*
X133501283Y-75984497D01*
X133531591Y-75984100D01*
X133667500Y-75984100D01*
X134023100Y-75984100D01*
X134023100Y-75679300D01*
X133661150Y-75679441D01*
X133661150Y-75679441D01*
G37*
X133661150Y-75679441D02*
X133475271Y-75681920D01*
X133330991Y-75690303D01*
X133219288Y-75706255D01*
X133131137Y-75731442D01*
X133057517Y-75767529D01*
X133010686Y-75799495D01*
X132921161Y-75896656D01*
X132860111Y-76023605D01*
X132831080Y-76165870D01*
X132837610Y-76308978D01*
X132863947Y-76398851D01*
X132906664Y-76468602D01*
X132971285Y-76541416D01*
X133040798Y-76600002D01*
X133085521Y-76624073D01*
X133085802Y-76649538D01*
X133062217Y-76714507D01*
X133016613Y-76814676D01*
X132950839Y-76945739D01*
X132931841Y-76982102D01*
X132748665Y-77330300D01*
X133162988Y-77330300D01*
X133466742Y-76695300D01*
X133667500Y-76695300D01*
X133667500Y-77330300D01*
X134023100Y-77330300D01*
X134023100Y-75984100D01*
X133667500Y-75984100D01*
X133667500Y-76390500D01*
X133483350Y-76389692D01*
X133373416Y-76384397D01*
X133291626Y-76370819D01*
X133255749Y-76355872D01*
X133196108Y-76282474D01*
X133176652Y-76192796D01*
X133196915Y-76112426D01*
X133258286Y-76043678D01*
X133358934Y-76001345D01*
X133501283Y-75984497D01*
X133531591Y-75984100D01*
X133667500Y-75984100D01*
X134023100Y-75984100D01*
X134023100Y-75679300D01*
X133661150Y-75679441D01*
G36*
X129247900Y-75984100D02*
X129679700Y-75984100D01*
X129679700Y-77330300D01*
X130035300Y-77330300D01*
X130035300Y-75984100D01*
X130441700Y-75984100D01*
X130441700Y-75679300D01*
X129247900Y-75679300D01*
X129247900Y-75984100D01*
X129247900Y-75984100D01*
G37*
X129247900Y-75984100D02*
X129679700Y-75984100D01*
X129679700Y-77330300D01*
X130035300Y-77330300D01*
X130035300Y-75984100D01*
X130441700Y-75984100D01*
X130441700Y-75679300D01*
X129247900Y-75679300D01*
X129247900Y-75984100D01*
G36*
X162182690Y-69126407D02*
X162097540Y-69128399D01*
X162046819Y-69133680D01*
X162022342Y-69143856D01*
X162015924Y-69160532D01*
X162018980Y-69183249D01*
X162027346Y-69214991D01*
X162048797Y-69292308D01*
X162082407Y-69411945D01*
X162127251Y-69570648D01*
X162182403Y-69765163D01*
X162246936Y-69992234D01*
X162319926Y-70248608D01*
X162400445Y-70531030D01*
X162487570Y-70836246D01*
X162580373Y-71161000D01*
X162677929Y-71502038D01*
X162777591Y-71850097D01*
X163525200Y-74459795D01*
X163835136Y-74459947D01*
X164145071Y-74460100D01*
X164112503Y-74351884D01*
X164101129Y-74312946D01*
X164076732Y-74228549D01*
X164040282Y-74102069D01*
X163992749Y-73936882D01*
X163935103Y-73736364D01*
X163868312Y-73503890D01*
X163793347Y-73242837D01*
X163711178Y-72956580D01*
X163622774Y-72648496D01*
X163529105Y-72321961D01*
X163431140Y-71980350D01*
X163346432Y-71684884D01*
X162612929Y-69126100D01*
X162310454Y-69126100D01*
X162182690Y-69126407D01*
X162182690Y-69126407D01*
G37*
X162182690Y-69126407D02*
X162097540Y-69128399D01*
X162046819Y-69133680D01*
X162022342Y-69143856D01*
X162015924Y-69160532D01*
X162018980Y-69183249D01*
X162027346Y-69214991D01*
X162048797Y-69292308D01*
X162082407Y-69411945D01*
X162127251Y-69570648D01*
X162182403Y-69765163D01*
X162246936Y-69992234D01*
X162319926Y-70248608D01*
X162400445Y-70531030D01*
X162487570Y-70836246D01*
X162580373Y-71161000D01*
X162677929Y-71502038D01*
X162777591Y-71850097D01*
X163525200Y-74459795D01*
X163835136Y-74459947D01*
X164145071Y-74460100D01*
X164112503Y-74351884D01*
X164101129Y-74312946D01*
X164076732Y-74228549D01*
X164040282Y-74102069D01*
X163992749Y-73936882D01*
X163935103Y-73736364D01*
X163868312Y-73503890D01*
X163793347Y-73242837D01*
X163711178Y-72956580D01*
X163622774Y-72648496D01*
X163529105Y-72321961D01*
X163431140Y-71980350D01*
X163346432Y-71684884D01*
X162612929Y-69126100D01*
X162310454Y-69126100D01*
X162182690Y-69126407D01*
G36*
X160470286Y-69129984D02*
X160389793Y-69132380D01*
X160337663Y-69136867D01*
X160308288Y-69143778D01*
X160296060Y-69153447D01*
X160295370Y-69166207D01*
X160296402Y-69170117D01*
X160305132Y-69200355D01*
X160326876Y-69276090D01*
X160360677Y-69393980D01*
X160405578Y-69550679D01*
X160460622Y-69742845D01*
X160524850Y-69967134D01*
X160597306Y-70220203D01*
X160677032Y-70498708D01*
X160763071Y-70799306D01*
X160854465Y-71118653D01*
X160950257Y-71453406D01*
X161011115Y-71666100D01*
X161110067Y-72011896D01*
X161205856Y-72346564D01*
X161297458Y-72666527D01*
X161383849Y-72968211D01*
X161464004Y-73248042D01*
X161536898Y-73502444D01*
X161601509Y-73727843D01*
X161656810Y-73920664D01*
X161701778Y-74077332D01*
X161735389Y-74194273D01*
X161756617Y-74267911D01*
X161762640Y-74288650D01*
X161812852Y-74460100D01*
X162459476Y-74460100D01*
X162666737Y-74459551D01*
X162827821Y-74457754D01*
X162947341Y-74454482D01*
X163029910Y-74449508D01*
X163080139Y-74442605D01*
X163102643Y-74433545D01*
X163104951Y-74428350D01*
X163097915Y-74400125D01*
X163077729Y-74326284D01*
X163045304Y-74210026D01*
X163001548Y-74054552D01*
X162947372Y-73863060D01*
X162883684Y-73638750D01*
X162811396Y-73384822D01*
X162731417Y-73104475D01*
X162644656Y-72800909D01*
X162552023Y-72477323D01*
X162454429Y-72136917D01*
X162352782Y-71782891D01*
X162348417Y-71767700D01*
X161593034Y-69138800D01*
X160938018Y-69132017D01*
X160738790Y-69130136D01*
X160584749Y-69129347D01*
X160470286Y-69129984D01*
X160470286Y-69129984D01*
G37*
X160470286Y-69129984D02*
X160389793Y-69132380D01*
X160337663Y-69136867D01*
X160308288Y-69143778D01*
X160296060Y-69153447D01*
X160295370Y-69166207D01*
X160296402Y-69170117D01*
X160305132Y-69200355D01*
X160326876Y-69276090D01*
X160360677Y-69393980D01*
X160405578Y-69550679D01*
X160460622Y-69742845D01*
X160524850Y-69967134D01*
X160597306Y-70220203D01*
X160677032Y-70498708D01*
X160763071Y-70799306D01*
X160854465Y-71118653D01*
X160950257Y-71453406D01*
X161011115Y-71666100D01*
X161110067Y-72011896D01*
X161205856Y-72346564D01*
X161297458Y-72666527D01*
X161383849Y-72968211D01*
X161464004Y-73248042D01*
X161536898Y-73502444D01*
X161601509Y-73727843D01*
X161656810Y-73920664D01*
X161701778Y-74077332D01*
X161735389Y-74194273D01*
X161756617Y-74267911D01*
X161762640Y-74288650D01*
X161812852Y-74460100D01*
X162459476Y-74460100D01*
X162666737Y-74459551D01*
X162827821Y-74457754D01*
X162947341Y-74454482D01*
X163029910Y-74449508D01*
X163080139Y-74442605D01*
X163102643Y-74433545D01*
X163104951Y-74428350D01*
X163097915Y-74400125D01*
X163077729Y-74326284D01*
X163045304Y-74210026D01*
X163001548Y-74054552D01*
X162947372Y-73863060D01*
X162883684Y-73638750D01*
X162811396Y-73384822D01*
X162731417Y-73104475D01*
X162644656Y-72800909D01*
X162552023Y-72477323D01*
X162454429Y-72136917D01*
X162352782Y-71782891D01*
X162348417Y-71767700D01*
X161593034Y-69138800D01*
X160938018Y-69132017D01*
X160738790Y-69130136D01*
X160584749Y-69129347D01*
X160470286Y-69129984D01*
G36*
X158637221Y-69126211D02*
X158432661Y-69126684D01*
X158269719Y-69127728D01*
X158143802Y-69129551D01*
X158050321Y-69132361D01*
X157984683Y-69136367D01*
X157942298Y-69141778D01*
X157918573Y-69148802D01*
X157908919Y-69157648D01*
X157908743Y-69168523D01*
X157909314Y-69170550D01*
X157918038Y-69200581D01*
X157939811Y-69276195D01*
X157973701Y-69394136D01*
X158018773Y-69551149D01*
X158074094Y-69743979D01*
X158138731Y-69969371D01*
X158211751Y-70224069D01*
X158292219Y-70504818D01*
X158379203Y-70808363D01*
X158471770Y-71131448D01*
X158568985Y-71470819D01*
X158661290Y-71793100D01*
X158761942Y-72144527D01*
X158858796Y-72482651D01*
X158950920Y-72804215D01*
X159037379Y-73105964D01*
X159117242Y-73384642D01*
X159189575Y-73636996D01*
X159253445Y-73859769D01*
X159307918Y-74049706D01*
X159352061Y-74203553D01*
X159384942Y-74318053D01*
X159405628Y-74389952D01*
X159413077Y-74415650D01*
X159419327Y-74426913D01*
X159433741Y-74436104D01*
X159461043Y-74443431D01*
X159505955Y-74449104D01*
X159573202Y-74453331D01*
X159667505Y-74456321D01*
X159793589Y-74458284D01*
X159956176Y-74459429D01*
X160159990Y-74459964D01*
X160409754Y-74460099D01*
X160417124Y-74460100D01*
X160667648Y-74459988D01*
X160871966Y-74459514D01*
X161034670Y-74458469D01*
X161160354Y-74456643D01*
X161253611Y-74453828D01*
X161319033Y-74449815D01*
X161361215Y-74444393D01*
X161384748Y-74437355D01*
X161394227Y-74428491D01*
X161394244Y-74417593D01*
X161393676Y-74415650D01*
X161383962Y-74382688D01*
X161361573Y-74305417D01*
X161327610Y-74187679D01*
X161283176Y-74033315D01*
X161229370Y-73846169D01*
X161167293Y-73630081D01*
X161098047Y-73388896D01*
X161022732Y-73126453D01*
X160942450Y-72846597D01*
X160858300Y-72553169D01*
X160771386Y-72250010D01*
X160682806Y-71940964D01*
X160593662Y-71629873D01*
X160505056Y-71320578D01*
X160418088Y-71016923D01*
X160333858Y-70722748D01*
X160253469Y-70441897D01*
X160178020Y-70178211D01*
X160108613Y-69935533D01*
X160046349Y-69717704D01*
X159992329Y-69528568D01*
X159947654Y-69371966D01*
X159913424Y-69251740D01*
X159890741Y-69171733D01*
X159880705Y-69135786D01*
X159880300Y-69134141D01*
X159855807Y-69132367D01*
X159785955Y-69130729D01*
X159676183Y-69129270D01*
X159531934Y-69128035D01*
X159358647Y-69127068D01*
X159161762Y-69126413D01*
X158946722Y-69126114D01*
X158887989Y-69126100D01*
X158637221Y-69126211D01*
X158637221Y-69126211D01*
G37*
X158637221Y-69126211D02*
X158432661Y-69126684D01*
X158269719Y-69127728D01*
X158143802Y-69129551D01*
X158050321Y-69132361D01*
X157984683Y-69136367D01*
X157942298Y-69141778D01*
X157918573Y-69148802D01*
X157908919Y-69157648D01*
X157908743Y-69168523D01*
X157909314Y-69170550D01*
X157918038Y-69200581D01*
X157939811Y-69276195D01*
X157973701Y-69394136D01*
X158018773Y-69551149D01*
X158074094Y-69743979D01*
X158138731Y-69969371D01*
X158211751Y-70224069D01*
X158292219Y-70504818D01*
X158379203Y-70808363D01*
X158471770Y-71131448D01*
X158568985Y-71470819D01*
X158661290Y-71793100D01*
X158761942Y-72144527D01*
X158858796Y-72482651D01*
X158950920Y-72804215D01*
X159037379Y-73105964D01*
X159117242Y-73384642D01*
X159189575Y-73636996D01*
X159253445Y-73859769D01*
X159307918Y-74049706D01*
X159352061Y-74203553D01*
X159384942Y-74318053D01*
X159405628Y-74389952D01*
X159413077Y-74415650D01*
X159419327Y-74426913D01*
X159433741Y-74436104D01*
X159461043Y-74443431D01*
X159505955Y-74449104D01*
X159573202Y-74453331D01*
X159667505Y-74456321D01*
X159793589Y-74458284D01*
X159956176Y-74459429D01*
X160159990Y-74459964D01*
X160409754Y-74460099D01*
X160417124Y-74460100D01*
X160667648Y-74459988D01*
X160871966Y-74459514D01*
X161034670Y-74458469D01*
X161160354Y-74456643D01*
X161253611Y-74453828D01*
X161319033Y-74449815D01*
X161361215Y-74444393D01*
X161384748Y-74437355D01*
X161394227Y-74428491D01*
X161394244Y-74417593D01*
X161393676Y-74415650D01*
X161383962Y-74382688D01*
X161361573Y-74305417D01*
X161327610Y-74187679D01*
X161283176Y-74033315D01*
X161229370Y-73846169D01*
X161167293Y-73630081D01*
X161098047Y-73388896D01*
X161022732Y-73126453D01*
X160942450Y-72846597D01*
X160858300Y-72553169D01*
X160771386Y-72250010D01*
X160682806Y-71940964D01*
X160593662Y-71629873D01*
X160505056Y-71320578D01*
X160418088Y-71016923D01*
X160333858Y-70722748D01*
X160253469Y-70441897D01*
X160178020Y-70178211D01*
X160108613Y-69935533D01*
X160046349Y-69717704D01*
X159992329Y-69528568D01*
X159947654Y-69371966D01*
X159913424Y-69251740D01*
X159890741Y-69171733D01*
X159880705Y-69135786D01*
X159880300Y-69134141D01*
X159855807Y-69132367D01*
X159785955Y-69130729D01*
X159676183Y-69129270D01*
X159531934Y-69128035D01*
X159358647Y-69127068D01*
X159161762Y-69126413D01*
X158946722Y-69126114D01*
X158887989Y-69126100D01*
X158637221Y-69126211D01*
G36*
X155370812Y-69195949D02*
X155379847Y-69229472D01*
X155401972Y-69308531D01*
X155436248Y-69429840D01*
X155481738Y-69590111D01*
X155537504Y-69786056D01*
X155602607Y-70014387D01*
X155676109Y-70271817D01*
X155757073Y-70555059D01*
X155844561Y-70860824D01*
X155937634Y-71185825D01*
X156035354Y-71526774D01*
X156129959Y-71856600D01*
X156873357Y-74447400D01*
X157946829Y-74454027D01*
X158208531Y-74455546D01*
X158423859Y-74456464D01*
X158597236Y-74456621D01*
X158733088Y-74455858D01*
X158835838Y-74454016D01*
X158909909Y-74450935D01*
X158959726Y-74446458D01*
X158989712Y-74440423D01*
X159004293Y-74432674D01*
X159007891Y-74423050D01*
X159006502Y-74415927D01*
X158997755Y-74385857D01*
X158975959Y-74310205D01*
X158942047Y-74192227D01*
X158896953Y-74035179D01*
X158841610Y-73842316D01*
X158776952Y-73616893D01*
X158703914Y-73362167D01*
X158623428Y-73081393D01*
X158536428Y-72777827D01*
X158443848Y-72454724D01*
X158346621Y-72115341D01*
X158254322Y-71793100D01*
X158153666Y-71441673D01*
X158056809Y-71103550D01*
X157964686Y-70781988D01*
X157878228Y-70480239D01*
X157798369Y-70201561D01*
X157726042Y-69949208D01*
X157662181Y-69726435D01*
X157607717Y-69536497D01*
X157563584Y-69382650D01*
X157530715Y-69268149D01*
X157510044Y-69196249D01*
X157502609Y-69170550D01*
X157496585Y-69159661D01*
X157482631Y-69150705D01*
X157456198Y-69143492D01*
X157412739Y-69137835D01*
X157347708Y-69133549D01*
X157256556Y-69130446D01*
X157134736Y-69128338D01*
X156977701Y-69127038D01*
X156780904Y-69126361D01*
X156539797Y-69126117D01*
X156422171Y-69126100D01*
X155355064Y-69126100D01*
X155370812Y-69195949D01*
X155370812Y-69195949D01*
G37*
X155370812Y-69195949D02*
X155379847Y-69229472D01*
X155401972Y-69308531D01*
X155436248Y-69429840D01*
X155481738Y-69590111D01*
X155537504Y-69786056D01*
X155602607Y-70014387D01*
X155676109Y-70271817D01*
X155757073Y-70555059D01*
X155844561Y-70860824D01*
X155937634Y-71185825D01*
X156035354Y-71526774D01*
X156129959Y-71856600D01*
X156873357Y-74447400D01*
X157946829Y-74454027D01*
X158208531Y-74455546D01*
X158423859Y-74456464D01*
X158597236Y-74456621D01*
X158733088Y-74455858D01*
X158835838Y-74454016D01*
X158909909Y-74450935D01*
X158959726Y-74446458D01*
X158989712Y-74440423D01*
X159004293Y-74432674D01*
X159007891Y-74423050D01*
X159006502Y-74415927D01*
X158997755Y-74385857D01*
X158975959Y-74310205D01*
X158942047Y-74192227D01*
X158896953Y-74035179D01*
X158841610Y-73842316D01*
X158776952Y-73616893D01*
X158703914Y-73362167D01*
X158623428Y-73081393D01*
X158536428Y-72777827D01*
X158443848Y-72454724D01*
X158346621Y-72115341D01*
X158254322Y-71793100D01*
X158153666Y-71441673D01*
X158056809Y-71103550D01*
X157964686Y-70781988D01*
X157878228Y-70480239D01*
X157798369Y-70201561D01*
X157726042Y-69949208D01*
X157662181Y-69726435D01*
X157607717Y-69536497D01*
X157563584Y-69382650D01*
X157530715Y-69268149D01*
X157510044Y-69196249D01*
X157502609Y-69170550D01*
X157496585Y-69159661D01*
X157482631Y-69150705D01*
X157456198Y-69143492D01*
X157412739Y-69137835D01*
X157347708Y-69133549D01*
X157256556Y-69130446D01*
X157134736Y-69128338D01*
X156977701Y-69127038D01*
X156780904Y-69126361D01*
X156539797Y-69126117D01*
X156422171Y-69126100D01*
X155355064Y-69126100D01*
X155370812Y-69195949D01*
G36*
X152493857Y-69132711D02*
X152294883Y-69169865D01*
X152122453Y-69239860D01*
X151981268Y-69341090D01*
X151876026Y-69471947D01*
X151840172Y-69543577D01*
X151806479Y-69662577D01*
X151787029Y-69814772D01*
X151782721Y-69984342D01*
X151794453Y-70155466D01*
X151802255Y-70211184D01*
X151816481Y-70280089D01*
X151843425Y-70391728D01*
X151881515Y-70540549D01*
X151929183Y-70721001D01*
X151984860Y-70927533D01*
X152046976Y-71154594D01*
X152113961Y-71396633D01*
X152184248Y-71648098D01*
X152256265Y-71903440D01*
X152328444Y-72157106D01*
X152399216Y-72403546D01*
X152467010Y-72637208D01*
X152530259Y-72852541D01*
X152587392Y-73043995D01*
X152636840Y-73206018D01*
X152677034Y-73333059D01*
X152706405Y-73419567D01*
X152717108Y-73447230D01*
X152852229Y-73712478D01*
X153015361Y-73941916D01*
X153203401Y-74132652D01*
X153413250Y-74281794D01*
X153641806Y-74386451D01*
X153761264Y-74420989D01*
X153905598Y-74444795D01*
X154069935Y-74455856D01*
X154234822Y-74454045D01*
X154380804Y-74439232D01*
X154445956Y-74425505D01*
X154622781Y-74354868D01*
X154764055Y-74248332D01*
X154868806Y-74106772D01*
X154914102Y-74004312D01*
X154934854Y-73911971D01*
X154947666Y-73785066D01*
X154952303Y-73639244D01*
X154949583Y-73531817D01*
X154672077Y-73531817D01*
X154668132Y-73682266D01*
X154649957Y-73811132D01*
X154625293Y-73888600D01*
X154558446Y-74002371D01*
X154473763Y-74084605D01*
X154364186Y-74138516D01*
X154222659Y-74167315D01*
X154042127Y-74174216D01*
X154000200Y-74173235D01*
X153872251Y-74167154D01*
X153778059Y-74156162D01*
X153700604Y-74136870D01*
X153622869Y-74105887D01*
X153593800Y-74092304D01*
X153455121Y-74013162D01*
X153331076Y-73913308D01*
X153218990Y-73788288D01*
X153116186Y-73633649D01*
X153019990Y-73444938D01*
X152927725Y-73217701D01*
X152836717Y-72947485D01*
X152769443Y-72720200D01*
X152648610Y-72292193D01*
X152541287Y-71910739D01*
X152446862Y-71573591D01*
X152364724Y-71278501D01*
X152294262Y-71023225D01*
X152234865Y-70805516D01*
X152185923Y-70623127D01*
X152146823Y-70473813D01*
X152116956Y-70355326D01*
X152095710Y-70265421D01*
X152082473Y-70201852D01*
X152079185Y-70182652D01*
X152063817Y-69973771D01*
X152086516Y-69794380D01*
X152146672Y-69646289D01*
X152243677Y-69531306D01*
X152314960Y-69481427D01*
X152369484Y-69453037D01*
X152422662Y-69434632D01*
X152487515Y-69424098D01*
X152577062Y-69419325D01*
X152704325Y-69418200D01*
X152704800Y-69418200D01*
X152834066Y-69419472D01*
X152927162Y-69424851D01*
X152998689Y-69436684D01*
X153063248Y-69457315D01*
X153129881Y-69486475D01*
X153226300Y-69536257D01*
X153319385Y-69591700D01*
X153367966Y-69625231D01*
X153457742Y-69710971D01*
X153554079Y-69831942D01*
X153648150Y-69974959D01*
X153731132Y-70126838D01*
X153783909Y-70246653D01*
X153803145Y-70303122D01*
X153834366Y-70402881D01*
X153875957Y-70540274D01*
X153926299Y-70709645D01*
X153983775Y-70905341D01*
X154046768Y-71121705D01*
X154113659Y-71353083D01*
X154182833Y-71593819D01*
X154252671Y-71838258D01*
X154321555Y-72080744D01*
X154387869Y-72315624D01*
X154449994Y-72537241D01*
X154506314Y-72739940D01*
X154555210Y-72918066D01*
X154595066Y-73065965D01*
X154624264Y-73177979D01*
X154636277Y-73226811D01*
X154661543Y-73374944D01*
X154672077Y-73531817D01*
X154949583Y-73531817D01*
X154948528Y-73490153D01*
X154936103Y-73353443D01*
X154924967Y-73286600D01*
X154912813Y-73236526D01*
X154888349Y-73143201D01*
X154853142Y-73012238D01*
X154808763Y-72849252D01*
X154756778Y-72659859D01*
X154698756Y-72449673D01*
X154636266Y-72224310D01*
X154570876Y-71989384D01*
X154504155Y-71750511D01*
X154437670Y-71513305D01*
X154372990Y-71283382D01*
X154311684Y-71066356D01*
X154255320Y-70867842D01*
X154205466Y-70693455D01*
X154163691Y-70548811D01*
X154131563Y-70439524D01*
X154110651Y-70371209D01*
X154110487Y-70370700D01*
X153998017Y-70084900D01*
X153856249Y-69830368D01*
X153688370Y-69610426D01*
X153497564Y-69428394D01*
X153287018Y-69287596D01*
X153059919Y-69191354D01*
X152952635Y-69163353D01*
X152714675Y-69130005D01*
X152493857Y-69132711D01*
X152493857Y-69132711D01*
G37*
X152493857Y-69132711D02*
X152294883Y-69169865D01*
X152122453Y-69239860D01*
X151981268Y-69341090D01*
X151876026Y-69471947D01*
X151840172Y-69543577D01*
X151806479Y-69662577D01*
X151787029Y-69814772D01*
X151782721Y-69984342D01*
X151794453Y-70155466D01*
X151802255Y-70211184D01*
X151816481Y-70280089D01*
X151843425Y-70391728D01*
X151881515Y-70540549D01*
X151929183Y-70721001D01*
X151984860Y-70927533D01*
X152046976Y-71154594D01*
X152113961Y-71396633D01*
X152184248Y-71648098D01*
X152256265Y-71903440D01*
X152328444Y-72157106D01*
X152399216Y-72403546D01*
X152467010Y-72637208D01*
X152530259Y-72852541D01*
X152587392Y-73043995D01*
X152636840Y-73206018D01*
X152677034Y-73333059D01*
X152706405Y-73419567D01*
X152717108Y-73447230D01*
X152852229Y-73712478D01*
X153015361Y-73941916D01*
X153203401Y-74132652D01*
X153413250Y-74281794D01*
X153641806Y-74386451D01*
X153761264Y-74420989D01*
X153905598Y-74444795D01*
X154069935Y-74455856D01*
X154234822Y-74454045D01*
X154380804Y-74439232D01*
X154445956Y-74425505D01*
X154622781Y-74354868D01*
X154764055Y-74248332D01*
X154868806Y-74106772D01*
X154914102Y-74004312D01*
X154934854Y-73911971D01*
X154947666Y-73785066D01*
X154952303Y-73639244D01*
X154949583Y-73531817D01*
X154672077Y-73531817D01*
X154668132Y-73682266D01*
X154649957Y-73811132D01*
X154625293Y-73888600D01*
X154558446Y-74002371D01*
X154473763Y-74084605D01*
X154364186Y-74138516D01*
X154222659Y-74167315D01*
X154042127Y-74174216D01*
X154000200Y-74173235D01*
X153872251Y-74167154D01*
X153778059Y-74156162D01*
X153700604Y-74136870D01*
X153622869Y-74105887D01*
X153593800Y-74092304D01*
X153455121Y-74013162D01*
X153331076Y-73913308D01*
X153218990Y-73788288D01*
X153116186Y-73633649D01*
X153019990Y-73444938D01*
X152927725Y-73217701D01*
X152836717Y-72947485D01*
X152769443Y-72720200D01*
X152648610Y-72292193D01*
X152541287Y-71910739D01*
X152446862Y-71573591D01*
X152364724Y-71278501D01*
X152294262Y-71023225D01*
X152234865Y-70805516D01*
X152185923Y-70623127D01*
X152146823Y-70473813D01*
X152116956Y-70355326D01*
X152095710Y-70265421D01*
X152082473Y-70201852D01*
X152079185Y-70182652D01*
X152063817Y-69973771D01*
X152086516Y-69794380D01*
X152146672Y-69646289D01*
X152243677Y-69531306D01*
X152314960Y-69481427D01*
X152369484Y-69453037D01*
X152422662Y-69434632D01*
X152487515Y-69424098D01*
X152577062Y-69419325D01*
X152704325Y-69418200D01*
X152704800Y-69418200D01*
X152834066Y-69419472D01*
X152927162Y-69424851D01*
X152998689Y-69436684D01*
X153063248Y-69457315D01*
X153129881Y-69486475D01*
X153226300Y-69536257D01*
X153319385Y-69591700D01*
X153367966Y-69625231D01*
X153457742Y-69710971D01*
X153554079Y-69831942D01*
X153648150Y-69974959D01*
X153731132Y-70126838D01*
X153783909Y-70246653D01*
X153803145Y-70303122D01*
X153834366Y-70402881D01*
X153875957Y-70540274D01*
X153926299Y-70709645D01*
X153983775Y-70905341D01*
X154046768Y-71121705D01*
X154113659Y-71353083D01*
X154182833Y-71593819D01*
X154252671Y-71838258D01*
X154321555Y-72080744D01*
X154387869Y-72315624D01*
X154449994Y-72537241D01*
X154506314Y-72739940D01*
X154555210Y-72918066D01*
X154595066Y-73065965D01*
X154624264Y-73177979D01*
X154636277Y-73226811D01*
X154661543Y-73374944D01*
X154672077Y-73531817D01*
X154949583Y-73531817D01*
X154948528Y-73490153D01*
X154936103Y-73353443D01*
X154924967Y-73286600D01*
X154912813Y-73236526D01*
X154888349Y-73143201D01*
X154853142Y-73012238D01*
X154808763Y-72849252D01*
X154756778Y-72659859D01*
X154698756Y-72449673D01*
X154636266Y-72224310D01*
X154570876Y-71989384D01*
X154504155Y-71750511D01*
X154437670Y-71513305D01*
X154372990Y-71283382D01*
X154311684Y-71066356D01*
X154255320Y-70867842D01*
X154205466Y-70693455D01*
X154163691Y-70548811D01*
X154131563Y-70439524D01*
X154110651Y-70371209D01*
X154110487Y-70370700D01*
X153998017Y-70084900D01*
X153856249Y-69830368D01*
X153688370Y-69610426D01*
X153497564Y-69428394D01*
X153287018Y-69287596D01*
X153059919Y-69191354D01*
X152952635Y-69163353D01*
X152714675Y-69130005D01*
X152493857Y-69132711D01*
G36*
X150748123Y-69195950D02*
X150757323Y-69229810D01*
X150779333Y-69309160D01*
X150813198Y-69430591D01*
X150857961Y-69590692D01*
X150912667Y-69786054D01*
X150976359Y-70013268D01*
X151048082Y-70268923D01*
X151126880Y-70549612D01*
X151211796Y-70851923D01*
X151301875Y-71172448D01*
X151396160Y-71507777D01*
X151449377Y-71696972D01*
X151545200Y-72037859D01*
X151637033Y-72365054D01*
X151723949Y-72675229D01*
X151805021Y-72965054D01*
X151879323Y-73231200D01*
X151945928Y-73470337D01*
X152003909Y-73679135D01*
X152052340Y-73854266D01*
X152090295Y-73992399D01*
X152116846Y-74090205D01*
X152131067Y-74144356D01*
X152133300Y-74154422D01*
X152108545Y-74162557D01*
X152034127Y-74169180D01*
X151909821Y-74174299D01*
X151735401Y-74177920D01*
X151510640Y-74180050D01*
X151254247Y-74180700D01*
X150375193Y-74180700D01*
X150391875Y-74247163D01*
X150410076Y-74325108D01*
X150423203Y-74386863D01*
X150437850Y-74460100D01*
X152510386Y-74460100D01*
X152462361Y-74288650D01*
X152448828Y-74240452D01*
X152422532Y-74146908D01*
X152384470Y-74011568D01*
X152335644Y-73837987D01*
X152277053Y-73629715D01*
X152209695Y-73390306D01*
X152134572Y-73123312D01*
X152052681Y-72832286D01*
X151965023Y-72520780D01*
X151872597Y-72192347D01*
X151776403Y-71850539D01*
X151715018Y-71632426D01*
X151618146Y-71288120D01*
X151525249Y-70957743D01*
X151437243Y-70644562D01*
X151355044Y-70351841D01*
X151279567Y-70082847D01*
X151211726Y-69840844D01*
X151152436Y-69629100D01*
X151102614Y-69450878D01*
X151063173Y-69309445D01*
X151035029Y-69208066D01*
X151019097Y-69150007D01*
X151015700Y-69136876D01*
X150992697Y-69131022D01*
X150933256Y-69127109D01*
X150873247Y-69126100D01*
X150730793Y-69126100D01*
X150748123Y-69195950D01*
X150748123Y-69195950D01*
G37*
X150748123Y-69195950D02*
X150757323Y-69229810D01*
X150779333Y-69309160D01*
X150813198Y-69430591D01*
X150857961Y-69590692D01*
X150912667Y-69786054D01*
X150976359Y-70013268D01*
X151048082Y-70268923D01*
X151126880Y-70549612D01*
X151211796Y-70851923D01*
X151301875Y-71172448D01*
X151396160Y-71507777D01*
X151449377Y-71696972D01*
X151545200Y-72037859D01*
X151637033Y-72365054D01*
X151723949Y-72675229D01*
X151805021Y-72965054D01*
X151879323Y-73231200D01*
X151945928Y-73470337D01*
X152003909Y-73679135D01*
X152052340Y-73854266D01*
X152090295Y-73992399D01*
X152116846Y-74090205D01*
X152131067Y-74144356D01*
X152133300Y-74154422D01*
X152108545Y-74162557D01*
X152034127Y-74169180D01*
X151909821Y-74174299D01*
X151735401Y-74177920D01*
X151510640Y-74180050D01*
X151254247Y-74180700D01*
X150375193Y-74180700D01*
X150391875Y-74247163D01*
X150410076Y-74325108D01*
X150423203Y-74386863D01*
X150437850Y-74460100D01*
X152510386Y-74460100D01*
X152462361Y-74288650D01*
X152448828Y-74240452D01*
X152422532Y-74146908D01*
X152384470Y-74011568D01*
X152335644Y-73837987D01*
X152277053Y-73629715D01*
X152209695Y-73390306D01*
X152134572Y-73123312D01*
X152052681Y-72832286D01*
X151965023Y-72520780D01*
X151872597Y-72192347D01*
X151776403Y-71850539D01*
X151715018Y-71632426D01*
X151618146Y-71288120D01*
X151525249Y-70957743D01*
X151437243Y-70644562D01*
X151355044Y-70351841D01*
X151279567Y-70082847D01*
X151211726Y-69840844D01*
X151152436Y-69629100D01*
X151102614Y-69450878D01*
X151063173Y-69309445D01*
X151035029Y-69208066D01*
X151019097Y-69150007D01*
X151015700Y-69136876D01*
X150992697Y-69131022D01*
X150933256Y-69127109D01*
X150873247Y-69126100D01*
X150730793Y-69126100D01*
X150748123Y-69195950D01*
G36*
X148325832Y-69127336D02*
X148287407Y-69135168D01*
X148277330Y-69156285D01*
X148284093Y-69195949D01*
X148292993Y-69229512D01*
X148314753Y-69308675D01*
X148348451Y-69430143D01*
X148393163Y-69590621D01*
X148447967Y-69786816D01*
X148511941Y-70015431D01*
X148584162Y-70273173D01*
X148663708Y-70556746D01*
X148749655Y-70862856D01*
X148841082Y-71188209D01*
X148937066Y-71529509D01*
X149029121Y-71856600D01*
X149758519Y-74447400D01*
X149891810Y-74455077D01*
X149966342Y-74455868D01*
X150015029Y-74449676D01*
X150025792Y-74442377D01*
X150019153Y-74415673D01*
X149999640Y-74343246D01*
X149968135Y-74228274D01*
X149925525Y-74073936D01*
X149872695Y-73883408D01*
X149810529Y-73659870D01*
X149739911Y-73406498D01*
X149661728Y-73126472D01*
X149576864Y-72822968D01*
X149486204Y-72499165D01*
X149390632Y-72158242D01*
X149291034Y-71803375D01*
X149282842Y-71774204D01*
X148539200Y-69126409D01*
X148403832Y-69126254D01*
X148325832Y-69127336D01*
X148325832Y-69127336D01*
G37*
X148325832Y-69127336D02*
X148287407Y-69135168D01*
X148277330Y-69156285D01*
X148284093Y-69195949D01*
X148292993Y-69229512D01*
X148314753Y-69308675D01*
X148348451Y-69430143D01*
X148393163Y-69590621D01*
X148447967Y-69786816D01*
X148511941Y-70015431D01*
X148584162Y-70273173D01*
X148663708Y-70556746D01*
X148749655Y-70862856D01*
X148841082Y-71188209D01*
X148937066Y-71529509D01*
X149029121Y-71856600D01*
X149758519Y-74447400D01*
X149891810Y-74455077D01*
X149966342Y-74455868D01*
X150015029Y-74449676D01*
X150025792Y-74442377D01*
X150019153Y-74415673D01*
X149999640Y-74343246D01*
X149968135Y-74228274D01*
X149925525Y-74073936D01*
X149872695Y-73883408D01*
X149810529Y-73659870D01*
X149739911Y-73406498D01*
X149661728Y-73126472D01*
X149576864Y-72822968D01*
X149486204Y-72499165D01*
X149390632Y-72158242D01*
X149291034Y-71803375D01*
X149282842Y-71774204D01*
X148539200Y-69126409D01*
X148403832Y-69126254D01*
X148325832Y-69127336D01*
G36*
X145609328Y-69126633D02*
X145540563Y-69130522D01*
X145491423Y-69137727D01*
X145477999Y-69145150D01*
X145484661Y-69171673D01*
X145504193Y-69243923D01*
X145535712Y-69358722D01*
X145578331Y-69512896D01*
X145631167Y-69703268D01*
X145693334Y-69926661D01*
X145763947Y-70179900D01*
X145842122Y-70459808D01*
X145926974Y-70763211D01*
X146017617Y-71086930D01*
X146113167Y-71427791D01*
X146212740Y-71782618D01*
X146220949Y-71811854D01*
X146964400Y-74459508D01*
X147085050Y-74459804D01*
X147165166Y-74454723D01*
X147201757Y-74437770D01*
X147205700Y-74425104D01*
X147208727Y-74395154D01*
X147217507Y-74318495D01*
X147231593Y-74198838D01*
X147250538Y-74039894D01*
X147273895Y-73845374D01*
X147301214Y-73618990D01*
X147332050Y-73364452D01*
X147365954Y-73085472D01*
X147402478Y-72785760D01*
X147441175Y-72469028D01*
X147472400Y-72214008D01*
X147512483Y-71886752D01*
X147550771Y-71573729D01*
X147586817Y-71278640D01*
X147620170Y-71005186D01*
X147650379Y-70757067D01*
X147676996Y-70537986D01*
X147699571Y-70351642D01*
X147717654Y-70201738D01*
X147730795Y-70091973D01*
X147738544Y-70026049D01*
X147740556Y-70007453D01*
X147747479Y-70026830D01*
X147767175Y-70091752D01*
X147798681Y-70198857D01*
X147841033Y-70344783D01*
X147893269Y-70526166D01*
X147954426Y-70739645D01*
X148023541Y-70981857D01*
X148099650Y-71249440D01*
X148181792Y-71539031D01*
X148269001Y-71847268D01*
X148360317Y-72170788D01*
X148371990Y-72212200D01*
X149001969Y-74447400D01*
X149147369Y-74455081D01*
X149228929Y-74457759D01*
X149270450Y-74452652D01*
X149282470Y-74436707D01*
X149278830Y-74416981D01*
X149270173Y-74386683D01*
X149248709Y-74310766D01*
X149215365Y-74192520D01*
X149171066Y-74035235D01*
X149116737Y-73842203D01*
X149053303Y-73616711D01*
X148981691Y-73362052D01*
X148902824Y-73081514D01*
X148817630Y-72778389D01*
X148727033Y-72455965D01*
X148631959Y-72117534D01*
X148551535Y-71831200D01*
X148453204Y-71481181D01*
X148358380Y-71143840D01*
X148268008Y-70822534D01*
X148183036Y-70520618D01*
X148104409Y-70241447D01*
X148033074Y-69988377D01*
X147969976Y-69764763D01*
X147916063Y-69573962D01*
X147872279Y-69419328D01*
X147839573Y-69304217D01*
X147818889Y-69231986D01*
X147811642Y-69207356D01*
X147792100Y-69156370D01*
X147765188Y-69133125D01*
X147714079Y-69128697D01*
X147667933Y-69131156D01*
X147550760Y-69138800D01*
X147283934Y-71354849D01*
X147244124Y-71683531D01*
X147205726Y-71996784D01*
X147169201Y-72291075D01*
X147135006Y-72562869D01*
X147103603Y-72808631D01*
X147075452Y-73024826D01*
X147051011Y-73207920D01*
X147030742Y-73354378D01*
X147015102Y-73460666D01*
X147004554Y-73523249D01*
X146999772Y-73539249D01*
X146991014Y-73511682D01*
X146969757Y-73439513D01*
X146937200Y-73326987D01*
X146894541Y-73178349D01*
X146842976Y-72997844D01*
X146783706Y-72789717D01*
X146717927Y-72558213D01*
X146646837Y-72307578D01*
X146571635Y-72042056D01*
X146493519Y-71765893D01*
X146413686Y-71483333D01*
X146333335Y-71198621D01*
X146253664Y-70916004D01*
X146175870Y-70639725D01*
X146101153Y-70374030D01*
X146030709Y-70123164D01*
X145965737Y-69891372D01*
X145907435Y-69682900D01*
X145857000Y-69501991D01*
X145815632Y-69352892D01*
X145784528Y-69239847D01*
X145764885Y-69167102D01*
X145757903Y-69138901D01*
X145757900Y-69138827D01*
X145735543Y-69130389D01*
X145680170Y-69126457D01*
X145609328Y-69126633D01*
X145609328Y-69126633D01*
G37*
X145609328Y-69126633D02*
X145540563Y-69130522D01*
X145491423Y-69137727D01*
X145477999Y-69145150D01*
X145484661Y-69171673D01*
X145504193Y-69243923D01*
X145535712Y-69358722D01*
X145578331Y-69512896D01*
X145631167Y-69703268D01*
X145693334Y-69926661D01*
X145763947Y-70179900D01*
X145842122Y-70459808D01*
X145926974Y-70763211D01*
X146017617Y-71086930D01*
X146113167Y-71427791D01*
X146212740Y-71782618D01*
X146220949Y-71811854D01*
X146964400Y-74459508D01*
X147085050Y-74459804D01*
X147165166Y-74454723D01*
X147201757Y-74437770D01*
X147205700Y-74425104D01*
X147208727Y-74395154D01*
X147217507Y-74318495D01*
X147231593Y-74198838D01*
X147250538Y-74039894D01*
X147273895Y-73845374D01*
X147301214Y-73618990D01*
X147332050Y-73364452D01*
X147365954Y-73085472D01*
X147402478Y-72785760D01*
X147441175Y-72469028D01*
X147472400Y-72214008D01*
X147512483Y-71886752D01*
X147550771Y-71573729D01*
X147586817Y-71278640D01*
X147620170Y-71005186D01*
X147650379Y-70757067D01*
X147676996Y-70537986D01*
X147699571Y-70351642D01*
X147717654Y-70201738D01*
X147730795Y-70091973D01*
X147738544Y-70026049D01*
X147740556Y-70007453D01*
X147747479Y-70026830D01*
X147767175Y-70091752D01*
X147798681Y-70198857D01*
X147841033Y-70344783D01*
X147893269Y-70526166D01*
X147954426Y-70739645D01*
X148023541Y-70981857D01*
X148099650Y-71249440D01*
X148181792Y-71539031D01*
X148269001Y-71847268D01*
X148360317Y-72170788D01*
X148371990Y-72212200D01*
X149001969Y-74447400D01*
X149147369Y-74455081D01*
X149228929Y-74457759D01*
X149270450Y-74452652D01*
X149282470Y-74436707D01*
X149278830Y-74416981D01*
X149270173Y-74386683D01*
X149248709Y-74310766D01*
X149215365Y-74192520D01*
X149171066Y-74035235D01*
X149116737Y-73842203D01*
X149053303Y-73616711D01*
X148981691Y-73362052D01*
X148902824Y-73081514D01*
X148817630Y-72778389D01*
X148727033Y-72455965D01*
X148631959Y-72117534D01*
X148551535Y-71831200D01*
X148453204Y-71481181D01*
X148358380Y-71143840D01*
X148268008Y-70822534D01*
X148183036Y-70520618D01*
X148104409Y-70241447D01*
X148033074Y-69988377D01*
X147969976Y-69764763D01*
X147916063Y-69573962D01*
X147872279Y-69419328D01*
X147839573Y-69304217D01*
X147818889Y-69231986D01*
X147811642Y-69207356D01*
X147792100Y-69156370D01*
X147765188Y-69133125D01*
X147714079Y-69128697D01*
X147667933Y-69131156D01*
X147550760Y-69138800D01*
X147283934Y-71354849D01*
X147244124Y-71683531D01*
X147205726Y-71996784D01*
X147169201Y-72291075D01*
X147135006Y-72562869D01*
X147103603Y-72808631D01*
X147075452Y-73024826D01*
X147051011Y-73207920D01*
X147030742Y-73354378D01*
X147015102Y-73460666D01*
X147004554Y-73523249D01*
X146999772Y-73539249D01*
X146991014Y-73511682D01*
X146969757Y-73439513D01*
X146937200Y-73326987D01*
X146894541Y-73178349D01*
X146842976Y-72997844D01*
X146783706Y-72789717D01*
X146717927Y-72558213D01*
X146646837Y-72307578D01*
X146571635Y-72042056D01*
X146493519Y-71765893D01*
X146413686Y-71483333D01*
X146333335Y-71198621D01*
X146253664Y-70916004D01*
X146175870Y-70639725D01*
X146101153Y-70374030D01*
X146030709Y-70123164D01*
X145965737Y-69891372D01*
X145907435Y-69682900D01*
X145857000Y-69501991D01*
X145815632Y-69352892D01*
X145784528Y-69239847D01*
X145764885Y-69167102D01*
X145757903Y-69138901D01*
X145757900Y-69138827D01*
X145735543Y-69130389D01*
X145680170Y-69126457D01*
X145609328Y-69126633D01*
G36*
X142111390Y-69126584D02*
X141912676Y-69127963D01*
X141736309Y-69130129D01*
X141587806Y-69132971D01*
X141472689Y-69136382D01*
X141396474Y-69140251D01*
X141364683Y-69144469D01*
X141364086Y-69145150D01*
X141371056Y-69179036D01*
X141388260Y-69242972D01*
X141398625Y-69278500D01*
X141432779Y-69392800D01*
X142265899Y-69405500D01*
X143099020Y-69418200D01*
X143411493Y-70523100D01*
X143475859Y-70751031D01*
X143535796Y-70963928D01*
X143589917Y-71156815D01*
X143636834Y-71324712D01*
X143675157Y-71462643D01*
X143703500Y-71565629D01*
X143720474Y-71628694D01*
X143724934Y-71647050D01*
X143700767Y-71651640D01*
X143631755Y-71655832D01*
X143523851Y-71659490D01*
X143383010Y-71662474D01*
X143215184Y-71664648D01*
X143026328Y-71665875D01*
X142899917Y-71666100D01*
X142073933Y-71666100D01*
X142090836Y-71735950D01*
X142111751Y-71811316D01*
X142128791Y-71862950D01*
X142149843Y-71920100D01*
X143799949Y-71920100D01*
X143850478Y-72091550D01*
X143868988Y-72155560D01*
X143899262Y-72261714D01*
X143939385Y-72403231D01*
X143987441Y-72573331D01*
X144041515Y-72765234D01*
X144099691Y-72972159D01*
X144157271Y-73177400D01*
X144215672Y-73385689D01*
X144270117Y-73579684D01*
X144319000Y-73753677D01*
X144360715Y-73901960D01*
X144393656Y-74018824D01*
X144416218Y-74098561D01*
X144426793Y-74135462D01*
X144427030Y-74136250D01*
X144428091Y-74148444D01*
X144419732Y-74158186D01*
X144396940Y-74165749D01*
X144354705Y-74171407D01*
X144288017Y-74175432D01*
X144191865Y-74178100D01*
X144061238Y-74179683D01*
X143891125Y-74180456D01*
X143676516Y-74180692D01*
X143613312Y-74180700D01*
X143414126Y-74181262D01*
X143232207Y-74182856D01*
X143073509Y-74185346D01*
X142943987Y-74188594D01*
X142849596Y-74192463D01*
X142796292Y-74196816D01*
X142786486Y-74199750D01*
X142793457Y-74233635D01*
X142810665Y-74297570D01*
X142821034Y-74333100D01*
X142855196Y-74447400D01*
X143825756Y-74454053D01*
X144073424Y-74455642D01*
X144274939Y-74456552D01*
X144434947Y-74456599D01*
X144558093Y-74455598D01*
X144649023Y-74453362D01*
X144712380Y-74449709D01*
X144752812Y-74444452D01*
X144774962Y-74437407D01*
X144783477Y-74428388D01*
X144783000Y-74417211D01*
X144782633Y-74415953D01*
X144774011Y-74385798D01*
X144752585Y-74310022D01*
X144719279Y-74191914D01*
X144675017Y-74034761D01*
X144620725Y-73841853D01*
X144557328Y-73616477D01*
X144485749Y-73361922D01*
X144406915Y-73081477D01*
X144321751Y-72778430D01*
X144231180Y-72456069D01*
X144136127Y-72117682D01*
X144055671Y-71831200D01*
X143957360Y-71481211D01*
X143862563Y-71143924D01*
X143772224Y-70822690D01*
X143687289Y-70520863D01*
X143608705Y-70241797D01*
X143537415Y-69988846D01*
X143474366Y-69765361D01*
X143420503Y-69574698D01*
X143376772Y-69420209D01*
X143344117Y-69305247D01*
X143323485Y-69233167D01*
X143316277Y-69208650D01*
X143290161Y-69126100D01*
X142326931Y-69126100D01*
X142111390Y-69126584D01*
X142111390Y-69126584D01*
G37*
X142111390Y-69126584D02*
X141912676Y-69127963D01*
X141736309Y-69130129D01*
X141587806Y-69132971D01*
X141472689Y-69136382D01*
X141396474Y-69140251D01*
X141364683Y-69144469D01*
X141364086Y-69145150D01*
X141371056Y-69179036D01*
X141388260Y-69242972D01*
X141398625Y-69278500D01*
X141432779Y-69392800D01*
X142265899Y-69405500D01*
X143099020Y-69418200D01*
X143411493Y-70523100D01*
X143475859Y-70751031D01*
X143535796Y-70963928D01*
X143589917Y-71156815D01*
X143636834Y-71324712D01*
X143675157Y-71462643D01*
X143703500Y-71565629D01*
X143720474Y-71628694D01*
X143724934Y-71647050D01*
X143700767Y-71651640D01*
X143631755Y-71655832D01*
X143523851Y-71659490D01*
X143383010Y-71662474D01*
X143215184Y-71664648D01*
X143026328Y-71665875D01*
X142899917Y-71666100D01*
X142073933Y-71666100D01*
X142090836Y-71735950D01*
X142111751Y-71811316D01*
X142128791Y-71862950D01*
X142149843Y-71920100D01*
X143799949Y-71920100D01*
X143850478Y-72091550D01*
X143868988Y-72155560D01*
X143899262Y-72261714D01*
X143939385Y-72403231D01*
X143987441Y-72573331D01*
X144041515Y-72765234D01*
X144099691Y-72972159D01*
X144157271Y-73177400D01*
X144215672Y-73385689D01*
X144270117Y-73579684D01*
X144319000Y-73753677D01*
X144360715Y-73901960D01*
X144393656Y-74018824D01*
X144416218Y-74098561D01*
X144426793Y-74135462D01*
X144427030Y-74136250D01*
X144428091Y-74148444D01*
X144419732Y-74158186D01*
X144396940Y-74165749D01*
X144354705Y-74171407D01*
X144288017Y-74175432D01*
X144191865Y-74178100D01*
X144061238Y-74179683D01*
X143891125Y-74180456D01*
X143676516Y-74180692D01*
X143613312Y-74180700D01*
X143414126Y-74181262D01*
X143232207Y-74182856D01*
X143073509Y-74185346D01*
X142943987Y-74188594D01*
X142849596Y-74192463D01*
X142796292Y-74196816D01*
X142786486Y-74199750D01*
X142793457Y-74233635D01*
X142810665Y-74297570D01*
X142821034Y-74333100D01*
X142855196Y-74447400D01*
X143825756Y-74454053D01*
X144073424Y-74455642D01*
X144274939Y-74456552D01*
X144434947Y-74456599D01*
X144558093Y-74455598D01*
X144649023Y-74453362D01*
X144712380Y-74449709D01*
X144752812Y-74444452D01*
X144774962Y-74437407D01*
X144783477Y-74428388D01*
X144783000Y-74417211D01*
X144782633Y-74415953D01*
X144774011Y-74385798D01*
X144752585Y-74310022D01*
X144719279Y-74191914D01*
X144675017Y-74034761D01*
X144620725Y-73841853D01*
X144557328Y-73616477D01*
X144485749Y-73361922D01*
X144406915Y-73081477D01*
X144321751Y-72778430D01*
X144231180Y-72456069D01*
X144136127Y-72117682D01*
X144055671Y-71831200D01*
X143957360Y-71481211D01*
X143862563Y-71143924D01*
X143772224Y-70822690D01*
X143687289Y-70520863D01*
X143608705Y-70241797D01*
X143537415Y-69988846D01*
X143474366Y-69765361D01*
X143420503Y-69574698D01*
X143376772Y-69420209D01*
X143344117Y-69305247D01*
X143323485Y-69233167D01*
X143316277Y-69208650D01*
X143290161Y-69126100D01*
X142326931Y-69126100D01*
X142111390Y-69126584D01*
G36*
X140740097Y-69129265D02*
X140690348Y-69137422D01*
X140678765Y-69145150D01*
X140685632Y-69171726D01*
X140705382Y-69243926D01*
X140737100Y-69358479D01*
X140779870Y-69512120D01*
X140832777Y-69701579D01*
X140894906Y-69923589D01*
X140965342Y-70174881D01*
X141043170Y-70452189D01*
X141127475Y-70752244D01*
X141217342Y-71071777D01*
X141311854Y-71407522D01*
X141384701Y-71666100D01*
X142089774Y-74168000D01*
X140318408Y-74181354D01*
X140336290Y-74263577D01*
X140355919Y-74340809D01*
X140375708Y-74402950D01*
X140397243Y-74460100D01*
X141428283Y-74460100D01*
X141684351Y-74459994D01*
X141894125Y-74459545D01*
X142062110Y-74458556D01*
X142192811Y-74456831D01*
X142290735Y-74454172D01*
X142360388Y-74450383D01*
X142406273Y-74445266D01*
X142432898Y-74438624D01*
X142444768Y-74430262D01*
X142446387Y-74419981D01*
X142445290Y-74415650D01*
X142436625Y-74385582D01*
X142415133Y-74309871D01*
X142381732Y-74191779D01*
X142337342Y-74034569D01*
X142282882Y-73841502D01*
X142219272Y-73615839D01*
X142147430Y-73360844D01*
X142068276Y-73079777D01*
X141982729Y-72775902D01*
X141891708Y-72452478D01*
X141796133Y-72112770D01*
X141706221Y-71793100D01*
X141607313Y-71441436D01*
X141512131Y-71103097D01*
X141421594Y-70781345D01*
X141336623Y-70479441D01*
X141258134Y-70200648D01*
X141187047Y-69948228D01*
X141124280Y-69725442D01*
X141070754Y-69535551D01*
X141027385Y-69381819D01*
X140995093Y-69267507D01*
X140974797Y-69195876D01*
X140967531Y-69170550D01*
X140948108Y-69143646D01*
X140903066Y-69130019D01*
X140820241Y-69126105D01*
X140815889Y-69126100D01*
X140740097Y-69129265D01*
X140740097Y-69129265D01*
G37*
X140740097Y-69129265D02*
X140690348Y-69137422D01*
X140678765Y-69145150D01*
X140685632Y-69171726D01*
X140705382Y-69243926D01*
X140737100Y-69358479D01*
X140779870Y-69512120D01*
X140832777Y-69701579D01*
X140894906Y-69923589D01*
X140965342Y-70174881D01*
X141043170Y-70452189D01*
X141127475Y-70752244D01*
X141217342Y-71071777D01*
X141311854Y-71407522D01*
X141384701Y-71666100D01*
X142089774Y-74168000D01*
X140318408Y-74181354D01*
X140336290Y-74263577D01*
X140355919Y-74340809D01*
X140375708Y-74402950D01*
X140397243Y-74460100D01*
X141428283Y-74460100D01*
X141684351Y-74459994D01*
X141894125Y-74459545D01*
X142062110Y-74458556D01*
X142192811Y-74456831D01*
X142290735Y-74454172D01*
X142360388Y-74450383D01*
X142406273Y-74445266D01*
X142432898Y-74438624D01*
X142444768Y-74430262D01*
X142446387Y-74419981D01*
X142445290Y-74415650D01*
X142436625Y-74385582D01*
X142415133Y-74309871D01*
X142381732Y-74191779D01*
X142337342Y-74034569D01*
X142282882Y-73841502D01*
X142219272Y-73615839D01*
X142147430Y-73360844D01*
X142068276Y-73079777D01*
X141982729Y-72775902D01*
X141891708Y-72452478D01*
X141796133Y-72112770D01*
X141706221Y-71793100D01*
X141607313Y-71441436D01*
X141512131Y-71103097D01*
X141421594Y-70781345D01*
X141336623Y-70479441D01*
X141258134Y-70200648D01*
X141187047Y-69948228D01*
X141124280Y-69725442D01*
X141070754Y-69535551D01*
X141027385Y-69381819D01*
X140995093Y-69267507D01*
X140974797Y-69195876D01*
X140967531Y-69170550D01*
X140948108Y-69143646D01*
X140903066Y-69130019D01*
X140820241Y-69126105D01*
X140815889Y-69126100D01*
X140740097Y-69129265D01*
G36*
X137345775Y-69126709D02*
X137116015Y-69128559D01*
X136934699Y-69131682D01*
X136800659Y-69136111D01*
X136712724Y-69141879D01*
X136669724Y-69149018D01*
X136664700Y-69152952D01*
X136670529Y-69192343D01*
X136685222Y-69260243D01*
X136693116Y-69292652D01*
X136721531Y-69405499D01*
X137556232Y-69405500D01*
X138390933Y-69405500D01*
X138408405Y-69475350D01*
X138418860Y-69514106D01*
X138441600Y-69596317D01*
X138475103Y-69716550D01*
X138517848Y-69869370D01*
X138568315Y-70049346D01*
X138624982Y-70251043D01*
X138686328Y-70469028D01*
X138723036Y-70599300D01*
X139020195Y-71653400D01*
X138198048Y-71660097D01*
X137949561Y-71662729D01*
X137749299Y-71666243D01*
X137594691Y-71670750D01*
X137483167Y-71676358D01*
X137412158Y-71683179D01*
X137379093Y-71691321D01*
X137375900Y-71695250D01*
X137382760Y-71736357D01*
X137399790Y-71802935D01*
X137405321Y-71821903D01*
X137434742Y-71920100D01*
X139095158Y-71920100D01*
X139243338Y-72447150D01*
X139296912Y-72637676D01*
X139359380Y-72859790D01*
X139425874Y-73096183D01*
X139491524Y-73329543D01*
X139551461Y-73542558D01*
X139559493Y-73571100D01*
X139727468Y-74168000D01*
X138907284Y-74174697D01*
X138644851Y-74177647D01*
X138433050Y-74181801D01*
X138271729Y-74187166D01*
X138160734Y-74193748D01*
X138099912Y-74201554D01*
X138087100Y-74207899D01*
X138092925Y-74247061D01*
X138107610Y-74314806D01*
X138115516Y-74347252D01*
X138143931Y-74460100D01*
X139106116Y-74460100D01*
X139363961Y-74459745D01*
X139574840Y-74458600D01*
X139742582Y-74456537D01*
X139871016Y-74453432D01*
X139963972Y-74449160D01*
X140025279Y-74443596D01*
X140058766Y-74436614D01*
X140068300Y-74428648D01*
X140061554Y-74400429D01*
X140041908Y-74326519D01*
X140010254Y-74210121D01*
X139967480Y-74054438D01*
X139914477Y-73862672D01*
X139852137Y-73638026D01*
X139781347Y-73383703D01*
X139703000Y-73102903D01*
X139617984Y-72798831D01*
X139527191Y-72474689D01*
X139431511Y-72133679D01*
X139331833Y-71779003D01*
X139326951Y-71761648D01*
X138585602Y-69126100D01*
X137625151Y-69126100D01*
X137345775Y-69126709D01*
X137345775Y-69126709D01*
G37*
X137345775Y-69126709D02*
X137116015Y-69128559D01*
X136934699Y-69131682D01*
X136800659Y-69136111D01*
X136712724Y-69141879D01*
X136669724Y-69149018D01*
X136664700Y-69152952D01*
X136670529Y-69192343D01*
X136685222Y-69260243D01*
X136693116Y-69292652D01*
X136721531Y-69405499D01*
X137556232Y-69405500D01*
X138390933Y-69405500D01*
X138408405Y-69475350D01*
X138418860Y-69514106D01*
X138441600Y-69596317D01*
X138475103Y-69716550D01*
X138517848Y-69869370D01*
X138568315Y-70049346D01*
X138624982Y-70251043D01*
X138686328Y-70469028D01*
X138723036Y-70599300D01*
X139020195Y-71653400D01*
X138198048Y-71660097D01*
X137949561Y-71662729D01*
X137749299Y-71666243D01*
X137594691Y-71670750D01*
X137483167Y-71676358D01*
X137412158Y-71683179D01*
X137379093Y-71691321D01*
X137375900Y-71695250D01*
X137382760Y-71736357D01*
X137399790Y-71802935D01*
X137405321Y-71821903D01*
X137434742Y-71920100D01*
X139095158Y-71920100D01*
X139243338Y-72447150D01*
X139296912Y-72637676D01*
X139359380Y-72859790D01*
X139425874Y-73096183D01*
X139491524Y-73329543D01*
X139551461Y-73542558D01*
X139559493Y-73571100D01*
X139727468Y-74168000D01*
X138907284Y-74174697D01*
X138644851Y-74177647D01*
X138433050Y-74181801D01*
X138271729Y-74187166D01*
X138160734Y-74193748D01*
X138099912Y-74201554D01*
X138087100Y-74207899D01*
X138092925Y-74247061D01*
X138107610Y-74314806D01*
X138115516Y-74347252D01*
X138143931Y-74460100D01*
X139106116Y-74460100D01*
X139363961Y-74459745D01*
X139574840Y-74458600D01*
X139742582Y-74456537D01*
X139871016Y-74453432D01*
X139963972Y-74449160D01*
X140025279Y-74443596D01*
X140058766Y-74436614D01*
X140068300Y-74428648D01*
X140061554Y-74400429D01*
X140041908Y-74326519D01*
X140010254Y-74210121D01*
X139967480Y-74054438D01*
X139914477Y-73862672D01*
X139852137Y-73638026D01*
X139781347Y-73383703D01*
X139703000Y-73102903D01*
X139617984Y-72798831D01*
X139527191Y-72474689D01*
X139431511Y-72133679D01*
X139331833Y-71779003D01*
X139326951Y-71761648D01*
X138585602Y-69126100D01*
X137625151Y-69126100D01*
X137345775Y-69126709D01*
G36*
X134945476Y-69140081D02*
X134851576Y-69143366D01*
X134781463Y-69152037D01*
X134721632Y-69168419D01*
X134658580Y-69194835D01*
X134603985Y-69221184D01*
X134454244Y-69319467D01*
X134341940Y-69448879D01*
X134266918Y-69610138D01*
X134229021Y-69803960D01*
X134228095Y-70031064D01*
X134263982Y-70292167D01*
X134320033Y-70529450D01*
X134359995Y-70675500D01*
X134496348Y-70675500D01*
X134571821Y-70673006D01*
X134621337Y-70666587D01*
X134632700Y-70660681D01*
X134626914Y-70630683D01*
X134611566Y-70564397D01*
X134589678Y-70474753D01*
X134583770Y-70451131D01*
X134534453Y-70219846D01*
X134513328Y-70025930D01*
X134520893Y-69864169D01*
X134557643Y-69729346D01*
X134624076Y-69616245D01*
X134667968Y-69566821D01*
X134758696Y-69490986D01*
X134858460Y-69441419D01*
X134978469Y-69415000D01*
X135129934Y-69408610D01*
X135223935Y-69412117D01*
X135352260Y-69422845D01*
X135451168Y-69441590D01*
X135541957Y-69473411D01*
X135604935Y-69502630D01*
X135786752Y-69619774D01*
X135951533Y-69781558D01*
X136095774Y-69983654D01*
X136215972Y-70221737D01*
X136243741Y-70291346D01*
X136262755Y-70348036D01*
X136293644Y-70448009D01*
X136334797Y-70585570D01*
X136384603Y-70755024D01*
X136441450Y-70950677D01*
X136503726Y-71166835D01*
X136569820Y-71397803D01*
X136638122Y-71637886D01*
X136707018Y-71881390D01*
X136774898Y-72122621D01*
X136840150Y-72355884D01*
X136901163Y-72575485D01*
X136956326Y-72775729D01*
X137004026Y-72950921D01*
X137042652Y-73095367D01*
X137070594Y-73203373D01*
X137085615Y-73266300D01*
X137105292Y-73383559D01*
X137118278Y-73509726D01*
X137121318Y-73583800D01*
X137105738Y-73771249D01*
X137057085Y-73921440D01*
X136973709Y-74035924D01*
X136853959Y-74116253D01*
X136696185Y-74163978D01*
X136498735Y-74180652D01*
X136486352Y-74180700D01*
X136256491Y-74158651D01*
X136048659Y-74092199D01*
X135862351Y-73980882D01*
X135697060Y-73824241D01*
X135552279Y-73621815D01*
X135427504Y-73373143D01*
X135341329Y-73139300D01*
X135272008Y-72923400D01*
X135130154Y-72915782D01*
X135053041Y-72913530D01*
X135001522Y-72915643D01*
X134988300Y-72919841D01*
X134995676Y-72947453D01*
X135015531Y-73012329D01*
X135044453Y-73103483D01*
X135065567Y-73168759D01*
X135188357Y-73487675D01*
X135334259Y-73761359D01*
X135503269Y-73989809D01*
X135695386Y-74173021D01*
X135910607Y-74310995D01*
X136148929Y-74403727D01*
X136410350Y-74451216D01*
X136575800Y-74458010D01*
X136691147Y-74453268D01*
X136803550Y-74442052D01*
X136889930Y-74426713D01*
X136894556Y-74425505D01*
X137071471Y-74354937D01*
X137212570Y-74248379D01*
X137317713Y-74105959D01*
X137364267Y-74001155D01*
X137388360Y-73895732D01*
X137401259Y-73755875D01*
X137402914Y-73596709D01*
X137393278Y-73433362D01*
X137372301Y-73280961D01*
X137366670Y-73252792D01*
X137352782Y-73195584D01*
X137326546Y-73095311D01*
X137289579Y-72957750D01*
X137243503Y-72788679D01*
X137189937Y-72593874D01*
X137130499Y-72379113D01*
X137066810Y-72150174D01*
X137000489Y-71912832D01*
X136933156Y-71672866D01*
X136866430Y-71436052D01*
X136801930Y-71208168D01*
X136741276Y-70994991D01*
X136686087Y-70802297D01*
X136637984Y-70635864D01*
X136598585Y-70501469D01*
X136569510Y-70404890D01*
X136558739Y-70370700D01*
X136441477Y-70072360D01*
X136296172Y-69810878D01*
X136124687Y-69588436D01*
X135928882Y-69407215D01*
X135710621Y-69269396D01*
X135565287Y-69206863D01*
X135475868Y-69177221D01*
X135394452Y-69157809D01*
X135305601Y-69146511D01*
X135193877Y-69141209D01*
X135076666Y-69139859D01*
X134945476Y-69140081D01*
X134945476Y-69140081D01*
G37*
X134945476Y-69140081D02*
X134851576Y-69143366D01*
X134781463Y-69152037D01*
X134721632Y-69168419D01*
X134658580Y-69194835D01*
X134603985Y-69221184D01*
X134454244Y-69319467D01*
X134341940Y-69448879D01*
X134266918Y-69610138D01*
X134229021Y-69803960D01*
X134228095Y-70031064D01*
X134263982Y-70292167D01*
X134320033Y-70529450D01*
X134359995Y-70675500D01*
X134496348Y-70675500D01*
X134571821Y-70673006D01*
X134621337Y-70666587D01*
X134632700Y-70660681D01*
X134626914Y-70630683D01*
X134611566Y-70564397D01*
X134589678Y-70474753D01*
X134583770Y-70451131D01*
X134534453Y-70219846D01*
X134513328Y-70025930D01*
X134520893Y-69864169D01*
X134557643Y-69729346D01*
X134624076Y-69616245D01*
X134667968Y-69566821D01*
X134758696Y-69490986D01*
X134858460Y-69441419D01*
X134978469Y-69415000D01*
X135129934Y-69408610D01*
X135223935Y-69412117D01*
X135352260Y-69422845D01*
X135451168Y-69441590D01*
X135541957Y-69473411D01*
X135604935Y-69502630D01*
X135786752Y-69619774D01*
X135951533Y-69781558D01*
X136095774Y-69983654D01*
X136215972Y-70221737D01*
X136243741Y-70291346D01*
X136262755Y-70348036D01*
X136293644Y-70448009D01*
X136334797Y-70585570D01*
X136384603Y-70755024D01*
X136441450Y-70950677D01*
X136503726Y-71166835D01*
X136569820Y-71397803D01*
X136638122Y-71637886D01*
X136707018Y-71881390D01*
X136774898Y-72122621D01*
X136840150Y-72355884D01*
X136901163Y-72575485D01*
X136956326Y-72775729D01*
X137004026Y-72950921D01*
X137042652Y-73095367D01*
X137070594Y-73203373D01*
X137085615Y-73266300D01*
X137105292Y-73383559D01*
X137118278Y-73509726D01*
X137121318Y-73583800D01*
X137105738Y-73771249D01*
X137057085Y-73921440D01*
X136973709Y-74035924D01*
X136853959Y-74116253D01*
X136696185Y-74163978D01*
X136498735Y-74180652D01*
X136486352Y-74180700D01*
X136256491Y-74158651D01*
X136048659Y-74092199D01*
X135862351Y-73980882D01*
X135697060Y-73824241D01*
X135552279Y-73621815D01*
X135427504Y-73373143D01*
X135341329Y-73139300D01*
X135272008Y-72923400D01*
X135130154Y-72915782D01*
X135053041Y-72913530D01*
X135001522Y-72915643D01*
X134988300Y-72919841D01*
X134995676Y-72947453D01*
X135015531Y-73012329D01*
X135044453Y-73103483D01*
X135065567Y-73168759D01*
X135188357Y-73487675D01*
X135334259Y-73761359D01*
X135503269Y-73989809D01*
X135695386Y-74173021D01*
X135910607Y-74310995D01*
X136148929Y-74403727D01*
X136410350Y-74451216D01*
X136575800Y-74458010D01*
X136691147Y-74453268D01*
X136803550Y-74442052D01*
X136889930Y-74426713D01*
X136894556Y-74425505D01*
X137071471Y-74354937D01*
X137212570Y-74248379D01*
X137317713Y-74105959D01*
X137364267Y-74001155D01*
X137388360Y-73895732D01*
X137401259Y-73755875D01*
X137402914Y-73596709D01*
X137393278Y-73433362D01*
X137372301Y-73280961D01*
X137366670Y-73252792D01*
X137352782Y-73195584D01*
X137326546Y-73095311D01*
X137289579Y-72957750D01*
X137243503Y-72788679D01*
X137189937Y-72593874D01*
X137130499Y-72379113D01*
X137066810Y-72150174D01*
X137000489Y-71912832D01*
X136933156Y-71672866D01*
X136866430Y-71436052D01*
X136801930Y-71208168D01*
X136741276Y-70994991D01*
X136686087Y-70802297D01*
X136637984Y-70635864D01*
X136598585Y-70501469D01*
X136569510Y-70404890D01*
X136558739Y-70370700D01*
X136441477Y-70072360D01*
X136296172Y-69810878D01*
X136124687Y-69588436D01*
X135928882Y-69407215D01*
X135710621Y-69269396D01*
X135565287Y-69206863D01*
X135475868Y-69177221D01*
X135394452Y-69157809D01*
X135305601Y-69146511D01*
X135193877Y-69141209D01*
X135076666Y-69139859D01*
X134945476Y-69140081D01*
G36*
X132096202Y-69126241D02*
X131849838Y-69126648D01*
X131623895Y-69127294D01*
X131422939Y-69128154D01*
X131251538Y-69129200D01*
X131114256Y-69130407D01*
X131015660Y-69131748D01*
X130960317Y-69133197D01*
X130949700Y-69134189D01*
X130956315Y-69160959D01*
X130973325Y-69221175D01*
X130988656Y-69273455D01*
X131027611Y-69404631D01*
X131665847Y-69411415D01*
X132304083Y-69418200D01*
X132994157Y-71869300D01*
X133090818Y-72212707D01*
X133183799Y-72543187D01*
X133272148Y-72857346D01*
X133354911Y-73151788D01*
X133431137Y-73423121D01*
X133499872Y-73667950D01*
X133560163Y-73882879D01*
X133611059Y-74064516D01*
X133651605Y-74209465D01*
X133680851Y-74314333D01*
X133697842Y-74375725D01*
X133701750Y-74390250D01*
X133715719Y-74430454D01*
X133740996Y-74451279D01*
X133791759Y-74459044D01*
X133858484Y-74460100D01*
X133934793Y-74459052D01*
X133985221Y-74456351D01*
X133997376Y-74453750D01*
X133990595Y-74428951D01*
X133970950Y-74358495D01*
X133939350Y-74245618D01*
X133896706Y-74093559D01*
X133843928Y-73905556D01*
X133781925Y-73684848D01*
X133711608Y-73434674D01*
X133633885Y-73158271D01*
X133549669Y-72858877D01*
X133459867Y-72539732D01*
X133365391Y-72204073D01*
X133289017Y-71932800D01*
X132580983Y-69418200D01*
X133215690Y-69411408D01*
X133414377Y-69408905D01*
X133567577Y-69405926D01*
X133680606Y-69402107D01*
X133758777Y-69397078D01*
X133807404Y-69390474D01*
X133831800Y-69381929D01*
X133837280Y-69371074D01*
X133836555Y-69368547D01*
X133821402Y-69322008D01*
X133800799Y-69250776D01*
X133794928Y-69229288D01*
X133767142Y-69126100D01*
X132358421Y-69126100D01*
X132096202Y-69126241D01*
X132096202Y-69126241D01*
G37*
X132096202Y-69126241D02*
X131849838Y-69126648D01*
X131623895Y-69127294D01*
X131422939Y-69128154D01*
X131251538Y-69129200D01*
X131114256Y-69130407D01*
X131015660Y-69131748D01*
X130960317Y-69133197D01*
X130949700Y-69134189D01*
X130956315Y-69160959D01*
X130973325Y-69221175D01*
X130988656Y-69273455D01*
X131027611Y-69404631D01*
X131665847Y-69411415D01*
X132304083Y-69418200D01*
X132994157Y-71869300D01*
X133090818Y-72212707D01*
X133183799Y-72543187D01*
X133272148Y-72857346D01*
X133354911Y-73151788D01*
X133431137Y-73423121D01*
X133499872Y-73667950D01*
X133560163Y-73882879D01*
X133611059Y-74064516D01*
X133651605Y-74209465D01*
X133680851Y-74314333D01*
X133697842Y-74375725D01*
X133701750Y-74390250D01*
X133715719Y-74430454D01*
X133740996Y-74451279D01*
X133791759Y-74459044D01*
X133858484Y-74460100D01*
X133934793Y-74459052D01*
X133985221Y-74456351D01*
X133997376Y-74453750D01*
X133990595Y-74428951D01*
X133970950Y-74358495D01*
X133939350Y-74245618D01*
X133896706Y-74093559D01*
X133843928Y-73905556D01*
X133781925Y-73684848D01*
X133711608Y-73434674D01*
X133633885Y-73158271D01*
X133549669Y-72858877D01*
X133459867Y-72539732D01*
X133365391Y-72204073D01*
X133289017Y-71932800D01*
X132580983Y-69418200D01*
X133215690Y-69411408D01*
X133414377Y-69408905D01*
X133567577Y-69405926D01*
X133680606Y-69402107D01*
X133758777Y-69397078D01*
X133807404Y-69390474D01*
X133831800Y-69381929D01*
X133837280Y-69371074D01*
X133836555Y-69368547D01*
X133821402Y-69322008D01*
X133800799Y-69250776D01*
X133794928Y-69229288D01*
X133767142Y-69126100D01*
X132358421Y-69126100D01*
X132096202Y-69126241D01*
G36*
X130070754Y-69129994D02*
X129891096Y-69132031D01*
X129889250Y-69132057D01*
X129676520Y-69135539D01*
X129508039Y-69139553D01*
X129377260Y-69144542D01*
X129277634Y-69150950D01*
X129202609Y-69159222D01*
X129145639Y-69169801D01*
X129100172Y-69183130D01*
X129092112Y-69186079D01*
X128935079Y-69270244D01*
X128805405Y-69390231D01*
X128713359Y-69536520D01*
X128712813Y-69537745D01*
X128672215Y-69674970D01*
X128653435Y-69847269D01*
X128656357Y-70043893D01*
X128680860Y-70254097D01*
X128722951Y-70452506D01*
X128829810Y-70796595D01*
X128958847Y-71095003D01*
X129110083Y-71347761D01*
X129283536Y-71554902D01*
X129479227Y-71716458D01*
X129552700Y-71762080D01*
X129618400Y-71799765D01*
X129662728Y-71825301D01*
X129673399Y-71831535D01*
X129660890Y-71850331D01*
X129621923Y-71895177D01*
X129574595Y-71946120D01*
X129484227Y-72051992D01*
X129422809Y-72154975D01*
X129385661Y-72268673D01*
X129368102Y-72406693D01*
X129365098Y-72555100D01*
X129366354Y-72631612D01*
X129369586Y-72700247D01*
X129376264Y-72767873D01*
X129387858Y-72841356D01*
X129405836Y-72927563D01*
X129431668Y-73033360D01*
X129466821Y-73165614D01*
X129512767Y-73331193D01*
X129570973Y-73536962D01*
X129587900Y-73596500D01*
X129642406Y-73788009D01*
X129692864Y-73965098D01*
X129737487Y-74121503D01*
X129774487Y-74250964D01*
X129802073Y-74347219D01*
X129818458Y-74404006D01*
X129821894Y-74415650D01*
X129841296Y-74442552D01*
X129886314Y-74456178D01*
X129969111Y-74460094D01*
X129973512Y-74460100D01*
X130049503Y-74458137D01*
X130099621Y-74453082D01*
X130111500Y-74448310D01*
X130104870Y-74421867D01*
X130086081Y-74352499D01*
X130056786Y-74246166D01*
X130018637Y-74108829D01*
X129973289Y-73946448D01*
X129922394Y-73764986D01*
X129895438Y-73669160D01*
X129840598Y-73472340D01*
X129789295Y-73284330D01*
X129743479Y-73112580D01*
X129705103Y-72964543D01*
X129676117Y-72847669D01*
X129658472Y-72769409D01*
X129655204Y-72751699D01*
X129644058Y-72556665D01*
X129676717Y-72385753D01*
X129752505Y-72240444D01*
X129870746Y-72122217D01*
X129970973Y-72060118D01*
X130024150Y-72033559D01*
X130070767Y-72013854D01*
X130119641Y-71999820D01*
X130179587Y-71990277D01*
X130259420Y-71984043D01*
X130367955Y-71979938D01*
X130514009Y-71976781D01*
X130604989Y-71975168D01*
X131089400Y-71966737D01*
X131392606Y-73054668D01*
X131457512Y-73287315D01*
X131519819Y-73510186D01*
X131577863Y-73717365D01*
X131629982Y-73902936D01*
X131674513Y-74060983D01*
X131709792Y-74185589D01*
X131734156Y-74270840D01*
X131743056Y-74301350D01*
X131790301Y-74460100D01*
X131916101Y-74460100D01*
X131996150Y-74455760D01*
X132034788Y-74441009D01*
X132041900Y-74422894D01*
X132035149Y-74393873D01*
X132015490Y-74319185D01*
X131983818Y-74202054D01*
X131941027Y-74045701D01*
X131888012Y-73853351D01*
X131825667Y-73628226D01*
X131754885Y-73373548D01*
X131676562Y-73092541D01*
X131591591Y-72788427D01*
X131500866Y-72464429D01*
X131405282Y-72123770D01*
X131305733Y-71769673D01*
X131305300Y-71768136D01*
X131280320Y-71679332D01*
X131000500Y-71679332D01*
X130976473Y-71683319D01*
X130909882Y-71686758D01*
X130808961Y-71689417D01*
X130681945Y-71691065D01*
X130567365Y-71691500D01*
X130352556Y-71688961D01*
X130181140Y-71681030D01*
X130045944Y-71667233D01*
X129956626Y-71651105D01*
X129753871Y-71582691D01*
X129573096Y-71473887D01*
X129413145Y-71323244D01*
X129272863Y-71129311D01*
X129151094Y-70890639D01*
X129046683Y-70605776D01*
X129002906Y-70454132D01*
X128949328Y-70203296D01*
X128932211Y-69987726D01*
X128951574Y-69807293D01*
X129007435Y-69661872D01*
X129099812Y-69551334D01*
X129140452Y-69521075D01*
X129207501Y-69482676D01*
X129281757Y-69453582D01*
X129371162Y-69432612D01*
X129483663Y-69418582D01*
X129627202Y-69410310D01*
X129809725Y-69406615D01*
X129912939Y-69406120D01*
X130075102Y-69406310D01*
X130193551Y-69407841D01*
X130275367Y-69411385D01*
X130327630Y-69417612D01*
X130357421Y-69427192D01*
X130371822Y-69440797D01*
X130375660Y-69449950D01*
X130388574Y-69494162D01*
X130412754Y-69578821D01*
X130446534Y-69697979D01*
X130488246Y-69845686D01*
X130536222Y-70015991D01*
X130588796Y-70202946D01*
X130644298Y-70400600D01*
X130701062Y-70603004D01*
X130757421Y-70804209D01*
X130811706Y-70998265D01*
X130862251Y-71179222D01*
X130907387Y-71341131D01*
X130945447Y-71478042D01*
X130974764Y-71584005D01*
X130993671Y-71653072D01*
X131000499Y-71679291D01*
X131000500Y-71679332D01*
X131280320Y-71679332D01*
X131205826Y-71414517D01*
X131110304Y-71074699D01*
X131019627Y-70751869D01*
X130934687Y-70449213D01*
X130856375Y-70169916D01*
X130785584Y-69917165D01*
X130723205Y-69694145D01*
X130670130Y-69504043D01*
X130627250Y-69350045D01*
X130595458Y-69235336D01*
X130575644Y-69163104D01*
X130568702Y-69136533D01*
X130568700Y-69136498D01*
X130544401Y-69133116D01*
X130475883Y-69130731D01*
X130369720Y-69129387D01*
X130232486Y-69129127D01*
X130070754Y-69129994D01*
X130070754Y-69129994D01*
G37*
X130070754Y-69129994D02*
X129891096Y-69132031D01*
X129889250Y-69132057D01*
X129676520Y-69135539D01*
X129508039Y-69139553D01*
X129377260Y-69144542D01*
X129277634Y-69150950D01*
X129202609Y-69159222D01*
X129145639Y-69169801D01*
X129100172Y-69183130D01*
X129092112Y-69186079D01*
X128935079Y-69270244D01*
X128805405Y-69390231D01*
X128713359Y-69536520D01*
X128712813Y-69537745D01*
X128672215Y-69674970D01*
X128653435Y-69847269D01*
X128656357Y-70043893D01*
X128680860Y-70254097D01*
X128722951Y-70452506D01*
X128829810Y-70796595D01*
X128958847Y-71095003D01*
X129110083Y-71347761D01*
X129283536Y-71554902D01*
X129479227Y-71716458D01*
X129552700Y-71762080D01*
X129618400Y-71799765D01*
X129662728Y-71825301D01*
X129673399Y-71831535D01*
X129660890Y-71850331D01*
X129621923Y-71895177D01*
X129574595Y-71946120D01*
X129484227Y-72051992D01*
X129422809Y-72154975D01*
X129385661Y-72268673D01*
X129368102Y-72406693D01*
X129365098Y-72555100D01*
X129366354Y-72631612D01*
X129369586Y-72700247D01*
X129376264Y-72767873D01*
X129387858Y-72841356D01*
X129405836Y-72927563D01*
X129431668Y-73033360D01*
X129466821Y-73165614D01*
X129512767Y-73331193D01*
X129570973Y-73536962D01*
X129587900Y-73596500D01*
X129642406Y-73788009D01*
X129692864Y-73965098D01*
X129737487Y-74121503D01*
X129774487Y-74250964D01*
X129802073Y-74347219D01*
X129818458Y-74404006D01*
X129821894Y-74415650D01*
X129841296Y-74442552D01*
X129886314Y-74456178D01*
X129969111Y-74460094D01*
X129973512Y-74460100D01*
X130049503Y-74458137D01*
X130099621Y-74453082D01*
X130111500Y-74448310D01*
X130104870Y-74421867D01*
X130086081Y-74352499D01*
X130056786Y-74246166D01*
X130018637Y-74108829D01*
X129973289Y-73946448D01*
X129922394Y-73764986D01*
X129895438Y-73669160D01*
X129840598Y-73472340D01*
X129789295Y-73284330D01*
X129743479Y-73112580D01*
X129705103Y-72964543D01*
X129676117Y-72847669D01*
X129658472Y-72769409D01*
X129655204Y-72751699D01*
X129644058Y-72556665D01*
X129676717Y-72385753D01*
X129752505Y-72240444D01*
X129870746Y-72122217D01*
X129970973Y-72060118D01*
X130024150Y-72033559D01*
X130070767Y-72013854D01*
X130119641Y-71999820D01*
X130179587Y-71990277D01*
X130259420Y-71984043D01*
X130367955Y-71979938D01*
X130514009Y-71976781D01*
X130604989Y-71975168D01*
X131089400Y-71966737D01*
X131392606Y-73054668D01*
X131457512Y-73287315D01*
X131519819Y-73510186D01*
X131577863Y-73717365D01*
X131629982Y-73902936D01*
X131674513Y-74060983D01*
X131709792Y-74185589D01*
X131734156Y-74270840D01*
X131743056Y-74301350D01*
X131790301Y-74460100D01*
X131916101Y-74460100D01*
X131996150Y-74455760D01*
X132034788Y-74441009D01*
X132041900Y-74422894D01*
X132035149Y-74393873D01*
X132015490Y-74319185D01*
X131983818Y-74202054D01*
X131941027Y-74045701D01*
X131888012Y-73853351D01*
X131825667Y-73628226D01*
X131754885Y-73373548D01*
X131676562Y-73092541D01*
X131591591Y-72788427D01*
X131500866Y-72464429D01*
X131405282Y-72123770D01*
X131305733Y-71769673D01*
X131305300Y-71768136D01*
X131280320Y-71679332D01*
X131000500Y-71679332D01*
X130976473Y-71683319D01*
X130909882Y-71686758D01*
X130808961Y-71689417D01*
X130681945Y-71691065D01*
X130567365Y-71691500D01*
X130352556Y-71688961D01*
X130181140Y-71681030D01*
X130045944Y-71667233D01*
X129956626Y-71651105D01*
X129753871Y-71582691D01*
X129573096Y-71473887D01*
X129413145Y-71323244D01*
X129272863Y-71129311D01*
X129151094Y-70890639D01*
X129046683Y-70605776D01*
X129002906Y-70454132D01*
X128949328Y-70203296D01*
X128932211Y-69987726D01*
X128951574Y-69807293D01*
X129007435Y-69661872D01*
X129099812Y-69551334D01*
X129140452Y-69521075D01*
X129207501Y-69482676D01*
X129281757Y-69453582D01*
X129371162Y-69432612D01*
X129483663Y-69418582D01*
X129627202Y-69410310D01*
X129809725Y-69406615D01*
X129912939Y-69406120D01*
X130075102Y-69406310D01*
X130193551Y-69407841D01*
X130275367Y-69411385D01*
X130327630Y-69417612D01*
X130357421Y-69427192D01*
X130371822Y-69440797D01*
X130375660Y-69449950D01*
X130388574Y-69494162D01*
X130412754Y-69578821D01*
X130446534Y-69697979D01*
X130488246Y-69845686D01*
X130536222Y-70015991D01*
X130588796Y-70202946D01*
X130644298Y-70400600D01*
X130701062Y-70603004D01*
X130757421Y-70804209D01*
X130811706Y-70998265D01*
X130862251Y-71179222D01*
X130907387Y-71341131D01*
X130945447Y-71478042D01*
X130974764Y-71584005D01*
X130993671Y-71653072D01*
X131000499Y-71679291D01*
X131000500Y-71679332D01*
X131280320Y-71679332D01*
X131205826Y-71414517D01*
X131110304Y-71074699D01*
X131019627Y-70751869D01*
X130934687Y-70449213D01*
X130856375Y-70169916D01*
X130785584Y-69917165D01*
X130723205Y-69694145D01*
X130670130Y-69504043D01*
X130627250Y-69350045D01*
X130595458Y-69235336D01*
X130575644Y-69163104D01*
X130568702Y-69136533D01*
X130568700Y-69136498D01*
X130544401Y-69133116D01*
X130475883Y-69130731D01*
X130369720Y-69129387D01*
X130232486Y-69129127D01*
X130070754Y-69129994D01*
G36*
X127479356Y-69140123D02*
X127469900Y-69159343D01*
X127476653Y-69188220D01*
X127496309Y-69262737D01*
X127527967Y-69379647D01*
X127570725Y-69535701D01*
X127623682Y-69727652D01*
X127685936Y-69952251D01*
X127756584Y-70206252D01*
X127834726Y-70486405D01*
X127919459Y-70789463D01*
X128009881Y-71112179D01*
X128105092Y-71451304D01*
X128194878Y-71770520D01*
X128293885Y-72122274D01*
X128389171Y-72460914D01*
X128479812Y-72783155D01*
X128564885Y-73085715D01*
X128643469Y-73365308D01*
X128714641Y-73618650D01*
X128777479Y-73842457D01*
X128831059Y-74033444D01*
X128874461Y-74188327D01*
X128906760Y-74303822D01*
X128927036Y-74376645D01*
X128934231Y-74402950D01*
X128948468Y-74436116D01*
X128978715Y-74453281D01*
X129038620Y-74459505D01*
X129088308Y-74460100D01*
X129167739Y-74458660D01*
X129207370Y-74450979D01*
X129218190Y-74432017D01*
X129212855Y-74402950D01*
X129204031Y-74371161D01*
X129182352Y-74293741D01*
X129148735Y-74173955D01*
X129104100Y-74015068D01*
X129049365Y-73820346D01*
X128985448Y-73593053D01*
X128913267Y-73336456D01*
X128833742Y-73053819D01*
X128747789Y-72748408D01*
X128656329Y-72423489D01*
X128560279Y-72082326D01*
X128464532Y-71742300D01*
X127731362Y-69138800D01*
X127600631Y-69131122D01*
X127519721Y-69129971D01*
X127479356Y-69140123D01*
X127479356Y-69140123D01*
G37*
X127479356Y-69140123D02*
X127469900Y-69159343D01*
X127476653Y-69188220D01*
X127496309Y-69262737D01*
X127527967Y-69379647D01*
X127570725Y-69535701D01*
X127623682Y-69727652D01*
X127685936Y-69952251D01*
X127756584Y-70206252D01*
X127834726Y-70486405D01*
X127919459Y-70789463D01*
X128009881Y-71112179D01*
X128105092Y-71451304D01*
X128194878Y-71770520D01*
X128293885Y-72122274D01*
X128389171Y-72460914D01*
X128479812Y-72783155D01*
X128564885Y-73085715D01*
X128643469Y-73365308D01*
X128714641Y-73618650D01*
X128777479Y-73842457D01*
X128831059Y-74033444D01*
X128874461Y-74188327D01*
X128906760Y-74303822D01*
X128927036Y-74376645D01*
X128934231Y-74402950D01*
X128948468Y-74436116D01*
X128978715Y-74453281D01*
X129038620Y-74459505D01*
X129088308Y-74460100D01*
X129167739Y-74458660D01*
X129207370Y-74450979D01*
X129218190Y-74432017D01*
X129212855Y-74402950D01*
X129204031Y-74371161D01*
X129182352Y-74293741D01*
X129148735Y-74173955D01*
X129104100Y-74015068D01*
X129049365Y-73820346D01*
X128985448Y-73593053D01*
X128913267Y-73336456D01*
X128833742Y-73053819D01*
X128747789Y-72748408D01*
X128656329Y-72423489D01*
X128560279Y-72082326D01*
X128464532Y-71742300D01*
X127731362Y-69138800D01*
X127600631Y-69131122D01*
X127519721Y-69129971D01*
X127479356Y-69140123D01*
G36*
X125743425Y-69133768D02*
X125524181Y-69167199D01*
X125344372Y-69232330D01*
X125203447Y-69329526D01*
X125100856Y-69459151D01*
X125042161Y-69599255D01*
X125020075Y-69720305D01*
X125011018Y-69875571D01*
X125014425Y-70050321D01*
X125029730Y-70229824D01*
X125056367Y-70399348D01*
X125076174Y-70485000D01*
X125123428Y-70662800D01*
X125270098Y-70670481D01*
X125352149Y-70673158D01*
X125394161Y-70668120D01*
X125406681Y-70652349D01*
X125403273Y-70632381D01*
X125354093Y-70452485D01*
X125322493Y-70300854D01*
X125305431Y-70159326D01*
X125299898Y-70015100D01*
X125300677Y-69895753D01*
X125306781Y-69811966D01*
X125320864Y-69748568D01*
X125345578Y-69690389D01*
X125362020Y-69659819D01*
X125441659Y-69553078D01*
X125546516Y-69478248D01*
X125683554Y-69431828D01*
X125858281Y-69410394D01*
X126096266Y-69420311D01*
X126312620Y-69476185D01*
X126507349Y-69578019D01*
X126680459Y-69725818D01*
X126831955Y-69919587D01*
X126961846Y-70159329D01*
X126997290Y-70241913D01*
X127017865Y-70300444D01*
X127050146Y-70402430D01*
X127092567Y-70542293D01*
X127143560Y-70714453D01*
X127201558Y-70913333D01*
X127264994Y-71133352D01*
X127332300Y-71368931D01*
X127401908Y-71614492D01*
X127472252Y-71864455D01*
X127541764Y-72113242D01*
X127608877Y-72355272D01*
X127672023Y-72584968D01*
X127729634Y-72796749D01*
X127780145Y-72985038D01*
X127821986Y-73144254D01*
X127853591Y-73268819D01*
X127873393Y-73353154D01*
X127878237Y-73377661D01*
X127898748Y-73592316D01*
X127881088Y-73773797D01*
X127825060Y-73922676D01*
X127730462Y-74039528D01*
X127622300Y-74112711D01*
X127554309Y-74145665D01*
X127496281Y-74166059D01*
X127433160Y-74176294D01*
X127349888Y-74178772D01*
X127231409Y-74175895D01*
X127227130Y-74175750D01*
X127102030Y-74169790D01*
X127010487Y-74159454D01*
X126935265Y-74141027D01*
X126859126Y-74110793D01*
X126804000Y-74084539D01*
X126622676Y-73967616D01*
X126458665Y-73805179D01*
X126314077Y-73600188D01*
X126191024Y-73355601D01*
X126097659Y-73094850D01*
X126042553Y-72910700D01*
X125905327Y-72910700D01*
X125829592Y-72914564D01*
X125779753Y-72924516D01*
X125768100Y-72933809D01*
X125777644Y-72984967D01*
X125803449Y-73071227D01*
X125841271Y-73181209D01*
X125886870Y-73303536D01*
X125936003Y-73426829D01*
X125984429Y-73539710D01*
X126027906Y-73630800D01*
X126028024Y-73631027D01*
X126121589Y-73783612D01*
X126241482Y-73937643D01*
X126376890Y-74081896D01*
X126516998Y-74205150D01*
X126650993Y-74296182D01*
X126686947Y-74314848D01*
X126904590Y-74396156D01*
X127139583Y-74444481D01*
X127376786Y-74458222D01*
X127601060Y-74435775D01*
X127673100Y-74419235D01*
X127846844Y-74351238D01*
X127983060Y-74249524D01*
X128084181Y-74111741D01*
X128144743Y-73963233D01*
X128169156Y-73837627D01*
X128179530Y-73681111D01*
X128175609Y-73511667D01*
X128157136Y-73347282D01*
X128153814Y-73328114D01*
X128139716Y-73264792D01*
X128112926Y-73158344D01*
X128075039Y-73014394D01*
X128027647Y-72838567D01*
X127972345Y-72636487D01*
X127910727Y-72413777D01*
X127844385Y-72176063D01*
X127774915Y-71928968D01*
X127703909Y-71678117D01*
X127632961Y-71429134D01*
X127563666Y-71187642D01*
X127497617Y-70959267D01*
X127436407Y-70749632D01*
X127381631Y-70564362D01*
X127334882Y-70409081D01*
X127297754Y-70289412D01*
X127271840Y-70210981D01*
X127265940Y-70194895D01*
X127137580Y-69920459D01*
X126979984Y-69683799D01*
X126795708Y-69486697D01*
X126587313Y-69330936D01*
X126357355Y-69218300D01*
X126108394Y-69150571D01*
X125842987Y-69129533D01*
X125743425Y-69133768D01*
X125743425Y-69133768D01*
G37*
X125743425Y-69133768D02*
X125524181Y-69167199D01*
X125344372Y-69232330D01*
X125203447Y-69329526D01*
X125100856Y-69459151D01*
X125042161Y-69599255D01*
X125020075Y-69720305D01*
X125011018Y-69875571D01*
X125014425Y-70050321D01*
X125029730Y-70229824D01*
X125056367Y-70399348D01*
X125076174Y-70485000D01*
X125123428Y-70662800D01*
X125270098Y-70670481D01*
X125352149Y-70673158D01*
X125394161Y-70668120D01*
X125406681Y-70652349D01*
X125403273Y-70632381D01*
X125354093Y-70452485D01*
X125322493Y-70300854D01*
X125305431Y-70159326D01*
X125299898Y-70015100D01*
X125300677Y-69895753D01*
X125306781Y-69811966D01*
X125320864Y-69748568D01*
X125345578Y-69690389D01*
X125362020Y-69659819D01*
X125441659Y-69553078D01*
X125546516Y-69478248D01*
X125683554Y-69431828D01*
X125858281Y-69410394D01*
X126096266Y-69420311D01*
X126312620Y-69476185D01*
X126507349Y-69578019D01*
X126680459Y-69725818D01*
X126831955Y-69919587D01*
X126961846Y-70159329D01*
X126997290Y-70241913D01*
X127017865Y-70300444D01*
X127050146Y-70402430D01*
X127092567Y-70542293D01*
X127143560Y-70714453D01*
X127201558Y-70913333D01*
X127264994Y-71133352D01*
X127332300Y-71368931D01*
X127401908Y-71614492D01*
X127472252Y-71864455D01*
X127541764Y-72113242D01*
X127608877Y-72355272D01*
X127672023Y-72584968D01*
X127729634Y-72796749D01*
X127780145Y-72985038D01*
X127821986Y-73144254D01*
X127853591Y-73268819D01*
X127873393Y-73353154D01*
X127878237Y-73377661D01*
X127898748Y-73592316D01*
X127881088Y-73773797D01*
X127825060Y-73922676D01*
X127730462Y-74039528D01*
X127622300Y-74112711D01*
X127554309Y-74145665D01*
X127496281Y-74166059D01*
X127433160Y-74176294D01*
X127349888Y-74178772D01*
X127231409Y-74175895D01*
X127227130Y-74175750D01*
X127102030Y-74169790D01*
X127010487Y-74159454D01*
X126935265Y-74141027D01*
X126859126Y-74110793D01*
X126804000Y-74084539D01*
X126622676Y-73967616D01*
X126458665Y-73805179D01*
X126314077Y-73600188D01*
X126191024Y-73355601D01*
X126097659Y-73094850D01*
X126042553Y-72910700D01*
X125905327Y-72910700D01*
X125829592Y-72914564D01*
X125779753Y-72924516D01*
X125768100Y-72933809D01*
X125777644Y-72984967D01*
X125803449Y-73071227D01*
X125841271Y-73181209D01*
X125886870Y-73303536D01*
X125936003Y-73426829D01*
X125984429Y-73539710D01*
X126027906Y-73630800D01*
X126028024Y-73631027D01*
X126121589Y-73783612D01*
X126241482Y-73937643D01*
X126376890Y-74081896D01*
X126516998Y-74205150D01*
X126650993Y-74296182D01*
X126686947Y-74314848D01*
X126904590Y-74396156D01*
X127139583Y-74444481D01*
X127376786Y-74458222D01*
X127601060Y-74435775D01*
X127673100Y-74419235D01*
X127846844Y-74351238D01*
X127983060Y-74249524D01*
X128084181Y-74111741D01*
X128144743Y-73963233D01*
X128169156Y-73837627D01*
X128179530Y-73681111D01*
X128175609Y-73511667D01*
X128157136Y-73347282D01*
X128153814Y-73328114D01*
X128139716Y-73264792D01*
X128112926Y-73158344D01*
X128075039Y-73014394D01*
X128027647Y-72838567D01*
X127972345Y-72636487D01*
X127910727Y-72413777D01*
X127844385Y-72176063D01*
X127774915Y-71928968D01*
X127703909Y-71678117D01*
X127632961Y-71429134D01*
X127563666Y-71187642D01*
X127497617Y-70959267D01*
X127436407Y-70749632D01*
X127381631Y-70564362D01*
X127334882Y-70409081D01*
X127297754Y-70289412D01*
X127271840Y-70210981D01*
X127265940Y-70194895D01*
X127137580Y-69920459D01*
X126979984Y-69683799D01*
X126795708Y-69486697D01*
X126587313Y-69330936D01*
X126357355Y-69218300D01*
X126108394Y-69150571D01*
X125842987Y-69129533D01*
X125743425Y-69133768D01*
M02*
