G04 #@! TF.FileFunction,Soldermask,Bot*
%FSLAX46Y46*%
G04 Gerber Fmt 4.6, Leading zero omitted, Abs format (unit mm)*
G04 Created by KiCad (PCBNEW 4.0.7) date 11/22/17 23:51:00*
%MOMM*%
%LPD*%
G01*
G04 APERTURE LIST*
%ADD10C,0.100000*%
%ADD11C,1.700000*%
G04 APERTURE END LIST*
D10*
D11*
X125730000Y-66040000D03*
X127000000Y-68580000D03*
X128270000Y-66040000D03*
X129540000Y-68580000D03*
X130810000Y-66040000D03*
X132080000Y-68580000D03*
X133350000Y-66040000D03*
X134620000Y-68580000D03*
X135890000Y-66040000D03*
X137160000Y-68580000D03*
X138430000Y-66040000D03*
X139700000Y-68580000D03*
X140970000Y-66040000D03*
X142240000Y-68580000D03*
X143510000Y-66040000D03*
X144780000Y-68580000D03*
X146050000Y-66040000D03*
X147320000Y-68580000D03*
X148590000Y-66040000D03*
X149860000Y-68580000D03*
X151130000Y-66040000D03*
X152400000Y-68580000D03*
X153670000Y-66040000D03*
X154940000Y-68580000D03*
X156210000Y-66040000D03*
X157480000Y-68580000D03*
X158750000Y-66040000D03*
X160020000Y-68580000D03*
X161290000Y-66040000D03*
X162560000Y-68580000D03*
X163830000Y-66040000D03*
X165100000Y-68580000D03*
X166370000Y-66040000D03*
X167640000Y-68580000D03*
X168910000Y-66040000D03*
X170180000Y-68580000D03*
X171450000Y-66040000D03*
X172720000Y-68580000D03*
X173990000Y-66040000D03*
X175260000Y-68580000D03*
X124460000Y-67310000D03*
X124460000Y-69850000D03*
X127000000Y-71120000D03*
X124460000Y-72390000D03*
X127000000Y-73660000D03*
X124460000Y-74930000D03*
X127000000Y-76200000D03*
X124460000Y-77470000D03*
X127000000Y-78740000D03*
X124460000Y-80010000D03*
X127000000Y-81280000D03*
X124460000Y-82550000D03*
X127000000Y-83820000D03*
X124460000Y-85090000D03*
X130810000Y-71120000D03*
X133350000Y-71120000D03*
X135890000Y-71120000D03*
X138430000Y-71120000D03*
X140970000Y-71120000D03*
X129540000Y-72390000D03*
X129540000Y-74930000D03*
X129540000Y-77470000D03*
X129540000Y-80010000D03*
X129540000Y-82550000D03*
X132080000Y-73660000D03*
X132080000Y-76200000D03*
X132080000Y-78740000D03*
X132080000Y-81280000D03*
X134620000Y-73660000D03*
X137160000Y-73660000D03*
X139700000Y-73660000D03*
X134620000Y-77470000D03*
X135890000Y-76200000D03*
X134620000Y-80010000D03*
X138430000Y-76200000D03*
X124460000Y-87630000D03*
X124460000Y-90170000D03*
X124460000Y-92710000D03*
X124460000Y-95250000D03*
X124460000Y-97790000D03*
X124460000Y-100330000D03*
X124460000Y-102870000D03*
X124460000Y-105410000D03*
X124460000Y-107950000D03*
X124460000Y-110490000D03*
X124460000Y-113030000D03*
X124460000Y-115570000D03*
X124460000Y-118110000D03*
X124460000Y-120650000D03*
X125730000Y-121920000D03*
X128270000Y-121920000D03*
X130810000Y-121920000D03*
X133350000Y-121920000D03*
X135890000Y-121920000D03*
X138430000Y-121920000D03*
X140970000Y-121920000D03*
X143510000Y-121920000D03*
X146050000Y-121920000D03*
X148590000Y-121920000D03*
X151130000Y-121920000D03*
X153670000Y-121920000D03*
X156210000Y-121920000D03*
X158750000Y-121920000D03*
X161290000Y-121920000D03*
X163830000Y-121920000D03*
X166370000Y-121920000D03*
X168910000Y-121920000D03*
X171450000Y-121920000D03*
X173990000Y-121920000D03*
X176530000Y-121920000D03*
X179070000Y-121920000D03*
X180340000Y-120650000D03*
X180340000Y-118110000D03*
X180340000Y-115570000D03*
X180340000Y-113030000D03*
X180340000Y-110490000D03*
X180340000Y-107950000D03*
X180340000Y-105410000D03*
X180340000Y-102870000D03*
X180340000Y-100330000D03*
X180340000Y-97790000D03*
X180340000Y-95250000D03*
X180340000Y-92710000D03*
X180340000Y-90170000D03*
X180340000Y-87630000D03*
X180340000Y-85090000D03*
X180340000Y-82550000D03*
X180340000Y-80010000D03*
X180340000Y-77470000D03*
X180340000Y-74930000D03*
X180340000Y-72390000D03*
X180340000Y-69850000D03*
X180340000Y-67310000D03*
X179070000Y-66040000D03*
X176530000Y-66040000D03*
X177800000Y-68580000D03*
X177800000Y-71120000D03*
X177800000Y-73660000D03*
X177800000Y-76200000D03*
X177800000Y-78740000D03*
X177800000Y-81280000D03*
X177800000Y-83820000D03*
X177800000Y-86360000D03*
X177800000Y-88900000D03*
X177800000Y-91440000D03*
X177800000Y-93980000D03*
X177800000Y-96520000D03*
X177800000Y-99060000D03*
X177800000Y-101600000D03*
X177800000Y-104140000D03*
X177800000Y-106680000D03*
X177800000Y-109220000D03*
X177800000Y-111760000D03*
X177800000Y-114300000D03*
X177800000Y-116840000D03*
X177800000Y-119380000D03*
X175260000Y-119380000D03*
X172720000Y-119380000D03*
X170180000Y-119380000D03*
X167640000Y-119380000D03*
X165100000Y-119380000D03*
X162560000Y-119380000D03*
X160020000Y-119380000D03*
X157480000Y-119380000D03*
X154940000Y-119380000D03*
X152400000Y-119380000D03*
X149860000Y-119380000D03*
X147320000Y-119380000D03*
X144780000Y-119380000D03*
X142240000Y-119380000D03*
X139700000Y-119380000D03*
X137160000Y-119380000D03*
X134620000Y-119380000D03*
X132080000Y-119380000D03*
X129540000Y-119380000D03*
X127000000Y-119380000D03*
X127000000Y-116840000D03*
X127000000Y-114300000D03*
X127000000Y-111760000D03*
X127000000Y-109220000D03*
X127000000Y-106680000D03*
X127000000Y-104140000D03*
X127000000Y-101600000D03*
X127000000Y-99060000D03*
X127000000Y-96520000D03*
X127000000Y-93980000D03*
X127000000Y-91440000D03*
X127000000Y-86360000D03*
X127000000Y-88900000D03*
X138430000Y-111760000D03*
X138430000Y-116840000D03*
X140970000Y-116840000D03*
X140970000Y-111760000D03*
X140970000Y-106680000D03*
X140970000Y-101600000D03*
X140970000Y-96520000D03*
X140970000Y-91440000D03*
X140970000Y-86360000D03*
X140970000Y-81280000D03*
X140970000Y-76200000D03*
X139700000Y-78740000D03*
X139700000Y-83820000D03*
X139700000Y-88900000D03*
X139700000Y-93980000D03*
X139700000Y-99060000D03*
X139700000Y-104140000D03*
X139700000Y-109220000D03*
X139700000Y-114300000D03*
X142240000Y-114300000D03*
X142240000Y-109220000D03*
X142240000Y-104140000D03*
X142240000Y-99060000D03*
X142240000Y-93980000D03*
X142240000Y-88900000D03*
X142240000Y-83820000D03*
X142240000Y-78740000D03*
X142240000Y-73660000D03*
X143510000Y-71120000D03*
X143510000Y-76200000D03*
X143510000Y-81280000D03*
X143510000Y-86360000D03*
X143510000Y-91440000D03*
X143510000Y-96520000D03*
X143510000Y-101600000D03*
X143510000Y-106680000D03*
X143510000Y-111760000D03*
X143510000Y-116840000D03*
X144780000Y-114300000D03*
X144780000Y-109220000D03*
X144780000Y-104140000D03*
X144780000Y-99060000D03*
X144780000Y-93980000D03*
X144780000Y-88900000D03*
X144780000Y-83820000D03*
X144780000Y-78740000D03*
X144780000Y-73660000D03*
X146050000Y-71120000D03*
X146050000Y-76200000D03*
X146050000Y-81280000D03*
X146050000Y-86360000D03*
X146050000Y-91440000D03*
X146050000Y-96520000D03*
X146050000Y-101600000D03*
X146050000Y-106680000D03*
X146050000Y-111760000D03*
X146050000Y-116840000D03*
X147320000Y-114300000D03*
X147320000Y-109220000D03*
X147320000Y-104140000D03*
X147320000Y-99060000D03*
X147320000Y-93980000D03*
X147320000Y-88900000D03*
X147320000Y-83820000D03*
X147320000Y-78740000D03*
X147320000Y-73660000D03*
X148590000Y-71120000D03*
X148590000Y-76200000D03*
X148590000Y-81280000D03*
X148590000Y-86360000D03*
X148590000Y-91440000D03*
X148590000Y-96520000D03*
X148590000Y-101600000D03*
X148590000Y-106680000D03*
X148590000Y-111760000D03*
X148590000Y-116840000D03*
X149860000Y-114300000D03*
X149860000Y-109220000D03*
X149860000Y-104140000D03*
X149860000Y-99060000D03*
X149860000Y-93980000D03*
X149860000Y-88900000D03*
X149860000Y-78740000D03*
X149860000Y-83820000D03*
X149860000Y-73660000D03*
X151130000Y-71120000D03*
X151130000Y-76200000D03*
X151130000Y-81280000D03*
X151130000Y-86360000D03*
X151130000Y-91440000D03*
X151130000Y-96520000D03*
X151130000Y-101600000D03*
X151130000Y-106680000D03*
X151130000Y-111760000D03*
X151130000Y-116840000D03*
X152400000Y-114300000D03*
X152400000Y-109220000D03*
X152400000Y-104140000D03*
X152400000Y-99060000D03*
X152400000Y-93980000D03*
X152400000Y-88900000D03*
X152400000Y-83820000D03*
X152400000Y-78740000D03*
X152400000Y-73660000D03*
X153670000Y-71120000D03*
X153670000Y-76200000D03*
X153670000Y-81280000D03*
X153670000Y-86360000D03*
X153670000Y-91440000D03*
X153670000Y-96520000D03*
X153670000Y-101600000D03*
X153670000Y-106680000D03*
X153670000Y-116840000D03*
X153670000Y-111760000D03*
X154940000Y-114300000D03*
X154940000Y-109220000D03*
X154940000Y-104140000D03*
X154940000Y-99060000D03*
X154940000Y-93980000D03*
X154940000Y-88900000D03*
X154940000Y-83820000D03*
X154940000Y-78740000D03*
X154940000Y-73660000D03*
X156210000Y-71120000D03*
X156210000Y-76200000D03*
X156210000Y-81280000D03*
X156210000Y-86360000D03*
X156210000Y-91440000D03*
X156210000Y-96520000D03*
X156210000Y-101600000D03*
X156210000Y-106680000D03*
X156210000Y-111760000D03*
X156210000Y-116840000D03*
X157480000Y-114300000D03*
X158750000Y-116840000D03*
X158750000Y-111760000D03*
X157480000Y-109220000D03*
X157480000Y-104140000D03*
X157480000Y-99060000D03*
X157480000Y-93980000D03*
X157480000Y-88900000D03*
X157480000Y-83820000D03*
X157480000Y-78740000D03*
X157480000Y-73660000D03*
X158750000Y-71120000D03*
X158750000Y-76200000D03*
X158750000Y-81280000D03*
X158750000Y-86360000D03*
X158750000Y-91440000D03*
X158750000Y-96520000D03*
X158750000Y-101600000D03*
X158750000Y-106680000D03*
X160020000Y-114300000D03*
X160020000Y-109220000D03*
X160020000Y-104140000D03*
X160020000Y-99060000D03*
X160020000Y-93980000D03*
X160020000Y-88900000D03*
X160020000Y-83820000D03*
X160020000Y-78740000D03*
X160020000Y-73660000D03*
X161290000Y-71120000D03*
X161290000Y-76200000D03*
X161290000Y-81280000D03*
X161290000Y-86360000D03*
X161290000Y-91440000D03*
X161290000Y-96520000D03*
X161290000Y-101600000D03*
X161290000Y-106680000D03*
X161290000Y-111760000D03*
X161290000Y-116840000D03*
X162560000Y-114300000D03*
X162560000Y-109220000D03*
X162560000Y-104140000D03*
X162560000Y-99060000D03*
X162560000Y-93980000D03*
X162560000Y-88900000D03*
X162560000Y-83820000D03*
X162560000Y-73660000D03*
X162560000Y-78740000D03*
X163830000Y-71120000D03*
X163830000Y-76200000D03*
X163830000Y-81280000D03*
X163830000Y-86360000D03*
X163830000Y-91440000D03*
X163830000Y-96520000D03*
X163830000Y-101600000D03*
X163830000Y-106680000D03*
X163830000Y-111760000D03*
X163830000Y-116840000D03*
X129540000Y-85090000D03*
X129540000Y-87630000D03*
X129540000Y-90170000D03*
X129540000Y-92710000D03*
X129540000Y-95250000D03*
X129540000Y-97790000D03*
X129540000Y-100330000D03*
X129540000Y-102870000D03*
X129540000Y-105410000D03*
X129540000Y-107950000D03*
X129540000Y-110490000D03*
X129540000Y-113030000D03*
X129540000Y-115570000D03*
X130810000Y-116840000D03*
X133350000Y-116840000D03*
X135890000Y-116840000D03*
X166370000Y-116840000D03*
X168910000Y-116840000D03*
X171450000Y-116840000D03*
X173990000Y-116840000D03*
X175260000Y-115570000D03*
X175260000Y-113030000D03*
X175260000Y-110490000D03*
X175260000Y-107950000D03*
X175260000Y-105410000D03*
X175260000Y-102870000D03*
X175260000Y-100330000D03*
X175260000Y-97790000D03*
X175260000Y-95250000D03*
X175260000Y-92710000D03*
X175260000Y-90170000D03*
X175260000Y-87630000D03*
X175260000Y-85090000D03*
X175260000Y-82550000D03*
X175260000Y-80010000D03*
X175260000Y-77470000D03*
X175260000Y-74930000D03*
X175260000Y-72390000D03*
X173990000Y-71120000D03*
X171450000Y-71120000D03*
X168910000Y-71120000D03*
X166370000Y-71120000D03*
X165100000Y-73660000D03*
X167640000Y-73660000D03*
X170180000Y-73660000D03*
X172720000Y-73660000D03*
X172720000Y-76200000D03*
X172720000Y-78740000D03*
X172720000Y-81280000D03*
X172720000Y-83820000D03*
X172720000Y-86360000D03*
X172720000Y-88900000D03*
X172720000Y-91440000D03*
X172720000Y-93980000D03*
X172720000Y-96520000D03*
X172720000Y-99060000D03*
X172720000Y-101600000D03*
X172720000Y-104140000D03*
X172720000Y-106680000D03*
X172720000Y-109220000D03*
X172720000Y-111760000D03*
X172720000Y-114300000D03*
X170180000Y-114300000D03*
X167640000Y-114300000D03*
X165100000Y-114300000D03*
X137160000Y-114300000D03*
X134620000Y-114300000D03*
X132080000Y-114300000D03*
X132080000Y-111760000D03*
X132080000Y-109220000D03*
X132080000Y-106680000D03*
X132080000Y-104140000D03*
X132080000Y-101600000D03*
X132080000Y-99060000D03*
X132080000Y-96520000D03*
X132080000Y-93980000D03*
X132080000Y-91440000D03*
X132080000Y-88900000D03*
X132080000Y-86360000D03*
X132080000Y-83820000D03*
X134620000Y-82550000D03*
X134620000Y-85090000D03*
X134620000Y-87630000D03*
X134620000Y-90170000D03*
X134620000Y-92710000D03*
X134620000Y-95250000D03*
X134620000Y-97790000D03*
X134620000Y-100330000D03*
X134620000Y-102870000D03*
X134620000Y-105410000D03*
X134620000Y-107950000D03*
X134620000Y-110490000D03*
X135890000Y-111760000D03*
X166370000Y-111760000D03*
X168910000Y-111760000D03*
X170180000Y-110490000D03*
X170180000Y-107950000D03*
X170180000Y-105410000D03*
X170180000Y-102870000D03*
X170180000Y-100330000D03*
X170180000Y-97790000D03*
X170180000Y-95250000D03*
X170180000Y-92710000D03*
X170180000Y-90170000D03*
X170180000Y-87630000D03*
X170180000Y-85090000D03*
X170180000Y-82550000D03*
X170180000Y-80010000D03*
X170180000Y-77470000D03*
X168910000Y-76200000D03*
X166370000Y-76200000D03*
X137160000Y-78740000D03*
X165100000Y-78740000D03*
X167640000Y-78740000D03*
X167640000Y-81280000D03*
X167640000Y-83820000D03*
X167640000Y-86360000D03*
X167640000Y-88900000D03*
X167640000Y-91440000D03*
X167640000Y-93980000D03*
X167640000Y-96520000D03*
X167640000Y-99060000D03*
X167640000Y-101600000D03*
X167640000Y-104140000D03*
X167640000Y-106680000D03*
X167640000Y-109220000D03*
X165100000Y-109220000D03*
X137160000Y-109220000D03*
X137160000Y-106680000D03*
X137160000Y-104140000D03*
X137160000Y-101600000D03*
X137160000Y-99060000D03*
X137160000Y-96520000D03*
X137160000Y-93980000D03*
X137160000Y-91440000D03*
X137160000Y-88900000D03*
X137160000Y-86360000D03*
X137160000Y-83820000D03*
X137160000Y-81280000D03*
X124460000Y-63500000D03*
X127000000Y-63500000D03*
X129540000Y-63500000D03*
X132080000Y-63500000D03*
X134620000Y-63500000D03*
X137160000Y-63500000D03*
X139700000Y-63500000D03*
X142240000Y-63500000D03*
X144780000Y-63500000D03*
X147320000Y-63500000D03*
X149860000Y-63500000D03*
X152400000Y-63500000D03*
X154940000Y-63500000D03*
X157480000Y-63500000D03*
X160020000Y-63500000D03*
X162560000Y-63500000D03*
X165100000Y-63500000D03*
X167640000Y-63500000D03*
X170180000Y-63500000D03*
X172720000Y-63500000D03*
X175260000Y-63500000D03*
X177800000Y-63500000D03*
X125730000Y-60960000D03*
X128270000Y-60960000D03*
X130810000Y-60960000D03*
X133350000Y-60960000D03*
X135890000Y-60960000D03*
X138430000Y-60960000D03*
X140970000Y-60960000D03*
X143510000Y-60960000D03*
X146050000Y-60960000D03*
X148590000Y-60960000D03*
X151130000Y-60960000D03*
X153670000Y-60960000D03*
X156210000Y-60960000D03*
X158750000Y-60960000D03*
X161290000Y-60960000D03*
X163830000Y-60960000D03*
X166370000Y-60960000D03*
X168910000Y-60960000D03*
X171450000Y-60960000D03*
X173990000Y-60960000D03*
X176530000Y-60960000D03*
X179070000Y-60960000D03*
X182880000Y-66040000D03*
X182880000Y-68580000D03*
X182880000Y-71120000D03*
X182880000Y-73660000D03*
X182880000Y-76200000D03*
X182880000Y-78740000D03*
X182880000Y-81280000D03*
X182880000Y-83820000D03*
X182880000Y-86360000D03*
X182880000Y-88900000D03*
X182880000Y-91440000D03*
X182880000Y-93980000D03*
X182880000Y-96520000D03*
X182880000Y-99060000D03*
X182880000Y-101600000D03*
X182880000Y-104140000D03*
X182880000Y-106680000D03*
X182880000Y-109220000D03*
X182880000Y-111760000D03*
X182880000Y-114300000D03*
X182880000Y-116840000D03*
X182880000Y-119380000D03*
X185420000Y-120650000D03*
X185420000Y-118110000D03*
X185420000Y-115570000D03*
X185420000Y-113030000D03*
X185420000Y-110490000D03*
X185420000Y-107950000D03*
X185420000Y-105410000D03*
X185420000Y-102870000D03*
X185420000Y-100330000D03*
X185420000Y-97790000D03*
X185420000Y-95250000D03*
X185420000Y-92710000D03*
X185420000Y-90170000D03*
X185420000Y-87630000D03*
X185420000Y-85090000D03*
X185420000Y-82550000D03*
X185420000Y-80010000D03*
X185420000Y-77470000D03*
X185420000Y-74930000D03*
X185420000Y-72390000D03*
X185420000Y-69850000D03*
X185420000Y-67310000D03*
X121920000Y-66040000D03*
X121920000Y-68580000D03*
X121920000Y-71120000D03*
X121920000Y-73660000D03*
X121920000Y-76200000D03*
X121920000Y-78740000D03*
X121920000Y-81280000D03*
X119380000Y-82550000D03*
X119380000Y-80010000D03*
X119380000Y-77470000D03*
X119380000Y-74930000D03*
X119380000Y-72390000D03*
X119380000Y-69850000D03*
X119380000Y-67310000D03*
X119380000Y-85090000D03*
X121920000Y-83820000D03*
X121920000Y-86360000D03*
X121920000Y-88900000D03*
X121920000Y-91440000D03*
X121920000Y-93980000D03*
X121920000Y-96520000D03*
X121920000Y-99060000D03*
X121920000Y-101600000D03*
X121920000Y-104140000D03*
X119380000Y-105410000D03*
X119380000Y-102870000D03*
X119380000Y-100330000D03*
X119380000Y-97790000D03*
X119380000Y-95250000D03*
X119380000Y-92710000D03*
X119380000Y-90170000D03*
X119380000Y-87630000D03*
X119380000Y-107950000D03*
X121920000Y-106680000D03*
X121920000Y-109220000D03*
X121920000Y-111760000D03*
X121920000Y-114300000D03*
X121920000Y-116840000D03*
X121920000Y-119380000D03*
X119380000Y-120650000D03*
X119380000Y-118110000D03*
X119380000Y-115570000D03*
X119380000Y-113030000D03*
X119380000Y-110490000D03*
X124460000Y-124460000D03*
X127000000Y-124460000D03*
X129540000Y-124460000D03*
X132080000Y-124460000D03*
X134620000Y-124460000D03*
X137160000Y-124460000D03*
X139700000Y-124460000D03*
X142240000Y-124460000D03*
X144780000Y-124460000D03*
X147320000Y-124460000D03*
X149860000Y-124460000D03*
X151130000Y-127000000D03*
X148590000Y-127000000D03*
X146050000Y-127000000D03*
X143510000Y-127000000D03*
X140970000Y-127000000D03*
X138430000Y-127000000D03*
X135890000Y-127000000D03*
X133350000Y-127000000D03*
X130810000Y-127000000D03*
X128270000Y-127000000D03*
X125730000Y-127000000D03*
X152400000Y-124460000D03*
X154940000Y-124460000D03*
X157480000Y-124460000D03*
X160020000Y-124460000D03*
X162560000Y-124460000D03*
X165100000Y-124460000D03*
X167640000Y-124460000D03*
X170180000Y-124460000D03*
X172720000Y-124460000D03*
X175260000Y-124460000D03*
X177800000Y-124460000D03*
X176530000Y-127000000D03*
X173990000Y-127000000D03*
X171450000Y-127000000D03*
X168910000Y-127000000D03*
X166370000Y-127000000D03*
X163830000Y-127000000D03*
X161290000Y-127000000D03*
X158750000Y-127000000D03*
X156210000Y-127000000D03*
X153670000Y-127000000D03*
X179070000Y-127000000D03*
X121920000Y-121920000D03*
X121920000Y-124460000D03*
X123190000Y-127000000D03*
X120650000Y-127000000D03*
X119380000Y-125730000D03*
X119380000Y-123190000D03*
X119380000Y-129540000D03*
X121920000Y-129540000D03*
X124460000Y-129540000D03*
X127000000Y-129540000D03*
X129540000Y-129540000D03*
X132080000Y-129540000D03*
X134620000Y-129540000D03*
X137160000Y-129540000D03*
X139700000Y-129540000D03*
X142240000Y-129540000D03*
X144780000Y-129540000D03*
X147320000Y-129540000D03*
X149860000Y-129540000D03*
X152400000Y-129540000D03*
X154940000Y-129540000D03*
X157480000Y-129540000D03*
X160020000Y-129540000D03*
X162560000Y-129540000D03*
X165100000Y-129540000D03*
X167640000Y-129540000D03*
X170180000Y-129540000D03*
X172720000Y-129540000D03*
X175260000Y-129540000D03*
X177800000Y-129540000D03*
X180340000Y-129540000D03*
X180340000Y-124460000D03*
X182880000Y-124460000D03*
X182880000Y-121920000D03*
X181610000Y-127000000D03*
X184150000Y-127000000D03*
X185420000Y-125730000D03*
X185420000Y-123190000D03*
X182880000Y-129540000D03*
X185420000Y-129540000D03*
X187960000Y-129540000D03*
X187960000Y-127000000D03*
X187960000Y-124460000D03*
X187960000Y-121920000D03*
X187960000Y-119380000D03*
X187960000Y-116840000D03*
X187960000Y-114300000D03*
X187960000Y-111760000D03*
X187960000Y-109220000D03*
X187960000Y-106680000D03*
X187960000Y-104140000D03*
X187960000Y-101600000D03*
X187960000Y-99060000D03*
X187960000Y-96520000D03*
X187960000Y-93980000D03*
X187960000Y-91440000D03*
X187960000Y-88900000D03*
X187960000Y-86360000D03*
X187960000Y-83820000D03*
X187960000Y-81280000D03*
X187960000Y-78740000D03*
X187960000Y-76200000D03*
X187960000Y-73660000D03*
X187960000Y-71120000D03*
X187960000Y-68580000D03*
X187960000Y-66040000D03*
X187960000Y-63500000D03*
X187960000Y-60960000D03*
X180340000Y-63500000D03*
X182880000Y-63500000D03*
X185420000Y-64770000D03*
X185420000Y-62230000D03*
X184150000Y-60960000D03*
X181610000Y-60960000D03*
X187960000Y-58420000D03*
X185420000Y-58420000D03*
X182880000Y-58420000D03*
X180340000Y-58420000D03*
X177800000Y-58420000D03*
X175260000Y-58420000D03*
X172720000Y-58420000D03*
X170180000Y-58420000D03*
X167640000Y-58420000D03*
X165100000Y-58420000D03*
X162560000Y-58420000D03*
X160020000Y-58420000D03*
X157480000Y-58420000D03*
X154940000Y-58420000D03*
X152400000Y-58420000D03*
X149860000Y-58420000D03*
X147320000Y-58420000D03*
X144780000Y-58420000D03*
X142240000Y-58420000D03*
X139700000Y-58420000D03*
X134620000Y-58420000D03*
X137160000Y-58420000D03*
X132080000Y-58420000D03*
X129540000Y-58420000D03*
X127000000Y-58420000D03*
X123190000Y-60960000D03*
X121920000Y-63500000D03*
X119380000Y-64770000D03*
X119380000Y-62230000D03*
X120650000Y-60960000D03*
X124460000Y-58420000D03*
X121920000Y-58420000D03*
X119380000Y-58420000D03*
X116840000Y-58420000D03*
X116840000Y-60960000D03*
X116840000Y-63500000D03*
X116840000Y-66040000D03*
X116840000Y-68580000D03*
X116840000Y-71120000D03*
X116840000Y-73660000D03*
X116840000Y-76200000D03*
X116840000Y-78740000D03*
X116840000Y-81280000D03*
X116840000Y-83820000D03*
X116840000Y-86360000D03*
X116840000Y-88900000D03*
X116840000Y-91440000D03*
X116840000Y-93980000D03*
X116840000Y-96520000D03*
X116840000Y-99060000D03*
X116840000Y-101600000D03*
X116840000Y-104140000D03*
X116840000Y-106680000D03*
X116840000Y-109220000D03*
X116840000Y-111760000D03*
X116840000Y-114300000D03*
X116840000Y-116840000D03*
X116840000Y-119380000D03*
X116840000Y-121920000D03*
X116840000Y-124460000D03*
X116840000Y-127000000D03*
X116840000Y-129540000D03*
X115570000Y-132080000D03*
X118110000Y-132080000D03*
X120650000Y-132080000D03*
X123190000Y-132080000D03*
X125730000Y-132080000D03*
X128270000Y-132080000D03*
X130810000Y-132080000D03*
X133350000Y-132080000D03*
X135890000Y-132080000D03*
X138430000Y-132080000D03*
X140970000Y-132080000D03*
X143510000Y-132080000D03*
X146050000Y-132080000D03*
X148590000Y-132080000D03*
X151130000Y-132080000D03*
X153670000Y-132080000D03*
X156210000Y-132080000D03*
X158750000Y-132080000D03*
X161290000Y-132080000D03*
X163830000Y-132080000D03*
X166370000Y-132080000D03*
X168910000Y-132080000D03*
X171450000Y-132080000D03*
X173990000Y-132080000D03*
X176530000Y-132080000D03*
X179070000Y-132080000D03*
X181610000Y-132080000D03*
X184150000Y-132080000D03*
X186690000Y-132080000D03*
X189230000Y-132080000D03*
X190500000Y-130810000D03*
X190500000Y-128270000D03*
X190500000Y-125730000D03*
X190500000Y-123190000D03*
X190500000Y-120650000D03*
X190500000Y-118110000D03*
X190500000Y-115570000D03*
X190500000Y-113030000D03*
X190500000Y-110490000D03*
X190500000Y-107950000D03*
X190500000Y-105410000D03*
X190500000Y-102870000D03*
X190500000Y-100330000D03*
X190500000Y-97790000D03*
X190500000Y-95250000D03*
X190500000Y-92710000D03*
X190500000Y-90170000D03*
X190500000Y-85090000D03*
X190500000Y-87630000D03*
X190500000Y-82550000D03*
X190500000Y-80010000D03*
X190500000Y-77470000D03*
X190500000Y-74930000D03*
X190500000Y-72390000D03*
X190500000Y-69850000D03*
X190500000Y-67310000D03*
X190500000Y-64770000D03*
X190500000Y-62230000D03*
X190500000Y-59690000D03*
X190500000Y-57150000D03*
X189230000Y-55880000D03*
X186690000Y-55880000D03*
X184150000Y-55880000D03*
X181610000Y-55880000D03*
X179070000Y-55880000D03*
X176530000Y-55880000D03*
X173990000Y-55880000D03*
X171450000Y-55880000D03*
X168910000Y-55880000D03*
X166370000Y-55880000D03*
X163830000Y-55880000D03*
X161290000Y-55880000D03*
X158750000Y-55880000D03*
X156210000Y-55880000D03*
X153670000Y-55880000D03*
X151130000Y-55880000D03*
X148590000Y-55880000D03*
X146050000Y-55880000D03*
X143510000Y-55880000D03*
X140970000Y-55880000D03*
X138430000Y-55880000D03*
X135890000Y-55880000D03*
X133350000Y-55880000D03*
X130810000Y-55880000D03*
X128270000Y-55880000D03*
X125730000Y-55880000D03*
X123190000Y-55880000D03*
X120650000Y-55880000D03*
X118110000Y-55880000D03*
X115570000Y-55880000D03*
X111760000Y-53340000D03*
X114300000Y-53340000D03*
X116840000Y-53340000D03*
X119380000Y-53340000D03*
X121920000Y-53340000D03*
X124460000Y-53340000D03*
X127000000Y-53340000D03*
X129540000Y-53340000D03*
X132080000Y-53340000D03*
X134620000Y-53340000D03*
X137160000Y-53340000D03*
X139700000Y-53340000D03*
X142240000Y-53340000D03*
X144780000Y-53340000D03*
X147320000Y-53340000D03*
X149860000Y-53340000D03*
X152400000Y-53340000D03*
X154940000Y-53340000D03*
X157480000Y-53340000D03*
X160020000Y-53340000D03*
X162560000Y-53340000D03*
X165100000Y-53340000D03*
X167640000Y-53340000D03*
X170180000Y-53340000D03*
X172720000Y-53340000D03*
X175260000Y-53340000D03*
X177800000Y-53340000D03*
X180340000Y-53340000D03*
X182880000Y-53340000D03*
X185420000Y-53340000D03*
X187960000Y-53340000D03*
X190500000Y-53340000D03*
X193040000Y-53340000D03*
X195580000Y-52070000D03*
X194310000Y-50800000D03*
X191770000Y-50800000D03*
X189230000Y-50800000D03*
X186690000Y-50800000D03*
X184150000Y-50800000D03*
X181610000Y-50800000D03*
X179070000Y-50800000D03*
X176530000Y-50800000D03*
X173990000Y-50800000D03*
X171450000Y-50800000D03*
X168910000Y-50800000D03*
X166370000Y-50800000D03*
X163830000Y-50800000D03*
X161290000Y-50800000D03*
X158750000Y-50800000D03*
X156210000Y-50800000D03*
X153670000Y-50800000D03*
X151130000Y-50800000D03*
X148590000Y-50800000D03*
X146050000Y-50800000D03*
X143510000Y-50800000D03*
X140970000Y-50800000D03*
X138430000Y-50800000D03*
X135890000Y-50800000D03*
X133350000Y-50800000D03*
X130810000Y-50800000D03*
X128270000Y-50800000D03*
X125730000Y-50800000D03*
X123190000Y-50800000D03*
X120650000Y-50800000D03*
X118110000Y-50800000D03*
X115570000Y-50800000D03*
X113030000Y-50800000D03*
X110490000Y-50800000D03*
X109220000Y-52070000D03*
X111760000Y-48260000D03*
X114300000Y-48260000D03*
X116840000Y-48260000D03*
X119380000Y-48260000D03*
X121920000Y-48260000D03*
X124460000Y-48260000D03*
X127000000Y-48260000D03*
X129540000Y-48260000D03*
X132080000Y-48260000D03*
X134620000Y-48260000D03*
X137160000Y-48260000D03*
X139700000Y-48260000D03*
X142240000Y-48260000D03*
X144780000Y-48260000D03*
X147320000Y-48260000D03*
X149860000Y-48260000D03*
X152400000Y-48260000D03*
X154940000Y-48260000D03*
X157480000Y-48260000D03*
X160020000Y-48260000D03*
X162560000Y-48260000D03*
X165100000Y-48260000D03*
X167640000Y-48260000D03*
X170180000Y-48260000D03*
X172720000Y-48260000D03*
X175260000Y-48260000D03*
X177800000Y-48260000D03*
X180340000Y-48260000D03*
X182880000Y-48260000D03*
X185420000Y-48260000D03*
X187960000Y-48260000D03*
X190500000Y-48260000D03*
X193040000Y-48260000D03*
X191770000Y-45720000D03*
X189230000Y-45720000D03*
X186690000Y-45720000D03*
X184150000Y-45720000D03*
X181610000Y-45720000D03*
X179070000Y-45720000D03*
X176530000Y-45720000D03*
X173990000Y-45720000D03*
X171450000Y-45720000D03*
X168910000Y-45720000D03*
X166370000Y-45720000D03*
X163830000Y-45720000D03*
X161290000Y-45720000D03*
X158750000Y-45720000D03*
X156210000Y-45720000D03*
X153670000Y-45720000D03*
X151130000Y-45720000D03*
X148590000Y-45720000D03*
X146050000Y-45720000D03*
X143510000Y-45720000D03*
X140970000Y-45720000D03*
X138430000Y-45720000D03*
X135890000Y-45720000D03*
X133350000Y-45720000D03*
X130810000Y-45720000D03*
X128270000Y-45720000D03*
X125730000Y-45720000D03*
X123190000Y-45720000D03*
X120650000Y-45720000D03*
X118110000Y-45720000D03*
X115570000Y-45720000D03*
X113030000Y-45720000D03*
X114300000Y-57150000D03*
X114300000Y-59690000D03*
X114300000Y-62230000D03*
X114300000Y-64770000D03*
X114300000Y-67310000D03*
X114300000Y-69850000D03*
X114300000Y-72390000D03*
X114300000Y-74930000D03*
X114300000Y-77470000D03*
X114300000Y-80010000D03*
X114300000Y-82550000D03*
X114300000Y-85090000D03*
X114300000Y-87630000D03*
X114300000Y-90170000D03*
X114300000Y-92710000D03*
X114300000Y-95250000D03*
X114300000Y-97790000D03*
X114300000Y-100330000D03*
X114300000Y-102870000D03*
X114300000Y-105410000D03*
X114300000Y-107950000D03*
X114300000Y-110490000D03*
X114300000Y-113030000D03*
X114300000Y-115570000D03*
X114300000Y-118110000D03*
X114300000Y-120650000D03*
X114300000Y-123190000D03*
X114300000Y-125730000D03*
X114300000Y-128270000D03*
X114300000Y-130810000D03*
X111760000Y-55880000D03*
X111760000Y-58420000D03*
X111760000Y-60960000D03*
X111760000Y-63500000D03*
X111760000Y-66040000D03*
X111760000Y-68580000D03*
X111760000Y-71120000D03*
X111760000Y-73660000D03*
X111760000Y-76200000D03*
X111760000Y-78740000D03*
X111760000Y-81280000D03*
X111760000Y-83820000D03*
X111760000Y-86360000D03*
X111760000Y-88900000D03*
X111760000Y-91440000D03*
X111760000Y-93980000D03*
X111760000Y-96520000D03*
X111760000Y-99060000D03*
X111760000Y-101600000D03*
X111760000Y-104140000D03*
X111760000Y-106680000D03*
X111760000Y-109220000D03*
X111760000Y-111760000D03*
X111760000Y-114300000D03*
X111760000Y-116840000D03*
X111760000Y-119380000D03*
X111760000Y-121920000D03*
X111760000Y-124460000D03*
X111760000Y-127000000D03*
X111760000Y-129540000D03*
X111760000Y-132080000D03*
X111760000Y-134620000D03*
X109220000Y-133350000D03*
X109220000Y-130810000D03*
X109220000Y-128270000D03*
X109220000Y-125730000D03*
X109220000Y-123190000D03*
X109220000Y-120650000D03*
X109220000Y-118110000D03*
X109220000Y-115570000D03*
X109220000Y-113030000D03*
X109220000Y-110490000D03*
X109220000Y-107950000D03*
X109220000Y-105410000D03*
X109220000Y-102870000D03*
X109220000Y-100330000D03*
X109220000Y-97790000D03*
X109220000Y-95250000D03*
X109220000Y-92710000D03*
X109220000Y-90170000D03*
X109220000Y-87630000D03*
X109220000Y-85090000D03*
X109220000Y-82550000D03*
X109220000Y-80010000D03*
X109220000Y-77470000D03*
X109220000Y-74930000D03*
X109220000Y-72390000D03*
X109220000Y-69850000D03*
X109220000Y-67310000D03*
X109220000Y-64770000D03*
X109220000Y-62230000D03*
X109220000Y-59690000D03*
X109220000Y-57150000D03*
X109220000Y-54610000D03*
X106680000Y-53340000D03*
X106680000Y-55880000D03*
X106680000Y-58420000D03*
X106680000Y-60960000D03*
X106680000Y-63500000D03*
X104140000Y-62230000D03*
X104140000Y-59690000D03*
X104140000Y-57150000D03*
X104140000Y-54610000D03*
X104140000Y-52070000D03*
X104140000Y-64770000D03*
X104140000Y-67310000D03*
X104140000Y-69850000D03*
X104140000Y-72390000D03*
X104140000Y-74930000D03*
X104140000Y-77470000D03*
X104140000Y-80010000D03*
X104140000Y-82550000D03*
X106680000Y-81280000D03*
X106680000Y-78740000D03*
X106680000Y-76200000D03*
X106680000Y-73660000D03*
X106680000Y-71120000D03*
X106680000Y-68580000D03*
X106680000Y-66040000D03*
X106680000Y-83820000D03*
X106680000Y-86360000D03*
X106680000Y-88900000D03*
X106680000Y-91440000D03*
X106680000Y-93980000D03*
X106680000Y-96520000D03*
X106680000Y-99060000D03*
X106680000Y-101600000D03*
X104140000Y-100330000D03*
X104140000Y-97790000D03*
X104140000Y-95250000D03*
X104140000Y-92710000D03*
X104140000Y-90170000D03*
X104140000Y-87630000D03*
X104140000Y-85090000D03*
X104140000Y-102870000D03*
X104140000Y-105410000D03*
X104140000Y-107950000D03*
X104140000Y-110490000D03*
X104140000Y-113030000D03*
X104140000Y-115570000D03*
X104140000Y-118110000D03*
X106680000Y-119380000D03*
X106680000Y-116840000D03*
X106680000Y-114300000D03*
X106680000Y-111760000D03*
X106680000Y-109220000D03*
X106680000Y-106680000D03*
X106680000Y-104140000D03*
X106680000Y-121920000D03*
X106680000Y-124460000D03*
X106680000Y-127000000D03*
X106680000Y-129540000D03*
X106680000Y-132080000D03*
X104140000Y-133350000D03*
X104140000Y-130810000D03*
X104140000Y-128270000D03*
X104140000Y-125730000D03*
X104140000Y-123190000D03*
X104140000Y-120650000D03*
X114300000Y-134620000D03*
X116840000Y-134620000D03*
X119380000Y-134620000D03*
X121920000Y-134620000D03*
X124460000Y-134620000D03*
X127000000Y-134620000D03*
X129540000Y-134620000D03*
X132080000Y-134620000D03*
X134620000Y-134620000D03*
X137160000Y-134620000D03*
X139700000Y-134620000D03*
X142240000Y-134620000D03*
X144780000Y-134620000D03*
X147320000Y-134620000D03*
X146050000Y-137160000D03*
X143510000Y-137160000D03*
X140970000Y-137160000D03*
X138430000Y-137160000D03*
X135890000Y-137160000D03*
X133350000Y-137160000D03*
X130810000Y-137160000D03*
X128270000Y-137160000D03*
X125730000Y-137160000D03*
X123190000Y-137160000D03*
X120650000Y-137160000D03*
X118110000Y-137160000D03*
X115570000Y-137160000D03*
X113030000Y-137160000D03*
X111760000Y-139700000D03*
X114300000Y-139700000D03*
X116840000Y-139700000D03*
X119380000Y-139700000D03*
X121920000Y-139700000D03*
X124460000Y-139700000D03*
X127000000Y-139700000D03*
X129540000Y-139700000D03*
X132080000Y-139700000D03*
X134620000Y-139700000D03*
X137160000Y-139700000D03*
X139700000Y-139700000D03*
X142240000Y-139700000D03*
X144780000Y-139700000D03*
X147320000Y-139700000D03*
X149860000Y-134620000D03*
X152400000Y-134620000D03*
X154940000Y-134620000D03*
X157480000Y-134620000D03*
X160020000Y-134620000D03*
X162560000Y-134620000D03*
X165100000Y-134620000D03*
X167640000Y-134620000D03*
X170180000Y-134620000D03*
X172720000Y-134620000D03*
X175260000Y-134620000D03*
X177800000Y-134620000D03*
X180340000Y-134620000D03*
X182880000Y-134620000D03*
X185420000Y-134620000D03*
X187960000Y-134620000D03*
X190500000Y-134620000D03*
X193040000Y-134620000D03*
X191770000Y-137160000D03*
X189230000Y-137160000D03*
X186690000Y-137160000D03*
X184150000Y-137160000D03*
X181610000Y-137160000D03*
X179070000Y-137160000D03*
X176530000Y-137160000D03*
X173990000Y-137160000D03*
X171450000Y-137160000D03*
X168910000Y-137160000D03*
X166370000Y-137160000D03*
X163830000Y-137160000D03*
X161290000Y-137160000D03*
X158750000Y-137160000D03*
X156210000Y-137160000D03*
X153670000Y-137160000D03*
X151130000Y-137160000D03*
X148590000Y-137160000D03*
X149860000Y-139700000D03*
X152400000Y-139700000D03*
X154940000Y-139700000D03*
X157480000Y-139700000D03*
X160020000Y-139700000D03*
X162560000Y-139700000D03*
X165100000Y-139700000D03*
X167640000Y-139700000D03*
X170180000Y-139700000D03*
X172720000Y-139700000D03*
X175260000Y-139700000D03*
X177800000Y-139700000D03*
X180340000Y-139700000D03*
X182880000Y-139700000D03*
X185420000Y-139700000D03*
X187960000Y-139700000D03*
X190500000Y-139700000D03*
X193040000Y-139700000D03*
X193040000Y-132080000D03*
X193040000Y-129540000D03*
X193040000Y-127000000D03*
X193040000Y-124460000D03*
X193040000Y-121920000D03*
X193040000Y-119380000D03*
X195580000Y-120650000D03*
X195580000Y-123190000D03*
X195580000Y-125730000D03*
X195580000Y-128270000D03*
X195580000Y-130810000D03*
X195580000Y-133350000D03*
X198120000Y-132080000D03*
X198120000Y-129540000D03*
X198120000Y-127000000D03*
X198120000Y-124460000D03*
X198120000Y-121920000D03*
X198120000Y-119380000D03*
X200660000Y-120650000D03*
X200660000Y-123190000D03*
X200660000Y-125730000D03*
X200660000Y-128270000D03*
X200660000Y-130810000D03*
X200660000Y-133350000D03*
X193040000Y-116840000D03*
X193040000Y-114300000D03*
X193040000Y-111760000D03*
X193040000Y-109220000D03*
X193040000Y-106680000D03*
X193040000Y-104140000D03*
X193040000Y-101600000D03*
X193040000Y-99060000D03*
X193040000Y-96520000D03*
X193040000Y-93980000D03*
X195580000Y-92710000D03*
X195580000Y-95250000D03*
X195580000Y-97790000D03*
X195580000Y-100330000D03*
X195580000Y-102870000D03*
X195580000Y-105410000D03*
X195580000Y-107950000D03*
X195580000Y-110490000D03*
X195580000Y-113030000D03*
X195580000Y-115570000D03*
X195580000Y-118110000D03*
X198120000Y-116840000D03*
X198120000Y-114300000D03*
X198120000Y-111760000D03*
X198120000Y-109220000D03*
X198120000Y-106680000D03*
X198120000Y-104140000D03*
X198120000Y-101600000D03*
X198120000Y-99060000D03*
X200660000Y-97790000D03*
X200660000Y-100330000D03*
X200660000Y-102870000D03*
X200660000Y-105410000D03*
X200660000Y-107950000D03*
X200660000Y-110490000D03*
X200660000Y-113030000D03*
X200660000Y-115570000D03*
X200660000Y-118110000D03*
X198120000Y-96520000D03*
X198120000Y-93980000D03*
X198120000Y-91440000D03*
X198120000Y-88900000D03*
X198120000Y-86360000D03*
X198120000Y-83820000D03*
X198120000Y-81280000D03*
X198120000Y-78740000D03*
X198120000Y-76200000D03*
X200660000Y-74930000D03*
X200660000Y-77470000D03*
X200660000Y-80010000D03*
X200660000Y-82550000D03*
X200660000Y-85090000D03*
X200660000Y-87630000D03*
X200660000Y-90170000D03*
X200660000Y-92710000D03*
X200660000Y-95250000D03*
X193040000Y-91440000D03*
X193040000Y-88900000D03*
X193040000Y-86360000D03*
X193040000Y-83820000D03*
X193040000Y-81280000D03*
X193040000Y-78740000D03*
X193040000Y-76200000D03*
X195580000Y-74930000D03*
X195580000Y-77470000D03*
X195580000Y-80010000D03*
X195580000Y-82550000D03*
X195580000Y-85090000D03*
X195580000Y-87630000D03*
X195580000Y-90170000D03*
X193040000Y-73660000D03*
X193040000Y-71120000D03*
X193040000Y-68580000D03*
X193040000Y-66040000D03*
X193040000Y-63500000D03*
X193040000Y-60960000D03*
X193040000Y-58420000D03*
X193040000Y-55880000D03*
X195580000Y-54610000D03*
X195580000Y-57150000D03*
X195580000Y-59690000D03*
X195580000Y-62230000D03*
X195580000Y-64770000D03*
X195580000Y-67310000D03*
X195580000Y-69850000D03*
X195580000Y-72390000D03*
X198120000Y-73660000D03*
X198120000Y-71120000D03*
X198120000Y-68580000D03*
X198120000Y-66040000D03*
X198120000Y-63500000D03*
X198120000Y-60960000D03*
X198120000Y-58420000D03*
X198120000Y-55880000D03*
X198120000Y-53340000D03*
X200660000Y-52070000D03*
X200660000Y-54610000D03*
X200660000Y-57150000D03*
X200660000Y-59690000D03*
X200660000Y-62230000D03*
X200660000Y-64770000D03*
X200660000Y-67310000D03*
X200660000Y-69850000D03*
X200660000Y-72390000D03*
M02*
