G04 #@! TF.FileFunction,Copper,L1,Top,Signal*
%FSLAX46Y46*%
G04 Gerber Fmt 4.6, Leading zero omitted, Abs format (unit mm)*
G04 Created by KiCad (PCBNEW 4.0.7-e2-6376~58~ubuntu16.04.1) date Thu Jan 25 21:49:21 2018*
%MOMM*%
%LPD*%
G01*
G04 APERTURE LIST*
%ADD10C,0.100000*%
%ADD11C,1.397000*%
%ADD12C,1.981000*%
%ADD13C,1.300000*%
%ADD14C,0.609600*%
%ADD15C,0.508000*%
G04 APERTURE END LIST*
D10*
D11*
X133830000Y-135636000D03*
X137330000Y-135636000D03*
D12*
X135580000Y-133406000D03*
D11*
X130330000Y-135636000D03*
X126830000Y-135636000D03*
D13*
X159004000Y-127127000D03*
X159004000Y-129667000D03*
X159004000Y-132207000D03*
X159004000Y-124587000D03*
X156464000Y-130937000D03*
X156464000Y-128397000D03*
X156464000Y-125857000D03*
X156464000Y-123317000D03*
X159004000Y-122047000D03*
X156464000Y-120777000D03*
D11*
X146431000Y-129413000D03*
X149931000Y-129413000D03*
D12*
X148181000Y-127183000D03*
D11*
X146431000Y-118237000D03*
X149931000Y-118237000D03*
D12*
X148181000Y-116007000D03*
D11*
X133830000Y-125857000D03*
X137330000Y-125857000D03*
D12*
X135580000Y-123627000D03*
D11*
X130330000Y-125857000D03*
X126830000Y-125857000D03*
X133830000Y-116205000D03*
X137330000Y-116205000D03*
D12*
X135580000Y-113975000D03*
D11*
X130330000Y-116205000D03*
X126830000Y-116205000D03*
D14*
X137287000Y-129540000D03*
X151511000Y-120904000D03*
X153543000Y-122936000D03*
D15*
X160655000Y-121412000D02*
X160655000Y-123825000D01*
X160655000Y-123825000D02*
X160655000Y-130556000D01*
X156464000Y-123317000D02*
X160147000Y-123317000D01*
X160147000Y-123317000D02*
X160655000Y-123825000D01*
X137330000Y-116205000D02*
X139108000Y-114427000D01*
X139108000Y-114427000D02*
X153670000Y-114427000D01*
X153670000Y-114427000D02*
X160655000Y-121412000D01*
X160655000Y-130556000D02*
X159004000Y-132207000D01*
X137287000Y-129540000D02*
X137287000Y-135593000D01*
X137287000Y-135593000D02*
X137330000Y-135636000D01*
X137330000Y-116205000D02*
X137330000Y-125857000D01*
X152908000Y-138303000D02*
X132997000Y-138303000D01*
X132997000Y-138303000D02*
X130330000Y-135636000D01*
X137203000Y-125984000D02*
X137330000Y-125857000D01*
X152908000Y-138303000D02*
X159004000Y-132207000D01*
X152303238Y-137287000D02*
X135481000Y-137287000D01*
X135481000Y-137287000D02*
X133830000Y-135636000D01*
X159004000Y-129667000D02*
X159004000Y-130586238D01*
X159004000Y-130586238D02*
X152303238Y-137287000D01*
X159004000Y-122047000D02*
X159004000Y-121127762D01*
X159004000Y-121127762D02*
X157596837Y-119720599D01*
X157596837Y-119720599D02*
X154091401Y-119720599D01*
X154091401Y-119720599D02*
X149225000Y-124587000D01*
X149225000Y-124587000D02*
X143510000Y-124587000D01*
X143510000Y-124587000D02*
X140462000Y-127635000D01*
X140462000Y-127635000D02*
X132108000Y-127635000D01*
X132108000Y-127635000D02*
X130330000Y-125857000D01*
X130330000Y-116205000D02*
X130330000Y-125857000D01*
X140843000Y-128397000D02*
X129370000Y-128397000D01*
X129370000Y-128397000D02*
X126830000Y-125857000D01*
X143891000Y-125349000D02*
X140843000Y-128397000D01*
X149606000Y-125349000D02*
X143891000Y-125349000D01*
X154178000Y-120777000D02*
X149606000Y-125349000D01*
X156464000Y-120777000D02*
X154178000Y-120777000D01*
X126830000Y-116205000D02*
X126830000Y-125857000D01*
X149931000Y-129413000D02*
X155448000Y-129413000D01*
X155448000Y-129413000D02*
X156464000Y-128397000D01*
X151511000Y-120904000D02*
X149931000Y-119324000D01*
X149931000Y-119324000D02*
X149931000Y-118237000D01*
X156464000Y-125857000D02*
X153543000Y-122936000D01*
M02*
