G04 #@! TF.FileFunction,Copper,L1,Top,Signal*
%FSLAX46Y46*%
G04 Gerber Fmt 4.6, Leading zero omitted, Abs format (unit mm)*
G04 Created by KiCad (PCBNEW 4.0.7-e2-6376~58~ubuntu16.04.1) date Fri Jan 19 21:25:15 2018*
%MOMM*%
%LPD*%
G01*
G04 APERTURE LIST*
%ADD10C,0.100000*%
%ADD11C,1.397000*%
%ADD12C,1.981000*%
%ADD13C,1.300000*%
%ADD14C,0.609600*%
%ADD15C,0.508000*%
G04 APERTURE END LIST*
D10*
D11*
X130274000Y-99568000D03*
X133774000Y-99568000D03*
D12*
X132024000Y-97338000D03*
D11*
X126774000Y-99568000D03*
X123274000Y-99568000D03*
D13*
X155448000Y-91948000D03*
X155448000Y-94488000D03*
X155448000Y-97028000D03*
X155448000Y-89408000D03*
X152908000Y-95758000D03*
X152908000Y-93218000D03*
X152908000Y-90678000D03*
X152908000Y-88138000D03*
X155448000Y-86868000D03*
X152908000Y-85598000D03*
D11*
X142240000Y-84328000D03*
X145740000Y-84328000D03*
D12*
X143990000Y-82098000D03*
D11*
X142240000Y-95504000D03*
X145740000Y-95504000D03*
D12*
X143990000Y-93274000D03*
D11*
X130274000Y-90297000D03*
X133774000Y-90297000D03*
D12*
X132024000Y-88067000D03*
D11*
X126774000Y-90297000D03*
X123274000Y-90297000D03*
X130274000Y-81026000D03*
X133774000Y-81026000D03*
D12*
X132024000Y-78796000D03*
D11*
X126774000Y-81026000D03*
X123274000Y-81026000D03*
D14*
X140208000Y-100076000D03*
X144780000Y-88900000D03*
X146558000Y-87122000D03*
X132588000Y-91440000D03*
X135128000Y-91440000D03*
X132588000Y-92710000D03*
X135128000Y-92710000D03*
X146558000Y-90932000D03*
X147828000Y-89662000D03*
D15*
X133774000Y-99568000D02*
X134761828Y-99568000D01*
X136285828Y-101092000D02*
X151384000Y-101092000D01*
X134761828Y-99568000D02*
X136285828Y-101092000D01*
X151384000Y-101092000D02*
X155448000Y-97028000D01*
X154391599Y-89621599D02*
X153557999Y-88787999D01*
X155448000Y-97028000D02*
X154391599Y-95971599D01*
X154391599Y-95971599D02*
X154391599Y-89621599D01*
X153557999Y-88787999D02*
X152908000Y-88138000D01*
X133774000Y-99568000D02*
X132786172Y-99568000D01*
X132786172Y-99568000D02*
X131681271Y-100672901D01*
X131681271Y-100672901D02*
X127878901Y-100672901D01*
X127878901Y-100672901D02*
X127472499Y-100266499D01*
X127472499Y-100266499D02*
X126774000Y-99568000D01*
X133774000Y-90297000D02*
X133774000Y-99568000D01*
X133774000Y-81026000D02*
X133774000Y-82013828D01*
X133774000Y-82013828D02*
X133774000Y-90297000D01*
X140208000Y-100076000D02*
X148590000Y-100076000D01*
X148590000Y-100076000D02*
X152908000Y-95758000D01*
X148026000Y-93218000D02*
X152908000Y-93218000D01*
X145740000Y-95504000D02*
X148026000Y-93218000D01*
X152908000Y-90678000D02*
X147574000Y-90678000D01*
X145740000Y-88844000D02*
X147574000Y-90678000D01*
X145740000Y-84328000D02*
X145740000Y-88844000D01*
X155448000Y-86868000D02*
X154798001Y-86218001D01*
X154798001Y-86218001D02*
X154798001Y-85298763D01*
X154798001Y-85298763D02*
X154040837Y-84541599D01*
X154040837Y-84541599D02*
X149138401Y-84541599D01*
X149138401Y-84541599D02*
X146558000Y-87122000D01*
X140970000Y-92710000D02*
X136398000Y-92710000D01*
X144475201Y-89204799D02*
X140970000Y-92710000D01*
X144780000Y-88900000D02*
X144475201Y-89204799D01*
X136398000Y-92710000D02*
X135128000Y-91440000D01*
X132588000Y-91440000D02*
X127917000Y-91440000D01*
X127917000Y-91440000D02*
X126774000Y-90297000D01*
X126774000Y-90297000D02*
X126774000Y-81026000D01*
X151892000Y-85598000D02*
X152908000Y-85598000D01*
X147828000Y-89662000D02*
X151892000Y-85598000D01*
X141224000Y-93472000D02*
X135890000Y-93472000D01*
X146558000Y-90932000D02*
X143764000Y-90932000D01*
X143764000Y-90932000D02*
X141224000Y-93472000D01*
X135890000Y-93472000D02*
X135128000Y-92710000D01*
X132588000Y-92710000D02*
X125687000Y-92710000D01*
X125687000Y-92710000D02*
X123274000Y-90297000D01*
X123274000Y-90297000D02*
X123274000Y-81026000D01*
M02*
