M48
;DRILL file {KiCad 4.0.7-e2-6376~58~ubuntu16.04.1} date Fri Jan 19 21:25:18 2018
;FORMAT={-:-/ absolute / inch / decimal}
FMAT,2
INCH,TZ
T1C0.012
T2C0.031
T3C0.040
T4C0.063
%
G90
G05
M72
T1
X5.22Y-3.6
X5.22Y-3.65
X5.32Y-3.6
X5.32Y-3.65
X5.52Y-3.94
X5.7Y-3.5
X5.77Y-3.43
X5.77Y-3.58
X5.82Y-3.53
T2
X6.02Y-3.37
X6.02Y-3.47
X6.02Y-3.57
X6.02Y-3.67
X6.02Y-3.77
X6.12Y-3.42
X6.12Y-3.52
X6.12Y-3.62
X6.12Y-3.72
X6.12Y-3.82
T3
X4.8533Y-3.19
X4.8533Y-3.555
X4.8533Y-3.92
X4.9911Y-3.19
X4.9911Y-3.555
X4.9911Y-3.92
X5.1289Y-3.19
X5.1289Y-3.555
X5.1289Y-3.92
X5.2667Y-3.19
X5.2667Y-3.555
X5.2667Y-3.92
X5.6Y-3.32
X5.6Y-3.76
X5.7378Y-3.32
X5.7378Y-3.76
T4
X5.1978Y-3.1022
X5.1978Y-3.4672
X5.1978Y-3.8322
X5.6689Y-3.2322
X5.6689Y-3.6722
T0
M30
