M48
;DRILL file {KiCad 4.0.7-e2-6376~58~ubuntu16.04.1} date Thu Jan 25 21:49:23 2018
;FORMAT={-:-/ absolute / inch / decimal}
FMAT,2
INCH,TZ
T1C0.012
T2C0.031
T3C0.040
T4C0.063
%
G90
G05
M72
T1
X5.405Y-5.1
X5.965Y-4.76
X6.045Y-4.84
T2
X6.16Y-4.755
X6.16Y-4.855
X6.16Y-4.955
X6.16Y-5.055
X6.16Y-5.155
X6.26Y-4.805
X6.26Y-4.905
X6.26Y-5.005
X6.26Y-5.105
X6.26Y-5.205
T3
X4.9933Y-4.575
X4.9933Y-4.955
X4.9933Y-5.34
X5.1311Y-4.575
X5.1311Y-4.955
X5.1311Y-5.34
X5.2689Y-4.575
X5.2689Y-4.955
X5.2689Y-5.34
X5.4067Y-4.575
X5.4067Y-4.955
X5.4067Y-5.34
X5.765Y-4.655
X5.765Y-5.095
X5.9028Y-4.655
X5.9028Y-5.095
T4
X5.3378Y-4.4872
X5.3378Y-4.8672
X5.3378Y-5.2522
X5.8339Y-4.5672
X5.8339Y-5.0072
T0
M30
