G04 #@! TF.FileFunction,Legend,Top*
%FSLAX46Y46*%
G04 Gerber Fmt 4.6, Leading zero omitted, Abs format (unit mm)*
G04 Created by KiCad (PCBNEW 4.0.7-e2-6376~58~ubuntu16.04.1) date Thu Jan 25 21:49:21 2018*
%MOMM*%
%LPD*%
G01*
G04 APERTURE LIST*
%ADD10C,0.100000*%
%ADD11C,0.127000*%
%ADD12C,0.254000*%
%ADD13C,0.152400*%
%ADD14C,0.150000*%
G04 APERTURE END LIST*
D10*
D11*
X148602094Y-139675810D02*
X148698856Y-139675810D01*
X148747237Y-139700000D01*
X148795618Y-139748381D01*
X148819809Y-139845143D01*
X148819809Y-140014476D01*
X148795618Y-140111238D01*
X148747237Y-140159619D01*
X148698856Y-140183810D01*
X148602094Y-140183810D01*
X148553713Y-140159619D01*
X148505332Y-140111238D01*
X148481142Y-140014476D01*
X148481142Y-139845143D01*
X148505332Y-139748381D01*
X148553713Y-139700000D01*
X148602094Y-139675810D01*
X149110094Y-140183810D02*
X149061713Y-140159619D01*
X149037522Y-140111238D01*
X149037522Y-139675810D01*
X149303617Y-140183810D02*
X149303617Y-139845143D01*
X149303617Y-139675810D02*
X149279427Y-139700000D01*
X149303617Y-139724190D01*
X149327808Y-139700000D01*
X149303617Y-139675810D01*
X149303617Y-139724190D01*
X149545522Y-139845143D02*
X149545522Y-140183810D01*
X149545522Y-139893524D02*
X149569713Y-139869333D01*
X149618094Y-139845143D01*
X149690665Y-139845143D01*
X149739046Y-139869333D01*
X149763237Y-139917714D01*
X149763237Y-140183810D01*
X150392189Y-139917714D02*
X150561523Y-139917714D01*
X150634094Y-140183810D02*
X150392189Y-140183810D01*
X150392189Y-139675810D01*
X150634094Y-139675810D01*
X150924380Y-140183810D02*
X150875999Y-140159619D01*
X150851808Y-140111238D01*
X150851808Y-139675810D01*
X151311427Y-140159619D02*
X151263046Y-140183810D01*
X151166284Y-140183810D01*
X151117903Y-140159619D01*
X151093713Y-140111238D01*
X151093713Y-139917714D01*
X151117903Y-139869333D01*
X151166284Y-139845143D01*
X151263046Y-139845143D01*
X151311427Y-139869333D01*
X151335618Y-139917714D01*
X151335618Y-139966095D01*
X151093713Y-140014476D01*
X151771047Y-140159619D02*
X151722666Y-140183810D01*
X151625904Y-140183810D01*
X151577523Y-140159619D01*
X151553332Y-140135429D01*
X151529142Y-140087048D01*
X151529142Y-139941905D01*
X151553332Y-139893524D01*
X151577523Y-139869333D01*
X151625904Y-139845143D01*
X151722666Y-139845143D01*
X151771047Y-139869333D01*
X151916190Y-139845143D02*
X152109714Y-139845143D01*
X151988761Y-139675810D02*
X151988761Y-140111238D01*
X152012952Y-140159619D01*
X152061333Y-140183810D01*
X152109714Y-140183810D01*
X152279047Y-140183810D02*
X152279047Y-139845143D01*
X152279047Y-139941905D02*
X152303238Y-139893524D01*
X152327428Y-139869333D01*
X152375809Y-139845143D01*
X152424190Y-139845143D01*
X152593523Y-140183810D02*
X152593523Y-139845143D01*
X152593523Y-139675810D02*
X152569333Y-139700000D01*
X152593523Y-139724190D01*
X152617714Y-139700000D01*
X152593523Y-139675810D01*
X152593523Y-139724190D01*
X153053143Y-140159619D02*
X153004762Y-140183810D01*
X152908000Y-140183810D01*
X152859619Y-140159619D01*
X152835428Y-140135429D01*
X152811238Y-140087048D01*
X152811238Y-139941905D01*
X152835428Y-139893524D01*
X152859619Y-139869333D01*
X152908000Y-139845143D01*
X153004762Y-139845143D01*
X153053143Y-139869333D01*
X153657905Y-140183810D02*
X153657905Y-139675810D01*
X153827239Y-140038667D01*
X153996572Y-139675810D01*
X153996572Y-140183810D01*
X154311048Y-140183810D02*
X154262667Y-140159619D01*
X154238476Y-140135429D01*
X154214286Y-140087048D01*
X154214286Y-139941905D01*
X154238476Y-139893524D01*
X154262667Y-139869333D01*
X154311048Y-139845143D01*
X154383619Y-139845143D01*
X154432000Y-139869333D01*
X154456191Y-139893524D01*
X154480381Y-139941905D01*
X154480381Y-140087048D01*
X154456191Y-140135429D01*
X154432000Y-140159619D01*
X154383619Y-140183810D01*
X154311048Y-140183810D01*
X154625524Y-139845143D02*
X154819048Y-139845143D01*
X154698095Y-139675810D02*
X154698095Y-140111238D01*
X154722286Y-140159619D01*
X154770667Y-140183810D01*
X154819048Y-140183810D01*
X155060953Y-140183810D02*
X155012572Y-140159619D01*
X154988381Y-140135429D01*
X154964191Y-140087048D01*
X154964191Y-139941905D01*
X154988381Y-139893524D01*
X155012572Y-139869333D01*
X155060953Y-139845143D01*
X155133524Y-139845143D01*
X155181905Y-139869333D01*
X155206096Y-139893524D01*
X155230286Y-139941905D01*
X155230286Y-140087048D01*
X155206096Y-140135429D01*
X155181905Y-140159619D01*
X155133524Y-140183810D01*
X155060953Y-140183810D01*
X155448000Y-140183810D02*
X155448000Y-139845143D01*
X155448000Y-139941905D02*
X155472191Y-139893524D01*
X155496381Y-139869333D01*
X155544762Y-139845143D01*
X155593143Y-139845143D01*
X155738286Y-140159619D02*
X155786667Y-140183810D01*
X155883429Y-140183810D01*
X155931810Y-140159619D01*
X155956000Y-140111238D01*
X155956000Y-140087048D01*
X155931810Y-140038667D01*
X155883429Y-140014476D01*
X155810857Y-140014476D01*
X155762476Y-139990286D01*
X155738286Y-139941905D01*
X155738286Y-139917714D01*
X155762476Y-139869333D01*
X155810857Y-139845143D01*
X155883429Y-139845143D01*
X155931810Y-139869333D01*
X156173714Y-139845143D02*
X156173714Y-140353143D01*
X156173714Y-139869333D02*
X156222095Y-139845143D01*
X156318857Y-139845143D01*
X156367238Y-139869333D01*
X156391429Y-139893524D01*
X156415619Y-139941905D01*
X156415619Y-140087048D01*
X156391429Y-140135429D01*
X156367238Y-140159619D01*
X156318857Y-140183810D01*
X156222095Y-140183810D01*
X156173714Y-140159619D01*
X156705905Y-140183810D02*
X156657524Y-140159619D01*
X156633333Y-140135429D01*
X156609143Y-140087048D01*
X156609143Y-139941905D01*
X156633333Y-139893524D01*
X156657524Y-139869333D01*
X156705905Y-139845143D01*
X156778476Y-139845143D01*
X156826857Y-139869333D01*
X156851048Y-139893524D01*
X156875238Y-139941905D01*
X156875238Y-140087048D01*
X156851048Y-140135429D01*
X156826857Y-140159619D01*
X156778476Y-140183810D01*
X156705905Y-140183810D01*
X157092952Y-140183810D02*
X157092952Y-139845143D01*
X157092952Y-139941905D02*
X157117143Y-139893524D01*
X157141333Y-139869333D01*
X157189714Y-139845143D01*
X157238095Y-139845143D01*
X157334857Y-139845143D02*
X157528381Y-139845143D01*
X157407428Y-139675810D02*
X157407428Y-140111238D01*
X157431619Y-140159619D01*
X157480000Y-140183810D01*
X157528381Y-140183810D01*
X157673524Y-140159619D02*
X157721905Y-140183810D01*
X157818667Y-140183810D01*
X157867048Y-140159619D01*
X157891238Y-140111238D01*
X157891238Y-140087048D01*
X157867048Y-140038667D01*
X157818667Y-140014476D01*
X157746095Y-140014476D01*
X157697714Y-139990286D01*
X157673524Y-139941905D01*
X157673524Y-139917714D01*
X157697714Y-139869333D01*
X157746095Y-139845143D01*
X157818667Y-139845143D01*
X157867048Y-139869333D01*
X147053902Y-141072810D02*
X147053902Y-140564810D01*
X147174855Y-140564810D01*
X147247426Y-140589000D01*
X147295807Y-140637381D01*
X147319998Y-140685762D01*
X147344188Y-140782524D01*
X147344188Y-140855095D01*
X147319998Y-140951857D01*
X147295807Y-141000238D01*
X147247426Y-141048619D01*
X147174855Y-141072810D01*
X147053902Y-141072810D01*
X147779617Y-141072810D02*
X147779617Y-140806714D01*
X147755426Y-140758333D01*
X147707045Y-140734143D01*
X147610283Y-140734143D01*
X147561902Y-140758333D01*
X147779617Y-141048619D02*
X147731236Y-141072810D01*
X147610283Y-141072810D01*
X147561902Y-141048619D01*
X147537712Y-141000238D01*
X147537712Y-140951857D01*
X147561902Y-140903476D01*
X147610283Y-140879286D01*
X147731236Y-140879286D01*
X147779617Y-140855095D01*
X147997331Y-141048619D02*
X148045712Y-141072810D01*
X148142474Y-141072810D01*
X148190855Y-141048619D01*
X148215045Y-141000238D01*
X148215045Y-140976048D01*
X148190855Y-140927667D01*
X148142474Y-140903476D01*
X148069902Y-140903476D01*
X148021521Y-140879286D01*
X147997331Y-140830905D01*
X147997331Y-140806714D01*
X148021521Y-140758333D01*
X148069902Y-140734143D01*
X148142474Y-140734143D01*
X148190855Y-140758333D01*
X148432759Y-141072810D02*
X148432759Y-140564810D01*
X148650474Y-141072810D02*
X148650474Y-140806714D01*
X148626283Y-140758333D01*
X148577902Y-140734143D01*
X148505331Y-140734143D01*
X148456950Y-140758333D01*
X148432759Y-140782524D01*
X148892378Y-141072810D02*
X148892378Y-140564810D01*
X148892378Y-140758333D02*
X148940759Y-140734143D01*
X149037521Y-140734143D01*
X149085902Y-140758333D01*
X149110093Y-140782524D01*
X149134283Y-140830905D01*
X149134283Y-140976048D01*
X149110093Y-141024429D01*
X149085902Y-141048619D01*
X149037521Y-141072810D01*
X148940759Y-141072810D01*
X148892378Y-141048619D01*
X149424569Y-141072810D02*
X149376188Y-141048619D01*
X149351997Y-141024429D01*
X149327807Y-140976048D01*
X149327807Y-140830905D01*
X149351997Y-140782524D01*
X149376188Y-140758333D01*
X149424569Y-140734143D01*
X149497140Y-140734143D01*
X149545521Y-140758333D01*
X149569712Y-140782524D01*
X149593902Y-140830905D01*
X149593902Y-140976048D01*
X149569712Y-141024429D01*
X149545521Y-141048619D01*
X149497140Y-141072810D01*
X149424569Y-141072810D01*
X150029331Y-141072810D02*
X150029331Y-140806714D01*
X150005140Y-140758333D01*
X149956759Y-140734143D01*
X149859997Y-140734143D01*
X149811616Y-140758333D01*
X150029331Y-141048619D02*
X149980950Y-141072810D01*
X149859997Y-141072810D01*
X149811616Y-141048619D01*
X149787426Y-141000238D01*
X149787426Y-140951857D01*
X149811616Y-140903476D01*
X149859997Y-140879286D01*
X149980950Y-140879286D01*
X150029331Y-140855095D01*
X150271235Y-141072810D02*
X150271235Y-140734143D01*
X150271235Y-140830905D02*
X150295426Y-140782524D01*
X150319616Y-140758333D01*
X150367997Y-140734143D01*
X150416378Y-140734143D01*
X150803426Y-141072810D02*
X150803426Y-140564810D01*
X150803426Y-141048619D02*
X150755045Y-141072810D01*
X150658283Y-141072810D01*
X150609902Y-141048619D01*
X150585711Y-141024429D01*
X150561521Y-140976048D01*
X150561521Y-140830905D01*
X150585711Y-140782524D01*
X150609902Y-140758333D01*
X150658283Y-140734143D01*
X150755045Y-140734143D01*
X150803426Y-140758333D01*
X151432378Y-141072810D02*
X151432378Y-140564810D01*
X151674283Y-140734143D02*
X151674283Y-141072810D01*
X151674283Y-140782524D02*
X151698474Y-140758333D01*
X151746855Y-140734143D01*
X151819426Y-140734143D01*
X151867807Y-140758333D01*
X151891998Y-140806714D01*
X151891998Y-141072810D01*
X152061331Y-140734143D02*
X152254855Y-140734143D01*
X152133902Y-140564810D02*
X152133902Y-141000238D01*
X152158093Y-141048619D01*
X152206474Y-141072810D01*
X152254855Y-141072810D01*
X152617712Y-141048619D02*
X152569331Y-141072810D01*
X152472569Y-141072810D01*
X152424188Y-141048619D01*
X152399998Y-141000238D01*
X152399998Y-140806714D01*
X152424188Y-140758333D01*
X152472569Y-140734143D01*
X152569331Y-140734143D01*
X152617712Y-140758333D01*
X152641903Y-140806714D01*
X152641903Y-140855095D01*
X152399998Y-140903476D01*
X152859617Y-141072810D02*
X152859617Y-140734143D01*
X152859617Y-140830905D02*
X152883808Y-140782524D01*
X152907998Y-140758333D01*
X152956379Y-140734143D01*
X153004760Y-140734143D01*
X153174093Y-140734143D02*
X153174093Y-141072810D01*
X153174093Y-140782524D02*
X153198284Y-140758333D01*
X153246665Y-140734143D01*
X153319236Y-140734143D01*
X153367617Y-140758333D01*
X153391808Y-140806714D01*
X153391808Y-141072810D01*
X153851427Y-141072810D02*
X153851427Y-140806714D01*
X153827236Y-140758333D01*
X153778855Y-140734143D01*
X153682093Y-140734143D01*
X153633712Y-140758333D01*
X153851427Y-141048619D02*
X153803046Y-141072810D01*
X153682093Y-141072810D01*
X153633712Y-141048619D01*
X153609522Y-141000238D01*
X153609522Y-140951857D01*
X153633712Y-140903476D01*
X153682093Y-140879286D01*
X153803046Y-140879286D01*
X153851427Y-140855095D01*
X154165903Y-141072810D02*
X154117522Y-141048619D01*
X154093331Y-141000238D01*
X154093331Y-140564810D01*
X154746474Y-141072810D02*
X154746474Y-140564810D01*
X154988379Y-140734143D02*
X154988379Y-141072810D01*
X154988379Y-140782524D02*
X155012570Y-140758333D01*
X155060951Y-140734143D01*
X155133522Y-140734143D01*
X155181903Y-140758333D01*
X155206094Y-140806714D01*
X155206094Y-141072810D01*
X155375427Y-140734143D02*
X155568951Y-140734143D01*
X155447998Y-140564810D02*
X155447998Y-141000238D01*
X155472189Y-141048619D01*
X155520570Y-141072810D01*
X155568951Y-141072810D01*
X155931808Y-141048619D02*
X155883427Y-141072810D01*
X155786665Y-141072810D01*
X155738284Y-141048619D01*
X155714094Y-141000238D01*
X155714094Y-140806714D01*
X155738284Y-140758333D01*
X155786665Y-140734143D01*
X155883427Y-140734143D01*
X155931808Y-140758333D01*
X155955999Y-140806714D01*
X155955999Y-140855095D01*
X155714094Y-140903476D01*
X156173713Y-141072810D02*
X156173713Y-140734143D01*
X156173713Y-140830905D02*
X156197904Y-140782524D01*
X156222094Y-140758333D01*
X156270475Y-140734143D01*
X156318856Y-140734143D01*
X156415618Y-140734143D02*
X156609142Y-140734143D01*
X156488189Y-141072810D02*
X156488189Y-140637381D01*
X156512380Y-140589000D01*
X156560761Y-140564810D01*
X156609142Y-140564810D01*
X156996190Y-141072810D02*
X156996190Y-140806714D01*
X156971999Y-140758333D01*
X156923618Y-140734143D01*
X156826856Y-140734143D01*
X156778475Y-140758333D01*
X156996190Y-141048619D02*
X156947809Y-141072810D01*
X156826856Y-141072810D01*
X156778475Y-141048619D01*
X156754285Y-141000238D01*
X156754285Y-140951857D01*
X156778475Y-140903476D01*
X156826856Y-140879286D01*
X156947809Y-140879286D01*
X156996190Y-140855095D01*
X157455809Y-141048619D02*
X157407428Y-141072810D01*
X157310666Y-141072810D01*
X157262285Y-141048619D01*
X157238094Y-141024429D01*
X157213904Y-140976048D01*
X157213904Y-140830905D01*
X157238094Y-140782524D01*
X157262285Y-140758333D01*
X157310666Y-140734143D01*
X157407428Y-140734143D01*
X157455809Y-140758333D01*
X157867047Y-141048619D02*
X157818666Y-141072810D01*
X157721904Y-141072810D01*
X157673523Y-141048619D01*
X157649333Y-141000238D01*
X157649333Y-140806714D01*
X157673523Y-140758333D01*
X157721904Y-140734143D01*
X157818666Y-140734143D01*
X157867047Y-140758333D01*
X157891238Y-140806714D01*
X157891238Y-140855095D01*
X157649333Y-140903476D01*
X156197903Y-141961810D02*
X156028570Y-141719905D01*
X155907617Y-141961810D02*
X155907617Y-141453810D01*
X156101141Y-141453810D01*
X156149522Y-141478000D01*
X156173713Y-141502190D01*
X156197903Y-141550571D01*
X156197903Y-141623143D01*
X156173713Y-141671524D01*
X156149522Y-141695714D01*
X156101141Y-141719905D01*
X155907617Y-141719905D01*
X156609141Y-141937619D02*
X156560760Y-141961810D01*
X156463998Y-141961810D01*
X156415617Y-141937619D01*
X156391427Y-141889238D01*
X156391427Y-141695714D01*
X156415617Y-141647333D01*
X156463998Y-141623143D01*
X156560760Y-141623143D01*
X156609141Y-141647333D01*
X156633332Y-141695714D01*
X156633332Y-141744095D01*
X156391427Y-141792476D01*
X156802665Y-141623143D02*
X156923618Y-141961810D01*
X157044570Y-141623143D01*
X157891238Y-141961810D02*
X157600952Y-141961810D01*
X157746095Y-141961810D02*
X157746095Y-141453810D01*
X157697714Y-141526381D01*
X157649333Y-141574762D01*
X157600952Y-141598952D01*
D12*
X145656905Y-121793000D02*
X145560143Y-121744619D01*
X145415000Y-121744619D01*
X145269858Y-121793000D01*
X145173096Y-121889762D01*
X145124715Y-121986524D01*
X145076334Y-122180048D01*
X145076334Y-122325190D01*
X145124715Y-122518714D01*
X145173096Y-122615476D01*
X145269858Y-122712238D01*
X145415000Y-122760619D01*
X145511762Y-122760619D01*
X145656905Y-122712238D01*
X145705286Y-122663857D01*
X145705286Y-122325190D01*
X145511762Y-122325190D01*
X146140715Y-122760619D02*
X146140715Y-121744619D01*
X146721286Y-122760619D01*
X146721286Y-121744619D01*
X147205096Y-122760619D02*
X147205096Y-121744619D01*
X147447001Y-121744619D01*
X147592143Y-121793000D01*
X147688905Y-121889762D01*
X147737286Y-121986524D01*
X147785667Y-122180048D01*
X147785667Y-122325190D01*
X147737286Y-122518714D01*
X147688905Y-122615476D01*
X147592143Y-122712238D01*
X147447001Y-122760619D01*
X147205096Y-122760619D01*
X145656905Y-132969000D02*
X145560143Y-132920619D01*
X145415000Y-132920619D01*
X145269858Y-132969000D01*
X145173096Y-133065762D01*
X145124715Y-133162524D01*
X145076334Y-133356048D01*
X145076334Y-133501190D01*
X145124715Y-133694714D01*
X145173096Y-133791476D01*
X145269858Y-133888238D01*
X145415000Y-133936619D01*
X145511762Y-133936619D01*
X145656905Y-133888238D01*
X145705286Y-133839857D01*
X145705286Y-133501190D01*
X145511762Y-133501190D01*
X146140715Y-133936619D02*
X146140715Y-132920619D01*
X146721286Y-133936619D01*
X146721286Y-132920619D01*
X147205096Y-133936619D02*
X147205096Y-132920619D01*
X147447001Y-132920619D01*
X147592143Y-132969000D01*
X147688905Y-133065762D01*
X147737286Y-133162524D01*
X147785667Y-133356048D01*
X147785667Y-133501190D01*
X147737286Y-133694714D01*
X147688905Y-133791476D01*
X147592143Y-133888238D01*
X147447001Y-133936619D01*
X147205096Y-133936619D01*
X137093476Y-138635619D02*
X136609667Y-138635619D01*
X136561286Y-139119429D01*
X136609667Y-139071048D01*
X136706429Y-139022667D01*
X136948333Y-139022667D01*
X137045095Y-139071048D01*
X137093476Y-139119429D01*
X137141857Y-139216190D01*
X137141857Y-139458095D01*
X137093476Y-139554857D01*
X137045095Y-139603238D01*
X136948333Y-139651619D01*
X136706429Y-139651619D01*
X136609667Y-139603238D01*
X136561286Y-139554857D01*
X137432143Y-138635619D02*
X137770810Y-139651619D01*
X138109476Y-138635619D01*
X131850191Y-139603238D02*
X131995334Y-139651619D01*
X132237238Y-139651619D01*
X132334000Y-139603238D01*
X132382381Y-139554857D01*
X132430762Y-139458095D01*
X132430762Y-139361333D01*
X132382381Y-139264571D01*
X132334000Y-139216190D01*
X132237238Y-139167810D01*
X132043715Y-139119429D01*
X131946953Y-139071048D01*
X131898572Y-139022667D01*
X131850191Y-138925905D01*
X131850191Y-138829143D01*
X131898572Y-138732381D01*
X131946953Y-138684000D01*
X132043715Y-138635619D01*
X132285619Y-138635619D01*
X132430762Y-138684000D01*
X132721048Y-138635619D02*
X133301619Y-138635619D01*
X133011334Y-139651619D02*
X133011334Y-138635619D01*
X133591905Y-139361333D02*
X134075714Y-139361333D01*
X133495143Y-139651619D02*
X133833810Y-138635619D01*
X134172476Y-139651619D01*
X135091714Y-139651619D02*
X134753048Y-139167810D01*
X134511143Y-139651619D02*
X134511143Y-138635619D01*
X134898190Y-138635619D01*
X134994952Y-138684000D01*
X135043333Y-138732381D01*
X135091714Y-138829143D01*
X135091714Y-138974286D01*
X135043333Y-139071048D01*
X134994952Y-139119429D01*
X134898190Y-139167810D01*
X134511143Y-139167810D01*
X135382000Y-138635619D02*
X135962571Y-138635619D01*
X135672286Y-139651619D02*
X135672286Y-138635619D01*
X129981476Y-138635619D02*
X129497667Y-138635619D01*
X129449286Y-139119429D01*
X129497667Y-139071048D01*
X129594429Y-139022667D01*
X129836333Y-139022667D01*
X129933095Y-139071048D01*
X129981476Y-139119429D01*
X130029857Y-139216190D01*
X130029857Y-139458095D01*
X129981476Y-139554857D01*
X129933095Y-139603238D01*
X129836333Y-139651619D01*
X129594429Y-139651619D01*
X129497667Y-139603238D01*
X129449286Y-139554857D01*
X130320143Y-138635619D02*
X130658810Y-139651619D01*
X130997476Y-138635619D01*
X125971905Y-138684000D02*
X125875143Y-138635619D01*
X125730000Y-138635619D01*
X125584858Y-138684000D01*
X125488096Y-138780762D01*
X125439715Y-138877524D01*
X125391334Y-139071048D01*
X125391334Y-139216190D01*
X125439715Y-139409714D01*
X125488096Y-139506476D01*
X125584858Y-139603238D01*
X125730000Y-139651619D01*
X125826762Y-139651619D01*
X125971905Y-139603238D01*
X126020286Y-139554857D01*
X126020286Y-139216190D01*
X125826762Y-139216190D01*
X126455715Y-139651619D02*
X126455715Y-138635619D01*
X127036286Y-139651619D01*
X127036286Y-138635619D01*
X127520096Y-139651619D02*
X127520096Y-138635619D01*
X127762001Y-138635619D01*
X127907143Y-138684000D01*
X128003905Y-138780762D01*
X128052286Y-138877524D01*
X128100667Y-139071048D01*
X128100667Y-139216190D01*
X128052286Y-139409714D01*
X128003905Y-139506476D01*
X127907143Y-139603238D01*
X127762001Y-139651619D01*
X127520096Y-139651619D01*
X137220476Y-119966619D02*
X136736667Y-119966619D01*
X136688286Y-120450429D01*
X136736667Y-120402048D01*
X136833429Y-120353667D01*
X137075333Y-120353667D01*
X137172095Y-120402048D01*
X137220476Y-120450429D01*
X137268857Y-120547190D01*
X137268857Y-120789095D01*
X137220476Y-120885857D01*
X137172095Y-120934238D01*
X137075333Y-120982619D01*
X136833429Y-120982619D01*
X136736667Y-120934238D01*
X136688286Y-120885857D01*
X137559143Y-119966619D02*
X137897810Y-120982619D01*
X138236476Y-119966619D01*
X133083905Y-120015000D02*
X132987143Y-119966619D01*
X132842000Y-119966619D01*
X132696858Y-120015000D01*
X132600096Y-120111762D01*
X132551715Y-120208524D01*
X132503334Y-120402048D01*
X132503334Y-120547190D01*
X132551715Y-120740714D01*
X132600096Y-120837476D01*
X132696858Y-120934238D01*
X132842000Y-120982619D01*
X132938762Y-120982619D01*
X133083905Y-120934238D01*
X133132286Y-120885857D01*
X133132286Y-120547190D01*
X132938762Y-120547190D01*
X133567715Y-120982619D02*
X133567715Y-119966619D01*
X134148286Y-120982619D01*
X134148286Y-119966619D01*
X134632096Y-120982619D02*
X134632096Y-119966619D01*
X134874001Y-119966619D01*
X135019143Y-120015000D01*
X135115905Y-120111762D01*
X135164286Y-120208524D01*
X135212667Y-120402048D01*
X135212667Y-120547190D01*
X135164286Y-120740714D01*
X135115905Y-120837476D01*
X135019143Y-120934238D01*
X134874001Y-120982619D01*
X134632096Y-120982619D01*
X129068286Y-120934238D02*
X129213429Y-120982619D01*
X129455333Y-120982619D01*
X129552095Y-120934238D01*
X129600476Y-120885857D01*
X129648857Y-120789095D01*
X129648857Y-120692333D01*
X129600476Y-120595571D01*
X129552095Y-120547190D01*
X129455333Y-120498810D01*
X129261810Y-120450429D01*
X129165048Y-120402048D01*
X129116667Y-120353667D01*
X129068286Y-120256905D01*
X129068286Y-120160143D01*
X129116667Y-120063381D01*
X129165048Y-120015000D01*
X129261810Y-119966619D01*
X129503714Y-119966619D01*
X129648857Y-120015000D01*
X130084286Y-120982619D02*
X130084286Y-119966619D01*
X130326191Y-119966619D01*
X130471333Y-120015000D01*
X130568095Y-120111762D01*
X130616476Y-120208524D01*
X130664857Y-120402048D01*
X130664857Y-120547190D01*
X130616476Y-120740714D01*
X130568095Y-120837476D01*
X130471333Y-120934238D01*
X130326191Y-120982619D01*
X130084286Y-120982619D01*
X131051905Y-120692333D02*
X131535714Y-120692333D01*
X130955143Y-120982619D02*
X131293810Y-119966619D01*
X131632476Y-120982619D01*
X125536477Y-120934238D02*
X125681620Y-120982619D01*
X125923524Y-120982619D01*
X126020286Y-120934238D01*
X126068667Y-120885857D01*
X126117048Y-120789095D01*
X126117048Y-120692333D01*
X126068667Y-120595571D01*
X126020286Y-120547190D01*
X125923524Y-120498810D01*
X125730001Y-120450429D01*
X125633239Y-120402048D01*
X125584858Y-120353667D01*
X125536477Y-120256905D01*
X125536477Y-120160143D01*
X125584858Y-120063381D01*
X125633239Y-120015000D01*
X125730001Y-119966619D01*
X125971905Y-119966619D01*
X126117048Y-120015000D01*
X127133048Y-120885857D02*
X127084667Y-120934238D01*
X126939524Y-120982619D01*
X126842762Y-120982619D01*
X126697620Y-120934238D01*
X126600858Y-120837476D01*
X126552477Y-120740714D01*
X126504096Y-120547190D01*
X126504096Y-120402048D01*
X126552477Y-120208524D01*
X126600858Y-120111762D01*
X126697620Y-120015000D01*
X126842762Y-119966619D01*
X126939524Y-119966619D01*
X127084667Y-120015000D01*
X127133048Y-120063381D01*
X128052286Y-120982619D02*
X127568477Y-120982619D01*
X127568477Y-119966619D01*
D13*
X153322262Y-118409357D02*
X152687262Y-118409357D01*
X153322262Y-118106976D02*
X152687262Y-118106976D01*
X153140833Y-117895309D01*
X152687262Y-117683642D01*
X153322262Y-117683642D01*
X153322262Y-117381262D02*
X152687262Y-117381262D01*
X152687262Y-117230071D01*
X152717500Y-117139357D01*
X152777976Y-117078881D01*
X152838452Y-117048642D01*
X152959405Y-117018404D01*
X153050119Y-117018404D01*
X153171071Y-117048642D01*
X153231548Y-117078881D01*
X153292024Y-117139357D01*
X153322262Y-117230071D01*
X153322262Y-117381262D01*
X153140833Y-129721429D02*
X153140833Y-129419048D01*
X153322262Y-129781905D02*
X152687262Y-129570238D01*
X153322262Y-129358571D01*
X153322262Y-129146905D02*
X152687262Y-129146905D01*
X153140833Y-128935238D01*
X152687262Y-128723571D01*
X153322262Y-128723571D01*
X153292024Y-128451429D02*
X153322262Y-128360714D01*
X153322262Y-128209524D01*
X153292024Y-128149048D01*
X153261786Y-128118810D01*
X153201310Y-128088571D01*
X153140833Y-128088571D01*
X153080357Y-128118810D01*
X153050119Y-128149048D01*
X153019881Y-128209524D01*
X152989643Y-128330476D01*
X152959405Y-128390952D01*
X152929167Y-128421191D01*
X152868690Y-128451429D01*
X152808214Y-128451429D01*
X152747738Y-128421191D01*
X152717500Y-128390952D01*
X152687262Y-128330476D01*
X152687262Y-128179286D01*
X152717500Y-128088571D01*
X140928574Y-136664095D02*
X140958812Y-136573380D01*
X140958812Y-136422190D01*
X140928574Y-136361714D01*
X140898336Y-136331476D01*
X140837860Y-136301237D01*
X140777383Y-136301237D01*
X140716907Y-136331476D01*
X140686669Y-136361714D01*
X140656431Y-136422190D01*
X140626193Y-136543142D01*
X140595955Y-136603618D01*
X140565717Y-136633857D01*
X140505240Y-136664095D01*
X140444764Y-136664095D01*
X140384288Y-136633857D01*
X140354050Y-136603618D01*
X140323812Y-136543142D01*
X140323812Y-136391952D01*
X140354050Y-136301237D01*
X140535479Y-136119809D02*
X140535479Y-135877904D01*
X140323812Y-136029095D02*
X140868098Y-136029095D01*
X140928574Y-135998856D01*
X140958812Y-135938380D01*
X140958812Y-135877904D01*
X140958812Y-135394095D02*
X140626193Y-135394095D01*
X140565717Y-135424333D01*
X140535479Y-135484809D01*
X140535479Y-135605761D01*
X140565717Y-135666238D01*
X140928574Y-135394095D02*
X140958812Y-135454571D01*
X140958812Y-135605761D01*
X140928574Y-135666238D01*
X140868098Y-135696476D01*
X140807621Y-135696476D01*
X140747145Y-135666238D01*
X140716907Y-135605761D01*
X140716907Y-135454571D01*
X140686669Y-135394095D01*
X140958812Y-135091714D02*
X140535479Y-135091714D01*
X140656431Y-135091714D02*
X140595955Y-135061475D01*
X140565717Y-135031237D01*
X140535479Y-134970761D01*
X140535479Y-134910285D01*
X140535479Y-134789333D02*
X140535479Y-134547428D01*
X140323812Y-134698619D02*
X140868098Y-134698619D01*
X140928574Y-134668380D01*
X140958812Y-134607904D01*
X140958812Y-134547428D01*
X141731093Y-136815286D02*
X141761331Y-136724572D01*
X141791569Y-136694333D01*
X141852045Y-136664095D01*
X141942760Y-136664095D01*
X142003236Y-136694333D01*
X142033474Y-136724572D01*
X142063712Y-136785048D01*
X142063712Y-137026953D01*
X141428712Y-137026953D01*
X141428712Y-136815286D01*
X141458950Y-136754810D01*
X141489188Y-136724572D01*
X141549664Y-136694333D01*
X141610140Y-136694333D01*
X141670617Y-136724572D01*
X141700855Y-136754810D01*
X141731093Y-136815286D01*
X141731093Y-137026953D01*
X141640379Y-136119810D02*
X142063712Y-136119810D01*
X141640379Y-136391953D02*
X141972998Y-136391953D01*
X142033474Y-136361714D01*
X142063712Y-136301238D01*
X142063712Y-136210524D01*
X142033474Y-136150048D01*
X142003236Y-136119810D01*
X141640379Y-135908143D02*
X141640379Y-135666238D01*
X141428712Y-135817429D02*
X141972998Y-135817429D01*
X142033474Y-135787190D01*
X142063712Y-135726714D01*
X142063712Y-135666238D01*
X141640379Y-135545286D02*
X141640379Y-135303381D01*
X141428712Y-135454572D02*
X141972998Y-135454572D01*
X142033474Y-135424333D01*
X142063712Y-135363857D01*
X142063712Y-135303381D01*
X142063712Y-135001000D02*
X142033474Y-135061476D01*
X142003236Y-135091715D01*
X141942760Y-135121953D01*
X141761331Y-135121953D01*
X141700855Y-135091715D01*
X141670617Y-135061476D01*
X141640379Y-135001000D01*
X141640379Y-134910286D01*
X141670617Y-134849810D01*
X141700855Y-134819572D01*
X141761331Y-134789334D01*
X141942760Y-134789334D01*
X142003236Y-134819572D01*
X142033474Y-134849810D01*
X142063712Y-134910286D01*
X142063712Y-135001000D01*
X141640379Y-134517191D02*
X142063712Y-134517191D01*
X141700855Y-134517191D02*
X141670617Y-134486952D01*
X141640379Y-134426476D01*
X141640379Y-134335762D01*
X141670617Y-134275286D01*
X141731093Y-134245048D01*
X142063712Y-134245048D01*
X140831812Y-126661334D02*
X140831812Y-126963715D01*
X140196812Y-126963715D01*
X140499193Y-126449667D02*
X140499193Y-126238000D01*
X140831812Y-126147286D02*
X140831812Y-126449667D01*
X140196812Y-126449667D01*
X140196812Y-126147286D01*
X140831812Y-125875143D02*
X140196812Y-125875143D01*
X140196812Y-125723952D01*
X140227050Y-125633238D01*
X140287526Y-125572762D01*
X140348002Y-125542523D01*
X140468955Y-125512285D01*
X140559669Y-125512285D01*
X140680621Y-125542523D01*
X140741098Y-125572762D01*
X140801574Y-125633238D01*
X140831812Y-125723952D01*
X140831812Y-125875143D01*
X140499193Y-124544666D02*
X140529431Y-124453952D01*
X140559669Y-124423713D01*
X140620145Y-124393475D01*
X140710860Y-124393475D01*
X140771336Y-124423713D01*
X140801574Y-124453952D01*
X140831812Y-124514428D01*
X140831812Y-124756333D01*
X140196812Y-124756333D01*
X140196812Y-124544666D01*
X140227050Y-124484190D01*
X140257288Y-124453952D01*
X140317764Y-124423713D01*
X140378240Y-124423713D01*
X140438717Y-124453952D01*
X140468955Y-124484190D01*
X140499193Y-124544666D01*
X140499193Y-124756333D01*
X140831812Y-123849190D02*
X140499193Y-123849190D01*
X140438717Y-123879428D01*
X140408479Y-123939904D01*
X140408479Y-124060856D01*
X140438717Y-124121333D01*
X140801574Y-123849190D02*
X140831812Y-123909666D01*
X140831812Y-124060856D01*
X140801574Y-124121333D01*
X140741098Y-124151571D01*
X140680621Y-124151571D01*
X140620145Y-124121333D01*
X140589907Y-124060856D01*
X140589907Y-123909666D01*
X140559669Y-123849190D01*
X140831812Y-123546809D02*
X140408479Y-123546809D01*
X140529431Y-123546809D02*
X140468955Y-123516570D01*
X140438717Y-123486332D01*
X140408479Y-123425856D01*
X140408479Y-123365380D01*
X141936712Y-125406453D02*
X141936712Y-125708834D01*
X141301712Y-125708834D01*
X141906474Y-124952881D02*
X141936712Y-125013357D01*
X141936712Y-125134309D01*
X141906474Y-125194786D01*
X141845998Y-125225024D01*
X141604093Y-125225024D01*
X141543617Y-125194786D01*
X141513379Y-125134309D01*
X141513379Y-125013357D01*
X141543617Y-124952881D01*
X141604093Y-124922643D01*
X141664569Y-124922643D01*
X141725045Y-125225024D01*
X141513379Y-124741214D02*
X141513379Y-124499309D01*
X141936712Y-124650500D02*
X141392426Y-124650500D01*
X141331950Y-124620261D01*
X141301712Y-124559785D01*
X141301712Y-124499309D01*
X141513379Y-124378357D02*
X141513379Y-124136452D01*
X141301712Y-124287643D02*
X141845998Y-124287643D01*
X141906474Y-124257404D01*
X141936712Y-124196928D01*
X141936712Y-124136452D01*
X140831812Y-117390334D02*
X140831812Y-117692715D01*
X140196812Y-117692715D01*
X140499193Y-117178667D02*
X140499193Y-116967000D01*
X140831812Y-116876286D02*
X140831812Y-117178667D01*
X140196812Y-117178667D01*
X140196812Y-116876286D01*
X140831812Y-116604143D02*
X140196812Y-116604143D01*
X140196812Y-116452952D01*
X140227050Y-116362238D01*
X140287526Y-116301762D01*
X140348002Y-116271523D01*
X140468955Y-116241285D01*
X140559669Y-116241285D01*
X140680621Y-116271523D01*
X140741098Y-116301762D01*
X140801574Y-116362238D01*
X140831812Y-116452952D01*
X140831812Y-116604143D01*
X140499193Y-115273666D02*
X140529431Y-115182952D01*
X140559669Y-115152713D01*
X140620145Y-115122475D01*
X140710860Y-115122475D01*
X140771336Y-115152713D01*
X140801574Y-115182952D01*
X140831812Y-115243428D01*
X140831812Y-115485333D01*
X140196812Y-115485333D01*
X140196812Y-115273666D01*
X140227050Y-115213190D01*
X140257288Y-115182952D01*
X140317764Y-115152713D01*
X140378240Y-115152713D01*
X140438717Y-115182952D01*
X140468955Y-115213190D01*
X140499193Y-115273666D01*
X140499193Y-115485333D01*
X140831812Y-114578190D02*
X140499193Y-114578190D01*
X140438717Y-114608428D01*
X140408479Y-114668904D01*
X140408479Y-114789856D01*
X140438717Y-114850333D01*
X140801574Y-114578190D02*
X140831812Y-114638666D01*
X140831812Y-114789856D01*
X140801574Y-114850333D01*
X140741098Y-114880571D01*
X140680621Y-114880571D01*
X140620145Y-114850333D01*
X140589907Y-114789856D01*
X140589907Y-114638666D01*
X140559669Y-114578190D01*
X140831812Y-114275809D02*
X140408479Y-114275809D01*
X140529431Y-114275809D02*
X140468955Y-114245570D01*
X140438717Y-114215332D01*
X140408479Y-114154856D01*
X140408479Y-114094380D01*
X141936712Y-116407595D02*
X141634331Y-116619262D01*
X141936712Y-116770453D02*
X141301712Y-116770453D01*
X141301712Y-116528548D01*
X141331950Y-116468072D01*
X141362188Y-116437833D01*
X141422664Y-116407595D01*
X141513379Y-116407595D01*
X141573855Y-116437833D01*
X141604093Y-116468072D01*
X141634331Y-116528548D01*
X141634331Y-116770453D01*
X141936712Y-116135453D02*
X141513379Y-116135453D01*
X141301712Y-116135453D02*
X141331950Y-116165691D01*
X141362188Y-116135453D01*
X141331950Y-116105214D01*
X141301712Y-116135453D01*
X141362188Y-116135453D01*
X141513379Y-115560929D02*
X142027426Y-115560929D01*
X142087902Y-115591167D01*
X142118140Y-115621405D01*
X142148379Y-115681881D01*
X142148379Y-115772595D01*
X142118140Y-115833072D01*
X141906474Y-115560929D02*
X141936712Y-115621405D01*
X141936712Y-115742357D01*
X141906474Y-115802833D01*
X141876236Y-115833072D01*
X141815760Y-115863310D01*
X141634331Y-115863310D01*
X141573855Y-115833072D01*
X141543617Y-115802833D01*
X141513379Y-115742357D01*
X141513379Y-115621405D01*
X141543617Y-115560929D01*
X141936712Y-115258548D02*
X141301712Y-115258548D01*
X141936712Y-114986405D02*
X141604093Y-114986405D01*
X141543617Y-115016643D01*
X141513379Y-115077119D01*
X141513379Y-115167833D01*
X141543617Y-115228309D01*
X141573855Y-115258548D01*
X141513379Y-114774738D02*
X141513379Y-114532833D01*
X141301712Y-114684024D02*
X141845998Y-114684024D01*
X141906474Y-114653785D01*
X141936712Y-114593309D01*
X141936712Y-114532833D01*
D14*
X128180000Y-138056000D02*
X128180000Y-141366000D01*
X128180000Y-141366000D02*
X135980000Y-141366000D01*
X135980000Y-141366000D02*
X135980000Y-138056000D01*
X139580000Y-138056000D02*
X139580000Y-132334000D01*
X124580000Y-138056000D02*
X124580000Y-132334000D01*
X139580000Y-138056000D02*
X124580000Y-138056000D01*
X139580000Y-132334000D02*
X124580000Y-132334000D01*
X160384000Y-117837000D02*
X155084000Y-117837000D01*
X160384000Y-135147000D02*
X155084000Y-135147000D01*
X160384000Y-117837000D02*
X160384000Y-135147000D01*
X155084000Y-117837000D02*
X155084000Y-135147000D01*
X144281000Y-131833000D02*
X144281000Y-135143000D01*
X144281000Y-135143000D02*
X152081000Y-135143000D01*
X152081000Y-135143000D02*
X152081000Y-131833000D01*
X152081000Y-131833000D02*
X152081000Y-126111000D01*
X144281000Y-131833000D02*
X144281000Y-126111000D01*
X152081000Y-131833000D02*
X144281000Y-131833000D01*
X152081000Y-126111000D02*
X144281000Y-126111000D01*
X144281000Y-120657000D02*
X144281000Y-123967000D01*
X144281000Y-123967000D02*
X152081000Y-123967000D01*
X152081000Y-123967000D02*
X152081000Y-120657000D01*
X152081000Y-120657000D02*
X152081000Y-114935000D01*
X144281000Y-120657000D02*
X144281000Y-114935000D01*
X152081000Y-120657000D02*
X144281000Y-120657000D01*
X152081000Y-114935000D02*
X144281000Y-114935000D01*
X128180000Y-128277000D02*
X128180000Y-131587000D01*
X128180000Y-131587000D02*
X135980000Y-131587000D01*
X135980000Y-131587000D02*
X135980000Y-128277000D01*
X139580000Y-128277000D02*
X139580000Y-122555000D01*
X124580000Y-128277000D02*
X124580000Y-122555000D01*
X139580000Y-128277000D02*
X124580000Y-128277000D01*
X139580000Y-122555000D02*
X124580000Y-122555000D01*
X128180000Y-118625000D02*
X128180000Y-121935000D01*
X128180000Y-121935000D02*
X135980000Y-121935000D01*
X135980000Y-121935000D02*
X135980000Y-118625000D01*
X139580000Y-118625000D02*
X139580000Y-112903000D01*
X124580000Y-118625000D02*
X124580000Y-112903000D01*
X139580000Y-118625000D02*
X124580000Y-118625000D01*
X139580000Y-112903000D02*
X124580000Y-112903000D01*
X138096667Y-132802381D02*
X138096667Y-133516667D01*
X138049047Y-133659524D01*
X137953809Y-133754762D01*
X137810952Y-133802381D01*
X137715714Y-133802381D01*
X139001429Y-132802381D02*
X138810952Y-132802381D01*
X138715714Y-132850000D01*
X138668095Y-132897619D01*
X138572857Y-133040476D01*
X138525238Y-133230952D01*
X138525238Y-133611905D01*
X138572857Y-133707143D01*
X138620476Y-133754762D01*
X138715714Y-133802381D01*
X138906191Y-133802381D01*
X139001429Y-133754762D01*
X139049048Y-133707143D01*
X139096667Y-133611905D01*
X139096667Y-133373810D01*
X139049048Y-133278571D01*
X139001429Y-133230952D01*
X138906191Y-133183333D01*
X138715714Y-133183333D01*
X138620476Y-133230952D01*
X138572857Y-133278571D01*
X138525238Y-133373810D01*
X158924667Y-133691381D02*
X158924667Y-134405667D01*
X158877047Y-134548524D01*
X158781809Y-134643762D01*
X158638952Y-134691381D01*
X158543714Y-134691381D01*
X159924667Y-134691381D02*
X159353238Y-134691381D01*
X159638952Y-134691381D02*
X159638952Y-133691381D01*
X159543714Y-133834238D01*
X159448476Y-133929476D01*
X159353238Y-133977095D01*
X156273524Y-117419381D02*
X155702095Y-117419381D01*
X155987809Y-117419381D02*
X155987809Y-116419381D01*
X155892571Y-116562238D01*
X155797333Y-116657476D01*
X155702095Y-116705095D01*
X156892571Y-116419381D02*
X156987810Y-116419381D01*
X157083048Y-116467000D01*
X157130667Y-116514619D01*
X157178286Y-116609857D01*
X157225905Y-116800333D01*
X157225905Y-117038429D01*
X157178286Y-117228905D01*
X157130667Y-117324143D01*
X157083048Y-117371762D01*
X156987810Y-117419381D01*
X156892571Y-117419381D01*
X156797333Y-117371762D01*
X156749714Y-117324143D01*
X156702095Y-117228905D01*
X156654476Y-117038429D01*
X156654476Y-116800333D01*
X156702095Y-116609857D01*
X156749714Y-116514619D01*
X156797333Y-116467000D01*
X156892571Y-116419381D01*
X159289715Y-136469381D02*
X158718286Y-136469381D01*
X159004000Y-136469381D02*
X159004000Y-135469381D01*
X158908762Y-135612238D01*
X158813524Y-135707476D01*
X158718286Y-135755095D01*
X150669667Y-126579381D02*
X150669667Y-127293667D01*
X150622047Y-127436524D01*
X150526809Y-127531762D01*
X150383952Y-127579381D01*
X150288714Y-127579381D01*
X151098238Y-126674619D02*
X151145857Y-126627000D01*
X151241095Y-126579381D01*
X151479191Y-126579381D01*
X151574429Y-126627000D01*
X151622048Y-126674619D01*
X151669667Y-126769857D01*
X151669667Y-126865095D01*
X151622048Y-127007952D01*
X151050619Y-127579381D01*
X151669667Y-127579381D01*
X150669667Y-115403381D02*
X150669667Y-116117667D01*
X150622047Y-116260524D01*
X150526809Y-116355762D01*
X150383952Y-116403381D01*
X150288714Y-116403381D01*
X151050619Y-115403381D02*
X151669667Y-115403381D01*
X151336333Y-115784333D01*
X151479191Y-115784333D01*
X151574429Y-115831952D01*
X151622048Y-115879571D01*
X151669667Y-115974810D01*
X151669667Y-116212905D01*
X151622048Y-116308143D01*
X151574429Y-116355762D01*
X151479191Y-116403381D01*
X151193476Y-116403381D01*
X151098238Y-116355762D01*
X151050619Y-116308143D01*
X138096667Y-123150381D02*
X138096667Y-123864667D01*
X138049047Y-124007524D01*
X137953809Y-124102762D01*
X137810952Y-124150381D01*
X137715714Y-124150381D01*
X139001429Y-123483714D02*
X139001429Y-124150381D01*
X138763333Y-123102762D02*
X138525238Y-123817048D01*
X139144286Y-123817048D01*
X138096667Y-117181381D02*
X138096667Y-117895667D01*
X138049047Y-118038524D01*
X137953809Y-118133762D01*
X137810952Y-118181381D01*
X137715714Y-118181381D01*
X139049048Y-117181381D02*
X138572857Y-117181381D01*
X138525238Y-117657571D01*
X138572857Y-117609952D01*
X138668095Y-117562333D01*
X138906191Y-117562333D01*
X139001429Y-117609952D01*
X139049048Y-117657571D01*
X139096667Y-117752810D01*
X139096667Y-117990905D01*
X139049048Y-118086143D01*
X139001429Y-118133762D01*
X138906191Y-118181381D01*
X138668095Y-118181381D01*
X138572857Y-118133762D01*
X138525238Y-118086143D01*
M02*
