M48
;DRILL file {KiCad 4.0.7-e2-6376~58~ubuntu16.04.1} date Mon Jan 22 14:14:21 2018
;FORMAT={-:-/ absolute / inch / decimal}
FMAT,2
INCH,TZ
T1C0.012
T2C0.031
T3C0.040
T4C0.063
%
G90
G05
M72
T1
X5.38Y-3.715
X5.94Y-3.375
X6.02Y-3.455
T2
X6.135Y-3.37
X6.135Y-3.47
X6.135Y-3.57
X6.135Y-3.67
X6.135Y-3.77
X6.235Y-3.42
X6.235Y-3.52
X6.235Y-3.62
X6.235Y-3.72
X6.235Y-3.82
T3
X4.9683Y-3.19
X4.9683Y-3.57
X4.9683Y-3.955
X5.1061Y-3.19
X5.1061Y-3.57
X5.1061Y-3.955
X5.2439Y-3.19
X5.2439Y-3.57
X5.2439Y-3.955
X5.3817Y-3.19
X5.3817Y-3.57
X5.3817Y-3.955
X5.74Y-3.27
X5.74Y-3.71
X5.8778Y-3.27
X5.8778Y-3.71
T4
X5.3128Y-3.1022
X5.3128Y-3.4822
X5.3128Y-3.8672
X5.8089Y-3.1822
X5.8089Y-3.6222
T0
M30
