G04 #@! TF.FileFunction,Legend,Top*
%FSLAX46Y46*%
G04 Gerber Fmt 4.6, Leading zero omitted, Abs format (unit mm)*
G04 Created by KiCad (PCBNEW 4.0.7-e2-6376~58~ubuntu16.04.1) date Mon Feb 19 20:25:25 2018*
%MOMM*%
%LPD*%
G01*
G04 APERTURE LIST*
%ADD10C,0.100000*%
%ADD11C,0.254000*%
%ADD12C,0.152400*%
%ADD13C,0.150000*%
%ADD14C,0.120000*%
G04 APERTURE END LIST*
D10*
D11*
X205788381Y-142935476D02*
X205788381Y-142451667D01*
X205304571Y-142403286D01*
X205352952Y-142451667D01*
X205401333Y-142548429D01*
X205401333Y-142790333D01*
X205352952Y-142887095D01*
X205304571Y-142935476D01*
X205207810Y-142983857D01*
X204965905Y-142983857D01*
X204869143Y-142935476D01*
X204820762Y-142887095D01*
X204772381Y-142790333D01*
X204772381Y-142548429D01*
X204820762Y-142451667D01*
X204869143Y-142403286D01*
X205788381Y-143274143D02*
X204772381Y-143612810D01*
X205788381Y-143951476D01*
X204820762Y-134783286D02*
X204772381Y-134928429D01*
X204772381Y-135170333D01*
X204820762Y-135267095D01*
X204869143Y-135315476D01*
X204965905Y-135363857D01*
X205062667Y-135363857D01*
X205159429Y-135315476D01*
X205207810Y-135267095D01*
X205256190Y-135170333D01*
X205304571Y-134976810D01*
X205352952Y-134880048D01*
X205401333Y-134831667D01*
X205498095Y-134783286D01*
X205594857Y-134783286D01*
X205691619Y-134831667D01*
X205740000Y-134880048D01*
X205788381Y-134976810D01*
X205788381Y-135218714D01*
X205740000Y-135363857D01*
X204772381Y-135799286D02*
X205788381Y-135799286D01*
X205788381Y-136041191D01*
X205740000Y-136186333D01*
X205643238Y-136283095D01*
X205546476Y-136331476D01*
X205352952Y-136379857D01*
X205207810Y-136379857D01*
X205014286Y-136331476D01*
X204917524Y-136283095D01*
X204820762Y-136186333D01*
X204772381Y-136041191D01*
X204772381Y-135799286D01*
X205062667Y-136766905D02*
X205062667Y-137250714D01*
X204772381Y-136670143D02*
X205788381Y-137008810D01*
X204772381Y-137347476D01*
X205740000Y-138798905D02*
X205788381Y-138702143D01*
X205788381Y-138557000D01*
X205740000Y-138411858D01*
X205643238Y-138315096D01*
X205546476Y-138266715D01*
X205352952Y-138218334D01*
X205207810Y-138218334D01*
X205014286Y-138266715D01*
X204917524Y-138315096D01*
X204820762Y-138411858D01*
X204772381Y-138557000D01*
X204772381Y-138653762D01*
X204820762Y-138798905D01*
X204869143Y-138847286D01*
X205207810Y-138847286D01*
X205207810Y-138653762D01*
X204772381Y-139282715D02*
X205788381Y-139282715D01*
X204772381Y-139863286D01*
X205788381Y-139863286D01*
X204772381Y-140347096D02*
X205788381Y-140347096D01*
X205788381Y-140589001D01*
X205740000Y-140734143D01*
X205643238Y-140830905D01*
X205546476Y-140879286D01*
X205352952Y-140927667D01*
X205207810Y-140927667D01*
X205014286Y-140879286D01*
X204917524Y-140830905D01*
X204820762Y-140734143D01*
X204772381Y-140589001D01*
X204772381Y-140347096D01*
X204820762Y-131251477D02*
X204772381Y-131396620D01*
X204772381Y-131638524D01*
X204820762Y-131735286D01*
X204869143Y-131783667D01*
X204965905Y-131832048D01*
X205062667Y-131832048D01*
X205159429Y-131783667D01*
X205207810Y-131735286D01*
X205256190Y-131638524D01*
X205304571Y-131445001D01*
X205352952Y-131348239D01*
X205401333Y-131299858D01*
X205498095Y-131251477D01*
X205594857Y-131251477D01*
X205691619Y-131299858D01*
X205740000Y-131348239D01*
X205788381Y-131445001D01*
X205788381Y-131686905D01*
X205740000Y-131832048D01*
X204869143Y-132848048D02*
X204820762Y-132799667D01*
X204772381Y-132654524D01*
X204772381Y-132557762D01*
X204820762Y-132412620D01*
X204917524Y-132315858D01*
X205014286Y-132267477D01*
X205207810Y-132219096D01*
X205352952Y-132219096D01*
X205546476Y-132267477D01*
X205643238Y-132315858D01*
X205740000Y-132412620D01*
X205788381Y-132557762D01*
X205788381Y-132654524D01*
X205740000Y-132799667D01*
X205691619Y-132848048D01*
X204772381Y-133767286D02*
X204772381Y-133283477D01*
X205788381Y-133283477D01*
D12*
X220398219Y-123964093D02*
X220398219Y-124447902D01*
X219382219Y-124447902D01*
X220398219Y-123189998D02*
X219866029Y-123189998D01*
X219769267Y-123238379D01*
X219720886Y-123335141D01*
X219720886Y-123528664D01*
X219769267Y-123625426D01*
X220349838Y-123189998D02*
X220398219Y-123286760D01*
X220398219Y-123528664D01*
X220349838Y-123625426D01*
X220253076Y-123673807D01*
X220156314Y-123673807D01*
X220059552Y-123625426D01*
X220011171Y-123528664D01*
X220011171Y-123286760D01*
X219962790Y-123189998D01*
X219720886Y-122270760D02*
X220398219Y-122270760D01*
X219720886Y-122706188D02*
X220253076Y-122706188D01*
X220349838Y-122657807D01*
X220398219Y-122561045D01*
X220398219Y-122415903D01*
X220349838Y-122319141D01*
X220301457Y-122270760D01*
X220398219Y-121786950D02*
X219720886Y-121786950D01*
X219914410Y-121786950D02*
X219817648Y-121738569D01*
X219769267Y-121690188D01*
X219720886Y-121593426D01*
X219720886Y-121496665D01*
X220349838Y-120770951D02*
X220398219Y-120867713D01*
X220398219Y-121061236D01*
X220349838Y-121157998D01*
X220253076Y-121206379D01*
X219866029Y-121206379D01*
X219769267Y-121157998D01*
X219720886Y-121061236D01*
X219720886Y-120867713D01*
X219769267Y-120770951D01*
X219866029Y-120722570D01*
X219962790Y-120722570D01*
X220059552Y-121206379D01*
X219720886Y-120287141D02*
X220398219Y-120287141D01*
X219817648Y-120287141D02*
X219769267Y-120238760D01*
X219720886Y-120141998D01*
X219720886Y-119996856D01*
X219769267Y-119900094D01*
X219866029Y-119851713D01*
X220398219Y-119851713D01*
X220107933Y-118642189D02*
X220107933Y-118158380D01*
X220398219Y-118738951D02*
X219382219Y-118400284D01*
X220398219Y-118061618D01*
X219720886Y-117722951D02*
X220398219Y-117722951D01*
X219817648Y-117722951D02*
X219769267Y-117674570D01*
X219720886Y-117577808D01*
X219720886Y-117432666D01*
X219769267Y-117335904D01*
X219866029Y-117287523D01*
X220398219Y-117287523D01*
X219720886Y-116948856D02*
X219720886Y-116561808D01*
X220398219Y-116803713D02*
X219527362Y-116803713D01*
X219430600Y-116755332D01*
X219382219Y-116658570D01*
X219382219Y-116561808D01*
X220349838Y-115836095D02*
X220398219Y-115932857D01*
X220398219Y-116126380D01*
X220349838Y-116223142D01*
X220253076Y-116271523D01*
X219866029Y-116271523D01*
X219769267Y-116223142D01*
X219720886Y-116126380D01*
X219720886Y-115932857D01*
X219769267Y-115836095D01*
X219866029Y-115787714D01*
X219962790Y-115787714D01*
X220059552Y-116271523D01*
X219720886Y-115352285D02*
X220398219Y-115352285D01*
X219817648Y-115352285D02*
X219769267Y-115303904D01*
X219720886Y-115207142D01*
X219720886Y-115062000D01*
X219769267Y-114965238D01*
X219866029Y-114916857D01*
X220398219Y-114916857D01*
X220349838Y-114481428D02*
X220398219Y-114384666D01*
X220398219Y-114191142D01*
X220349838Y-114094381D01*
X220253076Y-114046000D01*
X220204695Y-114046000D01*
X220107933Y-114094381D01*
X220059552Y-114191142D01*
X220059552Y-114336285D01*
X220011171Y-114433047D01*
X219914410Y-114481428D01*
X219866029Y-114481428D01*
X219769267Y-114433047D01*
X219720886Y-114336285D01*
X219720886Y-114191142D01*
X219769267Y-114094381D01*
X220398219Y-113465428D02*
X220349838Y-113562190D01*
X220301457Y-113610571D01*
X220204695Y-113658952D01*
X219914410Y-113658952D01*
X219817648Y-113610571D01*
X219769267Y-113562190D01*
X219720886Y-113465428D01*
X219720886Y-113320286D01*
X219769267Y-113223524D01*
X219817648Y-113175143D01*
X219914410Y-113126762D01*
X220204695Y-113126762D01*
X220301457Y-113175143D01*
X220349838Y-113223524D01*
X220398219Y-113320286D01*
X220398219Y-113465428D01*
X219720886Y-112691333D02*
X220398219Y-112691333D01*
X219817648Y-112691333D02*
X219769267Y-112642952D01*
X219720886Y-112546190D01*
X219720886Y-112401048D01*
X219769267Y-112304286D01*
X219866029Y-112255905D01*
X220398219Y-112255905D01*
X221058619Y-130785805D02*
X221058619Y-130592282D01*
X221107000Y-130495520D01*
X221203762Y-130398758D01*
X221397286Y-130350377D01*
X221735952Y-130350377D01*
X221929476Y-130398758D01*
X222026238Y-130495520D01*
X222074619Y-130592282D01*
X222074619Y-130785805D01*
X222026238Y-130882567D01*
X221929476Y-130979329D01*
X221735952Y-131027710D01*
X221397286Y-131027710D01*
X221203762Y-130979329D01*
X221107000Y-130882567D01*
X221058619Y-130785805D01*
X222074619Y-129769805D02*
X222026238Y-129866567D01*
X221929476Y-129914948D01*
X221058619Y-129914948D01*
X222074619Y-129382758D02*
X221397286Y-129382758D01*
X221058619Y-129382758D02*
X221107000Y-129431139D01*
X221155381Y-129382758D01*
X221107000Y-129334377D01*
X221058619Y-129382758D01*
X221155381Y-129382758D01*
X221397286Y-128898948D02*
X222074619Y-128898948D01*
X221494048Y-128898948D02*
X221445667Y-128850567D01*
X221397286Y-128753805D01*
X221397286Y-128608663D01*
X221445667Y-128511901D01*
X221542429Y-128463520D01*
X222074619Y-128463520D01*
X221542429Y-127205615D02*
X221542429Y-126866949D01*
X222074619Y-126721806D02*
X222074619Y-127205615D01*
X221058619Y-127205615D01*
X221058619Y-126721806D01*
X222074619Y-126141234D02*
X222026238Y-126237996D01*
X221929476Y-126286377D01*
X221058619Y-126286377D01*
X222026238Y-125367140D02*
X222074619Y-125463902D01*
X222074619Y-125657425D01*
X222026238Y-125754187D01*
X221929476Y-125802568D01*
X221542429Y-125802568D01*
X221445667Y-125754187D01*
X221397286Y-125657425D01*
X221397286Y-125463902D01*
X221445667Y-125367140D01*
X221542429Y-125318759D01*
X221639190Y-125318759D01*
X221735952Y-125802568D01*
X222026238Y-124447902D02*
X222074619Y-124544664D01*
X222074619Y-124738187D01*
X222026238Y-124834949D01*
X221977857Y-124883330D01*
X221881095Y-124931711D01*
X221590810Y-124931711D01*
X221494048Y-124883330D01*
X221445667Y-124834949D01*
X221397286Y-124738187D01*
X221397286Y-124544664D01*
X221445667Y-124447902D01*
X221397286Y-124157616D02*
X221397286Y-123770568D01*
X221058619Y-124012473D02*
X221929476Y-124012473D01*
X222026238Y-123964092D01*
X222074619Y-123867330D01*
X222074619Y-123770568D01*
X222074619Y-123431902D02*
X221397286Y-123431902D01*
X221590810Y-123431902D02*
X221494048Y-123383521D01*
X221445667Y-123335140D01*
X221397286Y-123238378D01*
X221397286Y-123141617D01*
X222074619Y-122802950D02*
X221397286Y-122802950D01*
X221058619Y-122802950D02*
X221107000Y-122851331D01*
X221155381Y-122802950D01*
X221107000Y-122754569D01*
X221058619Y-122802950D01*
X221155381Y-122802950D01*
X222026238Y-121883712D02*
X222074619Y-121980474D01*
X222074619Y-122173997D01*
X222026238Y-122270759D01*
X221977857Y-122319140D01*
X221881095Y-122367521D01*
X221590810Y-122367521D01*
X221494048Y-122319140D01*
X221445667Y-122270759D01*
X221397286Y-122173997D01*
X221397286Y-121980474D01*
X221445667Y-121883712D01*
X222074619Y-120674188D02*
X221058619Y-120674188D01*
X221784333Y-120335522D01*
X221058619Y-119996855D01*
X222074619Y-119996855D01*
X222074619Y-119367902D02*
X222026238Y-119464664D01*
X221977857Y-119513045D01*
X221881095Y-119561426D01*
X221590810Y-119561426D01*
X221494048Y-119513045D01*
X221445667Y-119464664D01*
X221397286Y-119367902D01*
X221397286Y-119222760D01*
X221445667Y-119125998D01*
X221494048Y-119077617D01*
X221590810Y-119029236D01*
X221881095Y-119029236D01*
X221977857Y-119077617D01*
X222026238Y-119125998D01*
X222074619Y-119222760D01*
X222074619Y-119367902D01*
X221397286Y-118738950D02*
X221397286Y-118351902D01*
X221058619Y-118593807D02*
X221929476Y-118593807D01*
X222026238Y-118545426D01*
X222074619Y-118448664D01*
X222074619Y-118351902D01*
X222074619Y-117868093D02*
X222026238Y-117964855D01*
X221977857Y-118013236D01*
X221881095Y-118061617D01*
X221590810Y-118061617D01*
X221494048Y-118013236D01*
X221445667Y-117964855D01*
X221397286Y-117868093D01*
X221397286Y-117722951D01*
X221445667Y-117626189D01*
X221494048Y-117577808D01*
X221590810Y-117529427D01*
X221881095Y-117529427D01*
X221977857Y-117577808D01*
X222026238Y-117626189D01*
X222074619Y-117722951D01*
X222074619Y-117868093D01*
X222074619Y-117093998D02*
X221397286Y-117093998D01*
X221590810Y-117093998D02*
X221494048Y-117045617D01*
X221445667Y-116997236D01*
X221397286Y-116900474D01*
X221397286Y-116803713D01*
X222026238Y-116513427D02*
X222074619Y-116416665D01*
X222074619Y-116223141D01*
X222026238Y-116126380D01*
X221929476Y-116077999D01*
X221881095Y-116077999D01*
X221784333Y-116126380D01*
X221735952Y-116223141D01*
X221735952Y-116368284D01*
X221687571Y-116465046D01*
X221590810Y-116513427D01*
X221542429Y-116513427D01*
X221445667Y-116465046D01*
X221397286Y-116368284D01*
X221397286Y-116223141D01*
X221445667Y-116126380D01*
X221397286Y-115642570D02*
X222413286Y-115642570D01*
X221445667Y-115642570D02*
X221397286Y-115545808D01*
X221397286Y-115352285D01*
X221445667Y-115255523D01*
X221494048Y-115207142D01*
X221590810Y-115158761D01*
X221881095Y-115158761D01*
X221977857Y-115207142D01*
X222026238Y-115255523D01*
X222074619Y-115352285D01*
X222074619Y-115545808D01*
X222026238Y-115642570D01*
X222074619Y-114578189D02*
X222026238Y-114674951D01*
X221977857Y-114723332D01*
X221881095Y-114771713D01*
X221590810Y-114771713D01*
X221494048Y-114723332D01*
X221445667Y-114674951D01*
X221397286Y-114578189D01*
X221397286Y-114433047D01*
X221445667Y-114336285D01*
X221494048Y-114287904D01*
X221590810Y-114239523D01*
X221881095Y-114239523D01*
X221977857Y-114287904D01*
X222026238Y-114336285D01*
X222074619Y-114433047D01*
X222074619Y-114578189D01*
X222074619Y-113804094D02*
X221397286Y-113804094D01*
X221590810Y-113804094D02*
X221494048Y-113755713D01*
X221445667Y-113707332D01*
X221397286Y-113610570D01*
X221397286Y-113513809D01*
X221397286Y-113320285D02*
X221397286Y-112933237D01*
X221058619Y-113175142D02*
X221929476Y-113175142D01*
X222026238Y-113126761D01*
X222074619Y-113029999D01*
X222074619Y-112933237D01*
X222026238Y-112642952D02*
X222074619Y-112546190D01*
X222074619Y-112352666D01*
X222026238Y-112255905D01*
X221929476Y-112207524D01*
X221881095Y-112207524D01*
X221784333Y-112255905D01*
X221735952Y-112352666D01*
X221735952Y-112497809D01*
X221687571Y-112594571D01*
X221590810Y-112642952D01*
X221542429Y-112642952D01*
X221445667Y-112594571D01*
X221397286Y-112497809D01*
X221397286Y-112352666D01*
X221445667Y-112255905D01*
X223751019Y-138284852D02*
X222735019Y-138284852D01*
X222735019Y-138042947D01*
X222783400Y-137897805D01*
X222880162Y-137801043D01*
X222976924Y-137752662D01*
X223170448Y-137704281D01*
X223315590Y-137704281D01*
X223509114Y-137752662D01*
X223605876Y-137801043D01*
X223702638Y-137897805D01*
X223751019Y-138042947D01*
X223751019Y-138284852D01*
X223751019Y-136833424D02*
X223218829Y-136833424D01*
X223122067Y-136881805D01*
X223073686Y-136978567D01*
X223073686Y-137172090D01*
X223122067Y-137268852D01*
X223702638Y-136833424D02*
X223751019Y-136930186D01*
X223751019Y-137172090D01*
X223702638Y-137268852D01*
X223605876Y-137317233D01*
X223509114Y-137317233D01*
X223412352Y-137268852D01*
X223363971Y-137172090D01*
X223363971Y-136930186D01*
X223315590Y-136833424D01*
X223702638Y-136397995D02*
X223751019Y-136301233D01*
X223751019Y-136107709D01*
X223702638Y-136010948D01*
X223605876Y-135962567D01*
X223557495Y-135962567D01*
X223460733Y-136010948D01*
X223412352Y-136107709D01*
X223412352Y-136252852D01*
X223363971Y-136349614D01*
X223267210Y-136397995D01*
X223218829Y-136397995D01*
X223122067Y-136349614D01*
X223073686Y-136252852D01*
X223073686Y-136107709D01*
X223122067Y-136010948D01*
X223751019Y-135527138D02*
X222735019Y-135527138D01*
X223751019Y-135091710D02*
X223218829Y-135091710D01*
X223122067Y-135140091D01*
X223073686Y-135236853D01*
X223073686Y-135381995D01*
X223122067Y-135478757D01*
X223170448Y-135527138D01*
X223751019Y-134607900D02*
X222735019Y-134607900D01*
X223122067Y-134607900D02*
X223073686Y-134511138D01*
X223073686Y-134317615D01*
X223122067Y-134220853D01*
X223170448Y-134172472D01*
X223267210Y-134124091D01*
X223557495Y-134124091D01*
X223654257Y-134172472D01*
X223702638Y-134220853D01*
X223751019Y-134317615D01*
X223751019Y-134511138D01*
X223702638Y-134607900D01*
X223751019Y-133543519D02*
X223702638Y-133640281D01*
X223654257Y-133688662D01*
X223557495Y-133737043D01*
X223267210Y-133737043D01*
X223170448Y-133688662D01*
X223122067Y-133640281D01*
X223073686Y-133543519D01*
X223073686Y-133398377D01*
X223122067Y-133301615D01*
X223170448Y-133253234D01*
X223267210Y-133204853D01*
X223557495Y-133204853D01*
X223654257Y-133253234D01*
X223702638Y-133301615D01*
X223751019Y-133398377D01*
X223751019Y-133543519D01*
X223751019Y-132333996D02*
X223218829Y-132333996D01*
X223122067Y-132382377D01*
X223073686Y-132479139D01*
X223073686Y-132672662D01*
X223122067Y-132769424D01*
X223702638Y-132333996D02*
X223751019Y-132430758D01*
X223751019Y-132672662D01*
X223702638Y-132769424D01*
X223605876Y-132817805D01*
X223509114Y-132817805D01*
X223412352Y-132769424D01*
X223363971Y-132672662D01*
X223363971Y-132430758D01*
X223315590Y-132333996D01*
X223751019Y-131850186D02*
X223073686Y-131850186D01*
X223267210Y-131850186D02*
X223170448Y-131801805D01*
X223122067Y-131753424D01*
X223073686Y-131656662D01*
X223073686Y-131559901D01*
X223751019Y-130785806D02*
X222735019Y-130785806D01*
X223702638Y-130785806D02*
X223751019Y-130882568D01*
X223751019Y-131076091D01*
X223702638Y-131172853D01*
X223654257Y-131221234D01*
X223557495Y-131269615D01*
X223267210Y-131269615D01*
X223170448Y-131221234D01*
X223122067Y-131172853D01*
X223073686Y-131076091D01*
X223073686Y-130882568D01*
X223122067Y-130785806D01*
X223751019Y-129527901D02*
X222735019Y-129527901D01*
X223073686Y-129044091D02*
X223751019Y-129044091D01*
X223170448Y-129044091D02*
X223122067Y-128995710D01*
X223073686Y-128898948D01*
X223073686Y-128753806D01*
X223122067Y-128657044D01*
X223218829Y-128608663D01*
X223751019Y-128608663D01*
X223073686Y-128269996D02*
X223073686Y-127882948D01*
X222735019Y-128124853D02*
X223605876Y-128124853D01*
X223702638Y-128076472D01*
X223751019Y-127979710D01*
X223751019Y-127882948D01*
X223702638Y-127157235D02*
X223751019Y-127253997D01*
X223751019Y-127447520D01*
X223702638Y-127544282D01*
X223605876Y-127592663D01*
X223218829Y-127592663D01*
X223122067Y-127544282D01*
X223073686Y-127447520D01*
X223073686Y-127253997D01*
X223122067Y-127157235D01*
X223218829Y-127108854D01*
X223315590Y-127108854D01*
X223412352Y-127592663D01*
X223751019Y-126673425D02*
X223073686Y-126673425D01*
X223267210Y-126673425D02*
X223170448Y-126625044D01*
X223122067Y-126576663D01*
X223073686Y-126479901D01*
X223073686Y-126383140D01*
X223073686Y-126044473D02*
X223751019Y-126044473D01*
X223170448Y-126044473D02*
X223122067Y-125996092D01*
X223073686Y-125899330D01*
X223073686Y-125754188D01*
X223122067Y-125657426D01*
X223218829Y-125609045D01*
X223751019Y-125609045D01*
X223751019Y-124689807D02*
X223218829Y-124689807D01*
X223122067Y-124738188D01*
X223073686Y-124834950D01*
X223073686Y-125028473D01*
X223122067Y-125125235D01*
X223702638Y-124689807D02*
X223751019Y-124786569D01*
X223751019Y-125028473D01*
X223702638Y-125125235D01*
X223605876Y-125173616D01*
X223509114Y-125173616D01*
X223412352Y-125125235D01*
X223363971Y-125028473D01*
X223363971Y-124786569D01*
X223315590Y-124689807D01*
X223751019Y-124060854D02*
X223702638Y-124157616D01*
X223605876Y-124205997D01*
X222735019Y-124205997D01*
X223751019Y-122899712D02*
X222735019Y-122899712D01*
X223073686Y-122415902D02*
X223751019Y-122415902D01*
X223170448Y-122415902D02*
X223122067Y-122367521D01*
X223073686Y-122270759D01*
X223073686Y-122125617D01*
X223122067Y-122028855D01*
X223218829Y-121980474D01*
X223751019Y-121980474D01*
X223073686Y-121641807D02*
X223073686Y-121254759D01*
X222735019Y-121496664D02*
X223605876Y-121496664D01*
X223702638Y-121448283D01*
X223751019Y-121351521D01*
X223751019Y-121254759D01*
X223702638Y-120529046D02*
X223751019Y-120625808D01*
X223751019Y-120819331D01*
X223702638Y-120916093D01*
X223605876Y-120964474D01*
X223218829Y-120964474D01*
X223122067Y-120916093D01*
X223073686Y-120819331D01*
X223073686Y-120625808D01*
X223122067Y-120529046D01*
X223218829Y-120480665D01*
X223315590Y-120480665D01*
X223412352Y-120964474D01*
X223751019Y-120045236D02*
X223073686Y-120045236D01*
X223267210Y-120045236D02*
X223170448Y-119996855D01*
X223122067Y-119948474D01*
X223073686Y-119851712D01*
X223073686Y-119754951D01*
X223073686Y-119561427D02*
X223073686Y-119174379D01*
X223751019Y-119416284D02*
X222880162Y-119416284D01*
X222783400Y-119367903D01*
X222735019Y-119271141D01*
X222735019Y-119174379D01*
X223751019Y-118400285D02*
X223218829Y-118400285D01*
X223122067Y-118448666D01*
X223073686Y-118545428D01*
X223073686Y-118738951D01*
X223122067Y-118835713D01*
X223702638Y-118400285D02*
X223751019Y-118497047D01*
X223751019Y-118738951D01*
X223702638Y-118835713D01*
X223605876Y-118884094D01*
X223509114Y-118884094D01*
X223412352Y-118835713D01*
X223363971Y-118738951D01*
X223363971Y-118497047D01*
X223315590Y-118400285D01*
X223702638Y-117481047D02*
X223751019Y-117577809D01*
X223751019Y-117771332D01*
X223702638Y-117868094D01*
X223654257Y-117916475D01*
X223557495Y-117964856D01*
X223267210Y-117964856D01*
X223170448Y-117916475D01*
X223122067Y-117868094D01*
X223073686Y-117771332D01*
X223073686Y-117577809D01*
X223122067Y-117481047D01*
X223702638Y-116658571D02*
X223751019Y-116755333D01*
X223751019Y-116948856D01*
X223702638Y-117045618D01*
X223605876Y-117093999D01*
X223218829Y-117093999D01*
X223122067Y-117045618D01*
X223073686Y-116948856D01*
X223073686Y-116755333D01*
X223122067Y-116658571D01*
X223218829Y-116610190D01*
X223315590Y-116610190D01*
X223412352Y-117093999D01*
X223751019Y-114820095D02*
X223267210Y-115158761D01*
X223751019Y-115400666D02*
X222735019Y-115400666D01*
X222735019Y-115013619D01*
X222783400Y-114916857D01*
X222831781Y-114868476D01*
X222928543Y-114820095D01*
X223073686Y-114820095D01*
X223170448Y-114868476D01*
X223218829Y-114916857D01*
X223267210Y-115013619D01*
X223267210Y-115400666D01*
X223702638Y-113997619D02*
X223751019Y-114094381D01*
X223751019Y-114287904D01*
X223702638Y-114384666D01*
X223605876Y-114433047D01*
X223218829Y-114433047D01*
X223122067Y-114384666D01*
X223073686Y-114287904D01*
X223073686Y-114094381D01*
X223122067Y-113997619D01*
X223218829Y-113949238D01*
X223315590Y-113949238D01*
X223412352Y-114433047D01*
X223073686Y-113610571D02*
X223751019Y-113368666D01*
X223073686Y-113126762D01*
X223751019Y-112207524D02*
X223751019Y-112788095D01*
X223751019Y-112497809D02*
X222735019Y-112497809D01*
X222880162Y-112594571D01*
X222976924Y-112691333D01*
X223025305Y-112788095D01*
D11*
X184277000Y-115176905D02*
X184325381Y-115080143D01*
X184325381Y-114935000D01*
X184277000Y-114789858D01*
X184180238Y-114693096D01*
X184083476Y-114644715D01*
X183889952Y-114596334D01*
X183744810Y-114596334D01*
X183551286Y-114644715D01*
X183454524Y-114693096D01*
X183357762Y-114789858D01*
X183309381Y-114935000D01*
X183309381Y-115031762D01*
X183357762Y-115176905D01*
X183406143Y-115225286D01*
X183744810Y-115225286D01*
X183744810Y-115031762D01*
X183309381Y-115660715D02*
X184325381Y-115660715D01*
X183309381Y-116241286D01*
X184325381Y-116241286D01*
X183309381Y-116725096D02*
X184325381Y-116725096D01*
X184325381Y-116967001D01*
X184277000Y-117112143D01*
X184180238Y-117208905D01*
X184083476Y-117257286D01*
X183889952Y-117305667D01*
X183744810Y-117305667D01*
X183551286Y-117257286D01*
X183454524Y-117208905D01*
X183357762Y-117112143D01*
X183309381Y-116967001D01*
X183309381Y-116725096D01*
X184531000Y-127241905D02*
X184579381Y-127145143D01*
X184579381Y-127000000D01*
X184531000Y-126854858D01*
X184434238Y-126758096D01*
X184337476Y-126709715D01*
X184143952Y-126661334D01*
X183998810Y-126661334D01*
X183805286Y-126709715D01*
X183708524Y-126758096D01*
X183611762Y-126854858D01*
X183563381Y-127000000D01*
X183563381Y-127096762D01*
X183611762Y-127241905D01*
X183660143Y-127290286D01*
X183998810Y-127290286D01*
X183998810Y-127096762D01*
X183563381Y-127725715D02*
X184579381Y-127725715D01*
X183563381Y-128306286D01*
X184579381Y-128306286D01*
X183563381Y-128790096D02*
X184579381Y-128790096D01*
X184579381Y-129032001D01*
X184531000Y-129177143D01*
X184434238Y-129273905D01*
X184337476Y-129322286D01*
X184143952Y-129370667D01*
X183998810Y-129370667D01*
X183805286Y-129322286D01*
X183708524Y-129273905D01*
X183611762Y-129177143D01*
X183563381Y-129032001D01*
X183563381Y-128790096D01*
X196009381Y-130743476D02*
X196009381Y-130259667D01*
X195525571Y-130211286D01*
X195573952Y-130259667D01*
X195622333Y-130356429D01*
X195622333Y-130598333D01*
X195573952Y-130695095D01*
X195525571Y-130743476D01*
X195428810Y-130791857D01*
X195186905Y-130791857D01*
X195090143Y-130743476D01*
X195041762Y-130695095D01*
X194993381Y-130598333D01*
X194993381Y-130356429D01*
X195041762Y-130259667D01*
X195090143Y-130211286D01*
X196009381Y-131082143D02*
X194993381Y-131420810D01*
X196009381Y-131759476D01*
X195041762Y-125500191D02*
X194993381Y-125645334D01*
X194993381Y-125887238D01*
X195041762Y-125984000D01*
X195090143Y-126032381D01*
X195186905Y-126080762D01*
X195283667Y-126080762D01*
X195380429Y-126032381D01*
X195428810Y-125984000D01*
X195477190Y-125887238D01*
X195525571Y-125693715D01*
X195573952Y-125596953D01*
X195622333Y-125548572D01*
X195719095Y-125500191D01*
X195815857Y-125500191D01*
X195912619Y-125548572D01*
X195961000Y-125596953D01*
X196009381Y-125693715D01*
X196009381Y-125935619D01*
X195961000Y-126080762D01*
X196009381Y-126371048D02*
X196009381Y-126951619D01*
X194993381Y-126661334D02*
X196009381Y-126661334D01*
X195283667Y-127241905D02*
X195283667Y-127725714D01*
X194993381Y-127145143D02*
X196009381Y-127483810D01*
X194993381Y-127822476D01*
X194993381Y-128741714D02*
X195477190Y-128403048D01*
X194993381Y-128161143D02*
X196009381Y-128161143D01*
X196009381Y-128548190D01*
X195961000Y-128644952D01*
X195912619Y-128693333D01*
X195815857Y-128741714D01*
X195670714Y-128741714D01*
X195573952Y-128693333D01*
X195525571Y-128644952D01*
X195477190Y-128548190D01*
X195477190Y-128161143D01*
X196009381Y-129032000D02*
X196009381Y-129612571D01*
X194993381Y-129322286D02*
X196009381Y-129322286D01*
X196009381Y-123631476D02*
X196009381Y-123147667D01*
X195525571Y-123099286D01*
X195573952Y-123147667D01*
X195622333Y-123244429D01*
X195622333Y-123486333D01*
X195573952Y-123583095D01*
X195525571Y-123631476D01*
X195428810Y-123679857D01*
X195186905Y-123679857D01*
X195090143Y-123631476D01*
X195041762Y-123583095D01*
X194993381Y-123486333D01*
X194993381Y-123244429D01*
X195041762Y-123147667D01*
X195090143Y-123099286D01*
X196009381Y-123970143D02*
X194993381Y-124308810D01*
X196009381Y-124647476D01*
X195961000Y-119621905D02*
X196009381Y-119525143D01*
X196009381Y-119380000D01*
X195961000Y-119234858D01*
X195864238Y-119138096D01*
X195767476Y-119089715D01*
X195573952Y-119041334D01*
X195428810Y-119041334D01*
X195235286Y-119089715D01*
X195138524Y-119138096D01*
X195041762Y-119234858D01*
X194993381Y-119380000D01*
X194993381Y-119476762D01*
X195041762Y-119621905D01*
X195090143Y-119670286D01*
X195428810Y-119670286D01*
X195428810Y-119476762D01*
X194993381Y-120105715D02*
X196009381Y-120105715D01*
X194993381Y-120686286D01*
X196009381Y-120686286D01*
X194993381Y-121170096D02*
X196009381Y-121170096D01*
X196009381Y-121412001D01*
X195961000Y-121557143D01*
X195864238Y-121653905D01*
X195767476Y-121702286D01*
X195573952Y-121750667D01*
X195428810Y-121750667D01*
X195235286Y-121702286D01*
X195138524Y-121653905D01*
X195041762Y-121557143D01*
X194993381Y-121412001D01*
X194993381Y-121170096D01*
X205788381Y-123885476D02*
X205788381Y-123401667D01*
X205304571Y-123353286D01*
X205352952Y-123401667D01*
X205401333Y-123498429D01*
X205401333Y-123740333D01*
X205352952Y-123837095D01*
X205304571Y-123885476D01*
X205207810Y-123933857D01*
X204965905Y-123933857D01*
X204869143Y-123885476D01*
X204820762Y-123837095D01*
X204772381Y-123740333D01*
X204772381Y-123498429D01*
X204820762Y-123401667D01*
X204869143Y-123353286D01*
X205788381Y-124224143D02*
X204772381Y-124562810D01*
X205788381Y-124901476D01*
X205740000Y-119748905D02*
X205788381Y-119652143D01*
X205788381Y-119507000D01*
X205740000Y-119361858D01*
X205643238Y-119265096D01*
X205546476Y-119216715D01*
X205352952Y-119168334D01*
X205207810Y-119168334D01*
X205014286Y-119216715D01*
X204917524Y-119265096D01*
X204820762Y-119361858D01*
X204772381Y-119507000D01*
X204772381Y-119603762D01*
X204820762Y-119748905D01*
X204869143Y-119797286D01*
X205207810Y-119797286D01*
X205207810Y-119603762D01*
X204772381Y-120232715D02*
X205788381Y-120232715D01*
X204772381Y-120813286D01*
X205788381Y-120813286D01*
X204772381Y-121297096D02*
X205788381Y-121297096D01*
X205788381Y-121539001D01*
X205740000Y-121684143D01*
X205643238Y-121780905D01*
X205546476Y-121829286D01*
X205352952Y-121877667D01*
X205207810Y-121877667D01*
X205014286Y-121829286D01*
X204917524Y-121780905D01*
X204820762Y-121684143D01*
X204772381Y-121539001D01*
X204772381Y-121297096D01*
X204820762Y-115733286D02*
X204772381Y-115878429D01*
X204772381Y-116120333D01*
X204820762Y-116217095D01*
X204869143Y-116265476D01*
X204965905Y-116313857D01*
X205062667Y-116313857D01*
X205159429Y-116265476D01*
X205207810Y-116217095D01*
X205256190Y-116120333D01*
X205304571Y-115926810D01*
X205352952Y-115830048D01*
X205401333Y-115781667D01*
X205498095Y-115733286D01*
X205594857Y-115733286D01*
X205691619Y-115781667D01*
X205740000Y-115830048D01*
X205788381Y-115926810D01*
X205788381Y-116168714D01*
X205740000Y-116313857D01*
X204772381Y-116749286D02*
X205788381Y-116749286D01*
X205788381Y-116991191D01*
X205740000Y-117136333D01*
X205643238Y-117233095D01*
X205546476Y-117281476D01*
X205352952Y-117329857D01*
X205207810Y-117329857D01*
X205014286Y-117281476D01*
X204917524Y-117233095D01*
X204820762Y-117136333D01*
X204772381Y-116991191D01*
X204772381Y-116749286D01*
X205062667Y-117716905D02*
X205062667Y-118200714D01*
X204772381Y-117620143D02*
X205788381Y-117958810D01*
X204772381Y-118297476D01*
X204820762Y-112201477D02*
X204772381Y-112346620D01*
X204772381Y-112588524D01*
X204820762Y-112685286D01*
X204869143Y-112733667D01*
X204965905Y-112782048D01*
X205062667Y-112782048D01*
X205159429Y-112733667D01*
X205207810Y-112685286D01*
X205256190Y-112588524D01*
X205304571Y-112395001D01*
X205352952Y-112298239D01*
X205401333Y-112249858D01*
X205498095Y-112201477D01*
X205594857Y-112201477D01*
X205691619Y-112249858D01*
X205740000Y-112298239D01*
X205788381Y-112395001D01*
X205788381Y-112636905D01*
X205740000Y-112782048D01*
X204869143Y-113798048D02*
X204820762Y-113749667D01*
X204772381Y-113604524D01*
X204772381Y-113507762D01*
X204820762Y-113362620D01*
X204917524Y-113265858D01*
X205014286Y-113217477D01*
X205207810Y-113169096D01*
X205352952Y-113169096D01*
X205546476Y-113217477D01*
X205643238Y-113265858D01*
X205740000Y-113362620D01*
X205788381Y-113507762D01*
X205788381Y-113604524D01*
X205740000Y-113749667D01*
X205691619Y-113798048D01*
X204772381Y-114717286D02*
X204772381Y-114233477D01*
X205788381Y-114233477D01*
D12*
X187252429Y-123268619D02*
X187252429Y-122252619D01*
X187736239Y-123268619D02*
X187736239Y-122252619D01*
X188074905Y-122978333D01*
X188413572Y-122252619D01*
X188413572Y-123268619D01*
X188897382Y-123268619D02*
X188897382Y-122252619D01*
X189139287Y-122252619D01*
X189284429Y-122301000D01*
X189381191Y-122397762D01*
X189429572Y-122494524D01*
X189477953Y-122688048D01*
X189477953Y-122833190D01*
X189429572Y-123026714D01*
X189381191Y-123123476D01*
X189284429Y-123220238D01*
X189139287Y-123268619D01*
X188897382Y-123268619D01*
X187288715Y-135043333D02*
X187772524Y-135043333D01*
X187191953Y-135333619D02*
X187530620Y-134317619D01*
X187869286Y-135333619D01*
X188207953Y-135333619D02*
X188207953Y-134317619D01*
X188546619Y-135043333D01*
X188885286Y-134317619D01*
X188885286Y-135333619D01*
X189320715Y-135285238D02*
X189465858Y-135333619D01*
X189707762Y-135333619D01*
X189804524Y-135285238D01*
X189852905Y-135236857D01*
X189901286Y-135140095D01*
X189901286Y-135043333D01*
X189852905Y-134946571D01*
X189804524Y-134898190D01*
X189707762Y-134849810D01*
X189514239Y-134801429D01*
X189417477Y-134753048D01*
X189369096Y-134704667D01*
X189320715Y-134607905D01*
X189320715Y-134511143D01*
X189369096Y-134414381D01*
X189417477Y-134366000D01*
X189514239Y-134317619D01*
X189756143Y-134317619D01*
X189901286Y-134366000D01*
X197364049Y-134701038D02*
X197509192Y-134749419D01*
X197751096Y-134749419D01*
X197847858Y-134701038D01*
X197896239Y-134652657D01*
X197944620Y-134555895D01*
X197944620Y-134459133D01*
X197896239Y-134362371D01*
X197847858Y-134313990D01*
X197751096Y-134265610D01*
X197557573Y-134217229D01*
X197460811Y-134168848D01*
X197412430Y-134120467D01*
X197364049Y-134023705D01*
X197364049Y-133926943D01*
X197412430Y-133830181D01*
X197460811Y-133781800D01*
X197557573Y-133733419D01*
X197799477Y-133733419D01*
X197944620Y-133781800D01*
X198234906Y-134072086D02*
X198621954Y-134072086D01*
X198380049Y-133733419D02*
X198380049Y-134604276D01*
X198428430Y-134701038D01*
X198525192Y-134749419D01*
X198621954Y-134749419D01*
X199396048Y-134749419D02*
X199396048Y-134217229D01*
X199347667Y-134120467D01*
X199250905Y-134072086D01*
X199057382Y-134072086D01*
X198960620Y-134120467D01*
X199396048Y-134701038D02*
X199299286Y-134749419D01*
X199057382Y-134749419D01*
X198960620Y-134701038D01*
X198912239Y-134604276D01*
X198912239Y-134507514D01*
X198960620Y-134410752D01*
X199057382Y-134362371D01*
X199299286Y-134362371D01*
X199396048Y-134313990D01*
X199879858Y-134749419D02*
X199879858Y-134072086D01*
X199879858Y-134265610D02*
X199928239Y-134168848D01*
X199976620Y-134120467D01*
X200073382Y-134072086D01*
X200170143Y-134072086D01*
X200363667Y-134072086D02*
X200750715Y-134072086D01*
X200508810Y-133733419D02*
X200508810Y-134604276D01*
X200557191Y-134701038D01*
X200653953Y-134749419D01*
X200750715Y-134749419D01*
X197122143Y-135893629D02*
X197267286Y-135942010D01*
X197315667Y-135990390D01*
X197364048Y-136087152D01*
X197364048Y-136232295D01*
X197315667Y-136329057D01*
X197267286Y-136377438D01*
X197170524Y-136425819D01*
X196783477Y-136425819D01*
X196783477Y-135409819D01*
X197122143Y-135409819D01*
X197218905Y-135458200D01*
X197267286Y-135506581D01*
X197315667Y-135603343D01*
X197315667Y-135700105D01*
X197267286Y-135796867D01*
X197218905Y-135845248D01*
X197122143Y-135893629D01*
X196783477Y-135893629D01*
X198234905Y-135748486D02*
X198234905Y-136425819D01*
X197799477Y-135748486D02*
X197799477Y-136280676D01*
X197847858Y-136377438D01*
X197944620Y-136425819D01*
X198089762Y-136425819D01*
X198186524Y-136377438D01*
X198234905Y-136329057D01*
X198573572Y-135748486D02*
X198960620Y-135748486D01*
X198718715Y-135409819D02*
X198718715Y-136280676D01*
X198767096Y-136377438D01*
X198863858Y-136425819D01*
X198960620Y-136425819D01*
X199154143Y-135748486D02*
X199541191Y-135748486D01*
X199299286Y-135409819D02*
X199299286Y-136280676D01*
X199347667Y-136377438D01*
X199444429Y-136425819D01*
X199541191Y-136425819D01*
X200025000Y-136425819D02*
X199928238Y-136377438D01*
X199879857Y-136329057D01*
X199831476Y-136232295D01*
X199831476Y-135942010D01*
X199879857Y-135845248D01*
X199928238Y-135796867D01*
X200025000Y-135748486D01*
X200170142Y-135748486D01*
X200266904Y-135796867D01*
X200315285Y-135845248D01*
X200363666Y-135942010D01*
X200363666Y-136232295D01*
X200315285Y-136329057D01*
X200266904Y-136377438D01*
X200170142Y-136425819D01*
X200025000Y-136425819D01*
X200799095Y-135748486D02*
X200799095Y-136425819D01*
X200799095Y-135845248D02*
X200847476Y-135796867D01*
X200944238Y-135748486D01*
X201089380Y-135748486D01*
X201186142Y-135796867D01*
X201234523Y-135893629D01*
X201234523Y-136425819D01*
X207475667Y-146941419D02*
X206991858Y-146941419D01*
X206991858Y-145925419D01*
X207814334Y-146409229D02*
X208153000Y-146409229D01*
X208298143Y-146941419D02*
X207814334Y-146941419D01*
X207814334Y-145925419D01*
X208298143Y-145925419D01*
X208733572Y-146941419D02*
X208733572Y-145925419D01*
X208975477Y-145925419D01*
X209120619Y-145973800D01*
X209217381Y-146070562D01*
X209265762Y-146167324D01*
X209314143Y-146360848D01*
X209314143Y-146505990D01*
X209265762Y-146699514D01*
X209217381Y-146796276D01*
X209120619Y-146893038D01*
X208975477Y-146941419D01*
X208733572Y-146941419D01*
X210862333Y-146409229D02*
X211007476Y-146457610D01*
X211055857Y-146505990D01*
X211104238Y-146602752D01*
X211104238Y-146747895D01*
X211055857Y-146844657D01*
X211007476Y-146893038D01*
X210910714Y-146941419D01*
X210523667Y-146941419D01*
X210523667Y-145925419D01*
X210862333Y-145925419D01*
X210959095Y-145973800D01*
X211007476Y-146022181D01*
X211055857Y-146118943D01*
X211055857Y-146215705D01*
X211007476Y-146312467D01*
X210959095Y-146360848D01*
X210862333Y-146409229D01*
X210523667Y-146409229D01*
X211975095Y-146941419D02*
X211975095Y-146409229D01*
X211926714Y-146312467D01*
X211829952Y-146264086D01*
X211636429Y-146264086D01*
X211539667Y-146312467D01*
X211975095Y-146893038D02*
X211878333Y-146941419D01*
X211636429Y-146941419D01*
X211539667Y-146893038D01*
X211491286Y-146796276D01*
X211491286Y-146699514D01*
X211539667Y-146602752D01*
X211636429Y-146554371D01*
X211878333Y-146554371D01*
X211975095Y-146505990D01*
X212458905Y-146941419D02*
X212458905Y-146264086D01*
X212458905Y-146457610D02*
X212507286Y-146360848D01*
X212555667Y-146312467D01*
X212652429Y-146264086D01*
X212749190Y-146264086D01*
X209483477Y-148617819D02*
X208999668Y-148617819D01*
X208999668Y-147601819D01*
X210209191Y-148569438D02*
X210112429Y-148617819D01*
X209918906Y-148617819D01*
X209822144Y-148569438D01*
X209773763Y-148472676D01*
X209773763Y-148085629D01*
X209822144Y-147988867D01*
X209918906Y-147940486D01*
X210112429Y-147940486D01*
X210209191Y-147988867D01*
X210257572Y-148085629D01*
X210257572Y-148182390D01*
X209773763Y-148279152D01*
X210547858Y-147940486D02*
X210934906Y-147940486D01*
X210693001Y-148617819D02*
X210693001Y-147746962D01*
X210741382Y-147650200D01*
X210838144Y-147601819D01*
X210934906Y-147601819D01*
X211128429Y-147940486D02*
X211515477Y-147940486D01*
X211273572Y-147601819D02*
X211273572Y-148472676D01*
X211321953Y-148569438D01*
X211418715Y-148617819D01*
X211515477Y-148617819D01*
X207475667Y-127764419D02*
X206991858Y-127764419D01*
X206991858Y-126748419D01*
X207814334Y-127232229D02*
X208153000Y-127232229D01*
X208298143Y-127764419D02*
X207814334Y-127764419D01*
X207814334Y-126748419D01*
X208298143Y-126748419D01*
X208733572Y-127764419D02*
X208733572Y-126748419D01*
X208975477Y-126748419D01*
X209120619Y-126796800D01*
X209217381Y-126893562D01*
X209265762Y-126990324D01*
X209314143Y-127183848D01*
X209314143Y-127328990D01*
X209265762Y-127522514D01*
X209217381Y-127619276D01*
X209120619Y-127716038D01*
X208975477Y-127764419D01*
X208733572Y-127764419D01*
X210862333Y-127232229D02*
X211007476Y-127280610D01*
X211055857Y-127328990D01*
X211104238Y-127425752D01*
X211104238Y-127570895D01*
X211055857Y-127667657D01*
X211007476Y-127716038D01*
X210910714Y-127764419D01*
X210523667Y-127764419D01*
X210523667Y-126748419D01*
X210862333Y-126748419D01*
X210959095Y-126796800D01*
X211007476Y-126845181D01*
X211055857Y-126941943D01*
X211055857Y-127038705D01*
X211007476Y-127135467D01*
X210959095Y-127183848D01*
X210862333Y-127232229D01*
X210523667Y-127232229D01*
X211975095Y-127764419D02*
X211975095Y-127232229D01*
X211926714Y-127135467D01*
X211829952Y-127087086D01*
X211636429Y-127087086D01*
X211539667Y-127135467D01*
X211975095Y-127716038D02*
X211878333Y-127764419D01*
X211636429Y-127764419D01*
X211539667Y-127716038D01*
X211491286Y-127619276D01*
X211491286Y-127522514D01*
X211539667Y-127425752D01*
X211636429Y-127377371D01*
X211878333Y-127377371D01*
X211975095Y-127328990D01*
X212458905Y-127764419D02*
X212458905Y-127087086D01*
X212458905Y-127280610D02*
X212507286Y-127183848D01*
X212555667Y-127135467D01*
X212652429Y-127087086D01*
X212749190Y-127087086D01*
X209048048Y-129440819D02*
X208709382Y-128957010D01*
X208467477Y-129440819D02*
X208467477Y-128424819D01*
X208854524Y-128424819D01*
X208951286Y-128473200D01*
X208999667Y-128521581D01*
X209048048Y-128618343D01*
X209048048Y-128763486D01*
X208999667Y-128860248D01*
X208951286Y-128908629D01*
X208854524Y-128957010D01*
X208467477Y-128957010D01*
X209483477Y-129440819D02*
X209483477Y-128763486D01*
X209483477Y-128424819D02*
X209435096Y-128473200D01*
X209483477Y-128521581D01*
X209531858Y-128473200D01*
X209483477Y-128424819D01*
X209483477Y-128521581D01*
X210402715Y-128763486D02*
X210402715Y-129585962D01*
X210354334Y-129682724D01*
X210305953Y-129731105D01*
X210209192Y-129779486D01*
X210064049Y-129779486D01*
X209967287Y-129731105D01*
X210402715Y-129392438D02*
X210305953Y-129440819D01*
X210112430Y-129440819D01*
X210015668Y-129392438D01*
X209967287Y-129344057D01*
X209918906Y-129247295D01*
X209918906Y-128957010D01*
X209967287Y-128860248D01*
X210015668Y-128811867D01*
X210112430Y-128763486D01*
X210305953Y-128763486D01*
X210402715Y-128811867D01*
X210886525Y-129440819D02*
X210886525Y-128424819D01*
X211321953Y-129440819D02*
X211321953Y-128908629D01*
X211273572Y-128811867D01*
X211176810Y-128763486D01*
X211031668Y-128763486D01*
X210934906Y-128811867D01*
X210886525Y-128860248D01*
X211660620Y-128763486D02*
X212047668Y-128763486D01*
X211805763Y-128424819D02*
X211805763Y-129295676D01*
X211854144Y-129392438D01*
X211950906Y-129440819D01*
X212047668Y-129440819D01*
D13*
X196589000Y-121830000D02*
X193279000Y-121830000D01*
X193279000Y-121830000D02*
X193279000Y-129630000D01*
X193279000Y-129630000D02*
X196589000Y-129630000D01*
X196589000Y-133230000D02*
X202311000Y-133230000D01*
X196589000Y-118230000D02*
X202311000Y-118230000D01*
X196589000Y-133230000D02*
X196589000Y-118230000D01*
X202311000Y-133230000D02*
X202311000Y-118230000D01*
X185667000Y-125866000D02*
X182357000Y-125866000D01*
X182357000Y-125866000D02*
X182357000Y-133666000D01*
X182357000Y-133666000D02*
X185667000Y-133666000D01*
X185667000Y-133666000D02*
X191389000Y-133666000D01*
X185667000Y-125866000D02*
X191389000Y-125866000D01*
X185667000Y-133666000D02*
X185667000Y-125866000D01*
X191389000Y-133666000D02*
X191389000Y-125866000D01*
X185413000Y-113801000D02*
X182103000Y-113801000D01*
X182103000Y-113801000D02*
X182103000Y-121601000D01*
X182103000Y-121601000D02*
X185413000Y-121601000D01*
X185413000Y-121601000D02*
X191135000Y-121601000D01*
X185413000Y-113801000D02*
X191135000Y-113801000D01*
X185413000Y-121601000D02*
X185413000Y-113801000D01*
X191135000Y-121601000D02*
X191135000Y-113801000D01*
X207003000Y-133895000D02*
X203693000Y-133895000D01*
X203693000Y-133895000D02*
X203693000Y-141695000D01*
X203693000Y-141695000D02*
X207003000Y-141695000D01*
X207003000Y-145295000D02*
X212725000Y-145295000D01*
X207003000Y-130295000D02*
X212725000Y-130295000D01*
X207003000Y-145295000D02*
X207003000Y-130295000D01*
X212725000Y-145295000D02*
X212725000Y-130295000D01*
X207130000Y-114845000D02*
X203820000Y-114845000D01*
X203820000Y-114845000D02*
X203820000Y-122645000D01*
X203820000Y-122645000D02*
X207130000Y-122645000D01*
X207130000Y-126245000D02*
X212852000Y-126245000D01*
X207130000Y-111245000D02*
X212852000Y-111245000D01*
X207130000Y-126245000D02*
X207130000Y-111245000D01*
X212852000Y-126245000D02*
X212852000Y-111245000D01*
D14*
X199926500Y-117275500D02*
X198726500Y-117275500D01*
X198726500Y-115515500D02*
X199926500Y-115515500D01*
D13*
X208680000Y-108060000D02*
X208680000Y-102760000D01*
X191370000Y-108060000D02*
X191370000Y-102760000D01*
X208680000Y-108060000D02*
X191370000Y-108060000D01*
X208680000Y-102760000D02*
X191370000Y-102760000D01*
X200747381Y-132413333D02*
X201461667Y-132413333D01*
X201604524Y-132460953D01*
X201699762Y-132556191D01*
X201747381Y-132699048D01*
X201747381Y-132794286D01*
X200747381Y-131508571D02*
X200747381Y-131699048D01*
X200795000Y-131794286D01*
X200842619Y-131841905D01*
X200985476Y-131937143D01*
X201175952Y-131984762D01*
X201556905Y-131984762D01*
X201652143Y-131937143D01*
X201699762Y-131889524D01*
X201747381Y-131794286D01*
X201747381Y-131603809D01*
X201699762Y-131508571D01*
X201652143Y-131460952D01*
X201556905Y-131413333D01*
X201318810Y-131413333D01*
X201223571Y-131460952D01*
X201175952Y-131508571D01*
X201128333Y-131603809D01*
X201128333Y-131794286D01*
X201175952Y-131889524D01*
X201223571Y-131937143D01*
X201318810Y-131984762D01*
X189825381Y-132921333D02*
X190539667Y-132921333D01*
X190682524Y-132968953D01*
X190777762Y-133064191D01*
X190825381Y-133207048D01*
X190825381Y-133302286D01*
X189920619Y-132492762D02*
X189873000Y-132445143D01*
X189825381Y-132349905D01*
X189825381Y-132111809D01*
X189873000Y-132016571D01*
X189920619Y-131968952D01*
X190015857Y-131921333D01*
X190111095Y-131921333D01*
X190253952Y-131968952D01*
X190825381Y-132540381D01*
X190825381Y-131921333D01*
X189571381Y-120856333D02*
X190285667Y-120856333D01*
X190428524Y-120903953D01*
X190523762Y-120999191D01*
X190571381Y-121142048D01*
X190571381Y-121237286D01*
X189571381Y-120475381D02*
X189571381Y-119856333D01*
X189952333Y-120189667D01*
X189952333Y-120046809D01*
X189999952Y-119951571D01*
X190047571Y-119903952D01*
X190142810Y-119856333D01*
X190380905Y-119856333D01*
X190476143Y-119903952D01*
X190523762Y-119951571D01*
X190571381Y-120046809D01*
X190571381Y-120332524D01*
X190523762Y-120427762D01*
X190476143Y-120475381D01*
X211034381Y-144478333D02*
X211748667Y-144478333D01*
X211891524Y-144525953D01*
X211986762Y-144621191D01*
X212034381Y-144764048D01*
X212034381Y-144859286D01*
X211367714Y-143573571D02*
X212034381Y-143573571D01*
X210986762Y-143811667D02*
X211701048Y-144049762D01*
X211701048Y-143430714D01*
X207478381Y-125428333D02*
X208192667Y-125428333D01*
X208335524Y-125475953D01*
X208430762Y-125571191D01*
X208478381Y-125714048D01*
X208478381Y-125809286D01*
X207478381Y-124475952D02*
X207478381Y-124952143D01*
X207954571Y-124999762D01*
X207906952Y-124952143D01*
X207859333Y-124856905D01*
X207859333Y-124618809D01*
X207906952Y-124523571D01*
X207954571Y-124475952D01*
X208049810Y-124428333D01*
X208287905Y-124428333D01*
X208383143Y-124475952D01*
X208430762Y-124523571D01*
X208478381Y-124618809D01*
X208478381Y-124856905D01*
X208430762Y-124952143D01*
X208383143Y-124999762D01*
X199159834Y-115197881D02*
X198826500Y-114721690D01*
X198588405Y-115197881D02*
X198588405Y-114197881D01*
X198969358Y-114197881D01*
X199064596Y-114245500D01*
X199112215Y-114293119D01*
X199159834Y-114388357D01*
X199159834Y-114531214D01*
X199112215Y-114626452D01*
X199064596Y-114674071D01*
X198969358Y-114721690D01*
X198588405Y-114721690D01*
X200112215Y-115197881D02*
X199540786Y-115197881D01*
X199826500Y-115197881D02*
X199826500Y-114197881D01*
X199731262Y-114340738D01*
X199636024Y-114435976D01*
X199540786Y-114483595D01*
X203922381Y-101933333D02*
X204636667Y-101933333D01*
X204779524Y-101980953D01*
X204874762Y-102076191D01*
X204922381Y-102219048D01*
X204922381Y-102314286D01*
X204922381Y-100933333D02*
X204922381Y-101504762D01*
X204922381Y-101219048D02*
X203922381Y-101219048D01*
X204065238Y-101314286D01*
X204160476Y-101409524D01*
X204208095Y-101504762D01*
X210002381Y-104330476D02*
X210002381Y-104901905D01*
X210002381Y-104616191D02*
X209002381Y-104616191D01*
X209145238Y-104711429D01*
X209240476Y-104806667D01*
X209288095Y-104901905D01*
X209002381Y-103711429D02*
X209002381Y-103616190D01*
X209050000Y-103520952D01*
X209097619Y-103473333D01*
X209192857Y-103425714D01*
X209383333Y-103378095D01*
X209621429Y-103378095D01*
X209811905Y-103425714D01*
X209907143Y-103473333D01*
X209954762Y-103520952D01*
X210002381Y-103616190D01*
X210002381Y-103711429D01*
X209954762Y-103806667D01*
X209907143Y-103854286D01*
X209811905Y-103901905D01*
X209621429Y-103949524D01*
X209383333Y-103949524D01*
X209192857Y-103901905D01*
X209097619Y-103854286D01*
X209050000Y-103806667D01*
X209002381Y-103711429D01*
X190952381Y-106394285D02*
X190952381Y-106965714D01*
X190952381Y-106680000D02*
X189952381Y-106680000D01*
X190095238Y-106775238D01*
X190190476Y-106870476D01*
X190238095Y-106965714D01*
M02*
