G04 #@! TF.FileFunction,Copper,L2,Bot,Signal*
%FSLAX46Y46*%
G04 Gerber Fmt 4.6, Leading zero omitted, Abs format (unit mm)*
G04 Created by KiCad (PCBNEW 4.0.7-e2-6376~58~ubuntu16.04.1) date Fri Jan 19 21:25:15 2018*
%MOMM*%
%LPD*%
G01*
G04 APERTURE LIST*
%ADD10C,0.100000*%
%ADD11C,1.397000*%
%ADD12C,1.981000*%
%ADD13C,1.300000*%
%ADD14C,0.609600*%
%ADD15C,0.508000*%
%ADD16C,0.254000*%
G04 APERTURE END LIST*
D10*
D11*
X130274000Y-99568000D03*
X133774000Y-99568000D03*
D12*
X132024000Y-97338000D03*
D11*
X126774000Y-99568000D03*
X123274000Y-99568000D03*
D13*
X155448000Y-91948000D03*
X155448000Y-94488000D03*
X155448000Y-97028000D03*
X155448000Y-89408000D03*
X152908000Y-95758000D03*
X152908000Y-93218000D03*
X152908000Y-90678000D03*
X152908000Y-88138000D03*
X155448000Y-86868000D03*
X152908000Y-85598000D03*
D11*
X142240000Y-84328000D03*
X145740000Y-84328000D03*
D12*
X143990000Y-82098000D03*
D11*
X142240000Y-95504000D03*
X145740000Y-95504000D03*
D12*
X143990000Y-93274000D03*
D11*
X130274000Y-90297000D03*
X133774000Y-90297000D03*
D12*
X132024000Y-88067000D03*
D11*
X126774000Y-90297000D03*
X123274000Y-90297000D03*
X130274000Y-81026000D03*
X133774000Y-81026000D03*
D12*
X132024000Y-78796000D03*
D11*
X126774000Y-81026000D03*
X123274000Y-81026000D03*
D14*
X140208000Y-100076000D03*
X144780000Y-88900000D03*
X146558000Y-87122000D03*
X132588000Y-91440000D03*
X135128000Y-91440000D03*
X132588000Y-92710000D03*
X135128000Y-92710000D03*
X146558000Y-90932000D03*
X147828000Y-89662000D03*
D15*
X130274000Y-99568000D02*
X131378901Y-100672901D01*
X131378901Y-100672901D02*
X139611099Y-100672901D01*
X139611099Y-100672901D02*
X140208000Y-100076000D01*
X146558000Y-87122000D02*
X144780000Y-88900000D01*
X135128000Y-91440000D02*
X132588000Y-91440000D01*
X135128000Y-92710000D02*
X132588000Y-92710000D01*
X147828000Y-89662000D02*
X146558000Y-90932000D01*
D16*
G36*
X130398783Y-78471250D02*
X130398219Y-79117913D01*
X130645165Y-79715569D01*
X130687304Y-79757781D01*
X130466520Y-79680073D01*
X129936801Y-79708852D01*
X129581071Y-79856200D01*
X129519417Y-80091812D01*
X130274000Y-80846395D01*
X130288143Y-80832253D01*
X130467748Y-81011858D01*
X130453605Y-81026000D01*
X131208188Y-81780583D01*
X131443800Y-81718929D01*
X131619927Y-81218520D01*
X131591148Y-80688801D01*
X131443800Y-80333071D01*
X131208190Y-80271418D01*
X131246422Y-80233186D01*
X131699250Y-80421217D01*
X132345913Y-80421781D01*
X132629689Y-80304527D01*
X132440732Y-80759587D01*
X132440269Y-81290086D01*
X132642854Y-81780380D01*
X133017647Y-82155827D01*
X133507587Y-82359268D01*
X134038086Y-82359731D01*
X134528380Y-82157146D01*
X134903827Y-81782353D01*
X135107268Y-81292413D01*
X135107731Y-80761914D01*
X134905146Y-80271620D01*
X134530353Y-79896173D01*
X134040413Y-79692732D01*
X133509914Y-79692269D01*
X133368406Y-79750739D01*
X133401228Y-79717974D01*
X133649217Y-79120750D01*
X133649781Y-78474087D01*
X133528267Y-78180000D01*
X156394070Y-78180000D01*
X156672979Y-78235478D01*
X156850145Y-78353856D01*
X156968521Y-78531019D01*
X157024000Y-78809931D01*
X157024000Y-103816069D01*
X156968521Y-104094981D01*
X156850145Y-104272144D01*
X156672979Y-104390522D01*
X156394070Y-104446000D01*
X121481931Y-104446000D01*
X121203019Y-104390521D01*
X121025856Y-104272145D01*
X120907478Y-104094979D01*
X120852000Y-103816070D01*
X120852000Y-100502188D01*
X122519417Y-100502188D01*
X122581071Y-100737800D01*
X123081480Y-100913927D01*
X123611199Y-100885148D01*
X123966929Y-100737800D01*
X124028583Y-100502188D01*
X123274000Y-99747605D01*
X122519417Y-100502188D01*
X120852000Y-100502188D01*
X120852000Y-99375480D01*
X121928073Y-99375480D01*
X121956852Y-99905199D01*
X122104200Y-100260929D01*
X122339812Y-100322583D01*
X123094395Y-99568000D01*
X123453605Y-99568000D01*
X124208188Y-100322583D01*
X124443800Y-100260929D01*
X124594738Y-99832086D01*
X125440269Y-99832086D01*
X125642854Y-100322380D01*
X126017647Y-100697827D01*
X126507587Y-100901268D01*
X127038086Y-100901731D01*
X127528380Y-100699146D01*
X127903827Y-100324353D01*
X128107268Y-99834413D01*
X128107270Y-99832086D01*
X128940269Y-99832086D01*
X129142854Y-100322380D01*
X129517647Y-100697827D01*
X130007587Y-100901268D01*
X130350331Y-100901567D01*
X130750283Y-101301519D01*
X131038695Y-101494230D01*
X131378901Y-101561901D01*
X139611099Y-101561901D01*
X139951305Y-101494230D01*
X140239717Y-101301519D01*
X140617624Y-100923612D01*
X140739659Y-100873188D01*
X141004259Y-100609049D01*
X141147637Y-100263758D01*
X141147963Y-99889882D01*
X141005188Y-99544341D01*
X140741049Y-99279741D01*
X140395758Y-99136363D01*
X140021882Y-99136037D01*
X139676341Y-99278812D01*
X139411741Y-99542951D01*
X139360563Y-99666201D01*
X139242863Y-99783901D01*
X135107312Y-99783901D01*
X135107731Y-99303914D01*
X134905146Y-98813620D01*
X134530353Y-98438173D01*
X134040413Y-98234732D01*
X133509914Y-98234269D01*
X133368406Y-98292739D01*
X133401228Y-98259974D01*
X133649217Y-97662750D01*
X133649548Y-97282481D01*
X154162777Y-97282481D01*
X154357995Y-97754943D01*
X154719155Y-98116735D01*
X155191276Y-98312777D01*
X155702481Y-98313223D01*
X156174943Y-98118005D01*
X156536735Y-97756845D01*
X156732777Y-97284724D01*
X156733223Y-96773519D01*
X156538005Y-96301057D01*
X156176845Y-95939265D01*
X155740800Y-95758203D01*
X155777428Y-95756083D01*
X156111729Y-95617611D01*
X156167410Y-95387016D01*
X155448000Y-94667605D01*
X154728590Y-95387016D01*
X154784271Y-95617611D01*
X155170860Y-95752139D01*
X154721057Y-95937995D01*
X154359265Y-96299155D01*
X154163223Y-96771276D01*
X154162777Y-97282481D01*
X133649548Y-97282481D01*
X133649781Y-97016087D01*
X133410999Y-96438188D01*
X141485417Y-96438188D01*
X141547071Y-96673800D01*
X142047480Y-96849927D01*
X142577199Y-96821148D01*
X142932929Y-96673800D01*
X142994583Y-96438188D01*
X142240000Y-95683605D01*
X141485417Y-96438188D01*
X133410999Y-96438188D01*
X133402835Y-96418431D01*
X132945974Y-95960772D01*
X132348750Y-95712783D01*
X131702087Y-95712219D01*
X131104431Y-95959165D01*
X130646772Y-96416026D01*
X130398783Y-97013250D01*
X130398219Y-97659913D01*
X130645165Y-98257569D01*
X130680390Y-98292856D01*
X130540413Y-98234732D01*
X130009914Y-98234269D01*
X129519620Y-98436854D01*
X129144173Y-98811647D01*
X128940732Y-99301587D01*
X128940269Y-99832086D01*
X128107270Y-99832086D01*
X128107731Y-99303914D01*
X127905146Y-98813620D01*
X127530353Y-98438173D01*
X127040413Y-98234732D01*
X126509914Y-98234269D01*
X126019620Y-98436854D01*
X125644173Y-98811647D01*
X125440732Y-99301587D01*
X125440269Y-99832086D01*
X124594738Y-99832086D01*
X124619927Y-99760520D01*
X124591148Y-99230801D01*
X124443800Y-98875071D01*
X124208188Y-98813417D01*
X123453605Y-99568000D01*
X123094395Y-99568000D01*
X122339812Y-98813417D01*
X122104200Y-98875071D01*
X121928073Y-99375480D01*
X120852000Y-99375480D01*
X120852000Y-98633812D01*
X122519417Y-98633812D01*
X123274000Y-99388395D01*
X124028583Y-98633812D01*
X123966929Y-98398200D01*
X123466520Y-98222073D01*
X122936801Y-98250852D01*
X122581071Y-98398200D01*
X122519417Y-98633812D01*
X120852000Y-98633812D01*
X120852000Y-95311480D01*
X140894073Y-95311480D01*
X140922852Y-95841199D01*
X141070200Y-96196929D01*
X141305812Y-96258583D01*
X142060395Y-95504000D01*
X141305812Y-94749417D01*
X141070200Y-94811071D01*
X140894073Y-95311480D01*
X120852000Y-95311480D01*
X120852000Y-94569812D01*
X141485417Y-94569812D01*
X142240000Y-95324395D01*
X142254143Y-95310253D01*
X142433748Y-95489858D01*
X142419605Y-95504000D01*
X143174188Y-96258583D01*
X143409800Y-96196929D01*
X143585927Y-95696520D01*
X143557148Y-95166801D01*
X143409800Y-94811071D01*
X143174190Y-94749418D01*
X143212422Y-94711186D01*
X143665250Y-94899217D01*
X144311913Y-94899781D01*
X144595689Y-94782527D01*
X144406732Y-95237587D01*
X144406269Y-95768086D01*
X144608854Y-96258380D01*
X144983647Y-96633827D01*
X145473587Y-96837268D01*
X146004086Y-96837731D01*
X146494380Y-96635146D01*
X146869827Y-96260353D01*
X147073268Y-95770413D01*
X147073731Y-95239914D01*
X146871146Y-94749620D01*
X146496353Y-94374173D01*
X146006413Y-94170732D01*
X145475914Y-94170269D01*
X145334406Y-94228739D01*
X145367228Y-94195974D01*
X145615217Y-93598750D01*
X145615781Y-92952087D01*
X145368835Y-92354431D01*
X144911974Y-91896772D01*
X144314750Y-91648783D01*
X143668087Y-91648219D01*
X143070431Y-91895165D01*
X142612772Y-92352026D01*
X142364783Y-92949250D01*
X142364219Y-93595913D01*
X142611165Y-94193569D01*
X142653304Y-94235781D01*
X142432520Y-94158073D01*
X141902801Y-94186852D01*
X141547071Y-94334200D01*
X141485417Y-94569812D01*
X120852000Y-94569812D01*
X120852000Y-90561086D01*
X121940269Y-90561086D01*
X122142854Y-91051380D01*
X122517647Y-91426827D01*
X123007587Y-91630268D01*
X123538086Y-91630731D01*
X124028380Y-91428146D01*
X124403827Y-91053353D01*
X124607268Y-90563413D01*
X124607270Y-90561086D01*
X125440269Y-90561086D01*
X125642854Y-91051380D01*
X126017647Y-91426827D01*
X126507587Y-91630268D01*
X127038086Y-91630731D01*
X127528380Y-91428146D01*
X127725681Y-91231188D01*
X129519417Y-91231188D01*
X129581071Y-91466800D01*
X130081480Y-91642927D01*
X130611199Y-91614148D01*
X130966929Y-91466800D01*
X131028583Y-91231188D01*
X130274000Y-90476605D01*
X129519417Y-91231188D01*
X127725681Y-91231188D01*
X127903827Y-91053353D01*
X128107268Y-90563413D01*
X128107668Y-90104480D01*
X128928073Y-90104480D01*
X128956852Y-90634199D01*
X129104200Y-90989929D01*
X129339812Y-91051583D01*
X130094395Y-90297000D01*
X129339812Y-89542417D01*
X129104200Y-89604071D01*
X128928073Y-90104480D01*
X128107668Y-90104480D01*
X128107731Y-90032914D01*
X127905146Y-89542620D01*
X127725652Y-89362812D01*
X129519417Y-89362812D01*
X130274000Y-90117395D01*
X130288143Y-90103253D01*
X130467748Y-90282858D01*
X130453605Y-90297000D01*
X131208188Y-91051583D01*
X131443800Y-90989929D01*
X131619927Y-90489520D01*
X131591148Y-89959801D01*
X131443800Y-89604071D01*
X131208190Y-89542418D01*
X131246422Y-89504186D01*
X131699250Y-89692217D01*
X132345913Y-89692781D01*
X132629689Y-89575527D01*
X132440732Y-90030587D01*
X132440322Y-90500071D01*
X132401882Y-90500037D01*
X132056341Y-90642812D01*
X131791741Y-90906951D01*
X131648363Y-91252242D01*
X131648037Y-91626118D01*
X131790812Y-91971659D01*
X131893922Y-92074948D01*
X131791741Y-92176951D01*
X131648363Y-92522242D01*
X131648037Y-92896118D01*
X131790812Y-93241659D01*
X132054951Y-93506259D01*
X132400242Y-93649637D01*
X132774118Y-93649963D01*
X132897458Y-93599000D01*
X134818295Y-93599000D01*
X134940242Y-93649637D01*
X135314118Y-93649963D01*
X135659659Y-93507188D01*
X135924259Y-93243049D01*
X136067637Y-92897758D01*
X136067963Y-92523882D01*
X135925188Y-92178341D01*
X135822078Y-92075052D01*
X135924259Y-91973049D01*
X136067637Y-91627758D01*
X136067963Y-91253882D01*
X136011867Y-91118118D01*
X145618037Y-91118118D01*
X145760812Y-91463659D01*
X146024951Y-91728259D01*
X146370242Y-91871637D01*
X146744118Y-91871963D01*
X147089659Y-91729188D01*
X147354259Y-91465049D01*
X147405437Y-91341799D01*
X148237624Y-90509612D01*
X148359659Y-90459188D01*
X148624259Y-90195049D01*
X148767637Y-89849758D01*
X148767963Y-89475882D01*
X148625188Y-89130341D01*
X148361049Y-88865741D01*
X148015758Y-88722363D01*
X147641882Y-88722037D01*
X147296341Y-88864812D01*
X147031741Y-89128951D01*
X146980563Y-89252201D01*
X146148376Y-90084388D01*
X146026341Y-90134812D01*
X145761741Y-90398951D01*
X145618363Y-90744242D01*
X145618037Y-91118118D01*
X136011867Y-91118118D01*
X135925188Y-90908341D01*
X135661049Y-90643741D01*
X135315758Y-90500363D01*
X135107323Y-90500181D01*
X135107731Y-90032914D01*
X134905146Y-89542620D01*
X134530353Y-89167173D01*
X134335152Y-89086118D01*
X143840037Y-89086118D01*
X143982812Y-89431659D01*
X144246951Y-89696259D01*
X144592242Y-89839637D01*
X144966118Y-89839963D01*
X145311659Y-89697188D01*
X145576259Y-89433049D01*
X145627437Y-89309799D01*
X146967624Y-87969612D01*
X147089659Y-87919188D01*
X147354259Y-87655049D01*
X147497637Y-87309758D01*
X147497963Y-86935882D01*
X147355188Y-86590341D01*
X147091049Y-86325741D01*
X146745758Y-86182363D01*
X146371882Y-86182037D01*
X146026341Y-86324812D01*
X145761741Y-86588951D01*
X145710563Y-86712201D01*
X144370376Y-88052388D01*
X144248341Y-88102812D01*
X143983741Y-88366951D01*
X143840363Y-88712242D01*
X143840037Y-89086118D01*
X134335152Y-89086118D01*
X134040413Y-88963732D01*
X133509914Y-88963269D01*
X133368406Y-89021739D01*
X133401228Y-88988974D01*
X133649217Y-88391750D01*
X133649781Y-87745087D01*
X133402835Y-87147431D01*
X132945974Y-86689772D01*
X132348750Y-86441783D01*
X131702087Y-86441219D01*
X131104431Y-86688165D01*
X130646772Y-87145026D01*
X130398783Y-87742250D01*
X130398219Y-88388913D01*
X130645165Y-88986569D01*
X130687304Y-89028781D01*
X130466520Y-88951073D01*
X129936801Y-88979852D01*
X129581071Y-89127200D01*
X129519417Y-89362812D01*
X127725652Y-89362812D01*
X127530353Y-89167173D01*
X127040413Y-88963732D01*
X126509914Y-88963269D01*
X126019620Y-89165854D01*
X125644173Y-89540647D01*
X125440732Y-90030587D01*
X125440269Y-90561086D01*
X124607270Y-90561086D01*
X124607731Y-90032914D01*
X124405146Y-89542620D01*
X124030353Y-89167173D01*
X123540413Y-88963732D01*
X123009914Y-88963269D01*
X122519620Y-89165854D01*
X122144173Y-89540647D01*
X121940732Y-90030587D01*
X121940269Y-90561086D01*
X120852000Y-90561086D01*
X120852000Y-85852481D01*
X151622777Y-85852481D01*
X151817995Y-86324943D01*
X152179155Y-86686735D01*
X152616182Y-86868205D01*
X152181057Y-87047995D01*
X151819265Y-87409155D01*
X151623223Y-87881276D01*
X151622777Y-88392481D01*
X151817995Y-88864943D01*
X152179155Y-89226735D01*
X152616182Y-89408205D01*
X152181057Y-89587995D01*
X151819265Y-89949155D01*
X151623223Y-90421276D01*
X151622777Y-90932481D01*
X151817995Y-91404943D01*
X152179155Y-91766735D01*
X152616182Y-91948205D01*
X152181057Y-92127995D01*
X151819265Y-92489155D01*
X151623223Y-92961276D01*
X151622777Y-93472481D01*
X151817995Y-93944943D01*
X152179155Y-94306735D01*
X152616182Y-94488205D01*
X152181057Y-94667995D01*
X151819265Y-95029155D01*
X151623223Y-95501276D01*
X151622777Y-96012481D01*
X151817995Y-96484943D01*
X152179155Y-96846735D01*
X152651276Y-97042777D01*
X153162481Y-97043223D01*
X153634943Y-96848005D01*
X153996735Y-96486845D01*
X154192777Y-96014724D01*
X154193223Y-95503519D01*
X153998005Y-95031057D01*
X153636845Y-94669265D01*
X153199818Y-94487795D01*
X153634943Y-94308005D01*
X153635871Y-94307078D01*
X154150378Y-94307078D01*
X154179917Y-94817428D01*
X154318389Y-95151729D01*
X154548984Y-95207410D01*
X155268395Y-94488000D01*
X155627605Y-94488000D01*
X156347016Y-95207410D01*
X156577611Y-95151729D01*
X156745622Y-94668922D01*
X156716083Y-94158572D01*
X156577611Y-93824271D01*
X156347016Y-93768590D01*
X155627605Y-94488000D01*
X155268395Y-94488000D01*
X154548984Y-93768590D01*
X154318389Y-93824271D01*
X154150378Y-94307078D01*
X153635871Y-94307078D01*
X153996735Y-93946845D01*
X154192777Y-93474724D01*
X154193223Y-92963519D01*
X154145085Y-92847016D01*
X154728590Y-92847016D01*
X154784271Y-93077611D01*
X155182566Y-93216213D01*
X155118572Y-93219917D01*
X154784271Y-93358389D01*
X154728590Y-93588984D01*
X155448000Y-94308395D01*
X156167410Y-93588984D01*
X156111729Y-93358389D01*
X155713434Y-93219787D01*
X155777428Y-93216083D01*
X156111729Y-93077611D01*
X156167410Y-92847016D01*
X155448000Y-92127605D01*
X154728590Y-92847016D01*
X154145085Y-92847016D01*
X153998005Y-92491057D01*
X153636845Y-92129265D01*
X153199818Y-91947795D01*
X153634943Y-91768005D01*
X153635871Y-91767078D01*
X154150378Y-91767078D01*
X154179917Y-92277428D01*
X154318389Y-92611729D01*
X154548984Y-92667410D01*
X155268395Y-91948000D01*
X155627605Y-91948000D01*
X156347016Y-92667410D01*
X156577611Y-92611729D01*
X156745622Y-92128922D01*
X156716083Y-91618572D01*
X156577611Y-91284271D01*
X156347016Y-91228590D01*
X155627605Y-91948000D01*
X155268395Y-91948000D01*
X154548984Y-91228590D01*
X154318389Y-91284271D01*
X154150378Y-91767078D01*
X153635871Y-91767078D01*
X153996735Y-91406845D01*
X154192777Y-90934724D01*
X154193223Y-90423519D01*
X154145085Y-90307016D01*
X154728590Y-90307016D01*
X154784271Y-90537611D01*
X155182566Y-90676213D01*
X155118572Y-90679917D01*
X154784271Y-90818389D01*
X154728590Y-91048984D01*
X155448000Y-91768395D01*
X156167410Y-91048984D01*
X156111729Y-90818389D01*
X155713434Y-90679787D01*
X155777428Y-90676083D01*
X156111729Y-90537611D01*
X156167410Y-90307016D01*
X155448000Y-89587605D01*
X154728590Y-90307016D01*
X154145085Y-90307016D01*
X153998005Y-89951057D01*
X153636845Y-89589265D01*
X153199818Y-89407795D01*
X153634943Y-89228005D01*
X153635871Y-89227078D01*
X154150378Y-89227078D01*
X154179917Y-89737428D01*
X154318389Y-90071729D01*
X154548984Y-90127410D01*
X155268395Y-89408000D01*
X155627605Y-89408000D01*
X156347016Y-90127410D01*
X156577611Y-90071729D01*
X156745622Y-89588922D01*
X156716083Y-89078572D01*
X156577611Y-88744271D01*
X156347016Y-88688590D01*
X155627605Y-89408000D01*
X155268395Y-89408000D01*
X154548984Y-88688590D01*
X154318389Y-88744271D01*
X154150378Y-89227078D01*
X153635871Y-89227078D01*
X153996735Y-88866845D01*
X154192777Y-88394724D01*
X154193223Y-87883519D01*
X153998005Y-87411057D01*
X153709934Y-87122481D01*
X154162777Y-87122481D01*
X154357995Y-87594943D01*
X154719155Y-87956735D01*
X155155200Y-88137797D01*
X155118572Y-88139917D01*
X154784271Y-88278389D01*
X154728590Y-88508984D01*
X155448000Y-89228395D01*
X156167410Y-88508984D01*
X156111729Y-88278389D01*
X155725140Y-88143861D01*
X156174943Y-87958005D01*
X156536735Y-87596845D01*
X156732777Y-87124724D01*
X156733223Y-86613519D01*
X156538005Y-86141057D01*
X156176845Y-85779265D01*
X155704724Y-85583223D01*
X155193519Y-85582777D01*
X154721057Y-85777995D01*
X154359265Y-86139155D01*
X154163223Y-86611276D01*
X154162777Y-87122481D01*
X153709934Y-87122481D01*
X153636845Y-87049265D01*
X153199818Y-86867795D01*
X153634943Y-86688005D01*
X153996735Y-86326845D01*
X154192777Y-85854724D01*
X154193223Y-85343519D01*
X153998005Y-84871057D01*
X153636845Y-84509265D01*
X153164724Y-84313223D01*
X152653519Y-84312777D01*
X152181057Y-84507995D01*
X151819265Y-84869155D01*
X151623223Y-85341276D01*
X151622777Y-85852481D01*
X120852000Y-85852481D01*
X120852000Y-85262188D01*
X141485417Y-85262188D01*
X141547071Y-85497800D01*
X142047480Y-85673927D01*
X142577199Y-85645148D01*
X142932929Y-85497800D01*
X142994583Y-85262188D01*
X142240000Y-84507605D01*
X141485417Y-85262188D01*
X120852000Y-85262188D01*
X120852000Y-84135480D01*
X140894073Y-84135480D01*
X140922852Y-84665199D01*
X141070200Y-85020929D01*
X141305812Y-85082583D01*
X142060395Y-84328000D01*
X141305812Y-83573417D01*
X141070200Y-83635071D01*
X140894073Y-84135480D01*
X120852000Y-84135480D01*
X120852000Y-83393812D01*
X141485417Y-83393812D01*
X142240000Y-84148395D01*
X142254143Y-84134253D01*
X142433748Y-84313858D01*
X142419605Y-84328000D01*
X143174188Y-85082583D01*
X143409800Y-85020929D01*
X143585927Y-84520520D01*
X143557148Y-83990801D01*
X143409800Y-83635071D01*
X143174190Y-83573418D01*
X143212422Y-83535186D01*
X143665250Y-83723217D01*
X144311913Y-83723781D01*
X144595689Y-83606527D01*
X144406732Y-84061587D01*
X144406269Y-84592086D01*
X144608854Y-85082380D01*
X144983647Y-85457827D01*
X145473587Y-85661268D01*
X146004086Y-85661731D01*
X146494380Y-85459146D01*
X146869827Y-85084353D01*
X147073268Y-84594413D01*
X147073731Y-84063914D01*
X146871146Y-83573620D01*
X146496353Y-83198173D01*
X146006413Y-82994732D01*
X145475914Y-82994269D01*
X145334406Y-83052739D01*
X145367228Y-83019974D01*
X145615217Y-82422750D01*
X145615781Y-81776087D01*
X145368835Y-81178431D01*
X144911974Y-80720772D01*
X144314750Y-80472783D01*
X143668087Y-80472219D01*
X143070431Y-80719165D01*
X142612772Y-81176026D01*
X142364783Y-81773250D01*
X142364219Y-82419913D01*
X142611165Y-83017569D01*
X142653304Y-83059781D01*
X142432520Y-82982073D01*
X141902801Y-83010852D01*
X141547071Y-83158200D01*
X141485417Y-83393812D01*
X120852000Y-83393812D01*
X120852000Y-81290086D01*
X121940269Y-81290086D01*
X122142854Y-81780380D01*
X122517647Y-82155827D01*
X123007587Y-82359268D01*
X123538086Y-82359731D01*
X124028380Y-82157146D01*
X124403827Y-81782353D01*
X124607268Y-81292413D01*
X124607270Y-81290086D01*
X125440269Y-81290086D01*
X125642854Y-81780380D01*
X126017647Y-82155827D01*
X126507587Y-82359268D01*
X127038086Y-82359731D01*
X127528380Y-82157146D01*
X127725681Y-81960188D01*
X129519417Y-81960188D01*
X129581071Y-82195800D01*
X130081480Y-82371927D01*
X130611199Y-82343148D01*
X130966929Y-82195800D01*
X131028583Y-81960188D01*
X130274000Y-81205605D01*
X129519417Y-81960188D01*
X127725681Y-81960188D01*
X127903827Y-81782353D01*
X128107268Y-81292413D01*
X128107668Y-80833480D01*
X128928073Y-80833480D01*
X128956852Y-81363199D01*
X129104200Y-81718929D01*
X129339812Y-81780583D01*
X130094395Y-81026000D01*
X129339812Y-80271417D01*
X129104200Y-80333071D01*
X128928073Y-80833480D01*
X128107668Y-80833480D01*
X128107731Y-80761914D01*
X127905146Y-80271620D01*
X127530353Y-79896173D01*
X127040413Y-79692732D01*
X126509914Y-79692269D01*
X126019620Y-79894854D01*
X125644173Y-80269647D01*
X125440732Y-80759587D01*
X125440269Y-81290086D01*
X124607270Y-81290086D01*
X124607731Y-80761914D01*
X124405146Y-80271620D01*
X124030353Y-79896173D01*
X123540413Y-79692732D01*
X123009914Y-79692269D01*
X122519620Y-79894854D01*
X122144173Y-80269647D01*
X121940732Y-80759587D01*
X121940269Y-81290086D01*
X120852000Y-81290086D01*
X120852000Y-78809930D01*
X120907478Y-78531021D01*
X121025856Y-78353855D01*
X121203019Y-78235479D01*
X121481931Y-78180000D01*
X130519721Y-78180000D01*
X130398783Y-78471250D01*
X130398783Y-78471250D01*
G37*
X130398783Y-78471250D02*
X130398219Y-79117913D01*
X130645165Y-79715569D01*
X130687304Y-79757781D01*
X130466520Y-79680073D01*
X129936801Y-79708852D01*
X129581071Y-79856200D01*
X129519417Y-80091812D01*
X130274000Y-80846395D01*
X130288143Y-80832253D01*
X130467748Y-81011858D01*
X130453605Y-81026000D01*
X131208188Y-81780583D01*
X131443800Y-81718929D01*
X131619927Y-81218520D01*
X131591148Y-80688801D01*
X131443800Y-80333071D01*
X131208190Y-80271418D01*
X131246422Y-80233186D01*
X131699250Y-80421217D01*
X132345913Y-80421781D01*
X132629689Y-80304527D01*
X132440732Y-80759587D01*
X132440269Y-81290086D01*
X132642854Y-81780380D01*
X133017647Y-82155827D01*
X133507587Y-82359268D01*
X134038086Y-82359731D01*
X134528380Y-82157146D01*
X134903827Y-81782353D01*
X135107268Y-81292413D01*
X135107731Y-80761914D01*
X134905146Y-80271620D01*
X134530353Y-79896173D01*
X134040413Y-79692732D01*
X133509914Y-79692269D01*
X133368406Y-79750739D01*
X133401228Y-79717974D01*
X133649217Y-79120750D01*
X133649781Y-78474087D01*
X133528267Y-78180000D01*
X156394070Y-78180000D01*
X156672979Y-78235478D01*
X156850145Y-78353856D01*
X156968521Y-78531019D01*
X157024000Y-78809931D01*
X157024000Y-103816069D01*
X156968521Y-104094981D01*
X156850145Y-104272144D01*
X156672979Y-104390522D01*
X156394070Y-104446000D01*
X121481931Y-104446000D01*
X121203019Y-104390521D01*
X121025856Y-104272145D01*
X120907478Y-104094979D01*
X120852000Y-103816070D01*
X120852000Y-100502188D01*
X122519417Y-100502188D01*
X122581071Y-100737800D01*
X123081480Y-100913927D01*
X123611199Y-100885148D01*
X123966929Y-100737800D01*
X124028583Y-100502188D01*
X123274000Y-99747605D01*
X122519417Y-100502188D01*
X120852000Y-100502188D01*
X120852000Y-99375480D01*
X121928073Y-99375480D01*
X121956852Y-99905199D01*
X122104200Y-100260929D01*
X122339812Y-100322583D01*
X123094395Y-99568000D01*
X123453605Y-99568000D01*
X124208188Y-100322583D01*
X124443800Y-100260929D01*
X124594738Y-99832086D01*
X125440269Y-99832086D01*
X125642854Y-100322380D01*
X126017647Y-100697827D01*
X126507587Y-100901268D01*
X127038086Y-100901731D01*
X127528380Y-100699146D01*
X127903827Y-100324353D01*
X128107268Y-99834413D01*
X128107270Y-99832086D01*
X128940269Y-99832086D01*
X129142854Y-100322380D01*
X129517647Y-100697827D01*
X130007587Y-100901268D01*
X130350331Y-100901567D01*
X130750283Y-101301519D01*
X131038695Y-101494230D01*
X131378901Y-101561901D01*
X139611099Y-101561901D01*
X139951305Y-101494230D01*
X140239717Y-101301519D01*
X140617624Y-100923612D01*
X140739659Y-100873188D01*
X141004259Y-100609049D01*
X141147637Y-100263758D01*
X141147963Y-99889882D01*
X141005188Y-99544341D01*
X140741049Y-99279741D01*
X140395758Y-99136363D01*
X140021882Y-99136037D01*
X139676341Y-99278812D01*
X139411741Y-99542951D01*
X139360563Y-99666201D01*
X139242863Y-99783901D01*
X135107312Y-99783901D01*
X135107731Y-99303914D01*
X134905146Y-98813620D01*
X134530353Y-98438173D01*
X134040413Y-98234732D01*
X133509914Y-98234269D01*
X133368406Y-98292739D01*
X133401228Y-98259974D01*
X133649217Y-97662750D01*
X133649548Y-97282481D01*
X154162777Y-97282481D01*
X154357995Y-97754943D01*
X154719155Y-98116735D01*
X155191276Y-98312777D01*
X155702481Y-98313223D01*
X156174943Y-98118005D01*
X156536735Y-97756845D01*
X156732777Y-97284724D01*
X156733223Y-96773519D01*
X156538005Y-96301057D01*
X156176845Y-95939265D01*
X155740800Y-95758203D01*
X155777428Y-95756083D01*
X156111729Y-95617611D01*
X156167410Y-95387016D01*
X155448000Y-94667605D01*
X154728590Y-95387016D01*
X154784271Y-95617611D01*
X155170860Y-95752139D01*
X154721057Y-95937995D01*
X154359265Y-96299155D01*
X154163223Y-96771276D01*
X154162777Y-97282481D01*
X133649548Y-97282481D01*
X133649781Y-97016087D01*
X133410999Y-96438188D01*
X141485417Y-96438188D01*
X141547071Y-96673800D01*
X142047480Y-96849927D01*
X142577199Y-96821148D01*
X142932929Y-96673800D01*
X142994583Y-96438188D01*
X142240000Y-95683605D01*
X141485417Y-96438188D01*
X133410999Y-96438188D01*
X133402835Y-96418431D01*
X132945974Y-95960772D01*
X132348750Y-95712783D01*
X131702087Y-95712219D01*
X131104431Y-95959165D01*
X130646772Y-96416026D01*
X130398783Y-97013250D01*
X130398219Y-97659913D01*
X130645165Y-98257569D01*
X130680390Y-98292856D01*
X130540413Y-98234732D01*
X130009914Y-98234269D01*
X129519620Y-98436854D01*
X129144173Y-98811647D01*
X128940732Y-99301587D01*
X128940269Y-99832086D01*
X128107270Y-99832086D01*
X128107731Y-99303914D01*
X127905146Y-98813620D01*
X127530353Y-98438173D01*
X127040413Y-98234732D01*
X126509914Y-98234269D01*
X126019620Y-98436854D01*
X125644173Y-98811647D01*
X125440732Y-99301587D01*
X125440269Y-99832086D01*
X124594738Y-99832086D01*
X124619927Y-99760520D01*
X124591148Y-99230801D01*
X124443800Y-98875071D01*
X124208188Y-98813417D01*
X123453605Y-99568000D01*
X123094395Y-99568000D01*
X122339812Y-98813417D01*
X122104200Y-98875071D01*
X121928073Y-99375480D01*
X120852000Y-99375480D01*
X120852000Y-98633812D01*
X122519417Y-98633812D01*
X123274000Y-99388395D01*
X124028583Y-98633812D01*
X123966929Y-98398200D01*
X123466520Y-98222073D01*
X122936801Y-98250852D01*
X122581071Y-98398200D01*
X122519417Y-98633812D01*
X120852000Y-98633812D01*
X120852000Y-95311480D01*
X140894073Y-95311480D01*
X140922852Y-95841199D01*
X141070200Y-96196929D01*
X141305812Y-96258583D01*
X142060395Y-95504000D01*
X141305812Y-94749417D01*
X141070200Y-94811071D01*
X140894073Y-95311480D01*
X120852000Y-95311480D01*
X120852000Y-94569812D01*
X141485417Y-94569812D01*
X142240000Y-95324395D01*
X142254143Y-95310253D01*
X142433748Y-95489858D01*
X142419605Y-95504000D01*
X143174188Y-96258583D01*
X143409800Y-96196929D01*
X143585927Y-95696520D01*
X143557148Y-95166801D01*
X143409800Y-94811071D01*
X143174190Y-94749418D01*
X143212422Y-94711186D01*
X143665250Y-94899217D01*
X144311913Y-94899781D01*
X144595689Y-94782527D01*
X144406732Y-95237587D01*
X144406269Y-95768086D01*
X144608854Y-96258380D01*
X144983647Y-96633827D01*
X145473587Y-96837268D01*
X146004086Y-96837731D01*
X146494380Y-96635146D01*
X146869827Y-96260353D01*
X147073268Y-95770413D01*
X147073731Y-95239914D01*
X146871146Y-94749620D01*
X146496353Y-94374173D01*
X146006413Y-94170732D01*
X145475914Y-94170269D01*
X145334406Y-94228739D01*
X145367228Y-94195974D01*
X145615217Y-93598750D01*
X145615781Y-92952087D01*
X145368835Y-92354431D01*
X144911974Y-91896772D01*
X144314750Y-91648783D01*
X143668087Y-91648219D01*
X143070431Y-91895165D01*
X142612772Y-92352026D01*
X142364783Y-92949250D01*
X142364219Y-93595913D01*
X142611165Y-94193569D01*
X142653304Y-94235781D01*
X142432520Y-94158073D01*
X141902801Y-94186852D01*
X141547071Y-94334200D01*
X141485417Y-94569812D01*
X120852000Y-94569812D01*
X120852000Y-90561086D01*
X121940269Y-90561086D01*
X122142854Y-91051380D01*
X122517647Y-91426827D01*
X123007587Y-91630268D01*
X123538086Y-91630731D01*
X124028380Y-91428146D01*
X124403827Y-91053353D01*
X124607268Y-90563413D01*
X124607270Y-90561086D01*
X125440269Y-90561086D01*
X125642854Y-91051380D01*
X126017647Y-91426827D01*
X126507587Y-91630268D01*
X127038086Y-91630731D01*
X127528380Y-91428146D01*
X127725681Y-91231188D01*
X129519417Y-91231188D01*
X129581071Y-91466800D01*
X130081480Y-91642927D01*
X130611199Y-91614148D01*
X130966929Y-91466800D01*
X131028583Y-91231188D01*
X130274000Y-90476605D01*
X129519417Y-91231188D01*
X127725681Y-91231188D01*
X127903827Y-91053353D01*
X128107268Y-90563413D01*
X128107668Y-90104480D01*
X128928073Y-90104480D01*
X128956852Y-90634199D01*
X129104200Y-90989929D01*
X129339812Y-91051583D01*
X130094395Y-90297000D01*
X129339812Y-89542417D01*
X129104200Y-89604071D01*
X128928073Y-90104480D01*
X128107668Y-90104480D01*
X128107731Y-90032914D01*
X127905146Y-89542620D01*
X127725652Y-89362812D01*
X129519417Y-89362812D01*
X130274000Y-90117395D01*
X130288143Y-90103253D01*
X130467748Y-90282858D01*
X130453605Y-90297000D01*
X131208188Y-91051583D01*
X131443800Y-90989929D01*
X131619927Y-90489520D01*
X131591148Y-89959801D01*
X131443800Y-89604071D01*
X131208190Y-89542418D01*
X131246422Y-89504186D01*
X131699250Y-89692217D01*
X132345913Y-89692781D01*
X132629689Y-89575527D01*
X132440732Y-90030587D01*
X132440322Y-90500071D01*
X132401882Y-90500037D01*
X132056341Y-90642812D01*
X131791741Y-90906951D01*
X131648363Y-91252242D01*
X131648037Y-91626118D01*
X131790812Y-91971659D01*
X131893922Y-92074948D01*
X131791741Y-92176951D01*
X131648363Y-92522242D01*
X131648037Y-92896118D01*
X131790812Y-93241659D01*
X132054951Y-93506259D01*
X132400242Y-93649637D01*
X132774118Y-93649963D01*
X132897458Y-93599000D01*
X134818295Y-93599000D01*
X134940242Y-93649637D01*
X135314118Y-93649963D01*
X135659659Y-93507188D01*
X135924259Y-93243049D01*
X136067637Y-92897758D01*
X136067963Y-92523882D01*
X135925188Y-92178341D01*
X135822078Y-92075052D01*
X135924259Y-91973049D01*
X136067637Y-91627758D01*
X136067963Y-91253882D01*
X136011867Y-91118118D01*
X145618037Y-91118118D01*
X145760812Y-91463659D01*
X146024951Y-91728259D01*
X146370242Y-91871637D01*
X146744118Y-91871963D01*
X147089659Y-91729188D01*
X147354259Y-91465049D01*
X147405437Y-91341799D01*
X148237624Y-90509612D01*
X148359659Y-90459188D01*
X148624259Y-90195049D01*
X148767637Y-89849758D01*
X148767963Y-89475882D01*
X148625188Y-89130341D01*
X148361049Y-88865741D01*
X148015758Y-88722363D01*
X147641882Y-88722037D01*
X147296341Y-88864812D01*
X147031741Y-89128951D01*
X146980563Y-89252201D01*
X146148376Y-90084388D01*
X146026341Y-90134812D01*
X145761741Y-90398951D01*
X145618363Y-90744242D01*
X145618037Y-91118118D01*
X136011867Y-91118118D01*
X135925188Y-90908341D01*
X135661049Y-90643741D01*
X135315758Y-90500363D01*
X135107323Y-90500181D01*
X135107731Y-90032914D01*
X134905146Y-89542620D01*
X134530353Y-89167173D01*
X134335152Y-89086118D01*
X143840037Y-89086118D01*
X143982812Y-89431659D01*
X144246951Y-89696259D01*
X144592242Y-89839637D01*
X144966118Y-89839963D01*
X145311659Y-89697188D01*
X145576259Y-89433049D01*
X145627437Y-89309799D01*
X146967624Y-87969612D01*
X147089659Y-87919188D01*
X147354259Y-87655049D01*
X147497637Y-87309758D01*
X147497963Y-86935882D01*
X147355188Y-86590341D01*
X147091049Y-86325741D01*
X146745758Y-86182363D01*
X146371882Y-86182037D01*
X146026341Y-86324812D01*
X145761741Y-86588951D01*
X145710563Y-86712201D01*
X144370376Y-88052388D01*
X144248341Y-88102812D01*
X143983741Y-88366951D01*
X143840363Y-88712242D01*
X143840037Y-89086118D01*
X134335152Y-89086118D01*
X134040413Y-88963732D01*
X133509914Y-88963269D01*
X133368406Y-89021739D01*
X133401228Y-88988974D01*
X133649217Y-88391750D01*
X133649781Y-87745087D01*
X133402835Y-87147431D01*
X132945974Y-86689772D01*
X132348750Y-86441783D01*
X131702087Y-86441219D01*
X131104431Y-86688165D01*
X130646772Y-87145026D01*
X130398783Y-87742250D01*
X130398219Y-88388913D01*
X130645165Y-88986569D01*
X130687304Y-89028781D01*
X130466520Y-88951073D01*
X129936801Y-88979852D01*
X129581071Y-89127200D01*
X129519417Y-89362812D01*
X127725652Y-89362812D01*
X127530353Y-89167173D01*
X127040413Y-88963732D01*
X126509914Y-88963269D01*
X126019620Y-89165854D01*
X125644173Y-89540647D01*
X125440732Y-90030587D01*
X125440269Y-90561086D01*
X124607270Y-90561086D01*
X124607731Y-90032914D01*
X124405146Y-89542620D01*
X124030353Y-89167173D01*
X123540413Y-88963732D01*
X123009914Y-88963269D01*
X122519620Y-89165854D01*
X122144173Y-89540647D01*
X121940732Y-90030587D01*
X121940269Y-90561086D01*
X120852000Y-90561086D01*
X120852000Y-85852481D01*
X151622777Y-85852481D01*
X151817995Y-86324943D01*
X152179155Y-86686735D01*
X152616182Y-86868205D01*
X152181057Y-87047995D01*
X151819265Y-87409155D01*
X151623223Y-87881276D01*
X151622777Y-88392481D01*
X151817995Y-88864943D01*
X152179155Y-89226735D01*
X152616182Y-89408205D01*
X152181057Y-89587995D01*
X151819265Y-89949155D01*
X151623223Y-90421276D01*
X151622777Y-90932481D01*
X151817995Y-91404943D01*
X152179155Y-91766735D01*
X152616182Y-91948205D01*
X152181057Y-92127995D01*
X151819265Y-92489155D01*
X151623223Y-92961276D01*
X151622777Y-93472481D01*
X151817995Y-93944943D01*
X152179155Y-94306735D01*
X152616182Y-94488205D01*
X152181057Y-94667995D01*
X151819265Y-95029155D01*
X151623223Y-95501276D01*
X151622777Y-96012481D01*
X151817995Y-96484943D01*
X152179155Y-96846735D01*
X152651276Y-97042777D01*
X153162481Y-97043223D01*
X153634943Y-96848005D01*
X153996735Y-96486845D01*
X154192777Y-96014724D01*
X154193223Y-95503519D01*
X153998005Y-95031057D01*
X153636845Y-94669265D01*
X153199818Y-94487795D01*
X153634943Y-94308005D01*
X153635871Y-94307078D01*
X154150378Y-94307078D01*
X154179917Y-94817428D01*
X154318389Y-95151729D01*
X154548984Y-95207410D01*
X155268395Y-94488000D01*
X155627605Y-94488000D01*
X156347016Y-95207410D01*
X156577611Y-95151729D01*
X156745622Y-94668922D01*
X156716083Y-94158572D01*
X156577611Y-93824271D01*
X156347016Y-93768590D01*
X155627605Y-94488000D01*
X155268395Y-94488000D01*
X154548984Y-93768590D01*
X154318389Y-93824271D01*
X154150378Y-94307078D01*
X153635871Y-94307078D01*
X153996735Y-93946845D01*
X154192777Y-93474724D01*
X154193223Y-92963519D01*
X154145085Y-92847016D01*
X154728590Y-92847016D01*
X154784271Y-93077611D01*
X155182566Y-93216213D01*
X155118572Y-93219917D01*
X154784271Y-93358389D01*
X154728590Y-93588984D01*
X155448000Y-94308395D01*
X156167410Y-93588984D01*
X156111729Y-93358389D01*
X155713434Y-93219787D01*
X155777428Y-93216083D01*
X156111729Y-93077611D01*
X156167410Y-92847016D01*
X155448000Y-92127605D01*
X154728590Y-92847016D01*
X154145085Y-92847016D01*
X153998005Y-92491057D01*
X153636845Y-92129265D01*
X153199818Y-91947795D01*
X153634943Y-91768005D01*
X153635871Y-91767078D01*
X154150378Y-91767078D01*
X154179917Y-92277428D01*
X154318389Y-92611729D01*
X154548984Y-92667410D01*
X155268395Y-91948000D01*
X155627605Y-91948000D01*
X156347016Y-92667410D01*
X156577611Y-92611729D01*
X156745622Y-92128922D01*
X156716083Y-91618572D01*
X156577611Y-91284271D01*
X156347016Y-91228590D01*
X155627605Y-91948000D01*
X155268395Y-91948000D01*
X154548984Y-91228590D01*
X154318389Y-91284271D01*
X154150378Y-91767078D01*
X153635871Y-91767078D01*
X153996735Y-91406845D01*
X154192777Y-90934724D01*
X154193223Y-90423519D01*
X154145085Y-90307016D01*
X154728590Y-90307016D01*
X154784271Y-90537611D01*
X155182566Y-90676213D01*
X155118572Y-90679917D01*
X154784271Y-90818389D01*
X154728590Y-91048984D01*
X155448000Y-91768395D01*
X156167410Y-91048984D01*
X156111729Y-90818389D01*
X155713434Y-90679787D01*
X155777428Y-90676083D01*
X156111729Y-90537611D01*
X156167410Y-90307016D01*
X155448000Y-89587605D01*
X154728590Y-90307016D01*
X154145085Y-90307016D01*
X153998005Y-89951057D01*
X153636845Y-89589265D01*
X153199818Y-89407795D01*
X153634943Y-89228005D01*
X153635871Y-89227078D01*
X154150378Y-89227078D01*
X154179917Y-89737428D01*
X154318389Y-90071729D01*
X154548984Y-90127410D01*
X155268395Y-89408000D01*
X155627605Y-89408000D01*
X156347016Y-90127410D01*
X156577611Y-90071729D01*
X156745622Y-89588922D01*
X156716083Y-89078572D01*
X156577611Y-88744271D01*
X156347016Y-88688590D01*
X155627605Y-89408000D01*
X155268395Y-89408000D01*
X154548984Y-88688590D01*
X154318389Y-88744271D01*
X154150378Y-89227078D01*
X153635871Y-89227078D01*
X153996735Y-88866845D01*
X154192777Y-88394724D01*
X154193223Y-87883519D01*
X153998005Y-87411057D01*
X153709934Y-87122481D01*
X154162777Y-87122481D01*
X154357995Y-87594943D01*
X154719155Y-87956735D01*
X155155200Y-88137797D01*
X155118572Y-88139917D01*
X154784271Y-88278389D01*
X154728590Y-88508984D01*
X155448000Y-89228395D01*
X156167410Y-88508984D01*
X156111729Y-88278389D01*
X155725140Y-88143861D01*
X156174943Y-87958005D01*
X156536735Y-87596845D01*
X156732777Y-87124724D01*
X156733223Y-86613519D01*
X156538005Y-86141057D01*
X156176845Y-85779265D01*
X155704724Y-85583223D01*
X155193519Y-85582777D01*
X154721057Y-85777995D01*
X154359265Y-86139155D01*
X154163223Y-86611276D01*
X154162777Y-87122481D01*
X153709934Y-87122481D01*
X153636845Y-87049265D01*
X153199818Y-86867795D01*
X153634943Y-86688005D01*
X153996735Y-86326845D01*
X154192777Y-85854724D01*
X154193223Y-85343519D01*
X153998005Y-84871057D01*
X153636845Y-84509265D01*
X153164724Y-84313223D01*
X152653519Y-84312777D01*
X152181057Y-84507995D01*
X151819265Y-84869155D01*
X151623223Y-85341276D01*
X151622777Y-85852481D01*
X120852000Y-85852481D01*
X120852000Y-85262188D01*
X141485417Y-85262188D01*
X141547071Y-85497800D01*
X142047480Y-85673927D01*
X142577199Y-85645148D01*
X142932929Y-85497800D01*
X142994583Y-85262188D01*
X142240000Y-84507605D01*
X141485417Y-85262188D01*
X120852000Y-85262188D01*
X120852000Y-84135480D01*
X140894073Y-84135480D01*
X140922852Y-84665199D01*
X141070200Y-85020929D01*
X141305812Y-85082583D01*
X142060395Y-84328000D01*
X141305812Y-83573417D01*
X141070200Y-83635071D01*
X140894073Y-84135480D01*
X120852000Y-84135480D01*
X120852000Y-83393812D01*
X141485417Y-83393812D01*
X142240000Y-84148395D01*
X142254143Y-84134253D01*
X142433748Y-84313858D01*
X142419605Y-84328000D01*
X143174188Y-85082583D01*
X143409800Y-85020929D01*
X143585927Y-84520520D01*
X143557148Y-83990801D01*
X143409800Y-83635071D01*
X143174190Y-83573418D01*
X143212422Y-83535186D01*
X143665250Y-83723217D01*
X144311913Y-83723781D01*
X144595689Y-83606527D01*
X144406732Y-84061587D01*
X144406269Y-84592086D01*
X144608854Y-85082380D01*
X144983647Y-85457827D01*
X145473587Y-85661268D01*
X146004086Y-85661731D01*
X146494380Y-85459146D01*
X146869827Y-85084353D01*
X147073268Y-84594413D01*
X147073731Y-84063914D01*
X146871146Y-83573620D01*
X146496353Y-83198173D01*
X146006413Y-82994732D01*
X145475914Y-82994269D01*
X145334406Y-83052739D01*
X145367228Y-83019974D01*
X145615217Y-82422750D01*
X145615781Y-81776087D01*
X145368835Y-81178431D01*
X144911974Y-80720772D01*
X144314750Y-80472783D01*
X143668087Y-80472219D01*
X143070431Y-80719165D01*
X142612772Y-81176026D01*
X142364783Y-81773250D01*
X142364219Y-82419913D01*
X142611165Y-83017569D01*
X142653304Y-83059781D01*
X142432520Y-82982073D01*
X141902801Y-83010852D01*
X141547071Y-83158200D01*
X141485417Y-83393812D01*
X120852000Y-83393812D01*
X120852000Y-81290086D01*
X121940269Y-81290086D01*
X122142854Y-81780380D01*
X122517647Y-82155827D01*
X123007587Y-82359268D01*
X123538086Y-82359731D01*
X124028380Y-82157146D01*
X124403827Y-81782353D01*
X124607268Y-81292413D01*
X124607270Y-81290086D01*
X125440269Y-81290086D01*
X125642854Y-81780380D01*
X126017647Y-82155827D01*
X126507587Y-82359268D01*
X127038086Y-82359731D01*
X127528380Y-82157146D01*
X127725681Y-81960188D01*
X129519417Y-81960188D01*
X129581071Y-82195800D01*
X130081480Y-82371927D01*
X130611199Y-82343148D01*
X130966929Y-82195800D01*
X131028583Y-81960188D01*
X130274000Y-81205605D01*
X129519417Y-81960188D01*
X127725681Y-81960188D01*
X127903827Y-81782353D01*
X128107268Y-81292413D01*
X128107668Y-80833480D01*
X128928073Y-80833480D01*
X128956852Y-81363199D01*
X129104200Y-81718929D01*
X129339812Y-81780583D01*
X130094395Y-81026000D01*
X129339812Y-80271417D01*
X129104200Y-80333071D01*
X128928073Y-80833480D01*
X128107668Y-80833480D01*
X128107731Y-80761914D01*
X127905146Y-80271620D01*
X127530353Y-79896173D01*
X127040413Y-79692732D01*
X126509914Y-79692269D01*
X126019620Y-79894854D01*
X125644173Y-80269647D01*
X125440732Y-80759587D01*
X125440269Y-81290086D01*
X124607270Y-81290086D01*
X124607731Y-80761914D01*
X124405146Y-80271620D01*
X124030353Y-79896173D01*
X123540413Y-79692732D01*
X123009914Y-79692269D01*
X122519620Y-79894854D01*
X122144173Y-80269647D01*
X121940732Y-80759587D01*
X121940269Y-81290086D01*
X120852000Y-81290086D01*
X120852000Y-78809930D01*
X120907478Y-78531021D01*
X121025856Y-78353855D01*
X121203019Y-78235479D01*
X121481931Y-78180000D01*
X130519721Y-78180000D01*
X130398783Y-78471250D01*
M02*
