G04 #@! TF.FileFunction,Copper,L2,Bot,Signal*
%FSLAX46Y46*%
G04 Gerber Fmt 4.6, Leading zero omitted, Abs format (unit mm)*
G04 Created by KiCad (PCBNEW 4.0.7-e2-6376~58~ubuntu16.04.1) date Thu Jan 25 21:49:21 2018*
%MOMM*%
%LPD*%
G01*
G04 APERTURE LIST*
%ADD10C,0.100000*%
%ADD11C,1.397000*%
%ADD12C,1.981000*%
%ADD13C,1.300000*%
%ADD14C,0.609600*%
%ADD15C,0.508000*%
%ADD16C,0.254000*%
G04 APERTURE END LIST*
D10*
D11*
X133830000Y-135636000D03*
X137330000Y-135636000D03*
D12*
X135580000Y-133406000D03*
D11*
X130330000Y-135636000D03*
X126830000Y-135636000D03*
D13*
X159004000Y-127127000D03*
X159004000Y-129667000D03*
X159004000Y-132207000D03*
X159004000Y-124587000D03*
X156464000Y-130937000D03*
X156464000Y-128397000D03*
X156464000Y-125857000D03*
X156464000Y-123317000D03*
X159004000Y-122047000D03*
X156464000Y-120777000D03*
D11*
X146431000Y-129413000D03*
X149931000Y-129413000D03*
D12*
X148181000Y-127183000D03*
D11*
X146431000Y-118237000D03*
X149931000Y-118237000D03*
D12*
X148181000Y-116007000D03*
D11*
X133830000Y-125857000D03*
X137330000Y-125857000D03*
D12*
X135580000Y-123627000D03*
D11*
X130330000Y-125857000D03*
X126830000Y-125857000D03*
X133830000Y-116205000D03*
X137330000Y-116205000D03*
D12*
X135580000Y-113975000D03*
D11*
X130330000Y-116205000D03*
X126830000Y-116205000D03*
D14*
X137287000Y-129540000D03*
X151511000Y-120904000D03*
X153543000Y-122936000D03*
D15*
X137330000Y-125857000D02*
X137330000Y-129497000D01*
X137330000Y-129497000D02*
X137287000Y-129540000D01*
X153543000Y-122936000D02*
X151511000Y-120904000D01*
D16*
G36*
X164204459Y-110994738D02*
X165275568Y-111710429D01*
X165991262Y-112781540D01*
X166256000Y-114112467D01*
X166256000Y-138997533D01*
X165991262Y-140328460D01*
X165275568Y-141399571D01*
X164204459Y-142115262D01*
X162873533Y-142380000D01*
X120208467Y-142380000D01*
X118877540Y-142115262D01*
X117806429Y-141399568D01*
X117090738Y-140328459D01*
X116839421Y-139065000D01*
X117824050Y-139065000D01*
X118000417Y-139951658D01*
X118502669Y-140703331D01*
X119254342Y-141205583D01*
X120141000Y-141381950D01*
X121027658Y-141205583D01*
X121779331Y-140703331D01*
X122281583Y-139951658D01*
X122457950Y-139065000D01*
X160624050Y-139065000D01*
X160800417Y-139951658D01*
X161302669Y-140703331D01*
X162054342Y-141205583D01*
X162941000Y-141381950D01*
X163827658Y-141205583D01*
X164579331Y-140703331D01*
X165081583Y-139951658D01*
X165257950Y-139065000D01*
X165081583Y-138178342D01*
X164579331Y-137426669D01*
X163827658Y-136924417D01*
X162941000Y-136748050D01*
X162054342Y-136924417D01*
X161302669Y-137426669D01*
X160800417Y-138178342D01*
X160624050Y-139065000D01*
X122457950Y-139065000D01*
X122281583Y-138178342D01*
X121779331Y-137426669D01*
X121027658Y-136924417D01*
X120141000Y-136748050D01*
X119254342Y-136924417D01*
X118502669Y-137426669D01*
X118000417Y-138178342D01*
X117824050Y-139065000D01*
X116839421Y-139065000D01*
X116826000Y-138997533D01*
X116826000Y-136570188D01*
X126075417Y-136570188D01*
X126137071Y-136805800D01*
X126637480Y-136981927D01*
X127167199Y-136953148D01*
X127522929Y-136805800D01*
X127584583Y-136570188D01*
X126830000Y-135815605D01*
X126075417Y-136570188D01*
X116826000Y-136570188D01*
X116826000Y-135443480D01*
X125484073Y-135443480D01*
X125512852Y-135973199D01*
X125660200Y-136328929D01*
X125895812Y-136390583D01*
X126650395Y-135636000D01*
X127009605Y-135636000D01*
X127764188Y-136390583D01*
X127999800Y-136328929D01*
X128150738Y-135900086D01*
X128996269Y-135900086D01*
X129198854Y-136390380D01*
X129573647Y-136765827D01*
X130063587Y-136969268D01*
X130594086Y-136969731D01*
X131084380Y-136767146D01*
X131459827Y-136392353D01*
X131663268Y-135902413D01*
X131663270Y-135900086D01*
X132496269Y-135900086D01*
X132698854Y-136390380D01*
X133073647Y-136765827D01*
X133563587Y-136969268D01*
X134094086Y-136969731D01*
X134584380Y-136767146D01*
X134959827Y-136392353D01*
X135163268Y-135902413D01*
X135163731Y-135371914D01*
X134974849Y-134914784D01*
X135255250Y-135031217D01*
X135901913Y-135031781D01*
X136185689Y-134914527D01*
X135996732Y-135369587D01*
X135996269Y-135900086D01*
X136198854Y-136390380D01*
X136573647Y-136765827D01*
X137063587Y-136969268D01*
X137594086Y-136969731D01*
X138084380Y-136767146D01*
X138459827Y-136392353D01*
X138663268Y-135902413D01*
X138663731Y-135371914D01*
X138461146Y-134881620D01*
X138086353Y-134506173D01*
X137596413Y-134302732D01*
X137065914Y-134302269D01*
X136924406Y-134360739D01*
X136957228Y-134327974D01*
X137205217Y-133730750D01*
X137205781Y-133084087D01*
X136958835Y-132486431D01*
X136501974Y-132028772D01*
X136037766Y-131836016D01*
X155744590Y-131836016D01*
X155800271Y-132066611D01*
X156283078Y-132234622D01*
X156793428Y-132205083D01*
X157127729Y-132066611D01*
X157183410Y-131836016D01*
X156464000Y-131116605D01*
X155744590Y-131836016D01*
X136037766Y-131836016D01*
X135904750Y-131780783D01*
X135258087Y-131780219D01*
X134660431Y-132027165D01*
X134202772Y-132484026D01*
X133954783Y-133081250D01*
X133954219Y-133727913D01*
X134201165Y-134325569D01*
X134236390Y-134360856D01*
X134096413Y-134302732D01*
X133565914Y-134302269D01*
X133075620Y-134504854D01*
X132700173Y-134879647D01*
X132496732Y-135369587D01*
X132496269Y-135900086D01*
X131663270Y-135900086D01*
X131663731Y-135371914D01*
X131461146Y-134881620D01*
X131086353Y-134506173D01*
X130596413Y-134302732D01*
X130065914Y-134302269D01*
X129575620Y-134504854D01*
X129200173Y-134879647D01*
X128996732Y-135369587D01*
X128996269Y-135900086D01*
X128150738Y-135900086D01*
X128175927Y-135828520D01*
X128147148Y-135298801D01*
X127999800Y-134943071D01*
X127764188Y-134881417D01*
X127009605Y-135636000D01*
X126650395Y-135636000D01*
X125895812Y-134881417D01*
X125660200Y-134943071D01*
X125484073Y-135443480D01*
X116826000Y-135443480D01*
X116826000Y-134701812D01*
X126075417Y-134701812D01*
X126830000Y-135456395D01*
X127584583Y-134701812D01*
X127522929Y-134466200D01*
X127022520Y-134290073D01*
X126492801Y-134318852D01*
X126137071Y-134466200D01*
X126075417Y-134701812D01*
X116826000Y-134701812D01*
X116826000Y-126121086D01*
X125496269Y-126121086D01*
X125698854Y-126611380D01*
X126073647Y-126986827D01*
X126563587Y-127190268D01*
X127094086Y-127190731D01*
X127584380Y-126988146D01*
X127959827Y-126613353D01*
X128163268Y-126123413D01*
X128163270Y-126121086D01*
X128996269Y-126121086D01*
X129198854Y-126611380D01*
X129573647Y-126986827D01*
X130063587Y-127190268D01*
X130594086Y-127190731D01*
X131084380Y-126988146D01*
X131281681Y-126791188D01*
X133075417Y-126791188D01*
X133137071Y-127026800D01*
X133637480Y-127202927D01*
X134167199Y-127174148D01*
X134522929Y-127026800D01*
X134584583Y-126791188D01*
X133830000Y-126036605D01*
X133075417Y-126791188D01*
X131281681Y-126791188D01*
X131459827Y-126613353D01*
X131663268Y-126123413D01*
X131663668Y-125664480D01*
X132484073Y-125664480D01*
X132512852Y-126194199D01*
X132660200Y-126549929D01*
X132895812Y-126611583D01*
X133650395Y-125857000D01*
X132895812Y-125102417D01*
X132660200Y-125164071D01*
X132484073Y-125664480D01*
X131663668Y-125664480D01*
X131663731Y-125592914D01*
X131461146Y-125102620D01*
X131281652Y-124922812D01*
X133075417Y-124922812D01*
X133830000Y-125677395D01*
X133844143Y-125663253D01*
X134023748Y-125842858D01*
X134009605Y-125857000D01*
X134764188Y-126611583D01*
X134999800Y-126549929D01*
X135175927Y-126049520D01*
X135147148Y-125519801D01*
X134999800Y-125164071D01*
X134764190Y-125102418D01*
X134802422Y-125064186D01*
X135255250Y-125252217D01*
X135901913Y-125252781D01*
X136185689Y-125135527D01*
X135996732Y-125590587D01*
X135996269Y-126121086D01*
X136198854Y-126611380D01*
X136441000Y-126853949D01*
X136441000Y-129126740D01*
X136347363Y-129352242D01*
X136347037Y-129726118D01*
X136489812Y-130071659D01*
X136753951Y-130336259D01*
X137099242Y-130479637D01*
X137473118Y-130479963D01*
X137794457Y-130347188D01*
X145676417Y-130347188D01*
X145738071Y-130582800D01*
X146238480Y-130758927D01*
X146290919Y-130756078D01*
X155166378Y-130756078D01*
X155195917Y-131266428D01*
X155334389Y-131600729D01*
X155564984Y-131656410D01*
X156284395Y-130937000D01*
X156643605Y-130937000D01*
X157363016Y-131656410D01*
X157593611Y-131600729D01*
X157761622Y-131117922D01*
X157732083Y-130607572D01*
X157593611Y-130273271D01*
X157363016Y-130217590D01*
X156643605Y-130937000D01*
X156284395Y-130937000D01*
X155564984Y-130217590D01*
X155334389Y-130273271D01*
X155166378Y-130756078D01*
X146290919Y-130756078D01*
X146768199Y-130730148D01*
X147123929Y-130582800D01*
X147185583Y-130347188D01*
X146431000Y-129592605D01*
X145676417Y-130347188D01*
X137794457Y-130347188D01*
X137818659Y-130337188D01*
X138083259Y-130073049D01*
X138226637Y-129727758D01*
X138226963Y-129353882D01*
X138219000Y-129334610D01*
X138219000Y-129220480D01*
X145085073Y-129220480D01*
X145113852Y-129750199D01*
X145261200Y-130105929D01*
X145496812Y-130167583D01*
X146251395Y-129413000D01*
X145496812Y-128658417D01*
X145261200Y-128720071D01*
X145085073Y-129220480D01*
X138219000Y-129220480D01*
X138219000Y-128478812D01*
X145676417Y-128478812D01*
X146431000Y-129233395D01*
X146445143Y-129219253D01*
X146624748Y-129398858D01*
X146610605Y-129413000D01*
X147365188Y-130167583D01*
X147600800Y-130105929D01*
X147776927Y-129605520D01*
X147748148Y-129075801D01*
X147600800Y-128720071D01*
X147365190Y-128658418D01*
X147403422Y-128620186D01*
X147856250Y-128808217D01*
X148502913Y-128808781D01*
X148786689Y-128691527D01*
X148597732Y-129146587D01*
X148597269Y-129677086D01*
X148799854Y-130167380D01*
X149174647Y-130542827D01*
X149664587Y-130746268D01*
X150195086Y-130746731D01*
X150685380Y-130544146D01*
X151060827Y-130169353D01*
X151264268Y-129679413D01*
X151264731Y-129148914D01*
X151062146Y-128658620D01*
X150687353Y-128283173D01*
X150197413Y-128079732D01*
X149666914Y-128079269D01*
X149525406Y-128137739D01*
X149558228Y-128104974D01*
X149806217Y-127507750D01*
X149806781Y-126861087D01*
X149559835Y-126263431D01*
X149102974Y-125805772D01*
X148505750Y-125557783D01*
X147859087Y-125557219D01*
X147261431Y-125804165D01*
X146803772Y-126261026D01*
X146555783Y-126858250D01*
X146555219Y-127504913D01*
X146802165Y-128102569D01*
X146844304Y-128144781D01*
X146623520Y-128067073D01*
X146093801Y-128095852D01*
X145738071Y-128243200D01*
X145676417Y-128478812D01*
X138219000Y-128478812D01*
X138219000Y-126853760D01*
X138459827Y-126613353D01*
X138663268Y-126123413D01*
X138663731Y-125592914D01*
X138461146Y-125102620D01*
X138086353Y-124727173D01*
X137596413Y-124523732D01*
X137065914Y-124523269D01*
X136924406Y-124581739D01*
X136957228Y-124548974D01*
X137205217Y-123951750D01*
X137205781Y-123305087D01*
X136958835Y-122707431D01*
X136501974Y-122249772D01*
X135904750Y-122001783D01*
X135258087Y-122001219D01*
X134660431Y-122248165D01*
X134202772Y-122705026D01*
X133954783Y-123302250D01*
X133954219Y-123948913D01*
X134201165Y-124546569D01*
X134243304Y-124588781D01*
X134022520Y-124511073D01*
X133492801Y-124539852D01*
X133137071Y-124687200D01*
X133075417Y-124922812D01*
X131281652Y-124922812D01*
X131086353Y-124727173D01*
X130596413Y-124523732D01*
X130065914Y-124523269D01*
X129575620Y-124725854D01*
X129200173Y-125100647D01*
X128996732Y-125590587D01*
X128996269Y-126121086D01*
X128163270Y-126121086D01*
X128163731Y-125592914D01*
X127961146Y-125102620D01*
X127586353Y-124727173D01*
X127096413Y-124523732D01*
X126565914Y-124523269D01*
X126075620Y-124725854D01*
X125700173Y-125100647D01*
X125496732Y-125590587D01*
X125496269Y-126121086D01*
X116826000Y-126121086D01*
X116826000Y-121090118D01*
X150571037Y-121090118D01*
X150713812Y-121435659D01*
X150977951Y-121700259D01*
X151101201Y-121751437D01*
X152695388Y-123345624D01*
X152745812Y-123467659D01*
X153009951Y-123732259D01*
X153355242Y-123875637D01*
X153729118Y-123875963D01*
X154074659Y-123733188D01*
X154339259Y-123469049D01*
X154482637Y-123123758D01*
X154482963Y-122749882D01*
X154340188Y-122404341D01*
X154076049Y-122139741D01*
X153952799Y-122088563D01*
X152895717Y-121031481D01*
X155178777Y-121031481D01*
X155373995Y-121503943D01*
X155735155Y-121865735D01*
X156172182Y-122047205D01*
X155737057Y-122226995D01*
X155375265Y-122588155D01*
X155179223Y-123060276D01*
X155178777Y-123571481D01*
X155373995Y-124043943D01*
X155735155Y-124405735D01*
X156172182Y-124587205D01*
X155737057Y-124766995D01*
X155375265Y-125128155D01*
X155179223Y-125600276D01*
X155178777Y-126111481D01*
X155373995Y-126583943D01*
X155735155Y-126945735D01*
X156172182Y-127127205D01*
X155737057Y-127306995D01*
X155375265Y-127668155D01*
X155179223Y-128140276D01*
X155178777Y-128651481D01*
X155373995Y-129123943D01*
X155735155Y-129485735D01*
X156171200Y-129666797D01*
X156134572Y-129668917D01*
X155800271Y-129807389D01*
X155744590Y-130037984D01*
X156464000Y-130757395D01*
X157183410Y-130037984D01*
X157155279Y-129921481D01*
X157718777Y-129921481D01*
X157913995Y-130393943D01*
X158275155Y-130755735D01*
X158712182Y-130937205D01*
X158277057Y-131116995D01*
X157915265Y-131478155D01*
X157719223Y-131950276D01*
X157718777Y-132461481D01*
X157913995Y-132933943D01*
X158275155Y-133295735D01*
X158747276Y-133491777D01*
X159258481Y-133492223D01*
X159730943Y-133297005D01*
X160092735Y-132935845D01*
X160288777Y-132463724D01*
X160289223Y-131952519D01*
X160094005Y-131480057D01*
X159732845Y-131118265D01*
X159295818Y-130936795D01*
X159730943Y-130757005D01*
X160092735Y-130395845D01*
X160288777Y-129923724D01*
X160289223Y-129412519D01*
X160094005Y-128940057D01*
X159732845Y-128578265D01*
X159296800Y-128397203D01*
X159333428Y-128395083D01*
X159667729Y-128256611D01*
X159723410Y-128026016D01*
X159004000Y-127306605D01*
X158284590Y-128026016D01*
X158340271Y-128256611D01*
X158726860Y-128391139D01*
X158277057Y-128576995D01*
X157915265Y-128938155D01*
X157719223Y-129410276D01*
X157718777Y-129921481D01*
X157155279Y-129921481D01*
X157127729Y-129807389D01*
X156741140Y-129672861D01*
X157190943Y-129487005D01*
X157552735Y-129125845D01*
X157748777Y-128653724D01*
X157749223Y-128142519D01*
X157554005Y-127670057D01*
X157192845Y-127308265D01*
X156755818Y-127126795D01*
X157190943Y-126947005D01*
X157191871Y-126946078D01*
X157706378Y-126946078D01*
X157735917Y-127456428D01*
X157874389Y-127790729D01*
X158104984Y-127846410D01*
X158824395Y-127127000D01*
X159183605Y-127127000D01*
X159903016Y-127846410D01*
X160133611Y-127790729D01*
X160301622Y-127307922D01*
X160272083Y-126797572D01*
X160133611Y-126463271D01*
X159903016Y-126407590D01*
X159183605Y-127127000D01*
X158824395Y-127127000D01*
X158104984Y-126407590D01*
X157874389Y-126463271D01*
X157706378Y-126946078D01*
X157191871Y-126946078D01*
X157552735Y-126585845D01*
X157748777Y-126113724D01*
X157749223Y-125602519D01*
X157701085Y-125486016D01*
X158284590Y-125486016D01*
X158340271Y-125716611D01*
X158738566Y-125855213D01*
X158674572Y-125858917D01*
X158340271Y-125997389D01*
X158284590Y-126227984D01*
X159004000Y-126947395D01*
X159723410Y-126227984D01*
X159667729Y-125997389D01*
X159269434Y-125858787D01*
X159333428Y-125855083D01*
X159667729Y-125716611D01*
X159723410Y-125486016D01*
X159004000Y-124766605D01*
X158284590Y-125486016D01*
X157701085Y-125486016D01*
X157554005Y-125130057D01*
X157192845Y-124768265D01*
X156755818Y-124586795D01*
X157190943Y-124407005D01*
X157191871Y-124406078D01*
X157706378Y-124406078D01*
X157735917Y-124916428D01*
X157874389Y-125250729D01*
X158104984Y-125306410D01*
X158824395Y-124587000D01*
X159183605Y-124587000D01*
X159903016Y-125306410D01*
X160133611Y-125250729D01*
X160301622Y-124767922D01*
X160272083Y-124257572D01*
X160133611Y-123923271D01*
X159903016Y-123867590D01*
X159183605Y-124587000D01*
X158824395Y-124587000D01*
X158104984Y-123867590D01*
X157874389Y-123923271D01*
X157706378Y-124406078D01*
X157191871Y-124406078D01*
X157552735Y-124045845D01*
X157748777Y-123573724D01*
X157749223Y-123062519D01*
X157554005Y-122590057D01*
X157265934Y-122301481D01*
X157718777Y-122301481D01*
X157913995Y-122773943D01*
X158275155Y-123135735D01*
X158711200Y-123316797D01*
X158674572Y-123318917D01*
X158340271Y-123457389D01*
X158284590Y-123687984D01*
X159004000Y-124407395D01*
X159723410Y-123687984D01*
X159667729Y-123457389D01*
X159281140Y-123322861D01*
X159730943Y-123137005D01*
X160092735Y-122775845D01*
X160288777Y-122303724D01*
X160289223Y-121792519D01*
X160094005Y-121320057D01*
X159732845Y-120958265D01*
X159260724Y-120762223D01*
X158749519Y-120761777D01*
X158277057Y-120956995D01*
X157915265Y-121318155D01*
X157719223Y-121790276D01*
X157718777Y-122301481D01*
X157265934Y-122301481D01*
X157192845Y-122228265D01*
X156755818Y-122046795D01*
X157190943Y-121867005D01*
X157552735Y-121505845D01*
X157748777Y-121033724D01*
X157749223Y-120522519D01*
X157554005Y-120050057D01*
X157192845Y-119688265D01*
X156720724Y-119492223D01*
X156209519Y-119491777D01*
X155737057Y-119686995D01*
X155375265Y-120048155D01*
X155179223Y-120520276D01*
X155178777Y-121031481D01*
X152895717Y-121031481D01*
X152358612Y-120494376D01*
X152308188Y-120372341D01*
X152044049Y-120107741D01*
X151698758Y-119964363D01*
X151324882Y-119964037D01*
X150979341Y-120106812D01*
X150714741Y-120370951D01*
X150571363Y-120716242D01*
X150571037Y-121090118D01*
X116826000Y-121090118D01*
X116826000Y-119171188D01*
X145676417Y-119171188D01*
X145738071Y-119406800D01*
X146238480Y-119582927D01*
X146768199Y-119554148D01*
X147123929Y-119406800D01*
X147185583Y-119171188D01*
X146431000Y-118416605D01*
X145676417Y-119171188D01*
X116826000Y-119171188D01*
X116826000Y-118044480D01*
X145085073Y-118044480D01*
X145113852Y-118574199D01*
X145261200Y-118929929D01*
X145496812Y-118991583D01*
X146251395Y-118237000D01*
X145496812Y-117482417D01*
X145261200Y-117544071D01*
X145085073Y-118044480D01*
X116826000Y-118044480D01*
X116826000Y-116469086D01*
X125496269Y-116469086D01*
X125698854Y-116959380D01*
X126073647Y-117334827D01*
X126563587Y-117538268D01*
X127094086Y-117538731D01*
X127584380Y-117336146D01*
X127959827Y-116961353D01*
X128163268Y-116471413D01*
X128163270Y-116469086D01*
X128996269Y-116469086D01*
X129198854Y-116959380D01*
X129573647Y-117334827D01*
X130063587Y-117538268D01*
X130594086Y-117538731D01*
X131084380Y-117336146D01*
X131281681Y-117139188D01*
X133075417Y-117139188D01*
X133137071Y-117374800D01*
X133637480Y-117550927D01*
X134167199Y-117522148D01*
X134522929Y-117374800D01*
X134584583Y-117139188D01*
X133830000Y-116384605D01*
X133075417Y-117139188D01*
X131281681Y-117139188D01*
X131459827Y-116961353D01*
X131663268Y-116471413D01*
X131663668Y-116012480D01*
X132484073Y-116012480D01*
X132512852Y-116542199D01*
X132660200Y-116897929D01*
X132895812Y-116959583D01*
X133650395Y-116205000D01*
X132895812Y-115450417D01*
X132660200Y-115512071D01*
X132484073Y-116012480D01*
X131663668Y-116012480D01*
X131663731Y-115940914D01*
X131461146Y-115450620D01*
X131281652Y-115270812D01*
X133075417Y-115270812D01*
X133830000Y-116025395D01*
X133844143Y-116011253D01*
X134023748Y-116190858D01*
X134009605Y-116205000D01*
X134764188Y-116959583D01*
X134999800Y-116897929D01*
X135175927Y-116397520D01*
X135147148Y-115867801D01*
X134999800Y-115512071D01*
X134764190Y-115450418D01*
X134802422Y-115412186D01*
X135255250Y-115600217D01*
X135901913Y-115600781D01*
X136185689Y-115483527D01*
X135996732Y-115938587D01*
X135996269Y-116469086D01*
X136198854Y-116959380D01*
X136573647Y-117334827D01*
X137063587Y-117538268D01*
X137594086Y-117538731D01*
X138084380Y-117336146D01*
X138117772Y-117302812D01*
X145676417Y-117302812D01*
X146431000Y-118057395D01*
X146445143Y-118043253D01*
X146624748Y-118222858D01*
X146610605Y-118237000D01*
X147365188Y-118991583D01*
X147600800Y-118929929D01*
X147776927Y-118429520D01*
X147748148Y-117899801D01*
X147600800Y-117544071D01*
X147365190Y-117482418D01*
X147403422Y-117444186D01*
X147856250Y-117632217D01*
X148502913Y-117632781D01*
X148786689Y-117515527D01*
X148597732Y-117970587D01*
X148597269Y-118501086D01*
X148799854Y-118991380D01*
X149174647Y-119366827D01*
X149664587Y-119570268D01*
X150195086Y-119570731D01*
X150685380Y-119368146D01*
X151060827Y-118993353D01*
X151264268Y-118503413D01*
X151264731Y-117972914D01*
X151062146Y-117482620D01*
X150687353Y-117107173D01*
X150197413Y-116903732D01*
X149666914Y-116903269D01*
X149525406Y-116961739D01*
X149558228Y-116928974D01*
X149806217Y-116331750D01*
X149806781Y-115685087D01*
X149559835Y-115087431D01*
X149102974Y-114629772D01*
X148505750Y-114381783D01*
X147859087Y-114381219D01*
X147261431Y-114628165D01*
X146803772Y-115085026D01*
X146555783Y-115682250D01*
X146555219Y-116328913D01*
X146802165Y-116926569D01*
X146844304Y-116968781D01*
X146623520Y-116891073D01*
X146093801Y-116919852D01*
X145738071Y-117067200D01*
X145676417Y-117302812D01*
X138117772Y-117302812D01*
X138459827Y-116961353D01*
X138663268Y-116471413D01*
X138663731Y-115940914D01*
X138461146Y-115450620D01*
X138086353Y-115075173D01*
X137596413Y-114871732D01*
X137065914Y-114871269D01*
X136924406Y-114929739D01*
X136957228Y-114896974D01*
X137205217Y-114299750D01*
X137205439Y-114045000D01*
X160624050Y-114045000D01*
X160800417Y-114931658D01*
X161302669Y-115683331D01*
X162054342Y-116185583D01*
X162941000Y-116361950D01*
X163827658Y-116185583D01*
X164579331Y-115683331D01*
X165081583Y-114931658D01*
X165257950Y-114045000D01*
X165081583Y-113158342D01*
X164579331Y-112406669D01*
X163827658Y-111904417D01*
X162941000Y-111728050D01*
X162054342Y-111904417D01*
X161302669Y-112406669D01*
X160800417Y-113158342D01*
X160624050Y-114045000D01*
X137205439Y-114045000D01*
X137205781Y-113653087D01*
X136958835Y-113055431D01*
X136501974Y-112597772D01*
X135904750Y-112349783D01*
X135258087Y-112349219D01*
X134660431Y-112596165D01*
X134202772Y-113053026D01*
X133954783Y-113650250D01*
X133954219Y-114296913D01*
X134201165Y-114894569D01*
X134243304Y-114936781D01*
X134022520Y-114859073D01*
X133492801Y-114887852D01*
X133137071Y-115035200D01*
X133075417Y-115270812D01*
X131281652Y-115270812D01*
X131086353Y-115075173D01*
X130596413Y-114871732D01*
X130065914Y-114871269D01*
X129575620Y-115073854D01*
X129200173Y-115448647D01*
X128996732Y-115938587D01*
X128996269Y-116469086D01*
X128163270Y-116469086D01*
X128163731Y-115940914D01*
X127961146Y-115450620D01*
X127586353Y-115075173D01*
X127096413Y-114871732D01*
X126565914Y-114871269D01*
X126075620Y-115073854D01*
X125700173Y-115448647D01*
X125496732Y-115938587D01*
X125496269Y-116469086D01*
X116826000Y-116469086D01*
X116826000Y-114112467D01*
X116839420Y-114045000D01*
X117824050Y-114045000D01*
X118000417Y-114931658D01*
X118502669Y-115683331D01*
X119254342Y-116185583D01*
X120141000Y-116361950D01*
X121027658Y-116185583D01*
X121779331Y-115683331D01*
X122281583Y-114931658D01*
X122457950Y-114045000D01*
X122281583Y-113158342D01*
X121779331Y-112406669D01*
X121027658Y-111904417D01*
X120141000Y-111728050D01*
X119254342Y-111904417D01*
X118502669Y-112406669D01*
X118000417Y-113158342D01*
X117824050Y-114045000D01*
X116839420Y-114045000D01*
X117090738Y-112781541D01*
X117806429Y-111710432D01*
X118877540Y-110994738D01*
X120208467Y-110730000D01*
X162873533Y-110730000D01*
X164204459Y-110994738D01*
X164204459Y-110994738D01*
G37*
X164204459Y-110994738D02*
X165275568Y-111710429D01*
X165991262Y-112781540D01*
X166256000Y-114112467D01*
X166256000Y-138997533D01*
X165991262Y-140328460D01*
X165275568Y-141399571D01*
X164204459Y-142115262D01*
X162873533Y-142380000D01*
X120208467Y-142380000D01*
X118877540Y-142115262D01*
X117806429Y-141399568D01*
X117090738Y-140328459D01*
X116839421Y-139065000D01*
X117824050Y-139065000D01*
X118000417Y-139951658D01*
X118502669Y-140703331D01*
X119254342Y-141205583D01*
X120141000Y-141381950D01*
X121027658Y-141205583D01*
X121779331Y-140703331D01*
X122281583Y-139951658D01*
X122457950Y-139065000D01*
X160624050Y-139065000D01*
X160800417Y-139951658D01*
X161302669Y-140703331D01*
X162054342Y-141205583D01*
X162941000Y-141381950D01*
X163827658Y-141205583D01*
X164579331Y-140703331D01*
X165081583Y-139951658D01*
X165257950Y-139065000D01*
X165081583Y-138178342D01*
X164579331Y-137426669D01*
X163827658Y-136924417D01*
X162941000Y-136748050D01*
X162054342Y-136924417D01*
X161302669Y-137426669D01*
X160800417Y-138178342D01*
X160624050Y-139065000D01*
X122457950Y-139065000D01*
X122281583Y-138178342D01*
X121779331Y-137426669D01*
X121027658Y-136924417D01*
X120141000Y-136748050D01*
X119254342Y-136924417D01*
X118502669Y-137426669D01*
X118000417Y-138178342D01*
X117824050Y-139065000D01*
X116839421Y-139065000D01*
X116826000Y-138997533D01*
X116826000Y-136570188D01*
X126075417Y-136570188D01*
X126137071Y-136805800D01*
X126637480Y-136981927D01*
X127167199Y-136953148D01*
X127522929Y-136805800D01*
X127584583Y-136570188D01*
X126830000Y-135815605D01*
X126075417Y-136570188D01*
X116826000Y-136570188D01*
X116826000Y-135443480D01*
X125484073Y-135443480D01*
X125512852Y-135973199D01*
X125660200Y-136328929D01*
X125895812Y-136390583D01*
X126650395Y-135636000D01*
X127009605Y-135636000D01*
X127764188Y-136390583D01*
X127999800Y-136328929D01*
X128150738Y-135900086D01*
X128996269Y-135900086D01*
X129198854Y-136390380D01*
X129573647Y-136765827D01*
X130063587Y-136969268D01*
X130594086Y-136969731D01*
X131084380Y-136767146D01*
X131459827Y-136392353D01*
X131663268Y-135902413D01*
X131663270Y-135900086D01*
X132496269Y-135900086D01*
X132698854Y-136390380D01*
X133073647Y-136765827D01*
X133563587Y-136969268D01*
X134094086Y-136969731D01*
X134584380Y-136767146D01*
X134959827Y-136392353D01*
X135163268Y-135902413D01*
X135163731Y-135371914D01*
X134974849Y-134914784D01*
X135255250Y-135031217D01*
X135901913Y-135031781D01*
X136185689Y-134914527D01*
X135996732Y-135369587D01*
X135996269Y-135900086D01*
X136198854Y-136390380D01*
X136573647Y-136765827D01*
X137063587Y-136969268D01*
X137594086Y-136969731D01*
X138084380Y-136767146D01*
X138459827Y-136392353D01*
X138663268Y-135902413D01*
X138663731Y-135371914D01*
X138461146Y-134881620D01*
X138086353Y-134506173D01*
X137596413Y-134302732D01*
X137065914Y-134302269D01*
X136924406Y-134360739D01*
X136957228Y-134327974D01*
X137205217Y-133730750D01*
X137205781Y-133084087D01*
X136958835Y-132486431D01*
X136501974Y-132028772D01*
X136037766Y-131836016D01*
X155744590Y-131836016D01*
X155800271Y-132066611D01*
X156283078Y-132234622D01*
X156793428Y-132205083D01*
X157127729Y-132066611D01*
X157183410Y-131836016D01*
X156464000Y-131116605D01*
X155744590Y-131836016D01*
X136037766Y-131836016D01*
X135904750Y-131780783D01*
X135258087Y-131780219D01*
X134660431Y-132027165D01*
X134202772Y-132484026D01*
X133954783Y-133081250D01*
X133954219Y-133727913D01*
X134201165Y-134325569D01*
X134236390Y-134360856D01*
X134096413Y-134302732D01*
X133565914Y-134302269D01*
X133075620Y-134504854D01*
X132700173Y-134879647D01*
X132496732Y-135369587D01*
X132496269Y-135900086D01*
X131663270Y-135900086D01*
X131663731Y-135371914D01*
X131461146Y-134881620D01*
X131086353Y-134506173D01*
X130596413Y-134302732D01*
X130065914Y-134302269D01*
X129575620Y-134504854D01*
X129200173Y-134879647D01*
X128996732Y-135369587D01*
X128996269Y-135900086D01*
X128150738Y-135900086D01*
X128175927Y-135828520D01*
X128147148Y-135298801D01*
X127999800Y-134943071D01*
X127764188Y-134881417D01*
X127009605Y-135636000D01*
X126650395Y-135636000D01*
X125895812Y-134881417D01*
X125660200Y-134943071D01*
X125484073Y-135443480D01*
X116826000Y-135443480D01*
X116826000Y-134701812D01*
X126075417Y-134701812D01*
X126830000Y-135456395D01*
X127584583Y-134701812D01*
X127522929Y-134466200D01*
X127022520Y-134290073D01*
X126492801Y-134318852D01*
X126137071Y-134466200D01*
X126075417Y-134701812D01*
X116826000Y-134701812D01*
X116826000Y-126121086D01*
X125496269Y-126121086D01*
X125698854Y-126611380D01*
X126073647Y-126986827D01*
X126563587Y-127190268D01*
X127094086Y-127190731D01*
X127584380Y-126988146D01*
X127959827Y-126613353D01*
X128163268Y-126123413D01*
X128163270Y-126121086D01*
X128996269Y-126121086D01*
X129198854Y-126611380D01*
X129573647Y-126986827D01*
X130063587Y-127190268D01*
X130594086Y-127190731D01*
X131084380Y-126988146D01*
X131281681Y-126791188D01*
X133075417Y-126791188D01*
X133137071Y-127026800D01*
X133637480Y-127202927D01*
X134167199Y-127174148D01*
X134522929Y-127026800D01*
X134584583Y-126791188D01*
X133830000Y-126036605D01*
X133075417Y-126791188D01*
X131281681Y-126791188D01*
X131459827Y-126613353D01*
X131663268Y-126123413D01*
X131663668Y-125664480D01*
X132484073Y-125664480D01*
X132512852Y-126194199D01*
X132660200Y-126549929D01*
X132895812Y-126611583D01*
X133650395Y-125857000D01*
X132895812Y-125102417D01*
X132660200Y-125164071D01*
X132484073Y-125664480D01*
X131663668Y-125664480D01*
X131663731Y-125592914D01*
X131461146Y-125102620D01*
X131281652Y-124922812D01*
X133075417Y-124922812D01*
X133830000Y-125677395D01*
X133844143Y-125663253D01*
X134023748Y-125842858D01*
X134009605Y-125857000D01*
X134764188Y-126611583D01*
X134999800Y-126549929D01*
X135175927Y-126049520D01*
X135147148Y-125519801D01*
X134999800Y-125164071D01*
X134764190Y-125102418D01*
X134802422Y-125064186D01*
X135255250Y-125252217D01*
X135901913Y-125252781D01*
X136185689Y-125135527D01*
X135996732Y-125590587D01*
X135996269Y-126121086D01*
X136198854Y-126611380D01*
X136441000Y-126853949D01*
X136441000Y-129126740D01*
X136347363Y-129352242D01*
X136347037Y-129726118D01*
X136489812Y-130071659D01*
X136753951Y-130336259D01*
X137099242Y-130479637D01*
X137473118Y-130479963D01*
X137794457Y-130347188D01*
X145676417Y-130347188D01*
X145738071Y-130582800D01*
X146238480Y-130758927D01*
X146290919Y-130756078D01*
X155166378Y-130756078D01*
X155195917Y-131266428D01*
X155334389Y-131600729D01*
X155564984Y-131656410D01*
X156284395Y-130937000D01*
X156643605Y-130937000D01*
X157363016Y-131656410D01*
X157593611Y-131600729D01*
X157761622Y-131117922D01*
X157732083Y-130607572D01*
X157593611Y-130273271D01*
X157363016Y-130217590D01*
X156643605Y-130937000D01*
X156284395Y-130937000D01*
X155564984Y-130217590D01*
X155334389Y-130273271D01*
X155166378Y-130756078D01*
X146290919Y-130756078D01*
X146768199Y-130730148D01*
X147123929Y-130582800D01*
X147185583Y-130347188D01*
X146431000Y-129592605D01*
X145676417Y-130347188D01*
X137794457Y-130347188D01*
X137818659Y-130337188D01*
X138083259Y-130073049D01*
X138226637Y-129727758D01*
X138226963Y-129353882D01*
X138219000Y-129334610D01*
X138219000Y-129220480D01*
X145085073Y-129220480D01*
X145113852Y-129750199D01*
X145261200Y-130105929D01*
X145496812Y-130167583D01*
X146251395Y-129413000D01*
X145496812Y-128658417D01*
X145261200Y-128720071D01*
X145085073Y-129220480D01*
X138219000Y-129220480D01*
X138219000Y-128478812D01*
X145676417Y-128478812D01*
X146431000Y-129233395D01*
X146445143Y-129219253D01*
X146624748Y-129398858D01*
X146610605Y-129413000D01*
X147365188Y-130167583D01*
X147600800Y-130105929D01*
X147776927Y-129605520D01*
X147748148Y-129075801D01*
X147600800Y-128720071D01*
X147365190Y-128658418D01*
X147403422Y-128620186D01*
X147856250Y-128808217D01*
X148502913Y-128808781D01*
X148786689Y-128691527D01*
X148597732Y-129146587D01*
X148597269Y-129677086D01*
X148799854Y-130167380D01*
X149174647Y-130542827D01*
X149664587Y-130746268D01*
X150195086Y-130746731D01*
X150685380Y-130544146D01*
X151060827Y-130169353D01*
X151264268Y-129679413D01*
X151264731Y-129148914D01*
X151062146Y-128658620D01*
X150687353Y-128283173D01*
X150197413Y-128079732D01*
X149666914Y-128079269D01*
X149525406Y-128137739D01*
X149558228Y-128104974D01*
X149806217Y-127507750D01*
X149806781Y-126861087D01*
X149559835Y-126263431D01*
X149102974Y-125805772D01*
X148505750Y-125557783D01*
X147859087Y-125557219D01*
X147261431Y-125804165D01*
X146803772Y-126261026D01*
X146555783Y-126858250D01*
X146555219Y-127504913D01*
X146802165Y-128102569D01*
X146844304Y-128144781D01*
X146623520Y-128067073D01*
X146093801Y-128095852D01*
X145738071Y-128243200D01*
X145676417Y-128478812D01*
X138219000Y-128478812D01*
X138219000Y-126853760D01*
X138459827Y-126613353D01*
X138663268Y-126123413D01*
X138663731Y-125592914D01*
X138461146Y-125102620D01*
X138086353Y-124727173D01*
X137596413Y-124523732D01*
X137065914Y-124523269D01*
X136924406Y-124581739D01*
X136957228Y-124548974D01*
X137205217Y-123951750D01*
X137205781Y-123305087D01*
X136958835Y-122707431D01*
X136501974Y-122249772D01*
X135904750Y-122001783D01*
X135258087Y-122001219D01*
X134660431Y-122248165D01*
X134202772Y-122705026D01*
X133954783Y-123302250D01*
X133954219Y-123948913D01*
X134201165Y-124546569D01*
X134243304Y-124588781D01*
X134022520Y-124511073D01*
X133492801Y-124539852D01*
X133137071Y-124687200D01*
X133075417Y-124922812D01*
X131281652Y-124922812D01*
X131086353Y-124727173D01*
X130596413Y-124523732D01*
X130065914Y-124523269D01*
X129575620Y-124725854D01*
X129200173Y-125100647D01*
X128996732Y-125590587D01*
X128996269Y-126121086D01*
X128163270Y-126121086D01*
X128163731Y-125592914D01*
X127961146Y-125102620D01*
X127586353Y-124727173D01*
X127096413Y-124523732D01*
X126565914Y-124523269D01*
X126075620Y-124725854D01*
X125700173Y-125100647D01*
X125496732Y-125590587D01*
X125496269Y-126121086D01*
X116826000Y-126121086D01*
X116826000Y-121090118D01*
X150571037Y-121090118D01*
X150713812Y-121435659D01*
X150977951Y-121700259D01*
X151101201Y-121751437D01*
X152695388Y-123345624D01*
X152745812Y-123467659D01*
X153009951Y-123732259D01*
X153355242Y-123875637D01*
X153729118Y-123875963D01*
X154074659Y-123733188D01*
X154339259Y-123469049D01*
X154482637Y-123123758D01*
X154482963Y-122749882D01*
X154340188Y-122404341D01*
X154076049Y-122139741D01*
X153952799Y-122088563D01*
X152895717Y-121031481D01*
X155178777Y-121031481D01*
X155373995Y-121503943D01*
X155735155Y-121865735D01*
X156172182Y-122047205D01*
X155737057Y-122226995D01*
X155375265Y-122588155D01*
X155179223Y-123060276D01*
X155178777Y-123571481D01*
X155373995Y-124043943D01*
X155735155Y-124405735D01*
X156172182Y-124587205D01*
X155737057Y-124766995D01*
X155375265Y-125128155D01*
X155179223Y-125600276D01*
X155178777Y-126111481D01*
X155373995Y-126583943D01*
X155735155Y-126945735D01*
X156172182Y-127127205D01*
X155737057Y-127306995D01*
X155375265Y-127668155D01*
X155179223Y-128140276D01*
X155178777Y-128651481D01*
X155373995Y-129123943D01*
X155735155Y-129485735D01*
X156171200Y-129666797D01*
X156134572Y-129668917D01*
X155800271Y-129807389D01*
X155744590Y-130037984D01*
X156464000Y-130757395D01*
X157183410Y-130037984D01*
X157155279Y-129921481D01*
X157718777Y-129921481D01*
X157913995Y-130393943D01*
X158275155Y-130755735D01*
X158712182Y-130937205D01*
X158277057Y-131116995D01*
X157915265Y-131478155D01*
X157719223Y-131950276D01*
X157718777Y-132461481D01*
X157913995Y-132933943D01*
X158275155Y-133295735D01*
X158747276Y-133491777D01*
X159258481Y-133492223D01*
X159730943Y-133297005D01*
X160092735Y-132935845D01*
X160288777Y-132463724D01*
X160289223Y-131952519D01*
X160094005Y-131480057D01*
X159732845Y-131118265D01*
X159295818Y-130936795D01*
X159730943Y-130757005D01*
X160092735Y-130395845D01*
X160288777Y-129923724D01*
X160289223Y-129412519D01*
X160094005Y-128940057D01*
X159732845Y-128578265D01*
X159296800Y-128397203D01*
X159333428Y-128395083D01*
X159667729Y-128256611D01*
X159723410Y-128026016D01*
X159004000Y-127306605D01*
X158284590Y-128026016D01*
X158340271Y-128256611D01*
X158726860Y-128391139D01*
X158277057Y-128576995D01*
X157915265Y-128938155D01*
X157719223Y-129410276D01*
X157718777Y-129921481D01*
X157155279Y-129921481D01*
X157127729Y-129807389D01*
X156741140Y-129672861D01*
X157190943Y-129487005D01*
X157552735Y-129125845D01*
X157748777Y-128653724D01*
X157749223Y-128142519D01*
X157554005Y-127670057D01*
X157192845Y-127308265D01*
X156755818Y-127126795D01*
X157190943Y-126947005D01*
X157191871Y-126946078D01*
X157706378Y-126946078D01*
X157735917Y-127456428D01*
X157874389Y-127790729D01*
X158104984Y-127846410D01*
X158824395Y-127127000D01*
X159183605Y-127127000D01*
X159903016Y-127846410D01*
X160133611Y-127790729D01*
X160301622Y-127307922D01*
X160272083Y-126797572D01*
X160133611Y-126463271D01*
X159903016Y-126407590D01*
X159183605Y-127127000D01*
X158824395Y-127127000D01*
X158104984Y-126407590D01*
X157874389Y-126463271D01*
X157706378Y-126946078D01*
X157191871Y-126946078D01*
X157552735Y-126585845D01*
X157748777Y-126113724D01*
X157749223Y-125602519D01*
X157701085Y-125486016D01*
X158284590Y-125486016D01*
X158340271Y-125716611D01*
X158738566Y-125855213D01*
X158674572Y-125858917D01*
X158340271Y-125997389D01*
X158284590Y-126227984D01*
X159004000Y-126947395D01*
X159723410Y-126227984D01*
X159667729Y-125997389D01*
X159269434Y-125858787D01*
X159333428Y-125855083D01*
X159667729Y-125716611D01*
X159723410Y-125486016D01*
X159004000Y-124766605D01*
X158284590Y-125486016D01*
X157701085Y-125486016D01*
X157554005Y-125130057D01*
X157192845Y-124768265D01*
X156755818Y-124586795D01*
X157190943Y-124407005D01*
X157191871Y-124406078D01*
X157706378Y-124406078D01*
X157735917Y-124916428D01*
X157874389Y-125250729D01*
X158104984Y-125306410D01*
X158824395Y-124587000D01*
X159183605Y-124587000D01*
X159903016Y-125306410D01*
X160133611Y-125250729D01*
X160301622Y-124767922D01*
X160272083Y-124257572D01*
X160133611Y-123923271D01*
X159903016Y-123867590D01*
X159183605Y-124587000D01*
X158824395Y-124587000D01*
X158104984Y-123867590D01*
X157874389Y-123923271D01*
X157706378Y-124406078D01*
X157191871Y-124406078D01*
X157552735Y-124045845D01*
X157748777Y-123573724D01*
X157749223Y-123062519D01*
X157554005Y-122590057D01*
X157265934Y-122301481D01*
X157718777Y-122301481D01*
X157913995Y-122773943D01*
X158275155Y-123135735D01*
X158711200Y-123316797D01*
X158674572Y-123318917D01*
X158340271Y-123457389D01*
X158284590Y-123687984D01*
X159004000Y-124407395D01*
X159723410Y-123687984D01*
X159667729Y-123457389D01*
X159281140Y-123322861D01*
X159730943Y-123137005D01*
X160092735Y-122775845D01*
X160288777Y-122303724D01*
X160289223Y-121792519D01*
X160094005Y-121320057D01*
X159732845Y-120958265D01*
X159260724Y-120762223D01*
X158749519Y-120761777D01*
X158277057Y-120956995D01*
X157915265Y-121318155D01*
X157719223Y-121790276D01*
X157718777Y-122301481D01*
X157265934Y-122301481D01*
X157192845Y-122228265D01*
X156755818Y-122046795D01*
X157190943Y-121867005D01*
X157552735Y-121505845D01*
X157748777Y-121033724D01*
X157749223Y-120522519D01*
X157554005Y-120050057D01*
X157192845Y-119688265D01*
X156720724Y-119492223D01*
X156209519Y-119491777D01*
X155737057Y-119686995D01*
X155375265Y-120048155D01*
X155179223Y-120520276D01*
X155178777Y-121031481D01*
X152895717Y-121031481D01*
X152358612Y-120494376D01*
X152308188Y-120372341D01*
X152044049Y-120107741D01*
X151698758Y-119964363D01*
X151324882Y-119964037D01*
X150979341Y-120106812D01*
X150714741Y-120370951D01*
X150571363Y-120716242D01*
X150571037Y-121090118D01*
X116826000Y-121090118D01*
X116826000Y-119171188D01*
X145676417Y-119171188D01*
X145738071Y-119406800D01*
X146238480Y-119582927D01*
X146768199Y-119554148D01*
X147123929Y-119406800D01*
X147185583Y-119171188D01*
X146431000Y-118416605D01*
X145676417Y-119171188D01*
X116826000Y-119171188D01*
X116826000Y-118044480D01*
X145085073Y-118044480D01*
X145113852Y-118574199D01*
X145261200Y-118929929D01*
X145496812Y-118991583D01*
X146251395Y-118237000D01*
X145496812Y-117482417D01*
X145261200Y-117544071D01*
X145085073Y-118044480D01*
X116826000Y-118044480D01*
X116826000Y-116469086D01*
X125496269Y-116469086D01*
X125698854Y-116959380D01*
X126073647Y-117334827D01*
X126563587Y-117538268D01*
X127094086Y-117538731D01*
X127584380Y-117336146D01*
X127959827Y-116961353D01*
X128163268Y-116471413D01*
X128163270Y-116469086D01*
X128996269Y-116469086D01*
X129198854Y-116959380D01*
X129573647Y-117334827D01*
X130063587Y-117538268D01*
X130594086Y-117538731D01*
X131084380Y-117336146D01*
X131281681Y-117139188D01*
X133075417Y-117139188D01*
X133137071Y-117374800D01*
X133637480Y-117550927D01*
X134167199Y-117522148D01*
X134522929Y-117374800D01*
X134584583Y-117139188D01*
X133830000Y-116384605D01*
X133075417Y-117139188D01*
X131281681Y-117139188D01*
X131459827Y-116961353D01*
X131663268Y-116471413D01*
X131663668Y-116012480D01*
X132484073Y-116012480D01*
X132512852Y-116542199D01*
X132660200Y-116897929D01*
X132895812Y-116959583D01*
X133650395Y-116205000D01*
X132895812Y-115450417D01*
X132660200Y-115512071D01*
X132484073Y-116012480D01*
X131663668Y-116012480D01*
X131663731Y-115940914D01*
X131461146Y-115450620D01*
X131281652Y-115270812D01*
X133075417Y-115270812D01*
X133830000Y-116025395D01*
X133844143Y-116011253D01*
X134023748Y-116190858D01*
X134009605Y-116205000D01*
X134764188Y-116959583D01*
X134999800Y-116897929D01*
X135175927Y-116397520D01*
X135147148Y-115867801D01*
X134999800Y-115512071D01*
X134764190Y-115450418D01*
X134802422Y-115412186D01*
X135255250Y-115600217D01*
X135901913Y-115600781D01*
X136185689Y-115483527D01*
X135996732Y-115938587D01*
X135996269Y-116469086D01*
X136198854Y-116959380D01*
X136573647Y-117334827D01*
X137063587Y-117538268D01*
X137594086Y-117538731D01*
X138084380Y-117336146D01*
X138117772Y-117302812D01*
X145676417Y-117302812D01*
X146431000Y-118057395D01*
X146445143Y-118043253D01*
X146624748Y-118222858D01*
X146610605Y-118237000D01*
X147365188Y-118991583D01*
X147600800Y-118929929D01*
X147776927Y-118429520D01*
X147748148Y-117899801D01*
X147600800Y-117544071D01*
X147365190Y-117482418D01*
X147403422Y-117444186D01*
X147856250Y-117632217D01*
X148502913Y-117632781D01*
X148786689Y-117515527D01*
X148597732Y-117970587D01*
X148597269Y-118501086D01*
X148799854Y-118991380D01*
X149174647Y-119366827D01*
X149664587Y-119570268D01*
X150195086Y-119570731D01*
X150685380Y-119368146D01*
X151060827Y-118993353D01*
X151264268Y-118503413D01*
X151264731Y-117972914D01*
X151062146Y-117482620D01*
X150687353Y-117107173D01*
X150197413Y-116903732D01*
X149666914Y-116903269D01*
X149525406Y-116961739D01*
X149558228Y-116928974D01*
X149806217Y-116331750D01*
X149806781Y-115685087D01*
X149559835Y-115087431D01*
X149102974Y-114629772D01*
X148505750Y-114381783D01*
X147859087Y-114381219D01*
X147261431Y-114628165D01*
X146803772Y-115085026D01*
X146555783Y-115682250D01*
X146555219Y-116328913D01*
X146802165Y-116926569D01*
X146844304Y-116968781D01*
X146623520Y-116891073D01*
X146093801Y-116919852D01*
X145738071Y-117067200D01*
X145676417Y-117302812D01*
X138117772Y-117302812D01*
X138459827Y-116961353D01*
X138663268Y-116471413D01*
X138663731Y-115940914D01*
X138461146Y-115450620D01*
X138086353Y-115075173D01*
X137596413Y-114871732D01*
X137065914Y-114871269D01*
X136924406Y-114929739D01*
X136957228Y-114896974D01*
X137205217Y-114299750D01*
X137205439Y-114045000D01*
X160624050Y-114045000D01*
X160800417Y-114931658D01*
X161302669Y-115683331D01*
X162054342Y-116185583D01*
X162941000Y-116361950D01*
X163827658Y-116185583D01*
X164579331Y-115683331D01*
X165081583Y-114931658D01*
X165257950Y-114045000D01*
X165081583Y-113158342D01*
X164579331Y-112406669D01*
X163827658Y-111904417D01*
X162941000Y-111728050D01*
X162054342Y-111904417D01*
X161302669Y-112406669D01*
X160800417Y-113158342D01*
X160624050Y-114045000D01*
X137205439Y-114045000D01*
X137205781Y-113653087D01*
X136958835Y-113055431D01*
X136501974Y-112597772D01*
X135904750Y-112349783D01*
X135258087Y-112349219D01*
X134660431Y-112596165D01*
X134202772Y-113053026D01*
X133954783Y-113650250D01*
X133954219Y-114296913D01*
X134201165Y-114894569D01*
X134243304Y-114936781D01*
X134022520Y-114859073D01*
X133492801Y-114887852D01*
X133137071Y-115035200D01*
X133075417Y-115270812D01*
X131281652Y-115270812D01*
X131086353Y-115075173D01*
X130596413Y-114871732D01*
X130065914Y-114871269D01*
X129575620Y-115073854D01*
X129200173Y-115448647D01*
X128996732Y-115938587D01*
X128996269Y-116469086D01*
X128163270Y-116469086D01*
X128163731Y-115940914D01*
X127961146Y-115450620D01*
X127586353Y-115075173D01*
X127096413Y-114871732D01*
X126565914Y-114871269D01*
X126075620Y-115073854D01*
X125700173Y-115448647D01*
X125496732Y-115938587D01*
X125496269Y-116469086D01*
X116826000Y-116469086D01*
X116826000Y-114112467D01*
X116839420Y-114045000D01*
X117824050Y-114045000D01*
X118000417Y-114931658D01*
X118502669Y-115683331D01*
X119254342Y-116185583D01*
X120141000Y-116361950D01*
X121027658Y-116185583D01*
X121779331Y-115683331D01*
X122281583Y-114931658D01*
X122457950Y-114045000D01*
X122281583Y-113158342D01*
X121779331Y-112406669D01*
X121027658Y-111904417D01*
X120141000Y-111728050D01*
X119254342Y-111904417D01*
X118502669Y-112406669D01*
X118000417Y-113158342D01*
X117824050Y-114045000D01*
X116839420Y-114045000D01*
X117090738Y-112781541D01*
X117806429Y-111710432D01*
X118877540Y-110994738D01*
X120208467Y-110730000D01*
X162873533Y-110730000D01*
X164204459Y-110994738D01*
M02*
