G04 #@! TF.FileFunction,Copper,L2,Bot,Signal*
%FSLAX46Y46*%
G04 Gerber Fmt 4.6, Leading zero omitted, Abs format (unit mm)*
G04 Created by KiCad (PCBNEW 4.0.7-e2-6376~58~ubuntu16.04.1) date Mon Jan 22 14:14:19 2018*
%MOMM*%
%LPD*%
G01*
G04 APERTURE LIST*
%ADD10C,0.100000*%
%ADD11C,1.397000*%
%ADD12C,1.981000*%
%ADD13C,1.300000*%
%ADD14C,0.609600*%
%ADD15C,0.508000*%
%ADD16C,0.254000*%
G04 APERTURE END LIST*
D10*
D11*
X133195000Y-100457000D03*
X136695000Y-100457000D03*
D12*
X134945000Y-98227000D03*
D11*
X129695000Y-100457000D03*
X126195000Y-100457000D03*
D13*
X158369000Y-91948000D03*
X158369000Y-94488000D03*
X158369000Y-97028000D03*
X158369000Y-89408000D03*
X155829000Y-95758000D03*
X155829000Y-93218000D03*
X155829000Y-90678000D03*
X155829000Y-88138000D03*
X158369000Y-86868000D03*
X155829000Y-85598000D03*
D11*
X145796000Y-94234000D03*
X149296000Y-94234000D03*
D12*
X147546000Y-92004000D03*
D11*
X145796000Y-83058000D03*
X149296000Y-83058000D03*
D12*
X147546000Y-80828000D03*
D11*
X133195000Y-90678000D03*
X136695000Y-90678000D03*
D12*
X134945000Y-88448000D03*
D11*
X129695000Y-90678000D03*
X126195000Y-90678000D03*
X133195000Y-81026000D03*
X136695000Y-81026000D03*
D12*
X134945000Y-78796000D03*
D11*
X129695000Y-81026000D03*
X126195000Y-81026000D03*
D14*
X136652000Y-94361000D03*
X150876000Y-85725000D03*
X152908000Y-87757000D03*
D15*
X136695000Y-90678000D02*
X136695000Y-94318000D01*
X136695000Y-94318000D02*
X136652000Y-94361000D01*
X152908000Y-87757000D02*
X150876000Y-85725000D01*
D16*
G36*
X133319783Y-78471250D02*
X133319219Y-79117913D01*
X133566165Y-79715569D01*
X133608304Y-79757781D01*
X133387520Y-79680073D01*
X132857801Y-79708852D01*
X132502071Y-79856200D01*
X132440417Y-80091812D01*
X133195000Y-80846395D01*
X133209143Y-80832253D01*
X133388748Y-81011858D01*
X133374605Y-81026000D01*
X134129188Y-81780583D01*
X134364800Y-81718929D01*
X134540927Y-81218520D01*
X134512148Y-80688801D01*
X134364800Y-80333071D01*
X134129190Y-80271418D01*
X134167422Y-80233186D01*
X134620250Y-80421217D01*
X135266913Y-80421781D01*
X135550689Y-80304527D01*
X135361732Y-80759587D01*
X135361269Y-81290086D01*
X135563854Y-81780380D01*
X135938647Y-82155827D01*
X136428587Y-82359268D01*
X136959086Y-82359731D01*
X137449380Y-82157146D01*
X137482772Y-82123812D01*
X145041417Y-82123812D01*
X145796000Y-82878395D01*
X145810143Y-82864253D01*
X145989748Y-83043858D01*
X145975605Y-83058000D01*
X146730188Y-83812583D01*
X146965800Y-83750929D01*
X147141927Y-83250520D01*
X147113148Y-82720801D01*
X146965800Y-82365071D01*
X146730190Y-82303418D01*
X146768422Y-82265186D01*
X147221250Y-82453217D01*
X147867913Y-82453781D01*
X148151689Y-82336527D01*
X147962732Y-82791587D01*
X147962269Y-83322086D01*
X148164854Y-83812380D01*
X148539647Y-84187827D01*
X149029587Y-84391268D01*
X149560086Y-84391731D01*
X150050380Y-84189146D01*
X150425827Y-83814353D01*
X150629268Y-83324413D01*
X150629731Y-82793914D01*
X150427146Y-82303620D01*
X150052353Y-81928173D01*
X149562413Y-81724732D01*
X149031914Y-81724269D01*
X148890406Y-81782739D01*
X148923228Y-81749974D01*
X149171217Y-81152750D01*
X149171781Y-80506087D01*
X148924835Y-79908431D01*
X148467974Y-79450772D01*
X147870750Y-79202783D01*
X147224087Y-79202219D01*
X146626431Y-79449165D01*
X146168772Y-79906026D01*
X145920783Y-80503250D01*
X145920219Y-81149913D01*
X146167165Y-81747569D01*
X146209304Y-81789781D01*
X145988520Y-81712073D01*
X145458801Y-81740852D01*
X145103071Y-81888200D01*
X145041417Y-82123812D01*
X137482772Y-82123812D01*
X137824827Y-81782353D01*
X138028268Y-81292413D01*
X138028731Y-80761914D01*
X137826146Y-80271620D01*
X137451353Y-79896173D01*
X136961413Y-79692732D01*
X136430914Y-79692269D01*
X136289406Y-79750739D01*
X136322228Y-79717974D01*
X136570217Y-79120750D01*
X136570781Y-78474087D01*
X136449267Y-78180000D01*
X162490070Y-78180000D01*
X162768979Y-78235478D01*
X162946145Y-78353856D01*
X163064521Y-78531019D01*
X163120000Y-78809931D01*
X163120000Y-103816069D01*
X163064521Y-104094981D01*
X162946145Y-104272144D01*
X162768979Y-104390522D01*
X162490070Y-104446000D01*
X120211931Y-104446000D01*
X119933019Y-104390521D01*
X119755856Y-104272145D01*
X119637478Y-104094979D01*
X119582000Y-103816070D01*
X119582000Y-101391188D01*
X125440417Y-101391188D01*
X125502071Y-101626800D01*
X126002480Y-101802927D01*
X126532199Y-101774148D01*
X126887929Y-101626800D01*
X126949583Y-101391188D01*
X126195000Y-100636605D01*
X125440417Y-101391188D01*
X119582000Y-101391188D01*
X119582000Y-100264480D01*
X124849073Y-100264480D01*
X124877852Y-100794199D01*
X125025200Y-101149929D01*
X125260812Y-101211583D01*
X126015395Y-100457000D01*
X126374605Y-100457000D01*
X127129188Y-101211583D01*
X127364800Y-101149929D01*
X127515738Y-100721086D01*
X128361269Y-100721086D01*
X128563854Y-101211380D01*
X128938647Y-101586827D01*
X129428587Y-101790268D01*
X129959086Y-101790731D01*
X130449380Y-101588146D01*
X130824827Y-101213353D01*
X131028268Y-100723413D01*
X131028270Y-100721086D01*
X131861269Y-100721086D01*
X132063854Y-101211380D01*
X132438647Y-101586827D01*
X132928587Y-101790268D01*
X133459086Y-101790731D01*
X133949380Y-101588146D01*
X134324827Y-101213353D01*
X134528268Y-100723413D01*
X134528731Y-100192914D01*
X134339849Y-99735784D01*
X134620250Y-99852217D01*
X135266913Y-99852781D01*
X135550689Y-99735527D01*
X135361732Y-100190587D01*
X135361269Y-100721086D01*
X135563854Y-101211380D01*
X135938647Y-101586827D01*
X136428587Y-101790268D01*
X136959086Y-101790731D01*
X137449380Y-101588146D01*
X137824827Y-101213353D01*
X138028268Y-100723413D01*
X138028731Y-100192914D01*
X137826146Y-99702620D01*
X137451353Y-99327173D01*
X136961413Y-99123732D01*
X136430914Y-99123269D01*
X136289406Y-99181739D01*
X136322228Y-99148974D01*
X136570217Y-98551750D01*
X136570781Y-97905087D01*
X136323835Y-97307431D01*
X135866974Y-96849772D01*
X135402766Y-96657016D01*
X155109590Y-96657016D01*
X155165271Y-96887611D01*
X155648078Y-97055622D01*
X156158428Y-97026083D01*
X156492729Y-96887611D01*
X156548410Y-96657016D01*
X155829000Y-95937605D01*
X155109590Y-96657016D01*
X135402766Y-96657016D01*
X135269750Y-96601783D01*
X134623087Y-96601219D01*
X134025431Y-96848165D01*
X133567772Y-97305026D01*
X133319783Y-97902250D01*
X133319219Y-98548913D01*
X133566165Y-99146569D01*
X133601390Y-99181856D01*
X133461413Y-99123732D01*
X132930914Y-99123269D01*
X132440620Y-99325854D01*
X132065173Y-99700647D01*
X131861732Y-100190587D01*
X131861269Y-100721086D01*
X131028270Y-100721086D01*
X131028731Y-100192914D01*
X130826146Y-99702620D01*
X130451353Y-99327173D01*
X129961413Y-99123732D01*
X129430914Y-99123269D01*
X128940620Y-99325854D01*
X128565173Y-99700647D01*
X128361732Y-100190587D01*
X128361269Y-100721086D01*
X127515738Y-100721086D01*
X127540927Y-100649520D01*
X127512148Y-100119801D01*
X127364800Y-99764071D01*
X127129188Y-99702417D01*
X126374605Y-100457000D01*
X126015395Y-100457000D01*
X125260812Y-99702417D01*
X125025200Y-99764071D01*
X124849073Y-100264480D01*
X119582000Y-100264480D01*
X119582000Y-99522812D01*
X125440417Y-99522812D01*
X126195000Y-100277395D01*
X126949583Y-99522812D01*
X126887929Y-99287200D01*
X126387520Y-99111073D01*
X125857801Y-99139852D01*
X125502071Y-99287200D01*
X125440417Y-99522812D01*
X119582000Y-99522812D01*
X119582000Y-90942086D01*
X124861269Y-90942086D01*
X125063854Y-91432380D01*
X125438647Y-91807827D01*
X125928587Y-92011268D01*
X126459086Y-92011731D01*
X126949380Y-91809146D01*
X127324827Y-91434353D01*
X127528268Y-90944413D01*
X127528270Y-90942086D01*
X128361269Y-90942086D01*
X128563854Y-91432380D01*
X128938647Y-91807827D01*
X129428587Y-92011268D01*
X129959086Y-92011731D01*
X130449380Y-91809146D01*
X130646681Y-91612188D01*
X132440417Y-91612188D01*
X132502071Y-91847800D01*
X133002480Y-92023927D01*
X133532199Y-91995148D01*
X133887929Y-91847800D01*
X133949583Y-91612188D01*
X133195000Y-90857605D01*
X132440417Y-91612188D01*
X130646681Y-91612188D01*
X130824827Y-91434353D01*
X131028268Y-90944413D01*
X131028668Y-90485480D01*
X131849073Y-90485480D01*
X131877852Y-91015199D01*
X132025200Y-91370929D01*
X132260812Y-91432583D01*
X133015395Y-90678000D01*
X132260812Y-89923417D01*
X132025200Y-89985071D01*
X131849073Y-90485480D01*
X131028668Y-90485480D01*
X131028731Y-90413914D01*
X130826146Y-89923620D01*
X130646652Y-89743812D01*
X132440417Y-89743812D01*
X133195000Y-90498395D01*
X133209143Y-90484253D01*
X133388748Y-90663858D01*
X133374605Y-90678000D01*
X134129188Y-91432583D01*
X134364800Y-91370929D01*
X134540927Y-90870520D01*
X134512148Y-90340801D01*
X134364800Y-89985071D01*
X134129190Y-89923418D01*
X134167422Y-89885186D01*
X134620250Y-90073217D01*
X135266913Y-90073781D01*
X135550689Y-89956527D01*
X135361732Y-90411587D01*
X135361269Y-90942086D01*
X135563854Y-91432380D01*
X135806000Y-91674949D01*
X135806000Y-93947740D01*
X135712363Y-94173242D01*
X135712037Y-94547118D01*
X135854812Y-94892659D01*
X136118951Y-95157259D01*
X136464242Y-95300637D01*
X136838118Y-95300963D01*
X137159457Y-95168188D01*
X145041417Y-95168188D01*
X145103071Y-95403800D01*
X145603480Y-95579927D01*
X145655919Y-95577078D01*
X154531378Y-95577078D01*
X154560917Y-96087428D01*
X154699389Y-96421729D01*
X154929984Y-96477410D01*
X155649395Y-95758000D01*
X156008605Y-95758000D01*
X156728016Y-96477410D01*
X156958611Y-96421729D01*
X157126622Y-95938922D01*
X157097083Y-95428572D01*
X156958611Y-95094271D01*
X156728016Y-95038590D01*
X156008605Y-95758000D01*
X155649395Y-95758000D01*
X154929984Y-95038590D01*
X154699389Y-95094271D01*
X154531378Y-95577078D01*
X145655919Y-95577078D01*
X146133199Y-95551148D01*
X146488929Y-95403800D01*
X146550583Y-95168188D01*
X145796000Y-94413605D01*
X145041417Y-95168188D01*
X137159457Y-95168188D01*
X137183659Y-95158188D01*
X137448259Y-94894049D01*
X137591637Y-94548758D01*
X137591963Y-94174882D01*
X137584000Y-94155610D01*
X137584000Y-94041480D01*
X144450073Y-94041480D01*
X144478852Y-94571199D01*
X144626200Y-94926929D01*
X144861812Y-94988583D01*
X145616395Y-94234000D01*
X144861812Y-93479417D01*
X144626200Y-93541071D01*
X144450073Y-94041480D01*
X137584000Y-94041480D01*
X137584000Y-93299812D01*
X145041417Y-93299812D01*
X145796000Y-94054395D01*
X145810143Y-94040253D01*
X145989748Y-94219858D01*
X145975605Y-94234000D01*
X146730188Y-94988583D01*
X146965800Y-94926929D01*
X147141927Y-94426520D01*
X147113148Y-93896801D01*
X146965800Y-93541071D01*
X146730190Y-93479418D01*
X146768422Y-93441186D01*
X147221250Y-93629217D01*
X147867913Y-93629781D01*
X148151689Y-93512527D01*
X147962732Y-93967587D01*
X147962269Y-94498086D01*
X148164854Y-94988380D01*
X148539647Y-95363827D01*
X149029587Y-95567268D01*
X149560086Y-95567731D01*
X150050380Y-95365146D01*
X150425827Y-94990353D01*
X150629268Y-94500413D01*
X150629731Y-93969914D01*
X150427146Y-93479620D01*
X150052353Y-93104173D01*
X149562413Y-92900732D01*
X149031914Y-92900269D01*
X148890406Y-92958739D01*
X148923228Y-92925974D01*
X149171217Y-92328750D01*
X149171781Y-91682087D01*
X148924835Y-91084431D01*
X148467974Y-90626772D01*
X147870750Y-90378783D01*
X147224087Y-90378219D01*
X146626431Y-90625165D01*
X146168772Y-91082026D01*
X145920783Y-91679250D01*
X145920219Y-92325913D01*
X146167165Y-92923569D01*
X146209304Y-92965781D01*
X145988520Y-92888073D01*
X145458801Y-92916852D01*
X145103071Y-93064200D01*
X145041417Y-93299812D01*
X137584000Y-93299812D01*
X137584000Y-91674760D01*
X137824827Y-91434353D01*
X138028268Y-90944413D01*
X138028731Y-90413914D01*
X137826146Y-89923620D01*
X137451353Y-89548173D01*
X136961413Y-89344732D01*
X136430914Y-89344269D01*
X136289406Y-89402739D01*
X136322228Y-89369974D01*
X136570217Y-88772750D01*
X136570781Y-88126087D01*
X136323835Y-87528431D01*
X135866974Y-87070772D01*
X135269750Y-86822783D01*
X134623087Y-86822219D01*
X134025431Y-87069165D01*
X133567772Y-87526026D01*
X133319783Y-88123250D01*
X133319219Y-88769913D01*
X133566165Y-89367569D01*
X133608304Y-89409781D01*
X133387520Y-89332073D01*
X132857801Y-89360852D01*
X132502071Y-89508200D01*
X132440417Y-89743812D01*
X130646652Y-89743812D01*
X130451353Y-89548173D01*
X129961413Y-89344732D01*
X129430914Y-89344269D01*
X128940620Y-89546854D01*
X128565173Y-89921647D01*
X128361732Y-90411587D01*
X128361269Y-90942086D01*
X127528270Y-90942086D01*
X127528731Y-90413914D01*
X127326146Y-89923620D01*
X126951353Y-89548173D01*
X126461413Y-89344732D01*
X125930914Y-89344269D01*
X125440620Y-89546854D01*
X125065173Y-89921647D01*
X124861732Y-90411587D01*
X124861269Y-90942086D01*
X119582000Y-90942086D01*
X119582000Y-85911118D01*
X149936037Y-85911118D01*
X150078812Y-86256659D01*
X150342951Y-86521259D01*
X150466201Y-86572437D01*
X152060388Y-88166624D01*
X152110812Y-88288659D01*
X152374951Y-88553259D01*
X152720242Y-88696637D01*
X153094118Y-88696963D01*
X153439659Y-88554188D01*
X153704259Y-88290049D01*
X153847637Y-87944758D01*
X153847963Y-87570882D01*
X153705188Y-87225341D01*
X153441049Y-86960741D01*
X153317799Y-86909563D01*
X152260717Y-85852481D01*
X154543777Y-85852481D01*
X154738995Y-86324943D01*
X155100155Y-86686735D01*
X155537182Y-86868205D01*
X155102057Y-87047995D01*
X154740265Y-87409155D01*
X154544223Y-87881276D01*
X154543777Y-88392481D01*
X154738995Y-88864943D01*
X155100155Y-89226735D01*
X155537182Y-89408205D01*
X155102057Y-89587995D01*
X154740265Y-89949155D01*
X154544223Y-90421276D01*
X154543777Y-90932481D01*
X154738995Y-91404943D01*
X155100155Y-91766735D01*
X155537182Y-91948205D01*
X155102057Y-92127995D01*
X154740265Y-92489155D01*
X154544223Y-92961276D01*
X154543777Y-93472481D01*
X154738995Y-93944943D01*
X155100155Y-94306735D01*
X155536200Y-94487797D01*
X155499572Y-94489917D01*
X155165271Y-94628389D01*
X155109590Y-94858984D01*
X155829000Y-95578395D01*
X156548410Y-94858984D01*
X156520279Y-94742481D01*
X157083777Y-94742481D01*
X157278995Y-95214943D01*
X157640155Y-95576735D01*
X158077182Y-95758205D01*
X157642057Y-95937995D01*
X157280265Y-96299155D01*
X157084223Y-96771276D01*
X157083777Y-97282481D01*
X157278995Y-97754943D01*
X157640155Y-98116735D01*
X158112276Y-98312777D01*
X158623481Y-98313223D01*
X159095943Y-98118005D01*
X159457735Y-97756845D01*
X159653777Y-97284724D01*
X159654223Y-96773519D01*
X159459005Y-96301057D01*
X159097845Y-95939265D01*
X158660818Y-95757795D01*
X159095943Y-95578005D01*
X159457735Y-95216845D01*
X159653777Y-94744724D01*
X159654223Y-94233519D01*
X159459005Y-93761057D01*
X159097845Y-93399265D01*
X158661800Y-93218203D01*
X158698428Y-93216083D01*
X159032729Y-93077611D01*
X159088410Y-92847016D01*
X158369000Y-92127605D01*
X157649590Y-92847016D01*
X157705271Y-93077611D01*
X158091860Y-93212139D01*
X157642057Y-93397995D01*
X157280265Y-93759155D01*
X157084223Y-94231276D01*
X157083777Y-94742481D01*
X156520279Y-94742481D01*
X156492729Y-94628389D01*
X156106140Y-94493861D01*
X156555943Y-94308005D01*
X156917735Y-93946845D01*
X157113777Y-93474724D01*
X157114223Y-92963519D01*
X156919005Y-92491057D01*
X156557845Y-92129265D01*
X156120818Y-91947795D01*
X156555943Y-91768005D01*
X156556871Y-91767078D01*
X157071378Y-91767078D01*
X157100917Y-92277428D01*
X157239389Y-92611729D01*
X157469984Y-92667410D01*
X158189395Y-91948000D01*
X158548605Y-91948000D01*
X159268016Y-92667410D01*
X159498611Y-92611729D01*
X159666622Y-92128922D01*
X159637083Y-91618572D01*
X159498611Y-91284271D01*
X159268016Y-91228590D01*
X158548605Y-91948000D01*
X158189395Y-91948000D01*
X157469984Y-91228590D01*
X157239389Y-91284271D01*
X157071378Y-91767078D01*
X156556871Y-91767078D01*
X156917735Y-91406845D01*
X157113777Y-90934724D01*
X157114223Y-90423519D01*
X157066085Y-90307016D01*
X157649590Y-90307016D01*
X157705271Y-90537611D01*
X158103566Y-90676213D01*
X158039572Y-90679917D01*
X157705271Y-90818389D01*
X157649590Y-91048984D01*
X158369000Y-91768395D01*
X159088410Y-91048984D01*
X159032729Y-90818389D01*
X158634434Y-90679787D01*
X158698428Y-90676083D01*
X159032729Y-90537611D01*
X159088410Y-90307016D01*
X158369000Y-89587605D01*
X157649590Y-90307016D01*
X157066085Y-90307016D01*
X156919005Y-89951057D01*
X156557845Y-89589265D01*
X156120818Y-89407795D01*
X156555943Y-89228005D01*
X156556871Y-89227078D01*
X157071378Y-89227078D01*
X157100917Y-89737428D01*
X157239389Y-90071729D01*
X157469984Y-90127410D01*
X158189395Y-89408000D01*
X158548605Y-89408000D01*
X159268016Y-90127410D01*
X159498611Y-90071729D01*
X159666622Y-89588922D01*
X159637083Y-89078572D01*
X159498611Y-88744271D01*
X159268016Y-88688590D01*
X158548605Y-89408000D01*
X158189395Y-89408000D01*
X157469984Y-88688590D01*
X157239389Y-88744271D01*
X157071378Y-89227078D01*
X156556871Y-89227078D01*
X156917735Y-88866845D01*
X157113777Y-88394724D01*
X157114223Y-87883519D01*
X156919005Y-87411057D01*
X156630934Y-87122481D01*
X157083777Y-87122481D01*
X157278995Y-87594943D01*
X157640155Y-87956735D01*
X158076200Y-88137797D01*
X158039572Y-88139917D01*
X157705271Y-88278389D01*
X157649590Y-88508984D01*
X158369000Y-89228395D01*
X159088410Y-88508984D01*
X159032729Y-88278389D01*
X158646140Y-88143861D01*
X159095943Y-87958005D01*
X159457735Y-87596845D01*
X159653777Y-87124724D01*
X159654223Y-86613519D01*
X159459005Y-86141057D01*
X159097845Y-85779265D01*
X158625724Y-85583223D01*
X158114519Y-85582777D01*
X157642057Y-85777995D01*
X157280265Y-86139155D01*
X157084223Y-86611276D01*
X157083777Y-87122481D01*
X156630934Y-87122481D01*
X156557845Y-87049265D01*
X156120818Y-86867795D01*
X156555943Y-86688005D01*
X156917735Y-86326845D01*
X157113777Y-85854724D01*
X157114223Y-85343519D01*
X156919005Y-84871057D01*
X156557845Y-84509265D01*
X156085724Y-84313223D01*
X155574519Y-84312777D01*
X155102057Y-84507995D01*
X154740265Y-84869155D01*
X154544223Y-85341276D01*
X154543777Y-85852481D01*
X152260717Y-85852481D01*
X151723612Y-85315376D01*
X151673188Y-85193341D01*
X151409049Y-84928741D01*
X151063758Y-84785363D01*
X150689882Y-84785037D01*
X150344341Y-84927812D01*
X150079741Y-85191951D01*
X149936363Y-85537242D01*
X149936037Y-85911118D01*
X119582000Y-85911118D01*
X119582000Y-83992188D01*
X145041417Y-83992188D01*
X145103071Y-84227800D01*
X145603480Y-84403927D01*
X146133199Y-84375148D01*
X146488929Y-84227800D01*
X146550583Y-83992188D01*
X145796000Y-83237605D01*
X145041417Y-83992188D01*
X119582000Y-83992188D01*
X119582000Y-82865480D01*
X144450073Y-82865480D01*
X144478852Y-83395199D01*
X144626200Y-83750929D01*
X144861812Y-83812583D01*
X145616395Y-83058000D01*
X144861812Y-82303417D01*
X144626200Y-82365071D01*
X144450073Y-82865480D01*
X119582000Y-82865480D01*
X119582000Y-81290086D01*
X124861269Y-81290086D01*
X125063854Y-81780380D01*
X125438647Y-82155827D01*
X125928587Y-82359268D01*
X126459086Y-82359731D01*
X126949380Y-82157146D01*
X127324827Y-81782353D01*
X127528268Y-81292413D01*
X127528270Y-81290086D01*
X128361269Y-81290086D01*
X128563854Y-81780380D01*
X128938647Y-82155827D01*
X129428587Y-82359268D01*
X129959086Y-82359731D01*
X130449380Y-82157146D01*
X130646681Y-81960188D01*
X132440417Y-81960188D01*
X132502071Y-82195800D01*
X133002480Y-82371927D01*
X133532199Y-82343148D01*
X133887929Y-82195800D01*
X133949583Y-81960188D01*
X133195000Y-81205605D01*
X132440417Y-81960188D01*
X130646681Y-81960188D01*
X130824827Y-81782353D01*
X131028268Y-81292413D01*
X131028668Y-80833480D01*
X131849073Y-80833480D01*
X131877852Y-81363199D01*
X132025200Y-81718929D01*
X132260812Y-81780583D01*
X133015395Y-81026000D01*
X132260812Y-80271417D01*
X132025200Y-80333071D01*
X131849073Y-80833480D01*
X131028668Y-80833480D01*
X131028731Y-80761914D01*
X130826146Y-80271620D01*
X130451353Y-79896173D01*
X129961413Y-79692732D01*
X129430914Y-79692269D01*
X128940620Y-79894854D01*
X128565173Y-80269647D01*
X128361732Y-80759587D01*
X128361269Y-81290086D01*
X127528270Y-81290086D01*
X127528731Y-80761914D01*
X127326146Y-80271620D01*
X126951353Y-79896173D01*
X126461413Y-79692732D01*
X125930914Y-79692269D01*
X125440620Y-79894854D01*
X125065173Y-80269647D01*
X124861732Y-80759587D01*
X124861269Y-81290086D01*
X119582000Y-81290086D01*
X119582000Y-78809930D01*
X119637478Y-78531021D01*
X119755856Y-78353855D01*
X119933019Y-78235479D01*
X120211931Y-78180000D01*
X133440721Y-78180000D01*
X133319783Y-78471250D01*
X133319783Y-78471250D01*
G37*
X133319783Y-78471250D02*
X133319219Y-79117913D01*
X133566165Y-79715569D01*
X133608304Y-79757781D01*
X133387520Y-79680073D01*
X132857801Y-79708852D01*
X132502071Y-79856200D01*
X132440417Y-80091812D01*
X133195000Y-80846395D01*
X133209143Y-80832253D01*
X133388748Y-81011858D01*
X133374605Y-81026000D01*
X134129188Y-81780583D01*
X134364800Y-81718929D01*
X134540927Y-81218520D01*
X134512148Y-80688801D01*
X134364800Y-80333071D01*
X134129190Y-80271418D01*
X134167422Y-80233186D01*
X134620250Y-80421217D01*
X135266913Y-80421781D01*
X135550689Y-80304527D01*
X135361732Y-80759587D01*
X135361269Y-81290086D01*
X135563854Y-81780380D01*
X135938647Y-82155827D01*
X136428587Y-82359268D01*
X136959086Y-82359731D01*
X137449380Y-82157146D01*
X137482772Y-82123812D01*
X145041417Y-82123812D01*
X145796000Y-82878395D01*
X145810143Y-82864253D01*
X145989748Y-83043858D01*
X145975605Y-83058000D01*
X146730188Y-83812583D01*
X146965800Y-83750929D01*
X147141927Y-83250520D01*
X147113148Y-82720801D01*
X146965800Y-82365071D01*
X146730190Y-82303418D01*
X146768422Y-82265186D01*
X147221250Y-82453217D01*
X147867913Y-82453781D01*
X148151689Y-82336527D01*
X147962732Y-82791587D01*
X147962269Y-83322086D01*
X148164854Y-83812380D01*
X148539647Y-84187827D01*
X149029587Y-84391268D01*
X149560086Y-84391731D01*
X150050380Y-84189146D01*
X150425827Y-83814353D01*
X150629268Y-83324413D01*
X150629731Y-82793914D01*
X150427146Y-82303620D01*
X150052353Y-81928173D01*
X149562413Y-81724732D01*
X149031914Y-81724269D01*
X148890406Y-81782739D01*
X148923228Y-81749974D01*
X149171217Y-81152750D01*
X149171781Y-80506087D01*
X148924835Y-79908431D01*
X148467974Y-79450772D01*
X147870750Y-79202783D01*
X147224087Y-79202219D01*
X146626431Y-79449165D01*
X146168772Y-79906026D01*
X145920783Y-80503250D01*
X145920219Y-81149913D01*
X146167165Y-81747569D01*
X146209304Y-81789781D01*
X145988520Y-81712073D01*
X145458801Y-81740852D01*
X145103071Y-81888200D01*
X145041417Y-82123812D01*
X137482772Y-82123812D01*
X137824827Y-81782353D01*
X138028268Y-81292413D01*
X138028731Y-80761914D01*
X137826146Y-80271620D01*
X137451353Y-79896173D01*
X136961413Y-79692732D01*
X136430914Y-79692269D01*
X136289406Y-79750739D01*
X136322228Y-79717974D01*
X136570217Y-79120750D01*
X136570781Y-78474087D01*
X136449267Y-78180000D01*
X162490070Y-78180000D01*
X162768979Y-78235478D01*
X162946145Y-78353856D01*
X163064521Y-78531019D01*
X163120000Y-78809931D01*
X163120000Y-103816069D01*
X163064521Y-104094981D01*
X162946145Y-104272144D01*
X162768979Y-104390522D01*
X162490070Y-104446000D01*
X120211931Y-104446000D01*
X119933019Y-104390521D01*
X119755856Y-104272145D01*
X119637478Y-104094979D01*
X119582000Y-103816070D01*
X119582000Y-101391188D01*
X125440417Y-101391188D01*
X125502071Y-101626800D01*
X126002480Y-101802927D01*
X126532199Y-101774148D01*
X126887929Y-101626800D01*
X126949583Y-101391188D01*
X126195000Y-100636605D01*
X125440417Y-101391188D01*
X119582000Y-101391188D01*
X119582000Y-100264480D01*
X124849073Y-100264480D01*
X124877852Y-100794199D01*
X125025200Y-101149929D01*
X125260812Y-101211583D01*
X126015395Y-100457000D01*
X126374605Y-100457000D01*
X127129188Y-101211583D01*
X127364800Y-101149929D01*
X127515738Y-100721086D01*
X128361269Y-100721086D01*
X128563854Y-101211380D01*
X128938647Y-101586827D01*
X129428587Y-101790268D01*
X129959086Y-101790731D01*
X130449380Y-101588146D01*
X130824827Y-101213353D01*
X131028268Y-100723413D01*
X131028270Y-100721086D01*
X131861269Y-100721086D01*
X132063854Y-101211380D01*
X132438647Y-101586827D01*
X132928587Y-101790268D01*
X133459086Y-101790731D01*
X133949380Y-101588146D01*
X134324827Y-101213353D01*
X134528268Y-100723413D01*
X134528731Y-100192914D01*
X134339849Y-99735784D01*
X134620250Y-99852217D01*
X135266913Y-99852781D01*
X135550689Y-99735527D01*
X135361732Y-100190587D01*
X135361269Y-100721086D01*
X135563854Y-101211380D01*
X135938647Y-101586827D01*
X136428587Y-101790268D01*
X136959086Y-101790731D01*
X137449380Y-101588146D01*
X137824827Y-101213353D01*
X138028268Y-100723413D01*
X138028731Y-100192914D01*
X137826146Y-99702620D01*
X137451353Y-99327173D01*
X136961413Y-99123732D01*
X136430914Y-99123269D01*
X136289406Y-99181739D01*
X136322228Y-99148974D01*
X136570217Y-98551750D01*
X136570781Y-97905087D01*
X136323835Y-97307431D01*
X135866974Y-96849772D01*
X135402766Y-96657016D01*
X155109590Y-96657016D01*
X155165271Y-96887611D01*
X155648078Y-97055622D01*
X156158428Y-97026083D01*
X156492729Y-96887611D01*
X156548410Y-96657016D01*
X155829000Y-95937605D01*
X155109590Y-96657016D01*
X135402766Y-96657016D01*
X135269750Y-96601783D01*
X134623087Y-96601219D01*
X134025431Y-96848165D01*
X133567772Y-97305026D01*
X133319783Y-97902250D01*
X133319219Y-98548913D01*
X133566165Y-99146569D01*
X133601390Y-99181856D01*
X133461413Y-99123732D01*
X132930914Y-99123269D01*
X132440620Y-99325854D01*
X132065173Y-99700647D01*
X131861732Y-100190587D01*
X131861269Y-100721086D01*
X131028270Y-100721086D01*
X131028731Y-100192914D01*
X130826146Y-99702620D01*
X130451353Y-99327173D01*
X129961413Y-99123732D01*
X129430914Y-99123269D01*
X128940620Y-99325854D01*
X128565173Y-99700647D01*
X128361732Y-100190587D01*
X128361269Y-100721086D01*
X127515738Y-100721086D01*
X127540927Y-100649520D01*
X127512148Y-100119801D01*
X127364800Y-99764071D01*
X127129188Y-99702417D01*
X126374605Y-100457000D01*
X126015395Y-100457000D01*
X125260812Y-99702417D01*
X125025200Y-99764071D01*
X124849073Y-100264480D01*
X119582000Y-100264480D01*
X119582000Y-99522812D01*
X125440417Y-99522812D01*
X126195000Y-100277395D01*
X126949583Y-99522812D01*
X126887929Y-99287200D01*
X126387520Y-99111073D01*
X125857801Y-99139852D01*
X125502071Y-99287200D01*
X125440417Y-99522812D01*
X119582000Y-99522812D01*
X119582000Y-90942086D01*
X124861269Y-90942086D01*
X125063854Y-91432380D01*
X125438647Y-91807827D01*
X125928587Y-92011268D01*
X126459086Y-92011731D01*
X126949380Y-91809146D01*
X127324827Y-91434353D01*
X127528268Y-90944413D01*
X127528270Y-90942086D01*
X128361269Y-90942086D01*
X128563854Y-91432380D01*
X128938647Y-91807827D01*
X129428587Y-92011268D01*
X129959086Y-92011731D01*
X130449380Y-91809146D01*
X130646681Y-91612188D01*
X132440417Y-91612188D01*
X132502071Y-91847800D01*
X133002480Y-92023927D01*
X133532199Y-91995148D01*
X133887929Y-91847800D01*
X133949583Y-91612188D01*
X133195000Y-90857605D01*
X132440417Y-91612188D01*
X130646681Y-91612188D01*
X130824827Y-91434353D01*
X131028268Y-90944413D01*
X131028668Y-90485480D01*
X131849073Y-90485480D01*
X131877852Y-91015199D01*
X132025200Y-91370929D01*
X132260812Y-91432583D01*
X133015395Y-90678000D01*
X132260812Y-89923417D01*
X132025200Y-89985071D01*
X131849073Y-90485480D01*
X131028668Y-90485480D01*
X131028731Y-90413914D01*
X130826146Y-89923620D01*
X130646652Y-89743812D01*
X132440417Y-89743812D01*
X133195000Y-90498395D01*
X133209143Y-90484253D01*
X133388748Y-90663858D01*
X133374605Y-90678000D01*
X134129188Y-91432583D01*
X134364800Y-91370929D01*
X134540927Y-90870520D01*
X134512148Y-90340801D01*
X134364800Y-89985071D01*
X134129190Y-89923418D01*
X134167422Y-89885186D01*
X134620250Y-90073217D01*
X135266913Y-90073781D01*
X135550689Y-89956527D01*
X135361732Y-90411587D01*
X135361269Y-90942086D01*
X135563854Y-91432380D01*
X135806000Y-91674949D01*
X135806000Y-93947740D01*
X135712363Y-94173242D01*
X135712037Y-94547118D01*
X135854812Y-94892659D01*
X136118951Y-95157259D01*
X136464242Y-95300637D01*
X136838118Y-95300963D01*
X137159457Y-95168188D01*
X145041417Y-95168188D01*
X145103071Y-95403800D01*
X145603480Y-95579927D01*
X145655919Y-95577078D01*
X154531378Y-95577078D01*
X154560917Y-96087428D01*
X154699389Y-96421729D01*
X154929984Y-96477410D01*
X155649395Y-95758000D01*
X156008605Y-95758000D01*
X156728016Y-96477410D01*
X156958611Y-96421729D01*
X157126622Y-95938922D01*
X157097083Y-95428572D01*
X156958611Y-95094271D01*
X156728016Y-95038590D01*
X156008605Y-95758000D01*
X155649395Y-95758000D01*
X154929984Y-95038590D01*
X154699389Y-95094271D01*
X154531378Y-95577078D01*
X145655919Y-95577078D01*
X146133199Y-95551148D01*
X146488929Y-95403800D01*
X146550583Y-95168188D01*
X145796000Y-94413605D01*
X145041417Y-95168188D01*
X137159457Y-95168188D01*
X137183659Y-95158188D01*
X137448259Y-94894049D01*
X137591637Y-94548758D01*
X137591963Y-94174882D01*
X137584000Y-94155610D01*
X137584000Y-94041480D01*
X144450073Y-94041480D01*
X144478852Y-94571199D01*
X144626200Y-94926929D01*
X144861812Y-94988583D01*
X145616395Y-94234000D01*
X144861812Y-93479417D01*
X144626200Y-93541071D01*
X144450073Y-94041480D01*
X137584000Y-94041480D01*
X137584000Y-93299812D01*
X145041417Y-93299812D01*
X145796000Y-94054395D01*
X145810143Y-94040253D01*
X145989748Y-94219858D01*
X145975605Y-94234000D01*
X146730188Y-94988583D01*
X146965800Y-94926929D01*
X147141927Y-94426520D01*
X147113148Y-93896801D01*
X146965800Y-93541071D01*
X146730190Y-93479418D01*
X146768422Y-93441186D01*
X147221250Y-93629217D01*
X147867913Y-93629781D01*
X148151689Y-93512527D01*
X147962732Y-93967587D01*
X147962269Y-94498086D01*
X148164854Y-94988380D01*
X148539647Y-95363827D01*
X149029587Y-95567268D01*
X149560086Y-95567731D01*
X150050380Y-95365146D01*
X150425827Y-94990353D01*
X150629268Y-94500413D01*
X150629731Y-93969914D01*
X150427146Y-93479620D01*
X150052353Y-93104173D01*
X149562413Y-92900732D01*
X149031914Y-92900269D01*
X148890406Y-92958739D01*
X148923228Y-92925974D01*
X149171217Y-92328750D01*
X149171781Y-91682087D01*
X148924835Y-91084431D01*
X148467974Y-90626772D01*
X147870750Y-90378783D01*
X147224087Y-90378219D01*
X146626431Y-90625165D01*
X146168772Y-91082026D01*
X145920783Y-91679250D01*
X145920219Y-92325913D01*
X146167165Y-92923569D01*
X146209304Y-92965781D01*
X145988520Y-92888073D01*
X145458801Y-92916852D01*
X145103071Y-93064200D01*
X145041417Y-93299812D01*
X137584000Y-93299812D01*
X137584000Y-91674760D01*
X137824827Y-91434353D01*
X138028268Y-90944413D01*
X138028731Y-90413914D01*
X137826146Y-89923620D01*
X137451353Y-89548173D01*
X136961413Y-89344732D01*
X136430914Y-89344269D01*
X136289406Y-89402739D01*
X136322228Y-89369974D01*
X136570217Y-88772750D01*
X136570781Y-88126087D01*
X136323835Y-87528431D01*
X135866974Y-87070772D01*
X135269750Y-86822783D01*
X134623087Y-86822219D01*
X134025431Y-87069165D01*
X133567772Y-87526026D01*
X133319783Y-88123250D01*
X133319219Y-88769913D01*
X133566165Y-89367569D01*
X133608304Y-89409781D01*
X133387520Y-89332073D01*
X132857801Y-89360852D01*
X132502071Y-89508200D01*
X132440417Y-89743812D01*
X130646652Y-89743812D01*
X130451353Y-89548173D01*
X129961413Y-89344732D01*
X129430914Y-89344269D01*
X128940620Y-89546854D01*
X128565173Y-89921647D01*
X128361732Y-90411587D01*
X128361269Y-90942086D01*
X127528270Y-90942086D01*
X127528731Y-90413914D01*
X127326146Y-89923620D01*
X126951353Y-89548173D01*
X126461413Y-89344732D01*
X125930914Y-89344269D01*
X125440620Y-89546854D01*
X125065173Y-89921647D01*
X124861732Y-90411587D01*
X124861269Y-90942086D01*
X119582000Y-90942086D01*
X119582000Y-85911118D01*
X149936037Y-85911118D01*
X150078812Y-86256659D01*
X150342951Y-86521259D01*
X150466201Y-86572437D01*
X152060388Y-88166624D01*
X152110812Y-88288659D01*
X152374951Y-88553259D01*
X152720242Y-88696637D01*
X153094118Y-88696963D01*
X153439659Y-88554188D01*
X153704259Y-88290049D01*
X153847637Y-87944758D01*
X153847963Y-87570882D01*
X153705188Y-87225341D01*
X153441049Y-86960741D01*
X153317799Y-86909563D01*
X152260717Y-85852481D01*
X154543777Y-85852481D01*
X154738995Y-86324943D01*
X155100155Y-86686735D01*
X155537182Y-86868205D01*
X155102057Y-87047995D01*
X154740265Y-87409155D01*
X154544223Y-87881276D01*
X154543777Y-88392481D01*
X154738995Y-88864943D01*
X155100155Y-89226735D01*
X155537182Y-89408205D01*
X155102057Y-89587995D01*
X154740265Y-89949155D01*
X154544223Y-90421276D01*
X154543777Y-90932481D01*
X154738995Y-91404943D01*
X155100155Y-91766735D01*
X155537182Y-91948205D01*
X155102057Y-92127995D01*
X154740265Y-92489155D01*
X154544223Y-92961276D01*
X154543777Y-93472481D01*
X154738995Y-93944943D01*
X155100155Y-94306735D01*
X155536200Y-94487797D01*
X155499572Y-94489917D01*
X155165271Y-94628389D01*
X155109590Y-94858984D01*
X155829000Y-95578395D01*
X156548410Y-94858984D01*
X156520279Y-94742481D01*
X157083777Y-94742481D01*
X157278995Y-95214943D01*
X157640155Y-95576735D01*
X158077182Y-95758205D01*
X157642057Y-95937995D01*
X157280265Y-96299155D01*
X157084223Y-96771276D01*
X157083777Y-97282481D01*
X157278995Y-97754943D01*
X157640155Y-98116735D01*
X158112276Y-98312777D01*
X158623481Y-98313223D01*
X159095943Y-98118005D01*
X159457735Y-97756845D01*
X159653777Y-97284724D01*
X159654223Y-96773519D01*
X159459005Y-96301057D01*
X159097845Y-95939265D01*
X158660818Y-95757795D01*
X159095943Y-95578005D01*
X159457735Y-95216845D01*
X159653777Y-94744724D01*
X159654223Y-94233519D01*
X159459005Y-93761057D01*
X159097845Y-93399265D01*
X158661800Y-93218203D01*
X158698428Y-93216083D01*
X159032729Y-93077611D01*
X159088410Y-92847016D01*
X158369000Y-92127605D01*
X157649590Y-92847016D01*
X157705271Y-93077611D01*
X158091860Y-93212139D01*
X157642057Y-93397995D01*
X157280265Y-93759155D01*
X157084223Y-94231276D01*
X157083777Y-94742481D01*
X156520279Y-94742481D01*
X156492729Y-94628389D01*
X156106140Y-94493861D01*
X156555943Y-94308005D01*
X156917735Y-93946845D01*
X157113777Y-93474724D01*
X157114223Y-92963519D01*
X156919005Y-92491057D01*
X156557845Y-92129265D01*
X156120818Y-91947795D01*
X156555943Y-91768005D01*
X156556871Y-91767078D01*
X157071378Y-91767078D01*
X157100917Y-92277428D01*
X157239389Y-92611729D01*
X157469984Y-92667410D01*
X158189395Y-91948000D01*
X158548605Y-91948000D01*
X159268016Y-92667410D01*
X159498611Y-92611729D01*
X159666622Y-92128922D01*
X159637083Y-91618572D01*
X159498611Y-91284271D01*
X159268016Y-91228590D01*
X158548605Y-91948000D01*
X158189395Y-91948000D01*
X157469984Y-91228590D01*
X157239389Y-91284271D01*
X157071378Y-91767078D01*
X156556871Y-91767078D01*
X156917735Y-91406845D01*
X157113777Y-90934724D01*
X157114223Y-90423519D01*
X157066085Y-90307016D01*
X157649590Y-90307016D01*
X157705271Y-90537611D01*
X158103566Y-90676213D01*
X158039572Y-90679917D01*
X157705271Y-90818389D01*
X157649590Y-91048984D01*
X158369000Y-91768395D01*
X159088410Y-91048984D01*
X159032729Y-90818389D01*
X158634434Y-90679787D01*
X158698428Y-90676083D01*
X159032729Y-90537611D01*
X159088410Y-90307016D01*
X158369000Y-89587605D01*
X157649590Y-90307016D01*
X157066085Y-90307016D01*
X156919005Y-89951057D01*
X156557845Y-89589265D01*
X156120818Y-89407795D01*
X156555943Y-89228005D01*
X156556871Y-89227078D01*
X157071378Y-89227078D01*
X157100917Y-89737428D01*
X157239389Y-90071729D01*
X157469984Y-90127410D01*
X158189395Y-89408000D01*
X158548605Y-89408000D01*
X159268016Y-90127410D01*
X159498611Y-90071729D01*
X159666622Y-89588922D01*
X159637083Y-89078572D01*
X159498611Y-88744271D01*
X159268016Y-88688590D01*
X158548605Y-89408000D01*
X158189395Y-89408000D01*
X157469984Y-88688590D01*
X157239389Y-88744271D01*
X157071378Y-89227078D01*
X156556871Y-89227078D01*
X156917735Y-88866845D01*
X157113777Y-88394724D01*
X157114223Y-87883519D01*
X156919005Y-87411057D01*
X156630934Y-87122481D01*
X157083777Y-87122481D01*
X157278995Y-87594943D01*
X157640155Y-87956735D01*
X158076200Y-88137797D01*
X158039572Y-88139917D01*
X157705271Y-88278389D01*
X157649590Y-88508984D01*
X158369000Y-89228395D01*
X159088410Y-88508984D01*
X159032729Y-88278389D01*
X158646140Y-88143861D01*
X159095943Y-87958005D01*
X159457735Y-87596845D01*
X159653777Y-87124724D01*
X159654223Y-86613519D01*
X159459005Y-86141057D01*
X159097845Y-85779265D01*
X158625724Y-85583223D01*
X158114519Y-85582777D01*
X157642057Y-85777995D01*
X157280265Y-86139155D01*
X157084223Y-86611276D01*
X157083777Y-87122481D01*
X156630934Y-87122481D01*
X156557845Y-87049265D01*
X156120818Y-86867795D01*
X156555943Y-86688005D01*
X156917735Y-86326845D01*
X157113777Y-85854724D01*
X157114223Y-85343519D01*
X156919005Y-84871057D01*
X156557845Y-84509265D01*
X156085724Y-84313223D01*
X155574519Y-84312777D01*
X155102057Y-84507995D01*
X154740265Y-84869155D01*
X154544223Y-85341276D01*
X154543777Y-85852481D01*
X152260717Y-85852481D01*
X151723612Y-85315376D01*
X151673188Y-85193341D01*
X151409049Y-84928741D01*
X151063758Y-84785363D01*
X150689882Y-84785037D01*
X150344341Y-84927812D01*
X150079741Y-85191951D01*
X149936363Y-85537242D01*
X149936037Y-85911118D01*
X119582000Y-85911118D01*
X119582000Y-83992188D01*
X145041417Y-83992188D01*
X145103071Y-84227800D01*
X145603480Y-84403927D01*
X146133199Y-84375148D01*
X146488929Y-84227800D01*
X146550583Y-83992188D01*
X145796000Y-83237605D01*
X145041417Y-83992188D01*
X119582000Y-83992188D01*
X119582000Y-82865480D01*
X144450073Y-82865480D01*
X144478852Y-83395199D01*
X144626200Y-83750929D01*
X144861812Y-83812583D01*
X145616395Y-83058000D01*
X144861812Y-82303417D01*
X144626200Y-82365071D01*
X144450073Y-82865480D01*
X119582000Y-82865480D01*
X119582000Y-81290086D01*
X124861269Y-81290086D01*
X125063854Y-81780380D01*
X125438647Y-82155827D01*
X125928587Y-82359268D01*
X126459086Y-82359731D01*
X126949380Y-82157146D01*
X127324827Y-81782353D01*
X127528268Y-81292413D01*
X127528270Y-81290086D01*
X128361269Y-81290086D01*
X128563854Y-81780380D01*
X128938647Y-82155827D01*
X129428587Y-82359268D01*
X129959086Y-82359731D01*
X130449380Y-82157146D01*
X130646681Y-81960188D01*
X132440417Y-81960188D01*
X132502071Y-82195800D01*
X133002480Y-82371927D01*
X133532199Y-82343148D01*
X133887929Y-82195800D01*
X133949583Y-81960188D01*
X133195000Y-81205605D01*
X132440417Y-81960188D01*
X130646681Y-81960188D01*
X130824827Y-81782353D01*
X131028268Y-81292413D01*
X131028668Y-80833480D01*
X131849073Y-80833480D01*
X131877852Y-81363199D01*
X132025200Y-81718929D01*
X132260812Y-81780583D01*
X133015395Y-81026000D01*
X132260812Y-80271417D01*
X132025200Y-80333071D01*
X131849073Y-80833480D01*
X131028668Y-80833480D01*
X131028731Y-80761914D01*
X130826146Y-80271620D01*
X130451353Y-79896173D01*
X129961413Y-79692732D01*
X129430914Y-79692269D01*
X128940620Y-79894854D01*
X128565173Y-80269647D01*
X128361732Y-80759587D01*
X128361269Y-81290086D01*
X127528270Y-81290086D01*
X127528731Y-80761914D01*
X127326146Y-80271620D01*
X126951353Y-79896173D01*
X126461413Y-79692732D01*
X125930914Y-79692269D01*
X125440620Y-79894854D01*
X125065173Y-80269647D01*
X124861732Y-80759587D01*
X124861269Y-81290086D01*
X119582000Y-81290086D01*
X119582000Y-78809930D01*
X119637478Y-78531021D01*
X119755856Y-78353855D01*
X119933019Y-78235479D01*
X120211931Y-78180000D01*
X133440721Y-78180000D01*
X133319783Y-78471250D01*
M02*
