G04 #@! TF.FileFunction,Soldermask,Top*
%FSLAX46Y46*%
G04 Gerber Fmt 4.6, Leading zero omitted, Abs format (unit mm)*
G04 Created by KiCad (PCBNEW 4.0.7) date 05/11/18 03:08:00*
%MOMM*%
%LPD*%
G01*
G04 APERTURE LIST*
%ADD10C,0.100000*%
%ADD11C,2.900000*%
%ADD12C,2.559000*%
%ADD13C,2.076400*%
%ADD14C,3.250000*%
%ADD15C,2.400000*%
%ADD16C,3.400000*%
%ADD17C,1.900000*%
%ADD18C,3.150000*%
%ADD19C,1.700000*%
%ADD20R,1.400000X1.650000*%
%ADD21R,1.600000X1.600000*%
%ADD22R,1.100000X1.700000*%
%ADD23R,0.908000X1.670000*%
G04 APERTURE END LIST*
D10*
D11*
X117694000Y-137572000D03*
X121158000Y-131572000D03*
X114230000Y-131572000D03*
X120670000Y-122464000D03*
X114718000Y-122464000D03*
X114718000Y-144680000D03*
X120670000Y-144680000D03*
X106586000Y-136548000D03*
X106586000Y-130596000D03*
X128802000Y-136548000D03*
X128802000Y-130596000D03*
X125826000Y-125440000D03*
X109562000Y-141704000D03*
X109562000Y-125440000D03*
X125826000Y-141704000D03*
D12*
X147523200Y-127254000D03*
X147523200Y-138176000D03*
X150926800Y-138176000D03*
X150926800Y-127254000D03*
D13*
X79250540Y-139801640D03*
X81790540Y-139801640D03*
X84330540Y-139801640D03*
X86868000Y-139801640D03*
X89408000Y-139801640D03*
X91948000Y-139801640D03*
X94488000Y-139801640D03*
X94388940Y-147000000D03*
X91848940Y-147000000D03*
X89308940Y-147000000D03*
X86771480Y-147000000D03*
X84231480Y-147000000D03*
X81691480Y-147000000D03*
X79151480Y-147000000D03*
X47861600Y-139801640D03*
X50401600Y-139801640D03*
X52941600Y-139801640D03*
X55479060Y-139801640D03*
X58019060Y-139801640D03*
X60559060Y-139801640D03*
X63099060Y-139801640D03*
X63000000Y-147000000D03*
X60460000Y-147000000D03*
X57920000Y-147000000D03*
X55382540Y-147000000D03*
X52842540Y-147000000D03*
X50302540Y-147000000D03*
X47762540Y-147000000D03*
D14*
X50500000Y-113500000D03*
D15*
X57300000Y-118200000D03*
X57300000Y-51800000D03*
X39200000Y-116700000D03*
X39200000Y-53300000D03*
D16*
X54000000Y-91000000D03*
X54000000Y-67000000D03*
X54000000Y-71000000D03*
X54000000Y-75000000D03*
X54000000Y-79000000D03*
X54000000Y-83000000D03*
X54000000Y-87000000D03*
X50000000Y-69000000D03*
X50000000Y-73000000D03*
X50000000Y-81000000D03*
X50000000Y-77000000D03*
X50000000Y-85000000D03*
X50000000Y-89000000D03*
X46000000Y-87000000D03*
X46000000Y-83000000D03*
X46000000Y-75000000D03*
X46000000Y-79000000D03*
X46000000Y-71000000D03*
X46000000Y-67000000D03*
X54000000Y-63000000D03*
X50000000Y-65000000D03*
X46000000Y-63000000D03*
D14*
X50500000Y-56500000D03*
D16*
X46000000Y-91000000D03*
X50000000Y-93000000D03*
X54000000Y-95000000D03*
X46000000Y-95000000D03*
X54000000Y-99000000D03*
X50000000Y-97000000D03*
X46000000Y-99000000D03*
X54000000Y-103000000D03*
X50000000Y-101000000D03*
X46000000Y-103000000D03*
X54000000Y-107000000D03*
X50000000Y-105000000D03*
X46000000Y-107000000D03*
D17*
X97580000Y-132252000D03*
X95040000Y-132252000D03*
X84480000Y-132252000D03*
X87020000Y-132252000D03*
X95480000Y-125622000D03*
X92940000Y-125622000D03*
X90400000Y-125622000D03*
X87860000Y-125622000D03*
X94210000Y-123082000D03*
X91670000Y-123082000D03*
X89130000Y-123082000D03*
X86590000Y-123082000D03*
D18*
X97980000Y-127502000D03*
X84080000Y-127502000D03*
D19*
X109720000Y-85500000D03*
X112260000Y-85500000D03*
X114800000Y-85500000D03*
X107180000Y-85500000D03*
X113530000Y-88040000D03*
X110990000Y-88040000D03*
X108450000Y-88040000D03*
X105910000Y-88040000D03*
X104640000Y-85500000D03*
X103370000Y-88040000D03*
X102100000Y-85500000D03*
X100830000Y-88040000D03*
X99560000Y-85500000D03*
X98290000Y-88040000D03*
X97020000Y-85500000D03*
X95750000Y-88040000D03*
X94480000Y-85500000D03*
X93210000Y-88040000D03*
X91940000Y-85500000D03*
X90670000Y-88040000D03*
D20*
X66488000Y-131342000D03*
X64488000Y-131342000D03*
D21*
X74117200Y-125018800D03*
X74117200Y-122218800D03*
X71120000Y-125022000D03*
X71120000Y-122222000D03*
X77114400Y-125018800D03*
X77114400Y-122218800D03*
X66588000Y-127342000D03*
X64388000Y-127342000D03*
D14*
X143500000Y-113500000D03*
D15*
X150300000Y-118200000D03*
X150300000Y-51800000D03*
X132200000Y-116700000D03*
X132200000Y-53300000D03*
D16*
X147000000Y-91000000D03*
X147000000Y-67000000D03*
X147000000Y-71000000D03*
X147000000Y-75000000D03*
X147000000Y-79000000D03*
X147000000Y-83000000D03*
X147000000Y-87000000D03*
X143000000Y-69000000D03*
X143000000Y-73000000D03*
X143000000Y-81000000D03*
X143000000Y-77000000D03*
X143000000Y-85000000D03*
X143000000Y-89000000D03*
X139000000Y-87000000D03*
X139000000Y-83000000D03*
X139000000Y-75000000D03*
X139000000Y-79000000D03*
X139000000Y-71000000D03*
X139000000Y-67000000D03*
X147000000Y-63000000D03*
X143000000Y-65000000D03*
X139000000Y-63000000D03*
D14*
X143500000Y-56500000D03*
D16*
X139000000Y-91000000D03*
X143000000Y-93000000D03*
X147000000Y-95000000D03*
X139000000Y-95000000D03*
X147000000Y-99000000D03*
X143000000Y-97000000D03*
X139000000Y-99000000D03*
X147000000Y-103000000D03*
X143000000Y-101000000D03*
X139000000Y-103000000D03*
X147000000Y-107000000D03*
X143000000Y-105000000D03*
X139000000Y-107000000D03*
D19*
X76420000Y-109500000D03*
X78960000Y-109500000D03*
X81500000Y-109500000D03*
X80230000Y-112040000D03*
X77690000Y-112040000D03*
X75150000Y-112040000D03*
X108420000Y-109500000D03*
X110960000Y-109500000D03*
X113500000Y-109500000D03*
X105880000Y-109500000D03*
X112230000Y-112040000D03*
X109690000Y-112040000D03*
X107150000Y-112040000D03*
X104610000Y-112040000D03*
X103340000Y-109500000D03*
X102070000Y-112040000D03*
X100800000Y-109500000D03*
X99530000Y-112040000D03*
X98260000Y-109500000D03*
X96990000Y-112040000D03*
X95720000Y-109500000D03*
X94450000Y-112040000D03*
X93180000Y-109500000D03*
X91910000Y-112040000D03*
X90640000Y-109500000D03*
X89370000Y-112040000D03*
X111820000Y-97500000D03*
X114360000Y-97500000D03*
X116900000Y-97500000D03*
X109280000Y-97500000D03*
X115630000Y-100040000D03*
X113090000Y-100040000D03*
X110550000Y-100040000D03*
X108010000Y-100040000D03*
X106740000Y-97500000D03*
X105470000Y-100040000D03*
X104200000Y-97500000D03*
X102930000Y-100040000D03*
X90520000Y-97500000D03*
X93060000Y-97500000D03*
X95600000Y-97500000D03*
X87980000Y-97500000D03*
X94330000Y-100040000D03*
X91790000Y-100040000D03*
X89250000Y-100040000D03*
X86710000Y-100040000D03*
X85440000Y-97500000D03*
X84170000Y-100040000D03*
X82900000Y-97500000D03*
X81630000Y-100040000D03*
X80360000Y-97500000D03*
X79090000Y-100040000D03*
X77820000Y-97500000D03*
X76550000Y-100040000D03*
X75280000Y-97500000D03*
X74010000Y-100040000D03*
X104320000Y-61500000D03*
X106860000Y-61500000D03*
X109400000Y-61500000D03*
X101780000Y-61500000D03*
X108130000Y-64040000D03*
X105590000Y-64040000D03*
X103050000Y-64040000D03*
X100510000Y-64040000D03*
X99240000Y-61500000D03*
X97970000Y-64040000D03*
X96700000Y-61500000D03*
X95430000Y-64040000D03*
X94160000Y-61500000D03*
X92890000Y-64040000D03*
X91620000Y-61500000D03*
X90350000Y-64040000D03*
X89080000Y-61500000D03*
X87810000Y-64040000D03*
X86540000Y-61500000D03*
X85270000Y-64040000D03*
X98820000Y-73500000D03*
X101360000Y-73500000D03*
X103900000Y-73500000D03*
X96280000Y-73500000D03*
X102630000Y-76040000D03*
X100090000Y-76040000D03*
X97550000Y-76040000D03*
X95010000Y-76040000D03*
X93740000Y-73500000D03*
X92470000Y-76040000D03*
X91200000Y-73500000D03*
X89930000Y-76040000D03*
X88660000Y-73500000D03*
X87390000Y-76040000D03*
X86120000Y-73500000D03*
X84850000Y-76040000D03*
X83580000Y-73500000D03*
X82310000Y-76040000D03*
X81040000Y-73500000D03*
X79770000Y-76040000D03*
D22*
X64538000Y-129342000D03*
X66438000Y-129342000D03*
X64538000Y-125342000D03*
X66438000Y-125342000D03*
X64538000Y-123342000D03*
X66438000Y-123342000D03*
D23*
X62688000Y-123342000D03*
X61418000Y-123342000D03*
X60148000Y-123342000D03*
X58878000Y-123342000D03*
X57608000Y-123342000D03*
X56338000Y-123342000D03*
X55068000Y-123342000D03*
X53798000Y-123342000D03*
X52528000Y-123342000D03*
X51258000Y-123342000D03*
X49988000Y-123342000D03*
X48718000Y-123342000D03*
X47448000Y-123342000D03*
X46178000Y-123342000D03*
X46178000Y-132384400D03*
X47448000Y-132384400D03*
X48718000Y-132384400D03*
X49988000Y-132384400D03*
X51258000Y-132384400D03*
X52528000Y-132384400D03*
X53798000Y-132384400D03*
X55068000Y-132384400D03*
X56338000Y-132384400D03*
X57608000Y-132384400D03*
X58878000Y-132384400D03*
X60148000Y-132384400D03*
X61418000Y-132384400D03*
X62688000Y-132384400D03*
D12*
X138633200Y-127254000D03*
X138633200Y-138176000D03*
X142036800Y-138176000D03*
X142036800Y-127254000D03*
X156413200Y-127254000D03*
X156413200Y-138176000D03*
X159816800Y-138176000D03*
X159816800Y-127254000D03*
M02*
