M48
;DRILL file {KiCad 4.0.7-e2-6376~58~ubuntu16.04.1} date Mon Feb 12 21:42:07 2018
;FORMAT={-:-/ absolute / inch / decimal}
FMAT,2
INCH,TZ
T1C0.012
T2C0.031
T3C0.039
T4C0.040
%
G90
G05
M72
T1
X7.45Y-3.05
X7.45Y-3.45
X7.45Y-3.75
X7.45Y-3.85
X7.67Y-2.93
X7.8Y-3.6
X7.83Y-2.93
X7.85Y-3.45
X7.89Y-3.25
X7.94Y-3.3
X8.Y-3.45
X8.Y-4.2
X8.1Y-2.6
X8.1Y-4.
X8.15Y-3.3
X8.15Y-4.
X8.15Y-4.25
X8.2Y-3.35
X8.2Y-3.9
X8.2Y-4.2
X8.25Y-4.05
X8.35Y-2.58
X8.4Y-4.15
X8.4Y-4.25
X8.41Y-3.45
X8.45Y-3.4
X8.45Y-4.05
X8.49Y-3.45
X8.5Y-3.35
X8.5Y-3.9
X8.5Y-4.35
X8.54Y-3.4
X8.55Y-3.3
X8.6Y-2.95
X8.6Y-3.35
X8.6Y-3.8
X8.65Y-3.3
X8.65Y-4.05
X8.68Y-4.53
X8.7Y-3.45
X8.7Y-3.55
X8.7Y-3.9
X8.7Y-4.1
X8.75Y-3.35
X8.75Y-3.4
X8.8Y-3.75
X8.85Y-3.1
X8.85Y-3.3
X8.85Y-3.5
X8.9Y-3.45
X8.9Y-3.9
X8.95Y-4.1
X9.05Y-3.45
X9.1Y-3.2
X9.1Y-3.3
X9.15Y-3.55
X9.15Y-3.8
T2
X7.4Y-2.9
X7.4Y-3.
X7.4Y-3.1
X7.4Y-3.2
X7.4Y-3.3
X7.4Y-3.4
X7.4Y-3.5
X7.4Y-3.6
X7.4Y-3.7
X7.4Y-3.8
X7.5Y-2.95
X7.5Y-3.05
X7.5Y-3.15
X7.5Y-3.25
X7.5Y-3.35
X7.5Y-3.45
X7.5Y-3.55
X7.5Y-3.65
X7.5Y-3.75
X7.5Y-3.85
T3
X7.9Y-4.28
X7.9Y-4.38
X7.9Y-4.48
T4
X7.95Y-3.55
X7.95Y-3.65
X7.95Y-3.75
X8.05Y-3.55
X8.05Y-3.65
X8.05Y-3.75
T0
M30
