G04 #@! TF.FileFunction,Copper,L1,Top,Signal*
%FSLAX46Y46*%
G04 Gerber Fmt 4.6, Leading zero omitted, Abs format (unit mm)*
G04 Created by KiCad (PCBNEW 4.0.7-e2-6376~58~ubuntu16.04.1) date Mon Feb 12 21:41:58 2018*
%MOMM*%
%LPD*%
G01*
G04 APERTURE LIST*
%ADD10C,0.100000*%
%ADD11R,1.000000X1.250000*%
%ADD12R,1.250000X1.000000*%
%ADD13R,1.600000X1.000000*%
%ADD14R,1.200000X1.200000*%
%ADD15R,2.159000X1.778000*%
%ADD16R,2.500000X0.900000*%
%ADD17R,1.700000X1.700000*%
%ADD18O,1.700000X1.700000*%
%ADD19C,1.300000*%
%ADD20R,1.727200X1.727200*%
%ADD21O,1.727200X1.727200*%
%ADD22R,3.300000X8.200000*%
%ADD23R,0.700000X1.300000*%
%ADD24R,1.300000X0.700000*%
%ADD25R,3.200000X1.000000*%
%ADD26R,1.550000X0.600000*%
%ADD27R,1.060000X0.650000*%
%ADD28R,0.600000X1.500000*%
%ADD29R,1.400000X1.200000*%
%ADD30C,0.609600*%
%ADD31C,0.762000*%
%ADD32C,0.254000*%
G04 APERTURE END LIST*
D10*
D11*
X208550000Y-101600000D03*
X210550000Y-101600000D03*
D12*
X223520000Y-92440000D03*
X223520000Y-90440000D03*
D13*
X207010000Y-70890000D03*
X207010000Y-73890000D03*
D12*
X208280000Y-107680000D03*
X208280000Y-105680000D03*
D11*
X215630000Y-63500000D03*
X213630000Y-63500000D03*
D12*
X217170000Y-71390000D03*
X217170000Y-73390000D03*
X219710000Y-71390000D03*
X219710000Y-73390000D03*
X222250000Y-71390000D03*
X222250000Y-73390000D03*
X227330000Y-100600000D03*
X227330000Y-102600000D03*
D11*
X222520000Y-105410000D03*
X224520000Y-105410000D03*
D12*
X231140000Y-94250000D03*
X231140000Y-96250000D03*
D14*
X228770000Y-110490000D03*
X230970000Y-110490000D03*
X228770000Y-107950000D03*
X230970000Y-107950000D03*
D15*
X196850000Y-74422000D03*
X196850000Y-70358000D03*
D14*
X207010000Y-68410000D03*
X207010000Y-66210000D03*
X219540000Y-77470000D03*
X217340000Y-77470000D03*
D16*
X203200000Y-67130000D03*
X203200000Y-70030000D03*
D10*
G36*
X210543666Y-97035445D02*
X210154757Y-96646536D01*
X211286128Y-95515165D01*
X211675037Y-95904074D01*
X210543666Y-97035445D01*
X210543666Y-97035445D01*
G37*
G36*
X211109352Y-97601130D02*
X210720443Y-97212221D01*
X211851814Y-96080850D01*
X212240723Y-96469759D01*
X211109352Y-97601130D01*
X211109352Y-97601130D01*
G37*
G36*
X211675037Y-98166816D02*
X211286128Y-97777907D01*
X212417499Y-96646536D01*
X212806408Y-97035445D01*
X211675037Y-98166816D01*
X211675037Y-98166816D01*
G37*
G36*
X212240722Y-98732501D02*
X211851813Y-98343592D01*
X212983184Y-97212221D01*
X213372093Y-97601130D01*
X212240722Y-98732501D01*
X212240722Y-98732501D01*
G37*
G36*
X212806408Y-99298187D02*
X212417499Y-98909278D01*
X213548870Y-97777907D01*
X213937779Y-98166816D01*
X212806408Y-99298187D01*
X212806408Y-99298187D01*
G37*
G36*
X213372093Y-99863872D02*
X212983184Y-99474963D01*
X214114555Y-98343592D01*
X214503464Y-98732501D01*
X213372093Y-99863872D01*
X213372093Y-99863872D01*
G37*
G36*
X213937779Y-100429557D02*
X213548870Y-100040648D01*
X214680241Y-98909277D01*
X215069150Y-99298186D01*
X213937779Y-100429557D01*
X213937779Y-100429557D01*
G37*
G36*
X214503464Y-100995243D02*
X214114555Y-100606334D01*
X215245926Y-99474963D01*
X215634835Y-99863872D01*
X214503464Y-100995243D01*
X214503464Y-100995243D01*
G37*
G36*
X217685445Y-100606334D02*
X217296536Y-100995243D01*
X216165165Y-99863872D01*
X216554074Y-99474963D01*
X217685445Y-100606334D01*
X217685445Y-100606334D01*
G37*
G36*
X218251130Y-100040648D02*
X217862221Y-100429557D01*
X216730850Y-99298186D01*
X217119759Y-98909277D01*
X218251130Y-100040648D01*
X218251130Y-100040648D01*
G37*
G36*
X218816816Y-99474963D02*
X218427907Y-99863872D01*
X217296536Y-98732501D01*
X217685445Y-98343592D01*
X218816816Y-99474963D01*
X218816816Y-99474963D01*
G37*
G36*
X219382501Y-98909278D02*
X218993592Y-99298187D01*
X217862221Y-98166816D01*
X218251130Y-97777907D01*
X219382501Y-98909278D01*
X219382501Y-98909278D01*
G37*
G36*
X219948187Y-98343592D02*
X219559278Y-98732501D01*
X218427907Y-97601130D01*
X218816816Y-97212221D01*
X219948187Y-98343592D01*
X219948187Y-98343592D01*
G37*
G36*
X220513872Y-97777907D02*
X220124963Y-98166816D01*
X218993592Y-97035445D01*
X219382501Y-96646536D01*
X220513872Y-97777907D01*
X220513872Y-97777907D01*
G37*
G36*
X221079557Y-97212221D02*
X220690648Y-97601130D01*
X219559277Y-96469759D01*
X219948186Y-96080850D01*
X221079557Y-97212221D01*
X221079557Y-97212221D01*
G37*
G36*
X221645243Y-96646536D02*
X221256334Y-97035445D01*
X220124963Y-95904074D01*
X220513872Y-95515165D01*
X221645243Y-96646536D01*
X221645243Y-96646536D01*
G37*
G36*
X220513872Y-94984835D02*
X220124963Y-94595926D01*
X221256334Y-93464555D01*
X221645243Y-93853464D01*
X220513872Y-94984835D01*
X220513872Y-94984835D01*
G37*
G36*
X219948186Y-94419150D02*
X219559277Y-94030241D01*
X220690648Y-92898870D01*
X221079557Y-93287779D01*
X219948186Y-94419150D01*
X219948186Y-94419150D01*
G37*
G36*
X219382501Y-93853464D02*
X218993592Y-93464555D01*
X220124963Y-92333184D01*
X220513872Y-92722093D01*
X219382501Y-93853464D01*
X219382501Y-93853464D01*
G37*
G36*
X218816816Y-93287779D02*
X218427907Y-92898870D01*
X219559278Y-91767499D01*
X219948187Y-92156408D01*
X218816816Y-93287779D01*
X218816816Y-93287779D01*
G37*
G36*
X218251130Y-92722093D02*
X217862221Y-92333184D01*
X218993592Y-91201813D01*
X219382501Y-91590722D01*
X218251130Y-92722093D01*
X218251130Y-92722093D01*
G37*
G36*
X217685445Y-92156408D02*
X217296536Y-91767499D01*
X218427907Y-90636128D01*
X218816816Y-91025037D01*
X217685445Y-92156408D01*
X217685445Y-92156408D01*
G37*
G36*
X217119759Y-91590723D02*
X216730850Y-91201814D01*
X217862221Y-90070443D01*
X218251130Y-90459352D01*
X217119759Y-91590723D01*
X217119759Y-91590723D01*
G37*
G36*
X216554074Y-91025037D02*
X216165165Y-90636128D01*
X217296536Y-89504757D01*
X217685445Y-89893666D01*
X216554074Y-91025037D01*
X216554074Y-91025037D01*
G37*
G36*
X215634835Y-90636128D02*
X215245926Y-91025037D01*
X214114555Y-89893666D01*
X214503464Y-89504757D01*
X215634835Y-90636128D01*
X215634835Y-90636128D01*
G37*
G36*
X215069150Y-91201814D02*
X214680241Y-91590723D01*
X213548870Y-90459352D01*
X213937779Y-90070443D01*
X215069150Y-91201814D01*
X215069150Y-91201814D01*
G37*
G36*
X214503464Y-91767499D02*
X214114555Y-92156408D01*
X212983184Y-91025037D01*
X213372093Y-90636128D01*
X214503464Y-91767499D01*
X214503464Y-91767499D01*
G37*
G36*
X213937779Y-92333184D02*
X213548870Y-92722093D01*
X212417499Y-91590722D01*
X212806408Y-91201813D01*
X213937779Y-92333184D01*
X213937779Y-92333184D01*
G37*
G36*
X213372093Y-92898870D02*
X212983184Y-93287779D01*
X211851813Y-92156408D01*
X212240722Y-91767499D01*
X213372093Y-92898870D01*
X213372093Y-92898870D01*
G37*
G36*
X212806408Y-93464555D02*
X212417499Y-93853464D01*
X211286128Y-92722093D01*
X211675037Y-92333184D01*
X212806408Y-93464555D01*
X212806408Y-93464555D01*
G37*
G36*
X212240723Y-94030241D02*
X211851814Y-94419150D01*
X210720443Y-93287779D01*
X211109352Y-92898870D01*
X212240723Y-94030241D01*
X212240723Y-94030241D01*
G37*
G36*
X211675037Y-94595926D02*
X211286128Y-94984835D01*
X210154757Y-93853464D01*
X210543666Y-93464555D01*
X211675037Y-94595926D01*
X211675037Y-94595926D01*
G37*
D17*
X200660000Y-108712000D03*
D18*
X200660000Y-111252000D03*
X200660000Y-113792000D03*
D19*
X187960000Y-78740000D03*
X187960000Y-76200000D03*
X187960000Y-73660000D03*
X187960000Y-81280000D03*
X190500000Y-74930000D03*
X190500000Y-77470000D03*
X190500000Y-80010000D03*
X190500000Y-82550000D03*
X187960000Y-83820000D03*
X190500000Y-85090000D03*
X187960000Y-86360000D03*
X190500000Y-87630000D03*
X187960000Y-88900000D03*
X190500000Y-90170000D03*
X187960000Y-91440000D03*
X190500000Y-92710000D03*
X187960000Y-93980000D03*
X190500000Y-95250000D03*
X187960000Y-96520000D03*
X190500000Y-97790000D03*
D20*
X201930000Y-90170000D03*
D21*
X204470000Y-90170000D03*
X201930000Y-92710000D03*
X204470000Y-92710000D03*
X201930000Y-95250000D03*
X204470000Y-95250000D03*
D22*
X221170000Y-64770000D03*
X225870000Y-64770000D03*
D23*
X227010000Y-110490000D03*
X225110000Y-110490000D03*
X227010000Y-107950000D03*
X225110000Y-107950000D03*
D24*
X203200000Y-109032000D03*
X203200000Y-110932000D03*
X209550000Y-68260000D03*
X209550000Y-66360000D03*
D23*
X209870000Y-110490000D03*
X211770000Y-110490000D03*
D24*
X209550000Y-70170000D03*
X209550000Y-72070000D03*
X212090000Y-71440000D03*
X212090000Y-73340000D03*
X214630000Y-71440000D03*
X214630000Y-73340000D03*
D25*
X226060000Y-76760000D03*
X226060000Y-70560000D03*
D23*
X220660000Y-111760000D03*
X218760000Y-111760000D03*
X220660000Y-109220000D03*
X218760000Y-109220000D03*
X223200000Y-77470000D03*
X221300000Y-77470000D03*
D24*
X210820000Y-89220000D03*
X210820000Y-91120000D03*
D23*
X226380000Y-83820000D03*
X228280000Y-83820000D03*
X226380000Y-81280000D03*
X228280000Y-81280000D03*
X235900000Y-83820000D03*
X234000000Y-83820000D03*
X235900000Y-81280000D03*
X234000000Y-81280000D03*
X235900000Y-93980000D03*
X234000000Y-93980000D03*
X235900000Y-96520000D03*
X234000000Y-96520000D03*
X226380000Y-93980000D03*
X228280000Y-93980000D03*
X226380000Y-96520000D03*
X228280000Y-96520000D03*
D26*
X210660000Y-104775000D03*
X210660000Y-106045000D03*
X210660000Y-107315000D03*
X210660000Y-108585000D03*
X216060000Y-108585000D03*
X216060000Y-107315000D03*
X216060000Y-106045000D03*
X216060000Y-104775000D03*
D27*
X213530000Y-66360000D03*
X213530000Y-67310000D03*
X213530000Y-68260000D03*
X215730000Y-68260000D03*
X215730000Y-66360000D03*
X215730000Y-67310000D03*
D28*
X227330000Y-91600000D03*
X228600000Y-91600000D03*
X229870000Y-91600000D03*
X231140000Y-91600000D03*
X232410000Y-91600000D03*
X233680000Y-91600000D03*
X234950000Y-91600000D03*
X234950000Y-86200000D03*
X233680000Y-86200000D03*
X232410000Y-86200000D03*
X231140000Y-86200000D03*
X229870000Y-86200000D03*
X228600000Y-86200000D03*
X227330000Y-86200000D03*
D29*
X224620000Y-100800000D03*
X222420000Y-100800000D03*
X222420000Y-102400000D03*
X224620000Y-102400000D03*
D30*
X226060000Y-87630000D03*
X224790000Y-78740000D03*
X207010000Y-107950000D03*
X203200000Y-106680000D03*
X189230000Y-97790000D03*
X189230000Y-95250000D03*
X189230000Y-87630000D03*
X189230000Y-77470000D03*
X198882000Y-74422000D03*
X194818000Y-74422000D03*
X212090000Y-65532000D03*
X231140000Y-81280000D03*
X208280000Y-106680000D03*
X214630000Y-102870000D03*
X209550000Y-102870000D03*
X232410000Y-96520000D03*
X220980000Y-90170000D03*
X205740000Y-66040000D03*
X218440000Y-74930000D03*
X227330000Y-104140000D03*
X220472000Y-115062000D03*
X226060000Y-99060000D03*
X223520000Y-95250000D03*
X215900000Y-110490000D03*
X208280000Y-99060000D03*
X203200000Y-87630000D03*
X215900000Y-99060000D03*
X199390000Y-87630000D03*
X219710000Y-102870000D03*
X218440000Y-96520000D03*
X220980000Y-104140000D03*
X220980000Y-99060000D03*
X198120000Y-91440000D03*
X213360000Y-105410000D03*
X207010000Y-101600000D03*
X213360000Y-107950000D03*
X205740000Y-101600000D03*
X200406000Y-82550000D03*
X224790000Y-88900000D03*
X214630000Y-86360000D03*
X222250000Y-86360000D03*
X216916000Y-86360000D03*
X201676000Y-83820000D03*
X232410000Y-90170000D03*
X220980000Y-87630000D03*
X215646000Y-87630000D03*
X213614000Y-87630000D03*
X231140000Y-83820000D03*
X224790000Y-83820000D03*
X219710000Y-83820000D03*
X217170000Y-83820000D03*
X207010000Y-83820000D03*
X208280000Y-85090000D03*
X229870000Y-87630000D03*
X222250000Y-85090000D03*
X218440000Y-85090000D03*
X215900000Y-85090000D03*
D31*
X226060000Y-76760000D02*
X226060000Y-77470000D01*
X226060000Y-77470000D02*
X224790000Y-78740000D01*
D32*
X210660000Y-107315000D02*
X208645000Y-107315000D01*
X208645000Y-107315000D02*
X208280000Y-107680000D01*
X231140000Y-90170000D02*
X228600000Y-87630000D01*
X228600000Y-87630000D02*
X226060000Y-87630000D01*
X231140000Y-91600000D02*
X231140000Y-90170000D01*
X187960000Y-76200000D02*
X189230000Y-77470000D01*
X207280000Y-107680000D02*
X208280000Y-107680000D01*
X207010000Y-107950000D02*
X207280000Y-107680000D01*
X196850000Y-100330000D02*
X203200000Y-106680000D01*
X190500000Y-100330000D02*
X196850000Y-100330000D01*
X189230000Y-99060000D02*
X190500000Y-100330000D01*
X189230000Y-97790000D02*
X189230000Y-99060000D01*
X189230000Y-87630000D02*
X189230000Y-95250000D01*
X204470000Y-87630000D02*
X193040000Y-76200000D01*
X210820000Y-89220000D02*
X206060000Y-89220000D01*
X206060000Y-89220000D02*
X204470000Y-87630000D01*
X204470000Y-90170000D02*
X204470000Y-87630000D01*
X187960000Y-76200000D02*
X193040000Y-76200000D01*
X195580000Y-76200000D02*
X213360000Y-76200000D01*
X215900000Y-78740000D02*
X224790000Y-78740000D01*
X213360000Y-76200000D02*
X215900000Y-78740000D01*
X193040000Y-76200000D02*
X195580000Y-76200000D01*
X208280000Y-107680000D02*
X208280000Y-108900000D01*
X208280000Y-108900000D02*
X209870000Y-110490000D01*
X208550000Y-101600000D02*
X208984314Y-101600000D01*
X208984314Y-101600000D02*
X212611953Y-97972361D01*
X208280000Y-107680000D02*
X208010000Y-107680000D01*
X208010000Y-107680000D02*
X207010000Y-106680000D01*
X207010000Y-103140000D02*
X208550000Y-101600000D01*
X207010000Y-106680000D02*
X207010000Y-104140000D01*
X207010000Y-104140000D02*
X207010000Y-103140000D01*
X231140000Y-94250000D02*
X231140000Y-91600000D01*
X226060000Y-76760000D02*
X223910000Y-76760000D01*
X223910000Y-76760000D02*
X223200000Y-77470000D01*
D31*
X196850000Y-74422000D02*
X198882000Y-74422000D01*
X196850000Y-74422000D02*
X194818000Y-74422000D01*
X213530000Y-66360000D02*
X212918000Y-66360000D01*
X212918000Y-66360000D02*
X212090000Y-65532000D01*
D32*
X222420000Y-100800000D02*
X222920000Y-100800000D01*
X222920000Y-100800000D02*
X224520000Y-102400000D01*
X224520000Y-102400000D02*
X224620000Y-102400000D01*
X231140000Y-86200000D02*
X231140000Y-85090000D01*
X231140000Y-81280000D02*
X228280000Y-81280000D01*
X229870000Y-82550000D02*
X231140000Y-81280000D01*
X229870000Y-83820000D02*
X229870000Y-82550000D01*
X231140000Y-85090000D02*
X229870000Y-83820000D01*
X208280000Y-105680000D02*
X208280000Y-106680000D01*
X216060000Y-104775000D02*
X216060000Y-104300000D01*
X216060000Y-104300000D02*
X214630000Y-102870000D01*
X210550000Y-101600000D02*
X210550000Y-101870000D01*
X210550000Y-101870000D02*
X209550000Y-102870000D01*
X228280000Y-96520000D02*
X230870000Y-96520000D01*
X230870000Y-96520000D02*
X234000000Y-96520000D01*
X234000000Y-96520000D02*
X232410000Y-96520000D01*
X220980000Y-90170000D02*
X220980000Y-90735686D01*
X221250000Y-90440000D02*
X220980000Y-90170000D01*
X223520000Y-90440000D02*
X221250000Y-90440000D01*
X220980000Y-90735686D02*
X219188047Y-92527639D01*
X234000000Y-81280000D02*
X228280000Y-81280000D01*
X207010000Y-66210000D02*
X205910000Y-66210000D01*
X205910000Y-66210000D02*
X205740000Y-66040000D01*
X212090000Y-73340000D02*
X212090000Y-73660000D01*
X212090000Y-73660000D02*
X213360000Y-74930000D01*
X213360000Y-74930000D02*
X218440000Y-74930000D01*
X230970000Y-107950000D02*
X230970000Y-107780000D01*
X230970000Y-107780000D02*
X227330000Y-104140000D01*
X230970000Y-110490000D02*
X230970000Y-107950000D01*
X230970000Y-107950000D02*
X231140000Y-107780000D01*
X227330000Y-102600000D02*
X227330000Y-104140000D01*
X226060000Y-105410000D02*
X224520000Y-105410000D01*
X227330000Y-104140000D02*
X226060000Y-105410000D01*
X203200000Y-110932000D02*
X203200000Y-112522000D01*
X201930000Y-113792000D02*
X200660000Y-113792000D01*
X203200000Y-112522000D02*
X201930000Y-113792000D01*
X210550000Y-101600000D02*
X210550000Y-101165686D01*
X210550000Y-101165686D02*
X213177639Y-98538047D01*
X210660000Y-106045000D02*
X208645000Y-106045000D01*
X208645000Y-106045000D02*
X208280000Y-105680000D01*
X224520000Y-105410000D02*
X224520000Y-102500000D01*
X224520000Y-102500000D02*
X224620000Y-102400000D01*
X224620000Y-102400000D02*
X227130000Y-102400000D01*
X227130000Y-102400000D02*
X227330000Y-102600000D01*
X197382000Y-73890000D02*
X196850000Y-74422000D01*
X212090000Y-73340000D02*
X207560000Y-73340000D01*
X207560000Y-73340000D02*
X207010000Y-73890000D01*
X218440000Y-74930000D02*
X220980000Y-74930000D01*
X220980000Y-74930000D02*
X222250000Y-73660000D01*
X222250000Y-73660000D02*
X222250000Y-73390000D01*
X218440000Y-74930000D02*
X219710000Y-73660000D01*
X219710000Y-73660000D02*
X219710000Y-73390000D01*
X217170000Y-73390000D02*
X217170000Y-73660000D01*
X217170000Y-73660000D02*
X218440000Y-74930000D01*
X217340000Y-77470000D02*
X217340000Y-76030000D01*
X217340000Y-76030000D02*
X218440000Y-74930000D01*
X220472000Y-115062000D02*
X222758000Y-115062000D01*
X222758000Y-115062000D02*
X226060000Y-111760000D01*
X226060000Y-111760000D02*
X232410000Y-111760000D01*
X232410000Y-111760000D02*
X233680000Y-110490000D01*
X233680000Y-110490000D02*
X233680000Y-107950000D01*
X233680000Y-107950000D02*
X228600000Y-102870000D01*
X228600000Y-102870000D02*
X228600000Y-100330000D01*
X228600000Y-100330000D02*
X227330000Y-99060000D01*
X227330000Y-99060000D02*
X226060000Y-99060000D01*
X223520000Y-92440000D02*
X223520000Y-95250000D01*
X223520000Y-92440000D02*
X220407056Y-92440000D01*
X220407056Y-92440000D02*
X219753732Y-93093324D01*
X215900000Y-110490000D02*
X211770000Y-110490000D01*
D31*
X209550000Y-70170000D02*
X210500000Y-70170000D01*
X212090000Y-68580000D02*
X213210000Y-68580000D01*
X210500000Y-70170000D02*
X212090000Y-68580000D01*
X213210000Y-68580000D02*
X213530000Y-68260000D01*
X205740000Y-70030000D02*
X209410000Y-70030000D01*
X209410000Y-70030000D02*
X209550000Y-70170000D01*
X203200000Y-70030000D02*
X205740000Y-70030000D01*
X205740000Y-70030000D02*
X206150000Y-70030000D01*
X206150000Y-70030000D02*
X207010000Y-70890000D01*
D32*
X209550000Y-68260000D02*
X209550000Y-70170000D01*
X215630000Y-63500000D02*
X215630000Y-66260000D01*
X215630000Y-66260000D02*
X215730000Y-66360000D01*
D31*
X213530000Y-67310000D02*
X212090000Y-67310000D01*
X212090000Y-63500000D02*
X213630000Y-63500000D01*
X210820000Y-64770000D02*
X212090000Y-63500000D01*
X210820000Y-66040000D02*
X210820000Y-64770000D01*
X212090000Y-67310000D02*
X210820000Y-66040000D01*
X213630000Y-63500000D02*
X213630000Y-62500000D01*
X217900000Y-61500000D02*
X221170000Y-64770000D01*
X214630000Y-61500000D02*
X217900000Y-61500000D01*
X213630000Y-62500000D02*
X214630000Y-61500000D01*
D32*
X222250000Y-71390000D02*
X225230000Y-71390000D01*
X225230000Y-71390000D02*
X226060000Y-70560000D01*
X214630000Y-73340000D02*
X214950000Y-73340000D01*
X214950000Y-73340000D02*
X216900000Y-71390000D01*
X216900000Y-71390000D02*
X219710000Y-71390000D01*
X219710000Y-71390000D02*
X222250000Y-71390000D01*
D31*
X225870000Y-64770000D02*
X225870000Y-70370000D01*
X225870000Y-70370000D02*
X226060000Y-70560000D01*
D32*
X224620000Y-100800000D02*
X227130000Y-100800000D01*
X227130000Y-100800000D02*
X227330000Y-100600000D01*
X224620000Y-100800000D02*
X224620000Y-100160000D01*
X219282944Y-100330000D02*
X218056676Y-99103732D01*
X220980000Y-100330000D02*
X219282944Y-100330000D01*
X222250000Y-99060000D02*
X220980000Y-100330000D01*
X223520000Y-99060000D02*
X222250000Y-99060000D01*
X224620000Y-100160000D02*
X223520000Y-99060000D01*
X220510000Y-102400000D02*
X220221573Y-102400000D01*
X222420000Y-102400000D02*
X220510000Y-102400000D01*
X220221573Y-102400000D02*
X217490990Y-99669417D01*
X222520000Y-105410000D02*
X222520000Y-102500000D01*
X222520000Y-102500000D02*
X222420000Y-102400000D01*
X227010000Y-110490000D02*
X228770000Y-110490000D01*
X227010000Y-107950000D02*
X228770000Y-107950000D01*
D31*
X196850000Y-70358000D02*
X192532000Y-70358000D01*
X190500000Y-72390000D02*
X190500000Y-74930000D01*
X192532000Y-70358000D02*
X190500000Y-72390000D01*
X203200000Y-67130000D02*
X200840000Y-67130000D01*
X198120000Y-69850000D02*
X196850000Y-69850000D01*
X200840000Y-67130000D02*
X198120000Y-69850000D01*
D32*
X207010000Y-68410000D02*
X207500000Y-68410000D01*
X207500000Y-68410000D02*
X209550000Y-66360000D01*
X221300000Y-77470000D02*
X219540000Y-77470000D01*
X201930000Y-90170000D02*
X201930000Y-87630000D01*
X193040000Y-78740000D02*
X187960000Y-78740000D01*
X201930000Y-87630000D02*
X193040000Y-78740000D01*
X201930000Y-90170000D02*
X200660000Y-90170000D01*
X209400202Y-97790000D02*
X210914897Y-96275305D01*
X200660000Y-97790000D02*
X209400202Y-97790000D01*
X199390000Y-96520000D02*
X200660000Y-97790000D01*
X199390000Y-91440000D02*
X199390000Y-96520000D01*
X200660000Y-90170000D02*
X199390000Y-91440000D01*
X208280000Y-99060000D02*
X209261573Y-99060000D01*
X209261573Y-99060000D02*
X211480583Y-96840990D01*
X190500000Y-77470000D02*
X193040000Y-77470000D01*
X193040000Y-77470000D02*
X203200000Y-87630000D01*
X210660000Y-104775000D02*
X210660000Y-103030000D01*
X212090000Y-100757056D02*
X213743324Y-99103732D01*
X212090000Y-101600000D02*
X212090000Y-100757056D01*
X210660000Y-103030000D02*
X212090000Y-101600000D01*
X210660000Y-108585000D02*
X211455000Y-108585000D01*
X211455000Y-108585000D02*
X212090000Y-107950000D01*
X212090000Y-107950000D02*
X212090000Y-102870000D01*
X212090000Y-102870000D02*
X212852000Y-102108000D01*
X212852000Y-102108000D02*
X212852000Y-101126427D01*
X212852000Y-101126427D02*
X214309010Y-99669417D01*
X217170000Y-104140000D02*
X217170000Y-102870000D01*
X217170000Y-110490000D02*
X217170000Y-104140000D01*
X218440000Y-111760000D02*
X217170000Y-110490000D01*
X217170000Y-102870000D02*
X214874695Y-100574695D01*
X214874695Y-100574695D02*
X214874695Y-100235103D01*
X218760000Y-111760000D02*
X218440000Y-111760000D01*
X218760000Y-109220000D02*
X218760000Y-102069798D01*
X218760000Y-102069798D02*
X216925305Y-100235103D01*
X217874314Y-97790000D02*
X218622361Y-98538047D01*
X217170000Y-97790000D02*
X217874314Y-97790000D01*
X215900000Y-99060000D02*
X217170000Y-97790000D01*
X190500000Y-80010000D02*
X191770000Y-80010000D01*
X191770000Y-80010000D02*
X199390000Y-87630000D01*
X236220000Y-97790000D02*
X221268427Y-97790000D01*
X235900000Y-93980000D02*
X237490000Y-95570000D01*
X237490000Y-96520000D02*
X237490000Y-95570000D01*
X236220000Y-97790000D02*
X237490000Y-96520000D01*
X221268427Y-97790000D02*
X220319417Y-96840990D01*
X234950000Y-91600000D02*
X234950000Y-93030000D01*
X234950000Y-93030000D02*
X235900000Y-93980000D01*
X220885103Y-96275305D02*
X224084695Y-96275305D01*
X224084695Y-96275305D02*
X226380000Y-93980000D01*
X227330000Y-91600000D02*
X227330000Y-93030000D01*
X227330000Y-93030000D02*
X226380000Y-93980000D01*
X227330000Y-86200000D02*
X223252944Y-86200000D01*
X223252944Y-86200000D02*
X218056676Y-91396268D01*
X227330000Y-86200000D02*
X227330000Y-84770000D01*
X227330000Y-84770000D02*
X226380000Y-83820000D01*
X223520000Y-110490000D02*
X219710000Y-106680000D01*
X219710000Y-106680000D02*
X219710000Y-102870000D01*
X218440000Y-96520000D02*
X215900000Y-93980000D01*
X215900000Y-93980000D02*
X215900000Y-92421573D01*
X217490990Y-90830583D02*
X215900000Y-92421573D01*
X223520000Y-110490000D02*
X225110000Y-110490000D01*
X220980000Y-99060000D02*
X220980000Y-98632944D01*
X223520000Y-107950000D02*
X220980000Y-105410000D01*
X220980000Y-105410000D02*
X220980000Y-104140000D01*
X225110000Y-107950000D02*
X223520000Y-107950000D01*
X220980000Y-98632944D02*
X219753732Y-97406676D01*
X234950000Y-86200000D02*
X236060000Y-86200000D01*
X213360000Y-89881573D02*
X214309010Y-90830583D01*
X213360000Y-88900000D02*
X213360000Y-89881573D01*
X222250000Y-80010000D02*
X213360000Y-88900000D01*
X236220000Y-80010000D02*
X222250000Y-80010000D01*
X237170000Y-80960000D02*
X236220000Y-80010000D01*
X237170000Y-85090000D02*
X237170000Y-80960000D01*
X236060000Y-86200000D02*
X237170000Y-85090000D01*
X234950000Y-86200000D02*
X234950000Y-84770000D01*
X234950000Y-84770000D02*
X235900000Y-83820000D01*
X205740000Y-93980000D02*
X206756000Y-92964000D01*
X203200000Y-93980000D02*
X205740000Y-93980000D01*
X201930000Y-95250000D02*
X203200000Y-93980000D01*
X210820000Y-92964000D02*
X210820000Y-92998427D01*
X206756000Y-92964000D02*
X210820000Y-92964000D01*
X210820000Y-91120000D02*
X210820000Y-92998427D01*
X210820000Y-92998427D02*
X211480583Y-93659010D01*
X187960000Y-81280000D02*
X191770000Y-81280000D01*
X198120000Y-87630000D02*
X198120000Y-91440000D01*
X191770000Y-81280000D02*
X198120000Y-87630000D01*
X203200000Y-109032000D02*
X200980000Y-109032000D01*
X200980000Y-109032000D02*
X200660000Y-108712000D01*
X187960000Y-96520000D02*
X187960000Y-100838000D01*
X198374000Y-111252000D02*
X200660000Y-111252000D01*
X187960000Y-100838000D02*
X198374000Y-111252000D01*
X187960000Y-93980000D02*
X187960000Y-96520000D01*
X190500000Y-92710000D02*
X190500000Y-95250000D01*
X190500000Y-95250000D02*
X189230000Y-96520000D01*
X189230000Y-96520000D02*
X187960000Y-96520000D01*
X190500000Y-82550000D02*
X191770000Y-82550000D01*
X213995000Y-106045000D02*
X216060000Y-106045000D01*
X213360000Y-105410000D02*
X213995000Y-106045000D01*
X204470000Y-99060000D02*
X207010000Y-101600000D01*
X200660000Y-99060000D02*
X204470000Y-99060000D01*
X196850000Y-95250000D02*
X200660000Y-99060000D01*
X196850000Y-87630000D02*
X196850000Y-95250000D01*
X191770000Y-82550000D02*
X196850000Y-87630000D01*
X187960000Y-83820000D02*
X191770000Y-83820000D01*
X213995000Y-107315000D02*
X216060000Y-107315000D01*
X213360000Y-107950000D02*
X213995000Y-107315000D01*
X204470000Y-100330000D02*
X205740000Y-101600000D01*
X200660000Y-100330000D02*
X204470000Y-100330000D01*
X195580000Y-95250000D02*
X200660000Y-100330000D01*
X195580000Y-87630000D02*
X195580000Y-95250000D01*
X191770000Y-83820000D02*
X195580000Y-87630000D01*
X190500000Y-85090000D02*
X191770000Y-85090000D01*
X219390000Y-113030000D02*
X220660000Y-111760000D01*
X218440000Y-113030000D02*
X219390000Y-113030000D01*
X217170000Y-111760000D02*
X218440000Y-113030000D01*
X209550000Y-111760000D02*
X217170000Y-111760000D01*
X205740000Y-107950000D02*
X209550000Y-111760000D01*
X205740000Y-102870000D02*
X205740000Y-107950000D01*
X204470000Y-101600000D02*
X205740000Y-102870000D01*
X200660000Y-101600000D02*
X204470000Y-101600000D01*
X194310000Y-95250000D02*
X200660000Y-101600000D01*
X194310000Y-87630000D02*
X194310000Y-95250000D01*
X191770000Y-85090000D02*
X194310000Y-87630000D01*
X187960000Y-86360000D02*
X191770000Y-86360000D01*
X222250000Y-110490000D02*
X220980000Y-109220000D01*
X222250000Y-113030000D02*
X222250000Y-110490000D01*
X220980000Y-114300000D02*
X222250000Y-113030000D01*
X219710000Y-114300000D02*
X220980000Y-114300000D01*
X218440000Y-114300000D02*
X219710000Y-114300000D01*
X217170000Y-113030000D02*
X218440000Y-114300000D01*
X209550000Y-113030000D02*
X217170000Y-113030000D01*
X204470000Y-107950000D02*
X209550000Y-113030000D01*
X204470000Y-104140000D02*
X204470000Y-107950000D01*
X203200000Y-102870000D02*
X204470000Y-104140000D01*
X200660000Y-102870000D02*
X203200000Y-102870000D01*
X193040000Y-95250000D02*
X200660000Y-102870000D01*
X193040000Y-87630000D02*
X193040000Y-95250000D01*
X191770000Y-86360000D02*
X193040000Y-87630000D01*
X220980000Y-109220000D02*
X220660000Y-109220000D01*
X229870000Y-91600000D02*
X229870000Y-90170000D01*
X228600000Y-88900000D02*
X229870000Y-90170000D01*
X224790000Y-88900000D02*
X228600000Y-88900000D01*
X214630000Y-86360000D02*
X209550000Y-86360000D01*
X204470000Y-82550000D02*
X208280000Y-86360000D01*
X208280000Y-86360000D02*
X209550000Y-86360000D01*
X204470000Y-82550000D02*
X200406000Y-82550000D01*
X216916000Y-86360000D02*
X222250000Y-86360000D01*
X213360000Y-87630000D02*
X213614000Y-87630000D01*
X201676000Y-83820000D02*
X204470000Y-83820000D01*
X204470000Y-83820000D02*
X205740000Y-85090000D01*
X208280000Y-87630000D02*
X209550000Y-87630000D01*
X205740000Y-85090000D02*
X208280000Y-87630000D01*
X213360000Y-87630000D02*
X209550000Y-87630000D01*
X232410000Y-90170000D02*
X232410000Y-91600000D01*
X215646000Y-87630000D02*
X220980000Y-87630000D01*
X232410000Y-85090000D02*
X232410000Y-86200000D01*
X231140000Y-83820000D02*
X232410000Y-85090000D01*
X219710000Y-83820000D02*
X224790000Y-83820000D01*
X207010000Y-83820000D02*
X217170000Y-83820000D01*
X229870000Y-87630000D02*
X229870000Y-86200000D01*
X218440000Y-85090000D02*
X222250000Y-85090000D01*
X208280000Y-85090000D02*
X215900000Y-85090000D01*
X214630000Y-68580000D02*
X214630000Y-67564000D01*
X214630000Y-68580000D02*
X213360000Y-69850000D01*
X213360000Y-69850000D02*
X212090000Y-69850000D01*
X212090000Y-69850000D02*
X210820000Y-71120000D01*
X210820000Y-71120000D02*
X210500000Y-71120000D01*
X209550000Y-72070000D02*
X210500000Y-71120000D01*
X214884000Y-67310000D02*
X215730000Y-67310000D01*
X214630000Y-67564000D02*
X214884000Y-67310000D01*
X215730000Y-68260000D02*
X215730000Y-70340000D01*
X215730000Y-70340000D02*
X214630000Y-71440000D01*
X214630000Y-71440000D02*
X212090000Y-71440000D01*
X228280000Y-83820000D02*
X228280000Y-83180000D01*
X228280000Y-83180000D02*
X226380000Y-81280000D01*
X228600000Y-86200000D02*
X228600000Y-84140000D01*
X228600000Y-84140000D02*
X228280000Y-83820000D01*
X234000000Y-83820000D02*
X234000000Y-83180000D01*
X234000000Y-83180000D02*
X235900000Y-81280000D01*
X233680000Y-86200000D02*
X233680000Y-84140000D01*
X233680000Y-84140000D02*
X234000000Y-83820000D01*
X234000000Y-93980000D02*
X234000000Y-94620000D01*
X234000000Y-94620000D02*
X235900000Y-96520000D01*
X233680000Y-91600000D02*
X233680000Y-93660000D01*
X233680000Y-93660000D02*
X234000000Y-93980000D01*
X228280000Y-93980000D02*
X228280000Y-94620000D01*
X228280000Y-94620000D02*
X226380000Y-96520000D01*
X228600000Y-91600000D02*
X228600000Y-93660000D01*
X228600000Y-93660000D02*
X228280000Y-93980000D01*
M02*
