G04 #@! TF.FileFunction,Soldermask,Top*
%FSLAX46Y46*%
G04 Gerber Fmt 4.6, Leading zero omitted, Abs format (unit mm)*
G04 Created by KiCad (PCBNEW 4.0.7-e2-6376~58~ubuntu16.04.1) date Sun Jan 14 22:12:21 2018*
%MOMM*%
%LPD*%
G01*
G04 APERTURE LIST*
%ADD10C,0.100000*%
%ADD11R,1.100000X1.700000*%
%ADD12C,1.700000*%
%ADD13C,1.797000*%
%ADD14C,2.381000*%
%ADD15R,1.700000X1.100000*%
%ADD16R,1.300000X1.200000*%
%ADD17R,1.400000X1.650000*%
%ADD18C,2.200000*%
%ADD19R,2.900000X1.300000*%
%ADD20R,0.750000X2.000000*%
%ADD21R,2.559000X2.178000*%
%ADD22R,1.600000X1.600000*%
%ADD23R,1.460000X1.050000*%
G04 APERTURE END LIST*
D10*
D11*
X151127500Y-92824300D03*
X149227500Y-92824300D03*
D12*
X141922500Y-108204000D03*
X141922500Y-105664000D03*
X141922500Y-103124000D03*
X141922500Y-110744000D03*
X144462500Y-104394000D03*
X144462500Y-106934000D03*
X144462500Y-109474000D03*
X144462500Y-112014000D03*
D13*
X166870260Y-96019620D03*
X163370260Y-96019620D03*
D14*
X165120260Y-98249620D03*
D15*
X150898860Y-107332740D03*
X150898860Y-109232740D03*
X150771860Y-104584540D03*
X150771860Y-102684540D03*
X150807420Y-100043020D03*
X150807420Y-98143020D03*
D11*
X154795260Y-106641900D03*
X152895260Y-106641900D03*
D15*
X158940500Y-92636300D03*
X158940500Y-94536300D03*
D16*
X162391380Y-101180860D03*
X162391380Y-103080860D03*
X164491380Y-102130860D03*
D17*
X153537160Y-116481860D03*
X151537160Y-116481860D03*
D18*
X157416500Y-113317020D03*
X167576500Y-113317020D03*
X175196500Y-113317020D03*
X157416500Y-105697020D03*
D19*
X147835620Y-106568580D03*
X147835620Y-109468580D03*
D20*
X152220500Y-98672300D03*
X152870500Y-98672300D03*
X153520500Y-98672300D03*
X154170500Y-98672300D03*
X154820500Y-98672300D03*
X155470500Y-98672300D03*
X156120500Y-98672300D03*
X156770500Y-98672300D03*
X156770500Y-93072300D03*
X156120500Y-93072300D03*
X155470500Y-93072300D03*
X154820500Y-93072300D03*
X154170500Y-93072300D03*
X153520500Y-93072300D03*
X152870500Y-93072300D03*
X152220500Y-93072300D03*
D21*
X147980400Y-99098100D03*
X147980400Y-103162100D03*
D22*
X154348180Y-109087460D03*
X154348180Y-111887460D03*
D16*
X157240260Y-101241820D03*
X157240260Y-103141820D03*
X159340260Y-102191820D03*
D11*
X153344920Y-114170460D03*
X151444920Y-114170460D03*
X151127500Y-95364300D03*
X149227500Y-95364300D03*
D23*
X155156260Y-103400940D03*
X155156260Y-102450940D03*
X155156260Y-101500940D03*
X152956260Y-101500940D03*
X152956260Y-103400940D03*
D22*
X158483300Y-97027820D03*
X158483300Y-99227820D03*
X149397900Y-112448340D03*
X147197900Y-112448340D03*
M02*
