M48
;DRILL file {KiCad 4.0.7-e2-6376~58~ubuntu16.04.1} date Sun Jan 14 22:12:22 2018
;FORMAT={-:-/ absolute / inch / decimal}
FMAT,2
INCH,TZ
T1C0.012
T2C0.031
T3C0.040
T4C0.051
T5C0.063
%
G90
G05
M72
T1
X5.8525Y-4.2645
X5.8775Y-4.4995
X5.8975Y-3.9745
X5.8975Y-4.3395
X5.91Y-3.65
X5.9325Y-3.8945
X6.0026Y-3.95
X6.0575Y-4.1995
X6.0625Y-4.0695
X6.0779Y-3.9499
X6.15Y-3.81
X6.1825Y-3.9445
X6.29Y-4.07
T2
X5.5875Y-4.06
X5.5875Y-4.16
X5.5875Y-4.26
X5.5875Y-4.36
X5.6875Y-4.11
X5.6875Y-4.21
X5.6875Y-4.31
X5.6875Y-4.41
T3
X6.4319Y-3.7803
X6.5697Y-3.7803
T4
X6.1975Y-4.1613
X6.1975Y-4.4613
X6.5975Y-4.4613
X6.8975Y-4.4613
T5
X6.5008Y-3.8681
T0
M30
