G04 #@! TF.FileFunction,Copper,L1,Top,Signal*
%FSLAX46Y46*%
G04 Gerber Fmt 4.6, Leading zero omitted, Abs format (unit mm)*
G04 Created by KiCad (PCBNEW 4.0.7-e2-6376~58~ubuntu16.04.1) date Sun Jan 14 22:12:21 2018*
%MOMM*%
%LPD*%
G01*
G04 APERTURE LIST*
%ADD10C,0.100000*%
%ADD11R,0.700000X1.300000*%
%ADD12C,1.300000*%
%ADD13C,1.397000*%
%ADD14C,1.981000*%
%ADD15R,1.300000X0.700000*%
%ADD16R,0.900000X0.800000*%
%ADD17R,1.000000X1.250000*%
%ADD18C,1.800000*%
%ADD19R,2.500000X0.900000*%
%ADD20R,0.350000X1.600000*%
%ADD21R,2.159000X1.778000*%
%ADD22R,1.200000X1.200000*%
%ADD23R,1.060000X0.650000*%
%ADD24C,0.609600*%
%ADD25C,0.508000*%
%ADD26C,0.381000*%
%ADD27C,0.254000*%
%ADD28C,0.762000*%
G04 APERTURE END LIST*
D10*
D11*
X151127500Y-92824300D03*
X149227500Y-92824300D03*
D12*
X141922500Y-108204000D03*
X141922500Y-105664000D03*
X141922500Y-103124000D03*
X141922500Y-110744000D03*
X144462500Y-104394000D03*
X144462500Y-106934000D03*
X144462500Y-109474000D03*
X144462500Y-112014000D03*
D13*
X166870260Y-96019620D03*
X163370260Y-96019620D03*
D14*
X165120260Y-98249620D03*
D15*
X150898860Y-107332740D03*
X150898860Y-109232740D03*
X150771860Y-104584540D03*
X150771860Y-102684540D03*
X150807420Y-100043020D03*
X150807420Y-98143020D03*
D11*
X154795260Y-106641900D03*
X152895260Y-106641900D03*
D15*
X158940500Y-92636300D03*
X158940500Y-94536300D03*
D16*
X162391380Y-101180860D03*
X162391380Y-103080860D03*
X164491380Y-102130860D03*
D17*
X153537160Y-116481860D03*
X151537160Y-116481860D03*
D18*
X157416500Y-113317020D03*
X167576500Y-113317020D03*
X175196500Y-113317020D03*
X157416500Y-105697020D03*
D19*
X147835620Y-106568580D03*
X147835620Y-109468580D03*
D20*
X152220500Y-98672300D03*
X152870500Y-98672300D03*
X153520500Y-98672300D03*
X154170500Y-98672300D03*
X154820500Y-98672300D03*
X155470500Y-98672300D03*
X156120500Y-98672300D03*
X156770500Y-98672300D03*
X156770500Y-93072300D03*
X156120500Y-93072300D03*
X155470500Y-93072300D03*
X154820500Y-93072300D03*
X154170500Y-93072300D03*
X153520500Y-93072300D03*
X152870500Y-93072300D03*
X152220500Y-93072300D03*
D21*
X147980400Y-99098100D03*
X147980400Y-103162100D03*
D22*
X154348180Y-109087460D03*
X154348180Y-111887460D03*
D16*
X157240260Y-101241820D03*
X157240260Y-103141820D03*
X159340260Y-102191820D03*
D11*
X153344920Y-114170460D03*
X151444920Y-114170460D03*
X151127500Y-95364300D03*
X149227500Y-95364300D03*
D23*
X155156260Y-103400940D03*
X155156260Y-102450940D03*
X155156260Y-101500940D03*
X152956260Y-101500940D03*
X152956260Y-103400940D03*
D22*
X158483300Y-97027820D03*
X158483300Y-99227820D03*
X149397900Y-112448340D03*
X147197900Y-112448340D03*
D24*
X159766000Y-103378000D03*
X150114000Y-92710000D03*
X156210000Y-96774000D03*
X149288500Y-114287300D03*
X150685500Y-98920300D03*
X153987500Y-103365300D03*
X157035500Y-100190300D03*
X153860500Y-106667300D03*
X152466040Y-100330000D03*
X149796500Y-110223300D03*
X148653500Y-108318300D03*
X154377792Y-100326592D03*
X149796500Y-100952300D03*
D25*
X155156260Y-104592120D02*
X155156260Y-103400940D01*
X154795260Y-106641900D02*
X154795260Y-104953120D01*
X154795260Y-104953120D02*
X155156260Y-104592120D01*
D26*
X153344920Y-114170460D02*
X153344920Y-116289620D01*
X153344920Y-116289620D02*
X153537160Y-116481860D01*
X153344920Y-114170460D02*
X153344920Y-113139460D01*
X153344920Y-113139460D02*
X152486680Y-112281220D01*
X152486680Y-112281220D02*
X152486680Y-108999718D01*
X152486680Y-108999718D02*
X154795260Y-106691138D01*
X154795260Y-106691138D02*
X154795260Y-106641900D01*
D25*
X147980400Y-99098100D02*
X147980400Y-97408962D01*
X147980400Y-97408962D02*
X149227500Y-96161862D01*
X149227500Y-96161862D02*
X149227500Y-95364300D01*
X149227500Y-92824300D02*
X149999700Y-92824300D01*
X149999700Y-92824300D02*
X150114000Y-92710000D01*
X149227500Y-95364300D02*
X149227500Y-92824300D01*
X149288500Y-114287300D02*
X151328080Y-114287300D01*
X151328080Y-114287300D02*
X151444920Y-114170460D01*
X149288500Y-114287300D02*
X149342600Y-114287300D01*
X149342600Y-114287300D02*
X151537160Y-116481860D01*
X149288500Y-114287300D02*
X147928860Y-114287300D01*
X147928860Y-114287300D02*
X147197900Y-113556340D01*
X147197900Y-113556340D02*
X147197900Y-112448340D01*
X162391380Y-103080860D02*
X160063140Y-103080860D01*
X160063140Y-103080860D02*
X159766000Y-103378000D01*
X157240260Y-103141820D02*
X159529820Y-103141820D01*
X159529820Y-103141820D02*
X159766000Y-103378000D01*
X155156260Y-102450940D02*
X156549380Y-102450940D01*
X156549380Y-102450940D02*
X157240260Y-103141820D01*
D26*
X156210000Y-96774000D02*
X156770500Y-97334500D01*
X156770500Y-97334500D02*
X156770500Y-98672300D01*
D27*
X150807420Y-98143020D02*
X150807420Y-98798380D01*
X150807420Y-98798380D02*
X150685500Y-98920300D01*
X148170900Y-99098100D02*
X147980400Y-99098100D01*
D28*
X147980400Y-99098100D02*
X145948400Y-99098100D01*
X145948400Y-99098100D02*
X141922500Y-103124000D01*
X144462500Y-104394000D02*
X145645901Y-105577401D01*
X145645901Y-105577401D02*
X145658601Y-105577401D01*
X145658601Y-105577401D02*
X146649780Y-106568580D01*
X146649780Y-106568580D02*
X147835620Y-106568580D01*
X144462500Y-104394000D02*
X145694400Y-103162100D01*
X145694400Y-103162100D02*
X147980400Y-103162100D01*
D25*
X150898860Y-109232740D02*
X150898860Y-110947380D01*
X150898860Y-110947380D02*
X149397900Y-112448340D01*
D26*
X158940500Y-94536300D02*
X158940500Y-95267300D01*
X158940500Y-95267300D02*
X158483300Y-95724500D01*
X158483300Y-95724500D02*
X158483300Y-97027820D01*
D27*
X158508700Y-97002420D02*
X158483300Y-97027820D01*
D26*
X158483511Y-92951511D02*
X158869611Y-92565411D01*
X154820500Y-96614522D02*
X158483511Y-92951511D01*
X152220500Y-93072300D02*
X152220500Y-94014522D01*
X152220500Y-94014522D02*
X154820500Y-96614522D01*
X154820500Y-96614522D02*
X154820500Y-97491300D01*
X154820500Y-97491300D02*
X154820500Y-98672300D01*
X157035500Y-100190300D02*
X156879681Y-100034481D01*
X156879681Y-100034481D02*
X155001681Y-100034481D01*
X155001681Y-100034481D02*
X154820500Y-99853300D01*
X154820500Y-99853300D02*
X154820500Y-98672300D01*
D25*
X157416500Y-105697020D02*
X157416500Y-107459780D01*
X154348180Y-109087460D02*
X155788820Y-109087460D01*
X155788820Y-109087460D02*
X157416500Y-107459780D01*
X152956260Y-103400940D02*
X153951860Y-103400940D01*
X153951860Y-103400940D02*
X153987500Y-103365300D01*
X152956260Y-103400940D02*
X152956260Y-106580900D01*
X152956260Y-106580900D02*
X152895260Y-106641900D01*
X150771860Y-104584540D02*
X151772660Y-104584540D01*
X151772660Y-104584540D02*
X152956260Y-103400940D01*
X150898860Y-107332740D02*
X150898860Y-104711540D01*
X150898860Y-104711540D02*
X150771860Y-104584540D01*
X152895260Y-106641900D02*
X151589700Y-106641900D01*
X151589700Y-106641900D02*
X150898860Y-107332740D01*
D28*
X141922500Y-108204000D02*
X146571040Y-108204000D01*
X146571040Y-108204000D02*
X147835620Y-109468580D01*
D27*
X158940500Y-92684600D02*
X158940500Y-92636300D01*
D25*
X152895260Y-106641900D02*
X153835100Y-106641900D01*
X153835100Y-106641900D02*
X153860500Y-106667300D01*
X147835620Y-109468580D02*
X148763020Y-109468580D01*
X148763020Y-109468580D02*
X150898860Y-107332740D01*
X150241000Y-94519278D02*
X150904978Y-93855300D01*
X150904978Y-93855300D02*
X151127500Y-93855300D01*
X151127500Y-93855300D02*
X151127500Y-92824300D01*
X141922500Y-105664000D02*
X141922500Y-104744762D01*
X141922500Y-104744762D02*
X145714962Y-100952300D01*
X149565599Y-100098623D02*
X149565599Y-96757723D01*
X145714962Y-100952300D02*
X148711922Y-100952300D01*
X148711922Y-100952300D02*
X149565599Y-100098623D01*
X149565599Y-96757723D02*
X150241000Y-96082322D01*
X150241000Y-96082322D02*
X150241000Y-94519278D01*
D26*
X151127500Y-93855300D02*
X153520500Y-96248300D01*
X153520500Y-96248300D02*
X153520500Y-97491300D01*
X153520500Y-97491300D02*
X153520500Y-98672300D01*
D27*
X151127500Y-92824300D02*
X151127500Y-93728300D01*
X151127500Y-93728300D02*
X153520500Y-96121300D01*
X153520500Y-96121300D02*
X153520500Y-97618300D01*
X153520500Y-97618300D02*
X153520500Y-98672300D01*
D28*
X166870260Y-98686500D02*
X175196500Y-107012740D01*
X175196500Y-107012740D02*
X175196500Y-113317020D01*
X166870260Y-96019620D02*
X166870260Y-98686500D01*
X163370260Y-96019620D02*
X163370260Y-98754994D01*
X163370260Y-98754994D02*
X167576500Y-102961234D01*
X167576500Y-102961234D02*
X167576500Y-112044228D01*
X167576500Y-112044228D02*
X167576500Y-113317020D01*
D26*
X152956260Y-101500940D02*
X152956260Y-100794940D01*
X152956260Y-100794940D02*
X154170500Y-99580700D01*
X154170500Y-99580700D02*
X154170500Y-98672300D01*
D27*
X154180660Y-98682460D02*
X154170500Y-98672300D01*
D28*
X164491380Y-106242140D02*
X164491380Y-102130860D01*
X157416500Y-113317020D02*
X164491380Y-106242140D01*
D25*
X157416500Y-113317020D02*
X155986940Y-111887460D01*
X154348180Y-111887460D02*
X155986940Y-111887460D01*
D26*
X162219820Y-99227820D02*
X158483300Y-99227820D01*
X163372800Y-100380800D02*
X162219820Y-99227820D01*
X163372800Y-101892100D02*
X163372800Y-100380800D01*
X159340260Y-102191820D02*
X163073080Y-102191820D01*
X163073080Y-102191820D02*
X163372800Y-101892100D01*
X151127500Y-95364300D02*
X151858500Y-95364300D01*
X151858500Y-95364300D02*
X152870500Y-96376300D01*
X152870500Y-96376300D02*
X152870500Y-96503300D01*
X152870500Y-98672300D02*
X152870500Y-96503300D01*
X152466040Y-100330000D02*
X152870500Y-99925540D01*
X152870500Y-99925540D02*
X152870500Y-98672300D01*
D25*
X149631400Y-101548452D02*
X149631400Y-107340400D01*
X149631400Y-107340400D02*
X148653500Y-108318300D01*
X149796500Y-100952300D02*
X149796500Y-101383352D01*
X149796500Y-101383352D02*
X149631400Y-101548452D01*
X144462500Y-112014000D02*
X145158460Y-111318040D01*
X145158460Y-111318040D02*
X148701760Y-111318040D01*
X148701760Y-111318040D02*
X149491701Y-110528099D01*
X149491701Y-110528099D02*
X149796500Y-110223300D01*
X157240260Y-101241820D02*
X162330420Y-101241820D01*
X162330420Y-101241820D02*
X162391380Y-101180860D01*
X154377792Y-100326592D02*
X154682591Y-100631391D01*
X154682591Y-100631391D02*
X156424013Y-100631391D01*
X156424013Y-100631391D02*
X157034442Y-101241820D01*
X157034442Y-101241820D02*
X157240260Y-101241820D01*
D27*
X157179340Y-101180900D02*
X157240260Y-101241820D01*
D25*
X152125400Y-102489000D02*
X153531678Y-102489000D01*
X153531678Y-102489000D02*
X154519738Y-101500940D01*
X154519738Y-101500940D02*
X155156260Y-101500940D01*
X150771860Y-102684540D02*
X151929860Y-102684540D01*
X151929860Y-102684540D02*
X152125400Y-102489000D01*
X150771860Y-102684540D02*
X150771860Y-100078580D01*
X150771860Y-100078580D02*
X150807420Y-100043020D01*
M02*
