M48
;DRILL file {KiCad 4.0.7-e2-6376~58~ubuntu16.04.1} date Thu Feb  1 21:29:36 2018
;FORMAT={-:-/ absolute / inch / decimal}
FMAT,2
INCH,TZ
T1C0.012
T2C0.031
T3C0.040
T4C0.051
T5C0.063
%
G90
G05
M72
T1
X5.8854Y-3.9644
X5.9113Y-4.4726
X5.9936Y-3.945
X6.0046Y-4.2808
X6.0302Y-3.9472
X6.0578Y-4.1998
X6.0949Y-3.9519
X6.1482Y-3.8074
X6.1534Y-4.0922
X6.1904Y-3.9424
X6.2318Y-4.0168
X6.2982Y-4.0686
X6.3566Y-4.2352
X6.3952Y-4.3316
T2
X5.5822Y-4.0204
X5.5822Y-4.1204
X5.6822Y-4.0704
X5.6822Y-4.1704
T3
X5.9828Y-4.7426
X6.1206Y-4.7426
X6.2584Y-4.7426
X6.3962Y-4.7426
X6.4319Y-3.7803
X6.534Y-4.7426
X6.5697Y-3.7803
T4
X6.1975Y-4.1613
X6.1975Y-4.4613
X6.5975Y-4.4613
X6.8975Y-4.4613
T5
X6.4651Y-4.6548
X6.5008Y-3.8681
T0
M30
