G04 #@! TF.FileFunction,Legend,Bot*
%FSLAX46Y46*%
G04 Gerber Fmt 4.6, Leading zero omitted, Abs format (unit mm)*
G04 Created by KiCad (PCBNEW 4.0.7-e2-6376~58~ubuntu16.04.1) date Sat Mar  3 12:44:21 2018*
%MOMM*%
%LPD*%
G01*
G04 APERTURE LIST*
%ADD10C,0.100000*%
%ADD11C,0.300000*%
%ADD12C,0.200000*%
%ADD13C,0.190500*%
%ADD14C,0.150000*%
G04 APERTURE END LIST*
D10*
D11*
X81715811Y-52088171D02*
X82572954Y-52088171D01*
X82144382Y-52088171D02*
X82144382Y-50588171D01*
X82287239Y-50802457D01*
X82430097Y-50945314D01*
X82572954Y-51016743D01*
X81144383Y-50731029D02*
X81072954Y-50659600D01*
X80930097Y-50588171D01*
X80572954Y-50588171D01*
X80430097Y-50659600D01*
X80358668Y-50731029D01*
X80287240Y-50873886D01*
X80287240Y-51016743D01*
X80358668Y-51231029D01*
X81215811Y-52088171D01*
X80287240Y-52088171D01*
X79858669Y-50588171D02*
X79358669Y-52088171D01*
X78858669Y-50588171D01*
D12*
X75961240Y-51409600D02*
X74945240Y-50393600D01*
X78501240Y-51409600D02*
X75961240Y-51409600D01*
X85359240Y-51409600D02*
X86375240Y-50393600D01*
X82819240Y-51409600D02*
X85359240Y-51409600D01*
X88153240Y-51409600D02*
X87137240Y-50393600D01*
X96281240Y-51409600D02*
X88153240Y-51409600D01*
X109489240Y-51409600D02*
X110505240Y-50393600D01*
X101361240Y-51409600D02*
X109489240Y-51409600D01*
D11*
X99964097Y-50659600D02*
X100106954Y-50588171D01*
X100321240Y-50588171D01*
X100535525Y-50659600D01*
X100678383Y-50802457D01*
X100749811Y-50945314D01*
X100821240Y-51231029D01*
X100821240Y-51445314D01*
X100749811Y-51731029D01*
X100678383Y-51873886D01*
X100535525Y-52016743D01*
X100321240Y-52088171D01*
X100178383Y-52088171D01*
X99964097Y-52016743D01*
X99892668Y-51945314D01*
X99892668Y-51445314D01*
X100178383Y-51445314D01*
X99249811Y-52088171D02*
X99249811Y-50588171D01*
X98392668Y-52088171D01*
X98392668Y-50588171D01*
X97678382Y-52088171D02*
X97678382Y-50588171D01*
X97321239Y-50588171D01*
X97106954Y-50659600D01*
X96964096Y-50802457D01*
X96892668Y-50945314D01*
X96821239Y-51231029D01*
X96821239Y-51445314D01*
X96892668Y-51731029D01*
X96964096Y-51873886D01*
X97106954Y-52016743D01*
X97321239Y-52088171D01*
X97678382Y-52088171D01*
D13*
X117580954Y-36006314D02*
X117580954Y-36550600D01*
X117617240Y-36659457D01*
X117689811Y-36732029D01*
X117798668Y-36768314D01*
X117871240Y-36768314D01*
X117109240Y-36768314D02*
X117181812Y-36732029D01*
X117218097Y-36695743D01*
X117254383Y-36623171D01*
X117254383Y-36405457D01*
X117218097Y-36332886D01*
X117181812Y-36296600D01*
X117109240Y-36260314D01*
X117000383Y-36260314D01*
X116927812Y-36296600D01*
X116891526Y-36332886D01*
X116855240Y-36405457D01*
X116855240Y-36623171D01*
X116891526Y-36695743D01*
X116927812Y-36732029D01*
X117000383Y-36768314D01*
X117109240Y-36768314D01*
X116564954Y-36732029D02*
X116492383Y-36768314D01*
X116347240Y-36768314D01*
X116274668Y-36732029D01*
X116238383Y-36659457D01*
X116238383Y-36623171D01*
X116274668Y-36550600D01*
X116347240Y-36514314D01*
X116456097Y-36514314D01*
X116528668Y-36478029D01*
X116564954Y-36405457D01*
X116564954Y-36369171D01*
X116528668Y-36296600D01*
X116456097Y-36260314D01*
X116347240Y-36260314D01*
X116274668Y-36296600D01*
X115911811Y-36768314D02*
X115911811Y-36006314D01*
X115585240Y-36768314D02*
X115585240Y-36369171D01*
X115621526Y-36296600D01*
X115694097Y-36260314D01*
X115802954Y-36260314D01*
X115875526Y-36296600D01*
X115911811Y-36332886D01*
X114641811Y-36768314D02*
X114641811Y-36006314D01*
X114460383Y-36006314D01*
X114351526Y-36042600D01*
X114278954Y-36115171D01*
X114242669Y-36187743D01*
X114206383Y-36332886D01*
X114206383Y-36441743D01*
X114242669Y-36586886D01*
X114278954Y-36659457D01*
X114351526Y-36732029D01*
X114460383Y-36768314D01*
X114641811Y-36768314D01*
X113589526Y-36732029D02*
X113662097Y-36768314D01*
X113807240Y-36768314D01*
X113879811Y-36732029D01*
X113916097Y-36659457D01*
X113916097Y-36369171D01*
X113879811Y-36296600D01*
X113807240Y-36260314D01*
X113662097Y-36260314D01*
X113589526Y-36296600D01*
X113553240Y-36369171D01*
X113553240Y-36441743D01*
X113916097Y-36514314D01*
X113226668Y-36260314D02*
X113226668Y-36768314D01*
X113226668Y-36332886D02*
X113190383Y-36296600D01*
X113117811Y-36260314D01*
X113008954Y-36260314D01*
X112936383Y-36296600D01*
X112900097Y-36369171D01*
X112900097Y-36768314D01*
X112210668Y-36260314D02*
X112210668Y-36877171D01*
X112246954Y-36949743D01*
X112283239Y-36986029D01*
X112355811Y-37022314D01*
X112464668Y-37022314D01*
X112537239Y-36986029D01*
X112210668Y-36732029D02*
X112283239Y-36768314D01*
X112428382Y-36768314D01*
X112500954Y-36732029D01*
X112537239Y-36695743D01*
X112573525Y-36623171D01*
X112573525Y-36405457D01*
X112537239Y-36332886D01*
X112500954Y-36296600D01*
X112428382Y-36260314D01*
X112283239Y-36260314D01*
X112210668Y-36296600D01*
X111811525Y-36732029D02*
X111811525Y-36768314D01*
X111847810Y-36840886D01*
X111884096Y-36877171D01*
X110976954Y-36006314D02*
X110795525Y-36768314D01*
X110650382Y-36224029D01*
X110505240Y-36768314D01*
X110323811Y-36006314D01*
X110033525Y-36768314D02*
X110033525Y-36260314D01*
X110033525Y-36006314D02*
X110069811Y-36042600D01*
X110033525Y-36078886D01*
X109997240Y-36042600D01*
X110033525Y-36006314D01*
X110033525Y-36078886D01*
X109561811Y-36768314D02*
X109634383Y-36732029D01*
X109670668Y-36659457D01*
X109670668Y-36006314D01*
X109162668Y-36768314D02*
X109235240Y-36732029D01*
X109271525Y-36659457D01*
X109271525Y-36006314D01*
X108872382Y-36768314D02*
X108872382Y-36260314D01*
X108872382Y-36006314D02*
X108908668Y-36042600D01*
X108872382Y-36078886D01*
X108836097Y-36042600D01*
X108872382Y-36006314D01*
X108872382Y-36078886D01*
X108182954Y-36768314D02*
X108182954Y-36369171D01*
X108219240Y-36296600D01*
X108291811Y-36260314D01*
X108436954Y-36260314D01*
X108509525Y-36296600D01*
X108182954Y-36732029D02*
X108255525Y-36768314D01*
X108436954Y-36768314D01*
X108509525Y-36732029D01*
X108545811Y-36659457D01*
X108545811Y-36586886D01*
X108509525Y-36514314D01*
X108436954Y-36478029D01*
X108255525Y-36478029D01*
X108182954Y-36441743D01*
X107820096Y-36768314D02*
X107820096Y-36260314D01*
X107820096Y-36332886D02*
X107783811Y-36296600D01*
X107711239Y-36260314D01*
X107602382Y-36260314D01*
X107529811Y-36296600D01*
X107493525Y-36369171D01*
X107493525Y-36768314D01*
X107493525Y-36369171D02*
X107457239Y-36296600D01*
X107384668Y-36260314D01*
X107275811Y-36260314D01*
X107203239Y-36296600D01*
X107166954Y-36369171D01*
X107166954Y-36768314D01*
X105969525Y-36369171D02*
X106223525Y-36369171D01*
X106223525Y-36768314D02*
X106223525Y-36006314D01*
X105860668Y-36006314D01*
X105243811Y-36768314D02*
X105243811Y-36369171D01*
X105280097Y-36296600D01*
X105352668Y-36260314D01*
X105497811Y-36260314D01*
X105570382Y-36296600D01*
X105243811Y-36732029D02*
X105316382Y-36768314D01*
X105497811Y-36768314D01*
X105570382Y-36732029D01*
X105606668Y-36659457D01*
X105606668Y-36586886D01*
X105570382Y-36514314D01*
X105497811Y-36478029D01*
X105316382Y-36478029D01*
X105243811Y-36441743D01*
X104880953Y-36768314D02*
X104880953Y-36260314D01*
X104880953Y-36006314D02*
X104917239Y-36042600D01*
X104880953Y-36078886D01*
X104844668Y-36042600D01*
X104880953Y-36006314D01*
X104880953Y-36078886D01*
X104518096Y-36768314D02*
X104518096Y-36260314D01*
X104518096Y-36405457D02*
X104481811Y-36332886D01*
X104445525Y-36296600D01*
X104372954Y-36260314D01*
X104300382Y-36260314D01*
X104046382Y-36768314D02*
X104046382Y-36260314D01*
X104046382Y-36332886D02*
X104010097Y-36296600D01*
X103937525Y-36260314D01*
X103828668Y-36260314D01*
X103756097Y-36296600D01*
X103719811Y-36369171D01*
X103719811Y-36768314D01*
X103719811Y-36369171D02*
X103683525Y-36296600D01*
X103610954Y-36260314D01*
X103502097Y-36260314D01*
X103429525Y-36296600D01*
X103393240Y-36369171D01*
X103393240Y-36768314D01*
X102703811Y-36768314D02*
X102703811Y-36369171D01*
X102740097Y-36296600D01*
X102812668Y-36260314D01*
X102957811Y-36260314D01*
X103030382Y-36296600D01*
X102703811Y-36732029D02*
X102776382Y-36768314D01*
X102957811Y-36768314D01*
X103030382Y-36732029D01*
X103066668Y-36659457D01*
X103066668Y-36586886D01*
X103030382Y-36514314D01*
X102957811Y-36478029D01*
X102776382Y-36478029D01*
X102703811Y-36441743D01*
X102340953Y-36260314D02*
X102340953Y-36768314D01*
X102340953Y-36332886D02*
X102304668Y-36296600D01*
X102232096Y-36260314D01*
X102123239Y-36260314D01*
X102050668Y-36296600D01*
X102014382Y-36369171D01*
X102014382Y-36768314D01*
X101070953Y-36478029D02*
X100490382Y-36478029D01*
X99111525Y-36768314D02*
X99365525Y-36405457D01*
X99546953Y-36768314D02*
X99546953Y-36006314D01*
X99256668Y-36006314D01*
X99184096Y-36042600D01*
X99147811Y-36078886D01*
X99111525Y-36151457D01*
X99111525Y-36260314D01*
X99147811Y-36332886D01*
X99184096Y-36369171D01*
X99256668Y-36405457D01*
X99546953Y-36405457D01*
X98494668Y-36732029D02*
X98567239Y-36768314D01*
X98712382Y-36768314D01*
X98784953Y-36732029D01*
X98821239Y-36659457D01*
X98821239Y-36369171D01*
X98784953Y-36296600D01*
X98712382Y-36260314D01*
X98567239Y-36260314D01*
X98494668Y-36296600D01*
X98458382Y-36369171D01*
X98458382Y-36441743D01*
X98821239Y-36514314D01*
X98204382Y-36260314D02*
X98022953Y-36768314D01*
X97841525Y-36260314D01*
X97732668Y-36840886D02*
X97152097Y-36840886D01*
X96571526Y-36768314D02*
X97006954Y-36768314D01*
X96789240Y-36768314D02*
X96789240Y-36006314D01*
X96861811Y-36115171D01*
X96934383Y-36187743D01*
X97006954Y-36224029D01*
D12*
X91018192Y-69387981D02*
X91018192Y-68387981D01*
X90780097Y-68387981D01*
X90637239Y-68435600D01*
X90542001Y-68530838D01*
X90494382Y-68626076D01*
X90446763Y-68816552D01*
X90446763Y-68959410D01*
X90494382Y-69149886D01*
X90542001Y-69245124D01*
X90637239Y-69340362D01*
X90780097Y-69387981D01*
X91018192Y-69387981D01*
X90018192Y-69387981D02*
X90018192Y-68387981D01*
X89589621Y-69340362D02*
X89446764Y-69387981D01*
X89208668Y-69387981D01*
X89113430Y-69340362D01*
X89065811Y-69292743D01*
X89018192Y-69197505D01*
X89018192Y-69102267D01*
X89065811Y-69007029D01*
X89113430Y-68959410D01*
X89208668Y-68911790D01*
X89399145Y-68864171D01*
X89494383Y-68816552D01*
X89542002Y-68768933D01*
X89589621Y-68673695D01*
X89589621Y-68578457D01*
X89542002Y-68483219D01*
X89494383Y-68435600D01*
X89399145Y-68387981D01*
X89161049Y-68387981D01*
X89018192Y-68435600D01*
X88018192Y-69292743D02*
X88065811Y-69340362D01*
X88208668Y-69387981D01*
X88303906Y-69387981D01*
X88446764Y-69340362D01*
X88542002Y-69245124D01*
X88589621Y-69149886D01*
X88637240Y-68959410D01*
X88637240Y-68816552D01*
X88589621Y-68626076D01*
X88542002Y-68530838D01*
X88446764Y-68435600D01*
X88303906Y-68387981D01*
X88208668Y-68387981D01*
X88065811Y-68435600D01*
X88018192Y-68483219D01*
X87589621Y-69387981D02*
X87589621Y-68387981D01*
X87589621Y-68864171D02*
X87018192Y-68864171D01*
X87018192Y-69387981D02*
X87018192Y-68387981D01*
X86589621Y-69102267D02*
X86113430Y-69102267D01*
X86684859Y-69387981D02*
X86351526Y-68387981D01*
X86018192Y-69387981D01*
X85113430Y-69387981D02*
X85446764Y-68911790D01*
X85684859Y-69387981D02*
X85684859Y-68387981D01*
X85303906Y-68387981D01*
X85208668Y-68435600D01*
X85161049Y-68483219D01*
X85113430Y-68578457D01*
X85113430Y-68721314D01*
X85161049Y-68816552D01*
X85208668Y-68864171D01*
X85303906Y-68911790D01*
X85684859Y-68911790D01*
X84161049Y-68435600D02*
X84256287Y-68387981D01*
X84399144Y-68387981D01*
X84542002Y-68435600D01*
X84637240Y-68530838D01*
X84684859Y-68626076D01*
X84732478Y-68816552D01*
X84732478Y-68959410D01*
X84684859Y-69149886D01*
X84637240Y-69245124D01*
X84542002Y-69340362D01*
X84399144Y-69387981D01*
X84303906Y-69387981D01*
X84161049Y-69340362D01*
X84113430Y-69292743D01*
X84113430Y-68959410D01*
X84303906Y-68959410D01*
X83684859Y-68864171D02*
X83351525Y-68864171D01*
X83208668Y-69387981D02*
X83684859Y-69387981D01*
X83684859Y-68387981D01*
X83208668Y-68387981D01*
X64613240Y-59645505D02*
X64613240Y-58845505D01*
X64232288Y-59645505D02*
X64232288Y-58845505D01*
X63965621Y-59416933D01*
X63698954Y-58845505D01*
X63698954Y-59645505D01*
X63318002Y-59645505D02*
X63318002Y-58845505D01*
X63127526Y-58845505D01*
X63013240Y-58883600D01*
X62937049Y-58959790D01*
X62898954Y-59035981D01*
X62860859Y-59188362D01*
X62860859Y-59302648D01*
X62898954Y-59455029D01*
X62937049Y-59531219D01*
X63013240Y-59607410D01*
X63127526Y-59645505D01*
X63318002Y-59645505D01*
X62708478Y-59721695D02*
X62098954Y-59721695D01*
X61527525Y-59645505D02*
X61908478Y-59645505D01*
X61908478Y-58845505D01*
X61298954Y-59416933D02*
X60918002Y-59416933D01*
X61375145Y-59645505D02*
X61108478Y-58845505D01*
X60841811Y-59645505D01*
X60689431Y-58845505D02*
X60232288Y-58845505D01*
X60460859Y-59645505D02*
X60460859Y-58845505D01*
X59508478Y-59569314D02*
X59546573Y-59607410D01*
X59660859Y-59645505D01*
X59737049Y-59645505D01*
X59851335Y-59607410D01*
X59927526Y-59531219D01*
X59965621Y-59455029D01*
X60003716Y-59302648D01*
X60003716Y-59188362D01*
X59965621Y-59035981D01*
X59927526Y-58959790D01*
X59851335Y-58883600D01*
X59737049Y-58845505D01*
X59660859Y-58845505D01*
X59546573Y-58883600D01*
X59508478Y-58921695D01*
X59165621Y-59645505D02*
X59165621Y-58845505D01*
X59165621Y-59226457D02*
X58708478Y-59226457D01*
X58708478Y-59645505D02*
X58708478Y-58845505D01*
X58518002Y-59721695D02*
X57908478Y-59721695D01*
X57565621Y-58845505D02*
X57413240Y-58845505D01*
X57337049Y-58883600D01*
X57260859Y-58959790D01*
X57222764Y-59112171D01*
X57222764Y-59378838D01*
X57260859Y-59531219D01*
X57337049Y-59607410D01*
X57413240Y-59645505D01*
X57565621Y-59645505D01*
X57641811Y-59607410D01*
X57718002Y-59531219D01*
X57756097Y-59378838D01*
X57756097Y-59112171D01*
X57718002Y-58959790D01*
X57641811Y-58883600D01*
X57565621Y-58845505D01*
X56879907Y-58845505D02*
X56879907Y-59493124D01*
X56841812Y-59569314D01*
X56803716Y-59607410D01*
X56727526Y-59645505D01*
X56575145Y-59645505D01*
X56498954Y-59607410D01*
X56460859Y-59569314D01*
X56422764Y-59493124D01*
X56422764Y-58845505D01*
X56156098Y-58845505D02*
X55698955Y-58845505D01*
X55927526Y-59645505D02*
X55927526Y-58845505D01*
X99990366Y-68864299D02*
X99657626Y-68864299D01*
X99515023Y-69387176D02*
X99990366Y-69387176D01*
X99990366Y-68388956D01*
X99515023Y-68388956D01*
X99324886Y-69482244D02*
X98564337Y-69482244D01*
X98326666Y-69387176D02*
X98326666Y-68388956D01*
X97993926Y-69101970D01*
X97661186Y-68388956D01*
X97661186Y-69387176D01*
X97185843Y-68864299D02*
X96853103Y-68864299D01*
X96710500Y-69387176D02*
X97185843Y-69387176D01*
X97185843Y-68388956D01*
X96710500Y-68388956D01*
X96425294Y-68388956D02*
X95854883Y-68388956D01*
X96140089Y-69387176D02*
X96140089Y-68388956D01*
X95522143Y-68864299D02*
X95189403Y-68864299D01*
X95046800Y-69387176D02*
X95522143Y-69387176D01*
X95522143Y-68388956D01*
X95046800Y-68388956D01*
X94048580Y-69387176D02*
X94381320Y-68911833D01*
X94618992Y-69387176D02*
X94618992Y-68388956D01*
X94238717Y-68388956D01*
X94143649Y-68436490D01*
X94096114Y-68484024D01*
X94048580Y-68579093D01*
X94048580Y-68721696D01*
X94096114Y-68816764D01*
X94143649Y-68864299D01*
X94238717Y-68911833D01*
X94618992Y-68911833D01*
X61248192Y-90468457D02*
X61133906Y-90506552D01*
X61095811Y-90544648D01*
X61057716Y-90620838D01*
X61057716Y-90735124D01*
X61095811Y-90811314D01*
X61133906Y-90849410D01*
X61210097Y-90887505D01*
X61514859Y-90887505D01*
X61514859Y-90087505D01*
X61248192Y-90087505D01*
X61172002Y-90125600D01*
X61133906Y-90163695D01*
X61095811Y-90239886D01*
X61095811Y-90316076D01*
X61133906Y-90392267D01*
X61172002Y-90430362D01*
X61248192Y-90468457D01*
X61514859Y-90468457D01*
X60714859Y-90887505D02*
X60714859Y-90087505D01*
X60448192Y-90658933D01*
X60181525Y-90087505D01*
X60181525Y-90887505D01*
X59838668Y-90849410D02*
X59724382Y-90887505D01*
X59533906Y-90887505D01*
X59457716Y-90849410D01*
X59419620Y-90811314D01*
X59381525Y-90735124D01*
X59381525Y-90658933D01*
X59419620Y-90582743D01*
X59457716Y-90544648D01*
X59533906Y-90506552D01*
X59686287Y-90468457D01*
X59762478Y-90430362D01*
X59800573Y-90392267D01*
X59838668Y-90316076D01*
X59838668Y-90239886D01*
X59800573Y-90163695D01*
X59762478Y-90125600D01*
X59686287Y-90087505D01*
X59495811Y-90087505D01*
X59381525Y-90125600D01*
X119369525Y-69068933D02*
X118988573Y-69068933D01*
X119445716Y-69297505D02*
X119179049Y-68497505D01*
X118912382Y-69297505D01*
X118645716Y-69297505D02*
X118645716Y-68497505D01*
X117807621Y-69297505D02*
X118074288Y-68916552D01*
X118264764Y-69297505D02*
X118264764Y-68497505D01*
X117960002Y-68497505D01*
X117883811Y-68535600D01*
X117845716Y-68573695D01*
X117807621Y-68649886D01*
X117807621Y-68764171D01*
X117845716Y-68840362D01*
X117883811Y-68878457D01*
X117960002Y-68916552D01*
X118264764Y-68916552D01*
X117655240Y-69373695D02*
X117045716Y-69373695D01*
X116398097Y-69221314D02*
X116436192Y-69259410D01*
X116550478Y-69297505D01*
X116626668Y-69297505D01*
X116740954Y-69259410D01*
X116817145Y-69183219D01*
X116855240Y-69107029D01*
X116893335Y-68954648D01*
X116893335Y-68840362D01*
X116855240Y-68687981D01*
X116817145Y-68611790D01*
X116740954Y-68535600D01*
X116626668Y-68497505D01*
X116550478Y-68497505D01*
X116436192Y-68535600D01*
X116398097Y-68573695D01*
X116169526Y-68497505D02*
X115712383Y-68497505D01*
X115940954Y-69297505D02*
X115940954Y-68497505D01*
X114988573Y-69297505D02*
X115255240Y-68916552D01*
X115445716Y-69297505D02*
X115445716Y-68497505D01*
X115140954Y-68497505D01*
X115064763Y-68535600D01*
X115026668Y-68573695D01*
X114988573Y-68649886D01*
X114988573Y-68764171D01*
X115026668Y-68840362D01*
X115064763Y-68878457D01*
X115140954Y-68916552D01*
X115445716Y-68916552D01*
X114264763Y-69297505D02*
X114645716Y-69297505D01*
X114645716Y-68497505D01*
X51227621Y-47961505D02*
X51227621Y-47161505D01*
X50846669Y-47961505D02*
X50846669Y-47161505D01*
X50580002Y-47732933D01*
X50313335Y-47161505D01*
X50313335Y-47961505D01*
X49932383Y-47961505D02*
X49932383Y-47161505D01*
X49741907Y-47161505D01*
X49627621Y-47199600D01*
X49551430Y-47275790D01*
X49513335Y-47351981D01*
X49475240Y-47504362D01*
X49475240Y-47618648D01*
X49513335Y-47771029D01*
X49551430Y-47847219D01*
X49627621Y-47923410D01*
X49741907Y-47961505D01*
X49932383Y-47961505D01*
X49322859Y-48037695D02*
X48713335Y-48037695D01*
X48141906Y-47961505D02*
X48522859Y-47961505D01*
X48522859Y-47161505D01*
X47913335Y-47732933D02*
X47532383Y-47732933D01*
X47989526Y-47961505D02*
X47722859Y-47161505D01*
X47456192Y-47961505D01*
X47303812Y-47161505D02*
X46846669Y-47161505D01*
X47075240Y-47961505D02*
X47075240Y-47161505D01*
X46122859Y-47885314D02*
X46160954Y-47923410D01*
X46275240Y-47961505D01*
X46351430Y-47961505D01*
X46465716Y-47923410D01*
X46541907Y-47847219D01*
X46580002Y-47771029D01*
X46618097Y-47618648D01*
X46618097Y-47504362D01*
X46580002Y-47351981D01*
X46541907Y-47275790D01*
X46465716Y-47199600D01*
X46351430Y-47161505D01*
X46275240Y-47161505D01*
X46160954Y-47199600D01*
X46122859Y-47237695D01*
X45780002Y-47961505D02*
X45780002Y-47161505D01*
X45780002Y-47542457D02*
X45322859Y-47542457D01*
X45322859Y-47961505D02*
X45322859Y-47161505D01*
X76157811Y-68624457D02*
X76043525Y-68662552D01*
X76005430Y-68700648D01*
X75967335Y-68776838D01*
X75967335Y-68891124D01*
X76005430Y-68967314D01*
X76043525Y-69005410D01*
X76119716Y-69043505D01*
X76424478Y-69043505D01*
X76424478Y-68243505D01*
X76157811Y-68243505D01*
X76081621Y-68281600D01*
X76043525Y-68319695D01*
X76005430Y-68395886D01*
X76005430Y-68472076D01*
X76043525Y-68548267D01*
X76081621Y-68586362D01*
X76157811Y-68624457D01*
X76424478Y-68624457D01*
X75624478Y-69043505D02*
X75624478Y-68243505D01*
X75357811Y-68814933D01*
X75091144Y-68243505D01*
X75091144Y-69043505D01*
X74748287Y-69005410D02*
X74634001Y-69043505D01*
X74443525Y-69043505D01*
X74367335Y-69005410D01*
X74329239Y-68967314D01*
X74291144Y-68891124D01*
X74291144Y-68814933D01*
X74329239Y-68738743D01*
X74367335Y-68700648D01*
X74443525Y-68662552D01*
X74595906Y-68624457D01*
X74672097Y-68586362D01*
X74710192Y-68548267D01*
X74748287Y-68472076D01*
X74748287Y-68395886D01*
X74710192Y-68319695D01*
X74672097Y-68281600D01*
X74595906Y-68243505D01*
X74405430Y-68243505D01*
X74291144Y-68281600D01*
X74138763Y-69119695D02*
X73529239Y-69119695D01*
X73186382Y-68243505D02*
X73034001Y-68243505D01*
X72957810Y-68281600D01*
X72881620Y-68357790D01*
X72843525Y-68510171D01*
X72843525Y-68776838D01*
X72881620Y-68929219D01*
X72957810Y-69005410D01*
X73034001Y-69043505D01*
X73186382Y-69043505D01*
X73262572Y-69005410D01*
X73338763Y-68929219D01*
X73376858Y-68776838D01*
X73376858Y-68510171D01*
X73338763Y-68357790D01*
X73262572Y-68281600D01*
X73186382Y-68243505D01*
X72500668Y-68243505D02*
X72500668Y-68891124D01*
X72462573Y-68967314D01*
X72424477Y-69005410D01*
X72348287Y-69043505D01*
X72195906Y-69043505D01*
X72119715Y-69005410D01*
X72081620Y-68967314D01*
X72043525Y-68891124D01*
X72043525Y-68243505D01*
X71776859Y-68243505D02*
X71319716Y-68243505D01*
X71548287Y-69043505D02*
X71548287Y-68243505D01*
X51081621Y-35477505D02*
X50624478Y-35477505D01*
X50853049Y-36277505D02*
X50853049Y-35477505D01*
X50395906Y-36239410D02*
X50281620Y-36277505D01*
X50091144Y-36277505D01*
X50014954Y-36239410D01*
X49976858Y-36201314D01*
X49938763Y-36125124D01*
X49938763Y-36048933D01*
X49976858Y-35972743D01*
X50014954Y-35934648D01*
X50091144Y-35896552D01*
X50243525Y-35858457D01*
X50319716Y-35820362D01*
X50357811Y-35782267D01*
X50395906Y-35706076D01*
X50395906Y-35629886D01*
X50357811Y-35553695D01*
X50319716Y-35515600D01*
X50243525Y-35477505D01*
X50053049Y-35477505D01*
X49938763Y-35515600D01*
X49634001Y-36048933D02*
X49253049Y-36048933D01*
X49710192Y-36277505D02*
X49443525Y-35477505D01*
X49176858Y-36277505D01*
X48529239Y-36277505D02*
X48910192Y-36277505D01*
X48910192Y-35477505D01*
X47691144Y-35439410D02*
X48376859Y-36467981D01*
X47462573Y-36048933D02*
X47081621Y-36048933D01*
X47538764Y-36277505D02*
X47272097Y-35477505D01*
X47005430Y-36277505D01*
X46738764Y-36277505D02*
X46738764Y-35477505D01*
X45976859Y-36277505D02*
X46357812Y-36277505D01*
X46357812Y-35477505D01*
X38756573Y-35433315D02*
X38756573Y-35814267D01*
X38985145Y-35357124D02*
X38185145Y-35623791D01*
X38985145Y-35890458D01*
X38985145Y-36157124D02*
X38185145Y-36157124D01*
X38985145Y-36995219D02*
X38604192Y-36728552D01*
X38985145Y-36538076D02*
X38185145Y-36538076D01*
X38185145Y-36842838D01*
X38223240Y-36919029D01*
X38261335Y-36957124D01*
X38337526Y-36995219D01*
X38451811Y-36995219D01*
X38528002Y-36957124D01*
X38566097Y-36919029D01*
X38604192Y-36842838D01*
X38604192Y-36538076D01*
X39061335Y-37147600D02*
X39061335Y-37757124D01*
X38908954Y-38404743D02*
X38947050Y-38366648D01*
X38985145Y-38252362D01*
X38985145Y-38176172D01*
X38947050Y-38061886D01*
X38870859Y-37985695D01*
X38794669Y-37947600D01*
X38642288Y-37909505D01*
X38528002Y-37909505D01*
X38375621Y-37947600D01*
X38299430Y-37985695D01*
X38223240Y-38061886D01*
X38185145Y-38176172D01*
X38185145Y-38252362D01*
X38223240Y-38366648D01*
X38261335Y-38404743D01*
X38185145Y-38633314D02*
X38185145Y-39090457D01*
X38985145Y-38861886D02*
X38185145Y-38861886D01*
X38985145Y-39814267D02*
X38604192Y-39547600D01*
X38985145Y-39357124D02*
X38185145Y-39357124D01*
X38185145Y-39661886D01*
X38223240Y-39738077D01*
X38261335Y-39776172D01*
X38337526Y-39814267D01*
X38451811Y-39814267D01*
X38528002Y-39776172D01*
X38566097Y-39738077D01*
X38604192Y-39661886D01*
X38604192Y-39357124D01*
X38985145Y-40538077D02*
X38985145Y-40157124D01*
X38185145Y-40157124D01*
X110639716Y-69387981D02*
X110639716Y-68387981D01*
X110163526Y-69387981D02*
X110163526Y-68387981D01*
X109830192Y-69102267D01*
X109496859Y-68387981D01*
X109496859Y-69387981D01*
X109020669Y-69387981D02*
X109020669Y-68387981D01*
X108782574Y-68387981D01*
X108639716Y-68435600D01*
X108544478Y-68530838D01*
X108496859Y-68626076D01*
X108449240Y-68816552D01*
X108449240Y-68959410D01*
X108496859Y-69149886D01*
X108544478Y-69245124D01*
X108639716Y-69340362D01*
X108782574Y-69387981D01*
X109020669Y-69387981D01*
X108258764Y-69483219D02*
X107496859Y-69483219D01*
X106782573Y-69387981D02*
X107258764Y-69387981D01*
X107258764Y-68387981D01*
X106496859Y-69102267D02*
X106020668Y-69102267D01*
X106592097Y-69387981D02*
X106258764Y-68387981D01*
X105925430Y-69387981D01*
X105734954Y-68387981D02*
X105163525Y-68387981D01*
X105449240Y-69387981D02*
X105449240Y-68387981D01*
X104258763Y-69292743D02*
X104306382Y-69340362D01*
X104449239Y-69387981D01*
X104544477Y-69387981D01*
X104687335Y-69340362D01*
X104782573Y-69245124D01*
X104830192Y-69149886D01*
X104877811Y-68959410D01*
X104877811Y-68816552D01*
X104830192Y-68626076D01*
X104782573Y-68530838D01*
X104687335Y-68435600D01*
X104544477Y-68387981D01*
X104449239Y-68387981D01*
X104306382Y-68435600D01*
X104258763Y-68483219D01*
X103830192Y-69387981D02*
X103830192Y-68387981D01*
X103830192Y-68864171D02*
X103258763Y-68864171D01*
X103258763Y-69387981D02*
X103258763Y-68387981D01*
D14*
X39260000Y-35160000D02*
X44560000Y-35160000D01*
X39260000Y-62630000D02*
X44560000Y-62630000D01*
X39260000Y-35160000D02*
X39260000Y-62630000D01*
X44560000Y-35160000D02*
X44560000Y-62630000D01*
X60288000Y-65666000D02*
X60288000Y-68976000D01*
X60288000Y-68976000D02*
X52488000Y-68976000D01*
X52488000Y-68976000D02*
X52488000Y-65666000D01*
X48888000Y-65666000D02*
X48888000Y-59944000D01*
X63888000Y-65666000D02*
X63888000Y-59944000D01*
X48888000Y-65666000D02*
X63888000Y-65666000D01*
X48888000Y-59944000D02*
X63888000Y-59944000D01*
X113166000Y-61842000D02*
X113166000Y-58532000D01*
X113166000Y-58532000D02*
X120966000Y-58532000D01*
X120966000Y-58532000D02*
X120966000Y-61842000D01*
X120966000Y-61842000D02*
X120966000Y-67564000D01*
X113166000Y-61842000D02*
X113166000Y-67564000D01*
X120966000Y-61842000D02*
X113166000Y-61842000D01*
X120966000Y-67564000D02*
X113166000Y-67564000D01*
X103006000Y-61842000D02*
X103006000Y-58532000D01*
X103006000Y-58532000D02*
X110806000Y-58532000D01*
X110806000Y-58532000D02*
X110806000Y-61842000D01*
X110806000Y-61842000D02*
X110806000Y-67564000D01*
X103006000Y-61842000D02*
X103006000Y-67564000D01*
X110806000Y-61842000D02*
X103006000Y-61842000D01*
X110806000Y-67564000D02*
X103006000Y-67564000D01*
X83194000Y-61842000D02*
X83194000Y-58532000D01*
X83194000Y-58532000D02*
X90994000Y-58532000D01*
X90994000Y-58532000D02*
X90994000Y-61842000D01*
X90994000Y-61842000D02*
X90994000Y-67564000D01*
X83194000Y-61842000D02*
X83194000Y-67564000D01*
X90994000Y-61842000D02*
X83194000Y-61842000D01*
X90994000Y-67564000D02*
X83194000Y-67564000D01*
X77560000Y-64396000D02*
X77560000Y-67706000D01*
X77560000Y-67706000D02*
X69760000Y-67706000D01*
X69760000Y-67706000D02*
X69760000Y-64396000D01*
X66160000Y-64396000D02*
X66160000Y-58674000D01*
X81160000Y-64396000D02*
X81160000Y-58674000D01*
X66160000Y-64396000D02*
X81160000Y-64396000D01*
X66160000Y-58674000D02*
X81160000Y-58674000D01*
X45864000Y-35160000D02*
X51164000Y-35160000D01*
X45864000Y-44850000D02*
X51164000Y-44850000D01*
X45864000Y-35160000D02*
X45864000Y-44850000D01*
X51164000Y-35160000D02*
X51164000Y-44850000D01*
X45864000Y-48368000D02*
X51164000Y-48368000D01*
X45864000Y-58058000D02*
X51164000Y-58058000D01*
X45864000Y-48368000D02*
X45864000Y-58058000D01*
X51164000Y-48368000D02*
X51164000Y-58058000D01*
X56532000Y-69704000D02*
X61832000Y-69704000D01*
X56532000Y-89554000D02*
X61832000Y-89554000D01*
X56532000Y-69704000D02*
X56532000Y-89554000D01*
X61832000Y-69704000D02*
X61832000Y-89554000D01*
X92846000Y-61842000D02*
X92846000Y-58532000D01*
X92846000Y-58532000D02*
X100646000Y-58532000D01*
X100646000Y-58532000D02*
X100646000Y-61842000D01*
X100646000Y-61842000D02*
X100646000Y-67564000D01*
X92846000Y-61842000D02*
X92846000Y-67564000D01*
X100646000Y-61842000D02*
X92846000Y-61842000D01*
X100646000Y-67564000D02*
X92846000Y-67564000D01*
X42455363Y-63257181D02*
X42455363Y-63971467D01*
X42502983Y-64114324D01*
X42598221Y-64209562D01*
X42741078Y-64257181D01*
X42836316Y-64257181D01*
X41455363Y-64257181D02*
X42026792Y-64257181D01*
X41741078Y-64257181D02*
X41741078Y-63257181D01*
X41836316Y-63400038D01*
X41931554Y-63495276D01*
X42026792Y-63542895D01*
X40836316Y-63257181D02*
X40741077Y-63257181D01*
X40645839Y-63304800D01*
X40598220Y-63352419D01*
X40550601Y-63447657D01*
X40502982Y-63638133D01*
X40502982Y-63876229D01*
X40550601Y-64066705D01*
X40598220Y-64161943D01*
X40645839Y-64209562D01*
X40741077Y-64257181D01*
X40836316Y-64257181D01*
X40931554Y-64209562D01*
X40979173Y-64161943D01*
X41026792Y-64066705D01*
X41074411Y-63876229D01*
X41074411Y-63638133D01*
X41026792Y-63447657D01*
X40979173Y-63352419D01*
X40931554Y-63304800D01*
X40836316Y-63257181D01*
X63315173Y-66025781D02*
X63315173Y-66740067D01*
X63362793Y-66882924D01*
X63458031Y-66978162D01*
X63600888Y-67025781D01*
X63696126Y-67025781D01*
X62315173Y-67025781D02*
X62886602Y-67025781D01*
X62600888Y-67025781D02*
X62600888Y-66025781D01*
X62696126Y-66168638D01*
X62791364Y-66263876D01*
X62886602Y-66311495D01*
X120617573Y-57338981D02*
X120617573Y-58053267D01*
X120665193Y-58196124D01*
X120760431Y-58291362D01*
X120903288Y-58338981D01*
X120998526Y-58338981D01*
X120236621Y-57338981D02*
X119617573Y-57338981D01*
X119950907Y-57719933D01*
X119808049Y-57719933D01*
X119712811Y-57767552D01*
X119665192Y-57815171D01*
X119617573Y-57910410D01*
X119617573Y-58148505D01*
X119665192Y-58243743D01*
X119712811Y-58291362D01*
X119808049Y-58338981D01*
X120093764Y-58338981D01*
X120189002Y-58291362D01*
X120236621Y-58243743D01*
X110457573Y-57338981D02*
X110457573Y-58053267D01*
X110505193Y-58196124D01*
X110600431Y-58291362D01*
X110743288Y-58338981D01*
X110838526Y-58338981D01*
X109552811Y-57672314D02*
X109552811Y-58338981D01*
X109790907Y-57291362D02*
X110029002Y-58005648D01*
X109409954Y-58005648D01*
X90518573Y-57211981D02*
X90518573Y-57926267D01*
X90566193Y-58069124D01*
X90661431Y-58164362D01*
X90804288Y-58211981D01*
X90899526Y-58211981D01*
X89566192Y-57211981D02*
X90042383Y-57211981D01*
X90090002Y-57688171D01*
X90042383Y-57640552D01*
X89947145Y-57592933D01*
X89709049Y-57592933D01*
X89613811Y-57640552D01*
X89566192Y-57688171D01*
X89518573Y-57783410D01*
X89518573Y-58021505D01*
X89566192Y-58116743D01*
X89613811Y-58164362D01*
X89709049Y-58211981D01*
X89947145Y-58211981D01*
X90042383Y-58164362D01*
X90090002Y-58116743D01*
X80612573Y-57465981D02*
X80612573Y-58180267D01*
X80660193Y-58323124D01*
X80755431Y-58418362D01*
X80898288Y-58465981D01*
X80993526Y-58465981D01*
X79707811Y-57465981D02*
X79898288Y-57465981D01*
X79993526Y-57513600D01*
X80041145Y-57561219D01*
X80136383Y-57704076D01*
X80184002Y-57894552D01*
X80184002Y-58275505D01*
X80136383Y-58370743D01*
X80088764Y-58418362D01*
X79993526Y-58465981D01*
X79803049Y-58465981D01*
X79707811Y-58418362D01*
X79660192Y-58370743D01*
X79612573Y-58275505D01*
X79612573Y-58037410D01*
X79660192Y-57942171D01*
X79707811Y-57894552D01*
X79803049Y-57846933D01*
X79993526Y-57846933D01*
X80088764Y-57894552D01*
X80136383Y-57942171D01*
X80184002Y-58037410D01*
X47084573Y-45019981D02*
X47084573Y-45734267D01*
X47132193Y-45877124D01*
X47227431Y-45972362D01*
X47370288Y-46019981D01*
X47465526Y-46019981D01*
X46465526Y-45448552D02*
X46560764Y-45400933D01*
X46608383Y-45353314D01*
X46656002Y-45258076D01*
X46656002Y-45210457D01*
X46608383Y-45115219D01*
X46560764Y-45067600D01*
X46465526Y-45019981D01*
X46275049Y-45019981D01*
X46179811Y-45067600D01*
X46132192Y-45115219D01*
X46084573Y-45210457D01*
X46084573Y-45258076D01*
X46132192Y-45353314D01*
X46179811Y-45400933D01*
X46275049Y-45448552D01*
X46465526Y-45448552D01*
X46560764Y-45496171D01*
X46608383Y-45543790D01*
X46656002Y-45639029D01*
X46656002Y-45829505D01*
X46608383Y-45924743D01*
X46560764Y-45972362D01*
X46465526Y-46019981D01*
X46275049Y-46019981D01*
X46179811Y-45972362D01*
X46132192Y-45924743D01*
X46084573Y-45829505D01*
X46084573Y-45639029D01*
X46132192Y-45543790D01*
X46179811Y-45496171D01*
X46275049Y-45448552D01*
X50640573Y-58227981D02*
X50640573Y-58942267D01*
X50688193Y-59085124D01*
X50783431Y-59180362D01*
X50926288Y-59227981D01*
X51021526Y-59227981D01*
X50116764Y-59227981D02*
X49926288Y-59227981D01*
X49831049Y-59180362D01*
X49783430Y-59132743D01*
X49688192Y-58989886D01*
X49640573Y-58799410D01*
X49640573Y-58418457D01*
X49688192Y-58323219D01*
X49735811Y-58275600D01*
X49831049Y-58227981D01*
X50021526Y-58227981D01*
X50116764Y-58275600D01*
X50164383Y-58323219D01*
X50212002Y-58418457D01*
X50212002Y-58656552D01*
X50164383Y-58751790D01*
X50116764Y-58799410D01*
X50021526Y-58847029D01*
X49831049Y-58847029D01*
X49735811Y-58799410D01*
X49688192Y-58751790D01*
X49640573Y-58656552D01*
X57752573Y-89977981D02*
X57752573Y-90692267D01*
X57800193Y-90835124D01*
X57895431Y-90930362D01*
X58038288Y-90977981D01*
X58133526Y-90977981D01*
X57371621Y-89977981D02*
X56704954Y-89977981D01*
X57133526Y-90977981D01*
X100392763Y-57338981D02*
X100392763Y-58053267D01*
X100440383Y-58196124D01*
X100535621Y-58291362D01*
X100678478Y-58338981D01*
X100773716Y-58338981D01*
X99392763Y-58338981D02*
X99964192Y-58338981D01*
X99678478Y-58338981D02*
X99678478Y-57338981D01*
X99773716Y-57481838D01*
X99868954Y-57577076D01*
X99964192Y-57624695D01*
X98440382Y-58338981D02*
X99011811Y-58338981D01*
X98726097Y-58338981D02*
X98726097Y-57338981D01*
X98821335Y-57481838D01*
X98916573Y-57577076D01*
X99011811Y-57624695D01*
M02*
