G04 #@! TF.FileFunction,Soldermask,Bot*
%FSLAX46Y46*%
G04 Gerber Fmt 4.6, Leading zero omitted, Abs format (unit mm)*
G04 Created by KiCad (PCBNEW 4.0.7-e2-6376~58~ubuntu16.04.1) date Sat Mar  3 12:44:21 2018*
%MOMM*%
%LPD*%
G01*
G04 APERTURE LIST*
%ADD10C,0.100000*%
%ADD11C,1.700000*%
%ADD12C,2.400000*%
%ADD13C,3.250000*%
%ADD14C,3.400000*%
%ADD15C,1.900000*%
%ADD16C,3.150000*%
%ADD17C,1.797000*%
%ADD18C,2.381000*%
G04 APERTURE END LIST*
D10*
D11*
X40640000Y-54610000D03*
X40640000Y-57150000D03*
X40640000Y-59690000D03*
X40640000Y-52070000D03*
X43180000Y-58420000D03*
X43180000Y-55880000D03*
X43180000Y-53340000D03*
X43180000Y-50800000D03*
X40640000Y-49530000D03*
X43180000Y-48260000D03*
X40640000Y-46990000D03*
X43180000Y-45720000D03*
X40640000Y-44450000D03*
X43180000Y-43180000D03*
X40640000Y-41910000D03*
X43180000Y-40640000D03*
X40640000Y-39370000D03*
X43180000Y-38100000D03*
D12*
X42440000Y-61090000D03*
D13*
X58316000Y-44196000D03*
D12*
X53616000Y-37396000D03*
X120016000Y-37396000D03*
X55116000Y-55496000D03*
X118516000Y-55496000D03*
D14*
X80816000Y-40696000D03*
X104816000Y-40696000D03*
X100816000Y-40696000D03*
X96816000Y-40696000D03*
X92816000Y-40696000D03*
X88816000Y-40696000D03*
X84816000Y-40696000D03*
X102816000Y-44696000D03*
X98816000Y-44696000D03*
X90816000Y-44696000D03*
X94816000Y-44696000D03*
X86816000Y-44696000D03*
X82816000Y-44696000D03*
X84816000Y-48696000D03*
X88816000Y-48696000D03*
X96816000Y-48696000D03*
X92816000Y-48696000D03*
X100816000Y-48696000D03*
X104816000Y-48696000D03*
X108816000Y-40696000D03*
X106816000Y-44696000D03*
X108816000Y-48696000D03*
D13*
X115316000Y-44196000D03*
D14*
X80816000Y-48696000D03*
X78816000Y-44696000D03*
X76816000Y-40696000D03*
X76816000Y-48696000D03*
X72816000Y-40696000D03*
X74816000Y-44696000D03*
X72816000Y-48696000D03*
X68816000Y-40696000D03*
X70816000Y-44696000D03*
X68816000Y-48696000D03*
X64816000Y-40696000D03*
X66816000Y-44696000D03*
X64816000Y-48696000D03*
D15*
X52578000Y-71120000D03*
X50038000Y-71120000D03*
X39478000Y-71120000D03*
X42018000Y-71120000D03*
X50478000Y-77750000D03*
X47938000Y-77750000D03*
X45398000Y-77750000D03*
X42858000Y-77750000D03*
X49208000Y-80290000D03*
X46668000Y-80290000D03*
X44128000Y-80290000D03*
X41588000Y-80290000D03*
D16*
X52978000Y-75870000D03*
X39078000Y-75870000D03*
D17*
X54638000Y-63246000D03*
X51138000Y-63246000D03*
D18*
X52888000Y-61016000D03*
D17*
X58138000Y-63246000D03*
X61638000Y-63246000D03*
X115316000Y-64262000D03*
X118816000Y-64262000D03*
D18*
X117066000Y-66492000D03*
D17*
X105156000Y-64262000D03*
X108656000Y-64262000D03*
D18*
X106906000Y-66492000D03*
D17*
X85344000Y-64262000D03*
X88844000Y-64262000D03*
D18*
X87094000Y-66492000D03*
D17*
X71910000Y-61976000D03*
X68410000Y-61976000D03*
D18*
X70160000Y-59746000D03*
D17*
X75410000Y-61976000D03*
X78910000Y-61976000D03*
D11*
X47244000Y-39370000D03*
X47244000Y-41910000D03*
X49784000Y-40640000D03*
X49784000Y-38100000D03*
D12*
X48744000Y-43310000D03*
D11*
X47244000Y-52578000D03*
X47244000Y-55118000D03*
X49784000Y-53848000D03*
X49784000Y-51308000D03*
D12*
X48744000Y-56518000D03*
D15*
X52324000Y-89916000D03*
X49784000Y-89916000D03*
X39224000Y-89916000D03*
X41764000Y-89916000D03*
X50224000Y-96546000D03*
X47684000Y-96546000D03*
X45144000Y-96546000D03*
X42604000Y-96546000D03*
X48954000Y-99086000D03*
X46414000Y-99086000D03*
X43874000Y-99086000D03*
X41334000Y-99086000D03*
D16*
X52724000Y-94666000D03*
X38824000Y-94666000D03*
D11*
X57912000Y-81534000D03*
X57912000Y-84074000D03*
X57912000Y-86614000D03*
X57912000Y-78994000D03*
X60452000Y-85344000D03*
X60452000Y-82804000D03*
X60452000Y-80264000D03*
X60452000Y-77724000D03*
X57912000Y-76454000D03*
X60452000Y-75184000D03*
X57912000Y-73914000D03*
X60452000Y-72644000D03*
D12*
X59712000Y-88014000D03*
D17*
X94996000Y-64262000D03*
X98496000Y-64262000D03*
D18*
X96746000Y-66492000D03*
M02*
