G04 #@! TF.FileFunction,Soldermask,Top*
%FSLAX46Y46*%
G04 Gerber Fmt 4.6, Leading zero omitted, Abs format (unit mm)*
G04 Created by KiCad (PCBNEW 4.0.7-e2-6376~58~ubuntu16.04.1) date Sat Mar  3 12:44:21 2018*
%MOMM*%
%LPD*%
G01*
G04 APERTURE LIST*
%ADD10C,0.100000*%
%ADD11C,0.300000*%
%ADD12C,1.700000*%
%ADD13C,2.400000*%
%ADD14C,3.250000*%
%ADD15C,3.400000*%
%ADD16C,1.900000*%
%ADD17C,3.150000*%
%ADD18C,1.797000*%
%ADD19C,2.381000*%
G04 APERTURE END LIST*
D10*
D11*
X35825240Y-64973029D02*
X35825240Y-64258743D01*
X36253811Y-65115886D02*
X34753811Y-64615886D01*
X36253811Y-64115886D01*
X36110954Y-62758743D02*
X36182383Y-62830172D01*
X36253811Y-63044458D01*
X36253811Y-63187315D01*
X36182383Y-63401600D01*
X36039526Y-63544458D01*
X35896669Y-63615886D01*
X35610954Y-63687315D01*
X35396669Y-63687315D01*
X35110954Y-63615886D01*
X34968097Y-63544458D01*
X34825240Y-63401600D01*
X34753811Y-63187315D01*
X34753811Y-63044458D01*
X34825240Y-62830172D01*
X34896669Y-62758743D01*
X36110954Y-61258743D02*
X36182383Y-61330172D01*
X36253811Y-61544458D01*
X36253811Y-61687315D01*
X36182383Y-61901600D01*
X36039526Y-62044458D01*
X35896669Y-62115886D01*
X35610954Y-62187315D01*
X35396669Y-62187315D01*
X35110954Y-62115886D01*
X34968097Y-62044458D01*
X34825240Y-61901600D01*
X34753811Y-61687315D01*
X34753811Y-61544458D01*
X34825240Y-61330172D01*
X34896669Y-61258743D01*
X34753811Y-60615886D02*
X35968097Y-60615886D01*
X36110954Y-60544458D01*
X36182383Y-60473029D01*
X36253811Y-60330172D01*
X36253811Y-60044458D01*
X36182383Y-59901600D01*
X36110954Y-59830172D01*
X35968097Y-59758743D01*
X34753811Y-59758743D01*
X36253811Y-59044457D02*
X34753811Y-59044457D01*
X35825240Y-58544457D01*
X34753811Y-58044457D01*
X36253811Y-58044457D01*
X34753811Y-57330171D02*
X35968097Y-57330171D01*
X36110954Y-57258743D01*
X36182383Y-57187314D01*
X36253811Y-57044457D01*
X36253811Y-56758743D01*
X36182383Y-56615885D01*
X36110954Y-56544457D01*
X35968097Y-56473028D01*
X34753811Y-56473028D01*
X36253811Y-55044456D02*
X36253811Y-55758742D01*
X34753811Y-55758742D01*
X35825240Y-54615885D02*
X35825240Y-53901599D01*
X36253811Y-54758742D02*
X34753811Y-54258742D01*
X36253811Y-53758742D01*
X34753811Y-53473028D02*
X34753811Y-52615885D01*
X36253811Y-53044456D02*
X34753811Y-53044456D01*
X34753811Y-51830171D02*
X34753811Y-51544457D01*
X34825240Y-51401599D01*
X34968097Y-51258742D01*
X35253811Y-51187314D01*
X35753811Y-51187314D01*
X36039526Y-51258742D01*
X36182383Y-51401599D01*
X36253811Y-51544457D01*
X36253811Y-51830171D01*
X36182383Y-51973028D01*
X36039526Y-52115885D01*
X35753811Y-52187314D01*
X35253811Y-52187314D01*
X34968097Y-52115885D01*
X34825240Y-51973028D01*
X34753811Y-51830171D01*
X36253811Y-49687313D02*
X35539526Y-50187313D01*
X36253811Y-50544456D02*
X34753811Y-50544456D01*
X34753811Y-49973028D01*
X34825240Y-49830170D01*
X34896669Y-49758742D01*
X35039526Y-49687313D01*
X35253811Y-49687313D01*
X35396669Y-49758742D01*
X35468097Y-49830170D01*
X35539526Y-49973028D01*
X35539526Y-50544456D01*
X36253811Y-47901599D02*
X34753811Y-47901599D01*
X36253811Y-47187313D02*
X34753811Y-47187313D01*
X36253811Y-46330170D01*
X34753811Y-46330170D01*
X34753811Y-45830170D02*
X34753811Y-44973027D01*
X36253811Y-45401598D02*
X34753811Y-45401598D01*
X35468097Y-44473027D02*
X35468097Y-43973027D01*
X36253811Y-43758741D02*
X36253811Y-44473027D01*
X34753811Y-44473027D01*
X34753811Y-43758741D01*
X36253811Y-42258741D02*
X35539526Y-42758741D01*
X36253811Y-43115884D02*
X34753811Y-43115884D01*
X34753811Y-42544456D01*
X34825240Y-42401598D01*
X34896669Y-42330170D01*
X35039526Y-42258741D01*
X35253811Y-42258741D01*
X35396669Y-42330170D01*
X35468097Y-42401598D01*
X35539526Y-42544456D01*
X35539526Y-43115884D01*
X35468097Y-41115884D02*
X35468097Y-41615884D01*
X36253811Y-41615884D02*
X34753811Y-41615884D01*
X34753811Y-40901598D01*
X35825240Y-40401599D02*
X35825240Y-39687313D01*
X36253811Y-40544456D02*
X34753811Y-40044456D01*
X36253811Y-39544456D01*
X36110954Y-38187313D02*
X36182383Y-38258742D01*
X36253811Y-38473028D01*
X36253811Y-38615885D01*
X36182383Y-38830170D01*
X36039526Y-38973028D01*
X35896669Y-39044456D01*
X35610954Y-39115885D01*
X35396669Y-39115885D01*
X35110954Y-39044456D01*
X34968097Y-38973028D01*
X34825240Y-38830170D01*
X34753811Y-38615885D01*
X34753811Y-38473028D01*
X34825240Y-38258742D01*
X34896669Y-38187313D01*
X35468097Y-37544456D02*
X35468097Y-37044456D01*
X36253811Y-36830170D02*
X36253811Y-37544456D01*
X34753811Y-37544456D01*
X34753811Y-36830170D01*
D12*
X40640000Y-54610000D03*
X40640000Y-57150000D03*
X40640000Y-59690000D03*
X40640000Y-52070000D03*
X43180000Y-58420000D03*
X43180000Y-55880000D03*
X43180000Y-53340000D03*
X43180000Y-50800000D03*
X40640000Y-49530000D03*
X43180000Y-48260000D03*
X40640000Y-46990000D03*
X43180000Y-45720000D03*
X40640000Y-44450000D03*
X43180000Y-43180000D03*
X40640000Y-41910000D03*
X43180000Y-40640000D03*
X40640000Y-39370000D03*
X43180000Y-38100000D03*
D13*
X42440000Y-61090000D03*
D14*
X58316000Y-44196000D03*
D13*
X53616000Y-37396000D03*
X120016000Y-37396000D03*
X55116000Y-55496000D03*
X118516000Y-55496000D03*
D15*
X80816000Y-40696000D03*
X104816000Y-40696000D03*
X100816000Y-40696000D03*
X96816000Y-40696000D03*
X92816000Y-40696000D03*
X88816000Y-40696000D03*
X84816000Y-40696000D03*
X102816000Y-44696000D03*
X98816000Y-44696000D03*
X90816000Y-44696000D03*
X94816000Y-44696000D03*
X86816000Y-44696000D03*
X82816000Y-44696000D03*
X84816000Y-48696000D03*
X88816000Y-48696000D03*
X96816000Y-48696000D03*
X92816000Y-48696000D03*
X100816000Y-48696000D03*
X104816000Y-48696000D03*
X108816000Y-40696000D03*
X106816000Y-44696000D03*
X108816000Y-48696000D03*
D14*
X115316000Y-44196000D03*
D15*
X80816000Y-48696000D03*
X78816000Y-44696000D03*
X76816000Y-40696000D03*
X76816000Y-48696000D03*
X72816000Y-40696000D03*
X74816000Y-44696000D03*
X72816000Y-48696000D03*
X68816000Y-40696000D03*
X70816000Y-44696000D03*
X68816000Y-48696000D03*
X64816000Y-40696000D03*
X66816000Y-44696000D03*
X64816000Y-48696000D03*
D16*
X52578000Y-71120000D03*
X50038000Y-71120000D03*
X39478000Y-71120000D03*
X42018000Y-71120000D03*
X50478000Y-77750000D03*
X47938000Y-77750000D03*
X45398000Y-77750000D03*
X42858000Y-77750000D03*
X49208000Y-80290000D03*
X46668000Y-80290000D03*
X44128000Y-80290000D03*
X41588000Y-80290000D03*
D17*
X52978000Y-75870000D03*
X39078000Y-75870000D03*
D18*
X54638000Y-63246000D03*
X51138000Y-63246000D03*
D19*
X52888000Y-61016000D03*
D18*
X58138000Y-63246000D03*
X61638000Y-63246000D03*
X115316000Y-64262000D03*
X118816000Y-64262000D03*
D19*
X117066000Y-66492000D03*
D18*
X105156000Y-64262000D03*
X108656000Y-64262000D03*
D19*
X106906000Y-66492000D03*
D18*
X85344000Y-64262000D03*
X88844000Y-64262000D03*
D19*
X87094000Y-66492000D03*
D18*
X71910000Y-61976000D03*
X68410000Y-61976000D03*
D19*
X70160000Y-59746000D03*
D18*
X75410000Y-61976000D03*
X78910000Y-61976000D03*
D12*
X47244000Y-39370000D03*
X47244000Y-41910000D03*
X49784000Y-40640000D03*
X49784000Y-38100000D03*
D13*
X48744000Y-43310000D03*
D12*
X47244000Y-52578000D03*
X47244000Y-55118000D03*
X49784000Y-53848000D03*
X49784000Y-51308000D03*
D13*
X48744000Y-56518000D03*
D16*
X52324000Y-89916000D03*
X49784000Y-89916000D03*
X39224000Y-89916000D03*
X41764000Y-89916000D03*
X50224000Y-96546000D03*
X47684000Y-96546000D03*
X45144000Y-96546000D03*
X42604000Y-96546000D03*
X48954000Y-99086000D03*
X46414000Y-99086000D03*
X43874000Y-99086000D03*
X41334000Y-99086000D03*
D17*
X52724000Y-94666000D03*
X38824000Y-94666000D03*
D12*
X57912000Y-81534000D03*
X57912000Y-84074000D03*
X57912000Y-86614000D03*
X57912000Y-78994000D03*
X60452000Y-85344000D03*
X60452000Y-82804000D03*
X60452000Y-80264000D03*
X60452000Y-77724000D03*
X57912000Y-76454000D03*
X60452000Y-75184000D03*
X57912000Y-73914000D03*
X60452000Y-72644000D03*
D13*
X59712000Y-88014000D03*
D18*
X94996000Y-64262000D03*
X98496000Y-64262000D03*
D19*
X96746000Y-66492000D03*
M02*
