G04 #@! TF.FileFunction,Legend,Top*
%FSLAX46Y46*%
G04 Gerber Fmt 4.6, Leading zero omitted, Abs format (unit mm)*
G04 Created by KiCad (PCBNEW 4.0.7-e2-6376~58~ubuntu14.04.1) date Tue Feb 20 00:05:23 2018*
%MOMM*%
%LPD*%
G01*
G04 APERTURE LIST*
%ADD10C,0.100000*%
%ADD11C,0.190500*%
%ADD12C,0.150000*%
%ADD13C,0.500000*%
%ADD14C,0.152400*%
%ADD15C,0.120000*%
%ADD16C,0.200000*%
G04 APERTURE END LIST*
D10*
D11*
X96846572Y-86630071D02*
X96483715Y-86630071D01*
X96483715Y-85130071D01*
X97427143Y-85630071D02*
X97427143Y-86630071D01*
X97100572Y-85630071D02*
X97100572Y-86415786D01*
X97136857Y-86558643D01*
X97209429Y-86630071D01*
X97318286Y-86630071D01*
X97390857Y-86558643D01*
X97427143Y-86487214D01*
X98116572Y-86558643D02*
X98044001Y-86630071D01*
X97898858Y-86630071D01*
X97826286Y-86558643D01*
X97790001Y-86487214D01*
X97753715Y-86344357D01*
X97753715Y-85915786D01*
X97790001Y-85772929D01*
X97826286Y-85701500D01*
X97898858Y-85630071D01*
X98044001Y-85630071D01*
X98116572Y-85701500D01*
X98443144Y-86630071D02*
X98443144Y-85130071D01*
X98515715Y-86058643D02*
X98733429Y-86630071D01*
X98733429Y-85630071D02*
X98443144Y-86201500D01*
X98987429Y-85630071D02*
X99168858Y-86630071D01*
X99350286Y-85630071D02*
X99168858Y-86630071D01*
X99096286Y-86987214D01*
X99060001Y-87058643D01*
X98987429Y-87130071D01*
X100438857Y-85130071D02*
X100438857Y-86201500D01*
X100402571Y-86415786D01*
X100330000Y-86558643D01*
X100221143Y-86630071D01*
X100148571Y-86630071D01*
X100910571Y-86630071D02*
X100837999Y-86558643D01*
X100801714Y-86487214D01*
X100765428Y-86344357D01*
X100765428Y-85915786D01*
X100801714Y-85772929D01*
X100837999Y-85701500D01*
X100910571Y-85630071D01*
X101019428Y-85630071D01*
X101091999Y-85701500D01*
X101128285Y-85772929D01*
X101164571Y-85915786D01*
X101164571Y-86344357D01*
X101128285Y-86487214D01*
X101091999Y-86558643D01*
X101019428Y-86630071D01*
X100910571Y-86630071D01*
X101491143Y-86630071D02*
X101491143Y-85630071D01*
X101491143Y-85915786D02*
X101527428Y-85772929D01*
X101563714Y-85701500D01*
X101636285Y-85630071D01*
X101708857Y-85630071D01*
X102289428Y-86630071D02*
X102289428Y-85130071D01*
X102289428Y-86558643D02*
X102216857Y-86630071D01*
X102071714Y-86630071D01*
X101999142Y-86558643D01*
X101962857Y-86487214D01*
X101926571Y-86344357D01*
X101926571Y-85915786D01*
X101962857Y-85772929D01*
X101999142Y-85701500D01*
X102071714Y-85630071D01*
X102216857Y-85630071D01*
X102289428Y-85701500D01*
X102978857Y-86630071D02*
X102978857Y-85844357D01*
X102942571Y-85701500D01*
X102870000Y-85630071D01*
X102724857Y-85630071D01*
X102652286Y-85701500D01*
X102978857Y-86558643D02*
X102906286Y-86630071D01*
X102724857Y-86630071D01*
X102652286Y-86558643D01*
X102616000Y-86415786D01*
X102616000Y-86272929D01*
X102652286Y-86130071D01*
X102724857Y-86058643D01*
X102906286Y-86058643D01*
X102978857Y-85987214D01*
X103341715Y-85630071D02*
X103341715Y-86630071D01*
X103341715Y-85772929D02*
X103378000Y-85701500D01*
X103450572Y-85630071D01*
X103559429Y-85630071D01*
X103632000Y-85701500D01*
X103668286Y-85844357D01*
X103668286Y-86630071D01*
X96701430Y-88642000D02*
X97064287Y-88642000D01*
X96628858Y-89070571D02*
X96882858Y-87570571D01*
X97136858Y-89070571D01*
X97390859Y-89070571D02*
X97390859Y-87570571D01*
X98189144Y-89070571D02*
X97935144Y-88356286D01*
X97753716Y-89070571D02*
X97753716Y-87570571D01*
X98044001Y-87570571D01*
X98116573Y-87642000D01*
X98152858Y-87713429D01*
X98189144Y-87856286D01*
X98189144Y-88070571D01*
X98152858Y-88213429D01*
X98116573Y-88284857D01*
X98044001Y-88356286D01*
X97753716Y-88356286D01*
X99531715Y-88927714D02*
X99495429Y-88999143D01*
X99386572Y-89070571D01*
X99314001Y-89070571D01*
X99205144Y-88999143D01*
X99132572Y-88856286D01*
X99096287Y-88713429D01*
X99060001Y-88427714D01*
X99060001Y-88213429D01*
X99096287Y-87927714D01*
X99132572Y-87784857D01*
X99205144Y-87642000D01*
X99314001Y-87570571D01*
X99386572Y-87570571D01*
X99495429Y-87642000D01*
X99531715Y-87713429D01*
X99749429Y-87570571D02*
X100184858Y-87570571D01*
X99967144Y-89070571D02*
X99967144Y-87570571D01*
X100874286Y-89070571D02*
X100620286Y-88356286D01*
X100438858Y-89070571D02*
X100438858Y-87570571D01*
X100729143Y-87570571D01*
X100801715Y-87642000D01*
X100838000Y-87713429D01*
X100874286Y-87856286D01*
X100874286Y-88070571D01*
X100838000Y-88213429D01*
X100801715Y-88284857D01*
X100729143Y-88356286D01*
X100438858Y-88356286D01*
X101563715Y-89070571D02*
X101200858Y-89070571D01*
X101200858Y-87570571D01*
X102289428Y-87570571D02*
X102543428Y-89070571D01*
X102797428Y-87570571D01*
X103450571Y-89070571D02*
X103015143Y-89070571D01*
X103232857Y-89070571D02*
X103232857Y-87570571D01*
X103160286Y-87784857D01*
X103087714Y-87927714D01*
X103015143Y-87999143D01*
X97608572Y-90153929D02*
X97644858Y-90082500D01*
X97717429Y-90011071D01*
X97898858Y-90011071D01*
X97971429Y-90082500D01*
X98007715Y-90153929D01*
X98044000Y-90296786D01*
X98044000Y-90439643D01*
X98007715Y-90653929D01*
X97572286Y-91511071D01*
X98044000Y-91511071D01*
X98914857Y-89939643D02*
X98261714Y-91868214D01*
X99568000Y-91511071D02*
X99132572Y-91511071D01*
X99350286Y-91511071D02*
X99350286Y-90011071D01*
X99277715Y-90225357D01*
X99205143Y-90368214D01*
X99132572Y-90439643D01*
X100221143Y-90011071D02*
X100076000Y-90011071D01*
X100003429Y-90082500D01*
X99967143Y-90153929D01*
X99894572Y-90368214D01*
X99858286Y-90653929D01*
X99858286Y-91225357D01*
X99894572Y-91368214D01*
X99930857Y-91439643D01*
X100003429Y-91511071D01*
X100148572Y-91511071D01*
X100221143Y-91439643D01*
X100257429Y-91368214D01*
X100293714Y-91225357D01*
X100293714Y-90868214D01*
X100257429Y-90725357D01*
X100221143Y-90653929D01*
X100148572Y-90582500D01*
X100003429Y-90582500D01*
X99930857Y-90653929D01*
X99894572Y-90725357D01*
X99858286Y-90868214D01*
X101164571Y-89939643D02*
X100511428Y-91868214D01*
X101817714Y-91511071D02*
X101382286Y-91511071D01*
X101600000Y-91511071D02*
X101600000Y-90011071D01*
X101527429Y-90225357D01*
X101454857Y-90368214D01*
X101382286Y-90439643D01*
X102253143Y-90653929D02*
X102180571Y-90582500D01*
X102144286Y-90511071D01*
X102108000Y-90368214D01*
X102108000Y-90296786D01*
X102144286Y-90153929D01*
X102180571Y-90082500D01*
X102253143Y-90011071D01*
X102398286Y-90011071D01*
X102470857Y-90082500D01*
X102507143Y-90153929D01*
X102543428Y-90296786D01*
X102543428Y-90368214D01*
X102507143Y-90511071D01*
X102470857Y-90582500D01*
X102398286Y-90653929D01*
X102253143Y-90653929D01*
X102180571Y-90725357D01*
X102144286Y-90796786D01*
X102108000Y-90939643D01*
X102108000Y-91225357D01*
X102144286Y-91368214D01*
X102180571Y-91439643D01*
X102253143Y-91511071D01*
X102398286Y-91511071D01*
X102470857Y-91439643D01*
X102507143Y-91368214D01*
X102543428Y-91225357D01*
X102543428Y-90939643D01*
X102507143Y-90796786D01*
X102470857Y-90725357D01*
X102398286Y-90653929D01*
X97598895Y-67201142D02*
X97598895Y-67563999D01*
X97985943Y-67600285D01*
X97947238Y-67563999D01*
X97908533Y-67491428D01*
X97908533Y-67309999D01*
X97947238Y-67237428D01*
X97985943Y-67201142D01*
X98063352Y-67164857D01*
X98256876Y-67164857D01*
X98334286Y-67201142D01*
X98372990Y-67237428D01*
X98411695Y-67309999D01*
X98411695Y-67491428D01*
X98372990Y-67563999D01*
X98334286Y-67600285D01*
X97598895Y-66947143D02*
X98411695Y-66693143D01*
X97598895Y-66439143D01*
X78268286Y-55231695D02*
X77832858Y-55231695D01*
X78050572Y-55231695D02*
X78050572Y-54418895D01*
X77978001Y-54535010D01*
X77905429Y-54612419D01*
X77832858Y-54651124D01*
X78558572Y-54496305D02*
X78594858Y-54457600D01*
X78667429Y-54418895D01*
X78848858Y-54418895D01*
X78921429Y-54457600D01*
X78957715Y-54496305D01*
X78994000Y-54573714D01*
X78994000Y-54651124D01*
X78957715Y-54767238D01*
X78522286Y-55231695D01*
X78994000Y-55231695D01*
X79211714Y-54418895D02*
X79465714Y-55231695D01*
X79719714Y-54418895D01*
D12*
X92741905Y-90876381D02*
X92741905Y-89876381D01*
X93122858Y-89876381D01*
X93218096Y-89924000D01*
X93265715Y-89971619D01*
X93313334Y-90066857D01*
X93313334Y-90209714D01*
X93265715Y-90304952D01*
X93218096Y-90352571D01*
X93122858Y-90400190D01*
X92741905Y-90400190D01*
X94075239Y-90352571D02*
X94218096Y-90400190D01*
X94265715Y-90447810D01*
X94313334Y-90543048D01*
X94313334Y-90685905D01*
X94265715Y-90781143D01*
X94218096Y-90828762D01*
X94122858Y-90876381D01*
X93741905Y-90876381D01*
X93741905Y-89876381D01*
X94075239Y-89876381D01*
X94170477Y-89924000D01*
X94218096Y-89971619D01*
X94265715Y-90066857D01*
X94265715Y-90162095D01*
X94218096Y-90257333D01*
X94170477Y-90304952D01*
X94075239Y-90352571D01*
X93741905Y-90352571D01*
X95265715Y-90876381D02*
X94694286Y-90876381D01*
X94980000Y-90876381D02*
X94980000Y-89876381D01*
X94884762Y-90019238D01*
X94789524Y-90114476D01*
X94694286Y-90162095D01*
X86645905Y-93416381D02*
X86645905Y-92416381D01*
X87026858Y-92416381D01*
X87122096Y-92464000D01*
X87169715Y-92511619D01*
X87217334Y-92606857D01*
X87217334Y-92749714D01*
X87169715Y-92844952D01*
X87122096Y-92892571D01*
X87026858Y-92940190D01*
X86645905Y-92940190D01*
X87979239Y-92892571D02*
X88122096Y-92940190D01*
X88169715Y-92987810D01*
X88217334Y-93083048D01*
X88217334Y-93225905D01*
X88169715Y-93321143D01*
X88122096Y-93368762D01*
X88026858Y-93416381D01*
X87645905Y-93416381D01*
X87645905Y-92416381D01*
X87979239Y-92416381D01*
X88074477Y-92464000D01*
X88122096Y-92511619D01*
X88169715Y-92606857D01*
X88169715Y-92702095D01*
X88122096Y-92797333D01*
X88074477Y-92844952D01*
X87979239Y-92892571D01*
X87645905Y-92892571D01*
X88836381Y-92416381D02*
X88931620Y-92416381D01*
X89026858Y-92464000D01*
X89074477Y-92511619D01*
X89122096Y-92606857D01*
X89169715Y-92797333D01*
X89169715Y-93035429D01*
X89122096Y-93225905D01*
X89074477Y-93321143D01*
X89026858Y-93368762D01*
X88931620Y-93416381D01*
X88836381Y-93416381D01*
X88741143Y-93368762D01*
X88693524Y-93321143D01*
X88645905Y-93225905D01*
X88598286Y-93035429D01*
X88598286Y-92797333D01*
X88645905Y-92606857D01*
X88693524Y-92511619D01*
X88741143Y-92464000D01*
X88836381Y-92416381D01*
D13*
X81641054Y-78630961D02*
G75*
G03X81641054Y-78630961I-50801J0D01*
G01*
X79306186Y-78487276D02*
G75*
G03X79306186Y-78487276I-50800J0D01*
G01*
D12*
X80217476Y-78613000D02*
X80376575Y-78772099D01*
X85344000Y-73486476D02*
X85573810Y-73716286D01*
X90470524Y-78613000D02*
X90240714Y-78383190D01*
X85344000Y-83739524D02*
X85114190Y-83509714D01*
X80217476Y-78613000D02*
X80447286Y-78383190D01*
X85344000Y-83739524D02*
X85573810Y-83509714D01*
X90470524Y-78613000D02*
X90240714Y-78842810D01*
X85344000Y-73486476D02*
X85114190Y-73716286D01*
X80376575Y-78772099D02*
X79368948Y-79779726D01*
D14*
X107188000Y-61074300D02*
X107188000Y-62344300D01*
X107823000Y-61709300D02*
X106553000Y-61709300D01*
X112318800Y-67602100D02*
G75*
G03X112318800Y-67602100I-5130800J0D01*
G01*
X110617000Y-72123300D02*
X110617000Y-73393300D01*
X111252000Y-72758300D02*
X109982000Y-72758300D01*
X115747800Y-78651100D02*
G75*
G03X115747800Y-78651100I-5130800J0D01*
G01*
D15*
X81796000Y-92290000D02*
X82796000Y-92290000D01*
X82796000Y-90590000D02*
X81796000Y-90590000D01*
X81472594Y-82810513D02*
X80765487Y-82103406D01*
X79563406Y-83305487D02*
X80270513Y-84012594D01*
X92140594Y-74936513D02*
X91433487Y-74229406D01*
X90231406Y-75431487D02*
X90938513Y-76138594D01*
X74418000Y-57166000D02*
X74418000Y-59166000D01*
X76458000Y-59166000D02*
X76458000Y-57166000D01*
X84590000Y-58254000D02*
X85590000Y-58254000D01*
X85590000Y-56554000D02*
X84590000Y-56554000D01*
X93814000Y-85844000D02*
X93814000Y-84844000D01*
X92114000Y-84844000D02*
X92114000Y-85844000D01*
X90543000Y-87288000D02*
X89543000Y-87288000D01*
X89543000Y-88988000D02*
X90543000Y-88988000D01*
X91020000Y-66794000D02*
X91020000Y-65794000D01*
X89320000Y-65794000D02*
X89320000Y-66794000D01*
D10*
X112800000Y-67664000D02*
X112800000Y-68064000D01*
X112800000Y-67364000D02*
X113000000Y-67664000D01*
X113000000Y-67664000D02*
X112600000Y-67664000D01*
X112600000Y-67664000D02*
X112800000Y-67364000D01*
X112800000Y-66964000D02*
X112800000Y-67364000D01*
X112800000Y-67364000D02*
X113050000Y-67364000D01*
X113050000Y-67364000D02*
X112550000Y-67364000D01*
D15*
X115300000Y-65364000D02*
X113300000Y-65364000D01*
X113300000Y-65364000D02*
X113300000Y-69214000D01*
X115300000Y-65364000D02*
X115300000Y-69214000D01*
D10*
X110544000Y-59278000D02*
X110544000Y-58928000D01*
X110544000Y-58928000D02*
X110544000Y-58578000D01*
X110894000Y-59278000D02*
X110544000Y-58928000D01*
X110894000Y-59228000D02*
X110894000Y-59278000D01*
X110894000Y-59278000D02*
X110894000Y-59228000D01*
X110894000Y-58578000D02*
X110894000Y-59228000D01*
X110844000Y-58628000D02*
X110894000Y-58578000D01*
X110544000Y-58928000D02*
X110844000Y-58628000D01*
D15*
X108944000Y-58228000D02*
X108944000Y-59628000D01*
X108944000Y-59628000D02*
X111744000Y-59628000D01*
X108944000Y-58228000D02*
X111744000Y-58228000D01*
D10*
X101188000Y-69669000D02*
X100838000Y-69669000D01*
X100838000Y-69669000D02*
X100488000Y-69669000D01*
X101188000Y-69319000D02*
X100838000Y-69669000D01*
X101138000Y-69319000D02*
X101188000Y-69319000D01*
X101188000Y-69319000D02*
X101138000Y-69319000D01*
X100488000Y-69319000D02*
X101138000Y-69319000D01*
X100538000Y-69369000D02*
X100488000Y-69319000D01*
X100838000Y-69669000D02*
X100538000Y-69369000D01*
D15*
X100138000Y-71269000D02*
X101538000Y-71269000D01*
X101538000Y-71269000D02*
X101538000Y-68469000D01*
X100138000Y-71269000D02*
X100138000Y-68469000D01*
D10*
X111198000Y-85375000D02*
X111198000Y-85725000D01*
X111198000Y-85725000D02*
X111198000Y-86075000D01*
X110848000Y-85375000D02*
X111198000Y-85725000D01*
X110848000Y-85425000D02*
X110848000Y-85375000D01*
X110848000Y-85375000D02*
X110848000Y-85425000D01*
X110848000Y-86075000D02*
X110848000Y-85425000D01*
X110898000Y-86025000D02*
X110848000Y-86075000D01*
X111198000Y-85725000D02*
X110898000Y-86025000D01*
D15*
X112798000Y-86425000D02*
X112798000Y-85025000D01*
X112798000Y-85025000D02*
X109998000Y-85025000D01*
X112798000Y-86425000D02*
X109998000Y-86425000D01*
D10*
X104298000Y-96828000D02*
X104648000Y-96828000D01*
X104648000Y-96828000D02*
X104998000Y-96828000D01*
X104298000Y-97178000D02*
X104648000Y-96828000D01*
X104348000Y-97178000D02*
X104298000Y-97178000D01*
X104298000Y-97178000D02*
X104348000Y-97178000D01*
X104998000Y-97178000D02*
X104348000Y-97178000D01*
X104948000Y-97128000D02*
X104998000Y-97178000D01*
X104648000Y-96828000D02*
X104948000Y-97128000D01*
D15*
X105348000Y-95228000D02*
X103948000Y-95228000D01*
X103948000Y-95228000D02*
X103948000Y-98028000D01*
X105348000Y-95228000D02*
X105348000Y-98028000D01*
D10*
X95281000Y-96828000D02*
X95631000Y-96828000D01*
X95631000Y-96828000D02*
X95981000Y-96828000D01*
X95281000Y-97178000D02*
X95631000Y-96828000D01*
X95331000Y-97178000D02*
X95281000Y-97178000D01*
X95281000Y-97178000D02*
X95331000Y-97178000D01*
X95981000Y-97178000D02*
X95331000Y-97178000D01*
X95931000Y-97128000D02*
X95981000Y-97178000D01*
X95631000Y-96828000D02*
X95931000Y-97128000D01*
D15*
X96331000Y-95228000D02*
X94931000Y-95228000D01*
X94931000Y-95228000D02*
X94931000Y-98028000D01*
X96331000Y-95228000D02*
X96331000Y-98028000D01*
D10*
X112927000Y-89381000D02*
X112927000Y-89781000D01*
X112927000Y-89081000D02*
X113127000Y-89381000D01*
X113127000Y-89381000D02*
X112727000Y-89381000D01*
X112727000Y-89381000D02*
X112927000Y-89081000D01*
X112927000Y-88681000D02*
X112927000Y-89081000D01*
X112927000Y-89081000D02*
X113177000Y-89081000D01*
X113177000Y-89081000D02*
X112677000Y-89081000D01*
D15*
X115427000Y-87081000D02*
X113427000Y-87081000D01*
X113427000Y-87081000D02*
X113427000Y-90931000D01*
X115427000Y-87081000D02*
X115427000Y-90931000D01*
D10*
X86560000Y-91090000D02*
X86560000Y-91440000D01*
X86560000Y-91440000D02*
X86560000Y-91790000D01*
X86210000Y-91090000D02*
X86560000Y-91440000D01*
X86210000Y-91140000D02*
X86210000Y-91090000D01*
X86210000Y-91090000D02*
X86210000Y-91140000D01*
X86210000Y-91790000D02*
X86210000Y-91140000D01*
X86260000Y-91740000D02*
X86210000Y-91790000D01*
X86560000Y-91440000D02*
X86260000Y-91740000D01*
D15*
X88160000Y-92140000D02*
X88160000Y-90740000D01*
X88160000Y-90740000D02*
X85360000Y-90740000D01*
X88160000Y-92140000D02*
X85360000Y-92140000D01*
D10*
X90624000Y-90074000D02*
X90624000Y-90424000D01*
X90624000Y-90424000D02*
X90624000Y-90774000D01*
X90274000Y-90074000D02*
X90624000Y-90424000D01*
X90274000Y-90124000D02*
X90274000Y-90074000D01*
X90274000Y-90074000D02*
X90274000Y-90124000D01*
X90274000Y-90774000D02*
X90274000Y-90124000D01*
X90324000Y-90724000D02*
X90274000Y-90774000D01*
X90624000Y-90424000D02*
X90324000Y-90724000D01*
D15*
X92224000Y-91124000D02*
X92224000Y-89724000D01*
X92224000Y-89724000D02*
X89424000Y-89724000D01*
X92224000Y-91124000D02*
X89424000Y-91124000D01*
D10*
X100149000Y-76739000D02*
X100149000Y-77089000D01*
X100149000Y-77089000D02*
X100149000Y-77439000D01*
X99799000Y-76739000D02*
X100149000Y-77089000D01*
X99799000Y-76789000D02*
X99799000Y-76739000D01*
X99799000Y-76739000D02*
X99799000Y-76789000D01*
X99799000Y-77439000D02*
X99799000Y-76789000D01*
X99849000Y-77389000D02*
X99799000Y-77439000D01*
X100149000Y-77089000D02*
X99849000Y-77389000D01*
D15*
X101749000Y-77789000D02*
X101749000Y-76389000D01*
X101749000Y-76389000D02*
X98949000Y-76389000D01*
X101749000Y-77789000D02*
X98949000Y-77789000D01*
D10*
X77628000Y-96828000D02*
X77978000Y-96828000D01*
X77978000Y-96828000D02*
X78328000Y-96828000D01*
X77628000Y-97178000D02*
X77978000Y-96828000D01*
X77678000Y-97178000D02*
X77628000Y-97178000D01*
X77628000Y-97178000D02*
X77678000Y-97178000D01*
X78328000Y-97178000D02*
X77678000Y-97178000D01*
X78278000Y-97128000D02*
X78328000Y-97178000D01*
X77978000Y-96828000D02*
X78278000Y-97128000D01*
D15*
X78678000Y-95228000D02*
X77278000Y-95228000D01*
X77278000Y-95228000D02*
X77278000Y-98028000D01*
X78678000Y-95228000D02*
X78678000Y-98028000D01*
D10*
X86391000Y-96828000D02*
X86741000Y-96828000D01*
X86741000Y-96828000D02*
X87091000Y-96828000D01*
X86391000Y-97178000D02*
X86741000Y-96828000D01*
X86441000Y-97178000D02*
X86391000Y-97178000D01*
X86391000Y-97178000D02*
X86441000Y-97178000D01*
X87091000Y-97178000D02*
X86441000Y-97178000D01*
X87041000Y-97128000D02*
X87091000Y-97178000D01*
X86741000Y-96828000D02*
X87041000Y-97128000D01*
D15*
X87441000Y-95228000D02*
X86041000Y-95228000D01*
X86041000Y-95228000D02*
X86041000Y-98028000D01*
X87441000Y-95228000D02*
X87441000Y-98028000D01*
D10*
X102005000Y-81253000D02*
X102005000Y-81653000D01*
X102005000Y-80953000D02*
X102205000Y-81253000D01*
X102205000Y-81253000D02*
X101805000Y-81253000D01*
X101805000Y-81253000D02*
X102005000Y-80953000D01*
X102005000Y-80553000D02*
X102005000Y-80953000D01*
X102005000Y-80953000D02*
X102255000Y-80953000D01*
X102255000Y-80953000D02*
X101755000Y-80953000D01*
D15*
X104505000Y-78953000D02*
X102505000Y-78953000D01*
X102505000Y-78953000D02*
X102505000Y-82803000D01*
X104505000Y-78953000D02*
X104505000Y-82803000D01*
D16*
X72914000Y-65878000D02*
X73814000Y-64778000D01*
X74614000Y-65878000D02*
X72914000Y-65878000D01*
X73814000Y-64778000D02*
X74614000Y-65878000D01*
X74614000Y-64778000D02*
X72914000Y-64778000D01*
D15*
X75247500Y-62103000D02*
X72580500Y-62103000D01*
X72580500Y-62103000D02*
X72580500Y-65278000D01*
X75247500Y-62103000D02*
X75247500Y-65278000D01*
D10*
X79090000Y-57604000D02*
X78740000Y-57604000D01*
X78740000Y-57604000D02*
X78390000Y-57604000D01*
X79090000Y-57254000D02*
X78740000Y-57604000D01*
X79040000Y-57254000D02*
X79090000Y-57254000D01*
X79090000Y-57254000D02*
X79040000Y-57254000D01*
X78390000Y-57254000D02*
X79040000Y-57254000D01*
X78440000Y-57304000D02*
X78390000Y-57254000D01*
X78740000Y-57604000D02*
X78440000Y-57304000D01*
D15*
X78040000Y-59204000D02*
X79440000Y-59204000D01*
X79440000Y-59204000D02*
X79440000Y-56404000D01*
X78040000Y-59204000D02*
X78040000Y-56404000D01*
D10*
X96170000Y-66602000D02*
X96520000Y-66602000D01*
X96520000Y-66602000D02*
X96870000Y-66602000D01*
X96170000Y-66952000D02*
X96520000Y-66602000D01*
X96220000Y-66952000D02*
X96170000Y-66952000D01*
X96170000Y-66952000D02*
X96220000Y-66952000D01*
X96870000Y-66952000D02*
X96220000Y-66952000D01*
X96820000Y-66902000D02*
X96870000Y-66952000D01*
X96520000Y-66602000D02*
X96820000Y-66902000D01*
D15*
X97220000Y-65002000D02*
X95820000Y-65002000D01*
X95820000Y-65002000D02*
X95820000Y-67802000D01*
X97220000Y-65002000D02*
X97220000Y-67802000D01*
X79712000Y-60722000D02*
X79712000Y-62722000D01*
X76752000Y-62722000D02*
X76752000Y-60722000D01*
D12*
X122181000Y-67880000D02*
X125491000Y-67880000D01*
X125491000Y-67880000D02*
X125491000Y-60080000D01*
X125491000Y-60080000D02*
X122181000Y-60080000D01*
X122181000Y-56480000D02*
X116459000Y-56480000D01*
X122181000Y-71480000D02*
X116459000Y-71480000D01*
X122181000Y-56480000D02*
X122181000Y-71480000D01*
X116459000Y-56480000D02*
X116459000Y-71480000D01*
X115704000Y-101154000D02*
X119014000Y-101154000D01*
X119014000Y-101154000D02*
X119014000Y-93354000D01*
X119014000Y-93354000D02*
X115704000Y-93354000D01*
X115704000Y-93354000D02*
X109982000Y-93354000D01*
X115704000Y-101154000D02*
X109982000Y-101154000D01*
X115704000Y-93354000D02*
X115704000Y-101154000D01*
X109982000Y-93354000D02*
X109982000Y-101154000D01*
X121927000Y-92320000D02*
X125237000Y-92320000D01*
X125237000Y-92320000D02*
X125237000Y-84520000D01*
X125237000Y-84520000D02*
X121927000Y-84520000D01*
X121927000Y-84520000D02*
X116205000Y-84520000D01*
X121927000Y-92320000D02*
X116205000Y-92320000D01*
X121927000Y-84520000D02*
X121927000Y-92320000D01*
X116205000Y-84520000D02*
X116205000Y-92320000D01*
X121927000Y-82668000D02*
X125237000Y-82668000D01*
X125237000Y-82668000D02*
X125237000Y-74868000D01*
X125237000Y-74868000D02*
X121927000Y-74868000D01*
X121927000Y-74868000D02*
X116205000Y-74868000D01*
X121927000Y-82668000D02*
X116205000Y-82668000D01*
X121927000Y-74868000D02*
X121927000Y-82668000D01*
X116205000Y-74868000D02*
X116205000Y-82668000D01*
X72390000Y-73406000D02*
X72390000Y-78486000D01*
X72110000Y-70586000D02*
X73660000Y-70586000D01*
X74930000Y-70866000D02*
X74930000Y-73406000D01*
X74930000Y-73406000D02*
X72390000Y-73406000D01*
X72390000Y-78486000D02*
X77470000Y-78486000D01*
X77470000Y-78486000D02*
X77470000Y-73406000D01*
X72110000Y-70586000D02*
X72110000Y-72136000D01*
X77470000Y-70866000D02*
X74930000Y-70866000D01*
X77470000Y-73406000D02*
X77470000Y-70866000D01*
D15*
X113954000Y-58048000D02*
X115154000Y-58048000D01*
X115154000Y-59808000D02*
X113954000Y-59808000D01*
X113954000Y-60080000D02*
X115154000Y-60080000D01*
X115154000Y-61840000D02*
X113954000Y-61840000D01*
X99958000Y-66005000D02*
X99958000Y-64805000D01*
X101718000Y-64805000D02*
X101718000Y-66005000D01*
X108830000Y-85887000D02*
X108830000Y-87087000D01*
X107070000Y-87087000D02*
X107070000Y-85887000D01*
X107070000Y-90389000D02*
X107070000Y-89189000D01*
X108830000Y-89189000D02*
X108830000Y-90389000D01*
X102524000Y-99196000D02*
X103724000Y-99196000D01*
X103724000Y-100956000D02*
X102524000Y-100956000D01*
X93507000Y-99196000D02*
X94707000Y-99196000D01*
X94707000Y-100956000D02*
X93507000Y-100956000D01*
X103496000Y-96428000D02*
X103496000Y-97628000D01*
X101736000Y-97628000D02*
X101736000Y-96428000D01*
X94479000Y-96428000D02*
X94479000Y-97628000D01*
X92719000Y-97628000D02*
X92719000Y-96428000D01*
X84210000Y-89373000D02*
X84210000Y-88173000D01*
X85970000Y-88173000D02*
X85970000Y-89373000D01*
X98968000Y-99196000D02*
X100168000Y-99196000D01*
X100168000Y-100956000D02*
X98968000Y-100956000D01*
X89951000Y-99196000D02*
X91151000Y-99196000D01*
X91151000Y-100956000D02*
X89951000Y-100956000D01*
X86242000Y-89373000D02*
X86242000Y-88173000D01*
X88002000Y-88173000D02*
X88002000Y-89373000D01*
X97781000Y-77505000D02*
X97781000Y-78705000D01*
X96021000Y-78705000D02*
X96021000Y-77505000D01*
X96021000Y-82261000D02*
X96021000Y-81061000D01*
X97781000Y-81061000D02*
X97781000Y-82261000D01*
X75854000Y-99196000D02*
X77054000Y-99196000D01*
X77054000Y-100956000D02*
X75854000Y-100956000D01*
X84617000Y-99196000D02*
X85817000Y-99196000D01*
X85817000Y-100956000D02*
X84617000Y-100956000D01*
X76826000Y-96428000D02*
X76826000Y-97628000D01*
X75066000Y-97628000D02*
X75066000Y-96428000D01*
X85589000Y-96428000D02*
X85589000Y-97628000D01*
X83829000Y-97628000D02*
X83829000Y-96428000D01*
X72298000Y-99196000D02*
X73498000Y-99196000D01*
X73498000Y-100956000D02*
X72298000Y-100956000D01*
X81061000Y-99196000D02*
X82261000Y-99196000D01*
X82261000Y-100956000D02*
X81061000Y-100956000D01*
X88448010Y-73690518D02*
X87599482Y-72841990D01*
X88843990Y-71597482D02*
X89692518Y-72446010D01*
X81652000Y-56550000D02*
X81652000Y-57750000D01*
X79892000Y-57750000D02*
X79892000Y-56550000D01*
X80146000Y-61814000D02*
X80146000Y-60614000D01*
X81906000Y-60614000D02*
X81906000Y-61814000D01*
X81162000Y-66640000D02*
X81162000Y-65440000D01*
X82922000Y-65440000D02*
X82922000Y-66640000D01*
X84954000Y-65440000D02*
X84954000Y-66640000D01*
X83194000Y-66640000D02*
X83194000Y-65440000D01*
X73060000Y-79638000D02*
X74260000Y-79638000D01*
X74260000Y-81398000D02*
X73060000Y-81398000D01*
X74260000Y-83430000D02*
X73060000Y-83430000D01*
X73060000Y-81670000D02*
X74260000Y-81670000D01*
X95292000Y-65726000D02*
X95292000Y-70926000D01*
X91652000Y-70926000D02*
X91652000Y-65726000D01*
X79130000Y-74260000D02*
X79130000Y-73060000D01*
X80890000Y-73060000D02*
X80890000Y-74260000D01*
X97400000Y-70012000D02*
X97400000Y-71212000D01*
X95640000Y-71212000D02*
X95640000Y-70012000D01*
D12*
X81983400Y-90205000D02*
X81983400Y-90155000D01*
X77833400Y-90205000D02*
X77833400Y-90060000D01*
X77833400Y-85055000D02*
X77833400Y-85200000D01*
X81983400Y-85055000D02*
X81983400Y-85200000D01*
X81983400Y-90205000D02*
X77833400Y-90205000D01*
X81983400Y-85055000D02*
X77833400Y-85055000D01*
X81983400Y-90155000D02*
X83383400Y-90155000D01*
D15*
X83428000Y-62062000D02*
X85228000Y-62062000D01*
X85228000Y-58842000D02*
X82778000Y-58842000D01*
D10*
X92043000Y-86944000D02*
X90043000Y-86944000D01*
X92043000Y-86944000D02*
X92043000Y-85344000D01*
D15*
X111631000Y-91369000D02*
X111631000Y-90439000D01*
X111631000Y-88209000D02*
X111631000Y-89139000D01*
X111631000Y-88209000D02*
X109471000Y-88209000D01*
X111631000Y-91369000D02*
X110171000Y-91369000D01*
X98808000Y-95448000D02*
X98808000Y-96378000D01*
X98808000Y-98608000D02*
X98808000Y-97678000D01*
X98808000Y-98608000D02*
X100968000Y-98608000D01*
X98808000Y-95448000D02*
X100268000Y-95448000D01*
X89791000Y-95448000D02*
X89791000Y-96378000D01*
X89791000Y-98608000D02*
X89791000Y-97678000D01*
X89791000Y-98608000D02*
X91951000Y-98608000D01*
X89791000Y-95448000D02*
X91251000Y-95448000D01*
X100709000Y-83241000D02*
X100709000Y-82311000D01*
X100709000Y-80081000D02*
X100709000Y-81011000D01*
X100709000Y-80081000D02*
X98549000Y-80081000D01*
X100709000Y-83241000D02*
X99249000Y-83241000D01*
X72138000Y-95448000D02*
X72138000Y-96378000D01*
X72138000Y-98608000D02*
X72138000Y-97678000D01*
X72138000Y-98608000D02*
X74298000Y-98608000D01*
X72138000Y-95448000D02*
X73598000Y-95448000D01*
X80901000Y-95448000D02*
X80901000Y-96378000D01*
X80901000Y-98608000D02*
X80901000Y-97678000D01*
X80901000Y-98608000D02*
X83061000Y-98608000D01*
X80901000Y-95448000D02*
X82361000Y-95448000D01*
X88988000Y-66794000D02*
X88988000Y-65794000D01*
X87288000Y-65794000D02*
X87288000Y-66794000D01*
X86956000Y-66794000D02*
X86956000Y-65794000D01*
X85256000Y-65794000D02*
X85256000Y-66794000D01*
D12*
X65930000Y-90570000D02*
X71230000Y-90570000D01*
X65930000Y-63100000D02*
X71230000Y-63100000D01*
X65930000Y-90570000D02*
X65930000Y-63100000D01*
X71230000Y-90570000D02*
X71230000Y-63100000D01*
X84333848Y-71765610D02*
X85040955Y-71058503D01*
X85141970Y-72439045D02*
X85074626Y-72439045D01*
X84939939Y-72371702D01*
X84872596Y-72304358D01*
X84805252Y-72169671D01*
X84805252Y-72034984D01*
X84838924Y-71933969D01*
X84939939Y-71765610D01*
X85040955Y-71664594D01*
X85209313Y-71563579D01*
X85310328Y-71529907D01*
X85445015Y-71529907D01*
X85579703Y-71597252D01*
X85647046Y-71664595D01*
X85714390Y-71799282D01*
X85714390Y-71866625D01*
X85748061Y-73179824D02*
X85344000Y-72775762D01*
X85546030Y-72977793D02*
X86253137Y-72270686D01*
X86084778Y-72304358D01*
X85950092Y-72304358D01*
X85849076Y-72270686D01*
X107545143Y-67768766D02*
X107592762Y-67816385D01*
X107640381Y-67959242D01*
X107640381Y-68054480D01*
X107592762Y-68197338D01*
X107497524Y-68292576D01*
X107402286Y-68340195D01*
X107211810Y-68387814D01*
X107068952Y-68387814D01*
X106878476Y-68340195D01*
X106783238Y-68292576D01*
X106688000Y-68197338D01*
X106640381Y-68054480D01*
X106640381Y-67959242D01*
X106688000Y-67816385D01*
X106735619Y-67768766D01*
X107640381Y-66816385D02*
X107640381Y-67387814D01*
X107640381Y-67102100D02*
X106640381Y-67102100D01*
X106783238Y-67197338D01*
X106878476Y-67292576D01*
X106926095Y-67387814D01*
X107545143Y-69744957D02*
X107592762Y-69792576D01*
X107640381Y-69935433D01*
X107640381Y-70030671D01*
X107592762Y-70173529D01*
X107497524Y-70268767D01*
X107402286Y-70316386D01*
X107211810Y-70364005D01*
X107068952Y-70364005D01*
X106878476Y-70316386D01*
X106783238Y-70268767D01*
X106688000Y-70173529D01*
X106640381Y-70030671D01*
X106640381Y-69935433D01*
X106688000Y-69792576D01*
X106735619Y-69744957D01*
X107640381Y-69316386D02*
X106640381Y-69316386D01*
X106640381Y-68935433D01*
X106688000Y-68840195D01*
X106735619Y-68792576D01*
X106830857Y-68744957D01*
X106973714Y-68744957D01*
X107068952Y-68792576D01*
X107116571Y-68840195D01*
X107164190Y-68935433D01*
X107164190Y-69316386D01*
X107735619Y-68554481D02*
X107735619Y-67792576D01*
X107640381Y-67030671D02*
X107640381Y-67602100D01*
X107640381Y-67316386D02*
X106640381Y-67316386D01*
X106783238Y-67411624D01*
X106878476Y-67506862D01*
X106926095Y-67602100D01*
X107640381Y-66602100D02*
X106973714Y-66602100D01*
X107068952Y-66602100D02*
X107021333Y-66554481D01*
X106973714Y-66459243D01*
X106973714Y-66316385D01*
X107021333Y-66221147D01*
X107116571Y-66173528D01*
X107640381Y-66173528D01*
X107116571Y-66173528D02*
X107021333Y-66125909D01*
X106973714Y-66030671D01*
X106973714Y-65887814D01*
X107021333Y-65792576D01*
X107116571Y-65744957D01*
X107640381Y-65744957D01*
X107116571Y-64935433D02*
X107116571Y-65268767D01*
X107640381Y-65268767D02*
X106640381Y-65268767D01*
X106640381Y-64792576D01*
X110974143Y-78817766D02*
X111021762Y-78865385D01*
X111069381Y-79008242D01*
X111069381Y-79103480D01*
X111021762Y-79246338D01*
X110926524Y-79341576D01*
X110831286Y-79389195D01*
X110640810Y-79436814D01*
X110497952Y-79436814D01*
X110307476Y-79389195D01*
X110212238Y-79341576D01*
X110117000Y-79246338D01*
X110069381Y-79103480D01*
X110069381Y-79008242D01*
X110117000Y-78865385D01*
X110164619Y-78817766D01*
X110164619Y-78436814D02*
X110117000Y-78389195D01*
X110069381Y-78293957D01*
X110069381Y-78055861D01*
X110117000Y-77960623D01*
X110164619Y-77913004D01*
X110259857Y-77865385D01*
X110355095Y-77865385D01*
X110497952Y-77913004D01*
X111069381Y-78484433D01*
X111069381Y-77865385D01*
X110974143Y-80793957D02*
X111021762Y-80841576D01*
X111069381Y-80984433D01*
X111069381Y-81079671D01*
X111021762Y-81222529D01*
X110926524Y-81317767D01*
X110831286Y-81365386D01*
X110640810Y-81413005D01*
X110497952Y-81413005D01*
X110307476Y-81365386D01*
X110212238Y-81317767D01*
X110117000Y-81222529D01*
X110069381Y-81079671D01*
X110069381Y-80984433D01*
X110117000Y-80841576D01*
X110164619Y-80793957D01*
X111069381Y-80365386D02*
X110069381Y-80365386D01*
X110069381Y-79984433D01*
X110117000Y-79889195D01*
X110164619Y-79841576D01*
X110259857Y-79793957D01*
X110402714Y-79793957D01*
X110497952Y-79841576D01*
X110545571Y-79889195D01*
X110593190Y-79984433D01*
X110593190Y-80365386D01*
X111164619Y-79603481D02*
X111164619Y-78841576D01*
X111069381Y-78079671D02*
X111069381Y-78651100D01*
X111069381Y-78365386D02*
X110069381Y-78365386D01*
X110212238Y-78460624D01*
X110307476Y-78555862D01*
X110355095Y-78651100D01*
X111069381Y-77651100D02*
X110402714Y-77651100D01*
X110497952Y-77651100D02*
X110450333Y-77603481D01*
X110402714Y-77508243D01*
X110402714Y-77365385D01*
X110450333Y-77270147D01*
X110545571Y-77222528D01*
X111069381Y-77222528D01*
X110545571Y-77222528D02*
X110450333Y-77174909D01*
X110402714Y-77079671D01*
X110402714Y-76936814D01*
X110450333Y-76841576D01*
X110545571Y-76793957D01*
X111069381Y-76793957D01*
X110545571Y-75984433D02*
X110545571Y-76317767D01*
X111069381Y-76317767D02*
X110069381Y-76317767D01*
X110069381Y-75841576D01*
X82129334Y-93321143D02*
X82081715Y-93368762D01*
X81938858Y-93416381D01*
X81843620Y-93416381D01*
X81700762Y-93368762D01*
X81605524Y-93273524D01*
X81557905Y-93178286D01*
X81510286Y-92987810D01*
X81510286Y-92844952D01*
X81557905Y-92654476D01*
X81605524Y-92559238D01*
X81700762Y-92464000D01*
X81843620Y-92416381D01*
X81938858Y-92416381D01*
X82081715Y-92464000D01*
X82129334Y-92511619D01*
X82462667Y-92416381D02*
X83081715Y-92416381D01*
X82748381Y-92797333D01*
X82891239Y-92797333D01*
X82986477Y-92844952D01*
X83034096Y-92892571D01*
X83081715Y-92987810D01*
X83081715Y-93225905D01*
X83034096Y-93321143D01*
X82986477Y-93368762D01*
X82891239Y-93416381D01*
X82605524Y-93416381D01*
X82510286Y-93368762D01*
X82462667Y-93321143D01*
X78623611Y-83954688D02*
X78556268Y-83954688D01*
X78421581Y-83887344D01*
X78354237Y-83820001D01*
X78286893Y-83685313D01*
X78286893Y-83550626D01*
X78320565Y-83449611D01*
X78421580Y-83281253D01*
X78522596Y-83180237D01*
X78690955Y-83079222D01*
X78791970Y-83045550D01*
X78926657Y-83045550D01*
X79061344Y-83112894D01*
X79128688Y-83180237D01*
X79196031Y-83314924D01*
X79196031Y-83382268D01*
X79633764Y-84156718D02*
X79162359Y-84628123D01*
X79734778Y-83718985D02*
X79061343Y-84055703D01*
X79499076Y-84493436D01*
X92847611Y-77604688D02*
X92780268Y-77604688D01*
X92645581Y-77537344D01*
X92578237Y-77470001D01*
X92510893Y-77335313D01*
X92510893Y-77200626D01*
X92544565Y-77099611D01*
X92645580Y-76931253D01*
X92746596Y-76830237D01*
X92914955Y-76729222D01*
X93015970Y-76695550D01*
X93150657Y-76695550D01*
X93285344Y-76762894D01*
X93352688Y-76830237D01*
X93420031Y-76964924D01*
X93420031Y-77032268D01*
X94127138Y-77604688D02*
X93790420Y-77267970D01*
X93420031Y-77571015D01*
X93487374Y-77571015D01*
X93588390Y-77604687D01*
X93756749Y-77773046D01*
X93790421Y-77874061D01*
X93790421Y-77941405D01*
X93756748Y-78042421D01*
X93588390Y-78210779D01*
X93487374Y-78244451D01*
X93420031Y-78244451D01*
X93319016Y-78210779D01*
X93150657Y-78042420D01*
X93116985Y-77941405D01*
X93116985Y-77874061D01*
X74045143Y-58332666D02*
X74092762Y-58380285D01*
X74140381Y-58523142D01*
X74140381Y-58618380D01*
X74092762Y-58761238D01*
X73997524Y-58856476D01*
X73902286Y-58904095D01*
X73711810Y-58951714D01*
X73568952Y-58951714D01*
X73378476Y-58904095D01*
X73283238Y-58856476D01*
X73188000Y-58761238D01*
X73140381Y-58618380D01*
X73140381Y-58523142D01*
X73188000Y-58380285D01*
X73235619Y-58332666D01*
X73140381Y-57475523D02*
X73140381Y-57666000D01*
X73188000Y-57761238D01*
X73235619Y-57808857D01*
X73378476Y-57904095D01*
X73568952Y-57951714D01*
X73949905Y-57951714D01*
X74045143Y-57904095D01*
X74092762Y-57856476D01*
X74140381Y-57761238D01*
X74140381Y-57570761D01*
X74092762Y-57475523D01*
X74045143Y-57427904D01*
X73949905Y-57380285D01*
X73711810Y-57380285D01*
X73616571Y-57427904D01*
X73568952Y-57475523D01*
X73521333Y-57570761D01*
X73521333Y-57761238D01*
X73568952Y-57856476D01*
X73616571Y-57904095D01*
X73711810Y-57951714D01*
X84923334Y-56237143D02*
X84875715Y-56284762D01*
X84732858Y-56332381D01*
X84637620Y-56332381D01*
X84494762Y-56284762D01*
X84399524Y-56189524D01*
X84351905Y-56094286D01*
X84304286Y-55903810D01*
X84304286Y-55760952D01*
X84351905Y-55570476D01*
X84399524Y-55475238D01*
X84494762Y-55380000D01*
X84637620Y-55332381D01*
X84732858Y-55332381D01*
X84875715Y-55380000D01*
X84923334Y-55427619D01*
X85256667Y-55332381D02*
X85923334Y-55332381D01*
X85494762Y-56332381D01*
X95099143Y-85510666D02*
X95146762Y-85558285D01*
X95194381Y-85701142D01*
X95194381Y-85796380D01*
X95146762Y-85939238D01*
X95051524Y-86034476D01*
X94956286Y-86082095D01*
X94765810Y-86129714D01*
X94622952Y-86129714D01*
X94432476Y-86082095D01*
X94337238Y-86034476D01*
X94242000Y-85939238D01*
X94194381Y-85796380D01*
X94194381Y-85701142D01*
X94242000Y-85558285D01*
X94289619Y-85510666D01*
X94622952Y-84939238D02*
X94575333Y-85034476D01*
X94527714Y-85082095D01*
X94432476Y-85129714D01*
X94384857Y-85129714D01*
X94289619Y-85082095D01*
X94242000Y-85034476D01*
X94194381Y-84939238D01*
X94194381Y-84748761D01*
X94242000Y-84653523D01*
X94289619Y-84605904D01*
X94384857Y-84558285D01*
X94432476Y-84558285D01*
X94527714Y-84605904D01*
X94575333Y-84653523D01*
X94622952Y-84748761D01*
X94622952Y-84939238D01*
X94670571Y-85034476D01*
X94718190Y-85082095D01*
X94813429Y-85129714D01*
X95003905Y-85129714D01*
X95099143Y-85082095D01*
X95146762Y-85034476D01*
X95194381Y-84939238D01*
X95194381Y-84748761D01*
X95146762Y-84653523D01*
X95099143Y-84605904D01*
X95003905Y-84558285D01*
X94813429Y-84558285D01*
X94718190Y-84605904D01*
X94670571Y-84653523D01*
X94622952Y-84748761D01*
X92797334Y-88749143D02*
X92749715Y-88796762D01*
X92606858Y-88844381D01*
X92511620Y-88844381D01*
X92368762Y-88796762D01*
X92273524Y-88701524D01*
X92225905Y-88606286D01*
X92178286Y-88415810D01*
X92178286Y-88272952D01*
X92225905Y-88082476D01*
X92273524Y-87987238D01*
X92368762Y-87892000D01*
X92511620Y-87844381D01*
X92606858Y-87844381D01*
X92749715Y-87892000D01*
X92797334Y-87939619D01*
X93273524Y-88844381D02*
X93464000Y-88844381D01*
X93559239Y-88796762D01*
X93606858Y-88749143D01*
X93702096Y-88606286D01*
X93749715Y-88415810D01*
X93749715Y-88034857D01*
X93702096Y-87939619D01*
X93654477Y-87892000D01*
X93559239Y-87844381D01*
X93368762Y-87844381D01*
X93273524Y-87892000D01*
X93225905Y-87939619D01*
X93178286Y-88034857D01*
X93178286Y-88272952D01*
X93225905Y-88368190D01*
X93273524Y-88415810D01*
X93368762Y-88463429D01*
X93559239Y-88463429D01*
X93654477Y-88415810D01*
X93702096Y-88368190D01*
X93749715Y-88272952D01*
X90527143Y-70238857D02*
X90574762Y-70286476D01*
X90622381Y-70429333D01*
X90622381Y-70524571D01*
X90574762Y-70667429D01*
X90479524Y-70762667D01*
X90384286Y-70810286D01*
X90193810Y-70857905D01*
X90050952Y-70857905D01*
X89860476Y-70810286D01*
X89765238Y-70762667D01*
X89670000Y-70667429D01*
X89622381Y-70524571D01*
X89622381Y-70429333D01*
X89670000Y-70286476D01*
X89717619Y-70238857D01*
X90622381Y-69286476D02*
X90622381Y-69857905D01*
X90622381Y-69572191D02*
X89622381Y-69572191D01*
X89765238Y-69667429D01*
X89860476Y-69762667D01*
X89908095Y-69857905D01*
X89622381Y-68667429D02*
X89622381Y-68572190D01*
X89670000Y-68476952D01*
X89717619Y-68429333D01*
X89812857Y-68381714D01*
X90003333Y-68334095D01*
X90241429Y-68334095D01*
X90431905Y-68381714D01*
X90527143Y-68429333D01*
X90574762Y-68476952D01*
X90622381Y-68572190D01*
X90622381Y-68667429D01*
X90574762Y-68762667D01*
X90527143Y-68810286D01*
X90431905Y-68857905D01*
X90241429Y-68905524D01*
X90003333Y-68905524D01*
X89812857Y-68857905D01*
X89717619Y-68810286D01*
X89670000Y-68762667D01*
X89622381Y-68667429D01*
X114879381Y-64619095D02*
X113879381Y-64619095D01*
X113879381Y-64381000D01*
X113927000Y-64238142D01*
X114022238Y-64142904D01*
X114117476Y-64095285D01*
X114307952Y-64047666D01*
X114450810Y-64047666D01*
X114641286Y-64095285D01*
X114736524Y-64142904D01*
X114831762Y-64238142D01*
X114879381Y-64381000D01*
X114879381Y-64619095D01*
X114879381Y-63095285D02*
X114879381Y-63666714D01*
X114879381Y-63381000D02*
X113879381Y-63381000D01*
X114022238Y-63476238D01*
X114117476Y-63571476D01*
X114165095Y-63666714D01*
X110005905Y-57930381D02*
X110005905Y-56930381D01*
X110244000Y-56930381D01*
X110386858Y-56978000D01*
X110482096Y-57073238D01*
X110529715Y-57168476D01*
X110577334Y-57358952D01*
X110577334Y-57501810D01*
X110529715Y-57692286D01*
X110482096Y-57787524D01*
X110386858Y-57882762D01*
X110244000Y-57930381D01*
X110005905Y-57930381D01*
X110958286Y-57025619D02*
X111005905Y-56978000D01*
X111101143Y-56930381D01*
X111339239Y-56930381D01*
X111434477Y-56978000D01*
X111482096Y-57025619D01*
X111529715Y-57120857D01*
X111529715Y-57216095D01*
X111482096Y-57358952D01*
X110910667Y-57930381D01*
X111529715Y-57930381D01*
X101290381Y-73382095D02*
X100290381Y-73382095D01*
X100290381Y-73144000D01*
X100338000Y-73001142D01*
X100433238Y-72905904D01*
X100528476Y-72858285D01*
X100718952Y-72810666D01*
X100861810Y-72810666D01*
X101052286Y-72858285D01*
X101147524Y-72905904D01*
X101242762Y-73001142D01*
X101290381Y-73144000D01*
X101290381Y-73382095D01*
X100290381Y-72477333D02*
X100290381Y-71858285D01*
X100671333Y-72191619D01*
X100671333Y-72048761D01*
X100718952Y-71953523D01*
X100766571Y-71905904D01*
X100861810Y-71858285D01*
X101099905Y-71858285D01*
X101195143Y-71905904D01*
X101242762Y-71953523D01*
X101290381Y-72048761D01*
X101290381Y-72334476D01*
X101242762Y-72429714D01*
X101195143Y-72477333D01*
X113307905Y-86177381D02*
X113307905Y-85177381D01*
X113546000Y-85177381D01*
X113688858Y-85225000D01*
X113784096Y-85320238D01*
X113831715Y-85415476D01*
X113879334Y-85605952D01*
X113879334Y-85748810D01*
X113831715Y-85939286D01*
X113784096Y-86034524D01*
X113688858Y-86129762D01*
X113546000Y-86177381D01*
X113307905Y-86177381D01*
X114736477Y-85510714D02*
X114736477Y-86177381D01*
X114498381Y-85129762D02*
X114260286Y-85844048D01*
X114879334Y-85844048D01*
X103909905Y-94940381D02*
X103909905Y-93940381D01*
X104148000Y-93940381D01*
X104290858Y-93988000D01*
X104386096Y-94083238D01*
X104433715Y-94178476D01*
X104481334Y-94368952D01*
X104481334Y-94511810D01*
X104433715Y-94702286D01*
X104386096Y-94797524D01*
X104290858Y-94892762D01*
X104148000Y-94940381D01*
X103909905Y-94940381D01*
X105386096Y-93940381D02*
X104909905Y-93940381D01*
X104862286Y-94416571D01*
X104909905Y-94368952D01*
X105005143Y-94321333D01*
X105243239Y-94321333D01*
X105338477Y-94368952D01*
X105386096Y-94416571D01*
X105433715Y-94511810D01*
X105433715Y-94749905D01*
X105386096Y-94845143D01*
X105338477Y-94892762D01*
X105243239Y-94940381D01*
X105005143Y-94940381D01*
X104909905Y-94892762D01*
X104862286Y-94845143D01*
X94892905Y-94940381D02*
X94892905Y-93940381D01*
X95131000Y-93940381D01*
X95273858Y-93988000D01*
X95369096Y-94083238D01*
X95416715Y-94178476D01*
X95464334Y-94368952D01*
X95464334Y-94511810D01*
X95416715Y-94702286D01*
X95369096Y-94797524D01*
X95273858Y-94892762D01*
X95131000Y-94940381D01*
X94892905Y-94940381D01*
X96321477Y-93940381D02*
X96131000Y-93940381D01*
X96035762Y-93988000D01*
X95988143Y-94035619D01*
X95892905Y-94178476D01*
X95845286Y-94368952D01*
X95845286Y-94749905D01*
X95892905Y-94845143D01*
X95940524Y-94892762D01*
X96035762Y-94940381D01*
X96226239Y-94940381D01*
X96321477Y-94892762D01*
X96369096Y-94845143D01*
X96416715Y-94749905D01*
X96416715Y-94511810D01*
X96369096Y-94416571D01*
X96321477Y-94368952D01*
X96226239Y-94321333D01*
X96035762Y-94321333D01*
X95940524Y-94368952D01*
X95892905Y-94416571D01*
X95845286Y-94511810D01*
X113688905Y-92781381D02*
X113688905Y-91781381D01*
X113927000Y-91781381D01*
X114069858Y-91829000D01*
X114165096Y-91924238D01*
X114212715Y-92019476D01*
X114260334Y-92209952D01*
X114260334Y-92352810D01*
X114212715Y-92543286D01*
X114165096Y-92638524D01*
X114069858Y-92733762D01*
X113927000Y-92781381D01*
X113688905Y-92781381D01*
X114593667Y-91781381D02*
X115260334Y-91781381D01*
X114831762Y-92781381D01*
X84478905Y-93342381D02*
X84478905Y-92342381D01*
X84717000Y-92342381D01*
X84859858Y-92390000D01*
X84955096Y-92485238D01*
X85002715Y-92580476D01*
X85050334Y-92770952D01*
X85050334Y-92913810D01*
X85002715Y-93104286D01*
X84955096Y-93199524D01*
X84859858Y-93294762D01*
X84717000Y-93342381D01*
X84478905Y-93342381D01*
X85621762Y-92770952D02*
X85526524Y-92723333D01*
X85478905Y-92675714D01*
X85431286Y-92580476D01*
X85431286Y-92532857D01*
X85478905Y-92437619D01*
X85526524Y-92390000D01*
X85621762Y-92342381D01*
X85812239Y-92342381D01*
X85907477Y-92390000D01*
X85955096Y-92437619D01*
X86002715Y-92532857D01*
X86002715Y-92580476D01*
X85955096Y-92675714D01*
X85907477Y-92723333D01*
X85812239Y-92770952D01*
X85621762Y-92770952D01*
X85526524Y-92818571D01*
X85478905Y-92866190D01*
X85431286Y-92961429D01*
X85431286Y-93151905D01*
X85478905Y-93247143D01*
X85526524Y-93294762D01*
X85621762Y-93342381D01*
X85812239Y-93342381D01*
X85907477Y-93294762D01*
X85955096Y-93247143D01*
X86002715Y-93151905D01*
X86002715Y-92961429D01*
X85955096Y-92866190D01*
X85907477Y-92818571D01*
X85812239Y-92770952D01*
X90193905Y-92400381D02*
X90193905Y-91400381D01*
X90432000Y-91400381D01*
X90574858Y-91448000D01*
X90670096Y-91543238D01*
X90717715Y-91638476D01*
X90765334Y-91828952D01*
X90765334Y-91971810D01*
X90717715Y-92162286D01*
X90670096Y-92257524D01*
X90574858Y-92352762D01*
X90432000Y-92400381D01*
X90193905Y-92400381D01*
X91241524Y-92400381D02*
X91432000Y-92400381D01*
X91527239Y-92352762D01*
X91574858Y-92305143D01*
X91670096Y-92162286D01*
X91717715Y-91971810D01*
X91717715Y-91590857D01*
X91670096Y-91495619D01*
X91622477Y-91448000D01*
X91527239Y-91400381D01*
X91336762Y-91400381D01*
X91241524Y-91448000D01*
X91193905Y-91495619D01*
X91146286Y-91590857D01*
X91146286Y-91828952D01*
X91193905Y-91924190D01*
X91241524Y-91971810D01*
X91336762Y-92019429D01*
X91527239Y-92019429D01*
X91622477Y-91971810D01*
X91670096Y-91924190D01*
X91717715Y-91828952D01*
X102290714Y-77541381D02*
X102290714Y-76541381D01*
X102528809Y-76541381D01*
X102671667Y-76589000D01*
X102766905Y-76684238D01*
X102814524Y-76779476D01*
X102862143Y-76969952D01*
X102862143Y-77112810D01*
X102814524Y-77303286D01*
X102766905Y-77398524D01*
X102671667Y-77493762D01*
X102528809Y-77541381D01*
X102290714Y-77541381D01*
X103814524Y-77541381D02*
X103243095Y-77541381D01*
X103528809Y-77541381D02*
X103528809Y-76541381D01*
X103433571Y-76684238D01*
X103338333Y-76779476D01*
X103243095Y-76827095D01*
X104433571Y-76541381D02*
X104528810Y-76541381D01*
X104624048Y-76589000D01*
X104671667Y-76636619D01*
X104719286Y-76731857D01*
X104766905Y-76922333D01*
X104766905Y-77160429D01*
X104719286Y-77350905D01*
X104671667Y-77446143D01*
X104624048Y-77493762D01*
X104528810Y-77541381D01*
X104433571Y-77541381D01*
X104338333Y-77493762D01*
X104290714Y-77446143D01*
X104243095Y-77350905D01*
X104195476Y-77160429D01*
X104195476Y-76922333D01*
X104243095Y-76731857D01*
X104290714Y-76636619D01*
X104338333Y-76589000D01*
X104433571Y-76541381D01*
X76255714Y-94940381D02*
X76255714Y-93940381D01*
X76493809Y-93940381D01*
X76636667Y-93988000D01*
X76731905Y-94083238D01*
X76779524Y-94178476D01*
X76827143Y-94368952D01*
X76827143Y-94511810D01*
X76779524Y-94702286D01*
X76731905Y-94797524D01*
X76636667Y-94892762D01*
X76493809Y-94940381D01*
X76255714Y-94940381D01*
X77779524Y-94940381D02*
X77208095Y-94940381D01*
X77493809Y-94940381D02*
X77493809Y-93940381D01*
X77398571Y-94083238D01*
X77303333Y-94178476D01*
X77208095Y-94226095D01*
X78731905Y-94940381D02*
X78160476Y-94940381D01*
X78446190Y-94940381D02*
X78446190Y-93940381D01*
X78350952Y-94083238D01*
X78255714Y-94178476D01*
X78160476Y-94226095D01*
X85018714Y-94940381D02*
X85018714Y-93940381D01*
X85256809Y-93940381D01*
X85399667Y-93988000D01*
X85494905Y-94083238D01*
X85542524Y-94178476D01*
X85590143Y-94368952D01*
X85590143Y-94511810D01*
X85542524Y-94702286D01*
X85494905Y-94797524D01*
X85399667Y-94892762D01*
X85256809Y-94940381D01*
X85018714Y-94940381D01*
X86542524Y-94940381D02*
X85971095Y-94940381D01*
X86256809Y-94940381D02*
X86256809Y-93940381D01*
X86161571Y-94083238D01*
X86066333Y-94178476D01*
X85971095Y-94226095D01*
X86923476Y-94035619D02*
X86971095Y-93988000D01*
X87066333Y-93940381D01*
X87304429Y-93940381D01*
X87399667Y-93988000D01*
X87447286Y-94035619D01*
X87494905Y-94130857D01*
X87494905Y-94226095D01*
X87447286Y-94368952D01*
X86875857Y-94940381D01*
X87494905Y-94940381D01*
X105338714Y-83129381D02*
X105338714Y-82129381D01*
X105576809Y-82129381D01*
X105719667Y-82177000D01*
X105814905Y-82272238D01*
X105862524Y-82367476D01*
X105910143Y-82557952D01*
X105910143Y-82700810D01*
X105862524Y-82891286D01*
X105814905Y-82986524D01*
X105719667Y-83081762D01*
X105576809Y-83129381D01*
X105338714Y-83129381D01*
X106862524Y-83129381D02*
X106291095Y-83129381D01*
X106576809Y-83129381D02*
X106576809Y-82129381D01*
X106481571Y-82272238D01*
X106386333Y-82367476D01*
X106291095Y-82415095D01*
X107195857Y-82129381D02*
X107814905Y-82129381D01*
X107481571Y-82510333D01*
X107624429Y-82510333D01*
X107719667Y-82557952D01*
X107767286Y-82605571D01*
X107814905Y-82700810D01*
X107814905Y-82938905D01*
X107767286Y-83034143D01*
X107719667Y-83081762D01*
X107624429Y-83129381D01*
X107338714Y-83129381D01*
X107243476Y-83081762D01*
X107195857Y-83034143D01*
X71937714Y-61666381D02*
X71937714Y-60666381D01*
X72175809Y-60666381D01*
X72318667Y-60714000D01*
X72413905Y-60809238D01*
X72461524Y-60904476D01*
X72509143Y-61094952D01*
X72509143Y-61237810D01*
X72461524Y-61428286D01*
X72413905Y-61523524D01*
X72318667Y-61618762D01*
X72175809Y-61666381D01*
X71937714Y-61666381D01*
X73461524Y-61666381D02*
X72890095Y-61666381D01*
X73175809Y-61666381D02*
X73175809Y-60666381D01*
X73080571Y-60809238D01*
X72985333Y-60904476D01*
X72890095Y-60952095D01*
X74318667Y-60999714D02*
X74318667Y-61666381D01*
X74080571Y-60618762D02*
X73842476Y-61333048D01*
X74461524Y-61333048D01*
X77742381Y-58872286D02*
X76742381Y-58872286D01*
X76742381Y-58634191D01*
X76790000Y-58491333D01*
X76885238Y-58396095D01*
X76980476Y-58348476D01*
X77170952Y-58300857D01*
X77313810Y-58300857D01*
X77504286Y-58348476D01*
X77599524Y-58396095D01*
X77694762Y-58491333D01*
X77742381Y-58634191D01*
X77742381Y-58872286D01*
X77742381Y-57348476D02*
X77742381Y-57919905D01*
X77742381Y-57634191D02*
X76742381Y-57634191D01*
X76885238Y-57729429D01*
X76980476Y-57824667D01*
X77028095Y-57919905D01*
X76742381Y-56443714D02*
X76742381Y-56919905D01*
X77218571Y-56967524D01*
X77170952Y-56919905D01*
X77123333Y-56824667D01*
X77123333Y-56586571D01*
X77170952Y-56491333D01*
X77218571Y-56443714D01*
X77313810Y-56396095D01*
X77551905Y-56396095D01*
X77647143Y-56443714D01*
X77694762Y-56491333D01*
X77742381Y-56586571D01*
X77742381Y-56824667D01*
X77694762Y-56919905D01*
X77647143Y-56967524D01*
X96972381Y-64206286D02*
X95972381Y-64206286D01*
X95972381Y-63968191D01*
X96020000Y-63825333D01*
X96115238Y-63730095D01*
X96210476Y-63682476D01*
X96400952Y-63634857D01*
X96543810Y-63634857D01*
X96734286Y-63682476D01*
X96829524Y-63730095D01*
X96924762Y-63825333D01*
X96972381Y-63968191D01*
X96972381Y-64206286D01*
X96972381Y-62682476D02*
X96972381Y-63253905D01*
X96972381Y-62968191D02*
X95972381Y-62968191D01*
X96115238Y-63063429D01*
X96210476Y-63158667D01*
X96258095Y-63253905D01*
X95972381Y-61825333D02*
X95972381Y-62015810D01*
X96020000Y-62111048D01*
X96067619Y-62158667D01*
X96210476Y-62253905D01*
X96400952Y-62301524D01*
X96781905Y-62301524D01*
X96877143Y-62253905D01*
X96924762Y-62206286D01*
X96972381Y-62111048D01*
X96972381Y-61920571D01*
X96924762Y-61825333D01*
X96877143Y-61777714D01*
X96781905Y-61730095D01*
X96543810Y-61730095D01*
X96448571Y-61777714D01*
X96400952Y-61825333D01*
X96353333Y-61920571D01*
X96353333Y-62111048D01*
X96400952Y-62206286D01*
X96448571Y-62253905D01*
X96543810Y-62301524D01*
X78152667Y-64698571D02*
X77819333Y-64698571D01*
X77819333Y-65222381D02*
X77819333Y-64222381D01*
X78295524Y-64222381D01*
X79200286Y-65222381D02*
X78628857Y-65222381D01*
X78914571Y-65222381D02*
X78914571Y-64222381D01*
X78819333Y-64365238D01*
X78724095Y-64460476D01*
X78628857Y-64508095D01*
X114982667Y-56602381D02*
X114982667Y-57316667D01*
X114935047Y-57459524D01*
X114839809Y-57554762D01*
X114696952Y-57602381D01*
X114601714Y-57602381D01*
X115982667Y-57602381D02*
X115411238Y-57602381D01*
X115696952Y-57602381D02*
X115696952Y-56602381D01*
X115601714Y-56745238D01*
X115506476Y-56840476D01*
X115411238Y-56888095D01*
X107870667Y-99401381D02*
X107870667Y-100115667D01*
X107823047Y-100258524D01*
X107727809Y-100353762D01*
X107584952Y-100401381D01*
X107489714Y-100401381D01*
X108299238Y-99496619D02*
X108346857Y-99449000D01*
X108442095Y-99401381D01*
X108680191Y-99401381D01*
X108775429Y-99449000D01*
X108823048Y-99496619D01*
X108870667Y-99591857D01*
X108870667Y-99687095D01*
X108823048Y-99829952D01*
X108251619Y-100401381D01*
X108870667Y-100401381D01*
X116506667Y-83272381D02*
X116506667Y-83986667D01*
X116459047Y-84129524D01*
X116363809Y-84224762D01*
X116220952Y-84272381D01*
X116125714Y-84272381D01*
X117411429Y-83605714D02*
X117411429Y-84272381D01*
X117173333Y-83224762D02*
X116935238Y-83939048D01*
X117554286Y-83939048D01*
X116506667Y-73112381D02*
X116506667Y-73826667D01*
X116459047Y-73969524D01*
X116363809Y-74064762D01*
X116220952Y-74112381D01*
X116125714Y-74112381D01*
X117459048Y-73112381D02*
X116982857Y-73112381D01*
X116935238Y-73588571D01*
X116982857Y-73540952D01*
X117078095Y-73493333D01*
X117316191Y-73493333D01*
X117411429Y-73540952D01*
X117459048Y-73588571D01*
X117506667Y-73683810D01*
X117506667Y-73921905D01*
X117459048Y-74017143D01*
X117411429Y-74064762D01*
X117316191Y-74112381D01*
X117078095Y-74112381D01*
X116982857Y-74064762D01*
X116935238Y-74017143D01*
X78152667Y-70064381D02*
X78152667Y-70778667D01*
X78105047Y-70921524D01*
X78009809Y-71016762D01*
X77866952Y-71064381D01*
X77771714Y-71064381D01*
X79057429Y-70064381D02*
X78866952Y-70064381D01*
X78771714Y-70112000D01*
X78724095Y-70159619D01*
X78628857Y-70302476D01*
X78581238Y-70492952D01*
X78581238Y-70873905D01*
X78628857Y-70969143D01*
X78676476Y-71016762D01*
X78771714Y-71064381D01*
X78962191Y-71064381D01*
X79057429Y-71016762D01*
X79105048Y-70969143D01*
X79152667Y-70873905D01*
X79152667Y-70635810D01*
X79105048Y-70540571D01*
X79057429Y-70492952D01*
X78962191Y-70445333D01*
X78771714Y-70445333D01*
X78676476Y-70492952D01*
X78628857Y-70540571D01*
X78581238Y-70635810D01*
X96353334Y-59126381D02*
X95877143Y-59126381D01*
X95877143Y-58126381D01*
X97210477Y-59126381D02*
X96639048Y-59126381D01*
X96924762Y-59126381D02*
X96924762Y-58126381D01*
X96829524Y-58269238D01*
X96734286Y-58364476D01*
X96639048Y-58412095D01*
X113117334Y-57602381D02*
X112784000Y-57126190D01*
X112545905Y-57602381D02*
X112545905Y-56602381D01*
X112926858Y-56602381D01*
X113022096Y-56650000D01*
X113069715Y-56697619D01*
X113117334Y-56792857D01*
X113117334Y-56935714D01*
X113069715Y-57030952D01*
X113022096Y-57078571D01*
X112926858Y-57126190D01*
X112545905Y-57126190D01*
X114069715Y-57602381D02*
X113498286Y-57602381D01*
X113784000Y-57602381D02*
X113784000Y-56602381D01*
X113688762Y-56745238D01*
X113593524Y-56840476D01*
X113498286Y-56888095D01*
X111847334Y-61412381D02*
X111514000Y-60936190D01*
X111275905Y-61412381D02*
X111275905Y-60412381D01*
X111656858Y-60412381D01*
X111752096Y-60460000D01*
X111799715Y-60507619D01*
X111847334Y-60602857D01*
X111847334Y-60745714D01*
X111799715Y-60840952D01*
X111752096Y-60888571D01*
X111656858Y-60936190D01*
X111275905Y-60936190D01*
X112180667Y-60412381D02*
X112799715Y-60412381D01*
X112466381Y-60793333D01*
X112609239Y-60793333D01*
X112704477Y-60840952D01*
X112752096Y-60888571D01*
X112799715Y-60983810D01*
X112799715Y-61221905D01*
X112752096Y-61317143D01*
X112704477Y-61364762D01*
X112609239Y-61412381D01*
X112323524Y-61412381D01*
X112228286Y-61364762D01*
X112180667Y-61317143D01*
X101290381Y-62650666D02*
X100814190Y-62984000D01*
X101290381Y-63222095D02*
X100290381Y-63222095D01*
X100290381Y-62841142D01*
X100338000Y-62745904D01*
X100385619Y-62698285D01*
X100480857Y-62650666D01*
X100623714Y-62650666D01*
X100718952Y-62698285D01*
X100766571Y-62745904D01*
X100814190Y-62841142D01*
X100814190Y-63222095D01*
X100623714Y-61793523D02*
X101290381Y-61793523D01*
X100242762Y-62031619D02*
X100957048Y-62269714D01*
X100957048Y-61650666D01*
X106752381Y-86653666D02*
X106276190Y-86987000D01*
X106752381Y-87225095D02*
X105752381Y-87225095D01*
X105752381Y-86844142D01*
X105800000Y-86748904D01*
X105847619Y-86701285D01*
X105942857Y-86653666D01*
X106085714Y-86653666D01*
X106180952Y-86701285D01*
X106228571Y-86748904D01*
X106276190Y-86844142D01*
X106276190Y-87225095D01*
X105752381Y-85748904D02*
X105752381Y-86225095D01*
X106228571Y-86272714D01*
X106180952Y-86225095D01*
X106133333Y-86129857D01*
X106133333Y-85891761D01*
X106180952Y-85796523D01*
X106228571Y-85748904D01*
X106323810Y-85701285D01*
X106561905Y-85701285D01*
X106657143Y-85748904D01*
X106704762Y-85796523D01*
X106752381Y-85891761D01*
X106752381Y-86129857D01*
X106704762Y-86225095D01*
X106657143Y-86272714D01*
X106624381Y-89955666D02*
X106148190Y-90289000D01*
X106624381Y-90527095D02*
X105624381Y-90527095D01*
X105624381Y-90146142D01*
X105672000Y-90050904D01*
X105719619Y-90003285D01*
X105814857Y-89955666D01*
X105957714Y-89955666D01*
X106052952Y-90003285D01*
X106100571Y-90050904D01*
X106148190Y-90146142D01*
X106148190Y-90527095D01*
X105624381Y-89098523D02*
X105624381Y-89289000D01*
X105672000Y-89384238D01*
X105719619Y-89431857D01*
X105862476Y-89527095D01*
X106052952Y-89574714D01*
X106433905Y-89574714D01*
X106529143Y-89527095D01*
X106576762Y-89479476D01*
X106624381Y-89384238D01*
X106624381Y-89193761D01*
X106576762Y-89098523D01*
X106529143Y-89050904D01*
X106433905Y-89003285D01*
X106195810Y-89003285D01*
X106100571Y-89050904D01*
X106052952Y-89098523D01*
X106005333Y-89193761D01*
X106005333Y-89384238D01*
X106052952Y-89479476D01*
X106100571Y-89527095D01*
X106195810Y-89574714D01*
X102957334Y-102178381D02*
X102624000Y-101702190D01*
X102385905Y-102178381D02*
X102385905Y-101178381D01*
X102766858Y-101178381D01*
X102862096Y-101226000D01*
X102909715Y-101273619D01*
X102957334Y-101368857D01*
X102957334Y-101511714D01*
X102909715Y-101606952D01*
X102862096Y-101654571D01*
X102766858Y-101702190D01*
X102385905Y-101702190D01*
X103290667Y-101178381D02*
X103957334Y-101178381D01*
X103528762Y-102178381D01*
X93940334Y-102178381D02*
X93607000Y-101702190D01*
X93368905Y-102178381D02*
X93368905Y-101178381D01*
X93749858Y-101178381D01*
X93845096Y-101226000D01*
X93892715Y-101273619D01*
X93940334Y-101368857D01*
X93940334Y-101511714D01*
X93892715Y-101606952D01*
X93845096Y-101654571D01*
X93749858Y-101702190D01*
X93368905Y-101702190D01*
X94511762Y-101606952D02*
X94416524Y-101559333D01*
X94368905Y-101511714D01*
X94321286Y-101416476D01*
X94321286Y-101368857D01*
X94368905Y-101273619D01*
X94416524Y-101226000D01*
X94511762Y-101178381D01*
X94702239Y-101178381D01*
X94797477Y-101226000D01*
X94845096Y-101273619D01*
X94892715Y-101368857D01*
X94892715Y-101416476D01*
X94845096Y-101511714D01*
X94797477Y-101559333D01*
X94702239Y-101606952D01*
X94511762Y-101606952D01*
X94416524Y-101654571D01*
X94368905Y-101702190D01*
X94321286Y-101797429D01*
X94321286Y-101987905D01*
X94368905Y-102083143D01*
X94416524Y-102130762D01*
X94511762Y-102178381D01*
X94702239Y-102178381D01*
X94797477Y-102130762D01*
X94845096Y-102083143D01*
X94892715Y-101987905D01*
X94892715Y-101797429D01*
X94845096Y-101702190D01*
X94797477Y-101654571D01*
X94702239Y-101606952D01*
X102449334Y-94940381D02*
X102116000Y-94464190D01*
X101877905Y-94940381D02*
X101877905Y-93940381D01*
X102258858Y-93940381D01*
X102354096Y-93988000D01*
X102401715Y-94035619D01*
X102449334Y-94130857D01*
X102449334Y-94273714D01*
X102401715Y-94368952D01*
X102354096Y-94416571D01*
X102258858Y-94464190D01*
X101877905Y-94464190D01*
X102925524Y-94940381D02*
X103116000Y-94940381D01*
X103211239Y-94892762D01*
X103258858Y-94845143D01*
X103354096Y-94702286D01*
X103401715Y-94511810D01*
X103401715Y-94130857D01*
X103354096Y-94035619D01*
X103306477Y-93988000D01*
X103211239Y-93940381D01*
X103020762Y-93940381D01*
X102925524Y-93988000D01*
X102877905Y-94035619D01*
X102830286Y-94130857D01*
X102830286Y-94368952D01*
X102877905Y-94464190D01*
X102925524Y-94511810D01*
X103020762Y-94559429D01*
X103211239Y-94559429D01*
X103306477Y-94511810D01*
X103354096Y-94464190D01*
X103401715Y-94368952D01*
X92448143Y-94940381D02*
X92114809Y-94464190D01*
X91876714Y-94940381D02*
X91876714Y-93940381D01*
X92257667Y-93940381D01*
X92352905Y-93988000D01*
X92400524Y-94035619D01*
X92448143Y-94130857D01*
X92448143Y-94273714D01*
X92400524Y-94368952D01*
X92352905Y-94416571D01*
X92257667Y-94464190D01*
X91876714Y-94464190D01*
X93400524Y-94940381D02*
X92829095Y-94940381D01*
X93114809Y-94940381D02*
X93114809Y-93940381D01*
X93019571Y-94083238D01*
X92924333Y-94178476D01*
X92829095Y-94226095D01*
X94019571Y-93940381D02*
X94114810Y-93940381D01*
X94210048Y-93988000D01*
X94257667Y-94035619D01*
X94305286Y-94130857D01*
X94352905Y-94321333D01*
X94352905Y-94559429D01*
X94305286Y-94749905D01*
X94257667Y-94845143D01*
X94210048Y-94892762D01*
X94114810Y-94940381D01*
X94019571Y-94940381D01*
X93924333Y-94892762D01*
X93876714Y-94845143D01*
X93829095Y-94749905D01*
X93781476Y-94559429D01*
X93781476Y-94321333D01*
X93829095Y-94130857D01*
X93876714Y-94035619D01*
X93924333Y-93988000D01*
X94019571Y-93940381D01*
X85542381Y-86494857D02*
X85066190Y-86828191D01*
X85542381Y-87066286D02*
X84542381Y-87066286D01*
X84542381Y-86685333D01*
X84590000Y-86590095D01*
X84637619Y-86542476D01*
X84732857Y-86494857D01*
X84875714Y-86494857D01*
X84970952Y-86542476D01*
X85018571Y-86590095D01*
X85066190Y-86685333D01*
X85066190Y-87066286D01*
X85542381Y-85542476D02*
X85542381Y-86113905D01*
X85542381Y-85828191D02*
X84542381Y-85828191D01*
X84685238Y-85923429D01*
X84780476Y-86018667D01*
X84828095Y-86113905D01*
X85542381Y-84590095D02*
X85542381Y-85161524D01*
X85542381Y-84875810D02*
X84542381Y-84875810D01*
X84685238Y-84971048D01*
X84780476Y-85066286D01*
X84828095Y-85161524D01*
X98925143Y-102052381D02*
X98591809Y-101576190D01*
X98353714Y-102052381D02*
X98353714Y-101052381D01*
X98734667Y-101052381D01*
X98829905Y-101100000D01*
X98877524Y-101147619D01*
X98925143Y-101242857D01*
X98925143Y-101385714D01*
X98877524Y-101480952D01*
X98829905Y-101528571D01*
X98734667Y-101576190D01*
X98353714Y-101576190D01*
X99877524Y-102052381D02*
X99306095Y-102052381D01*
X99591809Y-102052381D02*
X99591809Y-101052381D01*
X99496571Y-101195238D01*
X99401333Y-101290476D01*
X99306095Y-101338095D01*
X100258476Y-101147619D02*
X100306095Y-101100000D01*
X100401333Y-101052381D01*
X100639429Y-101052381D01*
X100734667Y-101100000D01*
X100782286Y-101147619D01*
X100829905Y-101242857D01*
X100829905Y-101338095D01*
X100782286Y-101480952D01*
X100210857Y-102052381D01*
X100829905Y-102052381D01*
X89908143Y-102052381D02*
X89574809Y-101576190D01*
X89336714Y-102052381D02*
X89336714Y-101052381D01*
X89717667Y-101052381D01*
X89812905Y-101100000D01*
X89860524Y-101147619D01*
X89908143Y-101242857D01*
X89908143Y-101385714D01*
X89860524Y-101480952D01*
X89812905Y-101528571D01*
X89717667Y-101576190D01*
X89336714Y-101576190D01*
X90860524Y-102052381D02*
X90289095Y-102052381D01*
X90574809Y-102052381D02*
X90574809Y-101052381D01*
X90479571Y-101195238D01*
X90384333Y-101290476D01*
X90289095Y-101338095D01*
X91193857Y-101052381D02*
X91812905Y-101052381D01*
X91479571Y-101433333D01*
X91622429Y-101433333D01*
X91717667Y-101480952D01*
X91765286Y-101528571D01*
X91812905Y-101623810D01*
X91812905Y-101861905D01*
X91765286Y-101957143D01*
X91717667Y-102004762D01*
X91622429Y-102052381D01*
X91336714Y-102052381D01*
X91241476Y-102004762D01*
X91193857Y-101957143D01*
X87574381Y-86494857D02*
X87098190Y-86828191D01*
X87574381Y-87066286D02*
X86574381Y-87066286D01*
X86574381Y-86685333D01*
X86622000Y-86590095D01*
X86669619Y-86542476D01*
X86764857Y-86494857D01*
X86907714Y-86494857D01*
X87002952Y-86542476D01*
X87050571Y-86590095D01*
X87098190Y-86685333D01*
X87098190Y-87066286D01*
X87574381Y-85542476D02*
X87574381Y-86113905D01*
X87574381Y-85828191D02*
X86574381Y-85828191D01*
X86717238Y-85923429D01*
X86812476Y-86018667D01*
X86860095Y-86113905D01*
X86907714Y-84685333D02*
X87574381Y-84685333D01*
X86526762Y-84923429D02*
X87241048Y-85161524D01*
X87241048Y-84542476D01*
X95703381Y-78747857D02*
X95227190Y-79081191D01*
X95703381Y-79319286D02*
X94703381Y-79319286D01*
X94703381Y-78938333D01*
X94751000Y-78843095D01*
X94798619Y-78795476D01*
X94893857Y-78747857D01*
X95036714Y-78747857D01*
X95131952Y-78795476D01*
X95179571Y-78843095D01*
X95227190Y-78938333D01*
X95227190Y-79319286D01*
X95703381Y-77795476D02*
X95703381Y-78366905D01*
X95703381Y-78081191D02*
X94703381Y-78081191D01*
X94846238Y-78176429D01*
X94941476Y-78271667D01*
X94989095Y-78366905D01*
X94703381Y-76890714D02*
X94703381Y-77366905D01*
X95179571Y-77414524D01*
X95131952Y-77366905D01*
X95084333Y-77271667D01*
X95084333Y-77033571D01*
X95131952Y-76938333D01*
X95179571Y-76890714D01*
X95274810Y-76843095D01*
X95512905Y-76843095D01*
X95608143Y-76890714D01*
X95655762Y-76938333D01*
X95703381Y-77033571D01*
X95703381Y-77271667D01*
X95655762Y-77366905D01*
X95608143Y-77414524D01*
X95829381Y-82303857D02*
X95353190Y-82637191D01*
X95829381Y-82875286D02*
X94829381Y-82875286D01*
X94829381Y-82494333D01*
X94877000Y-82399095D01*
X94924619Y-82351476D01*
X95019857Y-82303857D01*
X95162714Y-82303857D01*
X95257952Y-82351476D01*
X95305571Y-82399095D01*
X95353190Y-82494333D01*
X95353190Y-82875286D01*
X95829381Y-81351476D02*
X95829381Y-81922905D01*
X95829381Y-81637191D02*
X94829381Y-81637191D01*
X94972238Y-81732429D01*
X95067476Y-81827667D01*
X95115095Y-81922905D01*
X94829381Y-80494333D02*
X94829381Y-80684810D01*
X94877000Y-80780048D01*
X94924619Y-80827667D01*
X95067476Y-80922905D01*
X95257952Y-80970524D01*
X95638905Y-80970524D01*
X95734143Y-80922905D01*
X95781762Y-80875286D01*
X95829381Y-80780048D01*
X95829381Y-80589571D01*
X95781762Y-80494333D01*
X95734143Y-80446714D01*
X95638905Y-80399095D01*
X95400810Y-80399095D01*
X95305571Y-80446714D01*
X95257952Y-80494333D01*
X95210333Y-80589571D01*
X95210333Y-80780048D01*
X95257952Y-80875286D01*
X95305571Y-80922905D01*
X95400810Y-80970524D01*
X75811143Y-102178381D02*
X75477809Y-101702190D01*
X75239714Y-102178381D02*
X75239714Y-101178381D01*
X75620667Y-101178381D01*
X75715905Y-101226000D01*
X75763524Y-101273619D01*
X75811143Y-101368857D01*
X75811143Y-101511714D01*
X75763524Y-101606952D01*
X75715905Y-101654571D01*
X75620667Y-101702190D01*
X75239714Y-101702190D01*
X76763524Y-102178381D02*
X76192095Y-102178381D01*
X76477809Y-102178381D02*
X76477809Y-101178381D01*
X76382571Y-101321238D01*
X76287333Y-101416476D01*
X76192095Y-101464095D01*
X77096857Y-101178381D02*
X77763524Y-101178381D01*
X77334952Y-102178381D01*
X84574143Y-102178381D02*
X84240809Y-101702190D01*
X84002714Y-102178381D02*
X84002714Y-101178381D01*
X84383667Y-101178381D01*
X84478905Y-101226000D01*
X84526524Y-101273619D01*
X84574143Y-101368857D01*
X84574143Y-101511714D01*
X84526524Y-101606952D01*
X84478905Y-101654571D01*
X84383667Y-101702190D01*
X84002714Y-101702190D01*
X85526524Y-102178381D02*
X84955095Y-102178381D01*
X85240809Y-102178381D02*
X85240809Y-101178381D01*
X85145571Y-101321238D01*
X85050333Y-101416476D01*
X84955095Y-101464095D01*
X86097952Y-101606952D02*
X86002714Y-101559333D01*
X85955095Y-101511714D01*
X85907476Y-101416476D01*
X85907476Y-101368857D01*
X85955095Y-101273619D01*
X86002714Y-101226000D01*
X86097952Y-101178381D01*
X86288429Y-101178381D01*
X86383667Y-101226000D01*
X86431286Y-101273619D01*
X86478905Y-101368857D01*
X86478905Y-101416476D01*
X86431286Y-101511714D01*
X86383667Y-101559333D01*
X86288429Y-101606952D01*
X86097952Y-101606952D01*
X86002714Y-101654571D01*
X85955095Y-101702190D01*
X85907476Y-101797429D01*
X85907476Y-101987905D01*
X85955095Y-102083143D01*
X86002714Y-102130762D01*
X86097952Y-102178381D01*
X86288429Y-102178381D01*
X86383667Y-102130762D01*
X86431286Y-102083143D01*
X86478905Y-101987905D01*
X86478905Y-101797429D01*
X86431286Y-101702190D01*
X86383667Y-101654571D01*
X86288429Y-101606952D01*
X73779143Y-94940381D02*
X73445809Y-94464190D01*
X73207714Y-94940381D02*
X73207714Y-93940381D01*
X73588667Y-93940381D01*
X73683905Y-93988000D01*
X73731524Y-94035619D01*
X73779143Y-94130857D01*
X73779143Y-94273714D01*
X73731524Y-94368952D01*
X73683905Y-94416571D01*
X73588667Y-94464190D01*
X73207714Y-94464190D01*
X74731524Y-94940381D02*
X74160095Y-94940381D01*
X74445809Y-94940381D02*
X74445809Y-93940381D01*
X74350571Y-94083238D01*
X74255333Y-94178476D01*
X74160095Y-94226095D01*
X75207714Y-94940381D02*
X75398190Y-94940381D01*
X75493429Y-94892762D01*
X75541048Y-94845143D01*
X75636286Y-94702286D01*
X75683905Y-94511810D01*
X75683905Y-94130857D01*
X75636286Y-94035619D01*
X75588667Y-93988000D01*
X75493429Y-93940381D01*
X75302952Y-93940381D01*
X75207714Y-93988000D01*
X75160095Y-94035619D01*
X75112476Y-94130857D01*
X75112476Y-94368952D01*
X75160095Y-94464190D01*
X75207714Y-94511810D01*
X75302952Y-94559429D01*
X75493429Y-94559429D01*
X75588667Y-94511810D01*
X75636286Y-94464190D01*
X75683905Y-94368952D01*
X82542143Y-94940381D02*
X82208809Y-94464190D01*
X81970714Y-94940381D02*
X81970714Y-93940381D01*
X82351667Y-93940381D01*
X82446905Y-93988000D01*
X82494524Y-94035619D01*
X82542143Y-94130857D01*
X82542143Y-94273714D01*
X82494524Y-94368952D01*
X82446905Y-94416571D01*
X82351667Y-94464190D01*
X81970714Y-94464190D01*
X82923095Y-94035619D02*
X82970714Y-93988000D01*
X83065952Y-93940381D01*
X83304048Y-93940381D01*
X83399286Y-93988000D01*
X83446905Y-94035619D01*
X83494524Y-94130857D01*
X83494524Y-94226095D01*
X83446905Y-94368952D01*
X82875476Y-94940381D01*
X83494524Y-94940381D01*
X84113571Y-93940381D02*
X84208810Y-93940381D01*
X84304048Y-93988000D01*
X84351667Y-94035619D01*
X84399286Y-94130857D01*
X84446905Y-94321333D01*
X84446905Y-94559429D01*
X84399286Y-94749905D01*
X84351667Y-94845143D01*
X84304048Y-94892762D01*
X84208810Y-94940381D01*
X84113571Y-94940381D01*
X84018333Y-94892762D01*
X83970714Y-94845143D01*
X83923095Y-94749905D01*
X83875476Y-94559429D01*
X83875476Y-94321333D01*
X83923095Y-94130857D01*
X83970714Y-94035619D01*
X84018333Y-93988000D01*
X84113571Y-93940381D01*
X72255143Y-102052381D02*
X71921809Y-101576190D01*
X71683714Y-102052381D02*
X71683714Y-101052381D01*
X72064667Y-101052381D01*
X72159905Y-101100000D01*
X72207524Y-101147619D01*
X72255143Y-101242857D01*
X72255143Y-101385714D01*
X72207524Y-101480952D01*
X72159905Y-101528571D01*
X72064667Y-101576190D01*
X71683714Y-101576190D01*
X72636095Y-101147619D02*
X72683714Y-101100000D01*
X72778952Y-101052381D01*
X73017048Y-101052381D01*
X73112286Y-101100000D01*
X73159905Y-101147619D01*
X73207524Y-101242857D01*
X73207524Y-101338095D01*
X73159905Y-101480952D01*
X72588476Y-102052381D01*
X73207524Y-102052381D01*
X74159905Y-102052381D02*
X73588476Y-102052381D01*
X73874190Y-102052381D02*
X73874190Y-101052381D01*
X73778952Y-101195238D01*
X73683714Y-101290476D01*
X73588476Y-101338095D01*
X81018143Y-102052381D02*
X80684809Y-101576190D01*
X80446714Y-102052381D02*
X80446714Y-101052381D01*
X80827667Y-101052381D01*
X80922905Y-101100000D01*
X80970524Y-101147619D01*
X81018143Y-101242857D01*
X81018143Y-101385714D01*
X80970524Y-101480952D01*
X80922905Y-101528571D01*
X80827667Y-101576190D01*
X80446714Y-101576190D01*
X81399095Y-101147619D02*
X81446714Y-101100000D01*
X81541952Y-101052381D01*
X81780048Y-101052381D01*
X81875286Y-101100000D01*
X81922905Y-101147619D01*
X81970524Y-101242857D01*
X81970524Y-101338095D01*
X81922905Y-101480952D01*
X81351476Y-102052381D01*
X81970524Y-102052381D01*
X82351476Y-101147619D02*
X82399095Y-101100000D01*
X82494333Y-101052381D01*
X82732429Y-101052381D01*
X82827667Y-101100000D01*
X82875286Y-101147619D01*
X82922905Y-101242857D01*
X82922905Y-101338095D01*
X82875286Y-101480952D01*
X82303857Y-102052381D01*
X82922905Y-102052381D01*
X89903550Y-72255313D02*
X90004565Y-71682893D01*
X89499488Y-71851252D02*
X90206595Y-71144145D01*
X90475970Y-71413519D01*
X90509641Y-71514535D01*
X90509641Y-71581878D01*
X90475970Y-71682893D01*
X90374955Y-71783908D01*
X90273939Y-71817580D01*
X90206596Y-71817580D01*
X90105581Y-71783908D01*
X89836206Y-71514534D01*
X90812687Y-71884924D02*
X90880030Y-71884924D01*
X90981045Y-71918595D01*
X91149405Y-72086955D01*
X91183076Y-72187970D01*
X91183076Y-72255313D01*
X91149405Y-72356328D01*
X91082061Y-72423672D01*
X90947374Y-72491015D01*
X90139252Y-72491015D01*
X90576985Y-72928748D01*
X91519794Y-72457343D02*
X91957527Y-72895076D01*
X91452450Y-72928747D01*
X91553466Y-73029763D01*
X91587138Y-73130778D01*
X91587138Y-73198122D01*
X91553465Y-73299138D01*
X91385107Y-73467496D01*
X91284092Y-73501168D01*
X91216748Y-73501168D01*
X91115733Y-73467496D01*
X90913702Y-73265465D01*
X90880030Y-73164450D01*
X90880030Y-73097107D01*
X83002381Y-57538857D02*
X82526190Y-57872191D01*
X83002381Y-58110286D02*
X82002381Y-58110286D01*
X82002381Y-57729333D01*
X82050000Y-57634095D01*
X82097619Y-57586476D01*
X82192857Y-57538857D01*
X82335714Y-57538857D01*
X82430952Y-57586476D01*
X82478571Y-57634095D01*
X82526190Y-57729333D01*
X82526190Y-58110286D01*
X82097619Y-57157905D02*
X82050000Y-57110286D01*
X82002381Y-57015048D01*
X82002381Y-56776952D01*
X82050000Y-56681714D01*
X82097619Y-56634095D01*
X82192857Y-56586476D01*
X82288095Y-56586476D01*
X82430952Y-56634095D01*
X83002381Y-57205524D01*
X83002381Y-56586476D01*
X82335714Y-55729333D02*
X83002381Y-55729333D01*
X81954762Y-55967429D02*
X82669048Y-56205524D01*
X82669048Y-55586476D01*
X80637143Y-64206381D02*
X80303809Y-63730190D01*
X80065714Y-64206381D02*
X80065714Y-63206381D01*
X80446667Y-63206381D01*
X80541905Y-63254000D01*
X80589524Y-63301619D01*
X80637143Y-63396857D01*
X80637143Y-63539714D01*
X80589524Y-63634952D01*
X80541905Y-63682571D01*
X80446667Y-63730190D01*
X80065714Y-63730190D01*
X81018095Y-63301619D02*
X81065714Y-63254000D01*
X81160952Y-63206381D01*
X81399048Y-63206381D01*
X81494286Y-63254000D01*
X81541905Y-63301619D01*
X81589524Y-63396857D01*
X81589524Y-63492095D01*
X81541905Y-63634952D01*
X80970476Y-64206381D01*
X81589524Y-64206381D01*
X82494286Y-63206381D02*
X82018095Y-63206381D01*
X81970476Y-63682571D01*
X82018095Y-63634952D01*
X82113333Y-63587333D01*
X82351429Y-63587333D01*
X82446667Y-63634952D01*
X82494286Y-63682571D01*
X82541905Y-63777810D01*
X82541905Y-64015905D01*
X82494286Y-64111143D01*
X82446667Y-64158762D01*
X82351429Y-64206381D01*
X82113333Y-64206381D01*
X82018095Y-64158762D01*
X81970476Y-64111143D01*
X82494381Y-69730857D02*
X82018190Y-70064191D01*
X82494381Y-70302286D02*
X81494381Y-70302286D01*
X81494381Y-69921333D01*
X81542000Y-69826095D01*
X81589619Y-69778476D01*
X81684857Y-69730857D01*
X81827714Y-69730857D01*
X81922952Y-69778476D01*
X81970571Y-69826095D01*
X82018190Y-69921333D01*
X82018190Y-70302286D01*
X81589619Y-69349905D02*
X81542000Y-69302286D01*
X81494381Y-69207048D01*
X81494381Y-68968952D01*
X81542000Y-68873714D01*
X81589619Y-68826095D01*
X81684857Y-68778476D01*
X81780095Y-68778476D01*
X81922952Y-68826095D01*
X82494381Y-69397524D01*
X82494381Y-68778476D01*
X81494381Y-67921333D02*
X81494381Y-68111810D01*
X81542000Y-68207048D01*
X81589619Y-68254667D01*
X81732476Y-68349905D01*
X81922952Y-68397524D01*
X82303905Y-68397524D01*
X82399143Y-68349905D01*
X82446762Y-68302286D01*
X82494381Y-68207048D01*
X82494381Y-68016571D01*
X82446762Y-67921333D01*
X82399143Y-67873714D01*
X82303905Y-67826095D01*
X82065810Y-67826095D01*
X81970571Y-67873714D01*
X81922952Y-67921333D01*
X81875333Y-68016571D01*
X81875333Y-68207048D01*
X81922952Y-68302286D01*
X81970571Y-68349905D01*
X82065810Y-68397524D01*
X84526381Y-69730857D02*
X84050190Y-70064191D01*
X84526381Y-70302286D02*
X83526381Y-70302286D01*
X83526381Y-69921333D01*
X83574000Y-69826095D01*
X83621619Y-69778476D01*
X83716857Y-69730857D01*
X83859714Y-69730857D01*
X83954952Y-69778476D01*
X84002571Y-69826095D01*
X84050190Y-69921333D01*
X84050190Y-70302286D01*
X83621619Y-69349905D02*
X83574000Y-69302286D01*
X83526381Y-69207048D01*
X83526381Y-68968952D01*
X83574000Y-68873714D01*
X83621619Y-68826095D01*
X83716857Y-68778476D01*
X83812095Y-68778476D01*
X83954952Y-68826095D01*
X84526381Y-69397524D01*
X84526381Y-68778476D01*
X83526381Y-68445143D02*
X83526381Y-67778476D01*
X84526381Y-68207048D01*
X76065143Y-80970381D02*
X75731809Y-80494190D01*
X75493714Y-80970381D02*
X75493714Y-79970381D01*
X75874667Y-79970381D01*
X75969905Y-80018000D01*
X76017524Y-80065619D01*
X76065143Y-80160857D01*
X76065143Y-80303714D01*
X76017524Y-80398952D01*
X75969905Y-80446571D01*
X75874667Y-80494190D01*
X75493714Y-80494190D01*
X76446095Y-80065619D02*
X76493714Y-80018000D01*
X76588952Y-79970381D01*
X76827048Y-79970381D01*
X76922286Y-80018000D01*
X76969905Y-80065619D01*
X77017524Y-80160857D01*
X77017524Y-80256095D01*
X76969905Y-80398952D01*
X76398476Y-80970381D01*
X77017524Y-80970381D01*
X77588952Y-80398952D02*
X77493714Y-80351333D01*
X77446095Y-80303714D01*
X77398476Y-80208476D01*
X77398476Y-80160857D01*
X77446095Y-80065619D01*
X77493714Y-80018000D01*
X77588952Y-79970381D01*
X77779429Y-79970381D01*
X77874667Y-80018000D01*
X77922286Y-80065619D01*
X77969905Y-80160857D01*
X77969905Y-80208476D01*
X77922286Y-80303714D01*
X77874667Y-80351333D01*
X77779429Y-80398952D01*
X77588952Y-80398952D01*
X77493714Y-80446571D01*
X77446095Y-80494190D01*
X77398476Y-80589429D01*
X77398476Y-80779905D01*
X77446095Y-80875143D01*
X77493714Y-80922762D01*
X77588952Y-80970381D01*
X77779429Y-80970381D01*
X77874667Y-80922762D01*
X77922286Y-80875143D01*
X77969905Y-80779905D01*
X77969905Y-80589429D01*
X77922286Y-80494190D01*
X77874667Y-80446571D01*
X77779429Y-80398952D01*
X76065143Y-83002381D02*
X75731809Y-82526190D01*
X75493714Y-83002381D02*
X75493714Y-82002381D01*
X75874667Y-82002381D01*
X75969905Y-82050000D01*
X76017524Y-82097619D01*
X76065143Y-82192857D01*
X76065143Y-82335714D01*
X76017524Y-82430952D01*
X75969905Y-82478571D01*
X75874667Y-82526190D01*
X75493714Y-82526190D01*
X76446095Y-82097619D02*
X76493714Y-82050000D01*
X76588952Y-82002381D01*
X76827048Y-82002381D01*
X76922286Y-82050000D01*
X76969905Y-82097619D01*
X77017524Y-82192857D01*
X77017524Y-82288095D01*
X76969905Y-82430952D01*
X76398476Y-83002381D01*
X77017524Y-83002381D01*
X77493714Y-83002381D02*
X77684190Y-83002381D01*
X77779429Y-82954762D01*
X77827048Y-82907143D01*
X77922286Y-82764286D01*
X77969905Y-82573810D01*
X77969905Y-82192857D01*
X77922286Y-82097619D01*
X77874667Y-82050000D01*
X77779429Y-82002381D01*
X77588952Y-82002381D01*
X77493714Y-82050000D01*
X77446095Y-82097619D01*
X77398476Y-82192857D01*
X77398476Y-82430952D01*
X77446095Y-82526190D01*
X77493714Y-82573810D01*
X77588952Y-82621429D01*
X77779429Y-82621429D01*
X77874667Y-82573810D01*
X77922286Y-82526190D01*
X77969905Y-82430952D01*
X92829143Y-73604381D02*
X92495809Y-73128190D01*
X92257714Y-73604381D02*
X92257714Y-72604381D01*
X92638667Y-72604381D01*
X92733905Y-72652000D01*
X92781524Y-72699619D01*
X92829143Y-72794857D01*
X92829143Y-72937714D01*
X92781524Y-73032952D01*
X92733905Y-73080571D01*
X92638667Y-73128190D01*
X92257714Y-73128190D01*
X93162476Y-72604381D02*
X93781524Y-72604381D01*
X93448190Y-72985333D01*
X93591048Y-72985333D01*
X93686286Y-73032952D01*
X93733905Y-73080571D01*
X93781524Y-73175810D01*
X93781524Y-73413905D01*
X93733905Y-73509143D01*
X93686286Y-73556762D01*
X93591048Y-73604381D01*
X93305333Y-73604381D01*
X93210095Y-73556762D01*
X93162476Y-73509143D01*
X94400571Y-72604381D02*
X94495810Y-72604381D01*
X94591048Y-72652000D01*
X94638667Y-72699619D01*
X94686286Y-72794857D01*
X94733905Y-72985333D01*
X94733905Y-73223429D01*
X94686286Y-73413905D01*
X94638667Y-73509143D01*
X94591048Y-73556762D01*
X94495810Y-73604381D01*
X94400571Y-73604381D01*
X94305333Y-73556762D01*
X94257714Y-73509143D01*
X94210095Y-73413905D01*
X94162476Y-73223429D01*
X94162476Y-72985333D01*
X94210095Y-72794857D01*
X94257714Y-72699619D01*
X94305333Y-72652000D01*
X94400571Y-72604381D01*
X80716381Y-71254857D02*
X80240190Y-71588191D01*
X80716381Y-71826286D02*
X79716381Y-71826286D01*
X79716381Y-71445333D01*
X79764000Y-71350095D01*
X79811619Y-71302476D01*
X79906857Y-71254857D01*
X80049714Y-71254857D01*
X80144952Y-71302476D01*
X80192571Y-71350095D01*
X80240190Y-71445333D01*
X80240190Y-71826286D01*
X79716381Y-70921524D02*
X79716381Y-70302476D01*
X80097333Y-70635810D01*
X80097333Y-70492952D01*
X80144952Y-70397714D01*
X80192571Y-70350095D01*
X80287810Y-70302476D01*
X80525905Y-70302476D01*
X80621143Y-70350095D01*
X80668762Y-70397714D01*
X80716381Y-70492952D01*
X80716381Y-70778667D01*
X80668762Y-70873905D01*
X80621143Y-70921524D01*
X80716381Y-69350095D02*
X80716381Y-69921524D01*
X80716381Y-69635810D02*
X79716381Y-69635810D01*
X79859238Y-69731048D01*
X79954476Y-69826286D01*
X80002095Y-69921524D01*
X95877143Y-73604381D02*
X95543809Y-73128190D01*
X95305714Y-73604381D02*
X95305714Y-72604381D01*
X95686667Y-72604381D01*
X95781905Y-72652000D01*
X95829524Y-72699619D01*
X95877143Y-72794857D01*
X95877143Y-72937714D01*
X95829524Y-73032952D01*
X95781905Y-73080571D01*
X95686667Y-73128190D01*
X95305714Y-73128190D01*
X96210476Y-72604381D02*
X96829524Y-72604381D01*
X96496190Y-72985333D01*
X96639048Y-72985333D01*
X96734286Y-73032952D01*
X96781905Y-73080571D01*
X96829524Y-73175810D01*
X96829524Y-73413905D01*
X96781905Y-73509143D01*
X96734286Y-73556762D01*
X96639048Y-73604381D01*
X96353333Y-73604381D01*
X96258095Y-73556762D01*
X96210476Y-73509143D01*
X97210476Y-72699619D02*
X97258095Y-72652000D01*
X97353333Y-72604381D01*
X97591429Y-72604381D01*
X97686667Y-72652000D01*
X97734286Y-72699619D01*
X97781905Y-72794857D01*
X97781905Y-72890095D01*
X97734286Y-73032952D01*
X97162857Y-73604381D01*
X97781905Y-73604381D01*
X78290495Y-90638381D02*
X78290495Y-91447905D01*
X78338114Y-91543143D01*
X78385733Y-91590762D01*
X78480971Y-91638381D01*
X78671448Y-91638381D01*
X78766686Y-91590762D01*
X78814305Y-91543143D01*
X78861924Y-91447905D01*
X78861924Y-90638381D01*
X79861924Y-91638381D02*
X79290495Y-91638381D01*
X79576209Y-91638381D02*
X79576209Y-90638381D01*
X79480971Y-90781238D01*
X79385733Y-90876476D01*
X79290495Y-90924095D01*
X83820095Y-62698381D02*
X83820095Y-63507905D01*
X83867714Y-63603143D01*
X83915333Y-63650762D01*
X84010571Y-63698381D01*
X84201048Y-63698381D01*
X84296286Y-63650762D01*
X84343905Y-63603143D01*
X84391524Y-63507905D01*
X84391524Y-62698381D01*
X84820095Y-62793619D02*
X84867714Y-62746000D01*
X84962952Y-62698381D01*
X85201048Y-62698381D01*
X85296286Y-62746000D01*
X85343905Y-62793619D01*
X85391524Y-62888857D01*
X85391524Y-62984095D01*
X85343905Y-63126952D01*
X84772476Y-63698381D01*
X85391524Y-63698381D01*
X90582809Y-82780190D02*
X90582809Y-83256381D01*
X90249476Y-82256381D02*
X90582809Y-82780190D01*
X90916143Y-82256381D01*
X91773286Y-83256381D02*
X91201857Y-83256381D01*
X91487571Y-83256381D02*
X91487571Y-82256381D01*
X91392333Y-82399238D01*
X91297095Y-82494476D01*
X91201857Y-82542095D01*
X110902762Y-87923619D02*
X110807524Y-87876000D01*
X110712286Y-87780762D01*
X110569429Y-87637905D01*
X110474190Y-87590286D01*
X110378952Y-87590286D01*
X110426571Y-87828381D02*
X110331333Y-87780762D01*
X110236095Y-87685524D01*
X110188476Y-87495048D01*
X110188476Y-87161714D01*
X110236095Y-86971238D01*
X110331333Y-86876000D01*
X110426571Y-86828381D01*
X110617048Y-86828381D01*
X110712286Y-86876000D01*
X110807524Y-86971238D01*
X110855143Y-87161714D01*
X110855143Y-87495048D01*
X110807524Y-87685524D01*
X110712286Y-87780762D01*
X110617048Y-87828381D01*
X110426571Y-87828381D01*
X111236095Y-86923619D02*
X111283714Y-86876000D01*
X111378952Y-86828381D01*
X111617048Y-86828381D01*
X111712286Y-86876000D01*
X111759905Y-86923619D01*
X111807524Y-87018857D01*
X111807524Y-87114095D01*
X111759905Y-87256952D01*
X111188476Y-87828381D01*
X111807524Y-87828381D01*
X99472762Y-95035619D02*
X99377524Y-94988000D01*
X99282286Y-94892762D01*
X99139429Y-94749905D01*
X99044190Y-94702286D01*
X98948952Y-94702286D01*
X98996571Y-94940381D02*
X98901333Y-94892762D01*
X98806095Y-94797524D01*
X98758476Y-94607048D01*
X98758476Y-94273714D01*
X98806095Y-94083238D01*
X98901333Y-93988000D01*
X98996571Y-93940381D01*
X99187048Y-93940381D01*
X99282286Y-93988000D01*
X99377524Y-94083238D01*
X99425143Y-94273714D01*
X99425143Y-94607048D01*
X99377524Y-94797524D01*
X99282286Y-94892762D01*
X99187048Y-94940381D01*
X98996571Y-94940381D01*
X99758476Y-93940381D02*
X100377524Y-93940381D01*
X100044190Y-94321333D01*
X100187048Y-94321333D01*
X100282286Y-94368952D01*
X100329905Y-94416571D01*
X100377524Y-94511810D01*
X100377524Y-94749905D01*
X100329905Y-94845143D01*
X100282286Y-94892762D01*
X100187048Y-94940381D01*
X99901333Y-94940381D01*
X99806095Y-94892762D01*
X99758476Y-94845143D01*
X89947762Y-95035619D02*
X89852524Y-94988000D01*
X89757286Y-94892762D01*
X89614429Y-94749905D01*
X89519190Y-94702286D01*
X89423952Y-94702286D01*
X89471571Y-94940381D02*
X89376333Y-94892762D01*
X89281095Y-94797524D01*
X89233476Y-94607048D01*
X89233476Y-94273714D01*
X89281095Y-94083238D01*
X89376333Y-93988000D01*
X89471571Y-93940381D01*
X89662048Y-93940381D01*
X89757286Y-93988000D01*
X89852524Y-94083238D01*
X89900143Y-94273714D01*
X89900143Y-94607048D01*
X89852524Y-94797524D01*
X89757286Y-94892762D01*
X89662048Y-94940381D01*
X89471571Y-94940381D01*
X90757286Y-94273714D02*
X90757286Y-94940381D01*
X90519190Y-93892762D02*
X90281095Y-94607048D01*
X90900143Y-94607048D01*
X99853762Y-79708619D02*
X99758524Y-79661000D01*
X99663286Y-79565762D01*
X99520429Y-79422905D01*
X99425190Y-79375286D01*
X99329952Y-79375286D01*
X99377571Y-79613381D02*
X99282333Y-79565762D01*
X99187095Y-79470524D01*
X99139476Y-79280048D01*
X99139476Y-78946714D01*
X99187095Y-78756238D01*
X99282333Y-78661000D01*
X99377571Y-78613381D01*
X99568048Y-78613381D01*
X99663286Y-78661000D01*
X99758524Y-78756238D01*
X99806143Y-78946714D01*
X99806143Y-79280048D01*
X99758524Y-79470524D01*
X99663286Y-79565762D01*
X99568048Y-79613381D01*
X99377571Y-79613381D01*
X100710905Y-78613381D02*
X100234714Y-78613381D01*
X100187095Y-79089571D01*
X100234714Y-79041952D01*
X100329952Y-78994333D01*
X100568048Y-78994333D01*
X100663286Y-79041952D01*
X100710905Y-79089571D01*
X100758524Y-79184810D01*
X100758524Y-79422905D01*
X100710905Y-79518143D01*
X100663286Y-79565762D01*
X100568048Y-79613381D01*
X100329952Y-79613381D01*
X100234714Y-79565762D01*
X100187095Y-79518143D01*
X71786762Y-95035619D02*
X71691524Y-94988000D01*
X71596286Y-94892762D01*
X71453429Y-94749905D01*
X71358190Y-94702286D01*
X71262952Y-94702286D01*
X71310571Y-94940381D02*
X71215333Y-94892762D01*
X71120095Y-94797524D01*
X71072476Y-94607048D01*
X71072476Y-94273714D01*
X71120095Y-94083238D01*
X71215333Y-93988000D01*
X71310571Y-93940381D01*
X71501048Y-93940381D01*
X71596286Y-93988000D01*
X71691524Y-94083238D01*
X71739143Y-94273714D01*
X71739143Y-94607048D01*
X71691524Y-94797524D01*
X71596286Y-94892762D01*
X71501048Y-94940381D01*
X71310571Y-94940381D01*
X72596286Y-93940381D02*
X72405809Y-93940381D01*
X72310571Y-93988000D01*
X72262952Y-94035619D01*
X72167714Y-94178476D01*
X72120095Y-94368952D01*
X72120095Y-94749905D01*
X72167714Y-94845143D01*
X72215333Y-94892762D01*
X72310571Y-94940381D01*
X72501048Y-94940381D01*
X72596286Y-94892762D01*
X72643905Y-94845143D01*
X72691524Y-94749905D01*
X72691524Y-94511810D01*
X72643905Y-94416571D01*
X72596286Y-94368952D01*
X72501048Y-94321333D01*
X72310571Y-94321333D01*
X72215333Y-94368952D01*
X72167714Y-94416571D01*
X72120095Y-94511810D01*
X80549762Y-95035619D02*
X80454524Y-94988000D01*
X80359286Y-94892762D01*
X80216429Y-94749905D01*
X80121190Y-94702286D01*
X80025952Y-94702286D01*
X80073571Y-94940381D02*
X79978333Y-94892762D01*
X79883095Y-94797524D01*
X79835476Y-94607048D01*
X79835476Y-94273714D01*
X79883095Y-94083238D01*
X79978333Y-93988000D01*
X80073571Y-93940381D01*
X80264048Y-93940381D01*
X80359286Y-93988000D01*
X80454524Y-94083238D01*
X80502143Y-94273714D01*
X80502143Y-94607048D01*
X80454524Y-94797524D01*
X80359286Y-94892762D01*
X80264048Y-94940381D01*
X80073571Y-94940381D01*
X80835476Y-93940381D02*
X81502143Y-93940381D01*
X81073571Y-94940381D01*
X88495143Y-70238857D02*
X88542762Y-70286476D01*
X88590381Y-70429333D01*
X88590381Y-70524571D01*
X88542762Y-70667429D01*
X88447524Y-70762667D01*
X88352286Y-70810286D01*
X88161810Y-70857905D01*
X88018952Y-70857905D01*
X87828476Y-70810286D01*
X87733238Y-70762667D01*
X87638000Y-70667429D01*
X87590381Y-70524571D01*
X87590381Y-70429333D01*
X87638000Y-70286476D01*
X87685619Y-70238857D01*
X88590381Y-69286476D02*
X88590381Y-69857905D01*
X88590381Y-69572191D02*
X87590381Y-69572191D01*
X87733238Y-69667429D01*
X87828476Y-69762667D01*
X87876095Y-69857905D01*
X88590381Y-68334095D02*
X88590381Y-68905524D01*
X88590381Y-68619810D02*
X87590381Y-68619810D01*
X87733238Y-68715048D01*
X87828476Y-68810286D01*
X87876095Y-68905524D01*
X86463143Y-70238857D02*
X86510762Y-70286476D01*
X86558381Y-70429333D01*
X86558381Y-70524571D01*
X86510762Y-70667429D01*
X86415524Y-70762667D01*
X86320286Y-70810286D01*
X86129810Y-70857905D01*
X85986952Y-70857905D01*
X85796476Y-70810286D01*
X85701238Y-70762667D01*
X85606000Y-70667429D01*
X85558381Y-70524571D01*
X85558381Y-70429333D01*
X85606000Y-70286476D01*
X85653619Y-70238857D01*
X86558381Y-69286476D02*
X86558381Y-69857905D01*
X86558381Y-69572191D02*
X85558381Y-69572191D01*
X85701238Y-69667429D01*
X85796476Y-69762667D01*
X85844095Y-69857905D01*
X85653619Y-68905524D02*
X85606000Y-68857905D01*
X85558381Y-68762667D01*
X85558381Y-68524571D01*
X85606000Y-68429333D01*
X85653619Y-68381714D01*
X85748857Y-68334095D01*
X85844095Y-68334095D01*
X85986952Y-68381714D01*
X86558381Y-68953143D01*
X86558381Y-68334095D01*
X72056667Y-75652381D02*
X72056667Y-76366667D01*
X72009047Y-76509524D01*
X71913809Y-76604762D01*
X71770952Y-76652381D01*
X71675714Y-76652381D01*
X72437619Y-75652381D02*
X73056667Y-75652381D01*
X72723333Y-76033333D01*
X72866191Y-76033333D01*
X72961429Y-76080952D01*
X73009048Y-76128571D01*
X73056667Y-76223810D01*
X73056667Y-76461905D01*
X73009048Y-76557143D01*
X72961429Y-76604762D01*
X72866191Y-76652381D01*
X72580476Y-76652381D01*
X72485238Y-76604762D01*
X72437619Y-76557143D01*
X69659524Y-91892381D02*
X69088095Y-91892381D01*
X69373809Y-91892381D02*
X69373809Y-90892381D01*
X69278571Y-91035238D01*
X69183333Y-91130476D01*
X69088095Y-91178095D01*
X70230952Y-91320952D02*
X70135714Y-91273333D01*
X70088095Y-91225714D01*
X70040476Y-91130476D01*
X70040476Y-91082857D01*
X70088095Y-90987619D01*
X70135714Y-90940000D01*
X70230952Y-90892381D01*
X70421429Y-90892381D01*
X70516667Y-90940000D01*
X70564286Y-90987619D01*
X70611905Y-91082857D01*
X70611905Y-91130476D01*
X70564286Y-91225714D01*
X70516667Y-91273333D01*
X70421429Y-91320952D01*
X70230952Y-91320952D01*
X70135714Y-91368571D01*
X70088095Y-91416190D01*
X70040476Y-91511429D01*
X70040476Y-91701905D01*
X70088095Y-91797143D01*
X70135714Y-91844762D01*
X70230952Y-91892381D01*
X70421429Y-91892381D01*
X70516667Y-91844762D01*
X70564286Y-91797143D01*
X70611905Y-91701905D01*
X70611905Y-91511429D01*
X70564286Y-91416190D01*
X70516667Y-91368571D01*
X70421429Y-91320952D01*
X67595715Y-62682381D02*
X67024286Y-62682381D01*
X67310000Y-62682381D02*
X67310000Y-61682381D01*
X67214762Y-61825238D01*
X67119524Y-61920476D01*
X67024286Y-61968095D01*
M02*
