G04 #@! TF.FileFunction,Copper,L1,Top,Signal*
%FSLAX46Y46*%
G04 Gerber Fmt 4.6, Leading zero omitted, Abs format (unit mm)*
G04 Created by KiCad (PCBNEW 4.0.7) date 02/19/18 12:51:33*
%MOMM*%
%LPD*%
G01*
G04 APERTURE LIST*
%ADD10C,0.100000*%
%ADD11R,1.371600X1.371600*%
%ADD12C,1.371600*%
%ADD13R,1.000000X1.250000*%
%ADD14R,1.600000X1.000000*%
%ADD15R,1.250000X1.000000*%
%ADD16R,1.200000X1.200000*%
%ADD17R,2.159000X1.778000*%
%ADD18R,2.500000X0.900000*%
%ADD19C,1.397000*%
%ADD20C,1.981000*%
%ADD21R,1.727200X1.727200*%
%ADD22O,1.727200X1.727200*%
%ADD23R,3.300000X8.200000*%
%ADD24R,0.700000X1.300000*%
%ADD25R,1.300000X0.700000*%
%ADD26R,3.200000X1.000000*%
%ADD27R,1.550000X0.600000*%
%ADD28R,1.060000X0.650000*%
%ADD29R,1.400000X1.200000*%
%ADD30R,0.900000X0.800000*%
%ADD31C,1.300000*%
%ADD32C,2.000000*%
%ADD33C,0.609600*%
%ADD34C,0.254000*%
%ADD35C,0.152400*%
%ADD36C,0.762000*%
G04 APERTURE END LIST*
D10*
G36*
X79987666Y-80398445D02*
X79598757Y-80009536D01*
X80730128Y-78878165D01*
X81119037Y-79267074D01*
X79987666Y-80398445D01*
X79987666Y-80398445D01*
G37*
G36*
X80553352Y-80964130D02*
X80164443Y-80575221D01*
X81295814Y-79443850D01*
X81684723Y-79832759D01*
X80553352Y-80964130D01*
X80553352Y-80964130D01*
G37*
G36*
X81119037Y-81529816D02*
X80730128Y-81140907D01*
X81861499Y-80009536D01*
X82250408Y-80398445D01*
X81119037Y-81529816D01*
X81119037Y-81529816D01*
G37*
G36*
X81684722Y-82095501D02*
X81295813Y-81706592D01*
X82427184Y-80575221D01*
X82816093Y-80964130D01*
X81684722Y-82095501D01*
X81684722Y-82095501D01*
G37*
G36*
X82250408Y-82661187D02*
X81861499Y-82272278D01*
X82992870Y-81140907D01*
X83381779Y-81529816D01*
X82250408Y-82661187D01*
X82250408Y-82661187D01*
G37*
G36*
X82816093Y-83226872D02*
X82427184Y-82837963D01*
X83558555Y-81706592D01*
X83947464Y-82095501D01*
X82816093Y-83226872D01*
X82816093Y-83226872D01*
G37*
G36*
X83381779Y-83792557D02*
X82992870Y-83403648D01*
X84124241Y-82272277D01*
X84513150Y-82661186D01*
X83381779Y-83792557D01*
X83381779Y-83792557D01*
G37*
G36*
X83947464Y-84358243D02*
X83558555Y-83969334D01*
X84689926Y-82837963D01*
X85078835Y-83226872D01*
X83947464Y-84358243D01*
X83947464Y-84358243D01*
G37*
G36*
X87129445Y-83969334D02*
X86740536Y-84358243D01*
X85609165Y-83226872D01*
X85998074Y-82837963D01*
X87129445Y-83969334D01*
X87129445Y-83969334D01*
G37*
G36*
X87695130Y-83403648D02*
X87306221Y-83792557D01*
X86174850Y-82661186D01*
X86563759Y-82272277D01*
X87695130Y-83403648D01*
X87695130Y-83403648D01*
G37*
G36*
X88260816Y-82837963D02*
X87871907Y-83226872D01*
X86740536Y-82095501D01*
X87129445Y-81706592D01*
X88260816Y-82837963D01*
X88260816Y-82837963D01*
G37*
G36*
X88826501Y-82272278D02*
X88437592Y-82661187D01*
X87306221Y-81529816D01*
X87695130Y-81140907D01*
X88826501Y-82272278D01*
X88826501Y-82272278D01*
G37*
G36*
X89392187Y-81706592D02*
X89003278Y-82095501D01*
X87871907Y-80964130D01*
X88260816Y-80575221D01*
X89392187Y-81706592D01*
X89392187Y-81706592D01*
G37*
G36*
X89957872Y-81140907D02*
X89568963Y-81529816D01*
X88437592Y-80398445D01*
X88826501Y-80009536D01*
X89957872Y-81140907D01*
X89957872Y-81140907D01*
G37*
G36*
X90523557Y-80575221D02*
X90134648Y-80964130D01*
X89003277Y-79832759D01*
X89392186Y-79443850D01*
X90523557Y-80575221D01*
X90523557Y-80575221D01*
G37*
G36*
X91089243Y-80009536D02*
X90700334Y-80398445D01*
X89568963Y-79267074D01*
X89957872Y-78878165D01*
X91089243Y-80009536D01*
X91089243Y-80009536D01*
G37*
G36*
X89957872Y-78347835D02*
X89568963Y-77958926D01*
X90700334Y-76827555D01*
X91089243Y-77216464D01*
X89957872Y-78347835D01*
X89957872Y-78347835D01*
G37*
G36*
X89392186Y-77782150D02*
X89003277Y-77393241D01*
X90134648Y-76261870D01*
X90523557Y-76650779D01*
X89392186Y-77782150D01*
X89392186Y-77782150D01*
G37*
G36*
X88826501Y-77216464D02*
X88437592Y-76827555D01*
X89568963Y-75696184D01*
X89957872Y-76085093D01*
X88826501Y-77216464D01*
X88826501Y-77216464D01*
G37*
G36*
X88260816Y-76650779D02*
X87871907Y-76261870D01*
X89003278Y-75130499D01*
X89392187Y-75519408D01*
X88260816Y-76650779D01*
X88260816Y-76650779D01*
G37*
G36*
X87695130Y-76085093D02*
X87306221Y-75696184D01*
X88437592Y-74564813D01*
X88826501Y-74953722D01*
X87695130Y-76085093D01*
X87695130Y-76085093D01*
G37*
G36*
X87129445Y-75519408D02*
X86740536Y-75130499D01*
X87871907Y-73999128D01*
X88260816Y-74388037D01*
X87129445Y-75519408D01*
X87129445Y-75519408D01*
G37*
G36*
X86563759Y-74953723D02*
X86174850Y-74564814D01*
X87306221Y-73433443D01*
X87695130Y-73822352D01*
X86563759Y-74953723D01*
X86563759Y-74953723D01*
G37*
G36*
X85998074Y-74388037D02*
X85609165Y-73999128D01*
X86740536Y-72867757D01*
X87129445Y-73256666D01*
X85998074Y-74388037D01*
X85998074Y-74388037D01*
G37*
G36*
X85078835Y-73999128D02*
X84689926Y-74388037D01*
X83558555Y-73256666D01*
X83947464Y-72867757D01*
X85078835Y-73999128D01*
X85078835Y-73999128D01*
G37*
G36*
X84513150Y-74564814D02*
X84124241Y-74953723D01*
X82992870Y-73822352D01*
X83381779Y-73433443D01*
X84513150Y-74564814D01*
X84513150Y-74564814D01*
G37*
G36*
X83947464Y-75130499D02*
X83558555Y-75519408D01*
X82427184Y-74388037D01*
X82816093Y-73999128D01*
X83947464Y-75130499D01*
X83947464Y-75130499D01*
G37*
G36*
X83381779Y-75696184D02*
X82992870Y-76085093D01*
X81861499Y-74953722D01*
X82250408Y-74564813D01*
X83381779Y-75696184D01*
X83381779Y-75696184D01*
G37*
G36*
X82816093Y-76261870D02*
X82427184Y-76650779D01*
X81295813Y-75519408D01*
X81684722Y-75130499D01*
X82816093Y-76261870D01*
X82816093Y-76261870D01*
G37*
G36*
X82250408Y-76827555D02*
X81861499Y-77216464D01*
X80730128Y-76085093D01*
X81119037Y-75696184D01*
X82250408Y-76827555D01*
X82250408Y-76827555D01*
G37*
G36*
X81684723Y-77393241D02*
X81295814Y-77782150D01*
X80164443Y-76650779D01*
X80553352Y-76261870D01*
X81684723Y-77393241D01*
X81684723Y-77393241D01*
G37*
G36*
X81119037Y-77958926D02*
X80730128Y-78347835D01*
X79598757Y-77216464D01*
X79987666Y-76827555D01*
X81119037Y-77958926D01*
X81119037Y-77958926D01*
G37*
D11*
X107188000Y-65100200D03*
X107188000Y-65100200D03*
D12*
X107188000Y-70104000D03*
X107188000Y-70104000D03*
D11*
X110617000Y-76149200D03*
X110617000Y-76149200D03*
D12*
X110617000Y-81153000D03*
X110617000Y-81153000D03*
D13*
X83296000Y-91440000D03*
X81296000Y-91440000D03*
D10*
G36*
X79015398Y-82439281D02*
X79899281Y-81555398D01*
X80606388Y-82262505D01*
X79722505Y-83146388D01*
X79015398Y-82439281D01*
X79015398Y-82439281D01*
G37*
G36*
X80429612Y-83853495D02*
X81313495Y-82969612D01*
X82020602Y-83676719D01*
X81136719Y-84560602D01*
X80429612Y-83853495D01*
X80429612Y-83853495D01*
G37*
G36*
X89683398Y-74565281D02*
X90567281Y-73681398D01*
X91274388Y-74388505D01*
X90390505Y-75272388D01*
X89683398Y-74565281D01*
X89683398Y-74565281D01*
G37*
G36*
X91097612Y-75979495D02*
X91981495Y-75095612D01*
X92688602Y-75802719D01*
X91804719Y-76686602D01*
X91097612Y-75979495D01*
X91097612Y-75979495D01*
G37*
D14*
X75438000Y-59666000D03*
X75438000Y-56666000D03*
D13*
X86090000Y-57404000D03*
X84090000Y-57404000D03*
D15*
X92964000Y-84344000D03*
X92964000Y-86344000D03*
D13*
X89043000Y-88138000D03*
X91043000Y-88138000D03*
D15*
X90170000Y-65294000D03*
X90170000Y-67294000D03*
D16*
X114300000Y-66164000D03*
X114300000Y-68964000D03*
X111844000Y-58928000D03*
X109644000Y-58928000D03*
X100838000Y-68369000D03*
X100838000Y-70569000D03*
X109898000Y-85725000D03*
X112098000Y-85725000D03*
X104648000Y-98128000D03*
X104648000Y-95928000D03*
X95631000Y-98128000D03*
X95631000Y-95928000D03*
X114427000Y-87881000D03*
X114427000Y-90681000D03*
X85260000Y-91440000D03*
X87460000Y-91440000D03*
X89324000Y-90424000D03*
X91524000Y-90424000D03*
X98849000Y-77089000D03*
X101049000Y-77089000D03*
X77978000Y-98128000D03*
X77978000Y-95928000D03*
X86741000Y-98128000D03*
X86741000Y-95928000D03*
X103505000Y-79753000D03*
X103505000Y-82553000D03*
D17*
X73914000Y-67310000D03*
X73914000Y-63246000D03*
D16*
X78740000Y-56304000D03*
X78740000Y-58504000D03*
X96520000Y-67902000D03*
X96520000Y-65702000D03*
D18*
X78232000Y-63172000D03*
X78232000Y-60272000D03*
D19*
X119761000Y-62230000D03*
X119761000Y-58730000D03*
D20*
X117531000Y-60480000D03*
D19*
X119761000Y-65730000D03*
X119761000Y-69230000D03*
X113284000Y-99004000D03*
X113284000Y-95504000D03*
D20*
X111054000Y-97254000D03*
D19*
X119507000Y-90170000D03*
X119507000Y-86670000D03*
D20*
X117277000Y-88420000D03*
D19*
X119507000Y-80518000D03*
X119507000Y-77018000D03*
D20*
X117277000Y-78768000D03*
D21*
X73660000Y-72136000D03*
D22*
X76200000Y-72136000D03*
X73660000Y-74676000D03*
X76200000Y-74676000D03*
X73660000Y-77216000D03*
X76200000Y-77216000D03*
D23*
X88900000Y-59436000D03*
X93600000Y-59436000D03*
D24*
X115504000Y-58928000D03*
X113604000Y-58928000D03*
X115504000Y-60960000D03*
X113604000Y-60960000D03*
D25*
X100838000Y-64455000D03*
X100838000Y-66355000D03*
X107950000Y-87437000D03*
X107950000Y-85537000D03*
X107950000Y-88839000D03*
X107950000Y-90739000D03*
D24*
X104074000Y-100076000D03*
X102174000Y-100076000D03*
X95057000Y-100076000D03*
X93157000Y-100076000D03*
D25*
X102616000Y-97978000D03*
X102616000Y-96078000D03*
X93599000Y-97978000D03*
X93599000Y-96078000D03*
X85090000Y-87823000D03*
X85090000Y-89723000D03*
D24*
X100518000Y-100076000D03*
X98618000Y-100076000D03*
X91501000Y-100076000D03*
X89601000Y-100076000D03*
D25*
X87122000Y-87823000D03*
X87122000Y-89723000D03*
X96901000Y-79055000D03*
X96901000Y-77155000D03*
X96901000Y-80711000D03*
X96901000Y-82611000D03*
D24*
X77404000Y-100076000D03*
X75504000Y-100076000D03*
X86167000Y-100076000D03*
X84267000Y-100076000D03*
D25*
X75946000Y-97978000D03*
X75946000Y-96078000D03*
X84709000Y-97978000D03*
X84709000Y-96078000D03*
D24*
X73848000Y-100076000D03*
X71948000Y-100076000D03*
X82611000Y-100076000D03*
X80711000Y-100076000D03*
D10*
G36*
X87267142Y-72184381D02*
X88186381Y-71265142D01*
X88681356Y-71760117D01*
X87762117Y-72679356D01*
X87267142Y-72184381D01*
X87267142Y-72184381D01*
G37*
G36*
X88610644Y-73527883D02*
X89529883Y-72608644D01*
X90024858Y-73103619D01*
X89105619Y-74022858D01*
X88610644Y-73527883D01*
X88610644Y-73527883D01*
G37*
D25*
X80772000Y-58100000D03*
X80772000Y-56200000D03*
X81026000Y-60264000D03*
X81026000Y-62164000D03*
X82042000Y-65090000D03*
X82042000Y-66990000D03*
X84074000Y-66990000D03*
X84074000Y-65090000D03*
D24*
X74610000Y-80518000D03*
X72710000Y-80518000D03*
X72710000Y-82550000D03*
X74610000Y-82550000D03*
D26*
X93472000Y-71426000D03*
X93472000Y-65226000D03*
D25*
X80010000Y-72710000D03*
X80010000Y-74610000D03*
X96520000Y-71562000D03*
X96520000Y-69662000D03*
D27*
X82608400Y-89535000D03*
X82608400Y-88265000D03*
X82608400Y-86995000D03*
X82608400Y-85725000D03*
X77208400Y-85725000D03*
X77208400Y-86995000D03*
X77208400Y-88265000D03*
X77208400Y-89535000D03*
D28*
X83228000Y-59502000D03*
X83228000Y-60452000D03*
X83228000Y-61402000D03*
X85428000Y-61402000D03*
X85428000Y-59502000D03*
X85428000Y-60452000D03*
D29*
X91143000Y-84544000D03*
X88943000Y-84544000D03*
X88943000Y-86144000D03*
X91143000Y-86144000D03*
D30*
X109821000Y-88839000D03*
X109821000Y-90739000D03*
X111921000Y-89789000D03*
X100618000Y-97978000D03*
X100618000Y-96078000D03*
X98518000Y-97028000D03*
X91601000Y-97978000D03*
X91601000Y-96078000D03*
X89501000Y-97028000D03*
X98899000Y-80711000D03*
X98899000Y-82611000D03*
X100999000Y-81661000D03*
X73948000Y-97978000D03*
X73948000Y-96078000D03*
X71848000Y-97028000D03*
X82711000Y-97978000D03*
X82711000Y-96078000D03*
X80611000Y-97028000D03*
D15*
X88138000Y-65294000D03*
X88138000Y-67294000D03*
X86106000Y-65294000D03*
X86106000Y-67294000D03*
D31*
X67310000Y-71120000D03*
X67310000Y-68580000D03*
X67310000Y-66040000D03*
X67310000Y-73660000D03*
X69850000Y-67310000D03*
X69850000Y-69850000D03*
X69850000Y-72390000D03*
X69850000Y-74930000D03*
X67310000Y-76200000D03*
X69850000Y-77470000D03*
X67310000Y-78740000D03*
X69850000Y-80010000D03*
X67310000Y-81280000D03*
X69850000Y-82550000D03*
X67310000Y-83820000D03*
X69850000Y-85090000D03*
X67310000Y-86360000D03*
X69850000Y-87630000D03*
D32*
X69110000Y-64640000D03*
D33*
X83566000Y-71882000D03*
X76962000Y-66294000D03*
X108204000Y-58928000D03*
X79756000Y-89662000D03*
X81534000Y-96012000D03*
X99314000Y-96012000D03*
X90424000Y-96012000D03*
X112522000Y-87376000D03*
X91186000Y-75184000D03*
X87376000Y-76962000D03*
X110998000Y-91694000D03*
X100076000Y-83820000D03*
X82042000Y-59182000D03*
X94234000Y-66802000D03*
X92456000Y-67310000D03*
X81788000Y-66040000D03*
X80010000Y-59182000D03*
X75438000Y-58166000D03*
X83312000Y-77724000D03*
X78232000Y-76454000D03*
X92710000Y-78232000D03*
X94234000Y-78232000D03*
X96774000Y-81534000D03*
X94488000Y-81280000D03*
X79502000Y-96774000D03*
X79502000Y-98298000D03*
X88392000Y-97028000D03*
X88392000Y-98298000D03*
X84318695Y-85090000D03*
X85090000Y-86487000D03*
X77978000Y-74676000D03*
X82042000Y-78232000D03*
X78994000Y-79248000D03*
X75692000Y-83566000D03*
X73406000Y-85090000D03*
X76708000Y-84074000D03*
X74422000Y-86106000D03*
X97282000Y-97028000D03*
X97282000Y-98298000D03*
X94234000Y-72898000D03*
X92710000Y-72898000D03*
X77470000Y-78262000D03*
X81534000Y-74168000D03*
X78232000Y-77216000D03*
X80264000Y-75692000D03*
D34*
X95758000Y-82970922D02*
X105527401Y-92740323D01*
X93472000Y-71426000D02*
X93472000Y-79248000D01*
X95758000Y-82970922D02*
X95758000Y-81534000D01*
X95758000Y-81534000D02*
X93472000Y-79248000D01*
X82611000Y-100076000D02*
X82611000Y-99776000D01*
X78740000Y-97028000D02*
X73545078Y-97028000D01*
X82611000Y-99776000D02*
X80542401Y-97707401D01*
X79419401Y-97707401D02*
X78740000Y-97028000D01*
X73545078Y-97028000D02*
X73218599Y-97354479D01*
X73218599Y-97354479D02*
X73218599Y-98542599D01*
X80542401Y-97707401D02*
X79419401Y-97707401D01*
X73218599Y-98542599D02*
X73848000Y-99172000D01*
X73848000Y-99172000D02*
X73848000Y-100076000D01*
X91501000Y-100076000D02*
X91501000Y-99776000D01*
X91501000Y-99776000D02*
X89432401Y-97707401D01*
X82035479Y-97248599D02*
X81981599Y-97302479D01*
X89432401Y-97707401D02*
X88023323Y-97707401D01*
X88023323Y-97707401D02*
X87564521Y-97248599D01*
X87564521Y-97248599D02*
X82035479Y-97248599D01*
X81981599Y-98542599D02*
X82611000Y-99172000D01*
X81981599Y-97302479D02*
X81981599Y-98542599D01*
X82611000Y-99172000D02*
X82611000Y-100076000D01*
X100518000Y-100076000D02*
X100518000Y-99776000D01*
X90871599Y-97354479D02*
X90871599Y-98542599D01*
X100518000Y-99776000D02*
X98449401Y-97707401D01*
X90977479Y-97248599D02*
X90871599Y-97354479D01*
X98449401Y-97707401D02*
X96913323Y-97707401D01*
X96913323Y-97707401D02*
X96454521Y-97248599D01*
X96454521Y-97248599D02*
X90977479Y-97248599D01*
X90871599Y-98542599D02*
X91501000Y-99172000D01*
X91501000Y-99172000D02*
X91501000Y-100076000D01*
X99994479Y-97248599D02*
X99822000Y-97421078D01*
X99822000Y-97421078D02*
X99822000Y-98476000D01*
X99822000Y-98476000D02*
X100518000Y-99172000D01*
X100518000Y-99172000D02*
X100518000Y-100076000D01*
X105527401Y-92740323D02*
X105527401Y-96751521D01*
X105527401Y-96751521D02*
X105030323Y-97248599D01*
X105030323Y-97248599D02*
X99994479Y-97248599D01*
X96520000Y-71562000D02*
X97424000Y-71562000D01*
X97424000Y-71562000D02*
X98892599Y-70093401D01*
X104775479Y-57998599D02*
X119029599Y-57998599D01*
X98892599Y-70093401D02*
X98892599Y-63881479D01*
X119062501Y-58031501D02*
X119761000Y-58730000D01*
X98892599Y-63881479D02*
X104775479Y-57998599D01*
X119029599Y-57998599D02*
X119062501Y-58031501D01*
X83566000Y-71882000D02*
X81742000Y-71882000D01*
X81742000Y-71882000D02*
X80914000Y-72710000D01*
X80914000Y-72710000D02*
X80010000Y-72710000D01*
D35*
X83566000Y-71882000D02*
X83566000Y-72162988D01*
X83566000Y-72162988D02*
X83610612Y-72207600D01*
X87974249Y-71972249D02*
X83656249Y-71972249D01*
X83656249Y-71972249D02*
X83566000Y-71882000D01*
X80010000Y-72710000D02*
X80310000Y-72710000D01*
X82692348Y-77554218D02*
X82692348Y-80698966D01*
X83610612Y-72207600D02*
X85307445Y-73904433D01*
X85307445Y-73904433D02*
X85307445Y-74939121D01*
X85307445Y-74939121D02*
X82692348Y-77554218D01*
X82692348Y-80698966D02*
X82055953Y-81335361D01*
X82055953Y-81335361D02*
X81040421Y-82350893D01*
X81040421Y-82350893D02*
X79810893Y-82350893D01*
X85307445Y-82513445D02*
X83492966Y-80698966D01*
X83492966Y-80698966D02*
X82692348Y-80698966D01*
X82608400Y-86995000D02*
X83542298Y-86995000D01*
X83542298Y-86995000D02*
X85307445Y-85229853D01*
X85307445Y-85229853D02*
X85307445Y-82513445D01*
D34*
X87974249Y-71972249D02*
X92925751Y-71972249D01*
X92925751Y-71972249D02*
X93472000Y-71426000D01*
X87379274Y-71972249D02*
X87974249Y-71972249D01*
X76200000Y-72136000D02*
X79436000Y-72136000D01*
X79436000Y-72136000D02*
X80010000Y-72710000D01*
X71882000Y-70104000D02*
X75389314Y-70104000D01*
X75389314Y-70104000D02*
X76200000Y-70914686D01*
X76200000Y-70914686D02*
X76200000Y-72136000D01*
X70358000Y-68580000D02*
X71882000Y-70104000D01*
X67310000Y-68580000D02*
X70358000Y-68580000D01*
X82608400Y-86995000D02*
X83083400Y-86995000D01*
X84069211Y-90541789D02*
X83296000Y-91315000D01*
X83083400Y-86995000D02*
X84069211Y-87980811D01*
X84069211Y-87980811D02*
X84069211Y-90541789D01*
X83296000Y-91315000D02*
X83296000Y-91440000D01*
X93472000Y-71426000D02*
X96384000Y-71426000D01*
X96384000Y-71426000D02*
X96520000Y-71562000D01*
D36*
X75946000Y-67310000D02*
X76962000Y-66294000D01*
X73914000Y-67310000D02*
X75946000Y-67310000D01*
X88138000Y-67294000D02*
X90170000Y-67294000D01*
X86106000Y-67294000D02*
X88138000Y-67294000D01*
X114300000Y-68964000D02*
X108328000Y-68964000D01*
X108328000Y-68964000D02*
X107188000Y-70104000D01*
D34*
X75946000Y-96078000D02*
X73948000Y-96078000D01*
X77978000Y-95928000D02*
X76096000Y-95928000D01*
X76096000Y-95928000D02*
X75946000Y-96078000D01*
X84709000Y-96078000D02*
X82711000Y-96078000D01*
X86741000Y-95928000D02*
X84859000Y-95928000D01*
X84859000Y-95928000D02*
X84709000Y-96078000D01*
X93599000Y-96078000D02*
X91601000Y-96078000D01*
X95631000Y-95928000D02*
X93749000Y-95928000D01*
X93749000Y-95928000D02*
X93599000Y-96078000D01*
X102616000Y-96078000D02*
X100618000Y-96078000D01*
X104648000Y-95928000D02*
X102766000Y-95928000D01*
X102766000Y-95928000D02*
X102616000Y-96078000D01*
X109644000Y-58928000D02*
X108204000Y-58928000D01*
X109644000Y-58928000D02*
X109644000Y-59782000D01*
X109644000Y-59782000D02*
X110822000Y-60960000D01*
X110822000Y-60960000D02*
X113000000Y-60960000D01*
X113000000Y-60960000D02*
X113604000Y-60960000D01*
X81225107Y-83765107D02*
X79756000Y-85234214D01*
X79756000Y-85234214D02*
X79756000Y-89662000D01*
X82621639Y-81901047D02*
X81225107Y-83297579D01*
X81225107Y-83297579D02*
X81225107Y-83765107D01*
X91524000Y-90424000D02*
X91524000Y-91278000D01*
X91524000Y-91278000D02*
X91362000Y-91440000D01*
X91362000Y-91440000D02*
X88314000Y-91440000D01*
X88314000Y-91440000D02*
X87460000Y-91440000D01*
X91524000Y-90424000D02*
X91524000Y-88619000D01*
X91524000Y-88619000D02*
X91043000Y-88138000D01*
X81296000Y-91440000D02*
X81296000Y-91565000D01*
X81296000Y-91565000D02*
X82075401Y-92344401D01*
X82075401Y-92344401D02*
X87409599Y-92344401D01*
X87460000Y-92294000D02*
X87460000Y-91440000D01*
X87409599Y-92344401D02*
X87460000Y-92294000D01*
X81296000Y-91440000D02*
X81296000Y-91202000D01*
X81296000Y-91202000D02*
X79756000Y-89662000D01*
X77208400Y-89535000D02*
X79629000Y-89535000D01*
X79629000Y-89535000D02*
X79756000Y-89662000D01*
X77978000Y-95928000D02*
X81450000Y-95928000D01*
X81450000Y-95928000D02*
X81534000Y-96012000D01*
X77828000Y-96078000D02*
X77978000Y-95928000D01*
X82711000Y-96078000D02*
X81600000Y-96078000D01*
X81600000Y-96078000D02*
X81534000Y-96012000D01*
X100618000Y-96078000D02*
X99380000Y-96078000D01*
X99380000Y-96078000D02*
X99314000Y-96012000D01*
X91601000Y-96078000D02*
X90490000Y-96078000D01*
X90490000Y-96078000D02*
X90424000Y-96012000D01*
X86591000Y-96078000D02*
X86741000Y-95928000D01*
X95481000Y-96078000D02*
X95631000Y-95928000D01*
X104498000Y-96078000D02*
X104648000Y-95928000D01*
X112098000Y-85725000D02*
X112098000Y-86952000D01*
X112098000Y-86952000D02*
X112522000Y-87376000D01*
X91893107Y-75891107D02*
X91186000Y-75184000D01*
X88632047Y-75890639D02*
X88447361Y-75890639D01*
X88447361Y-75890639D02*
X87376000Y-76962000D01*
X101049000Y-77089000D02*
X101049000Y-70780000D01*
X101049000Y-70780000D02*
X100838000Y-70569000D01*
X107950000Y-90739000D02*
X109821000Y-90739000D01*
X96901000Y-82611000D02*
X98899000Y-82611000D01*
D36*
X109821000Y-90739000D02*
X110043000Y-90739000D01*
X110043000Y-90739000D02*
X110998000Y-91694000D01*
X98899000Y-82611000D02*
X98899000Y-82643000D01*
X98899000Y-82643000D02*
X100076000Y-83820000D01*
D34*
X100838000Y-70569000D02*
X106723000Y-70569000D01*
X106723000Y-70569000D02*
X107188000Y-70104000D01*
D36*
X114300000Y-68964000D02*
X119495000Y-68964000D01*
X119495000Y-68964000D02*
X119761000Y-69230000D01*
D34*
X82608400Y-88265000D02*
X83083400Y-88265000D01*
X83083400Y-88265000D02*
X83662801Y-88844401D01*
X83566000Y-90449400D02*
X82161600Y-90449400D01*
X83662801Y-88844401D02*
X83662801Y-90352599D01*
X81296000Y-91315000D02*
X81296000Y-91440000D01*
X83662801Y-90352599D02*
X83566000Y-90449400D01*
X82161600Y-90449400D02*
X81296000Y-91315000D01*
X73914000Y-67310000D02*
X74104500Y-67310000D01*
D36*
X83228000Y-59502000D02*
X82362000Y-59502000D01*
X82362000Y-59502000D02*
X82042000Y-59182000D01*
D34*
X96520000Y-65702000D02*
X95666000Y-65702000D01*
X95666000Y-65702000D02*
X94566000Y-66802000D01*
X94566000Y-66802000D02*
X94234000Y-66802000D01*
D36*
X90170000Y-67294000D02*
X92440000Y-67294000D01*
X92440000Y-67294000D02*
X92456000Y-67310000D01*
D34*
X82042000Y-66990000D02*
X81810092Y-66062092D01*
X81810092Y-66062092D02*
X81788000Y-66040000D01*
X78740000Y-58674000D02*
X79248000Y-59182000D01*
X79248000Y-59182000D02*
X80010000Y-59182000D01*
X78740000Y-58504000D02*
X78740000Y-58674000D01*
D36*
X75438000Y-56666000D02*
X75438000Y-58166000D01*
D34*
X93345000Y-86344000D02*
X91343000Y-86344000D01*
X91343000Y-86344000D02*
X91143000Y-86144000D01*
X91043000Y-88138000D02*
X91043000Y-86244000D01*
X91043000Y-86244000D02*
X91143000Y-86144000D01*
X88943000Y-84544000D02*
X89443000Y-84544000D01*
X89443000Y-84544000D02*
X91043000Y-86144000D01*
X91043000Y-86144000D02*
X91143000Y-86144000D01*
D36*
X75438000Y-59666000D02*
X77626000Y-59666000D01*
X77626000Y-59666000D02*
X78232000Y-60272000D01*
D34*
X81026000Y-60264000D02*
X81026000Y-58354000D01*
X81026000Y-58354000D02*
X80772000Y-58100000D01*
D36*
X81026000Y-60264000D02*
X82164000Y-61402000D01*
X82164000Y-61402000D02*
X83228000Y-61402000D01*
X78232000Y-60272000D02*
X81018000Y-60272000D01*
X81018000Y-60272000D02*
X81026000Y-60264000D01*
D34*
X85428000Y-59502000D02*
X85428000Y-58066000D01*
X85428000Y-58066000D02*
X86090000Y-57404000D01*
X91143000Y-84544000D02*
X91043000Y-84544000D01*
X89602127Y-83103127D02*
X88137071Y-83103127D01*
X91043000Y-84544000D02*
X89602127Y-83103127D01*
X88137071Y-83103127D02*
X87500676Y-82466732D01*
X93345000Y-84344000D02*
X91343000Y-84344000D01*
X91343000Y-84344000D02*
X91143000Y-84544000D01*
X88943000Y-86144000D02*
X88740078Y-86144000D01*
X88740078Y-86144000D02*
X87571385Y-84975307D01*
X87571385Y-84975307D02*
X87571385Y-83668812D01*
X87571385Y-83668812D02*
X86934990Y-83032417D01*
X89043000Y-88138000D02*
X89043000Y-86244000D01*
X89043000Y-86244000D02*
X88943000Y-86144000D01*
X100838000Y-66355000D02*
X100838000Y-68369000D01*
X107950000Y-85537000D02*
X109710000Y-85537000D01*
X109710000Y-85537000D02*
X109898000Y-85725000D01*
X104074000Y-100076000D02*
X104074000Y-98702000D01*
X104074000Y-98702000D02*
X104648000Y-98128000D01*
D36*
X114427000Y-90681000D02*
X112813000Y-90681000D01*
X112813000Y-90681000D02*
X111921000Y-89789000D01*
X119507000Y-90170000D02*
X114938000Y-90170000D01*
X114938000Y-90170000D02*
X114427000Y-90681000D01*
D34*
X85090000Y-89723000D02*
X85090000Y-91270000D01*
X85090000Y-91270000D02*
X85260000Y-91440000D01*
X87122000Y-89723000D02*
X88623000Y-89723000D01*
X88623000Y-89723000D02*
X89324000Y-90424000D01*
X96901000Y-77155000D02*
X98783000Y-77155000D01*
X98783000Y-77155000D02*
X98849000Y-77089000D01*
D36*
X73914000Y-63246000D02*
X78158000Y-63246000D01*
X78158000Y-63246000D02*
X78232000Y-63172000D01*
X69850000Y-67310000D02*
X73914000Y-63246000D01*
D35*
X78765401Y-77190599D02*
X80358897Y-78784095D01*
X80358897Y-78784095D02*
X80358897Y-79638305D01*
X77647799Y-75768201D02*
X78335635Y-75768201D01*
X78335635Y-75768201D02*
X78765401Y-76197967D01*
X78765401Y-76197967D02*
X78765401Y-77190599D01*
X74930000Y-74329542D02*
X74930000Y-75022458D01*
X74930000Y-75022458D02*
X75675743Y-75768201D01*
X75675743Y-75768201D02*
X77647799Y-75768201D01*
X73660000Y-72136000D02*
X73660000Y-73059542D01*
X73660000Y-73059542D02*
X74930000Y-74329542D01*
D34*
X67310000Y-71120000D02*
X69955514Y-71120000D01*
X70971514Y-72136000D02*
X72542400Y-72136000D01*
X69955514Y-71120000D02*
X70971514Y-72136000D01*
X72542400Y-72136000D02*
X73660000Y-72136000D01*
D35*
X76200000Y-74676000D02*
X76987391Y-75463391D01*
X76987391Y-75463391D02*
X78461892Y-75463392D01*
X78461892Y-75463392D02*
X79248000Y-76249500D01*
X79248000Y-76249500D02*
X79248000Y-77189012D01*
X79248000Y-77189012D02*
X80708543Y-78649555D01*
X80708543Y-78649555D02*
X80824823Y-78649555D01*
X80824823Y-78649555D02*
X81560978Y-79385710D01*
X81560978Y-79385710D02*
X81560978Y-79567595D01*
X81560978Y-79567595D02*
X80924583Y-80203990D01*
D34*
X69850000Y-69850000D02*
X70992999Y-70992999D01*
X70992999Y-70992999D02*
X74747121Y-70992999D01*
X74747121Y-70992999D02*
X75056999Y-71302877D01*
X75336401Y-73812401D02*
X76200000Y-74676000D01*
X75056999Y-71302877D02*
X75056999Y-73532999D01*
X75056999Y-73532999D02*
X75336401Y-73812401D01*
X87122000Y-87823000D02*
X87122000Y-84350798D01*
X87122000Y-84350798D02*
X86369305Y-83598103D01*
D35*
X83312000Y-77724000D02*
X86511926Y-80923926D01*
X86511926Y-80923926D02*
X87089240Y-80923926D01*
X87089240Y-80923926D02*
X87429966Y-81264652D01*
X87429966Y-81264652D02*
X88066361Y-81901047D01*
X73660000Y-74676000D02*
X75057011Y-76073011D01*
X75057011Y-76073011D02*
X77851011Y-76073011D01*
X77851011Y-76073011D02*
X78232000Y-76454000D01*
D34*
X69850000Y-72390000D02*
X72136000Y-74676000D01*
X72136000Y-74676000D02*
X73660000Y-74676000D01*
X94234000Y-78232000D02*
X95057000Y-79055000D01*
X95057000Y-79055000D02*
X96901000Y-79055000D01*
X92710000Y-78232000D02*
X90863615Y-76385615D01*
X90863615Y-76385615D02*
X90399812Y-76385615D01*
X90399812Y-76385615D02*
X89763417Y-77022010D01*
X96901000Y-80711000D02*
X98899000Y-80711000D01*
X96901000Y-80711000D02*
X96901000Y-79055000D01*
X96774000Y-81534000D02*
X99174922Y-81534000D01*
X99174922Y-81534000D02*
X105077922Y-87437000D01*
X105077922Y-87437000D02*
X107046000Y-87437000D01*
X107046000Y-87437000D02*
X107950000Y-87437000D01*
X94488000Y-81280000D02*
X90795695Y-77587695D01*
X90795695Y-77587695D02*
X90329103Y-77587695D01*
X107950000Y-88839000D02*
X109821000Y-88839000D01*
X107950000Y-87437000D02*
X107950000Y-88839000D01*
X93559922Y-83312000D02*
X90608686Y-83312000D01*
X90608686Y-83312000D02*
X88632047Y-81335361D01*
X73914000Y-93218000D02*
X90432922Y-93218000D01*
X90432922Y-93218000D02*
X93868401Y-89782521D01*
X93868401Y-89782521D02*
X93868401Y-83620479D01*
X93868401Y-83620479D02*
X93559922Y-83312000D01*
X72186820Y-94945180D02*
X73914000Y-93218000D01*
X72186820Y-95911008D02*
X72186820Y-94945180D01*
X71848000Y-97028000D02*
X71848000Y-96249828D01*
X71848000Y-96249828D02*
X72186820Y-95911008D01*
X71948000Y-100076000D02*
X71948000Y-97128000D01*
X71948000Y-97128000D02*
X71848000Y-97028000D01*
X79502000Y-96774000D02*
X80357000Y-96774000D01*
X80357000Y-96774000D02*
X80611000Y-97028000D01*
X80711000Y-100076000D02*
X80711000Y-99507000D01*
X80711000Y-99507000D02*
X79502000Y-98298000D01*
X80611000Y-97028000D02*
X81315000Y-97028000D01*
X81315000Y-97028000D02*
X81500811Y-96842189D01*
X81500811Y-96842189D02*
X87529733Y-96842189D01*
X87529733Y-96842189D02*
X94274811Y-90097111D01*
X94274811Y-90097111D02*
X94274811Y-83452139D01*
X94274811Y-83452139D02*
X92228743Y-81406071D01*
X92228743Y-81406071D02*
X89834127Y-81406071D01*
X89834127Y-81406071D02*
X89197732Y-80769676D01*
X80711000Y-100376000D02*
X80711000Y-100076000D01*
X88392000Y-97028000D02*
X89501000Y-97028000D01*
X89601000Y-100076000D02*
X89601000Y-99507000D01*
X89601000Y-99507000D02*
X88392000Y-98298000D01*
X94742000Y-90326230D02*
X94742000Y-84074000D01*
X94742000Y-84074000D02*
X94742000Y-83748303D01*
X89763417Y-80203990D02*
X90559088Y-80999661D01*
X90559088Y-80999661D02*
X92397084Y-80999662D01*
X92397084Y-80999662D02*
X94742000Y-83344578D01*
X94742000Y-83344578D02*
X94742000Y-84074000D01*
X89501000Y-97028000D02*
X90623328Y-97028000D01*
X90623328Y-97028000D02*
X90843927Y-96807401D01*
X90843927Y-96807401D02*
X96454521Y-96807401D01*
X96454521Y-96807401D02*
X96510401Y-96751521D01*
X96510401Y-96751521D02*
X96510401Y-92094631D01*
X96510401Y-92094631D02*
X94742000Y-90326230D01*
X89601000Y-100076000D02*
X89601000Y-100376000D01*
X84318695Y-83598103D02*
X84318695Y-85090000D01*
X85090000Y-86487000D02*
X85090000Y-87823000D01*
X67310000Y-73660000D02*
X70104000Y-73660000D01*
X70104000Y-73660000D02*
X73660000Y-77216000D01*
X80010000Y-74610000D02*
X79710000Y-74610000D01*
X79603609Y-75896227D02*
X80092997Y-76385615D01*
X80288188Y-76385615D02*
X80924583Y-77022010D01*
X79710000Y-74610000D02*
X79603609Y-74716391D01*
X79603609Y-74716391D02*
X79603609Y-75896227D01*
X80092997Y-76385615D02*
X80288188Y-76385615D01*
X77978000Y-74676000D02*
X79944000Y-74676000D01*
X79944000Y-74676000D02*
X80010000Y-74610000D01*
X113604000Y-58928000D02*
X111844000Y-58928000D01*
X69850000Y-82550000D02*
X71780410Y-84480410D01*
X71780410Y-84480410D02*
X71780410Y-95742668D01*
X71780410Y-95742668D02*
X71118599Y-96404479D01*
X71118599Y-96404479D02*
X71118599Y-100749521D01*
X71118599Y-100749521D02*
X71374479Y-101005401D01*
X71374479Y-101005401D02*
X74874599Y-101005401D01*
X74874599Y-101005401D02*
X75504000Y-100376000D01*
X75504000Y-100376000D02*
X75504000Y-100076000D01*
X73948000Y-97978000D02*
X75946000Y-97978000D01*
X75504000Y-100076000D02*
X75504000Y-98420000D01*
X75504000Y-98420000D02*
X75946000Y-97978000D01*
X67310000Y-83820000D02*
X69955514Y-83820000D01*
X71206139Y-101411811D02*
X83231189Y-101411811D01*
X69955514Y-83820000D02*
X71374000Y-85238486D01*
X70712189Y-96236139D02*
X70712190Y-100917862D01*
X71374000Y-85238486D02*
X71374000Y-95574328D01*
X71374000Y-95574328D02*
X70712189Y-96236139D01*
X70712190Y-100917862D02*
X71206139Y-101411811D01*
X83231189Y-101411811D02*
X84267000Y-100376000D01*
X84267000Y-100376000D02*
X84267000Y-100076000D01*
X82711000Y-97978000D02*
X84709000Y-97978000D01*
X84267000Y-100076000D02*
X84267000Y-98420000D01*
X84267000Y-98420000D02*
X84709000Y-97978000D01*
X69850000Y-85090000D02*
X69850000Y-86009238D01*
X69850000Y-86009238D02*
X70967590Y-87126828D01*
X70967590Y-87126828D02*
X70967590Y-95405988D01*
X70967590Y-95405988D02*
X70305780Y-96067800D01*
X70305781Y-101086203D02*
X71037799Y-101818221D01*
X70305780Y-96067800D02*
X70305781Y-101086203D01*
X71037799Y-101818221D02*
X91714779Y-101818221D01*
X91714779Y-101818221D02*
X93157000Y-100376000D01*
X93157000Y-100376000D02*
X93157000Y-100076000D01*
X91601000Y-97978000D02*
X93599000Y-97978000D01*
X93157000Y-100076000D02*
X93157000Y-98420000D01*
X93157000Y-98420000D02*
X93599000Y-97978000D01*
X95057000Y-100076000D02*
X95057000Y-98702000D01*
X95057000Y-98702000D02*
X95631000Y-98128000D01*
X72710000Y-80518000D02*
X72710000Y-80218000D01*
X69962000Y-77470000D02*
X69850000Y-77470000D01*
X72710000Y-80218000D02*
X69962000Y-77470000D01*
X67310000Y-78740000D02*
X69955514Y-78740000D01*
X69955514Y-78740000D02*
X72080599Y-80865085D01*
X72080599Y-80865085D02*
X72080599Y-81620599D01*
X72080599Y-81620599D02*
X72710000Y-82250000D01*
X72710000Y-82250000D02*
X72710000Y-82550000D01*
X67310000Y-76200000D02*
X70291250Y-76200000D01*
X70291250Y-76200000D02*
X73574189Y-79482939D01*
X73574189Y-79482939D02*
X73574189Y-83835789D01*
X73574189Y-83835789D02*
X76733400Y-86995000D01*
X76733400Y-86995000D02*
X77208400Y-86995000D01*
X77208400Y-88265000D02*
X77901800Y-88265000D01*
X77901800Y-88265000D02*
X78458401Y-87708399D01*
X78458401Y-87708399D02*
X78458401Y-85201479D01*
X78458401Y-85201479D02*
X78092922Y-84836000D01*
X78092922Y-84836000D02*
X75393078Y-84836000D01*
X75393078Y-84836000D02*
X73980599Y-83423521D01*
X73980599Y-83423521D02*
X73980599Y-79314599D01*
X73980599Y-79314599D02*
X70499999Y-75833999D01*
X70499999Y-75833999D02*
X70499999Y-75579999D01*
X70499999Y-75579999D02*
X69850000Y-74930000D01*
D36*
X120904000Y-91948000D02*
X120904000Y-88067000D01*
X117348000Y-95504000D02*
X120904000Y-91948000D01*
X113284000Y-95504000D02*
X117348000Y-95504000D01*
X119507000Y-86670000D02*
X115638000Y-86670000D01*
X115638000Y-86670000D02*
X114427000Y-87881000D01*
X110617000Y-76149200D02*
X105746800Y-76149200D01*
X105746800Y-76149200D02*
X103505000Y-78391000D01*
X103505000Y-78391000D02*
X103505000Y-79753000D01*
X119507000Y-77018000D02*
X111485800Y-77018000D01*
X111485800Y-77018000D02*
X110617000Y-76149200D01*
D34*
X107188000Y-65100200D02*
X100879200Y-65100200D01*
X100879200Y-65100200D02*
X100838000Y-65059000D01*
X100838000Y-65059000D02*
X100838000Y-64455000D01*
D36*
X114300000Y-66164000D02*
X108251800Y-66164000D01*
X108251800Y-66164000D02*
X107188000Y-65100200D01*
X119761000Y-65730000D02*
X114734000Y-65730000D01*
X114734000Y-65730000D02*
X114300000Y-66164000D01*
X119507000Y-77018000D02*
X120992901Y-75532099D01*
X120992901Y-66961901D02*
X120459499Y-66428499D01*
X120992901Y-75532099D02*
X120992901Y-66961901D01*
X120459499Y-66428499D02*
X119761000Y-65730000D01*
X119507000Y-86670000D02*
X120738901Y-85438099D01*
X120738901Y-85438099D02*
X120738901Y-78249901D01*
X120738901Y-78249901D02*
X120205499Y-77716499D01*
X120205499Y-77716499D02*
X119507000Y-77018000D01*
X120904000Y-88067000D02*
X120205499Y-87368499D01*
X120205499Y-87368499D02*
X119507000Y-86670000D01*
D34*
X80358897Y-77587695D02*
X81003202Y-78232000D01*
X81003202Y-78232000D02*
X82042000Y-78232000D01*
X69850000Y-80010000D02*
X72080599Y-82240599D01*
X72080599Y-82240599D02*
X72080599Y-83423521D01*
X72080599Y-83423521D02*
X73406000Y-84748922D01*
X73406000Y-84748922D02*
X73406000Y-85090000D01*
X75692000Y-83566000D02*
X78994000Y-80264000D01*
X78994000Y-80264000D02*
X78994000Y-79248000D01*
X76708000Y-84074000D02*
X79538460Y-81243540D01*
X79538460Y-81243540D02*
X81016404Y-81243540D01*
X81016404Y-81243540D02*
X81490268Y-80769676D01*
X67310000Y-81280000D02*
X69955514Y-81280000D01*
X70779401Y-82103887D02*
X70779401Y-82767185D01*
X69955514Y-81280000D02*
X70779401Y-82103887D01*
X70779401Y-82767185D02*
X72821799Y-84809583D01*
X72821799Y-84809583D02*
X72821799Y-85370417D01*
X72821799Y-85370417D02*
X73557382Y-86106000D01*
X73557382Y-86106000D02*
X74422000Y-86106000D01*
X80983956Y-81275988D02*
X81490268Y-80769676D01*
D36*
X110617000Y-81153000D02*
X118872000Y-81153000D01*
X118872000Y-81153000D02*
X119507000Y-80518000D01*
X103505000Y-82553000D02*
X101891000Y-82553000D01*
X101891000Y-82553000D02*
X100999000Y-81661000D01*
X103505000Y-82553000D02*
X109217000Y-82553000D01*
X109217000Y-82553000D02*
X110617000Y-81153000D01*
D34*
X90478893Y-74476893D02*
X90478893Y-75175163D01*
X90478893Y-75175163D02*
X89197732Y-76456324D01*
X89317751Y-73315751D02*
X90478893Y-74476893D01*
D36*
X86614000Y-55880000D02*
X88900000Y-58166000D01*
X88900000Y-58166000D02*
X88900000Y-59436000D01*
X85090000Y-55880000D02*
X86614000Y-55880000D01*
X84090000Y-56880000D02*
X85090000Y-55880000D01*
X84090000Y-57404000D02*
X84090000Y-56880000D01*
X83228000Y-60452000D02*
X84074000Y-60452000D01*
X84074000Y-60452000D02*
X84364599Y-60161401D01*
X84364599Y-60161401D02*
X84364599Y-57678599D01*
X84364599Y-57678599D02*
X84090000Y-57404000D01*
X90170000Y-65294000D02*
X93404000Y-65294000D01*
X93404000Y-65294000D02*
X93472000Y-65226000D01*
X88138000Y-65294000D02*
X90170000Y-65294000D01*
X86106000Y-65294000D02*
X88138000Y-65294000D01*
D34*
X86106000Y-65294000D02*
X84278000Y-65294000D01*
X84278000Y-65294000D02*
X84074000Y-65090000D01*
X90238000Y-65226000D02*
X90170000Y-65294000D01*
D36*
X93600000Y-59436000D02*
X93600000Y-65098000D01*
X93600000Y-65098000D02*
X93472000Y-65226000D01*
D34*
X77404000Y-100076000D02*
X77404000Y-98702000D01*
X77404000Y-98702000D02*
X77978000Y-98128000D01*
X86167000Y-100076000D02*
X86167000Y-98702000D01*
X86167000Y-98702000D02*
X86741000Y-98128000D01*
X80772000Y-56200000D02*
X78844000Y-56200000D01*
X78844000Y-56200000D02*
X78740000Y-56304000D01*
X96520000Y-69662000D02*
X96520000Y-67902000D01*
X82397591Y-83256465D02*
X82397591Y-84353400D01*
X81229200Y-89184800D02*
X81229200Y-85526278D01*
X81229200Y-85526278D02*
X82397591Y-84357887D01*
X82397591Y-84357887D02*
X82397591Y-84353400D01*
X82608400Y-89535000D02*
X81579400Y-89535000D01*
X81579400Y-89535000D02*
X81229200Y-89184800D01*
X83187324Y-82466732D02*
X82397591Y-83256465D01*
X83753010Y-83032417D02*
X82804121Y-83981306D01*
X82804121Y-83981306D02*
X82804121Y-84975279D01*
X82804121Y-84975279D02*
X82608400Y-85171000D01*
X82608400Y-85171000D02*
X82608400Y-85725000D01*
X82804000Y-83981427D02*
X83753010Y-83032417D01*
X97282000Y-97028000D02*
X98518000Y-97028000D01*
X98618000Y-100076000D02*
X98618000Y-99634000D01*
X98618000Y-99634000D02*
X97282000Y-98298000D01*
X90329103Y-79638305D02*
X91284049Y-80593251D01*
X98518000Y-86545828D02*
X98518000Y-96374000D01*
X91284049Y-80593251D02*
X92565425Y-80593253D01*
X92565425Y-80593253D02*
X98518000Y-86545828D01*
X98518000Y-96374000D02*
X98518000Y-97028000D01*
X98618000Y-100076000D02*
X98618000Y-100376000D01*
D35*
X94234000Y-72898000D02*
X96590908Y-72898000D01*
X96590908Y-72898000D02*
X99248209Y-70240699D01*
X99248209Y-70240699D02*
X99248209Y-64633309D01*
X99248209Y-64633309D02*
X102042917Y-61838601D01*
X102042917Y-61838601D02*
X114122999Y-61838601D01*
X114122999Y-61838601D02*
X115001600Y-60960000D01*
X115001600Y-60960000D02*
X115504000Y-60960000D01*
X87500676Y-74759268D02*
X88382034Y-73877910D01*
X88382034Y-73877910D02*
X88382034Y-73433188D01*
X88382034Y-73433188D02*
X89435188Y-72380034D01*
X89435188Y-72380034D02*
X92192034Y-72380034D01*
X92192034Y-72380034D02*
X92710000Y-72898000D01*
D34*
X115504000Y-58928000D02*
X115504000Y-60960000D01*
X119761000Y-62230000D02*
X118800901Y-61269901D01*
X118800901Y-61269901D02*
X118800901Y-59364901D01*
X118800901Y-59364901D02*
X118364000Y-58928000D01*
X118364000Y-58928000D02*
X116108000Y-58928000D01*
X116108000Y-58928000D02*
X115504000Y-58928000D01*
X69850000Y-101205172D02*
X70869459Y-102224631D01*
X69850000Y-89819238D02*
X69850000Y-101205172D01*
X67310000Y-87279238D02*
X69850000Y-89819238D01*
X67310000Y-86360000D02*
X67310000Y-87279238D01*
X70869459Y-102224631D02*
X100325369Y-102224631D01*
X100325369Y-102224631D02*
X102174000Y-100376000D01*
X102174000Y-100376000D02*
X102174000Y-100076000D01*
X100618000Y-97978000D02*
X102616000Y-97978000D01*
X102174000Y-100076000D02*
X102174000Y-98420000D01*
X102174000Y-98420000D02*
X102616000Y-97978000D01*
X81026000Y-62164000D02*
X83823922Y-62164000D01*
X84618599Y-60853479D02*
X85020078Y-60452000D01*
X83823922Y-62164000D02*
X84618599Y-61369323D01*
X84618599Y-61369323D02*
X84618599Y-60853479D01*
X85020078Y-60452000D02*
X85428000Y-60452000D01*
X82042000Y-65090000D02*
X82342000Y-65090000D01*
X82342000Y-65090000D02*
X85428000Y-62004000D01*
X85428000Y-62004000D02*
X85428000Y-61981000D01*
X85428000Y-61981000D02*
X85428000Y-61402000D01*
X84074000Y-66990000D02*
X83774000Y-66990000D01*
X83774000Y-66990000D02*
X82042000Y-65258000D01*
X82042000Y-65258000D02*
X82042000Y-65090000D01*
X81534000Y-74168000D02*
X81534000Y-75368686D01*
X81534000Y-75368686D02*
X82055953Y-75890639D01*
X74610000Y-80518000D02*
X75214000Y-80518000D01*
X75214000Y-80518000D02*
X77470000Y-78262000D01*
X78232000Y-77216000D02*
X78232000Y-79532000D01*
X78232000Y-79532000D02*
X75214000Y-82550000D01*
X75214000Y-82550000D02*
X74610000Y-82550000D01*
X81490268Y-76456324D02*
X80725944Y-75692000D01*
X80725944Y-75692000D02*
X80264000Y-75692000D01*
G36*
X78613000Y-69469000D02*
X75784179Y-69469000D01*
X75680919Y-69400004D01*
X75389314Y-69342000D01*
X72197631Y-69342000D01*
X72009000Y-69153369D01*
X72009000Y-67595750D01*
X72199500Y-67595750D01*
X72199500Y-68325309D01*
X72296173Y-68558698D01*
X72474801Y-68737327D01*
X72708190Y-68834000D01*
X73628250Y-68834000D01*
X73787000Y-68675250D01*
X73787000Y-67437000D01*
X74041000Y-67437000D01*
X74041000Y-68675250D01*
X74199750Y-68834000D01*
X75119810Y-68834000D01*
X75353199Y-68737327D01*
X75531827Y-68558698D01*
X75628500Y-68325309D01*
X75628500Y-67595750D01*
X75469750Y-67437000D01*
X74041000Y-67437000D01*
X73787000Y-67437000D01*
X72358250Y-67437000D01*
X72199500Y-67595750D01*
X72009000Y-67595750D01*
X72009000Y-66587840D01*
X72199500Y-66397340D01*
X72199500Y-67024250D01*
X72358250Y-67183000D01*
X73787000Y-67183000D01*
X73787000Y-65944750D01*
X74041000Y-65944750D01*
X74041000Y-67183000D01*
X75469750Y-67183000D01*
X75628500Y-67024250D01*
X75628500Y-66294691D01*
X75531827Y-66061302D01*
X75353199Y-65882673D01*
X75119810Y-65786000D01*
X74199750Y-65786000D01*
X74041000Y-65944750D01*
X73787000Y-65944750D01*
X73628250Y-65786000D01*
X72810841Y-65786000D01*
X73445841Y-65151000D01*
X78613000Y-65151000D01*
X78613000Y-69469000D01*
X78613000Y-69469000D01*
G37*
X78613000Y-69469000D02*
X75784179Y-69469000D01*
X75680919Y-69400004D01*
X75389314Y-69342000D01*
X72197631Y-69342000D01*
X72009000Y-69153369D01*
X72009000Y-67595750D01*
X72199500Y-67595750D01*
X72199500Y-68325309D01*
X72296173Y-68558698D01*
X72474801Y-68737327D01*
X72708190Y-68834000D01*
X73628250Y-68834000D01*
X73787000Y-68675250D01*
X73787000Y-67437000D01*
X74041000Y-67437000D01*
X74041000Y-68675250D01*
X74199750Y-68834000D01*
X75119810Y-68834000D01*
X75353199Y-68737327D01*
X75531827Y-68558698D01*
X75628500Y-68325309D01*
X75628500Y-67595750D01*
X75469750Y-67437000D01*
X74041000Y-67437000D01*
X73787000Y-67437000D01*
X72358250Y-67437000D01*
X72199500Y-67595750D01*
X72009000Y-67595750D01*
X72009000Y-66587840D01*
X72199500Y-66397340D01*
X72199500Y-67024250D01*
X72358250Y-67183000D01*
X73787000Y-67183000D01*
X73787000Y-65944750D01*
X74041000Y-65944750D01*
X74041000Y-67183000D01*
X75469750Y-67183000D01*
X75628500Y-67024250D01*
X75628500Y-66294691D01*
X75531827Y-66061302D01*
X75353199Y-65882673D01*
X75119810Y-65786000D01*
X74199750Y-65786000D01*
X74041000Y-65944750D01*
X73787000Y-65944750D01*
X73628250Y-65786000D01*
X72810841Y-65786000D01*
X73445841Y-65151000D01*
X78613000Y-65151000D01*
X78613000Y-69469000D01*
M02*
