M48
;DRILL file {KiCad 4.0.7} date 02/19/18 12:51:38
;FORMAT={-:-/ absolute / inch / decimal}
FMAT,2
INCH,TZ
T1C0.012
T2C0.031
T3C0.034
T4C0.040
T5C0.040
T6C0.059
T7C0.063
%
G90
G05
M72
T1
X2.89Y-3.35
X2.93Y-3.39
X2.97Y-2.29
X2.98Y-3.29
X3.02Y-3.31
X3.03Y-2.61
X3.05Y-3.0812
X3.07Y-2.94
X3.08Y-3.01
X3.08Y-3.04
X3.11Y-3.12
X3.13Y-3.81
X3.13Y-3.87
X3.14Y-3.53
X3.15Y-2.33
X3.16Y-2.98
X3.21Y-2.92
X3.21Y-3.78
X3.22Y-2.6
X3.23Y-2.33
X3.23Y-3.08
X3.28Y-3.06
X3.29Y-2.83
X3.3196Y-3.35
X3.35Y-3.405
X3.44Y-3.03
X3.48Y-3.82
X3.48Y-3.87
X3.56Y-3.78
X3.59Y-2.96
X3.64Y-2.65
X3.65Y-2.87
X3.65Y-3.08
X3.71Y-2.63
X3.71Y-2.87
X3.71Y-3.08
X3.72Y-3.2
X3.81Y-3.21
X3.83Y-3.82
X3.83Y-3.87
X3.91Y-3.78
X3.94Y-3.3
X4.26Y-2.32
X4.37Y-3.61
X4.43Y-3.44
T2
X2.65Y-2.6
X2.65Y-2.7
X2.65Y-2.8
X2.65Y-2.9
X2.65Y-3.
X2.65Y-3.1
X2.65Y-3.2
X2.65Y-3.3
X2.65Y-3.4
X2.75Y-2.65
X2.75Y-2.75
X2.75Y-2.85
X2.75Y-2.95
X2.75Y-3.05
X2.75Y-3.15
X2.75Y-3.25
X2.75Y-3.35
X2.75Y-3.45
T3
X4.22Y-2.563
X4.22Y-2.563
X4.22Y-2.563
X4.22Y-2.563
X4.22Y-2.76
X4.22Y-2.76
X4.22Y-2.76
X4.22Y-2.76
X4.355Y-2.998
X4.355Y-2.998
X4.355Y-2.998
X4.355Y-2.998
X4.355Y-3.195
X4.355Y-3.195
X4.355Y-3.195
X4.355Y-3.195
T4
X2.9Y-2.84
X2.9Y-2.94
X2.9Y-3.04
X3.Y-2.84
X3.Y-2.94
X3.Y-3.04
T5
X4.46Y-3.76
X4.46Y-3.8978
X4.705Y-3.0322
X4.705Y-3.17
X4.705Y-3.4122
X4.705Y-3.55
X4.715Y-2.3122
X4.715Y-2.45
X4.715Y-2.5878
X4.715Y-2.7256
T6
X2.7209Y-2.5449
T7
X4.3722Y-3.8289
X4.6172Y-3.1011
X4.6172Y-3.4811
X4.6272Y-2.3811
T0
M30
