G04 #@! TF.FileFunction,Copper,L2,Bot,Signal*
%FSLAX46Y46*%
G04 Gerber Fmt 4.6, Leading zero omitted, Abs format (unit mm)*
G04 Created by KiCad (PCBNEW 4.0.7-e2-6376~58~ubuntu14.04.1) date Thu Nov 16 20:49:54 2017*
%MOMM*%
%LPD*%
G01*
G04 APERTURE LIST*
%ADD10C,0.100000*%
%ADD11R,1.727200X1.727200*%
%ADD12O,1.727200X1.727200*%
%ADD13C,0.600000*%
%ADD14C,0.254000*%
G04 APERTURE END LIST*
D10*
D11*
X154305000Y-108585000D03*
D12*
X154305000Y-106045000D03*
X156845000Y-108585000D03*
X156845000Y-106045000D03*
X159385000Y-108585000D03*
X159385000Y-106045000D03*
D11*
X187960000Y-109855000D03*
D12*
X187960000Y-107315000D03*
X190500000Y-109855000D03*
X190500000Y-107315000D03*
X193040000Y-109855000D03*
X193040000Y-107315000D03*
D13*
X165735000Y-89535000D03*
X168275000Y-89535000D03*
X165735000Y-92075000D03*
X165735000Y-94615000D03*
X168275000Y-94615000D03*
X170815000Y-94615000D03*
X170815000Y-92075000D03*
X170815000Y-89535000D03*
X168275000Y-92075000D03*
X154305000Y-89535000D03*
X154305000Y-94615000D03*
X159385000Y-94615000D03*
X159385000Y-89535000D03*
X156845000Y-94615000D03*
X154305000Y-92075000D03*
X156845000Y-89535000D03*
X159385000Y-92075000D03*
X156845000Y-92075000D03*
X141605000Y-95885000D03*
X141605000Y-88265000D03*
X149225000Y-95885000D03*
X149225000Y-88265000D03*
X149225000Y-90805000D03*
X144145000Y-88265000D03*
X146685000Y-88265000D03*
X141605000Y-90805000D03*
X141605000Y-93345000D03*
X149225000Y-93345000D03*
X144145000Y-95885000D03*
X146685000Y-95885000D03*
X144145000Y-90805000D03*
X146685000Y-90805000D03*
X144145000Y-93345000D03*
X146685000Y-93345000D03*
X142875000Y-92075000D03*
X142875000Y-94615000D03*
X145415000Y-94615000D03*
X147955000Y-94615000D03*
X147955000Y-92075000D03*
X142875000Y-89535000D03*
X145415000Y-89535000D03*
X147955000Y-89535000D03*
X145415000Y-92075000D03*
X177165000Y-89535000D03*
X177165000Y-92075000D03*
X177165000Y-94615000D03*
X179705000Y-94615000D03*
X182245000Y-94615000D03*
X182245000Y-92075000D03*
X182245000Y-89535000D03*
X179705000Y-89535000D03*
X179705000Y-92075000D03*
X188595000Y-130175000D03*
X188595000Y-132715000D03*
X188595000Y-135255000D03*
X191135000Y-135255000D03*
X193675000Y-135255000D03*
X193675000Y-130175000D03*
X191135000Y-130175000D03*
X193675000Y-132715000D03*
X191135000Y-132715000D03*
D14*
G36*
X150368000Y-137668000D02*
X140462000Y-137668000D01*
X140462000Y-87122000D01*
X150368000Y-87122000D01*
X150368000Y-137668000D01*
X150368000Y-137668000D01*
G37*
X150368000Y-137668000D02*
X140462000Y-137668000D01*
X140462000Y-87122000D01*
X150368000Y-87122000D01*
X150368000Y-137668000D01*
G36*
X161798000Y-137668000D02*
X151892000Y-137668000D01*
X151892000Y-107721400D01*
X152793960Y-107721400D01*
X152793960Y-109448600D01*
X152838238Y-109683917D01*
X152977310Y-109900041D01*
X153189510Y-110045031D01*
X153441400Y-110096040D01*
X155168600Y-110096040D01*
X155403917Y-110051762D01*
X155620041Y-109912690D01*
X155765031Y-109700490D01*
X155773864Y-109656869D01*
X155785330Y-109674029D01*
X156271511Y-109998885D01*
X156845000Y-110112959D01*
X157418489Y-109998885D01*
X157904670Y-109674029D01*
X158115000Y-109359248D01*
X158325330Y-109674029D01*
X158811511Y-109998885D01*
X159385000Y-110112959D01*
X159958489Y-109998885D01*
X160444670Y-109674029D01*
X160769526Y-109187848D01*
X160883600Y-108614359D01*
X160883600Y-108555641D01*
X160769526Y-107982152D01*
X160444670Y-107495971D01*
X160173828Y-107315000D01*
X160444670Y-107134029D01*
X160769526Y-106647848D01*
X160883600Y-106074359D01*
X160883600Y-106015641D01*
X160769526Y-105442152D01*
X160444670Y-104955971D01*
X159958489Y-104631115D01*
X159385000Y-104517041D01*
X158811511Y-104631115D01*
X158325330Y-104955971D01*
X158115000Y-105270752D01*
X157904670Y-104955971D01*
X157418489Y-104631115D01*
X156845000Y-104517041D01*
X156271511Y-104631115D01*
X155785330Y-104955971D01*
X155575000Y-105270752D01*
X155364670Y-104955971D01*
X154878489Y-104631115D01*
X154305000Y-104517041D01*
X153731511Y-104631115D01*
X153245330Y-104955971D01*
X152920474Y-105442152D01*
X152806400Y-106015641D01*
X152806400Y-106074359D01*
X152920474Y-106647848D01*
X153231574Y-107113442D01*
X153206083Y-107118238D01*
X152989959Y-107257310D01*
X152844969Y-107469510D01*
X152793960Y-107721400D01*
X151892000Y-107721400D01*
X151892000Y-87122000D01*
X161798000Y-87122000D01*
X161798000Y-137668000D01*
X161798000Y-137668000D01*
G37*
X161798000Y-137668000D02*
X151892000Y-137668000D01*
X151892000Y-107721400D01*
X152793960Y-107721400D01*
X152793960Y-109448600D01*
X152838238Y-109683917D01*
X152977310Y-109900041D01*
X153189510Y-110045031D01*
X153441400Y-110096040D01*
X155168600Y-110096040D01*
X155403917Y-110051762D01*
X155620041Y-109912690D01*
X155765031Y-109700490D01*
X155773864Y-109656869D01*
X155785330Y-109674029D01*
X156271511Y-109998885D01*
X156845000Y-110112959D01*
X157418489Y-109998885D01*
X157904670Y-109674029D01*
X158115000Y-109359248D01*
X158325330Y-109674029D01*
X158811511Y-109998885D01*
X159385000Y-110112959D01*
X159958489Y-109998885D01*
X160444670Y-109674029D01*
X160769526Y-109187848D01*
X160883600Y-108614359D01*
X160883600Y-108555641D01*
X160769526Y-107982152D01*
X160444670Y-107495971D01*
X160173828Y-107315000D01*
X160444670Y-107134029D01*
X160769526Y-106647848D01*
X160883600Y-106074359D01*
X160883600Y-106015641D01*
X160769526Y-105442152D01*
X160444670Y-104955971D01*
X159958489Y-104631115D01*
X159385000Y-104517041D01*
X158811511Y-104631115D01*
X158325330Y-104955971D01*
X158115000Y-105270752D01*
X157904670Y-104955971D01*
X157418489Y-104631115D01*
X156845000Y-104517041D01*
X156271511Y-104631115D01*
X155785330Y-104955971D01*
X155575000Y-105270752D01*
X155364670Y-104955971D01*
X154878489Y-104631115D01*
X154305000Y-104517041D01*
X153731511Y-104631115D01*
X153245330Y-104955971D01*
X152920474Y-105442152D01*
X152806400Y-106015641D01*
X152806400Y-106074359D01*
X152920474Y-106647848D01*
X153231574Y-107113442D01*
X153206083Y-107118238D01*
X152989959Y-107257310D01*
X152844969Y-107469510D01*
X152793960Y-107721400D01*
X151892000Y-107721400D01*
X151892000Y-87122000D01*
X161798000Y-87122000D01*
X161798000Y-137668000D01*
G36*
X173228000Y-137668000D02*
X163322000Y-137668000D01*
X163322000Y-87122000D01*
X173228000Y-87122000D01*
X173228000Y-137668000D01*
X173228000Y-137668000D01*
G37*
X173228000Y-137668000D02*
X163322000Y-137668000D01*
X163322000Y-87122000D01*
X173228000Y-87122000D01*
X173228000Y-137668000D01*
G36*
X184658000Y-137668000D02*
X174752000Y-137668000D01*
X174752000Y-87122000D01*
X184658000Y-87122000D01*
X184658000Y-137668000D01*
X184658000Y-137668000D01*
G37*
X184658000Y-137668000D02*
X174752000Y-137668000D01*
X174752000Y-87122000D01*
X184658000Y-87122000D01*
X184658000Y-137668000D01*
G36*
X196088000Y-137668000D02*
X186182000Y-137668000D01*
X186182000Y-108991400D01*
X186448960Y-108991400D01*
X186448960Y-110718600D01*
X186493238Y-110953917D01*
X186632310Y-111170041D01*
X186844510Y-111315031D01*
X187096400Y-111366040D01*
X188823600Y-111366040D01*
X189058917Y-111321762D01*
X189275041Y-111182690D01*
X189420031Y-110970490D01*
X189428864Y-110926869D01*
X189440330Y-110944029D01*
X189926511Y-111268885D01*
X190500000Y-111382959D01*
X191073489Y-111268885D01*
X191559670Y-110944029D01*
X191770000Y-110629248D01*
X191980330Y-110944029D01*
X192466511Y-111268885D01*
X193040000Y-111382959D01*
X193613489Y-111268885D01*
X194099670Y-110944029D01*
X194424526Y-110457848D01*
X194538600Y-109884359D01*
X194538600Y-109825641D01*
X194424526Y-109252152D01*
X194099670Y-108765971D01*
X193828828Y-108585000D01*
X194099670Y-108404029D01*
X194424526Y-107917848D01*
X194538600Y-107344359D01*
X194538600Y-107285641D01*
X194424526Y-106712152D01*
X194099670Y-106225971D01*
X193613489Y-105901115D01*
X193040000Y-105787041D01*
X192466511Y-105901115D01*
X191980330Y-106225971D01*
X191770000Y-106540752D01*
X191559670Y-106225971D01*
X191073489Y-105901115D01*
X190500000Y-105787041D01*
X189926511Y-105901115D01*
X189440330Y-106225971D01*
X189230000Y-106540752D01*
X189019670Y-106225971D01*
X188533489Y-105901115D01*
X187960000Y-105787041D01*
X187386511Y-105901115D01*
X186900330Y-106225971D01*
X186575474Y-106712152D01*
X186461400Y-107285641D01*
X186461400Y-107344359D01*
X186575474Y-107917848D01*
X186886574Y-108383442D01*
X186861083Y-108388238D01*
X186644959Y-108527310D01*
X186499969Y-108739510D01*
X186448960Y-108991400D01*
X186182000Y-108991400D01*
X186182000Y-87122000D01*
X196088000Y-87122000D01*
X196088000Y-137668000D01*
X196088000Y-137668000D01*
G37*
X196088000Y-137668000D02*
X186182000Y-137668000D01*
X186182000Y-108991400D01*
X186448960Y-108991400D01*
X186448960Y-110718600D01*
X186493238Y-110953917D01*
X186632310Y-111170041D01*
X186844510Y-111315031D01*
X187096400Y-111366040D01*
X188823600Y-111366040D01*
X189058917Y-111321762D01*
X189275041Y-111182690D01*
X189420031Y-110970490D01*
X189428864Y-110926869D01*
X189440330Y-110944029D01*
X189926511Y-111268885D01*
X190500000Y-111382959D01*
X191073489Y-111268885D01*
X191559670Y-110944029D01*
X191770000Y-110629248D01*
X191980330Y-110944029D01*
X192466511Y-111268885D01*
X193040000Y-111382959D01*
X193613489Y-111268885D01*
X194099670Y-110944029D01*
X194424526Y-110457848D01*
X194538600Y-109884359D01*
X194538600Y-109825641D01*
X194424526Y-109252152D01*
X194099670Y-108765971D01*
X193828828Y-108585000D01*
X194099670Y-108404029D01*
X194424526Y-107917848D01*
X194538600Y-107344359D01*
X194538600Y-107285641D01*
X194424526Y-106712152D01*
X194099670Y-106225971D01*
X193613489Y-105901115D01*
X193040000Y-105787041D01*
X192466511Y-105901115D01*
X191980330Y-106225971D01*
X191770000Y-106540752D01*
X191559670Y-106225971D01*
X191073489Y-105901115D01*
X190500000Y-105787041D01*
X189926511Y-105901115D01*
X189440330Y-106225971D01*
X189230000Y-106540752D01*
X189019670Y-106225971D01*
X188533489Y-105901115D01*
X187960000Y-105787041D01*
X187386511Y-105901115D01*
X186900330Y-106225971D01*
X186575474Y-106712152D01*
X186461400Y-107285641D01*
X186461400Y-107344359D01*
X186575474Y-107917848D01*
X186886574Y-108383442D01*
X186861083Y-108388238D01*
X186644959Y-108527310D01*
X186499969Y-108739510D01*
X186448960Y-108991400D01*
X186182000Y-108991400D01*
X186182000Y-87122000D01*
X196088000Y-87122000D01*
X196088000Y-137668000D01*
M02*
