M48
;DRILL file {KiCad 4.0.7-e2-6376~58~ubuntu14.04.1} date Thu Nov 16 20:49:45 2017
;FORMAT={-:-/ absolute / inch / decimal}
FMAT,2
INCH,TZ
T1C0.008
T2C0.016
T3C0.040
%
G90
G05
M72
T1
X7.175Y-3.725
T2
X5.575Y-3.475
X5.575Y-3.575
X5.575Y-3.675
X5.575Y-3.775
X5.625Y-3.525
X5.625Y-3.625
X5.625Y-3.725
X5.675Y-3.475
X5.675Y-3.575
X5.675Y-3.675
X5.675Y-3.775
X5.725Y-3.525
X5.725Y-3.625
X5.725Y-3.725
X5.775Y-3.475
X5.775Y-3.575
X5.775Y-3.675
X5.775Y-3.775
X5.825Y-3.525
X5.825Y-3.625
X5.825Y-3.725
X5.875Y-3.475
X5.875Y-3.575
X5.875Y-3.675
X5.875Y-3.775
X6.075Y-3.525
X6.075Y-3.625
X6.075Y-3.725
X6.175Y-3.525
X6.175Y-3.625
X6.175Y-3.725
X6.275Y-3.525
X6.275Y-3.625
X6.275Y-3.725
X6.525Y-3.525
X6.525Y-3.625
X6.525Y-3.725
X6.625Y-3.525
X6.625Y-3.625
X6.625Y-3.725
X6.725Y-3.525
X6.725Y-3.625
X6.725Y-3.725
X6.975Y-3.525
X6.975Y-3.625
X6.975Y-3.725
X7.075Y-3.525
X7.075Y-3.625
X7.075Y-3.725
X7.175Y-3.525
X7.175Y-3.625
X7.425Y-5.125
X7.425Y-5.225
X7.425Y-5.325
X7.525Y-5.125
X7.525Y-5.225
X7.525Y-5.325
X7.625Y-5.125
X7.625Y-5.225
X7.625Y-5.325
T3
X6.075Y-4.175
X6.075Y-4.275
X6.175Y-4.175
X6.175Y-4.275
X6.275Y-4.175
X6.275Y-4.275
X7.4Y-4.225
X7.4Y-4.325
X7.5Y-4.225
X7.5Y-4.325
X7.6Y-4.225
X7.6Y-4.325
T0
M30
