G04 #@! TF.FileFunction,Legend,Top*
%FSLAX46Y46*%
G04 Gerber Fmt 4.6, Leading zero omitted, Abs format (unit mm)*
G04 Created by KiCad (PCBNEW 4.0.7-e2-6376~58~ubuntu14.04.1) date Fri Nov 10 06:08:14 2017*
%MOMM*%
%LPD*%
G01*
G04 APERTURE LIST*
%ADD10C,0.100000*%
%ADD11C,0.150000*%
G04 APERTURE END LIST*
D10*
D11*
X155575000Y-109855000D02*
X160655000Y-109855000D01*
X152755000Y-110135000D02*
X152755000Y-108585000D01*
X153035000Y-107315000D02*
X155575000Y-107315000D01*
X155575000Y-107315000D02*
X155575000Y-109855000D01*
X160655000Y-109855000D02*
X160655000Y-104775000D01*
X160655000Y-104775000D02*
X155575000Y-104775000D01*
X152755000Y-110135000D02*
X154305000Y-110135000D01*
X153035000Y-104775000D02*
X153035000Y-107315000D01*
X155575000Y-104775000D02*
X153035000Y-104775000D01*
X189230000Y-111125000D02*
X194310000Y-111125000D01*
X186410000Y-111405000D02*
X186410000Y-109855000D01*
X186690000Y-108585000D02*
X189230000Y-108585000D01*
X189230000Y-108585000D02*
X189230000Y-111125000D01*
X194310000Y-111125000D02*
X194310000Y-106045000D01*
X194310000Y-106045000D02*
X189230000Y-106045000D01*
X186410000Y-111405000D02*
X187960000Y-111405000D01*
X186690000Y-106045000D02*
X186690000Y-108585000D01*
X189230000Y-106045000D02*
X186690000Y-106045000D01*
X167005000Y-102235000D02*
X164465000Y-102235000D01*
X164465000Y-102235000D02*
X164465000Y-97155000D01*
X164465000Y-97155000D02*
X163195000Y-97155000D01*
X163195000Y-97155000D02*
X163195000Y-86995000D01*
X163195000Y-86995000D02*
X173355000Y-86995000D01*
X173355000Y-86995000D02*
X173355000Y-97155000D01*
X173355000Y-97155000D02*
X172085000Y-97155000D01*
X172085000Y-97155000D02*
X172085000Y-102235000D01*
X172085000Y-102235000D02*
X169545000Y-102235000D01*
X169545000Y-102235000D02*
X169545000Y-97155000D01*
X169545000Y-97155000D02*
X167005000Y-97155000D01*
X167005000Y-97155000D02*
X167005000Y-102235000D01*
X155575000Y-102235000D02*
X153035000Y-102235000D01*
X153035000Y-102235000D02*
X153035000Y-97155000D01*
X153035000Y-97155000D02*
X151765000Y-97155000D01*
X151765000Y-97155000D02*
X151765000Y-86995000D01*
X151765000Y-86995000D02*
X161925000Y-86995000D01*
X161925000Y-86995000D02*
X161925000Y-97155000D01*
X161925000Y-97155000D02*
X160655000Y-97155000D01*
X160655000Y-97155000D02*
X160655000Y-102235000D01*
X160655000Y-102235000D02*
X158115000Y-102235000D01*
X158115000Y-102235000D02*
X158115000Y-97155000D01*
X158115000Y-97155000D02*
X155575000Y-97155000D01*
X155575000Y-97155000D02*
X155575000Y-102235000D01*
X144145000Y-102235000D02*
X141605000Y-102235000D01*
X141605000Y-102235000D02*
X141605000Y-97155000D01*
X141605000Y-97155000D02*
X140335000Y-97155000D01*
X140335000Y-97155000D02*
X140335000Y-86995000D01*
X140335000Y-86995000D02*
X150495000Y-86995000D01*
X150495000Y-86995000D02*
X150495000Y-97155000D01*
X150495000Y-97155000D02*
X149225000Y-97155000D01*
X149225000Y-97155000D02*
X149225000Y-102235000D01*
X149225000Y-102235000D02*
X146685000Y-102235000D01*
X146685000Y-102235000D02*
X146685000Y-97155000D01*
X146685000Y-97155000D02*
X144145000Y-97155000D01*
X144145000Y-97155000D02*
X144145000Y-102235000D01*
X178435000Y-102235000D02*
X175895000Y-102235000D01*
X175895000Y-102235000D02*
X175895000Y-97155000D01*
X175895000Y-97155000D02*
X174625000Y-97155000D01*
X174625000Y-97155000D02*
X174625000Y-86995000D01*
X174625000Y-86995000D02*
X184785000Y-86995000D01*
X184785000Y-86995000D02*
X184785000Y-97155000D01*
X184785000Y-97155000D02*
X183515000Y-97155000D01*
X183515000Y-97155000D02*
X183515000Y-102235000D01*
X183515000Y-102235000D02*
X180975000Y-102235000D01*
X180975000Y-102235000D02*
X180975000Y-97155000D01*
X180975000Y-97155000D02*
X178435000Y-97155000D01*
X178435000Y-97155000D02*
X178435000Y-102235000D01*
X192405000Y-122555000D02*
X194945000Y-122555000D01*
X194945000Y-122555000D02*
X194945000Y-127635000D01*
X194945000Y-127635000D02*
X196215000Y-127635000D01*
X196215000Y-127635000D02*
X196215000Y-137795000D01*
X196215000Y-137795000D02*
X186055000Y-137795000D01*
X186055000Y-137795000D02*
X186055000Y-127635000D01*
X186055000Y-127635000D02*
X187325000Y-127635000D01*
X187325000Y-127635000D02*
X187325000Y-122555000D01*
X187325000Y-122555000D02*
X189865000Y-122555000D01*
X189865000Y-122555000D02*
X189865000Y-127635000D01*
X189865000Y-127635000D02*
X192405000Y-127635000D01*
X192405000Y-127635000D02*
X192405000Y-122555000D01*
X201295000Y-102235000D02*
X198755000Y-102235000D01*
X198755000Y-102235000D02*
X198755000Y-97155000D01*
X198755000Y-97155000D02*
X197485000Y-97155000D01*
X197485000Y-97155000D02*
X197485000Y-86995000D01*
X197485000Y-86995000D02*
X207645000Y-86995000D01*
X207645000Y-86995000D02*
X207645000Y-97155000D01*
X207645000Y-97155000D02*
X206375000Y-97155000D01*
X206375000Y-97155000D02*
X206375000Y-102235000D01*
X206375000Y-102235000D02*
X203835000Y-102235000D01*
X203835000Y-102235000D02*
X203835000Y-97155000D01*
X203835000Y-97155000D02*
X201295000Y-97155000D01*
X201295000Y-97155000D02*
X201295000Y-102235000D01*
X152217381Y-107545095D02*
X151217381Y-107545095D01*
X151217381Y-107164142D01*
X151265000Y-107068904D01*
X151312619Y-107021285D01*
X151407857Y-106973666D01*
X151550714Y-106973666D01*
X151645952Y-107021285D01*
X151693571Y-107068904D01*
X151741190Y-107164142D01*
X151741190Y-107545095D01*
X152217381Y-106021285D02*
X152217381Y-106592714D01*
X152217381Y-106307000D02*
X151217381Y-106307000D01*
X151360238Y-106402238D01*
X151455476Y-106497476D01*
X151503095Y-106592714D01*
X185872381Y-108815095D02*
X184872381Y-108815095D01*
X184872381Y-108434142D01*
X184920000Y-108338904D01*
X184967619Y-108291285D01*
X185062857Y-108243666D01*
X185205714Y-108243666D01*
X185300952Y-108291285D01*
X185348571Y-108338904D01*
X185396190Y-108434142D01*
X185396190Y-108815095D01*
X184967619Y-107862714D02*
X184920000Y-107815095D01*
X184872381Y-107719857D01*
X184872381Y-107481761D01*
X184920000Y-107386523D01*
X184967619Y-107338904D01*
X185062857Y-107291285D01*
X185158095Y-107291285D01*
X185300952Y-107338904D01*
X185872381Y-107910333D01*
X185872381Y-107291285D01*
X166838334Y-103957381D02*
X166505000Y-103481190D01*
X166266905Y-103957381D02*
X166266905Y-102957381D01*
X166647858Y-102957381D01*
X166743096Y-103005000D01*
X166790715Y-103052619D01*
X166838334Y-103147857D01*
X166838334Y-103290714D01*
X166790715Y-103385952D01*
X166743096Y-103433571D01*
X166647858Y-103481190D01*
X166266905Y-103481190D01*
X167790715Y-103957381D02*
X167219286Y-103957381D01*
X167505000Y-103957381D02*
X167505000Y-102957381D01*
X167409762Y-103100238D01*
X167314524Y-103195476D01*
X167219286Y-103243095D01*
X155408334Y-103957381D02*
X155075000Y-103481190D01*
X154836905Y-103957381D02*
X154836905Y-102957381D01*
X155217858Y-102957381D01*
X155313096Y-103005000D01*
X155360715Y-103052619D01*
X155408334Y-103147857D01*
X155408334Y-103290714D01*
X155360715Y-103385952D01*
X155313096Y-103433571D01*
X155217858Y-103481190D01*
X154836905Y-103481190D01*
X155789286Y-103052619D02*
X155836905Y-103005000D01*
X155932143Y-102957381D01*
X156170239Y-102957381D01*
X156265477Y-103005000D01*
X156313096Y-103052619D01*
X156360715Y-103147857D01*
X156360715Y-103243095D01*
X156313096Y-103385952D01*
X155741667Y-103957381D01*
X156360715Y-103957381D01*
X143978334Y-103957381D02*
X143645000Y-103481190D01*
X143406905Y-103957381D02*
X143406905Y-102957381D01*
X143787858Y-102957381D01*
X143883096Y-103005000D01*
X143930715Y-103052619D01*
X143978334Y-103147857D01*
X143978334Y-103290714D01*
X143930715Y-103385952D01*
X143883096Y-103433571D01*
X143787858Y-103481190D01*
X143406905Y-103481190D01*
X144311667Y-102957381D02*
X144930715Y-102957381D01*
X144597381Y-103338333D01*
X144740239Y-103338333D01*
X144835477Y-103385952D01*
X144883096Y-103433571D01*
X144930715Y-103528810D01*
X144930715Y-103766905D01*
X144883096Y-103862143D01*
X144835477Y-103909762D01*
X144740239Y-103957381D01*
X144454524Y-103957381D01*
X144359286Y-103909762D01*
X144311667Y-103862143D01*
X178268334Y-103957381D02*
X177935000Y-103481190D01*
X177696905Y-103957381D02*
X177696905Y-102957381D01*
X178077858Y-102957381D01*
X178173096Y-103005000D01*
X178220715Y-103052619D01*
X178268334Y-103147857D01*
X178268334Y-103290714D01*
X178220715Y-103385952D01*
X178173096Y-103433571D01*
X178077858Y-103481190D01*
X177696905Y-103481190D01*
X179125477Y-103290714D02*
X179125477Y-103957381D01*
X178887381Y-102909762D02*
X178649286Y-103624048D01*
X179268334Y-103624048D01*
X192238334Y-121737381D02*
X191905000Y-121261190D01*
X191666905Y-121737381D02*
X191666905Y-120737381D01*
X192047858Y-120737381D01*
X192143096Y-120785000D01*
X192190715Y-120832619D01*
X192238334Y-120927857D01*
X192238334Y-121070714D01*
X192190715Y-121165952D01*
X192143096Y-121213571D01*
X192047858Y-121261190D01*
X191666905Y-121261190D01*
X193143096Y-120737381D02*
X192666905Y-120737381D01*
X192619286Y-121213571D01*
X192666905Y-121165952D01*
X192762143Y-121118333D01*
X193000239Y-121118333D01*
X193095477Y-121165952D01*
X193143096Y-121213571D01*
X193190715Y-121308810D01*
X193190715Y-121546905D01*
X193143096Y-121642143D01*
X193095477Y-121689762D01*
X193000239Y-121737381D01*
X192762143Y-121737381D01*
X192666905Y-121689762D01*
X192619286Y-121642143D01*
X201128334Y-103957381D02*
X200795000Y-103481190D01*
X200556905Y-103957381D02*
X200556905Y-102957381D01*
X200937858Y-102957381D01*
X201033096Y-103005000D01*
X201080715Y-103052619D01*
X201128334Y-103147857D01*
X201128334Y-103290714D01*
X201080715Y-103385952D01*
X201033096Y-103433571D01*
X200937858Y-103481190D01*
X200556905Y-103481190D01*
X201985477Y-102957381D02*
X201795000Y-102957381D01*
X201699762Y-103005000D01*
X201652143Y-103052619D01*
X201556905Y-103195476D01*
X201509286Y-103385952D01*
X201509286Y-103766905D01*
X201556905Y-103862143D01*
X201604524Y-103909762D01*
X201699762Y-103957381D01*
X201890239Y-103957381D01*
X201985477Y-103909762D01*
X202033096Y-103862143D01*
X202080715Y-103766905D01*
X202080715Y-103528810D01*
X202033096Y-103433571D01*
X201985477Y-103385952D01*
X201890239Y-103338333D01*
X201699762Y-103338333D01*
X201604524Y-103385952D01*
X201556905Y-103433571D01*
X201509286Y-103528810D01*
M02*
