G04 #@! TF.FileFunction,Copper,L1,Top,Signal*
%FSLAX46Y46*%
G04 Gerber Fmt 4.6, Leading zero omitted, Abs format (unit mm)*
G04 Created by KiCad (PCBNEW 4.0.7-e2-6376~58~ubuntu14.04.1) date Fri Nov 10 06:08:14 2017*
%MOMM*%
%LPD*%
G01*
G04 APERTURE LIST*
%ADD10C,0.100000*%
%ADD11R,1.727200X1.727200*%
%ADD12O,1.727200X1.727200*%
%ADD13R,7.870000X8.510000*%
%ADD14R,1.650000X3.810000*%
%ADD15C,0.600000*%
%ADD16C,0.250000*%
G04 APERTURE END LIST*
D10*
D11*
X154305000Y-108585000D03*
D12*
X154305000Y-106045000D03*
X156845000Y-108585000D03*
X156845000Y-106045000D03*
X159385000Y-108585000D03*
X159385000Y-106045000D03*
D11*
X187960000Y-109855000D03*
D12*
X187960000Y-107315000D03*
X190500000Y-109855000D03*
X190500000Y-107315000D03*
X193040000Y-109855000D03*
X193040000Y-107315000D03*
D13*
X168275000Y-92075000D03*
D14*
X170815000Y-99700000D03*
X165735000Y-99700000D03*
D13*
X156845000Y-92075000D03*
D14*
X159385000Y-99700000D03*
X154305000Y-99700000D03*
D13*
X145415000Y-92075000D03*
D14*
X147955000Y-99700000D03*
X142875000Y-99700000D03*
D13*
X179705000Y-92075000D03*
D14*
X182245000Y-99700000D03*
X177165000Y-99700000D03*
D13*
X191135000Y-132715000D03*
D14*
X188595000Y-125090000D03*
X193675000Y-125090000D03*
D13*
X202565000Y-92075000D03*
D14*
X205105000Y-99700000D03*
X200025000Y-99700000D03*
D15*
X165735000Y-89535000D03*
X168275000Y-89535000D03*
X165735000Y-92075000D03*
X165735000Y-94615000D03*
X168275000Y-94615000D03*
X170815000Y-94615000D03*
X170815000Y-92075000D03*
X170815000Y-89535000D03*
X168275000Y-92075000D03*
X154305000Y-89535000D03*
X154305000Y-94615000D03*
X159385000Y-94615000D03*
X159385000Y-89535000D03*
X156845000Y-94615000D03*
X154305000Y-92075000D03*
X156845000Y-89535000D03*
X159385000Y-92075000D03*
X156845000Y-92075000D03*
X141605000Y-95885000D03*
X141605000Y-88265000D03*
X149225000Y-95885000D03*
X149225000Y-88265000D03*
X149225000Y-90805000D03*
X144145000Y-88265000D03*
X146685000Y-88265000D03*
X141605000Y-90805000D03*
X141605000Y-93345000D03*
X149225000Y-93345000D03*
X144145000Y-95885000D03*
X146685000Y-95885000D03*
X144145000Y-90805000D03*
X146685000Y-90805000D03*
X144145000Y-93345000D03*
X146685000Y-93345000D03*
X142875000Y-92075000D03*
X142875000Y-94615000D03*
X145415000Y-94615000D03*
X147955000Y-94615000D03*
X147955000Y-92075000D03*
X142875000Y-89535000D03*
X145415000Y-89535000D03*
X147955000Y-89535000D03*
X145415000Y-92075000D03*
X177165000Y-89535000D03*
X177165000Y-92075000D03*
X177165000Y-94615000D03*
X179705000Y-94615000D03*
X182245000Y-94615000D03*
X182245000Y-92075000D03*
X182245000Y-89535000D03*
X179705000Y-89535000D03*
X179705000Y-92075000D03*
X188595000Y-130175000D03*
X188595000Y-132715000D03*
X188595000Y-135255000D03*
X191135000Y-135255000D03*
X193675000Y-135255000D03*
X193675000Y-130175000D03*
X191135000Y-130175000D03*
X193675000Y-132715000D03*
X191135000Y-132715000D03*
D16*
X142875000Y-99700000D02*
X142875000Y-102235000D01*
X149225000Y-108585000D02*
X154305000Y-108585000D01*
X142875000Y-102235000D02*
X149225000Y-108585000D01*
X154305000Y-106045000D02*
X154300000Y-106045000D01*
X154300000Y-106045000D02*
X147955000Y-99700000D01*
X156845000Y-108585000D02*
X156845000Y-111125000D01*
X151130000Y-96525000D02*
X154305000Y-99700000D01*
X151130000Y-86995000D02*
X151130000Y-96525000D01*
X150495000Y-86360000D02*
X151130000Y-86995000D01*
X140335000Y-86360000D02*
X150495000Y-86360000D01*
X139700000Y-86995000D02*
X140335000Y-86360000D01*
X139700000Y-104140000D02*
X139700000Y-86995000D01*
X147320000Y-111760000D02*
X139700000Y-104140000D01*
X156210000Y-111760000D02*
X147320000Y-111760000D01*
X156845000Y-111125000D02*
X156210000Y-111760000D01*
X156845000Y-106045000D02*
X156845000Y-102240000D01*
X156845000Y-102240000D02*
X159385000Y-99700000D01*
X159385000Y-108585000D02*
X161930000Y-108585000D01*
X161930000Y-108585000D02*
X170815000Y-99700000D01*
X159385000Y-106045000D02*
X159390000Y-106045000D01*
X159390000Y-106045000D02*
X165735000Y-99700000D01*
X187960000Y-109855000D02*
X186690000Y-109855000D01*
X182245000Y-105410000D02*
X182245000Y-99700000D01*
X186690000Y-109855000D02*
X182245000Y-105410000D01*
X187960000Y-107315000D02*
X187960000Y-90170000D01*
X174625000Y-97160000D02*
X177165000Y-99700000D01*
X174625000Y-87630000D02*
X174625000Y-97160000D01*
X175260000Y-86995000D02*
X174625000Y-87630000D01*
X184785000Y-86995000D02*
X175260000Y-86995000D01*
X187960000Y-90170000D02*
X184785000Y-86995000D01*
X187960000Y-123820000D02*
X187960000Y-118110000D01*
X190500000Y-115570000D02*
X190500000Y-109855000D01*
X187960000Y-118110000D02*
X190500000Y-115570000D01*
X190500000Y-107315000D02*
X190500000Y-91440000D01*
X208915000Y-107945000D02*
X193040000Y-123820000D01*
X208915000Y-86995000D02*
X208915000Y-107945000D01*
X208280000Y-86360000D02*
X208915000Y-86995000D01*
X195580000Y-86360000D02*
X208280000Y-86360000D01*
X190500000Y-91440000D02*
X195580000Y-86360000D01*
X193040000Y-109855000D02*
X195580000Y-109855000D01*
X200025000Y-105410000D02*
X200025000Y-99700000D01*
X195580000Y-109855000D02*
X200025000Y-105410000D01*
X193040000Y-107315000D02*
X193040000Y-90805000D01*
X208280000Y-96525000D02*
X205105000Y-99700000D01*
X208280000Y-87630000D02*
X208280000Y-96525000D01*
X207645000Y-86995000D02*
X208280000Y-87630000D01*
X196850000Y-86995000D02*
X207645000Y-86995000D01*
X193040000Y-90805000D02*
X196850000Y-86995000D01*
X165735000Y-89535000D02*
X168275000Y-92075000D01*
X168275000Y-89535000D02*
X168275000Y-92075000D01*
X165735000Y-92075000D02*
X168275000Y-92075000D01*
X165735000Y-94615000D02*
X168275000Y-92075000D01*
X168275000Y-94615000D02*
X168275000Y-92075000D01*
X170815000Y-94615000D02*
X168275000Y-92075000D01*
X170815000Y-92075000D02*
X168275000Y-92075000D01*
X170815000Y-89535000D02*
X168275000Y-92075000D01*
X154305000Y-89535000D02*
X156845000Y-92075000D01*
X154305000Y-94615000D02*
X156845000Y-92075000D01*
X159385000Y-94615000D02*
X156845000Y-92075000D01*
X159385000Y-89535000D02*
X156845000Y-92075000D01*
X156845000Y-94615000D02*
X156845000Y-92075000D01*
X154305000Y-92075000D02*
X156845000Y-92075000D01*
X156845000Y-89535000D02*
X156845000Y-92075000D01*
X159385000Y-92075000D02*
X156845000Y-92075000D01*
X141605000Y-95885000D02*
X145415000Y-92075000D01*
X141605000Y-88265000D02*
X145415000Y-92075000D01*
X149225000Y-95885000D02*
X145415000Y-92075000D01*
X149225000Y-88265000D02*
X145415000Y-92075000D01*
X149225000Y-90805000D02*
X147955000Y-92075000D01*
X147955000Y-92075000D02*
X145415000Y-92075000D01*
X144145000Y-88265000D02*
X145415000Y-89535000D01*
X145415000Y-89535000D02*
X145415000Y-92075000D01*
X146685000Y-88265000D02*
X145415000Y-89535000D01*
X145415000Y-89535000D02*
X145415000Y-92075000D01*
X141605000Y-90805000D02*
X142875000Y-92075000D01*
X142875000Y-92075000D02*
X145415000Y-92075000D01*
X141605000Y-93345000D02*
X142875000Y-92075000D01*
X142875000Y-92075000D02*
X145415000Y-92075000D01*
X149225000Y-93345000D02*
X147955000Y-92075000D01*
X147955000Y-92075000D02*
X145415000Y-92075000D01*
X144145000Y-95885000D02*
X145415000Y-94615000D01*
X145415000Y-94615000D02*
X145415000Y-92075000D01*
X146685000Y-95885000D02*
X145415000Y-94615000D01*
X145415000Y-94615000D02*
X145415000Y-92075000D01*
X144145000Y-90805000D02*
X145415000Y-92075000D01*
X146685000Y-90805000D02*
X145415000Y-92075000D01*
X144145000Y-93345000D02*
X145415000Y-92075000D01*
X146685000Y-93345000D02*
X145415000Y-92075000D01*
X142875000Y-92075000D02*
X145415000Y-92075000D01*
X142875000Y-94615000D02*
X145415000Y-92075000D01*
X145415000Y-94615000D02*
X145415000Y-92075000D01*
X147955000Y-94615000D02*
X145415000Y-92075000D01*
X147955000Y-92075000D02*
X145415000Y-92075000D01*
X142875000Y-89535000D02*
X145415000Y-92075000D01*
X145415000Y-89535000D02*
X145415000Y-92075000D01*
X147955000Y-89535000D02*
X145415000Y-92075000D01*
X177165000Y-89535000D02*
X179705000Y-92075000D01*
X177165000Y-92075000D02*
X179705000Y-92075000D01*
X177165000Y-94615000D02*
X179705000Y-92075000D01*
X179705000Y-94615000D02*
X179705000Y-92075000D01*
X182245000Y-94615000D02*
X179705000Y-92075000D01*
X182245000Y-92075000D02*
X179705000Y-92075000D01*
X182245000Y-89535000D02*
X179705000Y-92075000D01*
X179705000Y-89535000D02*
X179705000Y-92075000D01*
X188595000Y-130175000D02*
X191135000Y-132715000D01*
X188595000Y-132715000D02*
X191135000Y-132715000D01*
X188595000Y-135255000D02*
X191135000Y-132715000D01*
X191135000Y-135255000D02*
X191135000Y-132715000D01*
X193675000Y-135255000D02*
X191135000Y-132715000D01*
X193675000Y-130175000D02*
X191135000Y-132715000D01*
X191135000Y-130175000D02*
X191135000Y-132715000D01*
X193675000Y-132715000D02*
X191135000Y-132715000D01*
M02*
