G04 #@! TF.FileFunction,Legend,Bot*
%FSLAX46Y46*%
G04 Gerber Fmt 4.6, Leading zero omitted, Abs format (unit mm)*
G04 Created by KiCad (PCBNEW 4.0.7-e2-6376~58~ubuntu16.04.1) date Mon Apr 30 20:59:08 2018*
%MOMM*%
%LPD*%
G01*
G04 APERTURE LIST*
%ADD10C,0.100000*%
%ADD11C,0.300000*%
%ADD12C,0.250000*%
%ADD13C,0.200000*%
%ADD14C,0.292100*%
G04 APERTURE END LIST*
D10*
D11*
X124396428Y-105517143D02*
X123253571Y-105517143D01*
X123825000Y-106088571D02*
X123825000Y-104945714D01*
X135572428Y-105517143D02*
X134429571Y-105517143D01*
X135001000Y-106088571D02*
X135001000Y-104945714D01*
D12*
X139890357Y-107128571D02*
X139033214Y-107128571D01*
X139461785Y-108628571D02*
X139461785Y-107128571D01*
X138604643Y-108557143D02*
X138390357Y-108628571D01*
X138033214Y-108628571D01*
X137890357Y-108557143D01*
X137818928Y-108485714D01*
X137747500Y-108342857D01*
X137747500Y-108200000D01*
X137818928Y-108057143D01*
X137890357Y-107985714D01*
X138033214Y-107914286D01*
X138318928Y-107842857D01*
X138461786Y-107771429D01*
X138533214Y-107700000D01*
X138604643Y-107557143D01*
X138604643Y-107414286D01*
X138533214Y-107271429D01*
X138461786Y-107200000D01*
X138318928Y-107128571D01*
X137961786Y-107128571D01*
X137747500Y-107200000D01*
D13*
X129035714Y-107842857D02*
X128821428Y-107914286D01*
X128750000Y-107985714D01*
X128678571Y-108128571D01*
X128678571Y-108342857D01*
X128750000Y-108485714D01*
X128821428Y-108557143D01*
X128964286Y-108628571D01*
X129535714Y-108628571D01*
X129535714Y-107128571D01*
X129035714Y-107128571D01*
X128892857Y-107200000D01*
X128821428Y-107271429D01*
X128750000Y-107414286D01*
X128750000Y-107557143D01*
X128821428Y-107700000D01*
X128892857Y-107771429D01*
X129035714Y-107842857D01*
X129535714Y-107842857D01*
X128107143Y-108200000D02*
X127392857Y-108200000D01*
X128250000Y-108628571D02*
X127750000Y-107128571D01*
X127250000Y-108628571D01*
X126964286Y-107128571D02*
X126107143Y-107128571D01*
X126535714Y-108628571D02*
X126535714Y-107128571D01*
X125607143Y-108057143D02*
X124464286Y-108057143D01*
X125035715Y-108628571D02*
X125035715Y-107485714D01*
D11*
X170881856Y-96524071D02*
X170738999Y-96524071D01*
X170596142Y-96595500D01*
X170524713Y-96666929D01*
X170453284Y-96809786D01*
X170381856Y-97095500D01*
X170381856Y-97452643D01*
X170453284Y-97738357D01*
X170524713Y-97881214D01*
X170596142Y-97952643D01*
X170738999Y-98024071D01*
X170881856Y-98024071D01*
X171024713Y-97952643D01*
X171096142Y-97881214D01*
X171167570Y-97738357D01*
X171238999Y-97452643D01*
X171238999Y-97095500D01*
X171167570Y-96809786D01*
X171096142Y-96666929D01*
X171024713Y-96595500D01*
X170881856Y-96524071D01*
X169738999Y-97881214D02*
X169667571Y-97952643D01*
X169738999Y-98024071D01*
X169810428Y-97952643D01*
X169738999Y-97881214D01*
X169738999Y-98024071D01*
X168310427Y-96524071D02*
X169024713Y-96524071D01*
X169096142Y-97238357D01*
X169024713Y-97166929D01*
X168881856Y-97095500D01*
X168524713Y-97095500D01*
X168381856Y-97166929D01*
X168310427Y-97238357D01*
X168238999Y-97381214D01*
X168238999Y-97738357D01*
X168310427Y-97881214D01*
X168381856Y-97952643D01*
X168524713Y-98024071D01*
X168881856Y-98024071D01*
X169024713Y-97952643D01*
X169096142Y-97881214D01*
X167310428Y-96524071D02*
X167167571Y-96524071D01*
X167024714Y-96595500D01*
X166953285Y-96666929D01*
X166881856Y-96809786D01*
X166810428Y-97095500D01*
X166810428Y-97452643D01*
X166881856Y-97738357D01*
X166953285Y-97881214D01*
X167024714Y-97952643D01*
X167167571Y-98024071D01*
X167310428Y-98024071D01*
X167453285Y-97952643D01*
X167524714Y-97881214D01*
X167596142Y-97738357D01*
X167667571Y-97452643D01*
X167667571Y-97095500D01*
X167596142Y-96809786D01*
X167524714Y-96666929D01*
X167453285Y-96595500D01*
X167310428Y-96524071D01*
X166239000Y-96666929D02*
X166167571Y-96595500D01*
X166024714Y-96524071D01*
X165667571Y-96524071D01*
X165524714Y-96595500D01*
X165453285Y-96666929D01*
X165381857Y-96809786D01*
X165381857Y-96952643D01*
X165453285Y-97166929D01*
X166310428Y-98024071D01*
X165381857Y-98024071D01*
X164024714Y-96524071D02*
X164739000Y-96524071D01*
X164810429Y-97238357D01*
X164739000Y-97166929D01*
X164596143Y-97095500D01*
X164239000Y-97095500D01*
X164096143Y-97166929D01*
X164024714Y-97238357D01*
X163953286Y-97381214D01*
X163953286Y-97738357D01*
X164024714Y-97881214D01*
X164096143Y-97952643D01*
X164239000Y-98024071D01*
X164596143Y-98024071D01*
X164739000Y-97952643D01*
X164810429Y-97881214D01*
X162167572Y-98024071D02*
X162167572Y-97024071D01*
X162167572Y-96524071D02*
X162239001Y-96595500D01*
X162167572Y-96666929D01*
X162096144Y-96595500D01*
X162167572Y-96524071D01*
X162167572Y-96666929D01*
X161453286Y-97024071D02*
X161453286Y-98024071D01*
X161453286Y-97166929D02*
X161381858Y-97095500D01*
X161239000Y-97024071D01*
X161024715Y-97024071D01*
X160881858Y-97095500D01*
X160810429Y-97238357D01*
X160810429Y-98024071D01*
X172339000Y-101028501D02*
X159575500Y-101028501D01*
X172339000Y-105410000D02*
X172339000Y-98328501D01*
X159575500Y-105410000D02*
X159575500Y-98328501D01*
X159575500Y-101028501D02*
X160702004Y-100442080D01*
X159575500Y-101028501D02*
X160702004Y-101614922D01*
X172339000Y-101028501D02*
X171212496Y-100442080D01*
X172339000Y-101028501D02*
X171212496Y-101614922D01*
X175438571Y-78148571D02*
X176152857Y-78148571D01*
X176152857Y-76648571D01*
X175152857Y-76648571D02*
X174652857Y-78148571D01*
X174152857Y-76648571D01*
X170286228Y-77970771D02*
X170286228Y-76470771D01*
X170286228Y-77185057D02*
X169429085Y-77185057D01*
X169429085Y-77970771D02*
X169429085Y-76470771D01*
X168929085Y-76470771D02*
X168429085Y-77970771D01*
X167929085Y-76470771D01*
D13*
X159450000Y-78150000D02*
X159450000Y-105950000D01*
X159600000Y-101000000D02*
X160750000Y-101700000D01*
X159550000Y-101000000D02*
X160750000Y-100250000D01*
X172150000Y-101050000D02*
X171100000Y-101650000D01*
X172150000Y-101050000D02*
X171100000Y-100250000D01*
X159600000Y-101000000D02*
X172150000Y-101050000D01*
D14*
X172313600Y-74193400D02*
X172300000Y-106050000D01*
M02*
