M48
;DRILL file {KiCad 4.0.7-e2-6376~58~ubuntu16.04.1} date Mon Apr 30 20:59:02 2018
;FORMAT={-:-/ absolute / inch / decimal}
FMAT,2
INCH,TZ
T1C0.040
T2C0.051
T3C0.063
T4C0.064
T5C0.094
%
G90
G05
M72
T1
X4.9336Y-3.9787
X5.0714Y-3.9787
X5.3746Y-3.9842
X5.5124Y-3.9842
X6.8912Y-3.538
X7.029Y-3.538
T2
X5.8457Y-3.86
X5.8457Y-4.1553
X6.0426Y-3.86
X6.0426Y-4.1553
X6.2394Y-3.86
X6.2394Y-4.1553
X6.83Y-3.86
X6.83Y-4.1553
T3
X5.0025Y-4.0665
X5.4435Y-4.072
X6.9601Y-3.6258
T4
X5.5Y-3.24
X5.9291Y-3.24
T5
X5.205Y-3.1349
X6.205Y-3.1349
T0
M30
