G04 #@! TF.FileFunction,Legend,Top*
%FSLAX46Y46*%
G04 Gerber Fmt 4.6, Leading zero omitted, Abs format (unit mm)*
G04 Created by KiCad (PCBNEW 4.0.7-e2-6376~58~ubuntu16.04.1) date Mon Feb 19 20:22:06 2018*
%MOMM*%
%LPD*%
G01*
G04 APERTURE LIST*
%ADD10C,0.100000*%
%ADD11C,0.152400*%
%ADD12C,0.120000*%
%ADD13C,0.200000*%
%ADD14C,0.150000*%
%ADD15C,0.010000*%
G04 APERTURE END LIST*
D10*
D11*
X130701143Y-38317714D02*
X130265715Y-38317714D01*
X130483429Y-38317714D02*
X130483429Y-37555714D01*
X130410858Y-37664571D01*
X130338286Y-37737143D01*
X130265715Y-37773429D01*
X131354286Y-37555714D02*
X131209143Y-37555714D01*
X131136572Y-37592000D01*
X131100286Y-37628286D01*
X131027715Y-37737143D01*
X130991429Y-37882286D01*
X130991429Y-38172571D01*
X131027715Y-38245143D01*
X131064000Y-38281429D01*
X131136572Y-38317714D01*
X131281715Y-38317714D01*
X131354286Y-38281429D01*
X131390572Y-38245143D01*
X131426857Y-38172571D01*
X131426857Y-37991143D01*
X131390572Y-37918571D01*
X131354286Y-37882286D01*
X131281715Y-37846000D01*
X131136572Y-37846000D01*
X131064000Y-37882286D01*
X131027715Y-37918571D01*
X130991429Y-37991143D01*
X131753429Y-38317714D02*
X131753429Y-37555714D01*
X132007429Y-38100000D01*
X132261429Y-37555714D01*
X132261429Y-38317714D01*
X133023428Y-38317714D02*
X132588000Y-38317714D01*
X132805714Y-38317714D02*
X132805714Y-37555714D01*
X132733143Y-37664571D01*
X132660571Y-37737143D01*
X132588000Y-37773429D01*
X133930571Y-38317714D02*
X133930571Y-37555714D01*
X134220856Y-37555714D01*
X134293428Y-37592000D01*
X134329713Y-37628286D01*
X134365999Y-37700857D01*
X134365999Y-37809714D01*
X134329713Y-37882286D01*
X134293428Y-37918571D01*
X134220856Y-37954857D01*
X133930571Y-37954857D01*
X134692571Y-38317714D02*
X134692571Y-37809714D01*
X134692571Y-37954857D02*
X134728856Y-37882286D01*
X134765142Y-37846000D01*
X134837713Y-37809714D01*
X134910285Y-37809714D01*
X135273142Y-38317714D02*
X135200570Y-38281429D01*
X135164285Y-38245143D01*
X135127999Y-38172571D01*
X135127999Y-37954857D01*
X135164285Y-37882286D01*
X135200570Y-37846000D01*
X135273142Y-37809714D01*
X135381999Y-37809714D01*
X135454570Y-37846000D01*
X135490856Y-37882286D01*
X135527142Y-37954857D01*
X135527142Y-38172571D01*
X135490856Y-38245143D01*
X135454570Y-38281429D01*
X135381999Y-38317714D01*
X135273142Y-38317714D01*
X136180285Y-37809714D02*
X136180285Y-38426571D01*
X136143999Y-38499143D01*
X136107714Y-38535429D01*
X136035142Y-38571714D01*
X135926285Y-38571714D01*
X135853714Y-38535429D01*
X136180285Y-38281429D02*
X136107714Y-38317714D01*
X135962571Y-38317714D01*
X135889999Y-38281429D01*
X135853714Y-38245143D01*
X135817428Y-38172571D01*
X135817428Y-37954857D01*
X135853714Y-37882286D01*
X135889999Y-37846000D01*
X135962571Y-37809714D01*
X136107714Y-37809714D01*
X136180285Y-37846000D01*
X137486571Y-38317714D02*
X137123714Y-38317714D01*
X137123714Y-37555714D01*
X137740571Y-37918571D02*
X137994571Y-37918571D01*
X138103428Y-38317714D02*
X137740571Y-38317714D01*
X137740571Y-37555714D01*
X138103428Y-37555714D01*
X138430000Y-38317714D02*
X138430000Y-37555714D01*
X138611428Y-37555714D01*
X138720285Y-37592000D01*
X138792857Y-37664571D01*
X138829142Y-37737143D01*
X138865428Y-37882286D01*
X138865428Y-37991143D01*
X138829142Y-38136286D01*
X138792857Y-38208857D01*
X138720285Y-38281429D01*
X138611428Y-38317714D01*
X138430000Y-38317714D01*
X139155714Y-38281429D02*
X139228285Y-38317714D01*
X139373428Y-38317714D01*
X139446000Y-38281429D01*
X139482285Y-38208857D01*
X139482285Y-38172571D01*
X139446000Y-38100000D01*
X139373428Y-38063714D01*
X139264571Y-38063714D01*
X139192000Y-38027429D01*
X139155714Y-37954857D01*
X139155714Y-37918571D01*
X139192000Y-37846000D01*
X139264571Y-37809714D01*
X139373428Y-37809714D01*
X139446000Y-37846000D01*
X150827619Y-26228524D02*
X150827619Y-26712333D01*
X151311429Y-26760714D01*
X151263048Y-26712333D01*
X151214667Y-26615571D01*
X151214667Y-26373667D01*
X151263048Y-26276905D01*
X151311429Y-26228524D01*
X151408190Y-26180143D01*
X151650095Y-26180143D01*
X151746857Y-26228524D01*
X151795238Y-26276905D01*
X151843619Y-26373667D01*
X151843619Y-26615571D01*
X151795238Y-26712333D01*
X151746857Y-26760714D01*
X150827619Y-25889857D02*
X151843619Y-25551190D01*
X150827619Y-25212524D01*
X149303619Y-26155952D02*
X149303619Y-26736523D01*
X149303619Y-26446237D02*
X148287619Y-26446237D01*
X148432762Y-26542999D01*
X148529524Y-26639761D01*
X148577905Y-26736523D01*
X148384381Y-25768904D02*
X148336000Y-25720523D01*
X148287619Y-25623761D01*
X148287619Y-25381857D01*
X148336000Y-25285095D01*
X148384381Y-25236714D01*
X148481143Y-25188333D01*
X148577905Y-25188333D01*
X148723048Y-25236714D01*
X149303619Y-25817285D01*
X149303619Y-25188333D01*
X148287619Y-24898047D02*
X149303619Y-24559380D01*
X148287619Y-24220714D01*
X158731858Y-22315714D02*
X159203572Y-22315714D01*
X158949572Y-22606000D01*
X159058430Y-22606000D01*
X159131001Y-22642286D01*
X159167287Y-22678571D01*
X159203572Y-22751143D01*
X159203572Y-22932571D01*
X159167287Y-23005143D01*
X159131001Y-23041429D01*
X159058430Y-23077714D01*
X158840715Y-23077714D01*
X158768144Y-23041429D01*
X158731858Y-23005143D01*
X159493858Y-22388286D02*
X159530144Y-22352000D01*
X159602715Y-22315714D01*
X159784144Y-22315714D01*
X159856715Y-22352000D01*
X159893001Y-22388286D01*
X159929286Y-22460857D01*
X159929286Y-22533429D01*
X159893001Y-22642286D01*
X159457572Y-23077714D01*
X159929286Y-23077714D01*
X160364715Y-22642286D02*
X160292143Y-22606000D01*
X160255858Y-22569714D01*
X160219572Y-22497143D01*
X160219572Y-22460857D01*
X160255858Y-22388286D01*
X160292143Y-22352000D01*
X160364715Y-22315714D01*
X160509858Y-22315714D01*
X160582429Y-22352000D01*
X160618715Y-22388286D01*
X160655000Y-22460857D01*
X160655000Y-22497143D01*
X160618715Y-22569714D01*
X160582429Y-22606000D01*
X160509858Y-22642286D01*
X160364715Y-22642286D01*
X160292143Y-22678571D01*
X160255858Y-22714857D01*
X160219572Y-22787429D01*
X160219572Y-22932571D01*
X160255858Y-23005143D01*
X160292143Y-23041429D01*
X160364715Y-23077714D01*
X160509858Y-23077714D01*
X160582429Y-23041429D01*
X160618715Y-23005143D01*
X160655000Y-22932571D01*
X160655000Y-22787429D01*
X160618715Y-22714857D01*
X160582429Y-22678571D01*
X160509858Y-22642286D01*
X161562143Y-23077714D02*
X161562143Y-22315714D01*
X161852428Y-22315714D01*
X161925000Y-22352000D01*
X161961285Y-22388286D01*
X161997571Y-22460857D01*
X161997571Y-22569714D01*
X161961285Y-22642286D01*
X161925000Y-22678571D01*
X161852428Y-22714857D01*
X161562143Y-22714857D01*
X162324143Y-23077714D02*
X162324143Y-22569714D01*
X162324143Y-22714857D02*
X162360428Y-22642286D01*
X162396714Y-22606000D01*
X162469285Y-22569714D01*
X162541857Y-22569714D01*
X162904714Y-23077714D02*
X162832142Y-23041429D01*
X162795857Y-23005143D01*
X162759571Y-22932571D01*
X162759571Y-22714857D01*
X162795857Y-22642286D01*
X162832142Y-22606000D01*
X162904714Y-22569714D01*
X163013571Y-22569714D01*
X163086142Y-22606000D01*
X163122428Y-22642286D01*
X163158714Y-22714857D01*
X163158714Y-22932571D01*
X163122428Y-23005143D01*
X163086142Y-23041429D01*
X163013571Y-23077714D01*
X162904714Y-23077714D01*
X163811857Y-22569714D02*
X163811857Y-23186571D01*
X163775571Y-23259143D01*
X163739286Y-23295429D01*
X163666714Y-23331714D01*
X163557857Y-23331714D01*
X163485286Y-23295429D01*
X163811857Y-23041429D02*
X163739286Y-23077714D01*
X163594143Y-23077714D01*
X163521571Y-23041429D01*
X163485286Y-23005143D01*
X163449000Y-22932571D01*
X163449000Y-22714857D01*
X163485286Y-22642286D01*
X163521571Y-22606000D01*
X163594143Y-22569714D01*
X163739286Y-22569714D01*
X163811857Y-22606000D01*
X165118143Y-23077714D02*
X164755286Y-23077714D01*
X164755286Y-22315714D01*
X165372143Y-22678571D02*
X165626143Y-22678571D01*
X165735000Y-23077714D02*
X165372143Y-23077714D01*
X165372143Y-22315714D01*
X165735000Y-22315714D01*
X166061572Y-23077714D02*
X166061572Y-22315714D01*
X166243000Y-22315714D01*
X166351857Y-22352000D01*
X166424429Y-22424571D01*
X166460714Y-22497143D01*
X166497000Y-22642286D01*
X166497000Y-22751143D01*
X166460714Y-22896286D01*
X166424429Y-22968857D01*
X166351857Y-23041429D01*
X166243000Y-23077714D01*
X166061572Y-23077714D01*
X166787286Y-23041429D02*
X166859857Y-23077714D01*
X167005000Y-23077714D01*
X167077572Y-23041429D01*
X167113857Y-22968857D01*
X167113857Y-22932571D01*
X167077572Y-22860000D01*
X167005000Y-22823714D01*
X166896143Y-22823714D01*
X166823572Y-22787429D01*
X166787286Y-22714857D01*
X166787286Y-22678571D01*
X166823572Y-22606000D01*
X166896143Y-22569714D01*
X167005000Y-22569714D01*
X167077572Y-22606000D01*
X116295714Y-58854219D02*
X115811905Y-58854219D01*
X115811905Y-57838219D01*
X117069809Y-58854219D02*
X117069809Y-58322029D01*
X117021428Y-58225267D01*
X116924666Y-58176886D01*
X116731143Y-58176886D01*
X116634381Y-58225267D01*
X117069809Y-58805838D02*
X116973047Y-58854219D01*
X116731143Y-58854219D01*
X116634381Y-58805838D01*
X116586000Y-58709076D01*
X116586000Y-58612314D01*
X116634381Y-58515552D01*
X116731143Y-58467171D01*
X116973047Y-58467171D01*
X117069809Y-58418790D01*
X117989047Y-58176886D02*
X117989047Y-58854219D01*
X117553619Y-58176886D02*
X117553619Y-58709076D01*
X117602000Y-58805838D01*
X117698762Y-58854219D01*
X117843904Y-58854219D01*
X117940666Y-58805838D01*
X117989047Y-58757457D01*
X118472857Y-58854219D02*
X118472857Y-58176886D01*
X118472857Y-58370410D02*
X118521238Y-58273648D01*
X118569619Y-58225267D01*
X118666381Y-58176886D01*
X118763142Y-58176886D01*
X119488856Y-58805838D02*
X119392094Y-58854219D01*
X119198571Y-58854219D01*
X119101809Y-58805838D01*
X119053428Y-58709076D01*
X119053428Y-58322029D01*
X119101809Y-58225267D01*
X119198571Y-58176886D01*
X119392094Y-58176886D01*
X119488856Y-58225267D01*
X119537237Y-58322029D01*
X119537237Y-58418790D01*
X119053428Y-58515552D01*
X119972666Y-58176886D02*
X119972666Y-58854219D01*
X119972666Y-58273648D02*
X120021047Y-58225267D01*
X120117809Y-58176886D01*
X120262951Y-58176886D01*
X120359713Y-58225267D01*
X120408094Y-58322029D01*
X120408094Y-58854219D01*
X121617618Y-58563933D02*
X122101427Y-58563933D01*
X121520856Y-58854219D02*
X121859523Y-57838219D01*
X122198189Y-58854219D01*
X122536856Y-58176886D02*
X122536856Y-58854219D01*
X122536856Y-58273648D02*
X122585237Y-58225267D01*
X122681999Y-58176886D01*
X122827141Y-58176886D01*
X122923903Y-58225267D01*
X122972284Y-58322029D01*
X122972284Y-58854219D01*
X123310951Y-58176886D02*
X123697999Y-58176886D01*
X123456094Y-58854219D02*
X123456094Y-57983362D01*
X123504475Y-57886600D01*
X123601237Y-57838219D01*
X123697999Y-57838219D01*
X124423712Y-58805838D02*
X124326950Y-58854219D01*
X124133427Y-58854219D01*
X124036665Y-58805838D01*
X123988284Y-58709076D01*
X123988284Y-58322029D01*
X124036665Y-58225267D01*
X124133427Y-58176886D01*
X124326950Y-58176886D01*
X124423712Y-58225267D01*
X124472093Y-58322029D01*
X124472093Y-58418790D01*
X123988284Y-58515552D01*
X124907522Y-58176886D02*
X124907522Y-58854219D01*
X124907522Y-58273648D02*
X124955903Y-58225267D01*
X125052665Y-58176886D01*
X125197807Y-58176886D01*
X125294569Y-58225267D01*
X125342950Y-58322029D01*
X125342950Y-58854219D01*
X125778379Y-58805838D02*
X125875141Y-58854219D01*
X126068665Y-58854219D01*
X126165426Y-58805838D01*
X126213807Y-58709076D01*
X126213807Y-58660695D01*
X126165426Y-58563933D01*
X126068665Y-58515552D01*
X125923522Y-58515552D01*
X125826760Y-58467171D01*
X125778379Y-58370410D01*
X125778379Y-58322029D01*
X125826760Y-58225267D01*
X125923522Y-58176886D01*
X126068665Y-58176886D01*
X126165426Y-58225267D01*
X126794379Y-58854219D02*
X126697617Y-58805838D01*
X126649236Y-58757457D01*
X126600855Y-58660695D01*
X126600855Y-58370410D01*
X126649236Y-58273648D01*
X126697617Y-58225267D01*
X126794379Y-58176886D01*
X126939521Y-58176886D01*
X127036283Y-58225267D01*
X127084664Y-58273648D01*
X127133045Y-58370410D01*
X127133045Y-58660695D01*
X127084664Y-58757457D01*
X127036283Y-58805838D01*
X126939521Y-58854219D01*
X126794379Y-58854219D01*
X127568474Y-58176886D02*
X127568474Y-58854219D01*
X127568474Y-58273648D02*
X127616855Y-58225267D01*
X127713617Y-58176886D01*
X127858759Y-58176886D01*
X127955521Y-58225267D01*
X128003902Y-58322029D01*
X128003902Y-58854219D01*
X116005429Y-59514619D02*
X116198952Y-59514619D01*
X116295714Y-59563000D01*
X116392476Y-59659762D01*
X116440857Y-59853286D01*
X116440857Y-60191952D01*
X116392476Y-60385476D01*
X116295714Y-60482238D01*
X116198952Y-60530619D01*
X116005429Y-60530619D01*
X115908667Y-60482238D01*
X115811905Y-60385476D01*
X115763524Y-60191952D01*
X115763524Y-59853286D01*
X115811905Y-59659762D01*
X115908667Y-59563000D01*
X116005429Y-59514619D01*
X117021429Y-60530619D02*
X116924667Y-60482238D01*
X116876286Y-60385476D01*
X116876286Y-59514619D01*
X117408476Y-60530619D02*
X117408476Y-59853286D01*
X117408476Y-59514619D02*
X117360095Y-59563000D01*
X117408476Y-59611381D01*
X117456857Y-59563000D01*
X117408476Y-59514619D01*
X117408476Y-59611381D01*
X117892286Y-59853286D02*
X117892286Y-60530619D01*
X117892286Y-59950048D02*
X117940667Y-59901667D01*
X118037429Y-59853286D01*
X118182571Y-59853286D01*
X118279333Y-59901667D01*
X118327714Y-59998429D01*
X118327714Y-60530619D01*
X119585619Y-59998429D02*
X119924285Y-59998429D01*
X120069428Y-60530619D02*
X119585619Y-60530619D01*
X119585619Y-59514619D01*
X120069428Y-59514619D01*
X120650000Y-60530619D02*
X120553238Y-60482238D01*
X120504857Y-60385476D01*
X120504857Y-59514619D01*
X121424094Y-60482238D02*
X121327332Y-60530619D01*
X121133809Y-60530619D01*
X121037047Y-60482238D01*
X120988666Y-60385476D01*
X120988666Y-59998429D01*
X121037047Y-59901667D01*
X121133809Y-59853286D01*
X121327332Y-59853286D01*
X121424094Y-59901667D01*
X121472475Y-59998429D01*
X121472475Y-60095190D01*
X120988666Y-60191952D01*
X122343332Y-60482238D02*
X122246570Y-60530619D01*
X122053047Y-60530619D01*
X121956285Y-60482238D01*
X121907904Y-60433857D01*
X121859523Y-60337095D01*
X121859523Y-60046810D01*
X121907904Y-59950048D01*
X121956285Y-59901667D01*
X122053047Y-59853286D01*
X122246570Y-59853286D01*
X122343332Y-59901667D01*
X122633618Y-59853286D02*
X123020666Y-59853286D01*
X122778761Y-59514619D02*
X122778761Y-60385476D01*
X122827142Y-60482238D01*
X122923904Y-60530619D01*
X123020666Y-60530619D01*
X123359332Y-60530619D02*
X123359332Y-59853286D01*
X123359332Y-60046810D02*
X123407713Y-59950048D01*
X123456094Y-59901667D01*
X123552856Y-59853286D01*
X123649617Y-59853286D01*
X123988284Y-60530619D02*
X123988284Y-59853286D01*
X123988284Y-59514619D02*
X123939903Y-59563000D01*
X123988284Y-59611381D01*
X124036665Y-59563000D01*
X123988284Y-59514619D01*
X123988284Y-59611381D01*
X124907522Y-60482238D02*
X124810760Y-60530619D01*
X124617237Y-60530619D01*
X124520475Y-60482238D01*
X124472094Y-60433857D01*
X124423713Y-60337095D01*
X124423713Y-60046810D01*
X124472094Y-59950048D01*
X124520475Y-59901667D01*
X124617237Y-59853286D01*
X124810760Y-59853286D01*
X124907522Y-59901667D01*
X126117046Y-60530619D02*
X126117046Y-59514619D01*
X126455712Y-60240333D01*
X126794379Y-59514619D01*
X126794379Y-60530619D01*
X127423332Y-60530619D02*
X127326570Y-60482238D01*
X127278189Y-60433857D01*
X127229808Y-60337095D01*
X127229808Y-60046810D01*
X127278189Y-59950048D01*
X127326570Y-59901667D01*
X127423332Y-59853286D01*
X127568474Y-59853286D01*
X127665236Y-59901667D01*
X127713617Y-59950048D01*
X127761998Y-60046810D01*
X127761998Y-60337095D01*
X127713617Y-60433857D01*
X127665236Y-60482238D01*
X127568474Y-60530619D01*
X127423332Y-60530619D01*
X128052284Y-59853286D02*
X128439332Y-59853286D01*
X128197427Y-59514619D02*
X128197427Y-60385476D01*
X128245808Y-60482238D01*
X128342570Y-60530619D01*
X128439332Y-60530619D01*
X128923141Y-60530619D02*
X128826379Y-60482238D01*
X128777998Y-60433857D01*
X128729617Y-60337095D01*
X128729617Y-60046810D01*
X128777998Y-59950048D01*
X128826379Y-59901667D01*
X128923141Y-59853286D01*
X129068283Y-59853286D01*
X129165045Y-59901667D01*
X129213426Y-59950048D01*
X129261807Y-60046810D01*
X129261807Y-60337095D01*
X129213426Y-60433857D01*
X129165045Y-60482238D01*
X129068283Y-60530619D01*
X128923141Y-60530619D01*
X129697236Y-60530619D02*
X129697236Y-59853286D01*
X129697236Y-60046810D02*
X129745617Y-59950048D01*
X129793998Y-59901667D01*
X129890760Y-59853286D01*
X129987521Y-59853286D01*
X130277807Y-60482238D02*
X130374569Y-60530619D01*
X130568093Y-60530619D01*
X130664854Y-60482238D01*
X130713235Y-60385476D01*
X130713235Y-60337095D01*
X130664854Y-60240333D01*
X130568093Y-60191952D01*
X130422950Y-60191952D01*
X130326188Y-60143571D01*
X130277807Y-60046810D01*
X130277807Y-59998429D01*
X130326188Y-59901667D01*
X130422950Y-59853286D01*
X130568093Y-59853286D01*
X130664854Y-59901667D01*
X131148664Y-59853286D02*
X131148664Y-60869286D01*
X131148664Y-59901667D02*
X131245426Y-59853286D01*
X131438949Y-59853286D01*
X131535711Y-59901667D01*
X131584092Y-59950048D01*
X131632473Y-60046810D01*
X131632473Y-60337095D01*
X131584092Y-60433857D01*
X131535711Y-60482238D01*
X131438949Y-60530619D01*
X131245426Y-60530619D01*
X131148664Y-60482238D01*
X132213045Y-60530619D02*
X132116283Y-60482238D01*
X132067902Y-60433857D01*
X132019521Y-60337095D01*
X132019521Y-60046810D01*
X132067902Y-59950048D01*
X132116283Y-59901667D01*
X132213045Y-59853286D01*
X132358187Y-59853286D01*
X132454949Y-59901667D01*
X132503330Y-59950048D01*
X132551711Y-60046810D01*
X132551711Y-60337095D01*
X132503330Y-60433857D01*
X132454949Y-60482238D01*
X132358187Y-60530619D01*
X132213045Y-60530619D01*
X132987140Y-60530619D02*
X132987140Y-59853286D01*
X132987140Y-60046810D02*
X133035521Y-59950048D01*
X133083902Y-59901667D01*
X133180664Y-59853286D01*
X133277425Y-59853286D01*
X133470949Y-59853286D02*
X133857997Y-59853286D01*
X133616092Y-59514619D02*
X133616092Y-60385476D01*
X133664473Y-60482238D01*
X133761235Y-60530619D01*
X133857997Y-60530619D01*
X134148282Y-60482238D02*
X134245044Y-60530619D01*
X134438568Y-60530619D01*
X134535329Y-60482238D01*
X134583710Y-60385476D01*
X134583710Y-60337095D01*
X134535329Y-60240333D01*
X134438568Y-60191952D01*
X134293425Y-60191952D01*
X134196663Y-60143571D01*
X134148282Y-60046810D01*
X134148282Y-59998429D01*
X134196663Y-59901667D01*
X134293425Y-59853286D01*
X134438568Y-59853286D01*
X134535329Y-59901667D01*
X115811905Y-62207019D02*
X115811905Y-61191019D01*
X116053810Y-61191019D01*
X116198952Y-61239400D01*
X116295714Y-61336162D01*
X116344095Y-61432924D01*
X116392476Y-61626448D01*
X116392476Y-61771590D01*
X116344095Y-61965114D01*
X116295714Y-62061876D01*
X116198952Y-62158638D01*
X116053810Y-62207019D01*
X115811905Y-62207019D01*
X117263333Y-62207019D02*
X117263333Y-61674829D01*
X117214952Y-61578067D01*
X117118190Y-61529686D01*
X116924667Y-61529686D01*
X116827905Y-61578067D01*
X117263333Y-62158638D02*
X117166571Y-62207019D01*
X116924667Y-62207019D01*
X116827905Y-62158638D01*
X116779524Y-62061876D01*
X116779524Y-61965114D01*
X116827905Y-61868352D01*
X116924667Y-61819971D01*
X117166571Y-61819971D01*
X117263333Y-61771590D01*
X117698762Y-62158638D02*
X117795524Y-62207019D01*
X117989048Y-62207019D01*
X118085809Y-62158638D01*
X118134190Y-62061876D01*
X118134190Y-62013495D01*
X118085809Y-61916733D01*
X117989048Y-61868352D01*
X117843905Y-61868352D01*
X117747143Y-61819971D01*
X117698762Y-61723210D01*
X117698762Y-61674829D01*
X117747143Y-61578067D01*
X117843905Y-61529686D01*
X117989048Y-61529686D01*
X118085809Y-61578067D01*
X118569619Y-62207019D02*
X118569619Y-61191019D01*
X119005047Y-62207019D02*
X119005047Y-61674829D01*
X118956666Y-61578067D01*
X118859904Y-61529686D01*
X118714762Y-61529686D01*
X118618000Y-61578067D01*
X118569619Y-61626448D01*
X119488857Y-62207019D02*
X119488857Y-61191019D01*
X119488857Y-61578067D02*
X119585619Y-61529686D01*
X119779142Y-61529686D01*
X119875904Y-61578067D01*
X119924285Y-61626448D01*
X119972666Y-61723210D01*
X119972666Y-62013495D01*
X119924285Y-62110257D01*
X119875904Y-62158638D01*
X119779142Y-62207019D01*
X119585619Y-62207019D01*
X119488857Y-62158638D01*
X120553238Y-62207019D02*
X120456476Y-62158638D01*
X120408095Y-62110257D01*
X120359714Y-62013495D01*
X120359714Y-61723210D01*
X120408095Y-61626448D01*
X120456476Y-61578067D01*
X120553238Y-61529686D01*
X120698380Y-61529686D01*
X120795142Y-61578067D01*
X120843523Y-61626448D01*
X120891904Y-61723210D01*
X120891904Y-62013495D01*
X120843523Y-62110257D01*
X120795142Y-62158638D01*
X120698380Y-62207019D01*
X120553238Y-62207019D01*
X121762761Y-62207019D02*
X121762761Y-61674829D01*
X121714380Y-61578067D01*
X121617618Y-61529686D01*
X121424095Y-61529686D01*
X121327333Y-61578067D01*
X121762761Y-62158638D02*
X121665999Y-62207019D01*
X121424095Y-62207019D01*
X121327333Y-62158638D01*
X121278952Y-62061876D01*
X121278952Y-61965114D01*
X121327333Y-61868352D01*
X121424095Y-61819971D01*
X121665999Y-61819971D01*
X121762761Y-61771590D01*
X122246571Y-62207019D02*
X122246571Y-61529686D01*
X122246571Y-61723210D02*
X122294952Y-61626448D01*
X122343333Y-61578067D01*
X122440095Y-61529686D01*
X122536856Y-61529686D01*
X123310951Y-62207019D02*
X123310951Y-61191019D01*
X123310951Y-62158638D02*
X123214189Y-62207019D01*
X123020666Y-62207019D01*
X122923904Y-62158638D01*
X122875523Y-62110257D01*
X122827142Y-62013495D01*
X122827142Y-61723210D01*
X122875523Y-61626448D01*
X122923904Y-61578067D01*
X123020666Y-61529686D01*
X123214189Y-61529686D01*
X123310951Y-61578067D01*
X124907522Y-61674829D02*
X124568856Y-61674829D01*
X124568856Y-62207019D02*
X124568856Y-61191019D01*
X125052665Y-61191019D01*
X125875141Y-61529686D02*
X125875141Y-62207019D01*
X125439713Y-61529686D02*
X125439713Y-62061876D01*
X125488094Y-62158638D01*
X125584856Y-62207019D01*
X125729998Y-62207019D01*
X125826760Y-62158638D01*
X125875141Y-62110257D01*
X126358951Y-61529686D02*
X126358951Y-62207019D01*
X126358951Y-61626448D02*
X126407332Y-61578067D01*
X126504094Y-61529686D01*
X126649236Y-61529686D01*
X126745998Y-61578067D01*
X126794379Y-61674829D01*
X126794379Y-62207019D01*
X127713617Y-62158638D02*
X127616855Y-62207019D01*
X127423332Y-62207019D01*
X127326570Y-62158638D01*
X127278189Y-62110257D01*
X127229808Y-62013495D01*
X127229808Y-61723210D01*
X127278189Y-61626448D01*
X127326570Y-61578067D01*
X127423332Y-61529686D01*
X127616855Y-61529686D01*
X127713617Y-61578067D01*
X128003903Y-61529686D02*
X128390951Y-61529686D01*
X128149046Y-61191019D02*
X128149046Y-62061876D01*
X128197427Y-62158638D01*
X128294189Y-62207019D01*
X128390951Y-62207019D01*
X128729617Y-62207019D02*
X128729617Y-61529686D01*
X128729617Y-61191019D02*
X128681236Y-61239400D01*
X128729617Y-61287781D01*
X128777998Y-61239400D01*
X128729617Y-61191019D01*
X128729617Y-61287781D01*
X129358570Y-62207019D02*
X129261808Y-62158638D01*
X129213427Y-62110257D01*
X129165046Y-62013495D01*
X129165046Y-61723210D01*
X129213427Y-61626448D01*
X129261808Y-61578067D01*
X129358570Y-61529686D01*
X129503712Y-61529686D01*
X129600474Y-61578067D01*
X129648855Y-61626448D01*
X129697236Y-61723210D01*
X129697236Y-62013495D01*
X129648855Y-62110257D01*
X129600474Y-62158638D01*
X129503712Y-62207019D01*
X129358570Y-62207019D01*
X130132665Y-61529686D02*
X130132665Y-62207019D01*
X130132665Y-61626448D02*
X130181046Y-61578067D01*
X130277808Y-61529686D01*
X130422950Y-61529686D01*
X130519712Y-61578067D01*
X130568093Y-61674829D01*
X130568093Y-62207019D01*
X131487331Y-62207019D02*
X131487331Y-61674829D01*
X131438950Y-61578067D01*
X131342188Y-61529686D01*
X131148665Y-61529686D01*
X131051903Y-61578067D01*
X131487331Y-62158638D02*
X131390569Y-62207019D01*
X131148665Y-62207019D01*
X131051903Y-62158638D01*
X131003522Y-62061876D01*
X131003522Y-61965114D01*
X131051903Y-61868352D01*
X131148665Y-61819971D01*
X131390569Y-61819971D01*
X131487331Y-61771590D01*
X132116284Y-62207019D02*
X132019522Y-62158638D01*
X131971141Y-62061876D01*
X131971141Y-61191019D01*
X133857997Y-62207019D02*
X133519331Y-61723210D01*
X133277426Y-62207019D02*
X133277426Y-61191019D01*
X133664473Y-61191019D01*
X133761235Y-61239400D01*
X133809616Y-61287781D01*
X133857997Y-61384543D01*
X133857997Y-61529686D01*
X133809616Y-61626448D01*
X133761235Y-61674829D01*
X133664473Y-61723210D01*
X133277426Y-61723210D01*
X134680473Y-62158638D02*
X134583711Y-62207019D01*
X134390188Y-62207019D01*
X134293426Y-62158638D01*
X134245045Y-62061876D01*
X134245045Y-61674829D01*
X134293426Y-61578067D01*
X134390188Y-61529686D01*
X134583711Y-61529686D01*
X134680473Y-61578067D01*
X134728854Y-61674829D01*
X134728854Y-61771590D01*
X134245045Y-61868352D01*
X135067521Y-61529686D02*
X135309426Y-62207019D01*
X135551330Y-61529686D01*
X135889997Y-61287781D02*
X135938378Y-61239400D01*
X136035140Y-61191019D01*
X136277044Y-61191019D01*
X136373806Y-61239400D01*
X136422187Y-61287781D01*
X136470568Y-61384543D01*
X136470568Y-61481305D01*
X136422187Y-61626448D01*
X135841616Y-62207019D01*
X136470568Y-62207019D01*
D12*
X136586406Y-54857487D02*
X137293513Y-55564594D01*
X138495594Y-54362513D02*
X137788487Y-53655406D01*
X150672200Y-43724486D02*
X149672200Y-43724486D01*
X149672200Y-45424486D02*
X150672200Y-45424486D01*
X116626000Y-36072000D02*
X118626000Y-36072000D01*
X118626000Y-34032000D02*
X116626000Y-34032000D01*
X126707000Y-48252000D02*
X126707000Y-47252000D01*
X125007000Y-47252000D02*
X125007000Y-48252000D01*
X131469000Y-30822000D02*
X132469000Y-30822000D01*
X132469000Y-29122000D02*
X131469000Y-29122000D01*
X145772000Y-35980000D02*
X144772000Y-35980000D01*
X144772000Y-37680000D02*
X145772000Y-37680000D01*
X151195594Y-53727513D02*
X150488487Y-53020406D01*
X149286406Y-54222487D02*
X149993513Y-54929594D01*
X149739513Y-57211406D02*
X149032406Y-57918513D01*
X150234487Y-59120594D02*
X150941594Y-58413487D01*
X173166594Y-39503513D02*
X172459487Y-38796406D01*
X171257406Y-39998487D02*
X171964513Y-40705594D01*
X171951487Y-32700406D02*
X171244380Y-31993299D01*
X170042299Y-33195380D02*
X170749406Y-33902487D01*
X159219000Y-47887000D02*
X159219000Y-46887000D01*
X157519000Y-46887000D02*
X157519000Y-47887000D01*
X170440513Y-36002406D02*
X169733406Y-36709513D01*
X170935487Y-37911594D02*
X171642594Y-37204487D01*
X159219000Y-51824000D02*
X159219000Y-50824000D01*
X157519000Y-50824000D02*
X157519000Y-51824000D01*
D13*
X122190000Y-33874000D02*
X123090000Y-32774000D01*
X123890000Y-33874000D02*
X122190000Y-33874000D01*
X123090000Y-32774000D02*
X123890000Y-33874000D01*
X123890000Y-32774000D02*
X122190000Y-32774000D01*
D12*
X124523500Y-30099000D02*
X121856500Y-30099000D01*
X121856500Y-30099000D02*
X121856500Y-33274000D01*
X124523500Y-30099000D02*
X124523500Y-33274000D01*
X149544000Y-27537000D02*
X148144000Y-27537000D01*
X148144000Y-27537000D02*
X148144000Y-30337000D01*
X149544000Y-27537000D02*
X149544000Y-30337000D01*
X152084000Y-27537000D02*
X150684000Y-27537000D01*
X150684000Y-27537000D02*
X150684000Y-30337000D01*
X152084000Y-27537000D02*
X152084000Y-30337000D01*
X136844000Y-38840000D02*
X135444000Y-38840000D01*
X135444000Y-38840000D02*
X135444000Y-41640000D01*
X136844000Y-38840000D02*
X136844000Y-41640000D01*
X134304000Y-38840000D02*
X132904000Y-38840000D01*
X132904000Y-38840000D02*
X132904000Y-41640000D01*
X134304000Y-38840000D02*
X134304000Y-41640000D01*
X118782000Y-33230000D02*
X116782000Y-33230000D01*
X116782000Y-30270000D02*
X118782000Y-30270000D01*
D14*
X138451259Y-49333496D02*
X138610358Y-49492595D01*
X143577783Y-44206972D02*
X143807593Y-44436782D01*
X148704307Y-49333496D02*
X148474497Y-49103686D01*
X143577783Y-54460020D02*
X143347973Y-54230210D01*
X138451259Y-49333496D02*
X138681069Y-49103686D01*
X143577783Y-54460020D02*
X143807593Y-54230210D01*
X148704307Y-49333496D02*
X148474497Y-49563306D01*
X143577783Y-44206972D02*
X143347973Y-44436782D01*
X138610358Y-49492595D02*
X137602731Y-50500222D01*
X109237000Y-57169000D02*
X114537000Y-57169000D01*
X109237000Y-34779000D02*
X114537000Y-34779000D01*
X109237000Y-57169000D02*
X109237000Y-34779000D01*
X114537000Y-57169000D02*
X114537000Y-34779000D01*
X186072000Y-51581000D02*
X191372000Y-51581000D01*
X186072000Y-39351000D02*
X191372000Y-39351000D01*
X186072000Y-51581000D02*
X186072000Y-39351000D01*
X191372000Y-51581000D02*
X191372000Y-39351000D01*
D12*
X149724000Y-32862000D02*
X149724000Y-34062000D01*
X147964000Y-34062000D02*
X147964000Y-32862000D01*
X149622200Y-41789486D02*
X150822200Y-41789486D01*
X150822200Y-43549486D02*
X149622200Y-43549486D01*
X128550000Y-30852000D02*
X127350000Y-30852000D01*
X127350000Y-29092000D02*
X128550000Y-29092000D01*
X132746000Y-35424000D02*
X131546000Y-35424000D01*
X131546000Y-33664000D02*
X132746000Y-33664000D01*
X132746000Y-33138000D02*
X131546000Y-33138000D01*
X131546000Y-31378000D02*
X132746000Y-31378000D01*
X147108000Y-28590000D02*
X147108000Y-33790000D01*
X143468000Y-33790000D02*
X143468000Y-28590000D01*
X152264000Y-32862000D02*
X152264000Y-34062000D01*
X150504000Y-34062000D02*
X150504000Y-32862000D01*
X130394000Y-40504000D02*
X129194000Y-40504000D01*
X129194000Y-38744000D02*
X130394000Y-38744000D01*
X130394000Y-42790000D02*
X129194000Y-42790000D01*
X129194000Y-41030000D02*
X130394000Y-41030000D01*
X135264000Y-45177000D02*
X135264000Y-43977000D01*
X137024000Y-43977000D02*
X137024000Y-45177000D01*
X132724000Y-45177000D02*
X132724000Y-43977000D01*
X134484000Y-43977000D02*
X134484000Y-45177000D01*
X137931000Y-43465000D02*
X137931000Y-42265000D01*
X139691000Y-42265000D02*
X139691000Y-43465000D01*
X162722000Y-32013000D02*
X163922000Y-32013000D01*
X163922000Y-33773000D02*
X162722000Y-33773000D01*
X156709000Y-46580500D02*
X156709000Y-47780500D01*
X154949000Y-47780500D02*
X154949000Y-46580500D01*
X156709000Y-50520000D02*
X156709000Y-51720000D01*
X154949000Y-51720000D02*
X154949000Y-50520000D01*
D14*
X122344000Y-50200000D02*
X122344000Y-50150000D01*
X118194000Y-50200000D02*
X118194000Y-50055000D01*
X118194000Y-45050000D02*
X118194000Y-45195000D01*
X122344000Y-45050000D02*
X122344000Y-45195000D01*
X122344000Y-50200000D02*
X118194000Y-50200000D01*
X122344000Y-45050000D02*
X118194000Y-45050000D01*
X122344000Y-50150000D02*
X123744000Y-50150000D01*
D12*
X127032000Y-35138000D02*
X128832000Y-35138000D01*
X128832000Y-31918000D02*
X126382000Y-31918000D01*
D14*
X169845524Y-42672000D02*
X169686425Y-42512901D01*
X164719000Y-47798524D02*
X164489190Y-47568714D01*
X159592476Y-42672000D02*
X159822286Y-42901810D01*
X164719000Y-37545476D02*
X164948810Y-37775286D01*
X169845524Y-42672000D02*
X169615714Y-42901810D01*
X164719000Y-37545476D02*
X164489190Y-37775286D01*
X159592476Y-42672000D02*
X159822286Y-42442190D01*
X164719000Y-47798524D02*
X164948810Y-47568714D01*
X169686425Y-42512901D02*
X170694052Y-41505274D01*
D10*
X150542784Y-55886643D02*
X149128571Y-57300857D01*
X150542784Y-55886643D02*
X149411414Y-54755272D01*
X166237416Y-35334843D02*
X167651629Y-33920629D01*
X166237416Y-35334843D02*
X167368786Y-36466214D01*
D12*
X164657000Y-23854000D02*
X163257000Y-23854000D01*
X163257000Y-23854000D02*
X163257000Y-26654000D01*
X164657000Y-23854000D02*
X164657000Y-26654000D01*
X162371000Y-23854000D02*
X160971000Y-23854000D01*
X160971000Y-23854000D02*
X160971000Y-26654000D01*
X162371000Y-23854000D02*
X162371000Y-26654000D01*
X163077000Y-30445000D02*
X163077000Y-29245000D01*
X164837000Y-29245000D02*
X164837000Y-30445000D01*
X160791000Y-30445000D02*
X160791000Y-29245000D01*
X162551000Y-29245000D02*
X162551000Y-30445000D01*
D15*
G36*
X183401983Y-21702857D02*
X183552457Y-21742871D01*
X183818628Y-21811176D01*
X184151829Y-21895325D01*
X184277000Y-21926647D01*
X184909523Y-22120588D01*
X185548166Y-22380634D01*
X186146709Y-22683926D01*
X186658928Y-23007601D01*
X186965464Y-23256369D01*
X187386728Y-23739450D01*
X187646210Y-24236295D01*
X187750208Y-24740117D01*
X187705021Y-25244128D01*
X187516949Y-25741541D01*
X187192290Y-26225569D01*
X186737343Y-26689426D01*
X186158408Y-27126324D01*
X185461783Y-27529476D01*
X184653767Y-27892096D01*
X183740660Y-28207395D01*
X182728759Y-28468588D01*
X181996525Y-28610298D01*
X181538989Y-28683873D01*
X181222227Y-28724252D01*
X181021288Y-28733026D01*
X180911225Y-28711783D01*
X180875988Y-28681688D01*
X180817074Y-28627928D01*
X180806963Y-28671733D01*
X180725319Y-28731404D01*
X180496525Y-28770973D01*
X180276500Y-28783838D01*
X179909619Y-28795054D01*
X179538467Y-28807266D01*
X179345142Y-28814106D01*
X179110824Y-28811314D01*
X178965863Y-28787498D01*
X178942975Y-28768157D01*
X178877294Y-28738379D01*
X178794834Y-28753997D01*
X178787337Y-28740862D01*
X178904123Y-28663153D01*
X179120598Y-28536985D01*
X179157718Y-28516227D01*
X179950052Y-28006140D01*
X180732964Y-27359576D01*
X181315472Y-26786766D01*
X181992545Y-26021263D01*
X182537075Y-25275663D01*
X182975751Y-24512256D01*
X183085149Y-24286085D01*
X183373204Y-23580034D01*
X183531957Y-22974650D01*
X183562305Y-22462335D01*
X183465150Y-22035492D01*
X183372505Y-21857181D01*
X183293494Y-21718595D01*
X183317577Y-21683775D01*
X183401983Y-21702857D01*
X183401983Y-21702857D01*
G37*
X183401983Y-21702857D02*
X183552457Y-21742871D01*
X183818628Y-21811176D01*
X184151829Y-21895325D01*
X184277000Y-21926647D01*
X184909523Y-22120588D01*
X185548166Y-22380634D01*
X186146709Y-22683926D01*
X186658928Y-23007601D01*
X186965464Y-23256369D01*
X187386728Y-23739450D01*
X187646210Y-24236295D01*
X187750208Y-24740117D01*
X187705021Y-25244128D01*
X187516949Y-25741541D01*
X187192290Y-26225569D01*
X186737343Y-26689426D01*
X186158408Y-27126324D01*
X185461783Y-27529476D01*
X184653767Y-27892096D01*
X183740660Y-28207395D01*
X182728759Y-28468588D01*
X181996525Y-28610298D01*
X181538989Y-28683873D01*
X181222227Y-28724252D01*
X181021288Y-28733026D01*
X180911225Y-28711783D01*
X180875988Y-28681688D01*
X180817074Y-28627928D01*
X180806963Y-28671733D01*
X180725319Y-28731404D01*
X180496525Y-28770973D01*
X180276500Y-28783838D01*
X179909619Y-28795054D01*
X179538467Y-28807266D01*
X179345142Y-28814106D01*
X179110824Y-28811314D01*
X178965863Y-28787498D01*
X178942975Y-28768157D01*
X178877294Y-28738379D01*
X178794834Y-28753997D01*
X178787337Y-28740862D01*
X178904123Y-28663153D01*
X179120598Y-28536985D01*
X179157718Y-28516227D01*
X179950052Y-28006140D01*
X180732964Y-27359576D01*
X181315472Y-26786766D01*
X181992545Y-26021263D01*
X182537075Y-25275663D01*
X182975751Y-24512256D01*
X183085149Y-24286085D01*
X183373204Y-23580034D01*
X183531957Y-22974650D01*
X183562305Y-22462335D01*
X183465150Y-22035492D01*
X183372505Y-21857181D01*
X183293494Y-21718595D01*
X183317577Y-21683775D01*
X183401983Y-21702857D01*
G36*
X180748070Y-21958274D02*
X180256169Y-22288709D01*
X179709346Y-22722095D01*
X179148000Y-23221427D01*
X178612529Y-23749700D01*
X178143333Y-24269909D01*
X177922963Y-24546069D01*
X177465696Y-25212664D01*
X177092857Y-25878545D01*
X176810473Y-26524052D01*
X176624570Y-27129523D01*
X176541175Y-27675297D01*
X176566313Y-28141711D01*
X176706011Y-28509104D01*
X176707549Y-28511500D01*
X176789728Y-28649194D01*
X176807119Y-28697837D01*
X176720643Y-28676085D01*
X176507768Y-28621169D01*
X176205916Y-28542766D01*
X176022000Y-28494827D01*
X175029197Y-28193284D01*
X174196883Y-27847854D01*
X173521425Y-27456339D01*
X172999192Y-27016543D01*
X172626551Y-26526266D01*
X172558140Y-26399176D01*
X172376408Y-25868433D01*
X172354747Y-25343032D01*
X172483897Y-24828726D01*
X172754597Y-24331269D01*
X173157584Y-23856415D01*
X173683599Y-23409918D01*
X174323380Y-22997531D01*
X175067666Y-22625009D01*
X175907195Y-22298106D01*
X176832707Y-22022574D01*
X177834940Y-21804169D01*
X178904633Y-21648645D01*
X180032526Y-21561754D01*
X180362482Y-21550382D01*
X181485631Y-21522215D01*
X180748070Y-21958274D01*
X180748070Y-21958274D01*
G37*
X180748070Y-21958274D02*
X180256169Y-22288709D01*
X179709346Y-22722095D01*
X179148000Y-23221427D01*
X178612529Y-23749700D01*
X178143333Y-24269909D01*
X177922963Y-24546069D01*
X177465696Y-25212664D01*
X177092857Y-25878545D01*
X176810473Y-26524052D01*
X176624570Y-27129523D01*
X176541175Y-27675297D01*
X176566313Y-28141711D01*
X176706011Y-28509104D01*
X176707549Y-28511500D01*
X176789728Y-28649194D01*
X176807119Y-28697837D01*
X176720643Y-28676085D01*
X176507768Y-28621169D01*
X176205916Y-28542766D01*
X176022000Y-28494827D01*
X175029197Y-28193284D01*
X174196883Y-27847854D01*
X173521425Y-27456339D01*
X172999192Y-27016543D01*
X172626551Y-26526266D01*
X172558140Y-26399176D01*
X172376408Y-25868433D01*
X172354747Y-25343032D01*
X172483897Y-24828726D01*
X172754597Y-24331269D01*
X173157584Y-23856415D01*
X173683599Y-23409918D01*
X174323380Y-22997531D01*
X175067666Y-22625009D01*
X175907195Y-22298106D01*
X176832707Y-22022574D01*
X177834940Y-21804169D01*
X178904633Y-21648645D01*
X180032526Y-21561754D01*
X180362482Y-21550382D01*
X181485631Y-21522215D01*
X180748070Y-21958274D01*
D14*
X136154611Y-55887689D02*
X136087268Y-55887689D01*
X135952581Y-55820345D01*
X135885237Y-55753002D01*
X135817893Y-55618314D01*
X135817893Y-55483627D01*
X135851565Y-55382612D01*
X135952580Y-55214254D01*
X136053596Y-55113238D01*
X136221955Y-55012223D01*
X136322970Y-54978551D01*
X136457657Y-54978551D01*
X136592344Y-55045895D01*
X136659688Y-55113238D01*
X136727031Y-55247925D01*
X136727031Y-55315269D01*
X136760703Y-56628467D02*
X136356641Y-56224406D01*
X136558672Y-56426436D02*
X137265778Y-55719329D01*
X137097420Y-55753001D01*
X136962733Y-55753001D01*
X136861718Y-55719329D01*
X151090334Y-46585143D02*
X151042715Y-46632762D01*
X150899858Y-46680381D01*
X150804620Y-46680381D01*
X150661762Y-46632762D01*
X150566524Y-46537524D01*
X150518905Y-46442286D01*
X150471286Y-46251810D01*
X150471286Y-46108952D01*
X150518905Y-45918476D01*
X150566524Y-45823238D01*
X150661762Y-45728000D01*
X150804620Y-45680381D01*
X150899858Y-45680381D01*
X151042715Y-45728000D01*
X151090334Y-45775619D01*
X151471286Y-45775619D02*
X151518905Y-45728000D01*
X151614143Y-45680381D01*
X151852239Y-45680381D01*
X151947477Y-45728000D01*
X151995096Y-45775619D01*
X152042715Y-45870857D01*
X152042715Y-45966095D01*
X151995096Y-46108952D01*
X151423667Y-46680381D01*
X152042715Y-46680381D01*
X115911334Y-37314143D02*
X115863715Y-37361762D01*
X115720858Y-37409381D01*
X115625620Y-37409381D01*
X115482762Y-37361762D01*
X115387524Y-37266524D01*
X115339905Y-37171286D01*
X115292286Y-36980810D01*
X115292286Y-36837952D01*
X115339905Y-36647476D01*
X115387524Y-36552238D01*
X115482762Y-36457000D01*
X115625620Y-36409381D01*
X115720858Y-36409381D01*
X115863715Y-36457000D01*
X115911334Y-36504619D01*
X116244667Y-36409381D02*
X116863715Y-36409381D01*
X116530381Y-36790333D01*
X116673239Y-36790333D01*
X116768477Y-36837952D01*
X116816096Y-36885571D01*
X116863715Y-36980810D01*
X116863715Y-37218905D01*
X116816096Y-37314143D01*
X116768477Y-37361762D01*
X116673239Y-37409381D01*
X116387524Y-37409381D01*
X116292286Y-37361762D01*
X116244667Y-37314143D01*
X127714143Y-47918666D02*
X127761762Y-47966285D01*
X127809381Y-48109142D01*
X127809381Y-48204380D01*
X127761762Y-48347238D01*
X127666524Y-48442476D01*
X127571286Y-48490095D01*
X127380810Y-48537714D01*
X127237952Y-48537714D01*
X127047476Y-48490095D01*
X126952238Y-48442476D01*
X126857000Y-48347238D01*
X126809381Y-48204380D01*
X126809381Y-48109142D01*
X126857000Y-47966285D01*
X126904619Y-47918666D01*
X127142714Y-47061523D02*
X127809381Y-47061523D01*
X126761762Y-47299619D02*
X127476048Y-47537714D01*
X127476048Y-46918666D01*
X130897334Y-28805143D02*
X130849715Y-28852762D01*
X130706858Y-28900381D01*
X130611620Y-28900381D01*
X130468762Y-28852762D01*
X130373524Y-28757524D01*
X130325905Y-28662286D01*
X130278286Y-28471810D01*
X130278286Y-28328952D01*
X130325905Y-28138476D01*
X130373524Y-28043238D01*
X130468762Y-27948000D01*
X130611620Y-27900381D01*
X130706858Y-27900381D01*
X130849715Y-27948000D01*
X130897334Y-27995619D01*
X131802096Y-27900381D02*
X131325905Y-27900381D01*
X131278286Y-28376571D01*
X131325905Y-28328952D01*
X131421143Y-28281333D01*
X131659239Y-28281333D01*
X131754477Y-28328952D01*
X131802096Y-28376571D01*
X131849715Y-28471810D01*
X131849715Y-28709905D01*
X131802096Y-28805143D01*
X131754477Y-28852762D01*
X131659239Y-28900381D01*
X131421143Y-28900381D01*
X131325905Y-28852762D01*
X131278286Y-28805143D01*
X144105334Y-38838143D02*
X144057715Y-38885762D01*
X143914858Y-38933381D01*
X143819620Y-38933381D01*
X143676762Y-38885762D01*
X143581524Y-38790524D01*
X143533905Y-38695286D01*
X143486286Y-38504810D01*
X143486286Y-38361952D01*
X143533905Y-38171476D01*
X143581524Y-38076238D01*
X143676762Y-37981000D01*
X143819620Y-37933381D01*
X143914858Y-37933381D01*
X144057715Y-37981000D01*
X144105334Y-38028619D01*
X144962477Y-37933381D02*
X144772000Y-37933381D01*
X144676762Y-37981000D01*
X144629143Y-38028619D01*
X144533905Y-38171476D01*
X144486286Y-38361952D01*
X144486286Y-38742905D01*
X144533905Y-38838143D01*
X144581524Y-38885762D01*
X144676762Y-38933381D01*
X144867239Y-38933381D01*
X144962477Y-38885762D01*
X145010096Y-38838143D01*
X145057715Y-38742905D01*
X145057715Y-38504810D01*
X145010096Y-38409571D01*
X144962477Y-38361952D01*
X144867239Y-38314333D01*
X144676762Y-38314333D01*
X144581524Y-38361952D01*
X144533905Y-38409571D01*
X144486286Y-38504810D01*
X150931271Y-53049028D02*
X150863928Y-53049028D01*
X150729241Y-52981684D01*
X150661897Y-52914341D01*
X150594553Y-52779653D01*
X150594553Y-52644966D01*
X150628225Y-52543951D01*
X150729240Y-52375593D01*
X150830256Y-52274577D01*
X150998615Y-52173562D01*
X151099630Y-52139890D01*
X151234317Y-52139890D01*
X151369004Y-52207234D01*
X151436348Y-52274577D01*
X151503691Y-52409264D01*
X151503691Y-52476608D01*
X151806736Y-52644966D02*
X152278141Y-53116371D01*
X151267988Y-53520432D01*
X150883688Y-59933389D02*
X150883688Y-60000732D01*
X150816344Y-60135419D01*
X150749001Y-60202763D01*
X150614313Y-60270107D01*
X150479626Y-60270107D01*
X150378611Y-60236435D01*
X150210253Y-60135420D01*
X150109237Y-60034404D01*
X150008222Y-59866045D01*
X149974550Y-59765030D01*
X149974550Y-59630343D01*
X150041894Y-59495656D01*
X150109237Y-59428312D01*
X150243924Y-59360969D01*
X150311268Y-59360969D01*
X150951030Y-59192610D02*
X150850015Y-59226282D01*
X150782672Y-59226282D01*
X150681657Y-59192610D01*
X150647985Y-59158939D01*
X150614313Y-59057924D01*
X150614313Y-58990580D01*
X150647985Y-58889565D01*
X150782672Y-58754877D01*
X150883688Y-58721206D01*
X150951031Y-58721206D01*
X151052046Y-58754877D01*
X151085718Y-58788549D01*
X151119390Y-58889564D01*
X151119390Y-58956908D01*
X151085718Y-59057923D01*
X150951030Y-59192610D01*
X150917359Y-59293626D01*
X150917359Y-59360969D01*
X150951031Y-59461985D01*
X151085718Y-59596672D01*
X151186733Y-59630343D01*
X151254076Y-59630343D01*
X151355092Y-59596672D01*
X151489779Y-59461984D01*
X151523451Y-59360969D01*
X151523451Y-59293626D01*
X151489779Y-59192610D01*
X151355092Y-59057924D01*
X151254076Y-59024251D01*
X151186733Y-59024251D01*
X151085718Y-59057923D01*
X172902271Y-38825028D02*
X172834928Y-38825028D01*
X172700241Y-38757684D01*
X172632897Y-38690341D01*
X172565553Y-38555653D01*
X172565553Y-38420966D01*
X172599225Y-38319951D01*
X172700240Y-38151593D01*
X172801256Y-38050577D01*
X172969615Y-37949562D01*
X173070630Y-37915890D01*
X173205317Y-37915890D01*
X173340004Y-37983234D01*
X173407348Y-38050577D01*
X173474691Y-38185264D01*
X173474691Y-38252608D01*
X173171645Y-39229088D02*
X173306332Y-39363775D01*
X173407348Y-39397447D01*
X173474691Y-39397447D01*
X173643050Y-39363776D01*
X173811408Y-39262761D01*
X174080783Y-38993386D01*
X174114454Y-38892371D01*
X174114454Y-38825028D01*
X174080783Y-38724012D01*
X173946095Y-38589325D01*
X173845080Y-38555653D01*
X173777736Y-38555653D01*
X173676721Y-38589325D01*
X173508363Y-38757683D01*
X173474691Y-38858699D01*
X173474690Y-38926043D01*
X173508362Y-39027058D01*
X173643050Y-39161745D01*
X173744065Y-39195417D01*
X173811409Y-39195416D01*
X173912424Y-39161745D01*
X171350446Y-31685203D02*
X171283103Y-31685203D01*
X171148416Y-31617859D01*
X171081072Y-31550516D01*
X171013728Y-31415828D01*
X171013728Y-31281141D01*
X171047400Y-31180126D01*
X171148415Y-31011768D01*
X171249431Y-30910752D01*
X171417790Y-30809737D01*
X171518805Y-30776065D01*
X171653492Y-30776065D01*
X171788179Y-30843409D01*
X171855523Y-30910752D01*
X171922866Y-31045439D01*
X171922866Y-31112783D01*
X171956538Y-32425981D02*
X171552477Y-32021920D01*
X171754507Y-32223950D02*
X172461614Y-31516843D01*
X172293255Y-31550515D01*
X172158568Y-31550515D01*
X172057553Y-31516843D01*
X173101377Y-32156607D02*
X173168721Y-32223951D01*
X173202393Y-32324966D01*
X173202393Y-32392309D01*
X173168721Y-32493325D01*
X173067706Y-32661683D01*
X172899347Y-32830043D01*
X172730988Y-32931058D01*
X172629973Y-32964729D01*
X172562629Y-32964729D01*
X172461614Y-32931058D01*
X172394270Y-32863714D01*
X172360598Y-32762698D01*
X172360598Y-32695355D01*
X172394270Y-32594340D01*
X172495285Y-32425981D01*
X172663645Y-32257622D01*
X172832003Y-32156607D01*
X172933018Y-32122935D01*
X173000362Y-32122935D01*
X173101377Y-32156607D01*
X160226143Y-48029857D02*
X160273762Y-48077476D01*
X160321381Y-48220333D01*
X160321381Y-48315571D01*
X160273762Y-48458429D01*
X160178524Y-48553667D01*
X160083286Y-48601286D01*
X159892810Y-48648905D01*
X159749952Y-48648905D01*
X159559476Y-48601286D01*
X159464238Y-48553667D01*
X159369000Y-48458429D01*
X159321381Y-48315571D01*
X159321381Y-48220333D01*
X159369000Y-48077476D01*
X159416619Y-48029857D01*
X160321381Y-47077476D02*
X160321381Y-47648905D01*
X160321381Y-47363191D02*
X159321381Y-47363191D01*
X159464238Y-47458429D01*
X159559476Y-47553667D01*
X159607095Y-47648905D01*
X160321381Y-46125095D02*
X160321381Y-46696524D01*
X160321381Y-46410810D02*
X159321381Y-46410810D01*
X159464238Y-46506048D01*
X159559476Y-46601286D01*
X159607095Y-46696524D01*
X169425310Y-36603447D02*
X169425310Y-36670790D01*
X169357966Y-36805477D01*
X169290623Y-36872821D01*
X169155935Y-36940165D01*
X169021248Y-36940165D01*
X168920233Y-36906493D01*
X168751875Y-36805478D01*
X168650859Y-36704462D01*
X168549844Y-36536103D01*
X168516172Y-36435088D01*
X168516172Y-36300401D01*
X168583516Y-36165714D01*
X168650859Y-36098370D01*
X168785546Y-36031027D01*
X168852890Y-36031027D01*
X170166088Y-35997355D02*
X169762027Y-36401416D01*
X169964057Y-36199386D02*
X169256950Y-35492279D01*
X169290622Y-35660638D01*
X169290622Y-35795325D01*
X169256950Y-35896340D01*
X169795699Y-35088218D02*
X169795699Y-35020875D01*
X169829370Y-34919859D01*
X169997730Y-34751500D01*
X170098745Y-34717828D01*
X170166088Y-34717828D01*
X170267103Y-34751500D01*
X170334447Y-34818844D01*
X170401790Y-34953530D01*
X170401790Y-35761653D01*
X170839523Y-35323920D01*
X160226143Y-51966857D02*
X160273762Y-52014476D01*
X160321381Y-52157333D01*
X160321381Y-52252571D01*
X160273762Y-52395429D01*
X160178524Y-52490667D01*
X160083286Y-52538286D01*
X159892810Y-52585905D01*
X159749952Y-52585905D01*
X159559476Y-52538286D01*
X159464238Y-52490667D01*
X159369000Y-52395429D01*
X159321381Y-52252571D01*
X159321381Y-52157333D01*
X159369000Y-52014476D01*
X159416619Y-51966857D01*
X160321381Y-51014476D02*
X160321381Y-51585905D01*
X160321381Y-51300191D02*
X159321381Y-51300191D01*
X159464238Y-51395429D01*
X159559476Y-51490667D01*
X159607095Y-51585905D01*
X159321381Y-50681143D02*
X159321381Y-50062095D01*
X159702333Y-50395429D01*
X159702333Y-50252571D01*
X159749952Y-50157333D01*
X159797571Y-50109714D01*
X159892810Y-50062095D01*
X160130905Y-50062095D01*
X160226143Y-50109714D01*
X160273762Y-50157333D01*
X160321381Y-50252571D01*
X160321381Y-50538286D01*
X160273762Y-50633524D01*
X160226143Y-50681143D01*
X122451905Y-29662381D02*
X122451905Y-28662381D01*
X122690000Y-28662381D01*
X122832858Y-28710000D01*
X122928096Y-28805238D01*
X122975715Y-28900476D01*
X123023334Y-29090952D01*
X123023334Y-29233810D01*
X122975715Y-29424286D01*
X122928096Y-29519524D01*
X122832858Y-29614762D01*
X122690000Y-29662381D01*
X122451905Y-29662381D01*
X123975715Y-29662381D02*
X123404286Y-29662381D01*
X123690000Y-29662381D02*
X123690000Y-28662381D01*
X123594762Y-28805238D01*
X123499524Y-28900476D01*
X123404286Y-28948095D01*
X150693381Y-31218095D02*
X149693381Y-31218095D01*
X149693381Y-30980000D01*
X149741000Y-30837142D01*
X149836238Y-30741904D01*
X149931476Y-30694285D01*
X150121952Y-30646666D01*
X150264810Y-30646666D01*
X150455286Y-30694285D01*
X150550524Y-30741904D01*
X150645762Y-30837142D01*
X150693381Y-30980000D01*
X150693381Y-31218095D01*
X149788619Y-30265714D02*
X149741000Y-30218095D01*
X149693381Y-30122857D01*
X149693381Y-29884761D01*
X149741000Y-29789523D01*
X149788619Y-29741904D01*
X149883857Y-29694285D01*
X149979095Y-29694285D01*
X150121952Y-29741904D01*
X150693381Y-30313333D01*
X150693381Y-29694285D01*
X153487381Y-31218095D02*
X152487381Y-31218095D01*
X152487381Y-30980000D01*
X152535000Y-30837142D01*
X152630238Y-30741904D01*
X152725476Y-30694285D01*
X152915952Y-30646666D01*
X153058810Y-30646666D01*
X153249286Y-30694285D01*
X153344524Y-30741904D01*
X153439762Y-30837142D01*
X153487381Y-30980000D01*
X153487381Y-31218095D01*
X152487381Y-30313333D02*
X152487381Y-29694285D01*
X152868333Y-30027619D01*
X152868333Y-29884761D01*
X152915952Y-29789523D01*
X152963571Y-29741904D01*
X153058810Y-29694285D01*
X153296905Y-29694285D01*
X153392143Y-29741904D01*
X153439762Y-29789523D01*
X153487381Y-29884761D01*
X153487381Y-30170476D01*
X153439762Y-30265714D01*
X153392143Y-30313333D01*
X135326381Y-41505095D02*
X134326381Y-41505095D01*
X134326381Y-41267000D01*
X134374000Y-41124142D01*
X134469238Y-41028904D01*
X134564476Y-40981285D01*
X134754952Y-40933666D01*
X134897810Y-40933666D01*
X135088286Y-40981285D01*
X135183524Y-41028904D01*
X135278762Y-41124142D01*
X135326381Y-41267000D01*
X135326381Y-41505095D01*
X134659714Y-40076523D02*
X135326381Y-40076523D01*
X134278762Y-40314619D02*
X134993048Y-40552714D01*
X134993048Y-39933666D01*
X132659381Y-41378095D02*
X131659381Y-41378095D01*
X131659381Y-41140000D01*
X131707000Y-40997142D01*
X131802238Y-40901904D01*
X131897476Y-40854285D01*
X132087952Y-40806666D01*
X132230810Y-40806666D01*
X132421286Y-40854285D01*
X132516524Y-40901904D01*
X132611762Y-40997142D01*
X132659381Y-41140000D01*
X132659381Y-41378095D01*
X131659381Y-39901904D02*
X131659381Y-40378095D01*
X132135571Y-40425714D01*
X132087952Y-40378095D01*
X132040333Y-40282857D01*
X132040333Y-40044761D01*
X132087952Y-39949523D01*
X132135571Y-39901904D01*
X132230810Y-39854285D01*
X132468905Y-39854285D01*
X132564143Y-39901904D01*
X132611762Y-39949523D01*
X132659381Y-40044761D01*
X132659381Y-40282857D01*
X132611762Y-40378095D01*
X132564143Y-40425714D01*
X116125667Y-29519571D02*
X115792333Y-29519571D01*
X115792333Y-30043381D02*
X115792333Y-29043381D01*
X116268524Y-29043381D01*
X117173286Y-30043381D02*
X116601857Y-30043381D01*
X116887571Y-30043381D02*
X116887571Y-29043381D01*
X116792333Y-29186238D01*
X116697095Y-29281476D01*
X116601857Y-29329095D01*
X136281611Y-52445152D02*
X135574504Y-51738045D01*
X136955046Y-51637030D02*
X136955046Y-51704374D01*
X136887703Y-51839061D01*
X136820359Y-51906404D01*
X136685672Y-51973748D01*
X136550985Y-51973748D01*
X136449970Y-51940076D01*
X136281611Y-51839061D01*
X136180595Y-51738045D01*
X136079580Y-51569687D01*
X136045908Y-51468672D01*
X136045908Y-51333985D01*
X136113253Y-51199297D01*
X136180596Y-51131954D01*
X136315283Y-51064610D01*
X136382626Y-51064610D01*
X137695825Y-51030939D02*
X137291763Y-51435000D01*
X137493794Y-51232970D02*
X136786687Y-50525863D01*
X136820359Y-50694222D01*
X136820359Y-50828908D01*
X136786687Y-50929924D01*
X109521667Y-57618381D02*
X109521667Y-58332667D01*
X109474047Y-58475524D01*
X109378809Y-58570762D01*
X109235952Y-58618381D01*
X109140714Y-58618381D01*
X109950238Y-57713619D02*
X109997857Y-57666000D01*
X110093095Y-57618381D01*
X110331191Y-57618381D01*
X110426429Y-57666000D01*
X110474048Y-57713619D01*
X110521667Y-57808857D01*
X110521667Y-57904095D01*
X110474048Y-58046952D01*
X109902619Y-58618381D01*
X110521667Y-58618381D01*
X112966524Y-58491381D02*
X112395095Y-58491381D01*
X112680809Y-58491381D02*
X112680809Y-57491381D01*
X112585571Y-57634238D01*
X112490333Y-57729476D01*
X112395095Y-57777095D01*
X113823667Y-57824714D02*
X113823667Y-58491381D01*
X113585571Y-57443762D02*
X113347476Y-58158048D01*
X113966524Y-58158048D01*
X110902715Y-34361381D02*
X110331286Y-34361381D01*
X110617000Y-34361381D02*
X110617000Y-33361381D01*
X110521762Y-33504238D01*
X110426524Y-33599476D01*
X110331286Y-33647095D01*
X192198667Y-51903381D02*
X192198667Y-52617667D01*
X192151047Y-52760524D01*
X192055809Y-52855762D01*
X191912952Y-52903381D01*
X191817714Y-52903381D01*
X192579619Y-51903381D02*
X193198667Y-51903381D01*
X192865333Y-52284333D01*
X193008191Y-52284333D01*
X193103429Y-52331952D01*
X193151048Y-52379571D01*
X193198667Y-52474810D01*
X193198667Y-52712905D01*
X193151048Y-52808143D01*
X193103429Y-52855762D01*
X193008191Y-52903381D01*
X192722476Y-52903381D01*
X192627238Y-52855762D01*
X192579619Y-52808143D01*
X190182477Y-51903381D02*
X189992000Y-51903381D01*
X189896762Y-51951000D01*
X189849143Y-51998619D01*
X189753905Y-52141476D01*
X189706286Y-52331952D01*
X189706286Y-52712905D01*
X189753905Y-52808143D01*
X189801524Y-52855762D01*
X189896762Y-52903381D01*
X190087239Y-52903381D01*
X190182477Y-52855762D01*
X190230096Y-52808143D01*
X190277715Y-52712905D01*
X190277715Y-52474810D01*
X190230096Y-52379571D01*
X190182477Y-52331952D01*
X190087239Y-52284333D01*
X189896762Y-52284333D01*
X189801524Y-52331952D01*
X189753905Y-52379571D01*
X189706286Y-52474810D01*
X187737715Y-38933381D02*
X187166286Y-38933381D01*
X187452000Y-38933381D02*
X187452000Y-37933381D01*
X187356762Y-38076238D01*
X187261524Y-38171476D01*
X187166286Y-38219095D01*
X134834334Y-26741381D02*
X134358143Y-26741381D01*
X134358143Y-25741381D01*
X135691477Y-26741381D02*
X135120048Y-26741381D01*
X135405762Y-26741381D02*
X135405762Y-25741381D01*
X135310524Y-25884238D01*
X135215286Y-25979476D01*
X135120048Y-26027095D01*
X150693381Y-34329666D02*
X150217190Y-34663000D01*
X150693381Y-34901095D02*
X149693381Y-34901095D01*
X149693381Y-34520142D01*
X149741000Y-34424904D01*
X149788619Y-34377285D01*
X149883857Y-34329666D01*
X150026714Y-34329666D01*
X150121952Y-34377285D01*
X150169571Y-34424904D01*
X150217190Y-34520142D01*
X150217190Y-34901095D01*
X150693381Y-33377285D02*
X150693381Y-33948714D01*
X150693381Y-33663000D02*
X149693381Y-33663000D01*
X149836238Y-33758238D01*
X149931476Y-33853476D01*
X149979095Y-33948714D01*
X149312334Y-41473381D02*
X148979000Y-40997190D01*
X148740905Y-41473381D02*
X148740905Y-40473381D01*
X149121858Y-40473381D01*
X149217096Y-40521000D01*
X149264715Y-40568619D01*
X149312334Y-40663857D01*
X149312334Y-40806714D01*
X149264715Y-40901952D01*
X149217096Y-40949571D01*
X149121858Y-40997190D01*
X148740905Y-40997190D01*
X149693286Y-40568619D02*
X149740905Y-40521000D01*
X149836143Y-40473381D01*
X150074239Y-40473381D01*
X150169477Y-40521000D01*
X150217096Y-40568619D01*
X150264715Y-40663857D01*
X150264715Y-40759095D01*
X150217096Y-40901952D01*
X149645667Y-41473381D01*
X150264715Y-41473381D01*
X127087334Y-28900381D02*
X126754000Y-28424190D01*
X126515905Y-28900381D02*
X126515905Y-27900381D01*
X126896858Y-27900381D01*
X126992096Y-27948000D01*
X127039715Y-27995619D01*
X127087334Y-28090857D01*
X127087334Y-28233714D01*
X127039715Y-28328952D01*
X126992096Y-28376571D01*
X126896858Y-28424190D01*
X126515905Y-28424190D01*
X127420667Y-27900381D02*
X128039715Y-27900381D01*
X127706381Y-28281333D01*
X127849239Y-28281333D01*
X127944477Y-28328952D01*
X127992096Y-28376571D01*
X128039715Y-28471810D01*
X128039715Y-28709905D01*
X127992096Y-28805143D01*
X127944477Y-28852762D01*
X127849239Y-28900381D01*
X127563524Y-28900381D01*
X127468286Y-28852762D01*
X127420667Y-28805143D01*
X130627381Y-34583666D02*
X130151190Y-34917000D01*
X130627381Y-35155095D02*
X129627381Y-35155095D01*
X129627381Y-34774142D01*
X129675000Y-34678904D01*
X129722619Y-34631285D01*
X129817857Y-34583666D01*
X129960714Y-34583666D01*
X130055952Y-34631285D01*
X130103571Y-34678904D01*
X130151190Y-34774142D01*
X130151190Y-35155095D01*
X129960714Y-33726523D02*
X130627381Y-33726523D01*
X129579762Y-33964619D02*
X130294048Y-34202714D01*
X130294048Y-33583666D01*
X130754381Y-32043666D02*
X130278190Y-32377000D01*
X130754381Y-32615095D02*
X129754381Y-32615095D01*
X129754381Y-32234142D01*
X129802000Y-32138904D01*
X129849619Y-32091285D01*
X129944857Y-32043666D01*
X130087714Y-32043666D01*
X130182952Y-32091285D01*
X130230571Y-32138904D01*
X130278190Y-32234142D01*
X130278190Y-32615095D01*
X129754381Y-31138904D02*
X129754381Y-31615095D01*
X130230571Y-31662714D01*
X130182952Y-31615095D01*
X130135333Y-31519857D01*
X130135333Y-31281761D01*
X130182952Y-31186523D01*
X130230571Y-31138904D01*
X130325810Y-31091285D01*
X130563905Y-31091285D01*
X130659143Y-31138904D01*
X130706762Y-31186523D01*
X130754381Y-31281761D01*
X130754381Y-31519857D01*
X130706762Y-31615095D01*
X130659143Y-31662714D01*
X144105334Y-27122381D02*
X143772000Y-26646190D01*
X143533905Y-27122381D02*
X143533905Y-26122381D01*
X143914858Y-26122381D01*
X144010096Y-26170000D01*
X144057715Y-26217619D01*
X144105334Y-26312857D01*
X144105334Y-26455714D01*
X144057715Y-26550952D01*
X144010096Y-26598571D01*
X143914858Y-26646190D01*
X143533905Y-26646190D01*
X144962477Y-26122381D02*
X144772000Y-26122381D01*
X144676762Y-26170000D01*
X144629143Y-26217619D01*
X144533905Y-26360476D01*
X144486286Y-26550952D01*
X144486286Y-26931905D01*
X144533905Y-27027143D01*
X144581524Y-27074762D01*
X144676762Y-27122381D01*
X144867239Y-27122381D01*
X144962477Y-27074762D01*
X145010096Y-27027143D01*
X145057715Y-26931905D01*
X145057715Y-26693810D01*
X145010096Y-26598571D01*
X144962477Y-26550952D01*
X144867239Y-26503333D01*
X144676762Y-26503333D01*
X144581524Y-26550952D01*
X144533905Y-26598571D01*
X144486286Y-26693810D01*
X153487381Y-34456666D02*
X153011190Y-34790000D01*
X153487381Y-35028095D02*
X152487381Y-35028095D01*
X152487381Y-34647142D01*
X152535000Y-34551904D01*
X152582619Y-34504285D01*
X152677857Y-34456666D01*
X152820714Y-34456666D01*
X152915952Y-34504285D01*
X152963571Y-34551904D01*
X153011190Y-34647142D01*
X153011190Y-35028095D01*
X152487381Y-34123333D02*
X152487381Y-33456666D01*
X153487381Y-33885238D01*
X127087334Y-39949381D02*
X126754000Y-39473190D01*
X126515905Y-39949381D02*
X126515905Y-38949381D01*
X126896858Y-38949381D01*
X126992096Y-38997000D01*
X127039715Y-39044619D01*
X127087334Y-39139857D01*
X127087334Y-39282714D01*
X127039715Y-39377952D01*
X126992096Y-39425571D01*
X126896858Y-39473190D01*
X126515905Y-39473190D01*
X127658762Y-39377952D02*
X127563524Y-39330333D01*
X127515905Y-39282714D01*
X127468286Y-39187476D01*
X127468286Y-39139857D01*
X127515905Y-39044619D01*
X127563524Y-38997000D01*
X127658762Y-38949381D01*
X127849239Y-38949381D01*
X127944477Y-38997000D01*
X127992096Y-39044619D01*
X128039715Y-39139857D01*
X128039715Y-39187476D01*
X127992096Y-39282714D01*
X127944477Y-39330333D01*
X127849239Y-39377952D01*
X127658762Y-39377952D01*
X127563524Y-39425571D01*
X127515905Y-39473190D01*
X127468286Y-39568429D01*
X127468286Y-39758905D01*
X127515905Y-39854143D01*
X127563524Y-39901762D01*
X127658762Y-39949381D01*
X127849239Y-39949381D01*
X127944477Y-39901762D01*
X127992096Y-39854143D01*
X128039715Y-39758905D01*
X128039715Y-39568429D01*
X127992096Y-39473190D01*
X127944477Y-39425571D01*
X127849239Y-39377952D01*
X127087334Y-42362381D02*
X126754000Y-41886190D01*
X126515905Y-42362381D02*
X126515905Y-41362381D01*
X126896858Y-41362381D01*
X126992096Y-41410000D01*
X127039715Y-41457619D01*
X127087334Y-41552857D01*
X127087334Y-41695714D01*
X127039715Y-41790952D01*
X126992096Y-41838571D01*
X126896858Y-41886190D01*
X126515905Y-41886190D01*
X127563524Y-42362381D02*
X127754000Y-42362381D01*
X127849239Y-42314762D01*
X127896858Y-42267143D01*
X127992096Y-42124286D01*
X128039715Y-41933810D01*
X128039715Y-41552857D01*
X127992096Y-41457619D01*
X127944477Y-41410000D01*
X127849239Y-41362381D01*
X127658762Y-41362381D01*
X127563524Y-41410000D01*
X127515905Y-41457619D01*
X127468286Y-41552857D01*
X127468286Y-41790952D01*
X127515905Y-41886190D01*
X127563524Y-41933810D01*
X127658762Y-41981429D01*
X127849239Y-41981429D01*
X127944477Y-41933810D01*
X127992096Y-41886190D01*
X128039715Y-41790952D01*
X135755143Y-47315381D02*
X135421809Y-46839190D01*
X135183714Y-47315381D02*
X135183714Y-46315381D01*
X135564667Y-46315381D01*
X135659905Y-46363000D01*
X135707524Y-46410619D01*
X135755143Y-46505857D01*
X135755143Y-46648714D01*
X135707524Y-46743952D01*
X135659905Y-46791571D01*
X135564667Y-46839190D01*
X135183714Y-46839190D01*
X136707524Y-47315381D02*
X136136095Y-47315381D01*
X136421809Y-47315381D02*
X136421809Y-46315381D01*
X136326571Y-46458238D01*
X136231333Y-46553476D01*
X136136095Y-46601095D01*
X137326571Y-46315381D02*
X137421810Y-46315381D01*
X137517048Y-46363000D01*
X137564667Y-46410619D01*
X137612286Y-46505857D01*
X137659905Y-46696333D01*
X137659905Y-46934429D01*
X137612286Y-47124905D01*
X137564667Y-47220143D01*
X137517048Y-47267762D01*
X137421810Y-47315381D01*
X137326571Y-47315381D01*
X137231333Y-47267762D01*
X137183714Y-47220143D01*
X137136095Y-47124905D01*
X137088476Y-46934429D01*
X137088476Y-46696333D01*
X137136095Y-46505857D01*
X137183714Y-46410619D01*
X137231333Y-46363000D01*
X137326571Y-46315381D01*
X132834143Y-47188381D02*
X132500809Y-46712190D01*
X132262714Y-47188381D02*
X132262714Y-46188381D01*
X132643667Y-46188381D01*
X132738905Y-46236000D01*
X132786524Y-46283619D01*
X132834143Y-46378857D01*
X132834143Y-46521714D01*
X132786524Y-46616952D01*
X132738905Y-46664571D01*
X132643667Y-46712190D01*
X132262714Y-46712190D01*
X133786524Y-47188381D02*
X133215095Y-47188381D01*
X133500809Y-47188381D02*
X133500809Y-46188381D01*
X133405571Y-46331238D01*
X133310333Y-46426476D01*
X133215095Y-46474095D01*
X134738905Y-47188381D02*
X134167476Y-47188381D01*
X134453190Y-47188381D02*
X134453190Y-46188381D01*
X134357952Y-46331238D01*
X134262714Y-46426476D01*
X134167476Y-46474095D01*
X140913381Y-43507857D02*
X140437190Y-43841191D01*
X140913381Y-44079286D02*
X139913381Y-44079286D01*
X139913381Y-43698333D01*
X139961000Y-43603095D01*
X140008619Y-43555476D01*
X140103857Y-43507857D01*
X140246714Y-43507857D01*
X140341952Y-43555476D01*
X140389571Y-43603095D01*
X140437190Y-43698333D01*
X140437190Y-44079286D01*
X140913381Y-42555476D02*
X140913381Y-43126905D01*
X140913381Y-42841191D02*
X139913381Y-42841191D01*
X140056238Y-42936429D01*
X140151476Y-43031667D01*
X140199095Y-43126905D01*
X140008619Y-42174524D02*
X139961000Y-42126905D01*
X139913381Y-42031667D01*
X139913381Y-41793571D01*
X139961000Y-41698333D01*
X140008619Y-41650714D01*
X140103857Y-41603095D01*
X140199095Y-41603095D01*
X140341952Y-41650714D01*
X140913381Y-42222143D01*
X140913381Y-41603095D01*
X162679143Y-34995381D02*
X162345809Y-34519190D01*
X162107714Y-34995381D02*
X162107714Y-33995381D01*
X162488667Y-33995381D01*
X162583905Y-34043000D01*
X162631524Y-34090619D01*
X162679143Y-34185857D01*
X162679143Y-34328714D01*
X162631524Y-34423952D01*
X162583905Y-34471571D01*
X162488667Y-34519190D01*
X162107714Y-34519190D01*
X163631524Y-34995381D02*
X163060095Y-34995381D01*
X163345809Y-34995381D02*
X163345809Y-33995381D01*
X163250571Y-34138238D01*
X163155333Y-34233476D01*
X163060095Y-34281095D01*
X163964857Y-33995381D02*
X164583905Y-33995381D01*
X164250571Y-34376333D01*
X164393429Y-34376333D01*
X164488667Y-34423952D01*
X164536286Y-34471571D01*
X164583905Y-34566810D01*
X164583905Y-34804905D01*
X164536286Y-34900143D01*
X164488667Y-34947762D01*
X164393429Y-34995381D01*
X164107714Y-34995381D01*
X164012476Y-34947762D01*
X163964857Y-34900143D01*
X154631381Y-47823357D02*
X154155190Y-48156691D01*
X154631381Y-48394786D02*
X153631381Y-48394786D01*
X153631381Y-48013833D01*
X153679000Y-47918595D01*
X153726619Y-47870976D01*
X153821857Y-47823357D01*
X153964714Y-47823357D01*
X154059952Y-47870976D01*
X154107571Y-47918595D01*
X154155190Y-48013833D01*
X154155190Y-48394786D01*
X154631381Y-46870976D02*
X154631381Y-47442405D01*
X154631381Y-47156691D02*
X153631381Y-47156691D01*
X153774238Y-47251929D01*
X153869476Y-47347167D01*
X153917095Y-47442405D01*
X153964714Y-46013833D02*
X154631381Y-46013833D01*
X153583762Y-46251929D02*
X154298048Y-46490024D01*
X154298048Y-45870976D01*
X154631381Y-51762857D02*
X154155190Y-52096191D01*
X154631381Y-52334286D02*
X153631381Y-52334286D01*
X153631381Y-51953333D01*
X153679000Y-51858095D01*
X153726619Y-51810476D01*
X153821857Y-51762857D01*
X153964714Y-51762857D01*
X154059952Y-51810476D01*
X154107571Y-51858095D01*
X154155190Y-51953333D01*
X154155190Y-52334286D01*
X154631381Y-50810476D02*
X154631381Y-51381905D01*
X154631381Y-51096191D02*
X153631381Y-51096191D01*
X153774238Y-51191429D01*
X153869476Y-51286667D01*
X153917095Y-51381905D01*
X153631381Y-49905714D02*
X153631381Y-50381905D01*
X154107571Y-50429524D01*
X154059952Y-50381905D01*
X154012333Y-50286667D01*
X154012333Y-50048571D01*
X154059952Y-49953333D01*
X154107571Y-49905714D01*
X154202810Y-49858095D01*
X154440905Y-49858095D01*
X154536143Y-49905714D01*
X154583762Y-49953333D01*
X154631381Y-50048571D01*
X154631381Y-50286667D01*
X154583762Y-50381905D01*
X154536143Y-50429524D01*
X119507095Y-50577381D02*
X119507095Y-51386905D01*
X119554714Y-51482143D01*
X119602333Y-51529762D01*
X119697571Y-51577381D01*
X119888048Y-51577381D01*
X119983286Y-51529762D01*
X120030905Y-51482143D01*
X120078524Y-51386905D01*
X120078524Y-50577381D01*
X121078524Y-51577381D02*
X120507095Y-51577381D01*
X120792809Y-51577381D02*
X120792809Y-50577381D01*
X120697571Y-50720238D01*
X120602333Y-50815476D01*
X120507095Y-50863095D01*
X127127095Y-35520381D02*
X127127095Y-36329905D01*
X127174714Y-36425143D01*
X127222333Y-36472762D01*
X127317571Y-36520381D01*
X127508048Y-36520381D01*
X127603286Y-36472762D01*
X127650905Y-36425143D01*
X127698524Y-36329905D01*
X127698524Y-35520381D01*
X128127095Y-35615619D02*
X128174714Y-35568000D01*
X128269952Y-35520381D01*
X128508048Y-35520381D01*
X128603286Y-35568000D01*
X128650905Y-35615619D01*
X128698524Y-35710857D01*
X128698524Y-35806095D01*
X128650905Y-35948952D01*
X128079476Y-36520381D01*
X128698524Y-36520381D01*
X168071023Y-47101519D02*
X168643443Y-47673939D01*
X168744458Y-47707611D01*
X168811801Y-47707611D01*
X168912816Y-47673939D01*
X169047504Y-47539251D01*
X169081176Y-47438236D01*
X169081176Y-47370893D01*
X169047504Y-47269878D01*
X168475084Y-46697458D01*
X168744458Y-46428084D02*
X169182191Y-45990351D01*
X169215862Y-46495427D01*
X169316878Y-46394412D01*
X169417893Y-46360740D01*
X169485236Y-46360740D01*
X169586252Y-46394412D01*
X169754611Y-46562771D01*
X169788282Y-46663786D01*
X169788282Y-46731129D01*
X169754611Y-46832145D01*
X169552580Y-47034176D01*
X169451565Y-47067847D01*
X169384221Y-47067847D01*
X150003657Y-57893880D02*
X150340375Y-58230598D01*
X149397566Y-57759193D02*
X150003657Y-57893880D01*
X149868971Y-57287788D01*
X151182169Y-57388803D02*
X150778108Y-57792865D01*
X150980138Y-57590834D02*
X150273031Y-56883727D01*
X150306703Y-57052086D01*
X150306703Y-57186773D01*
X150273031Y-57287788D01*
X166069435Y-33967370D02*
X166406153Y-34304088D01*
X165463344Y-33832683D02*
X166069435Y-33967370D01*
X165934749Y-33361278D01*
X166204122Y-33226591D02*
X166204122Y-33159248D01*
X166237794Y-33058233D01*
X166406153Y-32889873D01*
X166507169Y-32856202D01*
X166574512Y-32856202D01*
X166675527Y-32889873D01*
X166742871Y-32957217D01*
X166810214Y-33091904D01*
X166810214Y-33900026D01*
X167247947Y-33462293D01*
X165933381Y-26392095D02*
X164933381Y-26392095D01*
X164933381Y-26154000D01*
X164981000Y-26011142D01*
X165076238Y-25915904D01*
X165171476Y-25868285D01*
X165361952Y-25820666D01*
X165504810Y-25820666D01*
X165695286Y-25868285D01*
X165790524Y-25915904D01*
X165885762Y-26011142D01*
X165933381Y-26154000D01*
X165933381Y-26392095D01*
X164933381Y-24963523D02*
X164933381Y-25154000D01*
X164981000Y-25249238D01*
X165028619Y-25296857D01*
X165171476Y-25392095D01*
X165361952Y-25439714D01*
X165742905Y-25439714D01*
X165838143Y-25392095D01*
X165885762Y-25344476D01*
X165933381Y-25249238D01*
X165933381Y-25058761D01*
X165885762Y-24963523D01*
X165838143Y-24915904D01*
X165742905Y-24868285D01*
X165504810Y-24868285D01*
X165409571Y-24915904D01*
X165361952Y-24963523D01*
X165314333Y-25058761D01*
X165314333Y-25249238D01*
X165361952Y-25344476D01*
X165409571Y-25392095D01*
X165504810Y-25439714D01*
X160726381Y-26392095D02*
X159726381Y-26392095D01*
X159726381Y-26154000D01*
X159774000Y-26011142D01*
X159869238Y-25915904D01*
X159964476Y-25868285D01*
X160154952Y-25820666D01*
X160297810Y-25820666D01*
X160488286Y-25868285D01*
X160583524Y-25915904D01*
X160678762Y-26011142D01*
X160726381Y-26154000D01*
X160726381Y-26392095D01*
X159726381Y-25487333D02*
X159726381Y-24820666D01*
X160726381Y-25249238D01*
X166060381Y-30487857D02*
X165584190Y-30821191D01*
X166060381Y-31059286D02*
X165060381Y-31059286D01*
X165060381Y-30678333D01*
X165108000Y-30583095D01*
X165155619Y-30535476D01*
X165250857Y-30487857D01*
X165393714Y-30487857D01*
X165488952Y-30535476D01*
X165536571Y-30583095D01*
X165584190Y-30678333D01*
X165584190Y-31059286D01*
X166060381Y-29535476D02*
X166060381Y-30106905D01*
X166060381Y-29821191D02*
X165060381Y-29821191D01*
X165203238Y-29916429D01*
X165298476Y-30011667D01*
X165346095Y-30106905D01*
X165060381Y-28678333D02*
X165060381Y-28868810D01*
X165108000Y-28964048D01*
X165155619Y-29011667D01*
X165298476Y-29106905D01*
X165488952Y-29154524D01*
X165869905Y-29154524D01*
X165965143Y-29106905D01*
X166012762Y-29059286D01*
X166060381Y-28964048D01*
X166060381Y-28773571D01*
X166012762Y-28678333D01*
X165965143Y-28630714D01*
X165869905Y-28583095D01*
X165631810Y-28583095D01*
X165536571Y-28630714D01*
X165488952Y-28678333D01*
X165441333Y-28773571D01*
X165441333Y-28964048D01*
X165488952Y-29059286D01*
X165536571Y-29106905D01*
X165631810Y-29154524D01*
X160726381Y-30487857D02*
X160250190Y-30821191D01*
X160726381Y-31059286D02*
X159726381Y-31059286D01*
X159726381Y-30678333D01*
X159774000Y-30583095D01*
X159821619Y-30535476D01*
X159916857Y-30487857D01*
X160059714Y-30487857D01*
X160154952Y-30535476D01*
X160202571Y-30583095D01*
X160250190Y-30678333D01*
X160250190Y-31059286D01*
X160726381Y-29535476D02*
X160726381Y-30106905D01*
X160726381Y-29821191D02*
X159726381Y-29821191D01*
X159869238Y-29916429D01*
X159964476Y-30011667D01*
X160012095Y-30106905D01*
X159726381Y-29202143D02*
X159726381Y-28535476D01*
X160726381Y-28964048D01*
M02*
