G04 #@! TF.FileFunction,Legend,Bot*
%FSLAX46Y46*%
G04 Gerber Fmt 4.6, Leading zero omitted, Abs format (unit mm)*
G04 Created by KiCad (PCBNEW 4.0.7-e2-6376~58~ubuntu16.04.1) date Mon Feb 19 20:22:05 2018*
%MOMM*%
%LPD*%
G01*
G04 APERTURE LIST*
%ADD10C,0.100000*%
%ADD11C,0.150000*%
G04 APERTURE END LIST*
D10*
D11*
X178325000Y-34271000D02*
X183625000Y-34271000D01*
X178325000Y-51581000D02*
X183625000Y-51581000D01*
X178325000Y-34271000D02*
X178325000Y-51581000D01*
X183625000Y-34271000D02*
X183625000Y-51581000D01*
X133731000Y-49657000D02*
X133731000Y-54737000D01*
X134011000Y-46837000D02*
X132461000Y-46837000D01*
X131191000Y-47117000D02*
X131191000Y-49657000D01*
X131191000Y-49657000D02*
X133731000Y-49657000D01*
X133731000Y-54737000D02*
X128651000Y-54737000D01*
X128651000Y-54737000D02*
X128651000Y-49657000D01*
X134011000Y-46837000D02*
X134011000Y-48387000D01*
X128651000Y-47117000D02*
X131191000Y-47117000D01*
X128651000Y-49657000D02*
X128651000Y-47117000D01*
X154559000Y-34417000D02*
X154559000Y-29337000D01*
X154279000Y-37237000D02*
X155829000Y-37237000D01*
X157099000Y-36957000D02*
X157099000Y-34417000D01*
X157099000Y-34417000D02*
X154559000Y-34417000D01*
X154559000Y-29337000D02*
X159639000Y-29337000D01*
X159639000Y-29337000D02*
X159639000Y-34417000D01*
X154279000Y-37237000D02*
X154279000Y-35687000D01*
X159639000Y-36957000D02*
X157099000Y-36957000D01*
X159639000Y-34417000D02*
X159639000Y-36957000D01*
X185118333Y-37933381D02*
X185118333Y-38647667D01*
X185165953Y-38790524D01*
X185261191Y-38885762D01*
X185404048Y-38933381D01*
X185499286Y-38933381D01*
X184118333Y-38933381D02*
X184689762Y-38933381D01*
X184404048Y-38933381D02*
X184404048Y-37933381D01*
X184499286Y-38076238D01*
X184594524Y-38171476D01*
X184689762Y-38219095D01*
X182435476Y-33853381D02*
X183006905Y-33853381D01*
X182721191Y-33853381D02*
X182721191Y-32853381D01*
X182816429Y-32996238D01*
X182911667Y-33091476D01*
X183006905Y-33139095D01*
X181816429Y-32853381D02*
X181721190Y-32853381D01*
X181625952Y-32901000D01*
X181578333Y-32948619D01*
X181530714Y-33043857D01*
X181483095Y-33234333D01*
X181483095Y-33472429D01*
X181530714Y-33662905D01*
X181578333Y-33758143D01*
X181625952Y-33805762D01*
X181721190Y-33853381D01*
X181816429Y-33853381D01*
X181911667Y-33805762D01*
X181959286Y-33758143D01*
X182006905Y-33662905D01*
X182054524Y-33472429D01*
X182054524Y-33234333D01*
X182006905Y-33043857D01*
X181959286Y-32948619D01*
X181911667Y-32901000D01*
X181816429Y-32853381D01*
X179419285Y-52903381D02*
X179990714Y-52903381D01*
X179705000Y-52903381D02*
X179705000Y-51903381D01*
X179800238Y-52046238D01*
X179895476Y-52141476D01*
X179990714Y-52189095D01*
X131421095Y-46299381D02*
X131421095Y-45299381D01*
X131040142Y-45299381D01*
X130944904Y-45347000D01*
X130897285Y-45394619D01*
X130849666Y-45489857D01*
X130849666Y-45632714D01*
X130897285Y-45727952D01*
X130944904Y-45775571D01*
X131040142Y-45823190D01*
X131421095Y-45823190D01*
X129897285Y-46299381D02*
X130468714Y-46299381D01*
X130183000Y-46299381D02*
X130183000Y-45299381D01*
X130278238Y-45442238D01*
X130373476Y-45537476D01*
X130468714Y-45585095D01*
X158345095Y-38679381D02*
X158345095Y-37679381D01*
X157964142Y-37679381D01*
X157868904Y-37727000D01*
X157821285Y-37774619D01*
X157773666Y-37869857D01*
X157773666Y-38012714D01*
X157821285Y-38107952D01*
X157868904Y-38155571D01*
X157964142Y-38203190D01*
X158345095Y-38203190D01*
X157392714Y-37774619D02*
X157345095Y-37727000D01*
X157249857Y-37679381D01*
X157011761Y-37679381D01*
X156916523Y-37727000D01*
X156868904Y-37774619D01*
X156821285Y-37869857D01*
X156821285Y-37965095D01*
X156868904Y-38107952D01*
X157440333Y-38679381D01*
X156821285Y-38679381D01*
M02*
