M48
;DRILL file {KiCad 4.0.7-e2-6376~58~ubuntu16.04.1} date Mon Feb 19 20:22:09 2018
;FORMAT={-:-/ absolute / inch / decimal}
FMAT,2
INCH,TZ
T1C0.012
T2C0.031
T3C0.040
%
G90
G05
M72
T1
X4.525Y-1.35
X4.57Y-1.95
X4.745Y-1.915
X4.85Y-1.45
X4.915Y-1.66
X4.93Y-1.965
X4.955Y-1.775
X5.Y-1.245
X5.005Y-1.92
X5.02Y-1.84
X5.05Y-1.905
X5.115Y-1.165
X5.125Y-1.305
X5.195Y-1.65
X5.2Y-1.56
X5.205Y-1.32
X5.325Y-1.955
X5.325Y-2.085
X5.35Y-2.16
X5.41Y-1.595
X5.415Y-1.74
X5.435Y-1.84
X5.445Y-2.06
X5.495Y-2.12
X5.51Y-1.56
X5.52Y-1.69
X5.53Y-1.625
X5.53Y-1.6545
X5.58Y-1.94
X5.605Y-1.415
X5.61Y-1.625
X5.625Y-2.06
X5.745Y-1.8873
X5.78Y-1.92
X5.805Y-1.45
X5.825Y-1.79
X5.86Y-1.39
X5.935Y-1.89
X5.96Y-1.92
X5.97Y-2.3
X5.98Y-2.115
X6.Y-1.755
X6.01Y-1.11
X6.055Y-1.355
X6.285Y-1.905
X6.285Y-2.06
X6.335Y-1.85
X6.355Y-1.295
X6.395Y-1.445
X6.46Y-1.635
X6.465Y-1.39
X6.505Y-0.965
X6.635Y-1.51
X6.785Y-1.465
X6.8Y-1.285
X6.845Y-1.56
T2
X4.355Y-1.485
X4.355Y-1.585
X4.355Y-1.685
X4.355Y-1.785
X4.355Y-1.885
X4.355Y-1.985
X4.355Y-2.085
X4.455Y-1.535
X4.455Y-1.635
X4.455Y-1.735
X4.455Y-1.835
X4.455Y-1.935
X4.455Y-2.035
X4.455Y-2.135
X7.075Y-1.515
X7.075Y-1.615
X7.075Y-1.715
X7.075Y-1.815
X7.075Y-1.915
X7.175Y-1.465
X7.175Y-1.565
X7.175Y-1.665
X7.175Y-1.765
X7.175Y-1.865
X7.38Y-1.665
X7.38Y-1.765
X7.38Y-1.865
X7.48Y-1.715
X7.48Y-1.815
X7.48Y-1.915
T3
X5.115Y-1.905
X5.115Y-2.005
X5.115Y-2.105
X5.215Y-1.905
X5.215Y-2.005
X5.215Y-2.105
X6.135Y-1.205
X6.135Y-1.305
X6.135Y-1.405
X6.235Y-1.205
X6.235Y-1.305
X6.235Y-1.405
T0
M30
