G04 #@! TF.FileFunction,Copper,L1,Top,Signal*
%FSLAX46Y46*%
G04 Gerber Fmt 4.6, Leading zero omitted, Abs format (unit mm)*
G04 Created by KiCad (PCBNEW 4.0.7-e2-6376~58~ubuntu16.04.1) date Mon Feb 19 20:22:05 2018*
%MOMM*%
%LPD*%
G01*
G04 APERTURE LIST*
%ADD10C,0.100000*%
%ADD11R,1.000000X1.250000*%
%ADD12R,1.000000X1.600000*%
%ADD13R,1.250000X1.000000*%
%ADD14R,2.159000X1.778000*%
%ADD15R,1.200000X1.200000*%
%ADD16R,0.900000X2.500000*%
%ADD17C,1.300000*%
%ADD18R,3.300000X8.200000*%
%ADD19R,1.727200X1.727200*%
%ADD20O,1.727200X1.727200*%
%ADD21R,1.300000X0.700000*%
%ADD22R,0.700000X1.300000*%
%ADD23R,3.200000X1.000000*%
%ADD24R,1.550000X0.600000*%
%ADD25R,1.060000X0.650000*%
%ADD26C,0.600000*%
%ADD27C,0.254000*%
%ADD28C,0.508000*%
%ADD29C,0.762000*%
G04 APERTURE END LIST*
D10*
G36*
X139043602Y-55228719D02*
X138159719Y-56112602D01*
X137452612Y-55405495D01*
X138336495Y-54521612D01*
X139043602Y-55228719D01*
X139043602Y-55228719D01*
G37*
G36*
X137629388Y-53814505D02*
X136745505Y-54698388D01*
X136038398Y-53991281D01*
X136922281Y-53107398D01*
X137629388Y-53814505D01*
X137629388Y-53814505D01*
G37*
D11*
X149172200Y-44574486D03*
X151172200Y-44574486D03*
D12*
X119126000Y-35052000D03*
X116126000Y-35052000D03*
D13*
X125857000Y-46752000D03*
X125857000Y-48752000D03*
D11*
X132969000Y-29972000D03*
X130969000Y-29972000D03*
X144272000Y-36830000D03*
X146272000Y-36830000D03*
D10*
G36*
X148738398Y-53356281D02*
X149622281Y-52472398D01*
X150329388Y-53179505D01*
X149445505Y-54063388D01*
X148738398Y-53356281D01*
X148738398Y-53356281D01*
G37*
G36*
X150152612Y-54770495D02*
X151036495Y-53886612D01*
X151743602Y-54593719D01*
X150859719Y-55477602D01*
X150152612Y-54770495D01*
X150152612Y-54770495D01*
G37*
G36*
X149368281Y-59668602D02*
X148484398Y-58784719D01*
X149191505Y-58077612D01*
X150075388Y-58961495D01*
X149368281Y-59668602D01*
X149368281Y-59668602D01*
G37*
G36*
X150782495Y-58254388D02*
X149898612Y-57370505D01*
X150605719Y-56663398D01*
X151489602Y-57547281D01*
X150782495Y-58254388D01*
X150782495Y-58254388D01*
G37*
G36*
X170709398Y-39132281D02*
X171593281Y-38248398D01*
X172300388Y-38955505D01*
X171416505Y-39839388D01*
X170709398Y-39132281D01*
X170709398Y-39132281D01*
G37*
G36*
X172123612Y-40546495D02*
X173007495Y-39662612D01*
X173714602Y-40369719D01*
X172830719Y-41253602D01*
X172123612Y-40546495D01*
X172123612Y-40546495D01*
G37*
G36*
X169494291Y-32329174D02*
X170378174Y-31445291D01*
X171085281Y-32152398D01*
X170201398Y-33036281D01*
X169494291Y-32329174D01*
X169494291Y-32329174D01*
G37*
G36*
X170908505Y-33743388D02*
X171792388Y-32859505D01*
X172499495Y-33566612D01*
X171615612Y-34450495D01*
X170908505Y-33743388D01*
X170908505Y-33743388D01*
G37*
D13*
X158369000Y-46387000D03*
X158369000Y-48387000D03*
D10*
G36*
X170069281Y-38459602D02*
X169185398Y-37575719D01*
X169892505Y-36868612D01*
X170776388Y-37752495D01*
X170069281Y-38459602D01*
X170069281Y-38459602D01*
G37*
G36*
X171483495Y-37045388D02*
X170599612Y-36161505D01*
X171306719Y-35454398D01*
X172190602Y-36338281D01*
X171483495Y-37045388D01*
X171483495Y-37045388D01*
G37*
D13*
X158369000Y-50324000D03*
X158369000Y-52324000D03*
D14*
X123190000Y-35306000D03*
X123190000Y-31242000D03*
D15*
X148844000Y-30437000D03*
X148844000Y-28237000D03*
X151384000Y-30437000D03*
X151384000Y-28237000D03*
X136144000Y-41740000D03*
X136144000Y-39540000D03*
X133604000Y-41740000D03*
X133604000Y-39540000D03*
D16*
X116332000Y-31750000D03*
X119232000Y-31750000D03*
D10*
G36*
X138221449Y-51118941D02*
X137832540Y-50730032D01*
X138963911Y-49598661D01*
X139352820Y-49987570D01*
X138221449Y-51118941D01*
X138221449Y-51118941D01*
G37*
G36*
X138787135Y-51684626D02*
X138398226Y-51295717D01*
X139529597Y-50164346D01*
X139918506Y-50553255D01*
X138787135Y-51684626D01*
X138787135Y-51684626D01*
G37*
G36*
X139352820Y-52250312D02*
X138963911Y-51861403D01*
X140095282Y-50730032D01*
X140484191Y-51118941D01*
X139352820Y-52250312D01*
X139352820Y-52250312D01*
G37*
G36*
X139918505Y-52815997D02*
X139529596Y-52427088D01*
X140660967Y-51295717D01*
X141049876Y-51684626D01*
X139918505Y-52815997D01*
X139918505Y-52815997D01*
G37*
G36*
X140484191Y-53381683D02*
X140095282Y-52992774D01*
X141226653Y-51861403D01*
X141615562Y-52250312D01*
X140484191Y-53381683D01*
X140484191Y-53381683D01*
G37*
G36*
X141049876Y-53947368D02*
X140660967Y-53558459D01*
X141792338Y-52427088D01*
X142181247Y-52815997D01*
X141049876Y-53947368D01*
X141049876Y-53947368D01*
G37*
G36*
X141615562Y-54513053D02*
X141226653Y-54124144D01*
X142358024Y-52992773D01*
X142746933Y-53381682D01*
X141615562Y-54513053D01*
X141615562Y-54513053D01*
G37*
G36*
X142181247Y-55078739D02*
X141792338Y-54689830D01*
X142923709Y-53558459D01*
X143312618Y-53947368D01*
X142181247Y-55078739D01*
X142181247Y-55078739D01*
G37*
G36*
X145363228Y-54689830D02*
X144974319Y-55078739D01*
X143842948Y-53947368D01*
X144231857Y-53558459D01*
X145363228Y-54689830D01*
X145363228Y-54689830D01*
G37*
G36*
X145928913Y-54124144D02*
X145540004Y-54513053D01*
X144408633Y-53381682D01*
X144797542Y-52992773D01*
X145928913Y-54124144D01*
X145928913Y-54124144D01*
G37*
G36*
X146494599Y-53558459D02*
X146105690Y-53947368D01*
X144974319Y-52815997D01*
X145363228Y-52427088D01*
X146494599Y-53558459D01*
X146494599Y-53558459D01*
G37*
G36*
X147060284Y-52992774D02*
X146671375Y-53381683D01*
X145540004Y-52250312D01*
X145928913Y-51861403D01*
X147060284Y-52992774D01*
X147060284Y-52992774D01*
G37*
G36*
X147625970Y-52427088D02*
X147237061Y-52815997D01*
X146105690Y-51684626D01*
X146494599Y-51295717D01*
X147625970Y-52427088D01*
X147625970Y-52427088D01*
G37*
G36*
X148191655Y-51861403D02*
X147802746Y-52250312D01*
X146671375Y-51118941D01*
X147060284Y-50730032D01*
X148191655Y-51861403D01*
X148191655Y-51861403D01*
G37*
G36*
X148757340Y-51295717D02*
X148368431Y-51684626D01*
X147237060Y-50553255D01*
X147625969Y-50164346D01*
X148757340Y-51295717D01*
X148757340Y-51295717D01*
G37*
G36*
X149323026Y-50730032D02*
X148934117Y-51118941D01*
X147802746Y-49987570D01*
X148191655Y-49598661D01*
X149323026Y-50730032D01*
X149323026Y-50730032D01*
G37*
G36*
X148191655Y-49068331D02*
X147802746Y-48679422D01*
X148934117Y-47548051D01*
X149323026Y-47936960D01*
X148191655Y-49068331D01*
X148191655Y-49068331D01*
G37*
G36*
X147625969Y-48502646D02*
X147237060Y-48113737D01*
X148368431Y-46982366D01*
X148757340Y-47371275D01*
X147625969Y-48502646D01*
X147625969Y-48502646D01*
G37*
G36*
X147060284Y-47936960D02*
X146671375Y-47548051D01*
X147802746Y-46416680D01*
X148191655Y-46805589D01*
X147060284Y-47936960D01*
X147060284Y-47936960D01*
G37*
G36*
X146494599Y-47371275D02*
X146105690Y-46982366D01*
X147237061Y-45850995D01*
X147625970Y-46239904D01*
X146494599Y-47371275D01*
X146494599Y-47371275D01*
G37*
G36*
X145928913Y-46805589D02*
X145540004Y-46416680D01*
X146671375Y-45285309D01*
X147060284Y-45674218D01*
X145928913Y-46805589D01*
X145928913Y-46805589D01*
G37*
G36*
X145363228Y-46239904D02*
X144974319Y-45850995D01*
X146105690Y-44719624D01*
X146494599Y-45108533D01*
X145363228Y-46239904D01*
X145363228Y-46239904D01*
G37*
G36*
X144797542Y-45674219D02*
X144408633Y-45285310D01*
X145540004Y-44153939D01*
X145928913Y-44542848D01*
X144797542Y-45674219D01*
X144797542Y-45674219D01*
G37*
G36*
X144231857Y-45108533D02*
X143842948Y-44719624D01*
X144974319Y-43588253D01*
X145363228Y-43977162D01*
X144231857Y-45108533D01*
X144231857Y-45108533D01*
G37*
G36*
X143312618Y-44719624D02*
X142923709Y-45108533D01*
X141792338Y-43977162D01*
X142181247Y-43588253D01*
X143312618Y-44719624D01*
X143312618Y-44719624D01*
G37*
G36*
X142746933Y-45285310D02*
X142358024Y-45674219D01*
X141226653Y-44542848D01*
X141615562Y-44153939D01*
X142746933Y-45285310D01*
X142746933Y-45285310D01*
G37*
G36*
X142181247Y-45850995D02*
X141792338Y-46239904D01*
X140660967Y-45108533D01*
X141049876Y-44719624D01*
X142181247Y-45850995D01*
X142181247Y-45850995D01*
G37*
G36*
X141615562Y-46416680D02*
X141226653Y-46805589D01*
X140095282Y-45674218D01*
X140484191Y-45285309D01*
X141615562Y-46416680D01*
X141615562Y-46416680D01*
G37*
G36*
X141049876Y-46982366D02*
X140660967Y-47371275D01*
X139529596Y-46239904D01*
X139918505Y-45850995D01*
X141049876Y-46982366D01*
X141049876Y-46982366D01*
G37*
G36*
X140484191Y-47548051D02*
X140095282Y-47936960D01*
X138963911Y-46805589D01*
X139352820Y-46416680D01*
X140484191Y-47548051D01*
X140484191Y-47548051D01*
G37*
G36*
X139918506Y-48113737D02*
X139529597Y-48502646D01*
X138398226Y-47371275D01*
X138787135Y-46982366D01*
X139918506Y-48113737D01*
X139918506Y-48113737D01*
G37*
G36*
X139352820Y-48679422D02*
X138963911Y-49068331D01*
X137832540Y-47936960D01*
X138221449Y-47548051D01*
X139352820Y-48679422D01*
X139352820Y-48679422D01*
G37*
D17*
X179705000Y-43561000D03*
X179705000Y-46101000D03*
X179705000Y-48641000D03*
X179705000Y-41021000D03*
X182245000Y-47371000D03*
X182245000Y-44831000D03*
X182245000Y-42291000D03*
X182245000Y-39751000D03*
X179705000Y-38481000D03*
X182245000Y-37211000D03*
X110617000Y-42799000D03*
X110617000Y-40259000D03*
X110617000Y-37719000D03*
X110617000Y-45339000D03*
X113157000Y-38989000D03*
X113157000Y-41529000D03*
X113157000Y-44069000D03*
X113157000Y-46609000D03*
X110617000Y-47879000D03*
X113157000Y-49149000D03*
X110617000Y-50419000D03*
X113157000Y-51689000D03*
X110617000Y-52959000D03*
X113157000Y-54229000D03*
X187452000Y-47371000D03*
X187452000Y-44831000D03*
X187452000Y-42291000D03*
X189992000Y-43561000D03*
X189992000Y-46101000D03*
X189992000Y-48641000D03*
D18*
X136144000Y-31242000D03*
X140844000Y-31242000D03*
D19*
X132461000Y-48387000D03*
D20*
X129921000Y-48387000D03*
X132461000Y-50927000D03*
X129921000Y-50927000D03*
X132461000Y-53467000D03*
X129921000Y-53467000D03*
D19*
X155829000Y-35687000D03*
D20*
X158369000Y-35687000D03*
X155829000Y-33147000D03*
X158369000Y-33147000D03*
X155829000Y-30607000D03*
X158369000Y-30607000D03*
D21*
X148844000Y-34412000D03*
X148844000Y-32512000D03*
D22*
X151172200Y-42669486D03*
X149272200Y-42669486D03*
X127000000Y-29972000D03*
X128900000Y-29972000D03*
X131196000Y-34544000D03*
X133096000Y-34544000D03*
X131196000Y-32258000D03*
X133096000Y-32258000D03*
D23*
X145288000Y-34290000D03*
X145288000Y-28090000D03*
D21*
X151384000Y-34412000D03*
X151384000Y-32512000D03*
D22*
X128844000Y-39624000D03*
X130744000Y-39624000D03*
X128844000Y-41910000D03*
X130744000Y-41910000D03*
D21*
X136144000Y-43627000D03*
X136144000Y-45527000D03*
X133604000Y-43627000D03*
X133604000Y-45527000D03*
X138811000Y-41915000D03*
X138811000Y-43815000D03*
D22*
X164272000Y-32893000D03*
X162372000Y-32893000D03*
D21*
X155829000Y-48130500D03*
X155829000Y-46230500D03*
X155829000Y-52070000D03*
X155829000Y-50170000D03*
D24*
X122969000Y-49530000D03*
X122969000Y-48260000D03*
X122969000Y-46990000D03*
X122969000Y-45720000D03*
X117569000Y-45720000D03*
X117569000Y-46990000D03*
X117569000Y-48260000D03*
X117569000Y-49530000D03*
D25*
X126832000Y-32578000D03*
X126832000Y-33528000D03*
X126832000Y-34478000D03*
X129032000Y-34478000D03*
X129032000Y-32578000D03*
X129032000Y-33528000D03*
D10*
G36*
X170075334Y-40886555D02*
X170464243Y-41275464D01*
X169332872Y-42406835D01*
X168943963Y-42017926D01*
X170075334Y-40886555D01*
X170075334Y-40886555D01*
G37*
G36*
X169509648Y-40320870D02*
X169898557Y-40709779D01*
X168767186Y-41841150D01*
X168378277Y-41452241D01*
X169509648Y-40320870D01*
X169509648Y-40320870D01*
G37*
G36*
X168943963Y-39755184D02*
X169332872Y-40144093D01*
X168201501Y-41275464D01*
X167812592Y-40886555D01*
X168943963Y-39755184D01*
X168943963Y-39755184D01*
G37*
G36*
X168378278Y-39189499D02*
X168767187Y-39578408D01*
X167635816Y-40709779D01*
X167246907Y-40320870D01*
X168378278Y-39189499D01*
X168378278Y-39189499D01*
G37*
G36*
X167812592Y-38623813D02*
X168201501Y-39012722D01*
X167070130Y-40144093D01*
X166681221Y-39755184D01*
X167812592Y-38623813D01*
X167812592Y-38623813D01*
G37*
G36*
X167246907Y-38058128D02*
X167635816Y-38447037D01*
X166504445Y-39578408D01*
X166115536Y-39189499D01*
X167246907Y-38058128D01*
X167246907Y-38058128D01*
G37*
G36*
X166681221Y-37492443D02*
X167070130Y-37881352D01*
X165938759Y-39012723D01*
X165549850Y-38623814D01*
X166681221Y-37492443D01*
X166681221Y-37492443D01*
G37*
G36*
X166115536Y-36926757D02*
X166504445Y-37315666D01*
X165373074Y-38447037D01*
X164984165Y-38058128D01*
X166115536Y-36926757D01*
X166115536Y-36926757D01*
G37*
G36*
X162933555Y-37315666D02*
X163322464Y-36926757D01*
X164453835Y-38058128D01*
X164064926Y-38447037D01*
X162933555Y-37315666D01*
X162933555Y-37315666D01*
G37*
G36*
X162367870Y-37881352D02*
X162756779Y-37492443D01*
X163888150Y-38623814D01*
X163499241Y-39012723D01*
X162367870Y-37881352D01*
X162367870Y-37881352D01*
G37*
G36*
X161802184Y-38447037D02*
X162191093Y-38058128D01*
X163322464Y-39189499D01*
X162933555Y-39578408D01*
X161802184Y-38447037D01*
X161802184Y-38447037D01*
G37*
G36*
X161236499Y-39012722D02*
X161625408Y-38623813D01*
X162756779Y-39755184D01*
X162367870Y-40144093D01*
X161236499Y-39012722D01*
X161236499Y-39012722D01*
G37*
G36*
X160670813Y-39578408D02*
X161059722Y-39189499D01*
X162191093Y-40320870D01*
X161802184Y-40709779D01*
X160670813Y-39578408D01*
X160670813Y-39578408D01*
G37*
G36*
X160105128Y-40144093D02*
X160494037Y-39755184D01*
X161625408Y-40886555D01*
X161236499Y-41275464D01*
X160105128Y-40144093D01*
X160105128Y-40144093D01*
G37*
G36*
X159539443Y-40709779D02*
X159928352Y-40320870D01*
X161059723Y-41452241D01*
X160670814Y-41841150D01*
X159539443Y-40709779D01*
X159539443Y-40709779D01*
G37*
G36*
X158973757Y-41275464D02*
X159362666Y-40886555D01*
X160494037Y-42017926D01*
X160105128Y-42406835D01*
X158973757Y-41275464D01*
X158973757Y-41275464D01*
G37*
G36*
X160105128Y-42937165D02*
X160494037Y-43326074D01*
X159362666Y-44457445D01*
X158973757Y-44068536D01*
X160105128Y-42937165D01*
X160105128Y-42937165D01*
G37*
G36*
X160670814Y-43502850D02*
X161059723Y-43891759D01*
X159928352Y-45023130D01*
X159539443Y-44634221D01*
X160670814Y-43502850D01*
X160670814Y-43502850D01*
G37*
G36*
X161236499Y-44068536D02*
X161625408Y-44457445D01*
X160494037Y-45588816D01*
X160105128Y-45199907D01*
X161236499Y-44068536D01*
X161236499Y-44068536D01*
G37*
G36*
X161802184Y-44634221D02*
X162191093Y-45023130D01*
X161059722Y-46154501D01*
X160670813Y-45765592D01*
X161802184Y-44634221D01*
X161802184Y-44634221D01*
G37*
G36*
X162367870Y-45199907D02*
X162756779Y-45588816D01*
X161625408Y-46720187D01*
X161236499Y-46331278D01*
X162367870Y-45199907D01*
X162367870Y-45199907D01*
G37*
G36*
X162933555Y-45765592D02*
X163322464Y-46154501D01*
X162191093Y-47285872D01*
X161802184Y-46896963D01*
X162933555Y-45765592D01*
X162933555Y-45765592D01*
G37*
G36*
X163499241Y-46331277D02*
X163888150Y-46720186D01*
X162756779Y-47851557D01*
X162367870Y-47462648D01*
X163499241Y-46331277D01*
X163499241Y-46331277D01*
G37*
G36*
X164064926Y-46896963D02*
X164453835Y-47285872D01*
X163322464Y-48417243D01*
X162933555Y-48028334D01*
X164064926Y-46896963D01*
X164064926Y-46896963D01*
G37*
G36*
X164984165Y-47285872D02*
X165373074Y-46896963D01*
X166504445Y-48028334D01*
X166115536Y-48417243D01*
X164984165Y-47285872D01*
X164984165Y-47285872D01*
G37*
G36*
X165549850Y-46720186D02*
X165938759Y-46331277D01*
X167070130Y-47462648D01*
X166681221Y-47851557D01*
X165549850Y-46720186D01*
X165549850Y-46720186D01*
G37*
G36*
X166115536Y-46154501D02*
X166504445Y-45765592D01*
X167635816Y-46896963D01*
X167246907Y-47285872D01*
X166115536Y-46154501D01*
X166115536Y-46154501D01*
G37*
G36*
X166681221Y-45588816D02*
X167070130Y-45199907D01*
X168201501Y-46331278D01*
X167812592Y-46720187D01*
X166681221Y-45588816D01*
X166681221Y-45588816D01*
G37*
G36*
X167246907Y-45023130D02*
X167635816Y-44634221D01*
X168767187Y-45765592D01*
X168378278Y-46154501D01*
X167246907Y-45023130D01*
X167246907Y-45023130D01*
G37*
G36*
X167812592Y-44457445D02*
X168201501Y-44068536D01*
X169332872Y-45199907D01*
X168943963Y-45588816D01*
X167812592Y-44457445D01*
X167812592Y-44457445D01*
G37*
G36*
X168378277Y-43891759D02*
X168767186Y-43502850D01*
X169898557Y-44634221D01*
X169509648Y-45023130D01*
X168378277Y-43891759D01*
X168378277Y-43891759D01*
G37*
G36*
X168943963Y-43326074D02*
X169332872Y-42937165D01*
X170464243Y-44068536D01*
X170075334Y-44457445D01*
X168943963Y-43326074D01*
X168943963Y-43326074D01*
G37*
G36*
X148280043Y-53906744D02*
X149128571Y-54755272D01*
X148138621Y-55745222D01*
X147290093Y-54896694D01*
X148280043Y-53906744D01*
X148280043Y-53906744D01*
G37*
G36*
X146724408Y-55462379D02*
X147572936Y-56310907D01*
X146582986Y-57300857D01*
X145734458Y-56452329D01*
X146724408Y-55462379D01*
X146724408Y-55462379D01*
G37*
G36*
X147855779Y-56593750D02*
X148704307Y-57442278D01*
X147714357Y-58432228D01*
X146865829Y-57583700D01*
X147855779Y-56593750D01*
X147855779Y-56593750D01*
G37*
G36*
X149411414Y-55038115D02*
X150259942Y-55886643D01*
X149269992Y-56876593D01*
X148421464Y-56028065D01*
X149411414Y-55038115D01*
X149411414Y-55038115D01*
G37*
G36*
X168500157Y-37314742D02*
X167651629Y-36466214D01*
X168641579Y-35476264D01*
X169490107Y-36324792D01*
X168500157Y-37314742D01*
X168500157Y-37314742D01*
G37*
G36*
X170055792Y-35759107D02*
X169207264Y-34910579D01*
X170197214Y-33920629D01*
X171045742Y-34769157D01*
X170055792Y-35759107D01*
X170055792Y-35759107D01*
G37*
G36*
X168924421Y-34627736D02*
X168075893Y-33779208D01*
X169065843Y-32789258D01*
X169914371Y-33637786D01*
X168924421Y-34627736D01*
X168924421Y-34627736D01*
G37*
G36*
X167368786Y-36183371D02*
X166520258Y-35334843D01*
X167510208Y-34344893D01*
X168358736Y-35193421D01*
X167368786Y-36183371D01*
X167368786Y-36183371D01*
G37*
D15*
X163957000Y-26754000D03*
X163957000Y-24554000D03*
X161671000Y-26754000D03*
X161671000Y-24554000D03*
D21*
X163957000Y-28895000D03*
X163957000Y-30795000D03*
X161671000Y-28895000D03*
X161671000Y-30795000D03*
D26*
X140462000Y-41275000D03*
X142494000Y-41275000D03*
X140208000Y-42926000D03*
X141732000Y-49276000D03*
X125857000Y-45085000D03*
X124841000Y-42164000D03*
X164211000Y-35306000D03*
X127508000Y-46736000D03*
X153797000Y-34417000D03*
X123190000Y-36830000D03*
X137414000Y-40513000D03*
X147447000Y-36830000D03*
X132207000Y-33528000D03*
X127000000Y-31623000D03*
X114935000Y-34290000D03*
X168529000Y-38354000D03*
X135890000Y-54864000D03*
X139573000Y-53848000D03*
X173863000Y-39624000D03*
X165227000Y-24511000D03*
X152654000Y-28194000D03*
X116078000Y-49530000D03*
X127127000Y-48768000D03*
X147955000Y-45466000D03*
X152400000Y-44577000D03*
X160909000Y-46990000D03*
X159639000Y-48387000D03*
X159639000Y-52324000D03*
X151638000Y-58420000D03*
X151892000Y-53721000D03*
X172339000Y-37211000D03*
X172720000Y-32639000D03*
X142367000Y-35941000D03*
X148844000Y-35306000D03*
X145923000Y-47936979D03*
X150749000Y-48006000D03*
X151384000Y-48768000D03*
X146812000Y-48768000D03*
X128270000Y-48387000D03*
X142875000Y-52324000D03*
X138303000Y-52324000D03*
X132080000Y-39624000D03*
X139954000Y-39624000D03*
X140462000Y-42025013D03*
X131953000Y-41910000D03*
X120523000Y-48641000D03*
X125222000Y-49911000D03*
X135255000Y-52959000D03*
X135255000Y-49657000D03*
X137541000Y-44196000D03*
X138049000Y-46736000D03*
X161417000Y-32893000D03*
X162433000Y-36703000D03*
X164084000Y-41529000D03*
X129921000Y-29591000D03*
X130175000Y-33147000D03*
D27*
X140462000Y-41275000D02*
X139451000Y-41275000D01*
X139451000Y-41275000D02*
X138811000Y-41915000D01*
X150681714Y-41275000D02*
X142494000Y-41275000D01*
D28*
X145288000Y-34290000D02*
X146388000Y-34290000D01*
X146388000Y-34290000D02*
X148166000Y-36068000D01*
X150114000Y-36068000D02*
X151130000Y-35052000D01*
X148166000Y-36068000D02*
X150114000Y-36068000D01*
X151130000Y-35052000D02*
X151130000Y-34666000D01*
X151130000Y-34666000D02*
X151384000Y-34412000D01*
D27*
X139573000Y-42291000D02*
X139187000Y-42291000D01*
X139187000Y-42291000D02*
X138811000Y-41915000D01*
X140208000Y-42926000D02*
X139573000Y-42291000D01*
X140289736Y-52055857D02*
X141732000Y-50613593D01*
X141732000Y-50613593D02*
X141732000Y-49276000D01*
X138811000Y-41915000D02*
X139187000Y-41915000D01*
X125857000Y-45085000D02*
X125857000Y-46752000D01*
X117094000Y-42164000D02*
X124841000Y-42164000D01*
X111790238Y-40005000D02*
X114935000Y-40005000D01*
X114935000Y-40005000D02*
X117094000Y-42164000D01*
X110617000Y-40259000D02*
X111536238Y-40259000D01*
X111536238Y-40259000D02*
X111790238Y-40005000D01*
X182753000Y-36068000D02*
X183172001Y-36487001D01*
X183172001Y-36487001D02*
X183172001Y-38823999D01*
X183172001Y-38823999D02*
X182894999Y-39101001D01*
X182894999Y-39101001D02*
X182245000Y-39751000D01*
X179451000Y-36068000D02*
X182753000Y-36068000D01*
X176475107Y-39043893D02*
X179451000Y-36068000D01*
X171504893Y-39043893D02*
X176475107Y-39043893D01*
X158056385Y-44899385D02*
X155826486Y-42669486D01*
X155826486Y-42669486D02*
X151172200Y-42669486D01*
X160299583Y-44262990D02*
X159663188Y-44899385D01*
X159663188Y-44899385D02*
X158056385Y-44899385D01*
X164211000Y-35306000D02*
X164211000Y-32954000D01*
X164211000Y-32954000D02*
X164272000Y-32893000D01*
X150681714Y-41275000D02*
X151384000Y-40572714D01*
X151384000Y-40572714D02*
X151384000Y-34412000D01*
X127508000Y-46736000D02*
X125873000Y-46736000D01*
X125873000Y-46736000D02*
X125857000Y-46752000D01*
X138248107Y-55317107D02*
X138248107Y-54097486D01*
X138248107Y-54097486D02*
X140289736Y-52055857D01*
X153797000Y-34417000D02*
X151389000Y-34417000D01*
X151389000Y-34417000D02*
X151384000Y-34412000D01*
X124460000Y-46990000D02*
X122969000Y-46990000D01*
X124698000Y-46752000D02*
X124460000Y-46990000D01*
X125857000Y-46752000D02*
X124698000Y-46752000D01*
X151172200Y-42669486D02*
X151172200Y-41765486D01*
X151172200Y-41765486D02*
X150681714Y-41275000D01*
X166239281Y-39704997D02*
X164857576Y-39704997D01*
X164857576Y-39704997D02*
X160299583Y-44262990D01*
X166875676Y-38818268D02*
X166239281Y-39454663D01*
X166239281Y-39454663D02*
X166239281Y-39704997D01*
X166239281Y-39704997D02*
X167120318Y-40586034D01*
X167120318Y-40586034D02*
X167370652Y-40586034D01*
X167370652Y-40586034D02*
X168007047Y-39949639D01*
X168007047Y-39949639D02*
X168912793Y-39043893D01*
X168912793Y-39043893D02*
X171504893Y-39043893D01*
X170126503Y-34839868D02*
X169177975Y-34839868D01*
X169177975Y-34839868D02*
X168818589Y-35199254D01*
X168452903Y-35199254D02*
X168388025Y-35264132D01*
X168818589Y-35199254D02*
X168452903Y-35199254D01*
X168388025Y-35264132D02*
X167439497Y-35264132D01*
D29*
X123190000Y-35306000D02*
X123190000Y-36830000D01*
D27*
X136144000Y-39540000D02*
X136441000Y-39540000D01*
X136441000Y-39540000D02*
X137414000Y-40513000D01*
X146272000Y-36830000D02*
X147447000Y-36830000D01*
X133096000Y-34544000D02*
X133096000Y-34417000D01*
X133096000Y-34417000D02*
X132207000Y-33528000D01*
X126832000Y-32578000D02*
X126832000Y-31791000D01*
X126832000Y-31791000D02*
X127000000Y-31623000D01*
X116126000Y-35052000D02*
X115697000Y-35052000D01*
X115697000Y-35052000D02*
X114935000Y-34290000D01*
X146653697Y-56381618D02*
X147377182Y-56381618D01*
X147377182Y-56381618D02*
X147624800Y-56134000D01*
X147624800Y-56134000D02*
X147802600Y-56311800D01*
X147802600Y-56311800D02*
X148031200Y-56083200D01*
X148031200Y-56083200D02*
X148259800Y-56311800D01*
X148259800Y-56311800D02*
X148614246Y-55957354D01*
X148614246Y-55957354D02*
X149340703Y-55957354D01*
X167441361Y-39383953D02*
X167499047Y-39383953D01*
X167499047Y-39383953D02*
X168529000Y-38354000D01*
X136833893Y-53902893D02*
X136833893Y-53920107D01*
X136833893Y-53920107D02*
X135890000Y-54864000D01*
X140855422Y-52621543D02*
X140799457Y-52621543D01*
X140799457Y-52621543D02*
X139573000Y-53848000D01*
X172919107Y-40458107D02*
X173028893Y-40458107D01*
X173028893Y-40458107D02*
X173863000Y-39624000D01*
X168572732Y-40515324D02*
X169209127Y-39878929D01*
X169209127Y-39878929D02*
X171064293Y-39878929D01*
X171064293Y-39878929D02*
X171643471Y-40458107D01*
X171643471Y-40458107D02*
X172112000Y-40458107D01*
X172112000Y-40458107D02*
X172919107Y-40458107D01*
X163957000Y-24554000D02*
X165184000Y-24554000D01*
X165184000Y-24554000D02*
X165227000Y-24511000D01*
X151384000Y-28237000D02*
X152611000Y-28237000D01*
X152611000Y-28237000D02*
X152654000Y-28194000D01*
X136144000Y-39540000D02*
X133604000Y-39540000D01*
X117569000Y-49530000D02*
X116078000Y-49530000D01*
X125857000Y-48752000D02*
X127111000Y-48752000D01*
X127111000Y-48752000D02*
X127127000Y-48768000D01*
X124486000Y-48260000D02*
X122969000Y-48260000D01*
X125857000Y-48752000D02*
X124978000Y-48752000D01*
X124978000Y-48752000D02*
X124486000Y-48260000D01*
X146865830Y-46611135D02*
X146865830Y-46555170D01*
X146865830Y-46555170D02*
X147955000Y-45466000D01*
X151172200Y-44574486D02*
X152397486Y-44574486D01*
X152397486Y-44574486D02*
X152400000Y-44577000D01*
X161996639Y-45960047D02*
X161938953Y-45960047D01*
X161938953Y-45960047D02*
X160909000Y-46990000D01*
X158369000Y-48387000D02*
X159639000Y-48387000D01*
X158369000Y-52324000D02*
X159639000Y-52324000D01*
X150694107Y-57458893D02*
X150694107Y-57476107D01*
X150694107Y-57476107D02*
X151638000Y-58420000D01*
X150948107Y-54682107D02*
X150948107Y-54664893D01*
X150948107Y-54664893D02*
X151892000Y-53721000D01*
X151384000Y-28237000D02*
X148844000Y-28237000D01*
X163957000Y-24554000D02*
X161671000Y-24554000D01*
X150694107Y-57458893D02*
X150694107Y-57310758D01*
X150694107Y-57310758D02*
X149340703Y-55957354D01*
X150948107Y-54682107D02*
X150615950Y-54682107D01*
X150615950Y-54682107D02*
X149340703Y-55957354D01*
X170126503Y-34839868D02*
X170519132Y-34839868D01*
X170519132Y-34839868D02*
X171704000Y-33655000D01*
X171704000Y-33655000D02*
X171311371Y-33655000D01*
X171395107Y-36108472D02*
X170126503Y-34839868D01*
X171395107Y-36249893D02*
X171395107Y-36108472D01*
X169863571Y-35102800D02*
X170126503Y-34839868D01*
X171395107Y-36249893D02*
X171395107Y-36267107D01*
X171395107Y-36267107D02*
X172339000Y-37211000D01*
X171704000Y-33655000D02*
X172720000Y-32639000D01*
X147431515Y-47176820D02*
X149172200Y-45436135D01*
X149172200Y-45436135D02*
X149172200Y-44574486D01*
X149272200Y-42669486D02*
X149272200Y-44474486D01*
X149272200Y-44474486D02*
X149172200Y-44574486D01*
D28*
X120142000Y-37719000D02*
X119126000Y-36703000D01*
X119126000Y-36703000D02*
X119126000Y-35052000D01*
X124841000Y-37719000D02*
X120142000Y-37719000D01*
X125897999Y-36662001D02*
X124841000Y-37719000D01*
X125897999Y-34176201D02*
X125897999Y-36662001D01*
D27*
X133223000Y-35814000D02*
X128952000Y-35814000D01*
X128952000Y-35814000D02*
X127616000Y-34478000D01*
X127616000Y-34478000D02*
X126832000Y-34478000D01*
X133985000Y-36576000D02*
X133223000Y-35814000D01*
X138938000Y-36576000D02*
X133985000Y-36576000D01*
X139573000Y-35941000D02*
X138938000Y-36576000D01*
X142367000Y-35941000D02*
X139573000Y-35941000D01*
X148844000Y-34412000D02*
X148844000Y-35306000D01*
D28*
X127000000Y-29972000D02*
X127000000Y-30272000D01*
X127000000Y-30272000D02*
X125897999Y-31374001D01*
X125897999Y-31374001D02*
X125897999Y-34176201D01*
X125897999Y-34176201D02*
X126199798Y-34478000D01*
X126199798Y-34478000D02*
X126832000Y-34478000D01*
D29*
X119232000Y-31750000D02*
X119232000Y-34946000D01*
X119232000Y-34946000D02*
X119126000Y-35052000D01*
D28*
X129032000Y-32578000D02*
X129237000Y-32578000D01*
X129237000Y-32578000D02*
X130710000Y-31105000D01*
X130710000Y-31105000D02*
X131961000Y-31105000D01*
X131961000Y-31105000D02*
X132969000Y-30097000D01*
X132969000Y-30097000D02*
X132969000Y-29972000D01*
X134239000Y-28575000D02*
X132241000Y-28575000D01*
X132241000Y-28575000D02*
X130969000Y-29847000D01*
X130969000Y-29847000D02*
X130969000Y-29972000D01*
X136144000Y-30480000D02*
X134239000Y-28575000D01*
X136144000Y-31242000D02*
X136144000Y-30480000D01*
X129286000Y-31496000D02*
X130810000Y-29972000D01*
X130810000Y-29972000D02*
X130969000Y-29972000D01*
X128531798Y-31496000D02*
X129286000Y-31496000D01*
X128097999Y-33300001D02*
X128097999Y-31929799D01*
X128097999Y-31929799D02*
X128531798Y-31496000D01*
X130770798Y-30170202D02*
X130969000Y-29972000D01*
X126832000Y-33528000D02*
X127870000Y-33528000D01*
X127870000Y-33528000D02*
X128097999Y-33300001D01*
X144272000Y-36830000D02*
X144272000Y-36705000D01*
X144272000Y-36705000D02*
X140844000Y-33277000D01*
X140844000Y-33277000D02*
X140844000Y-31242000D01*
X140844000Y-30352000D02*
X143106000Y-28090000D01*
X143106000Y-28090000D02*
X145288000Y-28090000D01*
X140844000Y-31242000D02*
X140844000Y-30352000D01*
X134275000Y-35850000D02*
X138686000Y-35850000D01*
X138686000Y-35850000D02*
X140844000Y-33692000D01*
X140844000Y-33692000D02*
X140844000Y-31242000D01*
X133985000Y-35560000D02*
X134275000Y-35850000D01*
X133985000Y-33447000D02*
X133985000Y-35560000D01*
X133096000Y-32258000D02*
X133096000Y-32558000D01*
X133096000Y-32558000D02*
X133985000Y-33447000D01*
D27*
X149533893Y-53267893D02*
X149533893Y-53501422D01*
X149533893Y-53501422D02*
X148209332Y-54825983D01*
X148209332Y-54825983D02*
X147714358Y-54331009D01*
X147714358Y-54331009D02*
X146878240Y-54331009D01*
X146878240Y-54331009D02*
X146370854Y-53823623D01*
X146370854Y-53823623D02*
X145734459Y-53187228D01*
X149279893Y-58873107D02*
X149145186Y-58873107D01*
X149145186Y-58873107D02*
X147785068Y-57512989D01*
X146050000Y-55372000D02*
X146050000Y-54634140D01*
X146050000Y-54634140D02*
X145168773Y-53752913D01*
X145457448Y-55964552D02*
X146050000Y-55372000D01*
X147785068Y-57512989D02*
X146836540Y-57512989D01*
X146836540Y-57512989D02*
X146771662Y-57577867D01*
X146771662Y-57577867D02*
X146468244Y-57577867D01*
X146468244Y-57577867D02*
X145457448Y-56567071D01*
X145457448Y-56567071D02*
X145457448Y-55964552D01*
X170289786Y-32240786D02*
X170289786Y-32413843D01*
X170289786Y-32413843D02*
X168995132Y-33708497D01*
X166624000Y-36195000D02*
X166624000Y-36807202D01*
X166624000Y-36807202D02*
X165744305Y-37686897D01*
X166243248Y-35814248D02*
X166624000Y-36195000D01*
X168995132Y-33708497D02*
X167754850Y-33708497D01*
X167754850Y-33708497D02*
X166243248Y-35220099D01*
X166243248Y-35220099D02*
X166243248Y-35814248D01*
X158369000Y-46387000D02*
X155985500Y-46387000D01*
X155985500Y-46387000D02*
X155829000Y-46230500D01*
X163128010Y-47091417D02*
X162491615Y-47727812D01*
X162491615Y-47727812D02*
X159834812Y-47727812D01*
X159834812Y-47727812D02*
X158494000Y-46387000D01*
X158494000Y-46387000D02*
X158369000Y-46387000D01*
X169980893Y-37664107D02*
X169839472Y-37664107D01*
X169839472Y-37664107D02*
X168570868Y-36395503D01*
X168570868Y-36395503D02*
X168005183Y-36961188D01*
X166946385Y-37616188D02*
X166309990Y-38252583D01*
X168005183Y-36961188D02*
X167601385Y-36961188D01*
X167601385Y-36961188D02*
X166946385Y-37616188D01*
X158369000Y-50324000D02*
X155983000Y-50324000D01*
X155983000Y-50324000D02*
X155829000Y-50170000D01*
X163693695Y-47657103D02*
X161026798Y-50324000D01*
X161026798Y-50324000D02*
X158369000Y-50324000D01*
D29*
X123190000Y-31242000D02*
X121348500Y-31242000D01*
X121348500Y-31242000D02*
X119844500Y-29738000D01*
X117544000Y-29738000D02*
X116332000Y-30950000D01*
X116332000Y-30950000D02*
X116332000Y-31750000D01*
X119844500Y-29738000D02*
X117544000Y-29738000D01*
X110617000Y-33909000D02*
X112776000Y-31750000D01*
X112776000Y-31750000D02*
X116332000Y-31750000D01*
X110617000Y-37719000D02*
X110617000Y-33909000D01*
D27*
X148844000Y-30437000D02*
X148844000Y-32512000D01*
X151384000Y-30437000D02*
X151384000Y-32512000D01*
X136144000Y-41740000D02*
X136144000Y-43627000D01*
X133604000Y-41740000D02*
X133604000Y-43627000D01*
X138592680Y-50358801D02*
X141014502Y-47936979D01*
X141014502Y-47936979D02*
X145498736Y-47936979D01*
X145498736Y-47936979D02*
X145923000Y-47936979D01*
X132461000Y-48387000D02*
X132461000Y-47269400D01*
X132461000Y-47269400D02*
X131927600Y-46736000D01*
X131927600Y-46736000D02*
X131064000Y-46736000D01*
X131064000Y-46736000D02*
X127127000Y-42799000D01*
X127127000Y-42799000D02*
X116840000Y-42799000D01*
X116840000Y-42799000D02*
X114554000Y-40513000D01*
X114554000Y-40513000D02*
X112801038Y-40513000D01*
X112801038Y-40513000D02*
X111887000Y-41427038D01*
X111887000Y-41427038D02*
X111887000Y-42291000D01*
X111887000Y-42291000D02*
X111379000Y-42799000D01*
X111379000Y-42799000D02*
X110617000Y-42799000D01*
X150749000Y-48006000D02*
X155704500Y-48006000D01*
X155704500Y-48006000D02*
X155829000Y-48130500D01*
X138592680Y-50358801D02*
X134432801Y-50358801D01*
X134432801Y-50358801D02*
X132461000Y-48387000D01*
X146387736Y-48768000D02*
X146812000Y-48768000D01*
X146133725Y-48513989D02*
X146387736Y-48768000D01*
X139158366Y-50924486D02*
X141568863Y-48513989D01*
X141568863Y-48513989D02*
X146133725Y-48513989D01*
X126746000Y-43434000D02*
X115062000Y-43434000D01*
X115062000Y-43434000D02*
X113157000Y-41529000D01*
X131191000Y-47879000D02*
X126746000Y-43434000D01*
X131191000Y-49786399D02*
X131061601Y-49786399D01*
X133098399Y-49786399D02*
X131191000Y-49786399D01*
X131191000Y-49786399D02*
X131191000Y-47879000D01*
X155194000Y-52070000D02*
X155829000Y-52070000D01*
X154432000Y-51308000D02*
X155194000Y-52070000D01*
X154432000Y-49911000D02*
X154432000Y-51308000D01*
X153289000Y-48768000D02*
X154432000Y-49911000D01*
X151384000Y-48768000D02*
X153289000Y-48768000D01*
X134872881Y-51560881D02*
X133098399Y-49786399D01*
X131061601Y-49786399D02*
X130784599Y-50063401D01*
X130784599Y-50063401D02*
X129921000Y-50927000D01*
X139158366Y-50924486D02*
X138521971Y-51560881D01*
X138521971Y-51560881D02*
X134872881Y-51560881D01*
X140784712Y-54541288D02*
X138936388Y-56389612D01*
X138936388Y-56389612D02*
X130857612Y-56389612D01*
X130857612Y-56389612D02*
X123998000Y-49530000D01*
X123998000Y-49530000D02*
X122969000Y-49530000D01*
X141421107Y-53187228D02*
X140784712Y-53823623D01*
X140784712Y-53823623D02*
X140784712Y-54541288D01*
X121920000Y-45720000D02*
X122969000Y-45720000D01*
X121285000Y-46355000D02*
X121920000Y-45720000D01*
X121285000Y-49784000D02*
X121285000Y-46355000D01*
X121920000Y-50419000D02*
X121285000Y-49784000D01*
X124206000Y-50419000D02*
X121920000Y-50419000D01*
X130683000Y-56896000D02*
X124206000Y-50419000D01*
X139192000Y-56896000D02*
X130683000Y-56896000D01*
X141350398Y-54737602D02*
X139192000Y-56896000D01*
X141986793Y-53752913D02*
X141350398Y-54389308D01*
X141350398Y-54389308D02*
X141350398Y-54737602D01*
X142552478Y-55557478D02*
X147447000Y-60452000D01*
X148082000Y-60452000D02*
X147447000Y-60452000D01*
X142552478Y-54318599D02*
X142552478Y-55557478D01*
X174371000Y-50038000D02*
X181864000Y-50038000D01*
X148082000Y-60452000D02*
X152273000Y-60452000D01*
X152273000Y-60452000D02*
X158496000Y-54229000D01*
X158496000Y-54229000D02*
X170180000Y-54229000D01*
X170180000Y-54229000D02*
X174371000Y-50038000D01*
X181864000Y-50038000D02*
X183515000Y-48387000D01*
X183515000Y-48387000D02*
X183515000Y-43561000D01*
X183515000Y-43561000D02*
X182245000Y-42291000D01*
X144603088Y-54318599D02*
X144603088Y-56592088D01*
X182118000Y-44958000D02*
X182245000Y-44831000D01*
X144603088Y-56592088D02*
X147956612Y-59945612D01*
X147956612Y-59945612D02*
X152017388Y-59945612D01*
X152017388Y-59945612D02*
X158242000Y-53721000D01*
X158242000Y-53721000D02*
X169926000Y-53721000D01*
X169926000Y-53721000D02*
X176276000Y-47371000D01*
X180340000Y-47371000D02*
X182118000Y-45593000D01*
X176276000Y-47371000D02*
X180340000Y-47371000D01*
X182118000Y-45593000D02*
X182118000Y-44958000D01*
X126365000Y-44069000D02*
X113157000Y-44069000D01*
X128270000Y-45974000D02*
X126365000Y-44069000D01*
X128270000Y-48387000D02*
X128270000Y-45974000D01*
X143764000Y-52324000D02*
X144102852Y-51985148D01*
X144102852Y-51985148D02*
X145663749Y-51985148D01*
X145663749Y-51985148D02*
X146300144Y-52621543D01*
X142875000Y-52324000D02*
X143764000Y-52324000D01*
X133324599Y-51790599D02*
X133856388Y-52322388D01*
X133856388Y-52322388D02*
X138301388Y-52322388D01*
X138301388Y-52322388D02*
X138303000Y-52324000D01*
X132461000Y-50927000D02*
X133324599Y-51790599D01*
X169672000Y-53213000D02*
X176784000Y-46101000D01*
X176784000Y-46101000D02*
X179705000Y-46101000D01*
X152654000Y-53213000D02*
X149799801Y-50358801D01*
X152654000Y-53213000D02*
X169672000Y-53213000D01*
X149799801Y-50358801D02*
X148562886Y-50358801D01*
X132080000Y-39624000D02*
X130744000Y-39624000D01*
X144603088Y-44348393D02*
X139954000Y-39699305D01*
X139954000Y-39699305D02*
X139954000Y-39624000D01*
X140761999Y-42325012D02*
X140462000Y-42025013D01*
X141350398Y-44277684D02*
X141350398Y-42913411D01*
X141350398Y-42913411D02*
X140761999Y-42325012D01*
X141986793Y-44914079D02*
X141350398Y-44277684D01*
X131953000Y-41910000D02*
X130744000Y-41910000D01*
X136144000Y-45527000D02*
X137048000Y-45527000D01*
X137048000Y-45527000D02*
X137731631Y-44843369D01*
X137731631Y-44843369D02*
X140784712Y-44843369D01*
X140784712Y-44843369D02*
X141421107Y-45479764D01*
X137287000Y-46355000D02*
X135336000Y-46355000D01*
X135336000Y-46355000D02*
X134508000Y-45527000D01*
X134508000Y-45527000D02*
X133604000Y-45527000D01*
X138232946Y-45409054D02*
X137287000Y-46355000D01*
X140855422Y-46045449D02*
X140219027Y-45409054D01*
X140219027Y-45409054D02*
X138232946Y-45409054D01*
X120223001Y-46690001D02*
X118675999Y-45142999D01*
X118675999Y-45142999D02*
X111732239Y-45142999D01*
X111732239Y-45142999D02*
X111536238Y-45339000D01*
X111536238Y-45339000D02*
X110617000Y-45339000D01*
X120523000Y-48641000D02*
X120223001Y-48341001D01*
X120223001Y-48341001D02*
X120223001Y-46690001D01*
X132461000Y-53467000D02*
X131320399Y-52326399D01*
X131320399Y-52326399D02*
X127637399Y-52326399D01*
X127637399Y-52326399D02*
X125222000Y-49911000D01*
X135255000Y-52959000D02*
X134747000Y-53467000D01*
X134747000Y-53467000D02*
X132461000Y-53467000D01*
X136916889Y-47106111D02*
X135255000Y-48768000D01*
X135255000Y-48768000D02*
X135255000Y-49657000D01*
X139158366Y-47742506D02*
X138521971Y-47106111D01*
X138521971Y-47106111D02*
X136916889Y-47106111D01*
X137907000Y-43815000D02*
X137907000Y-43830000D01*
X137907000Y-43830000D02*
X137840999Y-43896001D01*
X137541000Y-44196000D02*
X137840999Y-43896001D01*
X137907000Y-43815000D02*
X138811000Y-43815000D01*
X139158366Y-47742506D02*
X139055506Y-47742506D01*
X139055506Y-47742506D02*
X138049000Y-46736000D01*
X178816000Y-38481000D02*
X179705000Y-38481000D01*
X170134873Y-47162127D02*
X178816000Y-38481000D01*
X166875676Y-46525732D02*
X167512071Y-47162127D01*
X167512071Y-47162127D02*
X170134873Y-47162127D01*
X169811558Y-46596442D02*
X179197000Y-37211000D01*
X179197000Y-37211000D02*
X182245000Y-37211000D01*
X167441361Y-45960047D02*
X168077756Y-46596442D01*
X168077756Y-46596442D02*
X169811558Y-46596442D01*
X117569000Y-46990000D02*
X113538000Y-46990000D01*
X113538000Y-46990000D02*
X113157000Y-46609000D01*
X117569000Y-48260000D02*
X117094000Y-48260000D01*
X117094000Y-48260000D02*
X116713000Y-47879000D01*
X116713000Y-47879000D02*
X111536238Y-47879000D01*
X111536238Y-47879000D02*
X110617000Y-47879000D01*
X113157000Y-49149000D02*
X110109000Y-49149000D01*
X110109000Y-49149000D02*
X108712000Y-47752000D01*
X108712000Y-47752000D02*
X108712000Y-40259000D01*
X108712000Y-40259000D02*
X109855000Y-39116000D01*
X109855000Y-39116000D02*
X111252000Y-39116000D01*
X111252000Y-39116000D02*
X112522000Y-37846000D01*
X112522000Y-37846000D02*
X113919000Y-37846000D01*
X113919000Y-37846000D02*
X116205000Y-40132000D01*
X116205000Y-40132000D02*
X125984000Y-40132000D01*
X125984000Y-40132000D02*
X127762000Y-41910000D01*
X127762000Y-41910000D02*
X128844000Y-41910000D01*
X110617000Y-50419000D02*
X108204000Y-48006000D01*
X108204000Y-48006000D02*
X108204000Y-40005000D01*
X111086999Y-38646001D02*
X112395000Y-37338000D01*
X116459000Y-39624000D02*
X128844000Y-39624000D01*
X108204000Y-40005000D02*
X109562999Y-38646001D01*
X112395000Y-37338000D02*
X114173000Y-37338000D01*
X109562999Y-38646001D02*
X111086999Y-38646001D01*
X114173000Y-37338000D02*
X116459000Y-39624000D01*
X159733897Y-41646695D02*
X155829000Y-37741798D01*
X155829000Y-37741798D02*
X155829000Y-35687000D01*
X158115000Y-41275000D02*
X154688399Y-37848399D01*
X154688399Y-37848399D02*
X154688399Y-34287601D01*
X154688399Y-34287601D02*
X154965401Y-34010599D01*
X154965401Y-34010599D02*
X155829000Y-33147000D01*
X159733897Y-43697305D02*
X158115000Y-42078408D01*
X158115000Y-42078408D02*
X158115000Y-41275000D01*
X158369000Y-33147000D02*
X157228399Y-34287601D01*
X157228399Y-38009826D02*
X159663188Y-40444615D01*
X157228399Y-34287601D02*
X157228399Y-38009826D01*
X159663188Y-40444615D02*
X160299583Y-41081010D01*
X162372000Y-32893000D02*
X161417000Y-32893000D01*
X162433000Y-36703000D02*
X162433000Y-32954000D01*
X162433000Y-32954000D02*
X162372000Y-32893000D01*
X168007047Y-45394361D02*
X164141686Y-41529000D01*
X164141686Y-41529000D02*
X164084000Y-41529000D01*
X162372000Y-32893000D02*
X162372000Y-32593000D01*
D28*
X129921000Y-29591000D02*
X129281000Y-29591000D01*
X129281000Y-29591000D02*
X128900000Y-29972000D01*
X129032000Y-33528000D02*
X129794000Y-33528000D01*
X129794000Y-33528000D02*
X130175000Y-33147000D01*
X131196000Y-32258000D02*
X131196000Y-34544000D01*
X131196000Y-34544000D02*
X129098000Y-34544000D01*
X129098000Y-34544000D02*
X129032000Y-34478000D01*
D27*
X163957000Y-26754000D02*
X163957000Y-28895000D01*
X161671000Y-26754000D02*
X161671000Y-28895000D01*
X160655000Y-32512000D02*
X161744999Y-31422001D01*
X163029999Y-31422001D02*
X163657000Y-30795000D01*
X161744999Y-31422001D02*
X163029999Y-31422001D01*
X163657000Y-30795000D02*
X163957000Y-30795000D01*
X160655000Y-38042314D02*
X160655000Y-32512000D01*
X161996639Y-39383953D02*
X160655000Y-38042314D01*
X161430953Y-39949639D02*
X160794558Y-39313244D01*
X160794558Y-38874558D02*
X160147000Y-38227000D01*
X160794558Y-39313244D02*
X160794558Y-38874558D01*
X160147000Y-38227000D02*
X160147000Y-32019000D01*
X160147000Y-32019000D02*
X161371000Y-30795000D01*
X161371000Y-30795000D02*
X161671000Y-30795000D01*
M02*
