G04 #@! TF.FileFunction,Soldermask,Bot*
%FSLAX46Y46*%
G04 Gerber Fmt 4.6, Leading zero omitted, Abs format (unit mm)*
G04 Created by KiCad (PCBNEW 4.0.7-e2-6376~58~ubuntu16.04.1) date Mon Feb 19 20:22:06 2018*
%MOMM*%
%LPD*%
G01*
G04 APERTURE LIST*
%ADD10C,0.100000*%
%ADD11C,1.700000*%
%ADD12R,2.127200X2.127200*%
%ADD13O,2.127200X2.127200*%
G04 APERTURE END LIST*
D10*
D11*
X179705000Y-43561000D03*
X179705000Y-46101000D03*
X179705000Y-48641000D03*
X179705000Y-41021000D03*
X182245000Y-47371000D03*
X182245000Y-44831000D03*
X182245000Y-42291000D03*
X182245000Y-39751000D03*
X179705000Y-38481000D03*
X182245000Y-37211000D03*
X110617000Y-42799000D03*
X110617000Y-40259000D03*
X110617000Y-37719000D03*
X110617000Y-45339000D03*
X113157000Y-38989000D03*
X113157000Y-41529000D03*
X113157000Y-44069000D03*
X113157000Y-46609000D03*
X110617000Y-47879000D03*
X113157000Y-49149000D03*
X110617000Y-50419000D03*
X113157000Y-51689000D03*
X110617000Y-52959000D03*
X113157000Y-54229000D03*
X187452000Y-47371000D03*
X187452000Y-44831000D03*
X187452000Y-42291000D03*
X189992000Y-43561000D03*
X189992000Y-46101000D03*
X189992000Y-48641000D03*
D12*
X132461000Y-48387000D03*
D13*
X129921000Y-48387000D03*
X132461000Y-50927000D03*
X129921000Y-50927000D03*
X132461000Y-53467000D03*
X129921000Y-53467000D03*
D12*
X155829000Y-35687000D03*
D13*
X158369000Y-35687000D03*
X155829000Y-33147000D03*
X158369000Y-33147000D03*
X155829000Y-30607000D03*
X158369000Y-30607000D03*
M02*
