G04 #@! TF.FileFunction,Soldermask,Top*
%FSLAX46Y46*%
G04 Gerber Fmt 4.6, Leading zero omitted, Abs format (unit mm)*
G04 Created by KiCad (PCBNEW 4.0.7-e2-6376~58~ubuntu16.04.1) date Mon Feb 19 20:22:06 2018*
%MOMM*%
%LPD*%
G01*
G04 APERTURE LIST*
%ADD10C,0.100000*%
%ADD11R,1.400000X1.650000*%
%ADD12R,1.400000X2.000000*%
%ADD13R,1.650000X1.400000*%
%ADD14R,2.559000X2.178000*%
%ADD15R,1.600000X1.600000*%
%ADD16R,1.300000X2.900000*%
%ADD17C,1.700000*%
%ADD18R,3.700000X8.600000*%
%ADD19R,2.127200X2.127200*%
%ADD20O,2.127200X2.127200*%
%ADD21R,1.700000X1.100000*%
%ADD22R,1.100000X1.700000*%
%ADD23R,3.600000X1.400000*%
%ADD24R,1.950000X1.000000*%
%ADD25R,1.460000X1.050000*%
G04 APERTURE END LIST*
D10*
G36*
X139326445Y-55228719D02*
X138159719Y-56395445D01*
X137169769Y-55405495D01*
X138336495Y-54238769D01*
X139326445Y-55228719D01*
X139326445Y-55228719D01*
G37*
G36*
X137912231Y-53814505D02*
X136745505Y-54981231D01*
X135755555Y-53991281D01*
X136922281Y-52824555D01*
X137912231Y-53814505D01*
X137912231Y-53814505D01*
G37*
D11*
X149172200Y-44574486D03*
X151172200Y-44574486D03*
D12*
X119126000Y-35052000D03*
X116126000Y-35052000D03*
D13*
X125857000Y-46752000D03*
X125857000Y-48752000D03*
D11*
X132969000Y-29972000D03*
X130969000Y-29972000D03*
X144272000Y-36830000D03*
X146272000Y-36830000D03*
D10*
G36*
X148455555Y-53356281D02*
X149622281Y-52189555D01*
X150612231Y-53179505D01*
X149445505Y-54346231D01*
X148455555Y-53356281D01*
X148455555Y-53356281D01*
G37*
G36*
X149869769Y-54770495D02*
X151036495Y-53603769D01*
X152026445Y-54593719D01*
X150859719Y-55760445D01*
X149869769Y-54770495D01*
X149869769Y-54770495D01*
G37*
G36*
X149368281Y-59951445D02*
X148201555Y-58784719D01*
X149191505Y-57794769D01*
X150358231Y-58961495D01*
X149368281Y-59951445D01*
X149368281Y-59951445D01*
G37*
G36*
X150782495Y-58537231D02*
X149615769Y-57370505D01*
X150605719Y-56380555D01*
X151772445Y-57547281D01*
X150782495Y-58537231D01*
X150782495Y-58537231D01*
G37*
G36*
X170426555Y-39132281D02*
X171593281Y-37965555D01*
X172583231Y-38955505D01*
X171416505Y-40122231D01*
X170426555Y-39132281D01*
X170426555Y-39132281D01*
G37*
G36*
X171840769Y-40546495D02*
X173007495Y-39379769D01*
X173997445Y-40369719D01*
X172830719Y-41536445D01*
X171840769Y-40546495D01*
X171840769Y-40546495D01*
G37*
G36*
X169211448Y-32329174D02*
X170378174Y-31162448D01*
X171368124Y-32152398D01*
X170201398Y-33319124D01*
X169211448Y-32329174D01*
X169211448Y-32329174D01*
G37*
G36*
X170625662Y-33743388D02*
X171792388Y-32576662D01*
X172782338Y-33566612D01*
X171615612Y-34733338D01*
X170625662Y-33743388D01*
X170625662Y-33743388D01*
G37*
D13*
X158369000Y-46387000D03*
X158369000Y-48387000D03*
D10*
G36*
X170069281Y-38742445D02*
X168902555Y-37575719D01*
X169892505Y-36585769D01*
X171059231Y-37752495D01*
X170069281Y-38742445D01*
X170069281Y-38742445D01*
G37*
G36*
X171483495Y-37328231D02*
X170316769Y-36161505D01*
X171306719Y-35171555D01*
X172473445Y-36338281D01*
X171483495Y-37328231D01*
X171483495Y-37328231D01*
G37*
D13*
X158369000Y-50324000D03*
X158369000Y-52324000D03*
D14*
X123190000Y-35306000D03*
X123190000Y-31242000D03*
D15*
X148844000Y-30437000D03*
X148844000Y-28237000D03*
X151384000Y-30437000D03*
X151384000Y-28237000D03*
X136144000Y-41740000D03*
X136144000Y-39540000D03*
X133604000Y-41740000D03*
X133604000Y-39540000D03*
D16*
X116332000Y-31750000D03*
X119232000Y-31750000D03*
D10*
G36*
X138221449Y-51401784D02*
X137549697Y-50730032D01*
X138963911Y-49315818D01*
X139635663Y-49987570D01*
X138221449Y-51401784D01*
X138221449Y-51401784D01*
G37*
G36*
X138787135Y-51967469D02*
X138115383Y-51295717D01*
X139529597Y-49881503D01*
X140201349Y-50553255D01*
X138787135Y-51967469D01*
X138787135Y-51967469D01*
G37*
G36*
X139352820Y-52533155D02*
X138681068Y-51861403D01*
X140095282Y-50447189D01*
X140767034Y-51118941D01*
X139352820Y-52533155D01*
X139352820Y-52533155D01*
G37*
G36*
X139918505Y-53098840D02*
X139246753Y-52427088D01*
X140660967Y-51012874D01*
X141332719Y-51684626D01*
X139918505Y-53098840D01*
X139918505Y-53098840D01*
G37*
G36*
X140484191Y-53664526D02*
X139812439Y-52992774D01*
X141226653Y-51578560D01*
X141898405Y-52250312D01*
X140484191Y-53664526D01*
X140484191Y-53664526D01*
G37*
G36*
X141049876Y-54230211D02*
X140378124Y-53558459D01*
X141792338Y-52144245D01*
X142464090Y-52815997D01*
X141049876Y-54230211D01*
X141049876Y-54230211D01*
G37*
G36*
X141615562Y-54795896D02*
X140943810Y-54124144D01*
X142358024Y-52709930D01*
X143029776Y-53381682D01*
X141615562Y-54795896D01*
X141615562Y-54795896D01*
G37*
G36*
X142181247Y-55361582D02*
X141509495Y-54689830D01*
X142923709Y-53275616D01*
X143595461Y-53947368D01*
X142181247Y-55361582D01*
X142181247Y-55361582D01*
G37*
G36*
X145646071Y-54689830D02*
X144974319Y-55361582D01*
X143560105Y-53947368D01*
X144231857Y-53275616D01*
X145646071Y-54689830D01*
X145646071Y-54689830D01*
G37*
G36*
X146211756Y-54124144D02*
X145540004Y-54795896D01*
X144125790Y-53381682D01*
X144797542Y-52709930D01*
X146211756Y-54124144D01*
X146211756Y-54124144D01*
G37*
G36*
X146777442Y-53558459D02*
X146105690Y-54230211D01*
X144691476Y-52815997D01*
X145363228Y-52144245D01*
X146777442Y-53558459D01*
X146777442Y-53558459D01*
G37*
G36*
X147343127Y-52992774D02*
X146671375Y-53664526D01*
X145257161Y-52250312D01*
X145928913Y-51578560D01*
X147343127Y-52992774D01*
X147343127Y-52992774D01*
G37*
G36*
X147908813Y-52427088D02*
X147237061Y-53098840D01*
X145822847Y-51684626D01*
X146494599Y-51012874D01*
X147908813Y-52427088D01*
X147908813Y-52427088D01*
G37*
G36*
X148474498Y-51861403D02*
X147802746Y-52533155D01*
X146388532Y-51118941D01*
X147060284Y-50447189D01*
X148474498Y-51861403D01*
X148474498Y-51861403D01*
G37*
G36*
X149040183Y-51295717D02*
X148368431Y-51967469D01*
X146954217Y-50553255D01*
X147625969Y-49881503D01*
X149040183Y-51295717D01*
X149040183Y-51295717D01*
G37*
G36*
X149605869Y-50730032D02*
X148934117Y-51401784D01*
X147519903Y-49987570D01*
X148191655Y-49315818D01*
X149605869Y-50730032D01*
X149605869Y-50730032D01*
G37*
G36*
X148191655Y-49351174D02*
X147519903Y-48679422D01*
X148934117Y-47265208D01*
X149605869Y-47936960D01*
X148191655Y-49351174D01*
X148191655Y-49351174D01*
G37*
G36*
X147625969Y-48785489D02*
X146954217Y-48113737D01*
X148368431Y-46699523D01*
X149040183Y-47371275D01*
X147625969Y-48785489D01*
X147625969Y-48785489D01*
G37*
G36*
X147060284Y-48219803D02*
X146388532Y-47548051D01*
X147802746Y-46133837D01*
X148474498Y-46805589D01*
X147060284Y-48219803D01*
X147060284Y-48219803D01*
G37*
G36*
X146494599Y-47654118D02*
X145822847Y-46982366D01*
X147237061Y-45568152D01*
X147908813Y-46239904D01*
X146494599Y-47654118D01*
X146494599Y-47654118D01*
G37*
G36*
X145928913Y-47088432D02*
X145257161Y-46416680D01*
X146671375Y-45002466D01*
X147343127Y-45674218D01*
X145928913Y-47088432D01*
X145928913Y-47088432D01*
G37*
G36*
X145363228Y-46522747D02*
X144691476Y-45850995D01*
X146105690Y-44436781D01*
X146777442Y-45108533D01*
X145363228Y-46522747D01*
X145363228Y-46522747D01*
G37*
G36*
X144797542Y-45957062D02*
X144125790Y-45285310D01*
X145540004Y-43871096D01*
X146211756Y-44542848D01*
X144797542Y-45957062D01*
X144797542Y-45957062D01*
G37*
G36*
X144231857Y-45391376D02*
X143560105Y-44719624D01*
X144974319Y-43305410D01*
X145646071Y-43977162D01*
X144231857Y-45391376D01*
X144231857Y-45391376D01*
G37*
G36*
X143595461Y-44719624D02*
X142923709Y-45391376D01*
X141509495Y-43977162D01*
X142181247Y-43305410D01*
X143595461Y-44719624D01*
X143595461Y-44719624D01*
G37*
G36*
X143029776Y-45285310D02*
X142358024Y-45957062D01*
X140943810Y-44542848D01*
X141615562Y-43871096D01*
X143029776Y-45285310D01*
X143029776Y-45285310D01*
G37*
G36*
X142464090Y-45850995D02*
X141792338Y-46522747D01*
X140378124Y-45108533D01*
X141049876Y-44436781D01*
X142464090Y-45850995D01*
X142464090Y-45850995D01*
G37*
G36*
X141898405Y-46416680D02*
X141226653Y-47088432D01*
X139812439Y-45674218D01*
X140484191Y-45002466D01*
X141898405Y-46416680D01*
X141898405Y-46416680D01*
G37*
G36*
X141332719Y-46982366D02*
X140660967Y-47654118D01*
X139246753Y-46239904D01*
X139918505Y-45568152D01*
X141332719Y-46982366D01*
X141332719Y-46982366D01*
G37*
G36*
X140767034Y-47548051D02*
X140095282Y-48219803D01*
X138681068Y-46805589D01*
X139352820Y-46133837D01*
X140767034Y-47548051D01*
X140767034Y-47548051D01*
G37*
G36*
X140201349Y-48113737D02*
X139529597Y-48785489D01*
X138115383Y-47371275D01*
X138787135Y-46699523D01*
X140201349Y-48113737D01*
X140201349Y-48113737D01*
G37*
G36*
X139635663Y-48679422D02*
X138963911Y-49351174D01*
X137549697Y-47936960D01*
X138221449Y-47265208D01*
X139635663Y-48679422D01*
X139635663Y-48679422D01*
G37*
D17*
X179705000Y-43561000D03*
X179705000Y-46101000D03*
X179705000Y-48641000D03*
X179705000Y-41021000D03*
X182245000Y-47371000D03*
X182245000Y-44831000D03*
X182245000Y-42291000D03*
X182245000Y-39751000D03*
X179705000Y-38481000D03*
X182245000Y-37211000D03*
X110617000Y-42799000D03*
X110617000Y-40259000D03*
X110617000Y-37719000D03*
X110617000Y-45339000D03*
X113157000Y-38989000D03*
X113157000Y-41529000D03*
X113157000Y-44069000D03*
X113157000Y-46609000D03*
X110617000Y-47879000D03*
X113157000Y-49149000D03*
X110617000Y-50419000D03*
X113157000Y-51689000D03*
X110617000Y-52959000D03*
X113157000Y-54229000D03*
X187452000Y-47371000D03*
X187452000Y-44831000D03*
X187452000Y-42291000D03*
X189992000Y-43561000D03*
X189992000Y-46101000D03*
X189992000Y-48641000D03*
D18*
X136144000Y-31242000D03*
X140844000Y-31242000D03*
D19*
X132461000Y-48387000D03*
D20*
X129921000Y-48387000D03*
X132461000Y-50927000D03*
X129921000Y-50927000D03*
X132461000Y-53467000D03*
X129921000Y-53467000D03*
D19*
X155829000Y-35687000D03*
D20*
X158369000Y-35687000D03*
X155829000Y-33147000D03*
X158369000Y-33147000D03*
X155829000Y-30607000D03*
X158369000Y-30607000D03*
D21*
X148844000Y-34412000D03*
X148844000Y-32512000D03*
D22*
X151172200Y-42669486D03*
X149272200Y-42669486D03*
X127000000Y-29972000D03*
X128900000Y-29972000D03*
X131196000Y-34544000D03*
X133096000Y-34544000D03*
X131196000Y-32258000D03*
X133096000Y-32258000D03*
D23*
X145288000Y-34290000D03*
X145288000Y-28090000D03*
D21*
X151384000Y-34412000D03*
X151384000Y-32512000D03*
D22*
X128844000Y-39624000D03*
X130744000Y-39624000D03*
X128844000Y-41910000D03*
X130744000Y-41910000D03*
D21*
X136144000Y-43627000D03*
X136144000Y-45527000D03*
X133604000Y-43627000D03*
X133604000Y-45527000D03*
X138811000Y-41915000D03*
X138811000Y-43815000D03*
D22*
X164272000Y-32893000D03*
X162372000Y-32893000D03*
D21*
X155829000Y-48130500D03*
X155829000Y-46230500D03*
X155829000Y-52070000D03*
X155829000Y-50170000D03*
D24*
X122969000Y-49530000D03*
X122969000Y-48260000D03*
X122969000Y-46990000D03*
X122969000Y-45720000D03*
X117569000Y-45720000D03*
X117569000Y-46990000D03*
X117569000Y-48260000D03*
X117569000Y-49530000D03*
D25*
X126832000Y-32578000D03*
X126832000Y-33528000D03*
X126832000Y-34478000D03*
X129032000Y-34478000D03*
X129032000Y-32578000D03*
X129032000Y-33528000D03*
D10*
G36*
X170075334Y-40603712D02*
X170747086Y-41275464D01*
X169332872Y-42689678D01*
X168661120Y-42017926D01*
X170075334Y-40603712D01*
X170075334Y-40603712D01*
G37*
G36*
X169509648Y-40038027D02*
X170181400Y-40709779D01*
X168767186Y-42123993D01*
X168095434Y-41452241D01*
X169509648Y-40038027D01*
X169509648Y-40038027D01*
G37*
G36*
X168943963Y-39472341D02*
X169615715Y-40144093D01*
X168201501Y-41558307D01*
X167529749Y-40886555D01*
X168943963Y-39472341D01*
X168943963Y-39472341D01*
G37*
G36*
X168378278Y-38906656D02*
X169050030Y-39578408D01*
X167635816Y-40992622D01*
X166964064Y-40320870D01*
X168378278Y-38906656D01*
X168378278Y-38906656D01*
G37*
G36*
X167812592Y-38340970D02*
X168484344Y-39012722D01*
X167070130Y-40426936D01*
X166398378Y-39755184D01*
X167812592Y-38340970D01*
X167812592Y-38340970D01*
G37*
G36*
X167246907Y-37775285D02*
X167918659Y-38447037D01*
X166504445Y-39861251D01*
X165832693Y-39189499D01*
X167246907Y-37775285D01*
X167246907Y-37775285D01*
G37*
G36*
X166681221Y-37209600D02*
X167352973Y-37881352D01*
X165938759Y-39295566D01*
X165267007Y-38623814D01*
X166681221Y-37209600D01*
X166681221Y-37209600D01*
G37*
G36*
X166115536Y-36643914D02*
X166787288Y-37315666D01*
X165373074Y-38729880D01*
X164701322Y-38058128D01*
X166115536Y-36643914D01*
X166115536Y-36643914D01*
G37*
G36*
X162650712Y-37315666D02*
X163322464Y-36643914D01*
X164736678Y-38058128D01*
X164064926Y-38729880D01*
X162650712Y-37315666D01*
X162650712Y-37315666D01*
G37*
G36*
X162085027Y-37881352D02*
X162756779Y-37209600D01*
X164170993Y-38623814D01*
X163499241Y-39295566D01*
X162085027Y-37881352D01*
X162085027Y-37881352D01*
G37*
G36*
X161519341Y-38447037D02*
X162191093Y-37775285D01*
X163605307Y-39189499D01*
X162933555Y-39861251D01*
X161519341Y-38447037D01*
X161519341Y-38447037D01*
G37*
G36*
X160953656Y-39012722D02*
X161625408Y-38340970D01*
X163039622Y-39755184D01*
X162367870Y-40426936D01*
X160953656Y-39012722D01*
X160953656Y-39012722D01*
G37*
G36*
X160387970Y-39578408D02*
X161059722Y-38906656D01*
X162473936Y-40320870D01*
X161802184Y-40992622D01*
X160387970Y-39578408D01*
X160387970Y-39578408D01*
G37*
G36*
X159822285Y-40144093D02*
X160494037Y-39472341D01*
X161908251Y-40886555D01*
X161236499Y-41558307D01*
X159822285Y-40144093D01*
X159822285Y-40144093D01*
G37*
G36*
X159256600Y-40709779D02*
X159928352Y-40038027D01*
X161342566Y-41452241D01*
X160670814Y-42123993D01*
X159256600Y-40709779D01*
X159256600Y-40709779D01*
G37*
G36*
X158690914Y-41275464D02*
X159362666Y-40603712D01*
X160776880Y-42017926D01*
X160105128Y-42689678D01*
X158690914Y-41275464D01*
X158690914Y-41275464D01*
G37*
G36*
X160105128Y-42654322D02*
X160776880Y-43326074D01*
X159362666Y-44740288D01*
X158690914Y-44068536D01*
X160105128Y-42654322D01*
X160105128Y-42654322D01*
G37*
G36*
X160670814Y-43220007D02*
X161342566Y-43891759D01*
X159928352Y-45305973D01*
X159256600Y-44634221D01*
X160670814Y-43220007D01*
X160670814Y-43220007D01*
G37*
G36*
X161236499Y-43785693D02*
X161908251Y-44457445D01*
X160494037Y-45871659D01*
X159822285Y-45199907D01*
X161236499Y-43785693D01*
X161236499Y-43785693D01*
G37*
G36*
X161802184Y-44351378D02*
X162473936Y-45023130D01*
X161059722Y-46437344D01*
X160387970Y-45765592D01*
X161802184Y-44351378D01*
X161802184Y-44351378D01*
G37*
G36*
X162367870Y-44917064D02*
X163039622Y-45588816D01*
X161625408Y-47003030D01*
X160953656Y-46331278D01*
X162367870Y-44917064D01*
X162367870Y-44917064D01*
G37*
G36*
X162933555Y-45482749D02*
X163605307Y-46154501D01*
X162191093Y-47568715D01*
X161519341Y-46896963D01*
X162933555Y-45482749D01*
X162933555Y-45482749D01*
G37*
G36*
X163499241Y-46048434D02*
X164170993Y-46720186D01*
X162756779Y-48134400D01*
X162085027Y-47462648D01*
X163499241Y-46048434D01*
X163499241Y-46048434D01*
G37*
G36*
X164064926Y-46614120D02*
X164736678Y-47285872D01*
X163322464Y-48700086D01*
X162650712Y-48028334D01*
X164064926Y-46614120D01*
X164064926Y-46614120D01*
G37*
G36*
X164701322Y-47285872D02*
X165373074Y-46614120D01*
X166787288Y-48028334D01*
X166115536Y-48700086D01*
X164701322Y-47285872D01*
X164701322Y-47285872D01*
G37*
G36*
X165267007Y-46720186D02*
X165938759Y-46048434D01*
X167352973Y-47462648D01*
X166681221Y-48134400D01*
X165267007Y-46720186D01*
X165267007Y-46720186D01*
G37*
G36*
X165832693Y-46154501D02*
X166504445Y-45482749D01*
X167918659Y-46896963D01*
X167246907Y-47568715D01*
X165832693Y-46154501D01*
X165832693Y-46154501D01*
G37*
G36*
X166398378Y-45588816D02*
X167070130Y-44917064D01*
X168484344Y-46331278D01*
X167812592Y-47003030D01*
X166398378Y-45588816D01*
X166398378Y-45588816D01*
G37*
G36*
X166964064Y-45023130D02*
X167635816Y-44351378D01*
X169050030Y-45765592D01*
X168378278Y-46437344D01*
X166964064Y-45023130D01*
X166964064Y-45023130D01*
G37*
G36*
X167529749Y-44457445D02*
X168201501Y-43785693D01*
X169615715Y-45199907D01*
X168943963Y-45871659D01*
X167529749Y-44457445D01*
X167529749Y-44457445D01*
G37*
G36*
X168095434Y-43891759D02*
X168767186Y-43220007D01*
X170181400Y-44634221D01*
X169509648Y-45305973D01*
X168095434Y-43891759D01*
X168095434Y-43891759D01*
G37*
G36*
X168661120Y-43326074D02*
X169332872Y-42654322D01*
X170747086Y-44068536D01*
X170075334Y-44740288D01*
X168661120Y-43326074D01*
X168661120Y-43326074D01*
G37*
G36*
X148280043Y-53623901D02*
X149411414Y-54755272D01*
X148138621Y-56028065D01*
X147007250Y-54896694D01*
X148280043Y-53623901D01*
X148280043Y-53623901D01*
G37*
G36*
X146724408Y-55179536D02*
X147855779Y-56310907D01*
X146582986Y-57583700D01*
X145451615Y-56452329D01*
X146724408Y-55179536D01*
X146724408Y-55179536D01*
G37*
G36*
X147855779Y-56310907D02*
X148987150Y-57442278D01*
X147714357Y-58715071D01*
X146582986Y-57583700D01*
X147855779Y-56310907D01*
X147855779Y-56310907D01*
G37*
G36*
X149411414Y-54755272D02*
X150542785Y-55886643D01*
X149269992Y-57159436D01*
X148138621Y-56028065D01*
X149411414Y-54755272D01*
X149411414Y-54755272D01*
G37*
G36*
X168500157Y-37597585D02*
X167368786Y-36466214D01*
X168641579Y-35193421D01*
X169772950Y-36324792D01*
X168500157Y-37597585D01*
X168500157Y-37597585D01*
G37*
G36*
X170055792Y-36041950D02*
X168924421Y-34910579D01*
X170197214Y-33637786D01*
X171328585Y-34769157D01*
X170055792Y-36041950D01*
X170055792Y-36041950D01*
G37*
G36*
X168924421Y-34910579D02*
X167793050Y-33779208D01*
X169065843Y-32506415D01*
X170197214Y-33637786D01*
X168924421Y-34910579D01*
X168924421Y-34910579D01*
G37*
G36*
X167368786Y-36466214D02*
X166237415Y-35334843D01*
X167510208Y-34062050D01*
X168641579Y-35193421D01*
X167368786Y-36466214D01*
X167368786Y-36466214D01*
G37*
D15*
X163957000Y-26754000D03*
X163957000Y-24554000D03*
X161671000Y-26754000D03*
X161671000Y-24554000D03*
D21*
X163957000Y-28895000D03*
X163957000Y-30795000D03*
X161671000Y-28895000D03*
X161671000Y-30795000D03*
M02*
