G04 #@! TF.FileFunction,Legend,Top*
%FSLAX46Y46*%
G04 Gerber Fmt 4.6, Leading zero omitted, Abs format (unit mm)*
G04 Created by KiCad (PCBNEW 4.0.7-e2-6376~58~ubuntu16.04.1) date Fri Nov 24 11:23:52 2017*
%MOMM*%
%LPD*%
G01*
G04 APERTURE LIST*
%ADD10C,0.100000*%
%ADD11C,0.300000*%
%ADD12C,0.120000*%
%ADD13C,0.150000*%
G04 APERTURE END LIST*
D10*
D11*
X125469999Y-124908571D02*
X125755713Y-124908571D01*
X125898571Y-124980000D01*
X126041428Y-125122857D01*
X126112856Y-125408571D01*
X126112856Y-125908571D01*
X126041428Y-126194286D01*
X125898571Y-126337143D01*
X125755713Y-126408571D01*
X125469999Y-126408571D01*
X125327142Y-126337143D01*
X125184285Y-126194286D01*
X125112856Y-125908571D01*
X125112856Y-125408571D01*
X125184285Y-125122857D01*
X125327142Y-124980000D01*
X125469999Y-124908571D01*
X127470000Y-126408571D02*
X126755714Y-126408571D01*
X126755714Y-124908571D01*
X127970000Y-126408571D02*
X127970000Y-124908571D01*
X128684286Y-126408571D02*
X128684286Y-124908571D01*
X129541429Y-126408571D01*
X129541429Y-124908571D01*
X131398572Y-125622857D02*
X131898572Y-125622857D01*
X132112858Y-126408571D02*
X131398572Y-126408571D01*
X131398572Y-124908571D01*
X132112858Y-124908571D01*
X133470001Y-126408571D02*
X132755715Y-126408571D01*
X132755715Y-124908571D01*
X133970001Y-125622857D02*
X134470001Y-125622857D01*
X134684287Y-126408571D02*
X133970001Y-126408571D01*
X133970001Y-124908571D01*
X134684287Y-124908571D01*
X136184287Y-126265714D02*
X136112858Y-126337143D01*
X135898572Y-126408571D01*
X135755715Y-126408571D01*
X135541430Y-126337143D01*
X135398572Y-126194286D01*
X135327144Y-126051429D01*
X135255715Y-125765714D01*
X135255715Y-125551429D01*
X135327144Y-125265714D01*
X135398572Y-125122857D01*
X135541430Y-124980000D01*
X135755715Y-124908571D01*
X135898572Y-124908571D01*
X136112858Y-124980000D01*
X136184287Y-125051429D01*
X136612858Y-124908571D02*
X137470001Y-124908571D01*
X137041430Y-126408571D02*
X137041430Y-124908571D01*
X138827144Y-126408571D02*
X138327144Y-125694286D01*
X137970001Y-126408571D02*
X137970001Y-124908571D01*
X138541429Y-124908571D01*
X138684287Y-124980000D01*
X138755715Y-125051429D01*
X138827144Y-125194286D01*
X138827144Y-125408571D01*
X138755715Y-125551429D01*
X138684287Y-125622857D01*
X138541429Y-125694286D01*
X137970001Y-125694286D01*
X139470001Y-126408571D02*
X139470001Y-124908571D01*
X141041430Y-126265714D02*
X140970001Y-126337143D01*
X140755715Y-126408571D01*
X140612858Y-126408571D01*
X140398573Y-126337143D01*
X140255715Y-126194286D01*
X140184287Y-126051429D01*
X140112858Y-125765714D01*
X140112858Y-125551429D01*
X140184287Y-125265714D01*
X140255715Y-125122857D01*
X140398573Y-124980000D01*
X140612858Y-124908571D01*
X140755715Y-124908571D01*
X140970001Y-124980000D01*
X141041430Y-125051429D01*
X142827144Y-126408571D02*
X142827144Y-124908571D01*
X143327144Y-125980000D01*
X143827144Y-124908571D01*
X143827144Y-126408571D01*
X144827144Y-124908571D02*
X145112858Y-124908571D01*
X145255716Y-124980000D01*
X145398573Y-125122857D01*
X145470001Y-125408571D01*
X145470001Y-125908571D01*
X145398573Y-126194286D01*
X145255716Y-126337143D01*
X145112858Y-126408571D01*
X144827144Y-126408571D01*
X144684287Y-126337143D01*
X144541430Y-126194286D01*
X144470001Y-125908571D01*
X144470001Y-125408571D01*
X144541430Y-125122857D01*
X144684287Y-124980000D01*
X144827144Y-124908571D01*
X145898573Y-124908571D02*
X146755716Y-124908571D01*
X146327145Y-126408571D02*
X146327145Y-124908571D01*
X147541430Y-124908571D02*
X147827144Y-124908571D01*
X147970002Y-124980000D01*
X148112859Y-125122857D01*
X148184287Y-125408571D01*
X148184287Y-125908571D01*
X148112859Y-126194286D01*
X147970002Y-126337143D01*
X147827144Y-126408571D01*
X147541430Y-126408571D01*
X147398573Y-126337143D01*
X147255716Y-126194286D01*
X147184287Y-125908571D01*
X147184287Y-125408571D01*
X147255716Y-125122857D01*
X147398573Y-124980000D01*
X147541430Y-124908571D01*
X149684288Y-126408571D02*
X149184288Y-125694286D01*
X148827145Y-126408571D02*
X148827145Y-124908571D01*
X149398573Y-124908571D01*
X149541431Y-124980000D01*
X149612859Y-125051429D01*
X149684288Y-125194286D01*
X149684288Y-125408571D01*
X149612859Y-125551429D01*
X149541431Y-125622857D01*
X149398573Y-125694286D01*
X148827145Y-125694286D01*
X150255716Y-126337143D02*
X150470002Y-126408571D01*
X150827145Y-126408571D01*
X150970002Y-126337143D01*
X151041431Y-126265714D01*
X151112859Y-126122857D01*
X151112859Y-125980000D01*
X151041431Y-125837143D01*
X150970002Y-125765714D01*
X150827145Y-125694286D01*
X150541431Y-125622857D01*
X150398573Y-125551429D01*
X150327145Y-125480000D01*
X150255716Y-125337143D01*
X150255716Y-125194286D01*
X150327145Y-125051429D01*
X150398573Y-124980000D01*
X150541431Y-124908571D01*
X150898573Y-124908571D01*
X151112859Y-124980000D01*
X151755716Y-126408571D02*
X151755716Y-124908571D01*
X152327144Y-124908571D01*
X152470002Y-124980000D01*
X152541430Y-125051429D01*
X152612859Y-125194286D01*
X152612859Y-125408571D01*
X152541430Y-125551429D01*
X152470002Y-125622857D01*
X152327144Y-125694286D01*
X151755716Y-125694286D01*
X153541430Y-124908571D02*
X153827144Y-124908571D01*
X153970002Y-124980000D01*
X154112859Y-125122857D01*
X154184287Y-125408571D01*
X154184287Y-125908571D01*
X154112859Y-126194286D01*
X153970002Y-126337143D01*
X153827144Y-126408571D01*
X153541430Y-126408571D01*
X153398573Y-126337143D01*
X153255716Y-126194286D01*
X153184287Y-125908571D01*
X153184287Y-125408571D01*
X153255716Y-125122857D01*
X153398573Y-124980000D01*
X153541430Y-124908571D01*
X155684288Y-126408571D02*
X155184288Y-125694286D01*
X154827145Y-126408571D02*
X154827145Y-124908571D01*
X155398573Y-124908571D01*
X155541431Y-124980000D01*
X155612859Y-125051429D01*
X155684288Y-125194286D01*
X155684288Y-125408571D01*
X155612859Y-125551429D01*
X155541431Y-125622857D01*
X155398573Y-125694286D01*
X154827145Y-125694286D01*
X156112859Y-124908571D02*
X156970002Y-124908571D01*
X156541431Y-126408571D02*
X156541431Y-124908571D01*
X134470000Y-119823571D02*
X134470000Y-121037857D01*
X134541428Y-121180714D01*
X134612857Y-121252143D01*
X134755714Y-121323571D01*
X135041428Y-121323571D01*
X135184286Y-121252143D01*
X135255714Y-121180714D01*
X135327143Y-121037857D01*
X135327143Y-119823571D01*
X135827143Y-120323571D02*
X136398572Y-120323571D01*
X136041429Y-119823571D02*
X136041429Y-121109286D01*
X136112857Y-121252143D01*
X136255715Y-121323571D01*
X136398572Y-121323571D01*
X136827143Y-121252143D02*
X136970000Y-121323571D01*
X137255715Y-121323571D01*
X137398572Y-121252143D01*
X137470000Y-121109286D01*
X137470000Y-121037857D01*
X137398572Y-120895000D01*
X137255715Y-120823571D01*
X137041429Y-120823571D01*
X136898572Y-120752143D01*
X136827143Y-120609286D01*
X136827143Y-120537857D01*
X136898572Y-120395000D01*
X137041429Y-120323571D01*
X137255715Y-120323571D01*
X137398572Y-120395000D01*
X138755715Y-121323571D02*
X138755715Y-120537857D01*
X138684286Y-120395000D01*
X138541429Y-120323571D01*
X138255715Y-120323571D01*
X138112858Y-120395000D01*
X138755715Y-121252143D02*
X138612858Y-121323571D01*
X138255715Y-121323571D01*
X138112858Y-121252143D01*
X138041429Y-121109286D01*
X138041429Y-120966429D01*
X138112858Y-120823571D01*
X138255715Y-120752143D01*
X138612858Y-120752143D01*
X138755715Y-120680714D01*
X139327144Y-120323571D02*
X139684287Y-121323571D01*
X140041429Y-120323571D01*
X142541429Y-119895000D02*
X142398572Y-119823571D01*
X142184286Y-119823571D01*
X141970001Y-119895000D01*
X141827143Y-120037857D01*
X141755715Y-120180714D01*
X141684286Y-120466429D01*
X141684286Y-120680714D01*
X141755715Y-120966429D01*
X141827143Y-121109286D01*
X141970001Y-121252143D01*
X142184286Y-121323571D01*
X142327143Y-121323571D01*
X142541429Y-121252143D01*
X142612858Y-121180714D01*
X142612858Y-120680714D01*
X142327143Y-120680714D01*
X143898572Y-120323571D02*
X143898572Y-121323571D01*
X143255715Y-120323571D02*
X143255715Y-121109286D01*
X143327143Y-121252143D01*
X143470001Y-121323571D01*
X143684286Y-121323571D01*
X143827143Y-121252143D01*
X143898572Y-121180714D01*
X144612858Y-120323571D02*
X144612858Y-121823571D01*
X144612858Y-120395000D02*
X144755715Y-120323571D01*
X145041429Y-120323571D01*
X145184286Y-120395000D01*
X145255715Y-120466429D01*
X145327144Y-120609286D01*
X145327144Y-121037857D01*
X145255715Y-121180714D01*
X145184286Y-121252143D01*
X145041429Y-121323571D01*
X144755715Y-121323571D01*
X144612858Y-121252143D01*
X145755715Y-120323571D02*
X146327144Y-120323571D01*
X145970001Y-119823571D02*
X145970001Y-121109286D01*
X146041429Y-121252143D01*
X146184287Y-121323571D01*
X146327144Y-121323571D01*
X147470001Y-121323571D02*
X147470001Y-120537857D01*
X147398572Y-120395000D01*
X147255715Y-120323571D01*
X146970001Y-120323571D01*
X146827144Y-120395000D01*
X147470001Y-121252143D02*
X147327144Y-121323571D01*
X146970001Y-121323571D01*
X146827144Y-121252143D01*
X146755715Y-121109286D01*
X146755715Y-120966429D01*
X146827144Y-120823571D01*
X146970001Y-120752143D01*
X147327144Y-120752143D01*
X147470001Y-120680714D01*
X131505715Y-122373571D02*
X132362858Y-122373571D01*
X131934287Y-123873571D02*
X131934287Y-122373571D01*
X133148572Y-122373571D02*
X133434286Y-122373571D01*
X133577144Y-122445000D01*
X133720001Y-122587857D01*
X133791429Y-122873571D01*
X133791429Y-123373571D01*
X133720001Y-123659286D01*
X133577144Y-123802143D01*
X133434286Y-123873571D01*
X133148572Y-123873571D01*
X133005715Y-123802143D01*
X132862858Y-123659286D01*
X132791429Y-123373571D01*
X132791429Y-122873571D01*
X132862858Y-122587857D01*
X133005715Y-122445000D01*
X133148572Y-122373571D01*
X134434287Y-123302143D02*
X135577144Y-123302143D01*
X136220001Y-122516429D02*
X136291430Y-122445000D01*
X136434287Y-122373571D01*
X136791430Y-122373571D01*
X136934287Y-122445000D01*
X137005716Y-122516429D01*
X137077144Y-122659286D01*
X137077144Y-122802143D01*
X137005716Y-123016429D01*
X136148573Y-123873571D01*
X137077144Y-123873571D01*
X138362858Y-122373571D02*
X138077144Y-122373571D01*
X137934287Y-122445000D01*
X137862858Y-122516429D01*
X137720001Y-122730714D01*
X137648572Y-123016429D01*
X137648572Y-123587857D01*
X137720001Y-123730714D01*
X137791429Y-123802143D01*
X137934287Y-123873571D01*
X138220001Y-123873571D01*
X138362858Y-123802143D01*
X138434287Y-123730714D01*
X138505715Y-123587857D01*
X138505715Y-123230714D01*
X138434287Y-123087857D01*
X138362858Y-123016429D01*
X138220001Y-122945000D01*
X137934287Y-122945000D01*
X137791429Y-123016429D01*
X137720001Y-123087857D01*
X137648572Y-123230714D01*
X139005715Y-122373571D02*
X139934286Y-122373571D01*
X139434286Y-122945000D01*
X139648572Y-122945000D01*
X139791429Y-123016429D01*
X139862858Y-123087857D01*
X139934286Y-123230714D01*
X139934286Y-123587857D01*
X139862858Y-123730714D01*
X139791429Y-123802143D01*
X139648572Y-123873571D01*
X139220000Y-123873571D01*
X139077143Y-123802143D01*
X139005715Y-123730714D01*
X141505714Y-122373571D02*
X142362857Y-122373571D01*
X141934286Y-123873571D02*
X141934286Y-122373571D01*
X143434285Y-123802143D02*
X143291428Y-123873571D01*
X143005714Y-123873571D01*
X142862857Y-123802143D01*
X142791428Y-123659286D01*
X142791428Y-123087857D01*
X142862857Y-122945000D01*
X143005714Y-122873571D01*
X143291428Y-122873571D01*
X143434285Y-122945000D01*
X143505714Y-123087857D01*
X143505714Y-123230714D01*
X142791428Y-123373571D01*
X144077142Y-123802143D02*
X144219999Y-123873571D01*
X144505714Y-123873571D01*
X144648571Y-123802143D01*
X144719999Y-123659286D01*
X144719999Y-123587857D01*
X144648571Y-123445000D01*
X144505714Y-123373571D01*
X144291428Y-123373571D01*
X144148571Y-123302143D01*
X144077142Y-123159286D01*
X144077142Y-123087857D01*
X144148571Y-122945000D01*
X144291428Y-122873571D01*
X144505714Y-122873571D01*
X144648571Y-122945000D01*
X145148571Y-122873571D02*
X145720000Y-122873571D01*
X145362857Y-122373571D02*
X145362857Y-123659286D01*
X145434285Y-123802143D01*
X145577143Y-123873571D01*
X145720000Y-123873571D01*
X148148571Y-123873571D02*
X147291428Y-123873571D01*
X147720000Y-123873571D02*
X147720000Y-122373571D01*
X147577143Y-122587857D01*
X147434285Y-122730714D01*
X147291428Y-122802143D01*
X148791428Y-123730714D02*
X148862856Y-123802143D01*
X148791428Y-123873571D01*
X148719999Y-123802143D01*
X148791428Y-123730714D01*
X148791428Y-123873571D01*
X149791428Y-122373571D02*
X149934285Y-122373571D01*
X150077142Y-122445000D01*
X150148571Y-122516429D01*
X150220000Y-122659286D01*
X150291428Y-122945000D01*
X150291428Y-123302143D01*
X150220000Y-123587857D01*
X150148571Y-123730714D01*
X150077142Y-123802143D01*
X149934285Y-123873571D01*
X149791428Y-123873571D01*
X149648571Y-123802143D01*
X149577142Y-123730714D01*
X149505714Y-123587857D01*
X149434285Y-123302143D01*
X149434285Y-122945000D01*
X149505714Y-122659286D01*
X149577142Y-122516429D01*
X149648571Y-122445000D01*
X149791428Y-122373571D01*
D12*
X125790000Y-97850000D02*
X125790000Y-95190000D01*
X123190000Y-97850000D02*
X125790000Y-97850000D01*
X123190000Y-95190000D02*
X125790000Y-95190000D01*
X123190000Y-97850000D02*
X123190000Y-95190000D01*
X121920000Y-97850000D02*
X120590000Y-97850000D01*
X120590000Y-97850000D02*
X120590000Y-96520000D01*
X125790000Y-113090000D02*
X125790000Y-110430000D01*
X123190000Y-113090000D02*
X125790000Y-113090000D01*
X123190000Y-110430000D02*
X125790000Y-110430000D01*
X123190000Y-113090000D02*
X123190000Y-110430000D01*
X121920000Y-113090000D02*
X120590000Y-113090000D01*
X120590000Y-113090000D02*
X120590000Y-111760000D01*
D13*
X121586667Y-98512381D02*
X121586667Y-99226667D01*
X121539047Y-99369524D01*
X121443809Y-99464762D01*
X121300952Y-99512381D01*
X121205714Y-99512381D01*
X122586667Y-99512381D02*
X122015238Y-99512381D01*
X122300952Y-99512381D02*
X122300952Y-98512381D01*
X122205714Y-98655238D01*
X122110476Y-98750476D01*
X122015238Y-98798095D01*
X121586667Y-108672381D02*
X121586667Y-109386667D01*
X121539047Y-109529524D01*
X121443809Y-109624762D01*
X121300952Y-109672381D01*
X121205714Y-109672381D01*
X122015238Y-108767619D02*
X122062857Y-108720000D01*
X122158095Y-108672381D01*
X122396191Y-108672381D01*
X122491429Y-108720000D01*
X122539048Y-108767619D01*
X122586667Y-108862857D01*
X122586667Y-108958095D01*
X122539048Y-109100952D01*
X121967619Y-109672381D01*
X122586667Y-109672381D01*
X158097481Y-104662266D02*
X157621290Y-104995600D01*
X158097481Y-105233695D02*
X157097481Y-105233695D01*
X157097481Y-104852742D01*
X157145100Y-104757504D01*
X157192719Y-104709885D01*
X157287957Y-104662266D01*
X157430814Y-104662266D01*
X157526052Y-104709885D01*
X157573671Y-104757504D01*
X157621290Y-104852742D01*
X157621290Y-105233695D01*
X158097481Y-103709885D02*
X158097481Y-104281314D01*
X158097481Y-103995600D02*
X157097481Y-103995600D01*
X157240338Y-104090838D01*
X157335576Y-104186076D01*
X157383195Y-104281314D01*
M02*
