G04 #@! TF.FileFunction,Copper,L2,Bot,Signal*
%FSLAX46Y46*%
G04 Gerber Fmt 4.6, Leading zero omitted, Abs format (unit mm)*
G04 Created by KiCad (PCBNEW 4.0.7-e2-6376~58~ubuntu16.04.1) date Fri Nov 24 11:23:52 2017*
%MOMM*%
%LPD*%
G01*
G04 APERTURE LIST*
%ADD10C,0.100000*%
%ADD11R,1.700000X1.700000*%
%ADD12O,1.700000X1.700000*%
%ADD13C,0.254000*%
G04 APERTURE END LIST*
D10*
D11*
X121920000Y-96520000D03*
D12*
X124460000Y-96520000D03*
D11*
X121920000Y-111760000D03*
D12*
X124460000Y-111760000D03*
D13*
G36*
X161850000Y-114173000D02*
X160147000Y-114173000D01*
X160147000Y-94107000D01*
X161850000Y-94107000D01*
X161850000Y-114173000D01*
X161850000Y-114173000D01*
G37*
X161850000Y-114173000D02*
X160147000Y-114173000D01*
X160147000Y-94107000D01*
X161850000Y-94107000D01*
X161850000Y-114173000D01*
G36*
X161163000Y-93853000D02*
X160147000Y-93853000D01*
X160147000Y-92837000D01*
X161163000Y-92837000D01*
X161163000Y-93853000D01*
X161163000Y-93853000D01*
G37*
X161163000Y-93853000D02*
X160147000Y-93853000D01*
X160147000Y-92837000D01*
X161163000Y-92837000D01*
X161163000Y-93853000D01*
G36*
X161850000Y-114830394D02*
X160147000Y-116533394D01*
X160147000Y-114427000D01*
X161850000Y-114427000D01*
X161850000Y-114830394D01*
X161850000Y-114830394D01*
G37*
X161850000Y-114830394D02*
X160147000Y-116533394D01*
X160147000Y-114427000D01*
X161850000Y-114427000D01*
X161850000Y-114830394D01*
G36*
X161850000Y-113769606D02*
X161850000Y-115436019D01*
X161185626Y-116764768D01*
X160147000Y-117803394D01*
X160147000Y-112066606D01*
X161850000Y-113769606D01*
X161850000Y-113769606D01*
G37*
X161850000Y-113769606D02*
X161850000Y-115436019D01*
X161185626Y-116764768D01*
X160147000Y-117803394D01*
X160147000Y-112066606D01*
X161850000Y-113769606D01*
G36*
X160714989Y-92302152D02*
X161304170Y-92695830D01*
X161697848Y-93285011D01*
X161810828Y-93853000D01*
X160147000Y-93853000D01*
X160147000Y-92189172D01*
X160714989Y-92302152D01*
X160714989Y-92302152D01*
G37*
X160714989Y-92302152D02*
X161304170Y-92695830D01*
X161697848Y-93285011D01*
X161810828Y-93853000D01*
X160147000Y-93853000D01*
X160147000Y-92189172D01*
X160714989Y-92302152D01*
G36*
X159893000Y-117983000D02*
X141097000Y-117983000D01*
X141097000Y-92150000D01*
X159893000Y-92150000D01*
X159893000Y-117983000D01*
X159893000Y-117983000D01*
G37*
X159893000Y-117983000D02*
X141097000Y-117983000D01*
X141097000Y-92150000D01*
X159893000Y-92150000D01*
X159893000Y-117983000D01*
M02*
