G04 #@! TF.FileFunction,Soldermask,Bot*
%FSLAX46Y46*%
G04 Gerber Fmt 4.6, Leading zero omitted, Abs format (unit mm)*
G04 Created by KiCad (PCBNEW 4.0.7-e2-6376~58~ubuntu16.04.1) date Tue May  1 21:05:29 2018*
%MOMM*%
%LPD*%
G01*
G04 APERTURE LIST*
%ADD10C,0.100000*%
%ADD11R,1.727200X1.727200*%
%ADD12O,1.727200X1.727200*%
%ADD13C,2.850000*%
%ADD14C,2.000000*%
%ADD15C,3.000000*%
%ADD16C,1.397000*%
%ADD17C,1.981000*%
%ADD18C,1.300000*%
%ADD19C,1.500000*%
%ADD20C,2.750000*%
G04 APERTURE END LIST*
D10*
D11*
X61036200Y-102806500D03*
D12*
X63576200Y-102806500D03*
X61036200Y-105346500D03*
X63576200Y-105346500D03*
X61036200Y-107886500D03*
X63576200Y-107886500D03*
D13*
X69596000Y-139255500D03*
D14*
X74296000Y-146055500D03*
X43896000Y-146055500D03*
X73796000Y-127955500D03*
X45396000Y-127955500D03*
D15*
X59096000Y-142755500D03*
X63096000Y-142755500D03*
X61096000Y-138755500D03*
X63096000Y-134755500D03*
X59096000Y-134755500D03*
X55096000Y-142755500D03*
X57096000Y-138755500D03*
X55096000Y-134755500D03*
D13*
X48596000Y-139255500D03*
D16*
X98912800Y-88442800D03*
X95412800Y-88442800D03*
D17*
X97162800Y-90672800D03*
D16*
X102412800Y-88442800D03*
X105912800Y-88442800D03*
X80416400Y-88087200D03*
X76916400Y-88087200D03*
D17*
X78666400Y-90317200D03*
D16*
X83916400Y-88087200D03*
X87416400Y-88087200D03*
D18*
X56007000Y-89281000D03*
X53467000Y-89281000D03*
X50927000Y-89281000D03*
X58547000Y-89281000D03*
X52197000Y-86741000D03*
X54737000Y-86741000D03*
X57277000Y-86741000D03*
X59817000Y-86741000D03*
X61087000Y-89281000D03*
X62357000Y-86741000D03*
X63627000Y-89281000D03*
X64897000Y-86741000D03*
X66167000Y-89281000D03*
X67437000Y-86741000D03*
X68707000Y-89281000D03*
X69977000Y-86741000D03*
D14*
X49527000Y-87481000D03*
D11*
X108712000Y-115443000D03*
D12*
X111252000Y-115443000D03*
X108712000Y-117983000D03*
X111252000Y-117983000D03*
X108712000Y-120523000D03*
X111252000Y-120523000D03*
D19*
X87376000Y-143319000D03*
X89916000Y-143319000D03*
X100436000Y-143319000D03*
X97896000Y-143319000D03*
X89466000Y-139319000D03*
X92006000Y-139319000D03*
X94546000Y-139319000D03*
X97086000Y-139319000D03*
X90736000Y-136779000D03*
X93276000Y-136779000D03*
X95816000Y-136779000D03*
X98356000Y-136779000D03*
D20*
X88906000Y-147319000D03*
X98906000Y-147319000D03*
M02*
