G04 #@! TF.FileFunction,Soldermask,Top*
%FSLAX46Y46*%
G04 Gerber Fmt 4.6, Leading zero omitted, Abs format (unit mm)*
G04 Created by KiCad (PCBNEW 4.0.7-e2-6376~58~ubuntu16.04.1) date Tue May  1 21:05:29 2018*
%MOMM*%
%LPD*%
G01*
G04 APERTURE LIST*
%ADD10C,0.100000*%
%ADD11R,1.250000X1.000000*%
%ADD12R,1.000000X1.600000*%
%ADD13R,1.000000X1.250000*%
%ADD14R,1.778000X2.159000*%
%ADD15R,1.200000X1.200000*%
%ADD16R,0.900000X2.500000*%
%ADD17R,1.727200X1.727200*%
%ADD18O,1.727200X1.727200*%
%ADD19C,2.850000*%
%ADD20C,2.000000*%
%ADD21C,3.000000*%
%ADD22C,1.397000*%
%ADD23C,1.981000*%
%ADD24C,1.300000*%
%ADD25R,3.300000X8.200000*%
%ADD26R,0.700000X1.300000*%
%ADD27R,1.300000X0.700000*%
%ADD28R,1.000000X3.200000*%
%ADD29R,1.550000X0.600000*%
%ADD30R,1.060000X0.650000*%
%ADD31C,1.500000*%
%ADD32C,2.750000*%
%ADD33R,1.400000X1.200000*%
%ADD34R,1.200000X1.400000*%
%ADD35R,1.500000X1.600000*%
G04 APERTURE END LIST*
D10*
G36*
X109964695Y-108314719D02*
X109080812Y-109198602D01*
X108373705Y-108491495D01*
X109257588Y-107607612D01*
X109964695Y-108314719D01*
X109964695Y-108314719D01*
G37*
G36*
X108550481Y-106900505D02*
X107666598Y-107784388D01*
X106959491Y-107077281D01*
X107843374Y-106193398D01*
X108550481Y-106900505D01*
X108550481Y-106900505D01*
G37*
G36*
X95051119Y-112728084D02*
X94662210Y-112339175D01*
X95793581Y-111207804D01*
X96182490Y-111596713D01*
X95051119Y-112728084D01*
X95051119Y-112728084D01*
G37*
G36*
X95616805Y-113293769D02*
X95227896Y-112904860D01*
X96359267Y-111773489D01*
X96748176Y-112162398D01*
X95616805Y-113293769D01*
X95616805Y-113293769D01*
G37*
G36*
X96182490Y-113859455D02*
X95793581Y-113470546D01*
X96924952Y-112339175D01*
X97313861Y-112728084D01*
X96182490Y-113859455D01*
X96182490Y-113859455D01*
G37*
G36*
X96748175Y-114425140D02*
X96359266Y-114036231D01*
X97490637Y-112904860D01*
X97879546Y-113293769D01*
X96748175Y-114425140D01*
X96748175Y-114425140D01*
G37*
G36*
X97313861Y-114990826D02*
X96924952Y-114601917D01*
X98056323Y-113470546D01*
X98445232Y-113859455D01*
X97313861Y-114990826D01*
X97313861Y-114990826D01*
G37*
G36*
X97879546Y-115556511D02*
X97490637Y-115167602D01*
X98622008Y-114036231D01*
X99010917Y-114425140D01*
X97879546Y-115556511D01*
X97879546Y-115556511D01*
G37*
G36*
X98445232Y-116122196D02*
X98056323Y-115733287D01*
X99187694Y-114601916D01*
X99576603Y-114990825D01*
X98445232Y-116122196D01*
X98445232Y-116122196D01*
G37*
G36*
X99010917Y-116687882D02*
X98622008Y-116298973D01*
X99753379Y-115167602D01*
X100142288Y-115556511D01*
X99010917Y-116687882D01*
X99010917Y-116687882D01*
G37*
G36*
X102192898Y-116298973D02*
X101803989Y-116687882D01*
X100672618Y-115556511D01*
X101061527Y-115167602D01*
X102192898Y-116298973D01*
X102192898Y-116298973D01*
G37*
G36*
X102758583Y-115733287D02*
X102369674Y-116122196D01*
X101238303Y-114990825D01*
X101627212Y-114601916D01*
X102758583Y-115733287D01*
X102758583Y-115733287D01*
G37*
G36*
X103324269Y-115167602D02*
X102935360Y-115556511D01*
X101803989Y-114425140D01*
X102192898Y-114036231D01*
X103324269Y-115167602D01*
X103324269Y-115167602D01*
G37*
G36*
X103889954Y-114601917D02*
X103501045Y-114990826D01*
X102369674Y-113859455D01*
X102758583Y-113470546D01*
X103889954Y-114601917D01*
X103889954Y-114601917D01*
G37*
G36*
X104455640Y-114036231D02*
X104066731Y-114425140D01*
X102935360Y-113293769D01*
X103324269Y-112904860D01*
X104455640Y-114036231D01*
X104455640Y-114036231D01*
G37*
G36*
X105021325Y-113470546D02*
X104632416Y-113859455D01*
X103501045Y-112728084D01*
X103889954Y-112339175D01*
X105021325Y-113470546D01*
X105021325Y-113470546D01*
G37*
G36*
X105587010Y-112904860D02*
X105198101Y-113293769D01*
X104066730Y-112162398D01*
X104455639Y-111773489D01*
X105587010Y-112904860D01*
X105587010Y-112904860D01*
G37*
G36*
X106152696Y-112339175D02*
X105763787Y-112728084D01*
X104632416Y-111596713D01*
X105021325Y-111207804D01*
X106152696Y-112339175D01*
X106152696Y-112339175D01*
G37*
G36*
X105021325Y-110677474D02*
X104632416Y-110288565D01*
X105763787Y-109157194D01*
X106152696Y-109546103D01*
X105021325Y-110677474D01*
X105021325Y-110677474D01*
G37*
G36*
X104455639Y-110111789D02*
X104066730Y-109722880D01*
X105198101Y-108591509D01*
X105587010Y-108980418D01*
X104455639Y-110111789D01*
X104455639Y-110111789D01*
G37*
G36*
X103889954Y-109546103D02*
X103501045Y-109157194D01*
X104632416Y-108025823D01*
X105021325Y-108414732D01*
X103889954Y-109546103D01*
X103889954Y-109546103D01*
G37*
G36*
X103324269Y-108980418D02*
X102935360Y-108591509D01*
X104066731Y-107460138D01*
X104455640Y-107849047D01*
X103324269Y-108980418D01*
X103324269Y-108980418D01*
G37*
G36*
X102758583Y-108414732D02*
X102369674Y-108025823D01*
X103501045Y-106894452D01*
X103889954Y-107283361D01*
X102758583Y-108414732D01*
X102758583Y-108414732D01*
G37*
G36*
X102192898Y-107849047D02*
X101803989Y-107460138D01*
X102935360Y-106328767D01*
X103324269Y-106717676D01*
X102192898Y-107849047D01*
X102192898Y-107849047D01*
G37*
G36*
X101627212Y-107283362D02*
X101238303Y-106894453D01*
X102369674Y-105763082D01*
X102758583Y-106151991D01*
X101627212Y-107283362D01*
X101627212Y-107283362D01*
G37*
G36*
X101061527Y-106717676D02*
X100672618Y-106328767D01*
X101803989Y-105197396D01*
X102192898Y-105586305D01*
X101061527Y-106717676D01*
X101061527Y-106717676D01*
G37*
G36*
X100142288Y-106328767D02*
X99753379Y-106717676D01*
X98622008Y-105586305D01*
X99010917Y-105197396D01*
X100142288Y-106328767D01*
X100142288Y-106328767D01*
G37*
G36*
X99576603Y-106894453D02*
X99187694Y-107283362D01*
X98056323Y-106151991D01*
X98445232Y-105763082D01*
X99576603Y-106894453D01*
X99576603Y-106894453D01*
G37*
G36*
X99010917Y-107460138D02*
X98622008Y-107849047D01*
X97490637Y-106717676D01*
X97879546Y-106328767D01*
X99010917Y-107460138D01*
X99010917Y-107460138D01*
G37*
G36*
X98445232Y-108025823D02*
X98056323Y-108414732D01*
X96924952Y-107283361D01*
X97313861Y-106894452D01*
X98445232Y-108025823D01*
X98445232Y-108025823D01*
G37*
G36*
X97879546Y-108591509D02*
X97490637Y-108980418D01*
X96359266Y-107849047D01*
X96748175Y-107460138D01*
X97879546Y-108591509D01*
X97879546Y-108591509D01*
G37*
G36*
X97313861Y-109157194D02*
X96924952Y-109546103D01*
X95793581Y-108414732D01*
X96182490Y-108025823D01*
X97313861Y-109157194D01*
X97313861Y-109157194D01*
G37*
G36*
X96748176Y-109722880D02*
X96359267Y-110111789D01*
X95227896Y-108980418D01*
X95616805Y-108591509D01*
X96748176Y-109722880D01*
X96748176Y-109722880D01*
G37*
G36*
X96182490Y-110288565D02*
X95793581Y-110677474D01*
X94662210Y-109546103D01*
X95051119Y-109157194D01*
X96182490Y-110288565D01*
X96182490Y-110288565D01*
G37*
D11*
X59842400Y-114268000D03*
X59842400Y-112268000D03*
D10*
G36*
X81309402Y-103945919D02*
X80425519Y-104829802D01*
X79718412Y-104122695D01*
X80602295Y-103238812D01*
X81309402Y-103945919D01*
X81309402Y-103945919D01*
G37*
G36*
X79895188Y-102531705D02*
X79011305Y-103415588D01*
X78304198Y-102708481D01*
X79188081Y-101824598D01*
X79895188Y-102531705D01*
X79895188Y-102531705D01*
G37*
D12*
X44426000Y-123799600D03*
X41426000Y-123799600D03*
D11*
X63246000Y-114284000D03*
X63246000Y-112284000D03*
D13*
X48879000Y-120523000D03*
X46879000Y-120523000D03*
X49165000Y-110109000D03*
X51165000Y-110109000D03*
X49149000Y-107823000D03*
X51149000Y-107823000D03*
X49181000Y-105537000D03*
X51181000Y-105537000D03*
D11*
X81038700Y-114570000D03*
X81038700Y-116570000D03*
D13*
X76673200Y-118554500D03*
X78673200Y-118554500D03*
D11*
X93726000Y-117491000D03*
X93726000Y-119491000D03*
D13*
X97393000Y-121412000D03*
X95393000Y-121412000D03*
D14*
X81534000Y-133959600D03*
X77470000Y-133959600D03*
D15*
X43899000Y-116649500D03*
X41699000Y-116649500D03*
X43535600Y-98196400D03*
X41335600Y-98196400D03*
X71069200Y-120566000D03*
X71069200Y-122766000D03*
X74498200Y-120693000D03*
X74498200Y-122893000D03*
D10*
G36*
X108188183Y-102591345D02*
X107339655Y-101742817D01*
X108188183Y-100894289D01*
X109036711Y-101742817D01*
X108188183Y-102591345D01*
X108188183Y-102591345D01*
G37*
G36*
X109743817Y-101035711D02*
X108895289Y-100187183D01*
X109743817Y-99338655D01*
X110592345Y-100187183D01*
X109743817Y-101035711D01*
X109743817Y-101035711D01*
G37*
G36*
X105521183Y-100559345D02*
X104672655Y-99710817D01*
X105521183Y-98862289D01*
X106369711Y-99710817D01*
X105521183Y-100559345D01*
X105521183Y-100559345D01*
G37*
G36*
X107076817Y-99003711D02*
X106228289Y-98155183D01*
X107076817Y-97306655D01*
X107925345Y-98155183D01*
X107076817Y-99003711D01*
X107076817Y-99003711D01*
G37*
D16*
X54168040Y-124134880D03*
X51268040Y-124134880D03*
D10*
G36*
X67689505Y-110193898D02*
X67300596Y-109804989D01*
X68431967Y-108673618D01*
X68820876Y-109062527D01*
X67689505Y-110193898D01*
X67689505Y-110193898D01*
G37*
G36*
X68255191Y-110759583D02*
X67866282Y-110370674D01*
X68997653Y-109239303D01*
X69386562Y-109628212D01*
X68255191Y-110759583D01*
X68255191Y-110759583D01*
G37*
G36*
X68820876Y-111325269D02*
X68431967Y-110936360D01*
X69563338Y-109804989D01*
X69952247Y-110193898D01*
X68820876Y-111325269D01*
X68820876Y-111325269D01*
G37*
G36*
X69386561Y-111890954D02*
X68997652Y-111502045D01*
X70129023Y-110370674D01*
X70517932Y-110759583D01*
X69386561Y-111890954D01*
X69386561Y-111890954D01*
G37*
G36*
X69952247Y-112456640D02*
X69563338Y-112067731D01*
X70694709Y-110936360D01*
X71083618Y-111325269D01*
X69952247Y-112456640D01*
X69952247Y-112456640D01*
G37*
G36*
X70517932Y-113022325D02*
X70129023Y-112633416D01*
X71260394Y-111502045D01*
X71649303Y-111890954D01*
X70517932Y-113022325D01*
X70517932Y-113022325D01*
G37*
G36*
X71083618Y-113588010D02*
X70694709Y-113199101D01*
X71826080Y-112067730D01*
X72214989Y-112456639D01*
X71083618Y-113588010D01*
X71083618Y-113588010D01*
G37*
G36*
X71649303Y-114153696D02*
X71260394Y-113764787D01*
X72391765Y-112633416D01*
X72780674Y-113022325D01*
X71649303Y-114153696D01*
X71649303Y-114153696D01*
G37*
G36*
X74831284Y-113764787D02*
X74442375Y-114153696D01*
X73311004Y-113022325D01*
X73699913Y-112633416D01*
X74831284Y-113764787D01*
X74831284Y-113764787D01*
G37*
G36*
X75396969Y-113199101D02*
X75008060Y-113588010D01*
X73876689Y-112456639D01*
X74265598Y-112067730D01*
X75396969Y-113199101D01*
X75396969Y-113199101D01*
G37*
G36*
X75962655Y-112633416D02*
X75573746Y-113022325D01*
X74442375Y-111890954D01*
X74831284Y-111502045D01*
X75962655Y-112633416D01*
X75962655Y-112633416D01*
G37*
G36*
X76528340Y-112067731D02*
X76139431Y-112456640D01*
X75008060Y-111325269D01*
X75396969Y-110936360D01*
X76528340Y-112067731D01*
X76528340Y-112067731D01*
G37*
G36*
X77094026Y-111502045D02*
X76705117Y-111890954D01*
X75573746Y-110759583D01*
X75962655Y-110370674D01*
X77094026Y-111502045D01*
X77094026Y-111502045D01*
G37*
G36*
X77659711Y-110936360D02*
X77270802Y-111325269D01*
X76139431Y-110193898D01*
X76528340Y-109804989D01*
X77659711Y-110936360D01*
X77659711Y-110936360D01*
G37*
G36*
X78225396Y-110370674D02*
X77836487Y-110759583D01*
X76705116Y-109628212D01*
X77094025Y-109239303D01*
X78225396Y-110370674D01*
X78225396Y-110370674D01*
G37*
G36*
X78791082Y-109804989D02*
X78402173Y-110193898D01*
X77270802Y-109062527D01*
X77659711Y-108673618D01*
X78791082Y-109804989D01*
X78791082Y-109804989D01*
G37*
G36*
X77659711Y-108143288D02*
X77270802Y-107754379D01*
X78402173Y-106623008D01*
X78791082Y-107011917D01*
X77659711Y-108143288D01*
X77659711Y-108143288D01*
G37*
G36*
X77094025Y-107577603D02*
X76705116Y-107188694D01*
X77836487Y-106057323D01*
X78225396Y-106446232D01*
X77094025Y-107577603D01*
X77094025Y-107577603D01*
G37*
G36*
X76528340Y-107011917D02*
X76139431Y-106623008D01*
X77270802Y-105491637D01*
X77659711Y-105880546D01*
X76528340Y-107011917D01*
X76528340Y-107011917D01*
G37*
G36*
X75962655Y-106446232D02*
X75573746Y-106057323D01*
X76705117Y-104925952D01*
X77094026Y-105314861D01*
X75962655Y-106446232D01*
X75962655Y-106446232D01*
G37*
G36*
X75396969Y-105880546D02*
X75008060Y-105491637D01*
X76139431Y-104360266D01*
X76528340Y-104749175D01*
X75396969Y-105880546D01*
X75396969Y-105880546D01*
G37*
G36*
X74831284Y-105314861D02*
X74442375Y-104925952D01*
X75573746Y-103794581D01*
X75962655Y-104183490D01*
X74831284Y-105314861D01*
X74831284Y-105314861D01*
G37*
G36*
X74265598Y-104749176D02*
X73876689Y-104360267D01*
X75008060Y-103228896D01*
X75396969Y-103617805D01*
X74265598Y-104749176D01*
X74265598Y-104749176D01*
G37*
G36*
X73699913Y-104183490D02*
X73311004Y-103794581D01*
X74442375Y-102663210D01*
X74831284Y-103052119D01*
X73699913Y-104183490D01*
X73699913Y-104183490D01*
G37*
G36*
X72780674Y-103794581D02*
X72391765Y-104183490D01*
X71260394Y-103052119D01*
X71649303Y-102663210D01*
X72780674Y-103794581D01*
X72780674Y-103794581D01*
G37*
G36*
X72214989Y-104360267D02*
X71826080Y-104749176D01*
X70694709Y-103617805D01*
X71083618Y-103228896D01*
X72214989Y-104360267D01*
X72214989Y-104360267D01*
G37*
G36*
X71649303Y-104925952D02*
X71260394Y-105314861D01*
X70129023Y-104183490D01*
X70517932Y-103794581D01*
X71649303Y-104925952D01*
X71649303Y-104925952D01*
G37*
G36*
X71083618Y-105491637D02*
X70694709Y-105880546D01*
X69563338Y-104749175D01*
X69952247Y-104360266D01*
X71083618Y-105491637D01*
X71083618Y-105491637D01*
G37*
G36*
X70517932Y-106057323D02*
X70129023Y-106446232D01*
X68997652Y-105314861D01*
X69386561Y-104925952D01*
X70517932Y-106057323D01*
X70517932Y-106057323D01*
G37*
G36*
X69952247Y-106623008D02*
X69563338Y-107011917D01*
X68431967Y-105880546D01*
X68820876Y-105491637D01*
X69952247Y-106623008D01*
X69952247Y-106623008D01*
G37*
G36*
X69386562Y-107188694D02*
X68997653Y-107577603D01*
X67866282Y-106446232D01*
X68255191Y-106057323D01*
X69386562Y-107188694D01*
X69386562Y-107188694D01*
G37*
G36*
X68820876Y-107754379D02*
X68431967Y-108143288D01*
X67300596Y-107011917D01*
X67689505Y-106623008D01*
X68820876Y-107754379D01*
X68820876Y-107754379D01*
G37*
D17*
X61036200Y-102806500D03*
D18*
X63576200Y-102806500D03*
X61036200Y-105346500D03*
X63576200Y-105346500D03*
X61036200Y-107886500D03*
X63576200Y-107886500D03*
D19*
X69596000Y-139255500D03*
D20*
X74296000Y-146055500D03*
X43896000Y-146055500D03*
X73796000Y-127955500D03*
X45396000Y-127955500D03*
D21*
X59096000Y-142755500D03*
X63096000Y-142755500D03*
X61096000Y-138755500D03*
X63096000Y-134755500D03*
X59096000Y-134755500D03*
X55096000Y-142755500D03*
X57096000Y-138755500D03*
X55096000Y-134755500D03*
D19*
X48596000Y-139255500D03*
D22*
X98912800Y-88442800D03*
X95412800Y-88442800D03*
D23*
X97162800Y-90672800D03*
D22*
X102412800Y-88442800D03*
X105912800Y-88442800D03*
X80416400Y-88087200D03*
X76916400Y-88087200D03*
D23*
X78666400Y-90317200D03*
D22*
X83916400Y-88087200D03*
X87416400Y-88087200D03*
D24*
X56007000Y-89281000D03*
X53467000Y-89281000D03*
X50927000Y-89281000D03*
X58547000Y-89281000D03*
X52197000Y-86741000D03*
X54737000Y-86741000D03*
X57277000Y-86741000D03*
X59817000Y-86741000D03*
X61087000Y-89281000D03*
X62357000Y-86741000D03*
X63627000Y-89281000D03*
X64897000Y-86741000D03*
X66167000Y-89281000D03*
X67437000Y-86741000D03*
X68707000Y-89281000D03*
X69977000Y-86741000D03*
D20*
X49527000Y-87481000D03*
D25*
X41656000Y-106934000D03*
X46356000Y-106934000D03*
D17*
X108712000Y-115443000D03*
D18*
X111252000Y-115443000D03*
X108712000Y-117983000D03*
X111252000Y-117983000D03*
X108712000Y-120523000D03*
X111252000Y-120523000D03*
D26*
X43561000Y-114109500D03*
X41661000Y-114109500D03*
D10*
G36*
X84273107Y-106874268D02*
X83353868Y-107793507D01*
X82858893Y-107298532D01*
X83778132Y-106379293D01*
X84273107Y-106874268D01*
X84273107Y-106874268D01*
G37*
G36*
X82929605Y-105530766D02*
X82010366Y-106450005D01*
X81515391Y-105955030D01*
X82434630Y-105035791D01*
X82929605Y-105530766D01*
X82929605Y-105530766D01*
G37*
D27*
X50863500Y-118552000D03*
X50863500Y-116652000D03*
X50673000Y-113914000D03*
X50673000Y-112014000D03*
X46609000Y-113660000D03*
X46609000Y-111760000D03*
D28*
X57019120Y-99329240D03*
X50819120Y-99329240D03*
D27*
X70688200Y-118044000D03*
X70688200Y-116144000D03*
D26*
X81722000Y-143383000D03*
X79822000Y-143383000D03*
X81849000Y-139573000D03*
X79949000Y-139573000D03*
X48158400Y-98145600D03*
X46258400Y-98145600D03*
D27*
X57200800Y-103764000D03*
X57200800Y-105664000D03*
X74371200Y-118933000D03*
X74371200Y-117033000D03*
X89852500Y-105476000D03*
X89852500Y-107376000D03*
D26*
X114104500Y-111442500D03*
X112204500Y-111442500D03*
X89603500Y-113855500D03*
X91503500Y-113855500D03*
D27*
X89865200Y-110830400D03*
X89865200Y-108930400D03*
D10*
G36*
X106504619Y-102507142D02*
X107423858Y-103426381D01*
X106928883Y-103921356D01*
X106009644Y-103002117D01*
X106504619Y-102507142D01*
X106504619Y-102507142D01*
G37*
G36*
X105161117Y-103850644D02*
X106080356Y-104769883D01*
X105585381Y-105264858D01*
X104666142Y-104345619D01*
X105161117Y-103850644D01*
X105161117Y-103850644D01*
G37*
G36*
X104091619Y-100221142D02*
X105010858Y-101140381D01*
X104515883Y-101635356D01*
X103596644Y-100716117D01*
X104091619Y-100221142D01*
X104091619Y-100221142D01*
G37*
G36*
X102748117Y-101564644D02*
X103667356Y-102483883D01*
X103172381Y-102978858D01*
X102253142Y-102059619D01*
X102748117Y-101564644D01*
X102748117Y-101564644D01*
G37*
D29*
X66626700Y-121729500D03*
X66626700Y-120459500D03*
X66626700Y-119189500D03*
X66626700Y-117919500D03*
X61226700Y-117919500D03*
X61226700Y-119189500D03*
X61226700Y-120459500D03*
X61226700Y-121729500D03*
D30*
X46418500Y-116337000D03*
X46418500Y-117287000D03*
X46418500Y-118237000D03*
X48618500Y-118237000D03*
X48618500Y-116337000D03*
X48618500Y-117287000D03*
D31*
X87376000Y-143319000D03*
X89916000Y-143319000D03*
X100436000Y-143319000D03*
X97896000Y-143319000D03*
X89466000Y-139319000D03*
X92006000Y-139319000D03*
X94546000Y-139319000D03*
X97086000Y-139319000D03*
X90736000Y-136779000D03*
X93276000Y-136779000D03*
X95816000Y-136779000D03*
X98356000Y-136779000D03*
D32*
X88906000Y-147319000D03*
X98906000Y-147319000D03*
D33*
X78773200Y-114770000D03*
X76573200Y-114770000D03*
X76573200Y-116370000D03*
X78773200Y-116370000D03*
D34*
X95593000Y-117391000D03*
X95593000Y-119591000D03*
X97193000Y-119591000D03*
X97193000Y-117391000D03*
D15*
X49394360Y-94482160D03*
D35*
X52844360Y-93482160D03*
D15*
X49394360Y-92482160D03*
M02*
