G04 #@! TF.FileFunction,Copper,L2,Bot,Signal*
%FSLAX46Y46*%
G04 Gerber Fmt 4.6, Leading zero omitted, Abs format (unit mm)*
G04 Created by KiCad (PCBNEW 4.0.7-e2-6376~58~ubuntu16.04.1) date Tue May  1 21:05:29 2018*
%MOMM*%
%LPD*%
G01*
G04 APERTURE LIST*
%ADD10C,0.100000*%
%ADD11R,1.727200X1.727200*%
%ADD12O,1.727200X1.727200*%
%ADD13C,3.000000*%
%ADD14C,1.397000*%
%ADD15C,1.981000*%
%ADD16C,1.300000*%
%ADD17C,2.000000*%
%ADD18C,1.500000*%
%ADD19C,2.750000*%
%ADD20C,0.609600*%
%ADD21C,0.254000*%
%ADD22C,0.381000*%
G04 APERTURE END LIST*
D10*
D11*
X61036200Y-102806500D03*
D12*
X63576200Y-102806500D03*
X61036200Y-105346500D03*
X63576200Y-105346500D03*
X61036200Y-107886500D03*
X63576200Y-107886500D03*
D13*
X59096000Y-142755500D03*
X63096000Y-142755500D03*
X61096000Y-138755500D03*
X63096000Y-134755500D03*
X59096000Y-134755500D03*
X55096000Y-142755500D03*
X57096000Y-138755500D03*
X55096000Y-134755500D03*
D14*
X98912800Y-88442800D03*
X95412800Y-88442800D03*
D15*
X97162800Y-90672800D03*
D14*
X102412800Y-88442800D03*
X105912800Y-88442800D03*
X80416400Y-88087200D03*
X76916400Y-88087200D03*
D15*
X78666400Y-90317200D03*
D14*
X83916400Y-88087200D03*
X87416400Y-88087200D03*
D16*
X56007000Y-89281000D03*
X53467000Y-89281000D03*
X50927000Y-89281000D03*
X58547000Y-89281000D03*
X52197000Y-86741000D03*
X54737000Y-86741000D03*
X57277000Y-86741000D03*
X59817000Y-86741000D03*
X61087000Y-89281000D03*
X62357000Y-86741000D03*
X63627000Y-89281000D03*
X64897000Y-86741000D03*
X66167000Y-89281000D03*
X67437000Y-86741000D03*
X68707000Y-89281000D03*
X69977000Y-86741000D03*
D17*
X49527000Y-87481000D03*
D11*
X108712000Y-115443000D03*
D12*
X111252000Y-115443000D03*
X108712000Y-117983000D03*
X111252000Y-117983000D03*
X108712000Y-120523000D03*
X111252000Y-120523000D03*
D18*
X87376000Y-143319000D03*
X89916000Y-143319000D03*
X100436000Y-143319000D03*
X97896000Y-143319000D03*
X89466000Y-139319000D03*
X92006000Y-139319000D03*
X94546000Y-139319000D03*
X97086000Y-139319000D03*
X90736000Y-136779000D03*
X93276000Y-136779000D03*
X95816000Y-136779000D03*
X98356000Y-136779000D03*
D19*
X88906000Y-147319000D03*
X98906000Y-147319000D03*
D20*
X89926160Y-106532680D03*
X68529196Y-111905974D03*
X75320501Y-107813499D03*
X82042000Y-108458000D03*
X68580000Y-118364000D03*
X90678000Y-115316000D03*
X92202000Y-115316000D03*
X101544120Y-109240286D03*
X59913520Y-123652280D03*
X76367640Y-123093480D03*
X80355440Y-118297960D03*
X77470000Y-102108000D03*
X72390000Y-111252000D03*
X74676000Y-106680000D03*
X41699000Y-120192800D03*
X48717200Y-115011200D03*
X55168800Y-112014000D03*
X93726000Y-121412000D03*
X77318882Y-104494318D03*
X78841600Y-105511600D03*
X86563200Y-136296400D03*
X68326000Y-124002800D03*
X66548000Y-110794800D03*
X107340400Y-123850400D03*
X67472560Y-111201200D03*
X86715600Y-135178800D03*
X70053200Y-124307600D03*
X79095600Y-130591560D03*
X79086872Y-126566768D03*
X70866000Y-109321600D03*
X76555600Y-120497600D03*
X74782680Y-110637320D03*
X93276000Y-124979398D03*
X106832400Y-116799360D03*
X103301800Y-112105440D03*
X79223517Y-108941517D03*
X104597200Y-115671600D03*
X109728000Y-111607600D03*
X79943960Y-131318000D03*
X79969360Y-126669800D03*
X77682252Y-120640948D03*
X76758800Y-108508800D03*
X69392800Y-117297200D03*
X69850000Y-108610400D03*
X84632800Y-141427200D03*
X84124800Y-140411200D03*
D21*
X89926160Y-106532680D02*
X83967320Y-106532680D01*
X83967320Y-106532680D02*
X82042000Y-108458000D01*
X68580000Y-112229187D02*
X68580000Y-111956778D01*
X68580000Y-111956778D02*
X68529196Y-111905974D01*
D22*
X82042000Y-108458000D02*
X81397499Y-107813499D01*
X81397499Y-107813499D02*
X75320501Y-107813499D01*
X68580000Y-112229187D02*
X68657337Y-112151850D01*
X68580000Y-118364000D02*
X68580000Y-112229187D01*
X92202000Y-115316000D02*
X90678000Y-115316000D01*
X78841600Y-105511600D02*
X78336164Y-105511600D01*
X78336164Y-105511600D02*
X77318882Y-104494318D01*
X86563200Y-136296400D02*
X86994252Y-136296400D01*
X86994252Y-136296400D02*
X88876351Y-138178499D01*
X88876351Y-138178499D02*
X93405499Y-138178499D01*
X93405499Y-138178499D02*
X93796001Y-138569001D01*
X93796001Y-138569001D02*
X94546000Y-139319000D01*
X66548000Y-110794800D02*
X66548000Y-122224800D01*
X66548000Y-122224800D02*
X68326000Y-124002800D01*
X109966101Y-121224699D02*
X107340400Y-123850400D01*
X109966101Y-115452501D02*
X109966101Y-121224699D01*
X108712000Y-115443000D02*
X109956600Y-115443000D01*
X109956600Y-115443000D02*
X109966101Y-115452501D01*
D21*
X67472560Y-111201200D02*
X67665600Y-111394240D01*
X67665600Y-111394240D02*
X67665600Y-111556800D01*
D22*
X86715600Y-135178800D02*
X87175299Y-135638499D01*
X87175299Y-135638499D02*
X94675499Y-135638499D01*
X94675499Y-135638499D02*
X95066001Y-136029001D01*
X95066001Y-136029001D02*
X95816000Y-136779000D01*
X67665600Y-117535300D02*
X67665600Y-121920000D01*
X67665600Y-121920000D02*
X70053200Y-124307600D01*
X67665600Y-111556800D02*
X67665600Y-117535300D01*
X79086872Y-126566768D02*
X79086872Y-130582832D01*
X79086872Y-130582832D02*
X79095600Y-130591560D01*
X76555600Y-120497600D02*
X70866000Y-114808000D01*
X70866000Y-114808000D02*
X70866000Y-109321600D01*
D21*
X74782680Y-110637320D02*
X70682461Y-106537101D01*
X70682461Y-106537101D02*
X62226801Y-106537101D01*
X62226801Y-106537101D02*
X61899799Y-106210099D01*
X61899799Y-106210099D02*
X61036200Y-105346500D01*
X106832400Y-116799360D02*
X98652362Y-124979398D01*
X98652362Y-124979398D02*
X93276000Y-124979398D01*
X103301800Y-112105440D02*
X102997001Y-111800641D01*
X101386641Y-111800641D02*
X100838000Y-111252000D01*
X102997001Y-111800641D02*
X101386641Y-111800641D01*
D22*
X100838000Y-111252000D02*
X81534000Y-111252000D01*
X81534000Y-111252000D02*
X79223517Y-108941517D01*
X109728000Y-111607600D02*
X105664000Y-115671600D01*
X105664000Y-115671600D02*
X104597200Y-115671600D01*
X79969360Y-126669800D02*
X79969360Y-131292600D01*
X79969360Y-131292600D02*
X79943960Y-131318000D01*
X76758800Y-118110000D02*
X76758800Y-119717496D01*
X76758800Y-119717496D02*
X77682252Y-120640948D01*
X76758800Y-108508800D02*
X76758800Y-118110000D01*
X69392800Y-117297200D02*
X69392800Y-109067600D01*
X69392800Y-109067600D02*
X69850000Y-108610400D01*
D21*
X69850000Y-108610400D02*
X69383299Y-109077101D01*
X69383299Y-109077101D02*
X62226801Y-109077101D01*
X62226801Y-109077101D02*
X61899799Y-108750099D01*
X61899799Y-108750099D02*
X61036200Y-107886500D01*
D22*
X84632800Y-141427200D02*
X83304500Y-142755500D01*
X83304500Y-142755500D02*
X63096000Y-142755500D01*
X84124800Y-140411200D02*
X83693748Y-140411200D01*
X64209443Y-141071001D02*
X63784443Y-140646001D01*
X83693748Y-140411200D02*
X83033947Y-141071001D01*
X83033947Y-141071001D02*
X64209443Y-141071001D01*
X63784443Y-140646001D02*
X58986501Y-140646001D01*
X58986501Y-140646001D02*
X58595999Y-140255499D01*
X58595999Y-140255499D02*
X57096000Y-138755500D01*
D21*
G36*
X117800528Y-82270999D02*
X119131459Y-82535738D01*
X120202568Y-83251429D01*
X120918262Y-84322540D01*
X121183000Y-85653467D01*
X121183000Y-147518533D01*
X120918262Y-148849460D01*
X120202568Y-149920571D01*
X119131459Y-150636262D01*
X117800528Y-150901001D01*
X35621495Y-150902199D01*
X34284540Y-150636262D01*
X33213429Y-149920568D01*
X32497738Y-148849459D01*
X32246421Y-147586000D01*
X33231050Y-147586000D01*
X33407417Y-148472658D01*
X33909669Y-149224331D01*
X34661342Y-149726583D01*
X35548000Y-149902950D01*
X36434658Y-149726583D01*
X37186331Y-149224331D01*
X37508174Y-148742659D01*
X87661946Y-148742659D01*
X87806467Y-149048444D01*
X88551993Y-149337571D01*
X89351414Y-149319389D01*
X90005533Y-149048444D01*
X90150054Y-148742659D01*
X97661946Y-148742659D01*
X97806467Y-149048444D01*
X98551993Y-149337571D01*
X99351414Y-149319389D01*
X100005533Y-149048444D01*
X100150054Y-148742659D01*
X98906000Y-147498605D01*
X97661946Y-148742659D01*
X90150054Y-148742659D01*
X88906000Y-147498605D01*
X87661946Y-148742659D01*
X37508174Y-148742659D01*
X37688583Y-148472658D01*
X37864950Y-147586000D01*
X37688583Y-146699342D01*
X37474735Y-146379295D01*
X42260716Y-146379295D01*
X42509106Y-146980443D01*
X42968637Y-147440778D01*
X43569352Y-147690216D01*
X44219795Y-147690784D01*
X44820943Y-147442394D01*
X45281278Y-146982863D01*
X45530716Y-146382148D01*
X45530718Y-146379295D01*
X72660716Y-146379295D01*
X72909106Y-146980443D01*
X73368637Y-147440778D01*
X73969352Y-147690216D01*
X74619795Y-147690784D01*
X75220943Y-147442394D01*
X75681278Y-146982863D01*
X75688698Y-146964993D01*
X86887429Y-146964993D01*
X86905611Y-147764414D01*
X87176556Y-148418533D01*
X87482341Y-148563054D01*
X88726395Y-147319000D01*
X89085605Y-147319000D01*
X90329659Y-148563054D01*
X90635444Y-148418533D01*
X90924571Y-147673007D01*
X90908468Y-146964993D01*
X96887429Y-146964993D01*
X96905611Y-147764414D01*
X97176556Y-148418533D01*
X97482341Y-148563054D01*
X98726395Y-147319000D01*
X99085605Y-147319000D01*
X100329659Y-148563054D01*
X100635444Y-148418533D01*
X100924571Y-147673007D01*
X100922593Y-147586000D01*
X115551050Y-147586000D01*
X115727417Y-148472658D01*
X116229669Y-149224331D01*
X116981342Y-149726583D01*
X117868000Y-149902950D01*
X118754658Y-149726583D01*
X119506331Y-149224331D01*
X120008583Y-148472658D01*
X120184950Y-147586000D01*
X120008583Y-146699342D01*
X119506331Y-145947669D01*
X118754658Y-145445417D01*
X117868000Y-145269050D01*
X116981342Y-145445417D01*
X116229669Y-145947669D01*
X115727417Y-146699342D01*
X115551050Y-147586000D01*
X100922593Y-147586000D01*
X100906389Y-146873586D01*
X100635444Y-146219467D01*
X100329659Y-146074946D01*
X99085605Y-147319000D01*
X98726395Y-147319000D01*
X97482341Y-146074946D01*
X97176556Y-146219467D01*
X96887429Y-146964993D01*
X90908468Y-146964993D01*
X90906389Y-146873586D01*
X90635444Y-146219467D01*
X90329659Y-146074946D01*
X89085605Y-147319000D01*
X88726395Y-147319000D01*
X87482341Y-146074946D01*
X87176556Y-146219467D01*
X86887429Y-146964993D01*
X75688698Y-146964993D01*
X75930716Y-146382148D01*
X75931141Y-145895341D01*
X87661946Y-145895341D01*
X88906000Y-147139395D01*
X90150054Y-145895341D01*
X97661946Y-145895341D01*
X98906000Y-147139395D01*
X100150054Y-145895341D01*
X100005533Y-145589556D01*
X99260007Y-145300429D01*
X98460586Y-145318611D01*
X97806467Y-145589556D01*
X97661946Y-145895341D01*
X90150054Y-145895341D01*
X90005533Y-145589556D01*
X89260007Y-145300429D01*
X88460586Y-145318611D01*
X87806467Y-145589556D01*
X87661946Y-145895341D01*
X75931141Y-145895341D01*
X75931284Y-145731705D01*
X75682894Y-145130557D01*
X75223363Y-144670222D01*
X74622648Y-144420784D01*
X73972205Y-144420216D01*
X73371057Y-144668606D01*
X72910722Y-145128137D01*
X72661284Y-145728852D01*
X72660716Y-146379295D01*
X45530718Y-146379295D01*
X45531284Y-145731705D01*
X45282894Y-145130557D01*
X44823363Y-144670222D01*
X44222648Y-144420784D01*
X43572205Y-144420216D01*
X42971057Y-144668606D01*
X42510722Y-145128137D01*
X42261284Y-145728852D01*
X42260716Y-146379295D01*
X37474735Y-146379295D01*
X37186331Y-145947669D01*
X36434658Y-145445417D01*
X35548000Y-145269050D01*
X34661342Y-145445417D01*
X33909669Y-145947669D01*
X33407417Y-146699342D01*
X33231050Y-147586000D01*
X32246421Y-147586000D01*
X32233000Y-147518533D01*
X32233000Y-143178315D01*
X52960630Y-143178315D01*
X53284980Y-143963300D01*
X53885041Y-144564409D01*
X54669459Y-144890128D01*
X55518815Y-144890870D01*
X56303800Y-144566520D01*
X56904909Y-143966459D01*
X57096068Y-143506098D01*
X57284980Y-143963300D01*
X57885041Y-144564409D01*
X58669459Y-144890128D01*
X59518815Y-144890870D01*
X60303800Y-144566520D01*
X60904909Y-143966459D01*
X61096068Y-143506098D01*
X61284980Y-143963300D01*
X61885041Y-144564409D01*
X62669459Y-144890128D01*
X63518815Y-144890870D01*
X64303800Y-144566520D01*
X64904909Y-143966459D01*
X65059864Y-143593285D01*
X85990760Y-143593285D01*
X86201169Y-144102515D01*
X86590436Y-144492461D01*
X87099298Y-144703759D01*
X87650285Y-144704240D01*
X88159515Y-144493831D01*
X88363183Y-144290517D01*
X89124088Y-144290517D01*
X89192077Y-144531460D01*
X89711171Y-144716201D01*
X90261448Y-144688230D01*
X90639923Y-144531460D01*
X90707912Y-144290517D01*
X89916000Y-143498605D01*
X89124088Y-144290517D01*
X88363183Y-144290517D01*
X88549461Y-144104564D01*
X88639377Y-143888021D01*
X88703540Y-144042923D01*
X88944483Y-144110912D01*
X89736395Y-143319000D01*
X90095605Y-143319000D01*
X90887517Y-144110912D01*
X91128460Y-144042923D01*
X91288482Y-143593285D01*
X96510760Y-143593285D01*
X96721169Y-144102515D01*
X97110436Y-144492461D01*
X97619298Y-144703759D01*
X98170285Y-144704240D01*
X98679515Y-144493831D01*
X98883183Y-144290517D01*
X99644088Y-144290517D01*
X99712077Y-144531460D01*
X100231171Y-144716201D01*
X100781448Y-144688230D01*
X101159923Y-144531460D01*
X101227912Y-144290517D01*
X100436000Y-143498605D01*
X99644088Y-144290517D01*
X98883183Y-144290517D01*
X99069461Y-144104564D01*
X99159377Y-143888021D01*
X99223540Y-144042923D01*
X99464483Y-144110912D01*
X100256395Y-143319000D01*
X100615605Y-143319000D01*
X101407517Y-144110912D01*
X101648460Y-144042923D01*
X101833201Y-143523829D01*
X101805230Y-142973552D01*
X101648460Y-142595077D01*
X101407517Y-142527088D01*
X100615605Y-143319000D01*
X100256395Y-143319000D01*
X99464483Y-142527088D01*
X99223540Y-142595077D01*
X99164268Y-142761621D01*
X99070831Y-142535485D01*
X98883157Y-142347483D01*
X99644088Y-142347483D01*
X100436000Y-143139395D01*
X101227912Y-142347483D01*
X101159923Y-142106540D01*
X100640829Y-141921799D01*
X100090552Y-141949770D01*
X99712077Y-142106540D01*
X99644088Y-142347483D01*
X98883157Y-142347483D01*
X98681564Y-142145539D01*
X98172702Y-141934241D01*
X97621715Y-141933760D01*
X97112485Y-142144169D01*
X96722539Y-142533436D01*
X96511241Y-143042298D01*
X96510760Y-143593285D01*
X91288482Y-143593285D01*
X91313201Y-143523829D01*
X91285230Y-142973552D01*
X91128460Y-142595077D01*
X90887517Y-142527088D01*
X90095605Y-143319000D01*
X89736395Y-143319000D01*
X88944483Y-142527088D01*
X88703540Y-142595077D01*
X88644268Y-142761621D01*
X88550831Y-142535485D01*
X88363157Y-142347483D01*
X89124088Y-142347483D01*
X89916000Y-143139395D01*
X90707912Y-142347483D01*
X90639923Y-142106540D01*
X90120829Y-141921799D01*
X89570552Y-141949770D01*
X89192077Y-142106540D01*
X89124088Y-142347483D01*
X88363157Y-142347483D01*
X88161564Y-142145539D01*
X87652702Y-141934241D01*
X87101715Y-141933760D01*
X86592485Y-142144169D01*
X86202539Y-142533436D01*
X85991241Y-143042298D01*
X85990760Y-143593285D01*
X65059864Y-143593285D01*
X65064966Y-143581000D01*
X83304500Y-143581000D01*
X83620406Y-143518163D01*
X83888217Y-143339217D01*
X84889389Y-142338045D01*
X85164459Y-142224388D01*
X85429059Y-141960249D01*
X85572437Y-141614958D01*
X85572763Y-141241082D01*
X85429988Y-140895541D01*
X85165849Y-140630941D01*
X85064446Y-140588835D01*
X85064763Y-140225082D01*
X84921988Y-139879541D01*
X84657849Y-139614941D01*
X84312558Y-139471563D01*
X83938682Y-139471237D01*
X83631880Y-139598006D01*
X83377843Y-139648537D01*
X83110031Y-139827483D01*
X83110029Y-139827486D01*
X82692013Y-140245501D01*
X71415451Y-140245501D01*
X71655642Y-139667057D01*
X71656357Y-138847538D01*
X71343401Y-138090128D01*
X70764420Y-137510135D01*
X70007557Y-137195858D01*
X69188038Y-137195143D01*
X68430628Y-137508099D01*
X67850635Y-138087080D01*
X67536358Y-138843943D01*
X67535643Y-139663462D01*
X67776137Y-140245501D01*
X64551377Y-140245501D01*
X64368160Y-140062284D01*
X64100349Y-139883338D01*
X63784443Y-139820501D01*
X62965516Y-139820501D01*
X63230628Y-139182041D01*
X63231370Y-138332685D01*
X62907020Y-137547700D01*
X62306959Y-136946591D01*
X61522541Y-136620872D01*
X60673185Y-136620130D01*
X59888200Y-136944480D01*
X59287091Y-137544541D01*
X59095932Y-138004902D01*
X58907020Y-137547700D01*
X58306959Y-136946591D01*
X57522541Y-136620872D01*
X56673185Y-136620130D01*
X55888200Y-136944480D01*
X55287091Y-137544541D01*
X54961372Y-138328959D01*
X54960630Y-139178315D01*
X55284980Y-139963300D01*
X55885041Y-140564409D01*
X56669459Y-140890128D01*
X57518815Y-140890870D01*
X57904552Y-140731486D01*
X58050489Y-140877423D01*
X57888200Y-140944480D01*
X57287091Y-141544541D01*
X57095932Y-142004902D01*
X56907020Y-141547700D01*
X56306959Y-140946591D01*
X55522541Y-140620872D01*
X54673185Y-140620130D01*
X53888200Y-140944480D01*
X53287091Y-141544541D01*
X52961372Y-142328959D01*
X52960630Y-143178315D01*
X32233000Y-143178315D01*
X32233000Y-139663462D01*
X46535643Y-139663462D01*
X46848599Y-140420872D01*
X47427580Y-141000865D01*
X48184443Y-141315142D01*
X49003962Y-141315857D01*
X49761372Y-141002901D01*
X50341365Y-140423920D01*
X50655642Y-139667057D01*
X50656357Y-138847538D01*
X50343401Y-138090128D01*
X49764420Y-137510135D01*
X49007557Y-137195858D01*
X48188038Y-137195143D01*
X47430628Y-137508099D01*
X46850635Y-138087080D01*
X46536358Y-138843943D01*
X46535643Y-139663462D01*
X32233000Y-139663462D01*
X32233000Y-136269470D01*
X53761635Y-136269470D01*
X53921418Y-136588239D01*
X54712187Y-136898223D01*
X55561387Y-136881997D01*
X56270582Y-136588239D01*
X56430365Y-136269470D01*
X57761635Y-136269470D01*
X57921418Y-136588239D01*
X58712187Y-136898223D01*
X59561387Y-136881997D01*
X60270582Y-136588239D01*
X60430365Y-136269470D01*
X59096000Y-134935105D01*
X57761635Y-136269470D01*
X56430365Y-136269470D01*
X55096000Y-134935105D01*
X53761635Y-136269470D01*
X32233000Y-136269470D01*
X32233000Y-134371687D01*
X52953277Y-134371687D01*
X52969503Y-135220887D01*
X53263261Y-135930082D01*
X53582030Y-136089865D01*
X54916395Y-134755500D01*
X55275605Y-134755500D01*
X56609970Y-136089865D01*
X56928739Y-135930082D01*
X57091392Y-135515154D01*
X57263261Y-135930082D01*
X57582030Y-136089865D01*
X58916395Y-134755500D01*
X59275605Y-134755500D01*
X60609970Y-136089865D01*
X60928739Y-135930082D01*
X61095490Y-135504700D01*
X61284980Y-135963300D01*
X61885041Y-136564409D01*
X62669459Y-136890128D01*
X63518815Y-136890870D01*
X64303800Y-136566520D01*
X64387948Y-136482518D01*
X85623237Y-136482518D01*
X85766012Y-136828059D01*
X86030151Y-137092659D01*
X86375442Y-137236037D01*
X86749318Y-137236363D01*
X86761675Y-137231257D01*
X88225442Y-138695024D01*
X88081241Y-139042298D01*
X88080760Y-139593285D01*
X88291169Y-140102515D01*
X88680436Y-140492461D01*
X89189298Y-140703759D01*
X89740285Y-140704240D01*
X90249515Y-140493831D01*
X90639461Y-140104564D01*
X90735976Y-139872130D01*
X90831169Y-140102515D01*
X91220436Y-140492461D01*
X91729298Y-140703759D01*
X92280285Y-140704240D01*
X92789515Y-140493831D01*
X93179461Y-140104564D01*
X93275976Y-139872130D01*
X93371169Y-140102515D01*
X93760436Y-140492461D01*
X94269298Y-140703759D01*
X94820285Y-140704240D01*
X95329515Y-140493831D01*
X95719461Y-140104564D01*
X95815976Y-139872130D01*
X95911169Y-140102515D01*
X96300436Y-140492461D01*
X96809298Y-140703759D01*
X97360285Y-140704240D01*
X97869515Y-140493831D01*
X98259461Y-140104564D01*
X98470759Y-139595702D01*
X98471240Y-139044715D01*
X98260831Y-138535485D01*
X97871564Y-138145539D01*
X97362702Y-137934241D01*
X96811715Y-137933760D01*
X96302485Y-138144169D01*
X95912539Y-138533436D01*
X95816024Y-138765870D01*
X95720831Y-138535485D01*
X95331564Y-138145539D01*
X94822702Y-137934241D01*
X94328242Y-137933809D01*
X94204016Y-137809582D01*
X94449461Y-137564564D01*
X94545976Y-137332130D01*
X94641169Y-137562515D01*
X95030436Y-137952461D01*
X95539298Y-138163759D01*
X96090285Y-138164240D01*
X96599515Y-137953831D01*
X96803183Y-137750517D01*
X97564088Y-137750517D01*
X97632077Y-137991460D01*
X98151171Y-138176201D01*
X98701448Y-138148230D01*
X99079923Y-137991460D01*
X99147912Y-137750517D01*
X98356000Y-136958605D01*
X97564088Y-137750517D01*
X96803183Y-137750517D01*
X96989461Y-137564564D01*
X97079377Y-137348021D01*
X97143540Y-137502923D01*
X97384483Y-137570912D01*
X98176395Y-136779000D01*
X98535605Y-136779000D01*
X99327517Y-137570912D01*
X99568460Y-137502923D01*
X99753201Y-136983829D01*
X99725230Y-136433552D01*
X99568460Y-136055077D01*
X99327517Y-135987088D01*
X98535605Y-136779000D01*
X98176395Y-136779000D01*
X97384483Y-135987088D01*
X97143540Y-136055077D01*
X97084268Y-136221621D01*
X96990831Y-135995485D01*
X96803157Y-135807483D01*
X97564088Y-135807483D01*
X98356000Y-136599395D01*
X99147912Y-135807483D01*
X99079923Y-135566540D01*
X98560829Y-135381799D01*
X98010552Y-135409770D01*
X97632077Y-135566540D01*
X97564088Y-135807483D01*
X96803157Y-135807483D01*
X96601564Y-135605539D01*
X96092702Y-135394241D01*
X95598242Y-135393809D01*
X95259216Y-135054782D01*
X94991405Y-134875836D01*
X94675499Y-134812999D01*
X87581319Y-134812999D01*
X87512788Y-134647141D01*
X87248649Y-134382541D01*
X86903358Y-134239163D01*
X86529482Y-134238837D01*
X86183941Y-134381612D01*
X85919341Y-134645751D01*
X85775963Y-134991042D01*
X85775637Y-135364918D01*
X85889652Y-135640854D01*
X85766941Y-135763351D01*
X85623563Y-136108642D01*
X85623237Y-136482518D01*
X64387948Y-136482518D01*
X64904909Y-135966459D01*
X65230628Y-135182041D01*
X65231370Y-134332685D01*
X64907020Y-133547700D01*
X64306959Y-132946591D01*
X63522541Y-132620872D01*
X62673185Y-132620130D01*
X61888200Y-132944480D01*
X61287091Y-133544541D01*
X61100151Y-133994743D01*
X60928739Y-133580918D01*
X60609970Y-133421135D01*
X59275605Y-134755500D01*
X58916395Y-134755500D01*
X57582030Y-133421135D01*
X57263261Y-133580918D01*
X57100608Y-133995846D01*
X56928739Y-133580918D01*
X56609970Y-133421135D01*
X55275605Y-134755500D01*
X54916395Y-134755500D01*
X53582030Y-133421135D01*
X53263261Y-133580918D01*
X52953277Y-134371687D01*
X32233000Y-134371687D01*
X32233000Y-133241530D01*
X53761635Y-133241530D01*
X55096000Y-134575895D01*
X56430365Y-133241530D01*
X57761635Y-133241530D01*
X59096000Y-134575895D01*
X60430365Y-133241530D01*
X60270582Y-132922761D01*
X59479813Y-132612777D01*
X58630613Y-132629003D01*
X57921418Y-132922761D01*
X57761635Y-133241530D01*
X56430365Y-133241530D01*
X56270582Y-132922761D01*
X55479813Y-132612777D01*
X54630613Y-132629003D01*
X53921418Y-132922761D01*
X53761635Y-133241530D01*
X32233000Y-133241530D01*
X32233000Y-128279295D01*
X43760716Y-128279295D01*
X44009106Y-128880443D01*
X44468637Y-129340778D01*
X45069352Y-129590216D01*
X45719795Y-129590784D01*
X46320943Y-129342394D01*
X46781278Y-128882863D01*
X47030716Y-128282148D01*
X47030718Y-128279295D01*
X72160716Y-128279295D01*
X72409106Y-128880443D01*
X72868637Y-129340778D01*
X73469352Y-129590216D01*
X74119795Y-129590784D01*
X74720943Y-129342394D01*
X75181278Y-128882863D01*
X75430716Y-128282148D01*
X75431284Y-127631705D01*
X75182894Y-127030557D01*
X74905708Y-126752886D01*
X78146909Y-126752886D01*
X78261372Y-127029907D01*
X78261372Y-130149950D01*
X78155963Y-130403802D01*
X78155637Y-130777678D01*
X78298412Y-131123219D01*
X78562551Y-131387819D01*
X78907842Y-131531197D01*
X79015225Y-131531291D01*
X79146772Y-131849659D01*
X79410911Y-132114259D01*
X79756202Y-132257637D01*
X80130078Y-132257963D01*
X80475619Y-132115188D01*
X80740219Y-131851049D01*
X80883597Y-131505758D01*
X80883923Y-131131882D01*
X80794860Y-130916334D01*
X80794860Y-127132429D01*
X80908997Y-126857558D01*
X80909323Y-126483682D01*
X80766548Y-126138141D01*
X80502409Y-125873541D01*
X80157118Y-125730163D01*
X79783242Y-125729837D01*
X79638870Y-125789491D01*
X79619921Y-125770509D01*
X79274630Y-125627131D01*
X78900754Y-125626805D01*
X78555213Y-125769580D01*
X78290613Y-126033719D01*
X78147235Y-126379010D01*
X78146909Y-126752886D01*
X74905708Y-126752886D01*
X74723363Y-126570222D01*
X74122648Y-126320784D01*
X73472205Y-126320216D01*
X72871057Y-126568606D01*
X72410722Y-127028137D01*
X72161284Y-127628852D01*
X72160716Y-128279295D01*
X47030718Y-128279295D01*
X47031284Y-127631705D01*
X46782894Y-127030557D01*
X46323363Y-126570222D01*
X45722648Y-126320784D01*
X45072205Y-126320216D01*
X44471057Y-126568606D01*
X44010722Y-127028137D01*
X43761284Y-127628852D01*
X43760716Y-128279295D01*
X32233000Y-128279295D01*
X32233000Y-105346500D01*
X59508241Y-105346500D01*
X59622315Y-105919989D01*
X59947171Y-106406170D01*
X60261952Y-106616500D01*
X59947171Y-106826830D01*
X59622315Y-107313011D01*
X59508241Y-107886500D01*
X59622315Y-108459989D01*
X59947171Y-108946170D01*
X60433352Y-109271026D01*
X61006841Y-109385100D01*
X61065559Y-109385100D01*
X61392197Y-109320128D01*
X61687986Y-109615917D01*
X61836178Y-109714935D01*
X61935196Y-109781097D01*
X62226801Y-109839101D01*
X68567300Y-109839101D01*
X68567300Y-110966207D01*
X68392265Y-110966054D01*
X68269748Y-110669541D01*
X68005609Y-110404941D01*
X67660318Y-110261563D01*
X67343337Y-110261287D01*
X67081049Y-109998541D01*
X66735758Y-109855163D01*
X66361882Y-109854837D01*
X66016341Y-109997612D01*
X65751741Y-110261751D01*
X65608363Y-110607042D01*
X65608037Y-110980918D01*
X65722500Y-111257939D01*
X65722500Y-122224800D01*
X65785337Y-122540706D01*
X65964283Y-122808517D01*
X67415155Y-124259388D01*
X67528812Y-124534459D01*
X67792951Y-124799059D01*
X68138242Y-124942437D01*
X68512118Y-124942763D01*
X68857659Y-124799988D01*
X69118134Y-124539967D01*
X69142355Y-124564188D01*
X69256012Y-124839259D01*
X69520151Y-125103859D01*
X69865442Y-125247237D01*
X70239318Y-125247563D01*
X70437886Y-125165516D01*
X92336037Y-125165516D01*
X92478812Y-125511057D01*
X92742951Y-125775657D01*
X93088242Y-125919035D01*
X93462118Y-125919361D01*
X93807659Y-125776586D01*
X93842908Y-125741398D01*
X98652362Y-125741398D01*
X98943967Y-125683394D01*
X99191177Y-125518213D01*
X106970110Y-117739281D01*
X107018518Y-117739323D01*
X107251674Y-117642985D01*
X107184041Y-117983000D01*
X107298115Y-118556489D01*
X107622971Y-119042670D01*
X107937752Y-119253000D01*
X107622971Y-119463330D01*
X107298115Y-119949511D01*
X107184041Y-120523000D01*
X107298115Y-121096489D01*
X107622971Y-121582670D01*
X108109152Y-121907526D01*
X108114730Y-121908636D01*
X107083811Y-122939555D01*
X106808741Y-123053212D01*
X106544141Y-123317351D01*
X106400763Y-123662642D01*
X106400437Y-124036518D01*
X106543212Y-124382059D01*
X106807351Y-124646659D01*
X107152642Y-124790037D01*
X107526518Y-124790363D01*
X107872059Y-124647588D01*
X108136659Y-124383449D01*
X108251605Y-124106629D01*
X110543878Y-121814356D01*
X110892973Y-121977968D01*
X111125000Y-121857469D01*
X111125000Y-120650000D01*
X111379000Y-120650000D01*
X111379000Y-121857469D01*
X111611027Y-121977968D01*
X112140490Y-121729821D01*
X112534688Y-121297947D01*
X112706958Y-120882026D01*
X112585817Y-120650000D01*
X111379000Y-120650000D01*
X111125000Y-120650000D01*
X111105000Y-120650000D01*
X111105000Y-120396000D01*
X111125000Y-120396000D01*
X111125000Y-120376000D01*
X111379000Y-120376000D01*
X111379000Y-120396000D01*
X112585817Y-120396000D01*
X112706958Y-120163974D01*
X112534688Y-119748053D01*
X112140490Y-119316179D01*
X112017772Y-119258664D01*
X112341029Y-119042670D01*
X112665885Y-118556489D01*
X112779959Y-117983000D01*
X112665885Y-117409511D01*
X112341029Y-116923330D01*
X112026248Y-116713000D01*
X112341029Y-116502670D01*
X112665885Y-116016489D01*
X112779959Y-115443000D01*
X112665885Y-114869511D01*
X112341029Y-114383330D01*
X111854848Y-114058474D01*
X111281359Y-113944400D01*
X111222641Y-113944400D01*
X110649152Y-114058474D01*
X110183558Y-114369574D01*
X110178762Y-114344083D01*
X110039690Y-114127959D01*
X109827490Y-113982969D01*
X109575600Y-113931960D01*
X108571074Y-113931960D01*
X109984589Y-112518445D01*
X110259659Y-112404788D01*
X110524259Y-112140649D01*
X110667637Y-111795358D01*
X110667963Y-111421482D01*
X110525188Y-111075941D01*
X110261049Y-110811341D01*
X109915758Y-110667963D01*
X109541882Y-110667637D01*
X109196341Y-110810412D01*
X108931741Y-111074551D01*
X108816795Y-111351371D01*
X105322066Y-114846100D01*
X105059829Y-114846100D01*
X104784958Y-114731963D01*
X104411082Y-114731637D01*
X104065541Y-114874412D01*
X103800941Y-115138551D01*
X103657563Y-115483842D01*
X103657237Y-115857718D01*
X103800012Y-116203259D01*
X104064151Y-116467859D01*
X104409442Y-116611237D01*
X104783318Y-116611563D01*
X105060339Y-116497100D01*
X105664000Y-116497100D01*
X105965185Y-116437191D01*
X105892763Y-116611602D01*
X105892720Y-116661409D01*
X98336732Y-124217398D01*
X93843248Y-124217398D01*
X93809049Y-124183139D01*
X93463758Y-124039761D01*
X93089882Y-124039435D01*
X92744341Y-124182210D01*
X92479741Y-124446349D01*
X92336363Y-124791640D01*
X92336037Y-125165516D01*
X70437886Y-125165516D01*
X70584859Y-125104788D01*
X70849459Y-124840649D01*
X70992837Y-124495358D01*
X70993163Y-124121482D01*
X70850388Y-123775941D01*
X70586249Y-123511341D01*
X70309427Y-123396394D01*
X68491100Y-121578066D01*
X68491100Y-119303723D01*
X68766118Y-119303963D01*
X69111659Y-119161188D01*
X69376259Y-118897049D01*
X69519637Y-118551758D01*
X69519911Y-118237112D01*
X69578918Y-118237163D01*
X69924459Y-118094388D01*
X70189059Y-117830249D01*
X70332437Y-117484958D01*
X70332763Y-117111082D01*
X70218300Y-116834061D01*
X70218300Y-115295960D01*
X70282283Y-115391717D01*
X75644755Y-120754188D01*
X75758412Y-121029259D01*
X76022551Y-121293859D01*
X76367842Y-121437237D01*
X76741718Y-121437563D01*
X77030460Y-121318257D01*
X77149203Y-121437207D01*
X77494494Y-121580585D01*
X77868370Y-121580911D01*
X78213911Y-121438136D01*
X78478511Y-121173997D01*
X78621889Y-120828706D01*
X78622215Y-120454830D01*
X78479440Y-120109289D01*
X78215301Y-119844689D01*
X77938480Y-119729742D01*
X77584300Y-119375562D01*
X77584300Y-115502118D01*
X89738037Y-115502118D01*
X89880812Y-115847659D01*
X90144951Y-116112259D01*
X90490242Y-116255637D01*
X90864118Y-116255963D01*
X91141139Y-116141500D01*
X91739371Y-116141500D01*
X92014242Y-116255637D01*
X92388118Y-116255963D01*
X92733659Y-116113188D01*
X92998259Y-115849049D01*
X93141637Y-115503758D01*
X93141963Y-115129882D01*
X92999188Y-114784341D01*
X92735049Y-114519741D01*
X92389758Y-114376363D01*
X92015882Y-114376037D01*
X91738861Y-114490500D01*
X91140629Y-114490500D01*
X90865758Y-114376363D01*
X90491882Y-114376037D01*
X90146341Y-114518812D01*
X89881741Y-114782951D01*
X89738363Y-115128242D01*
X89738037Y-115502118D01*
X77584300Y-115502118D01*
X77584300Y-108971429D01*
X77698437Y-108696558D01*
X77698487Y-108638999D01*
X78331533Y-108638999D01*
X78283880Y-108753759D01*
X78283554Y-109127635D01*
X78426329Y-109473176D01*
X78690468Y-109737776D01*
X78967289Y-109852722D01*
X80950281Y-111835714D01*
X80950283Y-111835717D01*
X81218095Y-112014663D01*
X81534000Y-112077500D01*
X100585869Y-112077500D01*
X100847826Y-112339457D01*
X101095037Y-112504638D01*
X101386641Y-112562641D01*
X102473847Y-112562641D01*
X102504612Y-112637099D01*
X102768751Y-112901699D01*
X103114042Y-113045077D01*
X103487918Y-113045403D01*
X103833459Y-112902628D01*
X104098059Y-112638489D01*
X104241437Y-112293198D01*
X104241763Y-111919322D01*
X104098988Y-111573781D01*
X103834849Y-111309181D01*
X103489558Y-111165803D01*
X103391981Y-111165718D01*
X103288606Y-111096645D01*
X102997001Y-111038641D01*
X101702272Y-111038641D01*
X101600896Y-110937265D01*
X101600663Y-110936095D01*
X101421717Y-110668283D01*
X101153905Y-110489337D01*
X100838000Y-110426500D01*
X81875933Y-110426500D01*
X80134362Y-108684928D01*
X80115384Y-108638999D01*
X81055565Y-108638999D01*
X81131155Y-108714589D01*
X81244812Y-108989659D01*
X81508951Y-109254259D01*
X81854242Y-109397637D01*
X82228118Y-109397963D01*
X82573659Y-109255188D01*
X82838259Y-108991049D01*
X82981637Y-108645758D01*
X82981680Y-108595950D01*
X84282951Y-107294680D01*
X89358912Y-107294680D01*
X89393111Y-107328939D01*
X89738402Y-107472317D01*
X90112278Y-107472643D01*
X90457819Y-107329868D01*
X90722419Y-107065729D01*
X90865797Y-106720438D01*
X90866123Y-106346562D01*
X90723348Y-106001021D01*
X90459209Y-105736421D01*
X90113918Y-105593043D01*
X89740042Y-105592717D01*
X89394501Y-105735492D01*
X89359252Y-105770680D01*
X83967320Y-105770680D01*
X83675715Y-105828684D01*
X83669099Y-105833105D01*
X83428505Y-105993864D01*
X82086902Y-107335468D01*
X81981216Y-107229782D01*
X81713405Y-107050836D01*
X81397499Y-106987999D01*
X75783130Y-106987999D01*
X75508259Y-106873862D01*
X75134383Y-106873536D01*
X74788842Y-107016311D01*
X74524242Y-107280450D01*
X74380864Y-107625741D01*
X74380538Y-107999617D01*
X74523313Y-108345158D01*
X74787452Y-108609758D01*
X75132743Y-108753136D01*
X75506619Y-108753462D01*
X75783640Y-108638999D01*
X75818886Y-108638999D01*
X75818837Y-108694918D01*
X75933300Y-108971939D01*
X75933300Y-118707867D01*
X71691500Y-114466066D01*
X71691500Y-109784229D01*
X71805637Y-109509358D01*
X71805963Y-109135482D01*
X71663188Y-108789941D01*
X71399049Y-108525341D01*
X71053758Y-108381963D01*
X70772376Y-108381718D01*
X70647188Y-108078741D01*
X70383049Y-107814141D01*
X70037758Y-107670763D01*
X69663882Y-107670437D01*
X69318341Y-107813212D01*
X69053741Y-108077351D01*
X68955018Y-108315101D01*
X65002341Y-108315101D01*
X65031158Y-108245526D01*
X64910017Y-108013500D01*
X63703200Y-108013500D01*
X63703200Y-108033500D01*
X63449200Y-108033500D01*
X63449200Y-108013500D01*
X63429200Y-108013500D01*
X63429200Y-107759500D01*
X63449200Y-107759500D01*
X63449200Y-107739500D01*
X63703200Y-107739500D01*
X63703200Y-107759500D01*
X64910017Y-107759500D01*
X65031158Y-107527474D01*
X64936568Y-107299101D01*
X70366831Y-107299101D01*
X73842759Y-110775030D01*
X73842717Y-110823438D01*
X73985492Y-111168979D01*
X74249631Y-111433579D01*
X74594922Y-111576957D01*
X74968798Y-111577283D01*
X75314339Y-111434508D01*
X75578939Y-111170369D01*
X75722317Y-110825078D01*
X75722643Y-110451202D01*
X75579868Y-110105661D01*
X75315729Y-109841061D01*
X74970438Y-109697683D01*
X74920630Y-109697640D01*
X71221276Y-105998286D01*
X71214658Y-105993864D01*
X70974066Y-105833105D01*
X70682461Y-105775101D01*
X65018905Y-105775101D01*
X65104159Y-105346500D01*
X64990085Y-104773011D01*
X64928229Y-104680436D01*
X76378919Y-104680436D01*
X76521694Y-105025977D01*
X76785833Y-105290577D01*
X77062653Y-105405523D01*
X77752447Y-106095317D01*
X78020258Y-106274263D01*
X78336164Y-106337100D01*
X78378971Y-106337100D01*
X78653842Y-106451237D01*
X79027718Y-106451563D01*
X79373259Y-106308788D01*
X79637859Y-106044649D01*
X79781237Y-105699358D01*
X79781563Y-105325482D01*
X79638788Y-104979941D01*
X79374649Y-104715341D01*
X79029358Y-104571963D01*
X78655482Y-104571637D01*
X78590489Y-104598491D01*
X78229727Y-104237729D01*
X78116070Y-103962659D01*
X77851931Y-103698059D01*
X77506640Y-103554681D01*
X77132764Y-103554355D01*
X76787223Y-103697130D01*
X76522623Y-103961269D01*
X76379245Y-104306560D01*
X76378919Y-104680436D01*
X64928229Y-104680436D01*
X64665229Y-104286830D01*
X64350448Y-104076500D01*
X64665229Y-103866170D01*
X64990085Y-103379989D01*
X65104159Y-102806500D01*
X64990085Y-102233011D01*
X64665229Y-101746830D01*
X64179048Y-101421974D01*
X63605559Y-101307900D01*
X63546841Y-101307900D01*
X62973352Y-101421974D01*
X62507758Y-101733074D01*
X62502962Y-101707583D01*
X62363890Y-101491459D01*
X62151690Y-101346469D01*
X61899800Y-101295460D01*
X60172600Y-101295460D01*
X59937283Y-101339738D01*
X59721159Y-101478810D01*
X59576169Y-101691010D01*
X59525160Y-101942900D01*
X59525160Y-103670100D01*
X59569438Y-103905417D01*
X59708510Y-104121541D01*
X59920710Y-104266531D01*
X59964331Y-104275364D01*
X59947171Y-104286830D01*
X59622315Y-104773011D01*
X59508241Y-105346500D01*
X32233000Y-105346500D01*
X32233000Y-90180016D01*
X50207590Y-90180016D01*
X50263271Y-90410611D01*
X50746078Y-90578622D01*
X51256428Y-90549083D01*
X51590729Y-90410611D01*
X51646410Y-90180016D01*
X50927000Y-89460605D01*
X50207590Y-90180016D01*
X32233000Y-90180016D01*
X32233000Y-85653467D01*
X32246420Y-85586000D01*
X33231050Y-85586000D01*
X33407417Y-86472658D01*
X33909669Y-87224331D01*
X34661342Y-87726583D01*
X35548000Y-87902950D01*
X36041459Y-87804795D01*
X47891716Y-87804795D01*
X48140106Y-88405943D01*
X48599637Y-88866278D01*
X49200352Y-89115716D01*
X49630305Y-89116091D01*
X49658917Y-89610428D01*
X49797389Y-89944729D01*
X50027984Y-90000410D01*
X50747395Y-89281000D01*
X51106605Y-89281000D01*
X51826016Y-90000410D01*
X52056611Y-89944729D01*
X52191139Y-89558140D01*
X52376995Y-90007943D01*
X52738155Y-90369735D01*
X53210276Y-90565777D01*
X53721481Y-90566223D01*
X54193943Y-90371005D01*
X54555735Y-90009845D01*
X54737205Y-89572818D01*
X54916995Y-90007943D01*
X55278155Y-90369735D01*
X55750276Y-90565777D01*
X56261481Y-90566223D01*
X56733943Y-90371005D01*
X57095735Y-90009845D01*
X57277205Y-89572818D01*
X57456995Y-90007943D01*
X57818155Y-90369735D01*
X58290276Y-90565777D01*
X58801481Y-90566223D01*
X59273943Y-90371005D01*
X59635735Y-90009845D01*
X59817205Y-89572818D01*
X59996995Y-90007943D01*
X60358155Y-90369735D01*
X60830276Y-90565777D01*
X61341481Y-90566223D01*
X61813943Y-90371005D01*
X62175735Y-90009845D01*
X62357205Y-89572818D01*
X62536995Y-90007943D01*
X62898155Y-90369735D01*
X63370276Y-90565777D01*
X63881481Y-90566223D01*
X64353943Y-90371005D01*
X64715735Y-90009845D01*
X64897205Y-89572818D01*
X65076995Y-90007943D01*
X65438155Y-90369735D01*
X65910276Y-90565777D01*
X66421481Y-90566223D01*
X66893943Y-90371005D01*
X67255735Y-90009845D01*
X67437205Y-89572818D01*
X67616995Y-90007943D01*
X67978155Y-90369735D01*
X68450276Y-90565777D01*
X68961481Y-90566223D01*
X69433943Y-90371005D01*
X69795735Y-90009845D01*
X69991777Y-89537724D01*
X69992223Y-89026519D01*
X69797005Y-88554057D01*
X69594589Y-88351286D01*
X75582669Y-88351286D01*
X75785254Y-88841580D01*
X76160047Y-89217027D01*
X76649987Y-89420468D01*
X77180486Y-89420931D01*
X77321994Y-89362461D01*
X77289172Y-89395226D01*
X77041183Y-89992450D01*
X77040619Y-90639113D01*
X77287565Y-91236769D01*
X77744426Y-91694428D01*
X78341650Y-91942417D01*
X78988313Y-91942981D01*
X79585969Y-91696035D01*
X80043628Y-91239174D01*
X80291617Y-90641950D01*
X80292181Y-89995287D01*
X80045235Y-89397631D01*
X80003096Y-89355419D01*
X80223880Y-89433127D01*
X80753599Y-89404348D01*
X81109329Y-89257000D01*
X81170983Y-89021388D01*
X80416400Y-88266805D01*
X80402258Y-88280948D01*
X80222653Y-88101343D01*
X80236795Y-88087200D01*
X80596005Y-88087200D01*
X81350588Y-88841783D01*
X81586200Y-88780129D01*
X81737138Y-88351286D01*
X82582669Y-88351286D01*
X82785254Y-88841580D01*
X83160047Y-89217027D01*
X83649987Y-89420468D01*
X84180486Y-89420931D01*
X84670780Y-89218346D01*
X84868081Y-89021388D01*
X86661817Y-89021388D01*
X86723471Y-89257000D01*
X87223880Y-89433127D01*
X87753599Y-89404348D01*
X88109329Y-89257000D01*
X88170983Y-89021388D01*
X87416400Y-88266805D01*
X86661817Y-89021388D01*
X84868081Y-89021388D01*
X85046227Y-88843553D01*
X85249668Y-88353613D01*
X85250068Y-87894680D01*
X86070473Y-87894680D01*
X86099252Y-88424399D01*
X86246600Y-88780129D01*
X86482212Y-88841783D01*
X87236795Y-88087200D01*
X87596005Y-88087200D01*
X88350588Y-88841783D01*
X88586200Y-88780129D01*
X88611979Y-88706886D01*
X94079069Y-88706886D01*
X94281654Y-89197180D01*
X94656447Y-89572627D01*
X95146387Y-89776068D01*
X95676886Y-89776531D01*
X95818394Y-89718061D01*
X95785572Y-89750826D01*
X95537583Y-90348050D01*
X95537019Y-90994713D01*
X95783965Y-91592369D01*
X96240826Y-92050028D01*
X96838050Y-92298017D01*
X97484713Y-92298581D01*
X98082369Y-92051635D01*
X98540028Y-91594774D01*
X98788017Y-90997550D01*
X98788581Y-90350887D01*
X98541635Y-89753231D01*
X98499496Y-89711019D01*
X98720280Y-89788727D01*
X99249999Y-89759948D01*
X99605729Y-89612600D01*
X99667383Y-89376988D01*
X98912800Y-88622405D01*
X98898658Y-88636548D01*
X98719053Y-88456943D01*
X98733195Y-88442800D01*
X99092405Y-88442800D01*
X99846988Y-89197383D01*
X100082600Y-89135729D01*
X100233538Y-88706886D01*
X101079069Y-88706886D01*
X101281654Y-89197180D01*
X101656447Y-89572627D01*
X102146387Y-89776068D01*
X102676886Y-89776531D01*
X103167180Y-89573946D01*
X103542627Y-89199153D01*
X103746068Y-88709213D01*
X103746070Y-88706886D01*
X104579069Y-88706886D01*
X104781654Y-89197180D01*
X105156447Y-89572627D01*
X105646387Y-89776068D01*
X106176886Y-89776531D01*
X106667180Y-89573946D01*
X107042627Y-89199153D01*
X107246068Y-88709213D01*
X107246531Y-88178714D01*
X107043946Y-87688420D01*
X106669153Y-87312973D01*
X106179213Y-87109532D01*
X105648714Y-87109069D01*
X105158420Y-87311654D01*
X104782973Y-87686447D01*
X104579532Y-88176387D01*
X104579069Y-88706886D01*
X103746070Y-88706886D01*
X103746531Y-88178714D01*
X103543946Y-87688420D01*
X103169153Y-87312973D01*
X102679213Y-87109532D01*
X102148714Y-87109069D01*
X101658420Y-87311654D01*
X101282973Y-87686447D01*
X101079532Y-88176387D01*
X101079069Y-88706886D01*
X100233538Y-88706886D01*
X100258727Y-88635320D01*
X100229948Y-88105601D01*
X100082600Y-87749871D01*
X99846988Y-87688217D01*
X99092405Y-88442800D01*
X98733195Y-88442800D01*
X97978612Y-87688217D01*
X97743000Y-87749871D01*
X97566873Y-88250280D01*
X97595652Y-88779999D01*
X97743000Y-89135729D01*
X97978610Y-89197382D01*
X97940378Y-89235614D01*
X97487550Y-89047583D01*
X96840887Y-89047019D01*
X96557111Y-89164273D01*
X96746068Y-88709213D01*
X96746531Y-88178714D01*
X96543946Y-87688420D01*
X96364452Y-87508612D01*
X98158217Y-87508612D01*
X98912800Y-88263195D01*
X99667383Y-87508612D01*
X99605729Y-87273000D01*
X99105320Y-87096873D01*
X98575601Y-87125652D01*
X98219871Y-87273000D01*
X98158217Y-87508612D01*
X96364452Y-87508612D01*
X96169153Y-87312973D01*
X95679213Y-87109532D01*
X95148714Y-87109069D01*
X94658420Y-87311654D01*
X94282973Y-87686447D01*
X94079532Y-88176387D01*
X94079069Y-88706886D01*
X88611979Y-88706886D01*
X88762327Y-88279720D01*
X88733548Y-87750001D01*
X88586200Y-87394271D01*
X88350588Y-87332617D01*
X87596005Y-88087200D01*
X87236795Y-88087200D01*
X86482212Y-87332617D01*
X86246600Y-87394271D01*
X86070473Y-87894680D01*
X85250068Y-87894680D01*
X85250131Y-87823114D01*
X85047546Y-87332820D01*
X84868052Y-87153012D01*
X86661817Y-87153012D01*
X87416400Y-87907595D01*
X88170983Y-87153012D01*
X88109329Y-86917400D01*
X87608920Y-86741273D01*
X87079201Y-86770052D01*
X86723471Y-86917400D01*
X86661817Y-87153012D01*
X84868052Y-87153012D01*
X84672753Y-86957373D01*
X84182813Y-86753932D01*
X83652314Y-86753469D01*
X83162020Y-86956054D01*
X82786573Y-87330847D01*
X82583132Y-87820787D01*
X82582669Y-88351286D01*
X81737138Y-88351286D01*
X81762327Y-88279720D01*
X81733548Y-87750001D01*
X81586200Y-87394271D01*
X81350588Y-87332617D01*
X80596005Y-88087200D01*
X80236795Y-88087200D01*
X79482212Y-87332617D01*
X79246600Y-87394271D01*
X79070473Y-87894680D01*
X79099252Y-88424399D01*
X79246600Y-88780129D01*
X79482210Y-88841782D01*
X79443978Y-88880014D01*
X78991150Y-88691983D01*
X78344487Y-88691419D01*
X78060711Y-88808673D01*
X78249668Y-88353613D01*
X78250131Y-87823114D01*
X78047546Y-87332820D01*
X77868052Y-87153012D01*
X79661817Y-87153012D01*
X80416400Y-87907595D01*
X81170983Y-87153012D01*
X81109329Y-86917400D01*
X80608920Y-86741273D01*
X80079201Y-86770052D01*
X79723471Y-86917400D01*
X79661817Y-87153012D01*
X77868052Y-87153012D01*
X77672753Y-86957373D01*
X77182813Y-86753932D01*
X76652314Y-86753469D01*
X76162020Y-86956054D01*
X75786573Y-87330847D01*
X75583132Y-87820787D01*
X75582669Y-88351286D01*
X69594589Y-88351286D01*
X69435845Y-88192265D01*
X68963724Y-87996223D01*
X68452519Y-87995777D01*
X67980057Y-88190995D01*
X67618265Y-88552155D01*
X67436795Y-88989182D01*
X67257005Y-88554057D01*
X66895845Y-88192265D01*
X66423724Y-87996223D01*
X65912519Y-87995777D01*
X65440057Y-88190995D01*
X65078265Y-88552155D01*
X64896795Y-88989182D01*
X64717005Y-88554057D01*
X64355845Y-88192265D01*
X63883724Y-87996223D01*
X63372519Y-87995777D01*
X62900057Y-88190995D01*
X62538265Y-88552155D01*
X62356795Y-88989182D01*
X62177005Y-88554057D01*
X61815845Y-88192265D01*
X61343724Y-87996223D01*
X60832519Y-87995777D01*
X60360057Y-88190995D01*
X59998265Y-88552155D01*
X59816795Y-88989182D01*
X59637005Y-88554057D01*
X59275845Y-88192265D01*
X58803724Y-87996223D01*
X58292519Y-87995777D01*
X57820057Y-88190995D01*
X57458265Y-88552155D01*
X57276795Y-88989182D01*
X57097005Y-88554057D01*
X56735845Y-88192265D01*
X56263724Y-87996223D01*
X55752519Y-87995777D01*
X55280057Y-88190995D01*
X54918265Y-88552155D01*
X54736795Y-88989182D01*
X54557005Y-88554057D01*
X54195845Y-88192265D01*
X53723724Y-87996223D01*
X53212519Y-87995777D01*
X52740057Y-88190995D01*
X52378265Y-88552155D01*
X52197203Y-88988200D01*
X52195083Y-88951572D01*
X52056611Y-88617271D01*
X51826016Y-88561590D01*
X51106605Y-89281000D01*
X50747395Y-89281000D01*
X50733253Y-89266858D01*
X50912858Y-89087252D01*
X50927000Y-89101395D01*
X51646410Y-88381984D01*
X51590729Y-88151389D01*
X51107922Y-87983378D01*
X51088275Y-87984515D01*
X51161716Y-87807648D01*
X51161965Y-87523009D01*
X51468155Y-87829735D01*
X51940276Y-88025777D01*
X52451481Y-88026223D01*
X52923943Y-87831005D01*
X53285735Y-87469845D01*
X53467205Y-87032818D01*
X53646995Y-87467943D01*
X54008155Y-87829735D01*
X54480276Y-88025777D01*
X54991481Y-88026223D01*
X55463943Y-87831005D01*
X55825735Y-87469845D01*
X56007205Y-87032818D01*
X56186995Y-87467943D01*
X56548155Y-87829735D01*
X57020276Y-88025777D01*
X57531481Y-88026223D01*
X58003943Y-87831005D01*
X58365735Y-87469845D01*
X58547205Y-87032818D01*
X58726995Y-87467943D01*
X59088155Y-87829735D01*
X59560276Y-88025777D01*
X60071481Y-88026223D01*
X60543943Y-87831005D01*
X60905735Y-87469845D01*
X61087205Y-87032818D01*
X61266995Y-87467943D01*
X61628155Y-87829735D01*
X62100276Y-88025777D01*
X62611481Y-88026223D01*
X63083943Y-87831005D01*
X63445735Y-87469845D01*
X63627205Y-87032818D01*
X63806995Y-87467943D01*
X64168155Y-87829735D01*
X64640276Y-88025777D01*
X65151481Y-88026223D01*
X65623943Y-87831005D01*
X65985735Y-87469845D01*
X66167205Y-87032818D01*
X66346995Y-87467943D01*
X66708155Y-87829735D01*
X67180276Y-88025777D01*
X67691481Y-88026223D01*
X68163943Y-87831005D01*
X68355266Y-87640016D01*
X69257590Y-87640016D01*
X69313271Y-87870611D01*
X69796078Y-88038622D01*
X70306428Y-88009083D01*
X70640729Y-87870611D01*
X70696410Y-87640016D01*
X69977000Y-86920605D01*
X69257590Y-87640016D01*
X68355266Y-87640016D01*
X68525735Y-87469845D01*
X68706797Y-87033800D01*
X68708917Y-87070428D01*
X68847389Y-87404729D01*
X69077984Y-87460410D01*
X69797395Y-86741000D01*
X70156605Y-86741000D01*
X70876016Y-87460410D01*
X71106611Y-87404729D01*
X71274622Y-86921922D01*
X71245083Y-86411572D01*
X71106611Y-86077271D01*
X70876016Y-86021590D01*
X70156605Y-86741000D01*
X69797395Y-86741000D01*
X69077984Y-86021590D01*
X68847389Y-86077271D01*
X68712861Y-86463860D01*
X68527005Y-86014057D01*
X68355233Y-85841984D01*
X69257590Y-85841984D01*
X69977000Y-86561395D01*
X70696410Y-85841984D01*
X70640729Y-85611389D01*
X70567770Y-85586000D01*
X115551050Y-85586000D01*
X115727417Y-86472658D01*
X116229669Y-87224331D01*
X116981342Y-87726583D01*
X117868000Y-87902950D01*
X118754658Y-87726583D01*
X119506331Y-87224331D01*
X120008583Y-86472658D01*
X120184950Y-85586000D01*
X120008583Y-84699342D01*
X119506331Y-83947669D01*
X118754658Y-83445417D01*
X117868000Y-83269050D01*
X116981342Y-83445417D01*
X116229669Y-83947669D01*
X115727417Y-84699342D01*
X115551050Y-85586000D01*
X70567770Y-85586000D01*
X70157922Y-85443378D01*
X69647572Y-85472917D01*
X69313271Y-85611389D01*
X69257590Y-85841984D01*
X68355233Y-85841984D01*
X68165845Y-85652265D01*
X67693724Y-85456223D01*
X67182519Y-85455777D01*
X66710057Y-85650995D01*
X66348265Y-86012155D01*
X66166795Y-86449182D01*
X65987005Y-86014057D01*
X65625845Y-85652265D01*
X65153724Y-85456223D01*
X64642519Y-85455777D01*
X64170057Y-85650995D01*
X63808265Y-86012155D01*
X63626795Y-86449182D01*
X63447005Y-86014057D01*
X63085845Y-85652265D01*
X62613724Y-85456223D01*
X62102519Y-85455777D01*
X61630057Y-85650995D01*
X61268265Y-86012155D01*
X61086795Y-86449182D01*
X60907005Y-86014057D01*
X60545845Y-85652265D01*
X60073724Y-85456223D01*
X59562519Y-85455777D01*
X59090057Y-85650995D01*
X58728265Y-86012155D01*
X58546795Y-86449182D01*
X58367005Y-86014057D01*
X58005845Y-85652265D01*
X57533724Y-85456223D01*
X57022519Y-85455777D01*
X56550057Y-85650995D01*
X56188265Y-86012155D01*
X56006795Y-86449182D01*
X55827005Y-86014057D01*
X55465845Y-85652265D01*
X54993724Y-85456223D01*
X54482519Y-85455777D01*
X54010057Y-85650995D01*
X53648265Y-86012155D01*
X53466795Y-86449182D01*
X53287005Y-86014057D01*
X52925845Y-85652265D01*
X52453724Y-85456223D01*
X51942519Y-85455777D01*
X51470057Y-85650995D01*
X51108265Y-86012155D01*
X50912223Y-86484276D01*
X50912162Y-86554322D01*
X50454363Y-86095722D01*
X49853648Y-85846284D01*
X49203205Y-85845716D01*
X48602057Y-86094106D01*
X48141722Y-86553637D01*
X47892284Y-87154352D01*
X47891716Y-87804795D01*
X36041459Y-87804795D01*
X36434658Y-87726583D01*
X37186331Y-87224331D01*
X37688583Y-86472658D01*
X37864950Y-85586000D01*
X37688583Y-84699342D01*
X37186331Y-83947669D01*
X36434658Y-83445417D01*
X35548000Y-83269050D01*
X34661342Y-83445417D01*
X33909669Y-83947669D01*
X33407417Y-84699342D01*
X33231050Y-85586000D01*
X32246420Y-85586000D01*
X32497738Y-84322541D01*
X33213429Y-83251432D01*
X34284540Y-82535738D01*
X35621494Y-82269801D01*
X117800528Y-82270999D01*
X117800528Y-82270999D01*
G37*
X117800528Y-82270999D02*
X119131459Y-82535738D01*
X120202568Y-83251429D01*
X120918262Y-84322540D01*
X121183000Y-85653467D01*
X121183000Y-147518533D01*
X120918262Y-148849460D01*
X120202568Y-149920571D01*
X119131459Y-150636262D01*
X117800528Y-150901001D01*
X35621495Y-150902199D01*
X34284540Y-150636262D01*
X33213429Y-149920568D01*
X32497738Y-148849459D01*
X32246421Y-147586000D01*
X33231050Y-147586000D01*
X33407417Y-148472658D01*
X33909669Y-149224331D01*
X34661342Y-149726583D01*
X35548000Y-149902950D01*
X36434658Y-149726583D01*
X37186331Y-149224331D01*
X37508174Y-148742659D01*
X87661946Y-148742659D01*
X87806467Y-149048444D01*
X88551993Y-149337571D01*
X89351414Y-149319389D01*
X90005533Y-149048444D01*
X90150054Y-148742659D01*
X97661946Y-148742659D01*
X97806467Y-149048444D01*
X98551993Y-149337571D01*
X99351414Y-149319389D01*
X100005533Y-149048444D01*
X100150054Y-148742659D01*
X98906000Y-147498605D01*
X97661946Y-148742659D01*
X90150054Y-148742659D01*
X88906000Y-147498605D01*
X87661946Y-148742659D01*
X37508174Y-148742659D01*
X37688583Y-148472658D01*
X37864950Y-147586000D01*
X37688583Y-146699342D01*
X37474735Y-146379295D01*
X42260716Y-146379295D01*
X42509106Y-146980443D01*
X42968637Y-147440778D01*
X43569352Y-147690216D01*
X44219795Y-147690784D01*
X44820943Y-147442394D01*
X45281278Y-146982863D01*
X45530716Y-146382148D01*
X45530718Y-146379295D01*
X72660716Y-146379295D01*
X72909106Y-146980443D01*
X73368637Y-147440778D01*
X73969352Y-147690216D01*
X74619795Y-147690784D01*
X75220943Y-147442394D01*
X75681278Y-146982863D01*
X75688698Y-146964993D01*
X86887429Y-146964993D01*
X86905611Y-147764414D01*
X87176556Y-148418533D01*
X87482341Y-148563054D01*
X88726395Y-147319000D01*
X89085605Y-147319000D01*
X90329659Y-148563054D01*
X90635444Y-148418533D01*
X90924571Y-147673007D01*
X90908468Y-146964993D01*
X96887429Y-146964993D01*
X96905611Y-147764414D01*
X97176556Y-148418533D01*
X97482341Y-148563054D01*
X98726395Y-147319000D01*
X99085605Y-147319000D01*
X100329659Y-148563054D01*
X100635444Y-148418533D01*
X100924571Y-147673007D01*
X100922593Y-147586000D01*
X115551050Y-147586000D01*
X115727417Y-148472658D01*
X116229669Y-149224331D01*
X116981342Y-149726583D01*
X117868000Y-149902950D01*
X118754658Y-149726583D01*
X119506331Y-149224331D01*
X120008583Y-148472658D01*
X120184950Y-147586000D01*
X120008583Y-146699342D01*
X119506331Y-145947669D01*
X118754658Y-145445417D01*
X117868000Y-145269050D01*
X116981342Y-145445417D01*
X116229669Y-145947669D01*
X115727417Y-146699342D01*
X115551050Y-147586000D01*
X100922593Y-147586000D01*
X100906389Y-146873586D01*
X100635444Y-146219467D01*
X100329659Y-146074946D01*
X99085605Y-147319000D01*
X98726395Y-147319000D01*
X97482341Y-146074946D01*
X97176556Y-146219467D01*
X96887429Y-146964993D01*
X90908468Y-146964993D01*
X90906389Y-146873586D01*
X90635444Y-146219467D01*
X90329659Y-146074946D01*
X89085605Y-147319000D01*
X88726395Y-147319000D01*
X87482341Y-146074946D01*
X87176556Y-146219467D01*
X86887429Y-146964993D01*
X75688698Y-146964993D01*
X75930716Y-146382148D01*
X75931141Y-145895341D01*
X87661946Y-145895341D01*
X88906000Y-147139395D01*
X90150054Y-145895341D01*
X97661946Y-145895341D01*
X98906000Y-147139395D01*
X100150054Y-145895341D01*
X100005533Y-145589556D01*
X99260007Y-145300429D01*
X98460586Y-145318611D01*
X97806467Y-145589556D01*
X97661946Y-145895341D01*
X90150054Y-145895341D01*
X90005533Y-145589556D01*
X89260007Y-145300429D01*
X88460586Y-145318611D01*
X87806467Y-145589556D01*
X87661946Y-145895341D01*
X75931141Y-145895341D01*
X75931284Y-145731705D01*
X75682894Y-145130557D01*
X75223363Y-144670222D01*
X74622648Y-144420784D01*
X73972205Y-144420216D01*
X73371057Y-144668606D01*
X72910722Y-145128137D01*
X72661284Y-145728852D01*
X72660716Y-146379295D01*
X45530718Y-146379295D01*
X45531284Y-145731705D01*
X45282894Y-145130557D01*
X44823363Y-144670222D01*
X44222648Y-144420784D01*
X43572205Y-144420216D01*
X42971057Y-144668606D01*
X42510722Y-145128137D01*
X42261284Y-145728852D01*
X42260716Y-146379295D01*
X37474735Y-146379295D01*
X37186331Y-145947669D01*
X36434658Y-145445417D01*
X35548000Y-145269050D01*
X34661342Y-145445417D01*
X33909669Y-145947669D01*
X33407417Y-146699342D01*
X33231050Y-147586000D01*
X32246421Y-147586000D01*
X32233000Y-147518533D01*
X32233000Y-143178315D01*
X52960630Y-143178315D01*
X53284980Y-143963300D01*
X53885041Y-144564409D01*
X54669459Y-144890128D01*
X55518815Y-144890870D01*
X56303800Y-144566520D01*
X56904909Y-143966459D01*
X57096068Y-143506098D01*
X57284980Y-143963300D01*
X57885041Y-144564409D01*
X58669459Y-144890128D01*
X59518815Y-144890870D01*
X60303800Y-144566520D01*
X60904909Y-143966459D01*
X61096068Y-143506098D01*
X61284980Y-143963300D01*
X61885041Y-144564409D01*
X62669459Y-144890128D01*
X63518815Y-144890870D01*
X64303800Y-144566520D01*
X64904909Y-143966459D01*
X65059864Y-143593285D01*
X85990760Y-143593285D01*
X86201169Y-144102515D01*
X86590436Y-144492461D01*
X87099298Y-144703759D01*
X87650285Y-144704240D01*
X88159515Y-144493831D01*
X88363183Y-144290517D01*
X89124088Y-144290517D01*
X89192077Y-144531460D01*
X89711171Y-144716201D01*
X90261448Y-144688230D01*
X90639923Y-144531460D01*
X90707912Y-144290517D01*
X89916000Y-143498605D01*
X89124088Y-144290517D01*
X88363183Y-144290517D01*
X88549461Y-144104564D01*
X88639377Y-143888021D01*
X88703540Y-144042923D01*
X88944483Y-144110912D01*
X89736395Y-143319000D01*
X90095605Y-143319000D01*
X90887517Y-144110912D01*
X91128460Y-144042923D01*
X91288482Y-143593285D01*
X96510760Y-143593285D01*
X96721169Y-144102515D01*
X97110436Y-144492461D01*
X97619298Y-144703759D01*
X98170285Y-144704240D01*
X98679515Y-144493831D01*
X98883183Y-144290517D01*
X99644088Y-144290517D01*
X99712077Y-144531460D01*
X100231171Y-144716201D01*
X100781448Y-144688230D01*
X101159923Y-144531460D01*
X101227912Y-144290517D01*
X100436000Y-143498605D01*
X99644088Y-144290517D01*
X98883183Y-144290517D01*
X99069461Y-144104564D01*
X99159377Y-143888021D01*
X99223540Y-144042923D01*
X99464483Y-144110912D01*
X100256395Y-143319000D01*
X100615605Y-143319000D01*
X101407517Y-144110912D01*
X101648460Y-144042923D01*
X101833201Y-143523829D01*
X101805230Y-142973552D01*
X101648460Y-142595077D01*
X101407517Y-142527088D01*
X100615605Y-143319000D01*
X100256395Y-143319000D01*
X99464483Y-142527088D01*
X99223540Y-142595077D01*
X99164268Y-142761621D01*
X99070831Y-142535485D01*
X98883157Y-142347483D01*
X99644088Y-142347483D01*
X100436000Y-143139395D01*
X101227912Y-142347483D01*
X101159923Y-142106540D01*
X100640829Y-141921799D01*
X100090552Y-141949770D01*
X99712077Y-142106540D01*
X99644088Y-142347483D01*
X98883157Y-142347483D01*
X98681564Y-142145539D01*
X98172702Y-141934241D01*
X97621715Y-141933760D01*
X97112485Y-142144169D01*
X96722539Y-142533436D01*
X96511241Y-143042298D01*
X96510760Y-143593285D01*
X91288482Y-143593285D01*
X91313201Y-143523829D01*
X91285230Y-142973552D01*
X91128460Y-142595077D01*
X90887517Y-142527088D01*
X90095605Y-143319000D01*
X89736395Y-143319000D01*
X88944483Y-142527088D01*
X88703540Y-142595077D01*
X88644268Y-142761621D01*
X88550831Y-142535485D01*
X88363157Y-142347483D01*
X89124088Y-142347483D01*
X89916000Y-143139395D01*
X90707912Y-142347483D01*
X90639923Y-142106540D01*
X90120829Y-141921799D01*
X89570552Y-141949770D01*
X89192077Y-142106540D01*
X89124088Y-142347483D01*
X88363157Y-142347483D01*
X88161564Y-142145539D01*
X87652702Y-141934241D01*
X87101715Y-141933760D01*
X86592485Y-142144169D01*
X86202539Y-142533436D01*
X85991241Y-143042298D01*
X85990760Y-143593285D01*
X65059864Y-143593285D01*
X65064966Y-143581000D01*
X83304500Y-143581000D01*
X83620406Y-143518163D01*
X83888217Y-143339217D01*
X84889389Y-142338045D01*
X85164459Y-142224388D01*
X85429059Y-141960249D01*
X85572437Y-141614958D01*
X85572763Y-141241082D01*
X85429988Y-140895541D01*
X85165849Y-140630941D01*
X85064446Y-140588835D01*
X85064763Y-140225082D01*
X84921988Y-139879541D01*
X84657849Y-139614941D01*
X84312558Y-139471563D01*
X83938682Y-139471237D01*
X83631880Y-139598006D01*
X83377843Y-139648537D01*
X83110031Y-139827483D01*
X83110029Y-139827486D01*
X82692013Y-140245501D01*
X71415451Y-140245501D01*
X71655642Y-139667057D01*
X71656357Y-138847538D01*
X71343401Y-138090128D01*
X70764420Y-137510135D01*
X70007557Y-137195858D01*
X69188038Y-137195143D01*
X68430628Y-137508099D01*
X67850635Y-138087080D01*
X67536358Y-138843943D01*
X67535643Y-139663462D01*
X67776137Y-140245501D01*
X64551377Y-140245501D01*
X64368160Y-140062284D01*
X64100349Y-139883338D01*
X63784443Y-139820501D01*
X62965516Y-139820501D01*
X63230628Y-139182041D01*
X63231370Y-138332685D01*
X62907020Y-137547700D01*
X62306959Y-136946591D01*
X61522541Y-136620872D01*
X60673185Y-136620130D01*
X59888200Y-136944480D01*
X59287091Y-137544541D01*
X59095932Y-138004902D01*
X58907020Y-137547700D01*
X58306959Y-136946591D01*
X57522541Y-136620872D01*
X56673185Y-136620130D01*
X55888200Y-136944480D01*
X55287091Y-137544541D01*
X54961372Y-138328959D01*
X54960630Y-139178315D01*
X55284980Y-139963300D01*
X55885041Y-140564409D01*
X56669459Y-140890128D01*
X57518815Y-140890870D01*
X57904552Y-140731486D01*
X58050489Y-140877423D01*
X57888200Y-140944480D01*
X57287091Y-141544541D01*
X57095932Y-142004902D01*
X56907020Y-141547700D01*
X56306959Y-140946591D01*
X55522541Y-140620872D01*
X54673185Y-140620130D01*
X53888200Y-140944480D01*
X53287091Y-141544541D01*
X52961372Y-142328959D01*
X52960630Y-143178315D01*
X32233000Y-143178315D01*
X32233000Y-139663462D01*
X46535643Y-139663462D01*
X46848599Y-140420872D01*
X47427580Y-141000865D01*
X48184443Y-141315142D01*
X49003962Y-141315857D01*
X49761372Y-141002901D01*
X50341365Y-140423920D01*
X50655642Y-139667057D01*
X50656357Y-138847538D01*
X50343401Y-138090128D01*
X49764420Y-137510135D01*
X49007557Y-137195858D01*
X48188038Y-137195143D01*
X47430628Y-137508099D01*
X46850635Y-138087080D01*
X46536358Y-138843943D01*
X46535643Y-139663462D01*
X32233000Y-139663462D01*
X32233000Y-136269470D01*
X53761635Y-136269470D01*
X53921418Y-136588239D01*
X54712187Y-136898223D01*
X55561387Y-136881997D01*
X56270582Y-136588239D01*
X56430365Y-136269470D01*
X57761635Y-136269470D01*
X57921418Y-136588239D01*
X58712187Y-136898223D01*
X59561387Y-136881997D01*
X60270582Y-136588239D01*
X60430365Y-136269470D01*
X59096000Y-134935105D01*
X57761635Y-136269470D01*
X56430365Y-136269470D01*
X55096000Y-134935105D01*
X53761635Y-136269470D01*
X32233000Y-136269470D01*
X32233000Y-134371687D01*
X52953277Y-134371687D01*
X52969503Y-135220887D01*
X53263261Y-135930082D01*
X53582030Y-136089865D01*
X54916395Y-134755500D01*
X55275605Y-134755500D01*
X56609970Y-136089865D01*
X56928739Y-135930082D01*
X57091392Y-135515154D01*
X57263261Y-135930082D01*
X57582030Y-136089865D01*
X58916395Y-134755500D01*
X59275605Y-134755500D01*
X60609970Y-136089865D01*
X60928739Y-135930082D01*
X61095490Y-135504700D01*
X61284980Y-135963300D01*
X61885041Y-136564409D01*
X62669459Y-136890128D01*
X63518815Y-136890870D01*
X64303800Y-136566520D01*
X64387948Y-136482518D01*
X85623237Y-136482518D01*
X85766012Y-136828059D01*
X86030151Y-137092659D01*
X86375442Y-137236037D01*
X86749318Y-137236363D01*
X86761675Y-137231257D01*
X88225442Y-138695024D01*
X88081241Y-139042298D01*
X88080760Y-139593285D01*
X88291169Y-140102515D01*
X88680436Y-140492461D01*
X89189298Y-140703759D01*
X89740285Y-140704240D01*
X90249515Y-140493831D01*
X90639461Y-140104564D01*
X90735976Y-139872130D01*
X90831169Y-140102515D01*
X91220436Y-140492461D01*
X91729298Y-140703759D01*
X92280285Y-140704240D01*
X92789515Y-140493831D01*
X93179461Y-140104564D01*
X93275976Y-139872130D01*
X93371169Y-140102515D01*
X93760436Y-140492461D01*
X94269298Y-140703759D01*
X94820285Y-140704240D01*
X95329515Y-140493831D01*
X95719461Y-140104564D01*
X95815976Y-139872130D01*
X95911169Y-140102515D01*
X96300436Y-140492461D01*
X96809298Y-140703759D01*
X97360285Y-140704240D01*
X97869515Y-140493831D01*
X98259461Y-140104564D01*
X98470759Y-139595702D01*
X98471240Y-139044715D01*
X98260831Y-138535485D01*
X97871564Y-138145539D01*
X97362702Y-137934241D01*
X96811715Y-137933760D01*
X96302485Y-138144169D01*
X95912539Y-138533436D01*
X95816024Y-138765870D01*
X95720831Y-138535485D01*
X95331564Y-138145539D01*
X94822702Y-137934241D01*
X94328242Y-137933809D01*
X94204016Y-137809582D01*
X94449461Y-137564564D01*
X94545976Y-137332130D01*
X94641169Y-137562515D01*
X95030436Y-137952461D01*
X95539298Y-138163759D01*
X96090285Y-138164240D01*
X96599515Y-137953831D01*
X96803183Y-137750517D01*
X97564088Y-137750517D01*
X97632077Y-137991460D01*
X98151171Y-138176201D01*
X98701448Y-138148230D01*
X99079923Y-137991460D01*
X99147912Y-137750517D01*
X98356000Y-136958605D01*
X97564088Y-137750517D01*
X96803183Y-137750517D01*
X96989461Y-137564564D01*
X97079377Y-137348021D01*
X97143540Y-137502923D01*
X97384483Y-137570912D01*
X98176395Y-136779000D01*
X98535605Y-136779000D01*
X99327517Y-137570912D01*
X99568460Y-137502923D01*
X99753201Y-136983829D01*
X99725230Y-136433552D01*
X99568460Y-136055077D01*
X99327517Y-135987088D01*
X98535605Y-136779000D01*
X98176395Y-136779000D01*
X97384483Y-135987088D01*
X97143540Y-136055077D01*
X97084268Y-136221621D01*
X96990831Y-135995485D01*
X96803157Y-135807483D01*
X97564088Y-135807483D01*
X98356000Y-136599395D01*
X99147912Y-135807483D01*
X99079923Y-135566540D01*
X98560829Y-135381799D01*
X98010552Y-135409770D01*
X97632077Y-135566540D01*
X97564088Y-135807483D01*
X96803157Y-135807483D01*
X96601564Y-135605539D01*
X96092702Y-135394241D01*
X95598242Y-135393809D01*
X95259216Y-135054782D01*
X94991405Y-134875836D01*
X94675499Y-134812999D01*
X87581319Y-134812999D01*
X87512788Y-134647141D01*
X87248649Y-134382541D01*
X86903358Y-134239163D01*
X86529482Y-134238837D01*
X86183941Y-134381612D01*
X85919341Y-134645751D01*
X85775963Y-134991042D01*
X85775637Y-135364918D01*
X85889652Y-135640854D01*
X85766941Y-135763351D01*
X85623563Y-136108642D01*
X85623237Y-136482518D01*
X64387948Y-136482518D01*
X64904909Y-135966459D01*
X65230628Y-135182041D01*
X65231370Y-134332685D01*
X64907020Y-133547700D01*
X64306959Y-132946591D01*
X63522541Y-132620872D01*
X62673185Y-132620130D01*
X61888200Y-132944480D01*
X61287091Y-133544541D01*
X61100151Y-133994743D01*
X60928739Y-133580918D01*
X60609970Y-133421135D01*
X59275605Y-134755500D01*
X58916395Y-134755500D01*
X57582030Y-133421135D01*
X57263261Y-133580918D01*
X57100608Y-133995846D01*
X56928739Y-133580918D01*
X56609970Y-133421135D01*
X55275605Y-134755500D01*
X54916395Y-134755500D01*
X53582030Y-133421135D01*
X53263261Y-133580918D01*
X52953277Y-134371687D01*
X32233000Y-134371687D01*
X32233000Y-133241530D01*
X53761635Y-133241530D01*
X55096000Y-134575895D01*
X56430365Y-133241530D01*
X57761635Y-133241530D01*
X59096000Y-134575895D01*
X60430365Y-133241530D01*
X60270582Y-132922761D01*
X59479813Y-132612777D01*
X58630613Y-132629003D01*
X57921418Y-132922761D01*
X57761635Y-133241530D01*
X56430365Y-133241530D01*
X56270582Y-132922761D01*
X55479813Y-132612777D01*
X54630613Y-132629003D01*
X53921418Y-132922761D01*
X53761635Y-133241530D01*
X32233000Y-133241530D01*
X32233000Y-128279295D01*
X43760716Y-128279295D01*
X44009106Y-128880443D01*
X44468637Y-129340778D01*
X45069352Y-129590216D01*
X45719795Y-129590784D01*
X46320943Y-129342394D01*
X46781278Y-128882863D01*
X47030716Y-128282148D01*
X47030718Y-128279295D01*
X72160716Y-128279295D01*
X72409106Y-128880443D01*
X72868637Y-129340778D01*
X73469352Y-129590216D01*
X74119795Y-129590784D01*
X74720943Y-129342394D01*
X75181278Y-128882863D01*
X75430716Y-128282148D01*
X75431284Y-127631705D01*
X75182894Y-127030557D01*
X74905708Y-126752886D01*
X78146909Y-126752886D01*
X78261372Y-127029907D01*
X78261372Y-130149950D01*
X78155963Y-130403802D01*
X78155637Y-130777678D01*
X78298412Y-131123219D01*
X78562551Y-131387819D01*
X78907842Y-131531197D01*
X79015225Y-131531291D01*
X79146772Y-131849659D01*
X79410911Y-132114259D01*
X79756202Y-132257637D01*
X80130078Y-132257963D01*
X80475619Y-132115188D01*
X80740219Y-131851049D01*
X80883597Y-131505758D01*
X80883923Y-131131882D01*
X80794860Y-130916334D01*
X80794860Y-127132429D01*
X80908997Y-126857558D01*
X80909323Y-126483682D01*
X80766548Y-126138141D01*
X80502409Y-125873541D01*
X80157118Y-125730163D01*
X79783242Y-125729837D01*
X79638870Y-125789491D01*
X79619921Y-125770509D01*
X79274630Y-125627131D01*
X78900754Y-125626805D01*
X78555213Y-125769580D01*
X78290613Y-126033719D01*
X78147235Y-126379010D01*
X78146909Y-126752886D01*
X74905708Y-126752886D01*
X74723363Y-126570222D01*
X74122648Y-126320784D01*
X73472205Y-126320216D01*
X72871057Y-126568606D01*
X72410722Y-127028137D01*
X72161284Y-127628852D01*
X72160716Y-128279295D01*
X47030718Y-128279295D01*
X47031284Y-127631705D01*
X46782894Y-127030557D01*
X46323363Y-126570222D01*
X45722648Y-126320784D01*
X45072205Y-126320216D01*
X44471057Y-126568606D01*
X44010722Y-127028137D01*
X43761284Y-127628852D01*
X43760716Y-128279295D01*
X32233000Y-128279295D01*
X32233000Y-105346500D01*
X59508241Y-105346500D01*
X59622315Y-105919989D01*
X59947171Y-106406170D01*
X60261952Y-106616500D01*
X59947171Y-106826830D01*
X59622315Y-107313011D01*
X59508241Y-107886500D01*
X59622315Y-108459989D01*
X59947171Y-108946170D01*
X60433352Y-109271026D01*
X61006841Y-109385100D01*
X61065559Y-109385100D01*
X61392197Y-109320128D01*
X61687986Y-109615917D01*
X61836178Y-109714935D01*
X61935196Y-109781097D01*
X62226801Y-109839101D01*
X68567300Y-109839101D01*
X68567300Y-110966207D01*
X68392265Y-110966054D01*
X68269748Y-110669541D01*
X68005609Y-110404941D01*
X67660318Y-110261563D01*
X67343337Y-110261287D01*
X67081049Y-109998541D01*
X66735758Y-109855163D01*
X66361882Y-109854837D01*
X66016341Y-109997612D01*
X65751741Y-110261751D01*
X65608363Y-110607042D01*
X65608037Y-110980918D01*
X65722500Y-111257939D01*
X65722500Y-122224800D01*
X65785337Y-122540706D01*
X65964283Y-122808517D01*
X67415155Y-124259388D01*
X67528812Y-124534459D01*
X67792951Y-124799059D01*
X68138242Y-124942437D01*
X68512118Y-124942763D01*
X68857659Y-124799988D01*
X69118134Y-124539967D01*
X69142355Y-124564188D01*
X69256012Y-124839259D01*
X69520151Y-125103859D01*
X69865442Y-125247237D01*
X70239318Y-125247563D01*
X70437886Y-125165516D01*
X92336037Y-125165516D01*
X92478812Y-125511057D01*
X92742951Y-125775657D01*
X93088242Y-125919035D01*
X93462118Y-125919361D01*
X93807659Y-125776586D01*
X93842908Y-125741398D01*
X98652362Y-125741398D01*
X98943967Y-125683394D01*
X99191177Y-125518213D01*
X106970110Y-117739281D01*
X107018518Y-117739323D01*
X107251674Y-117642985D01*
X107184041Y-117983000D01*
X107298115Y-118556489D01*
X107622971Y-119042670D01*
X107937752Y-119253000D01*
X107622971Y-119463330D01*
X107298115Y-119949511D01*
X107184041Y-120523000D01*
X107298115Y-121096489D01*
X107622971Y-121582670D01*
X108109152Y-121907526D01*
X108114730Y-121908636D01*
X107083811Y-122939555D01*
X106808741Y-123053212D01*
X106544141Y-123317351D01*
X106400763Y-123662642D01*
X106400437Y-124036518D01*
X106543212Y-124382059D01*
X106807351Y-124646659D01*
X107152642Y-124790037D01*
X107526518Y-124790363D01*
X107872059Y-124647588D01*
X108136659Y-124383449D01*
X108251605Y-124106629D01*
X110543878Y-121814356D01*
X110892973Y-121977968D01*
X111125000Y-121857469D01*
X111125000Y-120650000D01*
X111379000Y-120650000D01*
X111379000Y-121857469D01*
X111611027Y-121977968D01*
X112140490Y-121729821D01*
X112534688Y-121297947D01*
X112706958Y-120882026D01*
X112585817Y-120650000D01*
X111379000Y-120650000D01*
X111125000Y-120650000D01*
X111105000Y-120650000D01*
X111105000Y-120396000D01*
X111125000Y-120396000D01*
X111125000Y-120376000D01*
X111379000Y-120376000D01*
X111379000Y-120396000D01*
X112585817Y-120396000D01*
X112706958Y-120163974D01*
X112534688Y-119748053D01*
X112140490Y-119316179D01*
X112017772Y-119258664D01*
X112341029Y-119042670D01*
X112665885Y-118556489D01*
X112779959Y-117983000D01*
X112665885Y-117409511D01*
X112341029Y-116923330D01*
X112026248Y-116713000D01*
X112341029Y-116502670D01*
X112665885Y-116016489D01*
X112779959Y-115443000D01*
X112665885Y-114869511D01*
X112341029Y-114383330D01*
X111854848Y-114058474D01*
X111281359Y-113944400D01*
X111222641Y-113944400D01*
X110649152Y-114058474D01*
X110183558Y-114369574D01*
X110178762Y-114344083D01*
X110039690Y-114127959D01*
X109827490Y-113982969D01*
X109575600Y-113931960D01*
X108571074Y-113931960D01*
X109984589Y-112518445D01*
X110259659Y-112404788D01*
X110524259Y-112140649D01*
X110667637Y-111795358D01*
X110667963Y-111421482D01*
X110525188Y-111075941D01*
X110261049Y-110811341D01*
X109915758Y-110667963D01*
X109541882Y-110667637D01*
X109196341Y-110810412D01*
X108931741Y-111074551D01*
X108816795Y-111351371D01*
X105322066Y-114846100D01*
X105059829Y-114846100D01*
X104784958Y-114731963D01*
X104411082Y-114731637D01*
X104065541Y-114874412D01*
X103800941Y-115138551D01*
X103657563Y-115483842D01*
X103657237Y-115857718D01*
X103800012Y-116203259D01*
X104064151Y-116467859D01*
X104409442Y-116611237D01*
X104783318Y-116611563D01*
X105060339Y-116497100D01*
X105664000Y-116497100D01*
X105965185Y-116437191D01*
X105892763Y-116611602D01*
X105892720Y-116661409D01*
X98336732Y-124217398D01*
X93843248Y-124217398D01*
X93809049Y-124183139D01*
X93463758Y-124039761D01*
X93089882Y-124039435D01*
X92744341Y-124182210D01*
X92479741Y-124446349D01*
X92336363Y-124791640D01*
X92336037Y-125165516D01*
X70437886Y-125165516D01*
X70584859Y-125104788D01*
X70849459Y-124840649D01*
X70992837Y-124495358D01*
X70993163Y-124121482D01*
X70850388Y-123775941D01*
X70586249Y-123511341D01*
X70309427Y-123396394D01*
X68491100Y-121578066D01*
X68491100Y-119303723D01*
X68766118Y-119303963D01*
X69111659Y-119161188D01*
X69376259Y-118897049D01*
X69519637Y-118551758D01*
X69519911Y-118237112D01*
X69578918Y-118237163D01*
X69924459Y-118094388D01*
X70189059Y-117830249D01*
X70332437Y-117484958D01*
X70332763Y-117111082D01*
X70218300Y-116834061D01*
X70218300Y-115295960D01*
X70282283Y-115391717D01*
X75644755Y-120754188D01*
X75758412Y-121029259D01*
X76022551Y-121293859D01*
X76367842Y-121437237D01*
X76741718Y-121437563D01*
X77030460Y-121318257D01*
X77149203Y-121437207D01*
X77494494Y-121580585D01*
X77868370Y-121580911D01*
X78213911Y-121438136D01*
X78478511Y-121173997D01*
X78621889Y-120828706D01*
X78622215Y-120454830D01*
X78479440Y-120109289D01*
X78215301Y-119844689D01*
X77938480Y-119729742D01*
X77584300Y-119375562D01*
X77584300Y-115502118D01*
X89738037Y-115502118D01*
X89880812Y-115847659D01*
X90144951Y-116112259D01*
X90490242Y-116255637D01*
X90864118Y-116255963D01*
X91141139Y-116141500D01*
X91739371Y-116141500D01*
X92014242Y-116255637D01*
X92388118Y-116255963D01*
X92733659Y-116113188D01*
X92998259Y-115849049D01*
X93141637Y-115503758D01*
X93141963Y-115129882D01*
X92999188Y-114784341D01*
X92735049Y-114519741D01*
X92389758Y-114376363D01*
X92015882Y-114376037D01*
X91738861Y-114490500D01*
X91140629Y-114490500D01*
X90865758Y-114376363D01*
X90491882Y-114376037D01*
X90146341Y-114518812D01*
X89881741Y-114782951D01*
X89738363Y-115128242D01*
X89738037Y-115502118D01*
X77584300Y-115502118D01*
X77584300Y-108971429D01*
X77698437Y-108696558D01*
X77698487Y-108638999D01*
X78331533Y-108638999D01*
X78283880Y-108753759D01*
X78283554Y-109127635D01*
X78426329Y-109473176D01*
X78690468Y-109737776D01*
X78967289Y-109852722D01*
X80950281Y-111835714D01*
X80950283Y-111835717D01*
X81218095Y-112014663D01*
X81534000Y-112077500D01*
X100585869Y-112077500D01*
X100847826Y-112339457D01*
X101095037Y-112504638D01*
X101386641Y-112562641D01*
X102473847Y-112562641D01*
X102504612Y-112637099D01*
X102768751Y-112901699D01*
X103114042Y-113045077D01*
X103487918Y-113045403D01*
X103833459Y-112902628D01*
X104098059Y-112638489D01*
X104241437Y-112293198D01*
X104241763Y-111919322D01*
X104098988Y-111573781D01*
X103834849Y-111309181D01*
X103489558Y-111165803D01*
X103391981Y-111165718D01*
X103288606Y-111096645D01*
X102997001Y-111038641D01*
X101702272Y-111038641D01*
X101600896Y-110937265D01*
X101600663Y-110936095D01*
X101421717Y-110668283D01*
X101153905Y-110489337D01*
X100838000Y-110426500D01*
X81875933Y-110426500D01*
X80134362Y-108684928D01*
X80115384Y-108638999D01*
X81055565Y-108638999D01*
X81131155Y-108714589D01*
X81244812Y-108989659D01*
X81508951Y-109254259D01*
X81854242Y-109397637D01*
X82228118Y-109397963D01*
X82573659Y-109255188D01*
X82838259Y-108991049D01*
X82981637Y-108645758D01*
X82981680Y-108595950D01*
X84282951Y-107294680D01*
X89358912Y-107294680D01*
X89393111Y-107328939D01*
X89738402Y-107472317D01*
X90112278Y-107472643D01*
X90457819Y-107329868D01*
X90722419Y-107065729D01*
X90865797Y-106720438D01*
X90866123Y-106346562D01*
X90723348Y-106001021D01*
X90459209Y-105736421D01*
X90113918Y-105593043D01*
X89740042Y-105592717D01*
X89394501Y-105735492D01*
X89359252Y-105770680D01*
X83967320Y-105770680D01*
X83675715Y-105828684D01*
X83669099Y-105833105D01*
X83428505Y-105993864D01*
X82086902Y-107335468D01*
X81981216Y-107229782D01*
X81713405Y-107050836D01*
X81397499Y-106987999D01*
X75783130Y-106987999D01*
X75508259Y-106873862D01*
X75134383Y-106873536D01*
X74788842Y-107016311D01*
X74524242Y-107280450D01*
X74380864Y-107625741D01*
X74380538Y-107999617D01*
X74523313Y-108345158D01*
X74787452Y-108609758D01*
X75132743Y-108753136D01*
X75506619Y-108753462D01*
X75783640Y-108638999D01*
X75818886Y-108638999D01*
X75818837Y-108694918D01*
X75933300Y-108971939D01*
X75933300Y-118707867D01*
X71691500Y-114466066D01*
X71691500Y-109784229D01*
X71805637Y-109509358D01*
X71805963Y-109135482D01*
X71663188Y-108789941D01*
X71399049Y-108525341D01*
X71053758Y-108381963D01*
X70772376Y-108381718D01*
X70647188Y-108078741D01*
X70383049Y-107814141D01*
X70037758Y-107670763D01*
X69663882Y-107670437D01*
X69318341Y-107813212D01*
X69053741Y-108077351D01*
X68955018Y-108315101D01*
X65002341Y-108315101D01*
X65031158Y-108245526D01*
X64910017Y-108013500D01*
X63703200Y-108013500D01*
X63703200Y-108033500D01*
X63449200Y-108033500D01*
X63449200Y-108013500D01*
X63429200Y-108013500D01*
X63429200Y-107759500D01*
X63449200Y-107759500D01*
X63449200Y-107739500D01*
X63703200Y-107739500D01*
X63703200Y-107759500D01*
X64910017Y-107759500D01*
X65031158Y-107527474D01*
X64936568Y-107299101D01*
X70366831Y-107299101D01*
X73842759Y-110775030D01*
X73842717Y-110823438D01*
X73985492Y-111168979D01*
X74249631Y-111433579D01*
X74594922Y-111576957D01*
X74968798Y-111577283D01*
X75314339Y-111434508D01*
X75578939Y-111170369D01*
X75722317Y-110825078D01*
X75722643Y-110451202D01*
X75579868Y-110105661D01*
X75315729Y-109841061D01*
X74970438Y-109697683D01*
X74920630Y-109697640D01*
X71221276Y-105998286D01*
X71214658Y-105993864D01*
X70974066Y-105833105D01*
X70682461Y-105775101D01*
X65018905Y-105775101D01*
X65104159Y-105346500D01*
X64990085Y-104773011D01*
X64928229Y-104680436D01*
X76378919Y-104680436D01*
X76521694Y-105025977D01*
X76785833Y-105290577D01*
X77062653Y-105405523D01*
X77752447Y-106095317D01*
X78020258Y-106274263D01*
X78336164Y-106337100D01*
X78378971Y-106337100D01*
X78653842Y-106451237D01*
X79027718Y-106451563D01*
X79373259Y-106308788D01*
X79637859Y-106044649D01*
X79781237Y-105699358D01*
X79781563Y-105325482D01*
X79638788Y-104979941D01*
X79374649Y-104715341D01*
X79029358Y-104571963D01*
X78655482Y-104571637D01*
X78590489Y-104598491D01*
X78229727Y-104237729D01*
X78116070Y-103962659D01*
X77851931Y-103698059D01*
X77506640Y-103554681D01*
X77132764Y-103554355D01*
X76787223Y-103697130D01*
X76522623Y-103961269D01*
X76379245Y-104306560D01*
X76378919Y-104680436D01*
X64928229Y-104680436D01*
X64665229Y-104286830D01*
X64350448Y-104076500D01*
X64665229Y-103866170D01*
X64990085Y-103379989D01*
X65104159Y-102806500D01*
X64990085Y-102233011D01*
X64665229Y-101746830D01*
X64179048Y-101421974D01*
X63605559Y-101307900D01*
X63546841Y-101307900D01*
X62973352Y-101421974D01*
X62507758Y-101733074D01*
X62502962Y-101707583D01*
X62363890Y-101491459D01*
X62151690Y-101346469D01*
X61899800Y-101295460D01*
X60172600Y-101295460D01*
X59937283Y-101339738D01*
X59721159Y-101478810D01*
X59576169Y-101691010D01*
X59525160Y-101942900D01*
X59525160Y-103670100D01*
X59569438Y-103905417D01*
X59708510Y-104121541D01*
X59920710Y-104266531D01*
X59964331Y-104275364D01*
X59947171Y-104286830D01*
X59622315Y-104773011D01*
X59508241Y-105346500D01*
X32233000Y-105346500D01*
X32233000Y-90180016D01*
X50207590Y-90180016D01*
X50263271Y-90410611D01*
X50746078Y-90578622D01*
X51256428Y-90549083D01*
X51590729Y-90410611D01*
X51646410Y-90180016D01*
X50927000Y-89460605D01*
X50207590Y-90180016D01*
X32233000Y-90180016D01*
X32233000Y-85653467D01*
X32246420Y-85586000D01*
X33231050Y-85586000D01*
X33407417Y-86472658D01*
X33909669Y-87224331D01*
X34661342Y-87726583D01*
X35548000Y-87902950D01*
X36041459Y-87804795D01*
X47891716Y-87804795D01*
X48140106Y-88405943D01*
X48599637Y-88866278D01*
X49200352Y-89115716D01*
X49630305Y-89116091D01*
X49658917Y-89610428D01*
X49797389Y-89944729D01*
X50027984Y-90000410D01*
X50747395Y-89281000D01*
X51106605Y-89281000D01*
X51826016Y-90000410D01*
X52056611Y-89944729D01*
X52191139Y-89558140D01*
X52376995Y-90007943D01*
X52738155Y-90369735D01*
X53210276Y-90565777D01*
X53721481Y-90566223D01*
X54193943Y-90371005D01*
X54555735Y-90009845D01*
X54737205Y-89572818D01*
X54916995Y-90007943D01*
X55278155Y-90369735D01*
X55750276Y-90565777D01*
X56261481Y-90566223D01*
X56733943Y-90371005D01*
X57095735Y-90009845D01*
X57277205Y-89572818D01*
X57456995Y-90007943D01*
X57818155Y-90369735D01*
X58290276Y-90565777D01*
X58801481Y-90566223D01*
X59273943Y-90371005D01*
X59635735Y-90009845D01*
X59817205Y-89572818D01*
X59996995Y-90007943D01*
X60358155Y-90369735D01*
X60830276Y-90565777D01*
X61341481Y-90566223D01*
X61813943Y-90371005D01*
X62175735Y-90009845D01*
X62357205Y-89572818D01*
X62536995Y-90007943D01*
X62898155Y-90369735D01*
X63370276Y-90565777D01*
X63881481Y-90566223D01*
X64353943Y-90371005D01*
X64715735Y-90009845D01*
X64897205Y-89572818D01*
X65076995Y-90007943D01*
X65438155Y-90369735D01*
X65910276Y-90565777D01*
X66421481Y-90566223D01*
X66893943Y-90371005D01*
X67255735Y-90009845D01*
X67437205Y-89572818D01*
X67616995Y-90007943D01*
X67978155Y-90369735D01*
X68450276Y-90565777D01*
X68961481Y-90566223D01*
X69433943Y-90371005D01*
X69795735Y-90009845D01*
X69991777Y-89537724D01*
X69992223Y-89026519D01*
X69797005Y-88554057D01*
X69594589Y-88351286D01*
X75582669Y-88351286D01*
X75785254Y-88841580D01*
X76160047Y-89217027D01*
X76649987Y-89420468D01*
X77180486Y-89420931D01*
X77321994Y-89362461D01*
X77289172Y-89395226D01*
X77041183Y-89992450D01*
X77040619Y-90639113D01*
X77287565Y-91236769D01*
X77744426Y-91694428D01*
X78341650Y-91942417D01*
X78988313Y-91942981D01*
X79585969Y-91696035D01*
X80043628Y-91239174D01*
X80291617Y-90641950D01*
X80292181Y-89995287D01*
X80045235Y-89397631D01*
X80003096Y-89355419D01*
X80223880Y-89433127D01*
X80753599Y-89404348D01*
X81109329Y-89257000D01*
X81170983Y-89021388D01*
X80416400Y-88266805D01*
X80402258Y-88280948D01*
X80222653Y-88101343D01*
X80236795Y-88087200D01*
X80596005Y-88087200D01*
X81350588Y-88841783D01*
X81586200Y-88780129D01*
X81737138Y-88351286D01*
X82582669Y-88351286D01*
X82785254Y-88841580D01*
X83160047Y-89217027D01*
X83649987Y-89420468D01*
X84180486Y-89420931D01*
X84670780Y-89218346D01*
X84868081Y-89021388D01*
X86661817Y-89021388D01*
X86723471Y-89257000D01*
X87223880Y-89433127D01*
X87753599Y-89404348D01*
X88109329Y-89257000D01*
X88170983Y-89021388D01*
X87416400Y-88266805D01*
X86661817Y-89021388D01*
X84868081Y-89021388D01*
X85046227Y-88843553D01*
X85249668Y-88353613D01*
X85250068Y-87894680D01*
X86070473Y-87894680D01*
X86099252Y-88424399D01*
X86246600Y-88780129D01*
X86482212Y-88841783D01*
X87236795Y-88087200D01*
X87596005Y-88087200D01*
X88350588Y-88841783D01*
X88586200Y-88780129D01*
X88611979Y-88706886D01*
X94079069Y-88706886D01*
X94281654Y-89197180D01*
X94656447Y-89572627D01*
X95146387Y-89776068D01*
X95676886Y-89776531D01*
X95818394Y-89718061D01*
X95785572Y-89750826D01*
X95537583Y-90348050D01*
X95537019Y-90994713D01*
X95783965Y-91592369D01*
X96240826Y-92050028D01*
X96838050Y-92298017D01*
X97484713Y-92298581D01*
X98082369Y-92051635D01*
X98540028Y-91594774D01*
X98788017Y-90997550D01*
X98788581Y-90350887D01*
X98541635Y-89753231D01*
X98499496Y-89711019D01*
X98720280Y-89788727D01*
X99249999Y-89759948D01*
X99605729Y-89612600D01*
X99667383Y-89376988D01*
X98912800Y-88622405D01*
X98898658Y-88636548D01*
X98719053Y-88456943D01*
X98733195Y-88442800D01*
X99092405Y-88442800D01*
X99846988Y-89197383D01*
X100082600Y-89135729D01*
X100233538Y-88706886D01*
X101079069Y-88706886D01*
X101281654Y-89197180D01*
X101656447Y-89572627D01*
X102146387Y-89776068D01*
X102676886Y-89776531D01*
X103167180Y-89573946D01*
X103542627Y-89199153D01*
X103746068Y-88709213D01*
X103746070Y-88706886D01*
X104579069Y-88706886D01*
X104781654Y-89197180D01*
X105156447Y-89572627D01*
X105646387Y-89776068D01*
X106176886Y-89776531D01*
X106667180Y-89573946D01*
X107042627Y-89199153D01*
X107246068Y-88709213D01*
X107246531Y-88178714D01*
X107043946Y-87688420D01*
X106669153Y-87312973D01*
X106179213Y-87109532D01*
X105648714Y-87109069D01*
X105158420Y-87311654D01*
X104782973Y-87686447D01*
X104579532Y-88176387D01*
X104579069Y-88706886D01*
X103746070Y-88706886D01*
X103746531Y-88178714D01*
X103543946Y-87688420D01*
X103169153Y-87312973D01*
X102679213Y-87109532D01*
X102148714Y-87109069D01*
X101658420Y-87311654D01*
X101282973Y-87686447D01*
X101079532Y-88176387D01*
X101079069Y-88706886D01*
X100233538Y-88706886D01*
X100258727Y-88635320D01*
X100229948Y-88105601D01*
X100082600Y-87749871D01*
X99846988Y-87688217D01*
X99092405Y-88442800D01*
X98733195Y-88442800D01*
X97978612Y-87688217D01*
X97743000Y-87749871D01*
X97566873Y-88250280D01*
X97595652Y-88779999D01*
X97743000Y-89135729D01*
X97978610Y-89197382D01*
X97940378Y-89235614D01*
X97487550Y-89047583D01*
X96840887Y-89047019D01*
X96557111Y-89164273D01*
X96746068Y-88709213D01*
X96746531Y-88178714D01*
X96543946Y-87688420D01*
X96364452Y-87508612D01*
X98158217Y-87508612D01*
X98912800Y-88263195D01*
X99667383Y-87508612D01*
X99605729Y-87273000D01*
X99105320Y-87096873D01*
X98575601Y-87125652D01*
X98219871Y-87273000D01*
X98158217Y-87508612D01*
X96364452Y-87508612D01*
X96169153Y-87312973D01*
X95679213Y-87109532D01*
X95148714Y-87109069D01*
X94658420Y-87311654D01*
X94282973Y-87686447D01*
X94079532Y-88176387D01*
X94079069Y-88706886D01*
X88611979Y-88706886D01*
X88762327Y-88279720D01*
X88733548Y-87750001D01*
X88586200Y-87394271D01*
X88350588Y-87332617D01*
X87596005Y-88087200D01*
X87236795Y-88087200D01*
X86482212Y-87332617D01*
X86246600Y-87394271D01*
X86070473Y-87894680D01*
X85250068Y-87894680D01*
X85250131Y-87823114D01*
X85047546Y-87332820D01*
X84868052Y-87153012D01*
X86661817Y-87153012D01*
X87416400Y-87907595D01*
X88170983Y-87153012D01*
X88109329Y-86917400D01*
X87608920Y-86741273D01*
X87079201Y-86770052D01*
X86723471Y-86917400D01*
X86661817Y-87153012D01*
X84868052Y-87153012D01*
X84672753Y-86957373D01*
X84182813Y-86753932D01*
X83652314Y-86753469D01*
X83162020Y-86956054D01*
X82786573Y-87330847D01*
X82583132Y-87820787D01*
X82582669Y-88351286D01*
X81737138Y-88351286D01*
X81762327Y-88279720D01*
X81733548Y-87750001D01*
X81586200Y-87394271D01*
X81350588Y-87332617D01*
X80596005Y-88087200D01*
X80236795Y-88087200D01*
X79482212Y-87332617D01*
X79246600Y-87394271D01*
X79070473Y-87894680D01*
X79099252Y-88424399D01*
X79246600Y-88780129D01*
X79482210Y-88841782D01*
X79443978Y-88880014D01*
X78991150Y-88691983D01*
X78344487Y-88691419D01*
X78060711Y-88808673D01*
X78249668Y-88353613D01*
X78250131Y-87823114D01*
X78047546Y-87332820D01*
X77868052Y-87153012D01*
X79661817Y-87153012D01*
X80416400Y-87907595D01*
X81170983Y-87153012D01*
X81109329Y-86917400D01*
X80608920Y-86741273D01*
X80079201Y-86770052D01*
X79723471Y-86917400D01*
X79661817Y-87153012D01*
X77868052Y-87153012D01*
X77672753Y-86957373D01*
X77182813Y-86753932D01*
X76652314Y-86753469D01*
X76162020Y-86956054D01*
X75786573Y-87330847D01*
X75583132Y-87820787D01*
X75582669Y-88351286D01*
X69594589Y-88351286D01*
X69435845Y-88192265D01*
X68963724Y-87996223D01*
X68452519Y-87995777D01*
X67980057Y-88190995D01*
X67618265Y-88552155D01*
X67436795Y-88989182D01*
X67257005Y-88554057D01*
X66895845Y-88192265D01*
X66423724Y-87996223D01*
X65912519Y-87995777D01*
X65440057Y-88190995D01*
X65078265Y-88552155D01*
X64896795Y-88989182D01*
X64717005Y-88554057D01*
X64355845Y-88192265D01*
X63883724Y-87996223D01*
X63372519Y-87995777D01*
X62900057Y-88190995D01*
X62538265Y-88552155D01*
X62356795Y-88989182D01*
X62177005Y-88554057D01*
X61815845Y-88192265D01*
X61343724Y-87996223D01*
X60832519Y-87995777D01*
X60360057Y-88190995D01*
X59998265Y-88552155D01*
X59816795Y-88989182D01*
X59637005Y-88554057D01*
X59275845Y-88192265D01*
X58803724Y-87996223D01*
X58292519Y-87995777D01*
X57820057Y-88190995D01*
X57458265Y-88552155D01*
X57276795Y-88989182D01*
X57097005Y-88554057D01*
X56735845Y-88192265D01*
X56263724Y-87996223D01*
X55752519Y-87995777D01*
X55280057Y-88190995D01*
X54918265Y-88552155D01*
X54736795Y-88989182D01*
X54557005Y-88554057D01*
X54195845Y-88192265D01*
X53723724Y-87996223D01*
X53212519Y-87995777D01*
X52740057Y-88190995D01*
X52378265Y-88552155D01*
X52197203Y-88988200D01*
X52195083Y-88951572D01*
X52056611Y-88617271D01*
X51826016Y-88561590D01*
X51106605Y-89281000D01*
X50747395Y-89281000D01*
X50733253Y-89266858D01*
X50912858Y-89087252D01*
X50927000Y-89101395D01*
X51646410Y-88381984D01*
X51590729Y-88151389D01*
X51107922Y-87983378D01*
X51088275Y-87984515D01*
X51161716Y-87807648D01*
X51161965Y-87523009D01*
X51468155Y-87829735D01*
X51940276Y-88025777D01*
X52451481Y-88026223D01*
X52923943Y-87831005D01*
X53285735Y-87469845D01*
X53467205Y-87032818D01*
X53646995Y-87467943D01*
X54008155Y-87829735D01*
X54480276Y-88025777D01*
X54991481Y-88026223D01*
X55463943Y-87831005D01*
X55825735Y-87469845D01*
X56007205Y-87032818D01*
X56186995Y-87467943D01*
X56548155Y-87829735D01*
X57020276Y-88025777D01*
X57531481Y-88026223D01*
X58003943Y-87831005D01*
X58365735Y-87469845D01*
X58547205Y-87032818D01*
X58726995Y-87467943D01*
X59088155Y-87829735D01*
X59560276Y-88025777D01*
X60071481Y-88026223D01*
X60543943Y-87831005D01*
X60905735Y-87469845D01*
X61087205Y-87032818D01*
X61266995Y-87467943D01*
X61628155Y-87829735D01*
X62100276Y-88025777D01*
X62611481Y-88026223D01*
X63083943Y-87831005D01*
X63445735Y-87469845D01*
X63627205Y-87032818D01*
X63806995Y-87467943D01*
X64168155Y-87829735D01*
X64640276Y-88025777D01*
X65151481Y-88026223D01*
X65623943Y-87831005D01*
X65985735Y-87469845D01*
X66167205Y-87032818D01*
X66346995Y-87467943D01*
X66708155Y-87829735D01*
X67180276Y-88025777D01*
X67691481Y-88026223D01*
X68163943Y-87831005D01*
X68355266Y-87640016D01*
X69257590Y-87640016D01*
X69313271Y-87870611D01*
X69796078Y-88038622D01*
X70306428Y-88009083D01*
X70640729Y-87870611D01*
X70696410Y-87640016D01*
X69977000Y-86920605D01*
X69257590Y-87640016D01*
X68355266Y-87640016D01*
X68525735Y-87469845D01*
X68706797Y-87033800D01*
X68708917Y-87070428D01*
X68847389Y-87404729D01*
X69077984Y-87460410D01*
X69797395Y-86741000D01*
X70156605Y-86741000D01*
X70876016Y-87460410D01*
X71106611Y-87404729D01*
X71274622Y-86921922D01*
X71245083Y-86411572D01*
X71106611Y-86077271D01*
X70876016Y-86021590D01*
X70156605Y-86741000D01*
X69797395Y-86741000D01*
X69077984Y-86021590D01*
X68847389Y-86077271D01*
X68712861Y-86463860D01*
X68527005Y-86014057D01*
X68355233Y-85841984D01*
X69257590Y-85841984D01*
X69977000Y-86561395D01*
X70696410Y-85841984D01*
X70640729Y-85611389D01*
X70567770Y-85586000D01*
X115551050Y-85586000D01*
X115727417Y-86472658D01*
X116229669Y-87224331D01*
X116981342Y-87726583D01*
X117868000Y-87902950D01*
X118754658Y-87726583D01*
X119506331Y-87224331D01*
X120008583Y-86472658D01*
X120184950Y-85586000D01*
X120008583Y-84699342D01*
X119506331Y-83947669D01*
X118754658Y-83445417D01*
X117868000Y-83269050D01*
X116981342Y-83445417D01*
X116229669Y-83947669D01*
X115727417Y-84699342D01*
X115551050Y-85586000D01*
X70567770Y-85586000D01*
X70157922Y-85443378D01*
X69647572Y-85472917D01*
X69313271Y-85611389D01*
X69257590Y-85841984D01*
X68355233Y-85841984D01*
X68165845Y-85652265D01*
X67693724Y-85456223D01*
X67182519Y-85455777D01*
X66710057Y-85650995D01*
X66348265Y-86012155D01*
X66166795Y-86449182D01*
X65987005Y-86014057D01*
X65625845Y-85652265D01*
X65153724Y-85456223D01*
X64642519Y-85455777D01*
X64170057Y-85650995D01*
X63808265Y-86012155D01*
X63626795Y-86449182D01*
X63447005Y-86014057D01*
X63085845Y-85652265D01*
X62613724Y-85456223D01*
X62102519Y-85455777D01*
X61630057Y-85650995D01*
X61268265Y-86012155D01*
X61086795Y-86449182D01*
X60907005Y-86014057D01*
X60545845Y-85652265D01*
X60073724Y-85456223D01*
X59562519Y-85455777D01*
X59090057Y-85650995D01*
X58728265Y-86012155D01*
X58546795Y-86449182D01*
X58367005Y-86014057D01*
X58005845Y-85652265D01*
X57533724Y-85456223D01*
X57022519Y-85455777D01*
X56550057Y-85650995D01*
X56188265Y-86012155D01*
X56006795Y-86449182D01*
X55827005Y-86014057D01*
X55465845Y-85652265D01*
X54993724Y-85456223D01*
X54482519Y-85455777D01*
X54010057Y-85650995D01*
X53648265Y-86012155D01*
X53466795Y-86449182D01*
X53287005Y-86014057D01*
X52925845Y-85652265D01*
X52453724Y-85456223D01*
X51942519Y-85455777D01*
X51470057Y-85650995D01*
X51108265Y-86012155D01*
X50912223Y-86484276D01*
X50912162Y-86554322D01*
X50454363Y-86095722D01*
X49853648Y-85846284D01*
X49203205Y-85845716D01*
X48602057Y-86094106D01*
X48141722Y-86553637D01*
X47892284Y-87154352D01*
X47891716Y-87804795D01*
X36041459Y-87804795D01*
X36434658Y-87726583D01*
X37186331Y-87224331D01*
X37688583Y-86472658D01*
X37864950Y-85586000D01*
X37688583Y-84699342D01*
X37186331Y-83947669D01*
X36434658Y-83445417D01*
X35548000Y-83269050D01*
X34661342Y-83445417D01*
X33909669Y-83947669D01*
X33407417Y-84699342D01*
X33231050Y-85586000D01*
X32246420Y-85586000D01*
X32497738Y-84322541D01*
X33213429Y-83251432D01*
X34284540Y-82535738D01*
X35621494Y-82269801D01*
X117800528Y-82270999D01*
M02*
