M48
;DRILL file {KiCad 4.0.7-e2-6376~58~ubuntu16.04.1} date Tue May  1 21:05:30 2018
;FORMAT={-:-/ absolute / metric / decimal}
FMAT,2
METRIC,TZ
T1C0.305
T2C0.800
T3C0.950
T4C1.016
T5C1.020
T6C1.500
T7C1.600
T8C1.750
T9C2.180
%
G90
G05
M71
T1
X41.699Y-120.193
X48.717Y-115.011
X55.169Y-112.014
X59.914Y-123.652
X66.548Y-110.795
X67.473Y-111.201
X68.326Y-124.003
X68.529Y-111.906
X68.58Y-118.364
X69.393Y-117.297
X69.85Y-108.61
X70.053Y-124.308
X70.866Y-109.322
X72.39Y-111.252
X74.676Y-106.68
X74.783Y-110.637
X75.321Y-107.813
X76.368Y-123.093
X76.556Y-120.498
X76.759Y-108.509
X77.319Y-104.494
X77.47Y-102.108
X77.682Y-120.641
X78.842Y-105.512
X79.087Y-126.567
X79.096Y-130.592
X79.224Y-108.942
X79.944Y-131.318
X79.969Y-126.67
X80.355Y-118.298
X82.042Y-108.458
X84.125Y-140.411
X84.633Y-141.427
X86.563Y-136.296
X86.716Y-135.179
X89.926Y-106.533
X90.678Y-115.316
X92.202Y-115.316
X93.276Y-124.979
X93.726Y-121.412
X101.544Y-109.24
X103.302Y-112.105
X104.597Y-115.672
X106.832Y-116.799
X107.34Y-123.85
X109.728Y-111.608
T2
X50.927Y-89.281
X52.197Y-86.741
X53.467Y-89.281
X54.737Y-86.741
X56.007Y-89.281
X57.277Y-86.741
X58.547Y-89.281
X59.817Y-86.741
X61.087Y-89.281
X62.357Y-86.741
X63.627Y-89.281
X64.897Y-86.741
X66.167Y-89.281
X67.437Y-86.741
X68.707Y-89.281
X69.977Y-86.741
T3
X87.376Y-143.319
X89.466Y-139.319
X89.916Y-143.319
X90.736Y-136.779
X92.006Y-139.319
X93.276Y-136.779
X94.546Y-139.319
X95.816Y-136.779
X97.086Y-139.319
X97.896Y-143.319
X98.356Y-136.779
X100.436Y-143.319
T4
X61.036Y-102.806
X61.036Y-105.346
X61.036Y-107.886
X63.576Y-102.806
X63.576Y-105.346
X63.576Y-107.886
X108.712Y-115.443
X108.712Y-117.983
X108.712Y-120.523
X111.252Y-115.443
X111.252Y-117.983
X111.252Y-120.523
T5
X76.916Y-88.087
X80.416Y-88.087
X83.916Y-88.087
X87.416Y-88.087
X95.413Y-88.443
X98.913Y-88.443
X102.413Y-88.443
X105.913Y-88.443
T6
X49.527Y-87.481
T7
X78.666Y-90.317
X97.163Y-90.673
T8
X55.096Y-134.755
X55.096Y-142.755
X57.096Y-138.755
X59.096Y-134.755
X59.096Y-142.755
X61.096Y-138.755
X63.096Y-134.755
X63.096Y-142.755
T9
X88.906Y-147.319
X98.906Y-147.319
T0
M30
