G04 #@! TF.FileFunction,Legend,Top*
%FSLAX46Y46*%
G04 Gerber Fmt 4.6, Leading zero omitted, Abs format (unit mm)*
G04 Created by KiCad (PCBNEW 4.0.7-e2-6376~58~ubuntu16.04.1) date Sat Mar 10 14:38:45 2018*
%MOMM*%
%LPD*%
G01*
G04 APERTURE LIST*
%ADD10C,0.100000*%
%ADD11C,0.152400*%
%ADD12C,0.150000*%
G04 APERTURE END LIST*
D10*
D11*
X168135907Y-91112219D02*
X167652098Y-91112219D01*
X167652098Y-90096219D01*
X168910002Y-91112219D02*
X168910002Y-90580029D01*
X168861621Y-90483267D01*
X168764859Y-90434886D01*
X168571336Y-90434886D01*
X168474574Y-90483267D01*
X168910002Y-91063838D02*
X168813240Y-91112219D01*
X168571336Y-91112219D01*
X168474574Y-91063838D01*
X168426193Y-90967076D01*
X168426193Y-90870314D01*
X168474574Y-90773552D01*
X168571336Y-90725171D01*
X168813240Y-90725171D01*
X168910002Y-90676790D01*
X169829240Y-90434886D02*
X169829240Y-91112219D01*
X169393812Y-90434886D02*
X169393812Y-90967076D01*
X169442193Y-91063838D01*
X169538955Y-91112219D01*
X169684097Y-91112219D01*
X169780859Y-91063838D01*
X169829240Y-91015457D01*
X170313050Y-91112219D02*
X170313050Y-90434886D01*
X170313050Y-90628410D02*
X170361431Y-90531648D01*
X170409812Y-90483267D01*
X170506574Y-90434886D01*
X170603335Y-90434886D01*
X171329049Y-91063838D02*
X171232287Y-91112219D01*
X171038764Y-91112219D01*
X170942002Y-91063838D01*
X170893621Y-90967076D01*
X170893621Y-90580029D01*
X170942002Y-90483267D01*
X171038764Y-90434886D01*
X171232287Y-90434886D01*
X171329049Y-90483267D01*
X171377430Y-90580029D01*
X171377430Y-90676790D01*
X170893621Y-90773552D01*
X171812859Y-90434886D02*
X171812859Y-91112219D01*
X171812859Y-90531648D02*
X171861240Y-90483267D01*
X171958002Y-90434886D01*
X172103144Y-90434886D01*
X172199906Y-90483267D01*
X172248287Y-90580029D01*
X172248287Y-91112219D01*
X173457811Y-90821933D02*
X173941620Y-90821933D01*
X173361049Y-91112219D02*
X173699716Y-90096219D01*
X174038382Y-91112219D01*
X174377049Y-90434886D02*
X174377049Y-91112219D01*
X174377049Y-90531648D02*
X174425430Y-90483267D01*
X174522192Y-90434886D01*
X174667334Y-90434886D01*
X174764096Y-90483267D01*
X174812477Y-90580029D01*
X174812477Y-91112219D01*
X175151144Y-90434886D02*
X175538192Y-90434886D01*
X175296287Y-91112219D02*
X175296287Y-90241362D01*
X175344668Y-90144600D01*
X175441430Y-90096219D01*
X175538192Y-90096219D01*
X176263905Y-91063838D02*
X176167143Y-91112219D01*
X175973620Y-91112219D01*
X175876858Y-91063838D01*
X175828477Y-90967076D01*
X175828477Y-90580029D01*
X175876858Y-90483267D01*
X175973620Y-90434886D01*
X176167143Y-90434886D01*
X176263905Y-90483267D01*
X176312286Y-90580029D01*
X176312286Y-90676790D01*
X175828477Y-90773552D01*
X176747715Y-90434886D02*
X176747715Y-91112219D01*
X176747715Y-90531648D02*
X176796096Y-90483267D01*
X176892858Y-90434886D01*
X177038000Y-90434886D01*
X177134762Y-90483267D01*
X177183143Y-90580029D01*
X177183143Y-91112219D01*
X177618572Y-91063838D02*
X177715334Y-91112219D01*
X177908858Y-91112219D01*
X178005619Y-91063838D01*
X178054000Y-90967076D01*
X178054000Y-90918695D01*
X178005619Y-90821933D01*
X177908858Y-90773552D01*
X177763715Y-90773552D01*
X177666953Y-90725171D01*
X177618572Y-90628410D01*
X177618572Y-90580029D01*
X177666953Y-90483267D01*
X177763715Y-90434886D01*
X177908858Y-90434886D01*
X178005619Y-90483267D01*
X178634572Y-91112219D02*
X178537810Y-91063838D01*
X178489429Y-91015457D01*
X178441048Y-90918695D01*
X178441048Y-90628410D01*
X178489429Y-90531648D01*
X178537810Y-90483267D01*
X178634572Y-90434886D01*
X178779714Y-90434886D01*
X178876476Y-90483267D01*
X178924857Y-90531648D01*
X178973238Y-90628410D01*
X178973238Y-90918695D01*
X178924857Y-91015457D01*
X178876476Y-91063838D01*
X178779714Y-91112219D01*
X178634572Y-91112219D01*
X179408667Y-90434886D02*
X179408667Y-91112219D01*
X179408667Y-90531648D02*
X179457048Y-90483267D01*
X179553810Y-90434886D01*
X179698952Y-90434886D01*
X179795714Y-90483267D01*
X179844095Y-90580029D01*
X179844095Y-91112219D01*
X161314195Y-91772619D02*
X161507718Y-91772619D01*
X161604480Y-91821000D01*
X161701242Y-91917762D01*
X161749623Y-92111286D01*
X161749623Y-92449952D01*
X161701242Y-92643476D01*
X161604480Y-92740238D01*
X161507718Y-92788619D01*
X161314195Y-92788619D01*
X161217433Y-92740238D01*
X161120671Y-92643476D01*
X161072290Y-92449952D01*
X161072290Y-92111286D01*
X161120671Y-91917762D01*
X161217433Y-91821000D01*
X161314195Y-91772619D01*
X162330195Y-92788619D02*
X162233433Y-92740238D01*
X162185052Y-92643476D01*
X162185052Y-91772619D01*
X162717242Y-92788619D02*
X162717242Y-92111286D01*
X162717242Y-91772619D02*
X162668861Y-91821000D01*
X162717242Y-91869381D01*
X162765623Y-91821000D01*
X162717242Y-91772619D01*
X162717242Y-91869381D01*
X163201052Y-92111286D02*
X163201052Y-92788619D01*
X163201052Y-92208048D02*
X163249433Y-92159667D01*
X163346195Y-92111286D01*
X163491337Y-92111286D01*
X163588099Y-92159667D01*
X163636480Y-92256429D01*
X163636480Y-92788619D01*
X164894385Y-92256429D02*
X165233051Y-92256429D01*
X165378194Y-92788619D02*
X164894385Y-92788619D01*
X164894385Y-91772619D01*
X165378194Y-91772619D01*
X165958766Y-92788619D02*
X165862004Y-92740238D01*
X165813623Y-92643476D01*
X165813623Y-91772619D01*
X166732860Y-92740238D02*
X166636098Y-92788619D01*
X166442575Y-92788619D01*
X166345813Y-92740238D01*
X166297432Y-92643476D01*
X166297432Y-92256429D01*
X166345813Y-92159667D01*
X166442575Y-92111286D01*
X166636098Y-92111286D01*
X166732860Y-92159667D01*
X166781241Y-92256429D01*
X166781241Y-92353190D01*
X166297432Y-92449952D01*
X167652098Y-92740238D02*
X167555336Y-92788619D01*
X167361813Y-92788619D01*
X167265051Y-92740238D01*
X167216670Y-92691857D01*
X167168289Y-92595095D01*
X167168289Y-92304810D01*
X167216670Y-92208048D01*
X167265051Y-92159667D01*
X167361813Y-92111286D01*
X167555336Y-92111286D01*
X167652098Y-92159667D01*
X167942384Y-92111286D02*
X168329432Y-92111286D01*
X168087527Y-91772619D02*
X168087527Y-92643476D01*
X168135908Y-92740238D01*
X168232670Y-92788619D01*
X168329432Y-92788619D01*
X168668098Y-92788619D02*
X168668098Y-92111286D01*
X168668098Y-92304810D02*
X168716479Y-92208048D01*
X168764860Y-92159667D01*
X168861622Y-92111286D01*
X168958383Y-92111286D01*
X169297050Y-92788619D02*
X169297050Y-92111286D01*
X169297050Y-91772619D02*
X169248669Y-91821000D01*
X169297050Y-91869381D01*
X169345431Y-91821000D01*
X169297050Y-91772619D01*
X169297050Y-91869381D01*
X170216288Y-92740238D02*
X170119526Y-92788619D01*
X169926003Y-92788619D01*
X169829241Y-92740238D01*
X169780860Y-92691857D01*
X169732479Y-92595095D01*
X169732479Y-92304810D01*
X169780860Y-92208048D01*
X169829241Y-92159667D01*
X169926003Y-92111286D01*
X170119526Y-92111286D01*
X170216288Y-92159667D01*
X171425812Y-92788619D02*
X171425812Y-91772619D01*
X171764478Y-92498333D01*
X172103145Y-91772619D01*
X172103145Y-92788619D01*
X172732098Y-92788619D02*
X172635336Y-92740238D01*
X172586955Y-92691857D01*
X172538574Y-92595095D01*
X172538574Y-92304810D01*
X172586955Y-92208048D01*
X172635336Y-92159667D01*
X172732098Y-92111286D01*
X172877240Y-92111286D01*
X172974002Y-92159667D01*
X173022383Y-92208048D01*
X173070764Y-92304810D01*
X173070764Y-92595095D01*
X173022383Y-92691857D01*
X172974002Y-92740238D01*
X172877240Y-92788619D01*
X172732098Y-92788619D01*
X173361050Y-92111286D02*
X173748098Y-92111286D01*
X173506193Y-91772619D02*
X173506193Y-92643476D01*
X173554574Y-92740238D01*
X173651336Y-92788619D01*
X173748098Y-92788619D01*
X174231907Y-92788619D02*
X174135145Y-92740238D01*
X174086764Y-92691857D01*
X174038383Y-92595095D01*
X174038383Y-92304810D01*
X174086764Y-92208048D01*
X174135145Y-92159667D01*
X174231907Y-92111286D01*
X174377049Y-92111286D01*
X174473811Y-92159667D01*
X174522192Y-92208048D01*
X174570573Y-92304810D01*
X174570573Y-92595095D01*
X174522192Y-92691857D01*
X174473811Y-92740238D01*
X174377049Y-92788619D01*
X174231907Y-92788619D01*
X175006002Y-92788619D02*
X175006002Y-92111286D01*
X175006002Y-92304810D02*
X175054383Y-92208048D01*
X175102764Y-92159667D01*
X175199526Y-92111286D01*
X175296287Y-92111286D01*
X175586573Y-92740238D02*
X175683335Y-92788619D01*
X175876859Y-92788619D01*
X175973620Y-92740238D01*
X176022001Y-92643476D01*
X176022001Y-92595095D01*
X175973620Y-92498333D01*
X175876859Y-92449952D01*
X175731716Y-92449952D01*
X175634954Y-92401571D01*
X175586573Y-92304810D01*
X175586573Y-92256429D01*
X175634954Y-92159667D01*
X175731716Y-92111286D01*
X175876859Y-92111286D01*
X175973620Y-92159667D01*
X176457430Y-92111286D02*
X176457430Y-93127286D01*
X176457430Y-92159667D02*
X176554192Y-92111286D01*
X176747715Y-92111286D01*
X176844477Y-92159667D01*
X176892858Y-92208048D01*
X176941239Y-92304810D01*
X176941239Y-92595095D01*
X176892858Y-92691857D01*
X176844477Y-92740238D01*
X176747715Y-92788619D01*
X176554192Y-92788619D01*
X176457430Y-92740238D01*
X177521811Y-92788619D02*
X177425049Y-92740238D01*
X177376668Y-92691857D01*
X177328287Y-92595095D01*
X177328287Y-92304810D01*
X177376668Y-92208048D01*
X177425049Y-92159667D01*
X177521811Y-92111286D01*
X177666953Y-92111286D01*
X177763715Y-92159667D01*
X177812096Y-92208048D01*
X177860477Y-92304810D01*
X177860477Y-92595095D01*
X177812096Y-92691857D01*
X177763715Y-92740238D01*
X177666953Y-92788619D01*
X177521811Y-92788619D01*
X178295906Y-92788619D02*
X178295906Y-92111286D01*
X178295906Y-92304810D02*
X178344287Y-92208048D01*
X178392668Y-92159667D01*
X178489430Y-92111286D01*
X178586191Y-92111286D01*
X178779715Y-92111286D02*
X179166763Y-92111286D01*
X178924858Y-91772619D02*
X178924858Y-92643476D01*
X178973239Y-92740238D01*
X179070001Y-92788619D01*
X179166763Y-92788619D01*
X179457048Y-92740238D02*
X179553810Y-92788619D01*
X179747334Y-92788619D01*
X179844095Y-92740238D01*
X179892476Y-92643476D01*
X179892476Y-92595095D01*
X179844095Y-92498333D01*
X179747334Y-92449952D01*
X179602191Y-92449952D01*
X179505429Y-92401571D01*
X179457048Y-92304810D01*
X179457048Y-92256429D01*
X179505429Y-92159667D01*
X179602191Y-92111286D01*
X179747334Y-92111286D01*
X179844095Y-92159667D01*
X158653242Y-94465019D02*
X158653242Y-93449019D01*
X158895147Y-93449019D01*
X159040289Y-93497400D01*
X159137051Y-93594162D01*
X159185432Y-93690924D01*
X159233813Y-93884448D01*
X159233813Y-94029590D01*
X159185432Y-94223114D01*
X159137051Y-94319876D01*
X159040289Y-94416638D01*
X158895147Y-94465019D01*
X158653242Y-94465019D01*
X160104670Y-94465019D02*
X160104670Y-93932829D01*
X160056289Y-93836067D01*
X159959527Y-93787686D01*
X159766004Y-93787686D01*
X159669242Y-93836067D01*
X160104670Y-94416638D02*
X160007908Y-94465019D01*
X159766004Y-94465019D01*
X159669242Y-94416638D01*
X159620861Y-94319876D01*
X159620861Y-94223114D01*
X159669242Y-94126352D01*
X159766004Y-94077971D01*
X160007908Y-94077971D01*
X160104670Y-94029590D01*
X160540099Y-94416638D02*
X160636861Y-94465019D01*
X160830385Y-94465019D01*
X160927146Y-94416638D01*
X160975527Y-94319876D01*
X160975527Y-94271495D01*
X160927146Y-94174733D01*
X160830385Y-94126352D01*
X160685242Y-94126352D01*
X160588480Y-94077971D01*
X160540099Y-93981210D01*
X160540099Y-93932829D01*
X160588480Y-93836067D01*
X160685242Y-93787686D01*
X160830385Y-93787686D01*
X160927146Y-93836067D01*
X161410956Y-94465019D02*
X161410956Y-93449019D01*
X161846384Y-94465019D02*
X161846384Y-93932829D01*
X161798003Y-93836067D01*
X161701241Y-93787686D01*
X161556099Y-93787686D01*
X161459337Y-93836067D01*
X161410956Y-93884448D01*
X162330194Y-94465019D02*
X162330194Y-93449019D01*
X162330194Y-93836067D02*
X162426956Y-93787686D01*
X162620479Y-93787686D01*
X162717241Y-93836067D01*
X162765622Y-93884448D01*
X162814003Y-93981210D01*
X162814003Y-94271495D01*
X162765622Y-94368257D01*
X162717241Y-94416638D01*
X162620479Y-94465019D01*
X162426956Y-94465019D01*
X162330194Y-94416638D01*
X163394575Y-94465019D02*
X163297813Y-94416638D01*
X163249432Y-94368257D01*
X163201051Y-94271495D01*
X163201051Y-93981210D01*
X163249432Y-93884448D01*
X163297813Y-93836067D01*
X163394575Y-93787686D01*
X163539717Y-93787686D01*
X163636479Y-93836067D01*
X163684860Y-93884448D01*
X163733241Y-93981210D01*
X163733241Y-94271495D01*
X163684860Y-94368257D01*
X163636479Y-94416638D01*
X163539717Y-94465019D01*
X163394575Y-94465019D01*
X164604098Y-94465019D02*
X164604098Y-93932829D01*
X164555717Y-93836067D01*
X164458955Y-93787686D01*
X164265432Y-93787686D01*
X164168670Y-93836067D01*
X164604098Y-94416638D02*
X164507336Y-94465019D01*
X164265432Y-94465019D01*
X164168670Y-94416638D01*
X164120289Y-94319876D01*
X164120289Y-94223114D01*
X164168670Y-94126352D01*
X164265432Y-94077971D01*
X164507336Y-94077971D01*
X164604098Y-94029590D01*
X165087908Y-94465019D02*
X165087908Y-93787686D01*
X165087908Y-93981210D02*
X165136289Y-93884448D01*
X165184670Y-93836067D01*
X165281432Y-93787686D01*
X165378193Y-93787686D01*
X166152288Y-94465019D02*
X166152288Y-93449019D01*
X166152288Y-94416638D02*
X166055526Y-94465019D01*
X165862003Y-94465019D01*
X165765241Y-94416638D01*
X165716860Y-94368257D01*
X165668479Y-94271495D01*
X165668479Y-93981210D01*
X165716860Y-93884448D01*
X165765241Y-93836067D01*
X165862003Y-93787686D01*
X166055526Y-93787686D01*
X166152288Y-93836067D01*
X167990764Y-94465019D02*
X167652098Y-93981210D01*
X167410193Y-94465019D02*
X167410193Y-93449019D01*
X167797240Y-93449019D01*
X167894002Y-93497400D01*
X167942383Y-93545781D01*
X167990764Y-93642543D01*
X167990764Y-93787686D01*
X167942383Y-93884448D01*
X167894002Y-93932829D01*
X167797240Y-93981210D01*
X167410193Y-93981210D01*
X169200288Y-94465019D02*
X169200288Y-93449019D01*
X169684098Y-93787686D02*
X169684098Y-94465019D01*
X169684098Y-93884448D02*
X169732479Y-93836067D01*
X169829241Y-93787686D01*
X169974383Y-93787686D01*
X170071145Y-93836067D01*
X170119526Y-93932829D01*
X170119526Y-94465019D01*
X170458193Y-93787686D02*
X170845241Y-93787686D01*
X170603336Y-93449019D02*
X170603336Y-94319876D01*
X170651717Y-94416638D01*
X170748479Y-94465019D01*
X170845241Y-94465019D01*
X171570954Y-94416638D02*
X171474192Y-94465019D01*
X171280669Y-94465019D01*
X171183907Y-94416638D01*
X171135526Y-94319876D01*
X171135526Y-93932829D01*
X171183907Y-93836067D01*
X171280669Y-93787686D01*
X171474192Y-93787686D01*
X171570954Y-93836067D01*
X171619335Y-93932829D01*
X171619335Y-94029590D01*
X171135526Y-94126352D01*
X172054764Y-94465019D02*
X172054764Y-93787686D01*
X172054764Y-93981210D02*
X172103145Y-93884448D01*
X172151526Y-93836067D01*
X172248288Y-93787686D01*
X172345049Y-93787686D01*
X172538573Y-93787686D02*
X172925621Y-93787686D01*
X172683716Y-94465019D02*
X172683716Y-93594162D01*
X172732097Y-93497400D01*
X172828859Y-93449019D01*
X172925621Y-93449019D01*
X173699715Y-94465019D02*
X173699715Y-93932829D01*
X173651334Y-93836067D01*
X173554572Y-93787686D01*
X173361049Y-93787686D01*
X173264287Y-93836067D01*
X173699715Y-94416638D02*
X173602953Y-94465019D01*
X173361049Y-94465019D01*
X173264287Y-94416638D01*
X173215906Y-94319876D01*
X173215906Y-94223114D01*
X173264287Y-94126352D01*
X173361049Y-94077971D01*
X173602953Y-94077971D01*
X173699715Y-94029590D01*
X174618953Y-94416638D02*
X174522191Y-94465019D01*
X174328668Y-94465019D01*
X174231906Y-94416638D01*
X174183525Y-94368257D01*
X174135144Y-94271495D01*
X174135144Y-93981210D01*
X174183525Y-93884448D01*
X174231906Y-93836067D01*
X174328668Y-93787686D01*
X174522191Y-93787686D01*
X174618953Y-93836067D01*
X175441429Y-94416638D02*
X175344667Y-94465019D01*
X175151144Y-94465019D01*
X175054382Y-94416638D01*
X175006001Y-94319876D01*
X175006001Y-93932829D01*
X175054382Y-93836067D01*
X175151144Y-93787686D01*
X175344667Y-93787686D01*
X175441429Y-93836067D01*
X175489810Y-93932829D01*
X175489810Y-94029590D01*
X175006001Y-94126352D01*
X177279905Y-94465019D02*
X176941239Y-93981210D01*
X176699334Y-94465019D02*
X176699334Y-93449019D01*
X177086381Y-93449019D01*
X177183143Y-93497400D01*
X177231524Y-93545781D01*
X177279905Y-93642543D01*
X177279905Y-93787686D01*
X177231524Y-93884448D01*
X177183143Y-93932829D01*
X177086381Y-93981210D01*
X176699334Y-93981210D01*
X178102381Y-94416638D02*
X178005619Y-94465019D01*
X177812096Y-94465019D01*
X177715334Y-94416638D01*
X177666953Y-94319876D01*
X177666953Y-93932829D01*
X177715334Y-93836067D01*
X177812096Y-93787686D01*
X178005619Y-93787686D01*
X178102381Y-93836067D01*
X178150762Y-93932829D01*
X178150762Y-94029590D01*
X177666953Y-94126352D01*
X178489429Y-93787686D02*
X178731334Y-94465019D01*
X178973238Y-93787686D01*
X179311905Y-93545781D02*
X179360286Y-93497400D01*
X179457048Y-93449019D01*
X179698952Y-93449019D01*
X179795714Y-93497400D01*
X179844095Y-93545781D01*
X179892476Y-93642543D01*
X179892476Y-93739305D01*
X179844095Y-93884448D01*
X179263524Y-94465019D01*
X179892476Y-94465019D01*
D12*
X181032000Y-72892000D02*
X181032000Y-70892000D01*
X162032000Y-72892000D02*
X181032000Y-72892000D01*
X162032000Y-59892000D02*
X162032000Y-72892000D01*
X181032000Y-59892000D02*
X162032000Y-59892000D01*
X181032000Y-70892000D02*
X181032000Y-59892000D01*
X104564000Y-74114000D02*
X157564000Y-74114000D01*
X157564000Y-74114000D02*
X157564000Y-96114000D01*
X157564000Y-96114000D02*
X104564000Y-96114000D01*
X104564000Y-96114000D02*
X104564000Y-74114000D01*
X171636095Y-74154381D02*
X171636095Y-74963905D01*
X171683714Y-75059143D01*
X171731333Y-75106762D01*
X171826571Y-75154381D01*
X172017048Y-75154381D01*
X172112286Y-75106762D01*
X172159905Y-75059143D01*
X172207524Y-74963905D01*
X172207524Y-74154381D01*
X173207524Y-75154381D02*
X172636095Y-75154381D01*
X172921809Y-75154381D02*
X172921809Y-74154381D01*
X172826571Y-74297238D01*
X172731333Y-74392476D01*
X172636095Y-74440095D01*
X106420667Y-96726381D02*
X106420667Y-97440667D01*
X106373047Y-97583524D01*
X106277809Y-97678762D01*
X106134952Y-97726381D01*
X106039714Y-97726381D01*
X106849238Y-96821619D02*
X106896857Y-96774000D01*
X106992095Y-96726381D01*
X107230191Y-96726381D01*
X107325429Y-96774000D01*
X107373048Y-96821619D01*
X107420667Y-96916857D01*
X107420667Y-97012095D01*
X107373048Y-97154952D01*
X106801619Y-97726381D01*
X107420667Y-97726381D01*
M02*
