M48
;DRILL file {KiCad 4.0.7-e2-6376~58~ubuntu16.04.1} date Mon Feb 19 20:22:29 2018
;FORMAT={-:-/ absolute / inch / decimal}
FMAT,2
INCH,TZ
T1C0.012
T2C0.031
T3C0.037
T4C0.059
T5C0.069
T6C0.086
%
G90
G05
M72
T1
X5.Y-3.055
T2
X3.93Y-3.015
X3.93Y-3.115
X3.93Y-3.215
X3.93Y-3.315
X3.93Y-3.415
X3.93Y-3.515
X3.93Y-3.615
X4.03Y-2.965
X4.03Y-3.065
X4.03Y-3.165
X4.03Y-3.265
X4.03Y-3.365
X4.03Y-3.465
X4.03Y-3.565
X6.96Y-3.195
X6.96Y-3.295
X6.96Y-3.395
X7.06Y-3.145
X7.06Y-3.245
X7.06Y-3.345
T3
X6.2273Y-2.911
X6.31Y-2.65
X6.3273Y-2.911
X6.36Y-2.55
X6.41Y-2.65
X6.46Y-2.55
X6.51Y-2.65
X6.56Y-2.55
X6.61Y-2.65
X6.6431Y-2.911
X6.66Y-2.55
X6.7431Y-2.911
T4
X3.9591Y-2.9099
X6.9891Y-3.0899
T5
X4.675Y-3.2675
X4.675Y-3.5825
X4.7538Y-3.425
X4.8325Y-3.2675
X4.8325Y-3.5825
X4.9113Y-3.425
X4.99Y-3.2675
X4.99Y-3.5825
X5.0687Y-3.425
X5.1475Y-3.2675
X5.1475Y-3.5825
X5.2262Y-3.425
X5.305Y-3.2675
X5.305Y-3.5825
T6
X6.2116Y-2.724
X6.7588Y-2.724
T0
M30
