G04 #@! TF.FileFunction,Soldermask,Top*
%FSLAX46Y46*%
G04 Gerber Fmt 4.6, Leading zero omitted, Abs format (unit mm)*
G04 Created by KiCad (PCBNEW 4.0.7-e2-6376~58~ubuntu16.04.1) date Sat Mar 10 14:38:45 2018*
%MOMM*%
%LPD*%
G01*
G04 APERTURE LIST*
%ADD10C,0.100000*%
%ADD11C,1.700000*%
%ADD12C,2.400000*%
%ADD13C,1.900000*%
%ADD14C,3.150000*%
%ADD15C,3.250000*%
%ADD16C,3.400000*%
G04 APERTURE END LIST*
D10*
D11*
X102362000Y-80391000D03*
X102362000Y-77851000D03*
X102362000Y-75311000D03*
X102362000Y-82931000D03*
X99822000Y-76581000D03*
X99822000Y-79121000D03*
X99822000Y-81661000D03*
X99822000Y-84201000D03*
X102362000Y-85471000D03*
X99822000Y-86741000D03*
X102362000Y-88011000D03*
X99822000Y-89281000D03*
X102362000Y-90551000D03*
X99822000Y-91821000D03*
D12*
X100562000Y-73911000D03*
D11*
X179324000Y-84963000D03*
X179324000Y-82423000D03*
X179324000Y-79883000D03*
X176784000Y-81153000D03*
X176784000Y-83693000D03*
X176784000Y-86233000D03*
D12*
X177524000Y-78483000D03*
D13*
X165032000Y-70892000D03*
X167572000Y-70892000D03*
X178132000Y-70892000D03*
X175592000Y-70892000D03*
X167132000Y-64262000D03*
X169672000Y-64262000D03*
X172212000Y-64262000D03*
X174752000Y-64262000D03*
X168402000Y-61722000D03*
X170942000Y-61722000D03*
X173482000Y-61722000D03*
X176022000Y-61722000D03*
D14*
X164632000Y-66142000D03*
X178532000Y-66142000D03*
D15*
X151564000Y-87114000D03*
D12*
X156264000Y-93914000D03*
X105864000Y-93914000D03*
X154764000Y-75814000D03*
X107364000Y-75814000D03*
D16*
X145064000Y-90614000D03*
X121064000Y-90614000D03*
X125064000Y-90614000D03*
X129064000Y-90614000D03*
X133064000Y-90614000D03*
X137064000Y-90614000D03*
X141064000Y-90614000D03*
X123064000Y-86614000D03*
X127064000Y-86614000D03*
X135064000Y-86614000D03*
X131064000Y-86614000D03*
X139064000Y-86614000D03*
X143064000Y-86614000D03*
X145064000Y-82614000D03*
X141064000Y-82614000D03*
X137064000Y-82614000D03*
X129064000Y-82614000D03*
X133064000Y-82614000D03*
X125064000Y-82614000D03*
X121064000Y-82614000D03*
X117064000Y-90614000D03*
X119064000Y-86614000D03*
X117064000Y-82614000D03*
D15*
X110564000Y-87114000D03*
M02*
