G04 #@! TF.FileFunction,Copper,L1,Top,Signal*
%FSLAX46Y46*%
G04 Gerber Fmt 4.6, Leading zero omitted, Abs format (unit mm)*
G04 Created by KiCad (PCBNEW 4.0.7-e2-6376~58~ubuntu16.04.1) date Mon Feb 19 20:22:25 2018*
%MOMM*%
%LPD*%
G01*
G04 APERTURE LIST*
%ADD10C,0.100000*%
%ADD11C,1.300000*%
%ADD12C,2.000000*%
%ADD13C,3.000000*%
%ADD14C,1.500000*%
%ADD15C,2.750000*%
%ADD16C,0.600000*%
%ADD17C,0.254000*%
%ADD18C,0.508000*%
G04 APERTURE END LIST*
D10*
D11*
X102362000Y-80391000D03*
X102362000Y-77851000D03*
X102362000Y-75311000D03*
X102362000Y-82931000D03*
X99822000Y-76581000D03*
X99822000Y-79121000D03*
X99822000Y-81661000D03*
X99822000Y-84201000D03*
X102362000Y-85471000D03*
X99822000Y-86741000D03*
X102362000Y-88011000D03*
X99822000Y-89281000D03*
X102362000Y-90551000D03*
X99822000Y-91821000D03*
D12*
X100562000Y-73911000D03*
D13*
X122746000Y-90995000D03*
X126746000Y-90995000D03*
X130746000Y-90995000D03*
X134746000Y-90995000D03*
X124746000Y-86995000D03*
X128746000Y-86995000D03*
X132746000Y-86995000D03*
X130746000Y-82995000D03*
X134746000Y-82995000D03*
X126746000Y-82995000D03*
X122746000Y-82995000D03*
X118746000Y-90995000D03*
X120746000Y-86995000D03*
X118746000Y-82995000D03*
D11*
X179324000Y-84963000D03*
X179324000Y-82423000D03*
X179324000Y-79883000D03*
X176784000Y-81153000D03*
X176784000Y-83693000D03*
X176784000Y-86233000D03*
D12*
X177524000Y-78483000D03*
D14*
X158174000Y-73940000D03*
X160714000Y-73940000D03*
X171274000Y-73940000D03*
X168734000Y-73940000D03*
X160274000Y-67310000D03*
X162814000Y-67310000D03*
X165354000Y-67310000D03*
X167894000Y-67310000D03*
X161544000Y-64770000D03*
X164084000Y-64770000D03*
X166624000Y-64770000D03*
X169164000Y-64770000D03*
D15*
X157774000Y-69190000D03*
X171674000Y-69190000D03*
D16*
X127000000Y-77597000D03*
D17*
X104267000Y-79502000D02*
X103378000Y-80391000D01*
X103378000Y-80391000D02*
X102362000Y-80391000D01*
X145923000Y-79502000D02*
X104267000Y-79502000D01*
X154051000Y-71374000D02*
X145923000Y-79502000D01*
X154051000Y-67056000D02*
X154051000Y-71374000D01*
X157861000Y-63246000D02*
X154051000Y-67056000D01*
X159893000Y-63246000D02*
X157861000Y-63246000D01*
X160204023Y-62934977D02*
X159893000Y-63246000D01*
X165354000Y-64389000D02*
X163899977Y-62934977D01*
X163899977Y-62934977D02*
X160204023Y-62934977D01*
X165354000Y-67310000D02*
X165354000Y-64389000D01*
D18*
X167132000Y-63246000D02*
X167894000Y-64008000D01*
X167894000Y-64008000D02*
X167894000Y-67310000D01*
X166116000Y-63246000D02*
X167132000Y-63246000D01*
X164719000Y-61849000D02*
X166116000Y-63246000D01*
X159639000Y-61849000D02*
X164719000Y-61849000D01*
X159385000Y-62103000D02*
X159639000Y-61849000D01*
X157480000Y-62103000D02*
X159385000Y-62103000D01*
X152908000Y-66675000D02*
X157480000Y-62103000D01*
X152908000Y-70739000D02*
X152908000Y-66675000D01*
X145288000Y-78359000D02*
X152908000Y-70739000D01*
X104394000Y-78359000D02*
X145288000Y-78359000D01*
X103886000Y-77851000D02*
X104394000Y-78359000D01*
X102362000Y-77851000D02*
X103886000Y-77851000D01*
X104648000Y-77597000D02*
X104650001Y-77599001D01*
X104650001Y-77599001D02*
X126997999Y-77599001D01*
X126997999Y-77599001D02*
X127000000Y-77597000D01*
X102362000Y-75311000D02*
X104648000Y-77597000D01*
X126746000Y-90995000D02*
X126746000Y-88995000D01*
X126746000Y-88995000D02*
X128746000Y-86995000D01*
D17*
X146431000Y-80518000D02*
X104775000Y-80518000D01*
X104775000Y-80518000D02*
X102362000Y-82931000D01*
X155067000Y-71882000D02*
X146431000Y-80518000D01*
X155067000Y-67310000D02*
X155067000Y-71882000D01*
X158115000Y-64262000D02*
X155067000Y-67310000D01*
X160147000Y-64262000D02*
X158115000Y-64262000D01*
X160666001Y-63742999D02*
X160147000Y-64262000D01*
X162814000Y-64262000D02*
X162294999Y-63742999D01*
X162294999Y-63742999D02*
X160666001Y-63742999D01*
X162814000Y-67310000D02*
X162814000Y-64262000D01*
X166624000Y-64770000D02*
X164338000Y-62484000D01*
X164338000Y-62484000D02*
X159766000Y-62484000D01*
X159766000Y-62484000D02*
X159512000Y-62738000D01*
X159512000Y-62738000D02*
X157734000Y-62738000D01*
X157734000Y-62738000D02*
X153543000Y-66929000D01*
X145669000Y-78994000D02*
X104013000Y-78994000D01*
X153543000Y-66929000D02*
X153543000Y-71120000D01*
X153543000Y-71120000D02*
X145669000Y-78994000D01*
X104013000Y-78994000D02*
X103886000Y-79121000D01*
X103886000Y-79121000D02*
X99822000Y-79121000D01*
X104521000Y-80010000D02*
X102870000Y-81661000D01*
X102870000Y-81661000D02*
X99822000Y-81661000D01*
X146177000Y-80010000D02*
X104521000Y-80010000D01*
X154559000Y-71628000D02*
X146177000Y-80010000D01*
X154559000Y-67183000D02*
X154559000Y-71628000D01*
X157988000Y-63754000D02*
X154559000Y-67183000D01*
X160020000Y-63754000D02*
X157988000Y-63754000D01*
X160435012Y-63338988D02*
X160020000Y-63754000D01*
X164084000Y-64770000D02*
X162652988Y-63338988D01*
X162652988Y-63338988D02*
X160435012Y-63338988D01*
X102870000Y-86614000D02*
X101315762Y-86614000D01*
X101315762Y-86614000D02*
X99822000Y-85120238D01*
X99822000Y-85120238D02*
X99822000Y-84201000D01*
X107696000Y-91440000D02*
X102870000Y-86614000D01*
X115951000Y-91440000D02*
X107696000Y-91440000D01*
X117602000Y-93091000D02*
X115951000Y-91440000D01*
X120650000Y-93091000D02*
X117602000Y-93091000D01*
X122746000Y-90995000D02*
X120650000Y-93091000D01*
X158877000Y-71501000D02*
X160274000Y-70104000D01*
X160274000Y-70104000D02*
X160274000Y-67310000D01*
X157099000Y-71501000D02*
X158877000Y-71501000D01*
X143382001Y-85217999D02*
X157099000Y-71501000D01*
X124746000Y-86995000D02*
X126523001Y-85217999D01*
X126523001Y-85217999D02*
X143382001Y-85217999D01*
X124746000Y-86995000D02*
X122746000Y-88995000D01*
X122746000Y-88995000D02*
X122746000Y-90995000D01*
X118746000Y-90995000D02*
X107886000Y-90995000D01*
X107886000Y-90995000D02*
X102362000Y-85471000D01*
X155575000Y-67564000D02*
X158369000Y-64770000D01*
X158369000Y-64770000D02*
X161544000Y-64770000D01*
X155575000Y-72136000D02*
X155575000Y-67564000D01*
X146685000Y-81026000D02*
X155575000Y-72136000D01*
X126085038Y-81026000D02*
X146685000Y-81026000D01*
X124841000Y-84074000D02*
X124841000Y-82270038D01*
X124841000Y-82270038D02*
X126085038Y-81026000D01*
X123697001Y-85217999D02*
X124841000Y-84074000D01*
X120746000Y-86995000D02*
X122523001Y-85217999D01*
X122523001Y-85217999D02*
X123697001Y-85217999D01*
X120746000Y-86995000D02*
X118746000Y-88995000D01*
X118746000Y-88995000D02*
X118746000Y-90995000D01*
X154813000Y-75311000D02*
X167363000Y-75311000D01*
X167363000Y-75311000D02*
X168734000Y-73940000D01*
X144018000Y-86106000D02*
X154813000Y-75311000D01*
X144018000Y-89027000D02*
X144018000Y-86106000D01*
X138938000Y-94107000D02*
X144018000Y-89027000D01*
X117094000Y-94107000D02*
X138938000Y-94107000D01*
X115443000Y-92456000D02*
X117094000Y-94107000D01*
X107442000Y-92456000D02*
X115443000Y-92456000D01*
X104013000Y-89027000D02*
X107442000Y-92456000D01*
X102006038Y-89027000D02*
X104013000Y-89027000D01*
X99822000Y-86741000D02*
X100471999Y-87390999D01*
X100471999Y-87390999D02*
X100471999Y-87492961D01*
X100471999Y-87492961D02*
X102006038Y-89027000D01*
X143510000Y-85852000D02*
X155422000Y-73940000D01*
X155422000Y-73940000D02*
X158174000Y-73940000D01*
X143510000Y-88773000D02*
X143510000Y-85852000D01*
X138684000Y-93599000D02*
X143510000Y-88773000D01*
X117348000Y-93599000D02*
X138684000Y-93599000D01*
X115697000Y-91948000D02*
X117348000Y-93599000D01*
X107569000Y-91948000D02*
X115697000Y-91948000D01*
X103632000Y-88011000D02*
X107569000Y-91948000D01*
X102362000Y-88011000D02*
X103632000Y-88011000D01*
M02*
