G04 #@! TF.FileFunction,Copper,L2,Bot,Signal*
%FSLAX46Y46*%
G04 Gerber Fmt 4.6, Leading zero omitted, Abs format (unit mm)*
G04 Created by KiCad (PCBNEW 4.0.7-e2-6376~58~ubuntu16.04.1) date Mon Feb 19 20:22:25 2018*
%MOMM*%
%LPD*%
G01*
G04 APERTURE LIST*
%ADD10C,0.100000*%
%ADD11C,1.300000*%
%ADD12C,2.000000*%
%ADD13C,3.000000*%
%ADD14C,1.500000*%
%ADD15C,2.750000*%
%ADD16C,0.600000*%
%ADD17C,0.508000*%
%ADD18C,0.254000*%
G04 APERTURE END LIST*
D10*
D11*
X102362000Y-80391000D03*
X102362000Y-77851000D03*
X102362000Y-75311000D03*
X102362000Y-82931000D03*
X99822000Y-76581000D03*
X99822000Y-79121000D03*
X99822000Y-81661000D03*
X99822000Y-84201000D03*
X102362000Y-85471000D03*
X99822000Y-86741000D03*
X102362000Y-88011000D03*
X99822000Y-89281000D03*
X102362000Y-90551000D03*
X99822000Y-91821000D03*
D12*
X100562000Y-73911000D03*
D13*
X122746000Y-90995000D03*
X126746000Y-90995000D03*
X130746000Y-90995000D03*
X134746000Y-90995000D03*
X124746000Y-86995000D03*
X128746000Y-86995000D03*
X132746000Y-86995000D03*
X130746000Y-82995000D03*
X134746000Y-82995000D03*
X126746000Y-82995000D03*
X122746000Y-82995000D03*
X118746000Y-90995000D03*
X120746000Y-86995000D03*
X118746000Y-82995000D03*
D11*
X179324000Y-84963000D03*
X179324000Y-82423000D03*
X179324000Y-79883000D03*
X176784000Y-81153000D03*
X176784000Y-83693000D03*
X176784000Y-86233000D03*
D12*
X177524000Y-78483000D03*
D14*
X158174000Y-73940000D03*
X160714000Y-73940000D03*
X171274000Y-73940000D03*
X168734000Y-73940000D03*
X160274000Y-67310000D03*
X162814000Y-67310000D03*
X165354000Y-67310000D03*
X167894000Y-67310000D03*
X161544000Y-64770000D03*
X164084000Y-64770000D03*
X166624000Y-64770000D03*
X169164000Y-64770000D03*
D15*
X157774000Y-69190000D03*
X171674000Y-69190000D03*
D16*
X127000000Y-77597000D03*
D17*
X127000000Y-77597000D02*
X128746000Y-79343000D01*
X128746000Y-79343000D02*
X128746000Y-86995000D01*
D18*
G36*
X179482838Y-57641291D02*
X180138221Y-57935892D01*
X180630973Y-58458869D01*
X180900229Y-59167859D01*
X180925000Y-59464549D01*
X180925000Y-93217675D01*
X180771398Y-93989885D01*
X180372193Y-94587335D01*
X179764597Y-94993318D01*
X179141963Y-95139579D01*
X99166408Y-100646440D01*
X98385472Y-100546247D01*
X97762008Y-100189028D01*
X97322705Y-99620410D01*
X97119540Y-98872068D01*
X97116673Y-98788694D01*
X97116673Y-94618795D01*
X105910716Y-94618795D01*
X106159106Y-95219943D01*
X106618637Y-95680278D01*
X107219352Y-95929716D01*
X107869795Y-95930284D01*
X108470943Y-95681894D01*
X108931278Y-95222363D01*
X109180716Y-94621648D01*
X109180718Y-94618795D01*
X144310716Y-94618795D01*
X144559106Y-95219943D01*
X145018637Y-95680278D01*
X145619352Y-95929716D01*
X146269795Y-95930284D01*
X146870943Y-95681894D01*
X147331278Y-95222363D01*
X147580716Y-94621648D01*
X147581284Y-93971205D01*
X147332894Y-93370057D01*
X146873363Y-92909722D01*
X146272648Y-92660284D01*
X145622205Y-92659716D01*
X145021057Y-92908106D01*
X144560722Y-93367637D01*
X144311284Y-93968352D01*
X144310716Y-94618795D01*
X109180718Y-94618795D01*
X109181284Y-93971205D01*
X108932894Y-93370057D01*
X108473363Y-92909722D01*
X107872648Y-92660284D01*
X107222205Y-92659716D01*
X106621057Y-92908106D01*
X106160722Y-93367637D01*
X105911284Y-93968352D01*
X105910716Y-94618795D01*
X97116673Y-94618795D01*
X97116673Y-79375481D01*
X98536777Y-79375481D01*
X98731995Y-79847943D01*
X99093155Y-80209735D01*
X99530182Y-80391205D01*
X99095057Y-80570995D01*
X98733265Y-80932155D01*
X98537223Y-81404276D01*
X98536777Y-81915481D01*
X98731995Y-82387943D01*
X99093155Y-82749735D01*
X99530182Y-82931205D01*
X99095057Y-83110995D01*
X98733265Y-83472155D01*
X98537223Y-83944276D01*
X98536777Y-84455481D01*
X98731995Y-84927943D01*
X99093155Y-85289735D01*
X99530182Y-85471205D01*
X99095057Y-85650995D01*
X98733265Y-86012155D01*
X98537223Y-86484276D01*
X98536777Y-86995481D01*
X98731995Y-87467943D01*
X99093155Y-87829735D01*
X99530182Y-88011205D01*
X99095057Y-88190995D01*
X98733265Y-88552155D01*
X98537223Y-89024276D01*
X98536777Y-89535481D01*
X98731995Y-90007943D01*
X99093155Y-90369735D01*
X99530182Y-90551205D01*
X99095057Y-90730995D01*
X98733265Y-91092155D01*
X98537223Y-91564276D01*
X98536777Y-92075481D01*
X98731995Y-92547943D01*
X99093155Y-92909735D01*
X99565276Y-93105777D01*
X100076481Y-93106223D01*
X100548943Y-92911005D01*
X100910735Y-92549845D01*
X101106777Y-92077724D01*
X101107223Y-91566519D01*
X100912005Y-91094057D01*
X100550845Y-90732265D01*
X100113818Y-90550795D01*
X100548943Y-90371005D01*
X100910735Y-90009845D01*
X101106777Y-89537724D01*
X101107223Y-89026519D01*
X100912005Y-88554057D01*
X100550845Y-88192265D01*
X100113818Y-88010795D01*
X100548943Y-87831005D01*
X100910735Y-87469845D01*
X101106777Y-86997724D01*
X101107223Y-86486519D01*
X100912005Y-86014057D01*
X100550845Y-85652265D01*
X100113818Y-85470795D01*
X100548943Y-85291005D01*
X100910735Y-84929845D01*
X101106777Y-84457724D01*
X101107223Y-83946519D01*
X100912005Y-83474057D01*
X100550845Y-83112265D01*
X100113818Y-82930795D01*
X100548943Y-82751005D01*
X100910735Y-82389845D01*
X101106777Y-81917724D01*
X101107223Y-81406519D01*
X100912005Y-80934057D01*
X100550845Y-80572265D01*
X100113818Y-80390795D01*
X100548943Y-80211005D01*
X100910735Y-79849845D01*
X101106777Y-79377724D01*
X101107223Y-78866519D01*
X100912005Y-78394057D01*
X100550845Y-78032265D01*
X100114800Y-77851203D01*
X100151428Y-77849083D01*
X100485729Y-77710611D01*
X100541410Y-77480016D01*
X99822000Y-76760605D01*
X99102590Y-77480016D01*
X99158271Y-77710611D01*
X99544860Y-77845139D01*
X99095057Y-78030995D01*
X98733265Y-78392155D01*
X98537223Y-78864276D01*
X98536777Y-79375481D01*
X97116673Y-79375481D01*
X97116673Y-76400078D01*
X98524378Y-76400078D01*
X98553917Y-76910428D01*
X98692389Y-77244729D01*
X98922984Y-77300410D01*
X99642395Y-76581000D01*
X100001605Y-76581000D01*
X100721016Y-77300410D01*
X100951611Y-77244729D01*
X101119622Y-76761922D01*
X101090083Y-76251572D01*
X100951611Y-75917271D01*
X100721016Y-75861590D01*
X100001605Y-76581000D01*
X99642395Y-76581000D01*
X98922984Y-75861590D01*
X98692389Y-75917271D01*
X98524378Y-76400078D01*
X97116673Y-76400078D01*
X97116673Y-74234795D01*
X98926716Y-74234795D01*
X99175106Y-74835943D01*
X99634637Y-75296278D01*
X99652426Y-75303665D01*
X99492572Y-75312917D01*
X99158271Y-75451389D01*
X99102590Y-75681984D01*
X99822000Y-76401395D01*
X100541410Y-75681984D01*
X100508563Y-75545955D01*
X100885795Y-75546284D01*
X101076863Y-75467336D01*
X101076777Y-75565481D01*
X101271995Y-76037943D01*
X101633155Y-76399735D01*
X102070182Y-76581205D01*
X101635057Y-76760995D01*
X101273265Y-77122155D01*
X101077223Y-77594276D01*
X101076777Y-78105481D01*
X101271995Y-78577943D01*
X101633155Y-78939735D01*
X102070182Y-79121205D01*
X101635057Y-79300995D01*
X101273265Y-79662155D01*
X101077223Y-80134276D01*
X101076777Y-80645481D01*
X101271995Y-81117943D01*
X101633155Y-81479735D01*
X102070182Y-81661205D01*
X101635057Y-81840995D01*
X101273265Y-82202155D01*
X101077223Y-82674276D01*
X101076777Y-83185481D01*
X101271995Y-83657943D01*
X101633155Y-84019735D01*
X102070182Y-84201205D01*
X101635057Y-84380995D01*
X101273265Y-84742155D01*
X101077223Y-85214276D01*
X101076777Y-85725481D01*
X101271995Y-86197943D01*
X101633155Y-86559735D01*
X102070182Y-86741205D01*
X101635057Y-86920995D01*
X101273265Y-87282155D01*
X101077223Y-87754276D01*
X101076777Y-88265481D01*
X101271995Y-88737943D01*
X101633155Y-89099735D01*
X102070182Y-89281205D01*
X101635057Y-89460995D01*
X101273265Y-89822155D01*
X101077223Y-90294276D01*
X101076777Y-90805481D01*
X101271995Y-91277943D01*
X101633155Y-91639735D01*
X102105276Y-91835777D01*
X102616481Y-91836223D01*
X103088943Y-91641005D01*
X103312523Y-91417815D01*
X116610630Y-91417815D01*
X116934980Y-92202800D01*
X117535041Y-92803909D01*
X118319459Y-93129628D01*
X119168815Y-93130370D01*
X119953800Y-92806020D01*
X120554909Y-92205959D01*
X120746068Y-91745598D01*
X120934980Y-92202800D01*
X121535041Y-92803909D01*
X122319459Y-93129628D01*
X123168815Y-93130370D01*
X123953800Y-92806020D01*
X124554909Y-92205959D01*
X124746068Y-91745598D01*
X124934980Y-92202800D01*
X125535041Y-92803909D01*
X126319459Y-93129628D01*
X127168815Y-93130370D01*
X127953800Y-92806020D01*
X128554909Y-92205959D01*
X128746068Y-91745598D01*
X128934980Y-92202800D01*
X129535041Y-92803909D01*
X130319459Y-93129628D01*
X131168815Y-93130370D01*
X131953800Y-92806020D01*
X132554909Y-92205959D01*
X132746068Y-91745598D01*
X132934980Y-92202800D01*
X133535041Y-92803909D01*
X134319459Y-93129628D01*
X135168815Y-93130370D01*
X135953800Y-92806020D01*
X136554909Y-92205959D01*
X136880628Y-91421541D01*
X136881370Y-90572185D01*
X136557020Y-89787200D01*
X135956959Y-89186091D01*
X135172541Y-88860372D01*
X134323185Y-88859630D01*
X133538200Y-89183980D01*
X132937091Y-89784041D01*
X132745932Y-90244402D01*
X132557020Y-89787200D01*
X131956959Y-89186091D01*
X131172541Y-88860372D01*
X130323185Y-88859630D01*
X129538200Y-89183980D01*
X128937091Y-89784041D01*
X128745932Y-90244402D01*
X128557020Y-89787200D01*
X127956959Y-89186091D01*
X127172541Y-88860372D01*
X126323185Y-88859630D01*
X125538200Y-89183980D01*
X124937091Y-89784041D01*
X124745932Y-90244402D01*
X124557020Y-89787200D01*
X123956959Y-89186091D01*
X123172541Y-88860372D01*
X122323185Y-88859630D01*
X121538200Y-89183980D01*
X120937091Y-89784041D01*
X120745932Y-90244402D01*
X120557020Y-89787200D01*
X119956959Y-89186091D01*
X119172541Y-88860372D01*
X118323185Y-88859630D01*
X117538200Y-89183980D01*
X116937091Y-89784041D01*
X116611372Y-90568459D01*
X116610630Y-91417815D01*
X103312523Y-91417815D01*
X103450735Y-91279845D01*
X103646777Y-90807724D01*
X103647223Y-90296519D01*
X103452005Y-89824057D01*
X103090845Y-89462265D01*
X102653818Y-89280795D01*
X103088943Y-89101005D01*
X103450735Y-88739845D01*
X103646777Y-88267724D01*
X103647095Y-87902962D01*
X110185643Y-87902962D01*
X110498599Y-88660372D01*
X111077580Y-89240365D01*
X111834443Y-89554642D01*
X112653962Y-89555357D01*
X113411372Y-89242401D01*
X113991365Y-88663420D01*
X114305642Y-87906557D01*
X114306068Y-87417815D01*
X118610630Y-87417815D01*
X118934980Y-88202800D01*
X119535041Y-88803909D01*
X120319459Y-89129628D01*
X121168815Y-89130370D01*
X121953800Y-88806020D01*
X122554909Y-88205959D01*
X122746068Y-87745598D01*
X122934980Y-88202800D01*
X123535041Y-88803909D01*
X124319459Y-89129628D01*
X125168815Y-89130370D01*
X125953800Y-88806020D01*
X126554909Y-88205959D01*
X126746068Y-87745598D01*
X126934980Y-88202800D01*
X127535041Y-88803909D01*
X128319459Y-89129628D01*
X129168815Y-89130370D01*
X129953800Y-88806020D01*
X130554909Y-88205959D01*
X130746068Y-87745598D01*
X130934980Y-88202800D01*
X131535041Y-88803909D01*
X132319459Y-89129628D01*
X133168815Y-89130370D01*
X133953800Y-88806020D01*
X134554909Y-88205959D01*
X134680724Y-87902962D01*
X139135643Y-87902962D01*
X139448599Y-88660372D01*
X140027580Y-89240365D01*
X140784443Y-89554642D01*
X141603962Y-89555357D01*
X142361372Y-89242401D01*
X142941365Y-88663420D01*
X143255642Y-87906557D01*
X143256357Y-87087038D01*
X142943401Y-86329628D01*
X142364420Y-85749635D01*
X141607557Y-85435358D01*
X140788038Y-85434643D01*
X140030628Y-85747599D01*
X139450635Y-86326580D01*
X139136358Y-87083443D01*
X139135643Y-87902962D01*
X134680724Y-87902962D01*
X134880628Y-87421541D01*
X134881370Y-86572185D01*
X134557020Y-85787200D01*
X133956959Y-85186091D01*
X133172541Y-84860372D01*
X132323185Y-84859630D01*
X131538200Y-85183980D01*
X130937091Y-85784041D01*
X130745932Y-86244402D01*
X130557020Y-85787200D01*
X129956959Y-85186091D01*
X129635000Y-85052402D01*
X129635000Y-84845416D01*
X130319459Y-85129628D01*
X131168815Y-85130370D01*
X131953800Y-84806020D01*
X132554909Y-84205959D01*
X132746068Y-83745598D01*
X132934980Y-84202800D01*
X133535041Y-84803909D01*
X134319459Y-85129628D01*
X135168815Y-85130370D01*
X135953800Y-84806020D01*
X136554909Y-84205959D01*
X136880628Y-83421541D01*
X136881370Y-82572185D01*
X136557020Y-81787200D01*
X136177964Y-81407481D01*
X175498777Y-81407481D01*
X175693995Y-81879943D01*
X176055155Y-82241735D01*
X176492182Y-82423205D01*
X176057057Y-82602995D01*
X175695265Y-82964155D01*
X175499223Y-83436276D01*
X175498777Y-83947481D01*
X175693995Y-84419943D01*
X176055155Y-84781735D01*
X176492182Y-84963205D01*
X176057057Y-85142995D01*
X175695265Y-85504155D01*
X175499223Y-85976276D01*
X175498777Y-86487481D01*
X175693995Y-86959943D01*
X176055155Y-87321735D01*
X176527276Y-87517777D01*
X177038481Y-87518223D01*
X177510943Y-87323005D01*
X177872735Y-86961845D01*
X178068777Y-86489724D01*
X178069223Y-85978519D01*
X177874005Y-85506057D01*
X177512845Y-85144265D01*
X177075818Y-84962795D01*
X177510943Y-84783005D01*
X177872735Y-84421845D01*
X178068777Y-83949724D01*
X178069223Y-83438519D01*
X177874005Y-82966057D01*
X177512845Y-82604265D01*
X177075818Y-82422795D01*
X177510943Y-82243005D01*
X177872735Y-81881845D01*
X178068777Y-81409724D01*
X178069223Y-80898519D01*
X177874005Y-80426057D01*
X177566524Y-80118038D01*
X177847795Y-80118284D01*
X178038863Y-80039336D01*
X178038777Y-80137481D01*
X178233995Y-80609943D01*
X178595155Y-80971735D01*
X179032182Y-81153205D01*
X178597057Y-81332995D01*
X178235265Y-81694155D01*
X178039223Y-82166276D01*
X178038777Y-82677481D01*
X178233995Y-83149943D01*
X178595155Y-83511735D01*
X179032182Y-83693205D01*
X178597057Y-83872995D01*
X178235265Y-84234155D01*
X178039223Y-84706276D01*
X178038777Y-85217481D01*
X178233995Y-85689943D01*
X178595155Y-86051735D01*
X179067276Y-86247777D01*
X179578481Y-86248223D01*
X180050943Y-86053005D01*
X180412735Y-85691845D01*
X180608777Y-85219724D01*
X180609223Y-84708519D01*
X180414005Y-84236057D01*
X180052845Y-83874265D01*
X179615818Y-83692795D01*
X180050943Y-83513005D01*
X180412735Y-83151845D01*
X180608777Y-82679724D01*
X180609223Y-82168519D01*
X180414005Y-81696057D01*
X180052845Y-81334265D01*
X179615818Y-81152795D01*
X180050943Y-80973005D01*
X180412735Y-80611845D01*
X180608777Y-80139724D01*
X180609223Y-79628519D01*
X180414005Y-79156057D01*
X180052845Y-78794265D01*
X179580724Y-78598223D01*
X179158901Y-78597855D01*
X179159284Y-78159205D01*
X178910894Y-77558057D01*
X178451363Y-77097722D01*
X177850648Y-76848284D01*
X177200205Y-76847716D01*
X176599057Y-77096106D01*
X176138722Y-77555637D01*
X175889284Y-78156352D01*
X175888716Y-78806795D01*
X176137106Y-79407943D01*
X176596195Y-79867835D01*
X176529519Y-79867777D01*
X176057057Y-80062995D01*
X175695265Y-80424155D01*
X175499223Y-80896276D01*
X175498777Y-81407481D01*
X136177964Y-81407481D01*
X135956959Y-81186091D01*
X135172541Y-80860372D01*
X134323185Y-80859630D01*
X133538200Y-81183980D01*
X132937091Y-81784041D01*
X132745932Y-82244402D01*
X132557020Y-81787200D01*
X131956959Y-81186091D01*
X131172541Y-80860372D01*
X130323185Y-80859630D01*
X129635000Y-81143983D01*
X129635000Y-79343000D01*
X129567329Y-79002794D01*
X129374618Y-78714382D01*
X127838762Y-77178526D01*
X127793117Y-77068057D01*
X127530327Y-76804808D01*
X127186799Y-76662162D01*
X126814833Y-76661838D01*
X126471057Y-76803883D01*
X126207808Y-77066673D01*
X126065162Y-77410201D01*
X126064838Y-77782167D01*
X126206883Y-78125943D01*
X126469673Y-78389192D01*
X126581313Y-78435549D01*
X127857000Y-79711236D01*
X127857000Y-81137337D01*
X127129813Y-80852277D01*
X126280613Y-80868503D01*
X125571418Y-81162261D01*
X125411635Y-81481030D01*
X126746000Y-82815395D01*
X126760143Y-82801253D01*
X126939748Y-82980858D01*
X126925605Y-82995000D01*
X126939748Y-83009143D01*
X126760143Y-83188748D01*
X126746000Y-83174605D01*
X125411635Y-84508970D01*
X125571418Y-84827739D01*
X126362187Y-85137723D01*
X127211387Y-85121497D01*
X127857000Y-84854076D01*
X127857000Y-85052254D01*
X127538200Y-85183980D01*
X126937091Y-85784041D01*
X126745932Y-86244402D01*
X126557020Y-85787200D01*
X125956959Y-85186091D01*
X125172541Y-84860372D01*
X124323185Y-84859630D01*
X123538200Y-85183980D01*
X122937091Y-85784041D01*
X122745932Y-86244402D01*
X122557020Y-85787200D01*
X121956959Y-85186091D01*
X121172541Y-84860372D01*
X120323185Y-84859630D01*
X119538200Y-85183980D01*
X118937091Y-85784041D01*
X118611372Y-86568459D01*
X118610630Y-87417815D01*
X114306068Y-87417815D01*
X114306357Y-87087038D01*
X113993401Y-86329628D01*
X113414420Y-85749635D01*
X112657557Y-85435358D01*
X111838038Y-85434643D01*
X111080628Y-85747599D01*
X110500635Y-86326580D01*
X110186358Y-87083443D01*
X110185643Y-87902962D01*
X103647095Y-87902962D01*
X103647223Y-87756519D01*
X103452005Y-87284057D01*
X103090845Y-86922265D01*
X102653818Y-86740795D01*
X103088943Y-86561005D01*
X103450735Y-86199845D01*
X103646777Y-85727724D01*
X103647223Y-85216519D01*
X103452005Y-84744057D01*
X103217329Y-84508970D01*
X117411635Y-84508970D01*
X117571418Y-84827739D01*
X118362187Y-85137723D01*
X119211387Y-85121497D01*
X119920582Y-84827739D01*
X120080365Y-84508970D01*
X121411635Y-84508970D01*
X121571418Y-84827739D01*
X122362187Y-85137723D01*
X123211387Y-85121497D01*
X123920582Y-84827739D01*
X124080365Y-84508970D01*
X122746000Y-83174605D01*
X121411635Y-84508970D01*
X120080365Y-84508970D01*
X118746000Y-83174605D01*
X117411635Y-84508970D01*
X103217329Y-84508970D01*
X103090845Y-84382265D01*
X102653818Y-84200795D01*
X103088943Y-84021005D01*
X103450735Y-83659845D01*
X103646777Y-83187724D01*
X103647223Y-82676519D01*
X103620229Y-82611187D01*
X116603277Y-82611187D01*
X116619503Y-83460387D01*
X116913261Y-84169582D01*
X117232030Y-84329365D01*
X118566395Y-82995000D01*
X118925605Y-82995000D01*
X120259970Y-84329365D01*
X120578739Y-84169582D01*
X120741392Y-83754654D01*
X120913261Y-84169582D01*
X121232030Y-84329365D01*
X122566395Y-82995000D01*
X122925605Y-82995000D01*
X124259970Y-84329365D01*
X124578739Y-84169582D01*
X124741392Y-83754654D01*
X124913261Y-84169582D01*
X125232030Y-84329365D01*
X126566395Y-82995000D01*
X125232030Y-81660635D01*
X124913261Y-81820418D01*
X124750608Y-82235346D01*
X124578739Y-81820418D01*
X124259970Y-81660635D01*
X122925605Y-82995000D01*
X122566395Y-82995000D01*
X121232030Y-81660635D01*
X120913261Y-81820418D01*
X120750608Y-82235346D01*
X120578739Y-81820418D01*
X120259970Y-81660635D01*
X118925605Y-82995000D01*
X118566395Y-82995000D01*
X117232030Y-81660635D01*
X116913261Y-81820418D01*
X116603277Y-82611187D01*
X103620229Y-82611187D01*
X103452005Y-82204057D01*
X103090845Y-81842265D01*
X102653818Y-81660795D01*
X103088882Y-81481030D01*
X117411635Y-81481030D01*
X118746000Y-82815395D01*
X120080365Y-81481030D01*
X121411635Y-81481030D01*
X122746000Y-82815395D01*
X124080365Y-81481030D01*
X123920582Y-81162261D01*
X123129813Y-80852277D01*
X122280613Y-80868503D01*
X121571418Y-81162261D01*
X121411635Y-81481030D01*
X120080365Y-81481030D01*
X119920582Y-81162261D01*
X119129813Y-80852277D01*
X118280613Y-80868503D01*
X117571418Y-81162261D01*
X117411635Y-81481030D01*
X103088882Y-81481030D01*
X103088943Y-81481005D01*
X103450735Y-81119845D01*
X103646777Y-80647724D01*
X103647223Y-80136519D01*
X103452005Y-79664057D01*
X103090845Y-79302265D01*
X102653818Y-79120795D01*
X103088943Y-78941005D01*
X103450735Y-78579845D01*
X103646777Y-78107724D01*
X103647223Y-77596519D01*
X103452005Y-77124057D01*
X103090845Y-76762265D01*
X102653818Y-76580795D01*
X102803869Y-76518795D01*
X107410716Y-76518795D01*
X107659106Y-77119943D01*
X108118637Y-77580278D01*
X108719352Y-77829716D01*
X109369795Y-77830284D01*
X109970943Y-77581894D01*
X110431278Y-77122363D01*
X110680716Y-76521648D01*
X110680718Y-76518795D01*
X142810716Y-76518795D01*
X143059106Y-77119943D01*
X143518637Y-77580278D01*
X144119352Y-77829716D01*
X144769795Y-77830284D01*
X145370943Y-77581894D01*
X145831278Y-77122363D01*
X146080716Y-76521648D01*
X146081284Y-75871205D01*
X145832894Y-75270057D01*
X145373363Y-74809722D01*
X144772648Y-74560284D01*
X144122205Y-74559716D01*
X143521057Y-74808106D01*
X143060722Y-75267637D01*
X142811284Y-75868352D01*
X142810716Y-76518795D01*
X110680718Y-76518795D01*
X110681284Y-75871205D01*
X110432894Y-75270057D01*
X109973363Y-74809722D01*
X109372648Y-74560284D01*
X108722205Y-74559716D01*
X108121057Y-74808106D01*
X107660722Y-75267637D01*
X107411284Y-75868352D01*
X107410716Y-76518795D01*
X102803869Y-76518795D01*
X103088943Y-76401005D01*
X103450735Y-76039845D01*
X103646777Y-75567724D01*
X103647223Y-75056519D01*
X103452005Y-74584057D01*
X103090845Y-74222265D01*
X103071628Y-74214285D01*
X156788760Y-74214285D01*
X156999169Y-74723515D01*
X157388436Y-75113461D01*
X157897298Y-75324759D01*
X158448285Y-75325240D01*
X158957515Y-75114831D01*
X159161183Y-74911517D01*
X159922088Y-74911517D01*
X159990077Y-75152460D01*
X160509171Y-75337201D01*
X161059448Y-75309230D01*
X161437923Y-75152460D01*
X161505912Y-74911517D01*
X160714000Y-74119605D01*
X159922088Y-74911517D01*
X159161183Y-74911517D01*
X159347461Y-74725564D01*
X159437377Y-74509021D01*
X159501540Y-74663923D01*
X159742483Y-74731912D01*
X160534395Y-73940000D01*
X160893605Y-73940000D01*
X161685517Y-74731912D01*
X161926460Y-74663923D01*
X162086482Y-74214285D01*
X167348760Y-74214285D01*
X167559169Y-74723515D01*
X167948436Y-75113461D01*
X168457298Y-75324759D01*
X169008285Y-75325240D01*
X169517515Y-75114831D01*
X169721183Y-74911517D01*
X170482088Y-74911517D01*
X170550077Y-75152460D01*
X171069171Y-75337201D01*
X171619448Y-75309230D01*
X171997923Y-75152460D01*
X172065912Y-74911517D01*
X171274000Y-74119605D01*
X170482088Y-74911517D01*
X169721183Y-74911517D01*
X169907461Y-74725564D01*
X169997377Y-74509021D01*
X170061540Y-74663923D01*
X170302483Y-74731912D01*
X171094395Y-73940000D01*
X171453605Y-73940000D01*
X172245517Y-74731912D01*
X172486460Y-74663923D01*
X172671201Y-74144829D01*
X172643230Y-73594552D01*
X172486460Y-73216077D01*
X172245517Y-73148088D01*
X171453605Y-73940000D01*
X171094395Y-73940000D01*
X170302483Y-73148088D01*
X170061540Y-73216077D01*
X170002268Y-73382621D01*
X169908831Y-73156485D01*
X169721157Y-72968483D01*
X170482088Y-72968483D01*
X171274000Y-73760395D01*
X172065912Y-72968483D01*
X171997923Y-72727540D01*
X171478829Y-72542799D01*
X170928552Y-72570770D01*
X170550077Y-72727540D01*
X170482088Y-72968483D01*
X169721157Y-72968483D01*
X169519564Y-72766539D01*
X169010702Y-72555241D01*
X168459715Y-72554760D01*
X167950485Y-72765169D01*
X167560539Y-73154436D01*
X167349241Y-73663298D01*
X167348760Y-74214285D01*
X162086482Y-74214285D01*
X162111201Y-74144829D01*
X162083230Y-73594552D01*
X161926460Y-73216077D01*
X161685517Y-73148088D01*
X160893605Y-73940000D01*
X160534395Y-73940000D01*
X159742483Y-73148088D01*
X159501540Y-73216077D01*
X159442268Y-73382621D01*
X159348831Y-73156485D01*
X159161157Y-72968483D01*
X159922088Y-72968483D01*
X160714000Y-73760395D01*
X161505912Y-72968483D01*
X161437923Y-72727540D01*
X160918829Y-72542799D01*
X160368552Y-72570770D01*
X159990077Y-72727540D01*
X159922088Y-72968483D01*
X159161157Y-72968483D01*
X158959564Y-72766539D01*
X158450702Y-72555241D01*
X157899715Y-72554760D01*
X157390485Y-72765169D01*
X157000539Y-73154436D01*
X156789241Y-73663298D01*
X156788760Y-74214285D01*
X103071628Y-74214285D01*
X102618724Y-74026223D01*
X102196901Y-74025855D01*
X102197284Y-73587205D01*
X101948894Y-72986057D01*
X101489363Y-72525722D01*
X100888648Y-72276284D01*
X100238205Y-72275716D01*
X99637057Y-72524106D01*
X99176722Y-72983637D01*
X98927284Y-73584352D01*
X98926716Y-74234795D01*
X97116673Y-74234795D01*
X97116673Y-72456297D01*
X97416008Y-71822134D01*
X97950490Y-71336953D01*
X98651779Y-71078043D01*
X101413347Y-70613659D01*
X156529946Y-70613659D01*
X156674467Y-70919444D01*
X157419993Y-71208571D01*
X158219414Y-71190389D01*
X158873533Y-70919444D01*
X159018054Y-70613659D01*
X170429946Y-70613659D01*
X170574467Y-70919444D01*
X171319993Y-71208571D01*
X172119414Y-71190389D01*
X172773533Y-70919444D01*
X172918054Y-70613659D01*
X171674000Y-69369605D01*
X170429946Y-70613659D01*
X159018054Y-70613659D01*
X157774000Y-69369605D01*
X156529946Y-70613659D01*
X101413347Y-70613659D01*
X111984656Y-68835993D01*
X155755429Y-68835993D01*
X155773611Y-69635414D01*
X156044556Y-70289533D01*
X156350341Y-70434054D01*
X157594395Y-69190000D01*
X156350341Y-67945946D01*
X156044556Y-68090467D01*
X155755429Y-68835993D01*
X111984656Y-68835993D01*
X118345593Y-67766341D01*
X156529946Y-67766341D01*
X157774000Y-69010395D01*
X157788143Y-68996253D01*
X157967748Y-69175858D01*
X157953605Y-69190000D01*
X159197659Y-70434054D01*
X159503444Y-70289533D01*
X159792571Y-69544007D01*
X159776468Y-68835993D01*
X169655429Y-68835993D01*
X169673611Y-69635414D01*
X169944556Y-70289533D01*
X170250341Y-70434054D01*
X171494395Y-69190000D01*
X171853605Y-69190000D01*
X173097659Y-70434054D01*
X173403444Y-70289533D01*
X173692571Y-69544007D01*
X173674389Y-68744586D01*
X173403444Y-68090467D01*
X173097659Y-67945946D01*
X171853605Y-69190000D01*
X171494395Y-69190000D01*
X170250341Y-67945946D01*
X169944556Y-68090467D01*
X169655429Y-68835993D01*
X159776468Y-68835993D01*
X159774389Y-68744586D01*
X159703159Y-68572622D01*
X159997298Y-68694759D01*
X160548285Y-68695240D01*
X161057515Y-68484831D01*
X161447461Y-68095564D01*
X161543976Y-67863130D01*
X161639169Y-68093515D01*
X162028436Y-68483461D01*
X162537298Y-68694759D01*
X163088285Y-68695240D01*
X163597515Y-68484831D01*
X163987461Y-68095564D01*
X164083976Y-67863130D01*
X164179169Y-68093515D01*
X164568436Y-68483461D01*
X165077298Y-68694759D01*
X165628285Y-68695240D01*
X166137515Y-68484831D01*
X166527461Y-68095564D01*
X166623976Y-67863130D01*
X166719169Y-68093515D01*
X167108436Y-68483461D01*
X167617298Y-68694759D01*
X168168285Y-68695240D01*
X168677515Y-68484831D01*
X169067461Y-68095564D01*
X169204166Y-67766341D01*
X170429946Y-67766341D01*
X171674000Y-69010395D01*
X172918054Y-67766341D01*
X172773533Y-67460556D01*
X172028007Y-67171429D01*
X171228586Y-67189611D01*
X170574467Y-67460556D01*
X170429946Y-67766341D01*
X169204166Y-67766341D01*
X169278759Y-67586702D01*
X169279240Y-67035715D01*
X169068831Y-66526485D01*
X168679564Y-66136539D01*
X168170702Y-65925241D01*
X167619715Y-65924760D01*
X167110485Y-66135169D01*
X166720539Y-66524436D01*
X166624024Y-66756870D01*
X166528831Y-66526485D01*
X166139564Y-66136539D01*
X165630702Y-65925241D01*
X165079715Y-65924760D01*
X164570485Y-66135169D01*
X164180539Y-66524436D01*
X164084024Y-66756870D01*
X163988831Y-66526485D01*
X163599564Y-66136539D01*
X163090702Y-65925241D01*
X162539715Y-65924760D01*
X162030485Y-66135169D01*
X161640539Y-66524436D01*
X161544024Y-66756870D01*
X161448831Y-66526485D01*
X161059564Y-66136539D01*
X160550702Y-65925241D01*
X159999715Y-65924760D01*
X159490485Y-66135169D01*
X159100539Y-66524436D01*
X158889241Y-67033298D01*
X158888840Y-67492943D01*
X158873533Y-67460556D01*
X158128007Y-67171429D01*
X157328586Y-67189611D01*
X156674467Y-67460556D01*
X156529946Y-67766341D01*
X118345593Y-67766341D01*
X134532939Y-65044285D01*
X160158760Y-65044285D01*
X160369169Y-65553515D01*
X160758436Y-65943461D01*
X161267298Y-66154759D01*
X161818285Y-66155240D01*
X162327515Y-65944831D01*
X162717461Y-65555564D01*
X162813976Y-65323130D01*
X162909169Y-65553515D01*
X163298436Y-65943461D01*
X163807298Y-66154759D01*
X164358285Y-66155240D01*
X164867515Y-65944831D01*
X165257461Y-65555564D01*
X165353976Y-65323130D01*
X165449169Y-65553515D01*
X165838436Y-65943461D01*
X166347298Y-66154759D01*
X166898285Y-66155240D01*
X167407515Y-65944831D01*
X167611183Y-65741517D01*
X168372088Y-65741517D01*
X168440077Y-65982460D01*
X168959171Y-66167201D01*
X169509448Y-66139230D01*
X169887923Y-65982460D01*
X169955912Y-65741517D01*
X169164000Y-64949605D01*
X168372088Y-65741517D01*
X167611183Y-65741517D01*
X167797461Y-65555564D01*
X167887377Y-65339021D01*
X167951540Y-65493923D01*
X168192483Y-65561912D01*
X168984395Y-64770000D01*
X169343605Y-64770000D01*
X170135517Y-65561912D01*
X170376460Y-65493923D01*
X170561201Y-64974829D01*
X170533230Y-64424552D01*
X170376460Y-64046077D01*
X170135517Y-63978088D01*
X169343605Y-64770000D01*
X168984395Y-64770000D01*
X168192483Y-63978088D01*
X167951540Y-64046077D01*
X167892268Y-64212621D01*
X167798831Y-63986485D01*
X167611157Y-63798483D01*
X168372088Y-63798483D01*
X169164000Y-64590395D01*
X169955912Y-63798483D01*
X169887923Y-63557540D01*
X169368829Y-63372799D01*
X168818552Y-63400770D01*
X168440077Y-63557540D01*
X168372088Y-63798483D01*
X167611157Y-63798483D01*
X167409564Y-63596539D01*
X166900702Y-63385241D01*
X166349715Y-63384760D01*
X165840485Y-63595169D01*
X165450539Y-63984436D01*
X165354024Y-64216870D01*
X165258831Y-63986485D01*
X164869564Y-63596539D01*
X164360702Y-63385241D01*
X163809715Y-63384760D01*
X163300485Y-63595169D01*
X162910539Y-63984436D01*
X162814024Y-64216870D01*
X162718831Y-63986485D01*
X162329564Y-63596539D01*
X161820702Y-63385241D01*
X161269715Y-63384760D01*
X160760485Y-63595169D01*
X160370539Y-63984436D01*
X160159241Y-64493298D01*
X160158760Y-65044285D01*
X134532939Y-65044285D01*
X178695852Y-57617872D01*
X179482838Y-57641291D01*
X179482838Y-57641291D01*
G37*
X179482838Y-57641291D02*
X180138221Y-57935892D01*
X180630973Y-58458869D01*
X180900229Y-59167859D01*
X180925000Y-59464549D01*
X180925000Y-93217675D01*
X180771398Y-93989885D01*
X180372193Y-94587335D01*
X179764597Y-94993318D01*
X179141963Y-95139579D01*
X99166408Y-100646440D01*
X98385472Y-100546247D01*
X97762008Y-100189028D01*
X97322705Y-99620410D01*
X97119540Y-98872068D01*
X97116673Y-98788694D01*
X97116673Y-94618795D01*
X105910716Y-94618795D01*
X106159106Y-95219943D01*
X106618637Y-95680278D01*
X107219352Y-95929716D01*
X107869795Y-95930284D01*
X108470943Y-95681894D01*
X108931278Y-95222363D01*
X109180716Y-94621648D01*
X109180718Y-94618795D01*
X144310716Y-94618795D01*
X144559106Y-95219943D01*
X145018637Y-95680278D01*
X145619352Y-95929716D01*
X146269795Y-95930284D01*
X146870943Y-95681894D01*
X147331278Y-95222363D01*
X147580716Y-94621648D01*
X147581284Y-93971205D01*
X147332894Y-93370057D01*
X146873363Y-92909722D01*
X146272648Y-92660284D01*
X145622205Y-92659716D01*
X145021057Y-92908106D01*
X144560722Y-93367637D01*
X144311284Y-93968352D01*
X144310716Y-94618795D01*
X109180718Y-94618795D01*
X109181284Y-93971205D01*
X108932894Y-93370057D01*
X108473363Y-92909722D01*
X107872648Y-92660284D01*
X107222205Y-92659716D01*
X106621057Y-92908106D01*
X106160722Y-93367637D01*
X105911284Y-93968352D01*
X105910716Y-94618795D01*
X97116673Y-94618795D01*
X97116673Y-79375481D01*
X98536777Y-79375481D01*
X98731995Y-79847943D01*
X99093155Y-80209735D01*
X99530182Y-80391205D01*
X99095057Y-80570995D01*
X98733265Y-80932155D01*
X98537223Y-81404276D01*
X98536777Y-81915481D01*
X98731995Y-82387943D01*
X99093155Y-82749735D01*
X99530182Y-82931205D01*
X99095057Y-83110995D01*
X98733265Y-83472155D01*
X98537223Y-83944276D01*
X98536777Y-84455481D01*
X98731995Y-84927943D01*
X99093155Y-85289735D01*
X99530182Y-85471205D01*
X99095057Y-85650995D01*
X98733265Y-86012155D01*
X98537223Y-86484276D01*
X98536777Y-86995481D01*
X98731995Y-87467943D01*
X99093155Y-87829735D01*
X99530182Y-88011205D01*
X99095057Y-88190995D01*
X98733265Y-88552155D01*
X98537223Y-89024276D01*
X98536777Y-89535481D01*
X98731995Y-90007943D01*
X99093155Y-90369735D01*
X99530182Y-90551205D01*
X99095057Y-90730995D01*
X98733265Y-91092155D01*
X98537223Y-91564276D01*
X98536777Y-92075481D01*
X98731995Y-92547943D01*
X99093155Y-92909735D01*
X99565276Y-93105777D01*
X100076481Y-93106223D01*
X100548943Y-92911005D01*
X100910735Y-92549845D01*
X101106777Y-92077724D01*
X101107223Y-91566519D01*
X100912005Y-91094057D01*
X100550845Y-90732265D01*
X100113818Y-90550795D01*
X100548943Y-90371005D01*
X100910735Y-90009845D01*
X101106777Y-89537724D01*
X101107223Y-89026519D01*
X100912005Y-88554057D01*
X100550845Y-88192265D01*
X100113818Y-88010795D01*
X100548943Y-87831005D01*
X100910735Y-87469845D01*
X101106777Y-86997724D01*
X101107223Y-86486519D01*
X100912005Y-86014057D01*
X100550845Y-85652265D01*
X100113818Y-85470795D01*
X100548943Y-85291005D01*
X100910735Y-84929845D01*
X101106777Y-84457724D01*
X101107223Y-83946519D01*
X100912005Y-83474057D01*
X100550845Y-83112265D01*
X100113818Y-82930795D01*
X100548943Y-82751005D01*
X100910735Y-82389845D01*
X101106777Y-81917724D01*
X101107223Y-81406519D01*
X100912005Y-80934057D01*
X100550845Y-80572265D01*
X100113818Y-80390795D01*
X100548943Y-80211005D01*
X100910735Y-79849845D01*
X101106777Y-79377724D01*
X101107223Y-78866519D01*
X100912005Y-78394057D01*
X100550845Y-78032265D01*
X100114800Y-77851203D01*
X100151428Y-77849083D01*
X100485729Y-77710611D01*
X100541410Y-77480016D01*
X99822000Y-76760605D01*
X99102590Y-77480016D01*
X99158271Y-77710611D01*
X99544860Y-77845139D01*
X99095057Y-78030995D01*
X98733265Y-78392155D01*
X98537223Y-78864276D01*
X98536777Y-79375481D01*
X97116673Y-79375481D01*
X97116673Y-76400078D01*
X98524378Y-76400078D01*
X98553917Y-76910428D01*
X98692389Y-77244729D01*
X98922984Y-77300410D01*
X99642395Y-76581000D01*
X100001605Y-76581000D01*
X100721016Y-77300410D01*
X100951611Y-77244729D01*
X101119622Y-76761922D01*
X101090083Y-76251572D01*
X100951611Y-75917271D01*
X100721016Y-75861590D01*
X100001605Y-76581000D01*
X99642395Y-76581000D01*
X98922984Y-75861590D01*
X98692389Y-75917271D01*
X98524378Y-76400078D01*
X97116673Y-76400078D01*
X97116673Y-74234795D01*
X98926716Y-74234795D01*
X99175106Y-74835943D01*
X99634637Y-75296278D01*
X99652426Y-75303665D01*
X99492572Y-75312917D01*
X99158271Y-75451389D01*
X99102590Y-75681984D01*
X99822000Y-76401395D01*
X100541410Y-75681984D01*
X100508563Y-75545955D01*
X100885795Y-75546284D01*
X101076863Y-75467336D01*
X101076777Y-75565481D01*
X101271995Y-76037943D01*
X101633155Y-76399735D01*
X102070182Y-76581205D01*
X101635057Y-76760995D01*
X101273265Y-77122155D01*
X101077223Y-77594276D01*
X101076777Y-78105481D01*
X101271995Y-78577943D01*
X101633155Y-78939735D01*
X102070182Y-79121205D01*
X101635057Y-79300995D01*
X101273265Y-79662155D01*
X101077223Y-80134276D01*
X101076777Y-80645481D01*
X101271995Y-81117943D01*
X101633155Y-81479735D01*
X102070182Y-81661205D01*
X101635057Y-81840995D01*
X101273265Y-82202155D01*
X101077223Y-82674276D01*
X101076777Y-83185481D01*
X101271995Y-83657943D01*
X101633155Y-84019735D01*
X102070182Y-84201205D01*
X101635057Y-84380995D01*
X101273265Y-84742155D01*
X101077223Y-85214276D01*
X101076777Y-85725481D01*
X101271995Y-86197943D01*
X101633155Y-86559735D01*
X102070182Y-86741205D01*
X101635057Y-86920995D01*
X101273265Y-87282155D01*
X101077223Y-87754276D01*
X101076777Y-88265481D01*
X101271995Y-88737943D01*
X101633155Y-89099735D01*
X102070182Y-89281205D01*
X101635057Y-89460995D01*
X101273265Y-89822155D01*
X101077223Y-90294276D01*
X101076777Y-90805481D01*
X101271995Y-91277943D01*
X101633155Y-91639735D01*
X102105276Y-91835777D01*
X102616481Y-91836223D01*
X103088943Y-91641005D01*
X103312523Y-91417815D01*
X116610630Y-91417815D01*
X116934980Y-92202800D01*
X117535041Y-92803909D01*
X118319459Y-93129628D01*
X119168815Y-93130370D01*
X119953800Y-92806020D01*
X120554909Y-92205959D01*
X120746068Y-91745598D01*
X120934980Y-92202800D01*
X121535041Y-92803909D01*
X122319459Y-93129628D01*
X123168815Y-93130370D01*
X123953800Y-92806020D01*
X124554909Y-92205959D01*
X124746068Y-91745598D01*
X124934980Y-92202800D01*
X125535041Y-92803909D01*
X126319459Y-93129628D01*
X127168815Y-93130370D01*
X127953800Y-92806020D01*
X128554909Y-92205959D01*
X128746068Y-91745598D01*
X128934980Y-92202800D01*
X129535041Y-92803909D01*
X130319459Y-93129628D01*
X131168815Y-93130370D01*
X131953800Y-92806020D01*
X132554909Y-92205959D01*
X132746068Y-91745598D01*
X132934980Y-92202800D01*
X133535041Y-92803909D01*
X134319459Y-93129628D01*
X135168815Y-93130370D01*
X135953800Y-92806020D01*
X136554909Y-92205959D01*
X136880628Y-91421541D01*
X136881370Y-90572185D01*
X136557020Y-89787200D01*
X135956959Y-89186091D01*
X135172541Y-88860372D01*
X134323185Y-88859630D01*
X133538200Y-89183980D01*
X132937091Y-89784041D01*
X132745932Y-90244402D01*
X132557020Y-89787200D01*
X131956959Y-89186091D01*
X131172541Y-88860372D01*
X130323185Y-88859630D01*
X129538200Y-89183980D01*
X128937091Y-89784041D01*
X128745932Y-90244402D01*
X128557020Y-89787200D01*
X127956959Y-89186091D01*
X127172541Y-88860372D01*
X126323185Y-88859630D01*
X125538200Y-89183980D01*
X124937091Y-89784041D01*
X124745932Y-90244402D01*
X124557020Y-89787200D01*
X123956959Y-89186091D01*
X123172541Y-88860372D01*
X122323185Y-88859630D01*
X121538200Y-89183980D01*
X120937091Y-89784041D01*
X120745932Y-90244402D01*
X120557020Y-89787200D01*
X119956959Y-89186091D01*
X119172541Y-88860372D01*
X118323185Y-88859630D01*
X117538200Y-89183980D01*
X116937091Y-89784041D01*
X116611372Y-90568459D01*
X116610630Y-91417815D01*
X103312523Y-91417815D01*
X103450735Y-91279845D01*
X103646777Y-90807724D01*
X103647223Y-90296519D01*
X103452005Y-89824057D01*
X103090845Y-89462265D01*
X102653818Y-89280795D01*
X103088943Y-89101005D01*
X103450735Y-88739845D01*
X103646777Y-88267724D01*
X103647095Y-87902962D01*
X110185643Y-87902962D01*
X110498599Y-88660372D01*
X111077580Y-89240365D01*
X111834443Y-89554642D01*
X112653962Y-89555357D01*
X113411372Y-89242401D01*
X113991365Y-88663420D01*
X114305642Y-87906557D01*
X114306068Y-87417815D01*
X118610630Y-87417815D01*
X118934980Y-88202800D01*
X119535041Y-88803909D01*
X120319459Y-89129628D01*
X121168815Y-89130370D01*
X121953800Y-88806020D01*
X122554909Y-88205959D01*
X122746068Y-87745598D01*
X122934980Y-88202800D01*
X123535041Y-88803909D01*
X124319459Y-89129628D01*
X125168815Y-89130370D01*
X125953800Y-88806020D01*
X126554909Y-88205959D01*
X126746068Y-87745598D01*
X126934980Y-88202800D01*
X127535041Y-88803909D01*
X128319459Y-89129628D01*
X129168815Y-89130370D01*
X129953800Y-88806020D01*
X130554909Y-88205959D01*
X130746068Y-87745598D01*
X130934980Y-88202800D01*
X131535041Y-88803909D01*
X132319459Y-89129628D01*
X133168815Y-89130370D01*
X133953800Y-88806020D01*
X134554909Y-88205959D01*
X134680724Y-87902962D01*
X139135643Y-87902962D01*
X139448599Y-88660372D01*
X140027580Y-89240365D01*
X140784443Y-89554642D01*
X141603962Y-89555357D01*
X142361372Y-89242401D01*
X142941365Y-88663420D01*
X143255642Y-87906557D01*
X143256357Y-87087038D01*
X142943401Y-86329628D01*
X142364420Y-85749635D01*
X141607557Y-85435358D01*
X140788038Y-85434643D01*
X140030628Y-85747599D01*
X139450635Y-86326580D01*
X139136358Y-87083443D01*
X139135643Y-87902962D01*
X134680724Y-87902962D01*
X134880628Y-87421541D01*
X134881370Y-86572185D01*
X134557020Y-85787200D01*
X133956959Y-85186091D01*
X133172541Y-84860372D01*
X132323185Y-84859630D01*
X131538200Y-85183980D01*
X130937091Y-85784041D01*
X130745932Y-86244402D01*
X130557020Y-85787200D01*
X129956959Y-85186091D01*
X129635000Y-85052402D01*
X129635000Y-84845416D01*
X130319459Y-85129628D01*
X131168815Y-85130370D01*
X131953800Y-84806020D01*
X132554909Y-84205959D01*
X132746068Y-83745598D01*
X132934980Y-84202800D01*
X133535041Y-84803909D01*
X134319459Y-85129628D01*
X135168815Y-85130370D01*
X135953800Y-84806020D01*
X136554909Y-84205959D01*
X136880628Y-83421541D01*
X136881370Y-82572185D01*
X136557020Y-81787200D01*
X136177964Y-81407481D01*
X175498777Y-81407481D01*
X175693995Y-81879943D01*
X176055155Y-82241735D01*
X176492182Y-82423205D01*
X176057057Y-82602995D01*
X175695265Y-82964155D01*
X175499223Y-83436276D01*
X175498777Y-83947481D01*
X175693995Y-84419943D01*
X176055155Y-84781735D01*
X176492182Y-84963205D01*
X176057057Y-85142995D01*
X175695265Y-85504155D01*
X175499223Y-85976276D01*
X175498777Y-86487481D01*
X175693995Y-86959943D01*
X176055155Y-87321735D01*
X176527276Y-87517777D01*
X177038481Y-87518223D01*
X177510943Y-87323005D01*
X177872735Y-86961845D01*
X178068777Y-86489724D01*
X178069223Y-85978519D01*
X177874005Y-85506057D01*
X177512845Y-85144265D01*
X177075818Y-84962795D01*
X177510943Y-84783005D01*
X177872735Y-84421845D01*
X178068777Y-83949724D01*
X178069223Y-83438519D01*
X177874005Y-82966057D01*
X177512845Y-82604265D01*
X177075818Y-82422795D01*
X177510943Y-82243005D01*
X177872735Y-81881845D01*
X178068777Y-81409724D01*
X178069223Y-80898519D01*
X177874005Y-80426057D01*
X177566524Y-80118038D01*
X177847795Y-80118284D01*
X178038863Y-80039336D01*
X178038777Y-80137481D01*
X178233995Y-80609943D01*
X178595155Y-80971735D01*
X179032182Y-81153205D01*
X178597057Y-81332995D01*
X178235265Y-81694155D01*
X178039223Y-82166276D01*
X178038777Y-82677481D01*
X178233995Y-83149943D01*
X178595155Y-83511735D01*
X179032182Y-83693205D01*
X178597057Y-83872995D01*
X178235265Y-84234155D01*
X178039223Y-84706276D01*
X178038777Y-85217481D01*
X178233995Y-85689943D01*
X178595155Y-86051735D01*
X179067276Y-86247777D01*
X179578481Y-86248223D01*
X180050943Y-86053005D01*
X180412735Y-85691845D01*
X180608777Y-85219724D01*
X180609223Y-84708519D01*
X180414005Y-84236057D01*
X180052845Y-83874265D01*
X179615818Y-83692795D01*
X180050943Y-83513005D01*
X180412735Y-83151845D01*
X180608777Y-82679724D01*
X180609223Y-82168519D01*
X180414005Y-81696057D01*
X180052845Y-81334265D01*
X179615818Y-81152795D01*
X180050943Y-80973005D01*
X180412735Y-80611845D01*
X180608777Y-80139724D01*
X180609223Y-79628519D01*
X180414005Y-79156057D01*
X180052845Y-78794265D01*
X179580724Y-78598223D01*
X179158901Y-78597855D01*
X179159284Y-78159205D01*
X178910894Y-77558057D01*
X178451363Y-77097722D01*
X177850648Y-76848284D01*
X177200205Y-76847716D01*
X176599057Y-77096106D01*
X176138722Y-77555637D01*
X175889284Y-78156352D01*
X175888716Y-78806795D01*
X176137106Y-79407943D01*
X176596195Y-79867835D01*
X176529519Y-79867777D01*
X176057057Y-80062995D01*
X175695265Y-80424155D01*
X175499223Y-80896276D01*
X175498777Y-81407481D01*
X136177964Y-81407481D01*
X135956959Y-81186091D01*
X135172541Y-80860372D01*
X134323185Y-80859630D01*
X133538200Y-81183980D01*
X132937091Y-81784041D01*
X132745932Y-82244402D01*
X132557020Y-81787200D01*
X131956959Y-81186091D01*
X131172541Y-80860372D01*
X130323185Y-80859630D01*
X129635000Y-81143983D01*
X129635000Y-79343000D01*
X129567329Y-79002794D01*
X129374618Y-78714382D01*
X127838762Y-77178526D01*
X127793117Y-77068057D01*
X127530327Y-76804808D01*
X127186799Y-76662162D01*
X126814833Y-76661838D01*
X126471057Y-76803883D01*
X126207808Y-77066673D01*
X126065162Y-77410201D01*
X126064838Y-77782167D01*
X126206883Y-78125943D01*
X126469673Y-78389192D01*
X126581313Y-78435549D01*
X127857000Y-79711236D01*
X127857000Y-81137337D01*
X127129813Y-80852277D01*
X126280613Y-80868503D01*
X125571418Y-81162261D01*
X125411635Y-81481030D01*
X126746000Y-82815395D01*
X126760143Y-82801253D01*
X126939748Y-82980858D01*
X126925605Y-82995000D01*
X126939748Y-83009143D01*
X126760143Y-83188748D01*
X126746000Y-83174605D01*
X125411635Y-84508970D01*
X125571418Y-84827739D01*
X126362187Y-85137723D01*
X127211387Y-85121497D01*
X127857000Y-84854076D01*
X127857000Y-85052254D01*
X127538200Y-85183980D01*
X126937091Y-85784041D01*
X126745932Y-86244402D01*
X126557020Y-85787200D01*
X125956959Y-85186091D01*
X125172541Y-84860372D01*
X124323185Y-84859630D01*
X123538200Y-85183980D01*
X122937091Y-85784041D01*
X122745932Y-86244402D01*
X122557020Y-85787200D01*
X121956959Y-85186091D01*
X121172541Y-84860372D01*
X120323185Y-84859630D01*
X119538200Y-85183980D01*
X118937091Y-85784041D01*
X118611372Y-86568459D01*
X118610630Y-87417815D01*
X114306068Y-87417815D01*
X114306357Y-87087038D01*
X113993401Y-86329628D01*
X113414420Y-85749635D01*
X112657557Y-85435358D01*
X111838038Y-85434643D01*
X111080628Y-85747599D01*
X110500635Y-86326580D01*
X110186358Y-87083443D01*
X110185643Y-87902962D01*
X103647095Y-87902962D01*
X103647223Y-87756519D01*
X103452005Y-87284057D01*
X103090845Y-86922265D01*
X102653818Y-86740795D01*
X103088943Y-86561005D01*
X103450735Y-86199845D01*
X103646777Y-85727724D01*
X103647223Y-85216519D01*
X103452005Y-84744057D01*
X103217329Y-84508970D01*
X117411635Y-84508970D01*
X117571418Y-84827739D01*
X118362187Y-85137723D01*
X119211387Y-85121497D01*
X119920582Y-84827739D01*
X120080365Y-84508970D01*
X121411635Y-84508970D01*
X121571418Y-84827739D01*
X122362187Y-85137723D01*
X123211387Y-85121497D01*
X123920582Y-84827739D01*
X124080365Y-84508970D01*
X122746000Y-83174605D01*
X121411635Y-84508970D01*
X120080365Y-84508970D01*
X118746000Y-83174605D01*
X117411635Y-84508970D01*
X103217329Y-84508970D01*
X103090845Y-84382265D01*
X102653818Y-84200795D01*
X103088943Y-84021005D01*
X103450735Y-83659845D01*
X103646777Y-83187724D01*
X103647223Y-82676519D01*
X103620229Y-82611187D01*
X116603277Y-82611187D01*
X116619503Y-83460387D01*
X116913261Y-84169582D01*
X117232030Y-84329365D01*
X118566395Y-82995000D01*
X118925605Y-82995000D01*
X120259970Y-84329365D01*
X120578739Y-84169582D01*
X120741392Y-83754654D01*
X120913261Y-84169582D01*
X121232030Y-84329365D01*
X122566395Y-82995000D01*
X122925605Y-82995000D01*
X124259970Y-84329365D01*
X124578739Y-84169582D01*
X124741392Y-83754654D01*
X124913261Y-84169582D01*
X125232030Y-84329365D01*
X126566395Y-82995000D01*
X125232030Y-81660635D01*
X124913261Y-81820418D01*
X124750608Y-82235346D01*
X124578739Y-81820418D01*
X124259970Y-81660635D01*
X122925605Y-82995000D01*
X122566395Y-82995000D01*
X121232030Y-81660635D01*
X120913261Y-81820418D01*
X120750608Y-82235346D01*
X120578739Y-81820418D01*
X120259970Y-81660635D01*
X118925605Y-82995000D01*
X118566395Y-82995000D01*
X117232030Y-81660635D01*
X116913261Y-81820418D01*
X116603277Y-82611187D01*
X103620229Y-82611187D01*
X103452005Y-82204057D01*
X103090845Y-81842265D01*
X102653818Y-81660795D01*
X103088882Y-81481030D01*
X117411635Y-81481030D01*
X118746000Y-82815395D01*
X120080365Y-81481030D01*
X121411635Y-81481030D01*
X122746000Y-82815395D01*
X124080365Y-81481030D01*
X123920582Y-81162261D01*
X123129813Y-80852277D01*
X122280613Y-80868503D01*
X121571418Y-81162261D01*
X121411635Y-81481030D01*
X120080365Y-81481030D01*
X119920582Y-81162261D01*
X119129813Y-80852277D01*
X118280613Y-80868503D01*
X117571418Y-81162261D01*
X117411635Y-81481030D01*
X103088882Y-81481030D01*
X103088943Y-81481005D01*
X103450735Y-81119845D01*
X103646777Y-80647724D01*
X103647223Y-80136519D01*
X103452005Y-79664057D01*
X103090845Y-79302265D01*
X102653818Y-79120795D01*
X103088943Y-78941005D01*
X103450735Y-78579845D01*
X103646777Y-78107724D01*
X103647223Y-77596519D01*
X103452005Y-77124057D01*
X103090845Y-76762265D01*
X102653818Y-76580795D01*
X102803869Y-76518795D01*
X107410716Y-76518795D01*
X107659106Y-77119943D01*
X108118637Y-77580278D01*
X108719352Y-77829716D01*
X109369795Y-77830284D01*
X109970943Y-77581894D01*
X110431278Y-77122363D01*
X110680716Y-76521648D01*
X110680718Y-76518795D01*
X142810716Y-76518795D01*
X143059106Y-77119943D01*
X143518637Y-77580278D01*
X144119352Y-77829716D01*
X144769795Y-77830284D01*
X145370943Y-77581894D01*
X145831278Y-77122363D01*
X146080716Y-76521648D01*
X146081284Y-75871205D01*
X145832894Y-75270057D01*
X145373363Y-74809722D01*
X144772648Y-74560284D01*
X144122205Y-74559716D01*
X143521057Y-74808106D01*
X143060722Y-75267637D01*
X142811284Y-75868352D01*
X142810716Y-76518795D01*
X110680718Y-76518795D01*
X110681284Y-75871205D01*
X110432894Y-75270057D01*
X109973363Y-74809722D01*
X109372648Y-74560284D01*
X108722205Y-74559716D01*
X108121057Y-74808106D01*
X107660722Y-75267637D01*
X107411284Y-75868352D01*
X107410716Y-76518795D01*
X102803869Y-76518795D01*
X103088943Y-76401005D01*
X103450735Y-76039845D01*
X103646777Y-75567724D01*
X103647223Y-75056519D01*
X103452005Y-74584057D01*
X103090845Y-74222265D01*
X103071628Y-74214285D01*
X156788760Y-74214285D01*
X156999169Y-74723515D01*
X157388436Y-75113461D01*
X157897298Y-75324759D01*
X158448285Y-75325240D01*
X158957515Y-75114831D01*
X159161183Y-74911517D01*
X159922088Y-74911517D01*
X159990077Y-75152460D01*
X160509171Y-75337201D01*
X161059448Y-75309230D01*
X161437923Y-75152460D01*
X161505912Y-74911517D01*
X160714000Y-74119605D01*
X159922088Y-74911517D01*
X159161183Y-74911517D01*
X159347461Y-74725564D01*
X159437377Y-74509021D01*
X159501540Y-74663923D01*
X159742483Y-74731912D01*
X160534395Y-73940000D01*
X160893605Y-73940000D01*
X161685517Y-74731912D01*
X161926460Y-74663923D01*
X162086482Y-74214285D01*
X167348760Y-74214285D01*
X167559169Y-74723515D01*
X167948436Y-75113461D01*
X168457298Y-75324759D01*
X169008285Y-75325240D01*
X169517515Y-75114831D01*
X169721183Y-74911517D01*
X170482088Y-74911517D01*
X170550077Y-75152460D01*
X171069171Y-75337201D01*
X171619448Y-75309230D01*
X171997923Y-75152460D01*
X172065912Y-74911517D01*
X171274000Y-74119605D01*
X170482088Y-74911517D01*
X169721183Y-74911517D01*
X169907461Y-74725564D01*
X169997377Y-74509021D01*
X170061540Y-74663923D01*
X170302483Y-74731912D01*
X171094395Y-73940000D01*
X171453605Y-73940000D01*
X172245517Y-74731912D01*
X172486460Y-74663923D01*
X172671201Y-74144829D01*
X172643230Y-73594552D01*
X172486460Y-73216077D01*
X172245517Y-73148088D01*
X171453605Y-73940000D01*
X171094395Y-73940000D01*
X170302483Y-73148088D01*
X170061540Y-73216077D01*
X170002268Y-73382621D01*
X169908831Y-73156485D01*
X169721157Y-72968483D01*
X170482088Y-72968483D01*
X171274000Y-73760395D01*
X172065912Y-72968483D01*
X171997923Y-72727540D01*
X171478829Y-72542799D01*
X170928552Y-72570770D01*
X170550077Y-72727540D01*
X170482088Y-72968483D01*
X169721157Y-72968483D01*
X169519564Y-72766539D01*
X169010702Y-72555241D01*
X168459715Y-72554760D01*
X167950485Y-72765169D01*
X167560539Y-73154436D01*
X167349241Y-73663298D01*
X167348760Y-74214285D01*
X162086482Y-74214285D01*
X162111201Y-74144829D01*
X162083230Y-73594552D01*
X161926460Y-73216077D01*
X161685517Y-73148088D01*
X160893605Y-73940000D01*
X160534395Y-73940000D01*
X159742483Y-73148088D01*
X159501540Y-73216077D01*
X159442268Y-73382621D01*
X159348831Y-73156485D01*
X159161157Y-72968483D01*
X159922088Y-72968483D01*
X160714000Y-73760395D01*
X161505912Y-72968483D01*
X161437923Y-72727540D01*
X160918829Y-72542799D01*
X160368552Y-72570770D01*
X159990077Y-72727540D01*
X159922088Y-72968483D01*
X159161157Y-72968483D01*
X158959564Y-72766539D01*
X158450702Y-72555241D01*
X157899715Y-72554760D01*
X157390485Y-72765169D01*
X157000539Y-73154436D01*
X156789241Y-73663298D01*
X156788760Y-74214285D01*
X103071628Y-74214285D01*
X102618724Y-74026223D01*
X102196901Y-74025855D01*
X102197284Y-73587205D01*
X101948894Y-72986057D01*
X101489363Y-72525722D01*
X100888648Y-72276284D01*
X100238205Y-72275716D01*
X99637057Y-72524106D01*
X99176722Y-72983637D01*
X98927284Y-73584352D01*
X98926716Y-74234795D01*
X97116673Y-74234795D01*
X97116673Y-72456297D01*
X97416008Y-71822134D01*
X97950490Y-71336953D01*
X98651779Y-71078043D01*
X101413347Y-70613659D01*
X156529946Y-70613659D01*
X156674467Y-70919444D01*
X157419993Y-71208571D01*
X158219414Y-71190389D01*
X158873533Y-70919444D01*
X159018054Y-70613659D01*
X170429946Y-70613659D01*
X170574467Y-70919444D01*
X171319993Y-71208571D01*
X172119414Y-71190389D01*
X172773533Y-70919444D01*
X172918054Y-70613659D01*
X171674000Y-69369605D01*
X170429946Y-70613659D01*
X159018054Y-70613659D01*
X157774000Y-69369605D01*
X156529946Y-70613659D01*
X101413347Y-70613659D01*
X111984656Y-68835993D01*
X155755429Y-68835993D01*
X155773611Y-69635414D01*
X156044556Y-70289533D01*
X156350341Y-70434054D01*
X157594395Y-69190000D01*
X156350341Y-67945946D01*
X156044556Y-68090467D01*
X155755429Y-68835993D01*
X111984656Y-68835993D01*
X118345593Y-67766341D01*
X156529946Y-67766341D01*
X157774000Y-69010395D01*
X157788143Y-68996253D01*
X157967748Y-69175858D01*
X157953605Y-69190000D01*
X159197659Y-70434054D01*
X159503444Y-70289533D01*
X159792571Y-69544007D01*
X159776468Y-68835993D01*
X169655429Y-68835993D01*
X169673611Y-69635414D01*
X169944556Y-70289533D01*
X170250341Y-70434054D01*
X171494395Y-69190000D01*
X171853605Y-69190000D01*
X173097659Y-70434054D01*
X173403444Y-70289533D01*
X173692571Y-69544007D01*
X173674389Y-68744586D01*
X173403444Y-68090467D01*
X173097659Y-67945946D01*
X171853605Y-69190000D01*
X171494395Y-69190000D01*
X170250341Y-67945946D01*
X169944556Y-68090467D01*
X169655429Y-68835993D01*
X159776468Y-68835993D01*
X159774389Y-68744586D01*
X159703159Y-68572622D01*
X159997298Y-68694759D01*
X160548285Y-68695240D01*
X161057515Y-68484831D01*
X161447461Y-68095564D01*
X161543976Y-67863130D01*
X161639169Y-68093515D01*
X162028436Y-68483461D01*
X162537298Y-68694759D01*
X163088285Y-68695240D01*
X163597515Y-68484831D01*
X163987461Y-68095564D01*
X164083976Y-67863130D01*
X164179169Y-68093515D01*
X164568436Y-68483461D01*
X165077298Y-68694759D01*
X165628285Y-68695240D01*
X166137515Y-68484831D01*
X166527461Y-68095564D01*
X166623976Y-67863130D01*
X166719169Y-68093515D01*
X167108436Y-68483461D01*
X167617298Y-68694759D01*
X168168285Y-68695240D01*
X168677515Y-68484831D01*
X169067461Y-68095564D01*
X169204166Y-67766341D01*
X170429946Y-67766341D01*
X171674000Y-69010395D01*
X172918054Y-67766341D01*
X172773533Y-67460556D01*
X172028007Y-67171429D01*
X171228586Y-67189611D01*
X170574467Y-67460556D01*
X170429946Y-67766341D01*
X169204166Y-67766341D01*
X169278759Y-67586702D01*
X169279240Y-67035715D01*
X169068831Y-66526485D01*
X168679564Y-66136539D01*
X168170702Y-65925241D01*
X167619715Y-65924760D01*
X167110485Y-66135169D01*
X166720539Y-66524436D01*
X166624024Y-66756870D01*
X166528831Y-66526485D01*
X166139564Y-66136539D01*
X165630702Y-65925241D01*
X165079715Y-65924760D01*
X164570485Y-66135169D01*
X164180539Y-66524436D01*
X164084024Y-66756870D01*
X163988831Y-66526485D01*
X163599564Y-66136539D01*
X163090702Y-65925241D01*
X162539715Y-65924760D01*
X162030485Y-66135169D01*
X161640539Y-66524436D01*
X161544024Y-66756870D01*
X161448831Y-66526485D01*
X161059564Y-66136539D01*
X160550702Y-65925241D01*
X159999715Y-65924760D01*
X159490485Y-66135169D01*
X159100539Y-66524436D01*
X158889241Y-67033298D01*
X158888840Y-67492943D01*
X158873533Y-67460556D01*
X158128007Y-67171429D01*
X157328586Y-67189611D01*
X156674467Y-67460556D01*
X156529946Y-67766341D01*
X118345593Y-67766341D01*
X134532939Y-65044285D01*
X160158760Y-65044285D01*
X160369169Y-65553515D01*
X160758436Y-65943461D01*
X161267298Y-66154759D01*
X161818285Y-66155240D01*
X162327515Y-65944831D01*
X162717461Y-65555564D01*
X162813976Y-65323130D01*
X162909169Y-65553515D01*
X163298436Y-65943461D01*
X163807298Y-66154759D01*
X164358285Y-66155240D01*
X164867515Y-65944831D01*
X165257461Y-65555564D01*
X165353976Y-65323130D01*
X165449169Y-65553515D01*
X165838436Y-65943461D01*
X166347298Y-66154759D01*
X166898285Y-66155240D01*
X167407515Y-65944831D01*
X167611183Y-65741517D01*
X168372088Y-65741517D01*
X168440077Y-65982460D01*
X168959171Y-66167201D01*
X169509448Y-66139230D01*
X169887923Y-65982460D01*
X169955912Y-65741517D01*
X169164000Y-64949605D01*
X168372088Y-65741517D01*
X167611183Y-65741517D01*
X167797461Y-65555564D01*
X167887377Y-65339021D01*
X167951540Y-65493923D01*
X168192483Y-65561912D01*
X168984395Y-64770000D01*
X169343605Y-64770000D01*
X170135517Y-65561912D01*
X170376460Y-65493923D01*
X170561201Y-64974829D01*
X170533230Y-64424552D01*
X170376460Y-64046077D01*
X170135517Y-63978088D01*
X169343605Y-64770000D01*
X168984395Y-64770000D01*
X168192483Y-63978088D01*
X167951540Y-64046077D01*
X167892268Y-64212621D01*
X167798831Y-63986485D01*
X167611157Y-63798483D01*
X168372088Y-63798483D01*
X169164000Y-64590395D01*
X169955912Y-63798483D01*
X169887923Y-63557540D01*
X169368829Y-63372799D01*
X168818552Y-63400770D01*
X168440077Y-63557540D01*
X168372088Y-63798483D01*
X167611157Y-63798483D01*
X167409564Y-63596539D01*
X166900702Y-63385241D01*
X166349715Y-63384760D01*
X165840485Y-63595169D01*
X165450539Y-63984436D01*
X165354024Y-64216870D01*
X165258831Y-63986485D01*
X164869564Y-63596539D01*
X164360702Y-63385241D01*
X163809715Y-63384760D01*
X163300485Y-63595169D01*
X162910539Y-63984436D01*
X162814024Y-64216870D01*
X162718831Y-63986485D01*
X162329564Y-63596539D01*
X161820702Y-63385241D01*
X161269715Y-63384760D01*
X160760485Y-63595169D01*
X160370539Y-63984436D01*
X160159241Y-64493298D01*
X160158760Y-65044285D01*
X134532939Y-65044285D01*
X178695852Y-57617872D01*
X179482838Y-57641291D01*
M02*
