G04 #@! TF.FileFunction,Legend,Top*
%FSLAX46Y46*%
G04 Gerber Fmt 4.6, Leading zero omitted, Abs format (unit mm)*
G04 Created by KiCad (PCBNEW 4.0.7-e2-6376~58~ubuntu16.04.1) date Mon Feb 19 20:22:25 2018*
%MOMM*%
%LPD*%
G01*
G04 APERTURE LIST*
%ADD10C,0.100000*%
%ADD11C,0.152400*%
%ADD12C,0.150000*%
G04 APERTURE END LIST*
D10*
D11*
X161531907Y-90604219D02*
X161048098Y-90604219D01*
X161048098Y-89588219D01*
X162306002Y-90604219D02*
X162306002Y-90072029D01*
X162257621Y-89975267D01*
X162160859Y-89926886D01*
X161967336Y-89926886D01*
X161870574Y-89975267D01*
X162306002Y-90555838D02*
X162209240Y-90604219D01*
X161967336Y-90604219D01*
X161870574Y-90555838D01*
X161822193Y-90459076D01*
X161822193Y-90362314D01*
X161870574Y-90265552D01*
X161967336Y-90217171D01*
X162209240Y-90217171D01*
X162306002Y-90168790D01*
X163225240Y-89926886D02*
X163225240Y-90604219D01*
X162789812Y-89926886D02*
X162789812Y-90459076D01*
X162838193Y-90555838D01*
X162934955Y-90604219D01*
X163080097Y-90604219D01*
X163176859Y-90555838D01*
X163225240Y-90507457D01*
X163709050Y-90604219D02*
X163709050Y-89926886D01*
X163709050Y-90120410D02*
X163757431Y-90023648D01*
X163805812Y-89975267D01*
X163902574Y-89926886D01*
X163999335Y-89926886D01*
X164725049Y-90555838D02*
X164628287Y-90604219D01*
X164434764Y-90604219D01*
X164338002Y-90555838D01*
X164289621Y-90459076D01*
X164289621Y-90072029D01*
X164338002Y-89975267D01*
X164434764Y-89926886D01*
X164628287Y-89926886D01*
X164725049Y-89975267D01*
X164773430Y-90072029D01*
X164773430Y-90168790D01*
X164289621Y-90265552D01*
X165208859Y-89926886D02*
X165208859Y-90604219D01*
X165208859Y-90023648D02*
X165257240Y-89975267D01*
X165354002Y-89926886D01*
X165499144Y-89926886D01*
X165595906Y-89975267D01*
X165644287Y-90072029D01*
X165644287Y-90604219D01*
X166853811Y-90313933D02*
X167337620Y-90313933D01*
X166757049Y-90604219D02*
X167095716Y-89588219D01*
X167434382Y-90604219D01*
X167773049Y-89926886D02*
X167773049Y-90604219D01*
X167773049Y-90023648D02*
X167821430Y-89975267D01*
X167918192Y-89926886D01*
X168063334Y-89926886D01*
X168160096Y-89975267D01*
X168208477Y-90072029D01*
X168208477Y-90604219D01*
X168547144Y-89926886D02*
X168934192Y-89926886D01*
X168692287Y-90604219D02*
X168692287Y-89733362D01*
X168740668Y-89636600D01*
X168837430Y-89588219D01*
X168934192Y-89588219D01*
X169659905Y-90555838D02*
X169563143Y-90604219D01*
X169369620Y-90604219D01*
X169272858Y-90555838D01*
X169224477Y-90459076D01*
X169224477Y-90072029D01*
X169272858Y-89975267D01*
X169369620Y-89926886D01*
X169563143Y-89926886D01*
X169659905Y-89975267D01*
X169708286Y-90072029D01*
X169708286Y-90168790D01*
X169224477Y-90265552D01*
X170143715Y-89926886D02*
X170143715Y-90604219D01*
X170143715Y-90023648D02*
X170192096Y-89975267D01*
X170288858Y-89926886D01*
X170434000Y-89926886D01*
X170530762Y-89975267D01*
X170579143Y-90072029D01*
X170579143Y-90604219D01*
X171014572Y-90555838D02*
X171111334Y-90604219D01*
X171304858Y-90604219D01*
X171401619Y-90555838D01*
X171450000Y-90459076D01*
X171450000Y-90410695D01*
X171401619Y-90313933D01*
X171304858Y-90265552D01*
X171159715Y-90265552D01*
X171062953Y-90217171D01*
X171014572Y-90120410D01*
X171014572Y-90072029D01*
X171062953Y-89975267D01*
X171159715Y-89926886D01*
X171304858Y-89926886D01*
X171401619Y-89975267D01*
X172030572Y-90604219D02*
X171933810Y-90555838D01*
X171885429Y-90507457D01*
X171837048Y-90410695D01*
X171837048Y-90120410D01*
X171885429Y-90023648D01*
X171933810Y-89975267D01*
X172030572Y-89926886D01*
X172175714Y-89926886D01*
X172272476Y-89975267D01*
X172320857Y-90023648D01*
X172369238Y-90120410D01*
X172369238Y-90410695D01*
X172320857Y-90507457D01*
X172272476Y-90555838D01*
X172175714Y-90604219D01*
X172030572Y-90604219D01*
X172804667Y-89926886D02*
X172804667Y-90604219D01*
X172804667Y-90023648D02*
X172853048Y-89975267D01*
X172949810Y-89926886D01*
X173094952Y-89926886D01*
X173191714Y-89975267D01*
X173240095Y-90072029D01*
X173240095Y-90604219D01*
X154710195Y-91264619D02*
X154903718Y-91264619D01*
X155000480Y-91313000D01*
X155097242Y-91409762D01*
X155145623Y-91603286D01*
X155145623Y-91941952D01*
X155097242Y-92135476D01*
X155000480Y-92232238D01*
X154903718Y-92280619D01*
X154710195Y-92280619D01*
X154613433Y-92232238D01*
X154516671Y-92135476D01*
X154468290Y-91941952D01*
X154468290Y-91603286D01*
X154516671Y-91409762D01*
X154613433Y-91313000D01*
X154710195Y-91264619D01*
X155726195Y-92280619D02*
X155629433Y-92232238D01*
X155581052Y-92135476D01*
X155581052Y-91264619D01*
X156113242Y-92280619D02*
X156113242Y-91603286D01*
X156113242Y-91264619D02*
X156064861Y-91313000D01*
X156113242Y-91361381D01*
X156161623Y-91313000D01*
X156113242Y-91264619D01*
X156113242Y-91361381D01*
X156597052Y-91603286D02*
X156597052Y-92280619D01*
X156597052Y-91700048D02*
X156645433Y-91651667D01*
X156742195Y-91603286D01*
X156887337Y-91603286D01*
X156984099Y-91651667D01*
X157032480Y-91748429D01*
X157032480Y-92280619D01*
X158290385Y-91748429D02*
X158629051Y-91748429D01*
X158774194Y-92280619D02*
X158290385Y-92280619D01*
X158290385Y-91264619D01*
X158774194Y-91264619D01*
X159354766Y-92280619D02*
X159258004Y-92232238D01*
X159209623Y-92135476D01*
X159209623Y-91264619D01*
X160128860Y-92232238D02*
X160032098Y-92280619D01*
X159838575Y-92280619D01*
X159741813Y-92232238D01*
X159693432Y-92135476D01*
X159693432Y-91748429D01*
X159741813Y-91651667D01*
X159838575Y-91603286D01*
X160032098Y-91603286D01*
X160128860Y-91651667D01*
X160177241Y-91748429D01*
X160177241Y-91845190D01*
X159693432Y-91941952D01*
X161048098Y-92232238D02*
X160951336Y-92280619D01*
X160757813Y-92280619D01*
X160661051Y-92232238D01*
X160612670Y-92183857D01*
X160564289Y-92087095D01*
X160564289Y-91796810D01*
X160612670Y-91700048D01*
X160661051Y-91651667D01*
X160757813Y-91603286D01*
X160951336Y-91603286D01*
X161048098Y-91651667D01*
X161338384Y-91603286D02*
X161725432Y-91603286D01*
X161483527Y-91264619D02*
X161483527Y-92135476D01*
X161531908Y-92232238D01*
X161628670Y-92280619D01*
X161725432Y-92280619D01*
X162064098Y-92280619D02*
X162064098Y-91603286D01*
X162064098Y-91796810D02*
X162112479Y-91700048D01*
X162160860Y-91651667D01*
X162257622Y-91603286D01*
X162354383Y-91603286D01*
X162693050Y-92280619D02*
X162693050Y-91603286D01*
X162693050Y-91264619D02*
X162644669Y-91313000D01*
X162693050Y-91361381D01*
X162741431Y-91313000D01*
X162693050Y-91264619D01*
X162693050Y-91361381D01*
X163612288Y-92232238D02*
X163515526Y-92280619D01*
X163322003Y-92280619D01*
X163225241Y-92232238D01*
X163176860Y-92183857D01*
X163128479Y-92087095D01*
X163128479Y-91796810D01*
X163176860Y-91700048D01*
X163225241Y-91651667D01*
X163322003Y-91603286D01*
X163515526Y-91603286D01*
X163612288Y-91651667D01*
X164821812Y-92280619D02*
X164821812Y-91264619D01*
X165160478Y-91990333D01*
X165499145Y-91264619D01*
X165499145Y-92280619D01*
X166128098Y-92280619D02*
X166031336Y-92232238D01*
X165982955Y-92183857D01*
X165934574Y-92087095D01*
X165934574Y-91796810D01*
X165982955Y-91700048D01*
X166031336Y-91651667D01*
X166128098Y-91603286D01*
X166273240Y-91603286D01*
X166370002Y-91651667D01*
X166418383Y-91700048D01*
X166466764Y-91796810D01*
X166466764Y-92087095D01*
X166418383Y-92183857D01*
X166370002Y-92232238D01*
X166273240Y-92280619D01*
X166128098Y-92280619D01*
X166757050Y-91603286D02*
X167144098Y-91603286D01*
X166902193Y-91264619D02*
X166902193Y-92135476D01*
X166950574Y-92232238D01*
X167047336Y-92280619D01*
X167144098Y-92280619D01*
X167627907Y-92280619D02*
X167531145Y-92232238D01*
X167482764Y-92183857D01*
X167434383Y-92087095D01*
X167434383Y-91796810D01*
X167482764Y-91700048D01*
X167531145Y-91651667D01*
X167627907Y-91603286D01*
X167773049Y-91603286D01*
X167869811Y-91651667D01*
X167918192Y-91700048D01*
X167966573Y-91796810D01*
X167966573Y-92087095D01*
X167918192Y-92183857D01*
X167869811Y-92232238D01*
X167773049Y-92280619D01*
X167627907Y-92280619D01*
X168402002Y-92280619D02*
X168402002Y-91603286D01*
X168402002Y-91796810D02*
X168450383Y-91700048D01*
X168498764Y-91651667D01*
X168595526Y-91603286D01*
X168692287Y-91603286D01*
X168982573Y-92232238D02*
X169079335Y-92280619D01*
X169272859Y-92280619D01*
X169369620Y-92232238D01*
X169418001Y-92135476D01*
X169418001Y-92087095D01*
X169369620Y-91990333D01*
X169272859Y-91941952D01*
X169127716Y-91941952D01*
X169030954Y-91893571D01*
X168982573Y-91796810D01*
X168982573Y-91748429D01*
X169030954Y-91651667D01*
X169127716Y-91603286D01*
X169272859Y-91603286D01*
X169369620Y-91651667D01*
X169853430Y-91603286D02*
X169853430Y-92619286D01*
X169853430Y-91651667D02*
X169950192Y-91603286D01*
X170143715Y-91603286D01*
X170240477Y-91651667D01*
X170288858Y-91700048D01*
X170337239Y-91796810D01*
X170337239Y-92087095D01*
X170288858Y-92183857D01*
X170240477Y-92232238D01*
X170143715Y-92280619D01*
X169950192Y-92280619D01*
X169853430Y-92232238D01*
X170917811Y-92280619D02*
X170821049Y-92232238D01*
X170772668Y-92183857D01*
X170724287Y-92087095D01*
X170724287Y-91796810D01*
X170772668Y-91700048D01*
X170821049Y-91651667D01*
X170917811Y-91603286D01*
X171062953Y-91603286D01*
X171159715Y-91651667D01*
X171208096Y-91700048D01*
X171256477Y-91796810D01*
X171256477Y-92087095D01*
X171208096Y-92183857D01*
X171159715Y-92232238D01*
X171062953Y-92280619D01*
X170917811Y-92280619D01*
X171691906Y-92280619D02*
X171691906Y-91603286D01*
X171691906Y-91796810D02*
X171740287Y-91700048D01*
X171788668Y-91651667D01*
X171885430Y-91603286D01*
X171982191Y-91603286D01*
X172175715Y-91603286D02*
X172562763Y-91603286D01*
X172320858Y-91264619D02*
X172320858Y-92135476D01*
X172369239Y-92232238D01*
X172466001Y-92280619D01*
X172562763Y-92280619D01*
X172853048Y-92232238D02*
X172949810Y-92280619D01*
X173143334Y-92280619D01*
X173240095Y-92232238D01*
X173288476Y-92135476D01*
X173288476Y-92087095D01*
X173240095Y-91990333D01*
X173143334Y-91941952D01*
X172998191Y-91941952D01*
X172901429Y-91893571D01*
X172853048Y-91796810D01*
X172853048Y-91748429D01*
X172901429Y-91651667D01*
X172998191Y-91603286D01*
X173143334Y-91603286D01*
X173240095Y-91651667D01*
X152049242Y-93957019D02*
X152049242Y-92941019D01*
X152291147Y-92941019D01*
X152436289Y-92989400D01*
X152533051Y-93086162D01*
X152581432Y-93182924D01*
X152629813Y-93376448D01*
X152629813Y-93521590D01*
X152581432Y-93715114D01*
X152533051Y-93811876D01*
X152436289Y-93908638D01*
X152291147Y-93957019D01*
X152049242Y-93957019D01*
X153500670Y-93957019D02*
X153500670Y-93424829D01*
X153452289Y-93328067D01*
X153355527Y-93279686D01*
X153162004Y-93279686D01*
X153065242Y-93328067D01*
X153500670Y-93908638D02*
X153403908Y-93957019D01*
X153162004Y-93957019D01*
X153065242Y-93908638D01*
X153016861Y-93811876D01*
X153016861Y-93715114D01*
X153065242Y-93618352D01*
X153162004Y-93569971D01*
X153403908Y-93569971D01*
X153500670Y-93521590D01*
X153936099Y-93908638D02*
X154032861Y-93957019D01*
X154226385Y-93957019D01*
X154323146Y-93908638D01*
X154371527Y-93811876D01*
X154371527Y-93763495D01*
X154323146Y-93666733D01*
X154226385Y-93618352D01*
X154081242Y-93618352D01*
X153984480Y-93569971D01*
X153936099Y-93473210D01*
X153936099Y-93424829D01*
X153984480Y-93328067D01*
X154081242Y-93279686D01*
X154226385Y-93279686D01*
X154323146Y-93328067D01*
X154806956Y-93957019D02*
X154806956Y-92941019D01*
X155242384Y-93957019D02*
X155242384Y-93424829D01*
X155194003Y-93328067D01*
X155097241Y-93279686D01*
X154952099Y-93279686D01*
X154855337Y-93328067D01*
X154806956Y-93376448D01*
X155726194Y-93957019D02*
X155726194Y-92941019D01*
X155726194Y-93328067D02*
X155822956Y-93279686D01*
X156016479Y-93279686D01*
X156113241Y-93328067D01*
X156161622Y-93376448D01*
X156210003Y-93473210D01*
X156210003Y-93763495D01*
X156161622Y-93860257D01*
X156113241Y-93908638D01*
X156016479Y-93957019D01*
X155822956Y-93957019D01*
X155726194Y-93908638D01*
X156790575Y-93957019D02*
X156693813Y-93908638D01*
X156645432Y-93860257D01*
X156597051Y-93763495D01*
X156597051Y-93473210D01*
X156645432Y-93376448D01*
X156693813Y-93328067D01*
X156790575Y-93279686D01*
X156935717Y-93279686D01*
X157032479Y-93328067D01*
X157080860Y-93376448D01*
X157129241Y-93473210D01*
X157129241Y-93763495D01*
X157080860Y-93860257D01*
X157032479Y-93908638D01*
X156935717Y-93957019D01*
X156790575Y-93957019D01*
X158000098Y-93957019D02*
X158000098Y-93424829D01*
X157951717Y-93328067D01*
X157854955Y-93279686D01*
X157661432Y-93279686D01*
X157564670Y-93328067D01*
X158000098Y-93908638D02*
X157903336Y-93957019D01*
X157661432Y-93957019D01*
X157564670Y-93908638D01*
X157516289Y-93811876D01*
X157516289Y-93715114D01*
X157564670Y-93618352D01*
X157661432Y-93569971D01*
X157903336Y-93569971D01*
X158000098Y-93521590D01*
X158483908Y-93957019D02*
X158483908Y-93279686D01*
X158483908Y-93473210D02*
X158532289Y-93376448D01*
X158580670Y-93328067D01*
X158677432Y-93279686D01*
X158774193Y-93279686D01*
X159548288Y-93957019D02*
X159548288Y-92941019D01*
X159548288Y-93908638D02*
X159451526Y-93957019D01*
X159258003Y-93957019D01*
X159161241Y-93908638D01*
X159112860Y-93860257D01*
X159064479Y-93763495D01*
X159064479Y-93473210D01*
X159112860Y-93376448D01*
X159161241Y-93328067D01*
X159258003Y-93279686D01*
X159451526Y-93279686D01*
X159548288Y-93328067D01*
X161386764Y-93957019D02*
X161048098Y-93473210D01*
X160806193Y-93957019D02*
X160806193Y-92941019D01*
X161193240Y-92941019D01*
X161290002Y-92989400D01*
X161338383Y-93037781D01*
X161386764Y-93134543D01*
X161386764Y-93279686D01*
X161338383Y-93376448D01*
X161290002Y-93424829D01*
X161193240Y-93473210D01*
X160806193Y-93473210D01*
X162596288Y-93957019D02*
X162596288Y-92941019D01*
X163080098Y-93279686D02*
X163080098Y-93957019D01*
X163080098Y-93376448D02*
X163128479Y-93328067D01*
X163225241Y-93279686D01*
X163370383Y-93279686D01*
X163467145Y-93328067D01*
X163515526Y-93424829D01*
X163515526Y-93957019D01*
X163854193Y-93279686D02*
X164241241Y-93279686D01*
X163999336Y-92941019D02*
X163999336Y-93811876D01*
X164047717Y-93908638D01*
X164144479Y-93957019D01*
X164241241Y-93957019D01*
X164966954Y-93908638D02*
X164870192Y-93957019D01*
X164676669Y-93957019D01*
X164579907Y-93908638D01*
X164531526Y-93811876D01*
X164531526Y-93424829D01*
X164579907Y-93328067D01*
X164676669Y-93279686D01*
X164870192Y-93279686D01*
X164966954Y-93328067D01*
X165015335Y-93424829D01*
X165015335Y-93521590D01*
X164531526Y-93618352D01*
X165450764Y-93957019D02*
X165450764Y-93279686D01*
X165450764Y-93473210D02*
X165499145Y-93376448D01*
X165547526Y-93328067D01*
X165644288Y-93279686D01*
X165741049Y-93279686D01*
X165934573Y-93279686D02*
X166321621Y-93279686D01*
X166079716Y-93957019D02*
X166079716Y-93086162D01*
X166128097Y-92989400D01*
X166224859Y-92941019D01*
X166321621Y-92941019D01*
X167095715Y-93957019D02*
X167095715Y-93424829D01*
X167047334Y-93328067D01*
X166950572Y-93279686D01*
X166757049Y-93279686D01*
X166660287Y-93328067D01*
X167095715Y-93908638D02*
X166998953Y-93957019D01*
X166757049Y-93957019D01*
X166660287Y-93908638D01*
X166611906Y-93811876D01*
X166611906Y-93715114D01*
X166660287Y-93618352D01*
X166757049Y-93569971D01*
X166998953Y-93569971D01*
X167095715Y-93521590D01*
X168014953Y-93908638D02*
X167918191Y-93957019D01*
X167724668Y-93957019D01*
X167627906Y-93908638D01*
X167579525Y-93860257D01*
X167531144Y-93763495D01*
X167531144Y-93473210D01*
X167579525Y-93376448D01*
X167627906Y-93328067D01*
X167724668Y-93279686D01*
X167918191Y-93279686D01*
X168014953Y-93328067D01*
X168837429Y-93908638D02*
X168740667Y-93957019D01*
X168547144Y-93957019D01*
X168450382Y-93908638D01*
X168402001Y-93811876D01*
X168402001Y-93424829D01*
X168450382Y-93328067D01*
X168547144Y-93279686D01*
X168740667Y-93279686D01*
X168837429Y-93328067D01*
X168885810Y-93424829D01*
X168885810Y-93521590D01*
X168402001Y-93618352D01*
X170675905Y-93957019D02*
X170337239Y-93473210D01*
X170095334Y-93957019D02*
X170095334Y-92941019D01*
X170482381Y-92941019D01*
X170579143Y-92989400D01*
X170627524Y-93037781D01*
X170675905Y-93134543D01*
X170675905Y-93279686D01*
X170627524Y-93376448D01*
X170579143Y-93424829D01*
X170482381Y-93473210D01*
X170095334Y-93473210D01*
X171498381Y-93908638D02*
X171401619Y-93957019D01*
X171208096Y-93957019D01*
X171111334Y-93908638D01*
X171062953Y-93811876D01*
X171062953Y-93424829D01*
X171111334Y-93328067D01*
X171208096Y-93279686D01*
X171401619Y-93279686D01*
X171498381Y-93328067D01*
X171546762Y-93424829D01*
X171546762Y-93521590D01*
X171062953Y-93618352D01*
X171885429Y-93279686D02*
X172127334Y-93957019D01*
X172369238Y-93279686D01*
X173288476Y-93957019D02*
X172707905Y-93957019D01*
X172998191Y-93957019D02*
X172998191Y-92941019D01*
X172901429Y-93086162D01*
X172804667Y-93182924D01*
X172707905Y-93231305D01*
D12*
X106246000Y-74495000D02*
X147246000Y-74495000D01*
X147246000Y-74495000D02*
X147246000Y-96495000D01*
X147246000Y-96495000D02*
X106246000Y-96495000D01*
X106246000Y-96495000D02*
X106246000Y-74495000D01*
X174174000Y-75940000D02*
X174174000Y-73940000D01*
X155174000Y-75940000D02*
X174174000Y-75940000D01*
X155174000Y-62940000D02*
X155174000Y-75940000D01*
X174174000Y-62940000D02*
X155174000Y-62940000D01*
X174174000Y-73940000D02*
X174174000Y-62940000D01*
X108102667Y-97107381D02*
X108102667Y-97821667D01*
X108055047Y-97964524D01*
X107959809Y-98059762D01*
X107816952Y-98107381D01*
X107721714Y-98107381D01*
X108531238Y-97202619D02*
X108578857Y-97155000D01*
X108674095Y-97107381D01*
X108912191Y-97107381D01*
X109007429Y-97155000D01*
X109055048Y-97202619D01*
X109102667Y-97297857D01*
X109102667Y-97393095D01*
X109055048Y-97535952D01*
X108483619Y-98107381D01*
X109102667Y-98107381D01*
X164778095Y-77202381D02*
X164778095Y-78011905D01*
X164825714Y-78107143D01*
X164873333Y-78154762D01*
X164968571Y-78202381D01*
X165159048Y-78202381D01*
X165254286Y-78154762D01*
X165301905Y-78107143D01*
X165349524Y-78011905D01*
X165349524Y-77202381D01*
X166349524Y-78202381D02*
X165778095Y-78202381D01*
X166063809Y-78202381D02*
X166063809Y-77202381D01*
X165968571Y-77345238D01*
X165873333Y-77440476D01*
X165778095Y-77488095D01*
M02*
