G04 #@! TF.FileFunction,Legend,Bot*
%FSLAX46Y46*%
G04 Gerber Fmt 4.6, Leading zero omitted, Abs format (unit mm)*
G04 Created by KiCad (PCBNEW 4.0.7-e2-6376~58~ubuntu16.04.1) date Sat Mar 10 14:38:45 2018*
%MOMM*%
%LPD*%
G01*
G04 APERTURE LIST*
%ADD10C,0.100000*%
%ADD11C,0.150000*%
G04 APERTURE END LIST*
D10*
D11*
X103742000Y-94761000D02*
X98442000Y-94761000D01*
X103742000Y-72371000D02*
X98442000Y-72371000D01*
X103742000Y-94761000D02*
X103742000Y-72371000D01*
X98442000Y-94761000D02*
X98442000Y-72371000D01*
X180704000Y-89173000D02*
X175404000Y-89173000D01*
X180704000Y-76943000D02*
X175404000Y-76943000D01*
X180704000Y-89173000D02*
X180704000Y-76943000D01*
X175404000Y-89173000D02*
X175404000Y-76943000D01*
X103330333Y-95083381D02*
X103330333Y-95797667D01*
X103377953Y-95940524D01*
X103473191Y-96035762D01*
X103616048Y-96083381D01*
X103711286Y-96083381D01*
X102330333Y-96083381D02*
X102901762Y-96083381D01*
X102616048Y-96083381D02*
X102616048Y-95083381D01*
X102711286Y-95226238D01*
X102806524Y-95321476D01*
X102901762Y-95369095D01*
X100012476Y-96083381D02*
X100583905Y-96083381D01*
X100298191Y-96083381D02*
X100298191Y-95083381D01*
X100393429Y-95226238D01*
X100488667Y-95321476D01*
X100583905Y-95369095D01*
X99155333Y-95416714D02*
X99155333Y-96083381D01*
X99393429Y-95035762D02*
X99631524Y-95750048D01*
X99012476Y-95750048D01*
X102076285Y-71953381D02*
X102647714Y-71953381D01*
X102362000Y-71953381D02*
X102362000Y-70953381D01*
X102457238Y-71096238D01*
X102552476Y-71191476D01*
X102647714Y-71239095D01*
X180292333Y-89495381D02*
X180292333Y-90209667D01*
X180339953Y-90352524D01*
X180435191Y-90447762D01*
X180578048Y-90495381D01*
X180673286Y-90495381D01*
X179911381Y-89495381D02*
X179292333Y-89495381D01*
X179625667Y-89876333D01*
X179482809Y-89876333D01*
X179387571Y-89923952D01*
X179339952Y-89971571D01*
X179292333Y-90066810D01*
X179292333Y-90304905D01*
X179339952Y-90400143D01*
X179387571Y-90447762D01*
X179482809Y-90495381D01*
X179768524Y-90495381D01*
X179863762Y-90447762D01*
X179911381Y-90400143D01*
X176593523Y-89495381D02*
X176784000Y-89495381D01*
X176879238Y-89543000D01*
X176926857Y-89590619D01*
X177022095Y-89733476D01*
X177069714Y-89923952D01*
X177069714Y-90304905D01*
X177022095Y-90400143D01*
X176974476Y-90447762D01*
X176879238Y-90495381D01*
X176688761Y-90495381D01*
X176593523Y-90447762D01*
X176545904Y-90400143D01*
X176498285Y-90304905D01*
X176498285Y-90066810D01*
X176545904Y-89971571D01*
X176593523Y-89923952D01*
X176688761Y-89876333D01*
X176879238Y-89876333D01*
X176974476Y-89923952D01*
X177022095Y-89971571D01*
X177069714Y-90066810D01*
X179038285Y-76525381D02*
X179609714Y-76525381D01*
X179324000Y-76525381D02*
X179324000Y-75525381D01*
X179419238Y-75668238D01*
X179514476Y-75763476D01*
X179609714Y-75811095D01*
M02*
