G04 #@! TF.FileFunction,Soldermask,Top*
%FSLAX46Y46*%
G04 Gerber Fmt 4.6, Leading zero omitted, Abs format (unit mm)*
G04 Created by KiCad (PCBNEW 4.0.7-e2-6376~58~ubuntu16.04.1) date Mon Feb 19 20:22:25 2018*
%MOMM*%
%LPD*%
G01*
G04 APERTURE LIST*
%ADD10C,0.100000*%
%ADD11C,1.700000*%
%ADD12C,2.400000*%
%ADD13C,3.250000*%
%ADD14C,3.400000*%
%ADD15C,1.900000*%
%ADD16C,3.150000*%
G04 APERTURE END LIST*
D10*
D11*
X102362000Y-80391000D03*
X102362000Y-77851000D03*
X102362000Y-75311000D03*
X102362000Y-82931000D03*
X99822000Y-76581000D03*
X99822000Y-79121000D03*
X99822000Y-81661000D03*
X99822000Y-84201000D03*
X102362000Y-85471000D03*
X99822000Y-86741000D03*
X102362000Y-88011000D03*
X99822000Y-89281000D03*
X102362000Y-90551000D03*
X99822000Y-91821000D03*
D12*
X100562000Y-73911000D03*
D13*
X141196000Y-87495000D03*
D12*
X145946000Y-94295000D03*
X107546000Y-94295000D03*
X144446000Y-76195000D03*
X109046000Y-76195000D03*
D14*
X122746000Y-90995000D03*
X126746000Y-90995000D03*
X130746000Y-90995000D03*
X134746000Y-90995000D03*
X124746000Y-86995000D03*
X128746000Y-86995000D03*
X132746000Y-86995000D03*
X130746000Y-82995000D03*
X134746000Y-82995000D03*
X126746000Y-82995000D03*
X122746000Y-82995000D03*
X118746000Y-90995000D03*
X120746000Y-86995000D03*
X118746000Y-82995000D03*
D13*
X112246000Y-87495000D03*
D11*
X179324000Y-84963000D03*
X179324000Y-82423000D03*
X179324000Y-79883000D03*
X176784000Y-81153000D03*
X176784000Y-83693000D03*
X176784000Y-86233000D03*
D12*
X177524000Y-78483000D03*
D15*
X158174000Y-73940000D03*
X160714000Y-73940000D03*
X171274000Y-73940000D03*
X168734000Y-73940000D03*
X160274000Y-67310000D03*
X162814000Y-67310000D03*
X165354000Y-67310000D03*
X167894000Y-67310000D03*
X161544000Y-64770000D03*
X164084000Y-64770000D03*
X166624000Y-64770000D03*
X169164000Y-64770000D03*
D16*
X157774000Y-69190000D03*
X171674000Y-69190000D03*
M02*
