G04 #@! TF.FileFunction,Copper,L2,Bot,Signal*
%FSLAX46Y46*%
G04 Gerber Fmt 4.6, Leading zero omitted, Abs format (unit mm)*
G04 Created by KiCad (PCBNEW 4.0.7-e2-6376~58~ubuntu16.04.1) date Sat Mar 10 14:38:45 2018*
%MOMM*%
%LPD*%
G01*
G04 APERTURE LIST*
%ADD10C,0.100000*%
%ADD11C,1.300000*%
%ADD12C,2.000000*%
%ADD13C,1.500000*%
%ADD14C,2.750000*%
%ADD15C,3.000000*%
%ADD16C,0.600000*%
%ADD17C,0.508000*%
%ADD18C,0.254000*%
G04 APERTURE END LIST*
D10*
D11*
X102362000Y-80391000D03*
X102362000Y-77851000D03*
X102362000Y-75311000D03*
X102362000Y-82931000D03*
X99822000Y-76581000D03*
X99822000Y-79121000D03*
X99822000Y-81661000D03*
X99822000Y-84201000D03*
X102362000Y-85471000D03*
X99822000Y-86741000D03*
X102362000Y-88011000D03*
X99822000Y-89281000D03*
X102362000Y-90551000D03*
X99822000Y-91821000D03*
D12*
X100562000Y-73911000D03*
D11*
X179324000Y-84963000D03*
X179324000Y-82423000D03*
X179324000Y-79883000D03*
X176784000Y-81153000D03*
X176784000Y-83693000D03*
X176784000Y-86233000D03*
D12*
X177524000Y-78483000D03*
D13*
X165032000Y-70892000D03*
X167572000Y-70892000D03*
X178132000Y-70892000D03*
X175592000Y-70892000D03*
X167132000Y-64262000D03*
X169672000Y-64262000D03*
X172212000Y-64262000D03*
X174752000Y-64262000D03*
X168402000Y-61722000D03*
X170942000Y-61722000D03*
X173482000Y-61722000D03*
X176022000Y-61722000D03*
D14*
X164632000Y-66142000D03*
X178532000Y-66142000D03*
D15*
X145064000Y-90614000D03*
X121064000Y-90614000D03*
X125064000Y-90614000D03*
X129064000Y-90614000D03*
X133064000Y-90614000D03*
X137064000Y-90614000D03*
X141064000Y-90614000D03*
X123064000Y-86614000D03*
X127064000Y-86614000D03*
X135064000Y-86614000D03*
X131064000Y-86614000D03*
X139064000Y-86614000D03*
X143064000Y-86614000D03*
X145064000Y-82614000D03*
X141064000Y-82614000D03*
X137064000Y-82614000D03*
X129064000Y-82614000D03*
X133064000Y-82614000D03*
X125064000Y-82614000D03*
X121064000Y-82614000D03*
X117064000Y-90614000D03*
X119064000Y-86614000D03*
X117064000Y-82614000D03*
D16*
X98933000Y-96647000D03*
X98298000Y-93599000D03*
X137160000Y-72447990D03*
X106172000Y-85090000D03*
X134874000Y-71755000D03*
X106934000Y-85598000D03*
X134239000Y-72390000D03*
X138049000Y-73025000D03*
D17*
X98298000Y-93599000D02*
X98298000Y-96012000D01*
X98298000Y-96012000D02*
X98933000Y-96647000D01*
D18*
X134874000Y-71755000D02*
X136467010Y-71755000D01*
X136860001Y-72147991D02*
X137160000Y-72447990D01*
X136467010Y-71755000D02*
X136860001Y-72147991D01*
X106172000Y-85090000D02*
X106172000Y-86106000D01*
X106172000Y-86106000D02*
X105283000Y-86995000D01*
X105283000Y-86995000D02*
X100076000Y-86995000D01*
X100076000Y-86995000D02*
X99822000Y-86741000D01*
X106934000Y-85598000D02*
X106934000Y-86487000D01*
X106934000Y-86487000D02*
X105410000Y-88011000D01*
X105410000Y-88011000D02*
X102362000Y-88011000D01*
X136906000Y-73025000D02*
X136271000Y-72390000D01*
X136271000Y-72390000D02*
X134239000Y-72390000D01*
X137624736Y-73025000D02*
X136906000Y-73025000D01*
X138049000Y-73025000D02*
X137624736Y-73025000D01*
G36*
X179482838Y-57641291D02*
X180138221Y-57935892D01*
X180630973Y-58458869D01*
X180900229Y-59167859D01*
X180925000Y-59464549D01*
X180925000Y-93217675D01*
X180771398Y-93989885D01*
X180372193Y-94587335D01*
X179764597Y-94993318D01*
X179141963Y-95139579D01*
X99166408Y-100646440D01*
X98385472Y-100546247D01*
X97762008Y-100189028D01*
X97322705Y-99620410D01*
X97119540Y-98872068D01*
X97116673Y-98788694D01*
X97116673Y-93784167D01*
X97362838Y-93784167D01*
X97409000Y-93895888D01*
X97409000Y-96012000D01*
X97476671Y-96352206D01*
X97669382Y-96640618D01*
X98094238Y-97065474D01*
X98139883Y-97175943D01*
X98402673Y-97439192D01*
X98746201Y-97581838D01*
X99118167Y-97582162D01*
X99461943Y-97440117D01*
X99725192Y-97177327D01*
X99867838Y-96833799D01*
X99868162Y-96461833D01*
X99726117Y-96118057D01*
X99463327Y-95854808D01*
X99351687Y-95808451D01*
X99187000Y-95643764D01*
X99187000Y-94237795D01*
X104228716Y-94237795D01*
X104477106Y-94838943D01*
X104936637Y-95299278D01*
X105537352Y-95548716D01*
X106187795Y-95549284D01*
X106788943Y-95300894D01*
X107249278Y-94841363D01*
X107498716Y-94240648D01*
X107498718Y-94237795D01*
X154628716Y-94237795D01*
X154877106Y-94838943D01*
X155336637Y-95299278D01*
X155937352Y-95548716D01*
X156587795Y-95549284D01*
X157188943Y-95300894D01*
X157649278Y-94841363D01*
X157898716Y-94240648D01*
X157899284Y-93590205D01*
X157650894Y-92989057D01*
X157191363Y-92528722D01*
X156590648Y-92279284D01*
X155940205Y-92278716D01*
X155339057Y-92527106D01*
X154878722Y-92986637D01*
X154629284Y-93587352D01*
X154628716Y-94237795D01*
X107498718Y-94237795D01*
X107499284Y-93590205D01*
X107250894Y-92989057D01*
X106791363Y-92528722D01*
X106190648Y-92279284D01*
X105540205Y-92278716D01*
X104939057Y-92527106D01*
X104478722Y-92986637D01*
X104229284Y-93587352D01*
X104228716Y-94237795D01*
X99187000Y-94237795D01*
X99187000Y-93896189D01*
X99232838Y-93785799D01*
X99233162Y-93413833D01*
X99091117Y-93070057D01*
X98828327Y-92806808D01*
X98484799Y-92664162D01*
X98112833Y-92663838D01*
X97769057Y-92805883D01*
X97505808Y-93068673D01*
X97363162Y-93412201D01*
X97362838Y-93784167D01*
X97116673Y-93784167D01*
X97116673Y-79375481D01*
X98536777Y-79375481D01*
X98731995Y-79847943D01*
X99093155Y-80209735D01*
X99530182Y-80391205D01*
X99095057Y-80570995D01*
X98733265Y-80932155D01*
X98537223Y-81404276D01*
X98536777Y-81915481D01*
X98731995Y-82387943D01*
X99093155Y-82749735D01*
X99530182Y-82931205D01*
X99095057Y-83110995D01*
X98733265Y-83472155D01*
X98537223Y-83944276D01*
X98536777Y-84455481D01*
X98731995Y-84927943D01*
X99093155Y-85289735D01*
X99530182Y-85471205D01*
X99095057Y-85650995D01*
X98733265Y-86012155D01*
X98537223Y-86484276D01*
X98536777Y-86995481D01*
X98731995Y-87467943D01*
X99093155Y-87829735D01*
X99530182Y-88011205D01*
X99095057Y-88190995D01*
X98733265Y-88552155D01*
X98537223Y-89024276D01*
X98536777Y-89535481D01*
X98731995Y-90007943D01*
X99093155Y-90369735D01*
X99530182Y-90551205D01*
X99095057Y-90730995D01*
X98733265Y-91092155D01*
X98537223Y-91564276D01*
X98536777Y-92075481D01*
X98731995Y-92547943D01*
X99093155Y-92909735D01*
X99565276Y-93105777D01*
X100076481Y-93106223D01*
X100548943Y-92911005D01*
X100910735Y-92549845D01*
X101106777Y-92077724D01*
X101107223Y-91566519D01*
X100912005Y-91094057D01*
X100550845Y-90732265D01*
X100113818Y-90550795D01*
X100548943Y-90371005D01*
X100910735Y-90009845D01*
X101106777Y-89537724D01*
X101107223Y-89026519D01*
X100912005Y-88554057D01*
X100550845Y-88192265D01*
X100113818Y-88010795D01*
X100548943Y-87831005D01*
X100623078Y-87757000D01*
X101077221Y-87757000D01*
X101076777Y-88265481D01*
X101271995Y-88737943D01*
X101633155Y-89099735D01*
X102070182Y-89281205D01*
X101635057Y-89460995D01*
X101273265Y-89822155D01*
X101077223Y-90294276D01*
X101076777Y-90805481D01*
X101271995Y-91277943D01*
X101633155Y-91639735D01*
X102105276Y-91835777D01*
X102616481Y-91836223D01*
X103088943Y-91641005D01*
X103450735Y-91279845D01*
X103551649Y-91036815D01*
X114928630Y-91036815D01*
X115252980Y-91821800D01*
X115853041Y-92422909D01*
X116637459Y-92748628D01*
X117486815Y-92749370D01*
X118271800Y-92425020D01*
X118872909Y-91824959D01*
X119064068Y-91364598D01*
X119252980Y-91821800D01*
X119853041Y-92422909D01*
X120637459Y-92748628D01*
X121486815Y-92749370D01*
X122271800Y-92425020D01*
X122872909Y-91824959D01*
X123064068Y-91364598D01*
X123252980Y-91821800D01*
X123853041Y-92422909D01*
X124637459Y-92748628D01*
X125486815Y-92749370D01*
X126271800Y-92425020D01*
X126872909Y-91824959D01*
X127064068Y-91364598D01*
X127252980Y-91821800D01*
X127853041Y-92422909D01*
X128637459Y-92748628D01*
X129486815Y-92749370D01*
X130271800Y-92425020D01*
X130872909Y-91824959D01*
X131064068Y-91364598D01*
X131252980Y-91821800D01*
X131853041Y-92422909D01*
X132637459Y-92748628D01*
X133486815Y-92749370D01*
X134271800Y-92425020D01*
X134569368Y-92127970D01*
X135729635Y-92127970D01*
X135889418Y-92446739D01*
X136680187Y-92756723D01*
X137529387Y-92740497D01*
X138238582Y-92446739D01*
X138398365Y-92127970D01*
X137064000Y-90793605D01*
X135729635Y-92127970D01*
X134569368Y-92127970D01*
X134872909Y-91824959D01*
X135059849Y-91374757D01*
X135231261Y-91788582D01*
X135550030Y-91948365D01*
X136884395Y-90614000D01*
X137243605Y-90614000D01*
X138577970Y-91948365D01*
X138896739Y-91788582D01*
X139063490Y-91363200D01*
X139252980Y-91821800D01*
X139853041Y-92422909D01*
X140637459Y-92748628D01*
X141486815Y-92749370D01*
X142271800Y-92425020D01*
X142872909Y-91824959D01*
X143064068Y-91364598D01*
X143252980Y-91821800D01*
X143853041Y-92422909D01*
X144637459Y-92748628D01*
X145486815Y-92749370D01*
X146271800Y-92425020D01*
X146872909Y-91824959D01*
X147198628Y-91040541D01*
X147199370Y-90191185D01*
X146875020Y-89406200D01*
X146274959Y-88805091D01*
X145490541Y-88479372D01*
X144641185Y-88478630D01*
X143856200Y-88802980D01*
X143255091Y-89403041D01*
X143063932Y-89863402D01*
X142875020Y-89406200D01*
X142274959Y-88805091D01*
X141490541Y-88479372D01*
X140641185Y-88478630D01*
X139856200Y-88802980D01*
X139255091Y-89403041D01*
X139068151Y-89853243D01*
X138896739Y-89439418D01*
X138577970Y-89279635D01*
X137243605Y-90614000D01*
X136884395Y-90614000D01*
X135550030Y-89279635D01*
X135231261Y-89439418D01*
X135064510Y-89864800D01*
X134875020Y-89406200D01*
X134569384Y-89100030D01*
X135729635Y-89100030D01*
X137064000Y-90434395D01*
X138398365Y-89100030D01*
X138238582Y-88781261D01*
X137447813Y-88471277D01*
X136598613Y-88487503D01*
X135889418Y-88781261D01*
X135729635Y-89100030D01*
X134569384Y-89100030D01*
X134274959Y-88805091D01*
X133490541Y-88479372D01*
X132641185Y-88478630D01*
X131856200Y-88802980D01*
X131255091Y-89403041D01*
X131063932Y-89863402D01*
X130875020Y-89406200D01*
X130274959Y-88805091D01*
X129490541Y-88479372D01*
X128641185Y-88478630D01*
X127856200Y-88802980D01*
X127255091Y-89403041D01*
X127063932Y-89863402D01*
X126875020Y-89406200D01*
X126274959Y-88805091D01*
X125490541Y-88479372D01*
X124641185Y-88478630D01*
X123856200Y-88802980D01*
X123255091Y-89403041D01*
X123063932Y-89863402D01*
X122875020Y-89406200D01*
X122274959Y-88805091D01*
X121490541Y-88479372D01*
X120641185Y-88478630D01*
X119856200Y-88802980D01*
X119255091Y-89403041D01*
X119063932Y-89863402D01*
X118875020Y-89406200D01*
X118274959Y-88805091D01*
X117490541Y-88479372D01*
X116641185Y-88478630D01*
X115856200Y-88802980D01*
X115255091Y-89403041D01*
X114929372Y-90187459D01*
X114928630Y-91036815D01*
X103551649Y-91036815D01*
X103646777Y-90807724D01*
X103647223Y-90296519D01*
X103452005Y-89824057D01*
X103090845Y-89462265D01*
X102653818Y-89280795D01*
X103088943Y-89101005D01*
X103417522Y-88773000D01*
X105410000Y-88773000D01*
X105701605Y-88714996D01*
X105948815Y-88549815D01*
X106976668Y-87521962D01*
X108503643Y-87521962D01*
X108816599Y-88279372D01*
X109395580Y-88859365D01*
X110152443Y-89173642D01*
X110971962Y-89174357D01*
X111729372Y-88861401D01*
X112309365Y-88282420D01*
X112623642Y-87525557D01*
X112624068Y-87036815D01*
X116928630Y-87036815D01*
X117252980Y-87821800D01*
X117853041Y-88422909D01*
X118637459Y-88748628D01*
X119486815Y-88749370D01*
X120271800Y-88425020D01*
X120872909Y-87824959D01*
X121064068Y-87364598D01*
X121252980Y-87821800D01*
X121853041Y-88422909D01*
X122637459Y-88748628D01*
X123486815Y-88749370D01*
X124271800Y-88425020D01*
X124872909Y-87824959D01*
X125064068Y-87364598D01*
X125252980Y-87821800D01*
X125853041Y-88422909D01*
X126637459Y-88748628D01*
X127486815Y-88749370D01*
X128271800Y-88425020D01*
X128872909Y-87824959D01*
X129064068Y-87364598D01*
X129252980Y-87821800D01*
X129853041Y-88422909D01*
X130637459Y-88748628D01*
X131486815Y-88749370D01*
X132271800Y-88425020D01*
X132872909Y-87824959D01*
X133064068Y-87364598D01*
X133252980Y-87821800D01*
X133853041Y-88422909D01*
X134637459Y-88748628D01*
X135486815Y-88749370D01*
X136271800Y-88425020D01*
X136872909Y-87824959D01*
X137064068Y-87364598D01*
X137252980Y-87821800D01*
X137853041Y-88422909D01*
X138637459Y-88748628D01*
X139486815Y-88749370D01*
X140271800Y-88425020D01*
X140872909Y-87824959D01*
X141064068Y-87364598D01*
X141252980Y-87821800D01*
X141853041Y-88422909D01*
X142637459Y-88748628D01*
X143486815Y-88749370D01*
X144271800Y-88425020D01*
X144872909Y-87824959D01*
X144998724Y-87521962D01*
X149503643Y-87521962D01*
X149816599Y-88279372D01*
X150395580Y-88859365D01*
X151152443Y-89173642D01*
X151971962Y-89174357D01*
X152729372Y-88861401D01*
X153309365Y-88282420D01*
X153623642Y-87525557D01*
X153624357Y-86706038D01*
X153311401Y-85948628D01*
X152732420Y-85368635D01*
X151975557Y-85054358D01*
X151156038Y-85053643D01*
X150398628Y-85366599D01*
X149818635Y-85945580D01*
X149504358Y-86702443D01*
X149503643Y-87521962D01*
X144998724Y-87521962D01*
X145198628Y-87040541D01*
X145199370Y-86191185D01*
X144875020Y-85406200D01*
X144274959Y-84805091D01*
X143490541Y-84479372D01*
X142641185Y-84478630D01*
X141856200Y-84802980D01*
X141255091Y-85403041D01*
X141063932Y-85863402D01*
X140875020Y-85406200D01*
X140274959Y-84805091D01*
X139490541Y-84479372D01*
X138641185Y-84478630D01*
X137856200Y-84802980D01*
X137255091Y-85403041D01*
X137063932Y-85863402D01*
X136875020Y-85406200D01*
X136274959Y-84805091D01*
X135490541Y-84479372D01*
X134641185Y-84478630D01*
X133856200Y-84802980D01*
X133255091Y-85403041D01*
X133063932Y-85863402D01*
X132875020Y-85406200D01*
X132274959Y-84805091D01*
X131490541Y-84479372D01*
X130641185Y-84478630D01*
X129856200Y-84802980D01*
X129255091Y-85403041D01*
X129063932Y-85863402D01*
X128875020Y-85406200D01*
X128274959Y-84805091D01*
X127490541Y-84479372D01*
X126641185Y-84478630D01*
X125856200Y-84802980D01*
X125255091Y-85403041D01*
X125063932Y-85863402D01*
X124875020Y-85406200D01*
X124274959Y-84805091D01*
X123490541Y-84479372D01*
X122641185Y-84478630D01*
X121856200Y-84802980D01*
X121255091Y-85403041D01*
X121063932Y-85863402D01*
X120875020Y-85406200D01*
X120274959Y-84805091D01*
X119490541Y-84479372D01*
X118641185Y-84478630D01*
X117856200Y-84802980D01*
X117255091Y-85403041D01*
X116929372Y-86187459D01*
X116928630Y-87036815D01*
X112624068Y-87036815D01*
X112624357Y-86706038D01*
X112311401Y-85948628D01*
X111732420Y-85368635D01*
X110975557Y-85054358D01*
X110156038Y-85053643D01*
X109398628Y-85366599D01*
X108818635Y-85945580D01*
X108504358Y-86702443D01*
X108503643Y-87521962D01*
X106976668Y-87521962D01*
X107472815Y-87025816D01*
X107637996Y-86778605D01*
X107648504Y-86725777D01*
X107696000Y-86487000D01*
X107696000Y-86158466D01*
X107726192Y-86128327D01*
X107868838Y-85784799D01*
X107869162Y-85412833D01*
X107727117Y-85069057D01*
X107464327Y-84805808D01*
X107120799Y-84663162D01*
X107007265Y-84663063D01*
X106965117Y-84561057D01*
X106702327Y-84297808D01*
X106358799Y-84155162D01*
X105986833Y-84154838D01*
X105643057Y-84296883D01*
X105379808Y-84559673D01*
X105237162Y-84903201D01*
X105236838Y-85275167D01*
X105378883Y-85618943D01*
X105410000Y-85650114D01*
X105410000Y-85790370D01*
X104967370Y-86233000D01*
X103417522Y-86233000D01*
X103450735Y-86199845D01*
X103646777Y-85727724D01*
X103647223Y-85216519D01*
X103452005Y-84744057D01*
X103090845Y-84382265D01*
X102653818Y-84200795D01*
X102830067Y-84127970D01*
X115729635Y-84127970D01*
X115889418Y-84446739D01*
X116680187Y-84756723D01*
X117529387Y-84740497D01*
X118238582Y-84446739D01*
X118398365Y-84127970D01*
X119729635Y-84127970D01*
X119889418Y-84446739D01*
X120680187Y-84756723D01*
X121529387Y-84740497D01*
X122238582Y-84446739D01*
X122398365Y-84127970D01*
X121064000Y-82793605D01*
X119729635Y-84127970D01*
X118398365Y-84127970D01*
X117064000Y-82793605D01*
X115729635Y-84127970D01*
X102830067Y-84127970D01*
X103088943Y-84021005D01*
X103450735Y-83659845D01*
X103646777Y-83187724D01*
X103647223Y-82676519D01*
X103462802Y-82230187D01*
X114921277Y-82230187D01*
X114937503Y-83079387D01*
X115231261Y-83788582D01*
X115550030Y-83948365D01*
X116884395Y-82614000D01*
X117243605Y-82614000D01*
X118577970Y-83948365D01*
X118896739Y-83788582D01*
X119059392Y-83373654D01*
X119231261Y-83788582D01*
X119550030Y-83948365D01*
X120884395Y-82614000D01*
X121243605Y-82614000D01*
X122577970Y-83948365D01*
X122896739Y-83788582D01*
X123063490Y-83363200D01*
X123252980Y-83821800D01*
X123853041Y-84422909D01*
X124637459Y-84748628D01*
X125486815Y-84749370D01*
X126271800Y-84425020D01*
X126872909Y-83824959D01*
X127064068Y-83364598D01*
X127252980Y-83821800D01*
X127853041Y-84422909D01*
X128637459Y-84748628D01*
X129486815Y-84749370D01*
X130271800Y-84425020D01*
X130569368Y-84127970D01*
X131729635Y-84127970D01*
X131889418Y-84446739D01*
X132680187Y-84756723D01*
X133529387Y-84740497D01*
X134238582Y-84446739D01*
X134398365Y-84127970D01*
X133064000Y-82793605D01*
X131729635Y-84127970D01*
X130569368Y-84127970D01*
X130872909Y-83824959D01*
X131059849Y-83374757D01*
X131231261Y-83788582D01*
X131550030Y-83948365D01*
X132884395Y-82614000D01*
X133243605Y-82614000D01*
X134577970Y-83948365D01*
X134896739Y-83788582D01*
X135063490Y-83363200D01*
X135252980Y-83821800D01*
X135853041Y-84422909D01*
X136637459Y-84748628D01*
X137486815Y-84749370D01*
X138271800Y-84425020D01*
X138872909Y-83824959D01*
X139064068Y-83364598D01*
X139252980Y-83821800D01*
X139853041Y-84422909D01*
X140637459Y-84748628D01*
X141486815Y-84749370D01*
X142271800Y-84425020D01*
X142872909Y-83824959D01*
X143064068Y-83364598D01*
X143252980Y-83821800D01*
X143853041Y-84422909D01*
X144637459Y-84748628D01*
X145486815Y-84749370D01*
X146271800Y-84425020D01*
X146872909Y-83824959D01*
X147198628Y-83040541D01*
X147199370Y-82191185D01*
X146875550Y-81407481D01*
X175498777Y-81407481D01*
X175693995Y-81879943D01*
X176055155Y-82241735D01*
X176492182Y-82423205D01*
X176057057Y-82602995D01*
X175695265Y-82964155D01*
X175499223Y-83436276D01*
X175498777Y-83947481D01*
X175693995Y-84419943D01*
X176055155Y-84781735D01*
X176492182Y-84963205D01*
X176057057Y-85142995D01*
X175695265Y-85504155D01*
X175499223Y-85976276D01*
X175498777Y-86487481D01*
X175693995Y-86959943D01*
X176055155Y-87321735D01*
X176527276Y-87517777D01*
X177038481Y-87518223D01*
X177510943Y-87323005D01*
X177872735Y-86961845D01*
X178068777Y-86489724D01*
X178069223Y-85978519D01*
X177874005Y-85506057D01*
X177512845Y-85144265D01*
X177075818Y-84962795D01*
X177510943Y-84783005D01*
X177872735Y-84421845D01*
X178068777Y-83949724D01*
X178069223Y-83438519D01*
X177874005Y-82966057D01*
X177512845Y-82604265D01*
X177075818Y-82422795D01*
X177510943Y-82243005D01*
X177872735Y-81881845D01*
X178068777Y-81409724D01*
X178069223Y-80898519D01*
X177874005Y-80426057D01*
X177566524Y-80118038D01*
X177847795Y-80118284D01*
X178038863Y-80039336D01*
X178038777Y-80137481D01*
X178233995Y-80609943D01*
X178595155Y-80971735D01*
X179032182Y-81153205D01*
X178597057Y-81332995D01*
X178235265Y-81694155D01*
X178039223Y-82166276D01*
X178038777Y-82677481D01*
X178233995Y-83149943D01*
X178595155Y-83511735D01*
X179032182Y-83693205D01*
X178597057Y-83872995D01*
X178235265Y-84234155D01*
X178039223Y-84706276D01*
X178038777Y-85217481D01*
X178233995Y-85689943D01*
X178595155Y-86051735D01*
X179067276Y-86247777D01*
X179578481Y-86248223D01*
X180050943Y-86053005D01*
X180412735Y-85691845D01*
X180608777Y-85219724D01*
X180609223Y-84708519D01*
X180414005Y-84236057D01*
X180052845Y-83874265D01*
X179615818Y-83692795D01*
X180050943Y-83513005D01*
X180412735Y-83151845D01*
X180608777Y-82679724D01*
X180609223Y-82168519D01*
X180414005Y-81696057D01*
X180052845Y-81334265D01*
X179615818Y-81152795D01*
X180050943Y-80973005D01*
X180412735Y-80611845D01*
X180608777Y-80139724D01*
X180609223Y-79628519D01*
X180414005Y-79156057D01*
X180052845Y-78794265D01*
X179580724Y-78598223D01*
X179158901Y-78597855D01*
X179159284Y-78159205D01*
X178910894Y-77558057D01*
X178451363Y-77097722D01*
X177850648Y-76848284D01*
X177200205Y-76847716D01*
X176599057Y-77096106D01*
X176138722Y-77555637D01*
X175889284Y-78156352D01*
X175888716Y-78806795D01*
X176137106Y-79407943D01*
X176596195Y-79867835D01*
X176529519Y-79867777D01*
X176057057Y-80062995D01*
X175695265Y-80424155D01*
X175499223Y-80896276D01*
X175498777Y-81407481D01*
X146875550Y-81407481D01*
X146875020Y-81406200D01*
X146274959Y-80805091D01*
X145490541Y-80479372D01*
X144641185Y-80478630D01*
X143856200Y-80802980D01*
X143255091Y-81403041D01*
X143063932Y-81863402D01*
X142875020Y-81406200D01*
X142274959Y-80805091D01*
X141490541Y-80479372D01*
X140641185Y-80478630D01*
X139856200Y-80802980D01*
X139255091Y-81403041D01*
X139063932Y-81863402D01*
X138875020Y-81406200D01*
X138274959Y-80805091D01*
X137490541Y-80479372D01*
X136641185Y-80478630D01*
X135856200Y-80802980D01*
X135255091Y-81403041D01*
X135068151Y-81853243D01*
X134896739Y-81439418D01*
X134577970Y-81279635D01*
X133243605Y-82614000D01*
X132884395Y-82614000D01*
X131550030Y-81279635D01*
X131231261Y-81439418D01*
X131064510Y-81864800D01*
X130875020Y-81406200D01*
X130569384Y-81100030D01*
X131729635Y-81100030D01*
X133064000Y-82434395D01*
X134398365Y-81100030D01*
X134238582Y-80781261D01*
X133447813Y-80471277D01*
X132598613Y-80487503D01*
X131889418Y-80781261D01*
X131729635Y-81100030D01*
X130569384Y-81100030D01*
X130274959Y-80805091D01*
X129490541Y-80479372D01*
X128641185Y-80478630D01*
X127856200Y-80802980D01*
X127255091Y-81403041D01*
X127063932Y-81863402D01*
X126875020Y-81406200D01*
X126274959Y-80805091D01*
X125490541Y-80479372D01*
X124641185Y-80478630D01*
X123856200Y-80802980D01*
X123255091Y-81403041D01*
X123068151Y-81853243D01*
X122896739Y-81439418D01*
X122577970Y-81279635D01*
X121243605Y-82614000D01*
X120884395Y-82614000D01*
X119550030Y-81279635D01*
X119231261Y-81439418D01*
X119068608Y-81854346D01*
X118896739Y-81439418D01*
X118577970Y-81279635D01*
X117243605Y-82614000D01*
X116884395Y-82614000D01*
X115550030Y-81279635D01*
X115231261Y-81439418D01*
X114921277Y-82230187D01*
X103462802Y-82230187D01*
X103452005Y-82204057D01*
X103090845Y-81842265D01*
X102653818Y-81660795D01*
X103088943Y-81481005D01*
X103450735Y-81119845D01*
X103458962Y-81100030D01*
X115729635Y-81100030D01*
X117064000Y-82434395D01*
X118398365Y-81100030D01*
X119729635Y-81100030D01*
X121064000Y-82434395D01*
X122398365Y-81100030D01*
X122238582Y-80781261D01*
X121447813Y-80471277D01*
X120598613Y-80487503D01*
X119889418Y-80781261D01*
X119729635Y-81100030D01*
X118398365Y-81100030D01*
X118238582Y-80781261D01*
X117447813Y-80471277D01*
X116598613Y-80487503D01*
X115889418Y-80781261D01*
X115729635Y-81100030D01*
X103458962Y-81100030D01*
X103646777Y-80647724D01*
X103647223Y-80136519D01*
X103452005Y-79664057D01*
X103090845Y-79302265D01*
X102653818Y-79120795D01*
X103088943Y-78941005D01*
X103450735Y-78579845D01*
X103646777Y-78107724D01*
X103647223Y-77596519D01*
X103452005Y-77124057D01*
X103090845Y-76762265D01*
X102653818Y-76580795D01*
X103088943Y-76401005D01*
X103352613Y-76137795D01*
X105728716Y-76137795D01*
X105977106Y-76738943D01*
X106436637Y-77199278D01*
X107037352Y-77448716D01*
X107687795Y-77449284D01*
X108288943Y-77200894D01*
X108749278Y-76741363D01*
X108998716Y-76140648D01*
X108998718Y-76137795D01*
X153128716Y-76137795D01*
X153377106Y-76738943D01*
X153836637Y-77199278D01*
X154437352Y-77448716D01*
X155087795Y-77449284D01*
X155688943Y-77200894D01*
X156149278Y-76741363D01*
X156398716Y-76140648D01*
X156399284Y-75490205D01*
X156150894Y-74889057D01*
X155691363Y-74428722D01*
X155090648Y-74179284D01*
X154440205Y-74178716D01*
X153839057Y-74427106D01*
X153378722Y-74886637D01*
X153129284Y-75487352D01*
X153128716Y-76137795D01*
X108998718Y-76137795D01*
X108999284Y-75490205D01*
X108750894Y-74889057D01*
X108291363Y-74428722D01*
X107690648Y-74179284D01*
X107040205Y-74178716D01*
X106439057Y-74427106D01*
X105978722Y-74886637D01*
X105729284Y-75487352D01*
X105728716Y-76137795D01*
X103352613Y-76137795D01*
X103450735Y-76039845D01*
X103646777Y-75567724D01*
X103647223Y-75056519D01*
X103452005Y-74584057D01*
X103090845Y-74222265D01*
X102618724Y-74026223D01*
X102196901Y-74025855D01*
X102197284Y-73587205D01*
X101948894Y-72986057D01*
X101538722Y-72575167D01*
X133303838Y-72575167D01*
X133445883Y-72918943D01*
X133708673Y-73182192D01*
X134052201Y-73324838D01*
X134424167Y-73325162D01*
X134767943Y-73183117D01*
X134799114Y-73152000D01*
X135955370Y-73152000D01*
X136367185Y-73563816D01*
X136515377Y-73662834D01*
X136614395Y-73728996D01*
X136906000Y-73787000D01*
X137488534Y-73787000D01*
X137518673Y-73817192D01*
X137862201Y-73959838D01*
X138234167Y-73960162D01*
X138577943Y-73818117D01*
X138841192Y-73555327D01*
X138983838Y-73211799D01*
X138984162Y-72839833D01*
X138842117Y-72496057D01*
X138579327Y-72232808D01*
X138235799Y-72090162D01*
X138023744Y-72089977D01*
X137953117Y-71919047D01*
X137690327Y-71655798D01*
X137346799Y-71513152D01*
X137302754Y-71513114D01*
X137005825Y-71216185D01*
X136934762Y-71168702D01*
X136931145Y-71166285D01*
X163646760Y-71166285D01*
X163857169Y-71675515D01*
X164246436Y-72065461D01*
X164755298Y-72276759D01*
X165306285Y-72277240D01*
X165815515Y-72066831D01*
X166019183Y-71863517D01*
X166780088Y-71863517D01*
X166848077Y-72104460D01*
X167367171Y-72289201D01*
X167917448Y-72261230D01*
X168295923Y-72104460D01*
X168363912Y-71863517D01*
X167572000Y-71071605D01*
X166780088Y-71863517D01*
X166019183Y-71863517D01*
X166205461Y-71677564D01*
X166295377Y-71461021D01*
X166359540Y-71615923D01*
X166600483Y-71683912D01*
X167392395Y-70892000D01*
X167751605Y-70892000D01*
X168543517Y-71683912D01*
X168784460Y-71615923D01*
X168944482Y-71166285D01*
X174206760Y-71166285D01*
X174417169Y-71675515D01*
X174806436Y-72065461D01*
X175315298Y-72276759D01*
X175866285Y-72277240D01*
X176375515Y-72066831D01*
X176579183Y-71863517D01*
X177340088Y-71863517D01*
X177408077Y-72104460D01*
X177927171Y-72289201D01*
X178477448Y-72261230D01*
X178855923Y-72104460D01*
X178923912Y-71863517D01*
X178132000Y-71071605D01*
X177340088Y-71863517D01*
X176579183Y-71863517D01*
X176765461Y-71677564D01*
X176855377Y-71461021D01*
X176919540Y-71615923D01*
X177160483Y-71683912D01*
X177952395Y-70892000D01*
X178311605Y-70892000D01*
X179103517Y-71683912D01*
X179344460Y-71615923D01*
X179529201Y-71096829D01*
X179501230Y-70546552D01*
X179344460Y-70168077D01*
X179103517Y-70100088D01*
X178311605Y-70892000D01*
X177952395Y-70892000D01*
X177160483Y-70100088D01*
X176919540Y-70168077D01*
X176860268Y-70334621D01*
X176766831Y-70108485D01*
X176579157Y-69920483D01*
X177340088Y-69920483D01*
X178132000Y-70712395D01*
X178923912Y-69920483D01*
X178855923Y-69679540D01*
X178336829Y-69494799D01*
X177786552Y-69522770D01*
X177408077Y-69679540D01*
X177340088Y-69920483D01*
X176579157Y-69920483D01*
X176377564Y-69718539D01*
X175868702Y-69507241D01*
X175317715Y-69506760D01*
X174808485Y-69717169D01*
X174418539Y-70106436D01*
X174207241Y-70615298D01*
X174206760Y-71166285D01*
X168944482Y-71166285D01*
X168969201Y-71096829D01*
X168941230Y-70546552D01*
X168784460Y-70168077D01*
X168543517Y-70100088D01*
X167751605Y-70892000D01*
X167392395Y-70892000D01*
X166600483Y-70100088D01*
X166359540Y-70168077D01*
X166300268Y-70334621D01*
X166206831Y-70108485D01*
X166019157Y-69920483D01*
X166780088Y-69920483D01*
X167572000Y-70712395D01*
X168363912Y-69920483D01*
X168295923Y-69679540D01*
X167776829Y-69494799D01*
X167226552Y-69522770D01*
X166848077Y-69679540D01*
X166780088Y-69920483D01*
X166019157Y-69920483D01*
X165817564Y-69718539D01*
X165308702Y-69507241D01*
X164757715Y-69506760D01*
X164248485Y-69717169D01*
X163858539Y-70106436D01*
X163647241Y-70615298D01*
X163646760Y-71166285D01*
X136931145Y-71166285D01*
X136758615Y-71051004D01*
X136467010Y-70993000D01*
X135434466Y-70993000D01*
X135404327Y-70962808D01*
X135060799Y-70820162D01*
X134688833Y-70819838D01*
X134345057Y-70961883D01*
X134081808Y-71224673D01*
X133972235Y-71488554D01*
X133710057Y-71596883D01*
X133446808Y-71859673D01*
X133304162Y-72203201D01*
X133303838Y-72575167D01*
X101538722Y-72575167D01*
X101489363Y-72525722D01*
X100888648Y-72276284D01*
X100238205Y-72275716D01*
X99637057Y-72524106D01*
X99176722Y-72983637D01*
X98927284Y-73584352D01*
X98926716Y-74234795D01*
X99175106Y-74835943D01*
X99634637Y-75296278D01*
X99652426Y-75303665D01*
X99492572Y-75312917D01*
X99158271Y-75451389D01*
X99102590Y-75681984D01*
X99822000Y-76401395D01*
X100541410Y-75681984D01*
X100508563Y-75545955D01*
X100885795Y-75546284D01*
X101076863Y-75467336D01*
X101076777Y-75565481D01*
X101271995Y-76037943D01*
X101633155Y-76399735D01*
X102070182Y-76581205D01*
X101635057Y-76760995D01*
X101273265Y-77122155D01*
X101077223Y-77594276D01*
X101076777Y-78105481D01*
X101271995Y-78577943D01*
X101633155Y-78939735D01*
X102070182Y-79121205D01*
X101635057Y-79300995D01*
X101273265Y-79662155D01*
X101077223Y-80134276D01*
X101076777Y-80645481D01*
X101271995Y-81117943D01*
X101633155Y-81479735D01*
X102070182Y-81661205D01*
X101635057Y-81840995D01*
X101273265Y-82202155D01*
X101077223Y-82674276D01*
X101076777Y-83185481D01*
X101271995Y-83657943D01*
X101633155Y-84019735D01*
X102070182Y-84201205D01*
X101635057Y-84380995D01*
X101273265Y-84742155D01*
X101077223Y-85214276D01*
X101076777Y-85725481D01*
X101271995Y-86197943D01*
X101306991Y-86233000D01*
X101002471Y-86233000D01*
X100912005Y-86014057D01*
X100550845Y-85652265D01*
X100113818Y-85470795D01*
X100548943Y-85291005D01*
X100910735Y-84929845D01*
X101106777Y-84457724D01*
X101107223Y-83946519D01*
X100912005Y-83474057D01*
X100550845Y-83112265D01*
X100113818Y-82930795D01*
X100548943Y-82751005D01*
X100910735Y-82389845D01*
X101106777Y-81917724D01*
X101107223Y-81406519D01*
X100912005Y-80934057D01*
X100550845Y-80572265D01*
X100113818Y-80390795D01*
X100548943Y-80211005D01*
X100910735Y-79849845D01*
X101106777Y-79377724D01*
X101107223Y-78866519D01*
X100912005Y-78394057D01*
X100550845Y-78032265D01*
X100114800Y-77851203D01*
X100151428Y-77849083D01*
X100485729Y-77710611D01*
X100541410Y-77480016D01*
X99822000Y-76760605D01*
X99102590Y-77480016D01*
X99158271Y-77710611D01*
X99544860Y-77845139D01*
X99095057Y-78030995D01*
X98733265Y-78392155D01*
X98537223Y-78864276D01*
X98536777Y-79375481D01*
X97116673Y-79375481D01*
X97116673Y-76400078D01*
X98524378Y-76400078D01*
X98553917Y-76910428D01*
X98692389Y-77244729D01*
X98922984Y-77300410D01*
X99642395Y-76581000D01*
X100001605Y-76581000D01*
X100721016Y-77300410D01*
X100951611Y-77244729D01*
X101119622Y-76761922D01*
X101090083Y-76251572D01*
X100951611Y-75917271D01*
X100721016Y-75861590D01*
X100001605Y-76581000D01*
X99642395Y-76581000D01*
X98922984Y-75861590D01*
X98692389Y-75917271D01*
X98524378Y-76400078D01*
X97116673Y-76400078D01*
X97116673Y-72456297D01*
X97416008Y-71822134D01*
X97950490Y-71336953D01*
X98651779Y-71078043D01*
X119538996Y-67565659D01*
X163387946Y-67565659D01*
X163532467Y-67871444D01*
X164277993Y-68160571D01*
X165077414Y-68142389D01*
X165731533Y-67871444D01*
X165876054Y-67565659D01*
X177287946Y-67565659D01*
X177432467Y-67871444D01*
X178177993Y-68160571D01*
X178977414Y-68142389D01*
X179631533Y-67871444D01*
X179776054Y-67565659D01*
X178532000Y-66321605D01*
X177287946Y-67565659D01*
X165876054Y-67565659D01*
X164632000Y-66321605D01*
X163387946Y-67565659D01*
X119538996Y-67565659D01*
X130110305Y-65787993D01*
X162613429Y-65787993D01*
X162631611Y-66587414D01*
X162902556Y-67241533D01*
X163208341Y-67386054D01*
X164452395Y-66142000D01*
X163208341Y-64897946D01*
X162902556Y-65042467D01*
X162613429Y-65787993D01*
X130110305Y-65787993D01*
X136471242Y-64718341D01*
X163387946Y-64718341D01*
X164632000Y-65962395D01*
X164646143Y-65948253D01*
X164825748Y-66127858D01*
X164811605Y-66142000D01*
X166055659Y-67386054D01*
X166361444Y-67241533D01*
X166650571Y-66496007D01*
X166634468Y-65787993D01*
X176513429Y-65787993D01*
X176531611Y-66587414D01*
X176802556Y-67241533D01*
X177108341Y-67386054D01*
X178352395Y-66142000D01*
X178711605Y-66142000D01*
X179955659Y-67386054D01*
X180261444Y-67241533D01*
X180550571Y-66496007D01*
X180532389Y-65696586D01*
X180261444Y-65042467D01*
X179955659Y-64897946D01*
X178711605Y-66142000D01*
X178352395Y-66142000D01*
X177108341Y-64897946D01*
X176802556Y-65042467D01*
X176513429Y-65787993D01*
X166634468Y-65787993D01*
X166632389Y-65696586D01*
X166561159Y-65524622D01*
X166855298Y-65646759D01*
X167406285Y-65647240D01*
X167915515Y-65436831D01*
X168305461Y-65047564D01*
X168401976Y-64815130D01*
X168497169Y-65045515D01*
X168886436Y-65435461D01*
X169395298Y-65646759D01*
X169946285Y-65647240D01*
X170455515Y-65436831D01*
X170845461Y-65047564D01*
X170941976Y-64815130D01*
X171037169Y-65045515D01*
X171426436Y-65435461D01*
X171935298Y-65646759D01*
X172486285Y-65647240D01*
X172995515Y-65436831D01*
X173385461Y-65047564D01*
X173481976Y-64815130D01*
X173577169Y-65045515D01*
X173966436Y-65435461D01*
X174475298Y-65646759D01*
X175026285Y-65647240D01*
X175535515Y-65436831D01*
X175925461Y-65047564D01*
X176062166Y-64718341D01*
X177287946Y-64718341D01*
X178532000Y-65962395D01*
X179776054Y-64718341D01*
X179631533Y-64412556D01*
X178886007Y-64123429D01*
X178086586Y-64141611D01*
X177432467Y-64412556D01*
X177287946Y-64718341D01*
X176062166Y-64718341D01*
X176136759Y-64538702D01*
X176137240Y-63987715D01*
X175926831Y-63478485D01*
X175537564Y-63088539D01*
X175028702Y-62877241D01*
X174477715Y-62876760D01*
X173968485Y-63087169D01*
X173578539Y-63476436D01*
X173482024Y-63708870D01*
X173386831Y-63478485D01*
X172997564Y-63088539D01*
X172488702Y-62877241D01*
X171937715Y-62876760D01*
X171428485Y-63087169D01*
X171038539Y-63476436D01*
X170942024Y-63708870D01*
X170846831Y-63478485D01*
X170457564Y-63088539D01*
X169948702Y-62877241D01*
X169397715Y-62876760D01*
X168888485Y-63087169D01*
X168498539Y-63476436D01*
X168402024Y-63708870D01*
X168306831Y-63478485D01*
X167917564Y-63088539D01*
X167408702Y-62877241D01*
X166857715Y-62876760D01*
X166348485Y-63087169D01*
X165958539Y-63476436D01*
X165747241Y-63985298D01*
X165746840Y-64444943D01*
X165731533Y-64412556D01*
X164986007Y-64123429D01*
X164186586Y-64141611D01*
X163532467Y-64412556D01*
X163387946Y-64718341D01*
X136471242Y-64718341D01*
X152658588Y-61996285D01*
X167016760Y-61996285D01*
X167227169Y-62505515D01*
X167616436Y-62895461D01*
X168125298Y-63106759D01*
X168676285Y-63107240D01*
X169185515Y-62896831D01*
X169575461Y-62507564D01*
X169671976Y-62275130D01*
X169767169Y-62505515D01*
X170156436Y-62895461D01*
X170665298Y-63106759D01*
X171216285Y-63107240D01*
X171725515Y-62896831D01*
X172115461Y-62507564D01*
X172211976Y-62275130D01*
X172307169Y-62505515D01*
X172696436Y-62895461D01*
X173205298Y-63106759D01*
X173756285Y-63107240D01*
X174265515Y-62896831D01*
X174469183Y-62693517D01*
X175230088Y-62693517D01*
X175298077Y-62934460D01*
X175817171Y-63119201D01*
X176367448Y-63091230D01*
X176745923Y-62934460D01*
X176813912Y-62693517D01*
X176022000Y-61901605D01*
X175230088Y-62693517D01*
X174469183Y-62693517D01*
X174655461Y-62507564D01*
X174745377Y-62291021D01*
X174809540Y-62445923D01*
X175050483Y-62513912D01*
X175842395Y-61722000D01*
X176201605Y-61722000D01*
X176993517Y-62513912D01*
X177234460Y-62445923D01*
X177419201Y-61926829D01*
X177391230Y-61376552D01*
X177234460Y-60998077D01*
X176993517Y-60930088D01*
X176201605Y-61722000D01*
X175842395Y-61722000D01*
X175050483Y-60930088D01*
X174809540Y-60998077D01*
X174750268Y-61164621D01*
X174656831Y-60938485D01*
X174469157Y-60750483D01*
X175230088Y-60750483D01*
X176022000Y-61542395D01*
X176813912Y-60750483D01*
X176745923Y-60509540D01*
X176226829Y-60324799D01*
X175676552Y-60352770D01*
X175298077Y-60509540D01*
X175230088Y-60750483D01*
X174469157Y-60750483D01*
X174267564Y-60548539D01*
X173758702Y-60337241D01*
X173207715Y-60336760D01*
X172698485Y-60547169D01*
X172308539Y-60936436D01*
X172212024Y-61168870D01*
X172116831Y-60938485D01*
X171727564Y-60548539D01*
X171218702Y-60337241D01*
X170667715Y-60336760D01*
X170158485Y-60547169D01*
X169768539Y-60936436D01*
X169672024Y-61168870D01*
X169576831Y-60938485D01*
X169187564Y-60548539D01*
X168678702Y-60337241D01*
X168127715Y-60336760D01*
X167618485Y-60547169D01*
X167228539Y-60936436D01*
X167017241Y-61445298D01*
X167016760Y-61996285D01*
X152658588Y-61996285D01*
X178695852Y-57617872D01*
X179482838Y-57641291D01*
X179482838Y-57641291D01*
G37*
X179482838Y-57641291D02*
X180138221Y-57935892D01*
X180630973Y-58458869D01*
X180900229Y-59167859D01*
X180925000Y-59464549D01*
X180925000Y-93217675D01*
X180771398Y-93989885D01*
X180372193Y-94587335D01*
X179764597Y-94993318D01*
X179141963Y-95139579D01*
X99166408Y-100646440D01*
X98385472Y-100546247D01*
X97762008Y-100189028D01*
X97322705Y-99620410D01*
X97119540Y-98872068D01*
X97116673Y-98788694D01*
X97116673Y-93784167D01*
X97362838Y-93784167D01*
X97409000Y-93895888D01*
X97409000Y-96012000D01*
X97476671Y-96352206D01*
X97669382Y-96640618D01*
X98094238Y-97065474D01*
X98139883Y-97175943D01*
X98402673Y-97439192D01*
X98746201Y-97581838D01*
X99118167Y-97582162D01*
X99461943Y-97440117D01*
X99725192Y-97177327D01*
X99867838Y-96833799D01*
X99868162Y-96461833D01*
X99726117Y-96118057D01*
X99463327Y-95854808D01*
X99351687Y-95808451D01*
X99187000Y-95643764D01*
X99187000Y-94237795D01*
X104228716Y-94237795D01*
X104477106Y-94838943D01*
X104936637Y-95299278D01*
X105537352Y-95548716D01*
X106187795Y-95549284D01*
X106788943Y-95300894D01*
X107249278Y-94841363D01*
X107498716Y-94240648D01*
X107498718Y-94237795D01*
X154628716Y-94237795D01*
X154877106Y-94838943D01*
X155336637Y-95299278D01*
X155937352Y-95548716D01*
X156587795Y-95549284D01*
X157188943Y-95300894D01*
X157649278Y-94841363D01*
X157898716Y-94240648D01*
X157899284Y-93590205D01*
X157650894Y-92989057D01*
X157191363Y-92528722D01*
X156590648Y-92279284D01*
X155940205Y-92278716D01*
X155339057Y-92527106D01*
X154878722Y-92986637D01*
X154629284Y-93587352D01*
X154628716Y-94237795D01*
X107498718Y-94237795D01*
X107499284Y-93590205D01*
X107250894Y-92989057D01*
X106791363Y-92528722D01*
X106190648Y-92279284D01*
X105540205Y-92278716D01*
X104939057Y-92527106D01*
X104478722Y-92986637D01*
X104229284Y-93587352D01*
X104228716Y-94237795D01*
X99187000Y-94237795D01*
X99187000Y-93896189D01*
X99232838Y-93785799D01*
X99233162Y-93413833D01*
X99091117Y-93070057D01*
X98828327Y-92806808D01*
X98484799Y-92664162D01*
X98112833Y-92663838D01*
X97769057Y-92805883D01*
X97505808Y-93068673D01*
X97363162Y-93412201D01*
X97362838Y-93784167D01*
X97116673Y-93784167D01*
X97116673Y-79375481D01*
X98536777Y-79375481D01*
X98731995Y-79847943D01*
X99093155Y-80209735D01*
X99530182Y-80391205D01*
X99095057Y-80570995D01*
X98733265Y-80932155D01*
X98537223Y-81404276D01*
X98536777Y-81915481D01*
X98731995Y-82387943D01*
X99093155Y-82749735D01*
X99530182Y-82931205D01*
X99095057Y-83110995D01*
X98733265Y-83472155D01*
X98537223Y-83944276D01*
X98536777Y-84455481D01*
X98731995Y-84927943D01*
X99093155Y-85289735D01*
X99530182Y-85471205D01*
X99095057Y-85650995D01*
X98733265Y-86012155D01*
X98537223Y-86484276D01*
X98536777Y-86995481D01*
X98731995Y-87467943D01*
X99093155Y-87829735D01*
X99530182Y-88011205D01*
X99095057Y-88190995D01*
X98733265Y-88552155D01*
X98537223Y-89024276D01*
X98536777Y-89535481D01*
X98731995Y-90007943D01*
X99093155Y-90369735D01*
X99530182Y-90551205D01*
X99095057Y-90730995D01*
X98733265Y-91092155D01*
X98537223Y-91564276D01*
X98536777Y-92075481D01*
X98731995Y-92547943D01*
X99093155Y-92909735D01*
X99565276Y-93105777D01*
X100076481Y-93106223D01*
X100548943Y-92911005D01*
X100910735Y-92549845D01*
X101106777Y-92077724D01*
X101107223Y-91566519D01*
X100912005Y-91094057D01*
X100550845Y-90732265D01*
X100113818Y-90550795D01*
X100548943Y-90371005D01*
X100910735Y-90009845D01*
X101106777Y-89537724D01*
X101107223Y-89026519D01*
X100912005Y-88554057D01*
X100550845Y-88192265D01*
X100113818Y-88010795D01*
X100548943Y-87831005D01*
X100623078Y-87757000D01*
X101077221Y-87757000D01*
X101076777Y-88265481D01*
X101271995Y-88737943D01*
X101633155Y-89099735D01*
X102070182Y-89281205D01*
X101635057Y-89460995D01*
X101273265Y-89822155D01*
X101077223Y-90294276D01*
X101076777Y-90805481D01*
X101271995Y-91277943D01*
X101633155Y-91639735D01*
X102105276Y-91835777D01*
X102616481Y-91836223D01*
X103088943Y-91641005D01*
X103450735Y-91279845D01*
X103551649Y-91036815D01*
X114928630Y-91036815D01*
X115252980Y-91821800D01*
X115853041Y-92422909D01*
X116637459Y-92748628D01*
X117486815Y-92749370D01*
X118271800Y-92425020D01*
X118872909Y-91824959D01*
X119064068Y-91364598D01*
X119252980Y-91821800D01*
X119853041Y-92422909D01*
X120637459Y-92748628D01*
X121486815Y-92749370D01*
X122271800Y-92425020D01*
X122872909Y-91824959D01*
X123064068Y-91364598D01*
X123252980Y-91821800D01*
X123853041Y-92422909D01*
X124637459Y-92748628D01*
X125486815Y-92749370D01*
X126271800Y-92425020D01*
X126872909Y-91824959D01*
X127064068Y-91364598D01*
X127252980Y-91821800D01*
X127853041Y-92422909D01*
X128637459Y-92748628D01*
X129486815Y-92749370D01*
X130271800Y-92425020D01*
X130872909Y-91824959D01*
X131064068Y-91364598D01*
X131252980Y-91821800D01*
X131853041Y-92422909D01*
X132637459Y-92748628D01*
X133486815Y-92749370D01*
X134271800Y-92425020D01*
X134569368Y-92127970D01*
X135729635Y-92127970D01*
X135889418Y-92446739D01*
X136680187Y-92756723D01*
X137529387Y-92740497D01*
X138238582Y-92446739D01*
X138398365Y-92127970D01*
X137064000Y-90793605D01*
X135729635Y-92127970D01*
X134569368Y-92127970D01*
X134872909Y-91824959D01*
X135059849Y-91374757D01*
X135231261Y-91788582D01*
X135550030Y-91948365D01*
X136884395Y-90614000D01*
X137243605Y-90614000D01*
X138577970Y-91948365D01*
X138896739Y-91788582D01*
X139063490Y-91363200D01*
X139252980Y-91821800D01*
X139853041Y-92422909D01*
X140637459Y-92748628D01*
X141486815Y-92749370D01*
X142271800Y-92425020D01*
X142872909Y-91824959D01*
X143064068Y-91364598D01*
X143252980Y-91821800D01*
X143853041Y-92422909D01*
X144637459Y-92748628D01*
X145486815Y-92749370D01*
X146271800Y-92425020D01*
X146872909Y-91824959D01*
X147198628Y-91040541D01*
X147199370Y-90191185D01*
X146875020Y-89406200D01*
X146274959Y-88805091D01*
X145490541Y-88479372D01*
X144641185Y-88478630D01*
X143856200Y-88802980D01*
X143255091Y-89403041D01*
X143063932Y-89863402D01*
X142875020Y-89406200D01*
X142274959Y-88805091D01*
X141490541Y-88479372D01*
X140641185Y-88478630D01*
X139856200Y-88802980D01*
X139255091Y-89403041D01*
X139068151Y-89853243D01*
X138896739Y-89439418D01*
X138577970Y-89279635D01*
X137243605Y-90614000D01*
X136884395Y-90614000D01*
X135550030Y-89279635D01*
X135231261Y-89439418D01*
X135064510Y-89864800D01*
X134875020Y-89406200D01*
X134569384Y-89100030D01*
X135729635Y-89100030D01*
X137064000Y-90434395D01*
X138398365Y-89100030D01*
X138238582Y-88781261D01*
X137447813Y-88471277D01*
X136598613Y-88487503D01*
X135889418Y-88781261D01*
X135729635Y-89100030D01*
X134569384Y-89100030D01*
X134274959Y-88805091D01*
X133490541Y-88479372D01*
X132641185Y-88478630D01*
X131856200Y-88802980D01*
X131255091Y-89403041D01*
X131063932Y-89863402D01*
X130875020Y-89406200D01*
X130274959Y-88805091D01*
X129490541Y-88479372D01*
X128641185Y-88478630D01*
X127856200Y-88802980D01*
X127255091Y-89403041D01*
X127063932Y-89863402D01*
X126875020Y-89406200D01*
X126274959Y-88805091D01*
X125490541Y-88479372D01*
X124641185Y-88478630D01*
X123856200Y-88802980D01*
X123255091Y-89403041D01*
X123063932Y-89863402D01*
X122875020Y-89406200D01*
X122274959Y-88805091D01*
X121490541Y-88479372D01*
X120641185Y-88478630D01*
X119856200Y-88802980D01*
X119255091Y-89403041D01*
X119063932Y-89863402D01*
X118875020Y-89406200D01*
X118274959Y-88805091D01*
X117490541Y-88479372D01*
X116641185Y-88478630D01*
X115856200Y-88802980D01*
X115255091Y-89403041D01*
X114929372Y-90187459D01*
X114928630Y-91036815D01*
X103551649Y-91036815D01*
X103646777Y-90807724D01*
X103647223Y-90296519D01*
X103452005Y-89824057D01*
X103090845Y-89462265D01*
X102653818Y-89280795D01*
X103088943Y-89101005D01*
X103417522Y-88773000D01*
X105410000Y-88773000D01*
X105701605Y-88714996D01*
X105948815Y-88549815D01*
X106976668Y-87521962D01*
X108503643Y-87521962D01*
X108816599Y-88279372D01*
X109395580Y-88859365D01*
X110152443Y-89173642D01*
X110971962Y-89174357D01*
X111729372Y-88861401D01*
X112309365Y-88282420D01*
X112623642Y-87525557D01*
X112624068Y-87036815D01*
X116928630Y-87036815D01*
X117252980Y-87821800D01*
X117853041Y-88422909D01*
X118637459Y-88748628D01*
X119486815Y-88749370D01*
X120271800Y-88425020D01*
X120872909Y-87824959D01*
X121064068Y-87364598D01*
X121252980Y-87821800D01*
X121853041Y-88422909D01*
X122637459Y-88748628D01*
X123486815Y-88749370D01*
X124271800Y-88425020D01*
X124872909Y-87824959D01*
X125064068Y-87364598D01*
X125252980Y-87821800D01*
X125853041Y-88422909D01*
X126637459Y-88748628D01*
X127486815Y-88749370D01*
X128271800Y-88425020D01*
X128872909Y-87824959D01*
X129064068Y-87364598D01*
X129252980Y-87821800D01*
X129853041Y-88422909D01*
X130637459Y-88748628D01*
X131486815Y-88749370D01*
X132271800Y-88425020D01*
X132872909Y-87824959D01*
X133064068Y-87364598D01*
X133252980Y-87821800D01*
X133853041Y-88422909D01*
X134637459Y-88748628D01*
X135486815Y-88749370D01*
X136271800Y-88425020D01*
X136872909Y-87824959D01*
X137064068Y-87364598D01*
X137252980Y-87821800D01*
X137853041Y-88422909D01*
X138637459Y-88748628D01*
X139486815Y-88749370D01*
X140271800Y-88425020D01*
X140872909Y-87824959D01*
X141064068Y-87364598D01*
X141252980Y-87821800D01*
X141853041Y-88422909D01*
X142637459Y-88748628D01*
X143486815Y-88749370D01*
X144271800Y-88425020D01*
X144872909Y-87824959D01*
X144998724Y-87521962D01*
X149503643Y-87521962D01*
X149816599Y-88279372D01*
X150395580Y-88859365D01*
X151152443Y-89173642D01*
X151971962Y-89174357D01*
X152729372Y-88861401D01*
X153309365Y-88282420D01*
X153623642Y-87525557D01*
X153624357Y-86706038D01*
X153311401Y-85948628D01*
X152732420Y-85368635D01*
X151975557Y-85054358D01*
X151156038Y-85053643D01*
X150398628Y-85366599D01*
X149818635Y-85945580D01*
X149504358Y-86702443D01*
X149503643Y-87521962D01*
X144998724Y-87521962D01*
X145198628Y-87040541D01*
X145199370Y-86191185D01*
X144875020Y-85406200D01*
X144274959Y-84805091D01*
X143490541Y-84479372D01*
X142641185Y-84478630D01*
X141856200Y-84802980D01*
X141255091Y-85403041D01*
X141063932Y-85863402D01*
X140875020Y-85406200D01*
X140274959Y-84805091D01*
X139490541Y-84479372D01*
X138641185Y-84478630D01*
X137856200Y-84802980D01*
X137255091Y-85403041D01*
X137063932Y-85863402D01*
X136875020Y-85406200D01*
X136274959Y-84805091D01*
X135490541Y-84479372D01*
X134641185Y-84478630D01*
X133856200Y-84802980D01*
X133255091Y-85403041D01*
X133063932Y-85863402D01*
X132875020Y-85406200D01*
X132274959Y-84805091D01*
X131490541Y-84479372D01*
X130641185Y-84478630D01*
X129856200Y-84802980D01*
X129255091Y-85403041D01*
X129063932Y-85863402D01*
X128875020Y-85406200D01*
X128274959Y-84805091D01*
X127490541Y-84479372D01*
X126641185Y-84478630D01*
X125856200Y-84802980D01*
X125255091Y-85403041D01*
X125063932Y-85863402D01*
X124875020Y-85406200D01*
X124274959Y-84805091D01*
X123490541Y-84479372D01*
X122641185Y-84478630D01*
X121856200Y-84802980D01*
X121255091Y-85403041D01*
X121063932Y-85863402D01*
X120875020Y-85406200D01*
X120274959Y-84805091D01*
X119490541Y-84479372D01*
X118641185Y-84478630D01*
X117856200Y-84802980D01*
X117255091Y-85403041D01*
X116929372Y-86187459D01*
X116928630Y-87036815D01*
X112624068Y-87036815D01*
X112624357Y-86706038D01*
X112311401Y-85948628D01*
X111732420Y-85368635D01*
X110975557Y-85054358D01*
X110156038Y-85053643D01*
X109398628Y-85366599D01*
X108818635Y-85945580D01*
X108504358Y-86702443D01*
X108503643Y-87521962D01*
X106976668Y-87521962D01*
X107472815Y-87025816D01*
X107637996Y-86778605D01*
X107648504Y-86725777D01*
X107696000Y-86487000D01*
X107696000Y-86158466D01*
X107726192Y-86128327D01*
X107868838Y-85784799D01*
X107869162Y-85412833D01*
X107727117Y-85069057D01*
X107464327Y-84805808D01*
X107120799Y-84663162D01*
X107007265Y-84663063D01*
X106965117Y-84561057D01*
X106702327Y-84297808D01*
X106358799Y-84155162D01*
X105986833Y-84154838D01*
X105643057Y-84296883D01*
X105379808Y-84559673D01*
X105237162Y-84903201D01*
X105236838Y-85275167D01*
X105378883Y-85618943D01*
X105410000Y-85650114D01*
X105410000Y-85790370D01*
X104967370Y-86233000D01*
X103417522Y-86233000D01*
X103450735Y-86199845D01*
X103646777Y-85727724D01*
X103647223Y-85216519D01*
X103452005Y-84744057D01*
X103090845Y-84382265D01*
X102653818Y-84200795D01*
X102830067Y-84127970D01*
X115729635Y-84127970D01*
X115889418Y-84446739D01*
X116680187Y-84756723D01*
X117529387Y-84740497D01*
X118238582Y-84446739D01*
X118398365Y-84127970D01*
X119729635Y-84127970D01*
X119889418Y-84446739D01*
X120680187Y-84756723D01*
X121529387Y-84740497D01*
X122238582Y-84446739D01*
X122398365Y-84127970D01*
X121064000Y-82793605D01*
X119729635Y-84127970D01*
X118398365Y-84127970D01*
X117064000Y-82793605D01*
X115729635Y-84127970D01*
X102830067Y-84127970D01*
X103088943Y-84021005D01*
X103450735Y-83659845D01*
X103646777Y-83187724D01*
X103647223Y-82676519D01*
X103462802Y-82230187D01*
X114921277Y-82230187D01*
X114937503Y-83079387D01*
X115231261Y-83788582D01*
X115550030Y-83948365D01*
X116884395Y-82614000D01*
X117243605Y-82614000D01*
X118577970Y-83948365D01*
X118896739Y-83788582D01*
X119059392Y-83373654D01*
X119231261Y-83788582D01*
X119550030Y-83948365D01*
X120884395Y-82614000D01*
X121243605Y-82614000D01*
X122577970Y-83948365D01*
X122896739Y-83788582D01*
X123063490Y-83363200D01*
X123252980Y-83821800D01*
X123853041Y-84422909D01*
X124637459Y-84748628D01*
X125486815Y-84749370D01*
X126271800Y-84425020D01*
X126872909Y-83824959D01*
X127064068Y-83364598D01*
X127252980Y-83821800D01*
X127853041Y-84422909D01*
X128637459Y-84748628D01*
X129486815Y-84749370D01*
X130271800Y-84425020D01*
X130569368Y-84127970D01*
X131729635Y-84127970D01*
X131889418Y-84446739D01*
X132680187Y-84756723D01*
X133529387Y-84740497D01*
X134238582Y-84446739D01*
X134398365Y-84127970D01*
X133064000Y-82793605D01*
X131729635Y-84127970D01*
X130569368Y-84127970D01*
X130872909Y-83824959D01*
X131059849Y-83374757D01*
X131231261Y-83788582D01*
X131550030Y-83948365D01*
X132884395Y-82614000D01*
X133243605Y-82614000D01*
X134577970Y-83948365D01*
X134896739Y-83788582D01*
X135063490Y-83363200D01*
X135252980Y-83821800D01*
X135853041Y-84422909D01*
X136637459Y-84748628D01*
X137486815Y-84749370D01*
X138271800Y-84425020D01*
X138872909Y-83824959D01*
X139064068Y-83364598D01*
X139252980Y-83821800D01*
X139853041Y-84422909D01*
X140637459Y-84748628D01*
X141486815Y-84749370D01*
X142271800Y-84425020D01*
X142872909Y-83824959D01*
X143064068Y-83364598D01*
X143252980Y-83821800D01*
X143853041Y-84422909D01*
X144637459Y-84748628D01*
X145486815Y-84749370D01*
X146271800Y-84425020D01*
X146872909Y-83824959D01*
X147198628Y-83040541D01*
X147199370Y-82191185D01*
X146875550Y-81407481D01*
X175498777Y-81407481D01*
X175693995Y-81879943D01*
X176055155Y-82241735D01*
X176492182Y-82423205D01*
X176057057Y-82602995D01*
X175695265Y-82964155D01*
X175499223Y-83436276D01*
X175498777Y-83947481D01*
X175693995Y-84419943D01*
X176055155Y-84781735D01*
X176492182Y-84963205D01*
X176057057Y-85142995D01*
X175695265Y-85504155D01*
X175499223Y-85976276D01*
X175498777Y-86487481D01*
X175693995Y-86959943D01*
X176055155Y-87321735D01*
X176527276Y-87517777D01*
X177038481Y-87518223D01*
X177510943Y-87323005D01*
X177872735Y-86961845D01*
X178068777Y-86489724D01*
X178069223Y-85978519D01*
X177874005Y-85506057D01*
X177512845Y-85144265D01*
X177075818Y-84962795D01*
X177510943Y-84783005D01*
X177872735Y-84421845D01*
X178068777Y-83949724D01*
X178069223Y-83438519D01*
X177874005Y-82966057D01*
X177512845Y-82604265D01*
X177075818Y-82422795D01*
X177510943Y-82243005D01*
X177872735Y-81881845D01*
X178068777Y-81409724D01*
X178069223Y-80898519D01*
X177874005Y-80426057D01*
X177566524Y-80118038D01*
X177847795Y-80118284D01*
X178038863Y-80039336D01*
X178038777Y-80137481D01*
X178233995Y-80609943D01*
X178595155Y-80971735D01*
X179032182Y-81153205D01*
X178597057Y-81332995D01*
X178235265Y-81694155D01*
X178039223Y-82166276D01*
X178038777Y-82677481D01*
X178233995Y-83149943D01*
X178595155Y-83511735D01*
X179032182Y-83693205D01*
X178597057Y-83872995D01*
X178235265Y-84234155D01*
X178039223Y-84706276D01*
X178038777Y-85217481D01*
X178233995Y-85689943D01*
X178595155Y-86051735D01*
X179067276Y-86247777D01*
X179578481Y-86248223D01*
X180050943Y-86053005D01*
X180412735Y-85691845D01*
X180608777Y-85219724D01*
X180609223Y-84708519D01*
X180414005Y-84236057D01*
X180052845Y-83874265D01*
X179615818Y-83692795D01*
X180050943Y-83513005D01*
X180412735Y-83151845D01*
X180608777Y-82679724D01*
X180609223Y-82168519D01*
X180414005Y-81696057D01*
X180052845Y-81334265D01*
X179615818Y-81152795D01*
X180050943Y-80973005D01*
X180412735Y-80611845D01*
X180608777Y-80139724D01*
X180609223Y-79628519D01*
X180414005Y-79156057D01*
X180052845Y-78794265D01*
X179580724Y-78598223D01*
X179158901Y-78597855D01*
X179159284Y-78159205D01*
X178910894Y-77558057D01*
X178451363Y-77097722D01*
X177850648Y-76848284D01*
X177200205Y-76847716D01*
X176599057Y-77096106D01*
X176138722Y-77555637D01*
X175889284Y-78156352D01*
X175888716Y-78806795D01*
X176137106Y-79407943D01*
X176596195Y-79867835D01*
X176529519Y-79867777D01*
X176057057Y-80062995D01*
X175695265Y-80424155D01*
X175499223Y-80896276D01*
X175498777Y-81407481D01*
X146875550Y-81407481D01*
X146875020Y-81406200D01*
X146274959Y-80805091D01*
X145490541Y-80479372D01*
X144641185Y-80478630D01*
X143856200Y-80802980D01*
X143255091Y-81403041D01*
X143063932Y-81863402D01*
X142875020Y-81406200D01*
X142274959Y-80805091D01*
X141490541Y-80479372D01*
X140641185Y-80478630D01*
X139856200Y-80802980D01*
X139255091Y-81403041D01*
X139063932Y-81863402D01*
X138875020Y-81406200D01*
X138274959Y-80805091D01*
X137490541Y-80479372D01*
X136641185Y-80478630D01*
X135856200Y-80802980D01*
X135255091Y-81403041D01*
X135068151Y-81853243D01*
X134896739Y-81439418D01*
X134577970Y-81279635D01*
X133243605Y-82614000D01*
X132884395Y-82614000D01*
X131550030Y-81279635D01*
X131231261Y-81439418D01*
X131064510Y-81864800D01*
X130875020Y-81406200D01*
X130569384Y-81100030D01*
X131729635Y-81100030D01*
X133064000Y-82434395D01*
X134398365Y-81100030D01*
X134238582Y-80781261D01*
X133447813Y-80471277D01*
X132598613Y-80487503D01*
X131889418Y-80781261D01*
X131729635Y-81100030D01*
X130569384Y-81100030D01*
X130274959Y-80805091D01*
X129490541Y-80479372D01*
X128641185Y-80478630D01*
X127856200Y-80802980D01*
X127255091Y-81403041D01*
X127063932Y-81863402D01*
X126875020Y-81406200D01*
X126274959Y-80805091D01*
X125490541Y-80479372D01*
X124641185Y-80478630D01*
X123856200Y-80802980D01*
X123255091Y-81403041D01*
X123068151Y-81853243D01*
X122896739Y-81439418D01*
X122577970Y-81279635D01*
X121243605Y-82614000D01*
X120884395Y-82614000D01*
X119550030Y-81279635D01*
X119231261Y-81439418D01*
X119068608Y-81854346D01*
X118896739Y-81439418D01*
X118577970Y-81279635D01*
X117243605Y-82614000D01*
X116884395Y-82614000D01*
X115550030Y-81279635D01*
X115231261Y-81439418D01*
X114921277Y-82230187D01*
X103462802Y-82230187D01*
X103452005Y-82204057D01*
X103090845Y-81842265D01*
X102653818Y-81660795D01*
X103088943Y-81481005D01*
X103450735Y-81119845D01*
X103458962Y-81100030D01*
X115729635Y-81100030D01*
X117064000Y-82434395D01*
X118398365Y-81100030D01*
X119729635Y-81100030D01*
X121064000Y-82434395D01*
X122398365Y-81100030D01*
X122238582Y-80781261D01*
X121447813Y-80471277D01*
X120598613Y-80487503D01*
X119889418Y-80781261D01*
X119729635Y-81100030D01*
X118398365Y-81100030D01*
X118238582Y-80781261D01*
X117447813Y-80471277D01*
X116598613Y-80487503D01*
X115889418Y-80781261D01*
X115729635Y-81100030D01*
X103458962Y-81100030D01*
X103646777Y-80647724D01*
X103647223Y-80136519D01*
X103452005Y-79664057D01*
X103090845Y-79302265D01*
X102653818Y-79120795D01*
X103088943Y-78941005D01*
X103450735Y-78579845D01*
X103646777Y-78107724D01*
X103647223Y-77596519D01*
X103452005Y-77124057D01*
X103090845Y-76762265D01*
X102653818Y-76580795D01*
X103088943Y-76401005D01*
X103352613Y-76137795D01*
X105728716Y-76137795D01*
X105977106Y-76738943D01*
X106436637Y-77199278D01*
X107037352Y-77448716D01*
X107687795Y-77449284D01*
X108288943Y-77200894D01*
X108749278Y-76741363D01*
X108998716Y-76140648D01*
X108998718Y-76137795D01*
X153128716Y-76137795D01*
X153377106Y-76738943D01*
X153836637Y-77199278D01*
X154437352Y-77448716D01*
X155087795Y-77449284D01*
X155688943Y-77200894D01*
X156149278Y-76741363D01*
X156398716Y-76140648D01*
X156399284Y-75490205D01*
X156150894Y-74889057D01*
X155691363Y-74428722D01*
X155090648Y-74179284D01*
X154440205Y-74178716D01*
X153839057Y-74427106D01*
X153378722Y-74886637D01*
X153129284Y-75487352D01*
X153128716Y-76137795D01*
X108998718Y-76137795D01*
X108999284Y-75490205D01*
X108750894Y-74889057D01*
X108291363Y-74428722D01*
X107690648Y-74179284D01*
X107040205Y-74178716D01*
X106439057Y-74427106D01*
X105978722Y-74886637D01*
X105729284Y-75487352D01*
X105728716Y-76137795D01*
X103352613Y-76137795D01*
X103450735Y-76039845D01*
X103646777Y-75567724D01*
X103647223Y-75056519D01*
X103452005Y-74584057D01*
X103090845Y-74222265D01*
X102618724Y-74026223D01*
X102196901Y-74025855D01*
X102197284Y-73587205D01*
X101948894Y-72986057D01*
X101538722Y-72575167D01*
X133303838Y-72575167D01*
X133445883Y-72918943D01*
X133708673Y-73182192D01*
X134052201Y-73324838D01*
X134424167Y-73325162D01*
X134767943Y-73183117D01*
X134799114Y-73152000D01*
X135955370Y-73152000D01*
X136367185Y-73563816D01*
X136515377Y-73662834D01*
X136614395Y-73728996D01*
X136906000Y-73787000D01*
X137488534Y-73787000D01*
X137518673Y-73817192D01*
X137862201Y-73959838D01*
X138234167Y-73960162D01*
X138577943Y-73818117D01*
X138841192Y-73555327D01*
X138983838Y-73211799D01*
X138984162Y-72839833D01*
X138842117Y-72496057D01*
X138579327Y-72232808D01*
X138235799Y-72090162D01*
X138023744Y-72089977D01*
X137953117Y-71919047D01*
X137690327Y-71655798D01*
X137346799Y-71513152D01*
X137302754Y-71513114D01*
X137005825Y-71216185D01*
X136934762Y-71168702D01*
X136931145Y-71166285D01*
X163646760Y-71166285D01*
X163857169Y-71675515D01*
X164246436Y-72065461D01*
X164755298Y-72276759D01*
X165306285Y-72277240D01*
X165815515Y-72066831D01*
X166019183Y-71863517D01*
X166780088Y-71863517D01*
X166848077Y-72104460D01*
X167367171Y-72289201D01*
X167917448Y-72261230D01*
X168295923Y-72104460D01*
X168363912Y-71863517D01*
X167572000Y-71071605D01*
X166780088Y-71863517D01*
X166019183Y-71863517D01*
X166205461Y-71677564D01*
X166295377Y-71461021D01*
X166359540Y-71615923D01*
X166600483Y-71683912D01*
X167392395Y-70892000D01*
X167751605Y-70892000D01*
X168543517Y-71683912D01*
X168784460Y-71615923D01*
X168944482Y-71166285D01*
X174206760Y-71166285D01*
X174417169Y-71675515D01*
X174806436Y-72065461D01*
X175315298Y-72276759D01*
X175866285Y-72277240D01*
X176375515Y-72066831D01*
X176579183Y-71863517D01*
X177340088Y-71863517D01*
X177408077Y-72104460D01*
X177927171Y-72289201D01*
X178477448Y-72261230D01*
X178855923Y-72104460D01*
X178923912Y-71863517D01*
X178132000Y-71071605D01*
X177340088Y-71863517D01*
X176579183Y-71863517D01*
X176765461Y-71677564D01*
X176855377Y-71461021D01*
X176919540Y-71615923D01*
X177160483Y-71683912D01*
X177952395Y-70892000D01*
X178311605Y-70892000D01*
X179103517Y-71683912D01*
X179344460Y-71615923D01*
X179529201Y-71096829D01*
X179501230Y-70546552D01*
X179344460Y-70168077D01*
X179103517Y-70100088D01*
X178311605Y-70892000D01*
X177952395Y-70892000D01*
X177160483Y-70100088D01*
X176919540Y-70168077D01*
X176860268Y-70334621D01*
X176766831Y-70108485D01*
X176579157Y-69920483D01*
X177340088Y-69920483D01*
X178132000Y-70712395D01*
X178923912Y-69920483D01*
X178855923Y-69679540D01*
X178336829Y-69494799D01*
X177786552Y-69522770D01*
X177408077Y-69679540D01*
X177340088Y-69920483D01*
X176579157Y-69920483D01*
X176377564Y-69718539D01*
X175868702Y-69507241D01*
X175317715Y-69506760D01*
X174808485Y-69717169D01*
X174418539Y-70106436D01*
X174207241Y-70615298D01*
X174206760Y-71166285D01*
X168944482Y-71166285D01*
X168969201Y-71096829D01*
X168941230Y-70546552D01*
X168784460Y-70168077D01*
X168543517Y-70100088D01*
X167751605Y-70892000D01*
X167392395Y-70892000D01*
X166600483Y-70100088D01*
X166359540Y-70168077D01*
X166300268Y-70334621D01*
X166206831Y-70108485D01*
X166019157Y-69920483D01*
X166780088Y-69920483D01*
X167572000Y-70712395D01*
X168363912Y-69920483D01*
X168295923Y-69679540D01*
X167776829Y-69494799D01*
X167226552Y-69522770D01*
X166848077Y-69679540D01*
X166780088Y-69920483D01*
X166019157Y-69920483D01*
X165817564Y-69718539D01*
X165308702Y-69507241D01*
X164757715Y-69506760D01*
X164248485Y-69717169D01*
X163858539Y-70106436D01*
X163647241Y-70615298D01*
X163646760Y-71166285D01*
X136931145Y-71166285D01*
X136758615Y-71051004D01*
X136467010Y-70993000D01*
X135434466Y-70993000D01*
X135404327Y-70962808D01*
X135060799Y-70820162D01*
X134688833Y-70819838D01*
X134345057Y-70961883D01*
X134081808Y-71224673D01*
X133972235Y-71488554D01*
X133710057Y-71596883D01*
X133446808Y-71859673D01*
X133304162Y-72203201D01*
X133303838Y-72575167D01*
X101538722Y-72575167D01*
X101489363Y-72525722D01*
X100888648Y-72276284D01*
X100238205Y-72275716D01*
X99637057Y-72524106D01*
X99176722Y-72983637D01*
X98927284Y-73584352D01*
X98926716Y-74234795D01*
X99175106Y-74835943D01*
X99634637Y-75296278D01*
X99652426Y-75303665D01*
X99492572Y-75312917D01*
X99158271Y-75451389D01*
X99102590Y-75681984D01*
X99822000Y-76401395D01*
X100541410Y-75681984D01*
X100508563Y-75545955D01*
X100885795Y-75546284D01*
X101076863Y-75467336D01*
X101076777Y-75565481D01*
X101271995Y-76037943D01*
X101633155Y-76399735D01*
X102070182Y-76581205D01*
X101635057Y-76760995D01*
X101273265Y-77122155D01*
X101077223Y-77594276D01*
X101076777Y-78105481D01*
X101271995Y-78577943D01*
X101633155Y-78939735D01*
X102070182Y-79121205D01*
X101635057Y-79300995D01*
X101273265Y-79662155D01*
X101077223Y-80134276D01*
X101076777Y-80645481D01*
X101271995Y-81117943D01*
X101633155Y-81479735D01*
X102070182Y-81661205D01*
X101635057Y-81840995D01*
X101273265Y-82202155D01*
X101077223Y-82674276D01*
X101076777Y-83185481D01*
X101271995Y-83657943D01*
X101633155Y-84019735D01*
X102070182Y-84201205D01*
X101635057Y-84380995D01*
X101273265Y-84742155D01*
X101077223Y-85214276D01*
X101076777Y-85725481D01*
X101271995Y-86197943D01*
X101306991Y-86233000D01*
X101002471Y-86233000D01*
X100912005Y-86014057D01*
X100550845Y-85652265D01*
X100113818Y-85470795D01*
X100548943Y-85291005D01*
X100910735Y-84929845D01*
X101106777Y-84457724D01*
X101107223Y-83946519D01*
X100912005Y-83474057D01*
X100550845Y-83112265D01*
X100113818Y-82930795D01*
X100548943Y-82751005D01*
X100910735Y-82389845D01*
X101106777Y-81917724D01*
X101107223Y-81406519D01*
X100912005Y-80934057D01*
X100550845Y-80572265D01*
X100113818Y-80390795D01*
X100548943Y-80211005D01*
X100910735Y-79849845D01*
X101106777Y-79377724D01*
X101107223Y-78866519D01*
X100912005Y-78394057D01*
X100550845Y-78032265D01*
X100114800Y-77851203D01*
X100151428Y-77849083D01*
X100485729Y-77710611D01*
X100541410Y-77480016D01*
X99822000Y-76760605D01*
X99102590Y-77480016D01*
X99158271Y-77710611D01*
X99544860Y-77845139D01*
X99095057Y-78030995D01*
X98733265Y-78392155D01*
X98537223Y-78864276D01*
X98536777Y-79375481D01*
X97116673Y-79375481D01*
X97116673Y-76400078D01*
X98524378Y-76400078D01*
X98553917Y-76910428D01*
X98692389Y-77244729D01*
X98922984Y-77300410D01*
X99642395Y-76581000D01*
X100001605Y-76581000D01*
X100721016Y-77300410D01*
X100951611Y-77244729D01*
X101119622Y-76761922D01*
X101090083Y-76251572D01*
X100951611Y-75917271D01*
X100721016Y-75861590D01*
X100001605Y-76581000D01*
X99642395Y-76581000D01*
X98922984Y-75861590D01*
X98692389Y-75917271D01*
X98524378Y-76400078D01*
X97116673Y-76400078D01*
X97116673Y-72456297D01*
X97416008Y-71822134D01*
X97950490Y-71336953D01*
X98651779Y-71078043D01*
X119538996Y-67565659D01*
X163387946Y-67565659D01*
X163532467Y-67871444D01*
X164277993Y-68160571D01*
X165077414Y-68142389D01*
X165731533Y-67871444D01*
X165876054Y-67565659D01*
X177287946Y-67565659D01*
X177432467Y-67871444D01*
X178177993Y-68160571D01*
X178977414Y-68142389D01*
X179631533Y-67871444D01*
X179776054Y-67565659D01*
X178532000Y-66321605D01*
X177287946Y-67565659D01*
X165876054Y-67565659D01*
X164632000Y-66321605D01*
X163387946Y-67565659D01*
X119538996Y-67565659D01*
X130110305Y-65787993D01*
X162613429Y-65787993D01*
X162631611Y-66587414D01*
X162902556Y-67241533D01*
X163208341Y-67386054D01*
X164452395Y-66142000D01*
X163208341Y-64897946D01*
X162902556Y-65042467D01*
X162613429Y-65787993D01*
X130110305Y-65787993D01*
X136471242Y-64718341D01*
X163387946Y-64718341D01*
X164632000Y-65962395D01*
X164646143Y-65948253D01*
X164825748Y-66127858D01*
X164811605Y-66142000D01*
X166055659Y-67386054D01*
X166361444Y-67241533D01*
X166650571Y-66496007D01*
X166634468Y-65787993D01*
X176513429Y-65787993D01*
X176531611Y-66587414D01*
X176802556Y-67241533D01*
X177108341Y-67386054D01*
X178352395Y-66142000D01*
X178711605Y-66142000D01*
X179955659Y-67386054D01*
X180261444Y-67241533D01*
X180550571Y-66496007D01*
X180532389Y-65696586D01*
X180261444Y-65042467D01*
X179955659Y-64897946D01*
X178711605Y-66142000D01*
X178352395Y-66142000D01*
X177108341Y-64897946D01*
X176802556Y-65042467D01*
X176513429Y-65787993D01*
X166634468Y-65787993D01*
X166632389Y-65696586D01*
X166561159Y-65524622D01*
X166855298Y-65646759D01*
X167406285Y-65647240D01*
X167915515Y-65436831D01*
X168305461Y-65047564D01*
X168401976Y-64815130D01*
X168497169Y-65045515D01*
X168886436Y-65435461D01*
X169395298Y-65646759D01*
X169946285Y-65647240D01*
X170455515Y-65436831D01*
X170845461Y-65047564D01*
X170941976Y-64815130D01*
X171037169Y-65045515D01*
X171426436Y-65435461D01*
X171935298Y-65646759D01*
X172486285Y-65647240D01*
X172995515Y-65436831D01*
X173385461Y-65047564D01*
X173481976Y-64815130D01*
X173577169Y-65045515D01*
X173966436Y-65435461D01*
X174475298Y-65646759D01*
X175026285Y-65647240D01*
X175535515Y-65436831D01*
X175925461Y-65047564D01*
X176062166Y-64718341D01*
X177287946Y-64718341D01*
X178532000Y-65962395D01*
X179776054Y-64718341D01*
X179631533Y-64412556D01*
X178886007Y-64123429D01*
X178086586Y-64141611D01*
X177432467Y-64412556D01*
X177287946Y-64718341D01*
X176062166Y-64718341D01*
X176136759Y-64538702D01*
X176137240Y-63987715D01*
X175926831Y-63478485D01*
X175537564Y-63088539D01*
X175028702Y-62877241D01*
X174477715Y-62876760D01*
X173968485Y-63087169D01*
X173578539Y-63476436D01*
X173482024Y-63708870D01*
X173386831Y-63478485D01*
X172997564Y-63088539D01*
X172488702Y-62877241D01*
X171937715Y-62876760D01*
X171428485Y-63087169D01*
X171038539Y-63476436D01*
X170942024Y-63708870D01*
X170846831Y-63478485D01*
X170457564Y-63088539D01*
X169948702Y-62877241D01*
X169397715Y-62876760D01*
X168888485Y-63087169D01*
X168498539Y-63476436D01*
X168402024Y-63708870D01*
X168306831Y-63478485D01*
X167917564Y-63088539D01*
X167408702Y-62877241D01*
X166857715Y-62876760D01*
X166348485Y-63087169D01*
X165958539Y-63476436D01*
X165747241Y-63985298D01*
X165746840Y-64444943D01*
X165731533Y-64412556D01*
X164986007Y-64123429D01*
X164186586Y-64141611D01*
X163532467Y-64412556D01*
X163387946Y-64718341D01*
X136471242Y-64718341D01*
X152658588Y-61996285D01*
X167016760Y-61996285D01*
X167227169Y-62505515D01*
X167616436Y-62895461D01*
X168125298Y-63106759D01*
X168676285Y-63107240D01*
X169185515Y-62896831D01*
X169575461Y-62507564D01*
X169671976Y-62275130D01*
X169767169Y-62505515D01*
X170156436Y-62895461D01*
X170665298Y-63106759D01*
X171216285Y-63107240D01*
X171725515Y-62896831D01*
X172115461Y-62507564D01*
X172211976Y-62275130D01*
X172307169Y-62505515D01*
X172696436Y-62895461D01*
X173205298Y-63106759D01*
X173756285Y-63107240D01*
X174265515Y-62896831D01*
X174469183Y-62693517D01*
X175230088Y-62693517D01*
X175298077Y-62934460D01*
X175817171Y-63119201D01*
X176367448Y-63091230D01*
X176745923Y-62934460D01*
X176813912Y-62693517D01*
X176022000Y-61901605D01*
X175230088Y-62693517D01*
X174469183Y-62693517D01*
X174655461Y-62507564D01*
X174745377Y-62291021D01*
X174809540Y-62445923D01*
X175050483Y-62513912D01*
X175842395Y-61722000D01*
X176201605Y-61722000D01*
X176993517Y-62513912D01*
X177234460Y-62445923D01*
X177419201Y-61926829D01*
X177391230Y-61376552D01*
X177234460Y-60998077D01*
X176993517Y-60930088D01*
X176201605Y-61722000D01*
X175842395Y-61722000D01*
X175050483Y-60930088D01*
X174809540Y-60998077D01*
X174750268Y-61164621D01*
X174656831Y-60938485D01*
X174469157Y-60750483D01*
X175230088Y-60750483D01*
X176022000Y-61542395D01*
X176813912Y-60750483D01*
X176745923Y-60509540D01*
X176226829Y-60324799D01*
X175676552Y-60352770D01*
X175298077Y-60509540D01*
X175230088Y-60750483D01*
X174469157Y-60750483D01*
X174267564Y-60548539D01*
X173758702Y-60337241D01*
X173207715Y-60336760D01*
X172698485Y-60547169D01*
X172308539Y-60936436D01*
X172212024Y-61168870D01*
X172116831Y-60938485D01*
X171727564Y-60548539D01*
X171218702Y-60337241D01*
X170667715Y-60336760D01*
X170158485Y-60547169D01*
X169768539Y-60936436D01*
X169672024Y-61168870D01*
X169576831Y-60938485D01*
X169187564Y-60548539D01*
X168678702Y-60337241D01*
X168127715Y-60336760D01*
X167618485Y-60547169D01*
X167228539Y-60936436D01*
X167017241Y-61445298D01*
X167016760Y-61996285D01*
X152658588Y-61996285D01*
X178695852Y-57617872D01*
X179482838Y-57641291D01*
M02*
