G04 #@! TF.FileFunction,Legend,Top*
%FSLAX46Y46*%
G04 Gerber Fmt 4.6, Leading zero omitted, Abs format (unit mm)*
G04 Created by KiCad (PCBNEW 4.0.7-e2-6376~58~ubuntu16.04.1) date Tue Feb 20 21:28:06 2018*
%MOMM*%
%LPD*%
G01*
G04 APERTURE LIST*
%ADD10C,0.100000*%
%ADD11C,0.300000*%
%ADD12C,0.150000*%
G04 APERTURE END LIST*
D10*
D11*
X104243143Y-83223571D02*
X104243143Y-81723571D01*
X104600286Y-81723571D01*
X104814571Y-81795000D01*
X104957429Y-81937857D01*
X105028857Y-82080714D01*
X105100286Y-82366429D01*
X105100286Y-82580714D01*
X105028857Y-82866429D01*
X104957429Y-83009286D01*
X104814571Y-83152143D01*
X104600286Y-83223571D01*
X104243143Y-83223571D01*
X106386000Y-83223571D02*
X106386000Y-82437857D01*
X106314571Y-82295000D01*
X106171714Y-82223571D01*
X105886000Y-82223571D01*
X105743143Y-82295000D01*
X106386000Y-83152143D02*
X106243143Y-83223571D01*
X105886000Y-83223571D01*
X105743143Y-83152143D01*
X105671714Y-83009286D01*
X105671714Y-82866429D01*
X105743143Y-82723571D01*
X105886000Y-82652143D01*
X106243143Y-82652143D01*
X106386000Y-82580714D01*
X106886000Y-82223571D02*
X107457429Y-82223571D01*
X107100286Y-81723571D02*
X107100286Y-83009286D01*
X107171714Y-83152143D01*
X107314572Y-83223571D01*
X107457429Y-83223571D01*
X108600286Y-83223571D02*
X108600286Y-82437857D01*
X108528857Y-82295000D01*
X108386000Y-82223571D01*
X108100286Y-82223571D01*
X107957429Y-82295000D01*
X108600286Y-83152143D02*
X108457429Y-83223571D01*
X108100286Y-83223571D01*
X107957429Y-83152143D01*
X107886000Y-83009286D01*
X107886000Y-82866429D01*
X107957429Y-82723571D01*
X108100286Y-82652143D01*
X108457429Y-82652143D01*
X108600286Y-82580714D01*
X111171715Y-83223571D02*
X110457429Y-83223571D01*
X110457429Y-81723571D01*
X111886001Y-83223571D02*
X111743143Y-83152143D01*
X111671715Y-83080714D01*
X111600286Y-82937857D01*
X111600286Y-82509286D01*
X111671715Y-82366429D01*
X111743143Y-82295000D01*
X111886001Y-82223571D01*
X112100286Y-82223571D01*
X112243143Y-82295000D01*
X112314572Y-82366429D01*
X112386001Y-82509286D01*
X112386001Y-82937857D01*
X112314572Y-83080714D01*
X112243143Y-83152143D01*
X112100286Y-83223571D01*
X111886001Y-83223571D01*
X113671715Y-82223571D02*
X113671715Y-83437857D01*
X113600286Y-83580714D01*
X113528858Y-83652143D01*
X113386001Y-83723571D01*
X113171715Y-83723571D01*
X113028858Y-83652143D01*
X113671715Y-83152143D02*
X113528858Y-83223571D01*
X113243144Y-83223571D01*
X113100286Y-83152143D01*
X113028858Y-83080714D01*
X112957429Y-82937857D01*
X112957429Y-82509286D01*
X113028858Y-82366429D01*
X113100286Y-82295000D01*
X113243144Y-82223571D01*
X113528858Y-82223571D01*
X113671715Y-82295000D01*
X115028858Y-82223571D02*
X115028858Y-83437857D01*
X114957429Y-83580714D01*
X114886001Y-83652143D01*
X114743144Y-83723571D01*
X114528858Y-83723571D01*
X114386001Y-83652143D01*
X115028858Y-83152143D02*
X114886001Y-83223571D01*
X114600287Y-83223571D01*
X114457429Y-83152143D01*
X114386001Y-83080714D01*
X114314572Y-82937857D01*
X114314572Y-82509286D01*
X114386001Y-82366429D01*
X114457429Y-82295000D01*
X114600287Y-82223571D01*
X114886001Y-82223571D01*
X115028858Y-82295000D01*
X116314572Y-83152143D02*
X116171715Y-83223571D01*
X115886001Y-83223571D01*
X115743144Y-83152143D01*
X115671715Y-83009286D01*
X115671715Y-82437857D01*
X115743144Y-82295000D01*
X115886001Y-82223571D01*
X116171715Y-82223571D01*
X116314572Y-82295000D01*
X116386001Y-82437857D01*
X116386001Y-82580714D01*
X115671715Y-82723571D01*
X117028858Y-83223571D02*
X117028858Y-82223571D01*
X117028858Y-82509286D02*
X117100286Y-82366429D01*
X117171715Y-82295000D01*
X117314572Y-82223571D01*
X117457429Y-82223571D01*
X119600286Y-82437857D02*
X119814572Y-82509286D01*
X119886000Y-82580714D01*
X119957429Y-82723571D01*
X119957429Y-82937857D01*
X119886000Y-83080714D01*
X119814572Y-83152143D01*
X119671714Y-83223571D01*
X119100286Y-83223571D01*
X119100286Y-81723571D01*
X119600286Y-81723571D01*
X119743143Y-81795000D01*
X119814572Y-81866429D01*
X119886000Y-82009286D01*
X119886000Y-82152143D01*
X119814572Y-82295000D01*
X119743143Y-82366429D01*
X119600286Y-82437857D01*
X119100286Y-82437857D01*
X120814572Y-83223571D02*
X120671714Y-83152143D01*
X120600286Y-83080714D01*
X120528857Y-82937857D01*
X120528857Y-82509286D01*
X120600286Y-82366429D01*
X120671714Y-82295000D01*
X120814572Y-82223571D01*
X121028857Y-82223571D01*
X121171714Y-82295000D01*
X121243143Y-82366429D01*
X121314572Y-82509286D01*
X121314572Y-82937857D01*
X121243143Y-83080714D01*
X121171714Y-83152143D01*
X121028857Y-83223571D01*
X120814572Y-83223571D01*
X122600286Y-83223571D02*
X122600286Y-82437857D01*
X122528857Y-82295000D01*
X122386000Y-82223571D01*
X122100286Y-82223571D01*
X121957429Y-82295000D01*
X122600286Y-83152143D02*
X122457429Y-83223571D01*
X122100286Y-83223571D01*
X121957429Y-83152143D01*
X121886000Y-83009286D01*
X121886000Y-82866429D01*
X121957429Y-82723571D01*
X122100286Y-82652143D01*
X122457429Y-82652143D01*
X122600286Y-82580714D01*
X123314572Y-83223571D02*
X123314572Y-82223571D01*
X123314572Y-82509286D02*
X123386000Y-82366429D01*
X123457429Y-82295000D01*
X123600286Y-82223571D01*
X123743143Y-82223571D01*
X124886000Y-83223571D02*
X124886000Y-81723571D01*
X124886000Y-83152143D02*
X124743143Y-83223571D01*
X124457429Y-83223571D01*
X124314571Y-83152143D01*
X124243143Y-83080714D01*
X124171714Y-82937857D01*
X124171714Y-82509286D01*
X124243143Y-82366429D01*
X124314571Y-82295000D01*
X124457429Y-82223571D01*
X124743143Y-82223571D01*
X124886000Y-82295000D01*
X104528857Y-84273571D02*
X104814571Y-84273571D01*
X104957429Y-84345000D01*
X105100286Y-84487857D01*
X105171714Y-84773571D01*
X105171714Y-85273571D01*
X105100286Y-85559286D01*
X104957429Y-85702143D01*
X104814571Y-85773571D01*
X104528857Y-85773571D01*
X104386000Y-85702143D01*
X104243143Y-85559286D01*
X104171714Y-85273571D01*
X104171714Y-84773571D01*
X104243143Y-84487857D01*
X104386000Y-84345000D01*
X104528857Y-84273571D01*
X106028858Y-85773571D02*
X105886000Y-85702143D01*
X105814572Y-85559286D01*
X105814572Y-84273571D01*
X106600286Y-85773571D02*
X106600286Y-84773571D01*
X106600286Y-84273571D02*
X106528857Y-84345000D01*
X106600286Y-84416429D01*
X106671714Y-84345000D01*
X106600286Y-84273571D01*
X106600286Y-84416429D01*
X107314572Y-84773571D02*
X107314572Y-85773571D01*
X107314572Y-84916429D02*
X107386000Y-84845000D01*
X107528858Y-84773571D01*
X107743143Y-84773571D01*
X107886000Y-84845000D01*
X107957429Y-84987857D01*
X107957429Y-85773571D01*
X109814572Y-84987857D02*
X110314572Y-84987857D01*
X110528858Y-85773571D02*
X109814572Y-85773571D01*
X109814572Y-84273571D01*
X110528858Y-84273571D01*
X111386001Y-85773571D02*
X111243143Y-85702143D01*
X111171715Y-85559286D01*
X111171715Y-84273571D01*
X112528857Y-85702143D02*
X112386000Y-85773571D01*
X112100286Y-85773571D01*
X111957429Y-85702143D01*
X111886000Y-85559286D01*
X111886000Y-84987857D01*
X111957429Y-84845000D01*
X112100286Y-84773571D01*
X112386000Y-84773571D01*
X112528857Y-84845000D01*
X112600286Y-84987857D01*
X112600286Y-85130714D01*
X111886000Y-85273571D01*
X113886000Y-85702143D02*
X113743143Y-85773571D01*
X113457429Y-85773571D01*
X113314571Y-85702143D01*
X113243143Y-85630714D01*
X113171714Y-85487857D01*
X113171714Y-85059286D01*
X113243143Y-84916429D01*
X113314571Y-84845000D01*
X113457429Y-84773571D01*
X113743143Y-84773571D01*
X113886000Y-84845000D01*
X114314571Y-84773571D02*
X114886000Y-84773571D01*
X114528857Y-84273571D02*
X114528857Y-85559286D01*
X114600285Y-85702143D01*
X114743143Y-85773571D01*
X114886000Y-85773571D01*
X115386000Y-85773571D02*
X115386000Y-84773571D01*
X115386000Y-85059286D02*
X115457428Y-84916429D01*
X115528857Y-84845000D01*
X115671714Y-84773571D01*
X115814571Y-84773571D01*
X116314571Y-85773571D02*
X116314571Y-84773571D01*
X116314571Y-84273571D02*
X116243142Y-84345000D01*
X116314571Y-84416429D01*
X116385999Y-84345000D01*
X116314571Y-84273571D01*
X116314571Y-84416429D01*
X117671714Y-85702143D02*
X117528857Y-85773571D01*
X117243143Y-85773571D01*
X117100285Y-85702143D01*
X117028857Y-85630714D01*
X116957428Y-85487857D01*
X116957428Y-85059286D01*
X117028857Y-84916429D01*
X117100285Y-84845000D01*
X117243143Y-84773571D01*
X117528857Y-84773571D01*
X117671714Y-84845000D01*
X119457428Y-85773571D02*
X119457428Y-84273571D01*
X119957428Y-85345000D01*
X120457428Y-84273571D01*
X120457428Y-85773571D01*
X121386000Y-85773571D02*
X121243142Y-85702143D01*
X121171714Y-85630714D01*
X121100285Y-85487857D01*
X121100285Y-85059286D01*
X121171714Y-84916429D01*
X121243142Y-84845000D01*
X121386000Y-84773571D01*
X121600285Y-84773571D01*
X121743142Y-84845000D01*
X121814571Y-84916429D01*
X121886000Y-85059286D01*
X121886000Y-85487857D01*
X121814571Y-85630714D01*
X121743142Y-85702143D01*
X121600285Y-85773571D01*
X121386000Y-85773571D01*
X122314571Y-84773571D02*
X122886000Y-84773571D01*
X122528857Y-84273571D02*
X122528857Y-85559286D01*
X122600285Y-85702143D01*
X122743143Y-85773571D01*
X122886000Y-85773571D01*
X123600286Y-85773571D02*
X123457428Y-85702143D01*
X123386000Y-85630714D01*
X123314571Y-85487857D01*
X123314571Y-85059286D01*
X123386000Y-84916429D01*
X123457428Y-84845000D01*
X123600286Y-84773571D01*
X123814571Y-84773571D01*
X123957428Y-84845000D01*
X124028857Y-84916429D01*
X124100286Y-85059286D01*
X124100286Y-85487857D01*
X124028857Y-85630714D01*
X123957428Y-85702143D01*
X123814571Y-85773571D01*
X123600286Y-85773571D01*
X124743143Y-85773571D02*
X124743143Y-84773571D01*
X124743143Y-85059286D02*
X124814571Y-84916429D01*
X124886000Y-84845000D01*
X125028857Y-84773571D01*
X125171714Y-84773571D01*
X125600285Y-85702143D02*
X125743142Y-85773571D01*
X126028857Y-85773571D01*
X126171714Y-85702143D01*
X126243142Y-85559286D01*
X126243142Y-85487857D01*
X126171714Y-85345000D01*
X126028857Y-85273571D01*
X125814571Y-85273571D01*
X125671714Y-85202143D01*
X125600285Y-85059286D01*
X125600285Y-84987857D01*
X125671714Y-84845000D01*
X125814571Y-84773571D01*
X126028857Y-84773571D01*
X126171714Y-84845000D01*
X126886000Y-84773571D02*
X126886000Y-86273571D01*
X126886000Y-84845000D02*
X127028857Y-84773571D01*
X127314571Y-84773571D01*
X127457428Y-84845000D01*
X127528857Y-84916429D01*
X127600286Y-85059286D01*
X127600286Y-85487857D01*
X127528857Y-85630714D01*
X127457428Y-85702143D01*
X127314571Y-85773571D01*
X127028857Y-85773571D01*
X126886000Y-85702143D01*
X128457429Y-85773571D02*
X128314571Y-85702143D01*
X128243143Y-85630714D01*
X128171714Y-85487857D01*
X128171714Y-85059286D01*
X128243143Y-84916429D01*
X128314571Y-84845000D01*
X128457429Y-84773571D01*
X128671714Y-84773571D01*
X128814571Y-84845000D01*
X128886000Y-84916429D01*
X128957429Y-85059286D01*
X128957429Y-85487857D01*
X128886000Y-85630714D01*
X128814571Y-85702143D01*
X128671714Y-85773571D01*
X128457429Y-85773571D01*
X129600286Y-85773571D02*
X129600286Y-84773571D01*
X129600286Y-85059286D02*
X129671714Y-84916429D01*
X129743143Y-84845000D01*
X129886000Y-84773571D01*
X130028857Y-84773571D01*
X130314571Y-84773571D02*
X130886000Y-84773571D01*
X130528857Y-84273571D02*
X130528857Y-85559286D01*
X130600285Y-85702143D01*
X130743143Y-85773571D01*
X130886000Y-85773571D01*
X131314571Y-85702143D02*
X131457428Y-85773571D01*
X131743143Y-85773571D01*
X131886000Y-85702143D01*
X131957428Y-85559286D01*
X131957428Y-85487857D01*
X131886000Y-85345000D01*
X131743143Y-85273571D01*
X131528857Y-85273571D01*
X131386000Y-85202143D01*
X131314571Y-85059286D01*
X131314571Y-84987857D01*
X131386000Y-84845000D01*
X131528857Y-84773571D01*
X131743143Y-84773571D01*
X131886000Y-84845000D01*
D12*
X158386000Y-128416000D02*
X163686000Y-128416000D01*
X158386000Y-98406000D02*
X163686000Y-98406000D01*
X158386000Y-128416000D02*
X158386000Y-98406000D01*
X163686000Y-128416000D02*
X163686000Y-98406000D01*
X150876000Y-102442000D02*
X156678000Y-102458000D01*
X150878000Y-121458000D02*
X150878000Y-102458000D01*
X156678000Y-121458000D02*
X150878000Y-121458000D01*
X156678000Y-102458000D02*
X156678000Y-121458000D01*
X162226667Y-96988381D02*
X162226667Y-97702667D01*
X162179047Y-97845524D01*
X162083809Y-97940762D01*
X161940952Y-97988381D01*
X161845714Y-97988381D01*
X162655238Y-97083619D02*
X162702857Y-97036000D01*
X162798095Y-96988381D01*
X163036191Y-96988381D01*
X163131429Y-97036000D01*
X163179048Y-97083619D01*
X163226667Y-97178857D01*
X163226667Y-97274095D01*
X163179048Y-97416952D01*
X162607619Y-97988381D01*
X163226667Y-97988381D01*
X161544095Y-128833619D02*
X161591714Y-128786000D01*
X161686952Y-128738381D01*
X161925048Y-128738381D01*
X162020286Y-128786000D01*
X162067905Y-128833619D01*
X162115524Y-128928857D01*
X162115524Y-129024095D01*
X162067905Y-129166952D01*
X161496476Y-129738381D01*
X162115524Y-129738381D01*
X162734571Y-128738381D02*
X162829810Y-128738381D01*
X162925048Y-128786000D01*
X162972667Y-128833619D01*
X163020286Y-128928857D01*
X163067905Y-129119333D01*
X163067905Y-129357429D01*
X163020286Y-129547905D01*
X162972667Y-129643143D01*
X162925048Y-129690762D01*
X162829810Y-129738381D01*
X162734571Y-129738381D01*
X162639333Y-129690762D01*
X162591714Y-129643143D01*
X162544095Y-129547905D01*
X162496476Y-129357429D01*
X162496476Y-129119333D01*
X162544095Y-128928857D01*
X162591714Y-128833619D01*
X162639333Y-128786000D01*
X162734571Y-128738381D01*
X160051715Y-97988381D02*
X159480286Y-97988381D01*
X159766000Y-97988381D02*
X159766000Y-96988381D01*
X159670762Y-97131238D01*
X159575524Y-97226476D01*
X159480286Y-97274095D01*
X151304667Y-101052381D02*
X151304667Y-101766667D01*
X151257047Y-101909524D01*
X151161809Y-102004762D01*
X151018952Y-102052381D01*
X150923714Y-102052381D01*
X152304667Y-102052381D02*
X151733238Y-102052381D01*
X152018952Y-102052381D02*
X152018952Y-101052381D01*
X151923714Y-101195238D01*
X151828476Y-101290476D01*
X151733238Y-101338095D01*
M02*
