M48
;DRILL file {KiCad 4.0.7-e2-6376~58~ubuntu16.04.1} date Tue Feb 20 21:28:11 2018
;FORMAT={-:-/ absolute / inch / decimal}
FMAT,2
INCH,TZ
T1C0.031
%
G90
G05
M72
T1
X6.29Y-3.99
X6.29Y-4.09
X6.29Y-4.19
X6.29Y-4.29
X6.29Y-4.39
X6.29Y-4.49
X6.29Y-4.59
X6.29Y-4.69
X6.29Y-4.79
X6.29Y-4.89
X6.39Y-4.04
X6.39Y-4.14
X6.39Y-4.24
X6.39Y-4.34
X6.39Y-4.44
X6.39Y-4.54
X6.39Y-4.64
X6.39Y-4.74
X6.39Y-4.84
X6.39Y-4.94
T0
M30
