G04 #@! TF.FileFunction,Legend,Top*
%FSLAX46Y46*%
G04 Gerber Fmt 4.6, Leading zero omitted, Abs format (unit mm)*
G04 Created by KiCad (PCBNEW 4.0.7-e2-6376~58~ubuntu16.04.1) date Thu Feb 15 21:41:34 2018*
%MOMM*%
%LPD*%
G01*
G04 APERTURE LIST*
%ADD10C,0.100000*%
%ADD11C,0.300000*%
G04 APERTURE END LIST*
D10*
D11*
X122273428Y-91126571D02*
X122559142Y-91126571D01*
X122702000Y-91198000D01*
X122844857Y-91340857D01*
X122916285Y-91626571D01*
X122916285Y-92126571D01*
X122844857Y-92412286D01*
X122702000Y-92555143D01*
X122559142Y-92626571D01*
X122273428Y-92626571D01*
X122130571Y-92555143D01*
X121987714Y-92412286D01*
X121916285Y-92126571D01*
X121916285Y-91626571D01*
X121987714Y-91340857D01*
X122130571Y-91198000D01*
X122273428Y-91126571D01*
X123559143Y-91840857D02*
X124059143Y-91840857D01*
X124273429Y-92626571D02*
X123559143Y-92626571D01*
X123559143Y-91126571D01*
X124273429Y-91126571D01*
X124916286Y-92626571D02*
X124916286Y-91126571D01*
X125416286Y-92198000D01*
X125916286Y-91126571D01*
X125916286Y-92626571D01*
X110946286Y-76087857D02*
X110446286Y-76087857D01*
X110348072Y-76873571D02*
X110535572Y-75373571D01*
X111249858Y-75373571D01*
X111633786Y-76873571D02*
X111758786Y-75873571D01*
X111723071Y-76159286D02*
X111812356Y-76016429D01*
X111892714Y-75945000D01*
X112044500Y-75873571D01*
X112187357Y-75873571D01*
X112776643Y-76873571D02*
X112642713Y-76802143D01*
X112580214Y-76730714D01*
X112526642Y-76587857D01*
X112580213Y-76159286D01*
X112669499Y-76016429D01*
X112749856Y-75945000D01*
X112901643Y-75873571D01*
X113115928Y-75873571D01*
X113249856Y-75945000D01*
X113312356Y-76016429D01*
X113365928Y-76159286D01*
X113312357Y-76587857D01*
X113223071Y-76730714D01*
X113142713Y-76802143D01*
X112990928Y-76873571D01*
X112776643Y-76873571D01*
X113919500Y-76873571D02*
X114044500Y-75873571D01*
X114026642Y-76016429D02*
X114106999Y-75945000D01*
X114258786Y-75873571D01*
X114473071Y-75873571D01*
X114606999Y-75945000D01*
X114660571Y-76087857D01*
X114562357Y-76873571D01*
X114660571Y-76087857D02*
X114749857Y-75945000D01*
X114901643Y-75873571D01*
X115115928Y-75873571D01*
X115249857Y-75945000D01*
X115303428Y-76087857D01*
X115205214Y-76873571D01*
X117160571Y-76087857D02*
X117660571Y-76087857D01*
X117776643Y-76873571D02*
X117062357Y-76873571D01*
X117249857Y-75373571D01*
X117964143Y-75373571D01*
X118633786Y-76873571D02*
X118499856Y-76802143D01*
X118446285Y-76659286D01*
X118607000Y-75373571D01*
X119785570Y-76802143D02*
X119633785Y-76873571D01*
X119348071Y-76873571D01*
X119214142Y-76802143D01*
X119160570Y-76659286D01*
X119231999Y-76087857D01*
X119321285Y-75945000D01*
X119473071Y-75873571D01*
X119758785Y-75873571D01*
X119892713Y-75945000D01*
X119946285Y-76087857D01*
X119928428Y-76230714D01*
X119196285Y-76373571D01*
X121142713Y-76802143D02*
X120990928Y-76873571D01*
X120705214Y-76873571D01*
X120571284Y-76802143D01*
X120508785Y-76730714D01*
X120455213Y-76587857D01*
X120508784Y-76159286D01*
X120598070Y-76016429D01*
X120678427Y-75945000D01*
X120830214Y-75873571D01*
X121115928Y-75873571D01*
X121249856Y-75945000D01*
X121687356Y-75873571D02*
X122258785Y-75873571D01*
X121964142Y-75373571D02*
X121803427Y-76659286D01*
X121856998Y-76802143D01*
X121990928Y-76873571D01*
X122133785Y-76873571D01*
X122633785Y-76873571D02*
X122758785Y-75873571D01*
X122723070Y-76159286D02*
X122812355Y-76016429D01*
X122892713Y-75945000D01*
X123044499Y-75873571D01*
X123187356Y-75873571D01*
X123562356Y-76873571D02*
X123687356Y-75873571D01*
X123749856Y-75373571D02*
X123669498Y-75445000D01*
X123731998Y-75516429D01*
X123812355Y-75445000D01*
X123749856Y-75373571D01*
X123731998Y-75516429D01*
X124928427Y-76802143D02*
X124776642Y-76873571D01*
X124490928Y-76873571D01*
X124356998Y-76802143D01*
X124294499Y-76730714D01*
X124240927Y-76587857D01*
X124294498Y-76159286D01*
X124383784Y-76016429D01*
X124464141Y-75945000D01*
X124615928Y-75873571D01*
X124901642Y-75873571D01*
X125035570Y-75945000D01*
X126205213Y-76873571D02*
X126303427Y-76087857D01*
X126249855Y-75945000D01*
X126115927Y-75873571D01*
X125830213Y-75873571D01*
X125678427Y-75945000D01*
X126214141Y-76802143D02*
X126062356Y-76873571D01*
X125705213Y-76873571D01*
X125571284Y-76802143D01*
X125517712Y-76659286D01*
X125535569Y-76516429D01*
X125624856Y-76373571D01*
X125776641Y-76302143D01*
X126133784Y-76302143D01*
X126285570Y-76230714D01*
X127133785Y-76873571D02*
X126999855Y-76802143D01*
X126946284Y-76659286D01*
X127106999Y-75373571D01*
X110330215Y-78423571D02*
X110490929Y-79423571D01*
X110865928Y-78709286D01*
X111062358Y-79423571D01*
X111473072Y-78423571D01*
X111919501Y-79423571D02*
X112044501Y-78423571D01*
X112107001Y-77923571D02*
X112026643Y-77995000D01*
X112089143Y-78066429D01*
X112169500Y-77995000D01*
X112107001Y-77923571D01*
X112089143Y-78066429D01*
X112544501Y-78423571D02*
X113115930Y-78423571D01*
X112821287Y-77923571D02*
X112660572Y-79209286D01*
X112714143Y-79352143D01*
X112848073Y-79423571D01*
X112990930Y-79423571D01*
X113490930Y-79423571D02*
X113678430Y-77923571D01*
X114133787Y-79423571D02*
X114232001Y-78637857D01*
X114178429Y-78495000D01*
X114044501Y-78423571D01*
X113830216Y-78423571D01*
X113678429Y-78495000D01*
X113598072Y-78566429D01*
X116205216Y-79423571D02*
X116071286Y-79352143D01*
X116017715Y-79209286D01*
X116178430Y-77923571D01*
X116990930Y-79423571D02*
X116857000Y-79352143D01*
X116794501Y-79280714D01*
X116740929Y-79137857D01*
X116794500Y-78709286D01*
X116883786Y-78566429D01*
X116964143Y-78495000D01*
X117115930Y-78423571D01*
X117330215Y-78423571D01*
X117464143Y-78495000D01*
X117526643Y-78566429D01*
X117580215Y-78709286D01*
X117526644Y-79137857D01*
X117437358Y-79280714D01*
X117357000Y-79352143D01*
X117205215Y-79423571D01*
X116990930Y-79423571D01*
X118115930Y-78423571D02*
X118348073Y-79423571D01*
X118830215Y-78423571D01*
X119857000Y-79352143D02*
X119705215Y-79423571D01*
X119419501Y-79423571D01*
X119285572Y-79352143D01*
X119232000Y-79209286D01*
X119303429Y-78637857D01*
X119392715Y-78495000D01*
X119544501Y-78423571D01*
X119830215Y-78423571D01*
X119964143Y-78495000D01*
X120017715Y-78637857D01*
X119999858Y-78780714D01*
X119267715Y-78923571D01*
M02*
