M48
;DRILL file {KiCad 4.0.7-e2-6376~58~ubuntu16.04.1} date Sat Feb  3 22:32:52 2018
;FORMAT={-:-/ absolute / metric / decimal}
FMAT,2
METRIC,TZ
T1C0.800
T2C1.020
T3C1.300
T4C1.600
T5C2.400
%
G90
G05
M71
T1
X139.446Y-80.518
X150.346Y-80.518
T2
X131.524Y-99.497
X135.024Y-99.497
X139.827Y-99.314
X143.327Y-99.314
X173.482Y-87.63
X176.982Y-87.63
T3
X148.416Y-96.393
X148.416Y-103.893
X153.416Y-96.393
X153.416Y-103.893
X158.416Y-96.393
X158.416Y-103.893
X173.416Y-96.393
X173.416Y-103.893
T4
X133.274Y-101.727
X141.577Y-101.544
X175.232Y-85.4
T5
X132.133Y-77.848
X157.173Y-77.848
T0
M30
