G04 #@! TF.FileFunction,Legend,Top*
%FSLAX46Y46*%
G04 Gerber Fmt 4.6, Leading zero omitted, Abs format (unit mm)*
G04 Created by KiCad (PCBNEW 4.0.7-e2-6376~58~ubuntu16.04.1) date Mon Feb  5 22:07:17 2018*
%MOMM*%
%LPD*%
G01*
G04 APERTURE LIST*
%ADD10C,0.100000*%
%ADD11C,0.222250*%
%ADD12C,0.190500*%
%ADD13C,0.250000*%
%ADD14C,0.292100*%
%ADD15C,0.300000*%
%ADD16C,0.200000*%
%ADD17C,0.150000*%
%ADD18C,0.120000*%
G04 APERTURE END LIST*
D10*
D11*
X176669700Y-86288033D02*
X176796700Y-86330367D01*
X177008367Y-86330367D01*
X177093034Y-86288033D01*
X177135367Y-86245700D01*
X177177700Y-86161033D01*
X177177700Y-86076367D01*
X177135367Y-85991700D01*
X177093034Y-85949367D01*
X177008367Y-85907033D01*
X176839034Y-85864700D01*
X176754367Y-85822367D01*
X176712034Y-85780033D01*
X176669700Y-85695367D01*
X176669700Y-85610700D01*
X176712034Y-85526033D01*
X176754367Y-85483700D01*
X176839034Y-85441367D01*
X177050700Y-85441367D01*
X177177700Y-85483700D01*
X177558701Y-86330367D02*
X177558701Y-85441367D01*
X177770367Y-85441367D01*
X177897367Y-85483700D01*
X177982034Y-85568367D01*
X178024367Y-85653033D01*
X178066701Y-85822367D01*
X178066701Y-85949367D01*
X178024367Y-86118700D01*
X177982034Y-86203367D01*
X177897367Y-86288033D01*
X177770367Y-86330367D01*
X177558701Y-86330367D01*
X178236034Y-86415033D02*
X178913367Y-86415033D01*
X179125034Y-86330367D02*
X179125034Y-85441367D01*
X179548367Y-86330367D02*
X179548367Y-85441367D01*
X180056367Y-86330367D01*
X180056367Y-85441367D01*
D12*
X175204967Y-86368467D02*
X175204967Y-86791800D01*
X174315967Y-86791800D01*
X175162633Y-86114467D02*
X175204967Y-85987467D01*
X175204967Y-85775800D01*
X175162633Y-85691133D01*
X175120300Y-85648800D01*
X175035633Y-85606467D01*
X174950967Y-85606467D01*
X174866300Y-85648800D01*
X174823967Y-85691133D01*
X174781633Y-85775800D01*
X174739300Y-85945133D01*
X174696967Y-86029800D01*
X174654633Y-86072133D01*
X174569967Y-86114467D01*
X174485300Y-86114467D01*
X174400633Y-86072133D01*
X174358300Y-86029800D01*
X174315967Y-85945133D01*
X174315967Y-85733467D01*
X174358300Y-85606467D01*
X175204967Y-85225466D02*
X174315967Y-85225466D01*
X174315967Y-85013800D01*
X174358300Y-84886800D01*
X174442967Y-84802133D01*
X174527633Y-84759800D01*
X174696967Y-84717466D01*
X174823967Y-84717466D01*
X174993300Y-84759800D01*
X175077967Y-84802133D01*
X175162633Y-84886800D01*
X175204967Y-85013800D01*
X175204967Y-85225466D01*
D13*
X138268248Y-103541581D02*
X138839677Y-103541581D01*
X138553962Y-104541581D02*
X138553962Y-103541581D01*
X139125391Y-104493962D02*
X139268248Y-104541581D01*
X139506344Y-104541581D01*
X139601582Y-104493962D01*
X139649201Y-104446343D01*
X139696820Y-104351105D01*
X139696820Y-104255867D01*
X139649201Y-104160629D01*
X139601582Y-104113010D01*
X139506344Y-104065390D01*
X139315867Y-104017771D01*
X139220629Y-103970152D01*
X139173010Y-103922533D01*
X139125391Y-103827295D01*
X139125391Y-103732057D01*
X139173010Y-103636819D01*
X139220629Y-103589200D01*
X139315867Y-103541581D01*
X139553963Y-103541581D01*
X139696820Y-103589200D01*
X140125391Y-104160629D02*
X140887296Y-104160629D01*
X140506344Y-104541581D02*
X140506344Y-103779676D01*
D14*
X172400000Y-74300000D02*
X172350000Y-84050000D01*
D15*
X175021429Y-81958571D02*
X174307143Y-81958571D01*
X174307143Y-80458571D01*
X175307143Y-80458571D02*
X175807143Y-81958571D01*
X176307143Y-80458571D01*
X168244972Y-81907771D02*
X168244972Y-80407771D01*
X168244972Y-81122057D02*
X169102115Y-81122057D01*
X169102115Y-81907771D02*
X169102115Y-80407771D01*
X169602115Y-80407771D02*
X170102115Y-81907771D01*
X170602115Y-80407771D01*
X160921333Y-107874010D02*
X161064189Y-107874575D01*
X161206806Y-107935615D01*
X161277995Y-107996373D01*
X161348946Y-108117607D01*
X161419417Y-108359792D01*
X161418222Y-108662170D01*
X161345838Y-108903791D01*
X161273932Y-109024460D01*
X161202264Y-109084654D01*
X161059169Y-109144565D01*
X160916313Y-109144000D01*
X160773697Y-109082960D01*
X160702507Y-109022201D01*
X160631558Y-108900968D01*
X160561085Y-108658782D01*
X160562281Y-108356404D01*
X160634665Y-108114784D01*
X160706571Y-107994114D01*
X160778238Y-107933921D01*
X160921333Y-107874010D01*
X162059640Y-109027565D02*
X162130828Y-109088324D01*
X162059161Y-109148517D01*
X161987972Y-109087760D01*
X162059640Y-109027565D01*
X162059161Y-109148517D01*
X163492742Y-107884174D02*
X162778462Y-107881351D01*
X162704643Y-108485826D01*
X162776310Y-108425632D01*
X162919405Y-108365721D01*
X163276545Y-108367132D01*
X163419162Y-108428173D01*
X163490352Y-108488931D01*
X163561301Y-108610165D01*
X163560106Y-108912543D01*
X163488200Y-109033212D01*
X163416533Y-109093406D01*
X163273438Y-109153317D01*
X162916298Y-109151905D01*
X162773681Y-109090865D01*
X162702492Y-109030106D01*
X164492733Y-107888126D02*
X164635589Y-107888691D01*
X164778206Y-107949731D01*
X164849395Y-108010489D01*
X164920346Y-108131723D01*
X164990817Y-108373908D01*
X164989622Y-108676287D01*
X164917238Y-108917907D01*
X164845332Y-109038576D01*
X164773664Y-109098770D01*
X164630569Y-109158681D01*
X164487713Y-109158117D01*
X164345097Y-109097076D01*
X164273907Y-109036317D01*
X164202958Y-108915084D01*
X164132486Y-108672899D01*
X164133681Y-108370520D01*
X164206065Y-108128900D01*
X164277971Y-108008231D01*
X164349638Y-107948037D01*
X164492733Y-107888126D01*
X166278433Y-107895185D02*
X165992722Y-107894055D01*
X165849627Y-107953966D01*
X165777959Y-108014159D01*
X165634386Y-108195022D01*
X165562002Y-108436643D01*
X165560089Y-108920448D01*
X165631040Y-109041682D01*
X165702228Y-109102440D01*
X165844846Y-109163481D01*
X166130558Y-109164610D01*
X166273653Y-109104699D01*
X166345320Y-109044505D01*
X166417226Y-108923836D01*
X166418421Y-108621458D01*
X166347471Y-108500224D01*
X166276282Y-108439466D01*
X166133665Y-108378425D01*
X165847953Y-108377296D01*
X165704857Y-108437208D01*
X165633191Y-108497401D01*
X165561284Y-108618070D01*
X167349853Y-107899419D02*
X167492709Y-107899984D01*
X167635326Y-107961024D01*
X167706515Y-108021782D01*
X167777465Y-108143016D01*
X167847937Y-108385201D01*
X167846742Y-108687580D01*
X167774358Y-108929200D01*
X167702451Y-109049869D01*
X167630784Y-109110063D01*
X167487689Y-109169974D01*
X167344833Y-109169409D01*
X167202216Y-109108369D01*
X167131027Y-109047610D01*
X167060078Y-108926377D01*
X166989605Y-108684192D01*
X166990800Y-108381813D01*
X167063185Y-108140193D01*
X167135091Y-108019523D01*
X167206758Y-107959330D01*
X167349853Y-107899419D01*
X169630529Y-109178444D02*
X169633876Y-108331783D01*
X169635549Y-107908454D02*
X169563882Y-107968647D01*
X169635071Y-108029405D01*
X169706737Y-107969212D01*
X169635549Y-107908454D01*
X169635071Y-108029405D01*
X170348156Y-108334607D02*
X170344810Y-109181267D01*
X170347678Y-108455559D02*
X170419345Y-108395365D01*
X170562441Y-108335454D01*
X170776724Y-108336301D01*
X170919341Y-108397341D01*
X170990291Y-108518575D01*
X170987662Y-109183808D01*
X159390538Y-107213431D02*
X172242938Y-107264231D01*
X159438693Y-95030202D02*
X159379866Y-109913410D01*
X172291093Y-95081002D02*
X172232266Y-109964210D01*
X172242938Y-107264231D02*
X171114125Y-107846195D01*
X172242938Y-107264231D02*
X171118761Y-106673362D01*
X159390538Y-107213431D02*
X160514715Y-107804300D01*
X159390538Y-107213431D02*
X160519351Y-106631467D01*
D16*
X129935458Y-104271771D02*
X130078315Y-104319390D01*
X130125934Y-104367010D01*
X130173553Y-104462248D01*
X130173553Y-104605105D01*
X130125934Y-104700343D01*
X130078315Y-104747962D01*
X129983077Y-104795581D01*
X129602124Y-104795581D01*
X129602124Y-103795581D01*
X129935458Y-103795581D01*
X130030696Y-103843200D01*
X130078315Y-103890819D01*
X130125934Y-103986057D01*
X130125934Y-104081295D01*
X130078315Y-104176533D01*
X130030696Y-104224152D01*
X129935458Y-104271771D01*
X129602124Y-104271771D01*
X130554505Y-104509867D02*
X131030696Y-104509867D01*
X130459267Y-104795581D02*
X130792600Y-103795581D01*
X131125934Y-104795581D01*
X131316410Y-103795581D02*
X131887839Y-103795581D01*
X131602124Y-104795581D02*
X131602124Y-103795581D01*
X132221172Y-104414629D02*
X132983077Y-104414629D01*
X132602125Y-104795581D02*
X132602125Y-104033676D01*
X140868495Y-94854781D02*
X141439924Y-94854781D01*
X141154209Y-95854781D02*
X141154209Y-94854781D01*
X141725638Y-95807162D02*
X141868495Y-95854781D01*
X142106591Y-95854781D01*
X142201829Y-95807162D01*
X142249448Y-95759543D01*
X142297067Y-95664305D01*
X142297067Y-95569067D01*
X142249448Y-95473829D01*
X142201829Y-95426210D01*
X142106591Y-95378590D01*
X141916114Y-95330971D01*
X141820876Y-95283352D01*
X141773257Y-95235733D01*
X141725638Y-95140495D01*
X141725638Y-95045257D01*
X141773257Y-94950019D01*
X141820876Y-94902400D01*
X141916114Y-94854781D01*
X142154210Y-94854781D01*
X142297067Y-94902400D01*
X116929181Y-85218448D02*
X116929181Y-85027971D01*
X116976800Y-84932733D01*
X117072038Y-84837495D01*
X117262514Y-84789876D01*
X117595848Y-84789876D01*
X117786324Y-84837495D01*
X117881562Y-84932733D01*
X117929181Y-85027971D01*
X117929181Y-85218448D01*
X117881562Y-85313686D01*
X117786324Y-85408924D01*
X117595848Y-85456543D01*
X117262514Y-85456543D01*
X117072038Y-85408924D01*
X116976800Y-85313686D01*
X116929181Y-85218448D01*
X117405371Y-84361305D02*
X117405371Y-84027971D01*
X117929181Y-83885114D02*
X117929181Y-84361305D01*
X116929181Y-84361305D01*
X116929181Y-83885114D01*
X117929181Y-83456543D02*
X116929181Y-83456543D01*
X117643467Y-83123209D01*
X116929181Y-82789876D01*
X117929181Y-82789876D01*
X119629181Y-90385115D02*
X118629181Y-90385115D01*
X118629181Y-90004162D01*
X118676800Y-89908924D01*
X118724419Y-89861305D01*
X118819657Y-89813686D01*
X118962514Y-89813686D01*
X119057752Y-89861305D01*
X119105371Y-89908924D01*
X119152990Y-90004162D01*
X119152990Y-90385115D01*
X119629181Y-88813686D02*
X119152990Y-89147020D01*
X119629181Y-89385115D02*
X118629181Y-89385115D01*
X118629181Y-89004162D01*
X118676800Y-88908924D01*
X118724419Y-88861305D01*
X118819657Y-88813686D01*
X118962514Y-88813686D01*
X119057752Y-88861305D01*
X119105371Y-88908924D01*
X119152990Y-89004162D01*
X119152990Y-89385115D01*
X119105371Y-88385115D02*
X119105371Y-88051781D01*
X119629181Y-87908924D02*
X119629181Y-88385115D01*
X118629181Y-88385115D01*
X118629181Y-87908924D01*
X119533943Y-86908924D02*
X119581562Y-86956543D01*
X119629181Y-87099400D01*
X119629181Y-87194638D01*
X119581562Y-87337496D01*
X119486324Y-87432734D01*
X119391086Y-87480353D01*
X119200610Y-87527972D01*
X119057752Y-87527972D01*
X118867276Y-87480353D01*
X118772038Y-87432734D01*
X118676800Y-87337496D01*
X118629181Y-87194638D01*
X118629181Y-87099400D01*
X118676800Y-86956543D01*
X118724419Y-86908924D01*
X119629181Y-86480353D02*
X118629181Y-86480353D01*
X119105371Y-86480353D02*
X119105371Y-85908924D01*
X119629181Y-85908924D02*
X118629181Y-85908924D01*
X119343467Y-85480353D02*
X119343467Y-85004162D01*
X119629181Y-85575591D02*
X118629181Y-85242258D01*
X119629181Y-84908924D01*
X119629181Y-84004162D02*
X119152990Y-84337496D01*
X119629181Y-84575591D02*
X118629181Y-84575591D01*
X118629181Y-84194638D01*
X118676800Y-84099400D01*
X118724419Y-84051781D01*
X118819657Y-84004162D01*
X118962514Y-84004162D01*
X119057752Y-84051781D01*
X119105371Y-84099400D01*
X119152990Y-84194638D01*
X119152990Y-84575591D01*
X118676800Y-83051781D02*
X118629181Y-83147019D01*
X118629181Y-83289876D01*
X118676800Y-83432734D01*
X118772038Y-83527972D01*
X118867276Y-83575591D01*
X119057752Y-83623210D01*
X119200610Y-83623210D01*
X119391086Y-83575591D01*
X119486324Y-83527972D01*
X119581562Y-83432734D01*
X119629181Y-83289876D01*
X119629181Y-83194638D01*
X119581562Y-83051781D01*
X119533943Y-83004162D01*
X119200610Y-83004162D01*
X119200610Y-83194638D01*
X119105371Y-82575591D02*
X119105371Y-82242257D01*
X119629181Y-82099400D02*
X119629181Y-82575591D01*
X118629181Y-82575591D01*
X118629181Y-82099400D01*
X119724419Y-81908924D02*
X119724419Y-81147019D01*
X119629181Y-80337495D02*
X119152990Y-80670829D01*
X119629181Y-80908924D02*
X118629181Y-80908924D01*
X118629181Y-80527971D01*
X118676800Y-80432733D01*
X118724419Y-80385114D01*
X118819657Y-80337495D01*
X118962514Y-80337495D01*
X119057752Y-80385114D01*
X119105371Y-80432733D01*
X119152990Y-80527971D01*
X119152990Y-80908924D01*
X119581562Y-79527971D02*
X119629181Y-79623209D01*
X119629181Y-79813686D01*
X119581562Y-79908924D01*
X119486324Y-79956543D01*
X119105371Y-79956543D01*
X119010133Y-79908924D01*
X118962514Y-79813686D01*
X118962514Y-79623209D01*
X119010133Y-79527971D01*
X119105371Y-79480352D01*
X119200610Y-79480352D01*
X119295848Y-79956543D01*
X118962514Y-79147019D02*
X119629181Y-78908924D01*
X118962514Y-78670828D01*
X118724419Y-78337495D02*
X118676800Y-78289876D01*
X118629181Y-78194638D01*
X118629181Y-77956542D01*
X118676800Y-77861304D01*
X118724419Y-77813685D01*
X118819657Y-77766066D01*
X118914895Y-77766066D01*
X119057752Y-77813685D01*
X119629181Y-78385114D01*
X119629181Y-77766066D01*
X121281562Y-89408924D02*
X121329181Y-89266067D01*
X121329181Y-89027971D01*
X121281562Y-88932733D01*
X121233943Y-88885114D01*
X121138705Y-88837495D01*
X121043467Y-88837495D01*
X120948229Y-88885114D01*
X120900610Y-88932733D01*
X120852990Y-89027971D01*
X120805371Y-89218448D01*
X120757752Y-89313686D01*
X120710133Y-89361305D01*
X120614895Y-89408924D01*
X120519657Y-89408924D01*
X120424419Y-89361305D01*
X120376800Y-89313686D01*
X120329181Y-89218448D01*
X120329181Y-88980352D01*
X120376800Y-88837495D01*
X121329181Y-88408924D02*
X120329181Y-88408924D01*
X120805371Y-88408924D02*
X120805371Y-87837495D01*
X121329181Y-87837495D02*
X120329181Y-87837495D01*
X120805371Y-87361305D02*
X120805371Y-87027971D01*
X121329181Y-86885114D02*
X121329181Y-87361305D01*
X120329181Y-87361305D01*
X120329181Y-86885114D01*
X121329181Y-85885114D02*
X120852990Y-86218448D01*
X121329181Y-86456543D02*
X120329181Y-86456543D01*
X120329181Y-86075590D01*
X120376800Y-85980352D01*
X120424419Y-85932733D01*
X120519657Y-85885114D01*
X120662514Y-85885114D01*
X120757752Y-85932733D01*
X120805371Y-85980352D01*
X120852990Y-86075590D01*
X120852990Y-86456543D01*
X121329181Y-84885114D02*
X120852990Y-85218448D01*
X121329181Y-85456543D02*
X120329181Y-85456543D01*
X120329181Y-85075590D01*
X120376800Y-84980352D01*
X120424419Y-84932733D01*
X120519657Y-84885114D01*
X120662514Y-84885114D01*
X120757752Y-84932733D01*
X120805371Y-84980352D01*
X120852990Y-85075590D01*
X120852990Y-85456543D01*
X121329181Y-84456543D02*
X120329181Y-84456543D01*
X120805371Y-83980353D02*
X120805371Y-83647019D01*
X121329181Y-83504162D02*
X121329181Y-83980353D01*
X120329181Y-83980353D01*
X120329181Y-83504162D01*
X121281562Y-82361305D02*
X121329181Y-82218448D01*
X121329181Y-81980352D01*
X121281562Y-81885114D01*
X121233943Y-81837495D01*
X121138705Y-81789876D01*
X121043467Y-81789876D01*
X120948229Y-81837495D01*
X120900610Y-81885114D01*
X120852990Y-81980352D01*
X120805371Y-82170829D01*
X120757752Y-82266067D01*
X120710133Y-82313686D01*
X120614895Y-82361305D01*
X120519657Y-82361305D01*
X120424419Y-82313686D01*
X120376800Y-82266067D01*
X120329181Y-82170829D01*
X120329181Y-81932733D01*
X120376800Y-81789876D01*
X121329181Y-81361305D02*
X120329181Y-81361305D01*
X120805371Y-81361305D02*
X120805371Y-80789876D01*
X121329181Y-80789876D02*
X120329181Y-80789876D01*
X120805371Y-80313686D02*
X120805371Y-79980352D01*
X121329181Y-79837495D02*
X121329181Y-80313686D01*
X120329181Y-80313686D01*
X120329181Y-79837495D01*
X121329181Y-79408924D02*
X120329181Y-79408924D01*
X121329181Y-78837495D01*
X120329181Y-78837495D01*
D17*
X145477000Y-96894000D02*
X145477000Y-93584000D01*
X145477000Y-93584000D02*
X137677000Y-93584000D01*
X137677000Y-93584000D02*
X137677000Y-96894000D01*
X137677000Y-96894000D02*
X137677000Y-102616000D01*
X145477000Y-96894000D02*
X145477000Y-102616000D01*
X137677000Y-96894000D02*
X145477000Y-96894000D01*
X137677000Y-102616000D02*
X145477000Y-102616000D01*
D18*
X175916000Y-106593000D02*
X145916000Y-106593000D01*
X145916000Y-106593000D02*
X145916000Y-93693000D01*
X175916000Y-93693000D02*
X145916000Y-93693000D01*
X175916000Y-106593000D02*
X175916000Y-93693000D01*
D17*
X137173800Y-97077000D02*
X137173800Y-93767000D01*
X137173800Y-93767000D02*
X129373800Y-93767000D01*
X129373800Y-93767000D02*
X129373800Y-97077000D01*
X129373800Y-97077000D02*
X129373800Y-102799000D01*
X137173800Y-97077000D02*
X137173800Y-102799000D01*
X129373800Y-97077000D02*
X137173800Y-97077000D01*
X129373800Y-102799000D02*
X137173800Y-102799000D01*
X180686600Y-87445200D02*
X180686600Y-84135200D01*
X180686600Y-84135200D02*
X172886600Y-84135200D01*
X172886600Y-84135200D02*
X172886600Y-87445200D01*
X172886600Y-87445200D02*
X172886600Y-93167200D01*
X180686600Y-87445200D02*
X180686600Y-93167200D01*
X172886600Y-87445200D02*
X180686600Y-87445200D01*
X172886600Y-93167200D02*
X180686600Y-93167200D01*
D18*
X136746000Y-77918000D02*
X153046000Y-77918000D01*
X123696000Y-67818000D02*
X166096000Y-67818000D01*
X136746000Y-77918000D02*
X136746000Y-83118000D01*
X153046000Y-77918000D02*
X153046000Y-83118000D01*
X136746000Y-83118000D02*
X153046000Y-83118000D01*
X123696000Y-93218000D02*
X166096000Y-93218000D01*
X166096000Y-93218000D02*
X166096000Y-67818000D01*
X123696000Y-93218000D02*
X123696000Y-67818000D01*
D17*
X177011905Y-100952381D02*
X177011905Y-99952381D01*
X177583334Y-100952381D02*
X177154762Y-100380952D01*
X177583334Y-99952381D02*
X177011905Y-100523810D01*
X178535715Y-100952381D02*
X177964286Y-100952381D01*
X178250000Y-100952381D02*
X178250000Y-99952381D01*
X178154762Y-100095238D01*
X178059524Y-100190476D01*
X177964286Y-100238095D01*
X125293381Y-69381666D02*
X124817190Y-69715000D01*
X125293381Y-69953095D02*
X124293381Y-69953095D01*
X124293381Y-69572142D01*
X124341000Y-69476904D01*
X124388619Y-69429285D01*
X124483857Y-69381666D01*
X124626714Y-69381666D01*
X124721952Y-69429285D01*
X124769571Y-69476904D01*
X124817190Y-69572142D01*
X124817190Y-69953095D01*
X125293381Y-68429285D02*
X125293381Y-69000714D01*
X125293381Y-68715000D02*
X124293381Y-68715000D01*
X124436238Y-68810238D01*
X124531476Y-68905476D01*
X124579095Y-69000714D01*
M02*
