M48
;DRILL file {KiCad 4.0.7-e2-6376~58~ubuntu16.04.1} date Thu Mar  8 21:08:55 2018
;FORMAT={-:-/ absolute / metric / decimal}
FMAT,2
METRIC,TZ
T1C0.800
T2C1.020
T3C1.300
T4C1.600
T5C2.400
%
G90
G05
M71
T1
X139.446Y-80.518
X150.346Y-80.518
T2
X125.313Y-99.662
X128.814Y-99.662
X136.515Y-99.802
X140.015Y-99.802
X175.037Y-89.865
X178.537Y-89.865
T3
X148.416Y-96.393
X148.416Y-103.893
X153.416Y-96.393
X153.416Y-103.893
X158.416Y-96.393
X158.416Y-103.893
X173.416Y-96.393
X173.416Y-103.893
T4
X127.063Y-101.892
X138.265Y-102.032
X176.787Y-92.095
T5
X132.133Y-77.848
X157.173Y-77.848
T0
M30
