G04 #@! TF.FileFunction,Legend,Top*
%FSLAX46Y46*%
G04 Gerber Fmt 4.6, Leading zero omitted, Abs format (unit mm)*
G04 Created by KiCad (PCBNEW 4.0.7-e2-6376~58~ubuntu16.04.1) date Fri Apr  6 19:10:20 2018*
%MOMM*%
%LPD*%
G01*
G04 APERTURE LIST*
%ADD10C,0.100000*%
%ADD11C,0.067000*%
%ADD12C,0.120000*%
%ADD13C,0.150000*%
%ADD14C,0.200000*%
G04 APERTURE END LIST*
D10*
D11*
X157795151Y-96045150D02*
X157557056Y-96045150D01*
X157557056Y-95545150D01*
X158176103Y-96045150D02*
X158176103Y-95783246D01*
X158152294Y-95735627D01*
X158104675Y-95711817D01*
X158009437Y-95711817D01*
X157961818Y-95735627D01*
X158176103Y-96021341D02*
X158128484Y-96045150D01*
X158009437Y-96045150D01*
X157961818Y-96021341D01*
X157938008Y-95973722D01*
X157938008Y-95926103D01*
X157961818Y-95878484D01*
X158009437Y-95854674D01*
X158128484Y-95854674D01*
X158176103Y-95830865D01*
X158342770Y-95711817D02*
X158533246Y-95711817D01*
X158414199Y-95545150D02*
X158414199Y-95973722D01*
X158438008Y-96021341D01*
X158485627Y-96045150D01*
X158533246Y-96045150D01*
X158914198Y-96021341D02*
X158866579Y-96045150D01*
X158771341Y-96045150D01*
X158723722Y-96021341D01*
X158699913Y-95997531D01*
X158676103Y-95949912D01*
X158676103Y-95807055D01*
X158699913Y-95759436D01*
X158723722Y-95735627D01*
X158771341Y-95711817D01*
X158866579Y-95711817D01*
X158914198Y-95735627D01*
X159128484Y-96045150D02*
X159128484Y-95545150D01*
X159342769Y-96045150D02*
X159342769Y-95783246D01*
X159318960Y-95735627D01*
X159271341Y-95711817D01*
X159199912Y-95711817D01*
X159152293Y-95735627D01*
X159128484Y-95759436D01*
X160199912Y-96045150D02*
X159961817Y-96045150D01*
X159961817Y-95545150D01*
X160366579Y-95783246D02*
X160533245Y-95783246D01*
X160604674Y-96045150D02*
X160366579Y-96045150D01*
X160366579Y-95545150D01*
X160604674Y-95545150D01*
X160818960Y-96045150D02*
X160818960Y-95545150D01*
X160938007Y-95545150D01*
X161009436Y-95568960D01*
X161057055Y-95616579D01*
X161080864Y-95664198D01*
X161104674Y-95759436D01*
X161104674Y-95830865D01*
X161080864Y-95926103D01*
X161057055Y-95973722D01*
X161009436Y-96021341D01*
X160938007Y-96045150D01*
X160818960Y-96045150D01*
X148582369Y-111358810D02*
X148296655Y-111358810D01*
X148439512Y-111358810D02*
X148439512Y-110858810D01*
X148391893Y-110930239D01*
X148344274Y-110977858D01*
X148296655Y-111001668D01*
X148772845Y-110906430D02*
X148796655Y-110882620D01*
X148844274Y-110858810D01*
X148963321Y-110858810D01*
X149010940Y-110882620D01*
X149034750Y-110906430D01*
X149058559Y-110954049D01*
X149058559Y-111001668D01*
X149034750Y-111073096D01*
X148749036Y-111358810D01*
X149058559Y-111358810D01*
X149201416Y-110858810D02*
X149368083Y-111358810D01*
X149534749Y-110858810D01*
X150320463Y-111358810D02*
X150082368Y-111358810D01*
X150082368Y-110858810D01*
X150487130Y-111096906D02*
X150653796Y-111096906D01*
X150725225Y-111358810D02*
X150487130Y-111358810D01*
X150487130Y-110858810D01*
X150725225Y-110858810D01*
X150939511Y-111358810D02*
X150939511Y-110858810D01*
X151058558Y-110858810D01*
X151129987Y-110882620D01*
X151177606Y-110930239D01*
X151201415Y-110977858D01*
X151225225Y-111073096D01*
X151225225Y-111144525D01*
X151201415Y-111239763D01*
X151177606Y-111287382D01*
X151129987Y-111335001D01*
X151058558Y-111358810D01*
X150939511Y-111358810D01*
D12*
X149577500Y-91944300D02*
X150777500Y-91944300D01*
X150777500Y-93704300D02*
X149577500Y-93704300D01*
D13*
X169020260Y-93599620D02*
X169020260Y-90289620D01*
X169020260Y-90289620D02*
X161220260Y-90289620D01*
X161220260Y-90289620D02*
X161220260Y-93599620D01*
X161220260Y-93599620D02*
X161220260Y-99321620D01*
X169020260Y-93599620D02*
X169020260Y-99321620D01*
X161220260Y-93599620D02*
X169020260Y-93599620D01*
X161220260Y-99321620D02*
X169020260Y-99321620D01*
D12*
X150018860Y-108882740D02*
X150018860Y-107682740D01*
X151778860Y-107682740D02*
X151778860Y-108882740D01*
X151651860Y-103034540D02*
X151651860Y-104234540D01*
X149891860Y-104234540D02*
X149891860Y-103034540D01*
X151687420Y-98493020D02*
X151687420Y-99693020D01*
X149927420Y-99693020D02*
X149927420Y-98493020D01*
X153245260Y-105761900D02*
X154445260Y-105761900D01*
X154445260Y-107521900D02*
X153245260Y-107521900D01*
X158060500Y-94186300D02*
X158060500Y-92986300D01*
X159820500Y-92986300D02*
X159820500Y-94186300D01*
X164201380Y-103710860D02*
X164201380Y-102780860D01*
X164201380Y-100550860D02*
X164201380Y-101480860D01*
X164201380Y-100550860D02*
X162041380Y-100550860D01*
X164201380Y-103710860D02*
X162741380Y-103710860D01*
X147806280Y-115591960D02*
X148806280Y-115591960D01*
X148806280Y-113891960D02*
X147806280Y-113891960D01*
X156086500Y-114657020D02*
X176526500Y-114657020D01*
X176526500Y-114657020D02*
X176526500Y-104357020D01*
X156086500Y-114657020D02*
X156086500Y-104357020D01*
X156086500Y-104357020D02*
X176526500Y-104357020D01*
X146355620Y-109018580D02*
X146355620Y-107018580D01*
X149315620Y-107018580D02*
X149315620Y-109018580D01*
D14*
X148980400Y-100530100D02*
X148080400Y-101630100D01*
X147280400Y-100530100D02*
X148980400Y-100530100D01*
X148080400Y-101630100D02*
X147280400Y-100530100D01*
X147280400Y-101630100D02*
X148980400Y-101630100D01*
D12*
X146646900Y-104305100D02*
X149313900Y-104305100D01*
X149313900Y-104305100D02*
X149313900Y-101130100D01*
X146646900Y-104305100D02*
X146646900Y-101130100D01*
D10*
X154348180Y-110137460D02*
X153948180Y-110737460D01*
X153948180Y-110737460D02*
X154748180Y-110737460D01*
X154348180Y-110137460D02*
X154748180Y-110737460D01*
X153798180Y-110137460D02*
X154898180Y-110137460D01*
D12*
X155348180Y-108287460D02*
X153348180Y-108287460D01*
X153348180Y-108287460D02*
X153348180Y-112137460D01*
X155348180Y-108287460D02*
X155348180Y-112137460D01*
X159050260Y-103771820D02*
X159050260Y-102841820D01*
X159050260Y-100611820D02*
X159050260Y-101541820D01*
X159050260Y-100611820D02*
X156890260Y-100611820D01*
X159050260Y-103771820D02*
X157590260Y-103771820D01*
X151794920Y-113290460D02*
X152994920Y-113290460D01*
X152994920Y-115050460D02*
X151794920Y-115050460D01*
X149577500Y-94484300D02*
X150777500Y-94484300D01*
X150777500Y-96244300D02*
X149577500Y-96244300D01*
D10*
X159013640Y-98421800D02*
X158663640Y-98421800D01*
X158663640Y-98421800D02*
X158313640Y-98421800D01*
X159013640Y-98071800D02*
X158663640Y-98421800D01*
X158963640Y-98071800D02*
X159013640Y-98071800D01*
X159013640Y-98071800D02*
X158963640Y-98071800D01*
X158313640Y-98071800D02*
X158963640Y-98071800D01*
X158363640Y-98121800D02*
X158313640Y-98071800D01*
X158663640Y-98421800D02*
X158363640Y-98121800D01*
D12*
X157963640Y-100021800D02*
X159363640Y-100021800D01*
X159363640Y-100021800D02*
X159363640Y-97221800D01*
X157963640Y-100021800D02*
X157963640Y-97221800D01*
D10*
X148097900Y-112798340D02*
X148097900Y-112448340D01*
X148097900Y-112448340D02*
X148097900Y-112098340D01*
X148447900Y-112798340D02*
X148097900Y-112448340D01*
X148447900Y-112748340D02*
X148447900Y-112798340D01*
X148447900Y-112798340D02*
X148447900Y-112748340D01*
X148447900Y-112098340D02*
X148447900Y-112748340D01*
X148397900Y-112148340D02*
X148447900Y-112098340D01*
X148097900Y-112448340D02*
X148397900Y-112148340D01*
D12*
X146497900Y-111748340D02*
X146497900Y-113148340D01*
X146497900Y-113148340D02*
X149297900Y-113148340D01*
X146497900Y-111748340D02*
X149297900Y-111748340D01*
D13*
X156813120Y-122882040D02*
X156813120Y-126192040D01*
X156813120Y-126192040D02*
X164613120Y-126192040D01*
X164613120Y-126192040D02*
X164613120Y-122882040D01*
X168213120Y-122882040D02*
X168213120Y-117160040D01*
X149713120Y-122882040D02*
X149713120Y-117160040D01*
X168213120Y-122882040D02*
X149713120Y-122882040D01*
X168213120Y-117160040D02*
X149713120Y-117160040D01*
X140565360Y-108959600D02*
X145865360Y-108959600D01*
X140565360Y-99269600D02*
X145865360Y-99269600D01*
X140565360Y-108959600D02*
X140565360Y-99269600D01*
X145865360Y-108959600D02*
X145865360Y-99269600D01*
D12*
X142507080Y-111121560D02*
X143507080Y-111121560D01*
X143507080Y-109421560D02*
X142507080Y-109421560D01*
X155072920Y-100873920D02*
X153272920Y-100873920D01*
X153272920Y-104093920D02*
X155722920Y-104093920D01*
D13*
X157379040Y-93758280D02*
X152379040Y-93758280D01*
X152379040Y-97158280D02*
X152379040Y-93758280D01*
X152449040Y-94823280D02*
X153211040Y-94823280D01*
X153211040Y-94823280D02*
X153211040Y-96093280D01*
X153211040Y-96093280D02*
X152449040Y-96093280D01*
X157379040Y-97158280D02*
X157379040Y-93758280D01*
X157379040Y-97158280D02*
X152379040Y-97158280D01*
X148470881Y-92990966D02*
X147994690Y-93324300D01*
X148470881Y-93562395D02*
X147470881Y-93562395D01*
X147470881Y-93181442D01*
X147518500Y-93086204D01*
X147566119Y-93038585D01*
X147661357Y-92990966D01*
X147804214Y-92990966D01*
X147899452Y-93038585D01*
X147947071Y-93086204D01*
X147994690Y-93181442D01*
X147994690Y-93562395D01*
X147470881Y-92133823D02*
X147470881Y-92324300D01*
X147518500Y-92419538D01*
X147566119Y-92467157D01*
X147708976Y-92562395D01*
X147899452Y-92610014D01*
X148280405Y-92610014D01*
X148375643Y-92562395D01*
X148423262Y-92514776D01*
X148470881Y-92419538D01*
X148470881Y-92229061D01*
X148423262Y-92133823D01*
X148375643Y-92086204D01*
X148280405Y-92038585D01*
X148042310Y-92038585D01*
X147947071Y-92086204D01*
X147899452Y-92133823D01*
X147851833Y-92229061D01*
X147851833Y-92419538D01*
X147899452Y-92514776D01*
X147947071Y-92562395D01*
X148042310Y-92610014D01*
X167789267Y-99579181D02*
X167789267Y-100293467D01*
X167741647Y-100436324D01*
X167646409Y-100531562D01*
X167503552Y-100579181D01*
X167408314Y-100579181D01*
X168217838Y-99674419D02*
X168265457Y-99626800D01*
X168360695Y-99579181D01*
X168598791Y-99579181D01*
X168694029Y-99626800D01*
X168741648Y-99674419D01*
X168789267Y-99769657D01*
X168789267Y-99864895D01*
X168741648Y-100007752D01*
X168170219Y-100579181D01*
X168789267Y-100579181D01*
X150574714Y-106616801D02*
X150241380Y-106140610D01*
X150003285Y-106616801D02*
X150003285Y-105616801D01*
X150384238Y-105616801D01*
X150479476Y-105664420D01*
X150527095Y-105712039D01*
X150574714Y-105807277D01*
X150574714Y-105950134D01*
X150527095Y-106045372D01*
X150479476Y-106092991D01*
X150384238Y-106140610D01*
X150003285Y-106140610D01*
X151527095Y-106616801D02*
X150955666Y-106616801D01*
X151241380Y-106616801D02*
X151241380Y-105616801D01*
X151146142Y-105759658D01*
X151050904Y-105854896D01*
X150955666Y-105902515D01*
X150899834Y-101953321D02*
X150566500Y-101477130D01*
X150328405Y-101953321D02*
X150328405Y-100953321D01*
X150709358Y-100953321D01*
X150804596Y-101000940D01*
X150852215Y-101048559D01*
X150899834Y-101143797D01*
X150899834Y-101286654D01*
X150852215Y-101381892D01*
X150804596Y-101429511D01*
X150709358Y-101477130D01*
X150328405Y-101477130D01*
X151280786Y-101048559D02*
X151328405Y-101000940D01*
X151423643Y-100953321D01*
X151661739Y-100953321D01*
X151756977Y-101000940D01*
X151804596Y-101048559D01*
X151852215Y-101143797D01*
X151852215Y-101239035D01*
X151804596Y-101381892D01*
X151233167Y-101953321D01*
X151852215Y-101953321D01*
X150425993Y-97356818D02*
X150140660Y-96949199D01*
X149936851Y-97356818D02*
X149936851Y-96500818D01*
X150262946Y-96500818D01*
X150344470Y-96541580D01*
X150385231Y-96582342D01*
X150425993Y-96663866D01*
X150425993Y-96786151D01*
X150385231Y-96867675D01*
X150344470Y-96908437D01*
X150262946Y-96949199D01*
X149936851Y-96949199D01*
X150711327Y-96500818D02*
X151241231Y-96500818D01*
X150955898Y-96826913D01*
X151078184Y-96826913D01*
X151159708Y-96867675D01*
X151200470Y-96908437D01*
X151241231Y-96989961D01*
X151241231Y-97193770D01*
X151200470Y-97275294D01*
X151159708Y-97316056D01*
X151078184Y-97356818D01*
X150833612Y-97356818D01*
X150752089Y-97316056D01*
X150711327Y-97275294D01*
X152632114Y-105605841D02*
X152298780Y-105129650D01*
X152060685Y-105605841D02*
X152060685Y-104605841D01*
X152441638Y-104605841D01*
X152536876Y-104653460D01*
X152584495Y-104701079D01*
X152632114Y-104796317D01*
X152632114Y-104939174D01*
X152584495Y-105034412D01*
X152536876Y-105082031D01*
X152441638Y-105129650D01*
X152060685Y-105129650D01*
X153489257Y-104939174D02*
X153489257Y-105605841D01*
X153251161Y-104558222D02*
X153013066Y-105272508D01*
X153632114Y-105272508D01*
X160877205Y-93620573D02*
X160496252Y-93887240D01*
X160877205Y-94077716D02*
X160077205Y-94077716D01*
X160077205Y-93772954D01*
X160115300Y-93696763D01*
X160153395Y-93658668D01*
X160229586Y-93620573D01*
X160343871Y-93620573D01*
X160420062Y-93658668D01*
X160458157Y-93696763D01*
X160496252Y-93772954D01*
X160496252Y-94077716D01*
X160077205Y-92896763D02*
X160077205Y-93277716D01*
X160458157Y-93315811D01*
X160420062Y-93277716D01*
X160381967Y-93201525D01*
X160381967Y-93011049D01*
X160420062Y-92934859D01*
X160458157Y-92896763D01*
X160534348Y-92858668D01*
X160724824Y-92858668D01*
X160801014Y-92896763D01*
X160839110Y-92934859D01*
X160877205Y-93011049D01*
X160877205Y-93201525D01*
X160839110Y-93277716D01*
X160801014Y-93315811D01*
X165240982Y-101154479D02*
X165145744Y-101106860D01*
X165050506Y-101011622D01*
X164907649Y-100868765D01*
X164812410Y-100821146D01*
X164717172Y-100821146D01*
X164764791Y-101059241D02*
X164669553Y-101011622D01*
X164574315Y-100916384D01*
X164526696Y-100725908D01*
X164526696Y-100392574D01*
X164574315Y-100202098D01*
X164669553Y-100106860D01*
X164764791Y-100059241D01*
X164955268Y-100059241D01*
X165050506Y-100106860D01*
X165145744Y-100202098D01*
X165193363Y-100392574D01*
X165193363Y-100725908D01*
X165145744Y-100916384D01*
X165050506Y-101011622D01*
X164955268Y-101059241D01*
X164764791Y-101059241D01*
X166145744Y-101059241D02*
X165574315Y-101059241D01*
X165860029Y-101059241D02*
X165860029Y-100059241D01*
X165764791Y-100202098D01*
X165669553Y-100297336D01*
X165574315Y-100344955D01*
X146240263Y-115012766D02*
X146287882Y-115060385D01*
X146335501Y-115203242D01*
X146335501Y-115298480D01*
X146287882Y-115441338D01*
X146192644Y-115536576D01*
X146097406Y-115584195D01*
X145906930Y-115631814D01*
X145764072Y-115631814D01*
X145573596Y-115584195D01*
X145478358Y-115536576D01*
X145383120Y-115441338D01*
X145335501Y-115298480D01*
X145335501Y-115203242D01*
X145383120Y-115060385D01*
X145430739Y-115012766D01*
X146335501Y-114060385D02*
X146335501Y-114631814D01*
X146335501Y-114346100D02*
X145335501Y-114346100D01*
X145478358Y-114441338D01*
X145573596Y-114536576D01*
X145621215Y-114631814D01*
X174902905Y-103957381D02*
X174902905Y-102957381D01*
X175474334Y-103957381D02*
X175045762Y-103385952D01*
X175474334Y-102957381D02*
X174902905Y-103528810D01*
X176426715Y-103957381D02*
X175855286Y-103957381D01*
X176141000Y-103957381D02*
X176141000Y-102957381D01*
X176045762Y-103100238D01*
X175950524Y-103195476D01*
X175855286Y-103243095D01*
X146824107Y-105160771D02*
X146490773Y-105160771D01*
X146490773Y-105684581D02*
X146490773Y-104684581D01*
X146966964Y-104684581D01*
X147871726Y-105684581D02*
X147300297Y-105684581D01*
X147586011Y-105684581D02*
X147586011Y-104684581D01*
X147490773Y-104827438D01*
X147395535Y-104922676D01*
X147300297Y-104970295D01*
X146531105Y-97696281D02*
X146531105Y-96696281D01*
X146769200Y-96696281D01*
X146912058Y-96743900D01*
X147007296Y-96839138D01*
X147054915Y-96934376D01*
X147102534Y-97124852D01*
X147102534Y-97267710D01*
X147054915Y-97458186D01*
X147007296Y-97553424D01*
X146912058Y-97648662D01*
X146769200Y-97696281D01*
X146531105Y-97696281D01*
X148054915Y-97696281D02*
X147483486Y-97696281D01*
X147769200Y-97696281D02*
X147769200Y-96696281D01*
X147673962Y-96839138D01*
X147578724Y-96934376D01*
X147483486Y-96981995D01*
X152997161Y-111423675D02*
X151997161Y-111423675D01*
X151997161Y-111185580D01*
X152044780Y-111042722D01*
X152140018Y-110947484D01*
X152235256Y-110899865D01*
X152425732Y-110852246D01*
X152568590Y-110852246D01*
X152759066Y-110899865D01*
X152854304Y-110947484D01*
X152949542Y-111042722D01*
X152997161Y-111185580D01*
X152997161Y-111423675D01*
X152330494Y-109995103D02*
X152997161Y-109995103D01*
X151949542Y-110233199D02*
X152663828Y-110471294D01*
X152663828Y-109852246D01*
X160100022Y-101179879D02*
X160004784Y-101132260D01*
X159909546Y-101037022D01*
X159766689Y-100894165D01*
X159671450Y-100846546D01*
X159576212Y-100846546D01*
X159623831Y-101084641D02*
X159528593Y-101037022D01*
X159433355Y-100941784D01*
X159385736Y-100751308D01*
X159385736Y-100417974D01*
X159433355Y-100227498D01*
X159528593Y-100132260D01*
X159623831Y-100084641D01*
X159814308Y-100084641D01*
X159909546Y-100132260D01*
X160004784Y-100227498D01*
X160052403Y-100417974D01*
X160052403Y-100751308D01*
X160004784Y-100941784D01*
X159909546Y-101037022D01*
X159814308Y-101084641D01*
X159623831Y-101084641D01*
X160433355Y-100179879D02*
X160480974Y-100132260D01*
X160576212Y-100084641D01*
X160814308Y-100084641D01*
X160909546Y-100132260D01*
X160957165Y-100179879D01*
X161004784Y-100275117D01*
X161004784Y-100370355D01*
X160957165Y-100513212D01*
X160385736Y-101084641D01*
X161004784Y-101084641D01*
X151887894Y-113037881D02*
X151554560Y-112561690D01*
X151316465Y-113037881D02*
X151316465Y-112037881D01*
X151697418Y-112037881D01*
X151792656Y-112085500D01*
X151840275Y-112133119D01*
X151887894Y-112228357D01*
X151887894Y-112371214D01*
X151840275Y-112466452D01*
X151792656Y-112514071D01*
X151697418Y-112561690D01*
X151316465Y-112561690D01*
X152221227Y-112037881D02*
X152887894Y-112037881D01*
X152459322Y-113037881D01*
X148470881Y-95530966D02*
X147994690Y-95864300D01*
X148470881Y-96102395D02*
X147470881Y-96102395D01*
X147470881Y-95721442D01*
X147518500Y-95626204D01*
X147566119Y-95578585D01*
X147661357Y-95530966D01*
X147804214Y-95530966D01*
X147899452Y-95578585D01*
X147947071Y-95626204D01*
X147994690Y-95721442D01*
X147994690Y-96102395D01*
X147899452Y-94959538D02*
X147851833Y-95054776D01*
X147804214Y-95102395D01*
X147708976Y-95150014D01*
X147661357Y-95150014D01*
X147566119Y-95102395D01*
X147518500Y-95054776D01*
X147470881Y-94959538D01*
X147470881Y-94769061D01*
X147518500Y-94673823D01*
X147566119Y-94626204D01*
X147661357Y-94578585D01*
X147708976Y-94578585D01*
X147804214Y-94626204D01*
X147851833Y-94673823D01*
X147899452Y-94769061D01*
X147899452Y-94959538D01*
X147947071Y-95054776D01*
X147994690Y-95102395D01*
X148089929Y-95150014D01*
X148280405Y-95150014D01*
X148375643Y-95102395D01*
X148423262Y-95054776D01*
X148470881Y-94959538D01*
X148470881Y-94769061D01*
X148423262Y-94673823D01*
X148375643Y-94626204D01*
X148280405Y-94578585D01*
X148089929Y-94578585D01*
X147994690Y-94626204D01*
X147947071Y-94673823D01*
X147899452Y-94769061D01*
X160534305Y-99670796D02*
X159734305Y-99670796D01*
X159734305Y-99480320D01*
X159772400Y-99366034D01*
X159848590Y-99289843D01*
X159924781Y-99251748D01*
X160077162Y-99213653D01*
X160191448Y-99213653D01*
X160343829Y-99251748D01*
X160420019Y-99289843D01*
X160496210Y-99366034D01*
X160534305Y-99480320D01*
X160534305Y-99670796D01*
X159734305Y-98946986D02*
X159734305Y-98451748D01*
X160039067Y-98718415D01*
X160039067Y-98604129D01*
X160077162Y-98527939D01*
X160115257Y-98489843D01*
X160191448Y-98451748D01*
X160381924Y-98451748D01*
X160458114Y-98489843D01*
X160496210Y-98527939D01*
X160534305Y-98604129D01*
X160534305Y-98832701D01*
X160496210Y-98908891D01*
X160458114Y-98946986D01*
X146452365Y-111366561D02*
X146452365Y-110366561D01*
X146690460Y-110366561D01*
X146833318Y-110414180D01*
X146928556Y-110509418D01*
X146976175Y-110604656D01*
X147023794Y-110795132D01*
X147023794Y-110937990D01*
X146976175Y-111128466D01*
X146928556Y-111223704D01*
X146833318Y-111318942D01*
X146690460Y-111366561D01*
X146452365Y-111366561D01*
X147404746Y-110461799D02*
X147452365Y-110414180D01*
X147547603Y-110366561D01*
X147785699Y-110366561D01*
X147880937Y-110414180D01*
X147928556Y-110461799D01*
X147976175Y-110557037D01*
X147976175Y-110652275D01*
X147928556Y-110795132D01*
X147357127Y-111366561D01*
X147976175Y-111366561D01*
X167229541Y-116584053D02*
X167943827Y-116584053D01*
X168086684Y-116631673D01*
X168181922Y-116726911D01*
X168229541Y-116869768D01*
X168229541Y-116965006D01*
X168229541Y-115584053D02*
X168229541Y-116155482D01*
X168229541Y-115869768D02*
X167229541Y-115869768D01*
X167372398Y-115965006D01*
X167467636Y-116060244D01*
X167515255Y-116155482D01*
X144400947Y-97872301D02*
X144400947Y-98586587D01*
X144353327Y-98729444D01*
X144258089Y-98824682D01*
X144115232Y-98872301D01*
X144019994Y-98872301D01*
X144781899Y-97872301D02*
X145400947Y-97872301D01*
X145067613Y-98253253D01*
X145210471Y-98253253D01*
X145305709Y-98300872D01*
X145353328Y-98348491D01*
X145400947Y-98443730D01*
X145400947Y-98681825D01*
X145353328Y-98777063D01*
X145305709Y-98824682D01*
X145210471Y-98872301D01*
X144924756Y-98872301D01*
X144829518Y-98824682D01*
X144781899Y-98777063D01*
X145498797Y-109473074D02*
X145498797Y-110139741D01*
X145260701Y-109092122D02*
X145022606Y-109806408D01*
X145641654Y-109806408D01*
X141443675Y-98851981D02*
X140872246Y-98851981D01*
X141157960Y-98851981D02*
X141157960Y-97851981D01*
X141062722Y-97994838D01*
X140967484Y-98090076D01*
X140872246Y-98137695D01*
X142840414Y-112128703D02*
X142792795Y-112176322D01*
X142649938Y-112223941D01*
X142554700Y-112223941D01*
X142411842Y-112176322D01*
X142316604Y-112081084D01*
X142268985Y-111985846D01*
X142221366Y-111795370D01*
X142221366Y-111652512D01*
X142268985Y-111462036D01*
X142316604Y-111366798D01*
X142411842Y-111271560D01*
X142554700Y-111223941D01*
X142649938Y-111223941D01*
X142792795Y-111271560D01*
X142840414Y-111319179D01*
X143221366Y-111319179D02*
X143268985Y-111271560D01*
X143364223Y-111223941D01*
X143602319Y-111223941D01*
X143697557Y-111271560D01*
X143745176Y-111319179D01*
X143792795Y-111414417D01*
X143792795Y-111509655D01*
X143745176Y-111652512D01*
X143173747Y-112223941D01*
X143792795Y-112223941D01*
X154310175Y-104298501D02*
X154310175Y-105108025D01*
X154357794Y-105203263D01*
X154405413Y-105250882D01*
X154500651Y-105298501D01*
X154691128Y-105298501D01*
X154786366Y-105250882D01*
X154833985Y-105203263D01*
X154881604Y-105108025D01*
X154881604Y-104298501D01*
X155881604Y-105298501D02*
X155310175Y-105298501D01*
X155595889Y-105298501D02*
X155595889Y-104298501D01*
X155500651Y-104441358D01*
X155405413Y-104536596D01*
X155310175Y-104584215D01*
X155397295Y-99467421D02*
X155397295Y-100276945D01*
X155444914Y-100372183D01*
X155492533Y-100419802D01*
X155587771Y-100467421D01*
X155778248Y-100467421D01*
X155873486Y-100419802D01*
X155921105Y-100372183D01*
X155968724Y-100276945D01*
X155968724Y-99467421D01*
X156397295Y-99562659D02*
X156444914Y-99515040D01*
X156540152Y-99467421D01*
X156778248Y-99467421D01*
X156873486Y-99515040D01*
X156921105Y-99562659D01*
X156968724Y-99657897D01*
X156968724Y-99753135D01*
X156921105Y-99895992D01*
X156349676Y-100467421D01*
X156968724Y-100467421D01*
M02*
