G04 #@! TF.FileFunction,Soldermask,Top*
%FSLAX46Y46*%
G04 Gerber Fmt 4.6, Leading zero omitted, Abs format (unit mm)*
G04 Created by KiCad (PCBNEW 4.0.7-e2-6376~58~ubuntu16.04.1) date Fri Apr  6 19:10:20 2018*
%MOMM*%
%LPD*%
G01*
G04 APERTURE LIST*
%ADD10C,0.100000*%
%ADD11R,1.100000X1.700000*%
%ADD12C,1.797000*%
%ADD13C,2.381000*%
%ADD14R,1.700000X1.100000*%
%ADD15R,1.300000X1.200000*%
%ADD16R,1.400000X1.650000*%
%ADD17C,2.200000*%
%ADD18R,2.900000X1.300000*%
%ADD19R,2.559000X2.178000*%
%ADD20R,1.600000X1.600000*%
%ADD21C,1.700000*%
%ADD22C,2.400000*%
%ADD23R,1.460000X1.050000*%
%ADD24R,0.750000X2.000000*%
G04 APERTURE END LIST*
D10*
D11*
X151127500Y-92824300D03*
X149227500Y-92824300D03*
D12*
X166870260Y-96019620D03*
X163370260Y-96019620D03*
D13*
X165120260Y-98249620D03*
D14*
X150898860Y-107332740D03*
X150898860Y-109232740D03*
X150771860Y-104584540D03*
X150771860Y-102684540D03*
X150807420Y-100043020D03*
X150807420Y-98143020D03*
D11*
X154795260Y-106641900D03*
X152895260Y-106641900D03*
D14*
X158940500Y-92636300D03*
X158940500Y-94536300D03*
D15*
X162391380Y-101180860D03*
X162391380Y-103080860D03*
X164491380Y-102130860D03*
D16*
X149306280Y-114741960D03*
X147306280Y-114741960D03*
D17*
X157416500Y-113317020D03*
X167576500Y-113317020D03*
X175196500Y-113317020D03*
X157416500Y-105697020D03*
D18*
X147835620Y-106568580D03*
X147835620Y-109468580D03*
D19*
X147980400Y-99098100D03*
X147980400Y-103162100D03*
D20*
X154348180Y-109087460D03*
X154348180Y-111887460D03*
D15*
X157240260Y-101241820D03*
X157240260Y-103141820D03*
X159340260Y-102191820D03*
D11*
X153344920Y-114170460D03*
X151444920Y-114170460D03*
X151127500Y-95364300D03*
X149227500Y-95364300D03*
D20*
X158663640Y-97121800D03*
X158663640Y-99321800D03*
X149397900Y-112448340D03*
X147197900Y-112448340D03*
D12*
X162463120Y-120462040D03*
X165963120Y-120462040D03*
D13*
X164213120Y-118232040D03*
D12*
X158963120Y-120462040D03*
X155463120Y-120462040D03*
X151963120Y-120462040D03*
D21*
X141945360Y-104749600D03*
X141945360Y-102209600D03*
X144485360Y-103479600D03*
X144485360Y-106019600D03*
D22*
X143445360Y-100809600D03*
D16*
X144007080Y-110271560D03*
X142007080Y-110271560D03*
D23*
X155272920Y-103433920D03*
X155272920Y-102483920D03*
X155272920Y-101533920D03*
X153072920Y-101533920D03*
X153072920Y-103433920D03*
D24*
X152604040Y-98258280D03*
X153254040Y-98258280D03*
X153904040Y-98258280D03*
X154554040Y-98258280D03*
X155204040Y-98258280D03*
X155854040Y-98258280D03*
X156504040Y-98258280D03*
X157154040Y-98258280D03*
X157154040Y-92658280D03*
X156504040Y-92658280D03*
X155854040Y-92658280D03*
X155204040Y-92658280D03*
X154554040Y-92658280D03*
X153904040Y-92658280D03*
X153254040Y-92658280D03*
X152604040Y-92658280D03*
M02*
