G04 #@! TF.FileFunction,Soldermask,Top*
%FSLAX46Y46*%
G04 Gerber Fmt 4.6, Leading zero omitted, Abs format (unit mm)*
G04 Created by KiCad (PCBNEW 4.0.7-e2-6376~58~ubuntu16.04.1) date Tue Nov 21 15:05:01 2017*
%MOMM*%
%LPD*%
G01*
G04 APERTURE LIST*
%ADD10C,0.100000*%
%ADD11R,1.600000X1.600000*%
%ADD12R,2.100000X2.100000*%
%ADD13O,2.100000X2.100000*%
%ADD14R,1.400000X1.650000*%
%ADD15R,1.300000X1.200000*%
%ADD16R,1.100000X1.700000*%
%ADD17R,1.700000X1.100000*%
G04 APERTURE END LIST*
D10*
D11*
X114046000Y-143850000D03*
X114046000Y-146050000D03*
D10*
G36*
X115967281Y-137222338D02*
X114800555Y-136055612D01*
X115790505Y-135065662D01*
X116957231Y-136232388D01*
X115967281Y-137222338D01*
X115967281Y-137222338D01*
G37*
G36*
X117381495Y-135808124D02*
X116214769Y-134641398D01*
X117204719Y-133651448D01*
X118371445Y-134818174D01*
X117381495Y-135808124D01*
X117381495Y-135808124D01*
G37*
G36*
X114101266Y-135390003D02*
X113655789Y-135835480D01*
X112984038Y-135163729D01*
X113429515Y-134718252D01*
X114101266Y-135390003D01*
X114101266Y-135390003D01*
G37*
G36*
X114454820Y-135036450D02*
X114009343Y-135481927D01*
X113337592Y-134810176D01*
X113783069Y-134364699D01*
X114454820Y-135036450D01*
X114454820Y-135036450D01*
G37*
G36*
X114808373Y-134682896D02*
X114362896Y-135128373D01*
X113691145Y-134456622D01*
X114136622Y-134011145D01*
X114808373Y-134682896D01*
X114808373Y-134682896D01*
G37*
G36*
X115161927Y-134329343D02*
X114716450Y-134774820D01*
X114044699Y-134103069D01*
X114490176Y-133657592D01*
X115161927Y-134329343D01*
X115161927Y-134329343D01*
G37*
G36*
X115515480Y-133975789D02*
X115070003Y-134421266D01*
X114398252Y-133749515D01*
X114843729Y-133304038D01*
X115515480Y-133975789D01*
X115515480Y-133975789D01*
G37*
G36*
X115515480Y-132724211D02*
X114843729Y-133395962D01*
X114398252Y-132950485D01*
X115070003Y-132278734D01*
X115515480Y-132724211D01*
X115515480Y-132724211D01*
G37*
G36*
X115161927Y-132370657D02*
X114490176Y-133042408D01*
X114044699Y-132596931D01*
X114716450Y-131925180D01*
X115161927Y-132370657D01*
X115161927Y-132370657D01*
G37*
G36*
X114808373Y-132017104D02*
X114136622Y-132688855D01*
X113691145Y-132243378D01*
X114362896Y-131571627D01*
X114808373Y-132017104D01*
X114808373Y-132017104D01*
G37*
G36*
X114454820Y-131663550D02*
X113783069Y-132335301D01*
X113337592Y-131889824D01*
X114009343Y-131218073D01*
X114454820Y-131663550D01*
X114454820Y-131663550D01*
G37*
G36*
X114101266Y-131309997D02*
X113429515Y-131981748D01*
X112984038Y-131536271D01*
X113655789Y-130864520D01*
X114101266Y-131309997D01*
X114101266Y-131309997D01*
G37*
G36*
X113075962Y-131536271D02*
X112630485Y-131981748D01*
X111958734Y-131309997D01*
X112404211Y-130864520D01*
X113075962Y-131536271D01*
X113075962Y-131536271D01*
G37*
G36*
X112722408Y-131889824D02*
X112276931Y-132335301D01*
X111605180Y-131663550D01*
X112050657Y-131218073D01*
X112722408Y-131889824D01*
X112722408Y-131889824D01*
G37*
G36*
X112368855Y-132243378D02*
X111923378Y-132688855D01*
X111251627Y-132017104D01*
X111697104Y-131571627D01*
X112368855Y-132243378D01*
X112368855Y-132243378D01*
G37*
G36*
X112015301Y-132596931D02*
X111569824Y-133042408D01*
X110898073Y-132370657D01*
X111343550Y-131925180D01*
X112015301Y-132596931D01*
X112015301Y-132596931D01*
G37*
G36*
X111661748Y-132950485D02*
X111216271Y-133395962D01*
X110544520Y-132724211D01*
X110989997Y-132278734D01*
X111661748Y-132950485D01*
X111661748Y-132950485D01*
G37*
G36*
X111661748Y-133749515D02*
X110989997Y-134421266D01*
X110544520Y-133975789D01*
X111216271Y-133304038D01*
X111661748Y-133749515D01*
X111661748Y-133749515D01*
G37*
G36*
X112015301Y-134103069D02*
X111343550Y-134774820D01*
X110898073Y-134329343D01*
X111569824Y-133657592D01*
X112015301Y-134103069D01*
X112015301Y-134103069D01*
G37*
G36*
X112368855Y-134456622D02*
X111697104Y-135128373D01*
X111251627Y-134682896D01*
X111923378Y-134011145D01*
X112368855Y-134456622D01*
X112368855Y-134456622D01*
G37*
G36*
X112722408Y-134810176D02*
X112050657Y-135481927D01*
X111605180Y-135036450D01*
X112276931Y-134364699D01*
X112722408Y-134810176D01*
X112722408Y-134810176D01*
G37*
G36*
X113075962Y-135163729D02*
X112404211Y-135835480D01*
X111958734Y-135390003D01*
X112630485Y-134718252D01*
X113075962Y-135163729D01*
X113075962Y-135163729D01*
G37*
G36*
X114833122Y-133350000D02*
X113030000Y-135153122D01*
X111226878Y-133350000D01*
X113030000Y-131546878D01*
X114833122Y-133350000D01*
X114833122Y-133350000D01*
G37*
G36*
X113620434Y-135616277D02*
X113030000Y-136206711D01*
X112439566Y-135616277D01*
X113030000Y-135025843D01*
X113620434Y-135616277D01*
X113620434Y-135616277D01*
G37*
D12*
X121920000Y-142240000D03*
D13*
X121920000Y-139700000D03*
X121920000Y-137160000D03*
X121920000Y-134620000D03*
X121920000Y-132080000D03*
X121920000Y-129540000D03*
D14*
X115300000Y-127508000D03*
X113300000Y-127508000D03*
X115300000Y-124460000D03*
X113300000Y-124460000D03*
D11*
X119126000Y-143850000D03*
X119126000Y-146050000D03*
X116586000Y-143850000D03*
X116586000Y-146050000D03*
D12*
X107950000Y-147320000D03*
D13*
X110490000Y-147320000D03*
D12*
X104140000Y-142240000D03*
D13*
X104140000Y-139700000D03*
X104140000Y-137160000D03*
X104140000Y-134620000D03*
X104140000Y-132080000D03*
X104140000Y-129540000D03*
D15*
X118126000Y-125034000D03*
X118126000Y-126934000D03*
X120126000Y-125984000D03*
D16*
X107254000Y-137160000D03*
X109154000Y-137160000D03*
X107254000Y-132080000D03*
X109154000Y-132080000D03*
X107254000Y-134620000D03*
X109154000Y-134620000D03*
D17*
X119126000Y-139705000D03*
X119126000Y-141605000D03*
X114046000Y-139705000D03*
X114046000Y-141605000D03*
X116586000Y-139705000D03*
X116586000Y-141605000D03*
M02*
