M48
;DRILL file {KiCad 4.0.7-e2-6376~58~ubuntu16.04.1} date Tue Nov 21 15:05:03 2017
;FORMAT={-:-/ absolute / inch / decimal}
FMAT,2
INCH,TZ
T1C0.012
T2C0.039
%
G90
G05
M72
T1
X4.33Y-5.4
X4.47Y-4.84
X4.5Y-5.34
X4.5197Y-5.4497
X4.65Y-5.27
X4.65Y-5.38
X4.7Y-5.46
X4.74Y-5.75
X4.78Y-4.96
T2
X4.1Y-5.1
X4.1Y-5.2
X4.1Y-5.3
X4.1Y-5.4
X4.1Y-5.5
X4.1Y-5.6
X4.25Y-5.8
X4.35Y-5.8
X4.8Y-5.1
X4.8Y-5.2
X4.8Y-5.3
X4.8Y-5.4
X4.8Y-5.5
X4.8Y-5.6
T0
M30
