G04 #@! TF.FileFunction,Copper,L1,Top,Signal*
%FSLAX46Y46*%
G04 Gerber Fmt 4.6, Leading zero omitted, Abs format (unit mm)*
G04 Created by KiCad (PCBNEW 4.0.7-e2-6376~58~ubuntu16.04.1) date Thu Nov  2 21:22:03 2017*
%MOMM*%
%LPD*%
G01*
G04 APERTURE LIST*
%ADD10C,0.100000*%
%ADD11R,1.700000X1.700000*%
%ADD12O,1.700000X1.700000*%
%ADD13R,1.000000X1.250000*%
%ADD14R,1.200000X1.200000*%
%ADD15R,0.700000X1.300000*%
%ADD16R,1.300000X0.700000*%
%ADD17R,2.235200X1.219200*%
%ADD18R,2.199640X3.599180*%
%ADD19C,0.600000*%
%ADD20C,0.250000*%
%ADD21C,0.254000*%
G04 APERTURE END LIST*
D10*
G36*
X117182388Y-136939495D02*
X116298505Y-136055612D01*
X117005612Y-135348505D01*
X117889495Y-136232388D01*
X117182388Y-136939495D01*
X117182388Y-136939495D01*
G37*
G36*
X118596602Y-135525281D02*
X117712719Y-134641398D01*
X118419826Y-133934291D01*
X119303709Y-134818174D01*
X118596602Y-135525281D01*
X118596602Y-135525281D01*
G37*
G36*
X115088424Y-135390003D02*
X114925789Y-135552638D01*
X114536880Y-135163729D01*
X114699515Y-135001094D01*
X115088424Y-135390003D01*
X115088424Y-135390003D01*
G37*
G36*
X115441978Y-135036450D02*
X115279343Y-135199085D01*
X114890434Y-134810176D01*
X115053069Y-134647541D01*
X115441978Y-135036450D01*
X115441978Y-135036450D01*
G37*
G36*
X115795531Y-134682896D02*
X115632896Y-134845531D01*
X115243987Y-134456622D01*
X115406622Y-134293987D01*
X115795531Y-134682896D01*
X115795531Y-134682896D01*
G37*
G36*
X116149085Y-134329343D02*
X115986450Y-134491978D01*
X115597541Y-134103069D01*
X115760176Y-133940434D01*
X116149085Y-134329343D01*
X116149085Y-134329343D01*
G37*
G36*
X116502638Y-133975789D02*
X116340003Y-134138424D01*
X115951094Y-133749515D01*
X116113729Y-133586880D01*
X116502638Y-133975789D01*
X116502638Y-133975789D01*
G37*
G36*
X116502638Y-132724211D02*
X116113729Y-133113120D01*
X115951094Y-132950485D01*
X116340003Y-132561576D01*
X116502638Y-132724211D01*
X116502638Y-132724211D01*
G37*
G36*
X116149085Y-132370657D02*
X115760176Y-132759566D01*
X115597541Y-132596931D01*
X115986450Y-132208022D01*
X116149085Y-132370657D01*
X116149085Y-132370657D01*
G37*
G36*
X115795531Y-132017104D02*
X115406622Y-132406013D01*
X115243987Y-132243378D01*
X115632896Y-131854469D01*
X115795531Y-132017104D01*
X115795531Y-132017104D01*
G37*
G36*
X115441978Y-131663550D02*
X115053069Y-132052459D01*
X114890434Y-131889824D01*
X115279343Y-131500915D01*
X115441978Y-131663550D01*
X115441978Y-131663550D01*
G37*
G36*
X115088424Y-131309997D02*
X114699515Y-131698906D01*
X114536880Y-131536271D01*
X114925789Y-131147362D01*
X115088424Y-131309997D01*
X115088424Y-131309997D01*
G37*
G36*
X114063120Y-131536271D02*
X113900485Y-131698906D01*
X113511576Y-131309997D01*
X113674211Y-131147362D01*
X114063120Y-131536271D01*
X114063120Y-131536271D01*
G37*
G36*
X113709566Y-131889824D02*
X113546931Y-132052459D01*
X113158022Y-131663550D01*
X113320657Y-131500915D01*
X113709566Y-131889824D01*
X113709566Y-131889824D01*
G37*
G36*
X113356013Y-132243378D02*
X113193378Y-132406013D01*
X112804469Y-132017104D01*
X112967104Y-131854469D01*
X113356013Y-132243378D01*
X113356013Y-132243378D01*
G37*
G36*
X113002459Y-132596931D02*
X112839824Y-132759566D01*
X112450915Y-132370657D01*
X112613550Y-132208022D01*
X113002459Y-132596931D01*
X113002459Y-132596931D01*
G37*
G36*
X112648906Y-132950485D02*
X112486271Y-133113120D01*
X112097362Y-132724211D01*
X112259997Y-132561576D01*
X112648906Y-132950485D01*
X112648906Y-132950485D01*
G37*
G36*
X112648906Y-133749515D02*
X112259997Y-134138424D01*
X112097362Y-133975789D01*
X112486271Y-133586880D01*
X112648906Y-133749515D01*
X112648906Y-133749515D01*
G37*
G36*
X113002459Y-134103069D02*
X112613550Y-134491978D01*
X112450915Y-134329343D01*
X112839824Y-133940434D01*
X113002459Y-134103069D01*
X113002459Y-134103069D01*
G37*
G36*
X113356013Y-134456622D02*
X112967104Y-134845531D01*
X112804469Y-134682896D01*
X113193378Y-134293987D01*
X113356013Y-134456622D01*
X113356013Y-134456622D01*
G37*
G36*
X113709566Y-134810176D02*
X113320657Y-135199085D01*
X113158022Y-135036450D01*
X113546931Y-134647541D01*
X113709566Y-134810176D01*
X113709566Y-134810176D01*
G37*
G36*
X114063120Y-135163729D02*
X113674211Y-135552638D01*
X113511576Y-135390003D01*
X113900485Y-135001094D01*
X114063120Y-135163729D01*
X114063120Y-135163729D01*
G37*
G36*
X115820280Y-133350000D02*
X114300000Y-134870280D01*
X112779720Y-133350000D01*
X114300000Y-131829720D01*
X115820280Y-133350000D01*
X115820280Y-133350000D01*
G37*
G36*
X114607591Y-135616277D02*
X114300000Y-135923868D01*
X113992409Y-135616277D01*
X114300000Y-135308686D01*
X114607591Y-135616277D01*
X114607591Y-135616277D01*
G37*
D11*
X124460000Y-143510000D03*
D12*
X124460000Y-140970000D03*
X124460000Y-138430000D03*
X124460000Y-135890000D03*
X124460000Y-133350000D03*
X124460000Y-130810000D03*
D13*
X113030000Y-125095000D03*
X111030000Y-125095000D03*
X113030000Y-127635000D03*
X111030000Y-127635000D03*
D14*
X119380000Y-143850000D03*
X119380000Y-146050000D03*
X114300000Y-143850000D03*
X114300000Y-146050000D03*
X116840000Y-143850000D03*
X116840000Y-146050000D03*
D15*
X107955000Y-137160000D03*
X109855000Y-137160000D03*
X107950000Y-132080000D03*
X109850000Y-132080000D03*
X107950000Y-134620000D03*
X109850000Y-134620000D03*
D16*
X119380000Y-139705000D03*
X119380000Y-141605000D03*
X114300000Y-139705000D03*
X114300000Y-141605000D03*
X116840000Y-139705000D03*
X116840000Y-141605000D03*
D17*
X116840000Y-124053600D03*
X116840000Y-126365000D03*
X116840000Y-128676400D03*
D18*
X123037600Y-126365000D03*
D11*
X107950000Y-147320000D03*
D12*
X110490000Y-147320000D03*
D11*
X104140000Y-143510000D03*
D12*
X104140000Y-140970000D03*
X104140000Y-138430000D03*
X104140000Y-135890000D03*
X104140000Y-133350000D03*
X104140000Y-130810000D03*
D19*
X114808000Y-138430000D03*
X115570000Y-135636000D03*
X114808000Y-125984000D03*
X111252000Y-123952000D03*
X112776000Y-145796000D03*
X119888000Y-134620000D03*
X121158000Y-143764000D03*
X117856000Y-140462000D03*
X110744000Y-137160000D03*
X120650000Y-140462000D03*
D20*
X124815600Y-124053600D02*
X125978801Y-125216801D01*
X125978801Y-125216801D02*
X125978801Y-136911199D01*
X125978801Y-136911199D02*
X125399799Y-137490201D01*
X125399799Y-137490201D02*
X124460000Y-138430000D01*
X116840000Y-124053600D02*
X124815600Y-124053600D01*
X114300000Y-139705000D02*
X114300000Y-138938000D01*
X114300000Y-138938000D02*
X114808000Y-138430000D01*
X113030000Y-125095000D02*
X113030000Y-124970000D01*
X115472400Y-124053600D02*
X116840000Y-124053600D01*
X113030000Y-124970000D02*
X113946400Y-124053600D01*
X113946400Y-124053600D02*
X115472400Y-124053600D01*
X114300000Y-133350000D02*
X114300000Y-134057107D01*
X114300000Y-134057107D02*
X115166206Y-134923313D01*
X115166206Y-134923313D02*
X115570000Y-135327107D01*
X115570000Y-135327107D02*
X115570000Y-135636000D01*
X116840000Y-126365000D02*
X115189000Y-126365000D01*
X115189000Y-126365000D02*
X114808000Y-125984000D01*
X111030000Y-125095000D02*
X111030000Y-124174000D01*
X111030000Y-124174000D02*
X111252000Y-123952000D01*
X111030000Y-127635000D02*
X111030000Y-125095000D01*
X114300000Y-146050000D02*
X113030000Y-146050000D01*
X113030000Y-146050000D02*
X112776000Y-145796000D01*
X116840000Y-146050000D02*
X115990000Y-146050000D01*
X115990000Y-146050000D02*
X114300000Y-146050000D01*
X119380000Y-146050000D02*
X118530000Y-146050000D01*
X118530000Y-146050000D02*
X116840000Y-146050000D01*
X118508214Y-134729786D02*
X119778214Y-134729786D01*
X119778214Y-134729786D02*
X119888000Y-134620000D01*
X117094000Y-136144000D02*
X117348000Y-136144000D01*
X117348000Y-136144000D02*
X118110000Y-136906000D01*
X107950000Y-132080000D02*
X106680000Y-132080000D01*
X106426000Y-134620000D02*
X107950000Y-134620000D01*
X107955000Y-137160000D02*
X106680000Y-137160000D01*
X116840000Y-139705000D02*
X117099000Y-139705000D01*
X117099000Y-139705000D02*
X117856000Y-140462000D01*
X113030000Y-127635000D02*
X113030000Y-127760000D01*
X113946400Y-128676400D02*
X115472400Y-128676400D01*
X113030000Y-127760000D02*
X113946400Y-128676400D01*
X115472400Y-128676400D02*
X116840000Y-128676400D01*
X119380000Y-141605000D02*
X119380000Y-143850000D01*
X114300000Y-141605000D02*
X114300000Y-143850000D01*
X116840000Y-141605000D02*
X116840000Y-143850000D01*
X116840000Y-137922000D02*
X119182002Y-137922000D01*
X119182002Y-137922000D02*
X123520201Y-142260199D01*
X123520201Y-142260199D02*
X123520201Y-142570201D01*
X123520201Y-142570201D02*
X124460000Y-143510000D01*
X114932601Y-136014601D02*
X116840000Y-137922000D01*
X114812652Y-135276866D02*
X114932601Y-135396815D01*
X114932601Y-135396815D02*
X114932601Y-136014601D01*
X109855000Y-137160000D02*
X110744000Y-137160000D01*
X116531107Y-134874000D02*
X117485686Y-134874000D01*
X117485686Y-134874000D02*
X118501686Y-135890000D01*
X118501686Y-135890000D02*
X123384923Y-135890000D01*
X123384923Y-135890000D02*
X124714000Y-135890000D01*
X115873313Y-134216206D02*
X116531107Y-134874000D01*
X119380000Y-139705000D02*
X119893000Y-139705000D01*
X119893000Y-139705000D02*
X120650000Y-140462000D01*
X117851348Y-133862652D02*
X118364000Y-133350000D01*
X118364000Y-133350000D02*
X124460000Y-133350000D01*
X116226866Y-133862652D02*
X117851348Y-133862652D01*
X112726687Y-132483794D02*
X111052893Y-130810000D01*
X111052893Y-130810000D02*
X104394000Y-130810000D01*
X112014000Y-139446000D02*
X108204000Y-139446000D01*
X108204000Y-139446000D02*
X104140000Y-143510000D01*
X113284000Y-138176000D02*
X112014000Y-139446000D01*
X113284000Y-135890000D02*
X113284000Y-138176000D01*
X113522184Y-135651816D02*
X113284000Y-135890000D01*
X113787348Y-135276866D02*
X113522184Y-135542030D01*
X113522184Y-135542030D02*
X113522184Y-135651816D01*
X113787348Y-135276866D02*
X113716651Y-135276866D01*
X111760000Y-138938000D02*
X106426000Y-138938000D01*
X106426000Y-138938000D02*
X104394000Y-140970000D01*
X112776000Y-137922000D02*
X111760000Y-138938000D01*
X112776000Y-135581107D02*
X112776000Y-137922000D01*
X113433794Y-134923313D02*
X112776000Y-135581107D01*
X112268000Y-137668000D02*
X111506000Y-138430000D01*
X111506000Y-138430000D02*
X104140000Y-138430000D01*
X112268000Y-135382000D02*
X112268000Y-137668000D01*
X113080241Y-134569759D02*
X112268000Y-135382000D01*
X109850000Y-134620000D02*
X109850000Y-135520000D01*
X109850000Y-135520000D02*
X109480000Y-135890000D01*
X109480000Y-135890000D02*
X105723077Y-135890000D01*
X105723077Y-135890000D02*
X104394000Y-135890000D01*
X112726687Y-134216206D02*
X112322893Y-134620000D01*
X112322893Y-134620000D02*
X109850000Y-134620000D01*
X109850000Y-132080000D02*
X109850000Y-132980000D01*
X109850000Y-132980000D02*
X109480000Y-133350000D01*
X109480000Y-133350000D02*
X105469077Y-133350000D01*
X105469077Y-133350000D02*
X104140000Y-133350000D01*
X112373134Y-133862652D02*
X111332652Y-133862652D01*
X111332652Y-133862652D02*
X109850000Y-132380000D01*
X109850000Y-132380000D02*
X109850000Y-132080000D01*
X112815077Y-131532923D02*
X113538000Y-130810000D01*
X113538000Y-130810000D02*
X124714000Y-130810000D01*
X112815077Y-131865077D02*
X112815077Y-131532923D01*
X113080241Y-132130241D02*
X112815077Y-131865077D01*
D21*
G36*
X127153600Y-148489600D02*
X111368897Y-148489600D01*
X111685183Y-148201358D01*
X111931486Y-147676892D01*
X111810819Y-147447000D01*
X110617000Y-147447000D01*
X110617000Y-147467000D01*
X110363000Y-147467000D01*
X110363000Y-147447000D01*
X110343000Y-147447000D01*
X110343000Y-147193000D01*
X110363000Y-147193000D01*
X110363000Y-145999845D01*
X110617000Y-145999845D01*
X110617000Y-147193000D01*
X111810819Y-147193000D01*
X111931486Y-146963108D01*
X111685183Y-146438642D01*
X111256924Y-146048355D01*
X110924681Y-145910744D01*
X112196500Y-145910744D01*
X112284522Y-146123775D01*
X112447368Y-146286905D01*
X112660245Y-146375299D01*
X112803116Y-146375424D01*
X112875242Y-146423617D01*
X113030000Y-146454400D01*
X113415127Y-146454400D01*
X113415127Y-146650000D01*
X113434609Y-146753539D01*
X113495801Y-146848634D01*
X113589168Y-146912429D01*
X113700000Y-146934873D01*
X114900000Y-146934873D01*
X115003539Y-146915391D01*
X115098634Y-146854199D01*
X115162429Y-146760832D01*
X115184873Y-146650000D01*
X115184873Y-146454400D01*
X115955127Y-146454400D01*
X115955127Y-146650000D01*
X115974609Y-146753539D01*
X116035801Y-146848634D01*
X116129168Y-146912429D01*
X116240000Y-146934873D01*
X117440000Y-146934873D01*
X117543539Y-146915391D01*
X117638634Y-146854199D01*
X117702429Y-146760832D01*
X117724873Y-146650000D01*
X117724873Y-146454400D01*
X118495127Y-146454400D01*
X118495127Y-146650000D01*
X118514609Y-146753539D01*
X118575801Y-146848634D01*
X118669168Y-146912429D01*
X118780000Y-146934873D01*
X119980000Y-146934873D01*
X120083539Y-146915391D01*
X120178634Y-146854199D01*
X120242429Y-146760832D01*
X120264873Y-146650000D01*
X120264873Y-145450000D01*
X120245391Y-145346461D01*
X120184199Y-145251366D01*
X120090832Y-145187571D01*
X119980000Y-145165127D01*
X118780000Y-145165127D01*
X118676461Y-145184609D01*
X118581366Y-145245801D01*
X118517571Y-145339168D01*
X118495127Y-145450000D01*
X118495127Y-145645600D01*
X117724873Y-145645600D01*
X117724873Y-145450000D01*
X117705391Y-145346461D01*
X117644199Y-145251366D01*
X117550832Y-145187571D01*
X117440000Y-145165127D01*
X116240000Y-145165127D01*
X116136461Y-145184609D01*
X116041366Y-145245801D01*
X115977571Y-145339168D01*
X115955127Y-145450000D01*
X115955127Y-145645600D01*
X115184873Y-145645600D01*
X115184873Y-145450000D01*
X115165391Y-145346461D01*
X115104199Y-145251366D01*
X115010832Y-145187571D01*
X114900000Y-145165127D01*
X113700000Y-145165127D01*
X113596461Y-145184609D01*
X113501366Y-145245801D01*
X113437571Y-145339168D01*
X113415127Y-145450000D01*
X113415127Y-145645600D01*
X113340767Y-145645600D01*
X113267478Y-145468225D01*
X113104632Y-145305095D01*
X112891755Y-145216701D01*
X112661256Y-145216500D01*
X112448225Y-145304522D01*
X112285095Y-145467368D01*
X112196701Y-145680245D01*
X112196500Y-145910744D01*
X110924681Y-145910744D01*
X110846890Y-145878524D01*
X110617000Y-145999845D01*
X110363000Y-145999845D01*
X110133110Y-145878524D01*
X109723076Y-146048355D01*
X109294817Y-146438642D01*
X109084873Y-146885687D01*
X109084873Y-146470000D01*
X109065391Y-146366461D01*
X109004199Y-146271366D01*
X108910832Y-146207571D01*
X108800000Y-146185127D01*
X107100000Y-146185127D01*
X106996461Y-146204609D01*
X106901366Y-146265801D01*
X106837571Y-146359168D01*
X106815127Y-146470000D01*
X106815127Y-148170000D01*
X106834609Y-148273539D01*
X106895801Y-148368634D01*
X106989168Y-148432429D01*
X107100000Y-148454873D01*
X108800000Y-148454873D01*
X108903539Y-148435391D01*
X108998634Y-148374199D01*
X109062429Y-148280832D01*
X109084873Y-148170000D01*
X109084873Y-147754313D01*
X109294817Y-148201358D01*
X109611103Y-148489600D01*
X101954400Y-148489600D01*
X101954400Y-130810000D01*
X102988474Y-130810000D01*
X103074444Y-131242203D01*
X103319268Y-131608606D01*
X103685671Y-131853430D01*
X104117874Y-131939400D01*
X104162126Y-131939400D01*
X104594329Y-131853430D01*
X104960732Y-131608606D01*
X105205556Y-131242203D01*
X105211086Y-131214400D01*
X107001985Y-131214400D01*
X106965000Y-131303690D01*
X106965000Y-131794250D01*
X107123750Y-131953000D01*
X107823000Y-131953000D01*
X107823000Y-131933000D01*
X108077000Y-131933000D01*
X108077000Y-131953000D01*
X108776250Y-131953000D01*
X108935000Y-131794250D01*
X108935000Y-131303690D01*
X108898015Y-131214400D01*
X109319084Y-131214400D01*
X109301366Y-131225801D01*
X109237571Y-131319168D01*
X109215127Y-131430000D01*
X109215127Y-132730000D01*
X109234609Y-132833539D01*
X109295801Y-132928634D01*
X109315796Y-132942296D01*
X109312492Y-132945600D01*
X108898015Y-132945600D01*
X108935000Y-132856310D01*
X108935000Y-132365750D01*
X108776250Y-132207000D01*
X108077000Y-132207000D01*
X108077000Y-132227000D01*
X107823000Y-132227000D01*
X107823000Y-132207000D01*
X107123750Y-132207000D01*
X106965000Y-132365750D01*
X106965000Y-132856310D01*
X107001985Y-132945600D01*
X105211086Y-132945600D01*
X105205556Y-132917797D01*
X104960732Y-132551394D01*
X104594329Y-132306570D01*
X104162126Y-132220600D01*
X104117874Y-132220600D01*
X103685671Y-132306570D01*
X103319268Y-132551394D01*
X103074444Y-132917797D01*
X102988474Y-133350000D01*
X103074444Y-133782203D01*
X103319268Y-134148606D01*
X103685671Y-134393430D01*
X104117874Y-134479400D01*
X104162126Y-134479400D01*
X104594329Y-134393430D01*
X104960732Y-134148606D01*
X105205556Y-133782203D01*
X105211086Y-133754400D01*
X107001985Y-133754400D01*
X106965000Y-133843690D01*
X106965000Y-134334250D01*
X107123750Y-134493000D01*
X107823000Y-134493000D01*
X107823000Y-134473000D01*
X108077000Y-134473000D01*
X108077000Y-134493000D01*
X108776250Y-134493000D01*
X108935000Y-134334250D01*
X108935000Y-133843690D01*
X108898015Y-133754400D01*
X109319084Y-133754400D01*
X109301366Y-133765801D01*
X109237571Y-133859168D01*
X109215127Y-133970000D01*
X109215127Y-135270000D01*
X109234609Y-135373539D01*
X109295801Y-135468634D01*
X109315796Y-135482296D01*
X109312492Y-135485600D01*
X108898015Y-135485600D01*
X108935000Y-135396310D01*
X108935000Y-134905750D01*
X108776250Y-134747000D01*
X108077000Y-134747000D01*
X108077000Y-134767000D01*
X107823000Y-134767000D01*
X107823000Y-134747000D01*
X107123750Y-134747000D01*
X106965000Y-134905750D01*
X106965000Y-135396310D01*
X107001985Y-135485600D01*
X105211086Y-135485600D01*
X105205556Y-135457797D01*
X104960732Y-135091394D01*
X104594329Y-134846570D01*
X104162126Y-134760600D01*
X104117874Y-134760600D01*
X103685671Y-134846570D01*
X103319268Y-135091394D01*
X103074444Y-135457797D01*
X102988474Y-135890000D01*
X103074444Y-136322203D01*
X103319268Y-136688606D01*
X103685671Y-136933430D01*
X104117874Y-137019400D01*
X104162126Y-137019400D01*
X104594329Y-136933430D01*
X104960732Y-136688606D01*
X105205556Y-136322203D01*
X105211086Y-136294400D01*
X107006985Y-136294400D01*
X106970000Y-136383690D01*
X106970000Y-136874250D01*
X107128750Y-137033000D01*
X107828000Y-137033000D01*
X107828000Y-137013000D01*
X108082000Y-137013000D01*
X108082000Y-137033000D01*
X108781250Y-137033000D01*
X108940000Y-136874250D01*
X108940000Y-136383690D01*
X108903015Y-136294400D01*
X109324084Y-136294400D01*
X109306366Y-136305801D01*
X109242571Y-136399168D01*
X109220127Y-136510000D01*
X109220127Y-137810000D01*
X109239609Y-137913539D01*
X109300801Y-138008634D01*
X109325632Y-138025600D01*
X108903015Y-138025600D01*
X108940000Y-137936310D01*
X108940000Y-137445750D01*
X108781250Y-137287000D01*
X108082000Y-137287000D01*
X108082000Y-137307000D01*
X107828000Y-137307000D01*
X107828000Y-137287000D01*
X107128750Y-137287000D01*
X106970000Y-137445750D01*
X106970000Y-137936310D01*
X107006985Y-138025600D01*
X105211086Y-138025600D01*
X105205556Y-137997797D01*
X104960732Y-137631394D01*
X104594329Y-137386570D01*
X104162126Y-137300600D01*
X104117874Y-137300600D01*
X103685671Y-137386570D01*
X103319268Y-137631394D01*
X103074444Y-137997797D01*
X102988474Y-138430000D01*
X103074444Y-138862203D01*
X103319268Y-139228606D01*
X103685671Y-139473430D01*
X104117874Y-139559400D01*
X104162126Y-139559400D01*
X104594329Y-139473430D01*
X104960732Y-139228606D01*
X105205556Y-138862203D01*
X105211086Y-138834400D01*
X105957692Y-138834400D01*
X104756897Y-140035195D01*
X104594329Y-139926570D01*
X104162126Y-139840600D01*
X104117874Y-139840600D01*
X103685671Y-139926570D01*
X103319268Y-140171394D01*
X103074444Y-140537797D01*
X102988474Y-140970000D01*
X103074444Y-141402203D01*
X103319268Y-141768606D01*
X103685671Y-142013430D01*
X104117874Y-142099400D01*
X104162126Y-142099400D01*
X104594329Y-142013430D01*
X104960732Y-141768606D01*
X105205556Y-141402203D01*
X105291526Y-140970000D01*
X105237503Y-140698405D01*
X106593508Y-139342400D01*
X107735692Y-139342400D01*
X104702965Y-142375127D01*
X103290000Y-142375127D01*
X103186461Y-142394609D01*
X103091366Y-142455801D01*
X103027571Y-142549168D01*
X103005127Y-142660000D01*
X103005127Y-144360000D01*
X103024609Y-144463539D01*
X103085801Y-144558634D01*
X103179168Y-144622429D01*
X103290000Y-144644873D01*
X104990000Y-144644873D01*
X105093539Y-144625391D01*
X105188634Y-144564199D01*
X105252429Y-144470832D01*
X105274873Y-144360000D01*
X105274873Y-142947035D01*
X106966908Y-141255000D01*
X113365127Y-141255000D01*
X113365127Y-141955000D01*
X113384609Y-142058539D01*
X113445801Y-142153634D01*
X113539168Y-142217429D01*
X113650000Y-142239873D01*
X113895600Y-142239873D01*
X113895600Y-142965127D01*
X113700000Y-142965127D01*
X113596461Y-142984609D01*
X113501366Y-143045801D01*
X113437571Y-143139168D01*
X113415127Y-143250000D01*
X113415127Y-144450000D01*
X113434609Y-144553539D01*
X113495801Y-144648634D01*
X113589168Y-144712429D01*
X113700000Y-144734873D01*
X114900000Y-144734873D01*
X115003539Y-144715391D01*
X115098634Y-144654199D01*
X115162429Y-144560832D01*
X115184873Y-144450000D01*
X115184873Y-143250000D01*
X115165391Y-143146461D01*
X115104199Y-143051366D01*
X115010832Y-142987571D01*
X114900000Y-142965127D01*
X114704400Y-142965127D01*
X114704400Y-142239873D01*
X114950000Y-142239873D01*
X115053539Y-142220391D01*
X115148634Y-142159199D01*
X115212429Y-142065832D01*
X115234873Y-141955000D01*
X115234873Y-141255000D01*
X115905127Y-141255000D01*
X115905127Y-141955000D01*
X115924609Y-142058539D01*
X115985801Y-142153634D01*
X116079168Y-142217429D01*
X116190000Y-142239873D01*
X116435600Y-142239873D01*
X116435600Y-142965127D01*
X116240000Y-142965127D01*
X116136461Y-142984609D01*
X116041366Y-143045801D01*
X115977571Y-143139168D01*
X115955127Y-143250000D01*
X115955127Y-144450000D01*
X115974609Y-144553539D01*
X116035801Y-144648634D01*
X116129168Y-144712429D01*
X116240000Y-144734873D01*
X117440000Y-144734873D01*
X117543539Y-144715391D01*
X117638634Y-144654199D01*
X117702429Y-144560832D01*
X117724873Y-144450000D01*
X117724873Y-143250000D01*
X117705391Y-143146461D01*
X117644199Y-143051366D01*
X117550832Y-142987571D01*
X117440000Y-142965127D01*
X117244400Y-142965127D01*
X117244400Y-142239873D01*
X117490000Y-142239873D01*
X117593539Y-142220391D01*
X117688634Y-142159199D01*
X117752429Y-142065832D01*
X117774873Y-141955000D01*
X117774873Y-141255000D01*
X118445127Y-141255000D01*
X118445127Y-141955000D01*
X118464609Y-142058539D01*
X118525801Y-142153634D01*
X118619168Y-142217429D01*
X118730000Y-142239873D01*
X118975600Y-142239873D01*
X118975600Y-142965127D01*
X118780000Y-142965127D01*
X118676461Y-142984609D01*
X118581366Y-143045801D01*
X118517571Y-143139168D01*
X118495127Y-143250000D01*
X118495127Y-144450000D01*
X118514609Y-144553539D01*
X118575801Y-144648634D01*
X118669168Y-144712429D01*
X118780000Y-144734873D01*
X119980000Y-144734873D01*
X120083539Y-144715391D01*
X120178634Y-144654199D01*
X120242429Y-144560832D01*
X120264873Y-144450000D01*
X120264873Y-143250000D01*
X120245391Y-143146461D01*
X120184199Y-143051366D01*
X120090832Y-142987571D01*
X119980000Y-142965127D01*
X119784400Y-142965127D01*
X119784400Y-142239873D01*
X120030000Y-142239873D01*
X120133539Y-142220391D01*
X120228634Y-142159199D01*
X120292429Y-142065832D01*
X120314873Y-141955000D01*
X120314873Y-141255000D01*
X120295391Y-141151461D01*
X120234199Y-141056366D01*
X120140832Y-140992571D01*
X120030000Y-140970127D01*
X118730000Y-140970127D01*
X118626461Y-140989609D01*
X118531366Y-141050801D01*
X118467571Y-141144168D01*
X118445127Y-141255000D01*
X117774873Y-141255000D01*
X117755391Y-141151461D01*
X117694199Y-141056366D01*
X117600832Y-140992571D01*
X117490000Y-140970127D01*
X116190000Y-140970127D01*
X116086461Y-140989609D01*
X115991366Y-141050801D01*
X115927571Y-141144168D01*
X115905127Y-141255000D01*
X115234873Y-141255000D01*
X115215391Y-141151461D01*
X115154199Y-141056366D01*
X115060832Y-140992571D01*
X114950000Y-140970127D01*
X113650000Y-140970127D01*
X113546461Y-140989609D01*
X113451366Y-141050801D01*
X113387571Y-141144168D01*
X113365127Y-141255000D01*
X106966908Y-141255000D01*
X108371508Y-139850400D01*
X112014000Y-139850400D01*
X112168757Y-139819617D01*
X112299954Y-139731954D01*
X112676908Y-139355000D01*
X113365127Y-139355000D01*
X113365127Y-140055000D01*
X113384609Y-140158539D01*
X113445801Y-140253634D01*
X113539168Y-140317429D01*
X113650000Y-140339873D01*
X114950000Y-140339873D01*
X115053539Y-140320391D01*
X115148634Y-140259199D01*
X115212429Y-140165832D01*
X115234873Y-140055000D01*
X115234873Y-139990750D01*
X115555000Y-139990750D01*
X115555000Y-140181309D01*
X115651673Y-140414698D01*
X115830301Y-140593327D01*
X116063690Y-140690000D01*
X116554250Y-140690000D01*
X116713000Y-140531250D01*
X116713000Y-139832000D01*
X116967000Y-139832000D01*
X116967000Y-140531250D01*
X117125750Y-140690000D01*
X117616310Y-140690000D01*
X117849699Y-140593327D01*
X118028327Y-140414698D01*
X118125000Y-140181309D01*
X118125000Y-139990750D01*
X117966250Y-139832000D01*
X116967000Y-139832000D01*
X116713000Y-139832000D01*
X115713750Y-139832000D01*
X115555000Y-139990750D01*
X115234873Y-139990750D01*
X115234873Y-139355000D01*
X115215391Y-139251461D01*
X115200739Y-139228691D01*
X115555000Y-139228691D01*
X115555000Y-139419250D01*
X115713750Y-139578000D01*
X116713000Y-139578000D01*
X116713000Y-138878750D01*
X116967000Y-138878750D01*
X116967000Y-139578000D01*
X117966250Y-139578000D01*
X118125000Y-139419250D01*
X118125000Y-139228691D01*
X118028327Y-138995302D01*
X117849699Y-138816673D01*
X117616310Y-138720000D01*
X117125750Y-138720000D01*
X116967000Y-138878750D01*
X116713000Y-138878750D01*
X116554250Y-138720000D01*
X116063690Y-138720000D01*
X115830301Y-138816673D01*
X115651673Y-138995302D01*
X115555000Y-139228691D01*
X115200739Y-139228691D01*
X115154199Y-139156366D01*
X115060832Y-139092571D01*
X114950000Y-139070127D01*
X114739781Y-139070127D01*
X114800515Y-139009393D01*
X114922744Y-139009500D01*
X115135775Y-138921478D01*
X115298905Y-138758632D01*
X115387299Y-138545755D01*
X115387500Y-138315256D01*
X115299478Y-138102225D01*
X115136632Y-137939095D01*
X114923755Y-137850701D01*
X114693256Y-137850500D01*
X114480225Y-137938522D01*
X114317095Y-138101368D01*
X114228701Y-138314245D01*
X114228594Y-138437498D01*
X114014046Y-138652046D01*
X113926383Y-138783243D01*
X113895600Y-138938000D01*
X113895600Y-139070127D01*
X113650000Y-139070127D01*
X113546461Y-139089609D01*
X113451366Y-139150801D01*
X113387571Y-139244168D01*
X113365127Y-139355000D01*
X112676908Y-139355000D01*
X113569954Y-138461954D01*
X113657617Y-138330758D01*
X113688400Y-138176000D01*
X113688400Y-136057508D01*
X113808138Y-135937770D01*
X113849351Y-135876091D01*
X114098564Y-136125304D01*
X114185554Y-136184741D01*
X114296065Y-136208714D01*
X114407196Y-136187803D01*
X114501436Y-136125304D01*
X114542127Y-136084613D01*
X114558984Y-136169358D01*
X114646647Y-136300555D01*
X116554046Y-138207954D01*
X116685243Y-138295617D01*
X116840000Y-138326400D01*
X119014494Y-138326400D01*
X119758221Y-139070127D01*
X118730000Y-139070127D01*
X118626461Y-139089609D01*
X118531366Y-139150801D01*
X118467571Y-139244168D01*
X118445127Y-139355000D01*
X118445127Y-140055000D01*
X118464609Y-140158539D01*
X118525801Y-140253634D01*
X118619168Y-140317429D01*
X118730000Y-140339873D01*
X119955965Y-140339873D01*
X120070607Y-140454515D01*
X120070500Y-140576744D01*
X120158522Y-140789775D01*
X120321368Y-140952905D01*
X120534245Y-141041299D01*
X120764744Y-141041500D01*
X120977775Y-140953478D01*
X121140905Y-140790632D01*
X121229299Y-140577755D01*
X121229331Y-140541237D01*
X123115801Y-142427707D01*
X123115801Y-142570201D01*
X123146584Y-142724958D01*
X123234247Y-142856155D01*
X123325127Y-142947035D01*
X123325127Y-144360000D01*
X123344609Y-144463539D01*
X123405801Y-144558634D01*
X123499168Y-144622429D01*
X123610000Y-144644873D01*
X125310000Y-144644873D01*
X125413539Y-144625391D01*
X125508634Y-144564199D01*
X125572429Y-144470832D01*
X125594873Y-144360000D01*
X125594873Y-142660000D01*
X125575391Y-142556461D01*
X125514199Y-142461366D01*
X125420832Y-142397571D01*
X125310000Y-142375127D01*
X123924601Y-142375127D01*
X123924601Y-142260199D01*
X123893818Y-142105442D01*
X123806155Y-141974245D01*
X122801910Y-140970000D01*
X123308474Y-140970000D01*
X123394444Y-141402203D01*
X123639268Y-141768606D01*
X124005671Y-142013430D01*
X124437874Y-142099400D01*
X124482126Y-142099400D01*
X124914329Y-142013430D01*
X125280732Y-141768606D01*
X125525556Y-141402203D01*
X125611526Y-140970000D01*
X125525556Y-140537797D01*
X125280732Y-140171394D01*
X124914329Y-139926570D01*
X124482126Y-139840600D01*
X124437874Y-139840600D01*
X124005671Y-139926570D01*
X123639268Y-140171394D01*
X123394444Y-140537797D01*
X123308474Y-140970000D01*
X122801910Y-140970000D01*
X119467956Y-137636046D01*
X119336759Y-137548383D01*
X119182002Y-137517600D01*
X117446055Y-137517600D01*
X117542087Y-137477822D01*
X117782899Y-137237010D01*
X117782899Y-137012504D01*
X117094000Y-136323605D01*
X117079858Y-136337748D01*
X116900252Y-136158142D01*
X116914395Y-136144000D01*
X116225496Y-135455101D01*
X116122166Y-135455101D01*
X116063451Y-135313001D01*
X116061478Y-135308225D01*
X116010314Y-135256972D01*
X116010314Y-135141632D01*
X115568903Y-134700220D01*
X115541962Y-134727161D01*
X115362357Y-134547556D01*
X115389298Y-134520615D01*
X115375155Y-134506473D01*
X115456473Y-134425155D01*
X115470615Y-134439298D01*
X115500757Y-134409157D01*
X115574470Y-134482870D01*
X115587359Y-134502160D01*
X115677161Y-134591962D01*
X115650220Y-134618903D01*
X116091632Y-135060314D01*
X116145513Y-135060314D01*
X116245153Y-135159954D01*
X116376349Y-135247617D01*
X116405101Y-135253336D01*
X116405101Y-135275496D01*
X117094000Y-135964395D01*
X117108142Y-135950252D01*
X117287748Y-136129858D01*
X117273605Y-136144000D01*
X117962504Y-136832899D01*
X118187010Y-136832899D01*
X118427822Y-136592087D01*
X118524495Y-136358698D01*
X118524495Y-136294400D01*
X123388914Y-136294400D01*
X123394444Y-136322203D01*
X123639268Y-136688606D01*
X124005671Y-136933430D01*
X124437874Y-137019400D01*
X124482126Y-137019400D01*
X124914329Y-136933430D01*
X125280732Y-136688606D01*
X125525556Y-136322203D01*
X125574401Y-136076641D01*
X125574401Y-136743691D01*
X124924635Y-137393457D01*
X124914329Y-137386570D01*
X124482126Y-137300600D01*
X124437874Y-137300600D01*
X124005671Y-137386570D01*
X123639268Y-137631394D01*
X123394444Y-137997797D01*
X123308474Y-138430000D01*
X123394444Y-138862203D01*
X123639268Y-139228606D01*
X124005671Y-139473430D01*
X124437874Y-139559400D01*
X124482126Y-139559400D01*
X124914329Y-139473430D01*
X125280732Y-139228606D01*
X125525556Y-138862203D01*
X125611526Y-138430000D01*
X125525556Y-137997797D01*
X125500945Y-137960963D01*
X126264755Y-137197153D01*
X126352417Y-137065957D01*
X126352418Y-137065956D01*
X126383201Y-136911199D01*
X126383201Y-125216801D01*
X126352418Y-125062044D01*
X126264755Y-124930847D01*
X125101554Y-123767646D01*
X124970357Y-123679983D01*
X124815600Y-123649200D01*
X118242473Y-123649200D01*
X118242473Y-123444000D01*
X118222991Y-123340461D01*
X118161799Y-123245366D01*
X118068432Y-123181571D01*
X117957600Y-123159127D01*
X115722400Y-123159127D01*
X115618861Y-123178609D01*
X115523766Y-123239801D01*
X115459971Y-123333168D01*
X115437527Y-123444000D01*
X115437527Y-123649200D01*
X113946400Y-123649200D01*
X113791642Y-123679983D01*
X113660446Y-123767646D01*
X113242965Y-124185127D01*
X112530000Y-124185127D01*
X112426461Y-124204609D01*
X112331366Y-124265801D01*
X112267571Y-124359168D01*
X112245127Y-124470000D01*
X112245127Y-125720000D01*
X112264609Y-125823539D01*
X112325801Y-125918634D01*
X112419168Y-125982429D01*
X112530000Y-126004873D01*
X113530000Y-126004873D01*
X113633539Y-125985391D01*
X113728634Y-125924199D01*
X113792429Y-125830832D01*
X113814873Y-125720000D01*
X113814873Y-124757035D01*
X114113908Y-124458000D01*
X115437527Y-124458000D01*
X115437527Y-124663200D01*
X115457009Y-124766739D01*
X115518201Y-124861834D01*
X115611568Y-124925629D01*
X115722400Y-124948073D01*
X117957600Y-124948073D01*
X118061139Y-124928591D01*
X118156234Y-124867399D01*
X118220029Y-124774032D01*
X118242473Y-124663200D01*
X118242473Y-124458000D01*
X121674658Y-124458000D01*
X121652907Y-124565410D01*
X121652907Y-128164590D01*
X121672389Y-128268129D01*
X121733581Y-128363224D01*
X121826948Y-128427019D01*
X121937780Y-128449463D01*
X124137420Y-128449463D01*
X124240959Y-128429981D01*
X124336054Y-128368789D01*
X124399849Y-128275422D01*
X124422293Y-128164590D01*
X124422293Y-124565410D01*
X124402811Y-124461871D01*
X124400320Y-124458000D01*
X124648092Y-124458000D01*
X125574401Y-125384309D01*
X125574401Y-130623359D01*
X125525556Y-130377797D01*
X125280732Y-130011394D01*
X124914329Y-129766570D01*
X124482126Y-129680600D01*
X124437874Y-129680600D01*
X124005671Y-129766570D01*
X123639268Y-130011394D01*
X123394444Y-130377797D01*
X123388914Y-130405600D01*
X113538000Y-130405600D01*
X113383243Y-130436383D01*
X113252046Y-130524046D01*
X112529123Y-131246969D01*
X112441460Y-131378166D01*
X112410677Y-131532923D01*
X112410677Y-131595876D01*
X111338847Y-130524046D01*
X111207650Y-130436383D01*
X111052893Y-130405600D01*
X105211086Y-130405600D01*
X105205556Y-130377797D01*
X104960732Y-130011394D01*
X104594329Y-129766570D01*
X104162126Y-129680600D01*
X104117874Y-129680600D01*
X103685671Y-129766570D01*
X103319268Y-130011394D01*
X103074444Y-130377797D01*
X102988474Y-130810000D01*
X101954400Y-130810000D01*
X101954400Y-128962150D01*
X115087400Y-128962150D01*
X115087400Y-129412309D01*
X115184073Y-129645698D01*
X115362701Y-129824327D01*
X115596090Y-129921000D01*
X116554250Y-129921000D01*
X116713000Y-129762250D01*
X116713000Y-128803400D01*
X116967000Y-128803400D01*
X116967000Y-129762250D01*
X117125750Y-129921000D01*
X118083910Y-129921000D01*
X118317299Y-129824327D01*
X118495927Y-129645698D01*
X118592600Y-129412309D01*
X118592600Y-128962150D01*
X118433850Y-128803400D01*
X116967000Y-128803400D01*
X116713000Y-128803400D01*
X115246150Y-128803400D01*
X115087400Y-128962150D01*
X101954400Y-128962150D01*
X101954400Y-124470000D01*
X110245127Y-124470000D01*
X110245127Y-125720000D01*
X110264609Y-125823539D01*
X110325801Y-125918634D01*
X110419168Y-125982429D01*
X110530000Y-126004873D01*
X110625600Y-126004873D01*
X110625600Y-126725127D01*
X110530000Y-126725127D01*
X110426461Y-126744609D01*
X110331366Y-126805801D01*
X110267571Y-126899168D01*
X110245127Y-127010000D01*
X110245127Y-128260000D01*
X110264609Y-128363539D01*
X110325801Y-128458634D01*
X110419168Y-128522429D01*
X110530000Y-128544873D01*
X111530000Y-128544873D01*
X111633539Y-128525391D01*
X111728634Y-128464199D01*
X111792429Y-128370832D01*
X111814873Y-128260000D01*
X111814873Y-127920750D01*
X111895000Y-127920750D01*
X111895000Y-128386310D01*
X111991673Y-128619699D01*
X112170302Y-128798327D01*
X112403691Y-128895000D01*
X112744250Y-128895000D01*
X112903000Y-128736250D01*
X112903000Y-127762000D01*
X113157000Y-127762000D01*
X113157000Y-128736250D01*
X113315750Y-128895000D01*
X113656309Y-128895000D01*
X113889698Y-128798327D01*
X114068327Y-128619699D01*
X114165000Y-128386310D01*
X114165000Y-127940491D01*
X115087400Y-127940491D01*
X115087400Y-128390650D01*
X115246150Y-128549400D01*
X116713000Y-128549400D01*
X116713000Y-127590550D01*
X116967000Y-127590550D01*
X116967000Y-128549400D01*
X118433850Y-128549400D01*
X118592600Y-128390650D01*
X118592600Y-127940491D01*
X118495927Y-127707102D01*
X118317299Y-127528473D01*
X118083910Y-127431800D01*
X117125750Y-127431800D01*
X116967000Y-127590550D01*
X116713000Y-127590550D01*
X116554250Y-127431800D01*
X115596090Y-127431800D01*
X115362701Y-127528473D01*
X115184073Y-127707102D01*
X115087400Y-127940491D01*
X114165000Y-127940491D01*
X114165000Y-127920750D01*
X114006250Y-127762000D01*
X113157000Y-127762000D01*
X112903000Y-127762000D01*
X112053750Y-127762000D01*
X111895000Y-127920750D01*
X111814873Y-127920750D01*
X111814873Y-127010000D01*
X111795391Y-126906461D01*
X111780739Y-126883690D01*
X111895000Y-126883690D01*
X111895000Y-127349250D01*
X112053750Y-127508000D01*
X112903000Y-127508000D01*
X112903000Y-126533750D01*
X113157000Y-126533750D01*
X113157000Y-127508000D01*
X114006250Y-127508000D01*
X114165000Y-127349250D01*
X114165000Y-126883690D01*
X114068327Y-126650301D01*
X113889698Y-126471673D01*
X113656309Y-126375000D01*
X113315750Y-126375000D01*
X113157000Y-126533750D01*
X112903000Y-126533750D01*
X112744250Y-126375000D01*
X112403691Y-126375000D01*
X112170302Y-126471673D01*
X111991673Y-126650301D01*
X111895000Y-126883690D01*
X111780739Y-126883690D01*
X111734199Y-126811366D01*
X111640832Y-126747571D01*
X111530000Y-126725127D01*
X111434400Y-126725127D01*
X111434400Y-126098744D01*
X114228500Y-126098744D01*
X114316522Y-126311775D01*
X114479368Y-126474905D01*
X114692245Y-126563299D01*
X114815498Y-126563406D01*
X114903046Y-126650954D01*
X115034242Y-126738617D01*
X115189000Y-126769400D01*
X115437527Y-126769400D01*
X115437527Y-126974600D01*
X115457009Y-127078139D01*
X115518201Y-127173234D01*
X115611568Y-127237029D01*
X115722400Y-127259473D01*
X117957600Y-127259473D01*
X118061139Y-127239991D01*
X118156234Y-127178799D01*
X118220029Y-127085432D01*
X118242473Y-126974600D01*
X118242473Y-125755400D01*
X118222991Y-125651861D01*
X118161799Y-125556766D01*
X118068432Y-125492971D01*
X117957600Y-125470527D01*
X115722400Y-125470527D01*
X115618861Y-125490009D01*
X115523766Y-125551201D01*
X115459971Y-125644568D01*
X115437527Y-125755400D01*
X115437527Y-125960600D01*
X115387420Y-125960600D01*
X115387500Y-125869256D01*
X115299478Y-125656225D01*
X115136632Y-125493095D01*
X114923755Y-125404701D01*
X114693256Y-125404500D01*
X114480225Y-125492522D01*
X114317095Y-125655368D01*
X114228701Y-125868245D01*
X114228500Y-126098744D01*
X111434400Y-126098744D01*
X111434400Y-126004873D01*
X111530000Y-126004873D01*
X111633539Y-125985391D01*
X111728634Y-125924199D01*
X111792429Y-125830832D01*
X111814873Y-125720000D01*
X111814873Y-124470000D01*
X111795391Y-124366461D01*
X111741235Y-124282300D01*
X111742905Y-124280632D01*
X111831299Y-124067755D01*
X111831500Y-123837256D01*
X111743478Y-123624225D01*
X111580632Y-123461095D01*
X111367755Y-123372701D01*
X111137256Y-123372500D01*
X110924225Y-123460522D01*
X110761095Y-123623368D01*
X110672701Y-123836245D01*
X110672563Y-123995029D01*
X110656383Y-124019243D01*
X110625600Y-124174000D01*
X110625600Y-124185127D01*
X110530000Y-124185127D01*
X110426461Y-124204609D01*
X110331366Y-124265801D01*
X110267571Y-124359168D01*
X110245127Y-124470000D01*
X101954400Y-124470000D01*
X101954400Y-122782400D01*
X127153600Y-122782400D01*
X127153600Y-148489600D01*
X127153600Y-148489600D01*
G37*
X127153600Y-148489600D02*
X111368897Y-148489600D01*
X111685183Y-148201358D01*
X111931486Y-147676892D01*
X111810819Y-147447000D01*
X110617000Y-147447000D01*
X110617000Y-147467000D01*
X110363000Y-147467000D01*
X110363000Y-147447000D01*
X110343000Y-147447000D01*
X110343000Y-147193000D01*
X110363000Y-147193000D01*
X110363000Y-145999845D01*
X110617000Y-145999845D01*
X110617000Y-147193000D01*
X111810819Y-147193000D01*
X111931486Y-146963108D01*
X111685183Y-146438642D01*
X111256924Y-146048355D01*
X110924681Y-145910744D01*
X112196500Y-145910744D01*
X112284522Y-146123775D01*
X112447368Y-146286905D01*
X112660245Y-146375299D01*
X112803116Y-146375424D01*
X112875242Y-146423617D01*
X113030000Y-146454400D01*
X113415127Y-146454400D01*
X113415127Y-146650000D01*
X113434609Y-146753539D01*
X113495801Y-146848634D01*
X113589168Y-146912429D01*
X113700000Y-146934873D01*
X114900000Y-146934873D01*
X115003539Y-146915391D01*
X115098634Y-146854199D01*
X115162429Y-146760832D01*
X115184873Y-146650000D01*
X115184873Y-146454400D01*
X115955127Y-146454400D01*
X115955127Y-146650000D01*
X115974609Y-146753539D01*
X116035801Y-146848634D01*
X116129168Y-146912429D01*
X116240000Y-146934873D01*
X117440000Y-146934873D01*
X117543539Y-146915391D01*
X117638634Y-146854199D01*
X117702429Y-146760832D01*
X117724873Y-146650000D01*
X117724873Y-146454400D01*
X118495127Y-146454400D01*
X118495127Y-146650000D01*
X118514609Y-146753539D01*
X118575801Y-146848634D01*
X118669168Y-146912429D01*
X118780000Y-146934873D01*
X119980000Y-146934873D01*
X120083539Y-146915391D01*
X120178634Y-146854199D01*
X120242429Y-146760832D01*
X120264873Y-146650000D01*
X120264873Y-145450000D01*
X120245391Y-145346461D01*
X120184199Y-145251366D01*
X120090832Y-145187571D01*
X119980000Y-145165127D01*
X118780000Y-145165127D01*
X118676461Y-145184609D01*
X118581366Y-145245801D01*
X118517571Y-145339168D01*
X118495127Y-145450000D01*
X118495127Y-145645600D01*
X117724873Y-145645600D01*
X117724873Y-145450000D01*
X117705391Y-145346461D01*
X117644199Y-145251366D01*
X117550832Y-145187571D01*
X117440000Y-145165127D01*
X116240000Y-145165127D01*
X116136461Y-145184609D01*
X116041366Y-145245801D01*
X115977571Y-145339168D01*
X115955127Y-145450000D01*
X115955127Y-145645600D01*
X115184873Y-145645600D01*
X115184873Y-145450000D01*
X115165391Y-145346461D01*
X115104199Y-145251366D01*
X115010832Y-145187571D01*
X114900000Y-145165127D01*
X113700000Y-145165127D01*
X113596461Y-145184609D01*
X113501366Y-145245801D01*
X113437571Y-145339168D01*
X113415127Y-145450000D01*
X113415127Y-145645600D01*
X113340767Y-145645600D01*
X113267478Y-145468225D01*
X113104632Y-145305095D01*
X112891755Y-145216701D01*
X112661256Y-145216500D01*
X112448225Y-145304522D01*
X112285095Y-145467368D01*
X112196701Y-145680245D01*
X112196500Y-145910744D01*
X110924681Y-145910744D01*
X110846890Y-145878524D01*
X110617000Y-145999845D01*
X110363000Y-145999845D01*
X110133110Y-145878524D01*
X109723076Y-146048355D01*
X109294817Y-146438642D01*
X109084873Y-146885687D01*
X109084873Y-146470000D01*
X109065391Y-146366461D01*
X109004199Y-146271366D01*
X108910832Y-146207571D01*
X108800000Y-146185127D01*
X107100000Y-146185127D01*
X106996461Y-146204609D01*
X106901366Y-146265801D01*
X106837571Y-146359168D01*
X106815127Y-146470000D01*
X106815127Y-148170000D01*
X106834609Y-148273539D01*
X106895801Y-148368634D01*
X106989168Y-148432429D01*
X107100000Y-148454873D01*
X108800000Y-148454873D01*
X108903539Y-148435391D01*
X108998634Y-148374199D01*
X109062429Y-148280832D01*
X109084873Y-148170000D01*
X109084873Y-147754313D01*
X109294817Y-148201358D01*
X109611103Y-148489600D01*
X101954400Y-148489600D01*
X101954400Y-130810000D01*
X102988474Y-130810000D01*
X103074444Y-131242203D01*
X103319268Y-131608606D01*
X103685671Y-131853430D01*
X104117874Y-131939400D01*
X104162126Y-131939400D01*
X104594329Y-131853430D01*
X104960732Y-131608606D01*
X105205556Y-131242203D01*
X105211086Y-131214400D01*
X107001985Y-131214400D01*
X106965000Y-131303690D01*
X106965000Y-131794250D01*
X107123750Y-131953000D01*
X107823000Y-131953000D01*
X107823000Y-131933000D01*
X108077000Y-131933000D01*
X108077000Y-131953000D01*
X108776250Y-131953000D01*
X108935000Y-131794250D01*
X108935000Y-131303690D01*
X108898015Y-131214400D01*
X109319084Y-131214400D01*
X109301366Y-131225801D01*
X109237571Y-131319168D01*
X109215127Y-131430000D01*
X109215127Y-132730000D01*
X109234609Y-132833539D01*
X109295801Y-132928634D01*
X109315796Y-132942296D01*
X109312492Y-132945600D01*
X108898015Y-132945600D01*
X108935000Y-132856310D01*
X108935000Y-132365750D01*
X108776250Y-132207000D01*
X108077000Y-132207000D01*
X108077000Y-132227000D01*
X107823000Y-132227000D01*
X107823000Y-132207000D01*
X107123750Y-132207000D01*
X106965000Y-132365750D01*
X106965000Y-132856310D01*
X107001985Y-132945600D01*
X105211086Y-132945600D01*
X105205556Y-132917797D01*
X104960732Y-132551394D01*
X104594329Y-132306570D01*
X104162126Y-132220600D01*
X104117874Y-132220600D01*
X103685671Y-132306570D01*
X103319268Y-132551394D01*
X103074444Y-132917797D01*
X102988474Y-133350000D01*
X103074444Y-133782203D01*
X103319268Y-134148606D01*
X103685671Y-134393430D01*
X104117874Y-134479400D01*
X104162126Y-134479400D01*
X104594329Y-134393430D01*
X104960732Y-134148606D01*
X105205556Y-133782203D01*
X105211086Y-133754400D01*
X107001985Y-133754400D01*
X106965000Y-133843690D01*
X106965000Y-134334250D01*
X107123750Y-134493000D01*
X107823000Y-134493000D01*
X107823000Y-134473000D01*
X108077000Y-134473000D01*
X108077000Y-134493000D01*
X108776250Y-134493000D01*
X108935000Y-134334250D01*
X108935000Y-133843690D01*
X108898015Y-133754400D01*
X109319084Y-133754400D01*
X109301366Y-133765801D01*
X109237571Y-133859168D01*
X109215127Y-133970000D01*
X109215127Y-135270000D01*
X109234609Y-135373539D01*
X109295801Y-135468634D01*
X109315796Y-135482296D01*
X109312492Y-135485600D01*
X108898015Y-135485600D01*
X108935000Y-135396310D01*
X108935000Y-134905750D01*
X108776250Y-134747000D01*
X108077000Y-134747000D01*
X108077000Y-134767000D01*
X107823000Y-134767000D01*
X107823000Y-134747000D01*
X107123750Y-134747000D01*
X106965000Y-134905750D01*
X106965000Y-135396310D01*
X107001985Y-135485600D01*
X105211086Y-135485600D01*
X105205556Y-135457797D01*
X104960732Y-135091394D01*
X104594329Y-134846570D01*
X104162126Y-134760600D01*
X104117874Y-134760600D01*
X103685671Y-134846570D01*
X103319268Y-135091394D01*
X103074444Y-135457797D01*
X102988474Y-135890000D01*
X103074444Y-136322203D01*
X103319268Y-136688606D01*
X103685671Y-136933430D01*
X104117874Y-137019400D01*
X104162126Y-137019400D01*
X104594329Y-136933430D01*
X104960732Y-136688606D01*
X105205556Y-136322203D01*
X105211086Y-136294400D01*
X107006985Y-136294400D01*
X106970000Y-136383690D01*
X106970000Y-136874250D01*
X107128750Y-137033000D01*
X107828000Y-137033000D01*
X107828000Y-137013000D01*
X108082000Y-137013000D01*
X108082000Y-137033000D01*
X108781250Y-137033000D01*
X108940000Y-136874250D01*
X108940000Y-136383690D01*
X108903015Y-136294400D01*
X109324084Y-136294400D01*
X109306366Y-136305801D01*
X109242571Y-136399168D01*
X109220127Y-136510000D01*
X109220127Y-137810000D01*
X109239609Y-137913539D01*
X109300801Y-138008634D01*
X109325632Y-138025600D01*
X108903015Y-138025600D01*
X108940000Y-137936310D01*
X108940000Y-137445750D01*
X108781250Y-137287000D01*
X108082000Y-137287000D01*
X108082000Y-137307000D01*
X107828000Y-137307000D01*
X107828000Y-137287000D01*
X107128750Y-137287000D01*
X106970000Y-137445750D01*
X106970000Y-137936310D01*
X107006985Y-138025600D01*
X105211086Y-138025600D01*
X105205556Y-137997797D01*
X104960732Y-137631394D01*
X104594329Y-137386570D01*
X104162126Y-137300600D01*
X104117874Y-137300600D01*
X103685671Y-137386570D01*
X103319268Y-137631394D01*
X103074444Y-137997797D01*
X102988474Y-138430000D01*
X103074444Y-138862203D01*
X103319268Y-139228606D01*
X103685671Y-139473430D01*
X104117874Y-139559400D01*
X104162126Y-139559400D01*
X104594329Y-139473430D01*
X104960732Y-139228606D01*
X105205556Y-138862203D01*
X105211086Y-138834400D01*
X105957692Y-138834400D01*
X104756897Y-140035195D01*
X104594329Y-139926570D01*
X104162126Y-139840600D01*
X104117874Y-139840600D01*
X103685671Y-139926570D01*
X103319268Y-140171394D01*
X103074444Y-140537797D01*
X102988474Y-140970000D01*
X103074444Y-141402203D01*
X103319268Y-141768606D01*
X103685671Y-142013430D01*
X104117874Y-142099400D01*
X104162126Y-142099400D01*
X104594329Y-142013430D01*
X104960732Y-141768606D01*
X105205556Y-141402203D01*
X105291526Y-140970000D01*
X105237503Y-140698405D01*
X106593508Y-139342400D01*
X107735692Y-139342400D01*
X104702965Y-142375127D01*
X103290000Y-142375127D01*
X103186461Y-142394609D01*
X103091366Y-142455801D01*
X103027571Y-142549168D01*
X103005127Y-142660000D01*
X103005127Y-144360000D01*
X103024609Y-144463539D01*
X103085801Y-144558634D01*
X103179168Y-144622429D01*
X103290000Y-144644873D01*
X104990000Y-144644873D01*
X105093539Y-144625391D01*
X105188634Y-144564199D01*
X105252429Y-144470832D01*
X105274873Y-144360000D01*
X105274873Y-142947035D01*
X106966908Y-141255000D01*
X113365127Y-141255000D01*
X113365127Y-141955000D01*
X113384609Y-142058539D01*
X113445801Y-142153634D01*
X113539168Y-142217429D01*
X113650000Y-142239873D01*
X113895600Y-142239873D01*
X113895600Y-142965127D01*
X113700000Y-142965127D01*
X113596461Y-142984609D01*
X113501366Y-143045801D01*
X113437571Y-143139168D01*
X113415127Y-143250000D01*
X113415127Y-144450000D01*
X113434609Y-144553539D01*
X113495801Y-144648634D01*
X113589168Y-144712429D01*
X113700000Y-144734873D01*
X114900000Y-144734873D01*
X115003539Y-144715391D01*
X115098634Y-144654199D01*
X115162429Y-144560832D01*
X115184873Y-144450000D01*
X115184873Y-143250000D01*
X115165391Y-143146461D01*
X115104199Y-143051366D01*
X115010832Y-142987571D01*
X114900000Y-142965127D01*
X114704400Y-142965127D01*
X114704400Y-142239873D01*
X114950000Y-142239873D01*
X115053539Y-142220391D01*
X115148634Y-142159199D01*
X115212429Y-142065832D01*
X115234873Y-141955000D01*
X115234873Y-141255000D01*
X115905127Y-141255000D01*
X115905127Y-141955000D01*
X115924609Y-142058539D01*
X115985801Y-142153634D01*
X116079168Y-142217429D01*
X116190000Y-142239873D01*
X116435600Y-142239873D01*
X116435600Y-142965127D01*
X116240000Y-142965127D01*
X116136461Y-142984609D01*
X116041366Y-143045801D01*
X115977571Y-143139168D01*
X115955127Y-143250000D01*
X115955127Y-144450000D01*
X115974609Y-144553539D01*
X116035801Y-144648634D01*
X116129168Y-144712429D01*
X116240000Y-144734873D01*
X117440000Y-144734873D01*
X117543539Y-144715391D01*
X117638634Y-144654199D01*
X117702429Y-144560832D01*
X117724873Y-144450000D01*
X117724873Y-143250000D01*
X117705391Y-143146461D01*
X117644199Y-143051366D01*
X117550832Y-142987571D01*
X117440000Y-142965127D01*
X117244400Y-142965127D01*
X117244400Y-142239873D01*
X117490000Y-142239873D01*
X117593539Y-142220391D01*
X117688634Y-142159199D01*
X117752429Y-142065832D01*
X117774873Y-141955000D01*
X117774873Y-141255000D01*
X118445127Y-141255000D01*
X118445127Y-141955000D01*
X118464609Y-142058539D01*
X118525801Y-142153634D01*
X118619168Y-142217429D01*
X118730000Y-142239873D01*
X118975600Y-142239873D01*
X118975600Y-142965127D01*
X118780000Y-142965127D01*
X118676461Y-142984609D01*
X118581366Y-143045801D01*
X118517571Y-143139168D01*
X118495127Y-143250000D01*
X118495127Y-144450000D01*
X118514609Y-144553539D01*
X118575801Y-144648634D01*
X118669168Y-144712429D01*
X118780000Y-144734873D01*
X119980000Y-144734873D01*
X120083539Y-144715391D01*
X120178634Y-144654199D01*
X120242429Y-144560832D01*
X120264873Y-144450000D01*
X120264873Y-143250000D01*
X120245391Y-143146461D01*
X120184199Y-143051366D01*
X120090832Y-142987571D01*
X119980000Y-142965127D01*
X119784400Y-142965127D01*
X119784400Y-142239873D01*
X120030000Y-142239873D01*
X120133539Y-142220391D01*
X120228634Y-142159199D01*
X120292429Y-142065832D01*
X120314873Y-141955000D01*
X120314873Y-141255000D01*
X120295391Y-141151461D01*
X120234199Y-141056366D01*
X120140832Y-140992571D01*
X120030000Y-140970127D01*
X118730000Y-140970127D01*
X118626461Y-140989609D01*
X118531366Y-141050801D01*
X118467571Y-141144168D01*
X118445127Y-141255000D01*
X117774873Y-141255000D01*
X117755391Y-141151461D01*
X117694199Y-141056366D01*
X117600832Y-140992571D01*
X117490000Y-140970127D01*
X116190000Y-140970127D01*
X116086461Y-140989609D01*
X115991366Y-141050801D01*
X115927571Y-141144168D01*
X115905127Y-141255000D01*
X115234873Y-141255000D01*
X115215391Y-141151461D01*
X115154199Y-141056366D01*
X115060832Y-140992571D01*
X114950000Y-140970127D01*
X113650000Y-140970127D01*
X113546461Y-140989609D01*
X113451366Y-141050801D01*
X113387571Y-141144168D01*
X113365127Y-141255000D01*
X106966908Y-141255000D01*
X108371508Y-139850400D01*
X112014000Y-139850400D01*
X112168757Y-139819617D01*
X112299954Y-139731954D01*
X112676908Y-139355000D01*
X113365127Y-139355000D01*
X113365127Y-140055000D01*
X113384609Y-140158539D01*
X113445801Y-140253634D01*
X113539168Y-140317429D01*
X113650000Y-140339873D01*
X114950000Y-140339873D01*
X115053539Y-140320391D01*
X115148634Y-140259199D01*
X115212429Y-140165832D01*
X115234873Y-140055000D01*
X115234873Y-139990750D01*
X115555000Y-139990750D01*
X115555000Y-140181309D01*
X115651673Y-140414698D01*
X115830301Y-140593327D01*
X116063690Y-140690000D01*
X116554250Y-140690000D01*
X116713000Y-140531250D01*
X116713000Y-139832000D01*
X116967000Y-139832000D01*
X116967000Y-140531250D01*
X117125750Y-140690000D01*
X117616310Y-140690000D01*
X117849699Y-140593327D01*
X118028327Y-140414698D01*
X118125000Y-140181309D01*
X118125000Y-139990750D01*
X117966250Y-139832000D01*
X116967000Y-139832000D01*
X116713000Y-139832000D01*
X115713750Y-139832000D01*
X115555000Y-139990750D01*
X115234873Y-139990750D01*
X115234873Y-139355000D01*
X115215391Y-139251461D01*
X115200739Y-139228691D01*
X115555000Y-139228691D01*
X115555000Y-139419250D01*
X115713750Y-139578000D01*
X116713000Y-139578000D01*
X116713000Y-138878750D01*
X116967000Y-138878750D01*
X116967000Y-139578000D01*
X117966250Y-139578000D01*
X118125000Y-139419250D01*
X118125000Y-139228691D01*
X118028327Y-138995302D01*
X117849699Y-138816673D01*
X117616310Y-138720000D01*
X117125750Y-138720000D01*
X116967000Y-138878750D01*
X116713000Y-138878750D01*
X116554250Y-138720000D01*
X116063690Y-138720000D01*
X115830301Y-138816673D01*
X115651673Y-138995302D01*
X115555000Y-139228691D01*
X115200739Y-139228691D01*
X115154199Y-139156366D01*
X115060832Y-139092571D01*
X114950000Y-139070127D01*
X114739781Y-139070127D01*
X114800515Y-139009393D01*
X114922744Y-139009500D01*
X115135775Y-138921478D01*
X115298905Y-138758632D01*
X115387299Y-138545755D01*
X115387500Y-138315256D01*
X115299478Y-138102225D01*
X115136632Y-137939095D01*
X114923755Y-137850701D01*
X114693256Y-137850500D01*
X114480225Y-137938522D01*
X114317095Y-138101368D01*
X114228701Y-138314245D01*
X114228594Y-138437498D01*
X114014046Y-138652046D01*
X113926383Y-138783243D01*
X113895600Y-138938000D01*
X113895600Y-139070127D01*
X113650000Y-139070127D01*
X113546461Y-139089609D01*
X113451366Y-139150801D01*
X113387571Y-139244168D01*
X113365127Y-139355000D01*
X112676908Y-139355000D01*
X113569954Y-138461954D01*
X113657617Y-138330758D01*
X113688400Y-138176000D01*
X113688400Y-136057508D01*
X113808138Y-135937770D01*
X113849351Y-135876091D01*
X114098564Y-136125304D01*
X114185554Y-136184741D01*
X114296065Y-136208714D01*
X114407196Y-136187803D01*
X114501436Y-136125304D01*
X114542127Y-136084613D01*
X114558984Y-136169358D01*
X114646647Y-136300555D01*
X116554046Y-138207954D01*
X116685243Y-138295617D01*
X116840000Y-138326400D01*
X119014494Y-138326400D01*
X119758221Y-139070127D01*
X118730000Y-139070127D01*
X118626461Y-139089609D01*
X118531366Y-139150801D01*
X118467571Y-139244168D01*
X118445127Y-139355000D01*
X118445127Y-140055000D01*
X118464609Y-140158539D01*
X118525801Y-140253634D01*
X118619168Y-140317429D01*
X118730000Y-140339873D01*
X119955965Y-140339873D01*
X120070607Y-140454515D01*
X120070500Y-140576744D01*
X120158522Y-140789775D01*
X120321368Y-140952905D01*
X120534245Y-141041299D01*
X120764744Y-141041500D01*
X120977775Y-140953478D01*
X121140905Y-140790632D01*
X121229299Y-140577755D01*
X121229331Y-140541237D01*
X123115801Y-142427707D01*
X123115801Y-142570201D01*
X123146584Y-142724958D01*
X123234247Y-142856155D01*
X123325127Y-142947035D01*
X123325127Y-144360000D01*
X123344609Y-144463539D01*
X123405801Y-144558634D01*
X123499168Y-144622429D01*
X123610000Y-144644873D01*
X125310000Y-144644873D01*
X125413539Y-144625391D01*
X125508634Y-144564199D01*
X125572429Y-144470832D01*
X125594873Y-144360000D01*
X125594873Y-142660000D01*
X125575391Y-142556461D01*
X125514199Y-142461366D01*
X125420832Y-142397571D01*
X125310000Y-142375127D01*
X123924601Y-142375127D01*
X123924601Y-142260199D01*
X123893818Y-142105442D01*
X123806155Y-141974245D01*
X122801910Y-140970000D01*
X123308474Y-140970000D01*
X123394444Y-141402203D01*
X123639268Y-141768606D01*
X124005671Y-142013430D01*
X124437874Y-142099400D01*
X124482126Y-142099400D01*
X124914329Y-142013430D01*
X125280732Y-141768606D01*
X125525556Y-141402203D01*
X125611526Y-140970000D01*
X125525556Y-140537797D01*
X125280732Y-140171394D01*
X124914329Y-139926570D01*
X124482126Y-139840600D01*
X124437874Y-139840600D01*
X124005671Y-139926570D01*
X123639268Y-140171394D01*
X123394444Y-140537797D01*
X123308474Y-140970000D01*
X122801910Y-140970000D01*
X119467956Y-137636046D01*
X119336759Y-137548383D01*
X119182002Y-137517600D01*
X117446055Y-137517600D01*
X117542087Y-137477822D01*
X117782899Y-137237010D01*
X117782899Y-137012504D01*
X117094000Y-136323605D01*
X117079858Y-136337748D01*
X116900252Y-136158142D01*
X116914395Y-136144000D01*
X116225496Y-135455101D01*
X116122166Y-135455101D01*
X116063451Y-135313001D01*
X116061478Y-135308225D01*
X116010314Y-135256972D01*
X116010314Y-135141632D01*
X115568903Y-134700220D01*
X115541962Y-134727161D01*
X115362357Y-134547556D01*
X115389298Y-134520615D01*
X115375155Y-134506473D01*
X115456473Y-134425155D01*
X115470615Y-134439298D01*
X115500757Y-134409157D01*
X115574470Y-134482870D01*
X115587359Y-134502160D01*
X115677161Y-134591962D01*
X115650220Y-134618903D01*
X116091632Y-135060314D01*
X116145513Y-135060314D01*
X116245153Y-135159954D01*
X116376349Y-135247617D01*
X116405101Y-135253336D01*
X116405101Y-135275496D01*
X117094000Y-135964395D01*
X117108142Y-135950252D01*
X117287748Y-136129858D01*
X117273605Y-136144000D01*
X117962504Y-136832899D01*
X118187010Y-136832899D01*
X118427822Y-136592087D01*
X118524495Y-136358698D01*
X118524495Y-136294400D01*
X123388914Y-136294400D01*
X123394444Y-136322203D01*
X123639268Y-136688606D01*
X124005671Y-136933430D01*
X124437874Y-137019400D01*
X124482126Y-137019400D01*
X124914329Y-136933430D01*
X125280732Y-136688606D01*
X125525556Y-136322203D01*
X125574401Y-136076641D01*
X125574401Y-136743691D01*
X124924635Y-137393457D01*
X124914329Y-137386570D01*
X124482126Y-137300600D01*
X124437874Y-137300600D01*
X124005671Y-137386570D01*
X123639268Y-137631394D01*
X123394444Y-137997797D01*
X123308474Y-138430000D01*
X123394444Y-138862203D01*
X123639268Y-139228606D01*
X124005671Y-139473430D01*
X124437874Y-139559400D01*
X124482126Y-139559400D01*
X124914329Y-139473430D01*
X125280732Y-139228606D01*
X125525556Y-138862203D01*
X125611526Y-138430000D01*
X125525556Y-137997797D01*
X125500945Y-137960963D01*
X126264755Y-137197153D01*
X126352417Y-137065957D01*
X126352418Y-137065956D01*
X126383201Y-136911199D01*
X126383201Y-125216801D01*
X126352418Y-125062044D01*
X126264755Y-124930847D01*
X125101554Y-123767646D01*
X124970357Y-123679983D01*
X124815600Y-123649200D01*
X118242473Y-123649200D01*
X118242473Y-123444000D01*
X118222991Y-123340461D01*
X118161799Y-123245366D01*
X118068432Y-123181571D01*
X117957600Y-123159127D01*
X115722400Y-123159127D01*
X115618861Y-123178609D01*
X115523766Y-123239801D01*
X115459971Y-123333168D01*
X115437527Y-123444000D01*
X115437527Y-123649200D01*
X113946400Y-123649200D01*
X113791642Y-123679983D01*
X113660446Y-123767646D01*
X113242965Y-124185127D01*
X112530000Y-124185127D01*
X112426461Y-124204609D01*
X112331366Y-124265801D01*
X112267571Y-124359168D01*
X112245127Y-124470000D01*
X112245127Y-125720000D01*
X112264609Y-125823539D01*
X112325801Y-125918634D01*
X112419168Y-125982429D01*
X112530000Y-126004873D01*
X113530000Y-126004873D01*
X113633539Y-125985391D01*
X113728634Y-125924199D01*
X113792429Y-125830832D01*
X113814873Y-125720000D01*
X113814873Y-124757035D01*
X114113908Y-124458000D01*
X115437527Y-124458000D01*
X115437527Y-124663200D01*
X115457009Y-124766739D01*
X115518201Y-124861834D01*
X115611568Y-124925629D01*
X115722400Y-124948073D01*
X117957600Y-124948073D01*
X118061139Y-124928591D01*
X118156234Y-124867399D01*
X118220029Y-124774032D01*
X118242473Y-124663200D01*
X118242473Y-124458000D01*
X121674658Y-124458000D01*
X121652907Y-124565410D01*
X121652907Y-128164590D01*
X121672389Y-128268129D01*
X121733581Y-128363224D01*
X121826948Y-128427019D01*
X121937780Y-128449463D01*
X124137420Y-128449463D01*
X124240959Y-128429981D01*
X124336054Y-128368789D01*
X124399849Y-128275422D01*
X124422293Y-128164590D01*
X124422293Y-124565410D01*
X124402811Y-124461871D01*
X124400320Y-124458000D01*
X124648092Y-124458000D01*
X125574401Y-125384309D01*
X125574401Y-130623359D01*
X125525556Y-130377797D01*
X125280732Y-130011394D01*
X124914329Y-129766570D01*
X124482126Y-129680600D01*
X124437874Y-129680600D01*
X124005671Y-129766570D01*
X123639268Y-130011394D01*
X123394444Y-130377797D01*
X123388914Y-130405600D01*
X113538000Y-130405600D01*
X113383243Y-130436383D01*
X113252046Y-130524046D01*
X112529123Y-131246969D01*
X112441460Y-131378166D01*
X112410677Y-131532923D01*
X112410677Y-131595876D01*
X111338847Y-130524046D01*
X111207650Y-130436383D01*
X111052893Y-130405600D01*
X105211086Y-130405600D01*
X105205556Y-130377797D01*
X104960732Y-130011394D01*
X104594329Y-129766570D01*
X104162126Y-129680600D01*
X104117874Y-129680600D01*
X103685671Y-129766570D01*
X103319268Y-130011394D01*
X103074444Y-130377797D01*
X102988474Y-130810000D01*
X101954400Y-130810000D01*
X101954400Y-128962150D01*
X115087400Y-128962150D01*
X115087400Y-129412309D01*
X115184073Y-129645698D01*
X115362701Y-129824327D01*
X115596090Y-129921000D01*
X116554250Y-129921000D01*
X116713000Y-129762250D01*
X116713000Y-128803400D01*
X116967000Y-128803400D01*
X116967000Y-129762250D01*
X117125750Y-129921000D01*
X118083910Y-129921000D01*
X118317299Y-129824327D01*
X118495927Y-129645698D01*
X118592600Y-129412309D01*
X118592600Y-128962150D01*
X118433850Y-128803400D01*
X116967000Y-128803400D01*
X116713000Y-128803400D01*
X115246150Y-128803400D01*
X115087400Y-128962150D01*
X101954400Y-128962150D01*
X101954400Y-124470000D01*
X110245127Y-124470000D01*
X110245127Y-125720000D01*
X110264609Y-125823539D01*
X110325801Y-125918634D01*
X110419168Y-125982429D01*
X110530000Y-126004873D01*
X110625600Y-126004873D01*
X110625600Y-126725127D01*
X110530000Y-126725127D01*
X110426461Y-126744609D01*
X110331366Y-126805801D01*
X110267571Y-126899168D01*
X110245127Y-127010000D01*
X110245127Y-128260000D01*
X110264609Y-128363539D01*
X110325801Y-128458634D01*
X110419168Y-128522429D01*
X110530000Y-128544873D01*
X111530000Y-128544873D01*
X111633539Y-128525391D01*
X111728634Y-128464199D01*
X111792429Y-128370832D01*
X111814873Y-128260000D01*
X111814873Y-127920750D01*
X111895000Y-127920750D01*
X111895000Y-128386310D01*
X111991673Y-128619699D01*
X112170302Y-128798327D01*
X112403691Y-128895000D01*
X112744250Y-128895000D01*
X112903000Y-128736250D01*
X112903000Y-127762000D01*
X113157000Y-127762000D01*
X113157000Y-128736250D01*
X113315750Y-128895000D01*
X113656309Y-128895000D01*
X113889698Y-128798327D01*
X114068327Y-128619699D01*
X114165000Y-128386310D01*
X114165000Y-127940491D01*
X115087400Y-127940491D01*
X115087400Y-128390650D01*
X115246150Y-128549400D01*
X116713000Y-128549400D01*
X116713000Y-127590550D01*
X116967000Y-127590550D01*
X116967000Y-128549400D01*
X118433850Y-128549400D01*
X118592600Y-128390650D01*
X118592600Y-127940491D01*
X118495927Y-127707102D01*
X118317299Y-127528473D01*
X118083910Y-127431800D01*
X117125750Y-127431800D01*
X116967000Y-127590550D01*
X116713000Y-127590550D01*
X116554250Y-127431800D01*
X115596090Y-127431800D01*
X115362701Y-127528473D01*
X115184073Y-127707102D01*
X115087400Y-127940491D01*
X114165000Y-127940491D01*
X114165000Y-127920750D01*
X114006250Y-127762000D01*
X113157000Y-127762000D01*
X112903000Y-127762000D01*
X112053750Y-127762000D01*
X111895000Y-127920750D01*
X111814873Y-127920750D01*
X111814873Y-127010000D01*
X111795391Y-126906461D01*
X111780739Y-126883690D01*
X111895000Y-126883690D01*
X111895000Y-127349250D01*
X112053750Y-127508000D01*
X112903000Y-127508000D01*
X112903000Y-126533750D01*
X113157000Y-126533750D01*
X113157000Y-127508000D01*
X114006250Y-127508000D01*
X114165000Y-127349250D01*
X114165000Y-126883690D01*
X114068327Y-126650301D01*
X113889698Y-126471673D01*
X113656309Y-126375000D01*
X113315750Y-126375000D01*
X113157000Y-126533750D01*
X112903000Y-126533750D01*
X112744250Y-126375000D01*
X112403691Y-126375000D01*
X112170302Y-126471673D01*
X111991673Y-126650301D01*
X111895000Y-126883690D01*
X111780739Y-126883690D01*
X111734199Y-126811366D01*
X111640832Y-126747571D01*
X111530000Y-126725127D01*
X111434400Y-126725127D01*
X111434400Y-126098744D01*
X114228500Y-126098744D01*
X114316522Y-126311775D01*
X114479368Y-126474905D01*
X114692245Y-126563299D01*
X114815498Y-126563406D01*
X114903046Y-126650954D01*
X115034242Y-126738617D01*
X115189000Y-126769400D01*
X115437527Y-126769400D01*
X115437527Y-126974600D01*
X115457009Y-127078139D01*
X115518201Y-127173234D01*
X115611568Y-127237029D01*
X115722400Y-127259473D01*
X117957600Y-127259473D01*
X118061139Y-127239991D01*
X118156234Y-127178799D01*
X118220029Y-127085432D01*
X118242473Y-126974600D01*
X118242473Y-125755400D01*
X118222991Y-125651861D01*
X118161799Y-125556766D01*
X118068432Y-125492971D01*
X117957600Y-125470527D01*
X115722400Y-125470527D01*
X115618861Y-125490009D01*
X115523766Y-125551201D01*
X115459971Y-125644568D01*
X115437527Y-125755400D01*
X115437527Y-125960600D01*
X115387420Y-125960600D01*
X115387500Y-125869256D01*
X115299478Y-125656225D01*
X115136632Y-125493095D01*
X114923755Y-125404701D01*
X114693256Y-125404500D01*
X114480225Y-125492522D01*
X114317095Y-125655368D01*
X114228701Y-125868245D01*
X114228500Y-126098744D01*
X111434400Y-126098744D01*
X111434400Y-126004873D01*
X111530000Y-126004873D01*
X111633539Y-125985391D01*
X111728634Y-125924199D01*
X111792429Y-125830832D01*
X111814873Y-125720000D01*
X111814873Y-124470000D01*
X111795391Y-124366461D01*
X111741235Y-124282300D01*
X111742905Y-124280632D01*
X111831299Y-124067755D01*
X111831500Y-123837256D01*
X111743478Y-123624225D01*
X111580632Y-123461095D01*
X111367755Y-123372701D01*
X111137256Y-123372500D01*
X110924225Y-123460522D01*
X110761095Y-123623368D01*
X110672701Y-123836245D01*
X110672563Y-123995029D01*
X110656383Y-124019243D01*
X110625600Y-124174000D01*
X110625600Y-124185127D01*
X110530000Y-124185127D01*
X110426461Y-124204609D01*
X110331366Y-124265801D01*
X110267571Y-124359168D01*
X110245127Y-124470000D01*
X101954400Y-124470000D01*
X101954400Y-122782400D01*
X127153600Y-122782400D01*
X127153600Y-148489600D01*
M02*
