G04 #@! TF.FileFunction,Soldermask,Top*
%FSLAX46Y46*%
G04 Gerber Fmt 4.6, Leading zero omitted, Abs format (unit mm)*
G04 Created by KiCad (PCBNEW 4.0.7-e2-6376~58~ubuntu16.04.1) date Mon Nov  6 21:18:59 2017*
%MOMM*%
%LPD*%
G01*
G04 APERTURE LIST*
%ADD10C,0.100000*%
%ADD11R,1.600000X1.600000*%
%ADD12R,2.100000X2.100000*%
%ADD13O,2.100000X2.100000*%
%ADD14R,1.400000X1.650000*%
%ADD15R,1.100000X1.700000*%
%ADD16R,1.700000X1.100000*%
%ADD17R,2.635200X1.619200*%
%ADD18R,2.599640X3.999180*%
G04 APERTURE END LIST*
D10*
D11*
X114300000Y-143850000D03*
X114300000Y-146050000D03*
D10*
G36*
X117182388Y-137222338D02*
X116015662Y-136055612D01*
X117005612Y-135065662D01*
X118172338Y-136232388D01*
X117182388Y-137222338D01*
X117182388Y-137222338D01*
G37*
G36*
X118596602Y-135808124D02*
X117429876Y-134641398D01*
X118419826Y-133651448D01*
X119586552Y-134818174D01*
X118596602Y-135808124D01*
X118596602Y-135808124D01*
G37*
G36*
X115371266Y-135390003D02*
X114925789Y-135835480D01*
X114254038Y-135163729D01*
X114699515Y-134718252D01*
X115371266Y-135390003D01*
X115371266Y-135390003D01*
G37*
G36*
X115724820Y-135036450D02*
X115279343Y-135481927D01*
X114607592Y-134810176D01*
X115053069Y-134364699D01*
X115724820Y-135036450D01*
X115724820Y-135036450D01*
G37*
G36*
X116078373Y-134682896D02*
X115632896Y-135128373D01*
X114961145Y-134456622D01*
X115406622Y-134011145D01*
X116078373Y-134682896D01*
X116078373Y-134682896D01*
G37*
G36*
X116431927Y-134329343D02*
X115986450Y-134774820D01*
X115314699Y-134103069D01*
X115760176Y-133657592D01*
X116431927Y-134329343D01*
X116431927Y-134329343D01*
G37*
G36*
X116785480Y-133975789D02*
X116340003Y-134421266D01*
X115668252Y-133749515D01*
X116113729Y-133304038D01*
X116785480Y-133975789D01*
X116785480Y-133975789D01*
G37*
G36*
X116785480Y-132724211D02*
X116113729Y-133395962D01*
X115668252Y-132950485D01*
X116340003Y-132278734D01*
X116785480Y-132724211D01*
X116785480Y-132724211D01*
G37*
G36*
X116431927Y-132370657D02*
X115760176Y-133042408D01*
X115314699Y-132596931D01*
X115986450Y-131925180D01*
X116431927Y-132370657D01*
X116431927Y-132370657D01*
G37*
G36*
X116078373Y-132017104D02*
X115406622Y-132688855D01*
X114961145Y-132243378D01*
X115632896Y-131571627D01*
X116078373Y-132017104D01*
X116078373Y-132017104D01*
G37*
G36*
X115724820Y-131663550D02*
X115053069Y-132335301D01*
X114607592Y-131889824D01*
X115279343Y-131218073D01*
X115724820Y-131663550D01*
X115724820Y-131663550D01*
G37*
G36*
X115371266Y-131309997D02*
X114699515Y-131981748D01*
X114254038Y-131536271D01*
X114925789Y-130864520D01*
X115371266Y-131309997D01*
X115371266Y-131309997D01*
G37*
G36*
X114345962Y-131536271D02*
X113900485Y-131981748D01*
X113228734Y-131309997D01*
X113674211Y-130864520D01*
X114345962Y-131536271D01*
X114345962Y-131536271D01*
G37*
G36*
X113992408Y-131889824D02*
X113546931Y-132335301D01*
X112875180Y-131663550D01*
X113320657Y-131218073D01*
X113992408Y-131889824D01*
X113992408Y-131889824D01*
G37*
G36*
X113638855Y-132243378D02*
X113193378Y-132688855D01*
X112521627Y-132017104D01*
X112967104Y-131571627D01*
X113638855Y-132243378D01*
X113638855Y-132243378D01*
G37*
G36*
X113285301Y-132596931D02*
X112839824Y-133042408D01*
X112168073Y-132370657D01*
X112613550Y-131925180D01*
X113285301Y-132596931D01*
X113285301Y-132596931D01*
G37*
G36*
X112931748Y-132950485D02*
X112486271Y-133395962D01*
X111814520Y-132724211D01*
X112259997Y-132278734D01*
X112931748Y-132950485D01*
X112931748Y-132950485D01*
G37*
G36*
X112931748Y-133749515D02*
X112259997Y-134421266D01*
X111814520Y-133975789D01*
X112486271Y-133304038D01*
X112931748Y-133749515D01*
X112931748Y-133749515D01*
G37*
G36*
X113285301Y-134103069D02*
X112613550Y-134774820D01*
X112168073Y-134329343D01*
X112839824Y-133657592D01*
X113285301Y-134103069D01*
X113285301Y-134103069D01*
G37*
G36*
X113638855Y-134456622D02*
X112967104Y-135128373D01*
X112521627Y-134682896D01*
X113193378Y-134011145D01*
X113638855Y-134456622D01*
X113638855Y-134456622D01*
G37*
G36*
X113992408Y-134810176D02*
X113320657Y-135481927D01*
X112875180Y-135036450D01*
X113546931Y-134364699D01*
X113992408Y-134810176D01*
X113992408Y-134810176D01*
G37*
G36*
X114345962Y-135163729D02*
X113674211Y-135835480D01*
X113228734Y-135390003D01*
X113900485Y-134718252D01*
X114345962Y-135163729D01*
X114345962Y-135163729D01*
G37*
G36*
X116103122Y-133350000D02*
X114300000Y-135153122D01*
X112496878Y-133350000D01*
X114300000Y-131546878D01*
X116103122Y-133350000D01*
X116103122Y-133350000D01*
G37*
G36*
X114890434Y-135616277D02*
X114300000Y-136206711D01*
X113709566Y-135616277D01*
X114300000Y-135025843D01*
X114890434Y-135616277D01*
X114890434Y-135616277D01*
G37*
D12*
X124460000Y-143510000D03*
D13*
X124460000Y-140970000D03*
X124460000Y-138430000D03*
X124460000Y-135890000D03*
X124460000Y-133350000D03*
X124460000Y-130810000D03*
D14*
X113030000Y-125095000D03*
X111030000Y-125095000D03*
X113030000Y-127635000D03*
X111030000Y-127635000D03*
D11*
X119380000Y-143850000D03*
X119380000Y-146050000D03*
X116840000Y-143850000D03*
X116840000Y-146050000D03*
D15*
X107955000Y-137160000D03*
X109855000Y-137160000D03*
X107950000Y-132080000D03*
X109850000Y-132080000D03*
X107950000Y-134620000D03*
X109850000Y-134620000D03*
D16*
X119380000Y-139705000D03*
X119380000Y-141605000D03*
X114300000Y-139705000D03*
X114300000Y-141605000D03*
X116840000Y-139705000D03*
X116840000Y-141605000D03*
D17*
X116840000Y-124053600D03*
X116840000Y-126365000D03*
X116840000Y-128676400D03*
D18*
X123037600Y-126365000D03*
D12*
X107950000Y-147320000D03*
D13*
X110490000Y-147320000D03*
D12*
X104140000Y-143510000D03*
D13*
X104140000Y-140970000D03*
X104140000Y-138430000D03*
X104140000Y-135890000D03*
X104140000Y-133350000D03*
X104140000Y-130810000D03*
M02*
