G04 #@! TF.FileFunction,Copper,L2,Bot,Signal*
%FSLAX46Y46*%
G04 Gerber Fmt 4.6, Leading zero omitted, Abs format (unit mm)*
G04 Created by KiCad (PCBNEW 4.0.7-e2-6376~58~ubuntu16.04.1) date Mon Feb  5 21:35:03 2018*
%MOMM*%
%LPD*%
G01*
G04 APERTURE LIST*
%ADD10C,0.100000*%
%ADD11C,2.020000*%
%ADD12C,5.280000*%
%ADD13C,1.800000*%
%ADD14C,1.600000*%
%ADD15C,1.300000*%
%ADD16C,2.900000*%
%ADD17C,1.397000*%
%ADD18C,1.981000*%
G04 APERTURE END LIST*
D10*
D11*
X186436000Y-55880000D03*
X186436000Y-50040000D03*
X192286000Y-50040000D03*
X192286000Y-55880000D03*
D12*
X189366000Y-32350000D03*
X189366000Y-73570000D03*
D13*
X172908000Y-56254000D03*
X172908000Y-63754000D03*
X167908000Y-63754000D03*
X152908000Y-63754000D03*
X152908000Y-56254000D03*
X167908000Y-56254000D03*
X177908000Y-63754000D03*
X177908000Y-56254000D03*
D14*
X113030000Y-43942000D03*
X113020000Y-51442000D03*
X112776000Y-57912000D03*
X112766000Y-65412000D03*
D15*
X178308000Y-41148000D03*
X145308000Y-41148000D03*
X178308000Y-33274000D03*
X145308000Y-33274000D03*
X128778000Y-56134000D03*
X128778000Y-45234000D03*
D16*
X126108000Y-63447000D03*
X126108000Y-38407000D03*
D17*
X107287000Y-59374000D03*
X107287000Y-55874000D03*
D18*
X99377000Y-57624000D03*
D17*
X107287000Y-47374000D03*
X107287000Y-43874000D03*
D18*
X99377000Y-45624000D03*
D17*
X107287000Y-35374000D03*
X107287000Y-31874000D03*
D18*
X99377000Y-33624000D03*
D17*
X147828000Y-63754000D03*
X144328000Y-63754000D03*
D18*
X146078000Y-71664000D03*
D17*
X107287000Y-71374000D03*
X107287000Y-67874000D03*
D18*
X99377000Y-69624000D03*
M02*
