M48
;DRILL file {KiCad 4.0.7-e2-6376~58~ubuntu16.04.1} date Mon Feb  5 21:26:49 2018
;FORMAT={-:-/ absolute / inch / decimal}
FMAT,2
INCH,TZ
T1C0.031
T2C0.040
T3C0.043
T4C0.051
T5C0.060
T6C0.063
T7C0.094
T8C0.188
%
G90
G05
M72
T1
X5.07Y-1.7809
X5.07Y-2.21
X5.7208Y-1.31
X5.7208Y-1.62
X7.02Y-1.31
X7.02Y-1.62
T2
X4.2239Y-1.2549
X4.2239Y-1.3927
X4.2239Y-1.7273
X4.2239Y-1.8651
X4.2239Y-2.1998
X4.2239Y-2.3376
X4.2239Y-2.6722
X4.2239Y-2.81
X5.6822Y-2.51
X5.82Y-2.51
T3
X4.4396Y-2.5753
X4.44Y-2.28
X4.4496Y-2.0253
X4.45Y-1.73
T4
X6.02Y-2.2147
X6.02Y-2.51
X6.6106Y-2.2147
X6.6106Y-2.51
X6.8074Y-2.2147
X6.8074Y-2.51
X7.0043Y-2.2147
X7.0043Y-2.51
T5
X7.34Y-1.9701
X7.34Y-2.2
X7.5703Y-1.9701
X7.5703Y-2.2
T6
X3.9125Y-1.3238
X3.9125Y-1.7962
X3.9125Y-2.2687
X3.9125Y-2.7411
X5.7511Y-2.8214
T7
X4.9649Y-1.5121
X4.9649Y-2.4979
T8
X7.4554Y-1.2736
X7.4554Y-2.8965
T0
M30
